<?xml version="1.0" encoding="utf-8"?>
<!-- Generator: Adobe Illustrator 16.0.0, SVG Export Plug-In . SVG Version: 6.00 Build 0)  -->
<!DOCTYPE svg PUBLIC "-//W3C//DTD SVG 1.1//EN" "http://www.w3.org/Graphics/SVG/1.1/DTD/svg11.dtd">
<svg version="1.1" id="Layer_1" xmlns="http://www.w3.org/2000/svg" xmlns:xlink="http://www.w3.org/1999/xlink" x="0px" y="0px"
	 width="463.683px" height="425.749px" viewBox="0 0 463.683 425.749" enable-background="new 0 0 463.683 425.749"
	 xml:space="preserve">
<g>
	<path fill="#D7E4F2" d="M207.51,425.749c-7.696,0-14.094-5.516-15.213-13.115l-10.146-68.878
		c-30.42-8.811-58.642-20.671-83.986-35.304C39.271,274.448,5.493,230.649,5.493,188.284c0-29.769,17.28-56.139,48.657-74.254
		C84.053,96.766,124.723,87.64,171.763,87.64c68.261,0,140.113,18.881,197.136,51.803c58.895,34.003,92.672,77.803,92.672,120.167
		c0,29.769-17.279,56.14-48.656,74.255c-29.895,17.26-70.562,26.385-117.588,26.385c-0.005,0-0.003,0-0.009,0
		c-10.188,0-20.646-0.439-31.172-1.309l-44.279,60.52C216.943,423.457,212.439,425.749,207.51,425.749z"/>
	<path fill="#BCD6E4" d="M207.51,408.122c-7.696,0-14.094-5.516-15.213-13.114l-10.146-68.879
		c-30.419-8.81-58.64-20.67-83.986-35.304C39.271,256.822,5.493,213.022,5.493,170.657c0-29.769,17.28-56.139,48.657-74.254
		c29.903-17.265,70.573-26.39,117.612-26.39c68.261,0,140.114,18.881,197.137,51.803c58.895,34.003,92.672,77.802,92.672,120.167
		c0,29.769-17.279,56.14-48.656,74.255c-29.896,17.261-70.56,26.385-117.591,26.385c-0.003,0-0.005,0-0.008,0
		c-10.187,0-20.645-0.439-31.17-1.309l-44.279,60.521C216.943,405.83,212.439,408.122,207.51,408.122z"/>
	<path fill="#DFEBF2" d="M207.51,395.365c-7.696,0-14.094-5.516-15.213-13.115l-10.146-68.878
		c-30.42-8.81-58.642-20.671-83.986-35.304C39.271,244.064,5.493,200.266,5.493,157.9c0-29.768,17.28-56.139,48.657-74.254
		c29.903-17.265,70.573-26.391,117.613-26.391c68.261,0,140.113,18.882,197.136,51.803c58.895,34.004,92.672,77.803,92.672,120.168
		c0,29.768-17.279,56.139-48.656,74.254c-29.895,17.261-70.562,26.385-117.588,26.385c-0.005,0-0.003,0-0.009,0
		c-10.188,0-20.646-0.439-31.172-1.308l-44.279,60.519C216.943,393.073,212.439,395.365,207.51,395.365z"/>
	<path fill="#FAFCFD" d="M207.51,393.472c-7.195,0-13.178-5.157-14.224-12.261l-10.239-69.515l-0.617-0.179
		c-30.331-8.784-58.514-20.631-83.765-35.21C40.088,242.488,6.493,199.004,6.493,157.006c0-29.396,17.103-55.458,48.157-73.387
		c29.752-17.177,70.249-26.257,117.113-26.257c68.09,0,139.761,18.833,196.636,51.668c58.576,33.82,92.172,77.304,92.172,119.302
		c0,29.396-17.103,55.459-48.156,73.389c-29.745,17.174-70.233,26.251-117.088,26.251c-10.149-0.001-20.61-0.439-31.099-1.306
		l-0.559-0.045l-44.609,60.971C216.326,391.328,212.117,393.472,207.51,393.472z"/>
</g>
</svg>
