<?xml version="1.0" encoding="utf-8"?>
<!-- Generator: Adobe Illustrator 16.0.0, SVG Export Plug-In . SVG Version: 6.00 Build 0)  -->
<!DOCTYPE svg PUBLIC "-//W3C//DTD SVG 1.1//EN" "http://www.w3.org/Graphics/SVG/1.1/DTD/svg11.dtd">
<svg version="1.1" id="Layer_1" xmlns="http://www.w3.org/2000/svg" xmlns:xlink="http://www.w3.org/1999/xlink" x="0px" y="0px"
	 width="463.683px" height="425.749px" viewBox="0 0 463.683 425.749" enable-background="new 0 0 463.683 425.749"
	 xml:space="preserve">
<g>
	<path fill="#6A3646" d="M271.905,255.835c0,0,1.295-1.126,2.694-0.007c1.221,0.977,0.775,4.038,0.545,5.268
		c-0.247,1.322-0.143,4.563,1.948,4.327c-0.174,1.094-2.76,0.741-3.589,0.409S269.351,259.268,271.905,255.835z"/>
	<path fill="#D7E4F2" d="M262.462,323.146c4.217,2.683,11.25,2.974,15.71,0.649c4.46-2.325,4.657-6.384,0.44-9.067
		c-4.216-2.684-11.25-2.974-15.709-0.649C258.444,316.403,258.247,320.463,262.462,323.146z"/>
	<g>
		<g>
			
				<linearGradient id="SVGID_1_" gradientUnits="userSpaceOnUse" x1="1379.4604" y1="361.5049" x2="1384.8833" y2="361.5049" gradientTransform="matrix(0.9991 0.0431 -0.0431 0.9991 -1096.9154 -105.6812)">
				<stop  offset="0.1224" style="stop-color:#FEC7C7"/>
				<stop  offset="0.9694" style="stop-color:#FFADB7"/>
			</linearGradient>
			<path fill="url(#SVGID_1_)" d="M270.317,312.004c0,0,1.067,1.019,0.877,1.591c-0.191,0.571-2.601,4.038-3.788,4.39
				c-2.47,0.734-1.786-1.456-1.361-1.893c0.375-0.385,1.844-1.423,1.882-2.473C267.976,312.205,270.317,312.004,270.317,312.004z"/>
			<path fill="#8E8E8E" d="M269.892,315.328c0,0,0.4,0.158,0.391,0.47c-0.011,0.311-0.031,1.482-0.031,1.482s0.267,0.16,0.423,0.097
				c0.157-0.064,0.393-0.421,0.393-0.421s0.331-2.29,0.472-2.751C271.678,313.744,269.892,315.328,269.892,315.328z"/>
			<path fill="#DDE8F6" d="M271.351,312.721c0,0-1.726,1.863-2.435,3.115s-1.433,1.732-1.948,1.685
				c-0.822-0.076-1.329-0.61-1.126-1.02c0.202-0.409,0.202-0.409,0.202-0.409s-2.223,2.098-2.023,3.499
				c0.2,1.402,3.981-0.315,4.58-1.005c0.229-0.263,0.764-2.247,1.275-2.793c0.512-0.545,1.247-0.261,1.617-1.412
				S271.351,312.721,271.351,312.721z"/>
			<path fill="#8E8E8E" d="M269.994,315.522c-0.512,0.546-1.247,2.62-1.477,2.883c-0.557,0.642-3.882,2.132-4.497,1.161
				c0.001,0.008,0,0.017,0.001,0.024c0.2,1.402,3.981-0.315,4.58-1.005c0.229-0.263,0.764-2.247,1.275-2.793
				c0.445-0.475,1.286-0.27,1.549-1.227C271.07,314.785,270.365,315.127,269.994,315.522z"/>
		</g>
		<g>
			<path fill="#8E8E8E" d="M274.705,316.678c0,0,0.597-0.178,0.591,0.133c-0.006,0.312-0.092,2.251-0.092,2.251
				s0.138,0.134,0.293,0.067c0.156-0.066,0.386-0.427,0.386-0.427s0.244-1.894,0.234-2.376
				C276.106,315.754,274.705,316.678,274.705,316.678z"/>
			<path fill="#FEBBC0" d="M274.87,313.947c0,0,0.889,0.72,0.87,1.646c-0.017,0.91-1.162,4.603-2.326,5.026
				c-1.163,0.423-2.328-0.333-2.23-0.861s1.132-2.162,1.417-3.458C272.904,314.917,274.87,313.947,274.87,313.947z"/>
			<path fill="#DDE8F6" d="M272.596,315.763c0,0-0.88,1.646-1.263,2.768c-0.834,2.446-0.794,3.516-0.614,4.099
				c0.187,0.607,1.944,0.064,3.192-0.955c1.432-1.17,0.81-2.572,1.687-3.99c0.284-0.46,0.548-0.795,0.542-1.893
				c0.013-0.931-0.812-1.318-0.812-1.318s0.624,0.944,0.292,1.732c-0.168,0.397-0.105,0.569-0.357,1.065
				c-0.501,0.987-0.585,1.953-1.304,2.668c-0.676,0.67-2.674,0.257-2.62-0.14c0.101-0.732,0.742-1.967,0.998-2.652
				C272.641,316.328,272.596,315.763,272.596,315.763z"/>
			<path fill="#8E8E8E" d="M275.539,317.578c-0.877,1.418-0.215,2.729-1.646,3.898c-1.155,0.944-2.85,1.506-3.202,1.062
				c0.01,0.03,0.019,0.062,0.028,0.091c0.187,0.607,1.944,0.064,3.192-0.955c1.432-1.17,0.81-2.572,1.687-3.99
				c0.186-0.301,0.469-0.6,0.498-1.189C275.936,316.811,275.676,317.355,275.539,317.578z"/>
		</g>
		
			<linearGradient id="SVGID_2_" gradientUnits="userSpaceOnUse" x1="1379.6382" y1="350.8223" x2="1385.3872" y2="350.8223" gradientTransform="matrix(0.9991 0.0431 -0.0431 0.9991 -1096.9154 -105.6812)">
			<stop  offset="0.1224" style="stop-color:#FEC7C7"/>
			<stop  offset="0.9694" style="stop-color:#FFADB7"/>
		</linearGradient>
		<path fill="url(#SVGID_2_)" d="M270.792,313.059c0,0,0,0.585-0.491,0.801c-0.502,0.223-1.191,0.302-2.349-0.45
			c0,0-0.377-14.463-1.178-18.69l3.447,6.082l1.447,0.052l0.002,0.001c0,0,0.597,4.637,0.238,7.071
			C271.548,310.361,270.792,313.059,270.792,313.059z"/>
		
			<linearGradient id="SVGID_3_" gradientUnits="userSpaceOnUse" x1="1378.2817" y1="338.6201" x2="1384.9595" y2="338.6201" gradientTransform="matrix(0.9991 0.0431 -0.0431 0.9991 -1096.9154 -105.6812)">
			<stop  offset="0.1224" style="stop-color:#FEC7C7"/>
			<stop  offset="0.9694" style="stop-color:#FFADB7"/>
		</linearGradient>
		<path fill="url(#SVGID_3_)" d="M271.733,300.692c-0.017,0.056-0.038,0.108-0.063,0.161l-0.002-0.001
			c-0.214,0.452-0.678,0.72-1.211,0.838c-1.054,0.234-2.378-0.122-2.606-0.827c-0.016-0.043-0.029-0.095-0.048-0.152
			c-0.416-1.382-1.302-7.197-1.859-11.52c-0.581-4.505,0.542-6.655,0.542-6.655l5.5,0.999c0,0,0.048,2.655,0.065,5.84
			C272.074,293.737,272.012,299.813,271.733,300.692z"/>
		
			<linearGradient id="SVGID_4_" gradientUnits="userSpaceOnUse" x1="1381.2778" y1="347.3457" x2="1385.3872" y2="347.3457" gradientTransform="matrix(0.9991 0.0431 -0.0431 0.9991 -1096.9154 -105.6812)">
			<stop  offset="0.1224" style="stop-color:#FCA4B5"/>
			<stop  offset="0.9896" style="stop-color:#FFADB7"/>
		</linearGradient>
		<path fill="url(#SVGID_4_)" d="M270.792,313.059c0,0,0,0.585-0.491,0.801c0.37-2.412,0.973-6.535,0.871-7.383
			c-0.065-0.57-0.209-3.362-0.364-4.705c-1.055-9.124-0.93-11.955-0.93-11.955l-1.174-1.789l3.348,1.348
			c0.022,4.362-0.039,10.438-0.318,11.317c-0.017,0.056-0.038,0.108-0.063,0.161c0,0,0.597,4.637,0.238,7.071
			C271.548,310.361,270.792,313.059,270.792,313.059z"/>
		
			<linearGradient id="SVGID_5_" gradientUnits="userSpaceOnUse" x1="1380.3188" y1="339.3613" x2="1390.3179" y2="339.3613" gradientTransform="matrix(0.9991 0.0431 -0.0431 0.9991 -1096.9154 -105.6812)">
			<stop  offset="0.1224" style="stop-color:#FEC7C7"/>
			<stop  offset="0.9694" style="stop-color:#FFADB7"/>
		</linearGradient>
		<path fill="url(#SVGID_5_)" d="M268.587,285.396l-0.77,0.901c0,0-0.066,1.111,2.392,2.961c0.015,2.608,0.98,10.944,1.79,12.931
			c0.811,1.986,3.315,0.444,3.739-1.864s1.78-9.596,1.942-11.376s0.275-4.44-0.958-5.489
			C275.49,282.409,268.587,285.396,268.587,285.396z"/>
		<path fill="#ECF2FA" d="M276.52,282.047c-1.401-2.44-6.378-2.2-8.729-1.647c-0.564,0.132-1.074,1.265-1.074,1.265
			s-1.091,2.884-0.966,5.286c0.126,2.403,0.331,4.435,1.023,9.958c6.933,3.29,9.69,0.959,9.69,0.959
			C277.141,292.768,279.39,287.043,276.52,282.047z"/>
		<path fill="#FEBBC0" d="M272.848,315.688c0.462-1.615-0.188-10.938-0.849-13.5c3.404-1.98,3.839-2.365,3.839-2.365
			s0.705,6.604,0.657,7.913c-0.049,1.307-0.89,7.758-0.89,7.758S274.515,317.365,272.848,315.688z"/>
	</g>
	<g>
		<path fill="#FEBFBF" d="M267.369,265.003c0,0-0.743,0.387-1.057,2.183c-0.314,1.797-0.818,8.195-0.406,9.081
			c0.413,0.886,1.681-0.642,2.125-4.64C268.475,267.63,269.712,265.536,267.369,265.003z"/>
		<path fill="#FEBFBF" d="M264.823,284.698c0,0,0.068,0.419-0.016,0.716s-0.458,1.447-0.458,1.447s0.021,0.416,0.002,0.623
			c-0.025,0.205,0.277,1.055,0.135,1.247c-0.014,0.022-0.026,0.034-0.045,0.051l-0.006-0.001c-0.105,0.07-0.229-0.05-0.278-0.101
			l0.11,0.221c0,0,0.006,0.012-0.009,0.047c-0.008,0.029-0.028,0.081-0.075,0.161c-0.047,0.086-0.131,0.098-0.201,0.088
			c-0.076-0.011-0.14-0.044-0.14-0.044s0.014,0.077-0.004,0.159v0.006c-0.017,0.076-0.063,0.15-0.159,0.174
			c-0.061,0.014-0.147-0.015-0.245-0.063c-0.219-0.108-0.483-0.321-0.523-0.354c0,0.012,0.009,0.061,0.005,0.113
			c0.005,0.113-0.022,0.259-0.188,0.267c-0.262,0.007-0.989-1.229-0.989-1.229s0.08-1.453,0.106-1.695
			c0.021-0.235,0.95-1.25,1.264-1.988c0.319-0.738,1.834-7.561,2.285-8.978c0.451-1.424,0.835-1.021,0.835-1.021
			c0.303-0.011,1.405,1.108,1.258,2.516C267.338,278.461,264.823,284.698,264.823,284.698z"/>
		<path fill="#CBDCF5" d="M267.053,281.471c0.126-1.484,0.525-4.332,0.211-5.545c-0.334-1.289-1.42-3.431-1.308-4.349
			c0.111-0.921,0.567-2.708,0.699-3.962c0.132-1.255,0.683-2.6,1.084-2.72c0.402-0.12,4.701-1.022,5.67-0.61
			c0.967,0.412,0.788,0.432,1.787,1.003c1,0.569,2.538,1.729,2.538,1.729s0.383,1.428,0.279,2.372
			c-0.034,0.329-0.093,0.628-0.182,0.836c-0.351,0.807-1.229,7.791-1.405,9.464c-0.074,0.705-0.026,1.572,0.093,2.357
			C276.774,283.717,269.07,283.844,267.053,281.471z"/>
		
			<linearGradient id="SVGID_6_" gradientUnits="userSpaceOnUse" x1="1454.1372" y1="310.9287" x2="1449.4482" y2="314.0729" gradientTransform="matrix(0.998 0.0629 -0.0629 0.998 -1157.5242 -137.1323)">
			<stop  offset="0.1224" style="stop-color:#FEC7C7"/>
			<stop  offset="0.9694" style="stop-color:#FFADB7"/>
		</linearGradient>
		<path fill="url(#SVGID_6_)" d="M273.633,264.183c0.124,0.001,0.368,0.426,0.897,0.737c0.467,0.275,0.702,0.299,0.063,0.931
			c-0.639,0.631-2.894,3.428-4.404,3.164c-1.512-0.263-1.491-1.725-1.454-2.311c0.036-0.585,0.878-1.947,1.163-2.085
			C270.182,264.48,273.633,264.183,273.633,264.183z"/>
		
			<linearGradient id="SVGID_7_" gradientUnits="userSpaceOnUse" x1="1453.0386" y1="309.6143" x2="1450.5493" y2="312.9169" gradientTransform="matrix(0.998 0.0629 -0.0629 0.998 -1157.5242 -137.1323)">
			<stop  offset="0.1224" style="stop-color:#FEC7C7"/>
			<stop  offset="0.9694" style="stop-color:#FFADB7"/>
		</linearGradient>
		<path fill="url(#SVGID_7_)" d="M269.537,264.213c0,0,0.285,0.605,0.25,1.167s-0.311,1.504-0.311,1.504s0.368,0.647,1.729,0.445
			c1.362-0.202,1.392-0.681,1.816-0.941c0.424-0.261,1.497-1.426,1.424-1.503c-0.073-0.076-1.227-0.599-0.853-2.239
			c0.375-1.641,0.729-2.062,0.729-2.062s0.61-1.141,0.134-1.17C273.981,259.384,269.537,264.213,269.537,264.213z"/>
		
			<linearGradient id="SVGID_8_" gradientUnits="userSpaceOnUse" x1="1449.5083" y1="311.3066" x2="1452.6128" y2="311.3066" gradientTransform="matrix(0.998 0.0629 -0.0629 0.998 -1157.5242 -137.1323)">
			<stop  offset="0.1224" style="stop-color:#FCA4B5"/>
			<stop  offset="0.9896" style="stop-color:#FFADB7"/>
		</linearGradient>
		<path fill="url(#SVGID_8_)" d="M272.704,263.317c0,0-1.126,1.132-1.352,1.694c-0.226,0.561-1.331,1.354-1.331,1.354l-0.236-1.218
			l-0.248-0.936L272.704,263.317z"/>
		<path fill="#DDE8F6" d="M276.61,284.672c-0.419-1.873-1.171-3.834-1.358-4.556c-0.268-1.031,0.572-3.874,0.611-4.007
			c-0.104,0.161-2.048,3.471-3.957,3.318c-1.981-0.079-1.01-8.724-1.01-8.724l1.93,1.999l1.969-3.906l1.563,1.711l1.57-1.438
			c-0.035,0.329-0.093,0.627-0.183,0.836c-0.351,0.807-1.229,7.791-1.404,9.464c-0.177,1.675,0.429,4.25,0.469,4.543
			C276.85,284.189,277.463,284.142,276.61,284.672z"/>
		<path fill="#FEBFBF" d="M277.911,267.32c0,0-0.175-0.526-1.002-0.223s-2.596,2.103-2.761,4.785
			C273.984,274.564,277.9,268.701,277.911,267.32z"/>
		<path fill="#FEBFBF" d="M277.727,267.275c0,0-0.685-0.674-1.859,0.728c-1.174,1.401-2.874,8.107-3.049,8.699
			c-0.175,0.591,0.101,2.163,1.097,1.69c0.997-0.473,3.045-4.969,3.433-5.756C277.736,271.851,278.906,267.968,277.727,267.275z"/>
		<path fill="#FEC7C7" d="M267.878,257.276c0,0-0.556,0.82-0.674,1.481c-0.117,0.662-0.134,1.273-0.134,1.273
			s0.136,0.424,0.079,0.972c-0.058,0.548,0.763,3.848,1.515,4.252c0.939,0.11,2.94-0.835,3.546-1.325
			c0.604-0.489,1.053-4.415,1.014-4.672c-0.039-0.256-0.191-1.44-1.062-1.977C271.292,256.744,267.878,257.276,267.878,257.276z"/>
		<g>
			
				<linearGradient id="SVGID_9_" gradientUnits="userSpaceOnUse" x1="1448.2388" y1="308.6523" x2="1447.1598" y2="309.2858" gradientTransform="matrix(0.998 0.0629 -0.0629 0.998 -1157.5242 -137.1323)">
				<stop  offset="0.1224" style="stop-color:#FEC7C7"/>
				<stop  offset="0.9896" style="stop-color:#FFDBDB"/>
			</linearGradient>
			<path fill="url(#SVGID_9_)" d="M268.068,260.854c0.053,0.495-0.641,1.661-0.604,2.003c0.036,0.34,1.245,0.292,1.245,0.292
				L268.068,260.854z"/>
			
				<linearGradient id="SVGID_10_" gradientUnits="userSpaceOnUse" x1="1447.3062" y1="308.6895" x2="1448.6196" y2="308.6895" gradientTransform="matrix(0.998 0.0629 -0.0629 0.998 -1157.5242 -137.1323)">
				<stop  offset="0.188" style="stop-color:#FFDCDC"/>
				<stop  offset="0.8991" style="stop-color:#FEC7C7"/>
			</linearGradient>
			<path fill="url(#SVGID_10_)" d="M268.326,263.192c-0.374-0.016-0.879-0.084-0.906-0.331c-0.018-0.165,0.114-0.485,0.267-0.855
				c0.171-0.416,0.365-0.887,0.338-1.146l0.088-0.01c0.029,0.282-0.16,0.744-0.344,1.19c-0.142,0.344-0.275,0.669-0.26,0.812
				c0.023,0.219,0.747,0.271,1.199,0.254l0.003,0.088C268.667,263.195,268.513,263.2,268.326,263.192z"/>
		</g>
		
			<ellipse transform="matrix(0.9945 0.1048 -0.1048 0.9945 28.8989 -26.8266)" fill="#FFFFFF" cx="269.635" cy="261.484" rx="0.335" ry="0.255"/>
		<path fill="#FFFFFF" d="M267.472,260.973c-0.108-0.07-0.16-0.206-0.113-0.301c0.046-0.095,0.172-0.114,0.28-0.043
			c0.109,0.071,0.16,0.206,0.114,0.301C267.707,261.025,267.582,261.044,267.472,260.973z"/>
		<g>
			<path fill="#754554" d="M270.413,260.965c-1.108-0.232-1.693-0.139-1.698-0.138l-0.024-0.146c0.025-0.004,0.614-0.1,1.753,0.139
				L270.413,260.965z"/>
		</g>
		<g>
			<path fill="#754554" d="M267.755,260.537c-0.16-0.106-0.618-0.387-0.821-0.408l0.016-0.147c0.28,0.03,0.862,0.416,0.887,0.433
				L267.755,260.537z"/>
		</g>
		<path fill="#FB7F9E" d="M269.308,264.03c0,0-0.383,0.359-0.778,0.37s-0.517-0.602-0.517-0.602S268.282,263.516,269.308,264.03z"/>
		
			<linearGradient id="SVGID_11_" gradientUnits="userSpaceOnUse" x1="1445.1763" y1="332.4639" x2="1445.2104" y2="332.4639" gradientTransform="matrix(0.998 0.0629 -0.0629 0.998 -1157.5242 -137.1323)">
			<stop  offset="0.1224" style="stop-color:#FCA4B5"/>
			<stop  offset="0.9896" style="stop-color:#FFADB7"/>
		</linearGradient>
		<path fill="url(#SVGID_11_)" d="M263.869,285.729c0.006-0.094,0.001-0.201-0.009-0.32
			C263.86,285.408,263.906,285.518,263.869,285.729z"/>
		
			<linearGradient id="SVGID_12_" gradientUnits="userSpaceOnUse" x1="1443.5532" y1="334.4863" x2="1445.5356" y2="334.4863" gradientTransform="matrix(0.998 0.0629 -0.0629 0.998 -1157.5242 -137.1323)">
			<stop  offset="0.1224" style="stop-color:#FCA4B5"/>
			<stop  offset="0.9896" style="stop-color:#FFADB7"/>
		</linearGradient>
		<path fill="url(#SVGID_12_)" d="M263.842,289.153c0,0,0.014,0.077-0.004,0.159c-0.035-0.191-0.413-0.5-0.413-0.5
			s-0.364-0.521-0.364-0.615c0.006-0.095-0.007-0.54-0.007-0.54l-0.088-0.124l-0.066,0.594l-0.125,0.384l0.243,0.472l0.416,0.447
			c-0.219-0.108-0.483-0.321-0.523-0.354c0,0.012,0.009,0.061,0.005,0.113c0,0-0.259-0.407-0.336-0.395
			c-0.079,0.019-0.343-0.027-0.343-0.027l-0.106-0.463c0,0-0.024-1.317,0.017-1.404c0.034-0.075,0.218-0.531,0.267-0.646
			c-0.019,0.194-0.18,1.429-0.17,1.654c0.015,0.238-0.041,0.649,0.041,0.768c0.087,0.117,0.275,0.041,0.323-0.057
			c0.054-0.098,0.233-0.786,0.233-0.786l0.029-0.271l0.245-0.701c0,0,0.333-0.211,0.596-0.704c0.088-0.172,0.133-0.312,0.157-0.423
			c-0.004,0.427-0.104,0.711-0.253,0.909c-0.176,0.244-0.405,0.312-0.405,0.312l-0.167,0.399l0.261-0.001l-0.186,0.124
			c0,0,0.036,0.458,0.035,0.666c-0.002,0.214,0.422,0.631,0.477,0.718c0.06,0.08,0.342,0.306,0.342,0.306l0.01,0.03
			C263.906,289.187,263.842,289.153,263.842,289.153z"/>
		
			<linearGradient id="SVGID_13_" gradientUnits="userSpaceOnUse" x1="1445.1099" y1="334.9121" x2="1445.9624" y2="334.9121" gradientTransform="matrix(0.998 0.0629 -0.0629 0.998 -1157.5242 -137.1323)">
			<stop  offset="0.1224" style="stop-color:#FCA4B5"/>
			<stop  offset="0.9896" style="stop-color:#FFADB7"/>
		</linearGradient>
		<path fill="url(#SVGID_13_)" d="M264.157,288.681l0.11,0.221c0,0,0.006,0.012-0.009,0.047c-0.087-0.124-0.163-0.235-0.191-0.249
			c-0.069-0.028-0.341-0.703-0.341-0.703l-0.044-0.814l0.247-0.057l-0.146,0.151l0.112,0.671l0.298,0.635l0.242,0.199
			C264.33,288.852,264.207,288.731,264.157,288.681z"/>
		<path fill="#754554" d="M272.16,261.205c0.004-0.036-0.3-1.958-0.701-2.373c-0.402-0.416-0.632-0.523-1.334-0.598
			s-1.602-0.217-1.975-0.34c-0.372-0.123-0.571-0.113-0.571-0.113s-0.34,0.712-0.394,1.094c0.158-1.09,0.413-2.025,1.344-2.746
			c0.93-0.721,1.768-1.476,4.186-0.775c2.418,0.699,2.035,3.764,1.93,4.427s-0.564,1.458-0.588,1.858
			c-0.022,0.4-0.166,0.734-0.166,0.734s0.483-1.851,0.08-1.904c-0.403-0.055-0.734,0.464-0.734,0.464l-0.617,1.055L272.16,261.205z"
			/>
		
			<linearGradient id="SVGID_14_" gradientUnits="userSpaceOnUse" x1="1452.5474" y1="308.0244" x2="1453.981" y2="308.0244" gradientTransform="matrix(0.998 0.0629 -0.0629 0.998 -1157.5242 -137.1323)">
			<stop  offset="0.1224" style="stop-color:#FEB9B8"/>
			<stop  offset="1" style="stop-color:#FFDEDE"/>
		</linearGradient>
		<path fill="url(#SVGID_14_)" d="M272.866,261.089c0,0,0.487-0.589,1.059-0.529s0.208,1.119-0.169,1.614
			c-0.378,0.494-0.74,0.641-0.74,0.641S272.526,261.766,272.866,261.089z"/>
		<g>
			<g>
				<path fill="#C4C8D8" d="M273.715,260.54l1.187,1.115c0.108,0.093,0.104,0.302-0.01,0.464l-2.667,3.88
					c-0.107,0.155-0.285,0.214-0.395,0.13l-1.422-1.09c-0.114-0.087-0.118-0.29-0.01-0.451l2.693-4.004
					c0.103-0.15,0.263-0.213,0.376-0.154C273.481,260.437,273.705,260.53,273.715,260.54z"/>
				<path fill="#EFF0F5" d="M273.76,260.568l1.398,1.201c0.107,0.093,0.103,0.301-0.01,0.463l-2.667,3.881
					c-0.108,0.154-0.285,0.213-0.395,0.13l-1.422-1.09c-0.114-0.088-0.119-0.291-0.01-0.451l2.692-4.004
					C273.462,260.53,273.648,260.472,273.76,260.568z"/>
				<path fill="#54585F" d="M275.096,262.208l-0.755,1.087l-1.896,2.771c-0.091,0.13-0.239,0.18-0.331,0.108l-1.396-1.071
					c-0.096-0.074-0.099-0.244-0.008-0.378l1.912-2.852l0.764-1.124c0.095-0.141,0.25-0.188,0.344-0.108l1.374,1.179
					C275.195,261.897,275.191,262.072,275.096,262.208z"/>
				<path fill="#54585F" d="M275.096,262.208l-0.755,1.087l-1.719-1.421l0.764-1.124c0.095-0.141,0.25-0.188,0.344-0.108
					l1.374,1.179C275.195,261.897,275.191,262.072,275.096,262.208z"/>
				<path fill="#838383" d="M273.501,261.117c0.052,0.043,0.131,0.025,0.177-0.042c0.045-0.067,0.04-0.157-0.012-0.201
					s-0.13-0.025-0.176,0.042C273.445,260.982,273.45,261.072,273.501,261.117z"/>
				<path fill="#B6B3F6" d="M273.518,261.092c0.042,0.035,0.104,0.021,0.141-0.033c0.036-0.053,0.032-0.125-0.009-0.16
					s-0.104-0.02-0.141,0.033C273.473,260.985,273.477,261.057,273.518,261.092z"/>
				<path fill="#D9D8FA" d="M273.627,260.912c-0.029-0.024-0.073-0.015-0.098,0.023c-0.025,0.037-0.022,0.087,0.006,0.111
					s0.072,0.014,0.098-0.023S273.656,260.937,273.627,260.912z"/>
				<path fill="#AFACF5" d="M273.602,260.948c-0.013-0.011-0.033-0.007-0.045,0.011c-0.012,0.017-0.01,0.04,0.003,0.051
					c0.014,0.012,0.033,0.007,0.045-0.01C273.617,260.982,273.616,260.959,273.602,260.948z"/>
				<path fill="#FFE56F" d="M273.42,261.246c-0.028-0.025-0.073-0.015-0.099,0.022c-0.025,0.038-0.021,0.088,0.007,0.112
					c0.029,0.024,0.073,0.014,0.099-0.023S273.45,261.271,273.42,261.246z"/>
				<path fill="#C4C8D8" d="M273.66,262.391c-0.094-0.079-0.236-0.045-0.318,0.076s-0.073,0.283,0.021,0.362
					s0.236,0.046,0.318-0.075C273.763,262.633,273.753,262.471,273.66,262.391z"/>
			</g>
		</g>
		
			<linearGradient id="SVGID_15_" gradientUnits="userSpaceOnUse" x1="1447.813" y1="322.6787" x2="1456.7357" y2="312.6221" gradientTransform="matrix(0.998 0.0629 -0.0629 0.998 -1157.5242 -137.1323)">
			<stop  offset="0.1224" style="stop-color:#FEB9B8"/>
			<stop  offset="1" style="stop-color:#FFDEDE"/>
		</linearGradient>
		<path fill="url(#SVGID_15_)" d="M274.548,276.501c0,0-0.939-2.667-1.135-3.714c-0.194-1.048-0.755-3.963-0.652-4.482
			c0.103-0.519,1.022-2.396,1.047-2.626c0.023-0.23-0.351-1.706-0.351-1.706l-0.134-0.174l-0.541-1.727c0,0-0.346-0.068-0.298,0.234
			c0.049,0.302,0.106,0.436,0.106,0.436s-1.057-0.399-1.139-0.384c-0.082,0.015-0.245,0.271,0.128,0.463
			c0.373,0.191,0.81,0.462,0.884,0.525c0.073,0.064,0.196,1.489,0.196,1.489s-0.792-1.319-0.841-1.389
			c-0.049-0.068-0.701-0.354-0.886-0.357s-0.317,0.047-0.318,0.207s0.87,0.573,0.87,0.573s0.492,1.119,0.431,1.249
			s-0.203-0.206-0.203-0.206l-0.784-0.78l-0.739,0.01c0,0-0.161,0.08-0.11,0.205c0.051,0.126,0.177,0.228,0.177,0.228l0.472,0.09
			c0,0,0.357,0.808,0.384,1.011c0.026,0.204-0.042,0.782-0.203,1.167c-0.16,0.384-0.138,1.005-0.042,1.247
			c0.094,0.242,0.201,0.447,0.17,0.668c-0.031,0.222-0.638,8.126,0.711,10.418c1.419,0.39,2.714-1.256,2.714-1.256
			S274.698,276.934,274.548,276.501z"/>
		
			<linearGradient id="SVGID_16_" gradientUnits="userSpaceOnUse" x1="1452.4175" y1="309.3057" x2="1453.0278" y2="309.3057" gradientTransform="matrix(0.998 0.0629 -0.0629 0.998 -1157.5242 -137.1323)">
			<stop  offset="0.1224" style="stop-color:#FCA4B5"/>
			<stop  offset="0.9896" style="stop-color:#FFADB7"/>
		</linearGradient>
		<path fill="url(#SVGID_16_)" d="M272.591,262.742c0,0,0.466,0.383,0.524,0.482c0.06,0.101-0.199-0.346-0.199-0.346l-0.364-0.258
			L272.591,262.742z"/>
	</g>
</g>
</svg>
