<?xml version="1.0" encoding="utf-8"?>
<!-- Generator: Adobe Illustrator 16.0.0, SVG Export Plug-In . SVG Version: 6.00 Build 0)  -->
<!DOCTYPE svg PUBLIC "-//W3C//DTD SVG 1.1//EN" "http://www.w3.org/Graphics/SVG/1.1/DTD/svg11.dtd">
<svg version="1.1" id="Layer_1" xmlns="http://www.w3.org/2000/svg" xmlns:xlink="http://www.w3.org/1999/xlink" x="0px" y="0px"
	 width="463.683px" height="425.749px" viewBox="0 0 463.683 425.749" enable-background="new 0 0 463.683 425.749"
	 xml:space="preserve">
<g>
	<path fill="#D7E4F2" d="M167.669,83.86c4.23,2.692,11.288,2.984,15.763,0.651c4.475-2.332,4.673-6.406,0.442-9.097
		c-4.231-2.692-11.288-2.984-15.763-0.652C163.636,77.094,163.438,81.167,167.669,83.86z"/>
	<g>
		<path fill="#6C6B79" d="M168.549,78.729c0,0-0.209,0.112-0.217,0.27c-0.008,0.157-0.004,0.59-0.001,0.691
			c0.003,0.102,0.279,0.492,0.939,0.631c0.66,0.14,2.247-0.317,2.778-0.643s1.248-1.14,1.47-1.206
			c0.222-0.066,0.89,0.043,0.89,0.043l0.6-0.063l0.981-0.373c0,0,0.115-0.666-0.16-0.869
			C175.554,77.007,168.549,78.729,168.549,78.729z"/>
		<path fill="#504F60" d="M172.212,75.956c0,0-0.771,0.512-0.907,0.654c-0.136,0.143-1.536,0.746-2.019,1.055
			c-0.483,0.309-0.841,0.827-0.87,0.996c-0.029,0.168-0.095,0.552-0.035,0.711c0.06,0.158,0.325,0.578,1.171,0.613
			c0.847,0.034,2.55-0.806,2.55-0.806s1.174-0.838,1.348-0.925c0.174-0.086,1.721-0.513,1.956-0.597
			c0.235-0.083,0.37-0.12,0.401-0.311s0.208-1.233,0.076-1.559C175.751,75.463,172.885,75.1,172.212,75.956z"/>
	</g>
	<g>
		<path fill="#6C6B79" d="M174.471,81.432c0,0-0.231,0.009-0.28,0.318s-0.033,0.676-0.033,0.676s0.297,0.434,1.268,0.536
			c0.97,0.101,2.146-0.282,2.746-0.638s0.812-0.641,1.167-1.157c0.355-0.516,0.728-0.767,0.728-0.767l0.155,0.038
			c0,0,0.854-0.648,0.992-0.871c0.07-0.184,0.104-1.119-0.031-1.201S174.471,81.432,174.471,81.432z"/>
		<path fill="#504F60" d="M177.051,77.892l-0.255,0.647c0,0-1.549,1.57-1.968,2.037c-0.419,0.467-0.631,0.874-0.642,1.29
			s1.075,0.661,1.237,0.669c0.162,0.008,0.88,0.063,1.792-0.298c0.912-0.362,1.283-0.699,2.003-1.518
			c0.721-0.818,1.21-1.27,1.432-1.458c0.222-0.188,0.545-0.487,0.537-0.724c-0.009-0.238,0.014-0.904-0.182-0.983
			C180.809,77.476,177.658,77.288,177.051,77.892z"/>
	</g>
	<g>
		<path fill="#FEBFBF" d="M170.655,50.279l-0.026,0.532c0,0-0.032,0.068-0.092,0.117c-0.036,0.03-0.084,0.053-0.14,0.046
			c-0.025-0.004-0.051-0.007-0.078-0.011c-0.134-0.021-0.281-0.057-0.281-0.057s-0.007,0.003-0.018,0.009
			c-0.051,0.022-0.196,0.086-0.259,0.058c-0.075-0.033-1.063-1.064-1.063-1.064s-0.378-1.536-0.36-1.792
			c0.017-0.256,0.462-2.572,0.55-3.452c0.089-0.879,0.458-5.596,0.511-6.386c0.053-0.788,0.46-2.066,0.572-2.911
			c0.11-0.842,0.372-4.373,0.372-4.373l1.619,0.11l-0.939,11.672L170.655,50.279z"/>
		
			<linearGradient id="SVGID_1_" gradientUnits="userSpaceOnUse" x1="1965.6138" y1="16.7578" x2="1967.3403" y2="16.7578" gradientTransform="matrix(0.9977 0.0675 -0.0675 0.9977 -1790.9294 -100.5544)">
			<stop  offset="0.1224" style="stop-color:#FCA4B5"/>
			<stop  offset="0.9896" style="stop-color:#FFADB7"/>
		</linearGradient>
		<path fill="url(#SVGID_1_)" d="M170.629,50.811c0,0-0.032,0.068-0.092,0.117c-0.001-0.107-0.001-0.204,0-0.231
			c0.005-0.07-0.244-0.287-0.364-0.408c-0.121-0.123-0.325-0.159-0.325-0.159s0.211,0.251,0.255,0.354
			c0.042,0.102,0.216,0.48,0.216,0.48c-0.134-0.021-0.281-0.057-0.281-0.057s-0.007,0.003-0.018,0.009
			c0.02-0.165-0.04-0.349-0.04-0.349s-0.646-0.757-0.771-0.93c0.022-0.199-0.164-0.954-0.159-1.068
			c0.003-0.114,0.202-0.936,0.202-0.936l0.708,0.091l0.313-0.829l0.011,1.636c0,0,0.197,1.29,0.297,1.513
			c0.024,0.054,0.049,0.138,0.073,0.236L170.629,50.811z"/>
		<path fill="#6F7ABD" d="M173.906,26.5c0,0-2.737-0.135-3.286,1.474c-0.548,1.608-0.678,3.095-0.678,3.095s0.796,0.689,1.014,0.713
			C171.175,31.806,173.906,26.5,173.906,26.5z"/>
		
			<linearGradient id="SVGID_2_" gradientUnits="userSpaceOnUse" x1="1965.9712" y1="14.1494" x2="1966.3782" y2="17.3064" gradientTransform="matrix(0.9977 0.0675 -0.0675 0.9977 -1790.9294 -100.5544)">
			<stop  offset="0.1224" style="stop-color:#FEB9B8"/>
			<stop  offset="1" style="stop-color:#FFDEDE"/>
		</linearGradient>
		<path fill="url(#SVGID_2_)" d="M169.967,48.511c0,0,0.019-0.672,0.101-0.813c0.082-0.14,0.024-1.272-0.097-1.488
			s-0.821-0.005-0.817,0.88c0.004,0.886,0.101,1.792,0.101,1.792s0.222,0.629,0.219,0.739c-0.002,0.11,0.11,0.351,0.358,0.281
			c0.247-0.069,0.232-0.53,0.222-0.646C170.043,49.143,169.967,48.511,169.967,48.511z"/>
	</g>
	<g>
		<path fill="#4F5997" d="M175.875,75.542c0,0-0.203,0.398-0.691,0.625c-0.499,0.233-1.292,0.288-2.469-0.441
			c0,0-0.6-13.736-1.493-17.96l3.604,5.303l1.452,0.021h0.002c0,0,0.698,4.64,0.391,7.09
			C176.361,72.631,175.875,75.542,175.875,75.542z"/>
		<path fill="#4F5997" d="M176.34,62.928c-0.016,0.056-0.036,0.109-0.06,0.162h-0.002c-0.204,0.457-0.664,0.737-1.196,0.866
			c-1.052,0.258-2.388-0.071-2.633-0.773c-0.015-0.043-0.031-0.095-0.05-0.152c-0.447-1.378-1.459-7.192-2.112-11.517
			c-0.679-4.506,0.402-6.687,0.402-6.687l5.539,0.885c0,0,0.104,2.663,0.19,5.856C176.534,55.943,176.602,62.04,176.34,62.928z"/>
		<path fill="#A8B0C2" d="M175.875,75.542c0,0-0.203,0.398-0.691,0.625c0.32-2.428,0.836-6.576,0.717-7.425
			c-0.078-0.571-0.282-3.368-0.467-4.712c-1.252-9.13-1.188-11.972-1.188-11.972l-1.215-1.77l3.387,1.279
			c0.116,4.375,0.184,10.473-0.078,11.36c-0.016,0.056-0.036,0.109-0.06,0.162c0,0,0.698,4.64,0.391,7.09
			C176.361,72.631,175.875,75.542,175.875,75.542z"/>
		<path fill="#4F5997" d="M172.857,47.649l-0.752,0.921c0,0-0.043,1.117,2.462,2.92c0.071,2.616,1.057,8.01,2.073,12.933
			c0.435,2.108,3.335,0.375,3.711-1.95c0.375-2.324,2.112-9.625,2.236-11.414c0.125-1.789,0.227-3.609-1.033-4.636
			C180.294,45.397,172.857,47.649,172.857,47.649z"/>
		<g>
			<g>
				<path fill="#8C92B0" d="M179.764,50.944c-2.653-0.114-2.916-1.915-2.919-1.934l0.246-0.032c0.01,0.075,0.28,1.838,3.218,1.718
					l0.011,0.248C180.124,50.952,179.938,50.952,179.764,50.944z"/>
			</g>
			<path fill="#1B292C" d="M182.4,46.675c0,0-1.23,1.503-4.506,1.678c-3.276,0.174-4.517-0.153-5.611-0.757
				c-1.094-0.605-1.763-1.465-1.763-1.465l0.204-1.458c0,0,0.62,1.108,2.176,1.728s4.909,0.5,6.274,0.386
				c1.365-0.115,3.106-1.221,3.106-1.221L182.4,46.675z"/>
			<path fill="#4F5997" d="M176.276,46.958c0,0-0.09,0.421-0.104,0.908s0,1.378,0,1.378l-0.495-0.032c0,0-0.088-0.852-0.068-1.285
				c0.02-0.434,0.134-1.045,0.134-1.045L176.276,46.958z"/>
			<path fill="#4F5997" d="M171.724,45.695c0,0-0.122,0.521-0.14,0.938c-0.019,0.415,0.047,1.113,0.047,1.113l-0.332-0.422
				c0,0-0.05-0.708-0.04-0.934c0.01-0.226,0.194-0.905,0.194-0.905L171.724,45.695z"/>
			<g>
				<path fill="#8C92B0" d="M170.118,48.218c-0.021-0.001-0.043-0.004-0.065-0.009l0.056-0.242c0.24,0.06,0.56-0.639,0.715-1.157
					l0.237,0.07C170.992,47.114,170.631,48.24,170.118,48.218z"/>
			</g>
			<g>
				<path fill="#CCDEFB" d="M173.861,48.506c-0.057,0-0.116-0.009-0.175-0.025l-0.924-0.254c-0.394-0.109-0.699-0.535-0.695-0.97
					l0.003-0.415c0.002-0.212,0.077-0.398,0.21-0.524c0.15-0.142,0.359-0.19,0.574-0.13l0.924,0.255
					c0.394,0.108,0.699,0.534,0.695,0.97l-0.004,0.415c-0.002,0.212-0.076,0.398-0.209,0.523
					C174.152,48.454,174.012,48.507,173.861,48.506z M172.687,46.639c-0.063-0.001-0.118,0.019-0.158,0.057
					c-0.042,0.039-0.063,0.094-0.063,0.164l-0.004,0.416c-0.002,0.204,0.175,0.433,0.379,0.488l0.924,0.255
					c0.099,0.027,0.19,0.011,0.248-0.044c0.042-0.039,0.063-0.094,0.063-0.164l0.004-0.415c0.002-0.204-0.175-0.433-0.379-0.489
					l-0.924-0.254C172.746,46.643,172.715,46.639,172.687,46.639z"/>
			</g>
		</g>
		<path fill="#4F5997" d="M177.533,77.481c0.428-1.63-0.176-10.503-0.893-13.058c3.372-2.06,3.8-2.455,3.8-2.455
			s1.313,5.601,1.367,7.896c0.03,1.313-1.265,7.829-1.265,7.829S179.241,79.127,177.533,77.481z"/>
		<g>
			<path fill="#8C92B0" d="M180.136,78.5l-0.242-0.055c0.013-0.056,1.289-5.698,1.244-8.291c-0.034-2.019-0.557-4.622-0.902-6.345
				c-0.162-0.806-0.29-1.442-0.328-1.804c-0.038-0.362,0.157-1.398,0.425-2.833c0.611-3.267,1.536-8.202,0.644-10.034l0.223-0.108
				c0.927,1.906-0.005,6.89-0.623,10.188c-0.255,1.361-0.456,2.437-0.422,2.763c0.037,0.349,0.163,0.981,0.324,1.781
				c0.347,1.731,0.872,4.348,0.908,6.388C181.431,72.773,180.149,78.444,180.136,78.5z"/>
		</g>
	</g>
	<g>
		<path fill="#5F6BB5" d="M182.512,33.546c-0.195,0.674-0.382,1.247-0.502,1.538c-0.425,1.024-0.927,3.926-0.924,5.715
			c0.009,1.52,0.349,1.893,0.555,3.201c0.031,0.229,0.238,1.389,0.262,1.684c-0.118,1.03-1.068,0.321-2.33,0.643
			c-0.211,0.055-0.435,0.104-0.676,0.141c-0.82,0.138-2.123,0.201-3.21,0.219c-4.48-0.254-4.928-2.138-4.928-2.138
			s-0.01-3.664-0.113-4.963c-0.104-1.3-0.653-1.996-0.641-2.824c0.018-0.829,0.391-3.354,1.003-5.527
			c0.605-2.167,1.05-4.037,1.675-4.348c0.57-0.275,1.206-0.262,2.157-0.373c0.945-0.105,3.044,0.301,3.044,0.301
			s1.165,0.302,1.623,0.468c0.459,0.166,3.066,1.521,3.597,1.952C183.488,29.544,182.981,31.869,182.512,33.546z"/>
	</g>
	<g>
		<path fill="#1B292C" d="M171.412,46.575c0,0-0.5,0.101-0.603,0.061c-0.1-0.044-0.29-0.355-0.309-0.523
			c-0.022-0.163,0.06-1.698,0.089-1.78c0.027-0.087,0.425-0.026,0.496-0.055c0.065-0.029,0.306,0.372,0.36,0.456l0.006,0.012
			C171.491,44.862,171.412,46.575,171.412,46.575z"/>
		<path fill="#263336" d="M171.452,44.744c0,0-0.465,0.037-0.504,0.043c-0.042,0.007-0.403,0.697-0.403,0.697l0.045-1.152
			c0.027-0.087,0.425-0.026,0.496-0.055c0.065-0.029,0.306,0.372,0.36,0.456L171.452,44.744z"/>
		<path fill="#CCDEFB" d="M170.638,45.074c0.002,0.066-0.01,0.123-0.027,0.126c-0.017,0.004-0.032-0.048-0.034-0.115
			c-0.002-0.066,0.01-0.124,0.027-0.126C170.621,44.956,170.636,45.007,170.638,45.074z"/>
	</g>
	<path fill="#A8B0C2" d="M182.01,35.084c-0.425,1.024-0.927,3.926-0.924,5.715c0.009,1.52,0.349,1.893,0.555,3.201l-2.077,2.717
		l-0.346,0.449l-0.33-0.307l0.805-1.935c0,0,0.447-0.65,0.634-1.247s-0.979-4.651-0.919-5.203c0.06-0.545,0.467-0.765,0.942-2.177
		c0.481-1.419,0.283-3.621,0.283-3.621c0.475-0.561,1.281,0.166,1.879,0.87C182.317,34.221,182.13,34.793,182.01,35.084z"/>
	
		<linearGradient id="SVGID_3_" gradientUnits="userSpaceOnUse" x1="1998.2632" y1="27.0874" x2="1995.494" y2="24.4355" gradientTransform="matrix(0.9969 0.0788 -0.0788 0.9969 -1811.2739 -157.5149)">
		<stop  offset="0.1224" style="stop-color:#FEC7C7"/>
		<stop  offset="0.9694" style="stop-color:#FFADB7"/>
	</linearGradient>
	<path fill="url(#SVGID_3_)" d="M174.229,24.457c0,0,0.546,1.811,0.355,2.335c-0.19,0.524-1.075,1.694-0.726,2.364
		c0.349,0.671,1.733,1.309,2.952,0.555s1.551-1.281,1.871-1.556s0.722-0.715,0.522-0.948c-0.2-0.234-0.383-1.147-0.39-1.94
		c-0.006-0.792,0.026-1.639,0.25-2.723c0.224-1.084,0.307-2.433,0.307-2.433l-2.919,1.641L174.229,24.457z"/>
	
		<linearGradient id="SVGID_4_" gradientUnits="userSpaceOnUse" x1="1994.1294" y1="25.2471" x2="1995.9669" y2="27.1317" gradientTransform="matrix(0.9969 0.0788 -0.0788 0.9969 -1811.2739 -157.5149)">
		<stop  offset="0.1224" style="stop-color:#FCA4B5"/>
		<stop  offset="0.9896" style="stop-color:#FFADB7"/>
	</linearGradient>
	<path fill="url(#SVGID_4_)" d="M174.524,25.651c0,0,0.1,0.866,0.081,1.063c-0.019,0.197-0.571,0.94-0.533,1.093
		s0.801,1.154,1.24,0.993c0.439-0.16,0.801-2.318,1.708-2.971c0.318-0.229,0.752-1.152,0.752-1.152L174.524,25.651z"/>
	<g>
		<path fill="#FEBFBF" d="M186.692,35.537c0,0-1.86-3.59-2.849-4.389c-1.928-0.249-2.258,1.877-2.189,2.623s0.653,1.625,1.99,3.012
			c1.338,1.387,2.117,2.98,2.797,3.625c0.68,0.646,2.688,1.448,3.051,0.418C189.465,39.462,187.848,36.921,186.692,35.537z"/>
		<g>
			<path fill="#1B292C" d="M182.657,46.872c0.009,0.378-0.162,0.68-0.354,0.899c-0.058,0.063-0.127,0.13-0.201,0.202
				c-0.17,0.149-0.319,0.226-0.319,0.226l-0.003,0.047l-0.136,3.367c0,0-0.894,0.675-2.116,0.407
				c-0.467-0.723-1.147-5.202-1.035-5.381c0.112-0.18,2.466-0.926,2.466-0.926l0.86-0.335c0,0,0.375,0.098,0.582,0.169
				C182.616,45.622,182.649,46.007,182.657,46.872z"/>
			<path fill="#263336" d="M182.657,46.872c0.009,0.378-0.162,0.68-0.354,0.899c-0.058,0.063-0.127,0.13-0.201,0.202
				c-0.1,0.09-0.204,0.186-0.322,0.272c-0.305,0.24-0.667,0.456-1.04,0.551c-1.033,0.257-1.661-1.213-1.715-1.495
				s-0.531-0.664-0.531-0.664c0.112-0.18,2.466-0.926,2.466-0.926l0.86-0.335c0,0,0.375,0.098,0.582,0.169
				C182.616,45.622,182.649,46.007,182.657,46.872z"/>
			
				<ellipse transform="matrix(0.9822 0.1878 -0.1878 0.9822 12.274 -33.0482)" fill="#CCDEFB" cx="180.57" cy="48.26" rx="0.27" ry="0.329"/>
		</g>
		<path fill="#FEBFBF" d="M189.316,41.3c-0.119,0.108-0.285,0.226-0.504,0.356c-0.527,0.322-1.189,0.887-2.354,1.361
			c-1.632,0.663-4.703,1.682-4.74,1.738c-0.043,0.06-0.209,0.933-0.288,1.554c-0.038,0.307-0.158,0.774-0.273,1.178
			c-0.119,0.418-0.231,0.768-0.24,0.806c-0.016,0.071-0.788,0.753-0.788,0.753l-0.185,0.023c0,0-0.533,0.24-0.625,0.245
			c-0.087,0.011-0.221-0.174-0.221-0.174s-0.218-0.144-0.202-0.215c0.016-0.071,0.575-0.851,0.575-0.851l0.116-1.053l-0.19-1.336
			c0,0-0.671,0.834-0.894,1.003c-0.223,0.17-0.576,0.451-0.73,0.116c-0.011-0.242,0.922-1.397,0.922-1.397s0.484-0.915,0.635-1.231
			c0.156-0.315,1.265-0.876,1.74-1.08s3.149-1.593,4.256-2.475s1.483-0.847,1.483-0.847l2.566,0.352
			C189.375,40.127,189.727,40.938,189.316,41.3z"/>
		
			<linearGradient id="SVGID_5_" gradientUnits="userSpaceOnUse" x1="2410.3442" y1="82.0947" x2="2409.8364" y2="83.974" gradientTransform="matrix(0.9759 0.2184 -0.2184 0.9759 -2153.6746 -559.8042)">
			<stop  offset="0.1224" style="stop-color:#FCA4B5"/>
			<stop  offset="0.9896" style="stop-color:#FFADB7"/>
		</linearGradient>
		<path fill="url(#SVGID_5_)" d="M180.302,47.035l-0.212,1.099c0,0-0.577,0.68-0.716,0.79c-0.14,0.11-0.277,0.214-0.277,0.214
			s0.261-0.049,0.39-0.175c0.129-0.126,0.591-0.623,0.662-0.729c0.07-0.105,0.204-0.911,0.204-0.911L180.302,47.035z"/>
		
			<linearGradient id="SVGID_6_" gradientUnits="userSpaceOnUse" x1="2410.8755" y1="82.2393" x2="2410.3677" y2="84.1184" gradientTransform="matrix(0.9759 0.2184 -0.2184 0.9759 -2153.6746 -559.8042)">
			<stop  offset="0.1224" style="stop-color:#FCA4B5"/>
			<stop  offset="0.9896" style="stop-color:#FFADB7"/>
		</linearGradient>
		<path fill="url(#SVGID_6_)" d="M180.814,47.069c0,0-0.274,1.287-0.297,1.329s-0.419,0.547-0.419,0.547s0.488-0.403,0.546-0.484
			S180.814,47.069,180.814,47.069z"/>
		
			<linearGradient id="SVGID_7_" gradientUnits="userSpaceOnUse" x1="2410.3726" y1="78.7676" x2="2417.4565" y2="78.7676" gradientTransform="matrix(0.9759 0.2184 -0.2184 0.9759 -2153.6746 -559.8042)">
			<stop  offset="0.1224" style="stop-color:#FCA4B5"/>
			<stop  offset="0.9896" style="stop-color:#FFADB7"/>
		</linearGradient>
		<path fill="url(#SVGID_7_)" d="M189.183,41.18l-0.372,0.476c-0.527,0.322-1.189,0.887-2.354,1.361
			c-1.632,0.663-4.703,1.682-4.74,1.738c-0.043,0.06-0.209,0.933-0.288,1.554c-0.038,0.307-0.158,0.774-0.273,1.178
			c0,0,0.184-1.402,0.182-1.748c-0.003-0.345-0.132-0.954-0.132-0.954l-0.03-0.267c0,0,1.488-0.556,2.322-0.754
			c0.833-0.194,4.303-1.9,4.303-1.9L189.183,41.18z"/>
		<path fill="#6F7ABD" d="M186.015,33.377c0,0-0.336,0.796-1.273,1.206c-0.938,0.409-2.502,0.954-2.502,0.954l-1.452-2.093
			c0,0-0.575-1.603,0.4-3.083c0.975-1.479,1.917-1.126,1.917-1.126s1.23,1.254,1.784,2.106
			C185.442,32.194,186.015,33.377,186.015,33.377z"/>
	</g>
	<path fill="#FEC7C7" d="M174.368,17.615c0,0-1.109,0.245-1.482,1.329c-0.372,1.084-0.524,1.405-0.503,1.717
		c0.021,0.312-0.181,2.178-0.181,2.178s0.267,2.982,0.915,3.355c0.648,0.372,3.952-0.618,4.525-1.341
		c0.574-0.724,0.868-1.688,0.868-1.688s1.323-1.342,0.941-3.048c-0.381-1.706-1.816-2.577-2.395-2.669
		C176.478,17.357,174.368,17.615,174.368,17.615z"/>
	<g>
		
			<linearGradient id="SVGID_8_" gradientUnits="userSpaceOnUse" x1="1992.2876" y1="23.3096" x2="1991.3246" y2="23.4951" gradientTransform="matrix(0.9969 0.0788 -0.0788 0.9969 -1811.2739 -157.5149)">
			<stop  offset="0.1224" style="stop-color:#FEC7C7"/>
			<stop  offset="0.9896" style="stop-color:#FFDBDB"/>
		</linearGradient>
		<path fill="url(#SVGID_8_)" d="M172.987,21.586c-0.09,0.412-0.758,1.362-0.892,1.703c-0.134,0.341,0.779,0.505,1.106,0.532
			L172.987,21.586z"/>
		
			<linearGradient id="SVGID_9_" gradientUnits="userSpaceOnUse" x1="1991.3794" y1="23.3096" x2="1992.5747" y2="23.3096" gradientTransform="matrix(0.9969 0.0788 -0.0788 0.9969 -1811.2739 -157.5149)">
			<stop  offset="0.188" style="stop-color:#FFDCDC"/>
			<stop  offset="0.8991" style="stop-color:#FEC7C7"/>
		</linearGradient>
		<path fill="url(#SVGID_9_)" d="M173.197,23.863c-0.239-0.019-0.96-0.132-1.123-0.391c-0.04-0.063-0.045-0.129-0.019-0.198
			c0.055-0.14,0.191-0.369,0.348-0.634c0.229-0.385,0.489-0.822,0.542-1.063l0.083,0.018c-0.056,0.254-0.319,0.697-0.551,1.088
			c-0.149,0.251-0.291,0.488-0.343,0.621c-0.017,0.043-0.013,0.083,0.012,0.122c0.131,0.211,0.782,0.33,1.059,0.352L173.197,23.863z
			"/>
	</g>
	<circle fill="#FFFFFF" cx="174.356" cy="22.107" r="0.265"/>
	<path fill="#FFFFFF" d="M172.851,21.685c-0.051,0.124-0.167,0.162-0.26,0.084s-0.126-0.24-0.076-0.364
		c0.05-0.124,0.167-0.162,0.259-0.085C172.867,21.397,172.901,21.561,172.851,21.685z"/>
	<polygon fill="#754554" points="173.578,21.215 173.589,21.495 174.649,21.504 175.809,21.648 174.736,21.184 	"/>
	<polygon fill="#754554" points="172.837,21.044 172.824,21.214 172.239,20.637 172.34,20.415 172.847,20.915 	"/>
	<path fill="#FB7F9E" d="M172.633,24.809c0,0-0.019,0.193,0.21,0.334c0.23,0.14,0.813-0.028,0.813-0.028s-0.531-0.252-0.631-0.294
		C172.926,24.778,172.633,24.809,172.633,24.809z"/>
	<path fill="#FB7F9E" d="M173.745,25.016c0,0-0.504-0.017-0.571-0.087c-0.066-0.071-0.52-0.206-0.52-0.206l-0.145-0.149
		c0,0,0.305-0.037,0.335-0.035c0.031,0.002,0.39,0.157,0.39,0.157L173.745,25.016z"/>
	<path fill="#754554" d="M176.936,19.54c0,0-0.129,0.77,0.008,1.355c0.138,0.584,0.455,1.505,0.579,1.687
		c0.124,0.182,0.248,1.328,0.248,1.328s0.203-1.511,0.287-1.71c0.084-0.2,0.849-0.289,0.849-0.289l-0.073,2.393
		c0,0,1.005-1.251,1.558-1.851c0.552-0.6,0.945-2.516,0.651-3.871c-0.295-1.354-1.09-1.616-1.864-1.987
		c-0.774-0.371-1.76-0.392-2.765-0.31c-1.005,0.082-2.122,0.705-2.63,1.181c-0.508,0.477-0.611,0.939-0.611,0.939
		s0.037,0.231,1.479,0.289C176.092,18.75,176.801,18.933,176.936,19.54z"/>
	
		<linearGradient id="SVGID_10_" gradientUnits="userSpaceOnUse" x1="1997.3452" y1="23.0884" x2="1998.9673" y2="23.0884" gradientTransform="matrix(0.9969 0.0788 -0.0788 0.9969 -1811.2739 -157.5149)">
		<stop  offset="0.1224" style="stop-color:#FEB9B8"/>
		<stop  offset="1" style="stop-color:#FFDEDE"/>
	</linearGradient>
	<path fill="url(#SVGID_10_)" d="M178.242,22.291c0,0,0.527-0.662,1.159-0.336c0.632,0.325,0.149,1.205-0.038,1.45
		c-0.188,0.246-0.712,0.487-0.841,0.577s-0.484,0.031-0.524-0.148s0.132-0.602,0.132-0.602S178.308,22.49,178.242,22.291z"/>
	
		<linearGradient id="SVGID_11_" gradientUnits="userSpaceOnUse" x1="1997.6685" y1="22.9434" x2="1998.7075" y2="22.9434" gradientTransform="matrix(0.9969 0.0788 -0.0788 0.9969 -1811.2739 -157.5149)">
		<stop  offset="0.1224" style="stop-color:#FCA4B5"/>
		<stop  offset="0.9896" style="stop-color:#FFADB7"/>
	</linearGradient>
	<path fill="url(#SVGID_11_)" d="M178.505,22.633c0,0-0.01-0.261,0.22-0.357s0.684-0.328,0.729,0.172
		c0.045,0.501-0.615,0.878-0.615,0.878s-0.476,0.139-0.499,0.144c-0.023,0.006,0.169-0.3,0.14-0.417
		C178.451,22.935,178.505,22.633,178.505,22.633z"/>
	<path fill="#1B292C" d="M180.072,27.911c0,0-0.389,0.767-0.402,0.925c0,0,0.971,0.362,1.516,0.935
		c0.893-0.802,1.919-0.535,1.919-0.535s-1.104-0.781-2.056-1.393C180.372,27.879,180.072,27.911,180.072,27.911z"/>
	<path fill="#CCDEFB" d="M184.036,30.449c-0.111-0.104-0.884,0.082-0.884,0.082s-0.444,0.702-0.367,0.847
		c0.076,0.144,1.125,1.511,1.946,1.185C185.128,31.799,184.146,30.552,184.036,30.449z"/>
	<g>
		<path fill="#6B6A78" d="M172.703,18.512c0,0-0.99,0.598-0.676,1.28c0.314,0.682,2.789,1.679,4.307,1.246
			c0.674-0.192,1.717-0.833,1.717-0.833S174.104,20.063,172.703,18.512z"/>
		<path fill="#1B292C" d="M172.667,18.638l0.156-2.024c0,0-0.26,0.689,1.082,1.389c1.781,0.93,5.45,1.31,7.523,0.426
			c0.085,0.208-0.214,1.024-0.214,1.024s-2.024,0.963-4.196,0.822C174.847,20.135,172.888,19.3,172.667,18.638z"/>
		<path fill="#4F5997" d="M172.75,17.726c0,0-1.302-1.932-1.283-2.17c0.02-0.239,1.29-0.481,3.207-0.246
			c1.917,0.235,5.607,2.99,7.948,2.788c-0.175,0.277-0.935,0.734-1.2,0.834C180.606,19.241,174.411,19.852,172.75,17.726z"/>
		<path fill="#7A84C2" d="M171.467,15.555c0,0,0.278-0.228,1.377,0.086c3.427,0.98,5.375,3.612,9.777,2.456
			c0.244-0.178-0.19-1.285-2.038-2.381c-0.837-0.496-6.24-1.459-7.162-1.282C172.501,14.611,171.27,15.119,171.467,15.555z"/>
		<path fill="#CCDEFB" d="M173.836,17.149c0.206,0.453,0.175,0.85-0.068,0.887c-0.243,0.036-0.606-0.301-0.812-0.754
			c-0.205-0.453-0.175-0.851,0.068-0.887C173.268,16.358,173.63,16.696,173.836,17.149z"/>
		<path fill="#8C8B96" d="M173.927,19.669c0,0-0.449,0.271-0.754,0.866c0.813,0.413,1.726,0.5,1.726,0.5s-0.003-0.604,0.522-0.911
			C174.801,20.032,173.927,19.669,173.927,19.669z"/>
		<g>
			<path fill="#B4B3BA" d="M176.765,20.327c-0.977-0.042-2.028-0.232-2.877-0.552c-0.673-0.253-1.101-0.574-1.271-0.953
				c-0.134-0.299-0.052-0.523-0.048-0.533l0.21,0.081l-0.105-0.041l0.106,0.039c-0.009,0.027-0.216,0.667,1.188,1.196
				c1.525,0.574,3.713,0.722,4.878,0.328l0.072,0.213C178.365,20.292,177.592,20.363,176.765,20.327z"/>
		</g>
		<circle fill="#B4B3BA" cx="178.707" cy="20.037" r="0.263"/>
	</g>
	<g>
		<path fill="#CCDEFB" d="M173.046,32.138c0.075-0.079-0.363-0.038-0.654-0.405c-0.12-0.152-0.131-0.142-0.333-0.077
			c-0.357,0.115-0.575-0.131-0.573-0.029c0.009,0.323-0.049,0.444-0.085,0.568c-0.363,1.223-0.075,1.129,0.503,1.808
			c0.838-0.247,0.994-0.03,1-1.226C172.905,32.639,172.924,32.266,173.046,32.138z"/>
		<path fill="#B5CFE2" d="M172.456,32.88c-0.002,0.307-0.172,0.528-0.378,0.494c-0.206-0.034-0.372-0.312-0.37-0.619
			s0.171-0.528,0.378-0.494C172.292,32.296,172.458,32.572,172.456,32.88z"/>
	</g>
	<g>
		<path fill="#6F7ABD" d="M175.685,33.518l-0.201,0.795l1.33,0.964l2.123-0.251l0.143-0.731
			C177.304,34.191,175.685,33.518,175.685,33.518z"/>
		<path fill="#CCDEFB" d="M175.854,32.884l-0.109,0.371c0,0,1.126,0.534,3.43,0.787l0.075-0.381
			C177.496,33.462,175.854,32.884,175.854,32.884z"/>
	</g>
	<polygon fill="#5F6BB5" points="175.697,29.313 175.446,29.184 174.457,29.085 174.066,27.938 173.513,28.781 173.693,30.308 
		175.875,30.89 	"/>
	<path fill="#7A84C2" d="M178.858,26.507l-0.083,0.735c0,0-0.796,1.936-3.33,1.942c-0.045,0.369,0.029,1.407,0.429,1.707
		c1.602-0.604,3.607-1.702,3.964-2.713c0.042-0.12-0.366-1.499-0.366-1.499l-0.568-0.456L178.858,26.507z"/>
	<path fill="#7A84C2" d="M174.53,27.051c0,0-0.019,0.795,0.047,1.023c0.065,0.229,0.261,0.854,0.869,1.109
		c-0.479,0.644-1.387,1.036-1.751,1.056c0.173-0.907,0.174-1.743,0.205-2.439C173.93,27.104,174.687,26.526,174.53,27.051z"/>
	<path fill="#1B292C" d="M174.651,26.484l0.11,0.288l-0.901,0.477l-1.72,0.101c0,0,0.412-0.568,0.733-0.713
		C173.193,26.491,174.651,26.484,174.651,26.484z"/>
	<ellipse fill="#CCDEFB" cx="180.377" cy="28.132" rx="0.178" ry="0.108"/>
	
		<ellipse transform="matrix(0.9748 -0.2231 0.2231 0.9748 -1.5803 39.5636)" fill="#CCDEFB" cx="174.275" cy="26.774" rx="0.125" ry="0.054"/>
</g>
</svg>
