<?xml version="1.0" encoding="utf-8"?>
<!-- Generator: Adobe Illustrator 16.0.0, SVG Export Plug-In . SVG Version: 6.00 Build 0)  -->
<!DOCTYPE svg PUBLIC "-//W3C//DTD SVG 1.1//EN" "http://www.w3.org/Graphics/SVG/1.1/DTD/svg11.dtd">
<svg version="1.1" id="Layer_1" xmlns="http://www.w3.org/2000/svg" xmlns:xlink="http://www.w3.org/1999/xlink" x="0px" y="0px"
	 width="463.683px" height="425.749px" viewBox="0 0 463.683 425.749" enable-background="new 0 0 463.683 425.749"
	 xml:space="preserve">
<g>
	<path fill="#D7E4F2" d="M212.25,85.32c-4.459-2.837-11.896-3.145-16.613-0.687c-4.716,2.458-4.924,6.751-0.466,9.589
		c4.459,2.837,11.896,3.145,16.613,0.687C216.5,92.45,216.708,88.157,212.25,85.32z"/>
	<g>
		<path fill="#FEBFBF" d="M193.962,39.977c0,0,0.088-1.407,0.206-2.037c0.221-1.174,1.809-4.821,2.499-5.441
			c0.689-0.621,3.122,2.185,3.122,2.185l-1.039,2.676c0,0-1.301,1.729-1.633,2.126S193.962,39.977,193.962,39.977z"/>
		<path fill="#FEBFBF" d="M203.313,26.469c0,0-2.674-1.28-4.282,0.47c-1.617,1.76-2.93,7.616-2.93,7.616s2.966,2.029,3.192,1.938
			s1.942-3.838,2.264-5.342C201.88,29.646,203.313,26.469,203.313,26.469z"/>
	</g>
	<g>
		<path fill="#626170" d="M194.695,88.114c0,0-0.27,0.137-0.283,0.337c-0.014,0.2-0.021,0.751-0.021,0.881
			c0.001,0.129,0.342,0.634,1.179,0.829c0.836,0.195,2.869-0.344,3.554-0.744c0.685-0.399,1.619-1.417,1.903-1.494
			c0.223-0.062,0.793,0.022,1.028,0.061c0.073,0.013,0.144,0.015,0.217,0.009l0.537-0.045c0.077-0.006,0.152-0.022,0.224-0.048
			l1.151-0.408c0,0,0.165-0.845-0.181-1.111C203.658,86.113,194.695,88.114,194.695,88.114z"/>
		<path fill="#C2D2EA" d="M199.433,84.684c0,0-0.996,0.631-1.172,0.809s-1.975,0.908-2.599,1.288
			c-0.624,0.38-1.093,1.031-1.134,1.244s-0.136,0.7-0.063,0.904c0.072,0.204,0.397,0.745,1.474,0.813
			c0.963,0.06,2.82-0.753,3.199-0.925c0.046-0.021,0.088-0.045,0.13-0.073c0.287-0.195,1.482-1.006,1.679-1.099
			c0.224-0.105,2.205-0.607,2.506-0.707c0.301-0.1,0.639-0.137,0.683-0.379c0.044-0.242,0.135-1.57-0.025-1.988
			S200.313,83.612,199.433,84.684z"/>
		<path fill="#5C617D" d="M204.13,84.862c-0.104,0.328-0.485,0.562-1.762,0.628c-0.147,0.006-0.295,0.013-0.442,0.013
			c-0.917,0.03-1.761-0.039-2.685-0.443c-0.324-0.142-0.542-0.462-0.545-0.815c-0.037-3.56-1.533-18.248-1.98-27.378
			c-0.283-5.774,0.97-8.708,0.97-8.708l6.168-0.355l0.226,15.234l-0.002,8.813C204.077,71.85,204.228,84.533,204.13,84.862z"/>
		<g>
			<path fill="#8C92B0" d="M202.38,85.514c-0.005-0.102-0.456-10.229-0.614-12.36c-0.158-2.135-0.287-14.247-0.289-14.369
				l0.238-0.002c0,0.122,0.13,12.226,0.288,14.354c0.158,2.133,0.609,12.264,0.614,12.366L202.38,85.514z"/>
		</g>
		<path fill="#A8B0C2" d="M204.13,84.862c-0.068,0.214-0.254,0.388-0.729,0.501c-0.567,0.091-1.033,0.127-1.476,0.14l-1.153-26.392
			c0,0-1.678-1.499-1.215-3.311c0.12-0.469,4.387,6.636,4.387,6.636l0.134,0.601l-0.002,8.813
			C204.077,71.85,204.228,84.533,204.13,84.862z"/>
		<g>
			<path fill="#6C6B79" d="M202.002,92.277l-0.37,0.354l-0.072,0.572c0,0,0.425,0.751,1.58,1.025
				c1.154,0.273,2.948-0.019,3.527-0.205s1.873-1.329,2.06-1.486c0.188-0.158,1.091-1.079,1.091-1.079l0.458,0.057l1.482-0.938
				c0,0,0.247-0.384,0.284-0.676c0.036-0.292,0.106-0.852,0.106-0.852s-0.058-0.631-0.47-0.771
				C211.269,88.139,202.002,92.277,202.002,92.277z"/>
			<path fill="#C2D2EA" d="M207.016,86.943c0,0-1.122,1.083-1.274,1.339c-0.152,0.257-0.444,0.661-0.79,0.94
				s-2.723,2.48-3.062,2.851c-0.339,0.371-0.252,0.778-0.259,0.829c-0.006,0.051,0.865,0.815,1.683,0.952
				c0.817,0.137,3.808-0.351,4.607-1.095c0.8-0.744,2.24-2.063,2.484-2.222c0.244-0.159,1.336-0.763,1.474-1.177
				c0.138-0.413,0.217-1.73,0.075-2.11C211.811,86.872,207.016,86.943,207.016,86.943z"/>
			<path fill="#5C617D" d="M211.661,88.218c-0.089,0.149-0.166,0.281-0.363,0.394c-0.282,0.173-0.833,0.322-2.057,0.481
				c-2.047,0.257-3.078-0.338-3.471-1.161c-0.838-9.217-1.533-13.883-1.816-15.482c-0.861-4.819-1.745-10.601-1.945-11.883
				c-0.201-1.283-1.264-1.725-2.126-3.402c-0.856-1.676,0-6.984,0-6.984s10.064-0.584,10.465,0.944
				c0.005,0.026,0.011,0.045,0.016,0.071c0.394,1.56,0.48,5.04,0.07,7.563c-1.037,6.377-0.41,11.424-0.41,11.424
				s0.17,1.108,0.941,4.458C211.737,77.996,211.882,87.85,211.661,88.218z"/>
			<g>
				<path fill="#8C92B0" d="M210.452,88.734c0.001-0.039,0.134-4.014-0.092-6.882c-0.286-3.629-0.845-5.746-1.338-7.614
					c-0.335-1.268-0.652-2.466-0.841-3.969c-0.4-3.191-0.059-7.324,0.216-10.646c0.046-0.559,0.091-1.097,0.13-1.605
					c0.267-3.484-0.167-5.255-0.172-5.272l0.228-0.058c0.019,0.073,0.449,1.819,0.179,5.348c-0.039,0.509-0.083,1.047-0.13,1.607
					c-0.273,3.31-0.614,7.43-0.216,10.597c0.187,1.487,0.501,2.678,0.834,3.938c0.496,1.877,1.058,4.005,1.346,7.656
					c0.227,2.882,0.094,6.869,0.092,6.909L210.452,88.734z"/>
			</g>
		</g>
		<g>
			<path fill="#8C92B0" d="M200.496,56.963c-0.074-0.003-0.154-0.027-0.235-0.073c-0.388-0.217-0.801-0.895-0.79-1.871
				c0.005-0.523,0.127-2.626,0.166-2.884l0.235,0.036c-0.034,0.221-0.158,2.303-0.164,2.851c-0.011,0.939,0.394,1.508,0.668,1.661
				c0.079,0.044,0.147,0.055,0.192,0.029c0.063-0.041,0.094-0.169,0.083-0.344c-0.078-1.224,0.096-4.061,0.3-4.188l0.06-0.038
				l0.068,0.035l-0.06,0.105l0.001-0.002l0.001,0.003l0.089,0.063c-0.086,0.188-0.317,2.525-0.222,4.006
				c0.022,0.347-0.093,0.497-0.194,0.56C200.636,56.949,200.569,56.966,200.496,56.963z M201.018,52.285l-0.056,0.098
				L201.018,52.285z"/>
		</g>
		<g>
			<path fill="#8C92B0" d="M206.567,57.139c-1.361-0.059-2.4-0.422-3.099-1.085c-0.906-0.861-0.882-1.904-0.88-1.947l0.237,0.008
				c0,0.009-0.019,0.985,0.811,1.771c0.868,0.821,2.311,1.152,4.292,0.982l0.02,0.236C207.456,57.146,206.995,57.157,206.567,57.139
				z"/>
		</g>
		<path fill="#A76478" d="M210.602,52.427c0,0-1.761,1.371-5.323,1.093c-3.562-0.278-4.904-0.762-6.081-1.49s-1.89-1.645-1.89-1.645
			l0.247-1.371c0,0,0.654,1.147,2.334,1.953c1.68,0.806,5.323,1.148,6.808,1.224s3.794-0.845,3.794-0.845L210.602,52.427z"/>
		<path fill="#5C617D" d="M203.547,51.961c0,0-0.105,0.391-0.129,0.856c-0.024,0.466-0.024,1.322-0.024,1.322l-0.538-0.098
			c0,0-0.081-0.828-0.052-1.241c0.029-0.413,0.164-0.983,0.164-0.983L203.547,51.961z"/>
		<path fill="#5C617D" d="M208.708,52.081c0,0,0.088,0.395,0.093,0.86c0.004,0.467-0.032,1.322-0.032,1.322l0.542-0.075
			c0,0,0.115-0.823,0.104-1.237c-0.012-0.415-0.123-0.99-0.123-0.99L208.708,52.081z"/>
		<path fill="#5C617D" d="M198.625,50.131c0,0-0.142,0.484-0.169,0.879c-0.027,0.396,0.032,1.075,0.032,1.075l-0.353-0.451
			c0,0-0.042-0.686-0.027-0.9c0.015-0.215,0.227-0.841,0.227-0.841L198.625,50.131z"/>
		<g>
			<path fill="#8C92B0" d="M196.874,52.336c-0.037-0.002-0.075-0.009-0.113-0.021l0.075-0.226c0.304,0.107,0.672-0.634,0.809-1.003
				l0.223,0.083C197.819,51.297,197.41,52.359,196.874,52.336z"/>
		</g>
		<g>
			<path fill="#CCDEFB" d="M200.897,53.117c-0.062-0.008-0.126-0.024-0.19-0.048l-0.999-0.37c-0.426-0.157-0.75-0.607-0.738-1.024
				l0.011-0.397c0.006-0.203,0.09-0.371,0.237-0.474c0.166-0.115,0.394-0.133,0.626-0.046l0.999,0.37
				c0.426,0.157,0.75,0.607,0.738,1.024l-0.011,0.398c-0.006,0.203-0.09,0.371-0.237,0.474
				C201.213,53.106,201.061,53.139,200.897,53.117z M199.654,51.167c-0.068-0.009-0.129,0.002-0.173,0.033
				c-0.045,0.032-0.069,0.082-0.072,0.149l-0.011,0.397c-0.006,0.196,0.183,0.438,0.403,0.52l0.999,0.37
				c0.107,0.04,0.206,0.037,0.271-0.008c0.045-0.032,0.069-0.082,0.071-0.148l0.012-0.398c0.005-0.195-0.183-0.438-0.403-0.52
				l-1-0.37C199.717,51.179,199.685,51.171,199.654,51.167z"/>
		</g>
	</g>
	<path fill="#DDE8F6" d="M211.416,43.18c-0.632,3.219-0.923,8.168-0.923,8.168c-0.153,0.147-0.332,0.28-0.529,0.393
		c-2.437,1.432-7.876,0.479-9.091,0.005c-2.009-0.785-3.316-2.083-3.343-2.347c-0.027-0.257-0.186-0.885-0.034-2.025
		c0.165-1.139,0.114-8.721,0.459-11.389c0.353-2.673,0.933-5.593,2.12-7.885c0.923-1.797,4.335-1.657,5.863-1.597
		c1.527,0.066,2.213,0.793,3.626,1.712c0.448,0.295,2.767,0.567,3.857,2.011c0.194,0.251,0.348,0.533,0.449,0.864
		C214.746,33.951,212.047,39.961,211.416,43.18z"/>
	<path fill="#FEBFBF" d="M213.053,29.756c0,0-0.783-0.574-1.435-0.821c-1.171,0.21-2.282,1.176-3.053,3.303
		c-0.771,2.128-1.897,6.071-1.661,7.531c0.236,1.46,4.127-0.046,4.127-0.046L213.053,29.756z"/>
	<path fill="#FEBFBF" d="M203.868,27.316c0,0-0.925-0.136-1.604,1.075c-0.679,1.211-0.949,4.681,0.892,5.601
		c1.841,0.92,5.219-3.803,5.43-4.047c0.21-0.244,1.529-0.993,0.959-1.599c-0.57-0.606-0.467-0.554-0.779-0.741
		S203.868,27.316,203.868,27.316z"/>
	<path fill="#FEBFBF" d="M203.308,26.603c0,0-1.813,0.589-2.56,2.017c-0.792,1.513-1.591,6.086-1.85,6.516
		c-0.259,0.429-0.917,0.656-0.917,0.656S197.869,25.856,203.308,26.603z"/>
	<path fill="#DDE8F6" d="M211.416,43.18c-0.632,3.219-0.923,8.168-0.923,8.168c-0.153,0.147-0.332,0.28-0.529,0.393
		c-0.295-0.569-0.448-1.18-0.556-2.216c-0.23-2.097-0.057-4.288,0.026-4.578c-0.107,0.251-0.445,0.621-1.558,0.52
		c-3.226-0.294-5.236-0.971-6.698-1.95c-1.462-0.984-2.004-1.307-2.004-1.307l-1.495,0.173l0.117-2.71l4.229,2.302l5.23-0.139
		l5.44-9.747c0,0,0.327-1.042,0.727-1.863c0.194,0.251,0.348,0.533,0.449,0.864C214.746,33.951,212.047,39.961,211.416,43.18z"/>
	<g>
		
			<linearGradient id="SVGID_1_" gradientUnits="userSpaceOnUse" x1="1066.0386" y1="111.5332" x2="1063.1172" y2="106.9921" gradientTransform="matrix(0.9958 0.0914 -0.0914 0.9958 -843.1835 -180.3286)">
			<stop  offset="0.1224" style="stop-color:#FEC7C7"/>
			<stop  offset="0.9694" style="stop-color:#FFADB7"/>
		</linearGradient>
		<path fill="url(#SVGID_1_)" d="M203.289,26.343c0,0,0.22,0.956,0.032,1.791c-0.188,0.834-0.638,0.959-0.207,1.277
			c0.431,0.317,1.721,0.923,3.366,0.352c1.645-0.571,2.671-1.753,2.495-2.022c-0.375-0.572-0.482-1.011-0.482-1.011
			s-0.368-1.237-0.103-2.713c0.265-1.475,1.879-3.123,1.409-3.851c-0.47-0.728-4.318-1.563-5.557,0.026
			C203.004,21.781,203.289,26.343,203.289,26.343z"/>
		<path fill="#E0B54B" d="M212.684,19.182c0,0,0.946-1.035,0.848-1.377c-0.098-0.342-0.64-1.299-1.466-1.375
			c-0.826-0.076-2.55-0.049-2.55-0.049l1.012,1.886L212.684,19.182z"/>
		<path fill="#F2D363" d="M210.363,19.454c0,0,0.506,0.286,0.634,0.726c0.129,0.44,0.046,0.932,0.046,0.932s1.468,0.339,1.705-0.417
			c0.236-0.756-0.021-1.391-0.021-1.391l-0.136-0.938l-1.472-0.675l-0.232,0.729l-0.307,0.569l-0.574,0.191L210.363,19.454z"/>
		<path fill="#F2D363" d="M212.295,17.562c0,0-0.5-0.601-0.762-1.181c-0.261-0.579-0.636-1.188-1.194-0.831
			c-0.558,0.356,0.103,1.23,0.103,1.23l1.416,1.111L212.295,17.562z"/>
		<path fill="#FEC7C7" d="M207.969,23.363c-0.282,0.916-0.65,1.762-0.966,2.247c-0.797,1.224-4.029,2.333-5.009,1.521
			c-0.45-0.375-0.59-1.701-0.61-3.057c-0.022-1.6,0.124-3.241,0.131-3.411c0.011-0.313,0.397-1.499,0.397-1.499
			s5.952-0.432,6.759,0.68C209.158,20.516,208.397,21.965,207.969,23.363z"/>
		<g>
			<path fill="#754554" d="M204.732,22.13c-0.718-0.404-1.794-0.382-1.805-0.381l-0.004-0.171c0.047-0.001,1.134-0.024,1.893,0.403
				L204.732,22.13z"/>
		</g>
		<g>
			<path fill="#754554" d="M202.119,21.383c-0.005-0.005-0.512-0.467-0.797-0.57l0.058-0.161c0.317,0.116,0.833,0.585,0.854,0.605
				L202.119,21.383z"/>
		</g>
		<g>
			
				<linearGradient id="SVGID_2_" gradientUnits="userSpaceOnUse" x1="1059.7905" y1="106.7832" x2="1058.7454" y2="107.0405" gradientTransform="matrix(0.9958 0.0914 -0.0914 0.9958 -843.1835 -180.3286)">
				<stop  offset="0.1224" style="stop-color:#FEC7C7"/>
				<stop  offset="0.9896" style="stop-color:#FFDBDB"/>
			</linearGradient>
			<path fill="url(#SVGID_2_)" d="M202.347,21.371c0.066,0.393-0.984,2.254-1.003,2.454c-0.018,0.199,1,0.505,1.427,0.494
				L202.347,21.371z"/>
			
				<linearGradient id="SVGID_3_" gradientUnits="userSpaceOnUse" x1="1058.7798" y1="106.7651" x2="1060.3022" y2="106.7651" gradientTransform="matrix(0.9958 0.0914 -0.0914 0.9958 -843.1835 -180.3286)">
				<stop  offset="0.188" style="stop-color:#FFDCDC"/>
				<stop  offset="0.8991" style="stop-color:#FEC7C7"/>
			</linearGradient>
			<path fill="url(#SVGID_3_)" d="M202.696,24.37c-0.41-0.018-1.169-0.238-1.354-0.435c-0.036-0.038-0.052-0.077-0.048-0.115
				c0.007-0.077,0.114-0.301,0.32-0.723c0.288-0.59,0.722-1.481,0.683-1.718l0.101-0.018c0.042,0.249-0.289,0.953-0.691,1.78
				c-0.15,0.307-0.306,0.625-0.312,0.688c0,0.005,0.005,0.018,0.021,0.035c0.162,0.172,0.971,0.41,1.353,0.402l0.003,0.103
				C202.749,24.371,202.723,24.371,202.696,24.37z"/>
		</g>
		<circle fill="#FFFFFF" cx="203.874" cy="22.516" r="0.306"/>
		
			<ellipse transform="matrix(0.9978 -0.066 0.066 0.9978 -0.9959 13.3783)" fill="#FFFFFF" cx="201.911" cy="21.758" rx="0.196" ry="0.269"/>
		<path fill="#CDA8AD" d="M207.492,22.724c-0.282,0.916-0.173,2.401-0.489,2.886c-0.797,1.224-4.029,2.333-5.009,1.521
			c-0.45-0.375-0.59-1.701-0.61-3.057l0.632,0.449l0.93,0.326c0,0,2.294,0.331,2.714,0.155c1.088-0.456,1.026-1.946,1.026-1.946
			L207.492,22.724z"/>
		<path fill="#754554" d="M207.41,23.056l-0.727,0.192c0,0,0.054-1.242-0.312-1.676c-0.366-0.434-1.204-1.37-1.204-1.37l2.456-0.948
			l2.91-0.431l0.422,1.447c0,0-0.327,1.543-0.82,2.275c-0.493,0.732-1.199,1.197-1.486,1.715c-0.212,0.383-0.35,0.614-0.35,0.614
			s-0.04-0.475,0.115-0.974c0.178-0.57,0.543-1.188,0.361-1.462c-0.342-0.512-0.798-0.563-0.987-0.321
			C207.599,22.362,207.41,23.056,207.41,23.056z"/>
		
			<linearGradient id="SVGID_4_" gradientUnits="userSpaceOnUse" x1="751.3774" y1="72.3853" x2="752.9937" y2="72.3853" gradientTransform="matrix(1 -0.0017 0.0017 1 -543.9082 -47.9065)">
			<stop  offset="0.1224" style="stop-color:#FEB9B8"/>
			<stop  offset="1" style="stop-color:#FFDEDE"/>
		</linearGradient>
		<path fill="url(#SVGID_4_)" d="M207.984,22.429c0,0,0.459-0.895,1.068-0.283c0.61,0.612-0.764,2.196-1.065,2.311
			c-0.301,0.115-0.48-0.668-0.352-0.85C207.764,23.425,207.984,22.429,207.984,22.429z"/>
		
			<linearGradient id="SVGID_5_" gradientUnits="userSpaceOnUse" x1="751.4575" y1="72.4248" x2="752.769" y2="72.4248" gradientTransform="matrix(1 -0.0017 0.0017 1 -543.9082 -47.9065)">
			<stop  offset="0.1224" style="stop-color:#FCA4B5"/>
			<stop  offset="0.9896" style="stop-color:#FFADB7"/>
		</linearGradient>
		<path fill="url(#SVGID_5_)" d="M208.153,22.392c0,0,0.78-0.296,0.827,0.146c0.047,0.443-0.866,1.593-1.03,1.643
			s-0.277-0.405-0.277-0.405L208.153,22.392z"/>
		<path fill="#754554" d="M207.171,22.055c0.019,0,0.188,0.644,0.921,1.063c-0.604-0.629-0.736-1.458-0.736-1.458
			s0.516,0.632,0.701,0.732c0.185,0.1,0.334,0.104,0.334,0.104l-0.331-0.238c0,0-0.421-0.461-0.404-0.838
			c0.016-0.377-0.218-0.455-0.218-0.455L207.171,22.055z"/>
		<path fill="#754554" d="M208.308,25.557c0,0,0.403-0.208,0.617-0.477c0.215-0.269,1.209-2.533,1.209-2.533
			s-1.272,1.099-1.458,1.411c-0.187,0.313-0.378,0.918-0.378,0.918S208.29,25.334,208.308,25.557z"/>
		<path fill="#F2D363" d="M211.276,18.986l0.219-0.165c0,0-0.58-1.553-1.979-2.44c-1.399-0.887-3.923-1.026-4.629-0.999
			c-0.706,0.028-1.762,0.635-1.896,1.085c-0.134,0.451-0.853,1.218-0.895,1.677s2.463,2.003,2.463,2.003
			S210.307,20.675,211.276,18.986z"/>
		<path fill="#F2D363" d="M210.673,21.317c0,0-0.798,0.218-1.979,0.097c-1.375-0.141-3.359-0.239-4.936-0.606
			c-1.577-0.367-2.254-1.034-2.254-1.034s0.051-1.161,0.302-1.471c0.25-0.311,0.25-0.311,0.25-0.311s1.536,1.215,2.299,1.377
			c0.762,0.163,4.863,0.262,5.818-0.262c0.583-0.32,1.012-0.377,1.256-0.374c0.156,0.002,0.238,0.029,0.238,0.029l-0.184,0.39
			L210.673,21.317z"/>
		<path fill="#E0B54B" d="M208.171,19.331c0,0-1.86-0.504-2.266-0.726c-0.406-0.223-1.234-0.875-1.234-0.875
			S205.458,19.044,208.171,19.331z"/>
		<path fill="#E0B54B" d="M205.91,18.957c0,0-2.841-0.915-3.35-1.421C203.111,17.589,205.91,18.957,205.91,18.957z"/>
		<path fill="#E0B54B" d="M207.909,19.474c0,0-2.713,0.008-3.134-0.049c-0.42-0.056-1.163-0.374-1.163-0.374l-1.234-0.814
			c0,0,1.237,0.713,2.164,0.9C205.469,19.323,207.909,19.474,207.909,19.474z"/>
		<path fill="#E0B54B" d="M208.389,20.591c0,0-1.859,0.292-2.374,0.245c-0.514-0.047-3.676-0.893-3.676-0.893l3.965,0.771
			L208.389,20.591z"/>
		<path fill="#FEC7C7" d="M203.074,25.657c0,0-1.247,0.172-1.412-0.556C202.01,24.939,203.074,25.657,203.074,25.657z"/>
	</g>
	<g>
		<path fill="#FEBFBF" d="M214.399,32.757c0.014,0.417,0.11,2.998-1.027,4.651c-0.928,2.815-2.841,5.657-3.939,6.762
			c-0.529,0.528-1.026,0.641-1.45,0.521c-0.923-0.264-1.522-1.654-1.375-2.409c0.042-0.216,0.136-0.634,0.269-1.179
			c0.539-2.243,0.152-4.715,2.444-9.152c0.911-3.009,2.724-2.45,2.724-2.45C214.038,29.58,214.362,31.539,214.399,32.757z"/>
		
			<linearGradient id="SVGID_6_" gradientUnits="userSpaceOnUse" x1="907.3091" y1="108.8203" x2="899.9681" y2="111.3115" gradientTransform="matrix(0.9991 0.0431 -0.0431 0.9991 -694.2938 -105.6812)">
			<stop  offset="0.1224" style="stop-color:#FEBFBF"/>
			<stop  offset="0.9694" style="stop-color:#FFADB7"/>
		</linearGradient>
		<path fill="url(#SVGID_6_)" d="M207.927,45.226c-5.05-0.026-8.349-2.946-8.836-3.544c-0.486-0.598,2.202-0.43,2.274-0.324
			c0.072,0.112,0.881,0.051,1.993,0.105c1.111,0.061,3.161-0.536,3.161-0.536l0.357,0.175l0.959,0.464l1.358,2.209l0.239,0.395
			C209.433,44.17,209.821,44.213,207.927,45.226z"/>
		
			<linearGradient id="SVGID_7_" gradientUnits="userSpaceOnUse" x1="900.6558" y1="105.4263" x2="898.737" y2="110.0633" gradientTransform="matrix(0.9991 0.0431 -0.0431 0.9991 -694.2938 -105.6812)">
			<stop  offset="0.1224" style="stop-color:#FEC7C7"/>
			<stop  offset="0.9694" style="stop-color:#FFADB7"/>
		</linearGradient>
		<path fill="url(#SVGID_7_)" d="M207.404,38.359l-0.479,1.759l-0.406,0.809l-2.397,0.505c0,0-2.107-0.117-2.24-0.001
			c-0.133,0.109-2.964,0.576-4.256,0.559c-0.986-0.01-2.847-0.642-3.496-1.035c-0.206-0.124-0.207-0.553-0.163-0.974
			c0.031-0.274,0.075-0.541,0.095-0.719c0.204-1.906,2.874-1.463,2.874-1.463s1.269,0.566,1.958,0.763
			c0.69,0.19,3.949,0.337,4.421,0.229c0.472-0.108,2.184-0.61,2.742-0.502C206.615,38.396,207.404,38.359,207.404,38.359z"/>
		
			<linearGradient id="SVGID_8_" gradientUnits="userSpaceOnUse" x1="893.6772" y1="107.0664" x2="907.0415" y2="107.0664" gradientTransform="matrix(0.9991 0.0431 -0.0431 0.9991 -694.2938 -105.6812)">
			<stop  offset="0.1224" style="stop-color:#FCA4B5"/>
			<stop  offset="0.9896" style="stop-color:#FFADB7"/>
		</linearGradient>
		<path fill="url(#SVGID_8_)" d="M207.404,38.359l-0.479,1.759l-0.406,0.809l-2.397,0.505c0,0-2.107-0.117-2.24-0.001
			c-0.133,0.109-2.964,0.576-4.256,0.559c-0.986-0.01-2.847-0.642-3.496-1.035c-0.206-0.124-0.207-0.553-0.163-0.974
			c0.019,0.02,0.085,0.1,0.366,0.419c0.366,0.426,1.894,1.062,3.348,1.188c1.455,0.12,3.793-0.361,4.397-0.412
			c0.604-0.057,1.736,0.132,2.145-0.01c0.403-0.142,2.042-0.45,2.042-0.45l0.242-0.553L207.404,38.359z"/>
		<path fill="#FEBFBF" d="M213.372,37.408c-0.928,2.815-1.443,5.62-3.939,6.762L213.372,37.408z"/>
	</g>
	<path fill="#DDE8F6" d="M211.661,88.218c-0.089,0.149-0.166,0.281-0.363,0.394c-0.067-3.038-0.271-11.357-0.379-12.565
		c-0.134-1.484-0.975-3.365-1.354-6.308c-0.385-2.948,0.223-9.184,0.521-12.084c0.298-2.906-0.123-5.914-0.123-5.914
		c0.136-0.187,0.272-0.372,0.401-0.546c0.394,1.56,0.48,5.04,0.07,7.563c-1.037,6.377-0.41,11.424-0.41,11.424
		s0.17,1.108,0.941,4.458C211.737,77.996,211.882,87.85,211.661,88.218z"/>
	<path fill="#F2D363" d="M210.163,54.932c0,0,0.274,0.226-0.061,1.408c-0.334,1.183-0.641,6.107-0.605,7.256
		c0.483,0.234,1.204,1.808,1.204,1.808s0.9-2.651,0.742-4.552c-0.158-1.901,0.215-5.597,0.15-6.558
		c-0.065-0.961-1.265-0.901-1.265-0.901S210.681,54.344,210.163,54.932z"/>
</g>
</svg>
