<?xml version="1.0" encoding="utf-8"?>
<!-- Generator: Adobe Illustrator 16.0.0, SVG Export Plug-In . SVG Version: 6.00 Build 0)  -->
<!DOCTYPE svg PUBLIC "-//W3C//DTD SVG 1.1//EN" "http://www.w3.org/Graphics/SVG/1.1/DTD/svg11.dtd">
<svg version="1.1" id="Layer_1" xmlns="http://www.w3.org/2000/svg" xmlns:xlink="http://www.w3.org/1999/xlink" x="0px" y="0px"
	 width="463.683px" height="425.749px" viewBox="0 0 463.683 425.749" enable-background="new 0 0 463.683 425.749"
	 xml:space="preserve">
<g>
	<path fill="#D7E4F2" d="M229.779,81.738c-4.733-2.733-12.432-2.719-17.194,0.031c-1.688,0.975-2.768,2.163-3.265,3.412l-8.03,4.636
		l10.24,5.912l4.544-2.623c4.478,1.173,9.948,0.697,13.65-1.44C234.488,88.915,234.511,84.471,229.779,81.738z"/>
	<g>
		<g>
			<path fill="#FEBFBF" d="M223.152,28.894c0,0,0.343,3.523,0.701,7.006c0.319,3.064,0.648,6.098,0.768,6.674
				c0.257,1.231,3.143,7.636,3.39,8.372c0.044,0.133,0.079,0.327,0.104,0.559c0.062,0.557,0.064,1.32-0.015,1.929
				c-0.07,0.538-0.204,0.953-0.416,0.988c-0.547,0.092-0.519,0.274-0.513,0.351c0.007,0.077,0.642,0.085,0.642,0.085
				s-0.72,0.263-0.795,0.469c-0.076,0.207,0.327,0.236,0.327,0.236s-0.322,0.381-0.194,0.449c0.13,0.067,0.822,0.024,0.822,0.024
				s-0.2,0.202-0.236,0.329c-0.019,0.067,0.035,0.131,0.115,0.178c0.072,0.042,0.167,0.069,0.247,0.07
				c0.169,0.001,1.155-0.406,1.284-0.524c0.129-0.12,0.67-1.974,0.67-1.974s-0.065-1.154-0.326-2.06
				c-0.262-0.906-0.175-0.974-0.523-3.666c-0.348-2.69-1.6-8.028-1.911-8.434c-0.313-0.406-0.893-5.016-1.58-8.048
				C225.025,28.871,223.152,28.894,223.152,28.894z"/>
			<path fill="#FEC7C6" d="M228.474,54.092c0,0-0.178,0.556-0.164,0.91c0.015,0.354-0.031,0.906-0.281,0.975
				c-0.25,0.067-0.457-0.016-0.464-0.371s0.043-0.97,0.083-1.228s-0.144-1.186-0.102-1.599c0.041-0.413,0.258-1.243,0.768-1.339
				c0.51-0.097,0.684,0.415,0.71,0.822s-0.264,1.367-0.332,1.48C228.625,53.855,228.474,54.092,228.474,54.092z"/>
			<path fill="#FA9698" d="M227.344,55.563c0,0-0.322,0.381-0.194,0.449c0.13,0.067,0.822,0.024,0.822,0.024s-0.2,0.202-0.236,0.329
				c-0.019,0.067,0.035,0.131,0.115,0.178c0.069-0.125,0.14-0.232,0.194-0.267c0.148-0.088,0.282-0.038,0.478-0.132
				c0.192-0.092,0.396-0.395,0.396-0.395l0.323-0.886c0,0-0.158-0.319-0.341-0.729c-0.181-0.409-0.184-0.819-0.184-0.819
				s-0.265,0.028-0.619,0.119c-0.07,0.538-0.204,0.953-0.416,0.988c-0.547,0.092-0.519,0.274-0.513,0.351
				c0.007,0.077,0.642,0.085,0.642,0.085s-0.72,0.263-0.795,0.469C226.941,55.533,227.344,55.563,227.344,55.563z"/>
			<path fill="#FA9698" d="M223.853,35.9c0.319,3.064,0.648,6.098,0.768,6.674c0.257,1.231,3.143,7.636,3.39,8.372
				c0.044,0.133,0.079,0.327,0.104,0.559c0.161-0.364,0.335-0.854,0.306-1.211c-0.055-0.645-2.263-5.7-2.694-7.263
				c-0.431-1.564-1.554-6.942-1.554-6.942S224.048,35.999,223.853,35.9z"/>
			<path fill="#FFDC6E" d="M222.475,28.186c0,0,1.749-0.228,2.772,1.535c1.023,1.764,1.856,7.834,1.856,7.834
				s-0.837,1.379-3.673,1.599C220.595,39.374,222.475,28.186,222.475,28.186z"/>
		</g>
		<g>
			<path fill="#5C6467" d="M224.369,82.097c0,0,2.132,1.286,2.525,1.471c0.393,0.186,2.135,1.323,2.415,1.742
				s0.213,0.748,0.139,0.986c-0.073,0.237-0.645,0.638-0.974,0.687c-0.328,0.049-2.065-0.14-2.993-0.639s-0.858-0.705-0.985-0.749
				c-0.127-0.044-0.938-0.243-0.938-0.243s-0.188,0.153-0.567,0.052s-1.525-0.429-1.618-0.73s-0.146-1.372,0.007-1.886
				C221.532,82.273,224.369,82.097,224.369,82.097z"/>
			<path fill="#FEBFBF" d="M224.733,82.439c0,0,1.367,0.813,1.194,1.266c-0.174,0.454-1.682,0.437-2.293,0.218
				c-0.744-0.266-1.051-0.504-1.158-0.982c-0.106-0.479,0.517-0.559,0.517-0.559L224.733,82.439z"/>
			<path fill="#7282B5" d="M226.185,60.731c-0.632,4.994-0.613,5.736-0.688,6.915c-0.064,1.188-0.715,14.693-0.705,14.869
				c0.019,0.167-0.882,0.826-1.838,0.892c-0.093,0.009-0.195,0.009-0.288,0c-1.049-0.084-1.392-0.214-1.447-0.65
				s-0.845-11.5-0.771-13.551c-0.548-2.386-0.437-9.69-0.371-12.624c0.019-0.77,0.037-1.244,0.037-1.244l6.265-3.035
				C226.379,52.304,226.816,55.747,226.185,60.731z"/>
			<path fill="#E8D0C8" d="M222.955,83.407c-0.093,0.009-0.195,0.009-0.288,0c-1.049-0.084-1.392-0.214-1.447-0.65
				s-0.845-11.5-0.771-13.551c-0.548-2.386-0.437-9.69-0.371-12.624c0.899-0.223,1.781,0.464,2.385,3.082
				c0,0-1.355,0.956-1.179,4.864s0.455,5.031,0.483,6.339c0.036,1.318,0.018,9.941,0.352,11.231
				C222.231,82.525,222.555,82.98,222.955,83.407z"/>
			<path fill="#5C6467" d="M218.834,85.662c0.008,0,0.082,0.095,0.198,0.248c0.335,0.441,1.017,1.366,1.443,1.878
				c0.575,0.69,1.559,2.413,1.626,2.874c0.065,0.46-0.049,0.633-0.162,0.774c-0.112,0.141-0.774,0.604-1.793,0.473
				c-1.02-0.131-1.875-0.739-2.454-1.444c-0.579-0.706-1.578-2.235-1.791-2.509c-0.214-0.273-0.952-0.837-1.073-1.101
				c-0.12-0.264-0.024-1.418,0.202-1.734c0.225-0.316,3.868,0.505,3.868,0.505L218.834,85.662z"/>
			<path fill="#FEBFBF" d="M218.466,85.168c0,0,0.995,1.301,0.922,1.706c-0.073,0.404-1.025,0.644-1.617,0.505
				s-2.074-1.178-1.955-1.619C215.934,85.318,218.466,85.168,218.466,85.168z"/>
			<path fill="#7282B5" d="M223.261,58.42c-0.325,1.179-2.423,2.683-2.423,2.683s-0.315,3.035-0.724,9.346
				c-0.148,2.376-0.437,8.428-1.086,15.464c-1.012,0.938-2.052,0.826-2.794,0.52c-0.204-0.083-0.391-0.176-0.539-0.269
				c-0.315-0.186-0.51-0.372-0.528-0.391c-0.074-0.064-0.613-5.736-0.594-9.448c0.009-1.782,0.417-5.94,0.436-6.767
				c0.492-2.71-2.023-6.46-1.597-13.904c0.028-0.576,0.752-0.928,1.792-1.142c2.867-0.575,8.158-0.074,8.158-0.074
				S223.585,57.232,223.261,58.42z"/>
			<g>
				<path fill="#A0ABCD" d="M215.927,86.315c-1.172-6.179-0.217-13.435,0.098-15.819c0.03-0.238,0.055-0.423,0.069-0.549
					c0.127-1.116-0.379-3.887-0.913-6.821c-0.107-0.586-0.217-1.184-0.324-1.785c-0.653-3.667-0.176-6.494-0.17-6.522l0.229,0.04
					c-0.005,0.027-0.475,2.817,0.17,6.441c0.107,0.601,0.216,1.198,0.322,1.784c0.563,3.079,1.049,5.738,0.917,6.889
					c-0.015,0.127-0.039,0.313-0.071,0.553c-0.312,2.375-1.263,9.603-0.098,15.745L215.927,86.315z"/>
			</g>
			<path fill="#E8D0C8" d="M215.417,80.483c0.111,1.912,0.167,4.065,0.278,5.681c-0.315-0.186-0.51-0.372-0.528-0.391
				c-0.074-0.064-0.613-5.736-0.594-9.448c0.009-1.782,0.417-5.94,0.436-6.767c0.492-2.71-2.023-6.46-1.597-13.904
				c0.028-0.576,0.752-0.928,1.792-1.142c0.194,0.576-0.808,0.984-0.613,1.68c0,0-0.231,4.994,0.177,6.906s1.226,5.717,0.872,7.342
				C215.288,72.064,215.148,75.796,215.417,80.483z"/>
			<path fill="#FDD249" d="M226.899,51.812c0,0-0.278,1.959-3.963,3.583c-2.821,1.244-5.522,1.263-7.147,1.03
				c-0.501-0.074-0.909-0.176-1.179-0.269c-1.215-0.437-1.336-0.576-1.374-1.151c-0.046-0.576,0.037-3.926-0.297-7.64
				c-0.344-3.712-1.958-8.372-1.958-8.372c0-0.038-0.186-0.724-0.353-1.532c-0.186-0.826-0.372-1.754-0.381-2.19
				c-0.009-0.854,0.241-1.764,1.875-3.184c1.643-1.42,3.082-2.599,3.824-3.119c0.742-0.51,4.78-1.15,6.052-0.983
				c3.072,0.38,3.351,3.406,3.546,4.353c0.194,0.938,0.658,4.854,0.604,6.702c-0.047,1.856-0.251,3.499-0.242,5.652
				C225.916,46.846,226.899,51.812,226.899,51.812z"/>
			<path fill="#DEDEDE" d="M217.943,53c-0.706,1.587-1.838,1.271-1.875,2.366c-0.01,0.279-0.121,0.659-0.279,1.059
				c-0.501-0.074-0.909-0.176-1.179-0.269c-1.215-0.437-1.336-0.576-1.374-1.151c-0.046-0.576,0.037-3.926-0.297-7.64
				c-0.344-3.712-1.958-8.372-1.958-8.372c0-0.038-0.186-0.724-0.353-1.532c1.16-0.594,2.58-0.845,4.315-0.594
				c0,0-0.956,2.636-0.918,3.063c0.046,0.427,0.046,0.427,0.046,0.427s3.75,1.931,4.056,2.395
				C218.444,43.217,218.648,51.413,217.943,53z"/>
		</g>
		<g>
			<g>
				<polygon fill="#C99A6B" points="210.116,56.816 217.943,52.297 217.943,43.315 210.116,47.834 				"/>
				<polygon fill="#87623F" points="217.943,43.315 210.116,47.834 214.339,45.575 				"/>
				<polygon fill="#AE835B" points="210.116,56.816 202.289,52.297 202.289,43.315 210.116,47.834 				"/>
				<polygon fill="#E8B687" points="210.116,47.834 202.289,43.315 210.116,38.796 217.943,43.315 				"/>
				<polygon fill="#D9AF84" points="213.643,49.347 214.901,48.62 214.901,45.072 213.643,45.798 				"/>
				<polygon fill="#EBCBAB" points="213.643,45.798 205.816,41.279 207.074,40.553 214.901,45.072 				"/>
				<polygon fill="#87623F" points="202.289,43.315 210.116,47.834 205.892,45.575 				"/>
				<polygon fill="#9C754E" points="206.721,49.423 205.463,48.696 205.463,45.148 206.721,45.874 				"/>
				<polygon fill="#54493E" points="206.721,45.874 214.548,41.355 213.291,40.629 205.463,45.148 				"/>
				<polygon fill="#D1A986" points="206.139,45.539 213.966,41.02 213.88,40.969 206.052,45.488 				"/>
				<polygon fill="#AE835B" points="206.721,45.874 206.721,46.021 205.954,45.61 205.463,45.303 205.463,45.148 				"/>
			</g>
			<polygon fill="#AE835B" points="214.339,45.575 213.643,45.947 213.643,45.798 214.901,45.072 214.901,45.223 			"/>
		</g>
		<g>
			<path fill="#FEBFBF" d="M211.285,33.266c0,0-9.286,9.285-9.345,9.963c-0.06,0.677,2.829,10.544,3.012,11.341
				c0.182,0.796,0.618,1.432,1.077,1.788c0.458,0.355,2.843,1.837,3.349,1.783c0.505-0.054,0.743-0.259,0.743-0.259
				s1.198-0.506,1.388-0.73s0.53-0.729,0.473-1.002s-1.826,0.767-1.964,0.778c-0.138,0.012-1.366-1.23-2.061-1.775
				c-0.695-0.544-0.863-0.333-1.049-1.454c-0.187-1.12-1.111-8.984-1.007-9.41s3.806-2.729,5.924-4.576s2.762-3.013,2.202-4.729
				C213.465,33.269,212.334,32.505,211.285,33.266z"/>
			<path fill="#FEC7C6" d="M207.36,54.948c0,0-0.353,0.366,0.232,0.977c0.584,0.612,1.167,0.656,1.692,0.693
				s0.963,0.209,0.963,0.209s0.576,0.564,0.939,0.547s0.401-0.392,0.287-0.649c-0.114-0.257-0.902-0.667-1.014-0.75
				c-0.111-0.084-1.184-0.852-1.399-0.938C208.844,54.951,207.704,54.629,207.36,54.948z"/>
			<path fill="#FFDC6E" d="M205.969,38.455c0,0,3.201,2.979,3.91,3.321c0.708,0.342,4.237-3.227,4.585-3.769
				c1.123-1.751,0.499-3.917-1.114-4.822c-1.655-0.93-2.451,0.081-2.943,0.478C209.914,34.06,205.969,38.455,205.969,38.455z"/>
		</g>
	</g>
	<g>
		<g>
			<path fill="#87623F" d="M209.586,50.071l-1.796-1.037v-2.062l1.796,1.037V50.071z M207.909,48.967l1.56,0.899v-1.789l-1.56-0.9
				V48.967z"/>
		</g>
		<g>
			<polygon fill="#87623F" points="208.887,49.411 208.491,49.183 208.491,48.145 208.887,48.373 			"/>
			<polygon fill="#87623F" points="209.276,48.795 208.101,48.117 208.689,47.748 			"/>
		</g>
	</g>
	<path fill="#FFADB7" d="M221.312,29.572c-0.01,0.91,0.194,1.234,0.019,1.513c-0.177,0.278-1.318,0.538-2.46,0.297
		c-0.232-0.057-0.529-0.149-0.845-0.307c-0.009,0-0.009-0.01-0.009-0.01c-0.65-0.306-1.053-0.746-1.471-1.479
		c-0.167-0.307-0.139-0.557-0.139-0.557s0.699-0.878,0.987-1.945c0.186-0.668,0.111-1.681,0.027-2.33
		c-0.046-0.38-0.093-0.641-0.093-0.641s-0.445-1.531,0.093-1.643c0.548-0.111,4.112,2.961,4.112,2.961s-0.084,1.234-0.148,2.386
		c-0.019,0.473-0.047,0.938-0.056,1.299C221.321,29.303,221.312,29.451,221.312,29.572z"/>
	
		<linearGradient id="SVGID_1_" gradientUnits="userSpaceOnUse" x1="638.1421" y1="28.0029" x2="640.7343" y2="31.2844" gradientTransform="matrix(1 0 0 1 -419.7622 0)">
		<stop  offset="0.1224" style="stop-color:#FCA4B5"/>
		<stop  offset="0.9896" style="stop-color:#FFADB7"/>
	</linearGradient>
	<path fill="url(#SVGID_1_)" d="M221.386,27.818c-0.019,0.473-0.047,0.938-0.056,1.299c-0.14,0.009-0.315-0.018-0.539-0.083
		c-1.179-0.353-2.218-0.798-2.617,0c-0.297,0.575-0.557,1.355-0.157,2.032c-0.65-0.306-1.053-0.746-1.471-1.479
		c-0.167-0.307-0.139-0.557-0.139-0.557s0.699-0.878,0.987-1.945c0.186-0.668,0.111-1.681,0.027-2.33
		C219.334,25.293,220.717,26.871,221.386,27.818z"/>
	<path fill="#FEBFBF" d="M217.824,23.639c0,0,0.126,2.825,0.402,3.423s2.271,2.136,4.194,1.869c0.516-0.274,1.31-1.697,1.399-2.955
		c0.091-1.257-0.011-1.72,0.018-1.83c0.028-0.11,0.414-0.879,0.354-1.232s-0.161-2.339-0.847-3.208s-2.58-1.403-4.28-0.718
		S217.824,23.639,217.824,23.639z"/>
	<path fill="#754554" d="M218.426,24.638c0,0,0.162-1.117-0.539-1.314c-0.701-0.198,0.093,2.416,0.093,2.416l-0.429,0.659
		l-0.024,0.282c0,0-0.868-1.475-1.106-1.915c-0.238-0.44-0.351-0.62-0.445-1.108c-0.094-0.488-0.471-2.58-0.372-3.311
		c0.1-0.731,1.354-1.834,2.313-1.914c0.439-0.59,1.34-0.883,2.205-0.889c0.866-0.005,1.511,0.062,2.549,0.87
		c1.039,0.809,1.076,1.447,1.156,1.645s0.086,1.008,0.086,1.008l-0.114-0.421c0,0-0.411,0.272-1.695,0.161
		c-1.284-0.111-1.992-0.624-1.992-0.624s0.235,0.909,0.187,1.245c-0.048,0.336-0.247,1.378-0.247,1.378s-0.66,0.393-0.88,0.547
		s-0.324,0.512-0.324,0.512l-0.083,0.893L218.426,24.638z"/>
	
		<linearGradient id="SVGID_2_" gradientUnits="userSpaceOnUse" x1="2465.6431" y1="-188.0586" x2="2467.0366" y2="-188.0586" gradientTransform="matrix(-0.986 0.1666 0.1666 0.986 2680.8313 -201.0032)">
		<stop  offset="0.1224" style="stop-color:#FEB9B8"/>
		<stop  offset="1" style="stop-color:#FFDEDE"/>
	</linearGradient>
	<path fill="url(#SVGID_2_)" d="M218.301,23.903c0,0-0.38-1.002-1.146-0.615s0.333,2.387,0.83,2.414
		c0.496,0.027,0.404-0.484,0.404-0.484S217.854,24.377,218.301,23.903z"/>
	<path fill="#FECB4C" d="M224.096,20.829l-0.186,0.241c0,0-3.388,0.993-3.741,1.086c-0.157,0.037-0.436,0.158-0.844,0.288
		c-0.465,0.148-1.104,0.316-1.931,0.38c-1.551,0.13-1.551,0.13-1.551,0.13s-0.491-1.485-0.26-2.84
		c0.186-1.086,1.458-2.023,2.924-2.45c0.047-0.019,0.065-0.028,0.065-0.028c0.344-0.093,0.705-0.167,1.058-0.205
		c1.875-0.195,3.146,0.594,3.75,1.504C223.985,19.845,224.096,20.829,224.096,20.829z"/>
	<path fill="#FCF5E8" d="M219.326,22.444c-0.465,0.148-1.104,0.316-1.931,0.38c-1.551,0.13-1.551,0.13-1.551,0.13
		s-0.491-1.485-0.26-2.84c0.186-1.086,1.458-2.023,2.924-2.45c-0.25,0.111-1.188,0.603-1.29,1.541
		C217.117,20.18,217.832,21.831,219.326,22.444z"/>
	<path fill="#725E6D" d="M219.376,22.429c0,0,2.706,2.328,3.637,1.39c0.656-0.661,2.285-1.292,3.001-1.08
		c0.715,0.213,0.715,0.213,0.715,0.213s0.152-0.031,0.133-0.205c-0.02-0.174-2.766-1.915-2.766-1.915S223.009,19.674,219.376,22.429
		z"/>
</g>
</svg>
