<?xml version="1.0" encoding="utf-8"?>
<!-- Generator: Adobe Illustrator 16.0.0, SVG Export Plug-In . SVG Version: 6.00 Build 0)  -->
<!DOCTYPE svg PUBLIC "-//W3C//DTD SVG 1.1//EN" "http://www.w3.org/Graphics/SVG/1.1/DTD/svg11.dtd">
<svg version="1.1" id="Layer_1" xmlns="http://www.w3.org/2000/svg" xmlns:xlink="http://www.w3.org/1999/xlink" x="0px" y="0px"
	 width="463.683px" height="425.749px" viewBox="0 0 463.683 425.749" enable-background="new 0 0 463.683 425.749"
	 xml:space="preserve">
<g>
	<path fill="#BDD6F2" d="M231.37,91.353c4.503-2.866,12.016-3.176,16.779-0.694c4.763,2.483,4.974,6.819,0.471,9.685
		c-4.504,2.866-12.017,3.176-16.78,0.694C227.077,98.554,226.866,94.218,231.37,91.353z"/>
	<g>
		<path fill="#FEBFBF" d="M245.817,48.581c0,0,0.431,0.261,0.653,0.662c0.224,0.401,0.921,2.039,1.065,4.179
			s0.767,6.636,1.033,7.733c0.267,1.097,0.565,2.156,0.587,2.403c0.021,0.248-0.417,1.912-0.482,1.917s-1.195,0.822-1.367,0.85
			c-0.173,0.027-0.128-0.213-0.128-0.213s-0.437,0.116-0.654,0.173s-0.094-0.333-0.094-0.333s-0.246-0.124-0.259-0.28
			c-0.014-0.156,1.225-1.034,1.225-1.034s-0.92,0.444-1.074,0.484c-0.154,0.039-0.182-0.287-0.035-0.417
			c0.146-0.131,0.831-1.041,0.831-1.041s-0.016-0.813-0.113-1.041c-0.099-0.228-0.321-1.167-0.323-1.351
			c-0.003-0.183,0.19-1.17,0.129-1.27c-0.061-0.1-2.667-7.054-2.636-8.906C244.206,49.246,245.817,48.581,245.817,48.581z"/>
		<path fill="#626170" d="M247.871,96.731l0.38,0.362c0,0,0.051,0.652,0.064,0.769c0.015,0.117-0.7,0.833-1.411,0.958
			s-1.799-0.334-2.168-0.671c-0.369-0.336-1.717-1.535-1.972-1.606c-0.255-0.07-2.015-1.025-2.148-1.368s-0.126-0.948-0.126-0.948
			L247.871,96.731z"/>
		<path fill="#504F60" d="M243.657,92.637l0.608,0.533c0,0,1.28,0.844,1.29,0.974c0.01,0.131,2.364,1.77,2.436,1.987
			c0.07,0.217,0.37,0.821,0.208,1.229c-0.163,0.407-0.925,1.022-1.696,0.891c-0.772-0.133-1.798-0.466-2.772-1.46
			c-0.977-0.994-1.881-1.298-2.04-1.325c-0.16-0.025-0.858-0.36-1.026-0.648c-0.168-0.287-0.294-1.169-0.202-1.636
			c0.093-0.467,0.407-1.241,0.407-1.241l1.871-0.223L243.657,92.637z"/>
		<path fill="#C98398" d="M239.839,77.046c0.047,0.333,0.096,0.61,0.145,0.82c0.053,0.223,0.124,0.422,0.215,0.602
			c0.85,1.698,3.18,1.435,3.607,0.876c0.115-0.148,0.272-0.652,0.45-1.368v-0.002c0.557-2.24,1.172-10,1.479-12.005
			c0.408-2.647-0.471-6.871-0.471-6.871l-6.587,2.177c0,0,0.065,1.254,0.171,2.996C239.028,67.146,239.538,74.965,239.839,77.046z"
			/>
		<path fill="#C98398" d="M239.66,82.843c0.089,0.755,0.283,9.381,0.283,9.381s0.142,0.309,0.547,0.586
			c0.207,0.14,0.997,0.401,1.358,0.478c1.068,0.226,2.133-0.521,2.133-0.521l1.193-21.548l-1.592,2.847l0.411,3.166l-3.779-0.153
			l-0.375-0.031C239.839,77.046,239.572,82.09,239.66,82.843z"/>
		<path fill="#D4B7B7" d="M239.66,82.843c0.089,0.755,0.283,9.381,0.283,9.381s0.142,0.309,0.547,0.586
			c-0.238-3.819-0.146-13.396-0.291-14.341c-0.048-0.322-0.033-0.82,0.016-1.391c0.129-1.516,0.281-7.167,0.343-7.834
			c0.087-0.916-0.169-5.093-0.169-5.093s-0.886-0.103-1.539,0.121c0.179,2.875,0.688,10.694,0.99,12.775
			C239.839,77.046,239.572,82.09,239.66,82.843z"/>
		<path fill="#626170" d="M231.873,92.917c0,0-0.148-0.049-0.172,0.277C231.678,93.52,231.683,94,231.683,94s0.668,1.282,0.89,1.525
			c0.222,0.244,0.861,1.52,1.519,2.051c0.656,0.531,1.736,0.79,2.858,0.609c1.122-0.182,1.808-0.563,1.835-0.862
			c0.027-0.3,0.004-0.788-0.158-0.94c-0.161-0.153-4.425-1.239-4.425-1.239L231.873,92.917z"/>
		<path fill="#FEBFBF" d="M243.719,38.843c0,0,1.815-0.717,2.038,2.133c0.221,2.851,0.83,8.222,0.521,8.825
			s-2.246,0.451-2.946-2.481C242.632,44.388,243.719,38.843,243.719,38.843z"/>
		<path fill="#FFE6B8" d="M241.889,37.629c0,0,3.824-0.047,4.225,3.36c0.191,1.636,0.506,6.107,0.506,6.107s-2.199,0.972-2.706,1.04
			C243.407,48.206,239.381,39.335,241.889,37.629z"/>
		<path fill="#504F60" d="M234.982,91.703l0.918,0.947c0,0,0.735,1.364,0.996,1.77c0.262,0.407,1.477,1.538,1.548,1.655
			c0.07,0.116,0.204,0.56,0.204,0.56s-0.447,0.72-2.061,0.873c-1.614,0.153-2.646-0.67-2.945-1.012s-1.028-1.624-1.028-1.624
			s-0.55-0.71-0.732-1.115s-0.27-1.132-0.209-1.662s0.747-1.41,0.747-1.41L234.982,91.703z"/>
		<path fill="#C98398" d="M241.998,60.178c0,0,0.668,2.968,0.206,4.03s-1.708,2.004-1.7,2.1s-2.248,9.819-4.021,14.935
			c-0.421,1.214-3.415-0.59-3.455-3.794c-0.041-3.204-0.27-9.167-0.536-11.087c-0.266-1.919-0.263-4.386,0.577-5.637
			C233.909,59.472,241.998,60.178,241.998,60.178z"/>
		<g>
			<g>
				<path fill="#B56D84" d="M241.488,66.735c0.064-0.002,0.135-0.022,0.206-0.059c0.372-0.187,0.786-0.804,0.816-1.719
					c0.016-0.495-0.013-2.468-0.039-2.706l-0.222,0.024c0.023,0.204,0.055,2.157,0.038,2.675c-0.028,0.879-0.431,1.396-0.693,1.527
					c-0.077,0.039-0.143,0.045-0.181,0.019c-0.058-0.04-0.082-0.162-0.064-0.325c0.113-1.041,0.088-3.796-0.109-3.932l-0.055-0.037
					l-0.065,0.029l0.051,0.099l-0.001,0.003l-0.086,0.056c0.073,0.179,0.194,2.375,0.045,3.758
					c-0.035,0.324,0.066,0.468,0.158,0.532C241.344,66.719,241.414,66.738,241.488,66.735z"/>
			</g>
			<g>
				<path fill="#B56D84" d="M235.617,65.14c1.738-0.075,2.264-1.223,2.27-1.237l-0.203-0.09c-0.027,0.062-0.693,1.483-3.169,1.017
					l-0.042,0.218C234.902,65.129,235.282,65.154,235.617,65.14z"/>
			</g>
			<path fill="#A76478" d="M232.463,62.391c0,0,2.085,0.998,5.43,0.882c3.345-0.116,4.621-0.513,5.753-1.146
				c1.131-0.634,1.835-1.463,1.835-1.463l-0.175-1.293c0,0-0.659,1.047-2.264,1.733c-1.605,0.686-5.029,0.857-6.423,0.868
				c-1.393,0.01-4.009-0.588-4.009-0.588L232.463,62.391z"/>
			<path fill="#C98398" d="M239.113,61.872c0,0,0.082,0.37,0.086,0.807c0.003,0.436-0.031,1.238-0.031,1.238l0.507-0.069
				c0,0,0.108-0.771,0.099-1.16s-0.113-0.927-0.113-0.927L239.113,61.872z"/>
			<path fill="#C98398" d="M234.278,61.773c0,0-0.099,0.365-0.121,0.802c-0.023,0.436-0.024,1.238-0.024,1.238l-0.504-0.092
				c0,0-0.074-0.776-0.047-1.163c0.028-0.387,0.155-0.921,0.155-0.921L234.278,61.773z"/>
			<path fill="#C98398" d="M243.807,60.646c0,0,0.112,0.459,0.122,0.83c0.01,0.372-0.074,1.005-0.074,1.005l0.349-0.407
				c0,0,0.067-0.641,0.062-0.842c-0.005-0.202-0.178-0.796-0.178-0.796L243.807,60.646z"/>
			<g>
				<path fill="#B56D84" d="M245.551,62.685c0.029-0.001,0.059-0.006,0.089-0.015l-0.06-0.214c-0.294,0.078-0.604-0.621-0.717-0.972
					l-0.212,0.068C244.692,61.676,245.04,62.707,245.551,62.685z"/>
			</g>
			<g>
				<path fill="#CCDEFB" d="M240.95,63.046c-0.128-0.108-0.191-0.272-0.179-0.462l0.023-0.372c0.025-0.39,0.367-0.781,0.778-0.891
					l0.964-0.257c0.225-0.06,0.436-0.024,0.58,0.098c0.129,0.108,0.192,0.272,0.18,0.463l-0.024,0.372
					c-0.024,0.39-0.366,0.782-0.777,0.891l-0.965,0.257c-0.062,0.017-0.122,0.026-0.181,0.028
					C241.195,63.178,241.054,63.135,240.95,63.046z M242.586,61.476l-0.965,0.258c-0.212,0.057-0.409,0.267-0.422,0.45l-0.023,0.372
					c-0.004,0.062,0.014,0.111,0.054,0.145c0.056,0.047,0.148,0.059,0.251,0.031l0.964-0.258c0.213-0.057,0.41-0.267,0.422-0.45
					l0.024-0.372c0.004-0.063-0.014-0.111-0.054-0.145c-0.039-0.033-0.094-0.048-0.158-0.046
					C242.65,61.463,242.619,61.467,242.586,61.476z"/>
			</g>
		</g>
		<path fill="#C98398" d="M236.257,78.509c0,0,1.17-1.106,0.796,0.309c-0.375,1.414-1.607,12.278-1.551,13.271
			c-0.808,0.697-3.765,0.594-3.819-0.687c-0.056-1.281-0.271-8.05,0.33-9.963c0.601-1.914,1.163-6.391,1.163-6.391L236.257,78.509z"
			/>
		<path fill="#FFEAC4" d="M230.973,40.673c0.208-0.828,0.254-0.807,1.176-1.232c1.561-0.722,3.166-1.341,4.197-1.559
			s3.7-0.545,4.133-0.397s1.261-0.282,3.985,1.051c0.12,0.058,1.368,1.699,1.054,6.081c-0.314,4.383-0.773,7.045-0.712,8.089
			c0.061,1.044,0.761,7.179,0.761,7.179s-1.586,2.049-6.587,2.494c-5,0.445-6.403-0.644-6.403-0.644s0.093-5.755-0.038-7.004
			C232.408,53.483,230.973,40.673,230.973,40.673z"/>
		<path fill="#FFE6B8" d="M245.25,47.675c0,0-0.408,0.884-3.567,1.525c-3.159,0.642-7.484,0.505-8.312,0.059
			c-0.828-0.445-1.496-0.523-1.496-0.523l0.446,5.223c0,0,4.485,1.632,9.657-0.019c2.548-0.649,2.836-1.107,2.836-1.107
			S244.844,50.6,245.25,47.675z"/>
		<path fill="#DDE8F6" d="M234.434,44.908c0,0-0.075,2.438,0.056,3.057c0.131,0.618-0.806,4.518-0.896,5.083
			c-0.149,0.935,0.154,5.222,0.154,5.222l0.379,4.517l-1.05-0.566c0,0-1.08-9.604-0.777-11.554
			C232.602,48.718,234.434,44.908,234.434,44.908z"/>
		<path fill="#FEBFBF" d="M230.053,53.235c0,0-0.143-7.329-0.017-9.277c0.127-1.948,1.041-3.846,1.996-3.677
			c0.955,0.17,2.221,1.025,2.098,3.786c-0.122,2.761-1.305,10.6-1.956,11.406C231.523,56.278,230.053,53.235,230.053,53.235z"/>
		<path fill="#FEBFBF" d="M232.042,52.652c0,0,0.485,0.375,0.71,0.855c0.224,0.48,0.506,8.538,0.771,9.198
			c0.265,0.66,0.472,0.932,0.705,1.209s1.253,2.012,1.253,2.012s0.487,2.058,0.555,2.228c0.066,0.169-0.333,0.203-0.563-0.041
			s-0.577-1.246-0.577-1.246l0.01,1.154c0,0,0.59,1.617,0.647,1.835s-0.053,0.463-0.285,0.352c-0.232-0.112-0.579-0.726-0.579-0.726
			l-0.307,0.17c0,0-0.247,0.191-0.531-0.073c-0.285-0.265-0.521-0.744-0.521-0.744l-0.385-0.046l-0.441-0.422l-0.481-0.262
			c0,0-0.381-0.939-0.252-1.435c0.129-0.497,0.327-1.89,0.285-2.084c-0.043-0.193-2.697-10.357-2.002-11.351
			S232.042,52.652,232.042,52.652z"/>
		
			<linearGradient id="SVGID_1_" gradientUnits="userSpaceOnUse" x1="4729.3198" y1="-161.521" x2="4731.6812" y2="-161.521" gradientTransform="matrix(-0.9965 0.0836 0.0836 0.9965 4974.8911 -170.1389)">
			<stop  offset="0.1224" style="stop-color:#FCA4B5"/>
			<stop  offset="0.9896" style="stop-color:#FFADB7"/>
		</linearGradient>
		<path fill="url(#SVGID_1_)" d="M248.199,62.48c0,0,0.156,0.389,0.215,0.673c0.058,0.284,0.166,0.633,0.166,0.633l-0.123,1.139
			c0,0,0.079,0.422-0.149,0.511c-0.229,0.089-0.35,0.029-0.35,0.029l-0.509,0.48l-0.339,0.185l-0.638,0.159l0.9-0.451l0.499-0.488
			l-0.179-0.353l-0.504,0.453l-0.696,0.356l-0.089,0.255l-0.011-0.131l0.132-0.258l0.703-0.374l0.406-0.375l-0.117-0.357
			l-0.164-0.183l0.043,0.254l-1.074,0.484l0.624-0.376l0.442-0.571c0,0-0.123-1.025-0.159-1.131
			c-0.036-0.105,0.127-0.406,0.127-0.406L248.199,62.48z"/>
		
			<linearGradient id="SVGID_2_" gradientUnits="userSpaceOnUse" x1="4730.103" y1="-164.3335" x2="4729.9551" y2="-161.0094" gradientTransform="matrix(-0.9965 0.0836 0.0836 0.9965 4974.8911 -170.1389)">
			<stop  offset="0.1224" style="stop-color:#FEC7C7"/>
			<stop  offset="0.9896" style="stop-color:#FFDBDB"/>
		</linearGradient>
		<path fill="url(#SVGID_2_)" d="M247.356,63.277c0,0,0.145,0.259,0.159,0.433c0.015,0.174-0.057,0.687,0.193,1.051
			c0.249,0.364,0.345,0.47,0.501,0.456c0.157-0.013,0.219-0.105,0.201-0.314s-0.188-0.57-0.178-0.869
			c0.01-0.298,0.12-1.593,0.1-1.836s-0.075-1.21-0.556-1.204c-0.48,0.005-0.719,0.13-0.767,0.527
			C246.962,61.919,247.125,63.034,247.356,63.277z"/>
		<polygon fill="#FEBFBF" points="234.689,69.482 234.208,68.788 233.853,67.987 234.082,68.938 234.558,69.555 		"/>
		<polygon fill="#FEBFBF" points="233.33,68.835 233.022,67.882 233.026,68.45 233.193,68.819 		"/>
		<polygon fill="#FEBFBF" points="232.549,68.411 232.289,67.786 232.265,67.517 232.234,67.979 232.379,68.3 		"/>
		<polygon fill="#FEBFBF" points="234.896,66.867 234.824,66.007 235.039,66.685 235.242,67.726 		"/>
		
			<linearGradient id="SVGID_3_" gradientUnits="userSpaceOnUse" x1="4738.4409" y1="-188.5142" x2="4735.3721" y2="-190.937" gradientTransform="matrix(-0.9965 0.0836 0.0836 0.9965 4974.8911 -170.1389)">
			<stop  offset="0.1224" style="stop-color:#FEC7C7"/>
			<stop  offset="0.9694" style="stop-color:#FFADB7"/>
		</linearGradient>
		<path fill="url(#SVGID_3_)" d="M235.677,38.454c0,0,2.436,2.34,4.32,2.073c1.884-0.268,1.575-1.239,1.575-1.239l-0.239-0.557
			c0,0,0.083-1.091,0.418-1.487c0.334-0.395-3.429-3.858-4.271-4.05c-0.843-0.191-1.185-0.093-0.951,0.395s0.512,1.934,0.391,2.784
			C236.798,37.223,235.677,38.454,235.677,38.454z"/>
		
			<linearGradient id="SVGID_4_" gradientUnits="userSpaceOnUse" x1="4734.2202" y1="-189.0781" x2="4737.5317" y2="-189.0781" gradientTransform="matrix(-0.9965 0.0836 0.0836 0.9965 4974.8911 -170.1389)">
			<stop  offset="0.1224" style="stop-color:#FCA4B5"/>
			<stop  offset="0.9896" style="stop-color:#FFADB7"/>
		</linearGradient>
		<path fill="url(#SVGID_4_)" d="M238.005,35.967c0,0,1.314,2.217,1.953,2.74s1.453-0.457,1.453-0.457l0.074-0.415l-1.813-1.799
			L238.005,35.967z"/>
		<path fill="#FEC7C7" d="M236.912,32.441c0,0,0.854,2.951,0.975,3.36c0.122,0.41,3.055,2.28,4.487,2.125
			c1.164-0.447,1.144-3.611,1.124-4.047c-0.019-0.436,0.248-2.26,0.188-2.552c-0.06-0.292-0.044-1.78-1.276-2.709
			s-3.66-1.197-4.511-0.654C237.047,28.508,235.97,31.016,236.912,32.441z"/>
		<g>
			
				<linearGradient id="SVGID_5_" gradientUnits="userSpaceOnUse" x1="4732.6265" y1="-192.2891" x2="4731.874" y2="-192.2054" gradientTransform="matrix(-0.9965 0.0836 0.0836 0.9965 4974.8911 -170.1389)">
				<stop  offset="0.1224" style="stop-color:#FEC7C7"/>
				<stop  offset="0.9896" style="stop-color:#FFDBDB"/>
			</linearGradient>
			<path fill="url(#SVGID_5_)" d="M242.616,32.646c-0.052,0.323,0.938,1.847,0.87,2.164s-1.178,0.314-1.178,0.314L242.616,32.646z"
				/>
			
				<linearGradient id="SVGID_6_" gradientUnits="userSpaceOnUse" x1="4731.9175" y1="-192.2949" x2="4733.1772" y2="-192.2949" gradientTransform="matrix(-0.9965 0.0836 0.0836 0.9965 4974.8911 -170.1389)">
				<stop  offset="0.188" style="stop-color:#FFDCDC"/>
				<stop  offset="0.8991" style="stop-color:#FEC7C7"/>
			</linearGradient>
			<path fill="url(#SVGID_6_)" d="M242.493,35.169c0.335-0.014,0.983-0.078,1.041-0.348c0.035-0.166-0.145-0.538-0.443-1.132
				c-0.211-0.417-0.45-0.891-0.427-1.035l-0.096-0.015c-0.026,0.163,0.147,0.522,0.436,1.094c0.219,0.434,0.466,0.924,0.436,1.068
				c-0.043,0.203-0.718,0.274-1.131,0.275v0.098C242.333,35.174,242.402,35.173,242.493,35.169z"/>
		</g>
		<g>
			<path fill="#754554" d="M240.214,32.728c1.018-0.395,1.98-0.17,1.99-0.167l0.038-0.157c-0.04-0.01-1.02-0.24-2.087,0.174
				L240.214,32.728z"/>
		</g>
		<g>
			<path fill="#754554" d="M242.835,32.396c0.273-0.104,0.753-0.269,0.882-0.259l0.009-0.162c-0.204-0.01-0.872,0.241-0.948,0.27
				L242.835,32.396z"/>
		</g>
		<path fill="#FEC7C7" d="M241.553,36.294c0,0,1.021,0.921,1.588-0.308C242.753,35.744,241.891,35.938,241.553,36.294z"/>
		<path fill="#754554" d="M238.269,33.745l-0.521-0.068c0,0,0.072-1.038-0.43-1.21c-0.501-0.172-0.553,0.08-0.543,0.669
			c0.01,0.59,0.211,0.017,0.086,0.557c-0.125,0.541,0.045,1.505,0.049,1.544s-0.449-0.841-0.638-1.062
			c-0.189-0.22-0.63-0.787-0.854-1.896c-0.225-1.109-0.299-1.837-0.299-1.837l-0.112,0.009c0,0-0.332-1.875,1.938-2.642
			c0.894-1.544,3.528-1.267,4.491-0.888c0.963,0.378,1.987,1.644,2.143,2.392c0.154,0.748,0.316,1.045,0.062,1.646
			c-0.24-1.002-0.24-1.002-0.24-1.002s-0.383-0.452-1.119-0.312c-0.736,0.14-2.174-0.264-2.174-0.264s-0.521,0.673-0.561,0.979
			c-0.04,0.305-0.07,1.344-0.144,1.416c-0.072,0.072-0.836,0.516-0.913,0.851C238.414,32.959,238.269,33.745,238.269,33.745z"/>
		<path fill="#FFE6B8" d="M229.792,48.854c0,0,1.26,0.39,2.084,0.601c0.825,0.211,1.917,0.066,1.917,0.066s0.857-3.509,0.721-5.741
			c-0.136-2.231-1.566-4.028-2.807-4.045c-1.239-0.017-1.852,4.501-1.899,5.433S229.792,48.854,229.792,48.854z"/>
		<path fill="#504F60" d="M237.134,32.84l3.081,0.685l0.049,0.97c0,0,0.249,0.325,0.521,0.313c0.271-0.012,1.089-0.137,1.292-0.262
			c0.202-0.125,0.61-1.222,0.61-1.222l0.111-0.016l0.141,0.306l0.538,0.813c0,0,0.449-0.116,0.679-0.29
			c0.229-0.173,0.463-1.53,0.463-1.53l-0.025-0.178l-1.033-0.274l-0.011,0.242l0.463,0.097l-0.918,0.289
			c0,0-0.302,0.175-0.454,0.218c-0.151,0.044-0.422-0.059-0.855-0.077s-1.545,0.219-1.545,0.219l-3.478-0.643l-0.197,0.324
			L237.134,32.84z M243.1,33.758l-0.05-0.6c0.07-0.31,1.094-0.485,1.094-0.485s0.29-0.001,0.309,0.127
			c0.018,0.13-0.154,0.902-0.285,1.158c-0.131,0.257-0.681,0.291-0.681,0.291L243.1,33.758z M240.384,33.396l0.779-0.26
			c0,0,1.234,0.019,1.27,0.075c0.034,0.057-0.263,1.129-0.492,1.25s-1.193,0.234-1.379,0.195
			C240.377,34.616,240.384,33.396,240.384,33.396z"/>
		<path fill="#C0BABA" d="M241.164,33.135c0,0,1.234,0.019,1.27,0.075c0.034,0.057-0.263,1.129-0.492,1.25s-1.193,0.234-1.379,0.195
			c-0.185-0.039-0.178-1.26-0.178-1.26L241.164,33.135z M243.05,33.158l0.05,0.6l0.387,0.492c0,0,0.55-0.034,0.681-0.291
			c0.131-0.256,0.303-1.028,0.285-1.158c-0.019-0.129-0.309-0.127-0.309-0.127S243.121,32.849,243.05,33.158z"/>
		
			<linearGradient id="SVGID_7_" gradientUnits="userSpaceOnUse" x1="4737.8042" y1="-193.0732" x2="4739.1118" y2="-193.0732" gradientTransform="matrix(-0.9965 0.0836 0.0836 0.9965 4974.8911 -170.1389)">
			<stop  offset="0.1224" style="stop-color:#FEB9B8"/>
			<stop  offset="1" style="stop-color:#FFDEDE"/>
		</linearGradient>
		<path fill="url(#SVGID_7_)" d="M237.462,32.986c0,0-0.308-0.801-1.014-0.61c-0.705,0.19,0.05,1.341,0.279,1.823
			s0.38,0.719,0.687,0.614c0.306-0.104,0.129-0.863,0.129-0.863S237.326,33.168,237.462,32.986z"/>
		
			<linearGradient id="SVGID_8_" gradientUnits="userSpaceOnUse" x1="4737.9038" y1="-193.1865" x2="4738.9028" y2="-193.1865" gradientTransform="matrix(-0.9965 0.0836 0.0836 0.9965 4974.8911 -170.1389)">
			<stop  offset="0.1224" style="stop-color:#FCA4B5"/>
			<stop  offset="0.9896" style="stop-color:#FFADB7"/>
		</linearGradient>
		<path fill="url(#SVGID_8_)" d="M237.377,32.967c0,0-0.307-0.453-0.688-0.395c-0.383,0.059-0.351,0.407-0.23,0.769
			c0.119,0.362,0.468,0.976,0.631,1.041c0.163,0.065,0.392-0.177,0.392-0.177s-0.154-0.709-0.107-0.817
			C237.419,33.279,237.377,32.967,237.377,32.967z"/>
	</g>
</g>
</svg>
