<?xml version="1.0" encoding="utf-8"?>
<!-- Generator: Adobe Illustrator 16.0.0, SVG Export Plug-In . SVG Version: 6.00 Build 0)  -->
<!DOCTYPE svg PUBLIC "-//W3C//DTD SVG 1.1//EN" "http://www.w3.org/Graphics/SVG/1.1/DTD/svg11.dtd">
<svg version="1.1" id="Layer_1" xmlns="http://www.w3.org/2000/svg" xmlns:xlink="http://www.w3.org/1999/xlink" x="0px" y="0px"
	 width="463.683px" height="425.749px" viewBox="0 0 463.683 425.749" enable-background="new 0 0 463.683 425.749"
	 xml:space="preserve">
<g>
	<path fill="#B24E6D" d="M273.875,41.999c0,0,1.532-0.476,2.785,0.512c1.434,1.128,0.663,3.56,0.229,4.568
		c-0.467,1.087-0.788,3.364,0.658,4.223c-0.358,0.904-2.612,0.147-3.295-0.282C273.57,50.59,270.949,44.48,273.875,41.999z"/>
	<g>
		<path fill="#D7E4F2" d="M263.206,108.642c4.183,2.662,11.16,2.95,15.584,0.644c4.425-2.306,4.62-6.333,0.438-8.995
			s-11.16-2.95-15.584-0.645C259.219,101.953,259.023,105.979,263.206,108.642z"/>
		<g>
			<path fill="#FFA1A3" d="M269.018,99.413c0,0,1.118,0.945,0.963,1.522c-0.154,0.578-2.333,4.154-3.487,4.574
				c-2.402,0.874-1.856-1.335-1.461-1.793c0.348-0.403,1.74-1.519,1.715-2.56C266.712,99.751,269.018,99.413,269.018,99.413z"/>
			<path fill="#8E8E8E" d="M268.796,102.729c0,0,0.406,0.133,0.414,0.441c0.009,0.309,0.059,1.47,0.059,1.47s0.273,0.143,0.425,0.07
				c0.151-0.073,0.363-0.439,0.363-0.439s0.19-2.288,0.302-2.752S268.796,102.729,268.796,102.729z"/>
			<path fill="#C2D2EA" d="M270.085,100.06c0,0-1.598,1.949-2.225,3.23s-1.315,1.801-1.829,1.785
				c-0.818-0.026-1.352-0.524-1.176-0.942c0.177-0.417,0.177-0.417,0.177-0.417s-2.076,2.21-1.795,3.586
				c0.281,1.376,3.924-0.551,4.476-1.27c0.211-0.273,0.621-2.271,1.095-2.841c0.475-0.571,1.22-0.333,1.518-1.495
				C270.624,100.533,270.085,100.06,270.085,100.06z"/>
			<path fill="#8E8E8E" d="M268.909,102.916c-0.474,0.57-1.079,2.668-1.289,2.942c-0.514,0.668-3.717,2.343-4.384,1.419
				c0.001,0.008,0,0.017,0.002,0.024c0.281,1.376,3.924-0.551,4.476-1.27c0.211-0.273,0.621-2.271,1.095-2.842
				c0.413-0.497,1.258-0.344,1.461-1.307C269.93,102.122,269.252,102.502,268.909,102.916z"/>
			<path fill="#8E8E8E" d="M277.064,99c0,0,0.6-0.147,0.579,0.161s-0.201,2.225-0.201,2.225s0.13,0.139,0.287,0.081
				c0.157-0.059,0.403-0.404,0.403-0.404s0.334-1.865,0.349-2.342C278.498,98.153,277.064,99,277.064,99z"/>
			
				<linearGradient id="SVGID_1_" gradientUnits="userSpaceOnUse" x1="1166.8491" y1="137.8301" x2="1171.189" y2="137.8301" gradientTransform="matrix(-0.9957 -0.0923 -0.0923 0.9957 1452.5281 70.251)">
				<stop  offset="0.1224" style="stop-color:#FEC7C7"/>
				<stop  offset="0.9694" style="stop-color:#FFADB7"/>
			</linearGradient>
			<path fill="url(#SVGID_1_)" d="M277.361,96.303c0,0,0.846,0.756,0.782,1.673c-0.062,0.9-1.377,4.502-2.551,4.865
				c-1.173,0.363-2.29-0.443-2.167-0.961c0.122-0.519,1.226-2.087,1.572-3.357C275.367,97.167,277.361,96.303,277.361,96.303z"/>
			<path fill="#C2D2EA" d="M275.02,97.99c0,0-0.952,1.588-1.386,2.681c-0.946,2.382-0.959,3.443-0.811,4.03
				c0.156,0.611,1.924,0.159,3.211-0.791c1.476-1.088,0.928-2.509,1.865-3.871c0.305-0.442,0.582-0.761,0.63-1.849
				c0.059-0.922-0.739-1.346-0.739-1.346s0.571,0.966,0.204,1.731c-0.186,0.385-0.133,0.559-0.406,1.038
				c-0.545,0.953-0.675,1.907-1.423,2.579c-0.701,0.632-2.661,0.124-2.588-0.266c0.135-0.721,0.832-1.913,1.118-2.58
				C275.037,98.552,275.02,97.99,275.02,97.99z"/>
			<path fill="#8E8E8E" d="M277.846,99.933c-0.938,1.362-0.346,2.694-1.821,3.782c-1.19,0.879-2.896,1.352-3.225,0.895
				c0.008,0.031,0.017,0.062,0.023,0.092c0.156,0.611,1.924,0.159,3.211-0.791c1.476-1.088,0.928-2.509,1.865-3.871
				c0.199-0.289,0.494-0.57,0.553-1.154C278.278,99.191,277.994,99.718,277.846,99.933z"/>
			<g>
				<path fill="#738E9E" d="M270.112,86.879c-0.001,0.002-0.001,0.002-0.001,0.004c-0.022,0.099-0.049,0.191-0.078,0.278
					c-0.094,0.278-0.267,0.5-0.492,0.672c0,0,0,0,0,0.002c-1.101,0.851-3.424,0.489-3.665-0.347
					c-0.661-2.285-1.462-8.451-1.977-11.471c-0.517-3.019,0.646-8.207,0.646-8.207s5.461,1.887,6.444,2.568
					c0.585,0.403,0.344,3.314-0.012,5.899c-0.242,1.775-0.541,3.397-0.663,3.951C270.03,81.518,270.534,85.101,270.112,86.879z"/>
				<path fill="#738E9E" d="M269.592,100.337c-0.022,0.219-0.179,0.418-0.422,0.56c-0.526,0.31-1.46,0.354-2.351-0.255
					c0,0-1.057-14.286-1.992-18.645c1.637-0.368,4.099,4.397,4.809,4.351c0.344-0.022,0.52,0.115,0.476,0.531
					c-0.001,0.002-0.001,0.002-0.001,0.004c-0.139,1.275,0.678,5.058,0.467,6.539C270.367,94.905,269.666,99.642,269.592,100.337z"
					/>
				<path fill="#A8B0C2" d="M269.592,100.337c-0.022,0.219-0.179,0.418-0.422,0.56c0.143-1.772,0.383-4.004,0.71-5.62
					c0.476-2.35-0.269-5.708-0.34-7.442c0-0.002,0-0.002,0-0.002c-0.012-0.309-0.002-0.604,0.044-0.88
					c0.03-0.182,0.046-0.385,0.052-0.605c0.063-1.976-0.697-5.245-0.525-6.453c0.064-0.451,0.179-1.661,0.021-2.349
					c-0.314-1.357-1.077-2.252-1.077-2.252c1.176,0.105,2.139,0.45,2.924,0.983c-0.242,1.775-0.541,3.397-0.663,3.951
					c-0.285,1.289,0.219,4.872-0.203,6.65c-0.001,0.002-0.001,0.002-0.001,0.004c-0.139,1.275,0.678,5.058,0.467,6.539
					C270.367,94.905,269.666,99.642,269.592,100.337z"/>
				<path fill="#738E9E" d="M267.283,71.931c0,0-0.098,1.824,0.546,2.997s1.798,1.986,1.798,1.986s1.861,7.472,3.538,10.45
					c0.752,1.335,3.217,0.945,3.42-1.432c0.204-2.376,0.22-4.482,1.126-9.705c0.221-1.272,0.277-3.555-1.453-6.018
					S267.283,71.931,267.283,71.931z"/>
				<g>
					<g>
						<path fill="#92BACF" d="M273.655,75.25c-2.734-0.118-2.965-1.957-2.968-1.976l0.244-0.027c0.009,0.075,0.248,1.82,3.146,1.762
							l0.006,0.245C273.933,75.257,273.791,75.256,273.655,75.25z"/>
					</g>
					<path fill="#AF727B" d="M277.195,71.888c0,0-2.216,0.649-5.458,0.756c-3.241,0.107-4.462-0.241-5.53-0.86
						c-1.069-0.62-1.714-1.484-1.714-1.484l0.23-1.437c0,0,0.591,1.107,2.116,1.751c1.526,0.644,4.843,0.593,6.194,0.506
						s3.919-0.929,3.919-0.929L277.195,71.888z"/>
					<path fill="#738E9E" d="M270.167,71.233c0,0-0.098,0.414-0.121,0.896c-0.023,0.481-0.027,1.362-0.027,1.362l-0.489-0.041
						c0,0-0.069-0.843-0.041-1.271c0.027-0.429,0.153-1.03,0.153-1.03L270.167,71.233z"/>
					<path fill="#738E9E" d="M265.692,69.894c0,0-0.131,0.514-0.157,0.924c-0.027,0.41,0.024,1.102,0.024,1.102l-0.319-0.424
						c0,0-0.035-0.701-0.021-0.924c0.015-0.223,0.21-0.891,0.21-0.891L265.692,69.894z"/>
					<g>
						<path fill="#92BACF" d="M264.061,72.355c-0.023,0-0.047-0.004-0.071-0.01l0.061-0.238c0.007,0.002,0.014,0.003,0.021,0.003
							c0.223,0.01,0.551-0.64,0.709-1.133l0.232,0.075C264.941,71.281,264.564,72.377,264.061,72.355z"/>
					</g>
					<g>
						<path fill="#CCDEFB" d="M267.749,72.715c-0.057-0.001-0.114-0.011-0.173-0.028l-0.908-0.27
							c-0.387-0.115-0.68-0.542-0.668-0.973l0.013-0.41c0.006-0.21,0.083-0.393,0.218-0.514c0.151-0.138,0.359-0.181,0.57-0.117
							l0.908,0.27c0.387,0.115,0.68,0.542,0.667,0.972l-0.012,0.411c-0.006,0.209-0.083,0.392-0.218,0.513
							C268.037,72.669,267.897,72.719,267.749,72.715z M266.625,70.846c-0.063-0.002-0.117,0.016-0.157,0.053
							c-0.042,0.038-0.063,0.092-0.065,0.16l-0.013,0.411c-0.006,0.202,0.165,0.431,0.365,0.491l0.908,0.271
							c0.097,0.028,0.188,0.014,0.246-0.039c0.042-0.037,0.063-0.092,0.065-0.16l0.012-0.411c0.006-0.202-0.164-0.431-0.364-0.491
							l-0.908-0.27C266.683,70.851,266.653,70.846,266.625,70.846z"/>
					</g>
				</g>
				<path fill="#738E9E" d="M273.213,86.263c0,0-0.541,0.193-0.049,1.101s2.525,7.094,2.146,10.283
					c1.046,0.96,2.223,0.668,2.556-0.339c0.332-1.006,0.681-7.88,0.229-9.269s-1.502-2.141-1.427-3.183
					C276.744,83.815,273.213,86.263,273.213,86.263z"/>
				<g>
					<path fill="#92BACF" d="M277.717,97.812l-0.243-0.031c0.97-7.644-0.545-10.255-1.043-11.114l-0.05-0.085
						c-0.491-0.859-0.138-6.069,0.189-8.622c0.462-3.616-1.117-5.593-1.134-5.612l0.189-0.156c0.068,0.083,1.664,2.071,1.188,5.799
						c-0.374,2.912-0.63,7.751-0.219,8.469l0.048,0.084C277.152,87.419,278.698,90.084,277.717,97.812z"/>
				</g>
			</g>
		</g>
		<g>
			<path fill="#FEBFBF" d="M264.75,56.059c0,0-1.872,3.438-2.3,5.958c-0.429,2.521,1.292,1.062,1.997,0.344
				C265.151,61.643,269.753,53.677,264.75,56.059z"/>
			<path fill="#B9D3E1" d="M269.606,50.11l-1.985-0.035c0,0-1.936,0.557-2.445,1.621c-0.511,1.065-1.141,3.723-1.141,3.723
				s0.564,1.05,1.236,1.379C265.943,57.127,269.606,50.11,269.606,50.11z"/>
			<path fill="#B9D3E1" d="M264.035,55.419c0,0-1.457,4.644-1.653,5.163c-0.196,0.52,0.875,0.783,1.031,1.341
				c0.155,0.558-0.181,1.398-0.108,1.358c0.072-0.041,0.533-0.24,1.024-0.804s2.506-5.397,2.214-5.989
				C266.251,55.896,264.035,55.419,264.035,55.419z"/>
			<path fill="#FFFFFF" d="M276.783,71.834c0,0-1.015-0.052-2.998,0.206c-1.982,0.258-6.135,0.567-8.497-1.571
				c-1.572-1.378-1.232-1.368-1.192-1.65c0.04-0.283,0.556-4.281,0.452-5.954c-0.104-1.672-0.556-2.421-0.198-3.668
				c0.357-1.246,0.778-1.799,1.068-3.325c0.289-1.526,0.974-4.336,1.127-4.541c1.02-1.361,3.238-1.244,3.611-1.208
				c0.228,0.022,4.218,0.557,4.218,0.557s0.728-0.004,1.566,0.81c0.887,0.859,2.707,2.196,2.707,2.196l-1.78,13.008L276.783,71.834z
				"/>
			<path fill="#92BACF" d="M270.156,50.123c0,0-1.499-0.318-2.605,0.174s-1.479,2.076-1.912,3.822s-1.46,3.986-1.715,6.279
				c-0.254,2.293-0.219,7.864-0.219,7.864l0.55-0.75c0,0,0.356-1.938,0.454-3.832c0.09-1.729-0.081-3.425-0.014-3.53
				c0.142-0.221,3.27-7.435,3.529-7.747C268.483,52.091,269.613,50.321,270.156,50.123z"/>
			
				<linearGradient id="SVGID_2_" gradientUnits="userSpaceOnUse" x1="1347.4526" y1="108.9404" x2="1348.308" y2="108.5206" gradientTransform="matrix(0.9991 0.0431 -0.0431 0.9991 -1078.2738 -105.6812)">
				<stop  offset="0.1224" style="stop-color:#FEB9B8"/>
				<stop  offset="1" style="stop-color:#FFDEDE"/>
			</linearGradient>
			<path fill="url(#SVGID_2_)" d="M264.377,61.184c0,0-0.03,0.23-0.233,0.309c-0.203,0.079-0.744-0.221-0.744-0.221
				s-0.01-0.822,0.105-0.77c0.115,0.052,0.512,0.381,0.512,0.381S264.448,61.064,264.377,61.184z"/>
			<path fill="#FEBFBF" d="M273.903,50.023c0.138,0.013,0.474,0.554,1.075,0.883c0.602,0.329,0.617,0.413-0.151,1.06
				c-0.768,0.647-3.525,3.565-5.186,3.14c-1.661-0.426-1.51-2.053-1.417-2.702c0.092-0.649,1.149-2.093,1.479-2.222
				C270.032,50.053,273.903,50.023,273.903,50.023z"/>
			<path fill="#92BACF" d="M275.201,50.941c0,0-3.535,3.146-4.402,5.342c-0.866,2.196,0.148,5.808-1.584,14.66
				c0.296,1.328,9.788,0.823,9.444-1.643c-0.152-1.098-0.012-15.615-0.012-15.615S275.69,51.106,275.201,50.941z"/>
			<g>
				<path fill="#DBE8EF" d="M275.595,67.745c-1.421-0.331-3.707-1.953-3.804-2.021l0.142-0.2c0.024,0.017,2.345,1.663,3.717,1.983
					L275.595,67.745z"/>
			</g>
			<path fill="#A8B0C2" d="M275.485,57.689c0,0,0.021,6.029,0.093,7.263s-0.753,8.05-0.753,8.05s1.424-0.228,1.658-0.548
				c0.234-0.321,0.678-7.416,0.398-9.247C276.602,61.375,275.485,57.689,275.485,57.689z"/>
			
				<linearGradient id="SVGID_3_" gradientUnits="userSpaceOnUse" x1="1662.8472" y1="78.998" x2="1659.9961" y2="76.2159" gradientTransform="matrix(0.99 0.1411 -0.1411 0.99 -1360.9968 -261.7202)">
				<stop  offset="0.1224" style="stop-color:#FEC7C7"/>
				<stop  offset="0.9694" style="stop-color:#FFADB7"/>
			</linearGradient>
			<path fill="url(#SVGID_3_)" d="M269.299,49.598c0,0,0.265,0.7,0.177,1.322c-0.089,0.623-0.479,1.648-0.479,1.648
				s0.354,0.753,1.888,0.647c1.535-0.105,1.61-0.635,2.106-0.889s1.793-1.458,1.719-1.549c-0.074-0.091-1.314-0.775-0.754-2.57
				c0.562-1.795,1.318-2.705,1.318-2.705s0.456-0.745-0.072-0.82C274.675,44.606,269.299,49.598,269.299,49.598z"/>
			
				<linearGradient id="SVGID_4_" gradientUnits="userSpaceOnUse" x1="1657.9038" y1="78.7407" x2="1661.3735" y2="78.7407" gradientTransform="matrix(0.99 0.1411 -0.1411 0.99 -1360.9968 -261.7202)">
				<stop  offset="0.1224" style="stop-color:#FCA4B5"/>
				<stop  offset="0.9896" style="stop-color:#FFADB7"/>
			</linearGradient>
			<path fill="url(#SVGID_4_)" d="M272.907,48.877c0,0-1.354,1.163-1.655,1.769c-0.301,0.605-1.602,1.393-1.602,1.393l-0.156-1.377
				l-0.194-1.064L272.907,48.877z"/>
			<path fill="#FEC7C7" d="M269.289,41.136c0,0-0.573,0.418-0.974,1.334c-0.401,0.916-0.688,1.699-0.671,1.863
				c0.017,0.165,0.142,0.521-0.1,1.175c-0.242,0.655,0.294,4.001,1,4.359s4.075-0.622,4.465-1.08s1.414-2.339,1.584-3.625
				s0.612-2.778-1.225-3.634C271.531,40.672,269.289,41.136,269.289,41.136z"/>
			<g>
				
					<linearGradient id="SVGID_5_" gradientUnits="userSpaceOnUse" x1="1656.7983" y1="74.6831" x2="1656.0349" y2="74.735" gradientTransform="matrix(0.99 0.1411 -0.1411 0.99 -1360.9968 -261.7202)">
					<stop  offset="0.1224" style="stop-color:#FEC7C7"/>
					<stop  offset="0.9896" style="stop-color:#FFDBDB"/>
				</linearGradient>
				<path fill="url(#SVGID_5_)" d="M268.708,44.733c0.056,0.369-0.953,1.825-1.01,2.156c-0.057,0.332,0.883,0.349,0.883,0.349
					L268.708,44.733z"/>
				
					<linearGradient id="SVGID_6_" gradientUnits="userSpaceOnUse" x1="1655.8872" y1="74.7129" x2="1656.8667" y2="74.7129" gradientTransform="matrix(0.99 0.1411 -0.1411 0.99 -1360.9968 -261.7202)">
					<stop  offset="0.188" style="stop-color:#FFDCDC"/>
					<stop  offset="0.8991" style="stop-color:#FEC7C7"/>
				</linearGradient>
				<path fill="url(#SVGID_6_)" d="M268.525,47.286c-0.175-0.008-0.672-0.046-0.828-0.234c-0.042-0.051-0.058-0.108-0.047-0.17
					c0.024-0.146,0.208-0.472,0.422-0.849c0.275-0.487,0.618-1.093,0.588-1.292l0.098-0.015c0.035,0.233-0.287,0.804-0.6,1.356
					c-0.2,0.354-0.389,0.688-0.41,0.816c-0.006,0.033,0.002,0.062,0.025,0.09c0.128,0.154,0.63,0.202,0.81,0.2l-0.002,0.1
					C268.571,47.288,268.552,47.287,268.525,47.286z"/>
			</g>
			<g>
				<path fill="#754554" d="M271.326,44.895c-1.137-0.288-1.958-0.131-1.966-0.129l-0.032-0.162
					c0.035-0.007,0.865-0.165,2.039,0.131L271.326,44.895z"/>
			</g>
			<g>
				<path fill="#754554" d="M268.447,44.547c-0.224-0.17-0.609-0.397-0.725-0.375l-0.027-0.163c0.254-0.042,0.753,0.332,0.853,0.406
					L268.447,44.547z"/>
			</g>
			
				<ellipse transform="matrix(0.9476 0.3196 -0.3196 0.9476 28.7465 -84.0112)" fill="#FFFFFF" cx="270.352" cy="45.584" rx="0.348" ry="0.297"/>
			
				<ellipse transform="matrix(0.7287 -0.6848 0.6848 0.7287 41.8903 195.885)" fill="#FFFFFF" cx="268.192" cy="45.068" rx="0.245" ry="0.281"/>
			<path fill="#B24E6D" d="M269.596,48.464c0,0-0.94-0.371-1.323-0.438c-0.382-0.068-0.414,0.063-0.393,0.194
				C267.903,48.351,268.46,49.322,269.596,48.464z"/>
			<path fill="#BD627E" d="M275.047,45.678c0,0-0.287-0.405-0.521-0.282c-0.234,0.123-0.669,0.284-0.694,0.463
				s-0.23,1.143-0.23,1.143s-0.382-0.737-0.28-1.452c0.103-0.715-0.078-1.728-0.351-2.185s-0.537-1.158-1.221-1.295
				c-0.683-0.138-1.642-0.045-2.2-0.111c-0.559-0.065-0.778-0.275-0.778-0.275l-0.548,0.998c0,0,0.053-0.508,0.389-1.063
				c0.335-0.556,2.719-3.054,5.835-1.123c2.298,1.232,2.036,3.831,1.633,4.759c-0.402,0.929-1.542,1.721-1.666,2.006
				c-0.125,0.285-0.446,0.68-0.458,0.948c-0.011,0.269,0.175-1.002,0.424-1.534C274.63,46.141,275.047,45.678,275.047,45.678z"/>
		</g>
		<g>
			<path fill="#749982" d="M262.716,64.401c-0.651,0.253-1.69,0.208-2.32-0.104c-0.631-0.31-0.615-0.768,0.036-1.021
				c0.651-0.254,1.69-0.208,2.321,0.103C263.384,63.69,263.368,64.147,262.716,64.401z"/>
			<polygon fill="#749982" points="263.66,59.422 263.215,63.909 259.933,63.768 259.877,59.259 			"/>
			<path fill="#A89373" d="M262.876,62.492c-0.678-0.317-1.793-0.367-2.491-0.11c-0.698,0.256-0.714,0.722-0.037,1.04
				c0.678,0.317,1.793,0.367,2.491,0.11S263.554,62.81,262.876,62.492z"/>
			<polygon fill="#A89373" points="263.374,63.042 263.644,60.627 259.789,60.448 259.851,62.881 			"/>
			<path fill="#DEC7A7" d="M263.101,60.028c-0.742-0.334-1.964-0.388-2.729-0.121c-0.764,0.268-0.781,0.755-0.038,1.089
				s1.964,0.389,2.729,0.121C263.827,60.85,263.844,60.362,263.101,60.028z"/>
			<path fill="#FEBFBF" d="M259.917,60.902c0,0,0.135-0.286,0.072-0.439c-0.063-0.155-0.081-0.316-0.081-0.316l0.015-0.246
				l0.102-0.166c0,0-0.411-0.012-0.479,0.186c-0.068,0.196-0.161,0.705-0.161,0.705l0.261,0.296c0,0-0.28,0.045-0.334,0.153
				s-0.153,0.441-0.118,0.498c0.036,0.058,0.342,0.343,0.342,0.343s-0.183,0.124-0.197,0.212s-0.002,0.298,0.02,0.383
				s0.444,0.371,0.444,0.371s-0.105,0.146-0.127,0.277c-0.021,0.132,0.005,0.245,0.1,0.333c0.094,0.087,0.715,0.325,0.819,0.351
				c0.104,0.026,0.113-0.252,0.063-0.387c-0.05-0.135-0.578-0.275-0.578-0.275l0.016-0.26c0,0,0.405,0.062,0.479-0.113
				c0.074-0.176-0.073-0.381-0.132-0.408c-0.059-0.028-0.536-0.206-0.536-0.206l-0.102-0.098c0,0,0.385,0.082,0.484,0.08
				c0.1-0.001,0.2-0.175,0.192-0.293c-0.007-0.119-0.124-0.29-0.266-0.36c-0.143-0.07-0.331-0.298-0.331-0.298L259.917,60.902z"/>
			<path fill="#749982" d="M263.042,59.792c-0.703-0.346-1.862-0.398-2.588-0.115c-0.726,0.282-0.744,0.792-0.041,1.139
				s1.861,0.398,2.588,0.115C263.726,60.648,263.745,60.138,263.042,59.792z"/>
			<polygon fill="#749982" points="263.542,60.549 263.599,60.16 263.261,60.212 259.908,60.021 259.894,60.345 			"/>
			<path fill="#A19797" d="M263.165,60.462c-0.751,0.292-1.948,0.238-2.675-0.119c-0.728-0.358-0.708-0.885,0.042-1.178
				c0.75-0.292,1.948-0.238,2.675,0.12S263.915,60.169,263.165,60.462z"/>
			<path fill="#C5C9D8" d="M263.833,59.358l-0.312-0.014c-0.081-0.063-0.176-0.123-0.29-0.179c-0.792-0.391-2.098-0.448-2.916-0.13
				c-0.121,0.047-0.222,0.1-0.308,0.157l-0.298-0.013l-0.02,0.459c0,0.007-0.001,0.014-0.001,0.021v0.01l0.001,0
				c0.003,0.226,0.194,0.459,0.579,0.649c0.792,0.39,2.098,0.448,2.916,0.13c0.401-0.157,0.61-0.375,0.625-0.603h0.001
				L263.833,59.358z"/>
			<path fill="#EFF0F5" d="M263.251,58.725c-0.793-0.39-2.099-0.448-2.916-0.13c-0.818,0.319-0.839,0.894-0.047,1.283
				c0.793,0.391,2.099,0.449,2.916,0.13C264.023,59.689,264.043,59.115,263.251,58.725z"/>
			<path fill="#C5C9D8" d="M263.54,59.331c0-0.005,0-0.009,0-0.013l0.014-0.316l-0.162-0.007c-0.082-0.086-0.197-0.169-0.349-0.244
				c-0.68-0.334-1.799-0.385-2.5-0.111c-0.159,0.062-0.281,0.136-0.37,0.216l-0.153-0.007l-0.014,0.317v0.001v0.002l0,0
				c-0.006,0.198,0.159,0.404,0.497,0.571c0.68,0.334,1.799,0.384,2.5,0.111c0.345-0.135,0.523-0.322,0.536-0.518l0,0L263.54,59.331
				z"/>
			<path fill="#EFF0F5" d="M263.059,58.37c-0.68-0.334-1.799-0.384-2.5-0.111c-0.701,0.272-0.72,0.766-0.04,1.1
				s1.799,0.384,2.5,0.111S263.738,58.705,263.059,58.37z"/>
			<path fill="#A0A6C0" d="M263.259,59.102L263.259,59.102c-0.133,0.026-0.271-0.035-0.308-0.137l-0.016-0.041
				c-0.037-0.102,0.04-0.205,0.173-0.231l0,0c0.133-0.026,0.27,0.036,0.308,0.137l0.015,0.041
				C263.468,58.973,263.391,59.076,263.259,59.102z"/>
		</g>
		<g>
			<path fill="#FEBFBF" d="M277.099,54.135c0,0-1.049,0.053-1.311,1.894c-0.263,1.841,0.504,9.942,1.166,10.757
				c0.662,0.815,1.736,0.355,2.109-1.375s0.497-6.776,0.494-7.39C279.556,57.408,279.509,53.249,277.099,54.135z"/>
			<path fill="#FEBFBF" d="M277.195,65.758c0,0-0.366,0.29-0.697,1.54c-0.331,1.25-1.161,7.33-1.663,7.943s-1.066,1.1-1.066,1.1
				s-0.579,0.9-0.619,1.182c-0.04,0.283-0.287,0.878-0.407,1.023c-0.119,0.145-0.53,0.689-0.504,0.819
				c0.026,0.13,0.399,0.229,0.564,0.081c0.166-0.147,0.671-1.229,0.834-1.422c0.162-0.193,0.335-0.25,0.335-0.25
				s0.131,0.776,0.067,0.965c-0.063,0.189-0.646,1.431-0.646,1.431s-0.55,0.76-0.568,0.829s0.269,0.138,0.421,0.015
				c0.153-0.122,0.107,0.133,0.405,0.067s1.12-0.714,1.12-0.714l0.132-0.17l0.589-0.087c0,0,0.896-1.35,0.968-1.727
				c0.071-0.377,0.472-3.312,0.472-3.312s2.851-7.053,1.963-9.071C278.476,65.363,277.195,65.758,277.195,65.758z"/>
			<path fill="#FEBFBF" d="M274.881,79.083c0,0-0.551,1.07-0.667,1.176c-0.116,0.105-0.969,0.756-0.969,0.756l0.188,0.027
				c0,0,0.391-0.373,0.488-0.44c0.097-0.067,0.436-0.357,0.436-0.357l0.491-0.93L274.881,79.083z"/>
			<path fill="#FEBFBF" d="M275.557,79.18l-0.515,0.906l-0.14,0.111l0.133-0.02c0,0,0.204-0.191,0.267-0.345
				C275.365,79.68,275.557,79.18,275.557,79.18z"/>
			<path fill="#B9D3E1" d="M277.241,53.54c0,0-0.954,0.148-1.476,1.438c-0.521,1.291-0.165,4.666-0.165,4.666
				s1.378-0.088,2.802-0.412c1.425-0.324,1.582-0.948,1.582-0.948s-0.614-3.089-0.844-3.568
				C278.912,54.237,278.926,53.091,277.241,53.54z"/>
		</g>
	</g>
	<path fill="#E6EAF2" d="M268.005,52.647c0,0-1.622,5.736-1.604,7.977c0.019,2.241-0.28,8.36-0.28,8.36s-1.68,0.358-1.763-1.04
		c-0.082-1.397,1.278-9.951,1.278-9.951S267.662,51.248,268.005,52.647z"/>
	<path fill="#B8CFEC" d="M263.705,68.263c0,0,0.867-0.293,1.164-1.411c0.296-1.117,0.568-2.953,0.595-4.84
		c0.026-1.888,1.003-5.004,1.433-6.368c0.43-1.364,1.508-3.754,1.508-3.754s-3.491,6.54-3.709,8.261
		C264.477,61.872,264.619,67.53,263.705,68.263z"/>
	<path fill="#DBE8EF" d="M269.612,49.973c0,0-0.662-0.043-0.949,0.026c-0.286,0.07-1.159,0.836-1.253,1.095
		c-0.094,0.258,0.063,0.995,0.063,0.995s-0.751,1.305-0.77,1.525c-0.019,0.219-0.651,2.976-0.651,2.976l2.274-4.528L269.612,49.973z
		"/>
	<path fill="#B9D3E1" d="M275.821,69.331l0.698-2.831l-0.919-6.855l4.384-1.36c0,0-0.032,5.733-0.477,7.333
		c-0.202,2.133-0.78,4.654-0.78,4.654L275.821,69.331z"/>
	<polygon fill="#DBE8EF" points="278.563,71.527 275.594,70.813 275.84,68.885 279.093,69.675 	"/>
	<path fill="#DBE8EF" d="M270.364,60.885c0,0,0.9-2.962,1.505-3.793c0.604-0.831,1.373-2.162,1.373-2.162l-0.412-0.7
		c0,0,0.981-0.056,1.832-0.59c0.85-0.533,1.492-2.038,1.492-2.038s-2.203-2.068-2.227-1.823c-0.024,0.245,0.376,0.811,0.376,0.811
		s0.123,0.463-0.01,0.768c-0.133,0.304-3.108,3.608-3.361,4.197S270.133,57.897,270.364,60.885z"/>
	<g>
		<polygon fill="#EFF0F5" points="266.79,44.447 266.835,44.333 266.817,44.333 267.71,44.042 267.761,43.865 266.552,44.354 		"/>
	</g>
	<g>
		<path fill="#A28C87" d="M268.005,44.987c0.178,0.528,0.06,1.006-0.265,1.069c-0.324,0.063-0.732-0.314-0.91-0.842
			c-0.179-0.528-0.061-1.007,0.264-1.069C267.418,44.083,267.827,44.459,268.005,44.987z"/>
	</g>
	<g>
		<path fill="#A28C87" d="M270.628,45.964c0.195,0.58-0.005,1.118-0.448,1.204c-0.443,0.085-0.962-0.314-1.157-0.894
			c-0.196-0.579,0.005-1.119,0.448-1.204C269.915,44.985,270.433,45.385,270.628,45.964z"/>
	</g>
	<g>
		<polygon fill="#EFF0F5" points="271.145,46.313 274.721,45.509 274.659,45.39 271.135,46.176 270.669,45.965 270.623,46.08 		"/>
	</g>
	
		<linearGradient id="SVGID_7_" gradientUnits="userSpaceOnUse" x1="1304.8794" y1="102.2539" x2="1306.4731" y2="102.2539" gradientTransform="matrix(0.9997 0.0264 -0.0264 0.9997 -1028.1338 -90.3086)">
		<stop  offset="0.1224" style="stop-color:#FEB9B8"/>
		<stop  offset="1" style="stop-color:#FFDEDE"/>
	</linearGradient>
	<path fill="url(#SVGID_7_)" d="M274.058,45.656c0,0,0.759-0.884,1.104-0.259c0.346,0.625-0.258,1.405-0.656,1.79
		s-0.702,0.503-0.838,0.319c-0.136-0.184,0.131-0.913,0.131-0.913L274.058,45.656z"/>
	
		<linearGradient id="SVGID_8_" gradientUnits="userSpaceOnUse" x1="1305.1353" y1="102.147" x2="1306.2417" y2="102.147" gradientTransform="matrix(0.9997 0.0264 -0.0264 0.9997 -1028.1338 -90.3086)">
		<stop  offset="0.1224" style="stop-color:#FCA4B5"/>
		<stop  offset="0.9896" style="stop-color:#FFADB7"/>
	</linearGradient>
	<path fill="url(#SVGID_8_)" d="M274.178,45.659c0,0,0.488-0.509,0.733-0.161s0.107,1-0.406,1.575
		c-0.519,0.233-0.612,0.011-0.611-0.057c0.002-0.066,0.185-0.377,0.191-0.641S274.178,45.659,274.178,45.659z"/>
	<g>
		<path fill="#EFF0F5" d="M268.948,45.519l0.117-0.056c-0.146-0.229-0.327-0.376-0.533-0.439c-0.286-0.087-0.518,0.022-0.528,0.027
			l0.074,0.114C268.096,45.155,268.573,44.937,268.948,45.519z"/>
	</g>
	<path fill="#EFF0F5" d="M267.208,45.877c-0.176-0.163-0.322-0.396-0.409-0.657c-0.183-0.543-0.055-1.04,0.286-1.105
		c0.164-0.035,0.361,0.041,0.542,0.209c0.177,0.163,0.322,0.396,0.41,0.657l-0.031,0.006l0.031-0.006
		c0.117,0.346,0.111,0.692-0.015,0.905c-0.064,0.11-0.158,0.179-0.271,0.201c-0.031,0.006-0.064,0.009-0.099,0.007
		C267.509,46.088,267.355,46.014,267.208,45.877z M267.105,44.176c-0.307,0.059-0.415,0.522-0.243,1.033
		c0.085,0.25,0.224,0.473,0.392,0.627c0.162,0.151,0.332,0.217,0.477,0.19c0.096-0.019,0.176-0.079,0.232-0.174
		c0.118-0.199,0.122-0.528,0.011-0.858l0,0c-0.085-0.25-0.224-0.473-0.391-0.628c-0.134-0.124-0.271-0.191-0.396-0.196
		C267.159,44.168,267.131,44.171,267.105,44.176z"/>
	<path fill="#EFF0F5" d="M269.488,46.994c-0.224-0.173-0.4-0.426-0.496-0.712c-0.202-0.595,0.009-1.151,0.47-1.241
		c0.181-0.036,0.374,0.005,0.565,0.114c0.281,0.162,0.518,0.462,0.633,0.804l0,0c0.201,0.594-0.009,1.151-0.469,1.24
		c-0.053,0.011-0.107,0.015-0.161,0.012C269.851,47.203,269.664,47.129,269.488,46.994z M269.482,45.101
		c-0.425,0.083-0.617,0.606-0.427,1.168c0.092,0.273,0.26,0.515,0.474,0.679c0.208,0.162,0.432,0.228,0.642,0.19
		c0.425-0.083,0.615-0.606,0.426-1.167l0,0c-0.11-0.326-0.334-0.612-0.601-0.765c-0.123-0.071-0.249-0.11-0.37-0.115
		C269.576,45.089,269.528,45.092,269.482,45.101z"/>
	<g>
		<path fill="#A8B0C2" d="M273.45,59.445c-0.205,0.499-0.735,0.709-1.186,0.469s-0.648-0.84-0.443-1.34
			c0.205-0.499,0.736-0.708,1.187-0.468C273.457,58.347,273.655,58.946,273.45,59.445z"/>
		<path fill="#DBA259" d="M273.363,59.399c-0.206,0.5-0.736,0.709-1.187,0.469c-0.45-0.241-0.647-0.84-0.442-1.339
			c0.205-0.5,0.735-0.709,1.186-0.469S273.568,58.9,273.363,59.399z"/>
		<path fill="#EDB83A" d="M273.25,59.375c-0.198,0.479-0.703,0.683-1.131,0.454c-0.426-0.229-0.612-0.802-0.415-1.281
			s0.704-0.683,1.13-0.454C273.26,58.322,273.447,58.896,273.25,59.375z"/>
		<path fill="#F7D165" d="M273.205,59.376c-0.192,0.468-0.688,0.667-1.104,0.444s-0.599-0.784-0.406-1.252
			c0.193-0.469,0.688-0.668,1.105-0.444S273.398,58.907,273.205,59.376z"/>
		<path fill="#738E9E" d="M272.633,58.266c-0.362-0.127-0.732,0.087-0.826,0.477c-0.093,0.39,0.126,0.81,0.488,0.937
			c0.362,0.126,0.732-0.087,0.826-0.478C273.214,58.813,272.996,58.393,272.633,58.266z M272.263,59.477
			c-0.08-0.043-0.146-0.103-0.198-0.177l0.279-0.161L272.263,59.477z M272.517,58.416l-0.084,0.352l0,0l-0.035,0.145l-0.411,0.237
			c-0.041-0.112-0.06-0.234-0.03-0.356C272.021,58.521,272.264,58.371,272.517,58.416z M272.412,59.528l0.08-0.333l0.169,0.312
			C272.583,59.536,272.5,59.544,272.412,59.528z M272.792,59.429l-0.248-0.455l0.121-0.506c0.234,0.125,0.372,0.409,0.307,0.682
			C272.944,59.271,272.875,59.36,272.792,59.429z"/>
	</g>
	
		<ellipse transform="matrix(0.5406 0.8413 -0.8413 0.5406 174.6402 -202.7122)" fill="#A08471" cx="272.921" cy="58.543" rx="0.329" ry="0.185"/>
	<path fill="#EFF0F5" d="M273.71,49.302c0.479,0.021,0.885-0.401,0.908-0.943c0.021-0.484-0.272-0.897-0.677-0.994
		c-0.017,0.035-0.04,0.068-0.072,0.096c0.012,0.002,0.023,0,0.035,0.003c0.237,0.056,0.438,0.24,0.536,0.492
		c0.169,0.435-0.001,0.948-0.38,1.145c-0.187,0.095-0.387,0.103-0.572,0.022c-0.19-0.082-0.34-0.243-0.423-0.455
		c-0.17-0.436,0.002-0.949,0.381-1.146c0.041-0.021,0.084-0.038,0.128-0.051c0.026-0.007,0.053-0.008,0.079-0.012
		c-0.011-0.019-0.027-0.034-0.026-0.062c0.001-0.016,0.014-0.031,0.02-0.047c-0.411,0.063-0.738,0.449-0.759,0.932
		C272.865,48.825,273.233,49.281,273.71,49.302z"/>
</g>
</svg>
