<?xml version="1.0" encoding="utf-8"?>
<!-- Generator: Adobe Illustrator 16.0.0, SVG Export Plug-In . SVG Version: 6.00 Build 0)  -->
<!DOCTYPE svg PUBLIC "-//W3C//DTD SVG 1.1//EN" "http://www.w3.org/Graphics/SVG/1.1/DTD/svg11.dtd">
<svg version="1.1" id="Layer_1" xmlns="http://www.w3.org/2000/svg" xmlns:xlink="http://www.w3.org/1999/xlink" x="0px" y="0px"
	 width="463.683px" height="425.749px" viewBox="0 0 463.683 425.749" enable-background="new 0 0 463.683 425.749"
	 xml:space="preserve">
<g>
	<g>
		<path fill="#B9D3E1" d="M311.168,56.696c0,0-1.479-0.13-2.368,1.514s-1.011,2.578-1.847,4.103
			c-0.835,1.525-2.979,4.905-2.896,5.71c0.083,0.805,1.517,1.939,2.855,1.52c1.34-0.42,3.054-2.91,3.379-3.34
			C318.605,55.222,311.168,56.696,311.168,56.696z"/>
		<path fill="#E3E5EF" d="M322.563,107.895c-4.049-2.577-10.803-2.856-15.085-0.624c-1.905,0.993-2.995,2.315-3.268,3.704
			c-1.889,0.141-3.713,0.623-5.16,1.458c-3.493,2.017-3.476,5.297,0.039,7.327c3.516,2.03,9.197,2.04,12.69,0.023
			c0.888-0.513,1.546-1.107,1.98-1.741c2.969,0.243,6.042-0.222,8.38-1.44C326.422,114.37,326.612,110.472,322.563,107.895z"/>
		<path fill="#626170" d="M307.331,111.063c0,0-0.245,0.124-0.258,0.306s-0.019,0.682-0.018,0.8
			c0.001,0.118,0.311,0.576,1.069,0.752c0.76,0.177,2.605-0.312,3.228-0.675s1.471-1.287,1.729-1.357
			c0.202-0.055,0.72,0.021,0.934,0.056c0.065,0.011,0.131,0.013,0.197,0.007l0.487-0.04c0.07-0.006,0.139-0.021,0.204-0.044
			l1.045-0.371c0,0,0.149-0.767-0.164-1.009S307.331,111.063,307.331,111.063z"/>
		<path fill="#504F60" d="M311.633,107.947c0,0-0.904,0.573-1.064,0.734c-0.161,0.161-1.794,0.824-2.36,1.17
			c-0.566,0.345-0.992,0.936-1.029,1.129s-0.123,0.635-0.058,0.821s0.36,0.677,1.338,0.738c0.875,0.055,2.562-0.684,2.905-0.839
			c0.042-0.019,0.08-0.041,0.118-0.066c0.261-0.177,1.347-0.914,1.525-0.998c0.203-0.096,2.002-0.551,2.275-0.642
			s0.58-0.125,0.62-0.345c0.04-0.219,0.122-1.426-0.022-1.805C315.736,107.465,312.432,106.974,311.633,107.947z"/>
		<path fill="#626170" d="M314.017,114.285c0,0-0.269,0.005-0.332,0.361c-0.021,0.118-0.034,0.242-0.042,0.357
			c-0.022,0.307,0.124,0.606,0.393,0.757c0.228,0.128,0.564,0.258,1.05,0.319c1.121,0.142,2.493-0.272,3.197-0.671
			c0.703-0.398,0.955-0.723,1.38-1.312s0.862-0.87,0.862-0.87l0.18,0.048c0,0,0.627-0.457,0.973-0.773
			c0.139-0.127,0.229-0.297,0.252-0.484c0.049-0.397,0.058-1.043-0.061-1.119C321.714,110.801,314.017,114.285,314.017,114.285z"/>
		<path fill="#504F60" d="M316.992,110.488l-0.146,0.35c-0.042,0.101-0.104,0.191-0.182,0.268c-0.413,0.402-1.792,1.747-2.212,2.197
			c-0.497,0.531-0.754,0.996-0.775,1.477c-0.022,0.481,1.229,0.793,1.416,0.806s1.019,0.095,2.083-0.301
			c1.065-0.396,1.504-0.778,2.359-1.708c0.854-0.93,1.432-1.441,1.694-1.653c0.263-0.212,0.644-0.551,0.64-0.826
			c-0.005-0.275,0.038-1.047-0.188-1.143c-0.203-0.087-3.184-0.335-4.296,0.117C317.203,110.146,317.068,110.307,316.992,110.488z"
			/>
		<path fill="#6D899A" d="M309.259,76.485c0,0-0.404,0.69-0.369,2.379c0.036,1.69,0.25,11.034,1.226,16.008
			c0.977,3.046,1.55,11.93,1.573,12.716c0.904,1.285,4.39,0.762,4.295-0.071c-0.096-0.833-0.137-7.084-0.021-8.631
			c0.117-1.547-0.061-16.301-1.348-18.434C313.329,78.317,309.259,76.485,309.259,76.485z"/>
		<path fill="#738E9E" d="M312.064,79.596c0,0-0.258,4.528,0.408,5.48s0.979,0.997,1.168,2.973c0.191,1.976,0.998,7.621,1.45,9.168
			s1.545,9.606,1.901,13.271c1.737,0.833,4.595,0.894,4.689-0.534c0.096-1.429,0.28-7.193-0.481-10.549
			c-0.762-3.356-0.942-4.776-0.942-5.8c0-1.023,0.164-8.006,0.259-8.291c0.095-0.286,1.119-4.25-0.048-5.834
			C319.302,77.896,312.064,79.596,312.064,79.596z"/>
		<g>
			<g>
				<path fill="#8C92B0" d="M312.253,84.393c-0.064,0.003-0.135-0.012-0.209-0.045c-0.352-0.156-0.759-0.704-0.822-1.536
					c-0.034-0.453-0.084-2.253-0.069-2.469l0.206,0.014c-0.014,0.185,0.033,1.966,0.069,2.44c0.061,0.801,0.452,1.255,0.701,1.366
					c0.071,0.032,0.132,0.037,0.169,0.01c0.051-0.039,0.068-0.15,0.046-0.299c-0.159-1.037-0.219-3.466-0.052-3.589l0.049-0.037
					l0.063,0.025l-0.045,0.094l0.001-0.002l0.001,0.003l0.082,0.047c-0.061,0.167-0.088,2.173,0.105,3.428
					c0.045,0.294-0.044,0.43-0.126,0.491C312.374,84.371,312.316,84.39,312.253,84.393z M312.358,80.37l-0.041,0.088L312.358,80.37z
					"/>
			</g>
			<g>
				<path fill="#8C92B0" d="M317.519,84.1c-1.183,0.049-2.108-0.185-2.762-0.698c-0.848-0.668-0.904-1.557-0.906-1.595l0.206-0.011
					c0,0.009,0.056,0.841,0.832,1.45c0.813,0.635,2.085,0.812,3.786,0.523l0.035,0.2C318.288,84.04,317.89,84.084,317.519,84.1z"/>
			</g>
			<path fill="#A76478" d="M321.13,80.099c0,0-1.892,0.989-4.994,1.012c-3.102,0.023-4.299-0.29-5.371-0.825
				c-1.073-0.534-1.757-1.263-1.757-1.263l0.111-1.186c0,0,0.651,0.929,2.164,1.493c1.513,0.563,4.69,0.589,5.98,0.545
				s3.69-0.689,3.69-0.689L321.13,80.099z"/>
			<path fill="#738E9E" d="M314.522,79.91c0,0-0.062,0.34-0.048,0.738c0.014,0.398,0.077,1.128,0.077,1.128l-0.472-0.044
				c0,0-0.131-0.699-0.137-1.054c-0.006-0.354,0.069-0.85,0.069-0.85L314.522,79.91z"/>
			<path fill="#738E9E" d="M318.996,79.635c0,0,0.105,0.33,0.144,0.727c0.039,0.396,0.07,1.127,0.07,1.127l0.463-0.103
				c0,0,0.039-0.71-0.002-1.063c-0.04-0.352-0.179-0.834-0.179-0.834L318.996,79.635z"/>
			<path fill="#738E9E" d="M310.128,78.71c0,0-0.087,0.423-0.081,0.762c0.005,0.34,0.106,0.913,0.106,0.913l-0.338-0.358
				c0,0-0.087-0.581-0.09-0.766c-0.003-0.184,0.134-0.733,0.134-0.733L310.128,78.71z"/>
			<g>
				<path fill="#8C92B0" d="M308.777,80.716c-0.032,0.001-0.065-0.002-0.1-0.01l0.048-0.197c0.251,0.063,0.534-0.589,0.625-0.913
					l0.199,0.053C309.517,79.763,309.242,80.696,308.777,80.716z"/>
			</g>
			<g>
				<path fill="#CCDEFB" d="M312.315,81.088c-0.055-0.002-0.11-0.011-0.168-0.027l-0.892-0.242c-0.38-0.103-0.693-0.462-0.715-0.819
					l-0.02-0.339c-0.01-0.173,0.051-0.323,0.17-0.421c0.136-0.11,0.331-0.142,0.539-0.085l0.892,0.242
					c0.38,0.103,0.693,0.463,0.714,0.819l0.02,0.339c0.011,0.173-0.05,0.323-0.169,0.421
					C312.588,81.056,312.458,81.094,312.315,81.088z M311.095,79.517c-0.06-0.002-0.111,0.012-0.147,0.041
					c-0.037,0.03-0.054,0.075-0.051,0.132l0.02,0.34c0.01,0.167,0.19,0.36,0.388,0.413l0.892,0.242
					c0.096,0.025,0.181,0.016,0.233-0.027c0.037-0.03,0.054-0.075,0.051-0.131l-0.02-0.34c-0.01-0.167-0.191-0.36-0.388-0.414
					l-0.892-0.242C311.151,79.523,311.123,79.518,311.095,79.517z"/>
			</g>
		</g>
		<path fill="#92BACF" d="M322.246,65.941c0,0,0.825-3.665-0.254-4.87c-1.079-1.206-3.189-2.777-4.268-3.332
			c-1.079-0.556-4.26-1.35-5.847-0.953c-1.586,0.396-3.197,3-3.309,5.284c-0.11,2.285,0.071,4.419,0.477,6.466
			c0.404,2.046-0.952,8.274-0.175,8.67c0.23,0.611,0.008,1.142,0.02,1.658c0.01,0.414,1.368,1.625,5.067,2.157
			c4.707,0.676,6.868-0.396,6.892-0.883c0.024-0.487-0.19-1.464-0.19-1.464s0.583-0.178,0.583-0.666
			C321.242,77.521,320.096,73.248,322.246,65.941z"/>
		<path fill="#92BACF" d="M322.24,66.967c-0.076,0.479-0.147,0.938-0.198,1.355c-0.276,2.245-1.231,9.759-1.231,9.759
			c-0.001,0.003-0.021,0.138-1.092,0.231c-0.356,0.032-0.95,0.032-1.67,0.007c-1.488-0.053-3.509-0.217-5.016-0.457
			c-2.234-0.354-4.497-2.136-4.391-2.712c0.107-0.574,0.304-2.473,0.043-6.057c-0.262-3.585-0.237-8.302,0.576-10.097
			c0.813-1.794,1.637-2.6,3.142-2.802s4.534-0.059,5.104,0.178c0.57,0.237,1.538,1.422,2.544,2.023
			c1.161,0.694,2.605,2.026,2.975,2.741C324.036,63.093,322.581,64.855,322.24,66.967z"/>
		<path fill="#ADFF91" d="M323.435,62.204c-0.143,0.617-0.384,2.063-0.657,3.8c-0.026,0.169-0.059,0.338-0.078,0.514
			c-0.182,1.145-0.37,2.388-0.56,3.585c-0.084,0.547-0.169,1.087-0.247,1.607c-0.059,0.358-0.117,0.709-0.169,1.042
			c-0.131,0.781-0.248,1.483-0.352,2.05c-0.137,0.768-0.254,1.288-0.325,1.425c-0.378,0.723-2.863,1.731-5.883,1.25
			c-3.025-0.481-2.883-0.677-3.313-1.25c-0.448,0.554-1.691,0.228-2.688-0.787c-0.885-0.892-0.501-1.432-0.436-2.752
			c0.007-0.176,0.013-0.371,0.007-0.58c-0.014-0.39-0.026-0.95-0.046-1.581c-0.007-0.247-0.02-0.507-0.026-0.774
			c-0.02-0.729-0.039-1.503-0.059-2.245c-0.025-1.015-0.052-1.958-0.059-2.563c-0.006-0.208-0.006-0.384-0.006-0.501
			c0-0.417,0-0.983,0.064-1.673c0.098-1.054,0.358-2.395,1.002-3.924c1.094-2.59,3.515-2.83,6.046-2.4
			c1.295,0.214,2.954,0.481,2.954,0.481S323.923,60.134,323.435,62.204z"/>
		<g>
			<path fill="#F4F4F4" d="M321.724,72.752c-0.131,0.781-0.248,1.483-0.352,2.05c-0.872,0.286-1.959,0.423-3.149,0.423
				c-2.265,0-4.939-0.508-7.386-1.51c-0.84-0.345-1.542-0.684-2.108-1.028c0.007-0.176,0.013-0.371,0.007-0.58
				c-0.014-0.39-0.026-0.95-0.046-1.581c0.228,0.26,0.892,0.82,2.798,1.601C316.004,73.981,320.54,73.728,321.724,72.752z"/>
		</g>
		<g>
			<path fill="#F4F4F4" d="M322.14,70.104c-0.084,0.547-0.169,1.087-0.247,1.607c-0.95,0.41-2.226,0.619-3.663,0.619
				c-2.271,0-4.946-0.508-7.393-1.516c-0.872-0.358-1.601-0.709-2.174-1.061c-0.02-0.729-0.039-1.503-0.059-2.245
				c0.104,0.176,0.618,0.794,2.883,1.725c4.627,1.9,9.279,1.582,10.32,0.54L322.14,70.104z"/>
		</g>
		<g>
			<path fill="#F4F4F4" d="M322.778,66.004c-0.026,0.169-0.059,0.338-0.078,0.514c-0.963,0.715-2.576,1.074-4.477,1.074
				c-2.265,0-4.939-0.508-7.386-1.517c-0.938-0.384-1.698-0.761-2.291-1.132c-0.006-0.208-0.006-0.384-0.006-0.501
				c0-0.417,0-0.983,0.064-1.673c0.104,0.176,0.618,0.788,2.883,1.718c4.627,1.907,9.279,1.587,10.32,0.546L322.778,66.004z"/>
		</g>
		<path fill="#92BACF" d="M314.973,56.539c0,0-1.892-0.25-2.677,1.678c-0.786,1.928,0.273,3.011,0.262,3.772
			c0.952-0.631,1.479-1.523,3.398-1.952c1.92-0.428,3.003-1.583,2.967-2.142C318.888,57.336,317.52,55.932,314.973,56.539z"/>
		<path fill="#A8B0C2" d="M319.389,63.911c0,0-0.824,2.15-0.801,4.292c0.024,2.142,0.433,4.474,0.407,4.95
			c-0.026,0.476,0,6.069,0,6.069s1.211-7.044,1.211-8.163C320.207,69.94,319.389,63.911,319.389,63.911z"/>
		<path fill="#B9D3E1" d="M322.07,60.775c0,0-2.49-0.102-3.051,2.65c-0.592,2.904-0.439,4.899-0.217,6.536
			c0.222,1.637,0.246,3.735,1.169,3.846c0.923,0.111,2.758,0.195,2.957-1.322s0.394-7.857,0.485-9.234
			C323.541,61.362,323.046,60.794,322.07,60.775z"/>
		<path fill="#A8B0C2" d="M312.178,78.365c0,0-1.349-0.978-1.586-1.513c-0.238-0.534-1.023-1.09-1.023-1.09s-0.143,0.46-0.429-0.194
			c0.023,0.726,0.404,1.035,0.571,1.131c0.167,0.095,0.163-0.382,0.617,0.392C310.783,77.865,312.178,78.365,312.178,78.365z"/>
		<path fill="#A8B0C2" d="M314.329,79.667c0,0-2.476-0.397-3.284-0.826c-0.81-0.428-2.174-1.634-2.174-1.634v0.797
			C308.871,78.003,311.52,80.231,314.329,79.667z"/>
		<path fill="#EDEFF3" d="M317.684,73.105c0,0-0.429-1.714-0.928-2.57c-0.5-0.857-2.023-1.642-2.237-3.927
			c0.214,2.213,0.643,3.016,1.499,4.03S317.684,73.105,317.684,73.105z"/>
		<path fill="#EDEFF3" d="M319.183,59.405c0,0,0.254,0.365-0.57,1.761c-0.825,1.396-1.302,2.063-1.396,2.745
			c-0.096,0.682-0.096,0.682-0.096,0.682s0.734-1.507,1.185-2.063c0.45-0.555,1.068-0.825,1.497-1.539
			c-0.81,1.38-1.762,2.761-2.047,4.22c-0.285,1.46-0.396,2.697-0.396,2.697s0.016-1.603-0.302-2.301
			c-0.317-0.698-0.478-1.46-0.047-2.411C317.915,61.198,318.867,60.992,319.183,59.405z"/>
		<path fill="#EDEFF3" d="M322.07,72.105c0,0-0.603-0.301-1.147-0.169c-0.546,0.132-1.066,0.506-1.161,0.566
			c-0.094,0.06-0.629,0.123-0.629,0.123s0.334-0.391,0.612-0.459s0.942-0.551,1.327-0.568S321.859,71.699,322.07,72.105z"/>
		<g>
			
				<linearGradient id="SVGID_1_" gradientUnits="userSpaceOnUse" x1="-648.8345" y1="340.4326" x2="-652.4286" y2="338.1635" gradientTransform="matrix(0.9937 0.1119 -0.1119 0.9937 1000.5759 -209.2993)">
				<stop  offset="0.1224" style="stop-color:#FEC7C7"/>
				<stop  offset="0.9694" style="stop-color:#FFADB7"/>
			</linearGradient>
			<path fill="url(#SVGID_1_)" d="M312.892,55.069c0,0-0.1,2.843-0.303,3.388c-0.203,0.545,0.601,1.104,1.93,1.064
				c1.329-0.039,2.894-1.183,3.418-1.36c0.525-0.178,0.518-0.447,0.119-1.013c-0.398-0.564-0.889-1.251-0.596-2.874
				c0.293-1.623,0.851-3.911,0.491-4.361s-3.075,0.001-3.716,1.206S312.892,55.069,312.892,55.069z"/>
			<path fill="#FEC7C7" d="M317.164,51.308c0,0-1.119,2.872-1.355,3.428c-0.235,0.556-0.879,1.146-1.756,1.506
				c-0.875,0.359-2.275,0.61-2.814,0.36c-0.54-0.25-0.572-0.379-0.571-0.68c0.002-0.25-0.237-1.001-0.227-2.035
				c0.002-0.203,0.015-0.415,0.039-0.635c0.099-0.875-0.122-2.143-0.032-2.384c0.092-0.242,0.027-2.188,0.686-2.998
				c0.659-0.81,2.613-2.341,4.549-1.886c1.595,0.374,1.566,3.746,1.51,4.922C317.178,51.155,317.164,51.308,317.164,51.308z"/>
			<path fill="#754554" d="M317.429,54.461l0.47-0.578l0.315-0.138l0.552-0.979c0,0,1.137-2.111,1.05-3.304
				c-0.086-1.192-0.733-2.552-2.126-2.826c-0.978-1.119-2.755-1.304-3.794-1.185c-1.038,0.12-2.336,0.999-2.903,2.118
				s-0.248,1.13-0.248,1.13s0.621,0.457,1.438,0.061s1.202-0.732,1.498-0.698c0.296,0.033,0.575,0.774,0.535,1.132
				c-0.041,0.358-0.208,1.286,0.155,1.563c0.362,0.277,1.072,1.114,1.193,1.302c0.121,0.187,0.008,0.915,0.008,0.915l0.455-0.185
				c0,0,0.095-0.923,0.599-1.267c0.505-0.343,0.818,0.086,0.82,0.354c0.001,0.269-0.219,1.096-0.161,1.291
				C317.342,53.362,317.477,54.041,317.429,54.461z"/>
			
				<linearGradient id="SVGID_2_" gradientUnits="userSpaceOnUse" x1="-1024.2183" y1="102.9707" x2="-1022.7349" y2="102.9707" gradientTransform="matrix(1 0.001 -0.001 1 1340.6082 -49.2231)">
				<stop  offset="0.1224" style="stop-color:#FEB9B8"/>
				<stop  offset="1" style="stop-color:#FFDEDE"/>
			</linearGradient>
			<path fill="url(#SVGID_2_)" d="M316.553,51.786c0,0,0.329-0.548,0.972-0.336s-0.174,1.807-0.222,1.902
				c-0.047,0.096-0.188,0.754-0.714,0.69c-0.524-0.063-0.21-0.8-0.21-0.8S316.669,52.264,316.553,51.786z"/>
			
				<linearGradient id="SVGID_3_" gradientUnits="userSpaceOnUse" x1="-1023.9351" y1="102.6914" x2="-1022.9424" y2="102.6914" gradientTransform="matrix(1 0.001 -0.001 1 1340.6082 -49.2231)">
				<stop  offset="0.1224" style="stop-color:#FCA4B5"/>
				<stop  offset="0.9896" style="stop-color:#FFADB7"/>
			</linearGradient>
			<path fill="url(#SVGID_3_)" d="M316.764,51.771c0,0,0.374-0.319,0.69-0.096c0.315,0.223-0.121,1.386-0.475,1.617
				c-0.203,0.016-0.411-0.03-0.411-0.03S316.866,52.053,316.764,51.771z"/>
		</g>
		<path fill="#B9D3E1" d="M306.496,67.592c0,0-1.095-0.879-1.87-0.949c-0.528,0.129-5.964,5.438-6.13,5.623
			c-0.166,0.184-0.559,0.503,0.218,1.421c0.775,0.918,1.003,0.783,1.182,0.663c0.179-0.121,0.653-0.394,0.733-0.391
			c0.079,0.003,1.584-0.828,2.024-1.165c1.403-1.071,1.904-1.555,2.702-1.831c1.058-0.365,1.991-1.397,1.965-1.592
			C307.294,69.177,307.074,68.264,306.496,67.592z"/>
		<g>
			<path fill="#FFCC54" d="M299.708,74.666c-0.096,0.33-0.262,0.275-0.369,0.445c-0.107,0.167-0.063,0.283-0.096,0.383
				c-0.034,0.1-0.29,0.269-0.407,0.349c-0.115,0.078-0.375-0.021-0.375-0.021s-0.28,0.074-0.454,0.067
				c-0.173-0.006-0.256-0.194-0.256-0.194s-0.146-0.042-0.321-0.107c-0.177-0.066-0.283-0.283-0.331-0.273
				c-0.048,0.009-0.431-0.089-0.48-0.186c-0.004-0.007-0.009-0.017-0.015-0.027c-0.044-0.095-0.089-0.215-0.089-0.215
				s-0.104,0.091-0.249,0.117c-0.088,0.014-0.182-0.009-0.247-0.057h-0.002c-0.041-0.03-0.067-0.067-0.078-0.109
				c-0.026-0.115,0.127-0.233,0.223-0.387c0.095-0.15,0.171-0.464,0.214-0.645c0.043-0.183,0.755-0.924,0.912-1.028
				c0.16-0.101,0.529-0.129,0.752-0.164c0.222-0.038,0.404-0.18,0.404-0.18s0.274,0.005,0.473,0.113
				c0.199,0.108,0.354,0.413,0.354,0.413c0.091,0.141,0.17,0.102,0.401,0.592C299.902,74.042,299.801,74.335,299.708,74.666z"/>
			<g>
				<path fill="#E1E3EE" d="M296.701,77.56c-0.009-0.032-0.217-0.81-0.501-2.241c-0.305-1.537,0.782-2.309,1.74-2.99l0.223-0.159
					c0.949-0.687,1.965-0.208,2.367,0.139l-0.423,0.494c-0.032-0.027-0.797-0.656-1.563-0.105l-0.227,0.162
					c-0.913,0.649-1.701,1.21-1.479,2.333c0.279,1.407,0.489,2.191,0.491,2.199L296.701,77.56z"/>
			</g>
			
				<linearGradient id="SVGID_4_" gradientUnits="userSpaceOnUse" x1="390.3452" y1="147.2256" x2="393.1128" y2="147.2256" gradientTransform="matrix(0.9993 0.0369 -0.0369 0.9993 -88.599 -87.1758)">
				<stop  offset="0.1224" style="stop-color:#FCA4B5"/>
				<stop  offset="0.9896" style="stop-color:#FFADB7"/>
			</linearGradient>
			<path fill="url(#SVGID_4_)" d="M298.802,74.509c0,0-0.076-0.197-0.136-0.227c-0.059-0.028-0.193-0.085-0.288-0.089
				c-0.027-0.045-0.132-0.1-0.256-0.106c-0.121-0.008-0.263,0.061-0.263,0.061s-0.072-0.058-0.149-0.103
				c-0.074-0.044-0.284-0.029-0.355,0.004c-0.072,0.034-0.173,0.273-0.258,0.372c-0.088,0.098-0.317,0.327-0.403,0.431
				c-0.087,0.105-0.07,0.117-0.091,0.25c-0.044-0.095-0.089-0.215-0.089-0.215s-0.104,0.091-0.249,0.117
				c-0.088,0.014-0.182-0.009-0.247-0.057c0.351,0.092,0.458-0.03,0.699-0.266c0.241-0.234,0.229-0.414,0.229-0.414l0.425-0.359
				l-0.075-0.241l0.198,0.145l0.207-0.13c0,0,0.053,0.008,0.021,0.043c-0.03,0.035-0.175,0.22-0.175,0.22s0.143,0.017,0.343,0.06
				c0.201,0.042,0.312-0.019,0.312-0.019s0.061-0.034,0.219,0.002c0.159,0.037,0.316,0.012,0.316,0.012l-0.267,0.106
				c0,0,0.228,0.073,0.288,0.138C298.822,74.309,298.802,74.509,298.802,74.509z"/>
			
				<linearGradient id="SVGID_5_" gradientUnits="userSpaceOnUse" x1="391.438" y1="147.5938" x2="392.2515" y2="147.5938" gradientTransform="matrix(0.9993 0.0369 -0.0369 0.9993 -88.599 -87.1758)">
				<stop  offset="0.1224" style="stop-color:#FCA4B5"/>
				<stop  offset="0.9896" style="stop-color:#FFADB7"/>
			</linearGradient>
			<path fill="url(#SVGID_5_)" d="M297.86,74.147c0,0,0.025,0.342-0.045,0.435c-0.071,0.093-0.547,0.679-0.717,0.732
				c0.065,0.049,0.13,0.122,0.13,0.122s0.005-0.149,0.074-0.198c0.069-0.049,0.594-0.614,0.623-0.656
				c0.029-0.042,0.018-0.467,0.018-0.467L297.86,74.147z"/>
			
				<linearGradient id="SVGID_6_" gradientUnits="userSpaceOnUse" x1="392.0376" y1="147.7441" x2="392.7632" y2="147.7441" gradientTransform="matrix(0.9993 0.0369 -0.0369 0.9993 -88.599 -87.1758)">
				<stop  offset="0.1224" style="stop-color:#FCA4B5"/>
				<stop  offset="0.9896" style="stop-color:#FFADB7"/>
			</linearGradient>
			<path fill="url(#SVGID_6_)" d="M298.378,74.193c0,0,0.039,0.693-0.031,0.827c-0.069,0.135-0.663,0.654-0.663,0.654l0.066,0.02
				c0,0,0.647-0.577,0.668-0.647S298.489,74.27,298.378,74.193z"/>
			
				<linearGradient id="SVGID_7_" gradientUnits="userSpaceOnUse" x1="392.7632" y1="147.8994" x2="393.6597" y2="147.8994" gradientTransform="matrix(0.9993 0.0369 -0.0369 0.9993 -88.599 -87.1758)">
				<stop  offset="0.1224" style="stop-color:#FCA4B5"/>
				<stop  offset="0.9896" style="stop-color:#FFADB7"/>
			</linearGradient>
			<path fill="url(#SVGID_7_)" d="M299.312,75.156c0,0,0.006-0.271-0.082-0.319c-0.088-0.049-0.263-0.139-0.313-0.081
				s-0.067,0.378-0.09,0.491c-0.021,0.112-0.367,0.575-0.367,0.575l-0.056,0.014c0,0,0.37-0.501,0.372-0.615
				c0.003-0.113,0.078-0.557,0.08-0.592c0.001-0.036-0.055-0.12-0.055-0.12l0.002-0.105c0,0,0.032,0.129,0.148,0.199
				C299.07,74.672,299.418,74.666,299.312,75.156z"/>
		</g>
		<g>
			<g>
				<g>
					<linearGradient id="SVGID_8_" gradientUnits="userSpaceOnUse" x1="297.3677" y1="91.4609" x2="314.144" y2="91.4609">
						<stop  offset="0" style="stop-color:#C4C8D8"/>
						<stop  offset="0.0704" style="stop-color:#B1B6CC"/>
						<stop  offset="0.1511" style="stop-color:#A0A6C0"/>
						<stop  offset="0.3773" style="stop-color:#A0A6C0"/>
						<stop  offset="0.4933" style="stop-color:#ACB1C8"/>
						<stop  offset="0.7749" style="stop-color:#C4C8D8"/>
						<stop  offset="0.9821" style="stop-color:#C4C8D8"/>
						<stop  offset="1" style="stop-color:#C4C8D8"/>
					</linearGradient>
					<path fill="url(#SVGID_8_)" d="M314.144,77.859h-16.776l1.035,22.958l0,0c0.012,1.082,0.734,2.165,2.169,2.993
						c2.881,1.663,7.537,1.672,10.399,0.019c1.438-0.83,2.148-1.921,2.137-3.012h0.001L314.144,77.859z"/>
					<path fill="#9198B5" d="M299.39,101.402l-0.197-0.158c-0.131-0.104-0.21-0.262-0.215-0.429l-0.516-17.639
						c-0.015-0.486,0.547-0.767,0.927-0.463l0.198,0.158c0.131,0.104,0.209,0.262,0.214,0.429l0.517,17.639
						C300.332,101.425,299.77,101.705,299.39,101.402z"/>
					<path fill="#9198B5" d="M301.974,103.235L301.974,103.235c-0.345-0.095-0.586-0.404-0.596-0.761l-0.457-17.438
						c-0.015-0.546,0.502-0.95,1.028-0.805l0,0c0.344,0.096,0.586,0.404,0.595,0.762l0.458,17.438
						C303.017,102.977,302.5,103.381,301.974,103.235z"/>
					<path fill="#9198B5" d="M310.277,103.126L310.277,103.126c-0.386,0.187-0.832-0.102-0.82-0.53l0.522-18.021
						c0.006-0.213,0.13-0.405,0.321-0.498l0,0c0.386-0.187,0.832,0.102,0.82,0.531l-0.522,18.021
						C310.592,102.842,310.468,103.034,310.277,103.126z"/>
					<path fill="#9198B5" d="M312.23,101.951L312.23,101.951c-0.325,0.185-0.696-0.106-0.682-0.535l0.618-18.017
						c0.007-0.213,0.112-0.404,0.274-0.496l0,0c0.324-0.185,0.695,0.106,0.681,0.535l-0.618,18.018
						C312.497,101.668,312.391,101.859,312.23,101.951z"/>
					<path fill="#9198B5" d="M308.167,103.685L308.167,103.685c-0.518,0.279-1.022-0.005-1.018-0.573l0.134-17.824
						c0.002-0.26,0.168-0.529,0.404-0.657l0,0c0.519-0.279,1.022,0.005,1.019,0.573l-0.134,17.823
						C308.571,103.287,308.405,103.557,308.167,103.685z"/>
					<path fill="#9198B5" d="M305.172,103.809L305.172,103.809c-0.408,0.004-0.742-0.324-0.745-0.732l-0.153-17.665
						c-0.004-0.408,0.324-0.742,0.732-0.746l0,0c0.408-0.003,0.741,0.325,0.745,0.732l0.153,17.665
						C305.908,103.472,305.581,103.806,305.172,103.809z"/>
					<path fill="#948F96" d="M311.706,78.843c-3.266,1.885-8.577,1.876-11.863-0.021s-3.303-4.964-0.037-6.849
						s8.577-1.876,11.863,0.021C314.955,73.891,314.971,76.957,311.706,78.843z"/>
					<linearGradient id="SVGID_9_" gradientUnits="userSpaceOnUse" x1="296.519" y1="77.4756" x2="314.9917" y2="77.4756">
						<stop  offset="0" style="stop-color:#CFD3E4"/>
						<stop  offset="0.0722" style="stop-color:#BBC0D7"/>
						<stop  offset="0.1511" style="stop-color:#AAB0CC"/>
						<stop  offset="0.3773" style="stop-color:#AAB0CC"/>
						<stop  offset="0.5001" style="stop-color:#B7BCD4"/>
						<stop  offset="0.7749" style="stop-color:#CFD3E4"/>
						<stop  offset="0.9821" style="stop-color:#CFD3E4"/>
						<stop  offset="1" style="stop-color:#CFD3E4"/>
					</linearGradient>
					<path fill="url(#SVGID_9_)" d="M314.992,75.407h-0.749c-0.453-0.613-1.108-1.189-1.977-1.69
						c-3.618-2.089-9.467-2.1-13.063-0.024c-0.877,0.506-1.535,1.091-1.982,1.714h-0.702v2.068h0.002
						c0.014,1.359,0.922,2.719,2.724,3.759c3.618,2.089,9.467,2.1,13.063,0.023c1.806-1.042,2.698-2.412,2.684-3.782h0.001V75.407z"
						/>
					<path fill="#C9CDE0" d="M312.307,79.19c-3.596,2.076-9.444,2.065-13.063-0.024s-3.637-5.465-0.041-7.542
						s9.444-2.065,13.063,0.023S315.903,77.114,312.307,79.19z"/>
					<path fill="#EFF0F5" d="M311.978,71.604c-3.516-2.029-9.197-2.04-12.689-0.023c-3.494,2.017-3.476,5.297,0.039,7.327
						c3.516,2.029,9.197,2.039,12.689,0.022C315.51,76.913,315.493,73.633,311.978,71.604z"/>
					<path fill="#CFD3E4" d="M311.057,71.995c-2.946-1.701-7.708-1.709-10.636-0.02c-2.928,1.69-2.913,4.439,0.033,6.141
						s7.708,1.71,10.636,0.02S314.002,73.696,311.057,71.995z"/>
					<path fill="#E1E3EE" d="M310.66,72.55c-2.726-1.573-7.131-1.581-9.839-0.018s-2.694,4.106,0.031,5.681
						c2.725,1.573,7.13,1.581,9.838,0.018C313.398,76.667,313.385,74.123,310.66,72.55z"/>
				</g>
			</g>
			<g>
				<path fill="#CFCECE" d="M305.78,77.373c-0.997,0-1.931-0.222-2.63-0.627c-0.656-0.379-1.015-0.863-1.015-1.367
					c0-0.499,0.353-0.977,0.997-1.351c0.527-0.303,1.192-0.504,1.919-0.577c0.11-0.012,0.222-0.023,0.338-0.029
					c0.113-0.006,0.228-0.009,0.344-0.009c0.123,0,0.248,0.003,0.368,0.012c0.107,0.006,0.215,0.014,0.32,0.026
					c0.731,0.076,1.405,0.28,1.941,0.589c0.653,0.376,1.016,0.863,1.016,1.368c0,0.498-0.354,0.977-0.998,1.347
					C307.693,77.154,306.768,77.373,305.78,77.373z"/>
				<path fill="#CFD3E4" d="M310.308,72.781c-0.811-0.47-1.778-0.788-2.808-0.957c-0.289-0.049-0.583-0.084-0.884-0.11
					c-0.502-0.041-1.012-0.047-1.52-0.018c-0.285,0.014-0.574,0.044-0.856,0.082c-1.126,0.152-2.19,0.481-3.067,0.986
					c-2.514,1.452-2.502,3.813,0.029,5.274c2.53,1.461,6.621,1.469,9.135,0.018C312.853,76.604,312.839,74.242,310.308,72.781z
					 M303.718,78.333c-0.79-0.169-1.513-0.435-2.122-0.788c-1.064-0.615-1.65-1.408-1.65-2.239c0-0.822,0.577-1.606,1.621-2.21
					c1.102-0.636,2.574-0.985,4.151-0.985c1.59,0,3.079,0.355,4.199,1c1.064,0.615,1.647,1.411,1.647,2.239
					c0,0.822-0.574,1.606-1.621,2.21c-0.688,0.396-1.522,0.683-2.435,0.843c-0.091,0.015-0.184,0.029-0.277,0.044
					c-0.146,0.021-0.295,0.038-0.446,0.052c-0.032,0.003-0.066,0.006-0.102,0.009c-0.076,0.009-0.152,0.012-0.228,0.015
					c-0.219,0.018-0.44,0.023-0.662,0.023c-0.595,0-1.178-0.05-1.732-0.146C303.946,78.379,303.833,78.358,303.718,78.333z
					 M309.947,73.883c-0.009-0.006-0.018-0.014-0.023-0.021c-0.204-0.201-0.455-0.388-0.752-0.56
					c-1.898-1.096-4.966-1.103-6.853-0.012c-0.283,0.163-0.521,0.341-0.718,0.53c-1.306,1.12-1.093,2.657,0.633,3.651
					c1.957,1.131,5.12,1.137,7.065,0.015C310.994,76.51,311.207,75.002,309.947,73.883z M304.94,77.699
					c-0.026,0-0.05-0.002-0.069-0.005c-0.108-0.012-0.213-0.026-0.321-0.043c-0.74-0.12-1.417-0.347-1.971-0.668
					c-0.799-0.461-1.239-1.053-1.239-1.668c0-0.609,0.432-1.192,1.219-1.645c0.84-0.486,1.965-0.752,3.169-0.752
					c1.213,0,2.354,0.271,3.208,0.764c0.796,0.461,1.236,1.053,1.236,1.668c0,0.606-0.432,1.192-1.216,1.645
					c-0.572,0.329-1.274,0.557-2.044,0.674c-0.094,0.012-0.189,0.023-0.286,0.031c-0.059,0.009-0.113,0.015-0.172,0.018
					c-0.219,0.021-0.443,0.029-0.668,0.029c-0.228,0-0.452-0.008-0.674-0.029C305.054,77.714,304.996,77.708,304.94,77.699z"/>
				<path fill="#D7D6D6" d="M305.78,77.373c-0.997,0-1.931-0.222-2.63-0.627c-0.656-0.379-1.015-0.863-1.015-1.367
					c0-0.499,0.353-0.977,0.997-1.351c0.527-0.303,1.192-0.504,1.919-0.577c0.11-0.012,0.222-0.023,0.338-0.029
					c0.113-0.006,0.228-0.009,0.344-0.009c0.123,0,0.248,0.003,0.368,0.012c0.107,0.006,0.215,0.014,0.32,0.026
					c0.731,0.076,1.405,0.28,1.941,0.589c0.653,0.376,1.016,0.863,1.016,1.368c0,0.498-0.354,0.977-0.998,1.347
					C307.693,77.154,306.768,77.373,305.78,77.373z"/>
				<path fill="#EFF0F5" d="M310.151,72.737c-0.767-0.44-1.683-0.747-2.65-0.913c-0.289-0.049-0.583-0.084-0.884-0.11
					c-0.502-0.041-1.012-0.047-1.52-0.018c-0.285,0.014-0.574,0.044-0.856,0.082c-1.064,0.152-2.073,0.466-2.904,0.945
					c-2.429,1.399-2.414,3.68,0.026,5.088c2.44,1.411,6.389,1.417,8.814,0.018C312.603,76.426,312.591,74.148,310.151,72.737z
					 M307.232,78.446c-0.146,0.021-0.295,0.038-0.446,0.052c-0.032,0.003-0.066,0.006-0.102,0.009
					c-0.076,0.009-0.152,0.012-0.228,0.015c-0.219,0.018-0.44,0.023-0.662,0.023c-0.595,0-1.178-0.05-1.732-0.146
					c-0.116-0.021-0.229-0.041-0.344-0.067c-0.79-0.169-1.513-0.435-2.122-0.788c-1.064-0.615-1.65-1.408-1.65-2.239
					c0-0.822,0.577-1.606,1.621-2.21c1.102-0.636,2.574-0.985,4.151-0.985c1.59,0,3.079,0.355,4.199,1
					c1.064,0.615,1.647,1.411,1.647,2.239c0,0.822-0.574,1.606-1.621,2.21c-0.688,0.396-1.522,0.683-2.435,0.843
					C307.418,78.417,307.326,78.432,307.232,78.446z M309.947,73.883c-0.009-0.006-0.018-0.014-0.023-0.021
					c-0.204-0.201-0.455-0.388-0.752-0.56c-1.898-1.096-4.966-1.103-6.853-0.012c-0.283,0.163-0.521,0.341-0.718,0.53
					c-1.306,1.12-1.093,2.657,0.633,3.651c1.957,1.131,5.12,1.137,7.065,0.015C310.994,76.51,311.207,75.002,309.947,73.883z
					 M304.94,77.699c-0.026,0-0.05-0.002-0.069-0.005c-0.108-0.012-0.213-0.026-0.321-0.043c-0.74-0.12-1.417-0.347-1.971-0.668
					c-0.799-0.461-1.239-1.053-1.239-1.668c0-0.609,0.432-1.192,1.219-1.645c0.84-0.486,1.965-0.752,3.169-0.752
					c1.213,0,2.354,0.271,3.208,0.764c0.796,0.461,1.236,1.053,1.236,1.668c0,0.606-0.432,1.192-1.216,1.645
					c-0.572,0.329-1.274,0.557-2.044,0.674c-0.094,0.012-0.189,0.023-0.286,0.031c-0.059,0.009-0.113,0.015-0.172,0.018
					c-0.219,0.021-0.443,0.029-0.668,0.029c-0.228,0-0.452-0.008-0.674-0.029C305.054,77.714,304.996,77.708,304.94,77.699z"/>
				<path fill="#CFCECE" d="M305.78,77.373c-0.997,0-1.931-0.222-2.63-0.627c-0.656-0.379-1.015-0.863-1.015-1.367
					c0-0.499,0.353-0.977,0.997-1.351c0.527-0.303,1.192-0.504,1.919-0.577c0.11-0.012,0.222-0.023,0.338-0.029
					c0.113-0.006,0.228-0.009,0.344-0.009c0.123,0,0.248,0.003,0.368,0.012c0.107,0.006,0.215,0.014,0.32,0.026
					c0.731,0.076,1.405,0.28,1.941,0.589c0.653,0.376,1.016,0.863,1.016,1.368c0,0.498-0.354,0.977-0.998,1.347
					C307.693,77.154,306.768,77.373,305.78,77.373z"/>
				<path fill="#CFD3E4" d="M309.988,73.023c-1.141-0.659-2.656-1.021-4.271-1.021c-1.602,0-3.098,0.358-4.217,1.003
					c-1.064,0.615-1.65,1.411-1.65,2.248c0,0.843,0.598,1.65,1.677,2.274c0.63,0.364,1.376,0.638,2.192,0.805
					c-0.79-0.169-1.513-0.435-2.122-0.788c-1.064-0.615-1.65-1.408-1.65-2.239c0-0.822,0.577-1.606,1.621-2.21
					c1.102-0.636,2.574-0.985,4.151-0.985c1.59,0,3.079,0.355,4.199,1c1.064,0.615,1.647,1.411,1.647,2.239
					c0,0.822-0.574,1.606-1.621,2.21c-0.688,0.396-1.522,0.683-2.435,0.843c0.938-0.157,1.799-0.449,2.504-0.857
					c1.062-0.615,1.647-1.411,1.647-2.248C311.661,74.455,311.066,73.647,309.988,73.023z M309.947,73.883
					c-0.009-0.006-0.018-0.014-0.023-0.021c-0.204-0.201-0.455-0.388-0.752-0.56c-1.898-1.096-4.966-1.103-6.853-0.012
					c-0.283,0.163-0.521,0.341-0.718,0.53c-1.306,1.12-1.093,2.657,0.633,3.651c1.957,1.131,5.12,1.137,7.065,0.015
					C310.994,76.51,311.207,75.002,309.947,73.883z M304.94,77.699c-0.026,0-0.05-0.002-0.069-0.005
					c-0.108-0.012-0.213-0.026-0.321-0.043c-0.74-0.12-1.417-0.347-1.971-0.668c-0.799-0.461-1.239-1.053-1.239-1.668
					c0-0.609,0.432-1.192,1.219-1.645c0.84-0.486,1.965-0.752,3.169-0.752c1.213,0,2.354,0.271,3.208,0.764
					c0.796,0.461,1.236,1.053,1.236,1.668c0,0.606-0.432,1.192-1.216,1.645c-0.572,0.329-1.274,0.557-2.044,0.674
					c-0.094,0.012-0.189,0.023-0.286,0.031c-0.059,0.009-0.113,0.015-0.172,0.018c-0.219,0.021-0.443,0.029-0.668,0.029
					c-0.228,0-0.452-0.008-0.674-0.029C305.054,77.714,304.996,77.708,304.94,77.699z"/>
				<path fill="#C9C8C8" d="M305.78,77.373c-0.997,0-1.931-0.222-2.63-0.627c-0.656-0.379-1.015-0.863-1.015-1.367
					c0-0.499,0.353-0.977,0.997-1.351c0.527-0.303,1.192-0.504,1.919-0.577c0.11-0.012,0.222-0.023,0.338-0.029
					c0.113-0.006,0.228-0.009,0.344-0.009c0.123,0,0.248,0.003,0.368,0.012c0.107,0.006,0.215,0.014,0.32,0.026
					c0.731,0.076,1.405,0.28,1.941,0.589c0.653,0.376,1.016,0.863,1.016,1.368c0,0.498-0.354,0.977-0.998,1.347
					C307.693,77.154,306.768,77.373,305.78,77.373z"/>
				<path fill="#C9C8C8" d="M309.947,73.883c-0.009-0.006-0.018-0.014-0.023-0.021c-0.204-0.201-0.455-0.388-0.752-0.56
					c-1.898-1.096-4.966-1.103-6.853-0.012c-0.283,0.163-0.521,0.341-0.718,0.53c-1.306,1.12-1.093,2.657,0.633,3.651
					c1.957,1.131,5.12,1.137,7.065,0.015C310.994,76.51,311.207,75.002,309.947,73.883z M304.94,77.699
					c-0.026,0-0.05-0.002-0.069-0.005c-0.108-0.012-0.213-0.026-0.321-0.043c-0.74-0.12-1.417-0.347-1.971-0.668
					c-0.799-0.461-1.239-1.053-1.239-1.668c0-0.609,0.432-1.192,1.219-1.645c0.84-0.486,1.965-0.752,3.169-0.752
					c1.213,0,2.354,0.271,3.208,0.764c0.796,0.461,1.236,1.053,1.236,1.668c0,0.606-0.432,1.192-1.216,1.645
					c-0.572,0.329-1.274,0.557-2.044,0.674c-0.094,0.012-0.189,0.023-0.286,0.031c-0.059,0.009-0.113,0.015-0.172,0.018
					c-0.219,0.021-0.443,0.029-0.668,0.029c-0.228,0-0.452-0.008-0.674-0.029C305.054,77.714,304.996,77.708,304.94,77.699z"/>
				<path fill="#CFCECE" d="M308.38,76.755c-0.688,0.399-1.612,0.618-2.601,0.618c-0.997,0-1.931-0.222-2.63-0.627
					c-0.656-0.379-1.015-0.863-1.015-1.367c0-0.499,0.353-0.977,0.997-1.351c0.527-0.303,1.192-0.504,1.919-0.577
					c0.11-0.012,0.222-0.023,0.338-0.029c0.113-0.006,0.228-0.009,0.344-0.009c0.123,0,0.248,0.003,0.368,0.012
					c0.107,0.006,0.215,0.014,0.32,0.026c0.731,0.076,1.405,0.28,1.941,0.589c0.653,0.376,1.016,0.863,1.016,1.368
					C309.378,75.906,309.025,76.385,308.38,76.755z"/>
				<path fill="#CFD3E4" d="M309.947,73.883c-0.009-0.006-0.018-0.014-0.023-0.021c-0.184-0.163-0.399-0.314-0.645-0.457
					c-1.959-1.129-5.123-1.135-7.068-0.012c-0.229,0.134-0.434,0.277-0.609,0.428c-1.306,1.12-1.093,2.657,0.633,3.651
					c1.957,1.131,5.12,1.137,7.065,0.015C310.994,76.51,311.207,75.002,309.947,73.883z M304.94,77.699
					c-0.026,0-0.05-0.002-0.069-0.005c-0.108-0.012-0.213-0.026-0.321-0.043c-0.74-0.12-1.417-0.347-1.971-0.668
					c-0.799-0.461-1.239-1.053-1.239-1.668c0-0.609,0.432-1.192,1.219-1.645c0.84-0.486,1.965-0.752,3.169-0.752
					c1.213,0,2.354,0.271,3.208,0.764c0.796,0.461,1.236,1.053,1.236,1.668c0,0.606-0.432,1.192-1.216,1.645
					c-0.572,0.329-1.274,0.557-2.044,0.674c-0.094,0.012-0.189,0.023-0.286,0.031c-0.059,0.009-0.113,0.015-0.172,0.018
					c-0.219,0.021-0.443,0.029-0.668,0.029c-0.228,0-0.452-0.008-0.674-0.029C305.054,77.714,304.996,77.708,304.94,77.699z"/>
				<path fill="#D7D6D6" d="M308.38,76.755c-0.688,0.399-1.612,0.618-2.601,0.618c-0.997,0-1.931-0.222-2.63-0.627
					c-0.656-0.379-1.015-0.863-1.015-1.367c0-0.499,0.353-0.977,0.997-1.351c0.527-0.303,1.192-0.504,1.919-0.577
					c0.11-0.012,0.222-0.023,0.338-0.029c0.113-0.006,0.228-0.009,0.344-0.009c0.123,0,0.248,0.003,0.368,0.012
					c0.107,0.006,0.215,0.014,0.32,0.026c0.731,0.076,1.405,0.28,1.941,0.589c0.653,0.376,1.016,0.863,1.016,1.368
					C309.378,75.906,309.025,76.385,308.38,76.755z"/>
				<path fill="#EFF0F5" d="M309.947,73.883c-0.009-0.006-0.018-0.014-0.023-0.021c-0.204-0.201-0.455-0.388-0.752-0.56
					c-1.898-1.096-4.966-1.103-6.853-0.012c-0.283,0.163-0.521,0.341-0.718,0.53c-1.125,1.07-0.877,2.493,0.738,3.426
					c1.898,1.097,4.969,1.102,6.854,0.012C310.775,76.347,311.022,74.956,309.947,73.883z M306.625,77.699
					c-0.059,0.009-0.113,0.015-0.172,0.018c-0.219,0.021-0.443,0.029-0.668,0.029c-0.228,0-0.452-0.008-0.674-0.029
					c-0.058-0.003-0.116-0.009-0.172-0.018c-0.026,0-0.05-0.002-0.069-0.005c-0.108-0.012-0.213-0.026-0.321-0.043
					c-0.74-0.12-1.417-0.347-1.971-0.668c-0.799-0.461-1.239-1.053-1.239-1.668c0-0.609,0.432-1.192,1.219-1.645
					c0.84-0.486,1.965-0.752,3.169-0.752c1.213,0,2.354,0.271,3.208,0.764c0.796,0.461,1.236,1.053,1.236,1.668
					c0,0.606-0.432,1.192-1.216,1.645c-0.572,0.329-1.274,0.557-2.044,0.674C306.818,77.68,306.722,77.691,306.625,77.699z"/>
				<path fill="#CFCECE" d="M308.38,76.755c-0.688,0.399-1.612,0.618-2.601,0.618c-0.997,0-1.931-0.222-2.63-0.627
					c-0.656-0.379-1.015-0.863-1.015-1.367c0-0.499,0.353-0.977,0.997-1.351c0.527-0.303,1.192-0.504,1.919-0.577
					c0.11-0.012,0.222-0.023,0.338-0.029c0.113-0.006,0.228-0.009,0.344-0.009c0.123,0,0.248,0.003,0.368,0.012
					c0.107,0.006,0.215,0.014,0.32,0.026c0.731,0.076,1.405,0.28,1.941,0.589c0.653,0.376,1.016,0.863,1.016,1.368
					C309.378,75.906,309.025,76.385,308.38,76.755z"/>
				<path fill="#CFD3E4" d="M310.273,75.291c0,0.624-0.44,1.222-1.242,1.686c-0.592,0.341-1.32,0.577-2.119,0.691
					c0.77-0.117,1.472-0.345,2.044-0.674c0.784-0.452,1.216-1.038,1.216-1.645c0-0.615-0.44-1.207-1.236-1.668
					c-0.854-0.493-1.995-0.764-3.208-0.764c-1.204,0-2.329,0.266-3.169,0.752c-0.787,0.452-1.219,1.035-1.219,1.645
					c0,0.615,0.44,1.207,1.239,1.668c0.633,0.367,1.426,0.609,2.292,0.711c-0.893-0.099-1.712-0.35-2.368-0.729
					c-0.816-0.473-1.266-1.079-1.266-1.709c0-0.621,0.443-1.218,1.245-1.682c0.86-0.496,2.012-0.77,3.242-0.77
					c1.245,0,2.412,0.277,3.283,0.781C309.824,74.058,310.273,74.665,310.273,75.291z"/>
				<path fill="#C9C8C8" d="M309.378,75.408c0,0.498-0.354,0.977-0.998,1.347c-0.688,0.399-1.612,0.618-2.601,0.618
					c-0.997,0-1.931-0.222-2.63-0.627c-0.656-0.379-1.015-0.863-1.015-1.367c0-0.499,0.353-0.977,0.997-1.351
					c0.527-0.303,1.192-0.504,1.919-0.577c0.11-0.012,0.222-0.023,0.338-0.029c0.113-0.006,0.228-0.009,0.344-0.009
					c0.123,0,0.248,0.003,0.368,0.012c0.107,0.006,0.215,0.014,0.32,0.026c0.731,0.076,1.405,0.28,1.941,0.589
					C309.016,74.417,309.378,74.903,309.378,75.408z"/>
				<path fill="#CFD3E4" d="M309.378,75.408c0,0.498-0.354,0.977-0.998,1.347c-0.688,0.399-1.612,0.618-2.601,0.618
					c-0.997,0-1.931-0.222-2.63-0.627c-0.656-0.379-1.015-0.863-1.015-1.367c0-0.499,0.353-0.977,0.997-1.351
					c0.527-0.303,1.192-0.504,1.919-0.577c0.11-0.012,0.222-0.023,0.338-0.029c0.113-0.006,0.228-0.009,0.344-0.009
					c0.123,0,0.248,0.003,0.368,0.012c0.107,0.006,0.215,0.014,0.32,0.026c0.731,0.076,1.405,0.28,1.941,0.589
					C309.016,74.417,309.378,74.903,309.378,75.408z"/>
				<path fill="#EFF0F5" d="M309.162,75.289c0,0.469-0.332,0.918-0.938,1.268c-0.647,0.376-1.517,0.58-2.443,0.58
					c-0.938,0-1.816-0.21-2.476-0.589c-0.615-0.355-0.956-0.813-0.956-1.286c0-0.47,0.335-0.921,0.938-1.269
					c0.487-0.283,1.097-0.466,1.765-0.542c0.11-0.012,0.222-0.023,0.338-0.029c0.113-0.006,0.228-0.009,0.344-0.009
					c0.123,0,0.248,0.003,0.368,0.012c0.107,0.006,0.215,0.014,0.32,0.026c0.674,0.076,1.295,0.266,1.787,0.551
					C308.824,74.358,309.162,74.813,309.162,75.289z"/>
			</g>
			<g>
				<path fill="#CCC9CD" d="M307.136,76.111c0,0,0.17-0.055,0.018-0.34c-0.109-0.206-0.292-0.172-0.292-0.172l-0.392,0.047
					c-0.527,0.05-0.927,0.09-1.453-0.237l-1.064-0.664c-0.18-0.112,0.564-0.123,0.564-0.123c0.086,0,0.184-0.024,0.013-0.344
					c-0.12-0.224-0.204-0.169-0.287-0.169c-0.253,0-1.837,0.268-1.396,0.543l1.265,0.787c0.577,0.36,1.321,0.784,2.064,0.788
					C306.445,76.229,307.136,76.111,307.136,76.111z"/>
			</g>
			<g>
				<path fill="#C4C8D8" d="M307.333,75.936c0,0,0.032,0.176-0.292,0.176c-0.233,0-0.29-0.176-0.29-0.176v-0.468
					c0-0.413-0.293-0.918-0.652-1.125l-0.833-0.481c-0.36-0.208-0.507-0.186-0.507,0.228v0.362c0,0,0.065,0.173-0.297,0.173
					c-0.254,0-0.284-0.173-0.284-0.173v-0.343c0-0.863,0.635-1.092,1.234-0.745l0.833,0.481c0.6,0.346,1.088,0.794,1.088,1.876
					V75.936z"/>
			</g>
		</g>
		<g>
			<path fill="#B9D3E1" d="M320.287,72.798c0,0-0.471-0.477-0.89-0.1c-0.418,0.377-1.586,2.876-1.903,3.288
				c-0.316,0.413-1.761,1.698-2.07,2.174c-0.309,0.476-0.293,0.793-0.293,0.793s-1.793,0.92-1.92,1.063s-0.206,0.476,0.476,1.618
				c0.683,1.143,1.095,1.158,1.365,0.984c0.27-0.174,1.157-1.031,1.475-1.095c0.317-0.063,0.937,0.159,1.317-0.079
				c0.381-0.238,0.873-0.838,1.443-1.188c0.571-0.351,2.333-2.873,2.65-3.587c0.316-0.714,0.848-2.792,0.955-3.475
				C323,72.512,323.047,71.274,320.287,72.798z"/>
			<g>
				<path fill="#E1E3EE" d="M313.73,84.288h-0.65c0-0.65,0.212-1.217,0.399-1.717c0.114-0.306,0.224-0.595,0.277-0.879
					c-0.033,0.019-0.064,0.04-0.089,0.058l-0.391-0.521c0.164-0.123,0.581-0.382,0.904-0.184c0.211,0.13,0.284,0.381,0.219,0.744
					c-0.063,0.348-0.189,0.685-0.312,1.01C313.913,83.271,313.73,83.756,313.73,84.288z"/>
			</g>
			<path fill="#FFCC54" d="M315.003,82.531c-0.009,0.167-0.413,0.919-0.5,1.079c-0.088,0.158-0.294,0.587-0.794,0.516
				c-0.431-0.063-0.501-0.166-0.625-0.202c-0.019-0.008-0.04-0.012-0.064-0.014c-0.036-0.004-0.106-0.013-0.194-0.026h-0.002
				c-0.331-0.054-0.926-0.171-1.049-0.259c-0.068-0.047-0.108-0.095-0.13-0.131c0,0,0,0-0.002-0.002
				c-0.028-0.047-0.028-0.08-0.028-0.08s-0.044-0.01-0.106-0.031c-0.126-0.04-0.329-0.118-0.407-0.225
				c-0.008-0.01-0.016-0.021-0.023-0.032v-0.002c-0.089-0.15-0.034-0.329-0.034-0.329s-0.181,0.103-0.411,0.11
				c-0.183,0.006-0.295-0.014-0.367-0.11c-0.02-0.025-0.034-0.058-0.048-0.094c-0.064-0.181,0.305-0.47,0.305-0.47
				s0.118-0.253,0.213-0.389c0.096-0.135,0.785-0.904,0.968-1.072c0.183-0.165,1.508-0.754,1.713-0.696
				c0.208,0.055,0.477,0.301,0.477,0.301C314.939,81.246,315.011,82.365,315.003,82.531z"/>
			<path fill="#DEA954" d="M312.437,81.787c-0.061,0.196,0.07,0.338-0.072,0.362c-0.143,0.024-0.339,0.03-0.535,0.064
				c-0.195,0.036-0.369,0.215-0.56,0.423c-0.19,0.209-0.213,0.251-0.192,0.487c-0.089-0.15-0.034-0.329-0.034-0.329
				s-0.181,0.103-0.411,0.11c-0.183,0.006-0.295-0.014-0.367-0.11c0.16,0.089,0.399,0.064,0.588-0.033
				c0.21-0.107,0.263-0.297,0.437-0.434c0.171-0.137,0.529-0.405,0.672-0.571c0.143-0.167,0.177-0.219,0.267-0.327
				s0.379-0.221,0.379-0.221C312.633,81.303,312.497,81.589,312.437,81.787z"/>
			<path fill="#DEA954" d="M311.645,83.495c0,0,0,0-0.002-0.002c-0.028-0.047-0.028-0.08-0.028-0.08s-0.044-0.01-0.106-0.031
				c0,0,0.002,0,0.004,0c0.122,0.008,1.095-0.228,1.095-0.228C312.687,83.344,311.645,83.495,311.645,83.495z"/>
			<path fill="#DEA954" d="M313.275,83.845l-0.19,0.08c-0.019-0.008-0.04-0.012-0.064-0.014c-0.036-0.004-0.106-0.013-0.194-0.026
				L313.275,83.845z"/>
		</g>
	</g>
	<g>
		<path fill="#E1E3EE" d="M309.096,85.23c-0.148-0.167-0.075-0.615-0.065-0.808c0.013-0.265,0.045-0.53,0.107-0.789
			c0.078-0.324,0.201-0.7,0.459-0.927c0.383-0.336,0.83-0.592,1.297-0.791c0.272-0.116,0.554-0.212,0.838-0.293
			c0.151-0.043,0.304-0.082,0.458-0.116c0.04-0.009,0.141-0.061,0.176-0.025c0.031,0.031-0.021,0.211-0.027,0.252
			c-0.039,0.281-0.278,0.471-0.541,0.548c-0.233,0.069-0.464,0.153-0.688,0.25c-0.389,0.168-0.764,0.383-1.083,0.664
			c-0.204,0.181-0.264,0.57-0.304,0.82c-0.044,0.274-0.056,0.554-0.046,0.831c0.005,0.154,0.021,0.25-0.106,0.358
			c-0.086,0.072-0.201,0.113-0.314,0.1c-0.05-0.005-0.099-0.021-0.138-0.053C309.111,85.245,309.103,85.238,309.096,85.23z"/>
	</g>
</g>
</svg>
