<?xml version="1.0" encoding="utf-8"?>
<!-- Generator: Adobe Illustrator 16.0.0, SVG Export Plug-In . SVG Version: 6.00 Build 0)  -->
<!DOCTYPE svg PUBLIC "-//W3C//DTD SVG 1.1//EN" "http://www.w3.org/Graphics/SVG/1.1/DTD/svg11.dtd">
<svg version="1.1" id="Layer_1" xmlns="http://www.w3.org/2000/svg" xmlns:xlink="http://www.w3.org/1999/xlink" x="0px" y="0px"
	 width="463.683px" height="425.749px" viewBox="0 0 463.683 425.749" enable-background="new 0 0 463.683 425.749"
	 xml:space="preserve">
<g>
	<path fill="#BDD6F2" d="M324.171,124.049c4.319,2.749,11.524,3.046,16.093,0.665c4.569-2.381,4.771-6.54,0.451-9.289
		s-11.524-3.047-16.093-0.666C320.054,117.142,319.852,121.3,324.171,124.049z"/>
	<g>
		<g>
			<path fill="#6C6B79" d="M326.183,118.552c0,0-0.215,0.11-0.227,0.27c-0.012,0.161-0.018,0.603-0.017,0.707
				c0.001,0.104,0.274,0.508,0.945,0.664c0.67,0.156,2.3-0.275,2.85-0.596c0.549-0.321,1.298-1.137,1.526-1.199
				c0.228-0.062,0.907,0.064,0.907,0.064l0.614-0.051l1.01-0.358c0,0,0.132-0.678-0.145-0.891
				C333.371,116.948,326.183,118.552,326.183,118.552z"/>
			<path fill="#C2D2EA" d="M329.983,115.802c0,0-0.798,0.506-0.94,0.648c-0.142,0.143-1.584,0.728-2.083,1.033
				c-0.5,0.305-0.877,0.827-0.909,0.998c-0.033,0.171-0.109,0.562-0.052,0.725c0.059,0.163,0.319,0.599,1.183,0.652
				c0.863,0.054,2.62-0.767,2.62-0.767s1.216-0.83,1.396-0.915c0.18-0.085,1.768-0.486,2.01-0.566
				c0.241-0.08,0.381-0.115,0.416-0.309c0.035-0.194,0.239-1.255,0.111-1.59S330.688,114.942,329.983,115.802z"/>
		</g>
		<g>
			<path fill="#6C6B79" d="M331.925,121.245c0,0-0.236,0.004-0.293,0.319c-0.057,0.314-0.049,0.688-0.049,0.688
				s0.295,0.45,1.282,0.575c0.988,0.125,2.197-0.241,2.817-0.592c0.619-0.351,0.842-0.636,1.216-1.155
				c0.374-0.519,0.76-0.767,0.76-0.767l0.158,0.042c0,0,0.886-0.644,1.031-0.867c0.075-0.187,0.131-1.14-0.005-1.226
				C338.707,118.176,331.925,121.245,331.925,121.245z"/>
			<path fill="#C2D2EA" d="M334.635,117.688l-0.274,0.656c0,0-1.615,1.569-2.054,2.036c-0.438,0.467-0.663,0.877-0.683,1.302
				s1.082,0.699,1.248,0.71c0.165,0.012,0.897,0.084,1.835-0.266c0.938-0.35,1.325-0.686,2.078-1.505s1.263-1.271,1.493-1.457
				c0.231-0.187,0.567-0.485,0.563-0.728c-0.003-0.243,0.034-0.922-0.164-1.007S335.267,117.084,334.635,117.688z"/>
		</g>
		<path fill="#4F5997" d="M333.493,115.193c0,0-0.216,0.402-0.72,0.624c-0.515,0.228-1.325,0.265-2.511-0.505
			c0,0-0.281-14.772-1.102-19.103l3.532,6.23l1.481,0.053l0.003,0.001c0,0,0.611,4.75,0.244,7.245
			C334.051,112.232,333.493,115.193,333.493,115.193z"/>
		<path fill="#4F5997" d="M334.242,102.328c-0.018,0.057-0.039,0.111-0.064,0.165l-0.003-0.001
			c-0.218,0.463-0.693,0.738-1.239,0.859c-1.08,0.24-2.437-0.125-2.671-0.847c-0.016-0.044-0.03-0.098-0.049-0.156
			c-0.427-1.416-1.333-7.373-1.905-11.801c-0.595-4.615,0.556-6.817,0.556-6.817l5.635,1.023c0,0,0.048,2.72,0.066,5.981
			C334.59,95.203,334.528,101.427,334.242,102.328z"/>
		<path fill="#A8B0C2" d="M333.493,115.193c0,0-0.216,0.402-0.72,0.624c0.38-2.471,0.997-6.694,0.893-7.564
			c-0.066-0.584-0.214-3.444-0.373-4.82c-1.08-9.346-0.952-12.246-0.952-12.246l-1.202-1.832l3.429,1.379
			c0.023,4.469-0.039,10.693-0.325,11.594c-0.018,0.057-0.039,0.111-0.064,0.165c0,0,0.611,4.75,0.244,7.245
			C334.051,112.232,333.493,115.193,333.493,115.193z"/>
		<path fill="#4F5997" d="M331.018,86.657l-0.787,0.923c0,0-0.069,1.14,2.449,3.034c0.015,2.672,1.005,11.211,1.834,13.246
			c0.83,2.035,3.396,0.455,3.83-1.91c0.435-2.364,2.365-9.778,2.531-11.602s0.345-4.664-0.919-5.739
			C338.694,83.535,331.018,86.657,331.018,86.657z"/>
		<path fill="#4F5997" d="M335.083,117.354c0.473-1.655,0.107-10.871-0.569-13.494c3.487-2.029,3.933-2.423,3.933-2.423
			s1.272,6.75,1.223,8.09c-0.049,1.339-1.127,7.874-1.127,7.874S336.791,119.072,335.083,117.354z"/>
		<g>
			<path fill="#8C92B0" d="M337.778,118.303l-0.247-0.055c0.012-0.053,1.174-5.328,1.184-7.978c0.009-2.032-0.489-4.543-0.854-6.376
				c-0.169-0.854-0.303-1.528-0.334-1.91c-0.032-0.376,0.23-1.504,0.593-3.064c0.804-3.46,2.019-8.69,1.155-10.567l0.229-0.106
				c0.9,1.956-0.326,7.236-1.138,10.73c-0.345,1.48-0.616,2.649-0.588,2.986c0.03,0.367,0.163,1.035,0.331,1.882
				c0.366,1.843,0.867,4.368,0.858,6.426C338.958,112.949,337.79,118.249,337.778,118.303z"/>
		</g>
	</g>
	<g>
		<path fill="#6A3646" d="M336.381,55.188c0,0,1.302-0.948,2.6-0.005c1.082,0.787,1.364,2.829,0.452,5.111
			c-0.582,1.457-0.062,4.277,1.61,4.572c-1.001,0.999-3.657,0.424-4.226-1.069C336.249,62.303,336.381,55.188,336.381,55.188z"/>
		<g>
			<path fill="#FEBFBF" d="M331.488,64.243c0,0-1.605,0.007-2.084,1.083c-0.479,1.076-1.691,8.114-2.379,9.699
				c-0.688,1.585,1.702,2.398,2.302,1.514C329.925,75.655,331.488,64.243,331.488,64.243z"/>
			<path fill="#FEBFBF" d="M328.034,74.964c0,0-0.438-0.888-0.911-0.622C326.021,74.96,321,76.44,321,76.44s-0.596,1.448,0.06,2.092
				c0.245,0.061,7.483-0.629,7.756-1.656C329.089,75.85,328.034,74.964,328.034,74.964z"/>
			<path fill="#FEBFBF" d="M321.248,78.532c0,0-0.427,0.146-0.589,0.194c-0.162,0.048-0.334,0.104-0.334,0.104l-0.628,0.222
				c0,0-1.993-0.598-2.173-0.74s-0.521-0.526-0.521-0.526l0.206-1.415c0,0,1.228-0.287,1.359-0.307
				c0.131-0.02,2.433,0.376,2.433,0.376S321.508,78.068,321.248,78.532z"/>
			<g>
				<path fill="#C4C8D8" d="M320.199,78.847c-0.055-0.487-0.124-0.7-0.18-1.188c-0.018-0.113-0.202-0.291-0.424-0.388
					c-1.953-0.873-3.17-1.416-5.118-2.286c-0.138-0.063-0.169-0.363-0.234-0.34c-0.022,0.009-0.122,0.307-0.133,0.323
					c-0.008,0.014-0.011,0.029-0.01,0.047c0.056,0.487,0.111,0.976,0.166,1.462c0.001,0.002,0.001,0.003,0.001,0.004
					c0.013,0.112,0.213,0.288,0.424,0.384c1.948,0.87,3.164,1.413,5.117,2.286c0.164,0.071,0.309,0.083,0.359,0.032l0.129-0.321
					C320.296,78.863,320.199,78.848,320.199,78.847z"/>
				<path fill="#F5F5F5" d="M314.314,74.766c-0.011-0.096,0.134-0.107,0.316-0.025c1.929,0.861,3.125,1.396,5.059,2.259
					c0.183,0.082,0.346,0.23,0.355,0.326c0.055,0.479,0.109,0.958,0.164,1.437c0.011,0.095-0.134,0.107-0.316,0.026
					c-1.934-0.863-3.13-1.398-5.059-2.26c-0.183-0.081-0.346-0.23-0.356-0.326C314.423,75.724,314.369,75.245,314.314,74.766
					L314.314,74.766z M320.304,78.821c0-0.001,0-0.003,0-0.004c-0.056-0.487-0.111-0.976-0.167-1.462
					c-0.018-0.113-0.202-0.292-0.424-0.389c-1.953-0.873-3.17-1.416-5.118-2.286c-0.223-0.102-0.385-0.079-0.377,0.031
					c0.056,0.486,0.111,0.976,0.166,1.462c0.001,0.001,0.001,0.003,0.001,0.004c0.013,0.112,0.214,0.288,0.424,0.385
					c1.948,0.87,3.165,1.413,5.118,2.285C320.136,78.939,320.317,78.934,320.304,78.821L320.304,78.821z"/>
				<path fill="#7C78F0" d="M314.613,75.413l0.028-0.002l0.026,0.027c0.014,0.119,0.026,0.235,0.04,0.354l-0.022,0.004l-0.032-0.028
					C314.639,75.648,314.626,75.532,314.613,75.413L314.613,75.413z M314.638,75.839l0.051-0.004l0.058,0.053l-0.051,0.004
					L314.638,75.839L314.638,75.839z M314.63,75.939l0.069-0.009l0.079,0.075l-0.069,0.006L314.63,75.939L314.63,75.939z
					 M320.208,78.762c-0.055-0.479-0.109-0.958-0.164-1.437c-0.01-0.096-0.173-0.244-0.355-0.326
					c-1.934-0.863-3.13-1.397-5.059-2.259c-0.183-0.082-0.327-0.07-0.316,0.025c0.055,0.479,0.109,0.958,0.163,1.437
					c0.011,0.096,0.174,0.245,0.356,0.326c1.929,0.861,3.125,1.396,5.059,2.26C320.075,78.87,320.219,78.857,320.208,78.762
					L320.208,78.762z"/>
				<path fill="#2A2A2C" d="M314.708,75.792c-0.014-0.119-0.026-0.236-0.04-0.354l-0.026-0.027l-0.028,0.002
					c0.014,0.119,0.026,0.235,0.04,0.354l0.032,0.028L314.708,75.792L314.708,75.792z"/>
				<path fill="#838383" d="M314.655,75.95l0.047-0.004l0.047,0.046l-0.041,0.004L314.655,75.95L314.655,75.95z M314.779,76.005
					l-0.079-0.075l-0.069,0.009l0.079,0.072L314.779,76.005L314.779,76.005z"/>
				<polygon fill="#516F83" points="314.749,75.992 314.702,75.946 314.655,75.95 314.708,75.996 314.749,75.992 				"/>
				<polygon fill="#2A2A2C" points="314.747,75.888 314.689,75.835 314.638,75.839 314.696,75.892 314.747,75.888 				"/>
			</g>
			<path fill="#E6F1FF" d="M329.215,70.354c0,0-0.98-0.849-1.141-1.15c-0.16-0.301-0.284-0.758-0.284-0.758s1.355-2.794,1.483-3.151
				c0.522-1.454,1.722-1.207,2.652-1.453C332.856,63.595,329.215,70.354,329.215,70.354z"/>
			
				<linearGradient id="SVGID_1_" gradientUnits="userSpaceOnUse" x1="844.2271" y1="123.9561" x2="843.1764" y2="122.3801" gradientTransform="matrix(0.9999 0.0136 -0.0136 0.9999 -522.6223 -57.8325)">
				<stop  offset="0.1224" style="stop-color:#FEB9B8"/>
				<stop  offset="1" style="stop-color:#FFDEDE"/>
			</linearGradient>
			<path fill="url(#SVGID_1_)" d="M321,76.44l-0.272-0.048c0,0-1.008-0.578-1.172-0.615s-0.414-0.116-0.414-0.116l-1.201,0.523
				l-0.146,0.443c0,0-0.209,0.365-0.221,0.431s0.425,0.254,0.577,0.067c0.152-0.186,0.327-0.454,0.327-0.454l0.743-0.202
				c0,0-0.002,0.451,0.42,0.765c0.423,0.313,1.091,0.448,1.329,0.208C321.208,77.202,321.25,76.724,321,76.44z"/>
			
				<linearGradient id="SVGID_2_" gradientUnits="userSpaceOnUse" x1="842.4517" y1="125.499" x2="842.8398" y2="124.6933" gradientTransform="matrix(0.9999 0.0136 -0.0136 0.9999 -522.6223 -57.8325)">
				<stop  offset="0.1224" style="stop-color:#FEB9B8"/>
				<stop  offset="1" style="stop-color:#FFDEDE"/>
			</linearGradient>
			<path fill="url(#SVGID_2_)" d="M318.245,78.532c0,0-0.108-0.352-0.198-0.427c-0.089-0.076-0.669-0.199-0.669-0.199l-0.314-0.127
				l-0.087,0.035l0.121,0.405l0.4,0.267l0.232,0.378l0.558,0.077c0,0,0.249,0.261,0.419,0.308c0.172,0.047,0.995-0.222,1.07-0.289
				c0.076-0.068,0.193-0.197,0.111-0.339c-0.082-0.143-0.322-0.086-0.322-0.086l-0.372,0.13c0,0,0.024-0.188-0.081-0.266
				s-0.263-0.06-0.263-0.06L318.245,78.532z"/>
			
				<linearGradient id="SVGID_3_" gradientUnits="userSpaceOnUse" x1="841.9038" y1="125.0195" x2="842.7378" y2="125.0195" gradientTransform="matrix(0.9999 0.0136 -0.0136 0.9999 -522.6223 -57.8325)">
				<stop  offset="0.1224" style="stop-color:#FCA4B5"/>
				<stop  offset="0.9896" style="stop-color:#FFADB7"/>
			</linearGradient>
			<path fill="url(#SVGID_3_)" d="M318.245,78.532c0,0-0.045,0.111-0.176,0.127s-0.571-0.173-0.571-0.173l0.056,0.09
				c0,0,0.471,0.192,0.534,0.193c0.064,0,0.244-0.222,0.244-0.222L318.245,78.532z"/>
			
				<linearGradient id="SVGID_4_" gradientUnits="userSpaceOnUse" x1="842.7349" y1="125.1494" x2="844.0093" y2="125.1494" gradientTransform="matrix(0.9999 0.0136 -0.0136 0.9999 -522.6223 -57.8325)">
				<stop  offset="0.1224" style="stop-color:#FCA4B5"/>
				<stop  offset="0.9896" style="stop-color:#FFADB7"/>
			</linearGradient>
			<path fill="url(#SVGID_4_)" d="M319.181,78.697l-0.228,0.126l-0.631,0.153l0.047,0.044l0.698-0.162c0,0,0.51-0.199,0.536-0.331
				c-0.082,0.021-0.41,0.137-0.41,0.137L319.181,78.697z"/>
		</g>
		<path fill="#DDE8F6" d="M340.123,85.67c0,0-2.083,1.614-6.187,0.96c-4.024-0.641-4.983-1.469-5.079-2.381
			c1.021-5.004,0.766-6.293,0.35-8.369c-0.713-2.399-0.676-3.232-0.648-3.894c0.026-0.661,0.706-2.101,1.24-4.118
			c0.533-2.018,1.183-3.577,1.501-3.789c0.319-0.213,1.172-0.016,3.548,0.082c2.375,0.097,2.714-0.444,3.896,0.403
			c1.182,0.848,2.315,1.897,2.797,2.506c0.481,0.609,0.835,1.531,0.896,1.989c0.06,0.458-1.888,5.744-1.976,8.765
			C340.373,80.845,340.123,85.67,340.123,85.67z"/>
		<path fill="#DDE8F6" d="M338.166,71.719c0,0-0.093,1.147-0.152,1.58c-0.059,0.434-0.111,0.731-0.111,0.731
			s0.278,0.474,0.437,0.912c0.159,0.439,0.073,5.797-0.05,6.594s-1.188,5.907-1.188,5.907l0.973-0.091l2.156-7.932L338.166,71.719z"
			/>
		<path fill="#FEBFBF" d="M339.131,64.999c0,0-0.677-0.629-0.774-0.679c-0.099-0.05-0.438-0.387-1.496-0.573
			c-1.06-0.186-2.209-0.149-3.196,0.906s-0.987,1.055-0.987,1.055s-0.463,1.369-0.397,1.772c0.065,0.404,0.309,1.061,1.631,1.208
			c1.321,0.147,3.056-1.663,3.852-2.309C338.558,65.734,339.276,65.536,339.131,64.999z"/>
		
			<linearGradient id="SVGID_5_" gradientUnits="userSpaceOnUse" x1="862.6987" y1="110.2744" x2="857.9311" y2="108.3479" gradientTransform="matrix(0.9999 0.0136 -0.0136 0.9999 -522.6223 -57.8325)">
			<stop  offset="0.1224" style="stop-color:#FEC7C7"/>
			<stop  offset="0.9694" style="stop-color:#FFADB7"/>
		</linearGradient>
		<path fill="url(#SVGID_5_)" d="M333.229,62.955c0,0,0.476,1.734,0.347,2.466c-0.128,0.732-0.494,1.065-0.397,1.171
			s2.027,0.843,2.931,0.579c0.904-0.264,2.677-2.05,2.425-2.44c-0.251-0.39-0.177-0.412-0.177-0.412s-0.789-0.717-0.956-1.22
			c-0.168-0.503-0.654-4.286-0.668-4.353C336.719,58.681,333.229,62.955,333.229,62.955z"/>
		
			<linearGradient id="SVGID_6_" gradientUnits="userSpaceOnUse" x1="859.1509" y1="110.2905" x2="859.7608" y2="110.9913" gradientTransform="matrix(0.9999 0.0136 -0.0136 0.9999 -522.6223 -57.8325)">
			<stop  offset="0.1224" style="stop-color:#FCA4B5"/>
			<stop  offset="0.9896" style="stop-color:#FFADB7"/>
		</linearGradient>
		<path fill="url(#SVGID_6_)" d="M333.572,64.689l0.016,0.645c0,0,0.042,0.967,0.928,0.491c0.885-0.476,0.493-1.141,0.991-1.652
			c0.499-0.512,0.797-1.343,0.638-1.695C335.985,62.126,333.784,63.483,333.572,64.689z"/>
		<path fill="#FEC7C7" d="M336.786,59.768c0,0-0.6,0.169-0.595,0.502c0.006,0.334,0.201,2.164-0.028,2.738
			c-0.229,0.575-2.741,2.129-3.899,2.092c-0.579-0.345-0.981-1.26-1.137-1.543c-0.154-0.283-0.626-1.198-0.776-1.903
			c-0.149-0.704,0.23-0.666-0.499-1.468c-0.094-0.704,0.046-2.589,0.359-2.842c0.313-0.252,1.531-1.65,3.11-1.462
			C334.9,56.07,337.357,58.192,336.786,59.768z"/>
		<g>
			
				<linearGradient id="SVGID_7_" gradientUnits="userSpaceOnUse" x1="855.2075" y1="108.438" x2="854.358" y2="109.0776" gradientTransform="matrix(0.9999 0.0136 -0.0136 0.9999 -522.6223 -57.8325)">
				<stop  offset="0.1224" style="stop-color:#FEC7C7"/>
				<stop  offset="0.9896" style="stop-color:#FFDBDB"/>
			</linearGradient>
			<path fill="url(#SVGID_7_)" d="M330.679,61.202c0.038,0.22-0.419,1.658-0.416,1.931s1.321-0.041,1.321-0.041L330.679,61.202z"/>
			
				<linearGradient id="SVGID_8_" gradientUnits="userSpaceOnUse" x1="854.4116" y1="108.46" x2="855.7905" y2="108.46" gradientTransform="matrix(0.9999 0.0136 -0.0136 0.9999 -522.6223 -57.8325)">
				<stop  offset="0.188" style="stop-color:#FFDCDC"/>
				<stop  offset="0.8991" style="stop-color:#FEC7C7"/>
			</linearGradient>
			<path fill="url(#SVGID_8_)" d="M330.502,63.289c-0.104-0.004-0.188-0.021-0.236-0.058c-0.032-0.025-0.049-0.059-0.05-0.098
				c-0.001-0.135,0.098-0.516,0.203-0.92c0.108-0.42,0.232-0.896,0.214-1.004l0.093-0.016c0.021,0.118-0.072,0.489-0.217,1.043
				c-0.099,0.381-0.2,0.774-0.199,0.896c0,0.008,0.002,0.016,0.014,0.025c0.136,0.106,0.838-0.012,1.25-0.11l0.021,0.091
				C331.506,63.159,330.876,63.306,330.502,63.289z"/>
		</g>
		
			<ellipse transform="matrix(0.9933 0.1154 -0.1154 0.9933 9.3134 -37.9264)" fill="#FFFFFF" cx="332.183" cy="61.466" rx="0.307" ry="0.245"/>
		
			<ellipse transform="matrix(0.6328 0.7743 -0.7743 0.6328 168.6035 -233.4617)" fill="#FFFFFF" cx="330.446" cy="61.032" rx="0.176" ry="0.153"/>
		<g>
			<path fill="#754554" d="M331.331,60.949l-0.079-0.135c0.017-0.01,0.423-0.242,1.658-0.098l-0.018,0.154
				C331.726,60.736,331.334,60.946,331.331,60.949z"/>
		</g>
		<g>
			
				<rect x="329.722" y="60.252" transform="matrix(0.7438 0.6684 -0.6684 0.7438 124.8686 -205.1332)" fill="#754554" width="0.634" height="0.156"/>
		</g>
		<path fill="#FB7F9E" d="M332.34,63.984c0,0-0.491,0.199-1.033-0.079c0.169,0.303,0.286,0.344,0.614,0.374
			C332.249,64.31,332.34,63.984,332.34,63.984z"/>
		<path fill="#FEBFBF" d="M332.041,63.932l-0.525-0.12L331.29,63.8l-0.041-0.007l0.059,0.113c0,0,0.135,0.079,0.457,0.139
			c0.322,0.06,0.576-0.06,0.576-0.06L332.041,63.932z"/>
		<path fill="#754554" d="M335.695,61.737c0,0-0.842-1.107-1.061-1.9c-0.219-0.794-0.661-1.844-0.961-1.884
			s-1.676,0.141-2.493,0.061c-0.817-0.08-1.12-0.295-1.198-0.228c-0.079,0.068-0.033-0.628,0.896-1.77
			c0.931-1.142,1.924-2.208,4.466-1.889c2.541,0.319,3.25,2.913,3.144,3.956c-0.107,1.043-0.68,2.261-0.883,3.057
			c-0.204,0.795-0.397,0.97-0.263,1.721c-0.294-0.885-0.507-2.22-0.486-2.633c0.021-0.414-0.369-0.766-0.582-0.423
			c-0.213,0.344-0.606,0.636-0.509,1.101C335.862,61.37,335.695,61.737,335.695,61.737z"/>
		<g>
			<path fill="#FEBFBF" d="M338.286,72.415c0,0,1.112,7.539,1.173,8c0.06,0.461,1.901,0.954,2.457-0.743s0.424-7.557,0.377-8.308
				C342.245,70.613,338.424,70.567,338.286,72.415z"/>
			<path fill="#FEBFBF" d="M339.679,79.919c0,0-0.123-0.033-0.269,0.313c-0.146,0.347-1.114,5.411-1.558,6.718
				s-0.692,1.815-0.8,1.925s-0.8,0.75-0.904,0.925c-0.105,0.174-0.555,1.206-0.555,1.206s-0.197,0.855-0.318,1.046
				c-0.12,0.191-0.384,0.588-0.384,0.588s0.094,0.239,0.376,0.157c0.282-0.082,0.522-0.419,0.673-0.631
				c0.149-0.212,0.436-1.065,0.436-1.065l0.175-0.016c0,0,0.036,0.562-0.003,0.798c-0.038,0.236-0.516,1.148-0.516,1.148
				s-0.561,0.126-0.688,0.2c-0.127,0.075-0.205,0.203-0.216,0.304c-0.01,0.101,1.205,0.05,1.205,0.05s0.308,0.152,0.413,0.17
				c0.105,0.017,0.438,0.014,0.438,0.014l0.305-0.455l0.454-0.162c0,0,0.853-1.311,1.019-1.896c0.166-0.585,0.154-1.762,0.23-2.114
				c0.077-0.351,3.261-8.387,2.723-9.471C340.924,79.299,339.679,79.919,339.679,79.919z"/>
			
				<linearGradient id="SVGID_9_" gradientUnits="userSpaceOnUse" x1="822.0317" y1="130.1313" x2="823.105" y2="130.1313" gradientTransform="matrix(1 0.0016 -0.0016 1 -485.4869 -38.4885)">
				<stop  offset="0.1224" style="stop-color:#FCA4B5"/>
				<stop  offset="0.9896" style="stop-color:#FFADB7"/>
			</linearGradient>
			<path fill="url(#SVGID_9_)" d="M337.41,92.241c0,0-0.608,1.069-0.661,1.156c-0.053,0.087-0.414,0.188-0.414,0.188l0.195,0.091
				l0.288-0.159C336.818,93.518,337.407,92.337,337.41,92.241z"/>
			
				<linearGradient id="SVGID_10_" gradientUnits="userSpaceOnUse" x1="822.8823" y1="130.2754" x2="823.5708" y2="130.2754" gradientTransform="matrix(1 0.0016 -0.0016 1 -485.4869 -38.4885)">
				<stop  offset="0.1224" style="stop-color:#FCA4B5"/>
				<stop  offset="0.9896" style="stop-color:#FFADB7"/>
			</linearGradient>
			<polygon fill="url(#SVGID_10_)" points="337.875,92.438 337.185,93.769 337.49,93.314 			"/>
			<path fill="#E6F1FF" d="M338.345,72.776c0,0-0.48-1.853-0.084-3.461c0.396-1.61,1.528-2.243,2.181-2.463s1.013,0.14,1.173,0.332
				c0.16,0.191,1.01,1.444,1.091,2.235c0.082,0.792,0.165,2.558,0.165,2.558s-0.453,0.465-1.76,0.539S338.345,72.776,338.345,72.776
				z"/>
		</g>
		
			<linearGradient id="SVGID_11_" gradientUnits="userSpaceOnUse" x1="545.5962" y1="18.6973" x2="546.8345" y2="18.6973" gradientTransform="matrix(0.9961 -0.0886 0.0886 0.9961 -209.0605 90.5222)">
			<stop  offset="0.1224" style="stop-color:#FEB9B8"/>
			<stop  offset="1" style="stop-color:#FFDEDE"/>
		</linearGradient>
		<path fill="url(#SVGID_11_)" d="M336.146,60.098c0,0,0.209-0.617,0.809-0.359c0.602,0.258,0.171,1.326-0.127,1.772
			c-0.297,0.446-0.572,0.414-0.668,0.154c-0.095-0.26,0.004-0.927,0.004-0.927L336.146,60.098z"/>
	</g>
</g>
</svg>
