<?xml version="1.0" encoding="utf-8"?>
<!-- Generator: Adobe Illustrator 16.0.0, SVG Export Plug-In . SVG Version: 6.00 Build 0)  -->
<!DOCTYPE svg PUBLIC "-//W3C//DTD SVG 1.1//EN" "http://www.w3.org/Graphics/SVG/1.1/DTD/svg11.dtd">
<svg version="1.1" id="Layer_1" xmlns="http://www.w3.org/2000/svg" xmlns:xlink="http://www.w3.org/1999/xlink" x="0px" y="0px"
	 width="463.683px" height="425.749px" viewBox="0 0 463.683 425.749" enable-background="new 0 0 463.683 425.749"
	 xml:space="preserve">
<g>
	<g>
		<path fill="#C9DAFF" d="M0.476,61.107l1.753-1.012c0.017-0.011,0.034-0.021,0.052-0.03l0.013-0.007l0,0.001
			c0.269-0.133,0.627-0.104,1.021,0.124l15.056,8.692c0.825,0.477,1.5,1.642,1.5,2.588v12.185c0,0.462-0.162,0.789-0.422,0.948
			l0,0.001l-0.007,0.003c-0.008,0.005-0.016,0.009-0.024,0.014l-1.693,0.978l1.096,3.784l-1.814,1.047l-3.37-7.787l-0.818-1.339
			l-9.504-5.487c-0.825-0.477-1.5-1.641-1.5-2.588v-9.925L0.476,61.107z"/>
		<path fill="#A4C1FF" d="M16.556,69.924L1.5,61.231C0.675,60.755,0,61.14,0,62.086v12.184c0,0.947,0.675,2.111,1.5,2.588
			l11.37,6.564l4.137,7.001l-1.604-5.539l0,0l-0.677-2.338l1.831,3.004l0,0c0.825,0.477,1.501,0.091,1.501-0.855V72.512
			C18.057,71.565,17.381,70.4,16.556,69.924z"/>
	</g>
	<polygon fill="#B0C9FF" points="2.766,61.961 4.586,78.64 12.674,83.31 10.558,66.46 	"/>
</g>
</svg>
