<?xml version="1.0" encoding="utf-8"?>
<!-- Generator: Adobe Illustrator 16.0.0, SVG Export Plug-In . SVG Version: 6.00 Build 0)  -->
<!DOCTYPE svg PUBLIC "-//W3C//DTD SVG 1.1//EN" "http://www.w3.org/Graphics/SVG/1.1/DTD/svg11.dtd">
<svg version="1.1" id="Layer_1" xmlns="http://www.w3.org/2000/svg" xmlns:xlink="http://www.w3.org/1999/xlink" x="0px" y="0px"
	 width="463.683px" height="425.749px" viewBox="0 0 463.683 425.749" enable-background="new 0 0 463.683 425.749"
	 xml:space="preserve">
<g>
	<path fill="#DE2164" d="M451.911,162.364l9.803-16.84l-1.913-1.105l-0.001,0.001c-1.255-0.748-3.004-0.653-4.94,0.465
		c-3.816,2.204-6.911,7.541-6.911,11.921c0,2.048,0.677,3.523,1.787,4.29l0,0l0.003,0.001c0.135,0.093,0.276,0.174,0.424,0.246
		L451.911,162.364z"/>
	<g>
		<path fill="#F74C6F" d="M463.683,149.93c0,4.38-3.094,9.717-6.911,11.921c-3.816,2.204-6.911,0.439-6.911-3.94
			s3.095-9.717,6.911-11.921C460.589,143.786,463.683,145.55,463.683,149.93z"/>
		<path fill="#FF5678" d="M463.479,150.381c0,4.155-2.936,9.217-6.556,11.308c-3.621,2.09-6.556,0.417-6.556-3.738
			s2.935-9.217,6.556-11.308C460.543,144.554,463.479,146.227,463.479,150.381z"/>
		<path fill="#FAFAFA" d="M461.363,150.886c0-1.572-1.111-2.205-2.481-1.414c-0.68,0.393-1.296,1.063-1.744,1.831
			c-0.448-0.25-1.063-0.21-1.744,0.183c-1.37,0.791-2.48,2.707-2.48,4.279c0,0.055,0.012,0.099,0.014,0.15
			c-0.006,0.09-0.014,0.176-0.014,0.274c0,2.493,4.225,3.4,4.225,3.4s4.226-5.786,4.226-8.278c0-0.1-0.008-0.177-0.014-0.259
			C461.351,150.997,461.363,150.94,461.363,150.886z"/>
	</g>
</g>
</svg>
