<?xml version="1.0" encoding="utf-8"?>
<!-- Generator: Adobe Illustrator 16.0.0, SVG Export Plug-In . SVG Version: 6.00 Build 0)  -->
<!DOCTYPE svg PUBLIC "-//W3C//DTD SVG 1.1//EN" "http://www.w3.org/Graphics/SVG/1.1/DTD/svg11.dtd">
<svg version="1.1" id="Layer_1" xmlns="http://www.w3.org/2000/svg" xmlns:xlink="http://www.w3.org/1999/xlink" x="0px" y="0px"
	 width="463.683px" height="425.749px" viewBox="0 0 463.683 425.749" enable-background="new 0 0 463.683 425.749"
	 xml:space="preserve">
<g>
	<g>
		<path fill="#D7E4F2" d="M283.401,315.898c3.873-2.465,10.334-2.732,14.431-0.598c4.098,2.136,4.278,5.865,0.405,8.33
			s-10.334,2.731-14.431,0.596C279.708,322.092,279.528,318.362,283.401,315.898z"/>
		<g>
			<path fill="#626170" d="M298.738,318.443c0,0,0.257,0.131,0.271,0.321c0.014,0.191,0.021,0.718,0.02,0.842
				s-0.327,0.604-1.125,0.791c-0.799,0.187-2.74-0.328-3.394-0.71c-0.654-0.381-1.547-1.354-1.818-1.428
				c-0.213-0.058-0.757,0.021-0.981,0.059c-0.069,0.012-0.138,0.014-0.208,0.009l-0.513-0.043c-0.073-0.007-0.145-0.021-0.214-0.046
				l-1.099-0.391c0,0-0.157-0.807,0.173-1.061C290.178,316.532,298.738,318.443,298.738,318.443z"/>
			<path fill="#C5757D" d="M294.213,315.167c0,0,0.95,0.603,1.119,0.772s1.887,0.867,2.481,1.23
				c0.596,0.362,1.044,0.984,1.083,1.188c0.039,0.204,0.13,0.668,0.061,0.863c-0.068,0.195-0.379,0.712-1.407,0.775
				c-0.92,0.058-2.693-0.719-3.055-0.882c-0.045-0.021-0.085-0.043-0.125-0.07c-0.273-0.187-1.415-0.961-1.604-1.05
				c-0.213-0.1-2.105-0.579-2.393-0.674c-0.288-0.096-0.61-0.131-0.652-0.362s-0.129-1.5,0.023-1.898
				C289.899,314.66,293.373,314.145,294.213,315.167z"/>
			<path fill="#EAACB6" d="M289.728,315.338c0.099,0.313,0.463,0.536,1.683,0.6c0.141,0.006,0.282,0.013,0.423,0.013
				c0.874,0.028,1.681-0.038,2.563-0.424c0.31-0.135,0.517-0.441,0.521-0.778c0.035-3.399,1.464-17.425,1.891-26.144
				c0.27-5.514-0.926-8.315-0.926-8.315l-5.891-0.339l-0.215,14.547l0.002,8.415C289.779,302.912,289.635,315.023,289.728,315.338z"
				/>
			<g>
				<path fill="#CE8C9E" d="M291.399,315.961c0.005-0.098,0.436-9.769,0.586-11.803c0.151-2.039,0.275-13.604,0.276-13.721
					l-0.227-0.002c-0.001,0.116-0.125,11.674-0.275,13.706c-0.151,2.037-0.582,11.712-0.586,11.809L291.399,315.961z"/>
			</g>
			<path fill="#D4B7B7" d="M289.728,315.338c0.064,0.204,0.242,0.37,0.696,0.479c0.622-0.48,0.854-0.657,1.476-1.138l1.034-23.931
				c0,0,1.542-1.674,1.276-2.715c-0.117-0.447-4.307,5.891-4.307,5.891l-0.127,0.573l0.002,8.415
				C289.779,302.912,289.635,315.023,289.728,315.338z"/>
			<path fill="#626170" d="M291.707,321.553c0,0,0.281,0.005,0.349,0.381c0.022,0.123,0.036,0.254,0.045,0.375
				c0.022,0.322-0.131,0.637-0.413,0.796c-0.239,0.135-0.594,0.272-1.104,0.336c-1.18,0.149-2.623-0.286-3.362-0.706
				c-0.74-0.418-1.005-0.76-1.451-1.379c-0.446-0.618-0.907-0.915-0.907-0.915l-0.188,0.051c0,0-0.66-0.479-1.022-0.813
				c-0.146-0.134-0.241-0.313-0.266-0.51c-0.051-0.417-0.061-1.098,0.063-1.177C283.613,317.89,291.707,321.553,291.707,321.553z"/>
			<path fill="#C5757D" d="M288.578,317.561l0.154,0.368c0.045,0.105,0.109,0.201,0.191,0.28c0.434,0.424,1.884,1.838,2.326,2.311
				c0.522,0.558,0.792,1.047,0.815,1.554c0.023,0.506-1.292,0.834-1.489,0.848s-1.071,0.1-2.19-0.317
				c-1.12-0.417-1.582-0.818-2.48-1.796s-1.507-1.516-1.782-1.739c-0.275-0.223-0.677-0.579-0.672-0.868
				c0.004-0.29-0.041-1.101,0.196-1.202c0.213-0.09,3.348-0.352,4.518,0.125C288.357,317.2,288.498,317.369,288.578,317.561z"/>
			<path fill="#EAACB6" d="M293.617,282.635c0,0,0.558,2.418,0.78,4.723c0.2,2.057-1.98,2.787-1.98,2.787s-1.402,9.825-1.901,12.245
				c-0.441,2.145-1.673,12.203-1.95,14.406c-0.036,0.29-0.215,0.536-0.479,0.661c-0.793,0.37-2.548,1.002-4.004,0.183
				c-0.257-0.146-0.418-0.419-0.428-0.714c-0.228-6.807,0.905-14.934,0.979-15.992c0.003-0.04,0.004-0.073,0.002-0.114
				c-0.1-1.992-1.161-8.93-1.518-13.606c-0.311-1.838,0.229-4.753,0.229-4.753L293.617,282.635z"/>
			<g>
				<path fill="#CE8C9E" d="M293.007,288.648c-0.096-0.061-0.206-0.203-0.185-0.535c0.092-1.414-0.129-3.645-0.211-3.824
					l0.084-0.061l0.001-0.004l0.002,0.002l-0.058-0.1l0.065-0.033l0.057,0.035c0.194,0.122,0.361,2.83,0.286,4
					c-0.011,0.167,0.02,0.289,0.079,0.328c0.041,0.024,0.106,0.016,0.184-0.027c0.262-0.146,0.648-0.689,0.639-1.586
					c-0.006-0.523-0.124-2.512-0.156-2.723l0.224-0.034c0.038,0.246,0.153,2.254,0.159,2.754c0.01,0.933-0.384,1.579-0.754,1.786
					c-0.078,0.044-0.154,0.066-0.226,0.07C293.128,288.7,293.064,288.684,293.007,288.648z M292.753,284.324l-0.054-0.094
					L292.753,284.324z"/>
			</g>
			<g>
				<path fill="#CE8C9E" d="M284.492,318.097l0.227-0.011c-0.272-5.504,0.326-11.34,0.684-14.827
					c0.139-1.349,0.238-2.323,0.228-2.733c-0.02-0.766-0.324-3.147-0.646-5.67c-0.277-2.169-0.564-4.412-0.679-5.704
					c-0.243-2.734,0.152-4.843,0.156-4.864l-0.223-0.042c-0.004,0.021-0.404,2.161-0.16,4.926c0.115,1.296,0.402,3.542,0.68,5.714
					c0.322,2.516,0.626,4.893,0.646,5.646c0.01,0.395-0.089,1.363-0.227,2.705C284.818,306.729,284.219,312.576,284.492,318.097z"/>
			</g>
			<g>
				<path fill="#CE8C9E" d="M287.401,288.865c1.301-0.057,2.292-0.403,2.959-1.037c0.865-0.822,0.843-1.817,0.841-1.859
					l-0.227,0.008c0.001,0.009,0.019,0.941-0.773,1.691c-0.829,0.783-2.207,1.1-4.099,0.938l-0.019,0.226
					C286.552,288.871,286.993,288.883,287.401,288.865z"/>
			</g>
			<path fill="#A76478" d="M283.063,284.752c0,0,2.167,0.923,5.567,0.656c3.401-0.266,4.684-0.727,5.808-1.422
				s1.804-1.57,1.804-1.57l-0.235-1.309c0,0-0.624,1.094-2.229,1.864c-1.604,0.77-5.083,1.096-6.501,1.168
				c-1.418,0.071-4.078-0.723-4.078-0.723L283.063,284.752z"/>
			<path fill="#EAACB6" d="M290.285,283.922c0,0,0.101,0.373,0.123,0.817c0.023,0.444,0.022,1.262,0.022,1.262l0.514-0.094
				c0,0,0.077-0.79,0.049-1.185c-0.027-0.395-0.156-0.939-0.156-0.939L290.285,283.922z"/>
			<path fill="#4F5997" d="M285.349,283.845c0,0-0.085,0.377-0.089,0.821c-0.004,0.445,0.03,1.263,0.03,1.263l-0.517-0.071
				c0,0-0.11-0.787-0.099-1.183c0.011-0.396,0.116-0.944,0.116-0.944L285.349,283.845z"/>
			<path fill="#4F5997" d="M294.985,282.174c0,0,0.135,0.461,0.161,0.84c0.027,0.378-0.03,1.025-0.03,1.025l0.337-0.43
				c0,0,0.04-0.654,0.025-0.86c-0.014-0.206-0.217-0.803-0.217-0.803L294.985,282.174z"/>
			<g>
				<path fill="#8C92B0" d="M296.657,284.278c0.035-0.001,0.071-0.008,0.108-0.02l-0.072-0.216
					c-0.285,0.098-0.641-0.604-0.771-0.957l-0.213,0.078C295.754,283.287,296.145,284.301,296.657,284.278z"/>
			</g>
			<g>
				<path fill="#CCDEFB" d="M292.399,284.935c-0.141-0.099-0.221-0.259-0.227-0.452l-0.011-0.38
					c-0.012-0.398,0.299-0.828,0.705-0.979l0.954-0.353c0.222-0.082,0.439-0.066,0.598,0.044c0.141,0.099,0.221,0.259,0.226,0.452
					l0.012,0.38c0.012,0.398-0.299,0.828-0.705,0.979l-0.954,0.353c-0.061,0.023-0.122,0.038-0.181,0.046
					C292.66,285.045,292.513,285.015,292.399,284.935z M293.91,283.186l-0.954,0.354c-0.21,0.077-0.391,0.31-0.386,0.496l0.012,0.38
					c0.002,0.063,0.024,0.111,0.068,0.142c0.062,0.043,0.156,0.045,0.258,0.008l0.954-0.353c0.21-0.078,0.391-0.311,0.385-0.497
					l-0.011-0.379c-0.002-0.064-0.024-0.112-0.068-0.143c-0.042-0.029-0.1-0.04-0.165-0.031
					C293.973,283.166,293.942,283.174,293.91,283.186z"/>
			</g>
		</g>
		<path fill="#D692A6" d="M291.315,258.848l3.167,9.603c0,0,0.001,0.007,0.007,0.012c0.197,0.143,4.103,3.032,5.21,3.351
			c0.195,0.057,0.389,0.088,0.586,0.107c0.947,0.1,1.821-0.211,1.785-0.619c-0.044-0.492-4.73-7.054-6.326-8.99
			C294.149,260.374,291.315,258.848,291.315,258.848z"/>
		<path fill="#EBDDDD" d="M294.482,268.45c0,0,0.001,0.007,0.007,0.012c0.197,0.143,4.103,3.032,5.21,3.351
			c0.195,0.057,0.389,0.088,0.586,0.107l-1.663-1.055c0,0-1.742-1.316-2.091-1.652c-0.354-0.33-1.456-2.918-1.456-2.918
			L294.482,268.45z"/>
		<path fill="#DDE8F6" d="M282.786,274.855c0.598,3.074,0.481,7.971,0.481,7.971c0.521,0.668,1.523,1.025,2.694,1.176
			c2.241,0.288,6.05-0.529,7.312-1.015c1.919-0.741,2.725-1.903,2.752-2.153c0.027-0.251,0.182-0.844,0.036-1.936
			c-0.148-1.09-0.433-8.563-0.76-11.114c-0.326-2.552-1.012-5.435-2.229-7.578c-1.217-2.142-3.553-1.312-5.014-1.257
			c-1.458,0.055-3.125,1.134-3.467,1.623c-0.34,0.49-2.622,0.945-3.625,3.613c-0.002,0.003,0.631-0.299,0.631-0.299
			C280.594,266.557,282.191,271.781,282.786,274.855z"/>
		<path fill="#C98398" d="M295,282.303c-0.018-0.963-0.079-2.443-0.172-4.147c-0.028-1.217-0.074-2.479-0.172-3.7
			c-0.063-0.79-0.149-1.624-0.252-2.472c-0.211-2.524-0.463-4.87-0.732-6.306c-0.27-1.438-0.569-2.565-0.851-3.435
			c-0.066-0.338-0.105-0.527-0.105-0.527l-0.42-0.88c-0.084-0.194-0.162-0.36-0.231-0.498l1.81-0.131c0,0,1.755,2.409,1.759,8.104
			c-0.437,4.368,1.408,14.584,1.408,14.584s-0.058,1.696-1.301,2.204c-0.603,0.246-0.753-0.69-0.826-2.725
			C294.943,282.35,294.972,282.328,295,282.303z"/>
		<path fill="#D692A6" d="M288.607,259.864c0,0,1.674-1.42,3.069-0.248s1.994,4.929,1.994,4.929s1.07,1.044,1.113,1.195
			c0.043,0.15,0.694,15.886,0.327,16.846c-0.738,1.936-0.502-8.527-1.884-16.211C292,259.551,288.607,259.864,288.607,259.864z"/>
		<path fill="#C98398" d="M287.806,266.242c1.192,2.214,3.685,19.108,2.164,20.295c-1.275,0.995-5.936,2.585-6.32,0.125
			c-0.285-1.823,0.92-19.137,0.92-19.137S287.393,265.476,287.806,266.242z"/>
		<path fill="#C98398" d="M285.804,287.694c0,0-2.078,0.731-3.162-1.357c-0.081-1.884,0.458-4.469,0.233-8.306
			s-2.158-10.51-2.034-12.178c0.125-1.668-0.864-2.334,4.446-5.887c-0.838,1.834-0.572,2.479-0.572,2.479l1.844,4.216
			L285.804,287.694z"/>
		<path fill="#EBDDDD" d="M299.119,270.819c0,0-1.745-2.674-2.274-4.049c-0.53-1.376-3.019-3.868-3.019-3.868l-1.366-2.329
			l3.5,2.256l2.388,4.593C298.347,267.422,299.565,269.076,299.119,270.819z"/>
		<path fill="#FEBFBF" d="M293.801,258.818c0,0,0.054-0.419,0.248-0.552c0.195-0.134,0.951-0.556,1.296-0.587
			s0.451,0.142,0.465,0.298c0.015,0.155,0.223,0.451,0.223,0.451l0.52,0.821l0.267,0.576c0,0,0.214,0.177,0.432,0.762
			c0.218,0.584,0.304,0.99,0.414,1.584c0.111,0.594,1.825,2.625,2.109,3.03s2.712,3.911,2.708,5.169
			c-0.006,1.846-1.835,1.577-2.014,1.564c-0.178-0.013-0.852-0.365-1.35-1.116c-0.496-0.75-0.847-2.638-1.453-4.056
			c-0.605-1.419-1.247-2.611-1.623-2.925c-0.375-0.314-0.739-0.597-0.871-0.593s-0.673-0.304-1.258-0.931
			c-0.585-0.626-1.879-1.681-1.97-2.056c-0.092-0.375-0.11-1.234-0.11-1.234s0.713-0.261,0.789,0.08
			C292.699,259.445,293.801,258.818,293.801,258.818z"/>
		<path fill="#D692A6" d="M296.426,264.152c0,0,0.351,0.109,0.934-0.125c0.582-0.234,0.707-0.49,0.792-0.666
			c0.084-0.176-0.127-0.485-0.127-0.485l-0.137-0.219c0,0,0.22,0.029,0.387,0.229c0.166,0.201,2.842,4.23,3.285,4.936
			s0.871,1.884,0.929,2.046s0.141,1.371-0.425,1.781c-0.454,0.339-1.127,0.385-1.688,0.326c-0.56-0.058-1.222-0.948-1.372-1.238
			c-0.149-0.291-1.849-4.81-2.229-5.641c-0.381-0.831-0.733-1.258-0.733-1.258L296.426,264.152z"/>
		
			<linearGradient id="SVGID_1_" gradientUnits="userSpaceOnUse" x1="3715.4458" y1="107.249" x2="3718.3599" y2="107.249" gradientTransform="matrix(-0.9961 0.0887 0.0887 0.9961 3987.894 -175.9509)">
			<stop  offset="0.1224" style="stop-color:#FCA4B5"/>
			<stop  offset="0.9896" style="stop-color:#FFADB7"/>
		</linearGradient>
		<path fill="url(#SVGID_1_)" d="M295.723,262.85c0,0,0.087-1.121,0.117-1.289s-0.1-0.516-0.1-0.516l-0.348,0.279l0.021-0.883
			l-0.528,0.307l-0.712,0.398l-0.431,0.601l-0.095-1.069l-0.187-0.979l0.771-1.076c0,0,0.017-0.535,0.78-0.318
			c0.765,0.218,0.948,1.172,0.948,1.172s0.291,0.763,0.445,0.955c0.153,0.192,0.046,1.257,0.013,1.558
			S295.917,262.838,295.723,262.85z"/>
		<polygon points="293.48,256.282 294.979,260.023 293.097,261.131 291.568,257.104 		"/>
		
			<linearGradient id="SVGID_2_" gradientUnits="userSpaceOnUse" x1="3727.0903" y1="107.0405" x2="3722.2805" y2="103.5032" gradientTransform="matrix(-0.9961 0.0887 0.0887 0.9961 3987.894 -175.9509)">
			<stop  offset="0.1224" style="stop-color:#FEC7C7"/>
			<stop  offset="0.9694" style="stop-color:#FFADB7"/>
		</linearGradient>
		<path fill="url(#SVGID_2_)" d="M285.798,254.187c0,0,0.473,3.146,0.258,4.296c-0.214,1.15-1.323,2.413-1.39,2.779
			c-0.067,0.365,2.172,1.544,3.694,1.631c1.521,0.088,1.934-0.296,2.182-0.442c0.247-0.146-0.36-1.531-0.168-2.852
			C290.568,258.279,287.863,254.238,285.798,254.187z"/>
		<path fill="#F64A6E" d="M290.683,263.793c0,0,1.695,6.799,3.088,17.522l-0.495,1.687l-1.034-0.99
			c-1.135-13.256-2.281-17.828-2.281-17.828L290.683,263.793z"/>
		<polygon fill="#F64A6E" points="289.698,262.441 290.869,263.398 290.474,264.491 289.427,264.064 289.398,263.73 		"/>
		<path fill="#E6F1FF" d="M285.905,259.504l0.121,0.845c0,0,0.944,2.199,3.672,2.093c0.065,0.424,0.032,1.625-0.386,1.988
			c-1.752-0.625-3.959-1.803-4.389-2.955c-0.051-0.135,0.327-1.745,0.327-1.745l0.592-0.552L285.905,259.504z"/>
		<path fill="#D692A6" d="M285.179,260.041c0,0-1.693,1.287-0.793,3.135c0.899,1.847,3.124,5.385,3.124,5.385l-0.617,0.87
			c0,0,2.431,7.99,2.792,9.239c0.361,1.25,0.84,5.283,0.84,5.283s-0.011-6.77-0.637-10.465c-0.627-3.696-1.392-6.875-2.057-8.451
			c-0.455-1.076-1.576-2.178-2.241-2.768c-0.328-0.292-0.502-0.717-0.476-1.155L285.179,260.041z"/>
		
			<linearGradient id="SVGID_3_" gradientUnits="userSpaceOnUse" x1="3721.4468" y1="106.3105" x2="3724.1567" y2="106.3105" gradientTransform="matrix(-0.9961 0.0887 0.0887 0.9961 3987.894 -175.9509)">
			<stop  offset="0.1224" style="stop-color:#FCA4B5"/>
			<stop  offset="0.9896" style="stop-color:#FFADB7"/>
		</linearGradient>
		<path fill="url(#SVGID_3_)" d="M290.559,261.91c0,0-0.646,0.918-1.901,0.111c-0.675-0.435-0.735-1.403-0.735-1.403l-0.429-2.579
			l2.957,3.262L290.559,261.91z"/>
		<path fill="#E6F1FF" d="M290.174,260.26c0,0,0.165,0.487,0.14,0.76c-0.024,0.271-0.105,1.021-0.616,1.422
			c0.53,0.647,1.41,0.93,1.743,0.887c-0.295-1.003-0.424-1.957-0.557-2.745C290.75,259.795,289.953,259.689,290.174,260.26z"/>
		<path fill="#EBDDDD" d="M282.786,274.855c0.598,3.074-0.144,11.481-0.144,11.481c0.397,0.79,1.159,1.426,2.33,1.575
			c-0.281-0.223-0.229-2.437-0.356-4.463c-0.25-1.585,0.146-1.011-0.252-5.029c-0.397-4.021-1.649-7.104-1.649-7.104l0.46,0.767
			c0,0,2.456,4.887,2.902,5.058s0.794,0.147,0.794,0.147s3.286,1.462,4.238,1.377c0.953-0.084,4.582-3.655,4.582-3.655
			s-3.677,0.067-4.156-0.188c-0.479-0.255-2.212-1.627-2.717-2.841c-0.505-1.212-2.65-5.455-2.65-5.455s-2.75,1.937-3.735,1.661
			c-0.983-0.275-0.835-4.299-0.835-4.299C280.594,266.557,282.191,271.781,282.786,274.855z"/>
		<path fill="#FEC7C7" d="M286.066,256.579c0.021,0.009,0.041,0.017,0.062,0.022c0,0-0.002,0,0.001,0.002
			c0.4,0.148,0.727,0.12,0.727,0.12s0.691,1.899,1.084,2.969s1.085,1.53,2.428,2.017c1.343,0.487,1.695,0.109,1.921-0.146
			c0.157-0.177,0.602-1.269,0.907-2.28c0.133-0.438,0.238-0.861,0.285-1.189c0.151-1.079,0.486-1.778,0.652-2.018
			c0.163-0.239,0.249-1.66,0.038-3.18c-0.209-1.521-1.745-3.171-2.913-3.601s-2.862-0.188-4.279,0.617
			c-1.418,0.806-2.01,1.783-2,2.825C284.989,253.778,285.458,256.069,286.066,256.579z"/>
		<path fill="#754554" d="M292.706,256.666c0,0-0.945-0.034-1.117-0.02c-0.173,0.016-1.013,0.324-1.013,0.324l0.943-0.144
			l1.128,0.001L292.706,256.666z"/>
		<polygon fill="#754554" points="293.499,256.313 294.238,255.825 294.265,255.972 294.131,256.075 293.363,256.549 		"/>
		<g>
			
				<linearGradient id="SVGID_4_" gradientUnits="userSpaceOnUse" x1="3718.9175" y1="104.4868" x2="3718.0872" y2="104.964" gradientTransform="matrix(-0.9961 0.0887 0.0887 0.9961 3987.894 -175.9509)">
				<stop  offset="0.1224" style="stop-color:#FEC7C7"/>
				<stop  offset="0.9896" style="stop-color:#FFDBDB"/>
			</linearGradient>
			<path fill="url(#SVGID_4_)" d="M293.09,256.789c0,0,0.236,1.069,0.44,1.647c0.205,0.578-0.116,0.78-0.602,0.811
				c-0.485,0.031-0.711-0.135-0.711-0.135L293.09,256.789z"/>
			
				<linearGradient id="SVGID_5_" gradientUnits="userSpaceOnUse" x1="3718.0962" y1="104.5527" x2="3719.5767" y2="104.5527" gradientTransform="matrix(-0.9961 0.0887 0.0887 0.9961 3987.894 -175.9509)">
				<stop  offset="0.188" style="stop-color:#FFDCDC"/>
				<stop  offset="0.8991" style="stop-color:#FEC7C7"/>
			</linearGradient>
			<path fill="url(#SVGID_5_)" d="M292.892,259.295c0.013,0,0.026-0.001,0.04-0.002c0.315-0.02,0.528-0.11,0.632-0.269
				c0.097-0.146,0.101-0.349,0.01-0.603c-0.201-0.569-0.436-1.633-0.438-1.644l-0.09,0.021c0.003,0.01,0.239,1.079,0.442,1.652
				c0.08,0.227,0.08,0.402,0,0.523c-0.088,0.133-0.276,0.209-0.562,0.227c-0.013,0.002-0.025,0.002-0.038,0.003
				c-0.434,0.019-0.641-0.128-0.643-0.129l-0.055,0.074C292.201,259.156,292.423,259.315,292.892,259.295z"/>
		</g>
		
			<ellipse transform="matrix(-0.8227 -0.5685 0.5685 -0.8227 385.0188 635.1273)" fill="#FFFFFF" cx="291.549" cy="257.525" rx="0.236" ry="0.259"/>
		
			<ellipse transform="matrix(-0.8228 -0.5684 0.5684 -0.8228 388.815 635.1225)" fill="#FFFFFF" cx="293.435" cy="256.938" rx="0.188" ry="0.26"/>
		<path fill="#C4868F" d="M286.127,256.602c0,0-0.002,0,0.001,0.002c0.4,0.148,0.727,0.12,0.727,0.12s0.691,1.899,1.084,2.969
			s1.085,1.53,2.428,2.017c1.343,0.487,1.695,0.109,1.921-0.146c0.157-0.177,0.602-1.269,0.907-2.28
			c-0.205,0.026-0.469,0.063-0.784,0.097c-0.64,0.232-2.483,0.814-3.5,0.066c-0.607-0.447-0.652-2.015-0.652-2.015
			c-0.151-2.258-1.528-3.228-2.026-2.05C286.131,255.616,286.087,256.053,286.127,256.602z"/>
		<path fill="#FEC7C7" d="M287.831,257.194c0,0-0.249,1.373-0.204,1.646c-0.559-1.433-0.805-2.271-0.805-2.271
			s-0.584-1.571,0.102-1.42C287.608,255.303,288.025,256.515,287.831,257.194z"/>
		<path fill="#D692A6" d="M280.659,266.844c0,0-0.577-2.579,1.069-3.321s3.266,0.173,4.529,3.212s2.919,6.3,4.095,7.237
			c1.009,1.3,1.247,4.803-0.884,4.844c-2.045-0.389-4.83-4.905-6.294-7.133S280.916,267.815,280.659,266.844z"/>
		<path fill="#FEBFBF" d="M288.806,278.565c0,0,0.609,0.594,2.223,0.116c3.666-1.085,6.443-2.393,7.869-3.125
			c0.605-0.313,0.967-0.521,1.051-0.563c0.277-0.14,0.731-0.229,1.183-0.469c0.449-0.238,0.741-0.686,0.741-0.686
			s-0.028,0.324,0.107,0.561c0.137,0.236,0.497,0.097,0.542-0.048c0.013-0.039,0.034-0.104,0.062-0.181
			c0.004-0.015,0.009-0.028,0.016-0.043c0.004-0.006,0.005-0.013,0.007-0.019c0.001-0.006,0.003-0.012,0.006-0.019
			c0.002-0.004,0.001-0.006,0.001-0.006c0.063-0.181,0.134-0.375,0.134-0.375s0.064-0.014,0.209-0.059
			c0.146-0.047,0.591-0.441,0.61-0.485c0.021-0.043,0.164-0.941-0.109-1.225c-0.273-0.284-1.267-0.672-1.408-0.767
			c-0.142-0.094-0.56-0.148-0.89-0.25c-0.333-0.104-0.666,0.059-0.666,0.059s-0.555,0.082-0.691,0.219
			c-0.137,0.136-0.278,0.777-0.323,0.923c-0.045,0.143-0.019,0.452-0.446,0.651c-0.431,0.199-1.531,0.632-3.247,1.033
			c-1.714,0.4-4.732,0.372-5.32,0.319c-0.591-0.053-0.534-0.021-0.534-0.021c-1.192,0.313-2.178,1.227-2.2,2.289
			C287.709,277.458,288.806,278.565,288.806,278.565z"/>
		
			<linearGradient id="SVGID_6_" gradientUnits="userSpaceOnUse" x1="3710.0503" y1="121.1455" x2="3714.3765" y2="121.1455" gradientTransform="matrix(-0.9961 0.0887 0.0887 0.9961 3987.894 -175.9509)">
			<stop  offset="0.1224" style="stop-color:#FCA4B5"/>
			<stop  offset="0.9896" style="stop-color:#FFADB7"/>
		</linearGradient>
		<path fill="url(#SVGID_6_)" d="M298.898,275.557c0.605-0.313,0.967-0.521,1.051-0.563c0.277-0.14,0.731-0.229,1.183-0.469
			c0.449-0.238,0.741-0.686,0.741-0.686s-0.028,0.324,0.107,0.561c0.137,0.236,0.497,0.097,0.542-0.048
			c0.013-0.039,0.034-0.104,0.062-0.181c-0.039,0.081-0.11,0.194-0.234,0.222c-0.201,0.042-0.389-0.124-0.359-0.349
			c0.029-0.228,0.45-0.704,0.45-0.704s0.296-0.397,0.369-0.396c0.076,0.001,0.174-0.016,0.174-0.016l-0.045-0.5l-0.392,0.149
			l-0.062,0.337c0,0-0.715,0.974-0.877,1.121c-0.159,0.146-0.634,0.486-0.9,0.568c-0.265,0.081-1.547,0.467-1.797,0.714
			C298.849,275.38,298.849,275.466,298.898,275.557z"/>
		<path fill="#504F60" d="M299.347,272.848c0,0,0.403,0.2,0.622,0.845c0.218,0.645,0.094,1.406,0.094,1.406
			s-0.116,0.222-0.295,0.312c-0.178,0.09-0.474,0.254-0.474,0.254s-0.33,0.033-0.382-0.116c0.244-0.126,0.402-0.21,0.402-0.21
			s0.372-0.56,0.19-1.275s-1.246-0.826-1.364-0.828s-0.454,0.051-0.454,0.051s0.008-0.185,0.129-0.362
			c0.12-0.179,0.569-0.287,0.632-0.286S299.214,272.811,299.347,272.848z"/>
		<path fill="#D692A6" d="M290.352,273.972c0,0,4.28-0.142,5.704-0.508s1.607-0.449,1.607-0.449s1.246-0.114,1.7,0.757
			s0.215,1.529-0.116,1.807c-0.27,0.133-4.074,1.91-6.248,2.584c-2.173,0.674-2.772,0.727-2.772,0.727s-0.901,0.126-1.42-0.322
			c-0.518-0.448-1.005-1.183-1.16-1.715s0.076-1.09,0.569-1.879C288.708,274.185,289.969,273.948,290.352,273.972z"/>
		<path fill="#754554" d="M287.831,257.194c0,0-0.079-1.278-0.408-1.448c-0.33-0.169-0.645,0.479-0.645,0.479
			s-0.619,1.175-0.667,1.261c-0.252-0.716-0.805-1.254-1.107-2.327c-0.302-1.073-0.982-2.812,0.059-4.22s2.354-1.438,2.354-1.438
			s1.438-1.426,4.082-0.571c2.645,0.854,3.144,3.812,3.166,4.07c0.023,0.259-0.398,0.818-0.398,0.818s-0.71,0.521-1.711-0.122
			c-1-0.643-2.175-0.6-2.47-0.425s0.06,1.918,0.006,2.158c-0.053,0.241-1.059,0.604-1.311,0.794
			c-0.252,0.189-0.521,1.206-0.521,1.206L287.831,257.194z"/>
		<path fill="#754554" d="M292.721,259.443c0,0-0.517-0.212-1.019,0.258c-0.502,0.471-1.201,0.588-1.38,0.515
			c-0.178-0.072-0.178-0.072-0.178-0.072s0.13,0.514,0.955,0.294c0.824-0.221,1.209-0.543,1.515-0.553
			C292.843,259.785,292.721,259.443,292.721,259.443z"/>
		<path fill="#754554" d="M292.58,259.487c0,0,0.036-0.081,0.134-0.097s0.305-0.131,0.586-0.091
			c0.281,0.039,0.487-0.084,0.564-0.285c0.077-0.202-0.083,0.589-0.418,0.742s-0.562,0.198-0.832,0.12
			S292.58,259.487,292.58,259.487z"/>
		<path fill="#FEC7C7" d="M291.694,260.406c0,0,0.351-0.105,0.479-0.124c0.129-0.018,0.46-0.06,0.529-0.047
			s-0.013,0.274-0.243,0.338C292.23,260.638,291.795,260.502,291.694,260.406z"/>
		
			<linearGradient id="SVGID_7_" gradientUnits="userSpaceOnUse" x1="3715.3911" y1="107.2314" x2="3717.4236" y2="107.2696" gradientTransform="matrix(-0.9961 0.0887 0.0887 0.9961 3987.894 -175.9509)">
			<stop  offset="0.1224" style="stop-color:#FEC7C7"/>
			<stop  offset="0.9896" style="stop-color:#FFDBDB"/>
		</linearGradient>
		<path fill="url(#SVGID_7_)" d="M295.232,261.045c0,0-0.126-0.924-0.133-1.066c-0.006-0.143,0.76-0.666,0.76-0.666
			s-0.376,0.092-0.595,0.148c-0.218,0.057-0.57,0.914-0.762,0.986c-0.192,0.073-0.35-0.093-0.335-0.41
			c0.016-0.318,0.281-0.951,0.281-0.951l0.502-0.435l-0.438,0.095c0,0-0.389,0.373-0.58,0.386s-0.048-0.696,0.07-0.824
			s1.005-0.585,1.282-0.619s0.451,0.158,0.539,0.353c0.088,0.193,1.27,2.173,1.318,2.284s0.509,1.548,0.552,2.034
			c0.044,0.486-0.143,0.764-0.618,0.855c-0.477,0.092-0.779-2.338-0.782-2.368c-0.003-0.031-0.198-0.559-0.263-0.584
			c-0.064-0.026-0.199-0.033-0.296,0.05c-0.096,0.084-0.042,0.753-0.275,0.873C295.259,261.288,295.232,261.045,295.232,261.045z"/>
		
			<linearGradient id="SVGID_8_" gradientUnits="userSpaceOnUse" x1="3724.1558" y1="102.606" x2="3725.6216" y2="102.606" gradientTransform="matrix(-0.9961 0.0887 0.0887 0.9961 3987.894 -175.9509)">
			<stop  offset="0.1224" style="stop-color:#FEB9B8"/>
			<stop  offset="1" style="stop-color:#FFDEDE"/>
		</linearGradient>
		<path fill="url(#SVGID_8_)" d="M287.33,256.193c0,0-0.304-0.779-1.099-0.813c-0.794-0.033-0.19,1.391-0.018,1.847
			s0.548,0.762,0.848,0.693c0.3-0.067,0.385-0.423,0.385-0.423S287.289,256.751,287.33,256.193z"/>
		
			<linearGradient id="SVGID_9_" gradientUnits="userSpaceOnUse" x1="3724.3296" y1="102.4536" x2="3725.4136" y2="102.4536" gradientTransform="matrix(-0.9961 0.0887 0.0887 0.9961 3987.894 -175.9509)">
			<stop  offset="0.1224" style="stop-color:#FCA4B5"/>
			<stop  offset="0.9896" style="stop-color:#FFADB7"/>
		</linearGradient>
		<path fill="url(#SVGID_9_)" d="M287.173,256.391c0,0-0.592-0.752-0.934-0.672s-0.12,0.847,0.054,1.253
			c0.175,0.406,0.772,0.354,0.82,0.241c0.049-0.111,0.11-0.143,0.11-0.143L287.173,256.391z"/>
	</g>
	
		<ellipse transform="matrix(-0.9991 0.0433 -0.0433 -0.9991 609.0878 532.7228)" fill="#504F60" cx="298.777" cy="272.955" rx="0.801" ry="0.264"/>
	
		<ellipse transform="matrix(-0.9991 0.0433 -0.0433 -0.9991 609.0649 532.3874)" fill="#504F60" cx="298.77" cy="272.787" rx="0.801" ry="0.264"/>
	
		<ellipse transform="matrix(-0.9991 0.0423 -0.0423 -0.9991 608.8007 532.7051)" fill="#EFF0F5" cx="298.77" cy="272.787" rx="0.647" ry="0.213"/>
	<g>
		<path fill="#EAACB6" d="M285.784,280.561c1.215-0.053,2.453-0.407,2.521-0.428l-0.063-0.217c-0.022,0.006-2.208,0.632-3.572,0.351
			l-0.046,0.223C284.979,280.562,285.38,280.578,285.784,280.561z"/>
	</g>
</g>
</svg>
