<?xml version="1.0" encoding="utf-8"?>
<!-- Generator: Adobe Illustrator 16.0.0, SVG Export Plug-In . SVG Version: 6.00 Build 0)  -->
<!DOCTYPE svg PUBLIC "-//W3C//DTD SVG 1.1//EN" "http://www.w3.org/Graphics/SVG/1.1/DTD/svg11.dtd">
<svg version="1.1" id="Layer_1" xmlns="http://www.w3.org/2000/svg" xmlns:xlink="http://www.w3.org/1999/xlink" x="0px" y="0px"
	 width="463.683px" height="425.749px" viewBox="0 0 463.683 425.749" enable-background="new 0 0 463.683 425.749"
	 xml:space="preserve">
<g>
	<g>
		<path fill="#FFC9D9" d="M115.539,1.147l-1.785-1.03c-0.017-0.011-0.035-0.021-0.053-0.03l-0.013-0.008l0,0.001
			c-0.273-0.135-0.638-0.105-1.039,0.126L97.321,9.056c-0.84,0.485-1.527,1.67-1.527,2.634v12.403c0,0.47,0.165,0.803,0.43,0.966h0
			l0.007,0.004c0.008,0.005,0.016,0.01,0.024,0.015l1.724,0.995l-1.116,3.852l1.847,1.066l3.431-7.927l0.833-1.363l9.675-5.586
			c0.84-0.484,1.527-1.67,1.527-2.634V3.378L115.539,1.147z"/>
		<path fill="#FFA4BF" d="M99.168,10.123l15.327-8.849c0.84-0.485,1.527-0.093,1.527,0.871v12.403c0,0.964-0.687,2.15-1.527,2.634
			l-11.574,6.683l-4.211,7.127l1.633-5.638l0,0l0.689-2.38l-1.864,3.059l0,0c-0.84,0.484-1.527,0.093-1.527-0.871V12.757
			C97.641,11.793,98.329,10.607,99.168,10.123z"/>
	</g>
	<polygon fill="#FFADC6" points="113.208,2.017 111.354,18.995 103.121,23.749 105.275,6.597 	"/>
</g>
</svg>
