<?xml version="1.0" encoding="utf-8"?>
<!-- Generator: Adobe Illustrator 16.0.0, SVG Export Plug-In . SVG Version: 6.00 Build 0)  -->
<!DOCTYPE svg PUBLIC "-//W3C//DTD SVG 1.1//EN" "http://www.w3.org/Graphics/SVG/1.1/DTD/svg11.dtd">
<svg version="1.1" id="Layer_1" xmlns="http://www.w3.org/2000/svg" xmlns:xlink="http://www.w3.org/1999/xlink" x="0px" y="0px"
	 width="463.683px" height="425.749px" viewBox="0 0 463.683 425.749" enable-background="new 0 0 463.683 425.749"
	 xml:space="preserve">
<g>
	<g>
		<path fill="#E6F1FF" d="M390.672,64.137l1.726-0.993c0.04-0.029,0.084-0.054,0.129-0.074l0.016-0.009l0.001,0.001
			c0.269-0.112,0.617-0.074,0.998,0.146l15.327,8.849c0.84,0.485,1.527,1.67,1.527,2.634v12.403c0,0.492-0.181,0.833-0.468,0.987
			l0.001,0l-1.85,1.068l-1.908-2.742l-8.877-5.125l-4.212,2.264l1.634-3.752l0.688-1.584l-1.863,0.906
			c-0.84-0.484-1.527-1.67-1.527-2.634V66.064L390.672,64.137z"/>
		<path fill="#DDE8F6" d="M407.021,73.123l-15.327-8.849c-0.84-0.485-1.527-0.093-1.527,0.871v12.403
			c0,0.964,0.688,2.149,1.527,2.634l0,0l1.864-0.906l-0.689,1.583l0,0l-1.634,3.752l4.212-2.264l11.574,6.683
			c0.84,0.484,1.527,0.093,1.527-0.871V75.757C408.548,74.793,407.861,73.607,407.021,73.123z"/>
	</g>
	<polygon fill="#E2ECF9" points="403.818,71.273 407.021,89.031 396.722,83.084 394.187,65.713 	"/>
</g>
</svg>
