<?xml version="1.0" encoding="utf-8"?>
<!-- Generator: Adobe Illustrator 16.0.0, SVG Export Plug-In . SVG Version: 6.00 Build 0)  -->
<!DOCTYPE svg PUBLIC "-//W3C//DTD SVG 1.1//EN" "http://www.w3.org/Graphics/SVG/1.1/DTD/svg11.dtd">
<svg version="1.1" id="Layer_1" xmlns="http://www.w3.org/2000/svg" xmlns:xlink="http://www.w3.org/1999/xlink" x="0px" y="0px"
	 width="463.683px" height="425.749px" viewBox="0 0 463.683 425.749" enable-background="new 0 0 463.683 425.749"
	 xml:space="preserve">
<g>
	<path fill="#DE2164" d="M292.049,26.757l-9.22-15.839l1.799-1.039l0.002,0.001c1.18-0.703,2.825-0.614,4.646,0.438
		c3.59,2.073,6.5,7.093,6.5,11.212c0,1.927-0.637,3.314-1.682,4.035h0.001l-0.003,0.001c-0.126,0.087-0.26,0.164-0.398,0.231
		L292.049,26.757z"/>
	<g>
		<path fill="#F74C6F" d="M280.977,15.063c0,4.119,2.91,9.139,6.5,11.212c3.59,2.072,6.5,0.413,6.5-3.706
			c0-4.12-2.91-9.14-6.5-11.212C283.887,9.283,280.977,10.943,280.977,15.063z"/>
		<path fill="#FF5678" d="M281.169,15.487c0,3.908,2.76,8.669,6.166,10.636c3.405,1.966,6.166,0.392,6.166-3.516
			c0-3.908-2.761-8.67-6.166-10.636C283.929,10.005,281.169,11.579,281.169,15.487z"/>
		<path fill="#FAFAFA" d="M283.063,15.976c0-1.479,1.045-2.074,2.333-1.331c0.641,0.37,1.219,1,1.641,1.722
			c0.422-0.235,1-0.197,1.641,0.172c1.289,0.744,2.333,2.546,2.333,4.025c0,0.051-0.011,0.093-0.013,0.142
			c0.006,0.084,0.013,0.165,0.013,0.258c0,2.344-3.974,3.198-3.974,3.198s-3.974-5.442-3.974-7.786c0-0.094,0.007-0.167,0.013-0.244
			C283.074,16.08,283.063,16.026,283.063,15.976z"/>
	</g>
</g>
<line fill="none" x1="308.871" y1="394.092" x2="296.871" y2="413.592"/>
</svg>
