<?xml version="1.0" encoding="utf-8"?>
<!-- Generator: Adobe Illustrator 16.0.0, SVG Export Plug-In . SVG Version: 6.00 Build 0)  -->
<!DOCTYPE svg PUBLIC "-//W3C//DTD SVG 1.1//EN" "http://www.w3.org/Graphics/SVG/1.1/DTD/svg11.dtd">
<svg version="1.1" id="Layer_1" xmlns="http://www.w3.org/2000/svg" xmlns:xlink="http://www.w3.org/1999/xlink" x="0px" y="0px"
	 width="463.683px" height="425.749px" viewBox="0 0 463.683 425.749" enable-background="new 0 0 463.683 425.749"
	 xml:space="preserve">
<g>
	<path fill="#6A3646" d="M215.287,232.152c0,0-0.758-0.559-1.97,0.95c-1.056,1.315,0.405,4.126,0.834,5.515
		c0.428,1.389,0.086,3.735-2.173,3.978c0.44,1.112,4.055,1.337,4.85,0.792C217.624,242.841,218.787,235.166,215.287,232.152z"/>
	<g>
		<path fill="#D7E4F2" d="M225.994,297.724c-4.041,2.571-10.781,2.85-15.056,0.622c-4.274-2.228-4.463-6.118-0.422-8.689
			c4.041-2.572,10.781-2.851,15.056-0.623C229.845,291.262,230.035,295.152,225.994,297.724z"/>
		<g>
			<path fill="#FFA1A3" d="M217.845,287.084c0,0-1.189,1.028-1.017,1.647s2.557,4.435,3.802,4.872
				c2.591,0.911,1.979-1.456,1.549-1.943c-0.379-0.43-1.889-1.611-1.873-2.73C220.328,287.421,217.845,287.084,217.845,287.084z"/>
			<path fill="#8E8E8E" d="M218.124,290.645c0,0-0.436,0.148-0.44,0.48c-0.005,0.331-0.045,1.579-0.045,1.579
				s-0.292,0.157-0.456,0.08c-0.163-0.076-0.396-0.468-0.396-0.468s-0.231-2.455-0.356-2.953
				C216.304,288.865,218.124,290.645,218.124,290.645z"/>
			<path fill="#C2D2EA" d="M216.707,287.793c0,0,1.739,2.074,2.429,3.444c0.688,1.37,1.435,1.919,1.985,1.896
				c0.879-0.038,1.446-0.58,1.252-1.026c-0.193-0.446-0.193-0.446-0.193-0.446s2.256,2.35,1.97,3.832
				c-0.286,1.481-4.222-0.546-4.823-1.311c-0.229-0.293-0.693-2.434-1.21-3.041c-0.516-0.607-1.314-0.343-1.647-1.588
				C216.134,288.308,216.707,287.793,216.707,287.793z"/>
			<path fill="#8E8E8E" d="M218.004,290.847c0.517,0.607,1.19,2.854,1.421,3.146c0.559,0.712,4.021,2.474,4.727,1.473
				c-0.002,0.009-0.001,0.018-0.003,0.026c-0.286,1.481-4.222-0.546-4.823-1.311c-0.229-0.292-0.693-2.434-1.21-3.041
				c-0.449-0.528-1.355-0.354-1.585-1.387C216.898,290.006,217.63,290.406,218.004,290.847z"/>
		</g>
		<g>
			<path fill="#8E8E8E" d="M213.547,289.592c0,0-0.635-0.19-0.629,0.141c0.006,0.332,0.098,2.398,0.098,2.398
				s-0.146,0.144-0.313,0.072s-0.411-0.455-0.411-0.455s-0.26-2.019-0.25-2.532C212.053,288.606,213.547,289.592,213.547,289.592z"
				/>
			
				<linearGradient id="SVGID_1_" gradientUnits="userSpaceOnUse" x1="-967.3833" y1="238.7578" x2="-962.7192" y2="238.7578" gradientTransform="matrix(0.9991 -0.0431 0.0431 0.9991 1168.75 10.1523)">
				<stop  offset="0.1224" style="stop-color:#FEC7C7"/>
				<stop  offset="0.9694" style="stop-color:#FFADB7"/>
			</linearGradient>
			<path fill="url(#SVGID_1_)" d="M213.372,286.681c0,0-0.947,0.768-0.928,1.754c0.019,0.97,1.239,4.905,2.479,5.356
				c1.24,0.452,2.481-0.354,2.377-0.917c-0.104-0.563-1.205-2.306-1.51-3.686C215.466,287.715,213.372,286.681,213.372,286.681z"/>
			<path fill="#C2D2EA" d="M215.794,288.615c0,0,0.938,1.755,1.346,2.95c0.889,2.606,0.847,3.747,0.655,4.368
				c-0.199,0.648-2.073,0.069-3.403-1.018c-1.525-1.246-0.862-2.742-1.797-4.253c-0.303-0.49-0.584-0.848-0.578-2.017
				c-0.014-0.992,0.865-1.406,0.865-1.406s-0.665,1.007-0.311,1.848c0.178,0.423,0.112,0.605,0.38,1.135
				c0.534,1.053,0.623,2.082,1.39,2.844c0.72,0.714,2.85,0.273,2.792-0.148c-0.107-0.78-0.792-2.097-1.063-2.828
				C215.747,289.219,215.794,288.615,215.794,288.615z"/>
			<path fill="#8E8E8E" d="M212.659,290.551c0.934,1.512,0.229,2.909,1.754,4.155c1.231,1.007,3.036,1.604,3.413,1.13
				c-0.01,0.033-0.021,0.066-0.03,0.098c-0.199,0.648-2.073,0.069-3.403-1.018c-1.525-1.246-0.862-2.742-1.797-4.253
				c-0.198-0.32-0.5-0.639-0.531-1.269C212.234,289.732,212.511,290.313,212.659,290.551z"/>
		</g>
		<g>
			<g>
				<path fill="#4F5997" d="M217.926,265.596c0.227,1.486,1.175,8.586,1.261,9.98c0.03,0.465,0.146,0.939,0.313,1.376
					c0.099,0.256,0.213,0.5,0.336,0.719c0.299,0.526,0.647,0.913,0.938,1.02c0.573,0.206,2.289,0.342,3.16-1.294
					c0.071-0.137,0.14-0.285,0.198-0.446c0.39-8.015-0.719-17.555-0.719-17.555s-3.897,0.3-4.521,0.57
					c-0.469,0.202-0.909,2.461-1.001,4.192C217.864,264.723,217.872,265.231,217.926,265.596z"/>
				<path fill="#4F5997" d="M217.293,288.211c0.074,0.117,0.158,0.228,0.255,0.326c0.781,0.819,2.205,0.99,2.902,0.257
					c0.18-1.837,3.483-11.397,3.483-11.397l-4.065-1.036l-0.058-0.016c0,0-0.125,0.229-0.312,0.607
					c-0.511,1.036-1.481,3.206-1.576,4.918C217.794,284.203,217.319,287.43,217.293,288.211z"/>
				<path fill="#A8B0C2" d="M217.293,288.211c0.074,0.117,0.158,0.228,0.255,0.326c0.22-0.774,0.454-3.071,0.628-5.186
					c0.327-3.982,1.444-4.926,1.659-5.681c0.076-0.262,0.079-0.688,0.033-1.311c-0.09-1.181-0.36-3.069-0.665-5.895
					c-0.469-4.317-0.065-4.685-0.065-4.685s-0.643-1.222-1.246-1.623c-0.028,0.564-0.021,1.073,0.034,1.438
					c0.227,1.486,1.175,8.586,1.261,9.98c0.03,0.465,0.146,0.939,0.313,1.376c-0.511,1.036-1.481,3.206-1.576,4.918
					C217.794,284.203,217.319,287.43,217.293,288.211z"/>
				<path fill="#FEBFBF" d="M222.616,242.202c0,0,1.148-0.115,1.626,1.188c0.478,1.304,0.805,8.874,0.972,9.671
					c0.167,0.798-1.338,2.543-2.386,0.734C221.78,251.985,222.616,242.202,222.616,242.202z"/>
				<path fill="#4F5997" d="M220.234,262.715c0,0,0.181,0.762-0.572,2.059s-1.058,2.404-1.058,2.404s-1.967,9.383-2.568,10.118
					s-2.335,0.806-3.131-1.166c-0.795-1.973-1.381-8.667-1.647-11.784c-0.266-3.118,0.297-4.24,1.41-5.313
					S220.234,262.715,220.234,262.715z"/>
				<path fill="#4F5997" d="M216.036,277.296c0,0-1.604,7.349-0.666,10.476c0,0-1.856,1.434-2.737-0.089
					c-0.395-2.116-1.744-6.241-1.174-8.065s1.155-4.443,1.155-4.443L216.036,277.296z"/>
				<g>
					<path fill="#8C92B0" d="M212.905,288.16l0.233-0.045c-0.01-0.05-0.952-5.031-1.074-6.246c-0.121-1.196,0.573-5.087,0.941-5.677
						l0.013-0.029c0.273-0.929-0.414-6.377-0.767-8.497c-0.384-2.297,0.343-4.659,0.351-4.684l-0.227-0.07
						c-0.007,0.023-0.751,2.441-0.359,4.793c0.409,2.457,1.001,7.536,0.777,8.377c-0.393,0.674-1.093,4.56-0.967,5.811
						C211.951,283.117,212.866,287.955,212.905,288.16z"/>
				</g>
				<path fill="#DDE8F6" d="M211.653,255.064c0.774,3.284,0.854,3.939,0.604,4.531c-0.231,0.561-0.876,0.889-0.644,1.665
					c0.208,0.228,0.447,0.435,0.704,0.615c2.099,1.533,5.678,1.788,7.938,1.128c2.545-0.743,3.317-2.094,3.317-2.094
					c0.021-4.246-0.121-4.865,0.495-7.181c0.528-1.979,1.031-2.192,0.662-3.769c-0.361-1.57-0.604-2.007-0.701-3.518
					c-0.098-1.518-0.381-3.947-0.812-4.146c-0.438-0.198-5.229-2.037-6.501-1.599s-1.966,0.96-2.578,1.281
					c-0.606,0.319-3.092,2.269-3.092,2.269s-0.899,1.388-1.032,3.343c-0.036,0.507,0.006,1.036,0.106,1.594
					C210.388,250.777,211.082,252.634,211.653,255.064z"/>
				<path fill="#ECF1F8" d="M212.258,259.596c-0.231,0.561-0.876,0.889-0.644,1.665c0.208,0.228,0.447,0.435,0.704,0.615
					c0.377-1.487,1.156-3.285,1.14-4.103c-0.016-1.252-1.034-3.951-1.196-5.344c-0.169-1.399,0.807-3.66,0.807-3.66
					s-1.065-0.977-2.715,0.182c-0.087,0.061-0.161,0.135-0.233,0.233c0.267,1.593,0.961,3.449,1.533,5.88
					C212.428,258.349,212.507,259.004,212.258,259.596z"/>
				<path fill="#AF727B" d="M225.431,267.505l-1.338,1.718c-0.27,0.346-0.805,0.302-1.01-0.086
					c-0.501-0.945-1.295-2.504-1.654-3.531c-0.547-1.56-0.42-2.396-0.42-2.396l3.379-3.888c0,0,1.426,3.338,1.48,4.269
					C225.923,264.521,225.954,266.764,225.431,267.505z"/>
				<path fill="#CFD4DD" d="M221.013,263.307c0,0,0.922,0.669,1.101,1.421c0.179,0.751,0.823,1.802,1.017,1.954
					c0.192,0.151,1.154-0.778,1.154-0.778s0.027,0.402,0.17,0.604c0.142,0.203,0.289,1.928,0.416,1.716
					c0.128-0.211,0.428-0.811,0.428-0.811l-0.324-3.065L221.013,263.307z"/>
				<path fill="#B9848C" d="M221.009,263.21c0,0,0.99,0.721,1.589,2.111c0.6,1.391,0.91,1.177,1.279,0.941
					c0.37-0.235,1.855-1.868,2.001-2.448c0.146-0.581-0.949-4.289-0.949-4.289l-0.607-0.094
					C224.322,259.432,223.136,260.66,221.009,263.21z"/>
				<path fill="#E9EBEF" d="M224.337,265.852c0,0,0.152-1.843,0.149-2.143s-1.7-2.593-1.7-2.593l1.333-1.479l0.754,3.311
					c0,0,0.157,1.337,0.143,1.677C225,264.966,224.632,265.586,224.337,265.852z"/>
				<path fill="#FEBFBF" d="M211.652,244.615c0,0,1.498,0.772,1.075,2.599c-0.423,1.827-1.849,3.147-2.596,3.985
					c-0.748,0.837-3.521,4.095-5.257,4.391c-1.737,0.295-2.315-0.807-1.956-1.536c0.359-0.729,4.367-5.149,6.06-7.26
					C210.671,244.684,211.038,244.365,211.652,244.615z"/>
				<path fill="#FEBFBF" d="M205.972,254.197c0,0,0.046-0.057,0.757,1.067c0.711,1.124,3.547,6.087,4.119,6.341
					c0.292-0.115,0.913-0.135,0.987-0.177s0.36-0.721,0.388-0.88c0.028-0.158-0.138-0.688-0.093-0.926s0.341,0.209,0.401,0.463
					c0.06,0.253,0.002,1.315,0.057,1.345c0.055,0.028,2.359,0.243,2.721,0.233c0.362-0.011,1.707,0.439,1.707,0.439
					s0.287,0.398-0.234,0.387c-0.521-0.013-1.674-0.117-1.713-0.113c-0.038,0.004-1.309,0.027-1.309,0.027s1.757,0.681,1.91,0.782
					c0.153,0.102,1.267,0.704,1.324,0.894c0.058,0.188-0.129,0.402-0.452,0.279c-0.324-0.123-1.377-0.642-1.415-0.638
					c-0.039,0.004-1.207-0.242-1.207-0.242l0.148,0.31c0,0,1.977,1.191,2.133,1.318c0.155,0.127-0.185,0.486-0.35,0.399
					c-0.165-0.088-2.476-1.245-2.476-1.245l0.286,0.387c0,0,1.281,0.729,1.321,0.737c0.039,0.009,0.114,0.366-0.351,0.264
					c-0.465-0.104-1.435-0.578-2.05-0.88c-0.615-0.302-1.47-0.346-2.22-0.822c-0.749-0.477-1.089-0.949-1.317-1.537
					c-0.491-0.619-6.446-6.068-6.203-7.612C203.084,253.254,205.972,254.197,205.972,254.197z"/>
				<path fill="#FEBFBF" d="M224.562,265.236c0.03-0.049,0.533-0.837,0.576-1.157c0.046-0.329-0.137-1.688-0.173-2.112
					c-0.034-0.427-0.708-2.658-0.759-3.659c-0.046-1.001,0.014-2.97,0.014-2.97l0.486-0.477c0,0-0.753-0.249-0.833-1.295
					c-0.016-0.2-0.087-0.207-0.195-0.088c-0.284,0.463-0.399,1.175-0.393,2.113c0.014,1.853,1.462,7.475,1.583,7.999
					C224.972,264.044,224.703,264.711,224.562,265.236z"/>
				<path fill="#E6F1FF" d="M208.016,248.415c0,0,1.12,0.8,1.698,1.215c0.579,0.415,1.135,0.788,1.135,0.788l-0.318,0.347
					c0,0,0.547,0.2,0.857,0.187c0.311-0.014,1.777-2.309,1.834-2.436c0.056-0.127,0.388-2.343-0.952-3.957
					c-0.609-0.545-1.014-0.436-1.227-0.311c-0.213,0.126-3.378,3.96-3.378,3.96L208.016,248.415z"/>
				<path fill="#FEBFBF" d="M224.503,265.481c-0.101,0.546,0.238,0.979,0.238,0.979l0.194,1.938c0,0,0.147,0.437,0.382,0.342
					c0.231-0.092,0.193-0.468,0.193-0.468s0.507-0.485,0.592-0.511c0.082-0.024,0.653-0.378,0.635-0.566
					c-0.019-0.188-0.188-1.696-0.403-2.817c-0.217-1.121-0.104-3.264-0.178-6.581c-0.073-3.318-0.636-4.093-0.774-4.424
					c-0.14-0.333-0.362-0.519-0.362-0.519c-0.636-0.039-1.069,0.176-1.342,0.623c-0.284,0.463-0.399,1.175-0.393,2.113
					c0.014,1.853,1.462,7.475,1.583,7.999c0.104,0.453-0.166,1.12-0.307,1.646c-0.002,0.002-0.002,0.002-0.002,0.002
					C224.538,265.324,224.517,265.405,224.503,265.481z"/>
				<path fill="#FEBFBF" d="M225.889,266.446c0,0-0.095,0.542-0.025,0.652c0.069,0.109,0.301,0.274,0.301,0.274
					s-0.155,0.016-0.28,0.061c-0.125,0.046-0.169,0.648-0.169,0.648s-0.03-0.635-0.014-0.851
					C225.719,267.016,225.763,266.615,225.889,266.446z"/>
			</g>
			<g>
				<path fill="#FEBFBF" d="M215.817,240.874c-0.133,0.007-0.479,0.517-1.072,0.81c-0.594,0.293-0.612,0.373,0.104,1.029
					c0.715,0.655,3.26,3.582,4.88,3.237s1.539-1.921,1.477-2.552c-0.063-0.63-1.026-2.066-1.339-2.203
					C219.553,241.058,215.817,240.874,215.817,240.874z"/>
				
					<linearGradient id="SVGID_2_" gradientUnits="userSpaceOnUse" x1="3824.1382" y1="55.5752" x2="3821.0842" y2="52.8805" gradientTransform="matrix(-0.995 0.1 0.1 0.995 4014.9136 -195.8364)">
					<stop  offset="0.1224" style="stop-color:#FEC7C7"/>
					<stop  offset="0.9694" style="stop-color:#FFADB7"/>
				</linearGradient>
				<path fill="url(#SVGID_2_)" d="M220.278,240.646c0,0-0.283,0.666-0.223,1.27c0.061,0.605,0.396,1.61,0.396,1.61
					s-0.371,0.713-1.849,0.55c-1.478-0.164-1.529-0.678-1.997-0.943c-0.468-0.264-1.673-1.479-1.598-1.564
					c0.076-0.085,1.301-0.694,0.83-2.449c-0.47-1.756-1.164-2.664-1.164-2.664s-0.41-0.738,0.103-0.789
					C215.289,235.614,220.278,240.646,220.278,240.646z"/>
				
					<linearGradient id="SVGID_3_" gradientUnits="userSpaceOnUse" x1="3819.2153" y1="55.3896" x2="3822.5659" y2="55.3896" gradientTransform="matrix(-0.995 0.1 0.1 0.995 4014.9136 -195.8364)">
					<stop  offset="0.1224" style="stop-color:#FCA4B5"/>
					<stop  offset="0.9896" style="stop-color:#FFADB7"/>
				</linearGradient>
				<path fill="url(#SVGID_3_)" d="M216.826,239.808c0,0,1.26,1.177,1.526,1.773c0.266,0.597,1.49,1.409,1.49,1.409l0.206-1.324
					l0.229-1.02L216.826,239.808z"/>
				<path fill="#FEC7C7" d="M220.626,232.48c0,0,0.537,0.427,0.887,1.326c0.351,0.9,0.597,1.668,0.573,1.826
					c-0.022,0.158-0.157,0.496,0.05,1.139c0.207,0.641-0.444,3.851-1.141,4.167c-0.695,0.317-3.908-0.764-4.266-1.222
					c-0.358-0.457-1.272-2.313-1.385-3.563c-0.112-1.248-0.479-2.706,1.328-3.459S220.626,232.48,220.626,232.48z"/>
				<g>
					
						<linearGradient id="SVGID_4_" gradientUnits="userSpaceOnUse" x1="3818.2026" y1="51.4619" x2="3817.3801" y2="51.5371" gradientTransform="matrix(-0.995 0.1 0.1 0.995 4014.9136 -195.8364)">
						<stop  offset="0.1224" style="stop-color:#FEC7C7"/>
						<stop  offset="0.9896" style="stop-color:#FFDBDB"/>
					</linearGradient>
					<path fill="url(#SVGID_4_)" d="M221.042,235.976c-0.068,0.354,0.848,1.8,0.889,2.122s-0.865,0.301-0.865,0.301L221.042,235.976
						z"/>
					
						<linearGradient id="SVGID_5_" gradientUnits="userSpaceOnUse" x1="3817.2671" y1="51.498" x2="3818.2134" y2="51.498" gradientTransform="matrix(-0.995 0.1 0.1 0.995 4014.9136 -195.8364)">
						<stop  offset="0.188" style="stop-color:#FFDCDC"/>
						<stop  offset="0.8991" style="stop-color:#FEC7C7"/>
					</linearGradient>
					<path fill="url(#SVGID_5_)" d="M221.24,238.444c0.215-0.01,0.558-0.047,0.688-0.19c0.042-0.047,0.06-0.102,0.052-0.162
						c-0.018-0.143-0.183-0.465-0.374-0.837c-0.246-0.481-0.553-1.079-0.516-1.27l-0.094-0.019
						c-0.043,0.223,0.245,0.787,0.524,1.331c0.179,0.351,0.349,0.681,0.363,0.806c0.005,0.033-0.004,0.061-0.028,0.086
						c-0.129,0.145-0.614,0.164-0.789,0.161l-0.002,0.096C221.084,238.447,221.151,238.448,221.24,238.444z"/>
				</g>
				<g>
					<path fill="#754554" d="M218.523,236.095c1.09-0.312,1.887-0.185,1.895-0.183l0.025-0.157c-0.033-0.007-0.84-0.135-1.964,0.187
						L218.523,236.095z"/>
				</g>
				<g>
					<path fill="#754554" d="M221.315,235.77c0.222-0.155,0.594-0.359,0.715-0.334l0.033-0.156c-0.233-0.048-0.74,0.289-0.839,0.358
						L221.315,235.77z"/>
				</g>
				
					<ellipse transform="matrix(-0.9604 0.2786 -0.2786 -0.9604 496.1019 402.9711)" fill="#FFFFFF" cx="219.422" cy="236.73" rx="0.337" ry="0.288"/>
				
					<ellipse transform="matrix(-0.6998 -0.7143 0.7143 -0.6998 207.7618 559.9427)" fill="#FFFFFF" cx="221.528" cy="236.319" rx="0.237" ry="0.272"/>
				<path fill="#FB7F9E" d="M220.037,239.541c0,0,0.923-0.32,1.295-0.37c0.371-0.051,0.397,0.077,0.371,0.203
					S221.099,240.415,220.037,239.541z"/>
				<path fill="#754554" d="M214.886,236.634c0,0,0.294-0.38,0.515-0.252s0.634,0.301,0.651,0.475
					c0.018,0.173,0.177,1.112,0.177,1.112s0.397-0.696,0.328-1.391c-0.07-0.694,0.145-1.664,0.426-2.096
					c0.281-0.43,0.565-1.096,1.23-1.201s1.587,0.022,2.128-0.02c0.542-0.041,0.763-0.234,0.763-0.234l0.488,0.984
					c0,0-0.03-0.492-0.332-1.041c-0.302-0.55-2.502-3.057-5.588-1.318c-2.267,1.099-2.118,3.617-1.767,4.529
					c0.352,0.913,1.42,1.723,1.528,2.004c0.109,0.279,0.403,0.674,0.403,0.934c0.001,0.26-0.128-0.975-0.348-1.498
					C215.271,237.097,214.886,236.634,214.886,236.634z"/>
				
					<linearGradient id="SVGID_6_" gradientUnits="userSpaceOnUse" x1="3823.0054" y1="51.2842" x2="3824.5464" y2="51.2842" gradientTransform="matrix(-0.995 0.1 0.1 0.995 4014.9136 -195.8364)">
					<stop  offset="0.1224" style="stop-color:#FEB9B8"/>
					<stop  offset="1" style="stop-color:#FFDEDE"/>
				</linearGradient>
				<path fill="url(#SVGID_6_)" d="M215.712,236.838c0,0-0.794-0.797-1.082-0.17s0.349,1.336,0.76,1.678s0.713,0.435,0.83,0.247
					c0.117-0.187-0.191-0.87-0.191-0.87L215.712,236.838z"/>
				<circle fill="#EFF0F5" cx="216.048" cy="238.567" r="0.161"/>
				
					<linearGradient id="SVGID_7_" gradientUnits="userSpaceOnUse" x1="3823.2534" y1="51.1807" x2="3824.3218" y2="51.1807" gradientTransform="matrix(-0.995 0.1 0.1 0.995 4014.9136 -195.8364)">
					<stop  offset="0.1224" style="stop-color:#FCA4B5"/>
					<stop  offset="0.9896" style="stop-color:#FFADB7"/>
				</linearGradient>
				<path fill="url(#SVGID_7_)" d="M215.597,236.85c0,0-0.507-0.455-0.719-0.103c-0.211,0.353-0.032,0.971,0.504,1.488
					c0.516,0.188,0.591-0.033,0.584-0.098c-0.006-0.064-0.204-0.351-0.229-0.604C215.711,237.28,215.597,236.85,215.597,236.85z"/>
			</g>
		</g>
	</g>
	<path fill="#DDE8F6" d="M212.292,263.941c-0.009-0.057-0.068-0.239-0.163-0.511c0.006,0.141,0.037,0.261,0.086,0.367
		C212.251,263.88,212.278,263.924,212.292,263.941z"/>
</g>
</svg>
