<?xml version="1.0" encoding="utf-8"?>
<!-- Generator: Adobe Illustrator 16.0.0, SVG Export Plug-In . SVG Version: 6.00 Build 0)  -->
<!DOCTYPE svg PUBLIC "-//W3C//DTD SVG 1.1//EN" "http://www.w3.org/Graphics/SVG/1.1/DTD/svg11.dtd">
<svg version="1.1" id="Layer_1" xmlns="http://www.w3.org/2000/svg" xmlns:xlink="http://www.w3.org/1999/xlink" x="0px" y="0px"
	 width="463.683px" height="425.749px" viewBox="0 0 463.683 425.749" enable-background="new 0 0 463.683 425.749"
	 xml:space="preserve">
<g>
	<g>
		<path fill="#D7E4F2" d="M317.47,306.045c-4.385-2.79-11.699-3.093-16.337-0.676c-4.638,2.418-4.843,6.64-0.458,9.43
			c4.385,2.791,11.699,3.093,16.337,0.676C321.65,313.057,321.855,308.836,317.47,306.045z"/>
		<path fill="#626170" d="M299.729,310.006c0,0-0.284,0.447-0.327,0.809c-0.042,0.361-0.114,0.969-0.114,0.969
			s0.517,0.523,1.57,0.57s1.557-0.461,1.804-0.765c0.248-0.304,0.497-0.62,0.497-0.62l0.19-0.638c0,0,0.597-0.811,0.84-0.917
			c0.244-0.105,0.779-0.235,1.098-0.486c0.318-0.252,1.03-0.746,1.404-1.222c0.375-0.476,0.514-0.999,0.531-1.15
			c0.019-0.152,0.108-0.632-0.401-0.784C306.312,305.62,299.729,310.006,299.729,310.006z"/>
		<path fill="#626170" d="M309.8,311.481c0,0-0.547,0.07-0.611,0.448c-0.063,0.377-0.077,0.818-0.114,0.969
			c-0.036,0.149,0.384,0.834,1.401,0.858c1.018,0.023,2.333-0.515,2.333-0.515l0.396-0.257c0,0,0.702-0.403,1.286-0.296
			c0.585,0.107,1.133,0.037,2.115-0.137c0.984-0.172,1.928-0.831,2.213-1.125s0.519-0.479,0.662-0.712
			c0.143-0.233,0.037-1.132,0.037-1.132l-0.401-0.574L309.8,311.481z"/>
		<path fill="#E9F0F9" d="M298.72,253.323c0,0-1.456,0.218-2.02,0.47c-0.564,0.251-1.822,1.244-2.282,2.938
			s0.602,4.725,1.273,10.826c0.089,0.813,0.985,3.302,2.159,6.579c0.333,0.93,2.231,0.841,2.59,0.575
			c0.359-0.267-0.464-14.689-0.464-14.689L298.72,253.323z"/>
		<path fill="#A8B0C2" d="M295.835,260.186l1.371,5.361l1.055,4.169l0.667,3.122l0.185,2.031l1.328-0.158
			c0,0-0.574-8.851-0.557-9.002C299.902,265.557,295.835,260.186,295.835,260.186z"/>
		<path fill="#504F60" d="M302.507,306.365c0,0,1.949-0.849,2.283-0.905c0.334-0.058,1.023-0.188,1.613,0.036
			s0.647,0.712,0.632,0.845s-0.21,0.804-0.847,1.306c-0.637,0.503-1.878,1.224-2.165,1.536c-0.287,0.313-1.758,2.008-2.104,2.159
			c-0.345,0.152-1.736,0.027-2.089-0.246c-0.354-0.272-0.338-0.405-0.338-0.405s-0.03-2.026,0.053-2.401
			C299.628,307.914,302.507,306.365,302.507,306.365z"/>
		<path fill="#4F5997" d="M303.908,308.207c-0.111,0.314-0.437,0.65-0.825,0.922c-0.406,0.285-0.884,0.501-1.254,0.546
			c-0.724,0.089-2.338-0.102-2.364-0.529c-0.027-0.426-0.331-12.557,0.443-15.854c0.773-3.3,0.633-5.049,0.656-7.203
			c0.022-2.154-0.972-5.16-1.226-8.232c-0.253-3.074,0.434-5.925,0.434-5.925l6.972,0.287c0,0,0.732,7.025,0.875,9.969
			c0.025,0.518,0.032,0.909,0.014,1.113c-0.122,1.372-2.102,8.689-3.006,13.743C303.723,302.099,304.138,307.559,303.908,308.207z"
			/>
		<g>
			<path fill="#8C92B0" d="M303.136,309.008c-0.003-0.033-0.063-0.842,0.034-3.937c0.065-2.138,0.464-4.794,0.755-6.733
				c0.135-0.901,0.241-1.613,0.279-2.034c0.089-1.002,0.594-2.866,1.293-5.446c0.237-0.876,0.495-1.828,0.764-2.845
				c1.016-3.851,0.211-5.457,0.203-5.473l0.219-0.116c0.035,0.067,0.862,1.691-0.184,5.652c-0.268,1.018-0.526,1.97-0.764,2.846
				c-0.695,2.568-1.198,4.424-1.285,5.404c-0.038,0.429-0.146,1.143-0.281,2.049c-0.29,1.933-0.687,4.58-0.753,6.703
				c-0.095,3.074-0.034,3.902-0.034,3.91L303.136,309.008z"/>
		</g>
		<path fill="#A8B0C2" d="M303.908,308.207c-0.111,0.314-0.437,0.65-0.825,0.922c-0.182-3.278,0.823-9.972,0.836-11.63
			c0.013-1.81,2.172-9.276,2.172-9.276s0.096-2.04-0.234-2.917s-1.784-2.758-1.784-2.758l0.057-0.479l2.832-1.235
			c0,0,0.298,0.493,0.658,1.354c0.025,0.518,0.032,0.909,0.014,1.113c-0.122,1.372-2.102,8.689-3.006,13.743
			C303.723,302.099,304.138,307.559,303.908,308.207z"/>
		<path fill="#504F60" d="M313.387,308.014c0,0,3.502,0.355,4.103,0.483c0.602,0.129,0.973-0.077,1.449,0.286
			c0.477,0.365,0.25,1.475,0.229,1.646c-0.02,0.171-1.018,1.118-1.549,1.217c-0.531,0.098-4.282,0.715-4.282,0.715
			s-2.599,0.638-2.94,0.598c-0.342-0.041-1.009-0.428-0.979-0.848s0.255-2.165,0.255-2.165L313.387,308.014z"/>
		<path fill="#4F5997" d="M303.295,273.699c0,0-2.033,7.425,1.124,9.068c1.714,0.818,2.654,1.767,3.342,4.429
			s1.775,6.536,1.605,7.595c-0.17,1.058-0.47,4.913-0.037,9.086c0.433,4.172,0.165,6.438,0.313,6.828
			c0.146,0.39,3.056,1.195,4.07-0.227c0.794-1.178,0.78-11.193,1.175-14.537c0.394-3.343,0.031-12.36-0.554-15.896
			c-0.585-3.536-2.374-6.794-2.275-8.088C312.156,270.665,303.295,273.699,303.295,273.699z"/>
		<g>
			<path fill="#8C92B0" d="M313.131,311.047l-0.248-0.003c0.01-0.912,0.815-12.927,1.173-17.276
				c0.377-4.602,0.037-10.371-0.407-14.236c-0.486-4.229-1.872-5.725-1.886-5.74l0.178-0.17c0.06,0.061,1.456,1.557,1.954,5.882
				c0.445,3.877,0.786,9.665,0.407,14.286C313.945,298.135,313.14,310.137,313.131,311.047z"/>
		</g>
		<g>
			<path fill="#8C92B0" d="M309.099,285.498l-0.061-0.025c-0.256-0.105-2.507-1.04-2.785-1.313c-0.198-0.193-1.71-4.582-1.532-4.908
				c0.063-0.115,0.214-0.121,1.011-0.134c1.199-0.019,3.432-0.052,5.514-0.705l0.143-0.045l0.018,0.148
				c0.019,0.161,0.455,3.965,0.382,4.58c-0.074,0.632-2.207,2.081-2.634,2.365L309.099,285.498z M304.939,279.396
				c0.033,0.487,1.269,4.355,1.488,4.588c0.179,0.176,1.69,0.84,2.645,1.234c0.954-0.639,2.424-1.758,2.47-2.151
				c0.063-0.521-0.283-3.653-0.365-4.375c-2.074,0.622-4.256,0.655-5.44,0.673C305.388,279.371,305.059,279.375,304.939,279.396z
				 M304.903,279.405L304.903,279.405L304.903,279.405z"/>
		</g>
		<g>
			<path fill="#8C92B0" d="M301.011,282.921l-0.339-0.04c-0.123-0.015-0.2-0.076-0.205-0.166c0-0.002,0-0.006,0-0.01l-0.937-0.986
				l-0.003-0.044l-0.391-5.378l0.232,0.227c0.008,0.007,0.76,0.734,1.427,0.998l0.069,0.027l0.009,0.072
				c0.133,1.121,0.56,4.14,0.925,4.637l0.111,0.152l-0.184,0.042c-0.532,0.122-0.792,0.205-0.918,0.255L301.011,282.921z
				 M299.771,281.613l0.857,0.903c0.142-0.07,0.403-0.153,0.884-0.269c-0.418-0.902-0.81-3.996-0.875-4.525
				c-0.463-0.199-0.936-0.574-1.208-0.812L299.771,281.613z"/>
		</g>
		<path fill="#A76478" d="M312.137,272.698c0,0-0.713,1.391-3.694,1.935c-2.982,0.544-7.015-1.377-8.772-2.219
			c-0.188,1.161-0.188,1.161-0.188,1.161s0.874,1.289,3.58,2.099c2.707,0.811,5.479,0.964,7.397,0.063
			c1.917-0.901,2.133-1.55,2.104-1.636C312.534,274.017,312.137,272.698,312.137,272.698z"/>
		<path fill="#4F5997" d="M310.538,273.825l-0.626,0.213c0,0,0.421,1.339,0.393,1.769s-0.028,0.43-0.028,0.43l0.71-0.303
			l-0.016-0.451C310.97,275.482,310.78,274.032,310.538,273.825z"/>
		<path fill="#4F5997" d="M303.27,273.806c0,0-0.495,0.872-0.528,1.157c-0.033,0.284-0.125,1.063-0.125,1.063l-0.516-0.206
			c0,0,0.115-0.811,0.117-0.99s0.607-1.206,0.607-1.206L303.27,273.806z"/>
		<path fill="#FEC7C7" d="M318.073,258.328c0,0-1.236-2.212-1.279-2.366s-0.312-0.279-0.312-0.279l-0.465-0.091
			c0,0-0.56,0.023-0.644,0.08s-0.255,0.111-0.255,0.111s-0.409-0.152-0.594,0.046s-0.574,0.399-0.574,0.399s-0.77,0.275-0.739,0.573
			s0.357,1.545,0.997,1.713s1.992,1.029,1.992,1.029L318.073,258.328z"/>
		<path fill="#504F60" d="M318.253,258.38c0,0-0.312-0.485-0.431-0.502c-0.12-0.017-0.714-0.356-1.139-0.309
			s-1.09,0.187-1.292,0.399s-0.719,0.728-0.783,1.049c-0.064,0.322,0.191,1.03,0.191,1.03s0.928-1.359,1.122-1.362
			c0.195-0.004,1.013-0.086,1.198-0.307C317.305,258.157,318.253,258.38,318.253,258.38z"/>
		<path fill="#504F60" d="M317.305,258.07c0.051,0.269-0.336,0.538-0.863,0.602c-0.527,0.064-0.996-0.104-1.046-0.372
			c-0.051-0.27,0.336-0.539,0.863-0.603S317.255,257.801,317.305,258.07z"/>
		<path fill="#504F60" d="M317.248,257.761c0.051,0.27-0.336,0.539-0.863,0.603s-0.996-0.104-1.047-0.373
			c-0.05-0.269,0.337-0.539,0.864-0.602C316.728,257.324,317.197,257.491,317.248,257.761z"/>
		<path fill="#EFF0F5" d="M317.064,257.782c0.04,0.218-0.271,0.437-0.697,0.487s-0.805-0.084-0.845-0.301
			c-0.041-0.218,0.271-0.436,0.697-0.487C316.645,257.431,317.023,257.565,317.064,257.782z"/>
		<path fill="#DDE8F6" d="M312.626,259.729c0,0,0.178-2.983-0.267-3.383c-0.444-0.398-4.312-1.403-4.825-1.955
			c-0.513-0.552-1.513-1.623-1.513-1.623l-5.3-0.624c0,0-1.133,0.79-1.46,0.868c-0.327,0.076-2.749,0.773-3.486,1.64
			s-0.602,4.609,0.094,6.309c0.695,1.7,2.749,5.842,2.964,6.474s0.214,3.088,0.724,4.158c0.509,1.072,2.76,2.319,5.552,2.648
			c2.793,0.329,6.35,0.055,6.855-1.792c0.314-1.437,0.15-2.987,0.15-2.987s0.28-4.589,0.192-6.044
			C312.218,261.963,312.626,259.729,312.626,259.729z"/>
		<path fill="#FEC7C7" d="M301.042,251.815c0,0,0.624-1.294,0.681-2.02c0.057-0.725-0.421-2.226-0.421-2.226
			s1.557-4.468,4.214-4.703c2.656-0.236,3.926-1.281,4.066-0.186s0.155,2.6,0.095,3.112s-0.282,1.257-0.316,1.542
			c-0.033,0.285-0.32,2.062-0.651,3.081c-0.333,1.021-0.612,1.431-0.612,1.431l-1.323,0.113c0,0-0.31,1.193-0.372,1.362
			S301.042,251.815,301.042,251.815z"/>
		<path fill="#754554" d="M307.994,247.795c0,0,0.425-0.801-0.188-1.162s-1.263,0.256-1.522,0.494
			c-0.259,0.239-0.437,1.586-0.831,1.828s-1.676,0.65-1.676,0.65s-1.743-0.011-2.082-0.36c-0.338-0.349-1.161-2.025-1.254-2.71
			c-0.093-0.686-0.814-4.525,2.083-5.744c1.748-1.759,4.195-0.95,4.949-0.649s2.584,1.768,2.47,2.409
			c-0.113,0.642-0.259,1.36-0.259,1.36l-0.213,1.666c0,0-0.527,0.554-0.55,0.744c-0.022,0.189-0.432,1.532-0.432,1.532
			L307.994,247.795z"/>
		
			<linearGradient id="SVGID_1_" gradientUnits="userSpaceOnUse" x1="311.5718" y1="250.5547" x2="313.1418" y2="248.8902" gradientTransform="matrix(1 0.0016 -0.0016 1 -4.6188 -2.4534)">
			<stop  offset="0.1224" style="stop-color:#FEB9B8"/>
			<stop  offset="1" style="stop-color:#FFDEDE"/>
		</linearGradient>
		<path fill="url(#SVGID_1_)" d="M307.903,247.115c0,0,0.48-0.887,0.035-0.949c-0.445-0.062-0.755,0.518-0.881,0.937
			s-0.142,0.629-0.051,1.005c0.09,0.377,0.106,0.813,0.253,0.877c0.146,0.066,0.361-0.207,0.389-0.444
			C307.676,248.303,307.903,247.115,307.903,247.115z"/>
		<path fill="#E9F0F9" d="M301.957,251.35c0,0-0.555-0.065-0.642-0.191c-0.086-0.125-0.086-0.125-0.086-0.125
			s-0.444,0.092-0.463,0.248c-0.019,0.157-0.483,1.287-0.483,1.287s1.061,0.559,2.523,0.644c1.463,0.086,2.909,0.198,3.037,0.214
			s1.246,0.486,1.246,0.486s-0.017-1.482-0.109-1.551c-0.093-0.069-1.307-0.559-1.307-0.559L301.957,251.35z"/>
		<path fill="#A8B0C2" d="M311.649,273.057c0,0,0.38-4.01,0.252-4.892c-0.127-0.882-0.307-2.059-0.307-2.059l-1.26-1.149
			c0,0-0.508-2.295-0.646-2.805c-0.139-0.508,2.61,0.514,2.61,0.514l0.046,1.738l-0.2,4.541l0.013,1.469l-0.15,1.828
			C312.006,272.242,311.899,272.799,311.649,273.057z"/>
		<path fill="#E9F0F9" d="M312.36,256.346c0,0-1.545-0.409-2.435,2.166c-0.889,2.574-0.218,3.359,1.277,4.389
			c1.495,1.031,8.393,5.728,9.938,4.342c0.959-1.147,0.833-2.439,0.603-3.107c-0.231-0.668-1.741-1.721-2.117-1.892
			c-0.376-0.17-4.012-3.227-4.962-3.949C313.712,257.57,312.36,256.346,312.36,256.346z"/>
	</g>
	<path fill="#E9F0F9" d="M321.14,267.242c0,0,1.026-0.473,1.086-1.835s-0.01-1.609-0.559-2.768c-0.55-1.159-3.366-4.26-3.366-4.26
		s-0.774-0.604-1.583-0.279s-1.359,0.938-1.329,1.533S320.08,266.759,321.14,267.242z"/>
</g>
</svg>
