<?xml version="1.0" encoding="utf-8"?>
<!-- Generator: Adobe Illustrator 16.0.0, SVG Export Plug-In . SVG Version: 6.00 Build 0)  -->
<!DOCTYPE svg PUBLIC "-//W3C//DTD SVG 1.1//EN" "http://www.w3.org/Graphics/SVG/1.1/DTD/svg11.dtd">
<svg version="1.1" id="Layer_1" xmlns="http://www.w3.org/2000/svg" xmlns:xlink="http://www.w3.org/1999/xlink" x="0px" y="0px"
	 width="463.683px" height="425.749px" viewBox="0 0 463.683 425.749" enable-background="new 0 0 463.683 425.749"
	 xml:space="preserve">
<g>
	<path fill="#D7E4F2" d="M173.672,300.346c3.746,2.162,9.838,2.151,13.608-0.024c3.769-2.177,3.788-5.694,0.042-7.856
		s-9.838-2.151-13.608,0.024C169.945,294.666,169.926,298.183,173.672,300.346z"/>
	<path id="XMLID_77_" fill="#FEBFBF" d="M195.587,255.642c0,0,0.109,0.376,0.04,0.735c-0.067,0.357-0.921,1.498-1.615,1.775
		c-0.046,0.019-1.558,0.388-1.607,0.395c-0.691,0.075-1.64-1.092-1.64-1.092s1.269-1.229,1.367-1.469
		c0.034-0.082-0.028-0.188-0.039-0.271c-0.016-0.108-0.047-0.209-0.097-0.307c-0.086-0.169-0.289-0.345-0.253-0.532
		c0.009-0.049,0.034-0.098,0.082-0.148c0.149-0.159,0.376-0.077,0.538,0.02c0.182,0.106,0.241,0.292,0.341,0.472
		c0.076,0.139,0.162,0.283,0.3,0.359c0.066,0.036,0.178,0.033,0.254,0.042c0.086,0.011,0.174,0.012,0.262,0.005
		c0.18-0.016,1.176-0.272,1.295-0.417c0.204-0.251,0.416-0.396,0.416-0.396s0.394,0.088,0.39,0.199
		C195.617,255.122,195.587,255.642,195.587,255.642z"/>
	<g>
		<path fill="#D692A6" d="M171.215,266.123l-1.437-9.711c-0.137-0.973-0.104-1.943,0.096-2.891l1.814-8.582l2.984,0.631
			l-1.813,8.582c-0.127,0.6-0.148,1.214-0.062,1.824l1.435,9.701L171.215,266.123z"/>
	</g>
	
		<ellipse transform="matrix(-0.9958 0.091 -0.091 -0.9958 371.272 473.8237)" fill="#D692A6" cx="174.83" cy="245.379" rx="3.245" ry="2.512"/>
	<path fill="#504F60" d="M182.069,295.953l2.397,0.777c0,0,2.488,0.426,2.95,0.731c0.461,0.305,0.578,0.825,0.206,1.266
		s-2.118,1.01-4.386,1.093c-2.269,0.084-3.32,0.635-4.115,0.226c-0.796-0.409-0.512-1.978-0.512-1.978s-0.199-0.443,0.333-1.068
		C179.475,296.375,182.069,295.953,182.069,295.953z"/>
	<path fill="#504F60" d="M172.879,294.25c0.06,0.686,0,0.688,0,0.688s-0.031,0.657,0.47,0.876c0.5,0.219,1.501,0.438,2.127-0.156
		c0.626-0.595,0.688-1.001,1.658-1.658c0.97-0.656,0.532-2.314,0.375-2.722c-0.156-0.406-2.408,0.125-2.596,0.282
		C174.725,291.716,172.775,293.051,172.879,294.25z"/>
	<path fill="#975F5F" d="M184.646,281.445l-0.035,0.2l-2.076,15.627l-3.423-0.399l-0.66-0.078l1.625-15.401L180,280.673
		l-0.139-1.382c0,0-0.008-0.009-0.008-0.018l-1.321-12.69l1.85-0.165l3.084-0.278l0.035,0.47l1.121,14.567l0.018,0.155
		L184.646,281.445z"/>
	<path fill="#975F5F" d="M182.536,297.272c0,0-0.6,0.8-2.528,0.8c-0.452,0-0.773-0.07-1.007-0.174
		c-0.765-0.356-0.547-1.104-0.547-1.104l0.712-0.33l1.32-0.617L182.536,297.272z"/>
	<polygon fill="#975F5F" points="178.375,277.319 178.349,277.555 176.56,293.789 175.161,293.65 172.329,293.372 173.702,277.381 
		173.632,276.824 172.233,266.635 171.981,264.776 176.907,264.159 177.159,266.436 177.941,273.445 177.967,273.706 
		178.34,277.041 	"/>
	<path fill="#975F5F" d="M184.638,281.332c-0.009,0.062-0.018,0.122-0.026,0.184c-0.121,0.677-1.077,0.973-2.067,0.938
		c-0.816-0.035-1.65-0.295-2.05-0.756c-0.156-0.182-0.321-0.547-0.495-1.024c-0.539-1.521-1.095-4.204-1.477-5.786
		c-0.018-0.069-0.035-0.121-0.044-0.173c-0.026-0.096-0.043-0.183-0.069-0.27c-0.009-0.009-0.009-0.018-0.009-0.018
		c-0.13-0.53-0.243-0.851-0.304-0.825c-0.035,0.009-0.078,0.043-0.13,0.104c-0.157,0.174-0.391,0.547-0.678,1.017
		c-1.051,1.771-2.753,4.795-3.5,2.597c-0.018-0.061-0.043-0.121-0.061-0.183c0,0,0,0,0-0.008c-0.035-0.096-0.069-0.2-0.095-0.305
		c-1.355-4.291-1.781-10.163-1.781-10.163s0.139-0.009,0.382-0.026c0.808-0.043,2.78-0.156,4.925-0.199
		c1.069-0.026,2.189-0.035,3.223-0.018c1.216,0.018,2.319,0.069,3.119,0.191c0.782,0.112,1.277,0.286,1.286,0.538
		C184.864,268.45,185.055,278.475,184.638,281.332z"/>
	<path fill="#975F5F" d="M176.56,293.789c0,0-0.382,0.513-1.52,0.721c-0.287,0.044-0.617,0.079-1.008,0.079
		c-1.928,0-1.703-1.217-1.703-1.217l2.172-1.008l0.764,0.53L176.56,293.789z"/>
	<path fill="#CCD1DC" d="M178.375,277.319l-0.026,0.235l-1.79,16.234c0,0-0.382,0.513-1.52,0.721
		c0.043-0.26,0.078-0.547,0.122-0.859c0.035-0.234,0.069-0.495,0.104-0.756c0.738-5.264,2.163-14.628,2.259-15.254
		c0.069-0.434-0.07-1.736-0.235-2.918c-0.156-1.174-0.33-2.232-0.33-2.232l0.982,0.955l0.156,0.156
		c-0.035,0.009-0.078,0.043-0.13,0.104l0.374,3.335L178.375,277.319z"/>
	<path fill="#CCD1DC" d="M183.205,282.176c0,0-0.295,0.139-0.66,0.277c-0.443,0.166-0.99,0.321-1.26,0.209
		c-0.486-0.2-0.486-0.2-0.486-0.2s-1.112,9.32-1.633,14.003c-0.018,0.139-0.035,0.277-0.052,0.408
		c-0.043,0.382-0.078,0.729-0.113,1.025c-0.765-0.356-0.547-1.104-0.547-1.104l1.625-15.401L180,280.673
		c-0.539-1.521-1.095-4.204-1.477-5.786c0.234,0.86,0.773,2.771,1.329,4.387c0,0.009,0.008,0.018,0.008,0.018
		c0.452,1.303,0.921,2.398,1.268,2.589C182.041,282.401,183.205,282.176,183.205,282.176z"/>
	<path fill="#C98398" d="M186.414,259.252c-0.206,2.834-0.375,6.117-0.305,9.801c-0.109,0.333-0.287,0.625-0.519,0.877
		c-0.159,0.174-0.345,0.328-0.555,0.467c-2.358,1.592-7.682,1.208-11.472-0.678c-1.823-0.909-2.247-1.891-2.247-1.891
		s1.261-9.963,0.65-16.83c0,0-0.632-6.543,1.524-7.684c1.814-0.961,3.778-0.444,7.289,1.229c3.466,1.654,5.109,2.934,5.498,3.339
		c0.426,0.441,0.615,1.284,0.666,2.476C187.032,252.436,186.689,255.438,186.414,259.252z"/>
	<path fill="#CCD1DC" d="M186.109,269.053c-0.109,0.333-0.287,0.625-0.519,0.877c-0.159,0.174-0.345,0.328-0.555,0.467
		c0.46-9.594-1.391-17.827-1.438-18.021l2.816,6.877C186.208,262.086,186.04,265.369,186.109,269.053z"/>
	
		<ellipse transform="matrix(-0.9888 0.1495 -0.1495 -0.9888 405.1389 469.3662)" fill="#D692A6" cx="184.932" cy="249.907" rx="2.29" ry="2.57"/>
	<path fill="#FEBFBF" d="M181.865,244.449l0.499-1.021c0,0,1.044,0.227,1.427,0.21c0.382-0.018,1.262-1.446,1.674-3.271
		c0.413-1.824,0.098-2.853,0.262-3.385c0.163-0.532,0.317-2.35-0.242-2.836s-8.361,0.261-8.252,2.047s1.567,4.149,1.29,4.968
		c-0.277,0.817-1.004,1.697-1.004,1.697S178.896,244.58,181.865,244.449z"/>
	<path fill="#754554" d="M185.979,236.32c0,0-1.184,1.047-1.227,1.533c-0.043,0.486,0.156,1.38-0.914,0.304
		c-1.07-1.077-0.857,2.97-2.099,3.404c-1.241,0.435-2.935-0.269-3.182-0.538c-0.247-0.271-2.175-2.103-1.879-5.507
		c0.149-1.718,2.72-3.296,4.404-3.585c1.684-0.289,4.771,0.936,4.988,2.464C186.286,235.924,185.979,236.32,185.979,236.32z"/>
	
		<linearGradient id="SVGID_1_" gradientUnits="userSpaceOnUse" x1="-136.3574" y1="455.4883" x2="-136.3574" y2="457.9182" gradientTransform="matrix(0.9944 -0.106 0.106 0.9944 271.0431 -229.3433)">
		<stop  offset="0" style="stop-color:#FFDEDE"/>
		<stop  offset="0.8776" style="stop-color:#FEB9B8"/>
	</linearGradient>
	<path fill="url(#SVGID_1_)" d="M184.1,238.139c0,0-0.845-0.259-0.832,1.082c0.013,1.34,0.371,1.458,0.658,1.451
		c0.287-0.008,0.275-0.326,0.275-0.326s-0.181-0.601-0.01-1.016C184.364,238.914,184.595,238.313,184.1,238.139z"/>
	<path fill="#D692A6" d="M188.296,261.784c-0.103,0.6-0.755,0.112-0.859,0.479c-0.219,0.792-0.491,1.11-1.034,1.211
		c-0.167,0.03-0.349-0.096-0.537-0.352c-0.424-0.576-0.327-0.848-0.78-2.363c-1.119-3.732-2.15-8.78-2.409-10.511
		c-0.411-2.741,4.289-1.53,4.289-1.53s1.035,6.904,1.309,10.858C188.345,260.6,188.363,261.396,188.296,261.784z"/>
	<path fill="#D692A6" d="M193.049,258.83c0,0-3.219,3.416-5.615,4.42c-0.871,0.364-1.511,0.34-1.643-0.407
		c0-0.003-0.001-0.007-0.001-0.01c-0.318-1.876,0.29-2.678,0.818-3.06c0.194-0.143,0.376-0.229,0.498-0.289
		c0.148-0.072,0.645-0.368,1.287-0.758c1.342-0.817,2.393-1.497,3.084-2.037c0.249-0.197,1.21,0.6,1.21,0.6
		C193.121,257.84,193.049,258.83,193.049,258.83z"/>
	<path fill="#D692A6" d="M176.312,242.909c0,0,0.365-0.268,1.192-0.454c0.477-0.108,3.858,1.599,3.858,1.599s2.237,1.225,2.448,1.52
		c0.211,0.296,0.371,0.794,0.371,0.794s-1.78-1.113-5.231-1.91C176.842,243.969,175.75,243.544,176.312,242.909z"/>
	<path fill="#975F5F" d="M174.831,270.3c0,0,0.67-4.96,0.67-6.888s0,7.124,0,7.124L174.831,270.3z"/>
</g>
</svg>
