<?xml version="1.0" encoding="utf-8"?>
<!-- Generator: Adobe Illustrator 16.0.0, SVG Export Plug-In . SVG Version: 6.00 Build 0)  -->
<!DOCTYPE svg PUBLIC "-//W3C//DTD SVG 1.1//EN" "http://www.w3.org/Graphics/SVG/1.1/DTD/svg11.dtd">
<svg version="1.1" id="Layer_1" xmlns="http://www.w3.org/2000/svg" xmlns:xlink="http://www.w3.org/1999/xlink" x="0px" y="0px"
	 width="463.683px" height="425.749px" viewBox="0 0 463.683 425.749" enable-background="new 0 0 463.683 425.749"
	 xml:space="preserve">
<g>
	<g>
		<path fill="#D7E4F2" d="M327.165,308.658c4.663-2.967,12.442-3.289,17.375-0.718s5.15,7.061,0.487,10.028
			c-4.664,2.967-12.442,3.289-17.375,0.718S322.501,311.626,327.165,308.658z"/>
		<g>
			<path fill="#6C6B79" d="M344.355,313.735l0.25,0.631c0,0,0.117,0.751-0.025,0.872s-0.712,0.893-1.87,0.899
				c-1.159,0.007-3.229-1.776-3.229-1.776s-3.187-1.703-3.288-1.841c-0.103-0.139-0.103-1.226-0.103-1.226l6.269,2.178
				L344.355,313.735z"/>
			<path fill="#6C6B79" d="M334.529,314.922c0,0,0.49,0.067,0.581,0.26c0.091,0.191,0.075,0.898,0.075,0.898
				s-0.987,0.95-2.691,0.922c-1.705-0.027-2.538-0.881-2.745-1.189s-2.153-2.571-2.153-2.571s-0.29-0.283-0.244-0.96
				c0.047-0.676,0.011-0.743,0.011-0.743s2.708,2.272,2.767,2.322C330.187,313.909,334.529,314.922,334.529,314.922z"/>
			<path fill="#504F60" d="M339.741,309.902c0,0,0.386,0.71,0.765,0.914c0.38,0.203,3.671,2.3,3.671,2.3s0.717,0.991,0.259,1.573
				c-0.458,0.581-1.855,0.771-2.812,0.38c-0.957-0.391-2.256-1.405-2.708-1.62c-0.453-0.216-2.601-1.195-2.777-1.796
				c-0.178-0.601-0.168-0.71-0.092-1.097s0.268-1.346,0.32-1.367C336.418,309.166,339.741,309.902,339.741,309.902z"/>
			<path fill="#4F5997" d="M335.97,294.857c0.054,0.606,0.113,1.145,0.179,1.58c0.05,0.34,0.127,0.638,0.227,0.895
				c0.876,2.302,3.445,1.557,3.92,0.605c0.055-0.106,0.112-0.272,0.173-0.486l-0.001-0.002c0.534-1.881,1.197-9.896,1.566-13.636
				c0.411-4.165-1.057-7.411-1.256-9.351l-4.768,2.321l-0.674,4.513c0,0,0.015,0.645,0.043,1.655
				C335.451,285.303,335.71,292.015,335.97,294.857z"/>
			<path fill="#4F5997" d="M335.896,309.55c0,0,0.508,0.482,1.277,0.87c0.034,0.019,0.068,0.035,0.103,0.052
				c0.854,0.397,2.474-0.462,2.465-0.569c-0.009-0.108,0.554-10.652,0.728-12.451l-0.001-0.002c0.172-1.79-0.672-2.441-0.672-2.441
				l-3.406-0.133l-0.419-0.018h-0.004c0,0-0.682,1.941-0.584,4.953C335.489,303.068,335.896,309.55,335.896,309.55z"/>
			<path fill="#A8B0C2" d="M335.896,309.55c0,0,0.508,0.482,1.277,0.87c-0.896-11.848,0.205-14.289,0.104-15.511l-0.135-8.287
				l0.569-3.036l-2.333-0.634c0.071,2.351,0.331,9.063,0.591,11.905h-0.004c0,0-0.61,1.939-0.584,4.953
				C335.414,303.322,335.896,309.55,335.896,309.55z"/>
			<path fill="#504F60" d="M328.06,309.342c-0.118,0.047-0.784,1.171-0.744,1.656c0.041,0.486,0.271,1.717,0.33,1.766
				c0.059,0.05,1.724,2.845,3.08,3.256c1.357,0.412,3.41-0.159,3.96-0.513c0.55-0.354,0.401-0.396,0.401-0.396
				s-0.04-0.485-0.647-0.814c-0.607-0.33-2.394-2.843-2.394-2.843l-0.74-2.004L328.06,309.342z"/>
			<path fill="#4F5997" d="M338.324,279.198c0,0,0.525,2.673,0.312,3.705c-0.215,1.032-1.668,1.843-1.722,2.065
				c-0.055,0.221-2.938,14.078-3.894,14.773c-0.956,0.696-3.021,1.123-3.272-3.167s-1.416-12.669-1.6-13.994
				s-0.119-4.186,0.682-5.448C329.628,275.87,338.324,279.198,338.324,279.198z"/>
			<g>
				<path fill="#8C92B0" d="M337.284,284.031c0.056-0.002,0.115-0.02,0.177-0.052c0.296-0.153,0.621-0.64,0.635-1.344
					c0.007-0.386-0.038-1.922-0.063-2.108l-0.175,0.023c0.021,0.159,0.067,1.679,0.061,2.082c-0.013,0.675-0.329,1.082-0.54,1.189
					c-0.067,0.035-0.124,0.041-0.158,0.019c-0.046-0.03-0.066-0.124-0.054-0.249c0.087-0.886,0.02-2.958-0.132-3.062l-0.043-0.029
					l-0.052,0.022l0.04,0.08l-0.002,0.002l-0.065,0.046c0.061,0.141,0.184,1.851,0.078,2.924c-0.024,0.251,0.058,0.362,0.131,0.412
					C337.167,284.02,337.223,284.033,337.284,284.031z"/>
			</g>
			<g>
				<path fill="#8C92B0" d="M331.428,284.051c1.594-0.068,2.427-0.485,2.857-0.871c0.519-0.463,0.54-0.934,0.541-0.953l-0.179-0.007
					c0.001,0.004-0.023,0.423-0.488,0.833c-0.53,0.471-1.701,0.986-4.275,0.787l-0.014,0.177
					C330.458,284.063,330.974,284.071,331.428,284.051z"/>
			</g>
			<path fill="#A76478" d="M327.954,281.073c0,0,1.751,1.082,5.475,0.95c3.724-0.133,5.149-0.471,6.417-0.998
				c1.269-0.528,2.064-1.21,2.064-1.21l-0.176-1.049c0,0-0.748,0.858-2.544,1.435c-1.797,0.575-5.608,0.755-7.158,0.779
				c-1.55,0.023-3.898-0.729-3.898-0.729L327.954,281.073z"/>
			<path fill="#4F5997" d="M335.324,280.877c0,0,0.086,0.299,0.083,0.653c-0.003,0.355-0.054,1.007-0.054,1.007l0.565-0.063
				c0,0,0.133-0.628,0.127-0.943c-0.006-0.314-0.112-0.752-0.112-0.752L335.324,280.877z"/>
			<path fill="#4F5997" d="M329.946,280.852c0,0-0.115,0.299-0.147,0.653s-0.045,1.007-0.045,1.007l-0.56-0.069
				c0,0-0.07-0.629-0.034-0.944c0.036-0.314,0.187-0.75,0.187-0.75L329.946,280.852z"/>
			<path fill="#4F5997" d="M340.554,279.593c0,0,0.119,0.372,0.124,0.673c0.006,0.303-0.097,0.817-0.097,0.817l0.394-0.335
				c0,0,0.084-0.521,0.081-0.685s-0.186-0.646-0.186-0.646L340.554,279.593z"/>
			<g>
				<path fill="#8C92B0" d="M341.842,281.939c0.035-0.002,0.071-0.008,0.106-0.017l-0.052-0.204
					c-0.366,0.094-0.751-0.509-0.871-0.748l-0.188,0.096C340.857,281.105,341.294,281.963,341.842,281.939z"/>
			</g>
			<g>
				<path fill="#CCDEFB" d="M336.348,281.795c-0.155-0.096-0.241-0.232-0.244-0.386l-0.004-0.299
					c-0.005-0.313,0.351-0.606,0.808-0.667l1.075-0.144c0.249-0.034,0.493,0.01,0.668,0.118c0.155,0.096,0.241,0.233,0.244,0.386
					l0.004,0.299c0.005,0.313-0.35,0.606-0.808,0.668l-1.075,0.144c-0.068,0.009-0.137,0.012-0.203,0.01
					C336.637,281.918,336.475,281.874,336.348,281.795z M338.074,280.637L337,280.779c-0.237,0.032-0.443,0.189-0.441,0.336
					l0.005,0.299c0.001,0.05,0.025,0.091,0.073,0.12c0.068,0.042,0.174,0.058,0.289,0.042l1.074-0.143
					c0.237-0.031,0.443-0.188,0.441-0.336l-0.005-0.299c-0.001-0.05-0.025-0.09-0.073-0.12c-0.047-0.029-0.111-0.046-0.185-0.048
					C338.145,280.63,338.11,280.632,338.074,280.637z"/>
			</g>
			<path fill="#4F5997" d="M333.229,297.914c0,0,0.493,0.058,0.32,0.91s-1.912,11.09-1.912,11.09s-1.769,0.635-2.814,0.252
				c-1.047-0.384-1.268-0.716-1.276-0.824c-0.009-0.107-0.19-5.865,0.609-8.848c0.801-2.982,1.546-7.135,1.546-7.135
				L333.229,297.914z"/>
			<path fill="#FEBFBF" d="M339.76,257.604c0,0,1.83,0.01,2.453,2.258c0.624,2.248,1.76,8.456,1.62,9.373
				c-0.141,0.918-2.248,1.493-3.293-0.375C339.497,266.99,339.76,257.604,339.76,257.604z"/>
			<path fill="#E6F1FF" d="M339.132,256.229c0,0,2.548-0.108,3.27,2.766c0.257,1.025,1.577,7.149,1.577,7.149
				s-2.455,2.108-3.892,1.358C338.651,266.754,339.132,256.229,339.132,256.229z"/>
			<path fill="#FEBFBF" d="M343.844,269.089c0.307,0.265,2.608,4.165,2.745,4.28c0.136,0.115,0.987-0.318,0.987-0.318l1.018,0.259
				l1.059,0.526c0,0,0.759,0.191,0.821,0.294c0.063,0.104-0.08,0.333-0.428,0.29c-0.348-0.044-0.967-0.082-1.305-0.217
				c-0.337-0.135,0.043,1.155,0.043,1.155s-0.196,0.904-0.556,0.935c-0.36,0.029-0.975,0.136-1.276,0.161s-0.73-0.12-0.73-0.12
				l-0.68-0.105l-0.745-1.115c0,0-4.577-3.614-3.956-5.815C342.506,268.966,343.537,268.825,343.844,269.089z"/>
			<g>
				<path fill="#C4C8D8" d="M346.991,274.62c0.153-0.085,0.422-0.169,0.577-0.177c1.416-0.092,5.172-0.663,5.19-0.652
					c0.007,0.004,0.046,0.342,0.048,0.348c0.01,0.025-0.029,0.067-0.113,0.115c-0.666,0.368-1.33,0.736-2,1.106
					c-0.002,0.001-0.004,0.002-0.006,0.003c-0.154,0.086-0.417,0.162-0.57,0.174c-1.421,0.091-3.704,0.238-5.121,0.329
					c-0.073,0.003-0.115-0.009-0.119-0.033s-0.047-0.354-0.047-0.354L346.991,274.62z"/>
				<path fill="#D7E4F2" d="M352.557,273.916c-0.656,0.363-1.31,0.725-1.967,1.088c-0.129,0.071-0.349,0.139-0.483,0.147
					c-1.399,0.09-3.672,0.236-5.075,0.326c-0.131,0.008-0.133-0.045-0.004-0.116c0.657-0.363,1.311-0.725,1.968-1.089
					c0.129-0.071,0.348-0.139,0.479-0.146c1.404-0.091,3.676-0.236,5.076-0.326C352.685,273.791,352.686,273.844,352.557,273.916
					L352.557,273.916z M344.935,275.379c-0.153,0.085-0.138,0.143,0.012,0.136c1.416-0.091,3.7-0.237,5.12-0.329
					c0.153-0.012,0.416-0.088,0.57-0.174c0.002-0.001,0.005-0.002,0.007-0.003c0.669-0.37,1.334-0.738,1.999-1.106
					c0.149-0.085,0.159-0.152-0.004-0.14c-1.421,0.091-3.704,0.237-5.12,0.329c-0.156,0.008-0.424,0.092-0.577,0.176
					c-0.665,0.369-1.33,0.736-1.999,1.107C344.94,275.376,344.938,275.377,344.935,275.379L344.935,275.379z"/>
				<path fill="#7C78F0" d="M351.644,274.335c-0.166,0.092-0.326,0.181-0.488,0.271l-0.036,0.012l-0.001-0.01
					c0.162-0.09,0.323-0.179,0.488-0.27l0.037-0.011V274.335L351.644,274.335z M351.064,274.666l-0.077,0.025l-0.001-0.021
					l0.077-0.022L351.064,274.666L351.064,274.666z M350.931,274.748l-0.105,0.032l-0.005-0.025l0.113-0.035L350.931,274.748
					L350.931,274.748z M345.028,275.361c-0.129,0.071-0.127,0.124,0.004,0.116c1.403-0.09,3.676-0.236,5.075-0.326
					c0.135-0.009,0.354-0.076,0.483-0.147c0.657-0.363,1.311-0.725,1.967-1.088c0.129-0.072,0.128-0.125-0.007-0.116
					c-1.4,0.09-3.672,0.235-5.076,0.326c-0.131,0.008-0.35,0.075-0.479,0.146C346.338,274.637,345.685,274.998,345.028,275.361
					L345.028,275.361z"/>
				<path fill="#2A2A2C" d="M351.119,274.607c0.162-0.09,0.323-0.179,0.488-0.27l0.037-0.011v0.008
					c-0.166,0.092-0.326,0.181-0.488,0.271l-0.036,0.012L351.119,274.607L351.119,274.607z"/>
				<path fill="#838383" d="M350.911,274.749l-0.065,0.021l-0.004-0.016l0.072-0.023L350.911,274.749L350.911,274.749z
					 M350.821,274.755l0.005,0.025l0.105-0.032l0.003-0.028L350.821,274.755L350.821,274.755z"/>
				<polygon fill="#516F83" points="350.841,274.754 350.914,274.73 350.911,274.749 350.845,274.77 350.841,274.754 				"/>
				<polygon fill="#2A2A2C" points="350.986,274.671 351.063,274.648 351.064,274.666 350.987,274.691 350.986,274.671 				"/>
			</g>
			
				<linearGradient id="SVGID_1_" gradientUnits="userSpaceOnUse" x1="3652.0327" y1="142.0078" x2="3653.1299" y2="139.7194" gradientTransform="matrix(-0.9965 0.0836 0.0836 0.9965 3975.0552 -170.1389)">
				<stop  offset="0.1224" style="stop-color:#FEB9B8"/>
				<stop  offset="1" style="stop-color:#FFDEDE"/>
			</linearGradient>
			<path fill="url(#SVGID_1_)" d="M347.446,275.055c0.036-0.004,0.301,0.02,0.559,0.07s0.479,0.213,0.479,0.213l0.288-0.023
				l0.106,1.268l-2.702,0.398l-0.829-1.045l0.143-1.314c0,0,0.438-0.164,0.485-0.041c0.046,0.123,0.046,0.123,0.046,0.123
				s0.141-0.275,0.376-0.276c0.235-0.002,0.23,0.161,0.23,0.161s0.202-0.29,0.372-0.213
				C347.168,274.453,347.446,275.055,347.446,275.055z"/>
			
				<linearGradient id="SVGID_2_" gradientUnits="userSpaceOnUse" x1="3652.2749" y1="140.6997" x2="3653.0464" y2="140.6997" gradientTransform="matrix(-0.9965 0.0836 0.0836 0.9965 3975.0552 -170.1389)">
				<stop  offset="0.1224" style="stop-color:#FCA4B5"/>
				<stop  offset="0.9896" style="stop-color:#FFADB7"/>
			</linearGradient>
			<path fill="url(#SVGID_2_)" d="M346.675,274.528c0,0,0.043,0.379,0.114,0.481c0.072,0.103,0.369,1.155,0.369,1.155l0.251,0.232
				l-0.248,0.021l-0.209-0.336l-0.376-1.345l-0.104-0.271L346.675,274.528z"/>
			
				<linearGradient id="SVGID_3_" gradientUnits="userSpaceOnUse" x1="3653.228" y1="140.6968" x2="3653.8237" y2="140.6968" gradientTransform="matrix(-0.9965 0.0836 0.0836 0.9965 3975.0552 -170.1389)">
				<stop  offset="0.1224" style="stop-color:#FCA4B5"/>
				<stop  offset="0.9896" style="stop-color:#FFADB7"/>
			</linearGradient>
			<polygon fill="url(#SVGID_3_)" points="346.021,274.703 346.206,275.928 346.453,276.398 345.844,276.275 346.116,275.944 
				345.964,274.988 345.975,274.58 			"/>
			<path fill="#A8B0C2" d="M328.025,280.758c0,0,1.666,1.064,5.389,0.932c3.724-0.132,5.149-0.47,6.418-0.998
				c1.268-0.527,2.025-1.196,2.025-1.196l-0.138-1.062c0,0-0.748,0.858-2.544,1.434c-1.797,0.576-5.608,0.756-7.158,0.779
				c-1.55,0.024-3.934-0.765-3.934-0.765L328.025,280.758z"/>
			<path fill="#DDE8F6" d="M327.654,266.664c0.089,1.128,1.344,6.323,0.847,9.07c-0.491,2.753-0.44,3.607-0.502,4.207
				c-0.018,0.208,0.296,0.488,0.942,0.742c1.24,0.489,3.701,0.878,7.366,0.473c4.259-0.465,5.585-1.996,5.585-1.996
				s-0.52-2.127-0.783-5.449c-0.258-3.317,0.88-5.509,1.106-8.947c0.227-3.445,0.119-6.252-1.265-7.586
				c-1.397-1.352-5.798-1.852-7.658-1.343c-1.859,0.509-1.367,0.902-3.528,2.007c-2.162,1.104-2.662,1.48-2.662,1.48
				c-0.615,0.951-0.448,2.651-0.14,4.205C327.236,264.888,327.611,266.131,327.654,266.664z"/>
			<polygon fill="#E6F1FF" points="334.589,265.135 334.789,268.296 333.573,269.212 331.952,268.912 331.793,265.811 			"/>
			<path fill="#DDE8F6" d="M328.5,275.734c-0.491,2.753-0.44,3.607-0.502,4.207c-0.018,0.208,0.296,0.488,0.942,0.742
				c1.01-1.443,0.936-4.245,0.923-5.939c1.363-0.996,7.283-1.291,7.753-1.867c0.478-0.583,0.238-0.693-0.172-1.051
				c-0.404-0.357-7.255,0.086-7.36-0.03s-0.438-1.448-0.145-3.349s0.334-5.458,0.334-5.458s-2.043,0.135-3.312,0.538
				c0.273,1.36,0.648,2.604,0.691,3.137C327.743,267.792,328.998,272.987,328.5,275.734z"/>
			
				<linearGradient id="SVGID_4_" gradientUnits="userSpaceOnUse" x1="3665.4399" y1="119.8301" x2="3659.8926" y2="118.7987" gradientTransform="matrix(-0.9965 0.0836 0.0836 0.9965 3975.0552 -170.1389)">
				<stop  offset="0.1224" style="stop-color:#FEC7C7"/>
				<stop  offset="0.9694" style="stop-color:#FFADB7"/>
			</linearGradient>
			<path fill="url(#SVGID_4_)" d="M338.704,256.044c0,0-0.543,1.712-0.493,2.088s-1.07,1.067-2.897,0.659s-3.041-1.918-3.002-2.103
				s0.823-0.341,1.528-1.867s1.219-3.345,1.202-3.995s1.802-0.351,1.802-0.351L338.704,256.044z"/>
			<path fill="#E6F1FF" d="M336.68,258.754c0,0,0.549,0.654,0.962,0.73c0.535-0.173,0.854-0.998,0.891-1.236
				c0.037-0.237-0.075-0.769-0.166-0.985c-0.091-0.216-0.378-0.306-0.364,0.016c0.014,0.323-0.585,1.052-1.304,1.181
				C336.595,258.615,336.68,258.754,336.68,258.754z"/>
			<path fill="#FEC7C7" d="M335.697,255.373c0.076,0.706,2.682,2.661,3.694,2.588c0.476-0.036,1.01-0.979,1.508-2.059
				c0.561-1.222,1.076-2.617,1.413-3.078c0.634-0.867,0.598-3.238,0.355-3.742c-0.242-0.506-1.679-2.087-3.094-2.113
				c-1.415-0.027-3.23,0.777-3.376,1.424s0.119,2.924,0.119,2.924s-0.061,0.291-0.144,0.717
				C335.974,253.059,335.642,254.875,335.697,255.373z"/>
			<g>
				
					<linearGradient id="SVGID_5_" gradientUnits="userSpaceOnUse" x1="3656.9878" y1="119.1055" x2="3656.1375" y2="119.7878" gradientTransform="matrix(-0.9965 0.0836 0.0836 0.9965 3975.0552 -170.1389)">
					<stop  offset="0.1224" style="stop-color:#FEC7C7"/>
					<stop  offset="0.9896" style="stop-color:#FFDBDB"/>
				</linearGradient>
				<path fill="url(#SVGID_5_)" d="M341.366,253.101c-0.118,0.425,0.288,1.939,0.189,2.26c-0.1,0.321-1.273,0.094-1.39,0.009
					L341.366,253.101z"/>
				
					<linearGradient id="SVGID_6_" gradientUnits="userSpaceOnUse" x1="3656.2661" y1="119.1982" x2="3657.7681" y2="119.1982" gradientTransform="matrix(-0.9965 0.0836 0.0836 0.9965 3975.0552 -170.1389)">
					<stop  offset="0.188" style="stop-color:#FFDCDC"/>
					<stop  offset="0.8991" style="stop-color:#FEC7C7"/>
				</linearGradient>
				<path fill="url(#SVGID_6_)" d="M341.157,255.576c0.098-0.004,0.187-0.017,0.259-0.041c0.102-0.033,0.164-0.087,0.187-0.159
					c0.052-0.163-0.013-0.57-0.088-1.04c-0.074-0.474-0.16-1.009-0.101-1.222l-0.097-0.026c-0.064,0.233,0.018,0.757,0.098,1.264
					c0.067,0.42,0.136,0.854,0.093,0.994c-0.014,0.041-0.055,0.072-0.123,0.095c-0.321,0.106-1.105-0.051-1.188-0.112l-0.06,0.08
					C340.221,255.472,340.757,255.594,341.157,255.576z"/>
			</g>
			
				<ellipse transform="matrix(-0.9965 0.0842 -0.0842 -0.9965 699.3323 477.942)" fill="#FFFFFF" cx="339.592" cy="253.712" rx="0.325" ry="0.25"/>
			
				<ellipse transform="matrix(-0.9972 -0.0754 0.0754 -0.9972 663.0734 532.1365)" fill="#FFFFFF" cx="341.587" cy="253.544" rx="0.149" ry="0.216"/>
			<g>
				<path fill="#754554" d="M340.905,253.132l0.034-0.163c-0.053-0.012-1.288-0.262-2.347-0.023l0.037,0.163
					C339.653,252.877,340.892,253.129,340.905,253.132z"/>
			</g>
			<g>
				<path fill="#754554" d="M341.574,252.969c0.005-0.002,0.424-0.185,0.934-0.289l-0.033-0.164c-0.528,0.109-0.949,0.293-0.967,0.3
					L341.574,252.969z"/>
			</g>
			<path fill="#AF727B" d="M335.697,255.373c0.076,0.706,2.682,2.661,3.694,2.588c0.476-0.036,1.01-0.979,1.508-2.059
				c0,0-0.11-0.07-0.234-0.101c-0.124-0.028-0.603-0.058-0.894,0.049c-0.289,0.104-0.819,0.258-1.429,0.12
				c-0.609-0.141-1.472-0.878-1.522-1.406c-0.053-0.547,0.167-1.795,0.167-1.795l-0.813-0.736
				C335.974,253.059,335.642,254.875,335.697,255.373z"/>
			<path fill="#FEC7C7" d="M335.879,253.654c0,0,0.411-1.391,0.483-1.756c0.072-0.366-0.442-0.892-0.651-0.988
				c-0.209-0.096-0.561-0.016-0.561-0.016L335.879,253.654z"/>
			<path fill="#754554" d="M336.919,253.038c0,0,0.449-1.053,0.822-1.137c0.374-0.083,1.873-1.811,1.873-1.811l0.307-0.888
				c0,0,0.848,0.875,1.878,1.057c1.03,0.181,1.269,0.132,1.269,0.132s0.14-0.703,0.123-1.336c-0.017-0.632-1.747-4.418-6.002-3.318
				c-3.216,0.106-3.055,2.883-3.079,3.464c-0.023,0.582-0.131,2.343-0.131,2.343s0.387,0.567,0.526,1.599
				c0.359-0.799,0.544-2.076,0.897-2.074c0.354,0.001,0.851,0.135,0.945,0.615s-0.183,0.975-0.183,0.975L336.919,253.038z"/>
			
				<linearGradient id="SVGID_7_" gradientUnits="userSpaceOnUse" x1="3661.9858" y1="116.9194" x2="3662.9541" y2="115.9826" gradientTransform="matrix(-0.9965 0.0836 0.0836 0.9965 3975.0552 -170.1389)">
				<stop  offset="0.1224" style="stop-color:#FEB9B8"/>
				<stop  offset="1" style="stop-color:#FFDEDE"/>
			</linearGradient>
			<path fill="url(#SVGID_7_)" d="M336.06,251.502c0,0-0.397-0.701-0.993-0.379c-0.597,0.321-0.044,2.159,0.113,2.408
				c0.156,0.25,0.554-0.191,0.554-0.191l0.445-1.604L336.06,251.502z"/>
			<path fill="#FEBFBF" d="M328.297,260.231c0.714,0.302,2.055,1.819,1.035,4.785s-2.37,7.372-4.253,7.819
				c-1.044,0.249-1.813,1.071-1.869-0.213c-0.046-1.031,0.477-4.029,0.854-5.189c0.85-2.607,2.1-6.063,2.602-6.993
				S328.297,260.231,328.297,260.231z"/>
			<g>
				<path fill="#627847" d="M335.382,272.291c0.694,0.271,1.802,0.221,2.475-0.11s0.655-0.818-0.039-1.089s-1.803-0.221-2.475,0.109
					C334.67,271.533,334.688,272.021,335.382,272.291z"/>
				<polygon fill="#627847" points="334.376,266.981 334.85,271.767 338.35,271.615 338.41,266.808 				"/>
				<path fill="#B09064" d="M335.212,270.256c0.722-0.339,1.911-0.392,2.655-0.118c0.744,0.274,0.762,0.771,0.039,1.109
					c-0.722,0.339-1.911,0.392-2.655,0.118S334.49,270.595,335.212,270.256z"/>
				<polygon fill="#B09064" points="334.682,270.843 334.392,268.267 338.503,268.076 338.437,270.671 				"/>
				<path fill="#DEC7A7" d="M334.972,267.629c0.792-0.356,2.094-0.414,2.909-0.129c0.814,0.284,0.833,0.805,0.041,1.16
					c-0.792,0.356-2.095,0.414-2.909,0.129C334.199,268.505,334.18,267.984,334.972,267.629z"/>
				<path fill="#627847" d="M335.036,267.377c0.75-0.369,1.985-0.425,2.76-0.123c0.773,0.301,0.793,0.845,0.044,1.214
					c-0.75,0.369-1.985,0.425-2.76,0.123C334.306,268.289,334.286,267.746,335.036,267.377z"/>
				<polygon fill="#627847" points="334.502,268.184 334.44,267.769 334.801,267.824 338.377,267.62 338.392,267.966 				"/>
				<path fill="#A19797" d="M334.905,268.091c0.8,0.312,2.077,0.255,2.853-0.127c0.774-0.382,0.755-0.944-0.046-1.255
					c-0.8-0.313-2.077-0.255-2.852,0.127C334.084,267.217,334.105,267.779,334.905,268.091z"/>
				<path fill="#C7BEBE" d="M334.191,266.914l0.332-0.015c0.086-0.066,0.188-0.13,0.31-0.19c0.845-0.416,2.236-0.479,3.108-0.139
					c0.129,0.051,0.237,0.107,0.329,0.168l0.317-0.014l0.021,0.489c0.001,0.008,0.001,0.015,0.001,0.022l0.001,0.011h-0.001
					c-0.004,0.241-0.208,0.489-0.618,0.691c-0.845,0.417-2.237,0.479-3.109,0.139c-0.429-0.167-0.65-0.399-0.667-0.643h-0.001
					L334.191,266.914z"/>
				<path fill="#E2D9D9" d="M334.812,266.238c0.845-0.416,2.237-0.478,3.109-0.138c0.872,0.339,0.894,0.952,0.049,1.368
					s-2.236,0.478-3.109,0.139C333.989,267.268,333.967,266.655,334.812,266.238z"/>
				<path fill="#C7BEBE" d="M334.505,266.885c-0.001-0.004-0.001-0.009-0.001-0.014l-0.015-0.338l0.173-0.007
					c0.088-0.092,0.211-0.18,0.372-0.26c0.725-0.356,1.918-0.409,2.666-0.118c0.169,0.065,0.3,0.145,0.395,0.229l0.164-0.007
					l0.014,0.338v0.002l0.001,0.002h-0.001c0.006,0.211-0.17,0.431-0.53,0.608c-0.725,0.356-1.918,0.409-2.666,0.118
					c-0.367-0.143-0.558-0.343-0.571-0.551l0,0V266.885z"/>
				<path fill="#E1D8D8" d="M335.017,265.86c0.725-0.356,1.918-0.41,2.666-0.119c0.747,0.292,0.767,0.817,0.042,1.174
					s-1.918,0.409-2.666,0.118C334.312,266.742,334.292,266.217,335.017,265.86z"/>
				<path fill="#C7BEBE" d="M334.844,266.637L334.844,266.637c0.142,0.028,0.288-0.037,0.328-0.146l0.016-0.044
					c0.04-0.108-0.042-0.219-0.184-0.246l0,0c-0.141-0.028-0.287,0.037-0.327,0.146l-0.017,0.044
					C334.622,266.499,334.704,266.609,334.844,266.637z"/>
			</g>
			<path fill="#FEBFBF" d="M323.607,271.096c0,0,0.742-0.548,2.041-0.588c1.299-0.041,2.807,0.501,4.365,0.209
				c1.559-0.291,2.321-0.58,2.872-1.167c0.55-0.587,1.335-1.546,1.335-1.546l0.674-0.267l-0.362,0.722l0.402,0.107l1.623-0.439
				l1.604-0.076c0,0,0.141,0.229,0.019,0.383c-0.121,0.155-1.304,0.367-1.537,0.446s-1.569,0.773-1.569,0.773l2.465-0.471
				l1.152-0.285c0,0,0.271,0.163,0.187,0.377c-0.084,0.215-1.396,0.704-1.396,0.704l-1.674,0.439l0.406,0.123l1.498-0.275
				l1.01-0.414c0,0,0.266,0.163,0.042,0.451c-0.224,0.289-0.606,0.484-0.606,0.484l0.415,0.047c0,0-0.041,0.267-0.084,0.357
				c-0.044,0.09-1.041,0.632-1.041,0.632l-1.657,0.337c0,0-0.935,0.444-1.977,0.467c-1.043,0.023-1.563,0.197-1.827,0.346
				c-0.264,0.147-3.102,1.463-5.309,1.514c-2.206,0.051-3.321-0.587-3.474-1.217C323.053,272.641,323.607,271.096,323.607,271.096z"
				/>
			<path fill="#B09064" d="M335.951,271.541c0,0,1.107-0.138,1.657-0.293c0.55-0.154,0.889-0.423,0.889-0.423l-0.339-0.038
				l-0.631,0.258L335.951,271.541z"/>
			<path fill="#E6F1FF" d="M323.758,267.586c0,0,2.69,1.297,4.443,1.149c0.948-1.329,1.653-3.942,2.072-5.744
				c0.42-1.801-1.535-3.729-2.149-3.922c-0.613-0.192-1.239,0.45-1.239,0.45S323.738,266.453,323.758,267.586z"/>
			
				<linearGradient id="SVGID_8_" gradientUnits="userSpaceOnUse" x1="3661.5562" y1="116.582" x2="3662.6929" y2="116.582" gradientTransform="matrix(-0.9965 0.0836 0.0836 0.9965 3975.0552 -170.1389)">
				<stop  offset="0.1224" style="stop-color:#FCA4B5"/>
				<stop  offset="0.9896" style="stop-color:#FFADB7"/>
			</linearGradient>
			<path fill="url(#SVGID_8_)" d="M336.021,251.677c0,0-0.322-0.509-0.726-0.437c-0.402,0.07-0.509,0.631-0.259,1.334
				c0.249,0.704,0.627,0.563,0.627,0.563l0.282-0.947L336.021,251.677z"/>
			<path fill="#FEC7C7" d="M339.139,256.393c0,0,1.35-0.132,1.387,0.033c0.037,0.164-0.713,0.439-0.914,0.456
				C339.411,256.899,339.139,256.393,339.139,256.393z"/>
		</g>
	</g>
	<path fill="#E6F1FF" d="M333.221,255.894c0,0-0.344,0.585,0.61,1.339c0.953,0.755,2.665,1.162,2.867,1.227
		c0.08,0.025,0.154,0.191,0.108,0.436c-0.068,0.365-0.316,0.862-0.499,0.988c-1.009-0.14-1.699-0.559-2.809-1.26
		s-1.319-1.58-1.329-1.811c-0.01-0.229,0.822-1.061,0.944-1.139c0.123-0.079,0.328-0.135,0.328-0.135L333.221,255.894z"/>
</g>
</svg>
