<?xml version="1.0" encoding="utf-8"?>
<!-- Generator: Adobe Illustrator 16.0.0, SVG Export Plug-In . SVG Version: 6.00 Build 0)  -->
<!DOCTYPE svg PUBLIC "-//W3C//DTD SVG 1.1//EN" "http://www.w3.org/Graphics/SVG/1.1/DTD/svg11.dtd">
<svg version="1.1" id="Layer_1" xmlns="http://www.w3.org/2000/svg" xmlns:xlink="http://www.w3.org/1999/xlink" x="0px" y="0px"
	 width="463.683px" height="425.749px" viewBox="0 0 463.683 425.749" enable-background="new 0 0 463.683 425.749"
	 xml:space="preserve">
<g>
	<g>
		<path fill="#FEBFBF" d="M164.739,237.395c0,0,1.286,0.243,1.615,2.126c0.329,1.883,0.857,8.589,0.425,9.517
			c-0.433,0.929-1.761-0.673-2.227-4.861C164.086,239.986,162.283,237.953,164.739,237.395z"/>
		<path fill="#FEBFBF" d="M167.914,257.873c0,0-0.072,0.439,0.016,0.75c0.088,0.313,0.48,1.518,0.48,1.518s-0.022,0.436-0.002,0.651
			c0.026,0.216-0.291,1.105-0.142,1.308c0.014,0.023,0.027,0.035,0.047,0.053h0.006c0.11,0.073,0.239-0.053,0.292-0.105l-0.116,0.23
			c0,0-0.005,0.013,0.009,0.049c0.008,0.031,0.03,0.086,0.079,0.169c0.049,0.091,0.137,0.104,0.211,0.093
			c0.08-0.012,0.146-0.047,0.146-0.047s-0.014,0.082,0.004,0.168v0.006c0.018,0.08,0.066,0.157,0.167,0.182
			c0.063,0.016,0.154-0.016,0.257-0.065c0.229-0.114,0.507-0.336,0.548-0.37c0.001,0.013-0.008,0.063-0.005,0.118
			c-0.005,0.118,0.023,0.272,0.198,0.28c0.274,0.007,1.037-1.289,1.037-1.289s-0.083-1.523-0.112-1.775
			c-0.022-0.248-0.996-1.311-1.324-2.085c-0.335-0.774-1.922-7.922-2.395-9.408c-0.473-1.491-0.875-1.069-0.875-1.069
			c-0.317-0.011-1.474,1.162-1.318,2.637C165.278,251.338,167.914,257.873,167.914,257.873z"/>
		<path fill="#485455" d="M163.124,237.14c0,0,2.142-0.589,3.124,1.267c0.982,1.857,0.816,8.219,0.928,9.015
			c0.429,0.981,2.467,9.013,2.446,9.486s-1.571,0.885-1.928,0.885c-0.357,0-3.148-8.601-3.359-9.771
			C164.124,246.85,163.124,237.14,163.124,237.14z"/>
		
			<linearGradient id="SVGID_1_" gradientUnits="userSpaceOnUse" x1="4035.9126" y1="144.3555" x2="4037.9897" y2="144.3555" gradientTransform="matrix(-0.998 0.0629 0.0629 0.998 4189.5249 -137.1323)">
			<stop  offset="0.1224" style="stop-color:#FCA4B5"/>
			<stop  offset="0.9896" style="stop-color:#FFADB7"/>
		</linearGradient>
		<path fill="url(#SVGID_1_)" d="M168.941,262.541c0,0-0.014,0.082,0.004,0.168c0.037-0.201,0.433-0.524,0.433-0.524
			s0.382-0.546,0.382-0.646c-0.006-0.099,0.008-0.565,0.008-0.565l0.091-0.13l0.07,0.623l0.131,0.401l-0.254,0.494l-0.437,0.469
			c0.229-0.114,0.507-0.336,0.548-0.37c0.001,0.013-0.008,0.063-0.005,0.118c0,0,0.271-0.427,0.353-0.413
			c0.082,0.02,0.359-0.029,0.359-0.029l0.112-0.485c0,0,0.025-1.38-0.018-1.471c-0.036-0.078-0.228-0.557-0.279-0.679
			c0.019,0.205,0.188,1.498,0.178,1.734c-0.015,0.25,0.043,0.681-0.042,0.805c-0.091,0.123-0.289,0.043-0.339-0.06
			c-0.056-0.102-0.244-0.823-0.244-0.823l-0.03-0.283l-0.258-0.735c0,0-0.349-0.221-0.624-0.737
			c-0.092-0.181-0.139-0.327-0.165-0.443c0.003,0.447,0.109,0.745,0.265,0.952c0.184,0.256,0.424,0.327,0.424,0.327l0.175,0.418
			l-0.273-0.001l0.195,0.13c0,0-0.038,0.48-0.037,0.698c0.001,0.224-0.443,0.661-0.5,0.752c-0.063,0.085-0.358,0.321-0.358,0.321
			l-0.01,0.031C168.875,262.576,168.941,262.541,168.941,262.541z"/>
		
			<linearGradient id="SVGID_2_" gradientUnits="userSpaceOnUse" x1="4037.5444" y1="144.8018" x2="4038.437" y2="144.8018" gradientTransform="matrix(-0.998 0.0629 0.0629 0.998 4189.5249 -137.1323)">
			<stop  offset="0.1224" style="stop-color:#FCA4B5"/>
			<stop  offset="0.9896" style="stop-color:#FFADB7"/>
		</linearGradient>
		<path fill="url(#SVGID_2_)" d="M168.612,262.047l-0.116,0.23c0,0-0.005,0.013,0.009,0.049c0.091-0.13,0.171-0.246,0.201-0.261
			c0.072-0.029,0.357-0.737,0.357-0.737l0.045-0.854l-0.258-0.059l0.152,0.158l-0.117,0.703l-0.312,0.666l-0.254,0.209
			C168.431,262.226,168.559,262.1,168.612,262.047z"/>
	</g>
	<g>
		<path fill="#BDD6F2" d="M167.93,293.857c-4.021,2.559-10.728,2.836-14.981,0.619s-4.441-6.088-0.42-8.646
			s10.728-2.836,14.981-0.619C171.763,287.428,171.951,291.299,167.93,293.857z"/>
		<g>
			<path fill="#FEBFBF" d="M161.37,284.141c0,0-1.057,0.93-0.896,1.481c0.16,0.553,2.321,3.948,3.438,4.33
				c2.326,0.794,1.759-1.318,1.371-1.751c-0.342-0.382-1.702-1.427-1.696-2.428C163.593,284.423,161.37,284.141,161.37,284.141z"/>
			<path fill="#8E8E8E" d="M161.646,287.324c0,0-0.388,0.136-0.39,0.433c-0.002,0.297-0.028,1.414-0.028,1.414
				s-0.26,0.142-0.407,0.075c-0.146-0.067-0.357-0.416-0.357-0.416s-0.227-2.194-0.343-2.639
				C160.005,285.746,161.646,287.324,161.646,287.324z"/>
			<path fill="#3F4A4B" d="M160.357,284.783c0,0,1.572,1.843,2.199,3.063c0.627,1.221,1.298,1.707,1.792,1.682
				c0.786-0.041,1.29-0.53,1.112-0.929c-0.177-0.397-0.177-0.397-0.177-0.397s2.037,2.084,1.792,3.412s-3.781-0.454-4.325-1.135
				c-0.208-0.26-0.64-2.171-1.106-2.71c-0.466-0.54-1.178-0.297-1.486-1.409C159.848,285.248,160.357,284.783,160.357,284.783z"/>
			<path fill="#8E8E8E" d="M161.542,287.506c0.466,0.539,1.087,2.544,1.295,2.804c0.506,0.633,3.617,2.182,4.24,1.28
				c-0.001,0.008,0,0.017-0.002,0.023c-0.244,1.328-3.781-0.454-4.325-1.135c-0.208-0.26-0.64-2.171-1.106-2.711
				c-0.406-0.469-1.215-0.307-1.429-1.229C160.545,286.762,161.203,287.114,161.542,287.506z"/>
			<path fill="#4F5997" d="M160.253,273.222c0,0.002,0,0.002,0,0.004c0.024,0.094,0.051,0.184,0.081,0.267
				c0.095,0.266,0.265,0.476,0.485,0.636c0,0,0,0,0,0.002c1.074,0.797,3.299,0.405,3.516-0.403c0.592-2.208,0.293-7.782,0.73-10.695
				c0.439-2.911-0.776-7.875-0.776-7.875s-4.261,1.55-5.194,2.223c-0.554,0.398-0.267,3.191,0.124,5.67
				c0.266,1.701,0.583,3.256,0.711,3.785C160.23,268.067,159.814,271.521,160.253,273.222z"/>
			<path fill="#2A3637" d="M160.711,285.04c0.026,0.21,0.179,0.398,0.416,0.53c0.512,0.288,1.41,0.313,2.255-0.289
				c0,0,0.745-13.751,1.562-17.958c-1.581-0.323-3.856,4.304-4.539,4.272c-0.332-0.015-0.497,0.121-0.447,0.519
				c0,0.002,0,0.002,0,0.005c0.157,1.223-0.556,4.873-0.325,6.293C159.864,279.834,160.627,284.374,160.711,285.04z"/>
			<path fill="#A8B0C2" d="M160.711,285.04c0.026,0.21,0.179,0.398,0.416,0.53c-0.17-1.7-0.443-3.841-0.789-5.388
				c-0.501-2.249,0.151-5.492,0.187-7.159c0-0.002,0-0.002,0-0.002c0.006-0.297-0.009-0.58-0.058-0.846
				c-0.033-0.174-0.052-0.369-0.062-0.58c-0.098-1.898,0.571-5.055,0.382-6.213c-0.07-0.432-0.204-1.592-0.063-2.256
				c0.276-1.312,0.993-2.186,0.993-2.186c-1.129,0.123-2.048,0.473-2.792,1c0.267,1.702,0.584,3.256,0.712,3.785
				c0.299,1.234-0.118,4.688,0.322,6.388c0,0.002,0,0.002,0,0.005c0.157,1.223-0.556,4.873-0.325,6.293
				C159.864,279.834,160.627,284.374,160.711,285.04z"/>
			<g>
				<path fill="#8E8E8E" d="M156.891,288.496c0,0-0.572-0.157-0.561,0.139c0.011,0.297,0.131,2.144,0.131,2.144
					s-0.128,0.13-0.278,0.07c-0.15-0.061-0.375-0.399-0.375-0.399s-0.27-1.801-0.271-2.261
					C155.537,287.643,156.891,288.496,156.891,288.496z"/>
				<path fill="#FEBFBF" d="M156.681,285.896c0,0-0.833,0.703-0.798,1.586c0.034,0.867,1.198,4.365,2.315,4.746
					s2.213-0.362,2.11-0.864s-1.12-2.04-1.417-3.269C158.573,286.782,156.681,285.896,156.681,285.896z"/>
				<path fill="#3F4A4B" d="M158.884,287.582c0,0,0.871,1.553,1.257,2.615c0.843,2.315,0.825,3.336,0.666,3.896
					c-0.166,0.583-1.853,0.1-3.063-0.849c-1.387-1.087-0.822-2.437-1.685-3.771c-0.28-0.434-0.538-0.747-0.554-1.793
					c-0.03-0.889,0.748-1.273,0.748-1.273s-0.576,0.912-0.244,1.658c0.167,0.375,0.111,0.54,0.361,1.008
					c0.497,0.932,0.595,1.852,1.295,2.518c0.657,0.627,2.554,0.193,2.494-0.184c-0.109-0.695-0.746-1.86-1.002-2.51
					C158.852,288.123,158.884,287.582,158.884,287.582z"/>
				<path fill="#8E8E8E" d="M156.113,289.371c0.864,1.335,0.258,2.598,1.646,3.686c1.12,0.877,2.745,1.379,3.074,0.948
					c-0.009,0.029-0.018,0.06-0.025,0.088c-0.166,0.583-1.853,0.1-3.063-0.849c-1.387-1.087-0.822-2.437-1.685-3.771
					c-0.183-0.283-0.459-0.562-0.499-1.125C155.719,288.647,155.978,289.161,156.113,289.371z"/>
			</g>
			<path fill="#4F5997" d="M163.298,260.673c0,0,0.167,1.748-0.404,2.9c-0.571,1.152-1.647,1.979-1.647,1.979
				s-1.486,7.252-2.977,10.18c-0.668,1.313-3.052,1.037-3.343-1.236c-0.292-2.274-0.392-4.297-1.473-9.277
				c-0.263-1.212-0.409-3.402,1.153-5.838C156.171,256.946,163.298,260.673,163.298,260.673z"/>
			<path fill="#2A3637" d="M160.093,276.137c0,0,0.528,0.163,0.092,1.055c-0.437,0.893-2.141,6.916-1.647,9.964
				c-0.966,0.964-2.108,0.731-2.468-0.223c-0.36-0.953-0.971-7.541-0.594-8.894c0.377-1.352,1.356-2.116,1.242-3.114
				C156.604,273.928,160.093,276.137,160.093,276.137z"/>
			<g>
				<g>
					<path fill="#3F4A4B" d="M153.06,262.953c0.016,0.248,0.02,0.719,0.008,1.344c0.291-0.133,0.593-0.292,0.899-0.483
						c4.73-2.851,11.458-11.604,11.814-12.632c0.01-0.039,0.015-0.059,0.015-0.059c0.167-1.387,0.308-1.28,0.94-3.587
						c0.625-2.313,0.235-4.454-0.438-6.958c-0.674-2.512-1.382-3.136-2.686-3.417c-1.31-0.273-9.728,1.052-10.843,2.255
						c-1.108,1.203-1.138,2.364-1.138,2.364s0.278,1.485,0.601,3.063c0.148,0.742,0.311,1.496,0.452,2.131
						c0.079,0.332,0.148,0.627,0.214,0.871c0.45,1.691,0.595,5.114,0.771,7.301c-0.051,0.2-0.107,0.42-0.149,0.665
						C153.094,257.934,152.934,261.452,153.06,262.953z"/>
					<path fill="#DDE0E7" d="M163.792,241.324c0,0-0.31,0.747-2.702,0.117c-2.393-0.631-3.296-2.222-3.296-2.222
						s-3.423-0.363-3.612-0.321c-0.189,0.043,1.986-1.111,1.986-1.111L163.792,241.324z"/>
					<path fill="#3F4A4B" d="M152.238,284.028c0,0,0.115,0.312,0.367,0.671c0.231,0.329,0.58,0.709,1.063,0.914
						c1.074,0.678,4.653-1.238,7.083-1.108c2.672,0.143,3.941-0.313,4.672-1.353c-0.143-6.124,1.002-17.133,0.386-23.165
						c-0.625-6.185-0.144-8.404-0.028-8.806c0.01-0.039,0.015-0.059,0.015-0.059s-7.143,1.252-10.464,2.702
						c-0.979,0.438-1.626,0.88-1.662,1.321c-0.023,0.236-0.073,0.45-0.149,0.665c-0.537,1.581-2.106,3.361,0.186,14.59
						C154.259,273.105,152.449,279.283,152.238,284.028z"/>
					<path fill="#DDE0E7" d="M152.605,284.699c0.789-4.271,2.46-11.308,2.508-12.775c0.069-2.348-0.679-6.16-0.761-8.529
						c-0.013-0.371-0.237-6.347-0.237-6.347s0.588-1.585,1.218-3.223c0.406-1.038,0.823-2.103,1.117-2.789
						c0.767-1.774-0.42-1.406-1.146-3.443c-0.721-2.044-0.576-4.103-0.576-4.103s-0.803,1.515-2.042,3.484
						c0.079,0.332,0.148,0.627,0.214,0.871c0.45,1.691,0.595,5.114,0.771,7.301c-0.051,0.2-0.107,0.42-0.149,0.665
						c-0.537,1.581-2.106,3.361,0.186,14.59c0.552,2.704-1.258,8.882-1.469,13.627C152.238,284.028,152.353,284.34,152.605,284.699z
						"/>
					<path fill="#DDE8F6" d="M152.378,239.899c0,0,0.954-1,2.154-1.041s3.396,0.175,4.016,0.2c0.62,0.023-2.653-5.028-2.653-5.028
						s-2.004,2.017-2.481,2.613C152.936,237.24,152.242,239.404,152.378,239.899z"/>
					<path fill="#DDE8F6" d="M156.321,230.155c0,0,0.557-3.163,3.304-3.748c2.803-0.503,4.39,1.493,4.678,1.991
						c0.289,0.497,0.738,1.895,0.62,2.744c-0.119,0.85-1.131,6.326-2.366,6.369s-2.237-0.049-3.307-0.668
						c-1.07-0.62-3.036-2.095-3.356-2.813C155.562,233.106,156.321,230.155,156.321,230.155z"/>
					<path fill="#DDE8F6" d="M163.538,235.813c0,0,0.952,2.44,1.038,2.77c0.085,0.33,0.27,1.015,0.083,1.322
						s-0.378,1.493-1.428,1.636c-1.05,0.145-2.677-0.527-3.691-1.275s-2.104-1.702-2.652-2.625
						c-0.547-0.924-2.183-2.393-2.183-2.393l1.138-1.27C155.842,233.979,160.983,237.61,163.538,235.813z"/>
					<path fill="#FEC7C7" d="M164.741,229.951c0,0-0.271-0.833-0.89-0.627c-0.619,0.207-2.119,1.551-2.618,3.039
						c-0.5,1.487-0.592,2.267-0.569,3.45c0.023,1.185,1.065,1.621,1.253,1.706c0.187,0.085,1.058,0.147,1.439-0.091
						c0.381-0.237,1.3-2.884,1.456-3.486C164.967,233.34,164.904,230.275,164.741,229.951z"/>
					<g>
						
							<linearGradient id="SVGID_3_" gradientUnits="userSpaceOnUse" x1="4370.9048" y1="91.6348" x2="4369.8281" y2="92.1332" gradientTransform="matrix(-0.998 0.0628 0.0628 0.998 4520.2163 -131.999)">
							<stop  offset="0.1224" style="stop-color:#FEC7C7"/>
							<stop  offset="0.9896" style="stop-color:#FFDBDB"/>
						</linearGradient>
						<path fill="url(#SVGID_3_)" d="M163.942,232.824c0.081,0.459,0.561,1.424,0.661,1.792c0.1,0.367-1.243,0.325-1.243,0.325
							L163.942,232.824z"/>
						
							<linearGradient id="SVGID_4_" gradientUnits="userSpaceOnUse" x1="4369.9683" y1="92.2002" x2="4371.2754" y2="91.4456" gradientTransform="matrix(-0.998 0.0628 0.0628 0.998 4520.2163 -131.999)">
							<stop  offset="0.188" style="stop-color:#FFDCDC"/>
							<stop  offset="0.8991" style="stop-color:#FEC7C7"/>
						</linearGradient>
						<path fill="url(#SVGID_4_)" d="M163.74,234.986c0.324-0.014,0.751-0.063,0.876-0.222c0.037-0.048,0.048-0.103,0.033-0.161
							c-0.042-0.153-0.149-0.41-0.263-0.681c-0.164-0.395-0.351-0.841-0.397-1.106l-0.094,0.016
							c0.049,0.277,0.237,0.729,0.403,1.127c0.112,0.269,0.218,0.522,0.258,0.67c0.008,0.029,0.002,0.053-0.016,0.076
							c-0.142,0.182-0.899,0.197-1.179,0.189l-0.004,0.095C163.398,234.991,163.552,234.994,163.74,234.986z"/>
					</g>
					<circle fill="#FFFFFF" cx="162.17" cy="232.978" r="0.267"/>
					
						<ellipse transform="matrix(-0.9559 -0.2937 0.2937 -0.9559 253.1621 503.0555)" fill="#FFFFFF" cx="164.345" cy="232.523" rx="0.241" ry="0.317"/>
					<g>
						<path fill="#754554" d="M161.526,232.388c0.72-0.311,1.674-0.106,1.684-0.105l0.035-0.154
							c-0.041-0.009-1.014-0.218-1.782,0.114L161.526,232.388z"/>
					</g>
					<g>
						<path fill="#754554" d="M164.059,232.055c0.443-0.342,0.838-0.385,0.842-0.385l-0.016-0.159
							c-0.017,0.002-0.441,0.046-0.924,0.419L164.059,232.055z"/>
					</g>
					<g>
						<path fill="#FB7F9E" d="M162.792,236.197c0.329-0.014,1.008-0.069,1.269-0.288l-0.102-0.122
							c-0.249,0.208-1.055,0.255-1.35,0.256l0.001,0.16C162.621,236.202,162.689,236.202,162.792,236.197z"/>
					</g>
					<polygon fill="#C6D6ED" points="154.948,235.911 155.258,235.617 156.694,236.901 157.32,237.842 155.577,237.126 
						155.303,236.318 153.601,236.898 154.222,236.111 					"/>
					<path fill="#CDDDF5" d="M153.355,238.179c0,0,0.833-0.505,1.498-0.554s2.582,0.763,2.582,0.763l0.016,0.253l-2.185-0.67
						L153.355,238.179z"/>
					<path fill="#C6D6ED" d="M162.184,240.594c0,0,1.292,0.045,1.612-1.413c0.321-1.458,0.159-1.539,0.159-1.539
						s0.915,1.408-0.098,3.053C163.352,241.121,162.477,240.867,162.184,240.594z"/>
					<path fill="#CDDDF5" d="M157.435,237.551c0,0,2,2.838,4.792,3.719c0.434,0.076-0.042-0.319-0.628-0.631
						C161.012,240.328,159.523,239.803,157.435,237.551z"/>
					<path fill="#CDDDF5" d="M159.568,238.061c0,0,0.915,1.015,1.832,1.259c0.917,0.243,2.198,0.282,1.836-1.153
						C162.596,239.081,160.776,239.041,159.568,238.061z"/>
					<path fill="#CDDDF5" d="M157.029,235.604c0,0-0.169,0.577,2.571,2.97C158.911,237.65,157.627,236.333,157.029,235.604z"/>
				</g>
				<g>
					<path fill="#485455" d="M149.387,252.195c0,0,0.928-8.186,1.478-9.836c0.549-1.649,0.736-2.229,2.266-2.496
						c1.529-0.268,2.584,1.47,2.302,3.824s-4.127,12.072-4.413,12.451C150.735,256.518,149.821,255.277,149.387,252.195z"/>
					<path fill="#485455" d="M149.316,253.248c0,0-0.184-0.728,0.451-1.301c0.634-0.572,2.761-1.425,2.895-0.835
						c0.134,0.591,0.271,10.722,0.292,11.064s-0.949,0.765-1.896,0.721c-0.948-0.043-1.271-0.264-1.361-0.602
						S149.316,253.248,149.316,253.248z"/>
					<path fill="#FEBFBF" d="M152.75,262.078c0,0,0.218,0.459,0.288,0.893c0.07,0.434,0.141,1.563,0.203,1.73
						s0.208,0.434,0.089,0.597c-0.119,0.162-0.454,0.157-0.662-0.285c-0.208-0.442-0.347-1.559-0.347-1.559s-0.279,0.61-0.287,0.765
						c-0.007,0.155,0.056,1.027,0.152,1.177c0.095,0.148,0.387,0.009,0.482,0.029s0.17,0.109,0.17,0.109s0.279,0.069,0.241,0.415
						c-0.135,0.18-0.654,0.213-0.931,0.205c-0.277-0.009-0.687-0.241-0.687-0.241l-0.409-0.077l-0.294-0.438l-0.229-0.226
						c0,0-0.243-0.183-0.309-0.272s-0.534-1.513-0.547-1.727c-0.013-0.215,0.067-1.113,0.067-1.113L152.75,262.078z"/>
					<polygon fill="#FEBFBF" points="150.984,264.537 151.426,265.906 151.303,265.883 					"/>
					<polygon fill="#FEBFBF" points="150.412,264.359 150.759,265.398 150.641,265.282 					"/>
				</g>
			</g>
		</g>
	</g>
</g>
</svg>
