<?xml version="1.0" encoding="utf-8"?>
<!-- Generator: Adobe Illustrator 16.0.0, SVG Export Plug-In . SVG Version: 6.00 Build 0)  -->
<!DOCTYPE svg PUBLIC "-//W3C//DTD SVG 1.1//EN" "http://www.w3.org/Graphics/SVG/1.1/DTD/svg11.dtd">
<svg version="1.1" id="Layer_1" xmlns="http://www.w3.org/2000/svg" xmlns:xlink="http://www.w3.org/1999/xlink" x="0px" y="0px"
	 width="463.683px" height="425.749px" viewBox="0 0 463.683 425.749" enable-background="new 0 0 463.683 425.749"
	 xml:space="preserve">
<g>
	<path fill="#D7E4F2" d="M364.412,299.623c-3.863-2.459-10.31-2.726-14.397-0.596c-0.503,0.263-0.946,0.55-1.331,0.855
		c-3.451-0.707-7.364-0.363-10.177,1.103c-4.147,2.161-4.33,5.936-0.41,8.431c3.921,2.494,10.46,2.766,14.607,0.604
		c0.563-0.293,1.047-0.619,1.464-0.965c3.354,0.646,7.119,0.297,9.841-1.122C368.095,305.803,368.277,302.082,364.412,299.623z"/>
	<path fill="#C29F70" d="M355.157,249.654c0,0,2.176-1.63,3.033-1.692c0.72-0.052,4.399,1.084,6.3,1.886
		c0.359,0.152,0.643,1.225,0.779,1.318c0.861,0.586,0.972,5.811-0.105,6.832C364.087,259.02,355.157,249.654,355.157,249.654z"/>
	<path fill="#C29F70" d="M354.325,246.411c0,0-0.36-1.351,0.496-1.413s6.945,1.955,7.807,2.541c0.86,0.588,0.971,5.812-0.105,6.833
		C361.445,255.395,354.325,246.411,354.325,246.411z"/>
	<path fill="#C29F70" d="M354.278,263.97c0,0,0.654-10.509,1.511-10.571c3.866-0.281,9.989,2.343,9.033,1.691
		c0.861,0.587,1.403,10.227,0.326,11.249c-0.109,0.104-2.499,1.227-2.738,1.255C360.316,267.838,354.278,263.97,354.278,263.97z"/>
	<path fill="#BCC2D0" d="M365.257,252.151c0,0-0.1-1.131-0.611-1.584c-0.512-0.452-1.092-0.081-1.859-0.088
		c-0.767-0.008-1.978-0.799-2.59-1.452c-0.611-0.654-2.502-1.606-3.606-1.931c-1.104-0.323-2.818-0.134-2.818-0.134
		s2.003,16.93,4.179,18.486s4.387,2.176,4.818,2.016s0.599-0.419,0.599-0.419s0.001-5.804-0.019-6.525
		c0.511-6.261-0.497-8.779-0.38-9.161C363.085,250.977,365.257,252.151,365.257,252.151z"/>
	<path fill="#3C3B4E" d="M355.925,304.084c0,0-0.283,0.256-0.267,0.371c0.017,0.114-0.016,0.213,0.002,0.41s0.751,0.475,1.507,0.553
		c0.757,0.078,2.552-0.347,3.744-1.213c0.773-0.562,1.352-1.572,1.6-1.932c0.129-0.188,0.293-0.053,0.293-0.053l0.669-1.121
		c0,0,0.212-0.379,0.212-0.461c-0.001-0.082-0.202-0.904-0.219-0.92c-0.016-0.017-2.885,0.768-2.885,0.768L355.925,304.084z"/>
	<polygon fill="#773952" points="340.808,300.563 342.076,296.562 344.709,296.873 343.44,301.975 340.429,301.455 	"/>
	<path fill="#3C3B4E" d="M335.348,301.476l-0.395,0.118l-0.081,0.724c0,0,0.543,0.868,2.268,1.08c0.366,0.045,1.73,0.11,2.88,0.159
		c0.283,0.012,0.891-0.153,1.13-0.145c0.549,0.023,0.597,0.213,0.597,0.213l2.792-0.077c0,0,0.31-0.962,0.206-1.109
		c-0.104-0.147-3.889,0.312-3.889,0.312l-3.559-0.312L335.348,301.476z"/>
	<g>
		<path fill="#DBC2A2" d="M345.511,269.784c-0.046-0.002-0.093-0.013-0.138-0.033l0.088-0.196c0.257,0.113,0.669-0.51,0.829-0.832
			l0.193,0.096C346.429,268.928,345.981,269.805,345.511,269.784z"/>
	</g>
	<path fill="#7C745F" d="M344.238,300.805l0.108,0.954l-0.086,0.765l-1.813,0.408l-4.981-0.308c0,0-2.375-0.938-2.512-1.03
		c-0.136-0.092,0.276-0.512,0.276-0.512l3.798-0.485l1.621-1.167l1.376,0.865c0,0,0.553,0.942,0.864,0.887
		c0.156-0.027,0.493-0.121,0.791-0.209l0.177-0.674C344.011,300.252,344.238,300.805,344.238,300.805z"/>
	<path fill="#CCA776" d="M359.498,298.063l-0.44,0.594l-0.501,1.719c0,0-2.478,2.017-2.875,2.971
		c-0.106,0.256-0.022,1.109-0.022,1.109s0.571,0.454,1.591,0.498c1.02,0.045,3.541-1.081,4.049-1.691
		c0.212-0.256,0.698-0.873,1.057-1.356c0.498-0.672,0.705-0.713,1.215-1.8c0.003-0.322-0.492-1.376-0.492-1.376l-0.832-1.014
		L359.498,298.063z"/>
	<path fill="#BFA783" d="M354.316,274.222c-0.004,0.104-0.901-0.28-0.997-0.169c-0.457,0.572-1.543,4.609-3.482,8.112
		c-0.35,0.626-0.572,1.314-0.634,2.028c-0.276,3.199-1.784,9.235-2.883,10.303c-0.34,1.31-0.597,2.271-0.788,2.976
		c-0.47,1.698-0.558,1.9-0.558,1.9s-0.655,0.068-1.462,0.063c-1.132-0.012-2.769-0.321-3.085-1.03
		c-0.154-0.336,1.094-1.69,0.394-4.863c0.058-0.359-0.342-5.529,1.394-10.985c0.281-0.883,0.455-1.807,0.524-2.741
		c0.529-7.093,2.889-11.422,3.235-12.01c0.374-0.628,1.152-1.562,1.152-1.562s3.586,3.027,5.69,5.465
		C353.727,272.75,354.354,273.681,354.316,274.222z"/>
	<path fill="#CFD4DD" d="M354.316,274.222c-0.004,0.104-0.901-0.28-0.997-0.169c-0.457,0.572-1.543,4.609-3.482,8.112
		c-0.35,0.626-0.572,1.314-0.634,2.028c-0.276,3.199-1.784,9.235-2.883,10.303c-0.34,1.31-0.597,2.271-0.788,2.976
		c-1.102,0.934-1.742-0.952-0.341-2.216c2.739-2.472,0.759-4.919,1.43-8.136c0.666-3.223,1.527-4.292,1.527-4.292
		s0.798-2.394,1.232-5.859c0.457-3.657,0.547-4.28,0.547-4.28s1.665-0.606,2.89-0.98
		C353.727,272.75,354.354,273.681,354.316,274.222z"/>
	<path fill="#BFA783" d="M362.412,298.541c-0.933,0.703-6.024-4.482-5.416-4.51c-0.816,0.028-2.701-6.026-3.455-8.549
		c-2.161-5.436-2.426-11.378-2.426-11.378s-1.093-0.711-1.462-1.661c-0.121-0.313-0.225-1.712-0.271-2.161
		c-0.041-0.48,0.675-0.938,0.674-1.292c0.001-0.312,0.007-0.513,0.007-0.513s0.146-0.012,0.395-0.026
		c1.801-0.143,8.927-0.535,9.378,0.162c0.039,0.054,0.071,0.126,0.104,0.204c0.648,1.429,1.106,6.613,0.298,14.453
		c-0.091,0.856,0.031,1.729,0.34,2.53c1.336,3.471,1.906,6.158,1.353,8.257c-0.016,0.056,0.027,0.414,0.1,0.899
		C362.202,296.243,362.542,298.444,362.412,298.541z"/>
	<path fill="#CFD4DD" d="M362.029,294.957c-0.678-0.007-0.819-0.746-0.651-2.209c0.439-1.521-0.645-4.929-0.645-4.929
		s-1.352-1.678-1.72-3.646c0.279-2.448,0.322-7.942,0.004-9.705s-12.753-0.591-13.841-4.451c-0.896-3.179,14.763-1.199,14.763-1.199
		c0.648,1.429,1.106,6.613,0.298,14.453c-0.091,0.856,0.031,1.729,0.34,2.53c1.336,3.471,1.906,6.158,1.353,8.257
		C361.914,294.113,361.957,294.472,362.029,294.957z"/>
	<g>
		<path fill="#DBC2A2" d="M357.456,274.891c-2.175-0.094-3.19-1.544-3.203-1.562l0.15-0.103c0.014,0.02,1.406,2.002,4.454,1.358
			l0.038,0.178C358.369,274.874,357.889,274.909,357.456,274.891z"/>
	</g>
	<g>
		<path fill="#DBC2A2" d="M350.199,272.632c-0.072-0.003-0.15-0.029-0.229-0.079c-0.343-0.215-0.686-0.852-0.629-1.738
			c0.03-0.479,0.241-2.384,0.289-2.613l0.211,0.044c-0.041,0.196-0.253,2.083-0.284,2.583c-0.055,0.854,0.286,1.391,0.528,1.542
			c0.07,0.045,0.133,0.057,0.174,0.035c0.059-0.033,0.094-0.148,0.092-0.309c-0.014-1.116,0.28-3.686,0.472-3.792l0.056-0.031
			l0.061,0.034l-0.058,0.091l0.001,0.004l0.077,0.062c-0.088,0.166-0.409,2.278-0.393,3.63c0.004,0.317-0.108,0.447-0.203,0.5
			C350.314,272.622,350.258,272.635,350.199,272.632z"/>
	</g>
	<g>
		<path fill="#504F60" d="M359.09,270.176c0,0-1.751,1.096-5.258,0.781s-4.824-0.746-5.976-1.377
			c-1.152-0.632-1.844-1.408-1.844-1.408l0.26-1.131c0,0,0.631,0.966,2.277,1.674c1.646,0.707,5.232,1.076,6.695,1.173
			c1.462,0.098,3.748-0.612,3.748-0.612L359.09,270.176z"/>
		<path fill="#BFA783" d="M352.144,269.625c0,0-0.108,0.321-0.137,0.707c-0.029,0.385-0.039,1.096-0.039,1.096l-0.529-0.094
			c0,0-0.069-0.688-0.036-1.031c0.033-0.342,0.173-0.811,0.173-0.811L352.144,269.625z"/>
		<path fill="#4F5997" d="M357.228,269.844c0,0,0.082,0.33,0.081,0.717s-0.047,1.096-0.047,1.096l0.534-0.05
			c0,0,0.123-0.681,0.117-1.024c-0.007-0.344-0.109-0.823-0.109-0.823L357.228,269.844z"/>
		<path fill="#BFA783" d="M347.314,267.992c0,0-0.146,0.397-0.177,0.725c-0.032,0.328,0.019,0.893,0.019,0.893l-0.342-0.382
			c0,0-0.033-0.57-0.016-0.748c0.017-0.178,0.232-0.692,0.232-0.692L347.314,267.992z"/>
		<g>
			<path fill="#CCDEFB" d="M350.643,270.694c-0.063-0.001-0.127-0.007-0.191-0.021l-1.003-0.205
				c-0.428-0.087-0.736-0.422-0.704-0.762l0.03-0.324c0.016-0.166,0.11-0.311,0.265-0.408c0.176-0.11,0.409-0.146,0.643-0.098
				l1.002,0.204c0.428,0.087,0.737,0.423,0.705,0.763l-0.031,0.324c-0.016,0.166-0.109,0.311-0.265,0.408
				C350.967,270.656,350.809,270.696,350.643,270.694z M349.467,269.228c-0.069-0.001-0.132,0.015-0.178,0.044
				c-0.049,0.029-0.075,0.072-0.081,0.127l-0.03,0.325c-0.016,0.159,0.165,0.339,0.387,0.384l1.003,0.205
				c0.107,0.021,0.209,0.01,0.276-0.033c0.048-0.03,0.075-0.073,0.08-0.127l0.031-0.324c0.015-0.16-0.166-0.34-0.388-0.385
				l-1.002-0.205C349.532,269.231,349.499,269.229,349.467,269.228z"/>
		</g>
	</g>
	<g>
		<path fill="#263336" d="M360.031,270.867c-0.02,0.295-0.174,0.519-0.34,0.675c-0.05,0.046-0.108,0.092-0.171,0.144
			c-0.084,0.063-0.172,0.13-0.271,0.189c-0.255,0.164-0.553,0.307-0.85,0.354c-0.824,0.126-1.208-1.064-1.229-1.288
			c-0.022-0.224-0.366-0.556-0.366-0.556c0.1-0.132,1.987-0.544,1.987-0.544l0.694-0.199c0,0,0.286,0.103,0.441,0.173
			C360.088,269.891,360.087,270.193,360.031,270.867z"/>
		
			<ellipse transform="matrix(0.9814 0.1922 -0.1922 0.9814 58.8472 -63.8159)" fill="#CCDEFB" cx="358.316" cy="271.377" rx="0.193" ry="0.236"/>
	</g>
	<path fill="#BFA783" d="M350.052,251.607c0,0-0.521,1.115-1.236,2.552c-1.128,2.243-2.132,7.161-2.992,7.956
		c-0.031,0.03-0.064,0.055-0.092,0.077c-0.29,0.223-0.584,0.31-0.88,0.316c-1.074,0.003-2.773-1.858-2.773-1.858
		s0.272-0.763,0.664-1.88c0,0,0,0,0.005-0.007c0.978-2.769,2.028-8.761,2.359-9.507c1.38-3.102,2.871-3.318,2.871-3.318l1.957-0.585
		L350.052,251.607z"/>
	<path fill="#F7D165" d="M346.708,256.114c0,0-0.706,0.112-1.515-0.038c-0.81-0.151-1.39-1.111-1.39-1.111l-0.559,1.925
		c0,0,0.538,0.821,1.882,1.144c1.345,0.321,2.352-0.064,2.352-0.064l0.557-1.545C348.035,256.424,347.403,256.074,346.708,256.114z"
		/>
	<path fill="#BFA783" d="M346.511,260.662c0,0,0.153,0.461-0.047,0.848c-0.923,1.758-2.967,5.801-4.655,8.188
		c-0.104-0.001-0.615,0-0.788-0.119c-0.652-0.425-1.742-1.787-1.742-1.787s0.984-4.279,1.503-5.273
		c0.335-0.653,1.288-2.908,2.023-3.709c0,0,0,0,0.004-0.008c0.216-0.432,0.368-0.736,0.368-0.736l2.805,2.158L346.511,260.662z"/>
	<path fill="#CFD4DD" d="M347.895,253.132c-0.683,2.416-0.736,7.435-1.431,8.378c-0.923,1.758-2.967,5.801-4.655,8.188
		c-0.104-0.001-0.615,0-0.788-0.119c0.004-0.008,0.008-0.016,0.008-0.016s3.731-6.796,3.762-6.854
		c0.221-0.401,0.98-1.867,1.191-2.486c0.301-0.88-0.109-3.32,0.042-3.871c0.275-1.002-0.587-4.361-0.587-4.361
		S346.85,252.463,347.895,253.132z"/>
	<path fill="#FEBFBF" d="M340.772,267.457c0,0-0.184,0.012-0.41,0.11c-0.226,0.098-0.524,0.313-0.524,0.313l-0.938,0.266
		l-1.01,0.963l-0.809,0.218l-0.137,0.333l0.914,0.295l0.277-0.136l-1.325,2.784c0,0,0.072,0.264,0.187,0.258
		c0.115-0.007,0.14,0.064,0.14,0.064s-0.292,0.309-0.182,0.469c0.11,0.158,0.25,0.244,0.465,0.063
		c0.051-0.063,0.051-0.063,0.051-0.063s0.055,0.133,0.238,0.117c0.183-0.017,0.603-0.354,0.603-0.354s0.063,0.304,0.358,0.224
		c0.295-0.08,1.563-1.498,1.563-1.498s0.326-0.252,0.701-0.871s0.638-1.725,0.638-1.725l0.021-0.352l0.065-0.444
		C341.658,268.491,341.084,267.482,340.772,267.457z"/>
	<path fill="#FEBFBF" d="M339.623,268.101c0,0,0.096-0.319,0.505-0.504c0.381-0.171,0.821-0.044,1.104,0.128
		c0.439,0.269,0.715,0.938,0.575,1.258c-0.141,0.321-0.341,0.441-0.341,0.441L339.623,268.101z"/>
	<path fill="#7C745F" d="M340.035,266.975c0,0-0.493,0.558-0.516,0.831c-0.021,0.273-0.021,0.273-0.021,0.273l0.209-0.057
		c0,0,0.23-0.365,0.421-0.426c0.191-0.06,0.847-0.028,1.178,0.499c0.33,0.526,0.343,0.982,0.343,0.982l-0.108,0.339l-0.042,0.157
		c0,0,0.138-0.102,0.344-0.362c0.206-0.26,0.378-0.615,0.399-0.784S341.801,266.281,340.035,266.975z"/>
	<polygon fill="#FEBFBF" points="338.302,270.949 338.233,271.288 337.048,272.864 337.136,272.926 338.29,271.389 338.522,271.219 
			"/>
	<polygon fill="#FEBFBF" points="338.792,271.508 338.394,272 337.419,273.457 337.552,273.422 338.716,271.815 339.02,271.568 	"/>
	<polygon fill="#FEBFBF" points="339.572,271.79 339.282,271.77 339.262,272.005 338.255,273.207 338.334,273.224 339.294,272.136 
		339.659,271.799 	"/>
	<path fill="#CEB18C" d="M360.332,271.473c-0.019,0.249-0.668,0.693-1.589,0.955c-0.224,0.068-0.464,0.124-0.716,0.161
		c-0.479,0.075-2.103,0.089-2.748,0.058c-2.313-0.109-3.685-0.511-4.876-0.726c-0.134-0.025-0.306-0.259-0.446-0.491
		c-0.136-0.227-0.241-0.451-0.241-0.451s-0.182,0.229-0.367,0.403c-0.134,0.122-0.267,0.214-0.345,0.186
		c-1.81-0.672-3.799-1.572-4.002-2.802c1.431-5.716,1.112-9.391,1.003-12.728c-0.119-3.647,0.553-6.733,0.688-7.136
		c0.142-0.401,0.672-1.816,1.715-2.059c1.043-0.25,5.674-0.651,6.834,0.1c1.166,0.751,3.56,1.486,4.936,2.425
		c1.377,0.932,1.033,0.349,1.07,2.76c0.008,0.61-0.284,1.737-0.587,2.852c-0.164,0.62-0.334,1.235-0.45,1.761
		c-0.496,2.215-0.815,4.945-0.815,4.945C360.684,266.377,360.364,271.047,360.332,271.473z"/>
	<path fill="#DBC2A2" d="M352.087,254.583l-0.068,0.735l1.584,0.89l2.204-0.235l0.019-0.677
		C353.925,255.204,352.087,254.583,352.087,254.583z"/>
	<path fill="#CCDEFB" d="M352.151,253.996l-0.049,0.344c0,0,1.291,0.492,3.777,0.723l0.011-0.354
		C353.996,254.529,352.151,253.996,352.151,253.996z"/>
	<g>
		<path fill="#DBC2A2" d="M350.916,256.541c-0.011,3.178-0.495,11.289-0.96,14.891c-0.136-0.226-0.241-0.45-0.241-0.45
			s-0.182,0.229-0.366,0.403c0.456-3.553,0.944-11.744,0.958-14.849c0.023-4.093,0.943-6.995,0.979-7.122l0.949,0.749
			C352.228,250.188,350.935,252.546,350.916,256.541z"/>
	</g>
	<path fill="#7C745F" d="M351.038,249.365c0,0-0.687,2.725-0.469,5.766c1.231-3.029,2.272-4.258,2.448-4.649
		c0.175-0.392-0.283-0.781-0.283-0.781S351.729,249.665,351.038,249.365z"/>
	<path fill="#656565" d="M362.408,255.121c0,0,1.037,0.609,0.732,3.454c-0.306,2.845,0.157,6.688-0.868,7.414
		C361.246,266.716,362.408,255.121,362.408,255.121z"/>
	<path fill="#7A6D5C" d="M348.977,252.082c0,0,0.311-2.314,0.823-3.311c0.857-1.664,2.338-2.012,2.338-2.012
		s-2.304-0.227-3.021-0.005c-1.106,0.521-2.298,3.016-2.395,5.045C346.606,254.282,348.977,252.082,348.977,252.082z"/>
	<path fill="#847663" d="M348.806,252.074c0,0,0.311-2.314,0.823-3.311c0.857-1.664,2.338-2.012,2.338-2.012
		s-2.304-0.227-3.021-0.006c-1.105,0.521-2.297,3.017-2.394,5.045C346.435,254.273,348.806,252.074,348.806,252.074z"/>
	<path fill="#7A6D5C" d="M361.367,259.438c0,0-3.068,0.998-3.871-1.494c-0.802-2.492-0.813-3.751-0.813-3.751l-3.092-1.068
		l-0.061,0.28l-0.45,0.915c0,0-1.823,0.098-2.523-0.274c-0.699-0.371-1.223-0.87-1.223-0.87l-0.462-1.354l-2.301-0.288l-0.019,0.259
		l0.06,1.273l-0.481,1.43c0,0,0.145,6.805-0.395,11.038c0.385,1.445,4.267,2.603,8.324,3.085c4.768,0.567,7.146-2.107,7.231-2.21
		C361.376,266.306,361.367,259.438,361.367,259.438z"/>
	<path fill="#847663" d="M361.064,259.661c0,0-3.068,0.998-3.871-1.493c-0.802-2.492-0.813-3.752-0.813-3.752l-2.85-1.012
		l-0.753,1.139c0,0-1.823,0.098-2.522-0.273c-0.7-0.372-1.223-0.87-1.223-0.87l-0.313-1.337l-2.167-0.271l-0.243,1.498l-0.481,1.429
		c0,0,0.145,6.806-0.394,11.038c0.384,1.445,4.266,2.604,8.324,3.086c4.767,0.566,7.146-2.108,7.23-2.21
		C361.074,266.529,361.064,259.661,361.064,259.661z"/>
	<g>
		<path fill="#92826E" d="M346.386,255.675c0,0-0.627-0.049-0.725,0.785c-0.097,0.835-0.275,2.58-0.138,2.892s2.277,1.29,2.663,1.29
			c0.387-0.001,0.705-0.043,0.705-0.043l0.315-3.894L346.386,255.675z"/>
		<path fill="#8A7B68" d="M345.583,257.188l2.971,1.146l-0.367,2.309c0,0-1.347-0.213-2.659-1.205
			C345.403,259.123,345.583,257.188,345.583,257.188z"/>
		<path fill="#7A6D5C" d="M349.208,256.705c0,0-0.626,0.295-0.742,0.842c-0.117,0.547-0.278,3.095-0.278,3.095l0.705-0.043
			L349.208,256.705z"/>
	</g>
	<g>
		<path fill="#92826E" d="M349.79,256.846c0,0-0.591,0.103-0.688,0.938c-0.097,0.834-0.286,2.801-0.148,3.113
			c0.138,0.312,1.717,0.658,2.103,0.657c0.387-0.001,0.608-0.048,0.608-0.048l0.326-4.115L349.79,256.846z"/>
		<path fill="#8A7B68" d="M349.027,258.488l2.219,0.545l-0.19,2.521c0,0-1.442-0.148-2.166-0.58
			C348.829,260.942,348.853,259.764,349.027,258.488z"/>
		<path fill="#7A6D5C" d="M351.99,257.391c0,0-0.529,0.299-0.646,0.847c-0.117,0.547-0.289,3.316-0.289,3.316l0.608-0.048
			L351.99,257.391z"/>
	</g>
	<g>
		<path fill="#92826E" d="M352.544,257.52c0,0-0.3,0.147-0.369,0.994s-0.325,2.766-0.149,3.047c0.146,0.234,2.071,0.576,2.98,0.643
			c0.187,0.014,0.905,0.045,0.905,0.045l0.642-4.19L352.544,257.52z"/>
		<path fill="#8A7B68" d="M356.03,259.637l-3.912-0.523c0,0-0.215,1.902-0.18,2.393c0.062,0.219,0.332,0.268,0.332,0.268
			s2.829,0.566,3.642,0.475C356.068,261.76,356.03,259.637,356.03,259.637z"/>
		<path fill="#7A6D5C" d="M356.553,258.058c0,0-0.43,0.215-0.476,0.766s-0.166,3.425-0.166,3.425l0.446-0.161L356.553,258.058z"/>
	</g>
	<g>
		<path fill="#92826E" d="M346.142,260.79c0,0-0.627-0.049-0.724,0.785c-0.097,0.835-0.238,1.798-0.101,2.108
			c0.138,0.313,2.276,1.291,2.663,1.291c0.386-0.001,0.704-0.043,0.704-0.043l0.278-3.111L346.142,260.79z"/>
		<path fill="#8A7B68" d="M345.339,262.303l2.971,1.146l-0.329,1.526c0,0-1.348-0.213-2.66-1.205
			C345.196,263.457,345.339,262.303,345.339,262.303z"/>
		<path fill="#7A6D5C" d="M348.963,261.82c0,0-0.626,0.295-0.742,0.842s-0.24,2.313-0.24,2.313l0.704-0.043L348.963,261.82z"/>
	</g>
	<g>
		<path fill="#92826E" d="M349.546,261.961c0,0-0.592,0.104-0.688,0.938c-0.098,0.834-0.249,2.02-0.111,2.331
			s1.717,0.657,2.103,0.657c0.387-0.001,0.608-0.048,0.608-0.048l0.289-3.333L349.546,261.961z"/>
		<path fill="#8A7B68" d="M348.783,263.604l2.219,0.545l-0.152,1.738c0,0-1.442-0.148-2.166-0.58
			C348.622,265.275,348.609,264.879,348.783,263.604z"/>
		<path fill="#7A6D5C" d="M351.747,262.506c0,0-0.53,0.3-0.646,0.847s-0.251,2.534-0.251,2.534l0.608-0.048L351.747,262.506z"/>
	</g>
	<g>
		<path fill="#92826E" d="M352.3,262.635c0,0-0.299,0.147-0.368,0.994s-0.289,1.983-0.112,2.265
			c0.146,0.233,2.071,0.577,2.979,0.642c0.188,0.014,0.905,0.046,0.905,0.046l0.605-3.408L352.3,262.635z"/>
		<path fill="#8A7B68" d="M355.787,264.752l-3.912-0.523c0,0-0.178,1.121-0.144,1.61c0.063,0.218,0.333,0.267,0.333,0.267
			s2.829,0.566,3.641,0.476C355.861,266.093,355.787,264.752,355.787,264.752z"/>
		<path fill="#7A6D5C" d="M356.31,263.173c0,0-0.43,0.215-0.477,0.766c-0.045,0.551-0.129,2.643-0.129,2.643l0.446-0.161
			L356.31,263.173z"/>
	</g>
	<path fill="#7A6D5C" d="M353.594,253.464c0,0,0.655-3.353,1.991-4.6c0.964-0.868,1.338-1.052,1.338-1.052s2.024,0.537,3.178,1.357
		c0.017,0.011-0.023,0.149-0.007,0.161c-1.142-0.307-2.837,1.674-3.507,5.321C354.169,254.175,353.594,253.464,353.594,253.464z"/>
	<path fill="#847663" d="M353.601,253.303c0,0,0.656-3.354,1.992-4.6c0.964-0.868,1.338-1.052,1.338-1.052s2.024,0.683,3.17,1.519
		c-1.141-0.307-2.979,1.497-3.649,5.145C354.034,253.838,353.601,253.303,353.601,253.303z"/>
	
		<linearGradient id="SVGID_1_" gradientUnits="userSpaceOnUse" x1="1567.2397" y1="278.8828" x2="1563.5432" y2="275.6685" gradientTransform="matrix(0.9969 0.0781 -0.0781 0.9969 -1184.6125 -153.9397)">
		<stop  offset="0.1224" style="stop-color:#FEC7C7"/>
		<stop  offset="0.9694" style="stop-color:#FFADB7"/>
	</linearGradient>
	<path fill="url(#SVGID_1_)" d="M355.507,243.803c0,0,0.014,1.15,0.419,1.982c0.404,0.832,0.615,0.987,0.615,0.987
		s-1.475,1.764-2.677,2c-1.201,0.236-2.527,0.063-3.032-0.603s-0.076-1.468-0.076-1.468l0.078-2.499c0,0,3.359-4.365,4.054-4.746
		c0.693-0.381,1.404,0.092,1.439,0.765c0.034,0.673-0.513,2.318-0.513,2.318L355.507,243.803z"/>
	
		<linearGradient id="SVGID_2_" gradientUnits="userSpaceOnUse" x1="2216.1108" y1="144.6289" x2="2218.9829" y2="144.6289" gradientTransform="matrix(0.9649 0.2627 -0.2627 0.9649 -1749.499 -476.481)">
		<stop  offset="0.1224" style="stop-color:#FCA4B5"/>
		<stop  offset="0.9896" style="stop-color:#FFADB7"/>
	</linearGradient>
	<path fill="url(#SVGID_2_)" d="M354.036,244.41c0,0-0.739,2.147-1.506,2.613c-0.383,0.232-1.455,0.141-1.676-0.198
		c-0.221-0.34,0.047-1.833,0.047-1.833L354.036,244.41z"/>
	<path fill="#504F60" d="M350.853,246.938c0,0-0.181,0.344-1.055,0.27c-0.629-0.055-0.889-0.423-0.844-0.564
		S350.853,246.938,350.853,246.938z"/>
	<path fill="#DBC2A2" d="M351.609,248.953c0,0-0.826,0.564-1.254,0.507c-0.452-0.327-0.431-1.356-0.375-1.589
		c0.057-0.231,0.296-0.708,0.467-0.88c0.172-0.173,0.414-0.457,0.276-0.162c-0.138,0.294,0.304,1.466,0.949,1.81
		C351.711,248.815,351.609,248.953,351.609,248.953z"/>
	<path fill="#CCA776" d="M349.88,245.475c0,0-1.948,1.949-2.548,3.556c-0.853,2.284-0.733,5.903-1.888,10.489
		c0.133,2.326,0.019,1.816,0.296,1.98c0.278,0.164,1.159-0.755,1.573-1.691c0.414-0.936,1.273-6.342,1.411-8.344
		c0.138-2.001,1.289-4.405,2.452-5.027C352.34,245.816,349.88,245.475,349.88,245.475z"/>
	<path fill="#DBC2A2" d="M356.042,245.84c0,0,0.409,0.512-0.486,1.421c-0.895,0.91-2.311,1.612-2.775,1.695
		c-0.087,0.016-0.233,0.224-0.168,0.46c0.099,0.354,0.48,0.803,0.673,0.899c1-0.306,1.659-0.837,2.714-1.72
		c1.056-0.882,1.196-1.796,1.188-2.027c-0.009-0.23-0.909-0.925-1.038-0.983s-0.34-0.081-0.34-0.081
		C355.855,245.605,356.042,245.84,356.042,245.84z"/>
	<path fill="#FEC7C7" d="M355.595,240.225c-0.023,0.623-0.875,1.483-0.949,2.092c-0.042,0.339-0.089,0.658-0.141,0.939
		c-0.035,0.197-0.076,0.376-0.122,0.528c-0.398,1.48-3.978,2.971-5.013,2.13c-0.357-0.185-0.553-1.643-0.655-2.999
		c-0.085-1.182-0.104-2.276-0.085-2.398c0.038-0.262-0.166-0.973,0.192-2.423c0.353-1.451,2.245-2.256,2.316-2.271
		c1.448-0.285,3.278,1.701,3.539,2.312C354.806,238.424,355.639,239.164,355.595,240.225z"/>
	<path fill="#D6A7AE" d="M354.505,243.256c-0.035,0.197-0.076,0.376-0.122,0.528c-0.398,1.48-3.978,2.971-5.013,2.13
		c-0.357-0.185-0.552-1.917-0.655-2.999c0,0,0.624,0.005,0.988,0.061c0.357,0.062,2.758,0.756,3.223,0.314
		c0.459-0.442,0.653-1.694,0.653-1.694l0.791-0.11C354.371,241.485,354.375,242.76,354.505,243.256z"/>
	<g>
		<path fill="#754554" d="M351.902,240.446c-0.753-0.651-1.883-0.403-1.894-0.401l-0.036-0.156c0.049-0.011,1.219-0.269,2.035,0.437
			L351.902,240.446z"/>
	</g>
	<g>
		<path fill="#754554" d="M349.471,239.888c-0.55-0.411-0.886-0.236-0.899-0.229l-0.079-0.14c0.018-0.01,0.437-0.238,1.074,0.239
			L349.471,239.888z"/>
	</g>
	<g>
		
			<linearGradient id="SVGID_3_" gradientUnits="userSpaceOnUse" x1="1560.605" y1="274.3506" x2="1559.4703" y2="274.8397" gradientTransform="matrix(0.9969 0.0781 -0.0781 0.9969 -1184.6125 -153.9397)">
			<stop  offset="0.1224" style="stop-color:#FEC7C7"/>
			<stop  offset="0.9896" style="stop-color:#FFDBDB"/>
		</linearGradient>
		<path fill="url(#SVGID_3_)" d="M349.485,240.163c0.066,0.268-0.831,2.06-0.877,2.203c-0.047,0.145,0.091,0.276,1.399,0.345
			L349.485,240.163z"/>
		
			<linearGradient id="SVGID_4_" gradientUnits="userSpaceOnUse" x1="1559.5083" y1="274.3623" x2="1560.9839" y2="274.3623" gradientTransform="matrix(0.9969 0.0781 -0.0781 0.9969 -1184.6125 -153.9397)">
			<stop  offset="0.188" style="stop-color:#FFDCDC"/>
			<stop  offset="0.8991" style="stop-color:#FEC7C7"/>
		</linearGradient>
		<path fill="url(#SVGID_4_)" d="M350.004,242.759c-1.132-0.059-1.354-0.163-1.427-0.267c-0.027-0.041-0.033-0.088-0.016-0.141
			c0.012-0.037,0.065-0.153,0.167-0.371c0.226-0.486,0.755-1.621,0.709-1.806l0.094-0.022c0.05,0.199-0.326,1.032-0.715,1.868
			c-0.086,0.183-0.152,0.327-0.164,0.36c-0.009,0.03-0.003,0.045,0.005,0.057c0.073,0.107,0.528,0.183,1.353,0.225L350.004,242.759z
			"/>
	</g>
	<path fill="#FEC7C7" d="M350.388,243.959c0,0-0.883-0.278-1.083-0.285c-0.199-0.007-0.378,0.17-0.378,0.17l0.502,0.475
		L350.388,243.959z"/>
	<path fill="#754554" d="M353.581,241.595c0,0,0.043-1.435-0.179-1.713s-0.758-1.825-0.758-1.825l-2.129-0.344l-1.285-0.329
		l-0.532,0.944c0,0,0.125-0.93,0.328-1.297c0.202-0.367,2.842-3.849,6.755-1.158c2.27,0.786,1.397,4.718,1.287,5.021
		c-0.111,0.305-1.306,2.094-1.306,2.094l-0.255,0.814l0.209-1.775c0,0,0.517-1.265-0.053-1.779
		c-0.568-0.514-1.175,0.117-1.199,0.429c-0.024,0.311-0.094,0.811-0.094,0.811L353.581,241.595z"/>
	
		<linearGradient id="SVGID_5_" gradientUnits="userSpaceOnUse" x1="1565.5308" y1="274.0059" x2="1567.0151" y2="274.0059" gradientTransform="matrix(0.9969 0.0781 -0.0781 0.9969 -1184.6125 -153.9397)">
		<stop  offset="0.1224" style="stop-color:#FEC7C7"/>
		<stop  offset="1" style="stop-color:#FFDEDE"/>
	</linearGradient>
	<path fill="url(#SVGID_5_)" d="M354.778,240.752c0,0,0.319-0.826,1.01-0.528s0.404,1.198-0.082,1.891
		c-0.485,0.692-0.604,0.874-0.942,0.743c-0.337-0.131-0.06-1.153-0.06-1.153L354.778,240.752z"/>
	<path fill="#504F60" d="M339.25,268.048l-0.221,0.062c0,0,0.201,0.052,0.135,0.37c-0.067,0.317-0.289,0.377-0.338,0.547
		c-0.051,0.17-0.07,0.276-0.07,0.276s-0.493,0.359-0.62,0.517c-0.795,0.98-0.933,1.845-0.933,1.845l0.44,0.385l-0.318,0.43
		l0.562,0.459l0.207-0.28l0.459,0.319l0.219-0.248l0.397,0.275c0,0,1.413-1.29,1.604-1.557c0.19-0.266,0.652-0.896,0.78-1.551
		c0.165-0.343,0.071-0.536,0.071-0.536s0.201-0.667-0.746-1.326c-0.591-0.412-1.044-0.278-1.044-0.278l-0.271,0.174L339.25,268.048z
		"/>
	<g>
		<path fill="#FEBFBF" d="M362.08,269.979c-0.01-0.006-0.019-0.012-0.028-0.018c-0.447-0.291-0.529-1.095-0.673-1.569
			c-0.414-1.369-0.607-2.853-0.925-4.249c-0.071-0.309-0.151-0.619-0.177-0.936c-0.359-4.434-1.347-8.064-1.347-8.064
			s-0.03-3.059,1.06-3.393c1.09-0.336,2.31,4.129,2.308,5.415c-0.001,1.286,0.172,2.858,0.172,2.858s0.049,8.443,0.052,8.467
			c0.028,0.188,0.499,1.568,0.346,1.585C362.61,270.103,362.31,270.113,362.08,269.979z"/>
	</g>
	
		<linearGradient id="SVGID_6_" gradientUnits="userSpaceOnUse" x1="572.0522" y1="-150.5898" x2="573.2856" y2="-150.5898" gradientTransform="matrix(1.0894 -0.2446 0.2463 1.0974 -231.5031 546.6721)">
		<stop  offset="0.1224" style="stop-color:#FCA4B5"/>
		<stop  offset="0.9896" style="stop-color:#FFADB7"/>
	</linearGradient>
	<path fill="url(#SVGID_6_)" d="M354.929,240.641c0,0,0.731-0.484,0.881-0.038c0.15,0.446-0.445,1.532-0.602,1.621
		c-0.156,0.088-0.453-0.044-0.453-0.044L354.929,240.641z"/>
	<g>
		<path fill="#A8B0C2" d="M360.332,271.473c-0.019,0.249-0.668,0.693-1.589,0.955c-0.089-0.443-0.218-1.188-0.188-1.833
			c0.047-0.992,0.233-4.399,0.057-5.409c-0.185-1.003-0.3-4.974-0.675-6.724c-0.374-1.745,0.228-4.767,0.228-4.767
			s1.089,0.455,2.495,1.284c-0.164,0.62-0.334,1.235-0.45,1.761c-0.496,2.215-0.815,4.945-0.815,4.945
			C360.684,266.377,360.364,271.047,360.332,271.473z"/>
		<path fill="#CCA776" d="M360.065,248.164l-2.259-1.01c0,0-2.142,0.469-3.221,3.787s-0.934,6.145-1.062,8.229
			c-0.127,2.084,2.855,4.927,3.562,5.239c0.707,0.313,2.979,0.248,2.979,0.248l-0.334-1.155c0,0-2.536-1.947-3.289-3.66
			c-0.754-1.714,0.559-8.168,1.015-9.358C358.081,248.853,360.065,248.164,360.065,248.164z"/>
		<path fill="#BFA783" d="M358.152,258.043c0,0-0.361-3.475-0.374-4.563c-0.014-1.09,0.408-2.567,1.827-3.442
			c0.763-0.471,1.513-0.863,2.421,1.2c0.959,2.179,1.46,8.408,1.042,12.586c-0.06,0.591-1,1.589-2.277,2.107
			S358.152,258.043,358.152,258.043z"/>
		<path fill="#FEBFBF" d="M361.201,273.485c0.049,0.066,0.076,1.14,0.076,1.14s-0.537,0.711-0.62,1.722
			c-0.082,1.011-0.259,1.827-0.259,1.827s-0.225,1.356,0.322,1.482c0.548,0.126,0.728-1.112,0.728-1.112l0.037-0.567l0.514,2.615
			l0.525,0.189l0.32-0.438l0.314-0.271l0.034-0.831l0.115-3.869c0,0,0.17-1.314-0.074-1.919c-0.244-0.605-0.536-4.966-0.536-4.966
			L361.201,273.485z"/>
		<path fill="#7C745F" d="M360.671,274.229c0,0,0,0.345,0.111,0.674c0.112,0.33,0.659,0.453,1.502,0.493
			c1.016,0.049,1.174-0.365,1.174-0.365l0.046-0.956L360.671,274.229z"/>
		<path fill="#BFA783" d="M360.304,260.763c0,0-1.002,1.054-1.197,1.562c0.082,6.325,1.377,12.026,1.377,12.026
			s0.824,0.237,1.59,0.276c1.271,0.066,1.619-0.34,1.619-0.34s-0.094-9.244-0.671-11.342
			C362.735,262.097,360.304,260.763,360.304,260.763z"/>
	</g>
	<path fill="#C29F70" d="M358.63,300.122c0,0-0.284-2.47-0.673-3.396c-0.388-0.926-1.155-2.43-1.155-2.43l0.19-0.266
		c0,0,0.283,0.561,1.978,0.322c1.693-0.237,3.085-1.79,3.035-2.031c-0.051-0.24,0.164-0.052,0.203,0.227
		c0.04,0.278,0.832,6.092,0.869,6.181c0.037,0.088-0.382,0.498-0.829,0.78s-1.582,0.54-1.582,0.54L358.63,300.122z"/>
	<path fill="#504F60" d="M354.561,242.076c0,0-0.388,2.361-1.108,2.861s-2.153,1.184-2.807,1.194
		c0.604,0.063,1.697-0.114,3.168-1.144c0.648-0.68,1.047-2.816,1.047-2.816L354.561,242.076z"/>
	<path fill="#504F60" d="M353.9,240.031c0,0-0.11,2.396-0.478,3.557c-0.366,1.158-0.738,1.955-0.738,1.955s0.271-0.17,0.419-0.321
		c0.15-0.151,0.542-1.402,0.634-1.771c0.092-0.367,0.49-2.506,0.404-3.292C354.087,239.988,354.012,239.898,353.9,240.031z"/>
	<path fill="#BFA783" d="M356.614,242.473c-0.165,0.136-1.988-0.156-2.013-0.196l-0.33-1.056c0,0-0.149-0.731-0.393-0.743
		c0,0-1.481-0.57-3.146-0.743c-0.937-0.097-2.188-0.455-2.642-0.666c-0.406-0.188,0.078-1.842,0.083-1.859
		c0.557-1.815,2.156-2.577,3.047-2.756c0.817-0.164,3.655-0.82,5.793,1.845c0.413,0.514,0.662,1.04,0.796,1.56
		c0.067,0.259,0.107,0.518,0.12,0.771c0.06,0.946,0.18,1.237,0.028,1.899c-0.134,0.584-0.26,0.771-0.637,1.287
		C357.07,242.159,356.682,242.415,356.614,242.473z"/>
	<g>
		<path fill="#D4BB9B" d="M356.792,242.737l-2.435-0.384l-0.097-0.319c-0.206-0.688-0.498-1.407-0.645-1.603
			c-0.409-0.138-2.309-0.483-3.349-0.673c-0.634-0.115-1.189-0.216-1.497-0.28c-0.837-0.174-1.298-0.27-1.532-0.641
			c-0.121-0.191-0.151-0.414-0.09-0.665c0.098-0.398,0.516-1.502,0.563-1.626l0.991,0.377c-0.148,0.39-0.373,1.004-0.479,1.34
			c0.191,0.058,0.511,0.124,0.762,0.177c0.303,0.063,0.849,0.161,1.471,0.274c2.495,0.454,3.431,0.644,3.708,0.803
			c0.327,0.187,0.668,0.822,1.013,1.892l1.271,0.2c0.269-0.271,0.775-0.833,0.985-1.4l0.994,0.368
			c-0.383,1.037-1.405,1.955-1.448,1.993L356.792,242.737z"/>
	</g>
	<path fill="#504F60" d="M349.151,245.703l0.026-0.063c0,0,0.063,0.051,0.442,0.173c0.55,0.178,0.975,0.054,1.247,0.12
		c0.273,0.066,0.284,0.146,0.284,0.146s0.019,0.084-0.388,0.189c-0.405,0.105-1.03-0.049-1.174-0.142
		C349.446,246.036,349.155,245.842,349.151,245.703z"/>
	
		<ellipse transform="matrix(0.991 0.1338 -0.1338 0.991 35.4404 -44.7932)" fill="#FFFFFF" cx="350.922" cy="241.233" rx="0.288" ry="0.267"/>
	
		<ellipse transform="matrix(0.9873 -0.1588 0.1588 0.9873 -33.7899 58.4717)" fill="#FFFFFF" cx="348.94" cy="240.646" rx="0.184" ry="0.253"/>
	<path fill="#373649" d="M351.146,236.509c-0.092-0.017-0.146-0.025-0.146-0.025s-0.052-0.011-0.144-0.027
		c-0.55-0.102-2.272-0.264-2.822,0.45c-0.377,0.647-1.104,1.552-0.919,1.965c0.071,0.157,0.191,0.297,0.244,0.351
		c0.073,0.075,1.208,0.366,1.395,0.364c0.436-0.002,0.958-0.783,1.182-0.715c0.365,0.113,0.21,0.739,1.045,1.112
		c0.187,0.083,0.874,0.397,2.12,0.533c0.521-0.052,1.207-1.313,1.125-2.411c-0.049-0.205-0.658-0.926-1.015-1.114
		C352.381,236.554,351.585,236.59,351.146,236.509L351.146,236.509z"/>
	<path fill="#373649" d="M347.444,236.607c0,0,0.238-0.591,1.318-0.573c-0.172,0.231-0.179,0.267-0.179,0.267L347.444,236.607z"/>
	<path fill="#504F60" d="M350.512,236.2c-0.091-0.017-0.144-0.024-0.144-0.024s-0.052-0.011-0.142-0.027
		c-0.543-0.099-2.243-0.254-2.783,0.459c-0.501,0.874-0.405,2.089-0.356,2.215c0.037,0.104,0.341,0.379,0.869,0.49
		c0.149,0.032,0.213,0.027,0.397,0.025c0.862-0.008,1.018-0.729,1.382-0.641c0.346,0.164,0.367,0.816,1.192,1.184
		c0.185,0.082,0.477,0.164,0.646,0.199c0.617,0.131,1.101,0,1.199-0.086c0.125-0.103,0.928-1.293,0.844-2.387
		C353.395,236.688,351.072,236.303,350.512,236.2L350.512,236.2z"/>
	<path fill="#C2A463" d="M352.561,239.688c-0.036,0.021-0.221,0.085-0.532,0.077c-0.122-0.003-0.251-0.021-0.393-0.046
		c-0.155-0.032-0.423-0.104-0.576-0.174c-0.407-0.174-0.629-0.523-0.738-0.711c-0.099-0.169-0.207-0.354-0.506-0.486l-0.073-0.01
		c-0.209-0.031-0.376,0.023-0.543,0.084c-0.213,0.068-0.428,0.561-0.915,0.57c-0.138-0.001-0.163,0.007-0.275-0.021
		c-0.363-0.072-0.577-0.225-0.645-0.293c-0.027-0.232-0.073-1.136,0.305-1.795c0.092-0.122,0.182-0.461,1.008-0.465
		c0.607-0.004,1.238,0.047,1.481,0.098l0.15,0.029l0.13,0.022c1.379,0.265,2.703,0.708,2.796,1.086
		C353.304,238.54,352.667,239.568,352.561,239.688z"/>
	<path fill="#CCAE72" d="M350.439,236.567l-0.13-0.022l-0.15-0.029c-0.109-0.022-0.305-0.045-0.534-0.063
		c-0.528,0.521-1.254,1.389-1.634,2.512c0.007,0.002,0.012,0.004,0.019,0.006c0.112,0.028,0.138,0.021,0.275,0.021
		c0.487-0.01,0.702-0.502,0.914-0.57c0.168-0.061,0.335-0.115,0.544-0.084l0.073,0.01c0.299,0.133,0.407,0.317,0.506,0.486
		c0.109,0.188,0.331,0.537,0.738,0.711c0.12,0.055,0.31,0.11,0.462,0.147c0.448-0.804,0.921-1.583,1.624-2.182
		C352.813,237.168,351.647,236.799,350.439,236.567z"/>
	<path fill="#D3BD8E" d="M348.206,237.983c0.146-0.601,0.39-1.099,0.679-1.527c-0.646,0.053-1.131,0.315-1.215,0.427
		c-0.378,0.659-0.332,1.563-0.305,1.795c0.04,0.041,0.14,0.111,0.285,0.178C347.709,238.392,348.204,237.993,348.206,237.983z"/>
	<path fill="#BA9059" d="M347.821,237.143c0.092-0.122,0.182-0.46,1.01-0.461c0.609-0.002,1.242,0.051,1.485,0.103l0.15,0.03
		l0.131,0.021c1.141,0.223,2.232,0.565,2.637,0.893c-0.001-0.024,0.003-0.051,0.001-0.075c-0.093-0.378-1.417-0.821-2.796-1.086
		l-0.13-0.022l-0.15-0.029c-0.243-0.051-0.874-0.101-1.481-0.098c-0.826,0.004-0.916,0.343-1.008,0.465
		c-0.378,0.659-0.332,1.563-0.305,1.795c0.024,0.025,0.074,0.062,0.137,0.101C347.483,238.425,347.5,237.698,347.821,237.143z"/>
	<path fill="#656565" d="M353.9,238.424l-0.438,1.334c0,0,1.265,0.744,2.325,0.996c1.062,0.251,2.277,0.327,2.277,0.327
		s0.242-1.175,0.075-1.563C358.139,239.518,356.84,239.758,353.9,238.424z"/>
	<path fill="#CCA776" d="M346.514,294.873c-0.106,0.368-1.667,4.601-1.678,5.096c-0.012,0.496-0.02,1.75-0.077,2.365
		c-0.029,0.339-0.488,0.489-1.009,0.554l-0.006,0.001c-0.424,0.057-0.889,0.049-1.189,0.035c-0.681-0.027-3.939,0.11-5.617-0.336
		c-0.617-0.161-2.095-0.629-1.982-0.992c0,0-0.236-0.69,0.555-1.387c0.784-0.689,2.024-0.619,2.964-0.721
		c0.934-0.096,1.368-0.41,1.482-0.596s0.601-2.387,0.739-3.619c0.132-1.232,0.125-1.732,0.125-1.732s0.652,0.707,2.121,0.975
		c1.476,0.272,2.14,0.332,2.498,0.305c0.353-0.027,1.042-0.366,1.042-0.366S346.621,294.511,346.514,294.873z"/>
	<path fill="#A68860" d="M346.514,294.873c-0.106,0.368-1.667,4.601-1.678,5.096c-0.012,0.496-0.02,1.75-0.077,2.365
		c-0.029,0.339-0.488,0.489-1.009,0.554c0.19-0.234,0.419-0.515,0.551-0.708c0.27-0.399,0.008-2.316,0.053-2.76
		c0.046-0.438,1.071-3.92,1.086-4.6c0.353-0.027,1.042-0.366,1.042-0.366S346.621,294.511,346.514,294.873z"/>
	<path fill="#7C745F" d="M362.14,253c-0.08-0.193-1.18-0.418-1.18-0.418s-0.984,0.597-0.972,0.818
		c0.014,0.221,0.546,2.506,1.792,2.588C362.741,255.288,362.22,253.189,362.14,253z"/>
	<path fill="#A89373" d="M342.3,294.356c0.366,0.359-0.163,2.768-0.163,2.768s0.609-2.032,1.056-2.193
		c0.445-0.161,1.357-0.159,1.357-0.159l-1.122-1.432L342.3,294.356z"/>
	<path fill="#A89373" d="M359.48,294.24c0,0,1.049-0.009,1.208,0.9c0.162-1.175,0.163-1.149,0.462-1.313s1.133-0.747,1.096-1.014
		c-0.037-0.266-0.24-0.492-0.24-0.492S360.842,293.428,359.48,294.24z"/>
	<polygon fill="#C29F70" points="360.237,283.271 356.83,285.165 357.45,286.185 360.275,284.677 	"/>
	<polygon fill="#C29F70" points="360.581,285.515 357.26,287.283 357.5,288.324 360.917,286.716 	"/>
	<path fill="#A89373" d="M358.176,286.261c0.556,2.229-0.27,3.265-1.555,3.634c-1.284,0.369-2.29-0.42-2.854-2.381
		c-0.563-1.96-0.521-3.686,0.764-4.055C355.816,283.089,357.543,283.721,358.176,286.261z"/>
	
		<rect x="344.934" y="283.741" transform="matrix(0.9896 0.144 -0.144 0.9896 44.5356 -47.0043)" fill="#C29F70" width="4.321" height="1.047"/>
	
		<rect x="344.62" y="285.899" transform="matrix(0.9846 0.1749 -0.1749 0.9846 55.4565 -56.2506)" fill="#C29F70" width="4.321" height="1.047"/>
	<path fill="#A89373" d="M345.362,285.652c-0.379,1.907-1.392,2.708-2.677,2.453c-1.286-0.256-1.869-1.453-1.49-3.361
		c0.378-1.908,1.238-3.263,2.524-3.008S345.741,283.745,345.362,285.652z"/>
	<g>
		<path fill="#CFD4DD" d="M345.032,249.794c0,0-0.061,0.918-0.208,1.174s-0.198,0.496-0.198,0.496l-0.873,3.456l0.519,0.596
			l0.541-0.684L345.032,249.794z"/>
		<g>
			<polygon fill="#656565" points="343.759,251.199 343.878,250.734 344.328,249.385 345.022,249.527 344.65,252.002 			"/>
			<path fill="#DBC2A2" d="M344.72,251.381l-1.127-0.204c0,0-0.314,3.421-0.186,3.594c0.053,0.069,0.212,0.123,0.391,0.159
				c0.265,0.055,0.392-0.672,0.411-0.734C344.407,253.556,344.813,251.811,344.72,251.381z"/>
			<path fill="#DBC2A2" d="M362.54,258.004l-1.622,0.17c0,0,0.259,3.452,0.435,3.577c0.071,0.05,1.224-0.066,1.404-0.087
				c0.27-0.029,0.166-0.76,0.165-0.826C362.912,260.168,362.76,258.383,362.54,258.004z"/>
			
				<rect x="344.702" y="248.311" transform="matrix(0.972 0.2351 -0.2351 0.972 68.2307 -74.0893)" fill="#656565" width="0.278" height="1.6"/>
		</g>
		<polygon fill="#DBC2A2" points="344.083,250.117 343.841,250.287 343.593,251.177 343.818,252.143 343.834,251.268 		"/>
	</g>
	<path fill="#504F60" d="M363.342,275.017c0,0-0.065,0.333-0.881,0.335s-1.477-0.215-1.477-0.215s-0.197-0.171-0.335,0.384
		c-0.139,0.554-0.412,1.967-0.168,2.203c0.309-0.25,0.328-0.229,0.584-0.135c0.255,0.093,0.432,0.187,0.415,0.448
		c-0.017,0.263,0.115,1.379,0.259,1.673s0.697,0.217,0.845,0.122s0.55-0.433,0.621-0.746
		C363.277,278.774,363.683,275.44,363.342,275.017z"/>
	<path fill="#A68860" d="M362.227,292.645c-0.299,0.157-0.85,0.47-0.906,0.746c-0.078,0.381,0.552,3.023,0.847,3.445
		c0.109,0.154,0.373,0.188,0.659,0.172L362.227,292.645z"/>
	<g>
		<path fill="#DBC2A2" d="M340.857,299.426c-0.205-0.01-0.523-0.084-1.001-0.229c-0.052-0.016-0.088-0.027-0.1-0.03l0.018-0.084
			l-0.067-0.07c0.04-0.039,0.06-0.033,0.202,0.011c0.878,0.268,1.056,0.233,1.092,0.206c-0.044-0.139-0.306-0.363-0.516-0.544
			c-0.294-0.252-0.446-0.391-0.413-0.528c0.039-0.161,0.288-0.136,0.662-0.097c0.161,0.018,0.648,0.068,0.669-0.007
			c0.029-0.106-0.48-0.479-0.699-0.638c-0.289-0.211-0.442-0.325-0.479-0.418c-0.016-0.038-0.011-0.08,0.012-0.112
			c0.066-0.094,0.245-0.101,0.872-0.077c0.188,0.008,0.45,0.018,0.587,0.007c-0.075-0.077-0.21-0.2-0.333-0.312
			c-0.567-0.517-0.965-0.899-0.91-1.123c0.013-0.049,0.046-0.089,0.095-0.111c0.279-0.133,1.322,0.342,1.635,0.49l-0.079,0.164
			c-0.699-0.333-1.378-0.557-1.479-0.49c-0.024,0.129,0.597,0.693,0.862,0.936c0.292,0.266,0.405,0.373,0.435,0.443l0.02,0.046
			l-0.029,0.063c-0.061,0.087-0.217,0.092-0.809,0.069c-0.213-0.008-0.514-0.019-0.656-0.003c0.082,0.074,0.241,0.19,0.366,0.282
			c0.501,0.365,0.825,0.62,0.768,0.832c-0.062,0.225-0.449,0.183-0.864,0.141c-0.151-0.017-0.373-0.039-0.458-0.024
			c0.041,0.067,0.224,0.224,0.347,0.331c0.254,0.217,0.516,0.442,0.566,0.646c0.021,0.088-0.02,0.143-0.045,0.167
			C341.075,299.409,340.99,299.431,340.857,299.426z"/>
	</g>
	<g>
		<path fill="#DBC2A2" d="M360.218,300.393c-0.557-0.024-1.635-0.343-1.748-0.625c-0.024-0.063-0.011-0.126,0.036-0.174
			c0.12-0.12,0.395-0.162,0.743-0.215c0.285-0.043,0.605-0.092,0.804-0.19c-0.127-0.036-0.383-0.07-0.581-0.097
			c-0.582-0.077-0.973-0.139-1.106-0.293c-0.056-0.064-0.072-0.125-0.05-0.183c0.045-0.111,0.204-0.127,0.468-0.152
			c0.301-0.028,0.712-0.069,0.961-0.27c0.027-0.021,0.041-0.038,0.05-0.048c-0.088-0.051-0.432-0.07-0.664-0.084
			c-0.51-0.029-0.828-0.058-0.939-0.199c-0.037-0.045-0.047-0.098-0.03-0.149c0.053-0.161,0.382-0.263,0.916-0.409
			c0.149-0.041,0.34-0.094,0.451-0.135c-0.091-0.038-0.225-0.086-0.372-0.14c-0.936-0.338-1.646-0.624-1.572-0.966l0.019-0.089
			l0.089,0.019c0.587,0.123,1.73,0.046,2.196,0.006l0.035-0.003l0.007,0.183l-0.003-0.092l0.005,0.091l-0.029,0.003
			c-0.437,0.037-1.466,0.107-2.101,0.016c0.197,0.222,1.062,0.534,1.417,0.662c0.24,0.087,0.414,0.15,0.493,0.195
			c0.074,0.041,0.075,0.102,0.072,0.125c-0.016,0.118-0.181,0.169-0.659,0.301c-0.26,0.071-0.746,0.205-0.792,0.292
			c0.069,0.065,0.515,0.092,0.81,0.108c0.514,0.03,0.784,0.053,0.835,0.212c0.038,0.117-0.079,0.212-0.118,0.243
			c-0.291,0.234-0.734,0.277-1.058,0.309c-0.105,0.011-0.231,0.022-0.294,0.041c0.11,0.109,0.638,0.18,0.988,0.227
			c0.577,0.076,0.766,0.112,0.793,0.243c0.013,0.063-0.021,0.119-0.101,0.167c-0.224,0.132-0.573,0.186-0.911,0.236
			c-0.265,0.04-0.564,0.086-0.642,0.164c0.054,0.118,0.984,0.462,1.588,0.488c0.007,0,0.013,0,0.02,0l-0.006,0.182
			C360.231,300.393,360.224,300.393,360.218,300.393z"/>
	</g>
</g>
</svg>
