<?xml version="1.0" encoding="utf-8"?>
<!-- Generator: Adobe Illustrator 16.0.0, SVG Export Plug-In . SVG Version: 6.00 Build 0)  -->
<!DOCTYPE svg PUBLIC "-//W3C//DTD SVG 1.1//EN" "http://www.w3.org/Graphics/SVG/1.1/DTD/svg11.dtd">
<svg version="1.1" id="Layer_1" xmlns="http://www.w3.org/2000/svg" xmlns:xlink="http://www.w3.org/1999/xlink" x="0px" y="0px"
	 width="463.683px" height="425.749px" viewBox="0 0 463.683 425.749" enable-background="new 0 0 463.683 425.749"
	 xml:space="preserve">
<g>
	<polygon fill="#485455" points="193.562,253.828 196.49,246.662 196.568,246.824 199.472,233.414 203.807,234.353 200.902,247.763 
		200.809,248.196 199.292,247.79 195.774,254.556 	"/>
	<path id="XMLID_79_" fill="#FEA5A4" d="M195.831,254.438c0,0-0.725,1.503-0.956,1.792c-0.232,0.29-1.613,1.391-1.671,1.438
		s-1.286,0.873-1.286,0.873s-0.421-0.001-0.463-0.086c-0.042-0.085,0.029-0.095-0.042-0.085c-0.072,0.008-0.439,0.354-0.499,0.348
		s-0.312-0.14-0.29-0.203c0.021-0.062-0.167-0.104-0.205-0.096c-0.039,0.006-0.229-0.213-0.104-0.406
		c0.125-0.192,0.15-0.298,0.15-0.298s-0.294-0.278-0.17-0.466c0.125-0.187,0.284-0.598,0.864-1.467
		c0.58-0.87,1.09-1.416,1.781-1.755s1.396-0.93,1.396-0.93S195.92,253.608,195.831,254.438z"/>
	<path id="XMLID_78_" fill="#FEBFBF" d="M194.102,254.895c0.052-0.029,0.104-0.063,0.13-0.115c0.144-0.299,0.016-0.888-0.269-1.083
		c-0.317-0.216-0.826-0.085-1.17-0.041c-0.397,0.05-0.81,0.335-1.073,0.615c-0.081,0.086-0.154,0.178-0.214,0.279
		c-0.188,0.317-0.235,0.698-0.371,1.041c-0.02,0.049-0.042,0.104-0.024,0.154c0.022,0.064,0.103,0.095,0.17,0.083
		c0.067-0.011,0.124-0.053,0.177-0.095c0.269-0.21,0.521-0.44,0.754-0.688c0.157-0.167,0.356-0.416,0.611-0.35
		c0.232,0.061,0.348,0.365,0.639,0.398c0.222,0.025,0.432-0.084,0.626-0.189C194.091,254.9,194.097,254.897,194.102,254.895z"/>
	<g>
		<path fill="#D7E4F2" d="M212.192,290.742c-3.676,2.122-9.656,2.111-13.356-0.024c-3.7-2.136-3.719-5.589-0.042-7.711
			c3.677-2.123,9.656-2.112,13.356,0.024C215.85,285.167,215.869,288.619,212.192,290.742z"/>
		<path fill="#8E8E8E" d="M204.812,283.252c0,0,0.369,0.146,0.359,0.432c-0.01,0.286-0.028,1.362-0.028,1.362
			s0.245,0.147,0.389,0.089c0.144-0.06,0.36-0.387,0.36-0.387s0.304-2.104,0.433-2.527
			C206.454,281.798,204.812,283.252,204.812,283.252z"/>
		<path fill="#C2D2EA" d="M206.108,285.057c0,0,0.56-1.973,1.046-2.32c0.485-0.349,2.599-1.014,2.667,0.538
			C209.888,284.826,206.108,285.057,206.108,285.057z"/>
		<path fill="#8E8E8E" d="M208.598,284.723c0,0,0.54-0.188,0.547,0.099s0.005,2.069,0.005,2.069s0.131,0.117,0.271,0.05
			c0.141-0.067,0.337-0.407,0.337-0.407s0.159-1.772,0.263-2.203C210.125,283.9,208.598,284.723,208.598,284.723z"/>
		<path fill="#485455" d="M206.059,282.051c-0.273,0.481-0.963,0.75-1.265,1.09c-0.428,0.479-1.361,2.788-1.673,3.123
			c-0.314,0.334-1.034,0.111-2.182,0.121c-1.151,0.01-0.75,0.063-0.702-0.266c0.046-0.328,0.687-1.225,0.981-1.734
			c0.294-0.512,1.584-1.766,1.903-2.766c0.03-0.091,0.033-0.266,0.013-0.504c-0.185-2.372-2.504-11.195-2.504-11.195
			s-2.547-9.545-2.535-13.823c0.01-3.147,0.834-5.732,0.834-5.732s3.87,1.211,5.153,2.93c0.215,0.292,0.359,0.596,0.397,0.91
			c0.165,1.354,0.028,6.112-0.099,9.558c-0.079,2.134-0.154,3.762-0.154,3.762s0.451,0.917,0.866,2.326
			c0.332,1.135,0.639,2.593,0.665,4.148c0.005,0.257,0.002,0.518-0.01,0.778c-0.038,0.776,0.124,5.586,0.39,6.567
			C206.214,281.627,206.171,281.855,206.059,282.051z"/>
		<path fill="#F2D8D8" d="M203.896,268.484c0,0,0.867,3.597,0.915,5.576c0.048,1.981,0.482,6.109,0.437,6.822
			c-0.048,0.712-0.718,1.303-1.195,2.127c-0.474,0.824-1.283,2.709-2.327,2.251c-0.36-0.16-0.54-0.419-0.621-0.687
			c-0.319,0.52-0.826,1.254-0.869,1.545c-0.046,0.327-0.446,0.277,0.702,0.267c1.15-0.01,1.87,0.213,2.182-0.122
			c0.314-0.334,1.247-2.643,1.672-3.122c0.429-0.481,1.612-0.816,1.346-1.797c-0.266-0.981-0.428-5.792-0.39-6.569
			c0.183-3.8-1.523-7.252-1.523-7.252s0.454-9.737,0.294-12.786l-1.024-2.059L203.896,268.484z"/>
		<path fill="#485455" d="M209.501,267.809c-0.131,1.83,0.449,2.604,0.72,6.124c0.079,1.055-0.684,8.622-0.684,8.622
			s0.228,0.88,0.271,1.468c0.043,0.586-0.441,1.169-1.136,2.702c-0.411,0.91-0.198,0.725-0.481,1.131
			c-0.281,0.402-1.019,1.479-1.959,1.403c-0.714-0.061-0.869-1.252-0.334-3.044c0.167-0.558,0.915-2.849,0.948-3.092
			c0.002-0.013,0.002-0.025,0.005-0.039c0.119-1.1-0.429-5.895-0.775-7.48c-0.125-0.565-0.231-1.121-0.317-1.605
			c-0.16-0.895-0.249-1.543-0.249-1.543s-0.327-1.59-0.411-2.54c-0.002-0.021-0.005-0.04-0.005-0.065
			c-0.068-0.697-0.403-3.569-0.712-6.088c-0.228-1.857-0.443-3.521-0.527-3.977c-0.197-1.09-1.361-5.179-0.537-5.982
			c0.132-0.129,0.403-0.307,0.766-0.509c1.906-1.077,6.382-2.874,6.803-1.919c1.227,2.788,1.188,4.651,0.466,8.681
			C210.591,264.289,209.635,265.977,209.501,267.809z"/>
		
			<linearGradient id="SVGID_1_" gradientUnits="userSpaceOnUse" x1="2111.4497" y1="233.4063" x2="2110.3774" y2="221.6998" gradientTransform="matrix(1 0 0 1 -1902.1113 0)">
			<stop  offset="0.1224" style="stop-color:#F7413E"/>
			<stop  offset="0.9896" style="stop-color:#FF6D67"/>
		</linearGradient>
		<path fill="url(#SVGID_1_)" d="M206.541,223.877c0,0,0.412-2.439,2.709-1.302c1.306,0.647,2.725,2.901,1.061,6.507
			c-1.692,3.67,0.3,6.6,0.3,6.6s-2.222-0.95-3.072-1.746c-0.85-0.797-0.735-0.922-0.625-3.392S206.541,223.877,206.541,223.877z"/>
		
			<ellipse transform="matrix(0.4997 0.8662 -0.8662 0.4997 298.7315 -67.7106)" fill="#FFFFFF" cx="207.978" cy="224.734" rx="2.249" ry="1.743"/>
		<path fill="#485455" d="M201.815,232.823c0,0-2.664-0.659-3.55,3.685c-0.886,4.342-2.007,10.74-2.007,10.74s2.661,1.41,2.939,0.11
			C199.477,246.058,201.815,232.823,201.815,232.823z"/>
		<path fill="#DDE8F6" d="M197.65,245.932l0.451,0.297C197.886,246.122,197.686,245.96,197.65,245.932z"/>
		<path fill="#A8B0C2" d="M200.981,252.876c0,0,1.488,4.976,2.539,5.402c1.051,0.427,7.874-2.364,7.874-2.364l0.464-0.314
			l-0.679-3.51l-9.944,0.762L200.981,252.876z"/>
		<path fill="#3F4A4B" d="M212.021,240.051c-0.233,1.209-0.585,2.664-0.844,4.307c-0.316,2.004-0.494,4.291-0.149,6.759
			c0.028,0.2-0.056,0.472-0.243,0.771c-0.195,0.31-0.502,0.649-0.915,0.964c-1.146,0.874-3.097,1.573-5.705,1.004
			c-4.327-0.943-5.495-2.206-5.521-3.153c-0.002-0.186,0.036-0.36,0.104-0.515c0.005-0.013,0.01-0.022,0.015-0.036
			c0.155-0.321,0.821-2.209,0.218-4.28c-0.012-0.048-0.025-0.094-0.04-0.14c-0.033-0.104-0.069-0.207-0.106-0.307
			c-0.003-0.013-0.008-0.022-0.013-0.033c-0.031-0.086-0.063-0.169-0.097-0.253c-0.018-0.046-0.035-0.091-0.056-0.134l-0.099-0.236
			c-0.03-0.076-0.063-0.152-0.099-0.23c-0.033-0.076-0.066-0.154-0.099-0.23l-0.038-0.092c-0.036-0.084-0.071-0.167-0.104-0.251
			c-0.018-0.043-0.033-0.083-0.051-0.126c-0.068-0.176-0.132-0.353-0.19-0.54v-0.003c-0.266-0.867-0.377-1.878-0.025-3.325
			c0.657-2.712,1.496-6.879,3.551-7.122c2.058-0.243,5.52,0.761,5.52,0.761s2.986,1.411,4.737,2.982
			C212.438,237.191,212.342,238.394,212.021,240.051z"/>
		<path fill="#3F4A4B" d="M211.511,256.231c-0.074,0.065-0.152,0.129-0.236,0.192c-1.146,0.875-3.191,2.297-7.388,1.564
			c-5.936-1.032-6.524-3.126-6.078-4.079c0.076-0.157,0.495-1.559,0.834-3.208c0.038-0.17,0.071-0.343,0.104-0.515
			c0.299-1.584,0.492-3.295,0.233-4.316c-0.012-0.048-0.025-0.094-0.04-0.14c-0.033-0.104-0.069-0.205-0.106-0.307
			c-0.003-0.013-0.008-0.022-0.013-0.033c-0.031-0.086-0.063-0.169-0.097-0.253c-0.018-0.046-0.035-0.091-0.056-0.134
			c-0.03-0.079-0.063-0.158-0.099-0.236c-0.03-0.076-0.063-0.152-0.099-0.23c-0.03-0.076-0.066-0.154-0.099-0.23l-0.038-0.092
			c-0.036-0.084-0.071-0.167-0.104-0.251c-0.018-0.043-0.033-0.083-0.051-0.126c-0.068-0.176-0.132-0.355-0.19-0.54
			c0.56,1.584,3.133,1.198,4.332,1.665c0.008,0.005,0.018,0.008,0.03,0.013c0.008,0.003,0.018,0.005,0.025,0.008
			c0.002,0.003,0.005,0.003,0.008,0.005c0.122,0.048,0.314,0.121,0.56,0.21c0.041,0.016,0.081,0.03,0.124,0.046
			c2.466,0.877,4.233,1.095,4.233,1.095l1.787-0.56l2.088-1.422l0.003-0.003c-0.31,1.952,0.844,7.545,1.224,10.123
			c0.01,0.071,0.02,0.142,0.03,0.213C212.484,255.058,212.165,255.664,211.511,256.231z"/>
		<path fill="#DDE8F6" d="M203.886,233.366c-0.021,0.144-1.056,0.855-1.922,2.315c-0.866,1.461-1.605,5.875-1.605,5.875l0.465,5.695
			l1.313,1.654l2.067-3.511l1.875-5.719l2.271-3.995l-1.231-1.265L203.886,233.366z"/>
		<path fill="#CED8E6" d="M211.511,256.231c-0.246-1.263-0.474-2.836-0.728-4.345c-0.474-2.806-1.037-5.385-1.984-5.307
			c-1.485,0.127-4.327-0.821-5.731-1.336c-0.043-0.016-0.083-0.03-0.124-0.046c-0.246-0.089-0.438-0.162-0.56-0.21
			c-0.01-0.005-0.023-0.01-0.033-0.013c0.008,0.003,0.018,0.005,0.025,0.008c0.649,0.228,3.404,1.173,4.521,1.15
			c1.272-0.028,2.236-1.538,2.19-2.699c-0.045-1.158,0.253-3.141,0.253-3.141s1.323-0.2,2.679-0.243
			c-0.233,1.209-0.585,2.664-0.844,4.307l0.003-0.003c-0.31,1.952,0.844,7.545,1.224,10.123c0.01,0.071,0.02,0.142,0.03,0.213
			C212.484,255.058,212.165,255.664,211.511,256.231z"/>
		<path fill="#FFADB7" d="M208.014,230.656c-0.527,1.521-0.558,1.962-0.631,3.855c-0.048,1.168-0.981,1.686-1.944,1.786
			c-0.598,0.063-1.204-0.03-1.617-0.226c-1.08-0.512-0.616-1.351-0.5-1.816c0.051-0.206,0.015-0.71-0.043-1.209
			c-0.071-0.632-0.178-1.256-0.178-1.256l2.824-2.927C205.926,228.864,208.539,229.133,208.014,230.656z"/>
		
			<linearGradient id="SVGID_2_" gradientUnits="userSpaceOnUse" x1="2106.8931" y1="233.4736" x2="2110.5261" y2="233.875" gradientTransform="matrix(1 0 0 1 -1902.1113 0)">
			<stop  offset="0.1224" style="stop-color:#FCA4B5"/>
			<stop  offset="0.9896" style="stop-color:#FFADB7"/>
		</linearGradient>
		<path fill="url(#SVGID_2_)" d="M207.773,231.107c0,0-0.455,1.779-1.692,2.52c-1.237,0.737-2.491,1.014-2.491,1.014
			s-0.338,0.431-0.212,0.938c0.102,0.403,1.103,0.756,2.061,0.72c-0.598,0.063-1.204-0.03-1.617-0.226
			c-1.08-0.512-0.616-1.351-0.5-1.816c0.051-0.206,0.015-0.71-0.043-1.209l0.922-0.7l2.269-1.521L207.773,231.107z"/>
		<g>
			<path fill="#F7FBFF" d="M201.709,253.143c-0.02-0.407-0.505-9.975-0.305-11.235c0.2-1.261,2.048-6.056,2.126-6.26l0.71,0.274
				c-0.02,0.049-1.897,4.924-2.085,6.104c-0.156,0.981,0.174,8.329,0.314,11.077L201.709,253.143z"/>
		</g>
		<path fill="#FFFFFF" d="M207.455,232.904l-0.1,0.809c0,0-0.86,2.12-3.469,2.071c-0.054,0.406,0.001,1.554,0.407,1.894
			c1.663-0.633,3.597-1.889,3.986-2.998c0.046-0.131-0.194-1.573-0.194-1.573l-0.577-0.516L207.455,232.904z"/>
		<path fill="#FFFFFF" d="M203.389,233.708c0,0-0.148,0.469-0.119,0.729s0.121,0.974,0.616,1.348
			c-0.494,0.629-1.33,0.916-1.648,0.881c0.262-0.964,0.366-1.878,0.479-2.634C202.829,233.275,203.589,233.159,203.389,233.708z"/>
		<path fill="#6A7273" d="M202.678,234.295c0,0-1.306,0.746-1.94,2.022c-0.633,1.276-0.633,1.276-0.633,1.276l0.57,0.697
			l-1.056,0.941c0,0-0.855,2.505,1.988,11.512c0,0-1.143-8.424-0.834-10.004c0.309-1.579,1.714-5.201,1.714-5.201L202.678,234.295z"
			/>
		<path fill="#FEBFBF" d="M204.979,222.496c0,0-2.681,0.563-3.379,2.613c-0.699,2.05-0.585,2.141-0.541,2.963
			s-0.22,1.973,0.096,3.309s0.625,2.469,1.233,2.672c0.608,0.202,4.077-0.496,5.338-2.861s2.452-4.529,1.487-6.729
			C208.539,222.925,206.331,222.158,204.979,222.496z"/>
		<ellipse fill="#FFFFFF" cx="201.426" cy="228.961" rx="0.197" ry="0.463"/>
		<path fill="#FEBFBF" d="M201.691,230.2c-0.13,0.084-0.353-0.053-0.499-0.305c-0.146-0.253-0.16-0.525-0.031-0.609
			s0.353,0.053,0.499,0.305C201.806,229.844,201.82,230.116,201.691,230.2z"/>
		<path fill="#FFADB7" d="M201.507,230.289c-0.124,0.088-0.316,0.01-0.429-0.175c-0.113-0.185-0.104-0.405,0.02-0.493
			s0.316-0.01,0.429,0.175C201.641,229.98,201.632,230.201,201.507,230.289z"/>
		<path fill="#FC9AB2" d="M201.953,231.012L201.953,231.012c-0.209-0.033-0.352-0.229-0.319-0.438l0.292-1.701
			c0.033-0.209,0.229-0.352,0.438-0.319l0,0c0.209,0.032,0.352,0.229,0.319,0.438l-0.291,1.701
			C202.357,230.902,202.162,231.045,201.953,231.012z"/>
		<path fill="#FC9AB2" d="M201.99,231.227l-0.443-0.161c-0.192-0.069-0.292-0.282-0.222-0.474l0,0
			c0.092-0.254,0.375-0.387,0.629-0.295l0.217,0.079c0.253,0.092,0.386,0.374,0.294,0.629l0,0
			C202.395,231.196,202.182,231.296,201.99,231.227z"/>
		
			<linearGradient id="SVGID_3_" gradientUnits="userSpaceOnUse" x1="3049.2749" y1="231.2041" x2="3049.03" y2="228.2432" gradientTransform="matrix(1 0 0 1 -2846.9512 0)">
			<stop  offset="0.1224" style="stop-color:#FB7F9E"/>
			<stop  offset="1" style="stop-color:#FCA4B5"/>
		</linearGradient>
		<path fill="url(#SVGID_3_)" d="M202.682,228.991l-0.27,1.575c0.083,0.127,0.106,0.286,0.053,0.438
			c-0.056,0.149-0.198,0.243-0.348,0.243c-0.043,0-0.086-0.008-0.126-0.023l-0.221-0.078c0.082,0.023,0.325,0.076,0.461-0.059
			c0.059-0.056,0.084-0.145,0.091-0.232c0.018-0.17-0.025-0.354-0.025-0.354l0.013-0.047l0.374-1.497
			C202.685,228.969,202.685,228.98,202.682,228.991z"/>
		<path fill="#FFFFFF" d="M203.911,229.872c-0.012,0.168-0.042,0.536-0.042,0.536s-0.168-0.101-0.281-0.101
			c-0.177,0-0.334,0.048-0.264-0.49c0.031-0.234,0.144-0.428,0.321-0.428C203.822,229.39,203.928,229.637,203.911,229.872z"/>
		<path fill="#FEBFBF" d="M204.049,230.512c0,0-0.347,0.328-0.635,0.281s-0.507-0.21-0.49-0.363
			c0.017-0.152,0.264-0.239,0.552-0.192C203.764,230.284,204.049,230.512,204.049,230.512z"/>
		<g>
			<path fill="#754554" d="M202.99,228.652c0.505-0.031,1.015,0.137,1.336,0.538c0.122,0.153,0.336-0.063,0.215-0.216
				c-0.366-0.458-0.974-0.662-1.551-0.626C202.795,228.361,202.793,228.665,202.99,228.652L202.99,228.652z"/>
		</g>
		<g>
			<path fill="#754554" d="M201.968,227.975c-0.217-0.193-0.525-0.539-0.822-0.591c-0.191-0.034-0.273,0.259-0.081,0.293
				c0.242,0.042,0.506,0.352,0.688,0.513C201.899,228.318,202.115,228.104,201.968,227.975L201.968,227.975z"/>
		</g>
		<path fill="#FC9AB2" d="M202.906,232.488c-0.491-0.135-1.33-0.793-1.479-0.582c-0.249,0.576,0.953,0.991,1.382,0.706
			C202.842,232.591,202.906,232.488,202.906,232.488z"/>
		<path fill="#FB7F9E" d="M202.643,232.282c-0.152-0.097-0.305-0.168-0.452-0.231c-0.125-0.054-0.266-0.07-0.383-0.124
			c-0.148-0.067-0.27-0.177-0.397-0.285c-0.415,0.599,1.325,1.01,1.495,0.847C203.004,232.484,202.643,232.282,202.643,232.282z"/>
		<path fill="#FF6D67" d="M209.419,224.605c-0.507-1.342-1.161-1.601-1.161-1.601s-0.628-0.684-2.398-0.687
			c-1.673-0.002-3.166,0.882-3.844,1.621c-0.954,1.04-0.561,1.603-0.561,1.603l0.007-0.016c0.034-0.069,0.19-0.339,0.516-0.208
			c0.452,0.181,0.641,0.534,1.011,0.665c2.603,0.919,3.126,0.222,3.34,1.426c0.216,1.213,0.332,1.645,0.876,1.455
			c0.876-0.307,0.837-0.115,1.263,0.476c-0.161,0.56-0.359,1.169-0.588,1.707c0,0,0.022,0.549,1.023-1.657
			C209.29,228.479,210.264,227.256,209.419,224.605z"/>
		
			<linearGradient id="SVGID_4_" gradientUnits="userSpaceOnUse" x1="2109.2358" y1="230.2598" x2="2111.9714" y2="229.024" gradientTransform="matrix(1 0 0 1 -1902.1113 0)">
			<stop  offset="0.1224" style="stop-color:#FEB9B8"/>
			<stop  offset="1" style="stop-color:#FFDEDE"/>
		</linearGradient>
		<path fill="url(#SVGID_4_)" d="M207.538,229.164c0,0,0.377-0.798,1.239-0.563c0.862,0.234,0.699,1.216-0.225,2.095
			c-0.923,0.878-1.149-0.158-1.194-0.226S207.763,229.772,207.538,229.164z"/>
		
			<linearGradient id="SVGID_5_" gradientUnits="userSpaceOnUse" x1="2110.604" y1="229.2832" x2="2109.8381" y2="230.251" gradientTransform="matrix(1 0 0 1 -1902.1113 0)">
			<stop  offset="0.1224" style="stop-color:#FCA4B5"/>
			<stop  offset="0.9896" style="stop-color:#FFADB7"/>
		</linearGradient>
		<path fill="url(#SVGID_5_)" d="M207.851,229.283c0,0,0.38-0.449,0.75-0.254c0.569,0.3-0.253,1.23-0.333,1.35
			c-0.079,0.119-0.499,0.071-0.546-0.214S208.141,229.643,207.851,229.283z"/>
		<path fill="#FF6D67" d="M206.47,228.126c0,0,0.229,0.949,0.126,1.783c-0.103,0.834,0.198,1.732,0.198,1.732s-0.166-1.08,0-1.698
			c0.167-0.617,0.491-0.95,0.443-1.291C207.19,228.312,206.47,228.126,206.47,228.126z"/>
		<path fill="#FEBFBF" d="M204.794,283.141c-0.428,0.479-1.361,2.788-1.673,3.123c-0.314,0.334-1.034,0.111-2.182,0.121
			c-1.151,0.01-0.75,0.063-0.702-0.266c0.046-0.328,0.687-1.225,0.981-1.734c0.294-0.512,1.584-1.766,1.903-2.766
			c0.03-0.091,0.033-0.266,0.013-0.504c1.049,0.996,2.768-0.297,2.768-0.297c-0.096,0.36-0.027,0.809,0.157,1.232
			C205.786,282.532,205.096,282.801,204.794,283.141z"/>
		<path fill="#C2D2EA" d="M206.084,280.592c0,0-1.718,2.109-2.26,3.314s-1.164,1.706-1.639,1.706c-0.759,0-1.268-0.445-1.117-0.837
			c0.151-0.392,0.151-0.392,0.151-0.392s-1.855,2.107-1.554,3.373s3.615-0.627,4.104-1.308c0.187-0.26,0.507-2.121,0.929-2.663
			s1.416-0.603,1.657-1.688C206.596,281.014,206.084,280.592,206.084,280.592z"/>
		<path fill="#FEBFBF" d="M208.672,286.725c-0.411,0.91-0.198,0.725-0.481,1.131c-0.281,0.402-1.019,1.479-1.959,1.403
			c-0.714-0.061-0.869-1.252-0.334-3.044c0.167-0.558,0.915-2.849,0.948-3.092c0.002-0.013,0.002-0.025,0.005-0.039
			c0.327,0.249,0.709,0.396,1.115,0.355c1.28-0.127,1.571-0.885,1.571-0.885s0.228,0.88,0.271,1.468
			C209.851,284.608,209.367,285.191,208.672,286.725z"/>
		<path fill="#C2D2EA" d="M206.583,284c0,0-0.742,1.546-1.049,2.591c-0.668,2.277-0.589,3.258-0.402,3.786
			c0.195,0.55,1.788-0.019,2.893-1.004c1.267-1.13,0.641-2.393,1.389-3.729c0.243-0.434,0.73-0.493,0.623-1.779
			c-0.025-0.854-0.501-1.309-0.501-1.309s0.36,0.913,0.086,1.65c-0.138,0.37-0.244,0.574-0.455,1.039
			c-0.421,0.927-0.536,1.849-1.167,2.532c-0.594,0.643-2.444,0.343-2.41-0.023c0.063-0.677,0.286-1.491,0.493-2.13
			C206.329,284.861,206.583,284,206.583,284z"/>
		<path fill="#8E8E8E" d="M204.783,283.528c-0.421,0.543-0.919,2.502-1.105,2.763c-0.456,0.634-3.371,2.279-4.016,1.443
			c0.001,0.007,0.001,0.015,0.003,0.022c0.301,1.266,3.615-0.627,4.104-1.308c0.187-0.26,0.507-2.121,0.929-2.663
			c0.367-0.473,1.168-0.58,1.528-1.315C205.919,282.701,205.089,283.135,204.783,283.528z"/>
		<path fill="#8E8E8E" d="M209.355,285.55c-0.749,1.337-0.089,2.514-1.356,3.644c-1.023,0.912-2.556,1.494-2.897,1.101
			c0.01,0.028,0.021,0.056,0.03,0.083c0.195,0.55,1.788-0.019,2.893-1.004c1.267-1.13,0.641-2.393,1.389-3.729
			c0.159-0.283,0.477-0.35,0.545-0.79C209.825,285.152,209.473,285.34,209.355,285.55z"/>
		<path fill="#485455" d="M216.465,249.344c0,0-2.056-6.638-2.987-9.161c-0.931-2.522-1.318-3.739-2.571-3.859
			s-2.668,1.755-1.179,4.974s3.319,7.895,3.624,8.097S216.021,250.275,216.465,249.344z"/>
		<path fill="#485455" d="M206.177,252.679c0,0,4.827-1.808,6.754-4.054c0.527-0.614,2.009-0.518,3.337,0.086
			c0.056,0.189,0.162,0.422,0.183,0.638c0.076,0.807-0.223,1.769-2.631,2.727c-3.051,1.213-7.162,2.606-7.162,2.606
			S206.846,253.476,206.177,252.679z"/>
		<circle fill="#F8FBFF" cx="207.866" cy="230.799" r="0.188"/>
		<g>
			
				<ellipse transform="matrix(0.9697 -0.2445 0.2445 0.9697 -49.9033 56.1235)" fill="#4F5887" cx="201.148" cy="229.103" rx="0.567" ry="0.97"/>
			<path fill="#4F5887" d="M201.303,230.083c-0.296,0-0.612-0.349-0.735-0.834c-0.135-0.535,0.015-1.035,0.335-1.116
				c0.152-0.042,0.331,0.025,0.488,0.186c0.152,0.155,0.272,0.382,0.336,0.639c0.086,0.34,0.06,0.687-0.071,0.904
				c-0.067,0.111-0.158,0.185-0.264,0.211C201.363,230.08,201.333,230.083,201.303,230.083z M200.994,228.183
				c-0.026,0-0.051,0.004-0.076,0.01c-0.286,0.072-0.417,0.54-0.29,1.042c0.115,0.457,0.405,0.788,0.673,0.788
				c0.026,0,0.052-0.003,0.077-0.01c0.089-0.022,0.167-0.086,0.226-0.184c0.122-0.204,0.146-0.532,0.064-0.857l0,0
				c-0.063-0.246-0.177-0.463-0.321-0.61C201.232,228.244,201.109,228.183,200.994,228.183z"/>
		</g>
		
			<ellipse transform="matrix(0.9613 0.2754 -0.2754 0.9613 71.4447 -47.1051)" fill="#FFADB7" cx="203.435" cy="230.818" rx="0.631" ry="0.335"/>
		<g>
			
				<ellipse transform="matrix(0.9697 -0.2445 0.2445 0.9697 -50.0616 56.6798)" fill="#4F5887" cx="203.307" cy="230.016" rx="0.775" ry="1.064"/>
			<path fill="#4F5887" d="M203.427,231.096c-0.386,0-0.771-0.363-0.902-0.883c-0.146-0.586,0.084-1.149,0.514-1.259
				c0.429-0.112,0.902,0.279,1.049,0.864l0,0c0.086,0.337,0.047,0.687-0.102,0.936c-0.101,0.17-0.244,0.281-0.412,0.323
				C203.526,231.09,203.477,231.096,203.427,231.096z M203.187,228.998c-0.045,0-0.088,0.005-0.133,0.016
				c-0.396,0.101-0.608,0.632-0.469,1.185c0.141,0.552,0.575,0.917,0.975,0.819c0.153-0.038,0.282-0.141,0.374-0.295
				c0.141-0.236,0.176-0.568,0.096-0.889l0,0C203.904,229.343,203.544,228.998,203.187,228.998z"/>
		</g>
		<g>
			<polygon fill="#4F5887" points="200.61,228.478 200.224,228.313 201,227.7 201.078,227.8 200.47,228.279 200.66,228.361 			"/>
		</g>
		<g>
			<polygon fill="#4F5887" points="204.614,230.187 204.046,229.941 204.096,229.825 204.614,230.049 208.096,228.564 
				208.146,228.682 			"/>
		</g>
		<g>
			<path fill="#4F5887" d="M202.534,229.453c-0.308-0.564-0.763-0.325-0.781-0.315l-0.061-0.11c0.01-0.006,0.23-0.125,0.489-0.051
				c0.187,0.055,0.344,0.195,0.465,0.416L202.534,229.453z"/>
		</g>
		<path fill="#6A7273" d="M208.121,235.01c0,0-0.445,0.315-1.58,1.921s-3.141,6.924-3.353,8.193
			c-0.211,1.269-1.051,5.018-1.051,5.018s3.722-6.896,4.404-8.479c-0.586-0.613-0.586-0.613-0.586-0.613l1.31-0.803
			c0,0,1.056-2.28,1.373-3.484s0.232-2.181,0.232-2.181l-0.75-1.248V235.01z"/>
		<polygon fill="#A76478" points="196.911,248.334 197.725,252.648 197.892,253.127 198.716,258.642 205.266,259.95 
			203.865,250.075 		"/>
		<polygon fill="#DFE5EE" points="202.595,250.196 202.208,249.031 198.471,248.171 198.022,249.19 		"/>
		<path fill="#FEC7C6" d="M203.801,252.464c0,0-0.884-0.217-1.304-0.374c-0.421-0.158-1.407-0.176-1.552-0.114
			s-0.115,0.46-0.115,0.46s-0.314-0.05-0.372,0.013c-0.058,0.063-0.001,0.514-0.001,0.514l0.308,0.257c0,0-0.52,0.295-0.254,0.508
			c0.265,0.212,0.654,0.34,0.654,0.34s-0.108,0.072,0.086,0.279c0.195,0.208,1.017,0.661,1.367,0.813
			c0.35,0.153,1.031,0.329,1.623,0.278c0.592-0.05,2.09-0.731,2.528-0.85c0.438-0.118,0.483-1.075,0.264-1.465
			c-0.162-0.287-0.332-0.463-0.654-0.533c-0.105-0.023-0.222-0.051-0.343-0.084c-0.44-0.118-1.43-0.669-1.926-0.676
			c0.112,0.271,0.022,0.604,0.022,0.604L203.801,252.464z"/>
	</g>
</g>
</svg>
