<?xml version="1.0" encoding="utf-8"?>
<!-- Generator: Adobe Illustrator 16.0.0, SVG Export Plug-In . SVG Version: 6.00 Build 0)  -->
<!DOCTYPE svg PUBLIC "-//W3C//DTD SVG 1.1//EN" "http://www.w3.org/Graphics/SVG/1.1/DTD/svg11.dtd">
<svg version="1.1" id="Layer_1" xmlns="http://www.w3.org/2000/svg" xmlns:xlink="http://www.w3.org/1999/xlink" x="0px" y="0px"
	 width="463.683px" height="425.749px" viewBox="0 0 463.683 425.749" enable-background="new 0 0 463.683 425.749"
	 xml:space="preserve">
<g>
	<g>
		<path fill="#D7E4F2" d="M175.236,270.658c4.663-2.967,12.442-3.289,17.375-0.718s5.15,7.061,0.487,10.028
			c-4.663,2.967-12.442,3.289-17.375,0.719C170.791,278.116,170.573,273.627,175.236,270.658z"/>
		<g>
			<path fill="#6C6B79" d="M192.427,275.735l0.25,0.632c0,0,0.118,0.75-0.025,0.871c-0.142,0.121-0.711,0.893-1.87,0.9
				c-1.159,0.006-3.229-1.776-3.229-1.776s-3.186-1.703-3.288-1.842c-0.102-0.139-0.103-1.226-0.103-1.226l6.269,2.178
				L192.427,275.735z"/>
			<path fill="#6C6B79" d="M182.6,276.922c0,0,0.491,0.068,0.581,0.26c0.091,0.191,0.076,0.898,0.076,0.898s-0.987,0.95-2.692,0.922
				c-1.705-0.027-2.538-0.881-2.745-1.189s-2.154-2.571-2.154-2.571s-0.29-0.283-0.243-0.959c0.046-0.677,0.01-0.743,0.01-0.743
				s2.708,2.271,2.767,2.321C178.258,275.91,182.6,276.922,182.6,276.922z"/>
			<path fill="#504F60" d="M187.813,271.902c0,0,0.385,0.71,0.765,0.914c0.379,0.203,3.67,2.3,3.67,2.3s0.717,0.991,0.259,1.573
				s-1.855,0.771-2.812,0.381s-2.255-1.405-2.708-1.621c-0.453-0.216-2.6-1.194-2.777-1.795c-0.177-0.602-0.168-0.711-0.092-1.098
				s0.268-1.346,0.32-1.367C184.49,271.166,187.813,271.902,187.813,271.902z"/>
			<path fill="#4F5997" d="M184.042,256.857c0.053,0.606,0.114,1.145,0.178,1.581c0.05,0.339,0.127,0.637,0.228,0.894
				c0.875,2.303,3.445,1.557,3.919,0.605c0.054-0.106,0.112-0.271,0.172-0.486v-0.002c0.533-1.881,1.197-9.896,1.565-13.636
				c0.412-4.164-1.056-7.41-1.256-9.35l-4.768,2.321l-0.674,4.512c0,0,0.015,0.645,0.043,1.655
				C183.522,247.303,183.782,254.015,184.042,256.857z"/>
			<path fill="#4F5997" d="M183.968,271.551c0,0,0.508,0.481,1.277,0.869c0.034,0.019,0.068,0.035,0.102,0.053
				c0.855,0.397,2.474-0.463,2.465-0.57c-0.009-0.107,0.554-10.651,0.727-12.451v-0.002c0.171-1.79-0.672-2.44-0.672-2.44
				l-3.406-0.134l-0.419-0.018l-0.004,0.001c0,0-0.682,1.94-0.583,4.952C183.561,265.068,183.968,271.551,183.968,271.551z"/>
			<path fill="#A8B0C2" d="M183.968,271.551c0,0,0.508,0.481,1.277,0.869c-0.896-11.848,0.205-14.289,0.104-15.511l-0.135-8.287
				l0.57-3.035l-2.333-0.635c0.071,2.351,0.331,9.063,0.591,11.905l-0.004,0.001c0,0-0.61,1.939-0.583,4.952
				C183.485,265.322,183.968,271.551,183.968,271.551z"/>
			<path fill="#504F60" d="M176.132,271.343c-0.118,0.046-0.785,1.171-0.744,1.656c0.041,0.485,0.271,1.716,0.329,1.766
				s1.724,2.844,3.081,3.256c1.357,0.411,3.41-0.159,3.96-0.514c0.55-0.354,0.401-0.396,0.401-0.396s-0.041-0.486-0.648-0.815
				s-2.394-2.843-2.394-2.843l-0.74-2.004L176.132,271.343z"/>
			<path fill="#4F5997" d="M186.396,241.198c0,0,0.525,2.673,0.311,3.706c-0.215,1.031-1.668,1.842-1.722,2.064
				c-0.054,0.222-2.938,14.078-3.894,14.774c-0.956,0.696-3.021,1.122-3.272-3.167c-0.251-4.29-1.416-12.67-1.599-13.995
				s-0.119-4.186,0.681-5.448C177.701,237.871,186.396,241.198,186.396,241.198z"/>
			<g>
				<path fill="#8C92B0" d="M185.355,246.031c0.056-0.002,0.116-0.02,0.177-0.051c0.296-0.154,0.621-0.64,0.635-1.344
					c0.007-0.387-0.038-1.923-0.062-2.108l-0.176,0.022c0.021,0.159,0.068,1.679,0.061,2.082c-0.013,0.675-0.329,1.082-0.539,1.19
					c-0.068,0.035-0.125,0.041-0.159,0.019c-0.046-0.031-0.066-0.125-0.054-0.249c0.087-0.887,0.02-2.959-0.131-3.062l-0.043-0.029
					l-0.052,0.022l0.04,0.079l-0.001,0.003l-0.066,0.046c0.061,0.14,0.184,1.85,0.078,2.923c-0.024,0.251,0.058,0.363,0.131,0.413
					C185.24,246.02,185.295,246.034,185.355,246.031z"/>
			</g>
			<g>
				<path fill="#8C92B0" d="M179.5,246.052c1.594-0.069,2.427-0.486,2.858-0.872c0.518-0.462,0.54-0.934,0.541-0.953l-0.178-0.006
					c0,0.004-0.023,0.422-0.488,0.833c-0.53,0.47-1.702,0.986-4.276,0.786l-0.013,0.177
					C178.529,246.063,179.045,246.071,179.5,246.052z"/>
			</g>
			<path fill="#A76478" d="M176.025,243.073c0,0,1.751,1.083,5.475,0.95s5.149-0.47,6.417-0.998c1.268-0.527,2.063-1.21,2.063-1.21
				l-0.175-1.048c0,0-0.749,0.857-2.544,1.434c-1.796,0.576-5.608,0.755-7.158,0.779s-3.898-0.729-3.898-0.729L176.025,243.073z"/>
			<path fill="#4F5997" d="M183.395,242.877c0,0,0.086,0.299,0.083,0.654c-0.002,0.354-0.053,1.006-0.053,1.006l0.565-0.062
				c0,0,0.132-0.629,0.127-0.944c-0.005-0.314-0.112-0.752-0.112-0.752L183.395,242.877z"/>
			<path fill="#4F5997" d="M178.017,242.853c0,0-0.115,0.298-0.147,0.653c-0.032,0.354-0.045,1.006-0.045,1.006l-0.559-0.068
				c0,0-0.071-0.63-0.035-0.945c0.037-0.314,0.186-0.75,0.186-0.75L178.017,242.853z"/>
			<path fill="#4F5997" d="M188.626,241.594c0,0,0.118,0.371,0.124,0.673s-0.097,0.816-0.097,0.816l0.394-0.335
				c0,0,0.085-0.521,0.082-0.685c-0.003-0.164-0.187-0.646-0.187-0.646L188.626,241.594z"/>
			<g>
				<path fill="#8C92B0" d="M189.914,243.939c0.036-0.002,0.071-0.007,0.107-0.016l-0.052-0.205
					c-0.366,0.094-0.751-0.508-0.87-0.747l-0.189,0.095C188.928,243.105,189.366,243.963,189.914,243.939z"/>
			</g>
			<g>
				<path fill="#CCDEFB" d="M184.42,243.796c-0.155-0.097-0.242-0.233-0.244-0.387l-0.004-0.299
					c-0.004-0.313,0.351-0.606,0.808-0.667l1.075-0.144c0.25-0.033,0.493,0.01,0.668,0.118c0.155,0.097,0.242,0.233,0.244,0.387
					l0.004,0.299c0.005,0.313-0.35,0.605-0.808,0.667l-1.075,0.144c-0.068,0.009-0.137,0.013-0.204,0.01
					C184.709,243.918,184.546,243.874,184.42,243.796z M186.146,242.637l-1.075,0.144c-0.237,0.031-0.443,0.188-0.441,0.335
					l0.005,0.299c0,0.051,0.025,0.091,0.073,0.12c0.068,0.042,0.174,0.058,0.289,0.043l1.075-0.144
					c0.237-0.031,0.443-0.188,0.441-0.335l-0.004-0.299c-0.001-0.051-0.026-0.091-0.074-0.121c-0.047-0.028-0.111-0.045-0.184-0.048
					C186.217,242.63,186.182,242.632,186.146,242.637z"/>
			</g>
			<path fill="#4F5997" d="M181.3,259.914c0,0,0.494,0.058,0.321,0.91c-0.173,0.853-1.912,11.09-1.912,11.09
				s-1.769,0.635-2.815,0.252c-1.047-0.383-1.267-0.716-1.276-0.823c-0.009-0.108-0.191-5.866,0.609-8.849s1.545-7.135,1.545-7.135
				L181.3,259.914z"/>
			<path fill="#FEBFBF" d="M187.832,219.604c0,0,1.83,0.01,2.454,2.258s1.76,8.456,1.62,9.373c-0.141,0.918-2.248,1.493-3.292-0.375
				C187.568,228.99,187.832,219.604,187.832,219.604z"/>
			<path fill="#E6F1FF" d="M187.204,218.229c0,0,2.548-0.108,3.27,2.766c0.257,1.025,1.578,7.149,1.578,7.149
				s-2.456,2.108-3.892,1.358C186.722,228.754,187.204,218.229,187.204,218.229z"/>
			<path fill="#FEBFBF" d="M191.916,231.09c0.307,0.264,2.608,4.164,2.745,4.279c0.136,0.115,0.987-0.318,0.987-0.318l1.018,0.259
				l1.059,0.527c0,0,0.759,0.19,0.822,0.294c0.063,0.103-0.081,0.332-0.429,0.289s-0.967-0.082-1.304-0.217s0.042,1.155,0.042,1.155
				s-0.196,0.904-0.556,0.935c-0.359,0.03-0.975,0.136-1.276,0.161s-0.73-0.12-0.73-0.12l-0.679-0.105l-0.746-1.115
				c0,0-4.577-3.614-3.956-5.814C190.578,230.966,191.609,230.825,191.916,231.09z"/>
			<g>
				<path fill="#C4C8D8" d="M195.063,236.62c0.153-0.085,0.421-0.169,0.577-0.177c1.417-0.091,5.172-0.662,5.19-0.652
					c0.007,0.004,0.046,0.342,0.048,0.348c0.01,0.025-0.03,0.068-0.114,0.115c-0.665,0.368-1.33,0.736-1.999,1.106
					c-0.002,0.001-0.005,0.003-0.007,0.004c-0.154,0.085-0.417,0.161-0.57,0.173c-1.42,0.092-3.704,0.238-5.12,0.329
					c-0.074,0.004-0.115-0.009-0.119-0.032c-0.004-0.024-0.047-0.354-0.047-0.354L195.063,236.62z"/>
				<path fill="#D7E4F2" d="M200.629,235.916c-0.657,0.363-1.311,0.725-1.967,1.089c-0.129,0.07-0.348,0.138-0.483,0.146
					c-1.4,0.091-3.671,0.236-5.075,0.326c-0.131,0.009-0.133-0.045-0.003-0.116c0.657-0.363,1.31-0.725,1.967-1.088
					c0.129-0.072,0.348-0.139,0.479-0.147c1.404-0.091,3.675-0.236,5.075-0.326C200.756,235.791,200.758,235.845,200.629,235.916
					L200.629,235.916z M193.007,237.379c-0.154,0.085-0.138,0.144,0.011,0.136c1.416-0.091,3.7-0.237,5.121-0.329
					c0.153-0.012,0.416-0.088,0.57-0.173c0.002-0.001,0.004-0.003,0.006-0.004c0.669-0.37,1.334-0.738,2-1.106
					c0.149-0.084,0.159-0.152-0.004-0.14c-1.42,0.092-3.704,0.237-5.12,0.329c-0.156,0.008-0.424,0.092-0.577,0.177
					c-0.665,0.368-1.33,0.736-1.999,1.106C193.012,237.376,193.009,237.377,193.007,237.379L193.007,237.379z"/>
				<path fill="#7C78F0" d="M199.715,236.336c-0.165,0.091-0.326,0.18-0.488,0.27l-0.036,0.012l0-0.01
					c0.161-0.089,0.322-0.178,0.488-0.27l0.037-0.01V236.336L199.715,236.336z M199.135,236.666l-0.077,0.025l0-0.02l0.077-0.023
					L199.135,236.666L199.135,236.666z M199.002,236.748l-0.105,0.032l-0.005-0.025l0.114-0.034L199.002,236.748L199.002,236.748z
					 M193.1,237.361c-0.129,0.071-0.128,0.125,0.003,0.116c1.404-0.09,3.675-0.235,5.075-0.326c0.135-0.009,0.354-0.076,0.483-0.146
					c0.657-0.364,1.31-0.726,1.967-1.089c0.129-0.071,0.127-0.125-0.008-0.116c-1.4,0.09-3.671,0.235-5.075,0.326
					c-0.131,0.009-0.351,0.075-0.479,0.147C194.41,236.637,193.757,236.998,193.1,237.361L193.1,237.361z"/>
				<path fill="#2A2A2C" d="M199.191,236.607c0.161-0.089,0.322-0.178,0.488-0.27l0.037-0.01v0.008
					c-0.165,0.091-0.326,0.18-0.488,0.27l-0.036,0.012L199.191,236.607L199.191,236.607z"/>
				<path fill="#838383" d="M198.982,236.749l-0.065,0.021l-0.004-0.016l0.073-0.022L198.982,236.749L198.982,236.749z
					 M198.892,236.755l0.005,0.025l0.105-0.032l0.003-0.027L198.892,236.755L198.892,236.755z"/>
				<polygon fill="#516F83" points="198.913,236.754 198.986,236.731 198.982,236.749 198.917,236.77 198.913,236.754 				"/>
				<polygon fill="#2A2A2C" points="199.058,236.672 199.135,236.648 199.135,236.666 199.058,236.691 199.058,236.672 				"/>
			</g>
			
				<linearGradient id="SVGID_1_" gradientUnits="userSpaceOnUse" x1="3800.2515" y1="91.4395" x2="3801.3486" y2="89.1511" gradientTransform="matrix(-0.9965 0.0836 0.0836 0.9965 3975.0552 -170.1389)">
				<stop  offset="0.1224" style="stop-color:#FEB9B8"/>
				<stop  offset="1" style="stop-color:#FFDEDE"/>
			</linearGradient>
			<path fill="url(#SVGID_1_)" d="M195.517,237.055c0.036-0.004,0.301,0.02,0.559,0.07s0.479,0.214,0.479,0.214l0.288-0.024
				l0.106,1.268l-2.702,0.399l-0.829-1.046l0.142-1.314c0,0,0.439-0.164,0.485-0.041c0.047,0.123,0.047,0.123,0.047,0.123
				s0.14-0.274,0.375-0.276c0.235-0.001,0.231,0.162,0.231,0.162s0.202-0.291,0.372-0.214
				C195.24,236.453,195.517,237.055,195.517,237.055z"/>
			
				<linearGradient id="SVGID_2_" gradientUnits="userSpaceOnUse" x1="3800.4937" y1="90.1313" x2="3801.2661" y2="90.1313" gradientTransform="matrix(-0.9965 0.0836 0.0836 0.9965 3975.0552 -170.1389)">
				<stop  offset="0.1224" style="stop-color:#FCA4B5"/>
				<stop  offset="0.9896" style="stop-color:#FFADB7"/>
			</linearGradient>
			<path fill="url(#SVGID_2_)" d="M194.747,236.528c0,0,0.042,0.379,0.114,0.481c0.072,0.103,0.369,1.155,0.369,1.155l0.252,0.232
				l-0.249,0.021l-0.209-0.335l-0.375-1.345l-0.104-0.272L194.747,236.528z"/>
			
				<linearGradient id="SVGID_3_" gradientUnits="userSpaceOnUse" x1="3801.4478" y1="90.1284" x2="3802.0444" y2="90.1284" gradientTransform="matrix(-0.9965 0.0836 0.0836 0.9965 3975.0552 -170.1389)">
				<stop  offset="0.1224" style="stop-color:#FCA4B5"/>
				<stop  offset="0.9896" style="stop-color:#FFADB7"/>
			</linearGradient>
			<polygon fill="url(#SVGID_3_)" points="194.093,236.703 194.277,237.928 194.524,238.398 193.916,238.275 194.188,237.945 
				194.036,236.988 194.046,236.58 			"/>
			<path fill="#A8B0C2" d="M176.096,242.758c0,0,1.666,1.064,5.389,0.933c3.724-0.133,5.149-0.47,6.417-0.998
				s2.026-1.197,2.026-1.197l-0.138-1.062c0,0-0.749,0.858-2.545,1.434c-1.796,0.576-5.608,0.756-7.158,0.779
				c-1.55,0.025-3.934-0.764-3.934-0.764L176.096,242.758z"/>
			<path fill="#DDE8F6" d="M175.725,228.664c0.089,1.129,1.344,6.323,0.847,9.07c-0.49,2.754-0.44,3.608-0.501,4.207
				c-0.018,0.208,0.296,0.489,0.943,0.742c1.24,0.489,3.7,0.879,7.366,0.473c4.259-0.465,5.585-1.995,5.585-1.995
				s-0.521-2.128-0.784-5.45c-0.257-3.316,0.88-5.509,1.107-8.947c0.226-3.444,0.119-6.252-1.265-7.585
				c-1.397-1.353-5.798-1.853-7.658-1.344c-1.86,0.509-1.367,0.903-3.529,2.007c-2.162,1.104-2.661,1.481-2.661,1.481
				c-0.615,0.95-0.448,2.65-0.141,4.204C175.307,226.889,175.682,228.131,175.725,228.664z"/>
			<polygon fill="#E6F1FF" points="182.661,227.136 182.86,230.296 181.645,231.213 180.023,230.912 179.865,227.812 			"/>
			<path fill="#DDE8F6" d="M176.572,237.734c-0.49,2.754-0.44,3.608-0.501,4.207c-0.018,0.208,0.296,0.489,0.943,0.742
				c1.009-1.442,0.935-4.245,0.922-5.938c1.363-0.996,7.283-1.292,7.754-1.868c0.477-0.583,0.238-0.693-0.173-1.051
				c-0.403-0.357-7.254,0.086-7.36-0.03s-0.438-1.447-0.145-3.349c0.293-1.9,0.333-5.458,0.333-5.458s-2.043,0.136-3.312,0.538
				c0.273,1.361,0.648,2.604,0.691,3.137C175.814,229.793,177.069,234.987,176.572,237.734z"/>
			
				<linearGradient id="SVGID_4_" gradientUnits="userSpaceOnUse" x1="3813.6597" y1="69.2627" x2="3808.1123" y2="68.2313" gradientTransform="matrix(-0.9965 0.0836 0.0836 0.9965 3975.0552 -170.1389)">
				<stop  offset="0.1224" style="stop-color:#FEC7C7"/>
				<stop  offset="0.9694" style="stop-color:#FFADB7"/>
			</linearGradient>
			<path fill="url(#SVGID_4_)" d="M186.775,218.044c0,0-0.543,1.712-0.494,2.088c0.05,0.376-1.069,1.068-2.897,0.66
				s-3.041-1.919-3.002-2.103c0.039-0.185,0.823-0.342,1.528-1.867c0.705-1.527,1.219-3.345,1.203-3.996
				c-0.017-0.65,1.802-0.35,1.802-0.35L186.775,218.044z"/>
			<path fill="#E6F1FF" d="M184.751,220.754c0,0,0.549,0.654,0.962,0.73c0.536-0.173,0.854-0.998,0.891-1.236
				c0.037-0.237-0.075-0.768-0.166-0.984c-0.09-0.217-0.378-0.307-0.364,0.016c0.014,0.322-0.585,1.051-1.304,1.18
				C184.667,220.616,184.751,220.754,184.751,220.754z"/>
			<path fill="#FEC7C7" d="M183.768,217.373c0.077,0.707,2.682,2.662,3.695,2.588c0.475-0.036,1.009-0.979,1.508-2.059
				c0.561-1.221,1.076-2.617,1.413-3.077c0.634-0.868,0.598-3.239,0.356-3.743c-0.243-0.505-1.68-2.086-3.095-2.113
				s-3.229,0.777-3.375,1.424c-0.146,0.647,0.12,2.925,0.12,2.925s-0.061,0.29-0.145,0.716
				C184.046,215.059,183.713,216.876,183.768,217.373z"/>
			<g>
				
					<linearGradient id="SVGID_5_" gradientUnits="userSpaceOnUse" x1="3805.2075" y1="68.5376" x2="3804.3579" y2="69.2195" gradientTransform="matrix(-0.9965 0.0836 0.0836 0.9965 3975.0552 -170.1389)">
					<stop  offset="0.1224" style="stop-color:#FEC7C7"/>
					<stop  offset="0.9896" style="stop-color:#FFDBDB"/>
				</linearGradient>
				<path fill="url(#SVGID_5_)" d="M189.437,215.102c-0.118,0.424,0.289,1.938,0.189,2.26c-0.1,0.32-1.273,0.093-1.389,0.008
					L189.437,215.102z"/>
				
					<linearGradient id="SVGID_6_" gradientUnits="userSpaceOnUse" x1="3804.4858" y1="68.6299" x2="3805.9878" y2="68.6299" gradientTransform="matrix(-0.9965 0.0836 0.0836 0.9965 3975.0552 -170.1389)">
					<stop  offset="0.188" style="stop-color:#FFDCDC"/>
					<stop  offset="0.8991" style="stop-color:#FEC7C7"/>
				</linearGradient>
				<path fill="url(#SVGID_6_)" d="M189.228,217.576c0.098-0.004,0.187-0.017,0.259-0.041c0.101-0.033,0.165-0.087,0.187-0.159
					c0.051-0.163-0.013-0.569-0.088-1.04c-0.075-0.473-0.16-1.009-0.101-1.221l-0.096-0.027c-0.065,0.233,0.018,0.758,0.098,1.264
					c0.067,0.42,0.135,0.854,0.092,0.994c-0.013,0.041-0.054,0.072-0.123,0.095c-0.321,0.106-1.105-0.05-1.188-0.112l-0.059,0.081
					C188.292,217.472,188.83,217.594,189.228,217.576z"/>
			</g>
			
				<ellipse transform="matrix(-0.9966 0.0827 -0.0827 -0.9966 392.5182 415.1718)" fill="#FFFFFF" cx="187.664" cy="215.712" rx="0.325" ry="0.25"/>
			
				<ellipse transform="matrix(-0.9972 -0.0754 0.0754 -0.9972 362.5177 444.783)" fill="#FFFFFF" cx="189.66" cy="215.544" rx="0.149" ry="0.217"/>
			<g>
				<path fill="#754554" d="M188.977,215.132l0.033-0.163c-0.052-0.012-1.288-0.262-2.347-0.023l0.037,0.163
					C187.725,214.877,188.963,215.13,188.977,215.132z"/>
			</g>
			<g>
				<path fill="#754554" d="M189.646,214.969c0.004-0.001,0.423-0.185,0.933-0.288l-0.033-0.165
					c-0.528,0.109-0.95,0.293-0.967,0.301L189.646,214.969z"/>
			</g>
			<path fill="#AF727B" d="M183.768,217.373c0.077,0.707,2.682,2.662,3.695,2.588c0.475-0.036,1.009-0.979,1.508-2.059
				c0,0-0.11-0.069-0.234-0.101c-0.125-0.028-0.603-0.058-0.894,0.049c-0.289,0.104-0.819,0.258-1.429,0.12
				c-0.609-0.141-1.472-0.877-1.522-1.405c-0.053-0.548,0.167-1.796,0.167-1.796l-0.813-0.736
				C184.046,215.059,183.713,216.876,183.768,217.373z"/>
			<path fill="#FEC7C7" d="M183.951,215.654c0,0,0.411-1.39,0.484-1.756c0.073-0.365-0.443-0.892-0.652-0.988
				c-0.209-0.096-0.56-0.015-0.56-0.015L183.951,215.654z"/>
			<path fill="#754554" d="M184.991,215.039c0,0,0.45-1.054,0.823-1.137c0.373-0.084,1.872-1.812,1.872-1.812l0.307-0.887
				c0,0,0.849,0.874,1.878,1.056s1.268,0.132,1.268,0.132s0.14-0.703,0.124-1.335c-0.017-0.633-1.747-4.418-6.002-3.319
				c-3.215,0.106-3.055,2.883-3.078,3.465c-0.024,0.581-0.131,2.343-0.131,2.343s0.387,0.566,0.526,1.598
				c0.359-0.799,0.544-2.076,0.897-2.074c0.353,0.001,0.851,0.135,0.945,0.615c0.095,0.481-0.183,0.975-0.183,0.975L184.991,215.039
				z"/>
			
				<linearGradient id="SVGID_7_" gradientUnits="userSpaceOnUse" x1="3810.2056" y1="66.3525" x2="3811.1743" y2="65.4154" gradientTransform="matrix(-0.9965 0.0836 0.0836 0.9965 3975.0552 -170.1389)">
				<stop  offset="0.1224" style="stop-color:#FEB9B8"/>
				<stop  offset="1" style="stop-color:#FFDEDE"/>
			</linearGradient>
			<path fill="url(#SVGID_7_)" d="M184.132,213.502c0,0-0.397-0.7-0.994-0.379c-0.596,0.322-0.043,2.159,0.113,2.409
				c0.157,0.249,0.554-0.191,0.554-0.191l0.446-1.604L184.132,213.502z"/>
			<path fill="#FEBFBF" d="M176.369,222.231c0.714,0.303,2.055,1.82,1.036,4.786c-1.019,2.965-2.371,7.371-4.253,7.818
				c-1.044,0.249-1.813,1.072-1.87-0.213c-0.045-1.031,0.477-4.029,0.855-5.189c0.85-2.607,2.1-6.063,2.601-6.992
				C175.24,221.512,176.369,222.231,176.369,222.231z"/>
			<g>
				<path fill="#627847" d="M183.454,234.291c0.694,0.271,1.802,0.221,2.475-0.11s0.655-0.818-0.04-1.089
					c-0.694-0.27-1.802-0.221-2.475,0.11C182.742,233.533,182.76,234.021,183.454,234.291z"/>
				<polygon fill="#627847" points="182.448,228.982 182.921,233.767 186.421,233.616 186.481,228.808 				"/>
				<path fill="#B09064" d="M183.283,232.256c0.723-0.338,1.912-0.392,2.656-0.117c0.745,0.273,0.762,0.77,0.04,1.108
					c-0.723,0.339-1.912,0.392-2.656,0.118S182.561,232.596,183.283,232.256z"/>
				<polygon fill="#B09064" points="182.753,232.843 182.464,230.268 186.576,230.076 186.509,232.671 				"/>
				<path fill="#DEC7A7" d="M183.043,229.629c0.792-0.356,2.095-0.414,2.909-0.129c0.814,0.284,0.833,0.805,0.041,1.161
					s-2.095,0.414-2.909,0.129S182.251,229.985,183.043,229.629z"/>
				<path fill="#627847" d="M183.107,229.377c0.75-0.369,1.985-0.424,2.759-0.123c0.774,0.302,0.793,0.845,0.044,1.215
					c-0.75,0.369-1.985,0.424-2.759,0.122C182.377,230.29,182.358,229.746,183.107,229.377z"/>
				<polygon fill="#627847" points="182.574,230.185 182.512,229.77 182.873,229.824 186.449,229.621 186.463,229.966 				"/>
				<path fill="#A19797" d="M182.977,230.091c0.8,0.312,2.077,0.255,2.852-0.127s0.755-0.943-0.045-1.255
					c-0.8-0.312-2.077-0.255-2.852,0.127C182.156,229.217,182.176,229.779,182.977,230.091z"/>
				<path fill="#C7BEBE" d="M182.263,228.914l0.333-0.014c0.086-0.067,0.187-0.131,0.309-0.191c0.845-0.416,2.237-0.478,3.109-0.139
					c0.129,0.051,0.237,0.107,0.329,0.168l0.317-0.014l0.021,0.49c0,0.007,0.001,0.015,0.001,0.021v0.012h-0.001
					c-0.003,0.24-0.208,0.489-0.618,0.691c-0.845,0.416-2.237,0.478-3.109,0.138c-0.429-0.167-0.651-0.399-0.667-0.643h-0.001
					L182.263,228.914z"/>
				<path fill="#E2D9D9" d="M182.884,228.239c0.845-0.416,2.237-0.479,3.109-0.139s0.895,0.952,0.049,1.368
					s-2.237,0.479-3.109,0.139S182.039,228.655,182.884,228.239z"/>
				<path fill="#C7BEBE" d="M182.577,228.885c0-0.004,0-0.009-0.001-0.013l-0.014-0.338l0.173-0.008
					c0.087-0.092,0.21-0.18,0.372-0.26c0.724-0.356,1.917-0.409,2.666-0.118c0.17,0.066,0.3,0.145,0.395,0.23l0.164-0.008
					l0.015,0.339v0.001v0.002l0,0c0.006,0.211-0.17,0.431-0.531,0.608c-0.724,0.356-1.917,0.41-2.665,0.119
					c-0.368-0.144-0.559-0.344-0.572-0.552l0,0V228.885z"/>
				<path fill="#E1D8D8" d="M183.089,227.86c0.724-0.356,1.918-0.409,2.666-0.118c0.748,0.291,0.767,0.816,0.042,1.173
					c-0.724,0.356-1.917,0.41-2.665,0.118C182.383,228.742,182.365,228.217,183.089,227.86z"/>
				<path fill="#C7BEBE" d="M182.917,228.638L182.917,228.638c0.141,0.027,0.288-0.038,0.328-0.146l0.016-0.044
					c0.04-0.107-0.043-0.219-0.184-0.246l0,0c-0.142-0.027-0.288,0.037-0.328,0.146l-0.016,0.043
					C182.693,228.499,182.775,228.609,182.917,228.638z"/>
			</g>
			<path fill="#FEBFBF" d="M171.679,233.096c0,0,0.742-0.547,2.041-0.588s2.807,0.501,4.365,0.21
				c1.558-0.292,2.321-0.581,2.872-1.168c0.55-0.586,1.335-1.545,1.335-1.545l0.674-0.268l-0.363,0.722l0.402,0.107l1.624-0.439
				l1.605-0.076c0,0,0.14,0.229,0.018,0.383c-0.122,0.155-1.304,0.367-1.537,0.447c-0.233,0.078-1.569,0.772-1.569,0.772l2.464-0.47
				l1.152-0.286c0,0,0.272,0.163,0.188,0.378c-0.085,0.214-1.396,0.703-1.396,0.703l-1.673,0.439l0.405,0.123l1.498-0.275
				l1.011-0.414c0,0,0.265,0.164,0.042,0.452c-0.223,0.288-0.607,0.483-0.607,0.483l0.416,0.047c0,0-0.042,0.267-0.084,0.357
				c-0.043,0.09-1.041,0.632-1.041,0.632l-1.658,0.337c0,0-0.934,0.445-1.977,0.467c-1.042,0.023-1.563,0.197-1.827,0.346
				c-0.264,0.148-3.101,1.463-5.308,1.514c-2.207,0.052-3.322-0.586-3.474-1.216C171.125,234.641,171.679,233.096,171.679,233.096z"
				/>
			<path fill="#B09064" d="M184.023,233.542c0,0,1.107-0.139,1.657-0.294c0.55-0.154,0.888-0.422,0.888-0.422l-0.339-0.039
				l-0.63,0.258L184.023,233.542z"/>
			<path fill="#E6F1FF" d="M171.83,229.587c0,0,2.69,1.296,4.444,1.148c0.948-1.329,1.652-3.942,2.072-5.743
				c0.419-1.802-1.535-3.729-2.149-3.922c-0.614-0.193-1.239,0.45-1.239,0.45S171.81,228.453,171.83,229.587z"/>
			
				<linearGradient id="SVGID_8_" gradientUnits="userSpaceOnUse" x1="3809.7769" y1="66.0146" x2="3810.9126" y2="66.0146" gradientTransform="matrix(-0.9965 0.0836 0.0836 0.9965 3975.0552 -170.1389)">
				<stop  offset="0.1224" style="stop-color:#FCA4B5"/>
				<stop  offset="0.9896" style="stop-color:#FFADB7"/>
			</linearGradient>
			<path fill="url(#SVGID_8_)" d="M184.092,213.678c0,0-0.322-0.509-0.725-0.438c-0.403,0.07-0.508,0.631-0.259,1.335
				c0.249,0.703,0.627,0.563,0.627,0.563l0.283-0.948L184.092,213.678z"/>
			<path fill="#FEC7C7" d="M187.211,218.393c0,0,1.35-0.132,1.387,0.033c0.038,0.164-0.713,0.439-0.914,0.457
				C187.483,218.899,187.211,218.393,187.211,218.393z"/>
		</g>
	</g>
	<path fill="#E6F1FF" d="M181.293,217.895c0,0-0.344,0.585,0.609,1.339s2.666,1.161,2.867,1.226
		c0.081,0.025,0.155,0.191,0.109,0.437c-0.069,0.364-0.317,0.861-0.499,0.987c-1.009-0.14-1.7-0.559-2.809-1.26
		c-1.109-0.7-1.319-1.58-1.329-1.811c-0.01-0.229,0.823-1.061,0.945-1.139s0.328-0.135,0.328-0.135L181.293,217.895z"/>
</g>
</svg>
