<?xml version="1.0" encoding="utf-8"?>
<!-- Generator: Adobe Illustrator 16.0.0, SVG Export Plug-In . SVG Version: 6.00 Build 0)  -->
<!DOCTYPE svg PUBLIC "-//W3C//DTD SVG 1.1//EN" "http://www.w3.org/Graphics/SVG/1.1/DTD/svg11.dtd">
<svg version="1.1" id="Layer_1" xmlns="http://www.w3.org/2000/svg" xmlns:xlink="http://www.w3.org/1999/xlink" x="0px" y="0px"
	 width="463.683px" height="425.749px" viewBox="0 0 463.683 425.749" enable-background="new 0 0 463.683 425.749"
	 xml:space="preserve">
<g>
	<path fill="#754554" d="M213.2,320.332c0,0-0.504,2.473-0.234,3.711c0.27,1.237,1.291,2.941,1.954,3.107
		c0.281,0.297,0.42,0.774,0.336,0.806c-2.309,0.851-5.635-1.671-5.344-3.16C210.213,323.253,213.2,320.332,213.2,320.332z"/>
	<path fill="#D7E4F2" d="M199.587,378.692c3.945,2.511,10.526,2.782,14.699,0.607s4.357-5.974,0.413-8.484
		c-3.945-2.51-10.527-2.782-14.7-0.607S195.642,376.182,199.587,378.692z"/>
	<g>
		<path fill="#6C6B79" d="M200.564,374.396c0,0-0.197,0.101-0.208,0.247s-0.016,0.55-0.015,0.645
			c0.001,0.096,0.25,0.465,0.863,0.607s2.102-0.252,2.603-0.545c0.501-0.292,1.186-1.037,1.394-1.094s0.829,0.058,0.829,0.058
			l0.561-0.047l0.923-0.327c0,0,0.121-0.618-0.133-0.813C207.128,372.931,200.564,374.396,200.564,374.396z"/>
		<path fill="#C2D2EA" d="M204.035,371.883c0,0-0.729,0.463-0.859,0.593c-0.129,0.131-1.447,0.665-1.903,0.944
			c-0.457,0.277-0.801,0.754-0.831,0.91s-0.1,0.513-0.046,0.662c0.053,0.149,0.291,0.547,1.08,0.596
			c0.788,0.049,2.393-0.7,2.393-0.7s1.111-0.759,1.275-0.836s1.615-0.444,1.835-0.518s0.348-0.104,0.38-0.282
			c0.033-0.177,0.219-1.146,0.102-1.451C207.343,371.494,204.679,371.099,204.035,371.883z"/>
	</g>
	<g>
		<path fill="#6C6B79" d="M205.808,376.855c0,0-0.216,0.004-0.267,0.291c-0.052,0.287-0.044,0.629-0.044,0.629
			s0.269,0.411,1.171,0.525c0.902,0.113,2.007-0.22,2.573-0.541c0.566-0.32,0.77-0.581,1.111-1.055c0.341-0.475,0.694-0.7,0.694-0.7
			l0.145,0.038c0,0,0.809-0.588,0.942-0.792c0.069-0.171,0.12-1.041-0.005-1.12S205.808,376.855,205.808,376.855z"/>
		<path fill="#C2D2EA" d="M208.284,373.606l-0.251,0.599c0,0-1.476,1.433-1.875,1.859c-0.4,0.428-0.606,0.802-0.624,1.189
			s0.989,0.639,1.14,0.648c0.151,0.011,0.82,0.076,1.677-0.242c0.857-0.319,1.21-0.627,1.898-1.375s1.153-1.16,1.364-1.33
			c0.211-0.172,0.518-0.443,0.514-0.665s0.031-0.843-0.15-0.92C211.795,373.293,208.861,373.055,208.284,373.606z"/>
	</g>
	<path fill="#A8678D" d="M207.24,371.327c0,0-0.197,0.367-0.657,0.569c-0.47,0.208-1.21,0.243-2.293-0.461
		c0,0-0.257-13.492-1.006-17.448l3.226,5.69l1.354,0.048l0.002,0.001c0,0,0.559,4.339,0.224,6.617
		C207.75,368.623,207.24,371.327,207.24,371.327z"/>
	<path fill="#A8678D" d="M207.924,359.576c-0.016,0.053-0.036,0.102-0.059,0.15l-0.002-0.001c-0.199,0.423-0.633,0.675-1.133,0.784
		c-0.985,0.22-2.225-0.113-2.439-0.773c-0.014-0.04-0.027-0.089-0.044-0.143c-0.389-1.293-1.218-6.734-1.74-10.779
		c-0.544-4.215,0.507-6.227,0.507-6.227l5.146,0.936c0,0,0.044,2.484,0.061,5.463C208.243,353.068,208.185,358.754,207.924,359.576z
		"/>
	<path fill="#A8B0C2" d="M207.24,371.327c0,0-0.197,0.367-0.657,0.569c0.347-2.257,0.911-6.114,0.815-6.908
		c-0.061-0.533-0.195-3.146-0.341-4.402c-0.986-8.537-0.87-11.186-0.87-11.186l-1.098-1.674l3.132,1.26
		c0.021,4.082-0.037,9.768-0.298,10.59c-0.016,0.053-0.036,0.102-0.059,0.15c0,0,0.559,4.339,0.224,6.617
		C207.75,368.623,207.24,371.327,207.24,371.327z"/>
	<path fill="#A8678D" d="M204.98,345.264l-0.719,0.843c0,0-0.063,1.04,2.237,2.771c0.014,2.44,0.918,10.239,1.676,12.099
		c0.758,1.858,3.102,0.415,3.499-1.745c0.396-2.159,2.16-8.931,2.312-10.597c0.151-1.666,0.283-3.36-0.871-4.343
		C211.958,343.311,204.98,345.264,204.98,345.264z"/>
	<path fill="#A8678D" d="M208.693,373.301c0.431-1.512,0.098-9.928-0.52-12.324c3.185-1.854,3.592-2.213,3.592-2.213
		s1.162,6.165,1.117,7.389c-0.045,1.223-1.03,7.192-1.03,7.192S210.253,374.871,208.693,373.301z"/>
	<g>
		<path fill="#BB88A6" d="M211.154,374.168l-0.226-0.051c0.011-0.048,1.072-4.865,1.081-7.286c0.009-1.855-0.447-4.149-0.779-5.823
			c-0.154-0.78-0.276-1.396-0.306-1.744c-0.029-0.344,0.211-1.374,0.542-2.8c0.734-3.161,1.844-7.938,1.055-9.651l0.21-0.097
			c0.822,1.786-0.299,6.609-1.04,9.801c-0.314,1.353-0.562,2.42-0.537,2.728c0.028,0.335,0.149,0.945,0.303,1.719
			c0.334,1.684,0.792,3.99,0.784,5.869C212.231,369.278,211.165,374.119,211.154,374.168z"/>
	</g>
	<g>
		<g>
			<path fill="#FEBFBF" d="M207.694,324.991c0,0-0.814-0.001-2.003-0.254c-1.189-0.253-6.603-0.603-8.345-1.511
				c-2.014,0.635-4.474,0.275-2.646,1.704c1.829,1.428,9.474,3.328,10.751,3.491C206.729,328.584,207.694,324.991,207.694,324.991z"
				/>
			<path fill="#FEBFBF" d="M196.192,324.539c0,0,0.99-0.338,1.154-1.313c0.164-0.97,0.117-2.512,0.416-3.83
				c0.422-1.859,0.657-2.029,0.695-2.066s0.713-0.809,0.84-1.072c0.127-0.264,0.295-1.124,0.231-1.353s-0.422-0.351-0.505-0.293
				c-0.084,0.058-0.15,0.116-0.15,0.116l-0.118-0.473l-0.687-0.206c0,0-0.656-0.109-0.823,0.006
				c-0.167,0.114-0.282,0.422-0.312,0.52c-0.03,0.099-0.03,0.099-0.03,0.099s-0.475,0.066-0.499,0.318
				c-0.023,0.251,0.066,0.347-0.072,0.566c-0.138,0.221,0.044,0.591,0.021,0.767c-0.022,0.175-0.121,0.35,0.035,0.657
				c0.156,0.309,0.333,0.518,0.232,0.775c-0.101,0.259-1.868,4.021-2.438,5.364C193.385,325.005,195.277,325.048,196.192,324.539z"
				/>
			<polygon fill="#DBAB81" points="198.333,333.079 196.942,332.51 197.736,296.174 199.126,296.743 			"/>
			<path fill="#FF785C" d="M207.616,324.804c0,0-3.215-0.828-3.894-0.89c-0.679-0.061-1.123,0.125-1.123,0.125
				s-0.583,0.689-0.267,2.104s0.702,1.984,1.046,2.181c0.344,0.196,1.953,0.248,1.953,0.248L207.616,324.804z"/>
			
				<linearGradient id="SVGID_1_" gradientUnits="userSpaceOnUse" x1="1062.3521" y1="427.626" x2="1064.7866" y2="427.626" gradientTransform="matrix(0.992 0.1261 -0.1261 0.992 -803.022 -242.3508)">
				<stop  offset="0.1224" style="stop-color:#FCA4B5"/>
				<stop  offset="0.9896" style="stop-color:#FFADB7"/>
			</linearGradient>
			<path fill="url(#SVGID_1_)" d="M199.023,314.612c0,0,0.009,0.113-0.069,0.224c-0.078,0.111-0.228,0.289-0.259,0.388
				c-0.031,0.098-0.179,0.46,0.055,0.566c0.235,0.106,0.525-0.073,0.574-0.207s0.09-0.408,0.09-0.408s0.042,0.368-0.111,0.571
				s-0.423,0.328-0.423,0.328s-0.104,0.018-0.168,0.226c-0.065,0.208-0.16,0.457-0.16,0.457s0.102,0.249,0.035,0.329
				s-0.128,0.244-0.128,0.244l-0.244,0.032l-0.551,0.128l-0.555-0.141l-0.356-0.3l0.655,0.204c0,0,0.536,0.087,0.642,0.05
				c0.107-0.037,0.175-0.079,0.265-0.284s0.037-0.339,0.037-0.339l-0.395,0.001l-1.108-0.389c0,0,1.016,0.262,1.141,0.284
				c0.124,0.022,0.399,0.058,0.427-0.054c0.026-0.111,0.061-0.38,0.061-0.38l-0.274-0.245l-1.124-0.365l1.261,0.338
				c0,0,0.099-0.229,0.152-0.445c0.053-0.215-0.049-0.317-0.049-0.317l-1.211-0.479l1.267,0.346c0,0,0.305-0.187,0.318-0.303
				s-0.005-0.189-0.005-0.189l0.062,0.245L199.023,314.612z"/>
		</g>
		<g>
			<g>
				<path fill="#BB88A6" d="M211.241,348.877c-2.319-0.101-2.572-1.654-2.575-1.672l0.229-0.033c0.01,0.064,0.261,1.582,2.836,1.473
					l0.009,0.232C211.564,348.884,211.397,348.884,211.241,348.877z"/>
			</g>
			<path fill="#1B292C" d="M213.983,345.672c0,0-1.07,0.945-3.939,1.102s-4.421-0.265-5.387-0.785
				c-0.966-0.521-1.841-1.561-1.841-1.561l0.16-1.261c0,0,0.834,1.254,2.207,1.787c1.372,0.532,4.309,0.425,5.503,0.323
				s3.034-0.645,3.034-0.645L213.983,345.672z"/>
			<path fill="#A8678D" d="M208.148,345.431c0,0-0.073,0.363-0.08,0.784c-0.006,0.422,0.018,1.191,0.018,1.191l-0.435-0.026
				c0,0-0.088-0.735-0.076-1.11c0.012-0.375,0.104-0.902,0.104-0.902L208.148,345.431z"/>
			<path fill="#A8678D" d="M204.143,344.347c0,0-0.1,0.451-0.111,0.811c-0.011,0.358,0.056,0.962,0.056,0.962l-0.295-0.364
				c0,0-0.053-0.612-0.047-0.808c0.006-0.195,0.159-0.781,0.159-0.781L204.143,344.347z"/>
			<g>
				<path fill="#BB88A6" d="M202.765,346.537c-0.019,0-0.038-0.004-0.058-0.008l0.051-0.226c0.182,0.042,0.475-0.55,0.603-0.994
					l0.223,0.063C203.525,345.577,203.221,346.557,202.765,346.537z"/>
			</g>
			<g>
				<path fill="#CCDEFB" d="M206.051,346.771c-0.05,0-0.102-0.007-0.153-0.021l-0.813-0.218c-0.347-0.093-0.62-0.46-0.622-0.837
					l-0.002-0.359c-0.001-0.183,0.062-0.344,0.177-0.452c0.13-0.123,0.313-0.164,0.502-0.113l0.813,0.219
					c0.346,0.093,0.619,0.46,0.621,0.837l0.002,0.358c0.001,0.183-0.062,0.344-0.177,0.453
					C206.305,346.727,206.184,346.772,206.051,346.771z M204.999,345.16c-0.055,0-0.103,0.017-0.138,0.05
					c-0.036,0.033-0.054,0.081-0.054,0.142l0.002,0.358c0.001,0.177,0.159,0.373,0.339,0.422l0.813,0.218
					c0.087,0.023,0.167,0.01,0.217-0.038c0.036-0.034,0.054-0.081,0.054-0.142l-0.002-0.358c-0.001-0.177-0.159-0.374-0.338-0.422
					l-0.813-0.218C205.05,345.164,205.024,345.16,204.999,345.16z"/>
			</g>
		</g>
		<g>
			<path fill="#FF8269" d="M211.085,325.363c0,0-1.614-0.217-2.601-0.152c-0.988,0.065-0.695-0.628-1.407-0.527
				s-1.656,1.044-1.656,1.044s-0.937,2.028-1.394,4.323c-0.457,2.296-1.549,4.383-1.607,5.24s0.339,1.837,0.383,3.191
				c0.044,1.354,0.01,4.924,0.01,4.924s0.688,2.395,5.324,2.882c3.395,0.109,5.571-0.748,5.641-1.425
				c-0.475-1.945-0.66-2.754-0.577-4.609s1.266-5.068,1.755-6.108c0.488-1.04,1.304-5.991,0.771-6.466s-2.516-1.559-2.983-1.753
				C212.276,325.731,211.085,325.363,211.085,325.363z"/>
			<path fill="#FF8269" d="M208.137,346.288c3.395,0.109,5.846-0.979,5.641-1.425c-0.514-1.877-0.66-2.754-0.577-4.609
				S203.501,345.801,208.137,346.288z"/>
		</g>
		<g>
			<path fill="#FEBFBF" d="M211.214,324.862c0.13,0.009,0.454,0.516,1.026,0.817c0.572,0.302,0.588,0.38-0.127,1.001
				c-0.715,0.622-3.274,3.413-4.846,3.035s-1.453-1.915-1.375-2.528c0.078-0.613,1.054-1.99,1.363-2.116
				S211.214,324.862,211.214,324.862z"/>
			
				<linearGradient id="SVGID_2_" gradientUnits="userSpaceOnUse" x1="1078.0854" y1="436.2891" x2="1075.2405" y2="432.9764" gradientTransform="matrix(0.992 0.1261 -0.1261 0.992 -803.022 -242.3508)">
				<stop  offset="0.1224" style="stop-color:#FEC7C7"/>
				<stop  offset="0.9694" style="stop-color:#FFADB7"/>
			</linearGradient>
			<path fill="url(#SVGID_2_)" d="M206.866,324.525c0,0,0.26,0.656,0.185,1.245c-0.075,0.589-0.427,1.562-0.427,1.562
				s0.344,0.705,1.79,0.583c1.446-0.121,1.51-0.622,1.974-0.868c0.464-0.246,1.671-1.4,1.599-1.486
				c-0.072-0.085-1.251-0.712-0.747-2.412c0.504-1.701,1.205-2.57,1.205-2.57s0.419-0.709-0.08-0.772
				S206.866,324.525,206.866,324.525z"/>
			
				<linearGradient id="SVGID_3_" gradientUnits="userSpaceOnUse" x1="1073.3286" y1="435.5498" x2="1076.6011" y2="435.5498" gradientTransform="matrix(0.992 0.1261 -0.1261 0.992 -803.022 -242.3508)">
				<stop  offset="0.1224" style="stop-color:#FCA4B5"/>
				<stop  offset="0.9896" style="stop-color:#FFADB7"/>
			</linearGradient>
			<path fill="url(#SVGID_3_)" d="M210.258,323.795c0,0-1.26,1.116-1.535,1.692c-0.275,0.575-1.491,1.337-1.491,1.337l-0.167-1.297
				l-0.198-1.002L210.258,323.795z"/>
			<path fill="#FEC7C7" d="M206.736,316.546c0,0-0.535,0.402-0.9,1.272c-0.365,0.869-0.625,1.612-0.606,1.768
				c0.019,0.154,0.141,0.488-0.078,1.109s0.335,3.77,1.006,4.097s3.834-0.645,4.195-1.082s1.301-2.227,1.443-3.442
				c0.142-1.216,0.537-2.629-1.208-3.41S206.736,316.546,206.736,316.546z"/>
			<g>
				
					<linearGradient id="SVGID_4_" gradientUnits="userSpaceOnUse" x1="1072.2446" y1="431.7236" x2="1071.4467" y2="431.7922" gradientTransform="matrix(0.992 0.1261 -0.1261 0.992 -803.022 -242.3508)">
					<stop  offset="0.1224" style="stop-color:#FEC7C7"/>
					<stop  offset="0.9896" style="stop-color:#FFDBDB"/>
				</linearGradient>
				<path fill="url(#SVGID_4_)" d="M206.24,319.947c0.058,0.347-0.874,1.734-0.922,2.048s0.838,0.315,0.838,0.315L206.24,319.947z"
					/>
				
					<linearGradient id="SVGID_5_" gradientUnits="userSpaceOnUse" x1="1071.4272" y1="431.75" x2="1072.3501" y2="431.75" gradientTransform="matrix(0.992 0.1261 -0.1261 0.992 -803.022 -242.3508)">
					<stop  offset="0.188" style="stop-color:#FFDCDC"/>
					<stop  offset="0.8991" style="stop-color:#FEC7C7"/>
				</linearGradient>
				<path fill="url(#SVGID_5_)" d="M206.061,322.355c-0.192-0.008-0.604-0.045-0.742-0.208c-0.04-0.046-0.056-0.102-0.047-0.159
					c0.021-0.139,0.19-0.448,0.386-0.807c0.252-0.463,0.566-1.039,0.536-1.227l0.092-0.016c0.037,0.219-0.259,0.762-0.545,1.287
					c-0.184,0.336-0.357,0.654-0.376,0.775c-0.005,0.032,0.003,0.059,0.026,0.086c0.123,0.144,0.594,0.176,0.766,0.177l0,0.093
					C206.142,322.357,206.108,322.357,206.061,322.355z"/>
			</g>
			<g>
				<path fill="#754554" d="M208.71,320.062c-1.076-0.254-1.849-0.095-1.856-0.093l-0.033-0.153
					c0.032-0.007,0.814-0.168,1.924,0.095L208.71,320.062z"/>
			</g>
			<g>
				<path fill="#754554" d="M205.954,319.849c-0.214-0.157-0.572-0.37-0.689-0.344l-0.027-0.153
					c0.017-0.004,0.035-0.004,0.055-0.004c0.245,0.011,0.667,0.311,0.754,0.375L205.954,319.849z"/>
			</g>
			
				<ellipse transform="matrix(0.9525 0.3046 -0.3046 0.9525 107.5729 -48.0572)" fill="#FFFFFF" cx="207.802" cy="320.725" rx="0.329" ry="0.281"/>
			
				<ellipse transform="matrix(0.7181 -0.6959 0.6959 0.7181 -164.8827 233.4656)" fill="#FFFFFF" cx="205.757" cy="320.27" rx="0.231" ry="0.266"/>
			<path fill="#FB7F9E" d="M207.13,323.453c0,0-0.892-0.337-1.254-0.396c-0.361-0.059-0.39,0.065-0.367,0.188
				C205.531,323.37,206.071,324.278,207.13,323.453z"/>
			<path fill="#754554" d="M212.231,320.747c0,0-0.276-0.378-0.495-0.259s-0.627,0.277-0.648,0.446s-0.201,1.081-0.201,1.081
				s-0.371-0.689-0.285-1.365s-0.098-1.628-0.362-2.057c-0.264-0.428-0.524-1.084-1.17-1.204c-0.646-0.12-1.55-0.019-2.077-0.073
				s-0.737-0.248-0.737-0.248l-0.502,0.948c0,0,0.042-0.479,0.351-1.009c0.309-0.528,2.521-2.918,5.488-1.143
				c2.185,1.131,1.974,3.584,1.607,4.467c-0.366,0.882-1.429,1.645-1.543,1.915c-0.113,0.271-0.411,0.647-0.417,0.901
				s0.15-0.948,0.377-1.453C211.844,321.189,212.231,320.747,212.231,320.747z"/>
			
				<linearGradient id="SVGID_6_" gradientUnits="userSpaceOnUse" x1="1077.0298" y1="431.541" x2="1078.5347" y2="431.541" gradientTransform="matrix(0.992 0.1261 -0.1261 0.992 -803.022 -242.3508)">
				<stop  offset="0.1224" style="stop-color:#FEB9B8"/>
				<stop  offset="1" style="stop-color:#FFDEDE"/>
			</linearGradient>
			<path fill="url(#SVGID_6_)" d="M211.42,320.926c0,0,0.796-0.758,1.061-0.139c0.265,0.619-0.375,1.295-0.784,1.617
				c-0.41,0.323-0.707,0.406-0.817,0.221c-0.11-0.186,0.209-0.845,0.209-0.845L211.42,320.926z"/>
			
				<linearGradient id="SVGID_7_" gradientUnits="userSpaceOnUse" x1="1077.272" y1="431.4395" x2="1078.3159" y2="431.4395" gradientTransform="matrix(0.992 0.1261 -0.1261 0.992 -803.022 -242.3508)">
				<stop  offset="0.1224" style="stop-color:#FCA4B5"/>
				<stop  offset="0.9896" style="stop-color:#FFADB7"/>
			</linearGradient>
			<path fill="url(#SVGID_7_)" d="M211.533,320.94c0,0,0.506-0.433,0.704-0.083s0.006,0.949-0.53,1.44
				c-0.508,0.171-0.576-0.048-0.568-0.11c0.008-0.063,0.208-0.336,0.24-0.583C211.41,321.357,211.533,320.94,211.533,320.94z"/>
		</g>
		<g>
			<path fill="#FEBFBF" d="M215.406,327.905c0,0-0.644-0.675-1.835,0.021s-5.141,6.148-6.739,7.115
				c-1.34,1.067-1.017,3.467-0.465,3.655c0.553,0.189,6.623-3.263,8.275-5.987C216.294,329.986,216.503,328.876,215.406,327.905z"/>
			<path fill="#FF785C" d="M215.61,327.63c0,0-0.974-1.01-2.515,0.169c-1.541,1.178-2.812,3.441-2.812,3.441l-0.034,0.266
				l0.337-0.396c0,0,1.087-0.269,2.448,0.498c1.361,0.767,1.506,1.262,1.506,1.262l-0.512,0.669c0,0,0.605-0.235,0.781-0.417
				c0.176-0.181,1.095-1.675,1.381-2.859C216.478,329.076,216.23,328.086,215.61,327.63z"/>
			<path fill="#FEBFBF" d="M206.996,335.623c0,0,0.08-0.363-0.164-0.581s-2.371-1.234-4.308-2.804
				c-1.938-1.568-2.625-2.301-2.704-2.616s-0.422-1.216-0.488-1.368c-0.065-0.152-0.546-0.638-0.546-0.638s-0.524-0.21-0.754-0.138
				c-0.23,0.072-0.406,0.194-0.406,0.194s-0.288-0.139-0.396-0.093s-0.586,0.739-0.586,0.739s0.001,0.255-0.062,0.417
				c-0.063,0.161-0.133,0.585-0.128,0.679s0.01,0.256,0,0.466c-0.01,0.211,0.255,0.465,0.266,0.577
				c0.011,0.111-0.004,0.364,0.406,0.476c0.41,0.111,1.606,0.374,1.921,0.702s3.538,5.122,7.354,7.121
				C207.561,337.746,206.996,335.623,206.996,335.623z"/>
			
				<linearGradient id="SVGID_8_" gradientUnits="userSpaceOnUse" x1="1064.5171" y1="439.4238" x2="1065.3032" y2="439.4238" gradientTransform="matrix(0.992 0.1261 -0.1261 0.992 -803.022 -242.3508)">
				<stop  offset="0.1224" style="stop-color:#FCA4B5"/>
				<stop  offset="0.9896" style="stop-color:#FFADB7"/>
			</linearGradient>
			<path fill="url(#SVGID_8_)" d="M197.85,327.549l-0.029,0.233c0,0,0.494-0.007,0.511,0.205s-0.288,0.147-0.288,0.147
				s-0.395-0.082-0.458-0.09s0-0.39,0-0.39l0.04,0.018L197.85,327.549z"/>
		</g>
	</g>
	<polygon fill="#EEECF1" points="206.036,313.412 190.101,307.484 190.245,295.08 206.181,301.008 	"/>
	<g>
		<g>
			<path fill="#9FC7A8" d="M197.908,308.954c-2.423-0.812-4.356-3.506-4.306-6.008c0.049-2.501,2.062-3.876,4.485-3.065
				c2.424,0.812,4.356,3.506,4.307,6.008S200.332,309.766,197.908,308.954z M198.067,300.908c-1.875-0.628-3.432,0.437-3.47,2.371
				c-0.038,1.936,1.456,4.021,3.332,4.647c1.875,0.628,3.432-0.437,3.47-2.371S199.942,301.535,198.067,300.908z"/>
		</g>
		<g>
			<polygon fill="#9FC7A8" points="195.553,306.805 194.863,305.844 197.504,304.038 197.579,300.229 198.575,300.562 
				198.491,304.797 			"/>
		</g>
		<g>
			<polygon fill="#9FC7A8" points="198.423,308.232 197.428,307.899 197.522,303.108 201.176,308.053 200.471,308.562 
				198.47,305.854 			"/>
		</g>
	</g>
	<path fill="#754554" d="M210.619,321.2c0,0,0.298,1.656-0.116,2.681c0.444-0.996,0.388-2.18,0.388-2.18L210.619,321.2z"/>
</g>
</svg>
