<?xml version="1.0" encoding="utf-8"?>
<!-- Generator: Adobe Illustrator 16.0.0, SVG Export Plug-In . SVG Version: 6.00 Build 0)  -->
<!DOCTYPE svg PUBLIC "-//W3C//DTD SVG 1.1//EN" "http://www.w3.org/Graphics/SVG/1.1/DTD/svg11.dtd">
<svg version="1.1" id="Layer_1" xmlns="http://www.w3.org/2000/svg" xmlns:xlink="http://www.w3.org/1999/xlink" x="0px" y="0px"
	 width="463.683px" height="425.749px" viewBox="0 0 463.683 425.749" enable-background="new 0 0 463.683 425.749"
	 xml:space="preserve">
<g>
	<path fill="#6A3646" d="M316.827,230.291c0,0,1.295-1.126,2.694-0.007c1.221,0.977,0.775,4.038,0.545,5.268
		c-0.247,1.323-0.143,4.563,1.947,4.327c-0.173,1.094-2.759,0.742-3.588,0.41S314.273,233.724,316.827,230.291z"/>
	<path fill="#D7E4F2" d="M307.384,297.602c4.217,2.684,11.25,2.975,15.71,0.65s4.657-6.385,0.44-9.067
		c-4.216-2.683-11.25-2.974-15.709-0.649C303.366,290.859,303.168,294.919,307.384,297.602z"/>
	<g>
		<g>
			
				<linearGradient id="SVGID_1_" gradientUnits="userSpaceOnUse" x1="1423.2388" y1="334.0488" x2="1428.6616" y2="334.0488" gradientTransform="matrix(0.9991 0.0431 -0.0431 0.9991 -1096.9154 -105.6812)">
				<stop  offset="0.1224" style="stop-color:#FEC7C7"/>
				<stop  offset="0.9694" style="stop-color:#FFADB7"/>
			</linearGradient>
			<path fill="url(#SVGID_1_)" d="M315.239,286.46c0,0,1.067,1.019,0.877,1.591c-0.191,0.572-2.601,4.038-3.788,4.391
				c-2.47,0.732-1.786-1.457-1.361-1.894c0.375-0.386,1.844-1.423,1.881-2.472C312.898,286.661,315.239,286.46,315.239,286.46z"/>
			<path fill="#8E8E8E" d="M314.814,289.784c0,0,0.4,0.158,0.391,0.47c-0.011,0.311-0.031,1.482-0.031,1.482s0.267,0.16,0.423,0.096
				c0.157-0.063,0.393-0.42,0.393-0.42s0.331-2.29,0.472-2.751C316.6,288.2,314.814,289.784,314.814,289.784z"/>
			<path fill="#DDE8F6" d="M316.273,287.177c0,0-1.726,1.863-2.435,3.115s-1.433,1.732-1.948,1.685
				c-0.822-0.076-1.329-0.61-1.126-1.02c0.202-0.409,0.202-0.409,0.202-0.409s-2.223,2.098-2.023,3.499
				c0.2,1.402,3.981-0.315,4.58-1.005c0.229-0.263,0.764-2.247,1.275-2.793c0.512-0.545,1.247-0.261,1.617-1.412
				S316.273,287.177,316.273,287.177z"/>
			<path fill="#8E8E8E" d="M314.916,289.979c-0.512,0.546-1.247,2.619-1.477,2.883c-0.557,0.641-3.882,2.132-4.497,1.161
				c0.001,0.008,0,0.017,0.001,0.024c0.2,1.402,3.981-0.315,4.58-1.005c0.229-0.263,0.764-2.247,1.275-2.793
				c0.445-0.475,1.286-0.27,1.549-1.227C315.992,289.241,315.287,289.583,314.916,289.979z"/>
		</g>
		<g>
			<path fill="#8E8E8E" d="M319.626,291.134c0,0,0.596-0.178,0.591,0.134c-0.005,0.311-0.092,2.25-0.092,2.25
				s0.138,0.134,0.293,0.066c0.156-0.066,0.386-0.426,0.386-0.426s0.244-1.895,0.234-2.376
				C321.028,290.21,319.626,291.134,319.626,291.134z"/>
			<path fill="#FEBBC0" d="M319.792,288.404c0,0,0.889,0.719,0.87,1.645c-0.017,0.91-1.162,4.603-2.326,5.025
				c-1.163,0.424-2.328-0.332-2.23-0.86s1.131-2.162,1.417-3.458C317.826,289.373,319.792,288.404,319.792,288.404z"/>
			<path fill="#DDE8F6" d="M317.518,290.219c0,0-0.88,1.646-1.263,2.768c-0.834,2.445-0.793,3.516-0.614,4.099
				c0.187,0.608,1.944,0.064,3.193-0.955c1.431-1.169,0.809-2.572,1.686-3.99c0.284-0.46,0.548-0.795,0.542-1.892
				c0.013-0.932-0.812-1.319-0.812-1.319s0.624,0.944,0.292,1.733c-0.168,0.396-0.105,0.568-0.357,1.064
				c-0.501,0.987-0.585,1.953-1.304,2.668c-0.676,0.67-2.674,0.257-2.619-0.139c0.1-0.732,0.741-1.968,0.997-2.653
				C317.563,290.784,317.518,290.219,317.518,290.219z"/>
			<path fill="#8E8E8E" d="M320.46,292.034c-0.877,1.418-0.215,2.729-1.646,3.899c-1.155,0.943-2.849,1.505-3.202,1.061
				c0.01,0.03,0.019,0.062,0.028,0.091c0.187,0.608,1.944,0.064,3.193-0.955c1.431-1.169,0.809-2.572,1.686-3.99
				c0.186-0.3,0.469-0.599,0.498-1.189C320.859,291.267,320.598,291.812,320.46,292.034z"/>
		</g>
		
			<linearGradient id="SVGID_2_" gradientUnits="userSpaceOnUse" x1="1423.4155" y1="323.3672" x2="1429.1646" y2="323.3672" gradientTransform="matrix(0.9991 0.0431 -0.0431 0.9991 -1096.9154 -105.6812)">
			<stop  offset="0.1224" style="stop-color:#FEC7C7"/>
			<stop  offset="0.9694" style="stop-color:#FFADB7"/>
		</linearGradient>
		<path fill="url(#SVGID_2_)" d="M315.713,287.515c0,0,0,0.585-0.492,0.801c-0.502,0.223-1.19,0.302-2.348-0.45
			c0,0-0.377-14.463-1.178-18.689l3.447,6.081l1.447,0.052h0.002c0,0,0.597,4.638,0.238,7.072
			C316.47,284.817,315.713,287.515,315.713,287.515z"/>
		
			<linearGradient id="SVGID_3_" gradientUnits="userSpaceOnUse" x1="1422.0591" y1="311.165" x2="1428.7378" y2="311.165" gradientTransform="matrix(0.9991 0.0431 -0.0431 0.9991 -1096.9154 -105.6812)">
			<stop  offset="0.1224" style="stop-color:#FEC7C7"/>
			<stop  offset="0.9694" style="stop-color:#FFADB7"/>
		</linearGradient>
		<path fill="url(#SVGID_3_)" d="M316.655,275.148c-0.017,0.056-0.038,0.108-0.063,0.16h-0.002c-0.214,0.451-0.678,0.72-1.211,0.838
			c-1.054,0.234-2.378-0.122-2.607-0.827c-0.015-0.043-0.029-0.095-0.047-0.152c-0.416-1.382-1.302-7.197-1.859-11.52
			c-0.581-4.505,0.542-6.655,0.542-6.655l5.5,0.999c0,0,0.048,2.655,0.065,5.84C316.996,268.193,316.934,274.27,316.655,275.148z"/>
		
			<linearGradient id="SVGID_4_" gradientUnits="userSpaceOnUse" x1="1425.0562" y1="319.8906" x2="1429.1646" y2="319.8906" gradientTransform="matrix(0.9991 0.0431 -0.0431 0.9991 -1096.9154 -105.6812)">
			<stop  offset="0.1224" style="stop-color:#FCA4B5"/>
			<stop  offset="0.9896" style="stop-color:#FFADB7"/>
		</linearGradient>
		<path fill="url(#SVGID_4_)" d="M315.713,287.515c0,0,0,0.585-0.492,0.801c0.371-2.411,0.974-6.534,0.872-7.383
			c-0.065-0.57-0.209-3.362-0.365-4.706c-1.054-9.123-0.929-11.953-0.929-11.953l-1.174-1.789l3.348,1.347
			c0.022,4.362-0.039,10.438-0.318,11.317c-0.017,0.056-0.038,0.108-0.063,0.16c0,0,0.597,4.638,0.238,7.072
			C316.47,284.817,315.713,287.515,315.713,287.515z"/>
		
			<linearGradient id="SVGID_5_" gradientUnits="userSpaceOnUse" x1="1424.0952" y1="311.9063" x2="1434.0952" y2="311.9063" gradientTransform="matrix(0.9991 0.0431 -0.0431 0.9991 -1096.9154 -105.6812)">
			<stop  offset="0.1224" style="stop-color:#FEC7C7"/>
			<stop  offset="0.9694" style="stop-color:#FFADB7"/>
		</linearGradient>
		<path fill="url(#SVGID_5_)" d="M313.508,259.852l-0.769,0.9c0,0-0.066,1.112,2.391,2.963c0.016,2.607,0.981,10.943,1.791,12.93
			c0.811,1.986,3.315,0.444,3.739-1.864c0.424-2.308,1.779-9.596,1.941-11.376c0.163-1.78,0.276-4.44-0.957-5.49
			C320.412,256.865,313.508,259.852,313.508,259.852z"/>
		<path fill="#ECF2FA" d="M321.442,256.502c-1.401-2.439-6.378-2.199-8.729-1.646c-0.564,0.133-1.074,1.266-1.074,1.266
			s-1.091,2.883-0.966,5.285c0.126,2.403,0.331,4.435,1.023,9.958c6.933,3.29,9.69,0.959,9.69,0.959
			C322.063,267.225,324.312,261.499,321.442,256.502z"/>
		<path fill="#FEBBC0" d="M317.77,290.145c0.462-1.615-0.188-10.939-0.849-13.5c3.404-1.98,3.839-2.365,3.839-2.365
			s0.705,6.604,0.657,7.912c-0.049,1.308-0.89,7.759-0.89,7.759S319.437,291.822,317.77,290.145z"/>
	</g>
	<g>
		<path fill="#FEBFBF" d="M312.291,239.459c0,0-0.743,0.387-1.057,2.184c-0.314,1.796-0.818,8.194-0.406,9.08
			c0.413,0.887,1.681-0.642,2.125-4.639C313.397,242.086,314.634,239.992,312.291,239.459z"/>
		<path fill="#FEBFBF" d="M309.745,259.154c0,0,0.068,0.42-0.016,0.717s-0.458,1.446-0.458,1.446s0.021,0.416,0.002,0.623
			c-0.025,0.206,0.277,1.055,0.135,1.247c-0.014,0.023-0.026,0.034-0.045,0.051h-0.006c-0.105,0.069-0.229-0.051-0.278-0.102
			l0.11,0.221c0,0,0.006,0.012-0.009,0.047c-0.008,0.029-0.028,0.081-0.075,0.161c-0.047,0.086-0.131,0.099-0.201,0.088
			c-0.076-0.011-0.14-0.044-0.14-0.044s0.013,0.078-0.004,0.16v0.005c-0.017,0.076-0.063,0.15-0.159,0.174
			c-0.061,0.015-0.147-0.015-0.245-0.063c-0.219-0.108-0.483-0.321-0.523-0.354c-0.001,0.013,0.009,0.06,0.005,0.113
			c0.005,0.113-0.022,0.26-0.188,0.267c-0.262,0.008-0.989-1.23-0.989-1.23s0.08-1.452,0.106-1.693
			c0.021-0.236,0.95-1.25,1.264-1.989c0.319-0.738,1.834-7.56,2.285-8.978c0.451-1.424,0.835-1.021,0.835-1.021
			c0.303-0.011,1.405,1.108,1.258,2.516C312.26,252.918,309.745,259.154,309.745,259.154z"/>
		<path fill="#CBDCF5" d="M311.975,255.927c0.126-1.484,0.525-4.332,0.211-5.545c-0.334-1.289-1.42-3.431-1.308-4.349
			c0.111-0.921,0.567-2.708,0.699-3.961c0.132-1.256,0.683-2.601,1.084-2.721c0.401-0.119,4.701-1.021,5.669-0.61
			c0.968,0.412,0.789,0.432,1.788,1.003c0.999,0.569,2.538,1.73,2.538,1.73s0.383,1.427,0.279,2.371
			c-0.034,0.329-0.093,0.628-0.182,0.836c-0.351,0.807-1.229,7.791-1.405,9.464c-0.074,0.705-0.026,1.572,0.093,2.356
			C321.696,258.173,313.992,258.299,311.975,255.927z"/>
		
			<linearGradient id="SVGID_6_" gradientUnits="userSpaceOnUse" x1="1497.3647" y1="282.6084" x2="1492.6758" y2="285.7526" gradientTransform="matrix(0.998 0.0629 -0.0629 0.998 -1157.5242 -137.1323)">
			<stop  offset="0.1224" style="stop-color:#FEC7C7"/>
			<stop  offset="0.9694" style="stop-color:#FFADB7"/>
		</linearGradient>
		<path fill="url(#SVGID_6_)" d="M318.555,238.639c0.124,0.001,0.368,0.426,0.897,0.737c0.467,0.275,0.702,0.299,0.063,0.931
			c-0.639,0.631-2.894,3.428-4.404,3.164c-1.512-0.263-1.491-1.725-1.454-2.311c0.036-0.585,0.878-1.947,1.163-2.085
			C315.104,238.938,318.555,238.639,318.555,238.639z"/>
		
			<linearGradient id="SVGID_7_" gradientUnits="userSpaceOnUse" x1="1496.2671" y1="281.2949" x2="1493.7776" y2="284.5978" gradientTransform="matrix(0.998 0.0629 -0.0629 0.998 -1157.5242 -137.1323)">
			<stop  offset="0.1224" style="stop-color:#FEC7C7"/>
			<stop  offset="0.9694" style="stop-color:#FFADB7"/>
		</linearGradient>
		<path fill="url(#SVGID_7_)" d="M314.458,238.669c0,0,0.285,0.606,0.25,1.167c-0.035,0.562-0.311,1.504-0.311,1.504
			s0.368,0.647,1.729,0.445s1.392-0.68,1.816-0.941c0.424-0.261,1.497-1.426,1.424-1.502c-0.073-0.077-1.227-0.6-0.853-2.24
			c0.375-1.641,0.729-2.062,0.729-2.062s0.61-1.141,0.134-1.171C318.903,233.84,314.458,238.669,314.458,238.669z"/>
		
			<linearGradient id="SVGID_8_" gradientUnits="userSpaceOnUse" x1="1492.7349" y1="282.9863" x2="1495.8403" y2="282.9863" gradientTransform="matrix(0.998 0.0629 -0.0629 0.998 -1157.5242 -137.1323)">
			<stop  offset="0.1224" style="stop-color:#FCA4B5"/>
			<stop  offset="0.9896" style="stop-color:#FFADB7"/>
		</linearGradient>
		<path fill="url(#SVGID_8_)" d="M317.625,237.773c0,0-1.126,1.132-1.352,1.693s-1.331,1.355-1.331,1.355l-0.236-1.217l-0.248-0.937
			L317.625,237.773z"/>
		<path fill="#DDE8F6" d="M321.532,259.128c-0.419-1.873-1.171-3.835-1.358-4.556c-0.268-1.031,0.572-3.874,0.611-4.007
			c-0.104,0.161-2.048,3.472-3.957,3.318c-1.981-0.079-1.01-8.724-1.01-8.724l1.93,1.999l1.969-3.906l1.563,1.711l1.57-1.438
			c-0.034,0.329-0.092,0.628-0.182,0.836c-0.351,0.807-1.229,7.792-1.405,9.464c-0.176,1.674,0.43,4.25,0.47,4.543
			C321.772,258.646,322.385,258.598,321.532,259.128z"/>
		<path fill="#FEBFBF" d="M322.833,241.776c0,0-0.175-0.526-1.002-0.223s-2.596,2.103-2.761,4.785
			C318.906,249.021,322.822,243.157,322.833,241.776z"/>
		<path fill="#FEBFBF" d="M322.649,241.731c0,0-0.685-0.673-1.859,0.728c-1.174,1.401-2.874,8.107-3.049,8.699
			s0.101,2.163,1.097,1.69c0.997-0.474,3.045-4.969,3.433-5.755C322.658,246.307,323.828,242.424,322.649,241.731z"/>
		<path fill="#FEC7C7" d="M312.8,231.732c0,0-0.556,0.82-0.674,1.481c-0.117,0.661-0.134,1.274-0.134,1.274s0.136,0.423,0.079,0.971
			c-0.058,0.548,0.763,3.848,1.515,4.252c0.939,0.11,2.94-0.834,3.546-1.324c0.604-0.49,1.053-4.416,1.014-4.672
			c-0.039-0.258-0.191-1.441-1.062-1.978C316.214,231.2,312.8,231.732,312.8,231.732z"/>
		<g>
			
				<linearGradient id="SVGID_9_" gradientUnits="userSpaceOnUse" x1="1491.4653" y1="280.3311" x2="1490.387" y2="280.9642" gradientTransform="matrix(0.998 0.0629 -0.0629 0.998 -1157.5242 -137.1323)">
				<stop  offset="0.1224" style="stop-color:#FEC7C7"/>
				<stop  offset="0.9896" style="stop-color:#FFDBDB"/>
			</linearGradient>
			<path fill="url(#SVGID_9_)" d="M312.99,235.311c0.053,0.495-0.641,1.662-0.604,2.002c0.036,0.342,1.245,0.293,1.245,0.293
				L312.99,235.311z"/>
			
				<linearGradient id="SVGID_10_" gradientUnits="userSpaceOnUse" x1="1490.5327" y1="280.3691" x2="1491.8472" y2="280.3691" gradientTransform="matrix(0.998 0.0629 -0.0629 0.998 -1157.5242 -137.1323)">
				<stop  offset="0.188" style="stop-color:#FFDCDC"/>
				<stop  offset="0.8991" style="stop-color:#FEC7C7"/>
			</linearGradient>
			<path fill="url(#SVGID_10_)" d="M313.248,237.648c-0.374-0.016-0.879-0.084-0.906-0.331c-0.018-0.165,0.114-0.485,0.267-0.855
				c0.171-0.416,0.365-0.888,0.338-1.146l0.088-0.009c0.029,0.281-0.16,0.742-0.344,1.189c-0.142,0.344-0.275,0.669-0.26,0.813
				c0.023,0.218,0.747,0.271,1.199,0.253l0.003,0.089C313.589,237.651,313.435,237.656,313.248,237.648z"/>
		</g>
		
			<ellipse transform="matrix(0.9946 0.1034 -0.1034 0.9946 26.0812 -31.2593)" fill="#FFFFFF" cx="314.557" cy="235.94" rx="0.335" ry="0.255"/>
		<path fill="#FFFFFF" d="M312.394,235.429c-0.109-0.071-0.16-0.206-0.113-0.301c0.046-0.095,0.172-0.114,0.28-0.043
			c0.109,0.071,0.16,0.206,0.114,0.302C312.628,235.48,312.503,235.5,312.394,235.429z"/>
		<g>
			<path fill="#754554" d="M315.334,235.421c-1.108-0.232-1.693-0.139-1.698-0.138l-0.024-0.146c0.025-0.005,0.614-0.1,1.753,0.138
				L315.334,235.421z"/>
		</g>
		<g>
			<path fill="#754554" d="M312.676,234.993c-0.159-0.106-0.617-0.387-0.82-0.409l0.016-0.146c0.28,0.031,0.862,0.416,0.887,0.432
				L312.676,234.993z"/>
		</g>
		<path fill="#FB7F9E" d="M314.23,238.487c0,0-0.384,0.358-0.778,0.369c-0.396,0.011-0.517-0.602-0.517-0.602
			S313.204,237.973,314.23,238.487z"/>
		
			<linearGradient id="SVGID_11_" gradientUnits="userSpaceOnUse" x1="1488.4019" y1="304.1445" x2="1488.437" y2="304.1445" gradientTransform="matrix(0.998 0.0629 -0.0629 0.998 -1157.5242 -137.1323)">
			<stop  offset="0.1224" style="stop-color:#FCA4B5"/>
			<stop  offset="0.9896" style="stop-color:#FFADB7"/>
		</linearGradient>
		<path fill="url(#SVGID_11_)" d="M308.791,260.186c0.006-0.095,0.001-0.202-0.009-0.321
			C308.782,259.864,308.828,259.974,308.791,260.186z"/>
		
			<linearGradient id="SVGID_12_" gradientUnits="userSpaceOnUse" x1="1486.7798" y1="306.168" x2="1488.7632" y2="306.168" gradientTransform="matrix(0.998 0.0629 -0.0629 0.998 -1157.5242 -137.1323)">
			<stop  offset="0.1224" style="stop-color:#FCA4B5"/>
			<stop  offset="0.9896" style="stop-color:#FFADB7"/>
		</linearGradient>
		<path fill="url(#SVGID_12_)" d="M308.764,263.609c0,0,0.013,0.078-0.004,0.16c-0.035-0.192-0.413-0.501-0.413-0.501
			s-0.364-0.521-0.364-0.616c0.006-0.094-0.007-0.539-0.007-0.539l-0.088-0.124l-0.066,0.595l-0.125,0.383l0.243,0.472l0.416,0.447
			c-0.219-0.108-0.483-0.321-0.523-0.354c-0.001,0.013,0.009,0.06,0.005,0.113c0,0-0.259-0.407-0.336-0.395
			c-0.079,0.019-0.343-0.027-0.343-0.027l-0.106-0.464c0,0-0.024-1.316,0.017-1.403c0.034-0.075,0.218-0.531,0.267-0.646
			c-0.019,0.194-0.18,1.429-0.17,1.654c0.015,0.238-0.041,0.649,0.041,0.768c0.087,0.118,0.275,0.041,0.323-0.057
			c0.054-0.098,0.233-0.786,0.233-0.786l0.029-0.271l0.245-0.702c0,0,0.333-0.21,0.596-0.703c0.088-0.172,0.132-0.312,0.157-0.422
			c-0.004,0.426-0.104,0.71-0.253,0.908c-0.176,0.244-0.405,0.313-0.405,0.313l-0.167,0.398l0.261-0.002l-0.186,0.125
			c0,0,0.036,0.459,0.035,0.666c-0.002,0.213,0.422,0.631,0.477,0.717c0.06,0.082,0.342,0.307,0.342,0.307l0.01,0.03
			C308.828,263.643,308.764,263.609,308.764,263.609z"/>
		
			<linearGradient id="SVGID_13_" gradientUnits="userSpaceOnUse" x1="1488.3374" y1="306.5938" x2="1489.189" y2="306.5938" gradientTransform="matrix(0.998 0.0629 -0.0629 0.998 -1157.5242 -137.1323)">
			<stop  offset="0.1224" style="stop-color:#FCA4B5"/>
			<stop  offset="0.9896" style="stop-color:#FFADB7"/>
		</linearGradient>
		<path fill="url(#SVGID_13_)" d="M309.079,263.137l0.11,0.221c0,0,0.006,0.012-0.009,0.047c-0.087-0.124-0.163-0.236-0.191-0.249
			c-0.069-0.028-0.341-0.703-0.341-0.703l-0.044-0.814l0.247-0.056l-0.146,0.15l0.112,0.671l0.298,0.636l0.242,0.199
			C309.251,263.308,309.128,263.188,309.079,263.137z"/>
		<path fill="#754554" d="M317.082,235.66c0.004-0.035-0.3-1.957-0.701-2.372c-0.402-0.415-0.632-0.523-1.334-0.598
			s-1.602-0.217-1.975-0.34c-0.372-0.124-0.571-0.112-0.571-0.112s-0.34,0.711-0.394,1.092c0.158-1.088,0.413-2.024,1.344-2.745
			c0.93-0.721,1.768-1.476,4.186-0.776c2.418,0.7,2.035,3.766,1.93,4.428c-0.105,0.663-0.564,1.458-0.588,1.858
			c-0.022,0.401-0.166,0.735-0.166,0.735s0.483-1.852,0.08-1.906s-0.735,0.465-0.735,0.465l-0.616,1.055L317.082,235.66z"/>
		
			<linearGradient id="SVGID_14_" gradientUnits="userSpaceOnUse" x1="1495.7739" y1="279.7051" x2="1497.2085" y2="279.7051" gradientTransform="matrix(0.998 0.0629 -0.0629 0.998 -1157.5242 -137.1323)">
			<stop  offset="0.1224" style="stop-color:#FEB9B8"/>
			<stop  offset="1" style="stop-color:#FFDEDE"/>
		</linearGradient>
		<path fill="url(#SVGID_14_)" d="M317.788,235.545c0,0,0.487-0.589,1.059-0.529s0.208,1.119-0.17,1.614
			c-0.377,0.495-0.739,0.641-0.739,0.641S317.448,236.223,317.788,235.545z"/>
		<g>
			<g>
				<path fill="#C4C8D8" d="M318.637,234.996l1.187,1.115c0.107,0.093,0.104,0.301-0.01,0.464l-2.667,3.88
					c-0.107,0.155-0.285,0.214-0.395,0.13l-1.422-1.089c-0.114-0.088-0.118-0.291-0.01-0.452l2.693-4.003
					c0.103-0.151,0.263-0.214,0.376-0.154C318.403,234.893,318.626,234.986,318.637,234.996z"/>
				<path fill="#EFF0F5" d="M318.682,235.024l1.398,1.201c0.107,0.093,0.103,0.301-0.01,0.463l-2.667,3.88
					c-0.108,0.156-0.286,0.215-0.396,0.131l-1.421-1.09c-0.114-0.088-0.119-0.291-0.01-0.451l2.693-4.004
					C318.384,234.986,318.57,234.928,318.682,235.024z"/>
				<path fill="#54585F" d="M320.018,236.664l-0.755,1.088l-1.896,2.771c-0.091,0.13-0.239,0.179-0.331,0.108l-1.396-1.071
					c-0.096-0.074-0.099-0.243-0.008-0.378l1.912-2.852l0.764-1.123c0.095-0.141,0.25-0.189,0.344-0.109l1.374,1.179
					C320.117,236.354,320.113,236.528,320.018,236.664z"/>
				<path fill="#54585F" d="M320.018,236.664l-0.755,1.088l-1.719-1.422l0.764-1.123c0.095-0.141,0.25-0.189,0.344-0.109
					l1.374,1.179C320.117,236.354,320.113,236.528,320.018,236.664z"/>
				<path fill="#838383" d="M318.423,235.573c0.052,0.044,0.131,0.024,0.176-0.042c0.046-0.066,0.041-0.156-0.01-0.201
					c-0.053-0.044-0.131-0.025-0.177,0.042S318.372,235.529,318.423,235.573z"/>
				<path fill="#B6B3F6" d="M318.44,235.549c0.042,0.034,0.104,0.02,0.141-0.033c0.036-0.054,0.032-0.125-0.009-0.16
					c-0.041-0.036-0.104-0.021-0.141,0.033C318.395,235.441,318.399,235.514,318.44,235.549z"/>
				<path fill="#D9D8FA" d="M318.549,235.368c-0.029-0.024-0.073-0.014-0.098,0.022c-0.025,0.037-0.022,0.088,0.006,0.111
					c0.028,0.025,0.072,0.015,0.098-0.022S318.578,235.393,318.549,235.368z"/>
				
					<ellipse transform="matrix(0.5665 -0.824 0.824 0.5665 -55.9467 364.5147)" fill="#AFACF5" cx="318.503" cy="235.436" rx="0.038" ry="0.032"/>
				<path fill="#FFE56F" d="M318.342,235.701c-0.028-0.023-0.073-0.014-0.099,0.023c-0.024,0.037-0.022,0.088,0.007,0.112
					c0.028,0.024,0.073,0.014,0.099-0.023S318.372,235.727,318.342,235.701z"/>
				<path fill="#C4C8D8" d="M318.582,236.848c-0.093-0.08-0.236-0.046-0.318,0.075c-0.082,0.12-0.073,0.283,0.021,0.362
					s0.236,0.045,0.318-0.076C318.684,237.089,318.675,236.927,318.582,236.848z"/>
			</g>
		</g>
		
			<linearGradient id="SVGID_15_" gradientUnits="userSpaceOnUse" x1="1491.0405" y1="294.3604" x2="1499.9633" y2="284.3037" gradientTransform="matrix(0.998 0.0629 -0.0629 0.998 -1157.5242 -137.1323)">
			<stop  offset="0.1224" style="stop-color:#FEB9B8"/>
			<stop  offset="1" style="stop-color:#FFDEDE"/>
		</linearGradient>
		<path fill="url(#SVGID_15_)" d="M319.47,250.957c0,0-0.939-2.666-1.135-3.714s-0.755-3.963-0.652-4.481
			c0.103-0.52,1.022-2.396,1.047-2.627c0.023-0.23-0.351-1.706-0.351-1.706l-0.134-0.174l-0.541-1.727c0,0-0.346-0.068-0.298,0.233
			c0.049,0.303,0.106,0.437,0.106,0.437s-1.057-0.399-1.139-0.384s-0.245,0.271,0.128,0.463s0.81,0.462,0.884,0.525
			c0.073,0.064,0.196,1.489,0.196,1.489s-0.792-1.319-0.841-1.388c-0.049-0.07-0.701-0.355-0.886-0.358
			c-0.184-0.003-0.317,0.047-0.318,0.208c-0.001,0.16,0.87,0.572,0.87,0.572s0.492,1.119,0.431,1.249s-0.203-0.206-0.203-0.206
			l-0.784-0.78l-0.739,0.011c0,0-0.161,0.079-0.11,0.205c0.051,0.125,0.177,0.227,0.177,0.227l0.473,0.09
			c0,0,0.356,0.808,0.383,1.012c0.026,0.203-0.042,0.781-0.203,1.166c-0.16,0.384-0.138,1.005-0.043,1.247
			c0.095,0.243,0.202,0.446,0.171,0.668s-0.638,8.126,0.711,10.418c1.419,0.39,2.714-1.257,2.714-1.257
			S319.62,251.391,319.47,250.957z"/>
		
			<linearGradient id="SVGID_16_" gradientUnits="userSpaceOnUse" x1="1495.645" y1="280.9854" x2="1496.2554" y2="280.9854" gradientTransform="matrix(0.998 0.0629 -0.0629 0.998 -1157.5242 -137.1323)">
			<stop  offset="0.1224" style="stop-color:#FCA4B5"/>
			<stop  offset="0.9896" style="stop-color:#FFADB7"/>
		</linearGradient>
		<path fill="url(#SVGID_16_)" d="M317.513,237.198c0,0,0.466,0.382,0.524,0.482c0.06,0.101-0.199-0.346-0.199-0.346l-0.364-0.259
			L317.513,237.198z"/>
	</g>
</g>
</svg>
