<?xml version="1.0" encoding="utf-8"?>
<!-- Generator: Adobe Illustrator 16.0.0, SVG Export Plug-In . SVG Version: 6.00 Build 0)  -->
<!DOCTYPE svg PUBLIC "-//W3C//DTD SVG 1.1//EN" "http://www.w3.org/Graphics/SVG/1.1/DTD/svg11.dtd">
<svg version="1.1" id="Layer_1" xmlns="http://www.w3.org/2000/svg" xmlns:xlink="http://www.w3.org/1999/xlink" x="0px" y="0px"
	 width="463.683px" height="425.749px" viewBox="0 0 463.683 425.749" enable-background="new 0 0 463.683 425.749"
	 xml:space="preserve">
<g>
	<g>
		<path fill="#FEBFBF" d="M197.767,205.564c0,0,1.286,0.244,1.615,2.127c0.329,1.883,0.857,8.588,0.425,9.517
			s-1.761-0.673-2.227-4.862C197.114,208.157,195.311,206.124,197.767,205.564z"/>
		<path fill="#FEBFBF" d="M200.942,226.044c0,0-0.072,0.439,0.016,0.751c0.088,0.311,0.48,1.516,0.48,1.516
			s-0.022,0.437-0.002,0.652c0.026,0.216-0.29,1.105-0.141,1.308c0.014,0.023,0.027,0.035,0.047,0.053h0.006
			c0.11,0.073,0.239-0.053,0.292-0.106l-0.116,0.231c0,0-0.006,0.013,0.009,0.049c0.008,0.03,0.03,0.085,0.079,0.169
			c0.049,0.091,0.137,0.104,0.211,0.093c0.08-0.012,0.146-0.047,0.146-0.047s-0.014,0.082,0.004,0.168l0.001,0.006
			c0.017,0.079,0.065,0.157,0.167,0.182c0.063,0.015,0.154-0.015,0.256-0.065c0.229-0.113,0.507-0.336,0.548-0.37
			c0,0.013-0.008,0.063-0.005,0.118c-0.005,0.119,0.023,0.272,0.198,0.279c0.274,0.008,1.037-1.288,1.037-1.288
			s-0.083-1.522-0.112-1.776c-0.022-0.246-0.996-1.31-1.324-2.084c-0.334-0.773-1.922-7.922-2.395-9.408
			c-0.473-1.492-0.875-1.068-0.875-1.068c-0.317-0.012-1.473,1.16-1.318,2.635C198.306,219.508,200.942,226.044,200.942,226.044z"/>
		<path fill="#485455" d="M196.152,205.311c0,0,2.142-0.589,3.124,1.268c0.982,1.855,0.816,8.219,0.928,9.014
			c0.429,0.982,2.467,9.013,2.445,9.486s-1.57,0.885-1.928,0.885c-0.357,0-3.147-8.602-3.359-9.771
			C197.151,215.021,196.152,205.311,196.152,205.311z"/>
		
			<linearGradient id="SVGID_1_" gradientUnits="userSpaceOnUse" x1="4000.9468" y1="114.6665" x2="4003.0259" y2="114.6665" gradientTransform="matrix(-0.998 0.0629 0.0629 0.998 4189.5249 -137.1323)">
			<stop  offset="0.1224" style="stop-color:#FCA4B5"/>
			<stop  offset="0.9896" style="stop-color:#FFADB7"/>
		</linearGradient>
		<path fill="url(#SVGID_1_)" d="M201.969,230.712c0,0-0.014,0.082,0.004,0.168c0.037-0.201,0.433-0.524,0.433-0.524
			s0.382-0.546,0.382-0.646c-0.006-0.099,0.008-0.565,0.008-0.565l0.091-0.13l0.07,0.623l0.131,0.401l-0.254,0.494l-0.437,0.469
			c0.229-0.113,0.507-0.336,0.548-0.37c0,0.013-0.008,0.063-0.005,0.118c0,0,0.271-0.427,0.353-0.414
			c0.082,0.021,0.359-0.027,0.359-0.027l0.112-0.486c0,0,0.024-1.38-0.019-1.471c-0.036-0.078-0.228-0.557-0.279-0.678
			c0.019,0.203,0.188,1.497,0.178,1.733c-0.015,0.25,0.043,0.681-0.042,0.805c-0.092,0.124-0.289,0.043-0.339-0.06
			c-0.056-0.102-0.245-0.823-0.245-0.823l-0.03-0.284l-0.257-0.734c0,0-0.349-0.221-0.624-0.737
			c-0.092-0.181-0.139-0.327-0.165-0.443c0.003,0.447,0.109,0.745,0.265,0.952c0.184,0.256,0.424,0.327,0.424,0.327l0.175,0.418
			l-0.273-0.002l0.195,0.131c0,0-0.038,0.481-0.037,0.698c0.002,0.223-0.442,0.661-0.499,0.752c-0.063,0.085-0.358,0.32-0.358,0.32
			l-0.011,0.032C201.903,230.747,201.969,230.712,201.969,230.712z"/>
		
			<linearGradient id="SVGID_2_" gradientUnits="userSpaceOnUse" x1="4002.5796" y1="115.1128" x2="4003.4722" y2="115.1128" gradientTransform="matrix(-0.998 0.0629 0.0629 0.998 4189.5249 -137.1323)">
			<stop  offset="0.1224" style="stop-color:#FCA4B5"/>
			<stop  offset="0.9896" style="stop-color:#FFADB7"/>
		</linearGradient>
		<path fill="url(#SVGID_2_)" d="M201.64,230.217l-0.116,0.231c0,0-0.006,0.013,0.009,0.049c0.091-0.13,0.171-0.247,0.201-0.261
			c0.073-0.029,0.357-0.736,0.357-0.736l0.045-0.854l-0.258-0.058l0.153,0.157l-0.117,0.703l-0.312,0.666l-0.254,0.209
			C201.458,230.396,201.587,230.271,201.64,230.217z"/>
	</g>
	<g>
		<path fill="#BDD6F2" d="M200.958,262.028c-4.021,2.559-10.729,2.836-14.981,0.619s-4.441-6.088-0.42-8.646
			c4.021-2.559,10.728-2.836,14.981-0.619C204.791,255.599,204.979,259.47,200.958,262.028z"/>
		<g>
			<path fill="#FEBFBF" d="M194.397,252.312c0,0-1.057,0.93-0.897,1.481c0.16,0.553,2.321,3.948,3.439,4.33
				c2.326,0.795,1.759-1.318,1.371-1.751c-0.342-0.382-1.702-1.427-1.697-2.429C196.621,252.594,194.397,252.312,194.397,252.312z"
				/>
			<path fill="#8E8E8E" d="M194.674,255.495c0,0-0.388,0.136-0.39,0.433s-0.028,1.414-0.028,1.414s-0.26,0.143-0.407,0.075
				s-0.357-0.415-0.357-0.415s-0.227-2.195-0.343-2.641C193.033,253.917,194.674,255.495,194.674,255.495z"/>
			<path fill="#3F4A4B" d="M193.384,252.955c0,0,1.572,1.842,2.199,3.063c0.627,1.22,1.298,1.706,1.792,1.68
				c0.786-0.04,1.29-0.529,1.112-0.928c-0.177-0.397-0.177-0.397-0.177-0.397s2.037,2.085,1.792,3.412
				c-0.245,1.329-3.782-0.454-4.326-1.134c-0.208-0.26-0.64-2.172-1.106-2.711c-0.466-0.54-1.178-0.297-1.487-1.408
				C192.876,253.42,193.384,252.955,193.384,252.955z"/>
			<path fill="#8E8E8E" d="M194.569,255.677c0.467,0.54,1.088,2.544,1.295,2.804c0.506,0.633,3.617,2.182,4.24,1.281
				c-0.001,0.008,0,0.016-0.002,0.022c-0.245,1.329-3.782-0.454-4.326-1.134c-0.208-0.26-0.64-2.172-1.106-2.711
				c-0.406-0.471-1.215-0.308-1.429-1.229C193.573,254.933,194.231,255.285,194.569,255.677z"/>
			<path fill="#4F5997" d="M193.281,241.393c0,0.002,0,0.002,0,0.004c0.023,0.094,0.051,0.184,0.081,0.266
				c0.095,0.267,0.265,0.477,0.485,0.637c0,0,0,0,0,0.002c1.074,0.797,3.299,0.406,3.516-0.403c0.591-2.208,0.293-7.782,0.73-10.695
				c0.44-2.911-0.776-7.875-0.776-7.875s-4.261,1.55-5.194,2.223c-0.554,0.399-0.267,3.192,0.124,5.67
				c0.267,1.702,0.584,3.255,0.712,3.785C193.258,236.238,192.842,239.691,193.281,241.393z"/>
			<path fill="#2A3637" d="M193.738,253.211c0.026,0.211,0.18,0.398,0.416,0.53c0.512,0.288,1.41,0.313,2.254-0.29
				c0,0,0.745-13.75,1.562-17.957c-1.581-0.322-3.856,4.303-4.539,4.272c-0.332-0.015-0.498,0.121-0.447,0.519
				c0,0.003,0,0.003,0,0.005c0.158,1.223-0.555,4.874-0.324,6.293C192.892,248.005,193.655,252.545,193.738,253.211z"/>
			<path fill="#A8B0C2" d="M193.738,253.211c0.026,0.211,0.18,0.398,0.416,0.53c-0.17-1.7-0.443-3.841-0.789-5.388
				c-0.501-2.249,0.151-5.492,0.186-7.159c0-0.002,0-0.002,0-0.002c0.006-0.298-0.009-0.581-0.059-0.846
				c-0.032-0.174-0.052-0.369-0.061-0.58c-0.099-1.897,0.57-5.055,0.382-6.212c-0.07-0.433-0.204-1.594-0.063-2.258
				c0.275-1.311,0.992-2.185,0.992-2.185c-1.129,0.123-2.047,0.474-2.792,1.001c0.267,1.701,0.583,3.255,0.711,3.784
				c0.299,1.233-0.117,4.688,0.322,6.388c0,0.003,0,0.003,0,0.005c0.158,1.223-0.555,4.874-0.324,6.293
				C192.892,248.005,193.655,252.545,193.738,253.211z"/>
			<g>
				<path fill="#8E8E8E" d="M189.918,256.667c0,0-0.571-0.157-0.561,0.139c0.012,0.297,0.132,2.144,0.132,2.144
					s-0.129,0.131-0.278,0.07c-0.15-0.061-0.376-0.399-0.376-0.399s-0.269-1.802-0.27-2.261
					C188.564,255.813,189.918,256.667,189.918,256.667z"/>
				<path fill="#FEBFBF" d="M189.708,254.067c0,0-0.833,0.703-0.798,1.585c0.034,0.868,1.198,4.365,2.315,4.747
					c1.118,0.381,2.213-0.362,2.11-0.864c-0.104-0.502-1.121-2.039-1.417-3.27C191.601,254.953,189.708,254.067,189.708,254.067z"/>
				<path fill="#3F4A4B" d="M191.912,255.754c0,0,0.87,1.553,1.257,2.614c0.843,2.315,0.826,3.336,0.667,3.896
					c-0.167,0.583-1.853,0.1-3.063-0.849c-1.387-1.087-0.821-2.437-1.685-3.771c-0.28-0.433-0.538-0.747-0.554-1.794
					c-0.03-0.887,0.748-1.273,0.748-1.273s-0.576,0.914-0.244,1.658c0.167,0.376,0.112,0.541,0.361,1.009
					c0.497,0.932,0.595,1.851,1.295,2.519c0.657,0.626,2.554,0.192,2.495-0.184c-0.109-0.696-0.746-1.861-1.002-2.511
					C191.879,256.293,191.912,255.754,191.912,255.754z"/>
				<path fill="#8E8E8E" d="M189.141,257.542c0.863,1.335,0.258,2.599,1.646,3.685c1.12,0.878,2.745,1.38,3.073,0.949
					c-0.009,0.03-0.017,0.059-0.025,0.088c-0.167,0.583-1.853,0.1-3.063-0.849c-1.387-1.087-0.821-2.437-1.685-3.771
					c-0.183-0.282-0.459-0.562-0.499-1.124C188.747,256.818,189.005,257.332,189.141,257.542z"/>
			</g>
			<path fill="#4F5997" d="M196.326,228.844c0,0,0.168,1.748-0.403,2.9s-1.647,1.979-1.647,1.979s-1.486,7.252-2.977,10.181
				c-0.669,1.313-3.052,1.037-3.343-1.238c-0.292-2.273-0.392-4.297-1.473-9.275c-0.263-1.213-0.409-3.403,1.153-5.838
				C189.199,225.117,196.326,228.844,196.326,228.844z"/>
			<path fill="#2A3637" d="M193.121,244.307c0,0,0.528,0.164,0.091,1.056c-0.436,0.893-2.14,6.916-1.646,9.964
				c-0.966,0.964-2.108,0.73-2.468-0.223c-0.36-0.953-0.972-7.541-0.595-8.893c0.377-1.353,1.357-2.117,1.243-3.115
				S193.121,244.307,193.121,244.307z"/>
			<g>
				<g>
					<path fill="#3F4A4B" d="M186.087,231.124c0.016,0.248,0.02,0.719,0.008,1.344c0.291-0.134,0.593-0.292,0.899-0.483
						c4.73-2.852,11.458-11.604,11.814-12.633c0.01-0.038,0.016-0.058,0.016-0.058c0.167-1.386,0.308-1.28,0.939-3.587
						c0.625-2.313,0.236-4.453-0.438-6.959c-0.674-2.511-1.382-3.135-2.686-3.416c-1.31-0.273-9.728,1.052-10.843,2.256
						c-1.109,1.203-1.138,2.363-1.138,2.363s0.278,1.486,0.601,3.063c0.148,0.742,0.311,1.496,0.452,2.131
						c0.079,0.332,0.148,0.627,0.214,0.871c0.45,1.691,0.595,5.114,0.771,7.3c-0.051,0.201-0.107,0.421-0.149,0.666
						C186.122,226.104,185.961,229.623,186.087,231.124z"/>
					<path fill="#DDE0E7" d="M196.82,209.495c0,0-0.31,0.747-2.703,0.117c-2.393-0.631-3.296-2.222-3.296-2.222
						s-3.422-0.363-3.612-0.321c-0.189,0.043,1.986-1.111,1.986-1.111L196.82,209.495z"/>
					<path fill="#3F4A4B" d="M185.266,252.199c0,0,0.115,0.311,0.367,0.671c0.231,0.329,0.58,0.709,1.063,0.913
						c1.074,0.678,4.653-1.237,7.083-1.107c2.672,0.143,3.942-0.313,4.673-1.353c-0.144-6.124,1.002-17.134,0.386-23.165
						c-0.625-6.184-0.144-8.404-0.029-8.807c0.01-0.038,0.016-0.058,0.016-0.058s-7.143,1.252-10.465,2.702
						c-0.979,0.438-1.626,0.879-1.662,1.32c-0.023,0.238-0.073,0.451-0.149,0.666c-0.537,1.581-2.106,3.361,0.186,14.59
						C187.287,241.275,185.477,247.455,185.266,252.199z"/>
					<path fill="#DDE0E7" d="M185.633,252.87c0.789-4.271,2.46-11.308,2.508-12.775c0.069-2.348-0.679-6.16-0.761-8.53
						c-0.012-0.37-0.237-6.346-0.237-6.346s0.588-1.585,1.217-3.223c0.406-1.038,0.823-2.102,1.117-2.789
						c0.768-1.774-0.419-1.406-1.146-3.443c-0.721-2.043-0.576-4.103-0.576-4.103s-0.803,1.515-2.042,3.484
						c0.079,0.332,0.148,0.627,0.214,0.871c0.45,1.691,0.595,5.114,0.771,7.3c-0.051,0.201-0.107,0.421-0.149,0.666
						c-0.537,1.581-2.106,3.361,0.186,14.59c0.552,2.703-1.258,8.883-1.469,13.627C185.266,252.199,185.381,252.51,185.633,252.87z"
						/>
					<path fill="#DDE8F6" d="M185.406,208.07c0,0,0.954-1,2.154-1.041s3.396,0.176,4.016,0.199c0.62,0.024-2.653-5.027-2.653-5.027
						s-2.004,2.016-2.482,2.613C185.963,205.412,185.27,207.575,185.406,208.07z"/>
					<path fill="#DDE8F6" d="M189.349,198.325c0,0,0.557-3.162,3.304-3.747c2.804-0.503,4.39,1.494,4.679,1.991
						s0.738,1.896,0.619,2.744c-0.118,0.85-1.131,6.326-2.365,6.369s-2.237-0.048-3.307-0.668c-1.07-0.62-3.036-2.095-3.356-2.813
						C188.59,201.277,189.349,198.325,189.349,198.325z"/>
					<path fill="#DDE8F6" d="M196.565,203.984c0,0,0.953,2.44,1.038,2.77c0.085,0.33,0.27,1.014,0.083,1.322
						c-0.187,0.309-0.378,1.492-1.428,1.637c-1.05,0.143-2.677-0.527-3.691-1.275c-1.014-0.749-2.104-1.703-2.652-2.626
						s-2.184-2.393-2.184-2.393l1.139-1.27C188.87,202.149,194.011,205.781,196.565,203.984z"/>
					<path fill="#FEC7C7" d="M197.769,198.123c0,0-0.271-0.833-0.89-0.627c-0.618,0.207-2.119,1.551-2.618,3.039
						c-0.499,1.487-0.592,2.267-0.569,3.45c0.023,1.185,1.065,1.621,1.253,1.706c0.187,0.085,1.058,0.147,1.439-0.091
						c0.381-0.237,1.301-2.884,1.456-3.486S197.932,198.446,197.769,198.123z"/>
					<g>
						
							<linearGradient id="SVGID_3_" gradientUnits="userSpaceOnUse" x1="4335.9429" y1="61.9419" x2="4334.8657" y2="62.4407" gradientTransform="matrix(-0.998 0.0628 0.0628 0.998 4520.2163 -131.999)">
							<stop  offset="0.1224" style="stop-color:#FEC7C7"/>
							<stop  offset="0.9896" style="stop-color:#FFDBDB"/>
						</linearGradient>
						<path fill="url(#SVGID_3_)" d="M196.97,200.995c0.081,0.459,0.56,1.425,0.661,1.792s-1.243,0.325-1.243,0.325L196.97,200.995z
							"/>
						
							<linearGradient id="SVGID_4_" gradientUnits="userSpaceOnUse" x1="4335.0073" y1="62.5083" x2="4336.314" y2="61.7539" gradientTransform="matrix(-0.998 0.0628 0.0628 0.998 4520.2163 -131.999)">
							<stop  offset="0.188" style="stop-color:#FFDCDC"/>
							<stop  offset="0.8991" style="stop-color:#FEC7C7"/>
						</linearGradient>
						<path fill="url(#SVGID_4_)" d="M196.767,203.157c0.324-0.014,0.751-0.063,0.876-0.222c0.037-0.047,0.048-0.103,0.033-0.161
							c-0.042-0.153-0.148-0.41-0.262-0.681c-0.165-0.395-0.351-0.841-0.397-1.106l-0.094,0.016
							c0.048,0.276,0.237,0.728,0.403,1.126c0.112,0.269,0.218,0.522,0.258,0.67c0.008,0.029,0.003,0.053-0.015,0.077
							c-0.143,0.18-0.899,0.197-1.18,0.189l-0.003,0.095C196.426,203.162,196.58,203.165,196.767,203.157z"/>
					</g>
					<circle fill="#FFFFFF" cx="195.198" cy="201.148" r="0.267"/>
					
						<ellipse transform="matrix(-0.9559 -0.2937 0.2937 -0.9559 327.1085 450.4995)" fill="#FFFFFF" cx="197.373" cy="200.694" rx="0.241" ry="0.317"/>
					<g>
						<path fill="#754554" d="M194.553,200.558c0.72-0.31,1.674-0.106,1.684-0.104l0.035-0.155
							c-0.041-0.009-1.014-0.218-1.782,0.114L194.553,200.558z"/>
					</g>
					<g>
						<path fill="#754554" d="M197.087,200.226c0.443-0.342,0.838-0.385,0.842-0.386l-0.016-0.158
							c-0.017,0.002-0.441,0.046-0.924,0.418L197.087,200.226z"/>
					</g>
					<g>
						<path fill="#FB7F9E" d="M195.82,204.369c0.329-0.014,1.008-0.07,1.27-0.289l-0.103-0.122c-0.249,0.208-1.056,0.255-1.35,0.256
							l0,0.159C195.648,204.373,195.717,204.373,195.82,204.369z"/>
					</g>
					<polygon fill="#C6D6ED" points="187.976,204.082 188.286,203.788 189.722,205.072 190.348,206.012 188.605,205.297 
						188.33,204.489 186.629,205.068 187.25,204.282 					"/>
					<path fill="#CDDDF5" d="M186.383,206.35c0,0,0.833-0.506,1.497-0.554c0.664-0.049,2.583,0.763,2.583,0.763l0.016,0.253
						l-2.185-0.67L186.383,206.35z"/>
					<path fill="#C6D6ED" d="M195.212,208.765c0,0,1.292,0.046,1.612-1.413c0.321-1.458,0.159-1.539,0.159-1.539
						s0.915,1.408-0.098,3.053C196.379,209.293,195.504,209.038,195.212,208.765z"/>
					<path fill="#CDDDF5" d="M190.463,205.722c0,0,2,2.838,4.792,3.719c0.435,0.075-0.042-0.319-0.628-0.63
						C194.04,208.499,192.55,207.974,190.463,205.722z"/>
					<path fill="#CDDDF5" d="M192.596,206.231c0,0,0.915,1.015,1.832,1.259c0.917,0.243,2.199,0.282,1.836-1.152
						C195.624,207.252,193.804,207.212,192.596,206.231z"/>
					<path fill="#CDDDF5" d="M190.057,203.775c0,0-0.17,0.578,2.571,2.97C191.938,205.821,190.654,204.504,190.057,203.775z"/>
				</g>
				<g>
					<path fill="#485455" d="M182.415,220.365c0,0,0.929-8.185,1.478-9.835c0.549-1.649,0.736-2.228,2.266-2.496
						c1.53-0.269,2.584,1.47,2.303,3.824c-0.282,2.354-4.127,12.072-4.413,12.451S182.849,223.448,182.415,220.365z"/>
					<path fill="#485455" d="M182.343,221.418c0,0-0.183-0.727,0.451-1.299c0.634-0.573,2.761-1.426,2.895-0.836
						c0.134,0.591,0.271,10.723,0.292,11.064c0.021,0.343-0.949,0.764-1.896,0.721s-1.271-0.264-1.361-0.602
						C182.634,230.129,182.343,221.418,182.343,221.418z"/>
					<path fill="#FEBFBF" d="M185.777,230.249c0,0,0.218,0.459,0.288,0.893s0.142,1.563,0.204,1.731s0.208,0.434,0.089,0.596
						s-0.454,0.157-0.662-0.285c-0.208-0.442-0.347-1.559-0.347-1.559s-0.279,0.609-0.287,0.766
						c-0.007,0.154,0.056,1.027,0.151,1.176s0.387,0.009,0.483,0.029c0.096,0.02,0.17,0.109,0.17,0.109s0.279,0.068,0.241,0.415
						c-0.135,0.18-0.654,0.213-0.931,0.204c-0.276-0.008-0.687-0.24-0.687-0.24l-0.408-0.077l-0.294-0.437l-0.229-0.227
						c0,0-0.244-0.182-0.309-0.272c-0.066-0.091-0.534-1.513-0.547-1.727c-0.014-0.214,0.067-1.112,0.067-1.112L185.777,230.249z"/>
					<polygon fill="#FEBFBF" points="184.011,232.707 184.454,234.078 184.331,234.055 					"/>
					<polygon fill="#FEBFBF" points="183.44,232.53 183.787,233.57 183.668,233.453 					"/>
				</g>
			</g>
		</g>
	</g>
</g>
</svg>
