<?xml version="1.0" encoding="utf-8"?>
<!-- Generator: Adobe Illustrator 16.0.0, SVG Export Plug-In . SVG Version: 6.00 Build 0)  -->
<!DOCTYPE svg PUBLIC "-//W3C//DTD SVG 1.1//EN" "http://www.w3.org/Graphics/SVG/1.1/DTD/svg11.dtd">
<svg version="1.1" id="Layer_1" xmlns="http://www.w3.org/2000/svg" xmlns:xlink="http://www.w3.org/1999/xlink" x="0px" y="0px"
	 width="463.683px" height="425.749px" viewBox="0 0 463.683 425.749" enable-background="new 0 0 463.683 425.749"
	 xml:space="preserve">
<g>
	<g>
		<path fill="#D7E4F2" d="M255.532,274.795c-4.385-2.79-11.699-3.093-16.337-0.675c-4.639,2.417-4.844,6.639-0.459,9.429
			c4.386,2.79,11.7,3.093,16.338,0.676C259.711,281.807,259.917,277.585,255.532,274.795z"/>
		<path fill="#626170" d="M237.79,278.756c0,0-0.283,0.448-0.326,0.809c-0.042,0.361-0.114,0.969-0.114,0.969s0.517,0.523,1.57,0.57
			s1.557-0.461,1.804-0.765c0.248-0.303,0.497-0.62,0.497-0.62l0.19-0.638c0,0,0.597-0.811,0.84-0.916
			c0.244-0.106,0.779-0.236,1.098-0.487c0.318-0.252,1.03-0.745,1.404-1.222c0.375-0.476,0.514-0.998,0.531-1.15
			c0.019-0.152,0.107-0.633-0.401-0.784S237.79,278.756,237.79,278.756z"/>
		<path fill="#626170" d="M247.862,280.231c0,0-0.548,0.07-0.611,0.448s-0.077,0.819-0.114,0.969s0.383,0.835,1.401,0.858
			c1.018,0.023,2.333-0.515,2.333-0.515l0.396-0.257c0,0,0.702-0.403,1.286-0.296c0.585,0.107,1.132,0.037,2.115-0.136
			c0.983-0.174,1.928-0.832,2.213-1.126s0.519-0.479,0.661-0.712c0.144-0.233,0.037-1.132,0.037-1.132l-0.4-0.574L247.862,280.231z"
			/>
		<path fill="#E9F0F9" d="M236.781,222.073c0,0-1.455,0.219-2.02,0.47c-0.563,0.251-1.822,1.244-2.281,2.938
			c-0.46,1.693,0.602,4.725,1.273,10.826c0.089,0.813,0.985,3.302,2.159,6.579c0.333,0.93,2.231,0.841,2.59,0.575
			c0.358-0.267-0.464-14.689-0.464-14.689L236.781,222.073z"/>
		<path fill="#A8B0C2" d="M233.897,228.937l1.371,5.361l1.055,4.168l0.667,3.122l0.185,2.03l1.328-0.157
			c0,0-0.575-8.851-0.557-9.002C237.963,234.307,233.897,228.937,233.897,228.937z"/>
		<path fill="#504F60" d="M240.569,275.116c0,0,1.948-0.85,2.282-0.906s1.024-0.188,1.614,0.036s0.647,0.712,0.632,0.845
			s-0.21,0.804-0.848,1.307c-0.637,0.502-1.877,1.223-2.164,1.535c-0.287,0.313-1.758,2.008-2.104,2.16
			c-0.346,0.151-1.736,0.026-2.09-0.246c-0.353-0.273-0.337-0.406-0.337-0.406s-0.031-2.025,0.052-2.401
			C237.69,276.664,240.569,275.116,240.569,275.116z"/>
		<path fill="#4F5997" d="M241.969,276.957c-0.111,0.315-0.438,0.651-0.825,0.922c-0.407,0.286-0.884,0.501-1.255,0.546
			c-0.723,0.089-2.337-0.102-2.364-0.529c-0.027-0.426-0.33-12.557,0.444-15.854c0.773-3.299,0.633-5.049,0.656-7.202
			c0.022-2.155-0.972-5.161-1.226-8.233c-0.254-3.073,0.434-5.925,0.434-5.925l6.971,0.287c0,0,0.733,7.025,0.875,9.969
			c0.026,0.518,0.033,0.909,0.015,1.113c-0.122,1.373-2.102,8.689-3.006,13.743C241.785,270.849,242.2,276.309,241.969,276.957z"/>
		<g>
			<path fill="#8C92B0" d="M241.198,277.758c-0.003-0.033-0.063-0.841,0.033-3.937c0.065-2.138,0.464-4.793,0.756-6.732
				c0.135-0.902,0.241-1.614,0.279-2.035c0.089-1.002,0.594-2.867,1.294-5.449c0.237-0.875,0.494-1.825,0.763-2.842
				c1.016-3.852,0.211-5.457,0.203-5.473l0.219-0.115c0.035,0.066,0.862,1.69-0.184,5.652c-0.268,1.016-0.525,1.967-0.763,2.843
				c-0.696,2.569-1.199,4.425-1.286,5.406c-0.038,0.429-0.146,1.144-0.281,2.049c-0.29,1.933-0.688,4.581-0.754,6.704
				c-0.095,3.074-0.033,3.901-0.033,3.909L241.198,277.758z"/>
		</g>
		<path fill="#A8B0C2" d="M241.969,276.957c-0.111,0.315-0.438,0.651-0.825,0.922c-0.182-3.278,0.823-9.972,0.836-11.629
			c0.012-1.811,2.171-9.277,2.171-9.277s0.097-2.04-0.233-2.917s-1.784-2.758-1.784-2.758l0.057-0.479l2.832-1.235
			c0,0,0.298,0.492,0.657,1.353c0.026,0.518,0.033,0.909,0.015,1.113c-0.122,1.373-2.102,8.689-3.006,13.743
			C241.785,270.849,242.2,276.309,241.969,276.957z"/>
		<path fill="#504F60" d="M251.449,276.765c0,0,3.501,0.354,4.103,0.482c0.601,0.129,0.972-0.077,1.449,0.287
			c0.477,0.364,0.25,1.474,0.229,1.645c-0.02,0.171-1.018,1.119-1.549,1.217c-0.532,0.098-4.283,0.715-4.283,0.715
			s-2.598,0.638-2.939,0.598c-0.342-0.041-1.01-0.428-0.979-0.848c0.029-0.42,0.255-2.165,0.255-2.165L251.449,276.765z"/>
		<path fill="#4F5997" d="M241.357,242.449c0,0-2.033,7.425,1.124,9.068c1.714,0.818,2.654,1.768,3.342,4.429
			c0.688,2.662,1.774,6.536,1.605,7.595c-0.17,1.059-0.47,4.913-0.037,9.085c0.433,4.173,0.165,6.439,0.312,6.829
			s3.057,1.194,4.071-0.227c0.794-1.177,0.78-11.193,1.174-14.536c0.395-3.344,0.032-12.361-0.553-15.896s-2.374-6.794-2.276-8.088
			C250.216,239.415,241.357,242.449,241.357,242.449z"/>
		<g>
			<path fill="#8C92B0" d="M251.193,279.797l-0.248-0.003c0.01-0.904,0.814-12.918,1.172-17.276c0.378-4.6,0.038-10.37-0.406-14.235
				c-0.486-4.23-1.873-5.727-1.887-5.74l0.178-0.172c0.06,0.063,1.457,1.557,1.955,5.883c0.445,3.879,0.786,9.667,0.406,14.285
				C252.005,266.894,251.202,278.895,251.193,279.797z"/>
		</g>
		<g>
			<path fill="#8C92B0" d="M247.161,254.248l-0.061-0.024c-0.256-0.106-2.507-1.041-2.785-1.313
				c-0.198-0.193-1.709-4.584-1.533-4.908c0.063-0.117,0.215-0.123,1.013-0.135c1.199-0.019,3.432-0.052,5.513-0.705l0.143-0.045
				l0.018,0.148c0.019,0.162,0.454,3.966,0.382,4.58c-0.074,0.633-2.207,2.081-2.634,2.365L247.161,254.248z M243,248.147
				c0.033,0.484,1.27,4.354,1.488,4.588c0.18,0.174,1.691,0.838,2.646,1.234c0.954-0.641,2.424-1.758,2.47-2.151
				c0.062-0.521-0.284-3.654-0.365-4.376c-2.073,0.622-4.255,0.655-5.439,0.674C243.45,248.12,243.119,248.126,243,248.147z
				 M242.963,248.156L242.963,248.156L242.963,248.156z"/>
		</g>
		<g>
			<path fill="#8C92B0" d="M239.072,251.671l-0.339-0.04c-0.123-0.015-0.2-0.076-0.205-0.165c0-0.004,0-0.006,0-0.01l-0.936-0.986
				l-0.003-0.045l-0.391-5.379l0.232,0.229c0.008,0.007,0.759,0.734,1.427,0.996l0.069,0.028l0.009,0.073
				c0.133,1.121,0.56,4.139,0.925,4.637l0.111,0.15l-0.184,0.043c-0.533,0.123-0.793,0.205-0.919,0.255L239.072,251.671z
				 M237.833,250.363l0.856,0.903c0.142-0.07,0.404-0.154,0.885-0.268c-0.418-0.903-0.81-3.996-0.875-4.525
				c-0.463-0.2-0.936-0.575-1.208-0.812L237.833,250.363z"/>
		</g>
		<path fill="#A76478" d="M250.199,241.448c0,0-0.713,1.391-3.694,1.936c-2.982,0.543-7.015-1.377-8.772-2.22
			c-0.189,1.162-0.189,1.162-0.189,1.162s0.874,1.288,3.581,2.099c2.707,0.81,5.479,0.963,7.396,0.063
			c1.918-0.9,2.134-1.55,2.104-1.635S250.199,241.448,250.199,241.448z"/>
		<path fill="#4F5997" d="M248.599,242.575l-0.626,0.213c0,0,0.42,1.34,0.393,1.769c-0.028,0.429-0.028,0.429-0.028,0.429
			l0.709-0.301l-0.015-0.452C249.032,244.232,248.841,242.782,248.599,242.575z"/>
		<path fill="#4F5997" d="M241.332,242.556c0,0-0.495,0.872-0.528,1.157c-0.034,0.284-0.126,1.063-0.126,1.063l-0.515-0.206
			c0,0,0.115-0.81,0.116-0.989c0.002-0.18,0.608-1.207,0.608-1.207L241.332,242.556z"/>
		<path fill="#FEC7C7" d="M256.134,227.078c0,0-1.236-2.212-1.279-2.366s-0.312-0.279-0.312-0.279l-0.465-0.09
			c0,0-0.56,0.022-0.644,0.08c-0.084,0.056-0.256,0.11-0.256,0.11s-0.408-0.151-0.593,0.046c-0.185,0.198-0.574,0.4-0.574,0.4
			s-0.77,0.274-0.739,0.572c0.029,0.298,0.357,1.545,0.997,1.713s1.992,1.029,1.992,1.029L256.134,227.078z"/>
		<path fill="#504F60" d="M256.314,227.13c0,0-0.311-0.485-0.431-0.502c-0.119-0.016-0.713-0.357-1.138-0.309
			c-0.426,0.049-1.09,0.187-1.293,0.399c-0.202,0.214-0.718,0.728-0.782,1.049c-0.065,0.322,0.191,1.03,0.191,1.03
			s0.927-1.359,1.122-1.362c0.194-0.003,1.013-0.086,1.197-0.308C255.367,226.907,256.314,227.13,256.314,227.13z"/>
		<path fill="#504F60" d="M255.367,226.819c0.05,0.27-0.336,0.539-0.863,0.604c-0.527,0.063-0.996-0.104-1.047-0.373
			c-0.05-0.27,0.337-0.539,0.864-0.603C254.847,226.384,255.316,226.551,255.367,226.819z"/>
		<path fill="#504F60" d="M255.308,226.511c0.051,0.27-0.336,0.539-0.863,0.603s-0.995-0.104-1.046-0.372
			c-0.05-0.27,0.337-0.539,0.863-0.604C254.79,226.075,255.258,226.241,255.308,226.511z"/>
		<path fill="#EFF0F5" d="M255.125,226.533c0.041,0.218-0.271,0.435-0.697,0.486s-0.804-0.083-0.845-0.301
			c-0.04-0.218,0.271-0.436,0.697-0.486C254.707,226.181,255.084,226.315,255.125,226.533z"/>
		<path fill="#DDE8F6" d="M250.687,228.479c0,0,0.179-2.983-0.266-3.383c-0.444-0.398-4.313-1.403-4.825-1.955
			s-1.513-1.623-1.513-1.623l-5.3-0.624c0,0-1.134,0.791-1.46,0.867c-0.327,0.078-2.749,0.774-3.486,1.641
			c-0.738,0.867-0.602,4.609,0.094,6.309c0.695,1.7,2.749,5.842,2.964,6.474c0.214,0.633,0.214,3.088,0.723,4.159
			c0.51,1.07,2.761,2.318,5.553,2.647s6.349,0.055,6.855-1.792c0.313-1.437,0.149-2.986,0.149-2.986s0.281-4.59,0.192-6.044
			C250.28,230.713,250.687,228.479,250.687,228.479z"/>
		<path fill="#FEC7C7" d="M239.103,220.565c0,0,0.624-1.294,0.681-2.02c0.057-0.725-0.421-2.226-0.421-2.226
			s1.557-4.468,4.213-4.703c2.657-0.235,3.926-1.28,4.066-0.186s0.156,2.599,0.096,3.112c-0.061,0.513-0.283,1.257-0.316,1.542
			s-0.32,2.062-0.652,3.081c-0.332,1.021-0.611,1.431-0.611,1.431l-1.323,0.113c0,0-0.31,1.193-0.372,1.362
			S239.103,220.565,239.103,220.565z"/>
		<path fill="#754554" d="M246.055,216.545c0,0,0.424-0.802-0.188-1.162c-0.611-0.361-1.263,0.255-1.521,0.494
			c-0.26,0.239-0.438,1.586-0.832,1.828c-0.395,0.243-1.675,0.65-1.675,0.65s-1.743-0.011-2.082-0.36
			c-0.338-0.349-1.161-2.025-1.254-2.71s-0.814-4.526,2.083-5.744c1.748-1.759,4.194-0.95,4.949-0.649
			c0.754,0.301,2.584,1.769,2.47,2.41c-0.114,0.641-0.259,1.359-0.259,1.359l-0.213,1.666c0,0-0.528,0.555-0.551,0.744
			c-0.021,0.189-0.431,1.532-0.431,1.532L246.055,216.545z"/>
		
			<linearGradient id="SVGID_1_" gradientUnits="userSpaceOnUse" x1="249.5815" y1="219.4043" x2="251.1522" y2="217.7391" gradientTransform="matrix(1 0.0016 -0.0016 1 -4.6188 -2.4534)">
			<stop  offset="0.1224" style="stop-color:#FEB9B8"/>
			<stop  offset="1" style="stop-color:#FFDEDE"/>
		</linearGradient>
		<path fill="url(#SVGID_1_)" d="M245.964,215.866c0,0,0.48-0.888,0.035-0.949c-0.445-0.063-0.755,0.518-0.881,0.936
			c-0.127,0.419-0.142,0.629-0.052,1.006c0.091,0.376,0.107,0.812,0.253,0.877c0.146,0.065,0.362-0.208,0.39-0.445
			C245.738,217.053,245.964,215.866,245.964,215.866z"/>
		<path fill="#E9F0F9" d="M240.018,220.1c0,0-0.556-0.065-0.642-0.19c-0.086-0.126-0.086-0.126-0.086-0.126
			s-0.444,0.092-0.463,0.249c-0.019,0.156-0.484,1.286-0.484,1.286s1.062,0.559,2.524,0.644c1.463,0.086,2.909,0.199,3.037,0.214
			s1.246,0.486,1.246,0.486s-0.017-1.482-0.109-1.552c-0.093-0.068-1.307-0.558-1.307-0.558L240.018,220.1z"/>
		<path fill="#A8B0C2" d="M249.71,241.807c0,0,0.379-4.01,0.252-4.892c-0.127-0.881-0.307-2.059-0.307-2.059l-1.26-1.149
			c0,0-0.508-2.295-0.646-2.804s2.61,0.514,2.61,0.514l0.046,1.737l-0.2,4.541l0.013,1.47l-0.151,1.826
			C250.067,240.991,249.96,241.55,249.71,241.807z"/>
		<path fill="#E9F0F9" d="M250.421,225.096c0,0-1.546-0.409-2.435,2.165c-0.889,2.575-0.218,3.36,1.277,4.391
			s8.392,5.727,9.937,4.341c0.96-1.147,0.834-2.438,0.604-3.107c-0.231-0.668-1.741-1.721-2.117-1.892
			c-0.377-0.17-4.012-3.226-4.963-3.949C251.774,226.32,250.421,225.096,250.421,225.096z"/>
	</g>
	<path fill="#E9F0F9" d="M259.201,235.992c0,0,1.027-0.473,1.087-1.835c0.06-1.361-0.01-1.608-0.56-2.768
		c-0.549-1.158-3.365-4.26-3.365-4.26s-0.774-0.604-1.583-0.279c-0.809,0.326-1.36,0.938-1.329,1.533
		C253.481,228.979,258.14,235.509,259.201,235.992z"/>
</g>
</svg>
