<?xml version="1.0" encoding="utf-8"?>
<!-- Generator: Adobe Illustrator 16.0.0, SVG Export Plug-In . SVG Version: 6.00 Build 0)  -->
<!DOCTYPE svg PUBLIC "-//W3C//DTD SVG 1.1//EN" "http://www.w3.org/Graphics/SVG/1.1/DTD/svg11.dtd">
<svg version="1.1" id="Layer_1" xmlns="http://www.w3.org/2000/svg" xmlns:xlink="http://www.w3.org/1999/xlink" x="0px" y="0px"
	 width="463.683px" height="425.749px" viewBox="0 0 463.683 425.749" enable-background="new 0 0 463.683 425.749"
	 xml:space="preserve">
<g>
	<path fill="#6A3646" d="M163.023,201.387c0,0-0.759-0.559-1.97,0.951c-1.056,1.316,0.405,4.126,0.833,5.515
		c0.429,1.389,0.087,3.735-2.172,3.978c0.44,1.111,4.054,1.336,4.85,0.791C165.359,212.075,166.522,204.402,163.023,201.387z"/>
	<g>
		<path fill="#D7E4F2" d="M173.729,266.958c-4.041,2.571-10.781,2.851-15.055,0.622c-4.274-2.227-4.463-6.117-0.422-8.689
			c4.041-2.571,10.781-2.85,15.056-0.622C177.582,260.496,177.771,264.387,173.729,266.958z"/>
		<g>
			<path fill="#FFA1A3" d="M165.581,256.318c0,0-1.19,1.029-1.016,1.647c0.173,0.62,2.556,4.436,3.801,4.873
				c2.592,0.91,1.979-1.456,1.549-1.944c-0.379-0.429-1.888-1.611-1.873-2.729C168.063,256.656,165.581,256.318,165.581,256.318z"/>
			<path fill="#8E8E8E" d="M165.859,259.88c0,0-0.435,0.147-0.44,0.479s-0.045,1.58-0.045,1.58s-0.292,0.156-0.455,0.08
				s-0.396-0.469-0.396-0.469s-0.232-2.455-0.357-2.953C164.041,258.1,165.859,259.88,165.859,259.88z"/>
			<path fill="#C2D2EA" d="M164.443,257.027c0,0,1.739,2.074,2.428,3.444c0.689,1.37,1.435,1.92,1.986,1.896
				c0.879-0.037,1.447-0.579,1.252-1.025c-0.194-0.447-0.194-0.447-0.194-0.447s2.256,2.35,1.97,3.832
				c-0.286,1.482-4.222-0.545-4.823-1.311c-0.229-0.292-0.694-2.433-1.209-3.04c-0.517-0.607-1.314-0.344-1.648-1.589
				C163.87,257.542,164.443,257.027,164.443,257.027z"/>
			<path fill="#8E8E8E" d="M165.741,260.082c0.516,0.607,1.19,2.854,1.42,3.146c0.56,0.712,4.021,2.473,4.727,1.472
				c-0.001,0.009,0,0.019-0.002,0.026c-0.286,1.482-4.222-0.545-4.823-1.311c-0.229-0.292-0.694-2.433-1.209-3.04
				c-0.45-0.529-1.356-0.354-1.585-1.388C164.634,259.24,165.366,259.641,165.741,260.082z"/>
		</g>
		<g>
			<path fill="#8E8E8E" d="M161.283,258.826c0,0-0.635-0.189-0.629,0.142c0.006,0.332,0.098,2.398,0.098,2.398
				s-0.146,0.143-0.313,0.072c-0.166-0.071-0.411-0.455-0.411-0.455s-0.26-2.019-0.25-2.532
				C159.789,257.842,161.283,258.826,161.283,258.826z"/>
			
				<linearGradient id="SVGID_1_" gradientUnits="userSpaceOnUse" x1="-1018.2725" y1="205.7695" x2="-1013.6069" y2="205.7695" gradientTransform="matrix(0.9991 -0.0431 0.0431 0.9991 1168.75 10.1523)">
				<stop  offset="0.1224" style="stop-color:#FEC7C7"/>
				<stop  offset="0.9694" style="stop-color:#FFADB7"/>
			</linearGradient>
			<path fill="url(#SVGID_1_)" d="M161.107,255.916c0,0-0.947,0.767-0.928,1.754c0.019,0.97,1.239,4.904,2.479,5.356
				c1.24,0.451,2.481-0.354,2.377-0.917c-0.104-0.563-1.206-2.306-1.509-3.686C163.202,256.949,161.107,255.916,161.107,255.916z"/>
			<path fill="#C2D2EA" d="M163.531,257.851c0,0,0.938,1.755,1.345,2.95c0.889,2.606,0.846,3.746,0.656,4.368
				c-0.199,0.647-2.073,0.069-3.404-1.019c-1.525-1.246-0.862-2.741-1.796-4.252c-0.304-0.491-0.584-0.848-0.579-2.018
				c-0.013-0.992,0.865-1.405,0.865-1.405s-0.664,1.007-0.31,1.847c0.178,0.424,0.112,0.606,0.38,1.135
				c0.534,1.053,0.623,2.082,1.39,2.844c0.72,0.715,2.85,0.274,2.792-0.148c-0.106-0.779-0.791-2.096-1.063-2.827
				C163.482,258.453,163.531,257.851,163.531,257.851z"/>
			<path fill="#8E8E8E" d="M160.394,259.786c0.935,1.511,0.229,2.909,1.754,4.155c1.231,1.006,3.037,1.604,3.413,1.13
				c-0.01,0.033-0.021,0.066-0.03,0.098c-0.199,0.647-2.073,0.069-3.404-1.019c-1.525-1.246-0.862-2.741-1.796-4.252
				c-0.198-0.32-0.5-0.639-0.532-1.269C159.97,258.968,160.247,259.548,160.394,259.786z"/>
		</g>
		<g>
			<g>
				<path fill="#4F5997" d="M165.663,234.83c0.226,1.486,1.174,8.587,1.26,9.981c0.03,0.464,0.146,0.938,0.313,1.376
					c0.098,0.256,0.212,0.5,0.336,0.718c0.298,0.527,0.647,0.914,0.938,1.021c0.574,0.206,2.29,0.341,3.16-1.295
					c0.072-0.136,0.14-0.284,0.198-0.445c0.39-8.015-0.718-17.556-0.718-17.556s-3.898,0.3-4.521,0.57
					c-0.468,0.204-0.908,2.461-1,4.193C165.6,233.958,165.607,234.466,165.663,234.83z"/>
				<path fill="#4F5997" d="M165.029,257.446c0.074,0.117,0.158,0.228,0.255,0.325c0.781,0.819,2.205,0.99,2.903,0.258
					c0.179-1.837,3.483-11.398,3.483-11.398l-4.065-1.036l-0.058-0.015c0,0-0.125,0.229-0.311,0.607
					c-0.511,1.036-1.482,3.205-1.576,4.918C165.53,253.438,165.055,256.664,165.029,257.446z"/>
				<path fill="#A8B0C2" d="M165.029,257.446c0.074,0.117,0.158,0.228,0.255,0.325c0.22-0.774,0.454-3.07,0.628-5.186
					c0.327-3.981,1.444-4.925,1.659-5.681c0.076-0.261,0.079-0.687,0.033-1.311c-0.089-1.18-0.36-3.069-0.665-5.894
					c-0.469-4.318-0.065-4.685-0.065-4.685s-0.642-1.222-1.246-1.623c-0.029,0.564-0.021,1.072,0.034,1.437
					c0.226,1.486,1.174,8.587,1.26,9.981c0.03,0.464,0.146,0.938,0.313,1.376c-0.511,1.036-1.482,3.205-1.576,4.918
					C165.53,253.438,165.055,256.664,165.029,257.446z"/>
				<path fill="#FEBFBF" d="M170.352,211.438c0,0,1.149-0.116,1.626,1.188c0.478,1.303,0.805,8.873,0.972,9.671
					c0.167,0.797-1.338,2.542-2.386,0.733C169.516,221.221,170.352,211.438,170.352,211.438z"/>
				<path fill="#4F5997" d="M167.97,231.949c0,0,0.181,0.762-0.573,2.059c-0.753,1.297-1.057,2.405-1.057,2.405
					s-1.967,9.382-2.569,10.118c-0.602,0.735-2.335,0.806-3.131-1.167c-0.795-1.972-1.381-8.666-1.647-11.784
					s0.297-4.239,1.41-5.313S167.97,231.949,167.97,231.949z"/>
				<path fill="#4F5997" d="M163.771,246.531c0,0-1.604,7.348-0.666,10.476c0,0-1.856,1.434-2.736-0.089
					c-0.395-2.117-1.745-6.242-1.174-8.066c0.57-1.823,1.155-4.443,1.155-4.443L163.771,246.531z"/>
				<g>
					<path fill="#8C92B0" d="M160.641,257.395l0.233-0.044c-0.01-0.051-0.952-5.032-1.074-6.247
						c-0.121-1.195,0.573-5.086,0.941-5.676l0.013-0.029c0.273-0.93-0.414-6.377-0.767-8.498c-0.384-2.296,0.343-4.659,0.351-4.683
						l-0.227-0.071c-0.007,0.024-0.751,2.441-0.359,4.793c0.41,2.457,1.001,7.537,0.777,8.378c-0.393,0.673-1.093,4.559-0.967,5.81
						C159.687,252.353,160.602,257.189,160.641,257.395z"/>
				</g>
				<path fill="#DDE8F6" d="M159.389,224.299c0.774,3.285,0.854,3.939,0.604,4.532c-0.231,0.56-0.876,0.888-0.644,1.664
					c0.208,0.228,0.447,0.435,0.704,0.615c2.099,1.534,5.677,1.788,7.938,1.128c2.544-0.742,3.317-2.093,3.317-2.093
					c0.021-4.246-0.12-4.866,0.496-7.182c0.528-1.979,1.03-2.192,0.662-3.769c-0.362-1.569-0.604-2.006-0.702-3.518
					c-0.098-1.518-0.381-3.947-0.812-4.146c-0.437-0.198-5.228-2.037-6.5-1.599s-1.966,0.961-2.579,1.281
					c-0.606,0.32-3.092,2.269-3.092,2.269s-0.899,1.389-1.032,3.344c-0.036,0.506,0.006,1.035,0.107,1.594
					C158.124,220.013,158.817,221.869,159.389,224.299z"/>
				<path fill="#ECF1F8" d="M159.994,228.831c-0.231,0.56-0.876,0.888-0.644,1.664c0.208,0.228,0.447,0.435,0.704,0.615
					c0.377-1.486,1.156-3.284,1.14-4.102c-0.016-1.253-1.034-3.951-1.196-5.345c-0.169-1.398,0.808-3.659,0.808-3.659
					s-1.065-0.978-2.716,0.181c-0.087,0.062-0.16,0.135-0.232,0.234c0.267,1.593,0.96,3.449,1.532,5.879
					C160.164,227.584,160.243,228.238,159.994,228.831z"/>
				<path fill="#AF727B" d="M173.167,236.74l-1.337,1.718c-0.269,0.346-0.805,0.301-1.01-0.086c-0.5-0.946-1.294-2.505-1.654-3.531
					c-0.546-1.561-0.42-2.396-0.42-2.396l3.378-3.887c0,0,1.427,3.338,1.481,4.268C173.659,233.756,173.69,235.998,173.167,236.74z"
					/>
				<path fill="#CFD4DD" d="M168.749,232.541c0,0,0.921,0.67,1.1,1.421c0.179,0.752,0.824,1.803,1.017,1.954
					c0.193,0.151,1.155-0.777,1.155-0.777s0.028,0.401,0.17,0.604s0.289,1.927,0.417,1.716c0.128-0.212,0.427-0.811,0.427-0.811
					l-0.324-3.065L168.749,232.541z"/>
				<path fill="#B9848C" d="M168.745,232.444c0,0,0.99,0.722,1.589,2.112c0.6,1.39,0.91,1.177,1.279,0.941
					c0.369-0.236,1.855-1.868,2.001-2.449c0.146-0.58-0.949-4.289-0.949-4.289l-0.607-0.094
					C172.058,228.666,170.873,229.896,168.745,232.444z"/>
				<path fill="#E9EBEF" d="M172.073,235.086c0,0,0.153-1.842,0.15-2.142s-1.7-2.594-1.7-2.594l1.332-1.478l0.754,3.311
					c0,0,0.158,1.337,0.142,1.677C172.736,234.2,172.368,234.821,172.073,235.086z"/>
				<path fill="#FEBFBF" d="M159.388,213.851c0,0,1.498,0.772,1.075,2.599c-0.422,1.826-1.849,3.147-2.596,3.984
					c-0.747,0.838-3.52,4.095-5.257,4.391c-1.737,0.296-2.315-0.807-1.956-1.535c0.36-0.729,4.367-5.15,6.06-7.26
					C158.408,213.919,158.774,213.601,159.388,213.851z"/>
				<path fill="#FEBFBF" d="M153.708,223.432c0,0,0.046-0.056,0.756,1.067c0.71,1.124,3.547,6.087,4.119,6.342
					c0.292-0.116,0.913-0.136,0.987-0.178s0.361-0.72,0.388-0.879c0.028-0.159-0.138-0.688-0.093-0.926s0.341,0.208,0.401,0.462
					s0.002,1.316,0.057,1.346c0.055,0.028,2.358,0.243,2.721,0.232c0.363-0.01,1.707,0.439,1.707,0.439s0.287,0.4-0.234,0.387
					c-0.521-0.012-1.675-0.117-1.713-0.113s-1.309,0.027-1.309,0.027s1.757,0.681,1.91,0.783c0.153,0.102,1.266,0.703,1.324,0.893
					s-0.128,0.402-0.453,0.279s-1.376-0.641-1.415-0.637s-1.206-0.243-1.206-0.243l0.148,0.311c0,0,1.977,1.19,2.133,1.318
					c0.156,0.127-0.185,0.485-0.35,0.398s-2.476-1.245-2.476-1.245l0.285,0.387c0,0,1.282,0.729,1.321,0.738
					c0.04,0.009,0.115,0.366-0.35,0.263s-1.435-0.577-2.05-0.879s-1.47-0.347-2.219-0.823c-0.75-0.477-1.089-0.949-1.317-1.537
					c-0.491-0.619-6.445-6.067-6.203-7.612C150.821,222.488,153.708,223.432,153.708,223.432z"/>
				<path fill="#FEBFBF" d="M172.298,234.472c0.031-0.049,0.533-0.837,0.576-1.157c0.046-0.329-0.137-1.688-0.173-2.113
					c-0.035-0.426-0.708-2.658-0.758-3.659c-0.047-1.001,0.013-2.969,0.013-2.969l0.486-0.478c0,0-0.752-0.248-0.833-1.294
					c-0.016-0.2-0.087-0.208-0.196-0.089c-0.284,0.463-0.399,1.176-0.392,2.114c0.013,1.853,1.461,7.475,1.583,7.998
					C172.708,233.278,172.438,233.946,172.298,234.472z"/>
				<path fill="#E6F1FF" d="M155.751,217.649c0,0,1.12,0.801,1.698,1.216c0.578,0.414,1.135,0.787,1.135,0.787L158.266,220
					c0,0,0.547,0.2,0.858,0.186c0.31-0.014,1.777-2.309,1.833-2.436s0.388-2.343-0.952-3.957c-0.609-0.545-1.014-0.436-1.226-0.31
					c-0.212,0.125-3.378,3.959-3.378,3.959L155.751,217.649z"/>
				<path fill="#FEBFBF" d="M172.24,234.717c-0.102,0.546,0.237,0.979,0.237,0.979l0.195,1.938c0,0,0.148,0.437,0.381,0.342
					c0.232-0.092,0.194-0.469,0.194-0.469s0.506-0.484,0.591-0.51c0.083-0.025,0.654-0.378,0.635-0.567
					c-0.019-0.187-0.187-1.695-0.404-2.817c-0.216-1.121-0.104-3.263-0.177-6.581c-0.074-3.317-0.636-4.093-0.775-4.424
					c-0.139-0.333-0.361-0.519-0.361-0.519c-0.636-0.038-1.069,0.176-1.343,0.623c-0.284,0.463-0.399,1.176-0.392,2.114
					c0.013,1.853,1.461,7.475,1.583,7.998c0.104,0.453-0.166,1.121-0.307,1.646c-0.001,0.002-0.001,0.002-0.001,0.002
					C172.273,234.559,172.252,234.641,172.24,234.717z"/>
				<path fill="#FEBFBF" d="M173.625,235.682c0,0-0.095,0.542-0.025,0.651c0.069,0.11,0.3,0.275,0.3,0.275s-0.156,0.016-0.28,0.061
					c-0.125,0.045-0.169,0.648-0.169,0.648s-0.031-0.635-0.013-0.851C173.455,236.25,173.5,235.85,173.625,235.682z"/>
			</g>
			<g>
				<path fill="#FEBFBF" d="M163.553,210.109c-0.134,0.006-0.479,0.516-1.073,0.809c-0.594,0.294-0.612,0.373,0.104,1.029
					s3.26,3.582,4.88,3.238c1.62-0.345,1.54-1.922,1.476-2.552s-1.026-2.066-1.338-2.204
					C167.289,210.293,163.553,210.109,163.553,210.109z"/>
				
					<linearGradient id="SVGID_2_" gradientUnits="userSpaceOnUse" x1="3873.064" y1="19.7383" x2="3870.0107" y2="17.0442" gradientTransform="matrix(-0.995 0.1 0.1 0.995 4014.9136 -195.8364)">
					<stop  offset="0.1224" style="stop-color:#FEC7C7"/>
					<stop  offset="0.9694" style="stop-color:#FFADB7"/>
				</linearGradient>
				<path fill="url(#SVGID_2_)" d="M168.014,209.882c0,0-0.284,0.665-0.223,1.27c0.061,0.604,0.396,1.61,0.396,1.61
					s-0.371,0.713-1.848,0.549c-1.478-0.163-1.529-0.678-1.998-0.942s-1.673-1.479-1.597-1.564c0.076-0.085,1.3-0.695,0.83-2.45
					s-1.164-2.664-1.164-2.664s-0.41-0.737,0.103-0.789C163.025,204.85,168.014,209.882,168.014,209.882z"/>
				
					<linearGradient id="SVGID_3_" gradientUnits="userSpaceOnUse" x1="3868.1401" y1="19.5522" x2="3871.4917" y2="19.5522" gradientTransform="matrix(-0.995 0.1 0.1 0.995 4014.9136 -195.8364)">
					<stop  offset="0.1224" style="stop-color:#FCA4B5"/>
					<stop  offset="0.9896" style="stop-color:#FFADB7"/>
				</linearGradient>
				<path fill="url(#SVGID_3_)" d="M164.561,209.042c0,0,1.26,1.177,1.526,1.773s1.491,1.409,1.491,1.409l0.206-1.323l0.23-1.02
					L164.561,209.042z"/>
				<path fill="#FEC7C7" d="M168.363,201.715c0,0,0.536,0.427,0.887,1.327c0.35,0.9,0.596,1.668,0.573,1.825
					c-0.023,0.159-0.158,0.497,0.049,1.139c0.208,0.642-0.444,3.851-1.14,4.168c-0.696,0.316-3.909-0.764-4.267-1.222
					c-0.358-0.458-1.272-2.313-1.384-3.563c-0.113-1.249-0.48-2.706,1.328-3.459C166.217,201.177,168.363,201.715,168.363,201.715z"
					/>
				<g>
					
						<linearGradient id="SVGID_4_" gradientUnits="userSpaceOnUse" x1="3867.1265" y1="15.6265" x2="3866.3057" y2="15.7015" gradientTransform="matrix(-0.995 0.1 0.1 0.995 4014.9136 -195.8364)">
						<stop  offset="0.1224" style="stop-color:#FEC7C7"/>
						<stop  offset="0.9896" style="stop-color:#FFDBDB"/>
					</linearGradient>
					<path fill="url(#SVGID_4_)" d="M168.779,205.211c-0.068,0.354,0.848,1.799,0.889,2.121c0.041,0.323-0.866,0.301-0.866,0.301
						L168.779,205.211z"/>
					
						<linearGradient id="SVGID_5_" gradientUnits="userSpaceOnUse" x1="3866.1909" y1="15.6606" x2="3867.1382" y2="15.6606" gradientTransform="matrix(-0.995 0.1 0.1 0.995 4014.9136 -195.8364)">
						<stop  offset="0.188" style="stop-color:#FFDCDC"/>
						<stop  offset="0.8991" style="stop-color:#FEC7C7"/>
					</linearGradient>
					<path fill="url(#SVGID_5_)" d="M168.976,207.679c0.214-0.009,0.558-0.047,0.687-0.189c0.042-0.048,0.06-0.103,0.053-0.163
						c-0.019-0.143-0.183-0.464-0.374-0.837c-0.246-0.48-0.553-1.078-0.516-1.269l-0.095-0.02c-0.042,0.224,0.246,0.787,0.524,1.332
						c0.18,0.35,0.349,0.68,0.364,0.806c0.004,0.032-0.004,0.06-0.028,0.086c-0.13,0.144-0.615,0.164-0.789,0.161l-0.002,0.096
						C168.82,207.682,168.887,207.683,168.976,207.679z"/>
				</g>
				<g>
					<path fill="#754554" d="M166.259,205.33c1.09-0.312,1.887-0.185,1.895-0.184l0.026-0.157c-0.034-0.006-0.84-0.134-1.964,0.187
						L166.259,205.33z"/>
				</g>
				<g>
					<path fill="#754554" d="M169.05,205.004c0.223-0.154,0.595-0.359,0.715-0.333l0.033-0.156c-0.233-0.048-0.74,0.289-0.838,0.358
						L169.05,205.004z"/>
				</g>
				
					<ellipse transform="matrix(-0.96 0.2801 -0.2801 -0.96 385.314 356.8687)" fill="#FFFFFF" cx="167.158" cy="205.965" rx="0.336" ry="0.287"/>
				
					<ellipse transform="matrix(-0.7004 -0.7138 0.7138 -0.7004 141.0836 470.3346)" fill="#FFFFFF" cx="169.264" cy="205.554" rx="0.236" ry="0.272"/>
				<path fill="#FB7F9E" d="M167.773,208.775c0,0,0.923-0.319,1.294-0.37c0.372-0.05,0.397,0.077,0.371,0.203
					C169.412,208.734,168.835,209.65,167.773,208.775z"/>
				<path fill="#754554" d="M162.623,205.869c0,0,0.293-0.38,0.514-0.252c0.221,0.127,0.634,0.301,0.652,0.474
					c0.017,0.174,0.177,1.112,0.177,1.112s0.397-0.695,0.328-1.39c-0.069-0.694,0.145-1.665,0.426-2.096
					c0.281-0.431,0.565-1.096,1.23-1.202c0.665-0.106,1.587,0.022,2.129-0.019c0.541-0.041,0.762-0.234,0.762-0.234l0.489,0.984
					c0,0-0.03-0.492-0.332-1.042c-0.302-0.549-2.503-3.056-5.588-1.317c-2.267,1.098-2.118,3.616-1.766,4.529
					s1.419,1.723,1.528,2.003s0.403,0.674,0.403,0.934s-0.128-0.975-0.348-1.498S162.623,205.869,162.623,205.869z"/>
				
					<linearGradient id="SVGID_6_" gradientUnits="userSpaceOnUse" x1="3871.9302" y1="15.4478" x2="3873.4712" y2="15.4478" gradientTransform="matrix(-0.995 0.1 0.1 0.995 4014.9136 -195.8364)">
					<stop  offset="0.1224" style="stop-color:#FEB9B8"/>
					<stop  offset="1" style="stop-color:#FFDEDE"/>
				</linearGradient>
				<path fill="url(#SVGID_6_)" d="M163.449,206.073c0,0-0.795-0.797-1.083-0.171c-0.288,0.627,0.348,1.336,0.76,1.678
					c0.411,0.342,0.712,0.436,0.83,0.248s-0.191-0.871-0.191-0.871L163.449,206.073z"/>
				<circle fill="#EFF0F5" cx="163.784" cy="207.803" r="0.161"/>
				
					<linearGradient id="SVGID_7_" gradientUnits="userSpaceOnUse" x1="3872.1792" y1="15.3438" x2="3873.2476" y2="15.3438" gradientTransform="matrix(-0.995 0.1 0.1 0.995 4014.9136 -195.8364)">
					<stop  offset="0.1224" style="stop-color:#FCA4B5"/>
					<stop  offset="0.9896" style="stop-color:#FFADB7"/>
				</linearGradient>
				<path fill="url(#SVGID_7_)" d="M163.333,206.085c0,0-0.507-0.456-0.718-0.104c-0.212,0.353-0.033,0.972,0.503,1.489
					c0.516,0.188,0.591-0.033,0.585-0.098c-0.007-0.064-0.204-0.351-0.229-0.604C163.448,206.515,163.333,206.085,163.333,206.085z"
					/>
			</g>
		</g>
	</g>
	<path fill="#DDE8F6" d="M160.028,233.177c-0.009-0.058-0.068-0.239-0.163-0.511c0.006,0.141,0.037,0.261,0.086,0.367
		C159.987,233.114,160.014,233.158,160.028,233.177z"/>
</g>
</svg>
