<?xml version="1.0" encoding="utf-8"?>
<!-- Generator: Adobe Illustrator 16.0.0, SVG Export Plug-In . SVG Version: 6.00 Build 0)  -->
<!DOCTYPE svg PUBLIC "-//W3C//DTD SVG 1.1//EN" "http://www.w3.org/Graphics/SVG/1.1/DTD/svg11.dtd">
<svg version="1.1" id="Layer_1" xmlns="http://www.w3.org/2000/svg" xmlns:xlink="http://www.w3.org/1999/xlink" x="0px" y="0px"
	 width="463.683px" height="425.749px" viewBox="0 0 463.683 425.749" enable-background="new 0 0 463.683 425.749"
	 xml:space="preserve">
<g>
	<path fill="#BDD6F2" d="M368.768,294.313c4.324-2.752,11.539-3.05,16.113-0.666c4.574,2.385,4.776,6.548,0.452,9.3
		c-4.325,2.753-11.539,3.051-16.114,0.667C364.645,301.229,364.443,297.064,368.768,294.313z"/>
	<g>
		<path fill="#FEBFBF" d="M379.292,256.353c0.303,1.922,3.344,11.132,3.709,12.384c0.024,0.081,0.036,0.123,0.036,0.123
			s0.303,0.085,0.46-0.023s0.331-1.161,0.331-1.161l0.004,0.49c0.001,0.002,0.001,0.002,0.001,0.004l0.001,0.135
			c0,0.008,0.001,0.018,0.003,0.026c0.001,0.006,0.003,0.012,0.003,0.018c0.019,0.082,0.085,0.241,0.31,0.229
			c0.038-0.002,0.075-0.02,0.11-0.052c0.006-0.004,0.011-0.011,0.017-0.017c0.245-0.244,0.44-1.064,0.488-1.196
			c0.055-0.153,0.066-1.147,0.066-1.147l0.017,0.017c0.045,0.049,0.168,0.177,0.293,0.273l0.001,0.002
			c0.104,0.081,0.212,0.142,0.277,0.118c0.16-0.059-0.033-0.64-0.033-0.64s-0.289-0.979-0.367-1.289
			c-0.08-0.31-0.515-1.443-0.876-2.129c-0.2-0.996-1.303-9.715-1.303-9.715s0.378-9.298-0.707-11.354
			c-1.084-2.057-3.179-1.193-3.179-1.193S378.967,254.308,379.292,256.353z"/>
		<path fill="#E9F0F9" d="M378.687,239.691c0,0,2.925-0.518,3.799,1.747s0.721,6.494,0.721,6.494s-1.892,2.328-4.33,0.078
			C376.437,245.762,378.687,239.691,378.687,239.691z"/>
		<path fill="#FEBFBF" d="M385.14,266.455l-0.293-0.273C384.892,266.23,385.015,266.358,385.14,266.455z"/>
		
			<linearGradient id="SVGID_1_" gradientUnits="userSpaceOnUse" x1="3501.8491" y1="205.2979" x2="3502.853" y2="205.2979" gradientTransform="matrix(-0.9987 0.051 0.051 0.9987 3871.6689 -117.2642)">
			<stop  offset="0.1224" style="stop-color:#FCA4B5"/>
			<stop  offset="0.9896" style="stop-color:#FFADB7"/>
		</linearGradient>
		<path fill="url(#SVGID_1_)" d="M384.66,267.402c0.029,0.164-0.293,0.989-0.384,1.106c0.245-0.244,0.44-1.064,0.488-1.196
			c0.055-0.153,0.066-1.147,0.066-1.147s-0.309-0.801-0.433-0.945s-0.667-0.922-0.667-0.922s0.239,0.738,0.297,0.88
			c0.058,0.143,0.401,0.509,0.488,0.714c0.085,0.206,0.216,0.468,0.216,0.468S384.629,267.237,384.66,267.402z"/>
		
			<linearGradient id="SVGID_2_" gradientUnits="userSpaceOnUse" x1="3502.5854" y1="206.2422" x2="3503.8091" y2="206.2422" gradientTransform="matrix(-0.9987 0.051 0.051 0.9987 3871.6689 -117.2642)">
			<stop  offset="0.1224" style="stop-color:#FCA4B5"/>
			<stop  offset="0.9896" style="stop-color:#FFADB7"/>
		</linearGradient>
		<path fill="url(#SVGID_2_)" d="M383,268.736c0.024,0.081,0.036,0.123,0.036,0.123s0.303,0.085,0.46-0.023s0.331-1.161,0.331-1.161
			l0.004,0.49c0.034-0.245,0.293-1.407,0.293-1.407l-0.073-0.917l-0.169,0.269c0,0-0.034,0.832-0.031,0.882
			c0.002,0.05-0.331,1.407-0.331,1.407S383.433,268.771,383,268.736z"/>
	</g>
	<g>
		<path fill="#626170" d="M385.039,297.695c0,0,0.262,0.133,0.275,0.327s0.021,0.729,0.02,0.854
			c-0.002,0.126-0.332,0.615-1.144,0.804c-0.811,0.189-2.782-0.333-3.447-0.721c-0.664-0.388-1.57-1.375-1.846-1.45
			c-0.217-0.059-0.77,0.021-0.997,0.06c-0.07,0.012-0.14,0.015-0.211,0.009l-0.521-0.044c-0.074-0.007-0.147-0.022-0.217-0.047
			l-1.116-0.396c0,0-0.16-0.82,0.175-1.078C376.344,295.755,385.039,297.695,385.039,297.695z"/>
		<path fill="#504F60" d="M380.443,294.368c0,0,0.965,0.612,1.137,0.784c0.172,0.173,1.916,0.881,2.521,1.25
			c0.604,0.369,1.06,1,1.1,1.207c0.039,0.206,0.132,0.678,0.062,0.876s-0.386,0.724-1.43,0.788c-0.935,0.059-2.735-0.73-3.104-0.896
			c-0.045-0.02-0.085-0.043-0.126-0.071c-0.278-0.189-1.438-0.976-1.629-1.065c-0.217-0.103-2.139-0.588-2.431-0.686
			c-0.292-0.097-0.62-0.133-0.663-0.367s-0.13-1.523,0.024-1.929C376.06,293.854,379.589,293.329,380.443,294.368z"/>
		<path fill="#4F5997" d="M375.887,294.541c0.101,0.319,0.47,0.545,1.709,0.609c0.143,0.007,0.286,0.013,0.429,0.013
			c0.889,0.029,1.708-0.038,2.604-0.431c0.314-0.137,0.525-0.448,0.528-0.79c0.036-3.453,1.487-17.7,1.921-26.556
			c0.274-5.602-0.94-8.446-0.94-8.446l-5.983-0.345l-0.219,14.777l0.002,8.547C375.938,281.92,375.792,294.223,375.887,294.541z"/>
		<g>
			<path fill="#8C92B0" d="M377.584,295.174c0.005-0.099,0.442-9.922,0.596-11.988c0.153-2.071,0.278-13.818,0.28-13.938
				l-0.23-0.002c-0.002,0.118-0.127,11.858-0.28,13.923c-0.153,2.069-0.591,11.896-0.595,11.995L377.584,295.174z"/>
		</g>
		<path fill="#A8B0C2" d="M375.887,294.541c0.065,0.208,0.245,0.377,0.707,0.486c0.632-0.486,0.866-0.668,1.499-1.155l1.05-24.308
			c0,0,1.566-1.701,1.297-2.758c-0.118-0.454-4.374,5.982-4.374,5.982l-0.13,0.584l0.002,8.547
			C375.938,281.92,375.792,294.223,375.887,294.541z"/>
		<path fill="#626170" d="M377.896,300.854c0,0,0.287,0.005,0.354,0.387c0.022,0.125,0.037,0.259,0.046,0.381
			c0.023,0.328-0.134,0.647-0.42,0.809c-0.242,0.137-0.604,0.276-1.121,0.342c-1.197,0.151-2.663-0.292-3.415-0.718
			c-0.751-0.425-1.021-0.771-1.475-1.4s-0.921-0.93-0.921-0.93l-0.191,0.052c0,0-0.67-0.487-1.039-0.826
			c-0.148-0.136-0.245-0.317-0.27-0.518c-0.052-0.424-0.062-1.114,0.064-1.194C369.674,297.133,377.896,300.854,377.896,300.854z"/>
		<path fill="#504F60" d="M374.718,296.799l0.156,0.374c0.046,0.107,0.111,0.204,0.194,0.286c0.441,0.429,1.914,1.865,2.363,2.346
			c0.531,0.567,0.805,1.064,0.828,1.578c0.023,0.515-1.313,0.848-1.513,0.861s-1.088,0.102-2.225-0.322
			c-1.138-0.424-1.607-0.831-2.52-1.824c-0.913-0.993-1.53-1.54-1.811-1.767s-0.688-0.588-0.683-0.882
			c0.004-0.294-0.041-1.119,0.199-1.221c0.217-0.093,3.401-0.357,4.589,0.126C374.494,296.434,374.637,296.605,374.718,296.799z"/>
		<path fill="#4F5997" d="M379.836,261.322c0,0,0.566,2.456,0.794,4.797c0.202,2.09-2.013,2.832-2.013,2.832
			s-1.425,9.98-1.931,12.438c-0.449,2.179-1.7,12.396-1.981,14.634c-0.037,0.295-0.219,0.545-0.487,0.671
			c-0.805,0.376-2.588,1.018-4.066,0.186c-0.262-0.146-0.425-0.425-0.436-0.725c-0.23-6.914,0.92-15.169,0.994-16.244
			c0.003-0.041,0.004-0.074,0.002-0.116c-0.101-2.023-1.18-9.071-1.541-13.82c-0.315-1.867,0.231-4.828,0.231-4.828L379.836,261.322
			z"/>
		<g>
			<path fill="#8C92B0" d="M379.218,267.431c-0.098-0.062-0.209-0.205-0.188-0.542c0.093-1.438-0.131-3.703-0.215-3.887l0.086-0.061
				l0.001-0.003l0.001,0.002l-0.059-0.103l0.066-0.033l0.059,0.036c0.197,0.124,0.366,2.874,0.29,4.062
				c-0.011,0.171,0.02,0.295,0.081,0.334c0.043,0.025,0.109,0.016,0.187-0.027c0.266-0.148,0.658-0.701,0.648-1.611
				c-0.007-0.539-0.127-2.557-0.16-2.766l0.228-0.034c0.038,0.242,0.156,2.282,0.162,2.797c0.011,0.946-0.39,1.604-0.766,1.814
				c-0.079,0.045-0.156,0.068-0.229,0.071C379.341,267.483,379.276,267.467,379.218,267.431z M378.959,263.038l-0.054-0.095
				L378.959,263.038z"/>
		</g>
		<g>
			<path fill="#8C92B0" d="M370.568,297.344l0.23-0.012c-0.276-5.588,0.33-11.515,0.693-15.055c0.141-1.373,0.242-2.365,0.231-2.781
				c-0.022-0.916-0.341-4.027-0.648-7.038c-0.176-1.726-0.343-3.356-0.435-4.399c-0.246-2.776-0.03-4.439-0.027-4.456l-0.229-0.03
				c-0.002,0.017-0.222,1.701,0.025,4.507c0.094,1.045,0.26,2.676,0.437,4.402c0.292,2.866,0.624,6.114,0.646,7.02
				c0.011,0.402-0.09,1.388-0.23,2.753C370.899,285.801,370.291,291.738,370.568,297.344z"/>
		</g>
		<g>
			<path fill="#8C92B0" d="M373.523,267.651c1.321-0.058,2.328-0.41,3.006-1.053c0.879-0.835,0.855-1.847,0.854-1.889l-0.23,0.007
				c0.001,0.01,0.019,0.956-0.786,1.719c-0.842,0.795-2.242,1.117-4.163,0.952l-0.019,0.229
				C372.662,267.657,373.108,267.669,373.523,267.651z"/>
		</g>
		<path fill="#A76478" d="M369.117,263.473c0,0,2.2,0.938,5.655,0.668c3.455-0.271,4.757-0.738,5.899-1.445
			c1.142-0.706,1.832-1.596,1.832-1.596l-0.239-1.329c0,0-0.634,1.112-2.264,1.894c-1.63,0.782-5.163,1.114-6.604,1.188
			s-4.173-0.428-4.173-0.428L369.117,263.473z"/>
		<path fill="#4F5997" d="M376.453,262.63c0,0,0.102,0.379,0.125,0.83c0.022,0.451,0.022,1.282,0.022,1.282l0.521-0.095
			c0,0,0.078-0.804,0.05-1.204c-0.027-0.4-0.159-0.953-0.159-0.953L376.453,262.63z"/>
		<path fill="#4F5997" d="M371.447,262.746c0,0-0.086,0.383-0.09,0.834c-0.004,0.452,0.031,1.282,0.031,1.282l-0.525-0.073
			c0,0-0.111-0.799-0.101-1.2c0.012-0.401,0.119-0.96,0.119-0.96L371.447,262.746z"/>
		<path fill="#4F5997" d="M381.227,260.854c0,0,0.137,0.469,0.164,0.853c0.026,0.385-0.031,1.042-0.031,1.042l0.342-0.437
			c0,0,0.041-0.665,0.026-0.873c-0.015-0.209-0.221-0.816-0.221-0.816L381.227,260.854z"/>
		<g>
			<path fill="#8C92B0" d="M382.925,262.992c0.035-0.002,0.072-0.008,0.109-0.02l-0.072-0.219c-0.272,0.094-0.652-0.615-0.784-0.974
				l-0.216,0.08C382.008,261.985,382.405,263.015,382.925,262.992z"/>
		</g>
		<g>
			<path fill="#CCDEFB" d="M378.599,263.659c-0.143-0.1-0.224-0.263-0.229-0.46l-0.011-0.386c-0.012-0.404,0.303-0.841,0.716-0.993
				l0.969-0.359c0.226-0.083,0.446-0.066,0.607,0.046c0.143,0.099,0.225,0.263,0.229,0.459l0.012,0.386
				c0.012,0.404-0.303,0.841-0.716,0.994l-0.97,0.358c-0.062,0.022-0.123,0.038-0.184,0.046
				C378.865,263.771,378.716,263.74,378.599,263.659z M380.134,261.882l-0.969,0.359c-0.214,0.079-0.396,0.314-0.392,0.504
				l0.011,0.386c0.002,0.064,0.025,0.113,0.07,0.145c0.062,0.043,0.158,0.046,0.262,0.008l0.969-0.358
				c0.214-0.079,0.396-0.315,0.392-0.505l-0.011-0.386c-0.002-0.065-0.025-0.113-0.07-0.144c-0.043-0.03-0.102-0.041-0.167-0.032
				C380.199,261.862,380.167,261.87,380.134,261.882z"/>
		</g>
	</g>
	<path fill="#DDE8F6" d="M367.826,250.596c0.081,0.511,0.157,1.002,0.211,1.447c0.295,2.398,1.316,10.424,1.316,10.424
		c0,0.004,0.022,0.146,1.166,0.247c0.38,0.034,1.016,0.034,1.783,0.008c1.59-0.057,3.748-0.232,5.357-0.488
		c2.387-0.379,4.804-2.282,4.69-2.897c-0.114-0.613-0.325-2.642-0.046-6.47c0.279-3.829,0.253-8.868-0.615-10.786
		c-0.869-1.915-1.395-2.173-3.002-2.389s-5.197-0.667-5.805-0.413c-0.61,0.253-1.644,1.519-2.719,2.161
		c-1.239,0.742-2.505,2.066-2.898,2.829C366.185,246.359,367.462,248.34,367.826,250.596z"/>
	<path fill="#DDE8F6" d="M367.826,250.596c0.081,0.511,0.157,1.002,0.211,1.447c0.295,2.398,1.316,10.424,1.316,10.424
		c0,0.004,0.022,0.146,1.166,0.247c0.38,0.034,1.016,0.034,1.783,0.008c-0.495-1.722-1.091-3.258-0.94-4.095
		c0.181-1.023,0.283-10.195,0.283-10.195L367.826,250.596z"/>
	<path fill="#FEBFBF" d="M369.501,243.928c0,0,2.636,0.45,2.102,4.86s-1.544,9.496-1.718,9.935
		c-0.175,0.438-2.915,1.697-3.196-0.014c-0.281-1.71-0.284-5.49-0.292-7.25c-0.007-1.761,0.616-5.869,1.159-6.707
		C368.049,243.99,368.855,243.669,369.501,243.928z"/>
	
		<linearGradient id="SVGID_3_" gradientUnits="userSpaceOnUse" x1="3709.5933" y1="33.25" x2="3705.7544" y2="30.8264" gradientTransform="matrix(-0.9937 0.1119 0.1119 0.9937 4055.2378 -209.2993)">
		<stop  offset="0.1224" style="stop-color:#FEC7C7"/>
		<stop  offset="0.9694" style="stop-color:#FFADB7"/>
	</linearGradient>
	<path fill="url(#SVGID_3_)" d="M377.947,237.485c0,0,0.105,3.037,0.323,3.619c0.217,0.582-0.956,0.933-2.376,0.891
		s-2.776-1.019-3.337-1.207c-0.561-0.19-0.554-0.479-0.127-1.081c0.426-0.604,0.949-1.337,0.637-3.07
		c-0.313-1.733-0.909-4.177-0.525-4.658c0.384-0.48,3.285,0.001,3.97,1.288C377.195,234.555,377.947,237.485,377.947,237.485z"/>
	<path fill="#FEC7C7" d="M373.384,233.467c0,0,1.194,3.067,1.447,3.662c0.251,0.594,0.938,1.225,1.875,1.607
		c0.935,0.385,2.431,0.652,3.007,0.385c0.576-0.267,0.611-0.404,0.609-0.725c-0.001-0.268,0.254-1.07,0.242-2.174
		c-0.002-0.217-0.015-0.443-0.042-0.68c-0.104-0.934,0.131-2.288,0.035-2.547c-0.098-0.258-0.029-2.337-0.732-3.202
		c-0.704-0.864-2.791-2.499-4.858-2.014c-1.704,0.399-1.674,4.001-1.613,5.257C373.368,233.305,373.384,233.467,373.384,233.467z"/>
	<g>
		
			<linearGradient id="SVGID_4_" gradientUnits="userSpaceOnUse" x1="3702.0894" y1="30.2148" x2="3701.1453" y2="30.429" gradientTransform="matrix(-0.9937 0.1119 0.1119 0.9937 4055.2378 -209.2993)">
			<stop  offset="0.1224" style="stop-color:#FEC7C7"/>
			<stop  offset="0.9896" style="stop-color:#FFDBDB"/>
		</linearGradient>
		<path fill="url(#SVGID_4_)" d="M379.898,233.728c0.122,0.778,0.854,1.589,0.987,2.028c0.134,0.439-1.236,0.479-1.466,0.451
			L379.898,233.728z"/>
		
			<linearGradient id="SVGID_5_" gradientUnits="userSpaceOnUse" x1="3701.0991" y1="30.2207" x2="3702.6675" y2="30.2207" gradientTransform="matrix(-0.9937 0.1119 0.1119 0.9937 4055.2378 -209.2993)">
			<stop  offset="0.188" style="stop-color:#FFDCDC"/>
			<stop  offset="0.8991" style="stop-color:#FEC7C7"/>
		</linearGradient>
		<path fill="url(#SVGID_5_)" d="M379.776,236.256c0.381-0.017,0.935-0.085,1.108-0.293c0.055-0.064,0.07-0.141,0.046-0.221
			c-0.053-0.175-0.192-0.399-0.354-0.659c-0.249-0.397-0.559-0.893-0.632-1.362l-0.092,0.014c0.077,0.489,0.392,0.993,0.644,1.398
			c0.159,0.254,0.296,0.474,0.346,0.637c0.015,0.05,0.006,0.093-0.029,0.134c-0.205,0.245-1.157,0.285-1.388,0.258l-0.011,0.093
			C379.463,236.26,379.602,236.263,379.776,236.256z"/>
	</g>
	<path fill="#AF727B" d="M373.384,233.467c0,0,1.194,3.067,1.447,3.662c0.251,0.594,0.938,1.225,1.875,1.607
		c0.935,0.385,2.431,0.652,3.007,0.385c0.576-0.267,0.611-0.404,0.609-0.725c-0.001-0.268,0.254-1.07,0.242-2.174
		c-0.204-0.002-0.514,0.015-0.877,0.124c-0.489,0.148-2.622,0.95-3.332,0.626c-0.712-0.324-1.273-1.727-1.273-1.727
		s-0.052-1.071-0.152-1.509c-0.093-0.41-1.405-0.666-1.576-0.7C373.368,233.305,373.384,233.467,373.384,233.467z"/>
	<path fill="#FEC7C7" d="M374.492,236.289c0,0,0.254-1.977-0.116-2.694s-1.392-0.686-1.392-0.686l0.441,1.598
		C373.425,234.507,373.313,235.877,374.492,236.289z"/>
	<path fill="#FEC7C7" d="M379.178,237.555c0,0,0.421-0.378,0.803-0.503c0.383-0.126,0.442,0.171,0.379,0.325
		S379.988,238.243,379.178,237.555z"/>
	
		<ellipse transform="matrix(-0.6826 -0.7308 0.7308 -0.6826 465.394 670.5922)" fill="#FFFFFF" cx="378.325" cy="234.229" rx="0.314" ry="0.356"/>
	
		<ellipse transform="matrix(-0.991 -0.1342 0.1342 -0.991 725.6382 516.5219)" fill="#FFFFFF" cx="380.226" cy="233.807" rx="0.189" ry="0.345"/>
	<path fill="#754554" d="M379.33,233.404c0,0-0.053,0.268-0.194,0.274c-0.143,0.008-0.738-0.043-0.738-0.043l-1.075,0.247
		l0.037-0.189l1.071-0.436L379.33,233.404z"/>
	<path fill="#754554" d="M379.938,233.303c-0.021,0.002,0.023,0.207,0.023,0.207l0.62-0.28c0,0,0.043-0.097,0.051-0.136
		c0.007-0.039-0.093-0.18-0.093-0.18L379.938,233.303z"/>
	<path fill="#754554" d="M373.099,236.836l-0.501-0.618l-0.337-0.147l-0.589-1.045c0,0-1.215-2.256-1.122-3.529
		c0.092-1.274,0.783-2.727,2.271-3.019c1.044-1.196,2.942-1.394,4.052-1.265c1.109,0.127,2.495,1.066,3.102,2.262
		c0.606,1.194,0.265,1.206,0.265,1.206s-0.663,0.489-1.536,0.065c-0.874-0.424-1.284-0.782-1.601-0.746
		c-0.316,0.035-0.614,0.827-0.571,1.209c0.043,0.383,0.222,1.373-0.165,1.67c-0.389,0.297-1.146,1.19-1.275,1.391
		c-0.129,0.199-0.008,0.978-0.008,0.978l-0.487-0.198c0,0-0.101-0.986-0.64-1.354c-0.538-0.366-0.874,0.093-0.875,0.379
		c-0.002,0.287,0.232,1.17,0.172,1.379S373.049,236.387,373.099,236.836z"/>
	<path fill="#FEBFBF" d="M369.887,258.584c0,0,0.503-0.318,0.619,0.163c0.116,0.48,0.409,8.319,0.491,8.69
		c0.081,0.371,0.811,1.141,0.988,1.26c0.179,0.119,0.973,0.959,1.097,1.233c0.124,0.275,0.579,1.577,0.731,1.879
		c0.151,0.302,0.732,0.769,0.587,1.122c-0.146,0.352-0.778-0.11-1.067-0.401c-0.29-0.29-0.789-1.419-1.068-1.735
		c-0.021,0.342-0.057,1.467-0.035,1.955c0.017,0.348,0.845,2.07,0.682,2.235c-0.079,0.081-0.306,0.103-0.511-0.082
		c-0.204-0.185-0.847-1.213-0.847-1.213s0.42,1.224,0.425,1.438c0.006,0.214-0.225,0.322-0.5,0.043
		c-0.276-0.279-0.355-0.474-0.355-0.474s-0.316,0.278-0.472,0.078c-0.156-0.201-0.677-0.926-0.729-1.211
		c-0.054-0.285-0.186-0.652-0.186-0.652s-0.267-0.221-0.442-0.71c-0.177-0.489-0.511-1.452-0.549-2.104
		c-0.039-0.652-0.197-2.322-0.441-3.602c-0.243-1.279-1.915-6.476-1.526-7.726C367.664,258.808,369.887,258.584,369.887,258.584z"/>
	
		<linearGradient id="SVGID_6_" gradientUnits="userSpaceOnUse" x1="3341.1626" y1="280.8613" x2="3342.7466" y2="280.8613" gradientTransform="matrix(-1 0.001 0.001 1 3715.2036 -49.2231)">
		<stop  offset="0.1224" style="stop-color:#FEB9B8"/>
		<stop  offset="1" style="stop-color:#FFDEDE"/>
	</linearGradient>
	<path fill="url(#SVGID_6_)" d="M374.036,233.979c0,0-0.352-0.586-1.038-0.359s0.186,1.931,0.236,2.032
		c0.051,0.103,0.201,0.806,0.763,0.737c0.561-0.067,0.225-0.854,0.225-0.854S373.911,234.489,374.036,233.979z"/>
	
		<linearGradient id="SVGID_7_" gradientUnits="userSpaceOnUse" x1="3341.4653" y1="280.5625" x2="3342.5259" y2="280.5625" gradientTransform="matrix(-1 0.001 0.001 1 3715.2036 -49.2231)">
		<stop  offset="0.1224" style="stop-color:#FCA4B5"/>
		<stop  offset="0.9896" style="stop-color:#FFADB7"/>
	</linearGradient>
	<path fill="url(#SVGID_7_)" d="M373.81,233.962c0,0-0.399-0.341-0.737-0.103c-0.337,0.237,0.13,1.48,0.507,1.727
		c0.217,0.017,0.438-0.031,0.438-0.031S373.702,234.264,373.81,233.962z"/>
	<path fill="#E9F0F9" d="M366.287,250.626c0,0,2.641,1.002,5.161,0.556c0.346-1.309,1.269-8.029-2.525-8.213
		c-1.405-0.025-1.61,1.07-1.848,1.747S366.363,248.117,366.287,250.626z"/>
</g>
</svg>
