<?xml version="1.0" encoding="utf-8"?>
<!-- Generator: Adobe Illustrator 16.0.0, SVG Export Plug-In . SVG Version: 6.00 Build 0)  -->
<!DOCTYPE svg PUBLIC "-//W3C//DTD SVG 1.1//EN" "http://www.w3.org/Graphics/SVG/1.1/DTD/svg11.dtd">
<svg version="1.1" id="Layer_1" xmlns="http://www.w3.org/2000/svg" xmlns:xlink="http://www.w3.org/1999/xlink" x="0px" y="0px"
	 width="463.683px" height="425.749px" viewBox="0 0 463.683 425.749" enable-background="new 0 0 463.683 425.749"
	 xml:space="preserve">
<g>
	<path fill="#D7E4F2" d="M136.184,272.914c3.46,1.998,9.087,1.987,12.568-0.022c3.482-2.011,3.5-5.26,0.04-7.257
		c-3.46-1.998-9.087-1.987-12.569,0.022S132.724,270.916,136.184,272.914z"/>
	<path fill="#8E8E8E" d="M141.184,268.73l-0.164,0.18c0,0,0.035,0.582,0.21,0.859c0.175,0.276,0.745,0.358,2.038,0.335
		c1.292-0.023,1.933-0.943,2.224-1.315c0.291-0.373,0.291-0.373,0.291-0.373l0.431-0.57l1.048-0.804c0,0,0.268-0.605,0.198-0.908
		s-1.281-0.326-1.281-0.326l-1.712,1.937L141.184,268.73z"/>
	<path fill="#848484" d="M147.472,269.348c0,0-0.384,0.128-0.605-0.047c-0.221-0.174-0.429-1.295-0.529-1.55
		s-0.403-0.487-0.403-0.487s0.301-0.873,0.769-1.014c0.468-0.14,0.768,0,0.768,0s-0.302,0.932-0.232,1.293
		S147.483,269.255,147.472,269.348z"/>
	<path fill="#C2D2EA" d="M143.454,267.17c0,0-1.257,0.641-1.735,0.757s-0.757,0.501-0.71,0.927c0.046,0.424,0.629,0.634,1.363,0.82
		c0.733,0.186,1.746,0.232,2.445-1.142c0.698-1.374,1.315-2.341,1.793-2.398c0.478-0.059,0.85,0,0.85,0s0.221-0.873-0.594-1.433
		c-0.815-0.559-1.817,0.408-1.817,0.408L143.454,267.17z"/>
	<path fill="#FFA1A3" d="M141.584,231.479c0,0-2.05,5.729-1.305,10.76c0.746,5.03,3.198,18.703,3.427,20.001
		c0.189,1.07,1.006,4.442-0.82,5.231c-0.749,0.586-0.539,1.103,0.187,0.879c0.725-0.224,0.996-1.796,1.804-2.31
		c1.414-0.899,2.156-0.591,2.032-1.137s-0.718-3.141-0.78-7.426s-1.408-8.342-1.285-9.277c0.124-0.937,2.179-6.437,2.358-9.717
		C147.341,235.946,148.074,232.551,141.584,231.479z"/>
	<path fill="#8E8E8E" d="M136.778,270.568c0,0-0.894-0.604-0.861-0.269c0.034,0.337,0.275,0.808,0.403,0.979
		c0.128,0.172,1.296,0.757,2.367,0.664c1.071-0.094,1.292-0.454,1.677-0.908c0.384-0.455,0.734-0.874,0.966-0.874
		c0.233,0,1.328,0.21,1.957-0.232s0.602-0.995,0.602-0.995l-1.381,0.215l-2.679,1.106L136.778,270.568z"/>
	<path fill="#848484" d="M141.552,269.858c0,0,0.617,0.456,0.664,0.59c0.046,0.132,0.093,0.947,0.093,1.063
		c0,0.117,0.501,0.085,0.501,0.085s-0.023-1.109,0.163-1.389c0.187-0.279,0.512-0.698,0.512-0.698S142.251,269.964,141.552,269.858z
		"/>
	<path fill="#CBDCF5" d="M139.165,269.137c0,0-0.815,0.232-1.304,0.361c-0.489,0.128-1.755,0.282-1.918,0.608
		s0.486,0.789,0.917,1.079c0.431,0.292,1.537,0.56,2.306,0.314c0.769-0.244,1.246-1.653,2.096-1.711
		c0.85-0.059,1.525,0.14,2.224-0.279c0.699-0.42,0.699-2.376,0-2.178C142.787,267.529,139.165,269.137,139.165,269.137z"/>
	<path fill="#FFB1B2" d="M138.245,233.215c0,0-2.049,5.729-1.304,10.76c0.745,5.031,3.726,20.751,3.54,22.057
		c-0.187,1.305,0.124,2.081-2.019,3.479c-0.59,0.745-0.202,1.583,0.45,1.195c0.652-0.389,1.057-1.346,2.625-1.936
		c1.568-0.59,2.157-0.59,2.033-1.137c-0.125-0.545-0.719-4.134-0.781-8.418c-0.062-4.285-1.408-8.342-1.285-9.278
		c0.124-0.937,2.179-6.437,2.358-9.716C144.002,237.682,144.735,234.287,138.245,233.215z"/>
	<path fill="#565388" d="M145.935,230.918c0,0,2.657,2.247,1.991,8.303c-0.666,6.055-0.666,6.055-0.666,6.055
		s-1.553,1.94-5.14,2.639c-3.586,0.699-4.558,0.738-6.287-0.22c-1.578-0.874-1.352-2.243-1.352-2.384
		c0-0.139,0.759-10.184,2.615-12.639C138.954,230.215,145.935,230.918,145.935,230.918z"/>
	<path fill="#E6F1FF" d="M147.199,216.562c0.547,0.078,1.316,0.412,1.204,2.643c-0.145,2.854-1.056,7.359-1.056,7.639
		s-1.386,2.64-3.255,3.54s-1.589-3.695-1.589-3.695l3.074-9.906C145.576,216.781,146.677,216.487,147.199,216.562z"/>
	<path fill="#DDE8F6" d="M136.541,233.693c0,0,0.203-3.851-0.271-4.921c-0.475-1.07-1.273-3.482-1.235-4.623
		c0.038-1.141,0.793-2.145,1.768-3.159c0.974-1.014,4.253-2.759,5.71-3.239c1.457-0.48,3.832-1.563,4.809-0.862
		c0.978,0.7,1.303,2.066-0.246,6.379c-0.8,2.229-1.162,4.71-1.25,6.369c-0.04,0.745,0.579,2.272,0.632,2.552
		c0.109,0.577-1.084,2.036-4.868,2.783C137.806,235.719,136.541,233.693,136.541,233.693z"/>
	<path fill="#A8B0C2" d="M134.483,245.311c0,0.098-0.11,0.785,0.348,1.486c-0.041-2.121,0.694-5.653,1.042-7.17
		c0.437-1.908,1.953-4.922,1.953-4.922c-0.055-0.699,0.361-1.699,0.456-2.961c0.222-2.991,0.701-6.652,0.701-6.652
		s-2.235,0.938-3.823,0.188c0.236,1.197,0.761,2.705,1.109,3.492c0.475,1.071,0.272,4.92,0.272,4.92
		C135.088,237.153,134.483,245.187,134.483,245.311z"/>
	<path fill="#E6F1FF" d="M135.178,232.6c0,0-0.012-8.177,0.431-10.047c0.443-1.871,3.348-0.677,3.303,1.37
		c-0.045,2.048-0.933,8.573-1.166,8.858S135.237,234.649,135.178,232.6z"/>
	<path fill="#FFADB7" d="M137.832,216.417c0.024,0.155,0.096,0.258,0.193,0.324c0.255,0.175,0.696,0.103,0.999,0.087
		c0.544-0.031,0.351,0.674,0.456,2.432c0.203,0.051,0.422,0.084,0.651,0.101c1.555,0.134,3.535-0.407,3.713-1.063
		c0.098-0.367-0.83-0.832-1.186-1.648c-0.357-0.818-0.093-2.507-0.093-2.507s-1.429-3.539-3.215-3.074
		c-1.77,0.463-1.023,3.268-1.417,4.618c-0.005,0.014-0.007,0.025-0.012,0.04C137.827,216.028,137.803,216.252,137.832,216.417z"/>
	
		<linearGradient id="SVGID_1_" gradientUnits="userSpaceOnUse" x1="2715.7681" y1="217.4189" x2="2718.4771" y2="217.7182" gradientTransform="matrix(-1 0 0 1 2855.7451 0)">
		<stop  offset="0.1224" style="stop-color:#FCA4B5"/>
		<stop  offset="0.9896" style="stop-color:#FFADB7"/>
	</linearGradient>
	<path fill="url(#SVGID_1_)" d="M137.832,216.417l0.193,0.324c0.255,0.175,0.696,0.103,0.999,0.087
		c0.544-0.031,0.351,0.674,0.456,2.432c0.203,0.051,0.422,0.084,0.651,0.101c0.594-0.61-0.208-2.247,0.085-2.743
		c0.322-0.546,0.726-0.923,0.726-0.923l-3.008-0.009c-0.005,0.014-0.007,0.025-0.012,0.04
		C137.827,216.028,137.803,216.252,137.832,216.417z"/>
	<path fill="#FFFFFF" d="M139.459,218.844c0,0,1.468,0.156,2.661-0.193c1.192-0.351,1.349-0.783,1.349-0.783l-0.345-0.535
		c0,0,0.203-0.057,0.345,0.046s0.656,0.899,0.656,0.899s-0.554,1.235-2.84,1.356c-1.957,0.104-2.204-0.065-2.204-0.065l-0.886,0.363
		L139.459,218.844z"/>
	<path fill="#FEBFBF" d="M137.166,209.516c0,0-0.756,1.408-0.756,2.481s0.068,1.132-0.165,1.749
		c-0.233,0.616,0.264,1.152,0.264,1.152s0.417,2.187,1.312,2.445c0.895,0.258,2.288-1.02,2.664-1.298
		c0.376-0.279,0.968-1.067,1.279-2.021S139.968,208.406,137.166,209.516z"/>
	<path fill="#FF5288" d="M137.395,210.587c0,0,0.34,0.403,0.426,1.553s0.262,1.863,0.262,1.863l0.228,0.202
		c0,0,0.311-0.989,1.382-0.961c1.072,0.029,1.149,1.022,0.73,1.535c-0.244,0.297,0.063,1.267,0.063,1.267s0.124,0.053,0.729,0.379
		c0.605,0.326,1.457-0.214,1.457-0.214s0.466-0.619,1.491-1.147c1.025-0.528,2.115-1.642,2.208-3.381
		c0.093-1.738-0.829-3.745-3.018-4.257c-2.189-0.513-3.093-0.34-4.199-0.1c-0.973,0.211-1.714,0.366-2.226,1.08
		c-0.512,0.715,0.143,1.753,0.126,1.886s-0.544,0.559-0.544,0.559S136.836,211.395,137.395,210.587z"/>
	
		<linearGradient id="SVGID_2_" gradientUnits="userSpaceOnUse" x1="-6438.0371" y1="214.7471" x2="-6435.4634" y2="213.5844" gradientTransform="matrix(1 0 0 1 6576.5723 0)">
		<stop  offset="0.1224" style="stop-color:#FEB9B8"/>
		<stop  offset="1" style="stop-color:#FFDEDE"/>
	</linearGradient>
	<path fill="url(#SVGID_2_)" d="M138.924,213.715c0,0,0.355-0.751,1.166-0.53c0.811,0.221,0.657,1.145-0.212,1.972
		c-0.869,0.826-1.081-0.148-1.124-0.212S139.136,214.287,138.924,213.715z"/>
	
		<linearGradient id="SVGID_3_" gradientUnits="userSpaceOnUse" x1="-6436.7505" y1="213.8262" x2="-6437.4712" y2="214.7368" gradientTransform="matrix(1 0 0 1 6576.5723 0)">
		<stop  offset="0.1224" style="stop-color:#FCA4B5"/>
		<stop  offset="0.9896" style="stop-color:#FFADB7"/>
	</linearGradient>
	<path fill="url(#SVGID_3_)" d="M139.218,213.826c0,0,0.358-0.422,0.706-0.238c0.535,0.282-0.239,1.158-0.313,1.27
		c-0.075,0.112-0.47,0.067-0.514-0.201C139.052,214.389,139.492,214.164,139.218,213.826z"/>
	<circle fill="#F8FBFF" cx="139.233" cy="215.254" r="0.177"/>
	<path fill="#FEBFBF" d="M131.889,242.489c0,0-0.082,0.656-0.083,1.104c-0.001,0.074,0.002,0.134,0.01,0.175
		c0.052,0.28,0.063,0.854,0.063,0.854s0.013,0.057,0.033,0.139c0.042,0.16,0.517,0.121,0.692,0.277
		c0.073,0.065,0.281-0.089,0.281-0.089l0.246-0.218c0,0,0.153,0.089,0.283,0.032v-0.002c0.027-0.011,0.051-0.026,0.074-0.052
		c0.14-0.148,0.349-1.082,0.356-1.121s0.471-1.549,0.471-1.549l-0.143-2.078c0,0-0.636-0.222-1.023-0.228
		c-0.065-0.001-0.111,0.009-0.128,0.029c-0.125,0.151-0.982,1.854-0.982,1.854s-0.35,0.601-0.737,1.146
		c-0.044,0.063-0.218,0.587,0.169,0.368C131.644,243.035,131.889,242.489,131.889,242.489z"/>
	<path fill="#E6F1FF" d="M132.662,240.216c0,0,0.321-1.466,0.787-2.597c0.466-1.13,1.686-4.82,1.851-5.016
		c0.165-0.196,1.868-1.168,2.574-0.054c-0.568,1.866-3.423,6.949-3.539,7.522C134.219,240.645,132.882,240.676,132.662,240.216z"/>
	
		<linearGradient id="SVGID_4_" gradientUnits="userSpaceOnUse" x1="2719.1001" y1="214.1445" x2="2719.7742" y2="214.3267" gradientTransform="matrix(-1 0 0 1 2855.7451 0)">
		<stop  offset="0" style="stop-color:#FEB9B8"/>
		<stop  offset="0.4054" style="stop-color:#FCA4B5"/>
	</linearGradient>
	<path fill="url(#SVGID_4_)" d="M136.509,214.898c0,0,0.278,0.266,0.179-0.824c-0.064-0.713-0.3-0.678-0.354-0.582
		C136.251,213.637,135.918,214.229,136.509,214.898z"/>
	<path fill="#FF77A1" d="M145.106,209.352c0,0,2.116-1.369,3.308,1.115c1.51,3.149-2.037,4.956-1.748,7.93
		c0.286,2.938,2.037,2.213,2.037,2.213s-7.451,2.398-5.814-3.055c0.474-1.58,5.163-5.744,2.15-6.514
		C143.61,210.229,145.106,209.352,145.106,209.352z"/>
	<path fill="#F8FBFF" d="M145.106,209.352c0,0-0.948,0.52,0.004,1.709c0.047-0.051,0.53,0.24,0.53,0.24s0.381,0.305,0.382,0.58
		c-0.151,0.154-0.876,0.018-1.055-0.07c-0.825-0.4-1.192-1.574-0.693-2.201c0.417-0.524,0.924-0.455,1.093-0.385
		C145.294,209.313,145.106,209.352,145.106,209.352z"/>
</g>
</svg>
