<?xml version="1.0" encoding="utf-8"?>
<!-- Generator: Adobe Illustrator 16.0.0, SVG Export Plug-In . SVG Version: 6.00 Build 0)  -->
<!DOCTYPE svg PUBLIC "-//W3C//DTD SVG 1.1//EN" "http://www.w3.org/Graphics/SVG/1.1/DTD/svg11.dtd">
<svg version="1.1" id="Layer_1" xmlns="http://www.w3.org/2000/svg" xmlns:xlink="http://www.w3.org/1999/xlink" x="0px" y="0px"
	 width="463.683px" height="425.749px" viewBox="0 0 463.683 425.749" enable-background="new 0 0 463.683 425.749"
	 xml:space="preserve">
<g>
	<path fill="#656565" d="M330.638,210.856c0,0,0.271-0.521,0.741-0.61c0.471-0.09,7.904-0.275,8.217,0.006
		c0.313,0.281,0.506,0.629,0.507,1.113c0.002,0.484-3.922,0.511-3.922,0.511L330.638,210.856z"/>
	<g>
		<path fill="#D7E4F2" d="M328.188,276.848c4.488-2.856,11.977-3.166,16.725-0.691c4.747,2.475,4.958,6.797,0.469,9.652
			c-4.489,2.857-11.977,3.166-16.725,0.691S323.699,279.704,328.188,276.848z"/>
		<g>
			<path fill="#FEBFBF" d="M339.175,236.529c0.353,1.988,3.67,11.486,4.074,12.778c0.026,0.084,0.04,0.127,0.04,0.127
				s0.314,0.083,0.476-0.033s0.321-1.212,0.321-1.212l0.015,0.51c0,0.002,0,0.002,0,0.004l0.004,0.139
				c0,0.009,0.001,0.02,0.004,0.027c0,0.006,0.003,0.013,0.003,0.019c0.021,0.085,0.093,0.249,0.326,0.232
				c0.039-0.003,0.077-0.022,0.112-0.056c0.006-0.005,0.012-0.012,0.018-0.019c0.25-0.258,0.437-1.113,0.483-1.25
				c0.054-0.16,0.046-1.192,0.046-1.192l0.018,0.018c0.048,0.049,0.178,0.18,0.311,0.277v0.002c0.11,0.082,0.224,0.143,0.29,0.117
				c0.165-0.063-0.046-0.663-0.046-0.663s-0.32-1.011-0.407-1.33c-0.089-0.32-0.563-1.488-0.951-2.193
				c-0.227-1.028-1.524-10.056-1.524-10.056s0.209-9.656-0.957-11.77c-1.166-2.112-3.322-1.176-3.322-1.176
				S338.799,234.414,339.175,236.529z"/>
			<path fill="#E6F1FF" d="M338.104,218.699c0,0,2.478-0.372,3.565,0.833c1.089,1.204,1.262,2.998,1.229,5.131
				s0.123,7.037,0.186,8.042c0.064,1.004,1.254,8.969,1.254,8.969s-1.186,0.994-2.435,0.526S338.104,218.699,338.104,218.699z"/>
			<path fill="#FEBFBF" d="M345.425,246.898l-0.311-0.277C345.163,246.67,345.292,246.801,345.425,246.898z"/>
			<path fill="#FEBFBF" d="M344.945,247.891c0.033,0.17-0.285,1.032-0.377,1.155c0.25-0.258,0.437-1.113,0.483-1.25
				c0.054-0.16,0.046-1.192,0.046-1.192s-0.336-0.825-0.468-0.973s-0.71-0.943-0.71-0.943s0.263,0.762,0.325,0.908
				c0.063,0.146,0.428,0.52,0.521,0.729c0.093,0.214,0.232,0.481,0.232,0.481S344.91,247.72,344.945,247.891z"/>
			<path fill="#FEBFBF" d="M343.25,249.308c0.026,0.084,0.04,0.127,0.04,0.127s0.314,0.083,0.476-0.033s0.321-1.212,0.321-1.212
				l0.015,0.51c0.03-0.256,0.275-1.467,0.275-1.467l-0.094-0.95l-0.171,0.282c0,0-0.019,0.863-0.015,0.916
				c0.003,0.052-0.315,1.467-0.315,1.467S343.699,249.335,343.25,249.308z"/>
		</g>
		<g>
			<path fill="#626170" d="M345.169,279.934c0,0,0.271,0.139,0.285,0.34c0.014,0.201,0.021,0.756,0.02,0.887
				c-0.001,0.131-0.344,0.639-1.186,0.834c-0.842,0.196-2.889-0.346-3.578-0.748s-1.63-1.427-1.916-1.505
				c-0.225-0.062-0.799,0.022-1.035,0.062c-0.073,0.013-0.145,0.015-0.219,0.009L337,279.767c-0.077-0.007-0.153-0.023-0.226-0.049
				l-1.158-0.411c0,0-0.166-0.851,0.182-1.119C336.145,277.92,345.169,279.934,345.169,279.934z"/>
			<path fill="#504F60" d="M340.399,276.48c0,0,1.002,0.635,1.18,0.814c0.179,0.179,1.989,0.914,2.617,1.297
				s1.101,1.037,1.142,1.252s0.137,0.705,0.063,0.91c-0.072,0.205-0.4,0.751-1.484,0.818c-0.97,0.061-2.839-0.758-3.221-0.931
				c-0.046-0.021-0.089-0.045-0.131-0.074c-0.288-0.196-1.492-1.013-1.69-1.106c-0.226-0.105-2.22-0.61-2.523-0.711
				c-0.303-0.101-0.643-0.139-0.688-0.382c-0.044-0.243-0.135-1.581,0.025-2.002C335.85,275.946,339.513,275.401,340.399,276.48z"/>
			<path fill="#CCDEFB" d="M335.67,276.66c0.104,0.33,0.488,0.565,1.773,0.633c0.148,0.006,0.297,0.013,0.445,0.013
				c0.923,0.03,1.773-0.04,2.703-0.446c0.326-0.143,0.545-0.466,0.549-0.821c0.037-3.584,1.543-18.371,1.993-27.563
				c0.285-5.813-0.977-8.767-0.977-8.767l-6.209-0.357l-0.228,15.337l0.002,8.872C335.723,263.561,335.572,276.329,335.67,276.66z"
				/>
			<g>
				<path fill="#ACBBD4" d="M337.431,277.316c0.006-0.104,0.459-10.298,0.618-12.443c0.16-2.149,0.29-14.342,0.292-14.466
					l-0.239-0.002c-0.001,0.123-0.132,12.309-0.291,14.451c-0.159,2.147-0.613,12.347-0.618,12.449L337.431,277.316z"/>
			</g>
			<path fill="#DBDEE5" d="M335.67,276.66c0.067,0.216,0.255,0.391,0.733,0.505c0.579,0.093,0.909,0.146,1.485,0.141l1.161-26.57
				c0,0,1.625-1.765,1.346-2.861c-0.123-0.472-4.54,6.209-4.54,6.209l-0.135,0.605l0.002,8.872
				C335.723,263.561,335.572,276.329,335.67,276.66z"/>
			<path fill="#626170" d="M337.755,283.213c0,0,0.298,0.005,0.368,0.4c0.023,0.131,0.038,0.27,0.047,0.396
				c0.024,0.341-0.138,0.673-0.436,0.84c-0.251,0.142-0.626,0.286-1.163,0.354c-1.243,0.156-2.765-0.303-3.545-0.744
				c-0.779-0.441-1.06-0.801-1.529-1.454c-0.471-0.652-0.957-0.965-0.957-0.965l-0.198,0.054c0,0-0.696-0.506-1.079-0.857
				c-0.153-0.141-0.254-0.329-0.279-0.537c-0.054-0.439-0.063-1.157,0.067-1.24C329.222,279.35,337.755,283.213,337.755,283.213z"/>
			<path fill="#504F60" d="M334.458,279.004l0.162,0.388c0.047,0.111,0.115,0.212,0.202,0.296c0.457,0.445,1.986,1.938,2.452,2.436
				c0.551,0.588,0.835,1.104,0.859,1.638s-1.362,0.88-1.569,0.894c-0.209,0.016-1.13,0.105-2.31-0.334
				c-1.181-0.439-1.668-0.863-2.615-1.894s-1.588-1.598-1.879-1.833s-0.714-0.611-0.709-0.916s-0.043-1.16,0.207-1.267
				c0.226-0.096,3.53-0.371,4.764,0.131C334.224,278.624,334.374,278.802,334.458,279.004z"/>
			<path fill="#CCDEFB" d="M339.769,242.182c0,0,0.588,2.549,0.824,4.979c0.21,2.169-2.089,2.939-2.089,2.939
				s-1.479,10.358-2.004,12.909c-0.466,2.261-1.765,12.866-2.057,15.188c-0.038,0.306-0.227,0.566-0.506,0.696
				c-0.835,0.391-2.687,1.057-4.221,0.193c-0.271-0.153-0.44-0.442-0.451-0.753c-0.24-7.176,0.954-15.744,1.031-16.859
				c0.003-0.043,0.005-0.078,0.002-0.121c-0.104-2.1-1.224-9.415-1.599-14.345c-0.328-1.938,0.24-5.011,0.24-5.011L339.769,242.182z
				"/>
			<g>
				<path fill="#8C92B0" d="M339.127,248.521c-0.101-0.063-0.217-0.213-0.194-0.563c0.096-1.491-0.137-3.843-0.223-4.032
					l0.089-0.063l0.001-0.004l0.001,0.003l-0.061-0.106l0.069-0.035l0.06,0.038c0.205,0.128,0.381,2.983,0.302,4.216
					c-0.011,0.177,0.021,0.306,0.084,0.346c0.044,0.027,0.113,0.016,0.193-0.028c0.276-0.154,0.684-0.727,0.673-1.672
					c-0.006-0.552-0.131-2.647-0.165-2.87l0.236-0.036c0.04,0.26,0.162,2.376,0.168,2.903c0.011,0.982-0.404,1.665-0.796,1.884
					c-0.082,0.045-0.162,0.07-0.236,0.073C339.255,248.576,339.187,248.559,339.127,248.521z M338.859,243.963l-0.056-0.1
					L338.859,243.963z"/>
			</g>
			<g>
				<path fill="#ACBBD4" d="M330.15,279.568l0.238-0.012c-0.287-5.803,0.344-11.955,0.721-15.631c0.146-1.423,0.251-2.45,0.24-2.882
					c-0.024-0.946-0.353-4.162-0.67-7.271c-0.185-1.806-0.358-3.51-0.455-4.599c-0.256-2.883-0.031-4.608-0.028-4.625l-0.237-0.032
					c-0.002,0.018-0.23,1.767,0.027,4.678c0.097,1.091,0.271,2.796,0.455,4.603c0.303,2.961,0.646,6.316,0.669,7.253
					c0.011,0.416-0.094,1.438-0.238,2.852C330.494,267.584,329.862,273.748,330.15,279.568z"/>
			</g>
			<g>
				<path fill="#8C92B0" d="M333.216,248.75c1.371-0.059,2.417-0.425,3.119-1.093c0.913-0.867,0.889-1.917,0.888-1.96l-0.239,0.008
					c0,0.01,0.02,0.992-0.816,1.783c-0.873,0.826-2.327,1.159-4.32,0.988l-0.02,0.238
					C332.322,248.757,332.785,248.77,333.216,248.75z"/>
			</g>
			<path fill="#A76478" d="M328.643,244.413c0,0,2.284,0.974,5.87,0.693s4.938-0.767,6.122-1.5c1.186-0.733,1.902-1.655,1.902-1.655
				l-0.248-1.381c0,0-0.658,1.155-2.35,1.967c-1.691,0.811-5.359,1.155-6.854,1.231c-1.494,0.075-4.331-0.444-4.331-0.444
				L328.643,244.413z"/>
			<path fill="#4F5997" d="M336.257,243.538c0,0,0.105,0.394,0.129,0.862c0.024,0.468,0.024,1.33,0.024,1.33l0.541-0.098
				c0,0,0.081-0.834,0.052-1.25s-0.165-0.99-0.165-0.99L336.257,243.538z"/>
			<path fill="#4F5997" d="M331.062,243.658c0,0-0.089,0.397-0.094,0.867c-0.004,0.469,0.032,1.33,0.032,1.33l-0.545-0.075
				c0,0-0.116-0.829-0.104-1.246s0.123-0.996,0.123-0.996L331.062,243.658z"/>
			<path fill="#4F5997" d="M341.212,241.695c0,0,0.143,0.487,0.17,0.886c0.028,0.398-0.032,1.081-0.032,1.081l0.355-0.453
				c0,0,0.042-0.69,0.027-0.906c-0.016-0.217-0.229-0.848-0.229-0.848L341.212,241.695z"/>
			<g>
				<path fill="#8C92B0" d="M342.976,243.915c0.037-0.002,0.075-0.009,0.113-0.021l-0.075-0.227
					c-0.306,0.107-0.677-0.639-0.814-1.011l-0.225,0.083C342.024,242.869,342.435,243.938,342.976,243.915z"/>
			</g>
			<g>
				<path fill="#CCDEFB" d="M338.486,244.606c-0.148-0.104-0.232-0.272-0.238-0.478l-0.012-0.399
					c-0.012-0.421,0.314-0.873,0.743-1.032l1.006-0.372c0.233-0.087,0.463-0.069,0.63,0.047c0.148,0.104,0.232,0.272,0.238,0.478
					l0.012,0.4c0.013,0.42-0.314,0.872-0.742,1.031l-1.006,0.372c-0.064,0.024-0.129,0.04-0.191,0.048
					C338.76,244.723,338.607,244.69,338.486,244.606z M340.079,242.763l-1.006,0.372c-0.222,0.082-0.411,0.326-0.406,0.523
					l0.012,0.4c0.002,0.067,0.026,0.117,0.072,0.149c0.064,0.045,0.164,0.048,0.271,0.009l1.006-0.373
					c0.223-0.082,0.412-0.326,0.406-0.523l-0.012-0.4c-0.002-0.066-0.026-0.117-0.071-0.149c-0.045-0.031-0.105-0.042-0.175-0.033
					C340.145,242.741,340.113,242.75,340.079,242.763z"/>
			</g>
		</g>
		<path fill="#DDE8F6" d="M327.53,230.867c0.076,0.531,0.148,1.043,0.197,1.506c0.269,2.493,1.185,10.838,1.185,10.838
			c0,0.005,0.021,0.154,1.207,0.275c0.394,0.041,1.053,0.052,1.85,0.035c1.651-0.034,3.894-0.184,5.567-0.424
			c2.483-0.355,5.021-2.294,4.913-2.935c-0.109-0.638-0.276-2.747,0.072-6.715c0.349-3.971,0.24-10.067-0.632-12.072
			c-0.872-2.001-1.413-2.276-3.078-2.526c-1.664-0.248-4.954-0.213-5.589,0.04c-0.636,0.254-3.582,2.179-4.54,3.057
			c-0.957,0.878-1.624,2.044-1.624,2.044C326.639,224.726,327.187,228.521,327.53,230.867z"/>
		<path fill="#DDE8F6" d="M338.215,219.681c2.693,1.25,0.932,0.526-0.043,1.294s-1.721,0.943-2.635,0.879
			c-1.953-0.137-1.365,0.583-1.854,0.59c-1.214,0.019-2.308-0.562-2.846-0.59c-0.538-0.029-1.848-0.131-2.629,0.573
			c0.474-0.48,0.474-0.48,0.474-0.48l1.276-1.159C329.958,220.787,336.252,218.771,338.215,219.681z"/>
		<path fill="#E6F1FF" d="M339.623,210.861c0,0,0.698,4.739,0.344,6.697c-0.429,2.082-0.224,2.489-0.358,2.777
			c-0.136,0.287-2.15-1.156-3.372-0.587s2.397-8.288,2.397-8.288L339.623,210.861z"/>
		<path fill="#DDE8F6" d="M324.869,271.422c0.282,0.433,0.832,1.06,1.662,1.636c1.197,0.851,2.957,1.601,5.285,1.5
			c3.932-0.17,4.23-0.105,7.557-1.454c3.325-1.349,3.484-3.334,3.484-3.334s0.347-5.855,0.772-14.361
			c0.419-8.501-0.134-12.814-0.792-16.563c-0.658-3.756-0.319-14.715-0.319-14.715l-14.587,7.752c0,0-0.089,4.2-0.129,9.262
			c-0.025,3.43-0.021,7.252,0.044,10.42C328.031,259.413,326.117,268.088,324.869,271.422z"/>
		<path fill="#DDE8F6" d="M327.846,251.564c-0.065-3.168-0.069-6.99-0.044-10.42c0.271-0.617,0.515-1.094,0.729-1.406
			c-0.284-2.6-0.65-5.939-0.804-7.365c-0.049-0.463-0.121-0.975-0.197-1.506l3.997-2.187c0,0-0.306,8.188-0.509,9.248
			c-0.169,0.866,0.567,4.829,0.567,4.83c0.102,0.925,1.655,9.842,1.655,9.842s-0.833,1.313-1.454,1.552
			c-0.621,0.24-1.733,1.951-1.613,2.803c0.121,0.858-0.806,8.201-1.737,11.412c-0.472,1.625-1.148,3.401-1.905,4.69
			c-0.83-0.576-1.38-1.203-1.662-1.636C326.117,268.088,328.031,259.413,327.846,251.564z"/>
		<path fill="#E6F1FF" d="M329.186,223.122c0,0,2.739,0.443,2.226,5.026c-0.516,4.582-1.479,11.198-1.656,11.654
			c-0.177,0.457-3.01,1.787-3.316,0.016c-0.308-1.772-0.383-7.024-0.406-8.852c-0.024-1.827,0.585-6.097,1.142-6.973
			C327.679,223.201,328.512,222.859,329.186,223.122z"/>
		<path fill="#FEBFBF" d="M329.489,237.862c0,0,0.526-0.323,0.64,0.178s0.334,9.969,0.413,10.355s0.823,1.196,1.007,1.323
			c0.183,0.126,0.994,1.01,1.118,1.297c0.125,0.287,0.577,1.645,0.729,1.961c0.153,0.315,0.75,0.81,0.592,1.173
			c-0.156,0.364-0.806-0.126-1.101-0.433c-0.296-0.305-0.797-1.484-1.081-1.817c-0.027,0.354-0.083,1.521-0.067,2.029
			c0.012,0.36,0.844,2.161,0.673,2.33c-0.084,0.083-0.319,0.101-0.529-0.093c-0.209-0.195-0.859-1.272-0.859-1.272
			s0.416,1.277,0.419,1.499c0.002,0.222-0.238,0.33-0.521,0.037c-0.281-0.295-0.361-0.498-0.361-0.498s-0.333,0.285-0.491,0.074
			s-0.688-0.971-0.738-1.268c-0.051-0.298-0.182-0.68-0.182-0.68s-0.273-0.234-0.449-0.744c-0.175-0.51-0.507-1.515-0.536-2.191
			c-0.03-0.678-0.17-2.414-0.402-3.745s-1.926-8.079-1.502-9.369C327.177,238.059,329.489,237.862,329.489,237.862z"/>
		<g>
			
				<linearGradient id="SVGID_1_" gradientUnits="userSpaceOnUse" x1="3616.3901" y1="115.209" x2="3614.2971" y2="110.9627" gradientTransform="matrix(-0.9975 0.07 0.07 0.9975 3933.3735 -147.2732)">
				<stop  offset="0.1224" style="stop-color:#FEC7C7"/>
				<stop  offset="0.9694" style="stop-color:#FFADB7"/>
			</linearGradient>
			<path fill="url(#SVGID_1_)" d="M337.593,218.646c0,0-0.163,1.469,0.166,2.395c-1.248,0.928-2.571,0.61-3.823,0.031
				c-1.252-0.58-1.733-1.121-1.792-1.321c-0.059-0.201,0.681-0.315,0.864-1.683c0.185-1.366,0.104-2.289,0.016-3.247
				c-0.087-0.957,0.562-1.798,0.562-1.798L337.593,218.646z"/>
			
				<linearGradient id="SVGID_2_" gradientUnits="userSpaceOnUse" x1="3612.5464" y1="113.1128" x2="3615.687" y2="113.1128" gradientTransform="matrix(-0.9975 0.07 0.07 0.9975 3933.3735 -147.2732)">
				<stop  offset="0.1224" style="stop-color:#FCA4B5"/>
				<stop  offset="0.9896" style="stop-color:#FFADB7"/>
			</linearGradient>
			<path fill="url(#SVGID_2_)" d="M334.548,217.3c0,0,0.86,1.896,1.188,2.202c0.327,0.306,1.407,0.497,1.69,0.207
				s0.312-1.81,0.312-1.81L334.548,217.3z"/>
			<path fill="#FEC7C7" d="M334.663,217.662c0.294,0.827,3.487,2.414,4.438,1.6c0.486-0.415,0.681-1.682,0.758-2.928
				c0.077-1.195,0.049-2.375,0.072-2.771c0.049-0.808-0.507-2.503-0.507-2.503l-4.752,0.255c0,0-1.115,1.06-0.975,2.111
				c0.027,0.197,0.068,0.439,0.116,0.709C334.03,215.306,334.427,216.99,334.663,217.662z"/>
			<g>
				
					<linearGradient id="SVGID_3_" gradientUnits="userSpaceOnUse" x1="3611.3374" y1="109.6064" x2="3610.2461" y2="109.9247" gradientTransform="matrix(-0.9975 0.07 0.07 0.9975 3933.3735 -147.2732)">
					<stop  offset="0.1224" style="stop-color:#FEC7C7"/>
					<stop  offset="0.9896" style="stop-color:#FFDBDB"/>
				</linearGradient>
				<path fill="url(#SVGID_3_)" d="M338.953,213.372c-0.073,0.511,0.837,1.938,0.936,2.424c0.098,0.486-1.456,0.519-1.456,0.519
					L338.953,213.372z"/>
				
					<linearGradient id="SVGID_4_" gradientUnits="userSpaceOnUse" x1="3610.2056" y1="109.6157" x2="3611.7456" y2="109.6157" gradientTransform="matrix(-0.9975 0.07 0.07 0.9975 3933.3735 -147.2732)">
					<stop  offset="0.188" style="stop-color:#FFDCDC"/>
					<stop  offset="0.8991" style="stop-color:#FEC7C7"/>
				</linearGradient>
				<path fill="url(#SVGID_4_)" d="M338.511,216.359c0.268-0.012,1.14-0.07,1.369-0.357c0.052-0.064,0.07-0.137,0.055-0.216
					c-0.04-0.198-0.203-0.532-0.392-0.917c-0.274-0.562-0.585-1.196-0.543-1.49l-0.095-0.014c-0.047,0.323,0.271,0.973,0.551,1.546
					c0.178,0.364,0.347,0.708,0.384,0.895c0.011,0.05-0.001,0.094-0.035,0.137c-0.198,0.246-1.065,0.315-1.374,0.323l0.002,0.097
					C338.44,216.362,338.467,216.361,338.511,216.359z"/>
			</g>
			<g>
				<path fill="#754554" d="M336.509,214.052c1.058-0.579,2.027-0.314,2.037-0.312l0.045-0.155c-0.044-0.012-1.039-0.287-2.16,0.325
					L336.509,214.052z"/>
			</g>
			<g>
				<path fill="#754554" d="M339.212,213.502c0.004-0.002,0.348-0.262,0.801-0.348l-0.029-0.158
					c-0.492,0.093-0.854,0.367-0.869,0.378L339.212,213.502z"/>
			</g>
			<path fill="#AF727B" d="M334.663,217.662c0.294,0.827,3.487,2.414,4.438,1.6c0.486-0.415,0.681-1.682,0.758-2.928
				c-0.064,0.039-0.136,0.056-0.209,0.039c-0.297-0.068-0.725-0.079-1.159,0.234c-0.432,0.313-1.039,0.729-1.401,0.775
				c-0.363,0.047-1.633-0.32-1.94-0.789c-0.308-0.47-0.546-1.738-0.546-1.738l-0.789-0.721
				C334.03,215.306,334.427,216.99,334.663,217.662z"/>
			
				<linearGradient id="SVGID_5_" gradientUnits="userSpaceOnUse" x1="3335.6919" y1="282.7148" x2="3337.1265" y2="282.7148" gradientTransform="matrix(-0.9999 -0.0108 -0.0108 0.9999 3672.4219 -31.4324)">
				<stop  offset="0.1224" style="stop-color:#FEB9B8"/>
				<stop  offset="1" style="stop-color:#FFDEDE"/>
			</linearGradient>
			<path fill="url(#SVGID_5_)" d="M333.794,214.314c0,0-0.491-0.7-1.051-0.257c-0.561,0.443,0.507,2.417,0.806,2.47
				c0.298,0.052,0.464-0.301,0.451-0.492C333.987,215.845,333.6,214.674,333.794,214.314z"/>
			
				<linearGradient id="SVGID_6_" gradientUnits="userSpaceOnUse" x1="3335.7915" y1="282.6035" x2="3336.938" y2="282.6035" gradientTransform="matrix(-0.9999 -0.0108 -0.0108 0.9999 3672.4219 -31.4324)">
				<stop  offset="0.1224" style="stop-color:#FCA4B5"/>
				<stop  offset="0.9896" style="stop-color:#FFADB7"/>
			</linearGradient>
			<path fill="url(#SVGID_6_)" d="M333.646,214.311c0,0-0.584-0.375-0.822-0.076c-0.239,0.299,0.434,1.584,0.623,1.807
				c0.188,0.223,0.457-0.238,0.457-0.238S333.567,214.6,333.646,214.311z"/>
			<path fill="#FEC7C7" d="M339.563,217.344c0,0-0.913,0.309-1.431,0.289C337.615,217.614,339.95,216.893,339.563,217.344z"/>
			
				<ellipse transform="matrix(-0.9798 0.1998 -0.1998 -0.9798 711.3296 357.4809)" fill="#FFFFFF" cx="337.628" cy="214.631" rx="0.332" ry="0.215"/>
			
				<ellipse transform="matrix(-0.902 0.4317 -0.4317 -0.902 738.3485 260.6669)" fill="#FFFFFF" cx="339.593" cy="214.124" rx="0.215" ry="0.193"/>
			<path fill="#E6F1FF" d="M331.74,215.047c0,0,0.751-0.934,1.007-0.985c0.255-0.052,1.136,0.272,1.136,0.272l0.072-0.103
				l0.856-1.114c0,0,0.007,0.001,0.018,0.001c0.16,0.004,1.496-0.042,2.299-0.104c0.854-0.067,2.245-0.437,2.659-0.627
				c0.37-0.169-0.055-1.246-0.188-1.587c-0.015-0.042-0.033-0.072-0.033-0.089c0.004-1.083-1.8-2.371-2.609-2.537
				c-0.743-0.152-3.324-0.762-5.28,1.655c-0.378,0.466-0.606,0.944-0.73,1.416c-0.063,0.236-0.1,0.471-0.113,0.701
				C330.719,213.632,331.74,215.047,331.74,215.047z"/>
			<path fill="#E6F1FF" d="M333.882,214.334c0,0,0.121,2.568,0.032,4.244c-0.089,1.675,0.084,3.361-0.026,3.655
				c-0.231,0.619-4.198-1.17-4.823-0.611s-0.625,0.559-0.625,0.559s1.267-1.792,1.622-3.359s0.865-4.196,0.762-6.595
				C332.804,211.895,333.882,214.334,333.882,214.334z"/>
			<path fill="#DDE8F6" d="M339.552,210.543c0,0-0.129,0.243-0.406,0.339c-0.278,0.097-1.086,0.282-1.473,0.178
				c-0.805,0.257-1.48,0.376-2.325,0.383s-1.51-0.163-1.662-0.284c-0.407,0.051-1.094-0.012-1.597-0.188
				c-0.35-0.146-0.476-0.374-0.476-0.374s-0.33,0.104-0.421-0.016c-0.051,0.109-0.051,0.109-0.051,0.109l0.075,0.449l-0.369,0.625
				l-0.021,0.273c0,0,0.413,0.392,1.516,0.655c1.104,0.264,3.184,0.322,4.905,0.141c1.181-0.125,2.272-0.428,2.663-0.755
				c0.025-0.184-0.054-0.446-0.054-0.446L339.552,210.543z"/>
			<path fill="#656565" d="M330.68,211.787c0.129,0.158,0.877,0.469,1.002,0.516c0.916,0.341,2.439,0.648,5.301,0.425
				c0.888-0.069,2.578-0.575,3.009-0.773c0.385-0.175,0.103-0.887-0.035-1.241c-0.004,0.003-0.157-0.115-0.16-0.11
				c-0.043,0.051-0.167,0.048-0.23,0.109c-0.499,0.486-2.585,0.728-4.104,0.77c-1.684,0.047-3.738-0.549-3.738-0.549
				s-0.557-0.244-0.765-0.308c-0.142,0.063-0.332,0.155-0.347,0.299C330.598,211.066,330.516,211.584,330.68,211.787z"/>
		</g>
		<path fill="#E6F1FF" d="M330.228,237.08l0.482,11.187c0,0-0.901,0.574-1.977,0.557s-1.075-0.018-1.075-0.018
			s-1.834-8.231-1.462-11.759C327.765,236.957,330.228,237.08,330.228,237.08z"/>
	</g>
	<path fill="#F0F5FB" d="M331.25,213.704c0,0,0.213,4.895-1.909,7.37c1.142-0.641,1.789-0.387,1.789-0.387
		S331.742,216.642,331.25,213.704z"/>
</g>
</svg>
