<?xml version="1.0" encoding="utf-8"?>
<!-- Generator: Adobe Illustrator 16.0.0, SVG Export Plug-In . SVG Version: 6.00 Build 0)  -->
<!DOCTYPE svg PUBLIC "-//W3C//DTD SVG 1.1//EN" "http://www.w3.org/Graphics/SVG/1.1/DTD/svg11.dtd">
<svg version="1.1" id="Layer_1" xmlns="http://www.w3.org/2000/svg" xmlns:xlink="http://www.w3.org/1999/xlink" x="0px" y="0px"
	 width="463.683px" height="425.749px" viewBox="0 0 463.683 425.749" enable-background="new 0 0 463.683 425.749"
	 xml:space="preserve">
<g>
	<g>
		<path fill="#D7E4F2" d="M268.131,266.451c4.663-2.967,12.442-3.289,17.374-0.718c4.933,2.571,5.15,7.061,0.487,10.028
			c-4.663,2.967-12.441,3.289-17.374,0.718C263.686,273.909,263.468,269.419,268.131,266.451z"/>
		<g>
			<path fill="#6C6B79" d="M285.322,271.528l0.25,0.632c0,0,0.117,0.75-0.025,0.871s-0.712,0.893-1.871,0.899
				c-1.158,0.007-3.228-1.776-3.228-1.776s-3.187-1.703-3.288-1.841c-0.103-0.139-0.104-1.226-0.104-1.226l6.27,2.178
				L285.322,271.528z"/>
			<path fill="#6C6B79" d="M275.496,272.715c0,0,0.49,0.067,0.581,0.26c0.09,0.191,0.075,0.898,0.075,0.898s-0.987,0.95-2.692,0.923
				c-1.704-0.028-2.537-0.882-2.744-1.19s-2.153-2.571-2.153-2.571s-0.29-0.283-0.244-0.96c0.047-0.676,0.01-0.743,0.01-0.743
				s2.709,2.272,2.768,2.322S275.496,272.715,275.496,272.715z"/>
			<path fill="#504F60" d="M280.708,267.695c0,0,0.386,0.71,0.765,0.914c0.38,0.203,3.671,2.3,3.671,2.3s0.717,0.991,0.259,1.572
				c-0.459,0.582-1.855,0.772-2.813,0.381c-0.956-0.391-2.255-1.404-2.707-1.62c-0.453-0.216-2.601-1.195-2.777-1.796
				c-0.178-0.601-0.169-0.71-0.092-1.097c0.076-0.387,0.268-1.345,0.319-1.367C277.385,266.959,280.708,267.695,280.708,267.695z"/>
			<path fill="#4F5997" d="M276.937,252.65c0.053,0.606,0.113,1.145,0.178,1.58c0.051,0.34,0.128,0.638,0.228,0.895
				c0.876,2.303,3.445,1.557,3.92,0.605c0.054-0.106,0.112-0.272,0.173-0.486l-0.001-0.002c0.534-1.881,1.197-9.896,1.565-13.636
				c0.412-4.164-1.056-7.41-1.256-9.35l-4.768,2.321l-0.673,4.512c0,0,0.015,0.645,0.043,1.655
				C276.417,243.096,276.677,249.808,276.937,252.65z"/>
			<path fill="#4F5997" d="M276.863,267.344c0,0,0.508,0.481,1.277,0.869c0.034,0.019,0.068,0.035,0.103,0.052
				c0.854,0.397,2.474-0.462,2.465-0.569s0.554-10.651,0.728-12.451l-0.001-0.002c0.172-1.79-0.672-2.441-0.672-2.441l-3.406-0.134
				l-0.419-0.017h-0.004c0,0-0.683,1.941-0.584,4.953C276.456,260.861,276.863,267.344,276.863,267.344z"/>
			<path fill="#A8B0C2" d="M276.863,267.344c0,0,0.508,0.481,1.277,0.869c-0.896-11.848,0.205-14.289,0.104-15.511l-0.135-8.288
				l0.569-3.034l-2.333-0.635c0.071,2.351,0.331,9.063,0.591,11.905h-0.004c0,0-0.61,1.939-0.584,4.953
				C276.38,261.115,276.863,267.344,276.863,267.344z"/>
			<path fill="#504F60" d="M269.027,267.135c-0.118,0.047-0.785,1.172-0.744,1.657s0.271,1.716,0.329,1.766
				c0.059,0.049,1.724,2.844,3.081,3.255c1.356,0.412,3.41-0.158,3.96-0.513s0.401-0.396,0.401-0.396s-0.041-0.486-0.648-0.815
				c-0.606-0.33-2.394-2.843-2.394-2.843l-0.739-2.004L269.027,267.135z"/>
			<path fill="#4F5997" d="M279.291,236.991c0,0,0.525,2.673,0.311,3.705c-0.214,1.032-1.668,1.843-1.722,2.065
				c-0.054,0.221-2.937,14.078-3.893,14.773c-0.956,0.696-3.021,1.123-3.272-3.166c-0.252-4.291-1.416-12.67-1.6-13.995
				s-0.119-4.186,0.682-5.448C270.595,233.663,279.291,236.991,279.291,236.991z"/>
			<g>
				<path fill="#8C92B0" d="M278.25,241.824c0.056-0.002,0.116-0.02,0.178-0.051c0.296-0.154,0.621-0.641,0.634-1.345
					c0.008-0.386-0.037-1.922-0.062-2.107l-0.176,0.022c0.021,0.158,0.068,1.679,0.061,2.082c-0.013,0.675-0.329,1.082-0.539,1.189
					c-0.067,0.035-0.124,0.042-0.158,0.019c-0.046-0.03-0.066-0.124-0.054-0.249c0.087-0.886,0.02-2.958-0.132-3.061l-0.043-0.03
					l-0.052,0.022l0.04,0.08l-0.002,0.002l-0.065,0.046c0.061,0.141,0.184,1.851,0.077,2.924c-0.024,0.251,0.058,0.362,0.131,0.412
					C278.134,241.813,278.19,241.827,278.25,241.824z"/>
			</g>
			<g>
				<path fill="#8C92B0" d="M272.394,241.845c1.595-0.069,2.427-0.486,2.858-0.872c0.519-0.463,0.54-0.934,0.541-0.953l-0.179-0.007
					c0,0.004-0.023,0.423-0.488,0.834c-0.53,0.47-1.701,0.985-4.275,0.785l-0.014,0.178
					C271.424,241.855,271.94,241.864,272.394,241.845z"/>
			</g>
			<path fill="#A76478" d="M268.92,238.866c0,0,1.751,1.083,5.475,0.95c3.723-0.133,5.148-0.47,6.417-0.998s2.064-1.21,2.064-1.21
				l-0.176-1.048c0,0-0.748,0.857-2.545,1.434c-1.796,0.576-5.608,0.755-7.158,0.779c-1.549,0.023-3.898-0.728-3.898-0.728
				L268.92,238.866z"/>
			<path fill="#4F5997" d="M276.29,238.67c0,0,0.086,0.299,0.084,0.654c-0.003,0.354-0.054,1.006-0.054,1.006l0.565-0.063
				c0,0,0.133-0.628,0.127-0.943c-0.006-0.314-0.112-0.752-0.112-0.752L276.29,238.67z"/>
			<path fill="#4F5997" d="M270.912,238.646c0,0-0.114,0.298-0.146,0.652s-0.045,1.007-0.045,1.007l-0.56-0.069
				c0,0-0.071-0.629-0.034-0.944c0.036-0.314,0.186-0.75,0.186-0.75L270.912,238.646z"/>
			<path fill="#4F5997" d="M281.521,237.387c0,0,0.119,0.371,0.124,0.673c0.006,0.302-0.097,0.816-0.097,0.816l0.394-0.335
				c0,0,0.084-0.521,0.081-0.685s-0.186-0.646-0.186-0.646L281.521,237.387z"/>
			<g>
				<path fill="#8C92B0" d="M282.809,239.732c0.035-0.002,0.071-0.007,0.106-0.017l-0.052-0.204
					c-0.366,0.094-0.751-0.509-0.871-0.748l-0.189,0.096C281.824,238.898,282.26,239.756,282.809,239.732z"/>
			</g>
			<g>
				<path fill="#CCDEFB" d="M277.315,239.588c-0.155-0.096-0.242-0.232-0.244-0.385l-0.005-0.3
					c-0.004-0.313,0.351-0.606,0.809-0.667l1.074-0.144c0.25-0.034,0.493,0.01,0.669,0.118c0.154,0.096,0.241,0.233,0.243,0.386
					l0.005,0.299c0.005,0.313-0.351,0.606-0.808,0.668l-1.075,0.144c-0.068,0.009-0.137,0.012-0.203,0.01
					C277.604,239.711,277.441,239.667,277.315,239.588z M279.041,238.43l-1.074,0.144c-0.237,0.031-0.443,0.188-0.441,0.335
					l0.005,0.299c0.001,0.05,0.025,0.091,0.073,0.121c0.068,0.041,0.174,0.057,0.289,0.041l1.074-0.143
					c0.237-0.031,0.443-0.188,0.44-0.335l-0.004-0.299c-0.001-0.051-0.025-0.091-0.074-0.121c-0.046-0.028-0.11-0.045-0.184-0.048
					C279.112,238.423,279.077,238.425,279.041,238.43z"/>
			</g>
			<path fill="#4F5997" d="M274.195,255.707c0,0,0.494,0.058,0.321,0.91s-1.912,11.09-1.912,11.09s-1.769,0.635-2.815,0.252
				c-1.046-0.384-1.267-0.716-1.275-0.824c-0.01-0.107-0.191-5.865,0.609-8.848s1.546-7.135,1.546-7.135L274.195,255.707z"/>
			<path fill="#FEBFBF" d="M280.726,215.396c0,0,1.831,0.01,2.454,2.258s1.76,8.456,1.619,9.373
				c-0.14,0.918-2.247,1.493-3.292-0.375C280.463,224.783,280.726,215.396,280.726,215.396z"/>
			<path fill="#E6F1FF" d="M280.099,214.021c0,0,2.548-0.108,3.269,2.766c0.258,1.025,1.578,7.149,1.578,7.149
				s-2.456,2.108-3.892,1.358C279.618,224.547,280.099,214.021,280.099,214.021z"/>
			<path fill="#FEBFBF" d="M284.81,226.882c0.308,0.265,2.609,4.165,2.745,4.28c0.137,0.115,0.988-0.318,0.988-0.318l1.018,0.259
				l1.059,0.527c0,0,0.759,0.19,0.821,0.293c0.063,0.104-0.08,0.333-0.428,0.29c-0.349-0.044-0.967-0.082-1.305-0.217
				s0.043,1.155,0.043,1.155s-0.196,0.904-0.557,0.935c-0.359,0.029-0.974,0.136-1.275,0.161c-0.303,0.025-0.731-0.12-0.731-0.12
				l-0.679-0.105l-0.746-1.115c0,0-4.576-3.614-3.955-5.815C283.473,226.759,284.503,226.618,284.81,226.882z"/>
			<g>
				<path fill="#C4C8D8" d="M287.958,232.413c0.153-0.085,0.421-0.169,0.577-0.177c1.416-0.091,5.172-0.662,5.19-0.652
					c0.007,0.004,0.045,0.342,0.048,0.348c0.01,0.025-0.03,0.067-0.113,0.115c-0.666,0.368-1.331,0.736-2,1.106
					c-0.002,0.001-0.004,0.003-0.006,0.004c-0.154,0.085-0.418,0.161-0.57,0.173c-1.421,0.092-3.705,0.238-5.121,0.329
					c-0.074,0.003-0.115-0.009-0.119-0.032c-0.004-0.025-0.047-0.354-0.047-0.354L287.958,232.413z"/>
				<path fill="#D7E4F2" d="M293.524,231.709c-0.657,0.363-1.31,0.725-1.967,1.088c-0.129,0.072-0.349,0.139-0.483,0.147
					c-1.4,0.09-3.672,0.235-5.075,0.326c-0.131,0.008-0.133-0.045-0.004-0.116c0.657-0.363,1.311-0.725,1.968-1.089
					c0.129-0.071,0.348-0.138,0.479-0.147c1.404-0.09,3.676-0.235,5.075-0.325C293.652,231.584,293.653,231.638,293.524,231.709
					L293.524,231.709z M285.902,233.172c-0.153,0.085-0.138,0.143,0.012,0.136c1.416-0.091,3.7-0.237,5.12-0.329
					c0.153-0.012,0.416-0.088,0.57-0.173c0.002-0.001,0.004-0.003,0.007-0.004c0.669-0.37,1.334-0.738,1.999-1.106
					c0.149-0.084,0.159-0.152-0.005-0.14c-1.42,0.091-3.703,0.237-5.12,0.329c-0.155,0.008-0.423,0.092-0.576,0.177
					c-0.665,0.368-1.331,0.735-2,1.106C285.907,233.169,285.905,233.17,285.902,233.172L285.902,233.172z"/>
				<path fill="#7C78F0" d="M292.611,232.128c-0.166,0.092-0.327,0.181-0.488,0.271l-0.036,0.012l-0.001-0.01
					c0.162-0.089,0.323-0.178,0.488-0.27l0.036-0.011L292.611,232.128L292.611,232.128z M292.03,232.459l-0.077,0.025v-0.021
					l0.077-0.022V232.459L292.03,232.459z M291.898,232.541l-0.105,0.032l-0.006-0.025l0.114-0.035L291.898,232.541L291.898,232.541
					z M285.995,233.154c-0.129,0.071-0.127,0.124,0.004,0.116c1.403-0.091,3.675-0.236,5.075-0.326
					c0.135-0.009,0.354-0.075,0.483-0.147c0.657-0.363,1.31-0.725,1.967-1.088c0.129-0.071,0.128-0.125-0.008-0.116
					c-1.399,0.09-3.671,0.235-5.075,0.325c-0.131,0.01-0.35,0.076-0.479,0.147C287.305,232.43,286.652,232.791,285.995,233.154
					L285.995,233.154z"/>
				<path fill="#2A2A2C" d="M292.085,232.4c0.162-0.089,0.323-0.178,0.488-0.27l0.036-0.011l0.001,0.008
					c-0.166,0.092-0.327,0.181-0.488,0.271l-0.036,0.012L292.085,232.4L292.085,232.4z"/>
				<path fill="#838383" d="M291.877,232.542l-0.065,0.021l-0.005-0.016l0.073-0.022L291.877,232.542L291.877,232.542z
					 M291.787,232.548l0.006,0.025l0.105-0.032l0.003-0.028L291.787,232.548L291.787,232.548z"/>
				<polygon fill="#516F83" points="291.807,232.547 291.88,232.524 291.877,232.542 291.812,232.563 291.807,232.547 				"/>
				<polygon fill="#2A2A2C" points="291.953,232.464 292.03,232.441 292.03,232.459 291.953,232.484 291.953,232.464 				"/>
			</g>
			
				<linearGradient id="SVGID_1_" gradientUnits="userSpaceOnUse" x1="3707.3296" y1="95.0132" x2="3708.427" y2="92.7241" gradientTransform="matrix(-0.9965 0.0836 0.0836 0.9965 3975.0552 -170.1389)">
				<stop  offset="0.1224" style="stop-color:#FEB9B8"/>
				<stop  offset="1" style="stop-color:#FFDEDE"/>
			</linearGradient>
			<path fill="url(#SVGID_1_)" d="M288.413,232.848c0.035-0.004,0.3,0.02,0.558,0.07s0.48,0.213,0.48,0.213l0.288-0.023l0.106,1.268
				l-2.702,0.399l-0.829-1.046l0.142-1.314c0,0,0.439-0.164,0.485-0.041c0.047,0.123,0.047,0.123,0.047,0.123
				s0.141-0.274,0.376-0.276c0.235-0.001,0.23,0.161,0.23,0.161s0.202-0.29,0.372-0.213
				C288.135,232.246,288.413,232.848,288.413,232.848z"/>
			
				<linearGradient id="SVGID_2_" gradientUnits="userSpaceOnUse" x1="3707.5718" y1="93.7051" x2="3708.3452" y2="93.7051" gradientTransform="matrix(-0.9965 0.0836 0.0836 0.9965 3975.0552 -170.1389)">
				<stop  offset="0.1224" style="stop-color:#FCA4B5"/>
				<stop  offset="0.9896" style="stop-color:#FFADB7"/>
			</linearGradient>
			<path fill="url(#SVGID_2_)" d="M287.642,232.321c0,0,0.042,0.379,0.114,0.481s0.368,1.155,0.368,1.155l0.252,0.232l-0.248,0.021
				l-0.21-0.336l-0.375-1.345l-0.104-0.271L287.642,232.321z"/>
			
				<linearGradient id="SVGID_3_" gradientUnits="userSpaceOnUse" x1="3708.5269" y1="93.7017" x2="3709.1216" y2="93.7017" gradientTransform="matrix(-0.9965 0.0836 0.0836 0.9965 3975.0552 -170.1389)">
				<stop  offset="0.1224" style="stop-color:#FCA4B5"/>
				<stop  offset="0.9896" style="stop-color:#FFADB7"/>
			</linearGradient>
			<polygon fill="url(#SVGID_3_)" points="286.988,232.496 287.172,233.721 287.419,234.191 286.811,234.068 287.083,233.738 
				286.93,232.781 286.941,232.373 			"/>
			<path fill="#A8B0C2" d="M268.992,238.551c0,0,1.665,1.064,5.389,0.932c3.724-0.132,5.149-0.47,6.418-0.998
				c1.268-0.527,2.025-1.196,2.025-1.196l-0.138-1.062c0,0-0.748,0.857-2.544,1.434c-1.797,0.576-5.609,0.756-7.158,0.779
				c-1.55,0.024-3.934-0.765-3.934-0.765L268.992,238.551z"/>
			<path fill="#DDE8F6" d="M268.621,224.457c0.088,1.129,1.344,6.323,0.847,9.07c-0.491,2.753-0.44,3.607-0.502,4.206
				c-0.018,0.209,0.296,0.49,0.942,0.743c1.24,0.489,3.701,0.878,7.366,0.473c4.259-0.466,5.585-1.995,5.585-1.995
				s-0.52-2.128-0.784-5.45c-0.257-3.317,0.881-5.509,1.107-8.947c0.227-3.444,0.118-6.252-1.265-7.585
				c-1.397-1.353-5.799-1.853-7.658-1.344s-1.367,0.902-3.529,2.007s-2.661,1.48-2.661,1.48c-0.615,0.951-0.448,2.651-0.14,4.205
				C268.202,222.681,268.577,223.924,268.621,224.457z"/>
			<polygon fill="#E6F1FF" points="275.556,222.929 275.755,226.089 274.54,227.005 272.918,226.705 272.76,223.604 			"/>
			<path fill="#DDE8F6" d="M269.467,233.527c-0.491,2.753-0.44,3.607-0.502,4.206c-0.018,0.209,0.296,0.49,0.942,0.743
				c1.01-1.443,0.936-4.245,0.923-5.938c1.363-0.996,7.282-1.292,7.753-1.868c0.478-0.583,0.238-0.693-0.172-1.051
				c-0.404-0.357-7.255,0.086-7.36-0.03s-0.438-1.447-0.145-3.349c0.293-1.9,0.334-5.458,0.334-5.458s-2.044,0.135-3.312,0.538
				c0.272,1.36,0.647,2.604,0.691,3.137C268.708,225.586,269.964,230.78,269.467,233.527z"/>
			
				<linearGradient id="SVGID_4_" gradientUnits="userSpaceOnUse" x1="3720.7378" y1="72.8369" x2="3715.1904" y2="71.8055" gradientTransform="matrix(-0.9965 0.0836 0.0836 0.9965 3975.0552 -170.1389)">
				<stop  offset="0.1224" style="stop-color:#FEC7C7"/>
				<stop  offset="0.9694" style="stop-color:#FFADB7"/>
			</linearGradient>
			<path fill="url(#SVGID_4_)" d="M279.67,213.836c0,0-0.543,1.713-0.493,2.089c0.049,0.376-1.07,1.068-2.897,0.659
				c-1.827-0.408-3.041-1.918-3.002-2.103c0.038-0.185,0.822-0.341,1.527-1.867c0.706-1.526,1.22-3.344,1.203-3.995
				c-0.017-0.65,1.802-0.35,1.802-0.35L279.67,213.836z"/>
			<path fill="#E6F1FF" d="M277.646,216.547c0,0,0.549,0.653,0.962,0.73c0.536-0.173,0.854-0.998,0.892-1.236
				c0.037-0.237-0.075-0.768-0.166-0.984s-0.378-0.307-0.364,0.016s-0.585,1.051-1.305,1.18
				C277.562,216.408,277.646,216.547,277.646,216.547z"/>
			<path fill="#FEC7C7" d="M276.664,213.166c0.076,0.707,2.682,2.662,3.694,2.588c0.476-0.036,1.009-0.979,1.508-2.06
				c0.561-1.221,1.076-2.616,1.413-3.077c0.634-0.867,0.598-3.238,0.355-3.742c-0.242-0.506-1.679-2.087-3.094-2.113
				c-1.415-0.027-3.23,0.777-3.376,1.424s0.119,2.925,0.119,2.925s-0.061,0.29-0.145,0.716
				C276.941,210.852,276.609,212.668,276.664,213.166z"/>
			<g>
				
					<linearGradient id="SVGID_5_" gradientUnits="userSpaceOnUse" x1="3712.2866" y1="72.1113" x2="3711.4363" y2="72.7938" gradientTransform="matrix(-0.9965 0.0836 0.0836 0.9965 3975.0552 -170.1389)">
					<stop  offset="0.1224" style="stop-color:#FEC7C7"/>
					<stop  offset="0.9896" style="stop-color:#FFDBDB"/>
				</linearGradient>
				<path fill="url(#SVGID_5_)" d="M282.332,210.895c-0.117,0.424,0.289,1.938,0.19,2.26c-0.1,0.32-1.273,0.093-1.39,0.008
					L282.332,210.895z"/>
				
					<linearGradient id="SVGID_6_" gradientUnits="userSpaceOnUse" x1="3711.563" y1="72.2031" x2="3713.0659" y2="72.2031" gradientTransform="matrix(-0.9965 0.0836 0.0836 0.9965 3975.0552 -170.1389)">
					<stop  offset="0.188" style="stop-color:#FFDCDC"/>
					<stop  offset="0.8991" style="stop-color:#FEC7C7"/>
				</linearGradient>
				<path fill="url(#SVGID_6_)" d="M282.123,213.369c0.099-0.005,0.188-0.017,0.26-0.041c0.102-0.032,0.164-0.087,0.187-0.159
					c0.052-0.163-0.014-0.57-0.088-1.04c-0.075-0.473-0.16-1.009-0.101-1.222l-0.097-0.026c-0.065,0.233,0.018,0.757,0.098,1.264
					c0.067,0.42,0.136,0.854,0.092,0.994c-0.013,0.041-0.054,0.072-0.122,0.095c-0.321,0.106-1.105-0.051-1.188-0.112l-0.06,0.08
					C281.187,213.265,281.724,213.387,282.123,213.369z"/>
			</g>
			
				<ellipse transform="matrix(-0.9965 0.0842 -0.0842 -0.9965 577.923 398.6462)" fill="#FFFFFF" cx="280.559" cy="211.505" rx="0.325" ry="0.251"/>
			
				<ellipse transform="matrix(-0.9972 -0.0754 0.0754 -0.9972 548.3594 443.389)" fill="#FFFFFF" cx="282.554" cy="211.337" rx="0.149" ry="0.217"/>
			<g>
				<path fill="#754554" d="M281.872,210.925l0.034-0.163c-0.053-0.012-1.288-0.262-2.347-0.023l0.037,0.163
					C280.62,210.67,281.859,210.922,281.872,210.925z"/>
			</g>
			<g>
				<path fill="#754554" d="M282.541,210.762c0.005-0.002,0.424-0.185,0.934-0.289l-0.033-0.164c-0.528,0.109-0.949,0.293-0.967,0.3
					L282.541,210.762z"/>
			</g>
			<path fill="#AF727B" d="M276.664,213.166c0.076,0.707,2.682,2.662,3.694,2.588c0.476-0.036,1.009-0.979,1.508-2.06
				c0,0-0.11-0.068-0.234-0.1c-0.124-0.028-0.603-0.058-0.894,0.049c-0.289,0.104-0.82,0.258-1.43,0.12
				c-0.609-0.141-1.471-0.878-1.521-1.405c-0.053-0.548,0.167-1.796,0.167-1.796l-0.814-0.736
				C276.941,210.852,276.609,212.668,276.664,213.166z"/>
			<path fill="#FEC7C7" d="M276.846,211.447c0,0,0.411-1.391,0.483-1.756s-0.442-0.892-0.651-0.988
				c-0.209-0.096-0.561-0.015-0.561-0.015L276.846,211.447z"/>
			<path fill="#754554" d="M277.886,210.831c0,0,0.449-1.053,0.822-1.137c0.373-0.083,1.872-1.812,1.872-1.812l0.307-0.887
				c0,0,0.849,0.875,1.879,1.057c1.03,0.181,1.269,0.132,1.269,0.132s0.14-0.703,0.123-1.336c-0.017-0.632-1.747-4.418-6.002-3.318
				c-3.216,0.107-3.055,2.883-3.079,3.464c-0.023,0.582-0.131,2.344-0.131,2.344s0.387,0.566,0.526,1.598
				c0.358-0.799,0.544-2.076,0.897-2.074c0.353,0.001,0.851,0.135,0.945,0.615s-0.183,0.975-0.183,0.975L277.886,210.831z"/>
			
				<linearGradient id="SVGID_7_" gradientUnits="userSpaceOnUse" x1="3717.2847" y1="69.9248" x2="3718.2527" y2="68.9882" gradientTransform="matrix(-0.9965 0.0836 0.0836 0.9965 3975.0552 -170.1389)">
				<stop  offset="0.1224" style="stop-color:#FEB9B8"/>
				<stop  offset="1" style="stop-color:#FFDEDE"/>
			</linearGradient>
			<path fill="url(#SVGID_7_)" d="M277.027,209.295c0,0-0.397-0.7-0.994-0.379c-0.596,0.322-0.043,2.159,0.113,2.408
				c0.157,0.25,0.554-0.191,0.554-0.191l0.446-1.604L277.027,209.295z"/>
			<path fill="#FEBFBF" d="M269.264,218.024c0.713,0.303,2.054,1.82,1.035,4.786c-1.02,2.965-2.37,7.371-4.253,7.819
				c-1.045,0.248-1.813,1.07-1.869-0.214c-0.046-1.031,0.476-4.029,0.854-5.189c0.85-2.607,2.1-6.063,2.602-6.993
				C268.134,217.304,269.264,218.024,269.264,218.024z"/>
			<g>
				<path fill="#627847" d="M276.349,230.084c0.694,0.271,1.802,0.221,2.475-0.11c0.672-0.331,0.654-0.818-0.039-1.089
					c-0.694-0.271-1.803-0.221-2.475,0.11C275.637,229.326,275.655,229.813,276.349,230.084z"/>
				<polygon fill="#627847" points="275.342,224.774 275.817,229.56 279.316,229.409 279.376,224.601 				"/>
				<path fill="#B09064" d="M276.178,228.049c0.723-0.338,1.911-0.392,2.656-0.118c0.744,0.274,0.762,0.771,0.039,1.109
					s-1.911,0.392-2.655,0.118C275.473,228.885,275.456,228.388,276.178,228.049z"/>
				<polygon fill="#B09064" points="275.648,228.636 275.359,226.061 279.47,225.869 279.404,228.464 				"/>
				<path fill="#DEC7A7" d="M275.939,225.422c0.792-0.356,2.094-0.414,2.908-0.129s0.833,0.805,0.041,1.161
					s-2.094,0.413-2.908,0.129C275.165,226.298,275.146,225.778,275.939,225.422z"/>
				<path fill="#627847" d="M276.002,225.17c0.75-0.369,1.985-0.425,2.759-0.123c0.774,0.301,0.794,0.845,0.044,1.214
					s-1.985,0.425-2.759,0.123C275.272,226.082,275.252,225.539,276.002,225.17z"/>
				<polygon fill="#627847" points="275.469,225.977 275.407,225.562 275.768,225.617 279.343,225.413 279.359,225.759 				"/>
				<path fill="#A19797" d="M275.872,225.884c0.8,0.312,2.077,0.255,2.852-0.127c0.775-0.382,0.755-0.944-0.045-1.255
					c-0.8-0.313-2.077-0.255-2.853,0.127C275.051,225.01,275.072,225.572,275.872,225.884z"/>
				<path fill="#C7BEBE" d="M275.158,224.707l0.332-0.014c0.086-0.067,0.188-0.131,0.309-0.191c0.846-0.416,2.237-0.479,3.109-0.139
					c0.129,0.051,0.237,0.107,0.329,0.168l0.317-0.014l0.021,0.489c0.001,0.008,0.001,0.016,0.001,0.022l0.001,0.011h-0.002
					c-0.003,0.241-0.207,0.489-0.617,0.691c-0.845,0.416-2.237,0.479-3.109,0.139c-0.429-0.167-0.65-0.399-0.667-0.643h-0.001
					L275.158,224.707z"/>
				<path fill="#E2D9D9" d="M275.779,224.031c0.845-0.416,2.236-0.478,3.109-0.138c0.872,0.339,0.894,0.952,0.049,1.368
					s-2.237,0.479-3.109,0.139S274.934,224.448,275.779,224.031z"/>
				<path fill="#C7BEBE" d="M275.471,224.678c0-0.004,0-0.009,0-0.014l-0.015-0.337l0.173-0.008c0.088-0.092,0.21-0.18,0.372-0.26
					c0.725-0.356,1.918-0.409,2.665-0.118c0.17,0.066,0.3,0.145,0.395,0.23l0.164-0.008l0.015,0.338v0.002v0.002l0,0
					c0.006,0.211-0.17,0.431-0.53,0.608c-0.725,0.356-1.918,0.41-2.666,0.118c-0.367-0.143-0.558-0.343-0.571-0.551l0,0
					L275.471,224.678z"/>
				<path fill="#E1D8D8" d="M275.984,223.653c0.725-0.356,1.918-0.409,2.666-0.118c0.747,0.291,0.766,0.816,0.042,1.173
					c-0.725,0.356-1.918,0.409-2.666,0.118C275.279,224.535,275.259,224.01,275.984,223.653z"/>
				<path fill="#C7BEBE" d="M275.811,224.43L275.811,224.43c0.142,0.028,0.288-0.037,0.328-0.146l0.016-0.044
					c0.04-0.108-0.042-0.219-0.184-0.246l0,0c-0.142-0.028-0.288,0.037-0.327,0.146l-0.017,0.043
					C275.587,224.292,275.669,224.402,275.811,224.43z"/>
			</g>
			<path fill="#FEBFBF" d="M264.574,228.889c0,0,0.742-0.547,2.041-0.589c1.299-0.04,2.807,0.502,4.365,0.21
				c1.558-0.291,2.321-0.58,2.871-1.167c0.551-0.586,1.336-1.546,1.336-1.546l0.674-0.267l-0.363,0.722l0.403,0.107l1.623-0.438
				l1.604-0.077c0,0,0.14,0.229,0.019,0.383c-0.121,0.155-1.304,0.367-1.537,0.447c-0.233,0.078-1.569,0.772-1.569,0.772
				l2.465-0.471l1.151-0.285c0,0,0.272,0.163,0.188,0.377c-0.084,0.215-1.396,0.704-1.396,0.704l-1.674,0.439l0.406,0.123
				l1.498-0.275l1.01-0.414c0,0,0.266,0.163,0.042,0.452c-0.224,0.288-0.607,0.483-0.607,0.483l0.416,0.047
				c0,0-0.042,0.267-0.085,0.357c-0.043,0.09-1.04,0.632-1.04,0.632l-1.657,0.337c0,0-0.935,0.444-1.978,0.467
				c-1.042,0.023-1.563,0.197-1.826,0.346c-0.265,0.147-3.102,1.463-5.309,1.514c-2.206,0.051-3.321-0.587-3.474-1.217
				C264.019,230.434,264.574,228.889,264.574,228.889z"/>
			<path fill="#B09064" d="M276.917,229.335c0,0,1.107-0.139,1.657-0.294c0.55-0.154,0.889-0.422,0.889-0.422l-0.34-0.039
				l-0.63,0.258L276.917,229.335z"/>
			<path fill="#E6F1FF" d="M264.725,225.38c0,0,2.689,1.296,4.443,1.148c0.948-1.329,1.653-3.942,2.072-5.743
				c0.42-1.802-1.535-3.729-2.149-3.923c-0.614-0.192-1.239,0.45-1.239,0.45S264.705,224.246,264.725,225.38z"/>
			
				<linearGradient id="SVGID_8_" gradientUnits="userSpaceOnUse" x1="3716.855" y1="69.5869" x2="3717.9917" y2="69.5869" gradientTransform="matrix(-0.9965 0.0836 0.0836 0.9965 3975.0552 -170.1389)">
				<stop  offset="0.1224" style="stop-color:#FCA4B5"/>
				<stop  offset="0.9896" style="stop-color:#FFADB7"/>
			</linearGradient>
			<path fill="url(#SVGID_8_)" d="M276.987,209.471c0,0-0.322-0.509-0.725-0.438c-0.402,0.071-0.509,0.632-0.26,1.335
				c0.25,0.704,0.627,0.563,0.627,0.563l0.283-0.947L276.987,209.471z"/>
			<path fill="#FEC7C7" d="M280.106,214.186c0,0,1.35-0.132,1.387,0.033c0.037,0.164-0.714,0.439-0.914,0.457
				C280.377,214.692,280.106,214.186,280.106,214.186z"/>
		</g>
	</g>
	<path fill="#E6F1FF" d="M274.188,213.688c0,0-0.344,0.584,0.61,1.338c0.953,0.754,2.665,1.162,2.866,1.227
		c0.081,0.025,0.155,0.191,0.109,0.436c-0.068,0.365-0.316,0.862-0.499,0.988c-1.009-0.14-1.699-0.559-2.809-1.26
		s-1.319-1.58-1.329-1.811c-0.01-0.229,0.822-1.061,0.944-1.139c0.122-0.079,0.328-0.135,0.328-0.135L274.188,213.688z"/>
</g>
</svg>
