<?xml version="1.0" encoding="utf-8"?>
<!-- Generator: Adobe Illustrator 16.0.0, SVG Export Plug-In . SVG Version: 6.00 Build 0)  -->
<!DOCTYPE svg PUBLIC "-//W3C//DTD SVG 1.1//EN" "http://www.w3.org/Graphics/SVG/1.1/DTD/svg11.dtd">
<svg version="1.1" id="Layer_1" xmlns="http://www.w3.org/2000/svg" xmlns:xlink="http://www.w3.org/1999/xlink" x="0px" y="0px"
	 width="463.683px" height="425.749px" viewBox="0 0 463.683 425.749" enable-background="new 0 0 463.683 425.749"
	 xml:space="preserve">
<g>
	<g>
		<path fill="#D7E4F2" d="M118.39,266.064c-4.051-2.577-10.808-2.856-15.092-0.623c-4.285,2.232-4.474,6.133-0.423,8.711
			c4.051,2.577,10.808,2.857,15.093,0.624C122.251,272.543,122.441,268.643,118.39,266.064z"/>
		<g>
			<path fill="#6C6B79" d="M102.514,269.122c0,0-0.265-0.144-0.355,0.315c-0.09,0.46-0.092,0.893-0.092,0.893
				s0.595,0.741,1.863,0.675c1.269-0.066,3.257-1.505,3.257-1.505s3.564-0.846,3.696-1.38s-0.089-1.454-0.089-1.454l-4.02,0.979
				L102.514,269.122z"/>
			<path fill="#434254" d="M106.999,264.967c0,0-0.166,0.92-0.538,1.027c-0.373,0.106-3.843,2.309-4.084,2.503
				c-0.241,0.195-0.323,1.174-0.323,1.174s0.914,1.068,2.313,0.474s3.451-1.339,4.036-1.515s2.25-0.642,2.374-1.704
				c0.124-1.062-0.344-1.464-0.344-1.464L106.999,264.967z"/>
			<path fill="#3C3B4E" d="M112.679,241.824c-0.633,2.475-2.744,8.081-3.075,9.801c-0.102,0.526,0.249,0.804,0.065,1.262
				c-0.147,0.37-0.323,0.708-0.528,1c-0.002,0.002-0.002,0.004-0.002,0.004c-0.768,1.081-2.622,1.04-4.397,0.138
				c-0.024-0.423-0.046-0.838-0.062-1.244c-0.47-10.636,1.288-17.384,1.288-17.384l3.05,1.549c0,0,2.831,0.824,3.233,2.207
				C112.377,239.597,112.975,240.672,112.679,241.824z"/>
			<path fill="#3C3B4E" d="M110.576,265.03c-0.015,0.134-0.054,0.251-0.113,0.355c-0.582,1.024-3.583,0.958-3.556,0.646
				c0.029-0.344-1.931-10.254-2.166-12.003c-0.071-0.537-0.083-0.94-0.062-1.244c0.041-0.686,0.237-0.853,0.237-0.853l4.535,0.524
				h0.104c0,0,0.046,0.168,0.113,0.431c0.185,0.719,0.537,2.156,0.581,2.845C110.308,256.67,110.732,263.591,110.576,265.03z"/>
			<path fill="#A8B0C2" d="M110.576,265.03c-0.015,0.134-0.054,0.251-0.113,0.355c-0.135,0.228-0.245,0.276-0.494,0.438
				c-0.34-3.764-0.871-11.879-0.831-11.934c0,0-0.444-0.708-0.442-0.71c0.021-0.058-0.166-1.171-0.002-1.965
				c0.406-1.945,1.742-6.835,1.742-6.835l-0.205-1.137l-0.997-1.122l2.097-2.731l1.347,2.434c-0.633,2.475-2.744,8.081-3.075,9.801
				c-0.102,0.526,0.249,0.804,0.065,1.262c0.185,0.719,0.537,2.156,0.581,2.845C110.308,256.67,110.732,263.591,110.576,265.03z"/>
			<path fill="#6C6B79" d="M111.178,271.82l-0.303-0.025c0,0-0.125,0.702-0.073,0.86c0.051,0.158,0.736,0.855,2.133,0.903
				c1.397,0.049,2.154-0.113,2.701-0.655c0.547-0.542,1.951-2.224,1.957-2.292s0.517-0.597,0.615-0.935
				c0.097-0.337,0.106-1.063,0.106-1.063l-2.069,0.328L111.178,271.82z"/>
			<path fill="#434254" d="M114.825,266.488c-0.004,0.051-0.564,1.578-0.564,1.578l-3.346,3.594c0,0-0.387,0.486,1.232,0.985
				s2.967,0.093,3.395-0.269c0.428-0.362,2-2.6,2-2.6s0.809-0.78,0.893-1.153c0.083-0.374-0.242-1.751-0.364-2.003
				s-1.202-0.359-1.202-0.359L114.825,266.488z"/>
			<path fill="#3C3B4E" d="M117.549,252.968c-0.002,0.051-0.011,0.102-0.013,0.153c-0.024,0.273-0.061,0.534-0.117,0.793
				c-0.671,3.393-3.395,5.32-3.583,4.219c-0.271-1.577-0.54-3.054-0.794-4.407c-0.01-0.058-0.021-0.116-0.025-0.161
				c-0.011-0.039-0.016-0.07-0.021-0.109c0-0.007-0.006-0.013-0.006-0.013c0.001-0.02-0.005-0.032-0.005-0.039
				c-0.006-0.013-0.005-0.02-0.005-0.026c-1.166-6.175-2.063-9.832-2.063-9.832l-1.678-1.422l-0.321-3.972l8.544-3.749
				c0,0,0.202,0.502,0.454,1.189c0.343,0.936,0.773,2.227,0.884,3.063C119.26,242.063,117.929,249.059,117.549,252.968z"/>
			<path fill="#3C3B4E" d="M118.052,266.793c-0.012,0.128-0.114,0.258-0.272,0.379c-0.779,0.574-2.973,0.895-3.095-0.281
				c-0.233-2.465-1.372-11.344-1.645-13.165c-0.01-0.058-0.021-0.116-0.025-0.161c-0.011-0.045-0.016-0.084-0.021-0.109
				c0-0.007-0.006-0.013-0.006-0.013c0.001-0.02-0.005-0.032-0.005-0.039c-0.006-0.013-0.005-0.02-0.005-0.026
				c0.006-0.146,0.827,0.535,0.827,0.535l3.364-2.092l0.066-0.043c0,0,0.126,0.485,0.313,1.19c0.297,1.106,0.757,2.75,1.13,3.878
				C119.284,258.701,118.117,266.035,118.052,266.793z"/>
		</g>
		<g>
			<g>
				<path fill="#8C92B0" d="M110.58,242.783c-0.064-0.002-0.134-0.021-0.206-0.056c-0.381-0.185-0.813-0.808-0.857-1.737
					c-0.024-0.505-0.026-2.514-0.003-2.757l0.225,0.021c-0.02,0.208-0.021,2.196,0.004,2.725c0.043,0.895,0.46,1.413,0.729,1.544
					c0.079,0.039,0.146,0.045,0.186,0.017c0.058-0.042,0.08-0.166,0.06-0.332c-0.144-1.161-0.138-3.872,0.049-4.005l0.055-0.04
					l0.067,0.029l-0.05,0.102l0.001,0.003l0.088,0.056c-0.072,0.184-0.161,2.422,0.014,3.827c0.041,0.33-0.061,0.479-0.153,0.545
					C110.729,242.768,110.658,242.787,110.58,242.783z"/>
			</g>
			<g>
				<path fill="#8C92B0" d="M114.827,241.541c-0.617-0.025-1.141-0.174-1.568-0.442c-0.818-0.515-0.957-1.281-0.962-1.313
					l0.188-0.032c0.001,0.007,0.134,0.72,0.88,1.188c0.834,0.522,2.077,0.553,3.692,0.092l0.052,0.183
					C116.247,241.461,115.484,241.57,114.827,241.541z"/>
			</g>
			<path fill="#A76478" d="M118.586,237.741c0,0-1.528,1.482-4.936,1.587s-4.731-0.214-5.923-0.783
				c-1.192-0.569-1.962-1.365-1.962-1.365l0.092-1.325c0,0,0.738,1.021,2.416,1.61c1.677,0.591,5.168,0.538,6.584,0.456
				c1.417-0.082,3.512-1.194,3.512-1.194L118.586,237.741z"/>
			<path fill="#A8B0C2" d="M118.052,266.793c-0.012,0.128-0.114,0.258-0.272,0.379c0.164-1.713,0.84-8.935,0.65-9.435
				c-0.138-0.352-0.661-2.312-1.012-3.823c-0.204-0.91-0.351-1.658-0.306-1.79c0.008-0.032,0.031-0.133,0.058-0.304
				c0.285-1.85,1.422-11.461,0.904-13.695c-0.15-1.106-0.614-2.373-0.614-2.373l0.455-0.16c0.343,0.936,0.773,2.227,0.884,3.063
				c0.46,3.409-0.871,10.404-1.25,14.313c0.297,1.106,0.757,2.75,1.13,3.878C119.284,258.701,118.117,266.035,118.052,266.793z"/>
			<path fill="#3C3B4E" d="M111.846,238.03c0,0-0.059,0.381-0.033,0.825c0.025,0.443,0.114,1.256,0.114,1.256l-0.52-0.036
				c0,0-0.162-0.777-0.177-1.173c-0.015-0.395,0.054-0.949,0.054-0.949L111.846,238.03z"/>
			<path fill="#3C3B4E" d="M116.754,237.609c0,0,0.125,0.365,0.177,0.807s0.106,1.258,0.106,1.258l0.506-0.128
				c0,0,0.024-0.794-0.03-1.185c-0.054-0.392-0.219-0.926-0.219-0.926L116.754,237.609z"/>
			<path fill="#3C3B4E" d="M106.988,236.803c0,0-0.084,0.474-0.069,0.853c0.015,0.378,0.142,1.016,0.142,1.016l-0.381-0.391
				c0,0-0.111-0.646-0.119-0.852c-0.008-0.206,0.128-0.821,0.128-0.821L106.988,236.803z"/>
			<g>
				<path fill="#8C92B0" d="M105.941,239.814c-0.028-0.001-0.058-0.006-0.086-0.014l0.058-0.219c0.297,0.075,0.605-0.641,0.716-1
					l0.217,0.066C106.806,238.775,106.465,239.838,105.941,239.814z"/>
			</g>
			<g>
				<path fill="#CCDEFB" d="M110.555,239.45c-0.061,0.007-0.123,0.008-0.187,0.001l-0.99-0.101
					c-0.422-0.043-0.765-0.385-0.781-0.777l-0.015-0.375c-0.008-0.191,0.063-0.369,0.198-0.501c0.153-0.148,0.372-0.221,0.602-0.196
					l0.99,0.101c0.422,0.044,0.765,0.386,0.781,0.778l0.015,0.374c0.008,0.191-0.062,0.369-0.198,0.501
					C110.86,239.362,110.714,239.43,110.555,239.45z M109.224,237.93c-0.066,0.009-0.124,0.034-0.165,0.074
					c-0.042,0.04-0.062,0.093-0.059,0.155l0.015,0.375c0.008,0.185,0.206,0.365,0.424,0.388l0.99,0.102
					c0.106,0.01,0.202-0.017,0.261-0.074c0.042-0.041,0.062-0.094,0.059-0.156l-0.015-0.375c-0.007-0.184-0.206-0.365-0.424-0.387
					l-0.99-0.102C109.287,237.926,109.254,237.927,109.224,237.93z"/>
			</g>
		</g>
		<g>
			<g>
				<path fill="#FEBFBF" d="M105.834,242.458c-0.314-0.163-0.986-1.655-0.986-1.655l0.211,3.666c0,0-0.387,0.279-0.424,0.328
					c-0.039,0.049-0.246-0.158-0.286-0.301c-0.04-0.142-0.939-3.642-0.813-6.382c-0.398-2.057,0.199-10.413,0.431-11.327
					s0.573-8.167,0.973-9.873c0.404-1.703,1.652-1.729,1.652-1.729l-0.113,3.666c0,0-0.019,1.512-0.044,3.471
					c-0.043,3.51-0.111,8.455-0.145,8.707c-0.05,0.395-1.281,6.829-1.281,6.829s0.036,0.047,0.091,0.128
					c0.094,0.135,0.243,0.365,0.381,0.654c0.224,0.47,0.242,1.613,0.225,1.818c-0.017,0.206,0.676,1.441,0.723,1.705
					C106.476,242.427,106.148,242.624,105.834,242.458z"/>
				
					<linearGradient id="SVGID_1_" gradientUnits="userSpaceOnUse" x1="1201.3354" y1="300.9805" x2="1203.0952" y2="300.9805" gradientTransform="matrix(0.9965 0.0836 -0.0836 0.9965 -1067.3761 -170.1389)">
					<stop  offset="0.1224" style="stop-color:#FCA4B5"/>
					<stop  offset="0.9896" style="stop-color:#FFADB7"/>
				</linearGradient>
				<path fill="url(#SVGID_1_)" d="M106.291,231.029c-0.05,0.395-1.281,6.829-1.281,6.829s0.036,0.047,0.091,0.128l-0.252,0.309
					l0.765-5.782c0,0,0.09-4.387-0.026-5.052c-0.116-0.668-0.439-3.844-0.439-3.844l1.288-1.295
					C106.392,225.832,106.324,230.777,106.291,231.029z"/>
				<path fill="#444355" d="M106.509,225.061c0,0-1.663-0.586-2.265-1c-0.603-0.414-0.548-0.858-0.548-0.858s0.443-5.47,1.01-7.03
					c0.771-2.125,3.783-2.188,3.783-2.188L106.509,225.061z"/>
				<path fill="#504F60" d="M118.756,237.128c0,0-0.222,0.129-0.609,0.316c-1.153,0.56-4.996,0.933-7.504,0.722
					c-3.352-0.281-4.919-1.493-4.919-1.493s0.551-6.725,0.532-8.594c-0.02-1.87-0.748-4.317-0.825-6.79
					c-0.077-2.473,0.15-5.814,0.834-6.366c1.678-1.356,4.404-1.029,5.221-1.169c0.815-0.139,2.484-0.569,3.245-0.039
					c0.761,0.531,5.278,2.606,5.597,3.324c0.526,1.182-0.25,2.693-0.628,4.715c-0.231,1.224-0.471,2.449-0.605,3.328
					C118.746,227.412,117.942,233.428,118.756,237.128z"/>
				
					<linearGradient id="SVGID_2_" gradientUnits="userSpaceOnUse" x1="597.6313" y1="226.0879" x2="603.5327" y2="226.0879" gradientTransform="matrix(0.9961 -0.0885 0.0885 0.9961 -505.7195 44.0559)">
					<stop  offset="0.1224" style="stop-color:#FEC7C7"/>
					<stop  offset="0.9694" style="stop-color:#FFADB7"/>
				</linearGradient>
				<path fill="url(#SVGID_2_)" d="M115.277,214.277c0,0-0.013-0.367-0.752-0.422c-0.74-0.055-4.217,0.024-4.507,0.3
					c-0.664,0.632-0.688,3.109,0.455,4.424c2.052-1.212,3.716-2.035,4.406-3.139C115.57,214.338,115.277,214.277,115.277,214.277z"
					/>
				<path fill="#DDE8F6" d="M118.756,237.128c0,0-0.222,0.129-0.609,0.316l-0.035-0.933l-0.997-1.955l0.487-3.253l0.567-2.477
					l0.122-4.538c0,0-0.475-0.336-1.079-1.74c-0.603-1.405,0.04-2.303,0.039-2.412c0,0,1.126,0.477,2.45,1.617
					c-0.231,1.224-0.471,2.449-0.605,3.328C118.746,227.412,117.942,233.428,118.756,237.128z"/>
				<path fill="#FEBFBF" d="M124.042,226.742c0,0-3.138,6.482-3.842,6.838c-0.705,0.356-2.183-0.884-2.183-0.884l-0.505,0.451
					l-0.643,0.246l-1.403,0.335l-1.495,0.809l0.256,0.358c0,0-0.739,0.456-0.754,0.637c-0.015,0.181,0.111,0.386,0.188,0.393
					c0.077,0.006,0.21,0.055,0.21,0.055l0.242,0.593l0.589-0.067c0,0,0.095,0.255,0.41,0.372s1.374,0.166,1.79,0.007
					s1.768-0.198,1.768-0.198s0.489,0.051,2.06-0.739c1.571-0.789,7.86-7.37,7.238-8.486S124.042,226.742,124.042,226.742z"/>
				<path fill="#FEBFBF" d="M116.739,234.471l-0.953,0.075l-2.014,0.663l0.455-0.313l-0.098-0.138c0,0,0.664,0.029,0.799-0.024
					c0.134-0.054,1.116-0.321,1.116-0.321l0.701-0.006L116.739,234.471z"/>
				<polygon fill="#FEBFBF" points="116.982,235.282 115.331,235.48 113.66,235.925 113.896,236.045 114.72,235.806 				"/>
				<path fill="#FEBFBF" d="M117.203,236.053c0,0-1.492,0.316-1.764,0.307c-0.271-0.01-1.263,0.205-1.263,0.205l0.67,0.057
					l2.154-0.316L117.203,236.053z"/>
				<path fill="#FEBFBF" d="M119.723,217.61c0,0-2.431-0.411-2.277,2.715c0.153,3.126,7.991,8.038,8.916,8.142
					c0.926,0.104,1.819-0.651,1.577-1.476c-0.242-0.825-3.021-4.509-4.806-6.423C121.348,218.655,120.728,217.694,119.723,217.61z"
					/>
				<path fill="#444355" d="M124.617,221.779c0,0-0.877,0.881-1.451,1.676c-0.252,0.349-1.705,2.188-1.705,2.188l-3.683-2.906
					c0,0-1.278-1.392-0.427-3.95s2.721-2.001,2.721-2.001L124.617,221.779z"/>
			</g>
			<g>
				<path fill="#E65E5E" d="M118.55,206.128c0,0,0.86-0.99,0.76-1.308c-0.1-0.317-0.628-1.199-1.402-1.25
					c-0.774-0.051-2.385,0.014-2.385,0.014l0.99,1.739L118.55,206.128z"/>
				
					<linearGradient id="SVGID_3_" gradientUnits="userSpaceOnUse" x1="1210.1675" y1="285.002" x2="1207.1866" y2="280.4775" gradientTransform="matrix(0.9965 0.0836 -0.0836 0.9965 -1067.3761 -170.1389)">
					<stop  offset="0.1224" style="stop-color:#FEC7C7"/>
					<stop  offset="0.9694" style="stop-color:#FFADB7"/>
				</linearGradient>
				<path fill="url(#SVGID_3_)" d="M109.914,212.961c0,0,0.208,1.021,0.039,1.803s-0.59,0.902-0.185,1.195
					c0.406,0.293,1.648,0.536,3.181-0.01s2.105-1.381,2.198-1.666c0.094-0.287-0.366-1-0.366-1s-0.353-1.153-0.116-2.535
					c0.237-1.381,1.733-2.933,1.289-3.61c-0.445-0.677-4.048-1.429-5.194,0.066S109.914,212.961,109.914,212.961z"/>
				<path fill="#FEC7C7" d="M114.243,210.147c-0.242,0.862-0.566,1.662-0.85,2.122c-0.715,1.163-3.71,2.277-4.646,1.541
					c-0.43-0.339-0.592-1.575-0.643-2.843c-0.059-1.494,0.04-3.032,0.042-3.191c0.003-0.292,0.336-1.41,0.336-1.41
					s5.05-0.634,5.83,0.386C114.783,207.368,114.61,208.83,114.243,210.147z"/>
				<path fill="#5C5B6B" d="M113.498,209.911c-0.242,0.862,0.179,1.898-0.104,2.358c-0.715,1.163-3.71,2.277-4.646,1.541
					c-0.43-0.339-0.592-1.575-0.643-2.843l0.601,0.405l0.877,0.281c0,0,2.547,0.394,2.794,0.047
					c0.249-0.346,0.661-1.631,0.661-1.631L113.498,209.911z"/>
				<g>
					<path fill="#754554" d="M111.188,209.071c-0.679-0.36-1.792-0.278-1.803-0.278l-0.012-0.159
						c0.046-0.003,1.168-0.086,1.89,0.296L111.188,209.071z"/>
				</g>
				<g>
					<path fill="#754554" d="M108.713,208.472c-0.005-0.005-0.478-0.462-0.745-0.552l0.052-0.15
						c0.301,0.101,0.783,0.567,0.804,0.588L108.713,208.472z"/>
				</g>
				<g>
					
						<linearGradient id="SVGID_4_" gradientUnits="userSpaceOnUse" x1="1141.6509" y1="280.2148" x2="1140.6738" y2="280.4804" gradientTransform="matrix(0.9978 0.0661 -0.0661 0.9978 -1011.5397 -145.2515)">
						<stop  offset="0.1224" style="stop-color:#FEC7C7"/>
						<stop  offset="0.9896" style="stop-color:#FFDBDB"/>
					</linearGradient>
					<path fill="url(#SVGID_4_)" d="M108.941,208.418c0.071,0.366-0.867,2.131-0.879,2.318c-0.012,0.187,0.946,0.449,1.345,0.428
						L108.941,208.418z"/>
					
						<linearGradient id="SVGID_5_" gradientUnits="userSpaceOnUse" x1="1140.6519" y1="280.2109" x2="1142.0757" y2="280.2109" gradientTransform="matrix(0.9978 0.0661 -0.0661 0.9978 -1011.5397 -145.2515)">
						<stop  offset="0.188" style="stop-color:#FFDCDC"/>
						<stop  offset="0.8991" style="stop-color:#FEC7C7"/>
					</linearGradient>
					<path fill="url(#SVGID_5_)" d="M109.304,211.211c-0.391-0.016-1.069-0.197-1.242-0.372c-0.034-0.034-0.05-0.071-0.048-0.106
						c0.005-0.072,0.101-0.284,0.283-0.684c0.254-0.558,0.639-1.401,0.597-1.621l0.095-0.018c0.044,0.23-0.248,0.896-0.604,1.679
						c-0.133,0.291-0.271,0.592-0.274,0.65c0,0.005,0.005,0.017,0.021,0.032c0.155,0.157,0.913,0.366,1.274,0.345l0.005,0.096
						C109.378,211.214,109.342,211.213,109.304,211.211z"/>
				</g>
				<path fill="#FEBFBF" d="M109.722,212.407c0,0-1.162,0.19-1.333-0.485C108.711,211.762,109.722,212.407,109.722,212.407z"/>
				<circle fill="#FFFFFF" cx="110.395" cy="209.453" r="0.287"/>
				
					<ellipse transform="matrix(0.9959 -0.0907 0.0907 0.9959 -18.4811 10.6998)" fill="#FFFFFF" cx="108.543" cy="208.79" rx="0.183" ry="0.252"/>
				<path fill="#444355" d="M113.524,209.95l-0.487,0.12c0,0,0.021-1.162-0.331-1.56c-0.352-0.396-1.158-1.251-1.158-1.251
					l2.272-0.944l2.709-0.472l0.429,1.343c0,0-0.269,1.45-0.712,2.146c-0.443,0.696-1.068,1.05-1.362,1.528
					c-0.219,0.355-0.333,0.695-0.299,0.692c0,0-0.045-0.456,0.065-0.807c0.181-0.573,0.528-1.188,0.323-1.481
					c-0.332-0.471-0.792-0.57-0.962-0.34C113.841,209.156,113.524,209.95,113.524,209.95z"/>
				<path fill="#444355" d="M114.586,211.554l0.012,0.604c0,0,0.511-1.1,0.73-1.319c0.22-0.221,0.855-1.208,0.986-1.619
					c0.13-0.411-0.998-0.177-0.998-0.177l-0.729,2.053L114.586,211.554z"/>
				<path fill="#F26363" d="M117.23,205.979l0.201-0.16c0,0-0.579-1.438-1.908-2.234c-1.329-0.796-3.691-0.866-4.35-0.824
					c-0.659,0.043-1.631,0.635-1.746,1.059c-0.114,0.424-0.768,1.159-0.796,1.588s2.35,1.814,2.35,1.814
					S116.364,207.579,117.23,205.979z"/>
				<path fill="#E65E5E" d="M114.336,206.373c0,0-1.75-0.427-2.135-0.625s-1.174-0.789-1.174-0.789S111.793,206.171,114.336,206.373
					z"/>
				<path fill="#F76565" d="M116.96,207.187c0,0-0.85,0.583-2.137,0.705c-1.286,0.122-3.049,0.402-4.532,0.097
					c-1.483-0.306-2.177-1.043-2.177-1.043s0.021-1.086,0.247-1.383c0.227-0.296,0.227-0.296,0.227-0.296s1.464,1.1,2.181,1.233
					c0.716,0.134,4.552,0.129,5.432-0.383c0.538-0.313,0.937-0.377,1.166-0.379c0.146-0.002,0.223,0.021,0.223,0.021l-0.163,0.368
					L116.96,207.187z"/>
				<path fill="#E65E5E" d="M112.214,206.077c0,0-2.677-0.787-3.165-1.249C109.565,204.865,112.214,206.077,112.214,206.077z"/>
				<path fill="#E65E5E" d="M114.094,206.513c0,0-2.535,0.071-2.93,0.029s-1.096-0.321-1.096-0.321l-1.173-0.732
					c0,0,1.173,0.637,2.044,0.79C111.811,206.431,114.094,206.513,114.094,206.513z"/>
				<path fill="#E65E5E" d="M114.57,207.547c0,0-1.731,0.316-2.213,0.285c-0.481-0.032-3.457-0.748-3.457-0.748l3.725,0.627
					L114.57,207.547z"/>
				<path fill="#F26363" d="M118.149,204.623c0,0-0.481-0.551-0.74-1.086c-0.258-0.536-0.623-1.095-1.136-0.749
					s0.125,1.148,0.125,1.148l1.35,1.005L118.149,204.623z"/>
				<path fill="#F26363" d="M116.388,206.438c0,0,0.479,0.255,0.61,0.663c0.131,0.408,0.065,0.87,0.065,0.87s1.38,0.281,1.583-0.431
					c0.202-0.712-0.052-1.299-0.052-1.299l-0.149-0.874l-1.393-0.596l-0.199,0.687l-0.274,0.539l-0.532,0.192L116.388,206.438z"/>
				
					<linearGradient id="SVGID_6_" gradientUnits="userSpaceOnUse" x1="1146.4595" y1="280.0059" x2="1147.9702" y2="280.0059" gradientTransform="matrix(0.9978 0.0661 -0.0661 0.9978 -1011.5397 -145.2515)">
					<stop  offset="0.1224" style="stop-color:#FEB9B8"/>
					<stop  offset="1" style="stop-color:#FFDEDE"/>
				</linearGradient>
				<path fill="url(#SVGID_6_)" d="M114.232,209.077c0,0,0.555-0.645,1.085-0.034c0.53,0.609-0.853,1.999-1.14,2.088
					c-0.288,0.088-0.406-0.654-0.274-0.815C114.034,210.154,114.232,209.077,114.232,209.077z"/>
				
					<linearGradient id="SVGID_7_" gradientUnits="userSpaceOnUse" x1="655.5327" y1="236.5752" x2="656.7573" y2="236.5752" gradientTransform="matrix(0.9974 -0.0725 0.0725 0.9974 -557.0488 21.4885)">
					<stop  offset="0.1224" style="stop-color:#FCA4B5"/>
					<stop  offset="0.9896" style="stop-color:#FFADB7"/>
				</linearGradient>
				<path fill="url(#SVGID_7_)" d="M114.332,209.223c0,0,0.708-0.328,0.781,0.081s-0.594,1.28-0.744,1.338
					c-0.149,0.057-0.393-0.098-0.393-0.098L114.332,209.223z"/>
				<path fill="#444355" d="M113.37,209.568c0.017-0.001,0.19,0.599,0.885,0.973c-0.58-0.574-0.723-1.345-0.723-1.345
					s0.497,0.578,0.673,0.667c0.175,0.09,0.314,0.091,0.314,0.091l-0.315-0.215c0,0-0.404-0.422-0.398-0.774s-0.214-0.42-0.214-0.42
					L113.37,209.568z"/>
			</g>
		</g>
	</g>
	<g>
		<g>
			<polygon fill="#858AAB" points="110.156,231.864 109.51,231.686 109.64,228.549 110.281,228.725 			"/>
			<polygon fill="#858AAB" points="110.961,231.982 110.315,231.804 110.439,228.664 111.081,228.84 			"/>
			<path fill="#858AAB" d="M110.716,221.399c0,0-3.458-1.016-3.465,3.694c-0.005,3.675,1.648,3.975,1.671,4.506
				c0.023,0.534,0.363,0.955,0.605,1.262c0.242,0.308,0.801,0.339,0.801,0.339L110.716,221.399z"/>
			<path fill="#858AAB" d="M110.716,221.399c0,0,3.487,0.48,3.124,5.126c-0.283,3.625-1.902,3.062-1.967,3.574
				c-0.064,0.515-0.432,0.78-0.694,0.978c-0.261,0.196-0.851,0.123-0.851,0.123L110.716,221.399z"/>
		</g>
		<path fill="#504F60" d="M109.16,224.24c0,0-1.53-0.269-1.379,1.44c0.153,1.722,1.812,1.042,1.985,0.66
			C109.938,225.96,110.294,224.507,109.16,224.24z"/>
		<path fill="#504F60" d="M111.885,224.953c0,0,1.515,0.528,1.09,2.09c-0.428,1.573-1.909,0.066-2.013-0.389
			C110.858,226.201,110.753,224.627,111.885,224.953z"/>
		<path fill="#504F60" d="M110.011,229.129c0,0,0.58,0.312,0.632-0.313c0.053-0.622-0.092-1.276-0.253-1.43
			C110.229,227.232,109.356,228.949,110.011,229.129z"/>
	</g>
</g>
</svg>
