<?xml version="1.0" encoding="utf-8"?>
<!-- Generator: Adobe Illustrator 16.0.0, SVG Export Plug-In . SVG Version: 6.00 Build 0)  -->
<!DOCTYPE svg PUBLIC "-//W3C//DTD SVG 1.1//EN" "http://www.w3.org/Graphics/SVG/1.1/DTD/svg11.dtd">
<svg version="1.1" id="Layer_1" xmlns="http://www.w3.org/2000/svg" xmlns:xlink="http://www.w3.org/1999/xlink" x="0px" y="0px"
	 width="463.683px" height="425.749px" viewBox="0 0 463.683 425.749" enable-background="new 0 0 463.683 425.749"
	 xml:space="preserve">
<g>
	<path fill="#6A3646" d="M221.468,293.878c0,0,1.295-1.126,2.694-0.007c1.221,0.977,0.775,4.038,0.546,5.268
		c-0.248,1.322-0.144,4.564,1.947,4.326c-0.174,1.095-2.76,0.743-3.589,0.41C222.238,303.543,218.915,297.311,221.468,293.878z"/>
	<path fill="#D7E4F2" d="M212.026,361.189c4.216,2.683,11.25,2.974,15.709,0.649c4.46-2.325,4.657-6.384,0.44-9.067
		c-4.216-2.684-11.25-2.975-15.709-0.65C208.007,354.446,207.81,358.506,212.026,361.189z"/>
	<g>
		<g>
			
				<linearGradient id="SVGID_1_" gradientUnits="userSpaceOnUse" x1="1330.7114" y1="401.6846" x2="1336.1353" y2="401.6846" gradientTransform="matrix(0.9991 0.0431 -0.0431 0.9991 -1096.9154 -105.6812)">
				<stop  offset="0.1224" style="stop-color:#FEC7C7"/>
				<stop  offset="0.9694" style="stop-color:#FFADB7"/>
			</linearGradient>
			<path fill="url(#SVGID_1_)" d="M219.88,350.047c0,0,1.067,1.019,0.877,1.591c-0.191,0.571-2.601,4.038-3.788,4.39
				c-2.47,0.733-1.786-1.456-1.361-1.893c0.375-0.385,1.844-1.423,1.882-2.473C217.54,350.248,219.88,350.047,219.88,350.047z"/>
			<path fill="#8E8E8E" d="M219.456,353.371c0,0,0.4,0.158,0.391,0.469c-0.011,0.312-0.031,1.483-0.031,1.483
				s0.267,0.16,0.423,0.097c0.157-0.064,0.393-0.421,0.393-0.421s0.331-2.29,0.472-2.751
				C221.242,351.787,219.456,353.371,219.456,353.371z"/>
			<path fill="#DDE8F6" d="M220.915,350.764c0,0-1.726,1.863-2.435,3.115s-1.433,1.732-1.948,1.685
				c-0.822-0.076-1.329-0.61-1.126-1.02c0.202-0.409,0.202-0.409,0.202-0.409s-2.223,2.098-2.023,3.499
				c0.199,1.402,3.981-0.315,4.581-1.005c0.229-0.264,0.763-2.248,1.273-2.793c0.513-0.545,1.248-0.261,1.618-1.412
				S220.915,350.764,220.915,350.764z"/>
			<path fill="#8E8E8E" d="M219.557,353.565c-0.512,0.546-1.247,2.62-1.476,2.883c-0.558,0.642-3.883,2.132-4.498,1.161
				c0.001,0.008,0,0.017,0.001,0.024c0.199,1.402,3.981-0.315,4.581-1.005c0.229-0.263,0.763-2.248,1.273-2.793
				c0.446-0.475,1.287-0.271,1.55-1.227C220.633,352.828,219.928,353.17,219.557,353.565z"/>
		</g>
		<g>
			<path fill="#8E8E8E" d="M224.269,354.721c0,0,0.596-0.178,0.59,0.133c-0.006,0.312-0.092,2.251-0.092,2.251
				s0.138,0.134,0.293,0.067c0.156-0.066,0.386-0.427,0.386-0.427s0.243-1.895,0.234-2.376
				C225.669,353.797,224.269,354.721,224.269,354.721z"/>
			<path fill="#FEBBC0" d="M224.433,351.99c0,0,0.889,0.72,0.871,1.646c-0.018,0.91-1.163,4.603-2.327,5.026
				c-1.163,0.423-2.327-0.333-2.23-0.861c0.098-0.528,1.132-2.162,1.417-3.458C222.468,352.96,224.433,351.99,224.433,351.99z"/>
			<path fill="#DDE8F6" d="M222.16,353.806c0,0-0.88,1.646-1.262,2.768c-0.835,2.446-0.795,3.516-0.615,4.099
				c0.187,0.607,1.944,0.064,3.193-0.955c1.431-1.17,0.809-2.572,1.686-3.99c0.284-0.46,0.548-0.795,0.543-1.893
				c0.012-0.932-0.813-1.318-0.813-1.318s0.624,0.944,0.292,1.732c-0.168,0.397-0.105,0.569-0.357,1.065
				c-0.501,0.987-0.585,1.953-1.304,2.667c-0.676,0.671-2.674,0.258-2.619-0.139c0.1-0.732,0.742-1.967,0.997-2.652
				C222.205,354.371,222.16,353.806,222.16,353.806z"/>
			<path fill="#8E8E8E" d="M225.102,355.621c-0.876,1.418-0.215,2.729-1.646,3.898c-1.155,0.944-2.85,1.506-3.202,1.061
				c0.01,0.031,0.019,0.063,0.028,0.092c0.187,0.607,1.944,0.064,3.193-0.955c1.431-1.17,0.809-2.572,1.686-3.99
				c0.186-0.301,0.469-0.599,0.498-1.189C225.5,354.854,225.24,355.398,225.102,355.621z"/>
		</g>
		
			<linearGradient id="SVGID_2_" gradientUnits="userSpaceOnUse" x1="1330.8892" y1="391.0039" x2="1336.6382" y2="391.0039" gradientTransform="matrix(0.9991 0.0431 -0.0431 0.9991 -1096.9154 -105.6812)">
			<stop  offset="0.1224" style="stop-color:#FEC7C7"/>
			<stop  offset="0.9694" style="stop-color:#FFADB7"/>
		</linearGradient>
		<path fill="url(#SVGID_2_)" d="M220.355,351.102c0,0,0,0.585-0.492,0.801c-0.502,0.223-1.19,0.302-2.348-0.45
			c0,0-0.377-14.463-1.178-18.69l3.447,6.082l1.447,0.052h0.002c0,0,0.597,4.638,0.238,7.072
			C221.112,348.404,220.355,351.102,220.355,351.102z"/>
		
			<linearGradient id="SVGID_3_" gradientUnits="userSpaceOnUse" x1="1329.5337" y1="378.8008" x2="1336.2114" y2="378.8008" gradientTransform="matrix(0.9991 0.0431 -0.0431 0.9991 -1096.9154 -105.6812)">
			<stop  offset="0.1224" style="stop-color:#FEC7C7"/>
			<stop  offset="0.9694" style="stop-color:#FFADB7"/>
		</linearGradient>
		<path fill="url(#SVGID_3_)" d="M221.296,338.735c-0.017,0.056-0.037,0.108-0.063,0.16h-0.002c-0.214,0.451-0.678,0.72-1.211,0.838
			c-1.054,0.234-2.378-0.122-2.607-0.827c-0.014-0.043-0.028-0.095-0.047-0.152c-0.416-1.383-1.302-7.197-1.859-11.52
			c-0.581-4.505,0.542-6.655,0.542-6.655l5.5,0.999c0,0,0.048,2.655,0.065,5.84C221.637,331.779,221.576,337.855,221.296,338.735z"
			/>
		
			<linearGradient id="SVGID_4_" gradientUnits="userSpaceOnUse" x1="1332.5288" y1="387.5254" x2="1336.6382" y2="387.5254" gradientTransform="matrix(0.9991 0.0431 -0.0431 0.9991 -1096.9154 -105.6812)">
			<stop  offset="0.1224" style="stop-color:#FCA4B5"/>
			<stop  offset="0.9896" style="stop-color:#FFADB7"/>
		</linearGradient>
		<path fill="url(#SVGID_4_)" d="M220.355,351.102c0,0,0,0.585-0.492,0.801c0.371-2.412,0.974-6.535,0.872-7.383
			c-0.065-0.57-0.209-3.362-0.364-4.706c-1.055-9.123-0.93-11.954-0.93-11.954l-1.174-1.789l3.348,1.348
			c0.022,4.361-0.039,10.438-0.318,11.317c-0.017,0.056-0.037,0.108-0.063,0.16c0,0,0.597,4.638,0.238,7.072
			C221.112,348.404,220.355,351.102,220.355,351.102z"/>
		
			<linearGradient id="SVGID_5_" gradientUnits="userSpaceOnUse" x1="1331.5698" y1="379.542" x2="1341.5679" y2="379.542" gradientTransform="matrix(0.9991 0.0431 -0.0431 0.9991 -1096.9154 -105.6812)">
			<stop  offset="0.1224" style="stop-color:#FEC7C7"/>
			<stop  offset="0.9694" style="stop-color:#FFADB7"/>
		</linearGradient>
		<path fill="url(#SVGID_5_)" d="M218.15,323.438l-0.769,0.901c0,0-0.066,1.111,2.392,2.961c0.015,2.608,0.98,10.944,1.79,12.931
			c0.811,1.986,3.315,0.444,3.739-1.864s1.779-9.596,1.941-11.376c0.163-1.78,0.276-4.44-0.957-5.489
			C225.053,320.452,218.15,323.438,218.15,323.438z"/>
		<path fill="#ECF2FA" d="M226.083,320.089c-1.401-2.439-6.378-2.199-8.729-1.646c-0.564,0.132-1.074,1.265-1.074,1.265
			s-1.091,2.884-0.966,5.286c0.126,2.403,0.332,4.435,1.023,9.958c6.933,3.29,9.69,0.959,9.69,0.959
			C226.705,330.811,228.955,325.086,226.083,320.089z"/>
		<path fill="#FEBBC0" d="M222.412,353.731c0.461-1.615-0.188-10.938-0.849-13.5c3.404-1.981,3.839-2.365,3.839-2.365
			s0.705,6.604,0.657,7.912s-0.89,7.759-0.89,7.759S224.079,355.408,222.412,353.731z"/>
	</g>
	<g>
		<path fill="#FEBFBF" d="M216.932,303.046c0,0-0.743,0.386-1.057,2.183c-0.314,1.797-0.818,8.195-0.405,9.081
			c0.412,0.886,1.68-0.642,2.124-4.64C218.039,305.673,219.276,303.579,216.932,303.046z"/>
		<path fill="#FEBFBF" d="M214.386,322.741c0,0,0.068,0.419-0.016,0.716c-0.083,0.298-0.458,1.447-0.458,1.447
			s0.021,0.416,0.002,0.623c-0.025,0.205,0.277,1.055,0.135,1.247c-0.014,0.022-0.026,0.034-0.045,0.05h-0.006
			c-0.105,0.07-0.228-0.05-0.278-0.101l0.111,0.221c0,0,0.005,0.012-0.009,0.047c-0.008,0.029-0.029,0.081-0.076,0.161
			c-0.047,0.086-0.13,0.098-0.201,0.088c-0.076-0.011-0.14-0.044-0.14-0.044s0.013,0.077-0.004,0.159v0.006
			c-0.017,0.076-0.063,0.15-0.159,0.174c-0.061,0.014-0.147-0.015-0.245-0.063c-0.219-0.109-0.483-0.321-0.523-0.354
			c0,0.012,0.008,0.061,0.004,0.113c0.005,0.113-0.022,0.26-0.188,0.267c-0.261,0.007-0.989-1.229-0.989-1.229
			s0.08-1.453,0.107-1.695c0.021-0.235,0.95-1.25,1.263-1.988c0.319-0.738,1.834-7.561,2.285-8.978
			c0.451-1.424,0.835-1.021,0.835-1.021c0.303-0.011,1.405,1.108,1.258,2.516C216.902,316.505,214.386,322.741,214.386,322.741z"/>
		<path fill="#CBDCF5" d="M216.617,319.514c0.126-1.484,0.525-4.332,0.211-5.545c-0.334-1.289-1.42-3.431-1.308-4.35
			c0.112-0.92,0.567-2.707,0.699-3.961c0.132-1.255,0.683-2.601,1.084-2.72c0.401-0.12,4.702-1.022,5.669-0.61
			c0.969,0.412,0.789,0.432,1.788,1.002c1,0.57,2.538,1.73,2.538,1.73s0.383,1.428,0.279,2.372
			c-0.034,0.329-0.093,0.628-0.182,0.835c-0.351,0.808-1.229,7.793-1.405,9.465c-0.074,0.705-0.026,1.572,0.093,2.356
			C226.337,321.76,218.634,321.887,216.617,319.514z"/>
		
			<linearGradient id="SVGID_6_" gradientUnits="userSpaceOnUse" x1="1406.1929" y1="352.0693" x2="1401.5037" y2="355.2136" gradientTransform="matrix(0.998 0.0629 -0.0629 0.998 -1157.5242 -137.1323)">
			<stop  offset="0.1224" style="stop-color:#FEC7C7"/>
			<stop  offset="0.9694" style="stop-color:#FFADB7"/>
		</linearGradient>
		<path fill="url(#SVGID_6_)" d="M223.197,302.226c0.124,0.001,0.368,0.426,0.897,0.737c0.467,0.275,0.702,0.299,0.063,0.93
			c-0.639,0.632-2.894,3.429-4.405,3.165c-1.511-0.263-1.49-1.726-1.453-2.311s0.878-1.947,1.163-2.085
			C219.746,302.523,223.197,302.226,223.197,302.226z"/>
		
			<linearGradient id="SVGID_7_" gradientUnits="userSpaceOnUse" x1="1405.0942" y1="350.7549" x2="1402.6047" y2="354.0578" gradientTransform="matrix(0.998 0.0629 -0.0629 0.998 -1157.5242 -137.1323)">
			<stop  offset="0.1224" style="stop-color:#FEC7C7"/>
			<stop  offset="0.9694" style="stop-color:#FFADB7"/>
		</linearGradient>
		<path fill="url(#SVGID_7_)" d="M219.1,302.256c0,0,0.286,0.605,0.25,1.167c-0.035,0.562-0.311,1.504-0.311,1.504
			s0.368,0.647,1.729,0.444c1.361-0.201,1.392-0.68,1.816-0.94c0.424-0.261,1.497-1.426,1.424-1.503
			c-0.072-0.076-1.227-0.599-0.853-2.239c0.375-1.641,0.729-2.062,0.729-2.062s0.61-1.141,0.135-1.17
			C223.544,297.427,219.1,302.256,219.1,302.256z"/>
		
			<linearGradient id="SVGID_8_" gradientUnits="userSpaceOnUse" x1="1401.564" y1="352.4473" x2="1404.6675" y2="352.4473" gradientTransform="matrix(0.998 0.0629 -0.0629 0.998 -1157.5242 -137.1323)">
			<stop  offset="0.1224" style="stop-color:#FCA4B5"/>
			<stop  offset="0.9896" style="stop-color:#FFADB7"/>
		</linearGradient>
		<path fill="url(#SVGID_8_)" d="M222.267,301.359c0,0-1.126,1.133-1.352,1.695c-0.226,0.561-1.331,1.354-1.331,1.354l-0.236-1.218
			l-0.248-0.936L222.267,301.359z"/>
		<path fill="#DDE8F6" d="M226.173,322.715c-0.419-1.874-1.171-3.835-1.358-4.556c-0.268-1.031,0.572-3.874,0.611-4.007
			c-0.104,0.16-2.048,3.471-3.957,3.318c-1.981-0.079-1.01-8.725-1.01-8.725l1.93,2l1.969-3.906l1.563,1.71l1.57-1.437
			c-0.035,0.329-0.094,0.627-0.183,0.836c-0.351,0.807-1.229,7.791-1.405,9.464c-0.176,1.675,0.43,4.25,0.47,4.543
			C226.414,322.232,227.027,322.185,226.173,322.715z"/>
		<path fill="#FEBFBF" d="M227.474,305.363c0,0-0.175-0.527-1.002-0.223c-0.827,0.304-2.596,2.103-2.761,4.784
			C223.547,312.607,227.463,306.744,227.474,305.363z"/>
		<path fill="#FEBFBF" d="M227.291,305.318c0,0-0.685-0.674-1.859,0.728c-1.174,1.401-2.874,8.107-3.049,8.699
			c-0.174,0.591,0.101,2.163,1.097,1.69c0.997-0.473,3.045-4.969,3.433-5.756C227.299,309.894,228.47,306.011,227.291,305.318z"/>
		<path fill="#FEC7C7" d="M217.442,295.318c0,0-0.556,0.82-0.674,1.482c-0.117,0.662-0.134,1.273-0.134,1.273
			s0.137,0.424,0.079,0.972s0.763,3.848,1.515,4.252c0.939,0.11,2.94-0.835,3.546-1.325c0.604-0.49,1.053-4.415,1.014-4.672
			c-0.039-0.256-0.191-1.44-1.062-1.977C220.856,294.787,217.442,295.318,217.442,295.318z"/>
		<g>
			
				<linearGradient id="SVGID_9_" gradientUnits="userSpaceOnUse" x1="1400.2935" y1="349.792" x2="1399.2151" y2="350.4251" gradientTransform="matrix(0.998 0.0629 -0.0629 0.998 -1157.5242 -137.1323)">
				<stop  offset="0.1224" style="stop-color:#FEC7C7"/>
				<stop  offset="0.9896" style="stop-color:#FFDBDB"/>
			</linearGradient>
			<path fill="url(#SVGID_9_)" d="M217.631,298.897c0.052,0.495-0.64,1.661-0.604,2.002s1.245,0.293,1.245,0.293L217.631,298.897z"
				/>
			
				<linearGradient id="SVGID_10_" gradientUnits="userSpaceOnUse" x1="1399.3608" y1="349.8301" x2="1400.6743" y2="349.8301" gradientTransform="matrix(0.998 0.0629 -0.0629 0.998 -1157.5242 -137.1323)">
				<stop  offset="0.188" style="stop-color:#FFDCDC"/>
				<stop  offset="0.8991" style="stop-color:#FEC7C7"/>
			</linearGradient>
			<path fill="url(#SVGID_10_)" d="M217.889,301.235c-0.374-0.017-0.879-0.084-0.906-0.331c-0.018-0.166,0.114-0.485,0.267-0.855
				c0.171-0.416,0.365-0.888,0.338-1.146l0.088-0.01c0.029,0.282-0.16,0.744-0.344,1.189c-0.142,0.345-0.275,0.67-0.26,0.813
				c0.023,0.218,0.747,0.271,1.199,0.253l0.003,0.088C218.231,301.238,218.077,301.244,217.889,301.235z"/>
		</g>
		
			<ellipse transform="matrix(0.9946 0.1034 -0.1034 0.9946 32.1447 -21.0588)" fill="#FFFFFF" cx="219.198" cy="299.527" rx="0.335" ry="0.255"/>
		<path fill="#FFFFFF" d="M217.036,299.016c-0.108-0.071-0.159-0.206-0.113-0.301s0.172-0.114,0.28-0.043
			c0.109,0.071,0.16,0.206,0.114,0.301C217.27,299.067,217.145,299.087,217.036,299.016z"/>
		<g>
			<path fill="#754554" d="M219.976,299.008c-1.107-0.232-1.693-0.139-1.697-0.138l-0.025-0.146c0.025-0.005,0.614-0.1,1.753,0.138
				L219.976,299.008z"/>
		</g>
		<g>
			<path fill="#754554" d="M217.318,298.58c-0.159-0.106-0.617-0.387-0.82-0.408l0.016-0.147c0.281,0.03,0.862,0.416,0.887,0.433
				L217.318,298.58z"/>
		</g>
		<path fill="#FB7F9E" d="M218.872,302.074c0,0-0.384,0.357-0.778,0.369c-0.396,0.011-0.517-0.602-0.517-0.602
			S217.845,301.559,218.872,302.074z"/>
		
			<linearGradient id="SVGID_11_" gradientUnits="userSpaceOnUse" x1="1397.231" y1="373.6045" x2="1397.2661" y2="373.6045" gradientTransform="matrix(0.998 0.0629 -0.0629 0.998 -1157.5242 -137.1323)">
			<stop  offset="0.1224" style="stop-color:#FCA4B5"/>
			<stop  offset="0.9896" style="stop-color:#FFADB7"/>
		</linearGradient>
		<path fill="url(#SVGID_11_)" d="M213.432,323.771c0.006-0.094,0.001-0.201-0.009-0.32
			C213.423,323.451,213.469,323.561,213.432,323.771z"/>
		
			<linearGradient id="SVGID_12_" gradientUnits="userSpaceOnUse" x1="1395.6089" y1="375.6279" x2="1397.5913" y2="375.6279" gradientTransform="matrix(0.998 0.0629 -0.0629 0.998 -1157.5242 -137.1323)">
			<stop  offset="0.1224" style="stop-color:#FCA4B5"/>
			<stop  offset="0.9896" style="stop-color:#FFADB7"/>
		</linearGradient>
		<path fill="url(#SVGID_12_)" d="M213.406,327.196c0,0,0.013,0.077-0.004,0.159c-0.035-0.191-0.413-0.5-0.413-0.5
			s-0.364-0.521-0.364-0.615c0.006-0.095-0.008-0.54-0.008-0.54l-0.087-0.124l-0.067,0.594l-0.125,0.384l0.243,0.472l0.416,0.447
			c-0.219-0.109-0.483-0.321-0.523-0.354c0,0.012,0.008,0.061,0.004,0.113c0,0-0.259-0.407-0.336-0.395
			c-0.078,0.019-0.342-0.027-0.342-0.027l-0.107-0.464c0,0-0.023-1.317,0.018-1.403c0.034-0.074,0.217-0.531,0.266-0.646
			c-0.019,0.193-0.179,1.429-0.17,1.654c0.015,0.238-0.041,0.649,0.041,0.768c0.087,0.117,0.276,0.041,0.323-0.057
			c0.054-0.098,0.233-0.786,0.233-0.786l0.029-0.271l0.246-0.701c0,0,0.333-0.211,0.596-0.704c0.088-0.172,0.132-0.312,0.157-0.423
			c-0.003,0.427-0.104,0.711-0.253,0.909c-0.175,0.243-0.405,0.312-0.405,0.312l-0.167,0.398l0.261-0.001l-0.186,0.125
			c0,0,0.036,0.458,0.035,0.666c-0.002,0.213,0.422,0.631,0.476,0.718c0.06,0.08,0.342,0.306,0.342,0.306l0.01,0.03
			C213.469,327.229,213.406,327.196,213.406,327.196z"/>
		
			<linearGradient id="SVGID_13_" gradientUnits="userSpaceOnUse" x1="1397.1655" y1="376.0537" x2="1398.0181" y2="376.0537" gradientTransform="matrix(0.998 0.0629 -0.0629 0.998 -1157.5242 -137.1323)">
			<stop  offset="0.1224" style="stop-color:#FCA4B5"/>
			<stop  offset="0.9896" style="stop-color:#FFADB7"/>
		</linearGradient>
		<path fill="url(#SVGID_13_)" d="M213.72,326.724l0.111,0.221c0,0,0.005,0.012-0.009,0.047c-0.087-0.124-0.163-0.235-0.192-0.249
			c-0.069-0.028-0.341-0.703-0.341-0.703l-0.043-0.814l0.247-0.057l-0.146,0.151l0.112,0.671l0.298,0.635l0.242,0.199
			C213.893,326.895,213.771,326.774,213.72,326.724z"/>
		<path fill="#754554" d="M221.723,299.247c0.004-0.036-0.3-1.957-0.701-2.372c-0.402-0.416-0.632-0.524-1.334-0.598
			c-0.702-0.074-1.603-0.217-1.974-0.34c-0.373-0.123-0.572-0.113-0.572-0.113s-0.34,0.712-0.394,1.093
			c0.158-1.089,0.413-2.024,1.344-2.745c0.93-0.721,1.768-1.476,4.186-0.776c2.418,0.7,2.036,3.765,1.93,4.428
			c-0.105,0.663-0.564,1.458-0.587,1.858c-0.023,0.4-0.167,0.734-0.167,0.734s0.483-1.851,0.08-1.905
			c-0.403-0.054-0.735,0.465-0.735,0.465l-0.616,1.055L221.723,299.247z"/>
		
			<linearGradient id="SVGID_14_" gradientUnits="userSpaceOnUse" x1="1404.6021" y1="349.166" x2="1406.0366" y2="349.166" gradientTransform="matrix(0.998 0.0629 -0.0629 0.998 -1157.5242 -137.1323)">
			<stop  offset="0.1224" style="stop-color:#FEB9B8"/>
			<stop  offset="1" style="stop-color:#FFDEDE"/>
		</linearGradient>
		<path fill="url(#SVGID_14_)" d="M222.429,299.132c0,0,0.487-0.59,1.059-0.529c0.571,0.06,0.207,1.119-0.17,1.614
			c-0.377,0.494-0.739,0.641-0.739,0.641S222.089,299.809,222.429,299.132z"/>
		<g>
			<g>
				<path fill="#C4C8D8" d="M223.279,298.582l1.187,1.116c0.108,0.093,0.104,0.301-0.009,0.464l-2.668,3.88
					c-0.107,0.155-0.285,0.214-0.395,0.13l-1.422-1.09c-0.114-0.088-0.119-0.29-0.01-0.451l2.693-4.004
					c0.103-0.15,0.263-0.213,0.376-0.154C223.044,298.479,223.268,298.573,223.279,298.582z"/>
				<path fill="#EFF0F5" d="M223.324,298.611l1.398,1.201c0.107,0.093,0.103,0.301-0.01,0.463l-2.667,3.88
					c-0.108,0.155-0.285,0.214-0.396,0.13l-1.421-1.089c-0.114-0.088-0.119-0.291-0.01-0.451l2.692-4.004
					C223.026,298.573,223.211,298.515,223.324,298.611z"/>
				<path fill="#54585F" d="M224.66,300.251l-0.755,1.087l-1.896,2.771c-0.09,0.13-0.239,0.18-0.33,0.109l-1.397-1.072
					c-0.096-0.074-0.099-0.244-0.008-0.379l1.912-2.851l0.764-1.124c0.095-0.141,0.25-0.188,0.344-0.107l1.374,1.178
					C224.757,299.94,224.754,300.114,224.66,300.251z"/>
				<path fill="#54585F" d="M224.66,300.251l-0.755,1.087l-1.719-1.421l0.764-1.124c0.095-0.141,0.25-0.188,0.344-0.107l1.374,1.178
					C224.757,299.94,224.754,300.114,224.66,300.251z"/>
				<path fill="#838383" d="M223.065,299.16c0.052,0.043,0.131,0.025,0.177-0.042c0.045-0.067,0.04-0.157-0.012-0.201
					c-0.051-0.044-0.13-0.025-0.176,0.042C223.008,299.025,223.013,299.115,223.065,299.16z"/>
				<path fill="#B6B3F6" d="M223.082,299.135c0.042,0.035,0.104,0.021,0.141-0.033c0.037-0.053,0.033-0.125-0.009-0.16
					c-0.041-0.035-0.104-0.02-0.141,0.033C223.037,299.028,223.041,299.1,223.082,299.135z"/>
				<path fill="#D9D8FA" d="M223.191,298.955c-0.029-0.024-0.072-0.015-0.098,0.022s-0.022,0.087,0.006,0.112
					c0.028,0.023,0.072,0.014,0.098-0.023S223.219,298.979,223.191,298.955z"/>
				<path fill="#AFACF5" d="M223.166,298.991c-0.013-0.012-0.033-0.007-0.045,0.011s-0.01,0.04,0.003,0.051
					c0.014,0.012,0.033,0.007,0.045-0.01C223.18,299.025,223.179,299.002,223.166,298.991z"/>
				<path fill="#FFE56F" d="M222.984,299.289c-0.028-0.025-0.072-0.015-0.098,0.022s-0.023,0.088,0.006,0.112
					s0.073,0.014,0.099-0.023S223.013,299.313,222.984,299.289z"/>
				<path fill="#C4C8D8" d="M223.224,300.434c-0.094-0.079-0.236-0.045-0.319,0.076c-0.082,0.121-0.073,0.283,0.021,0.362
					s0.236,0.045,0.318-0.075C223.326,300.676,223.317,300.514,223.224,300.434z"/>
			</g>
		</g>
		
			<linearGradient id="SVGID_15_" gradientUnits="userSpaceOnUse" x1="1399.8677" y1="363.8193" x2="1408.7904" y2="353.7627" gradientTransform="matrix(0.998 0.0629 -0.0629 0.998 -1157.5242 -137.1323)">
			<stop  offset="0.1224" style="stop-color:#FEB9B8"/>
			<stop  offset="1" style="stop-color:#FFDEDE"/>
		</linearGradient>
		<path fill="url(#SVGID_15_)" d="M224.111,314.544c0,0-0.938-2.667-1.134-3.714c-0.194-1.048-0.755-3.963-0.652-4.482
			c0.103-0.519,1.022-2.396,1.047-2.626c0.023-0.23-0.351-1.706-0.351-1.706l-0.134-0.174l-0.541-1.727c0,0-0.347-0.068-0.298,0.233
			s0.106,0.437,0.106,0.437s-1.057-0.4-1.139-0.385s-0.245,0.271,0.128,0.463c0.373,0.192,0.81,0.463,0.884,0.526
			c0.073,0.063,0.196,1.489,0.196,1.489s-0.792-1.318-0.841-1.389c-0.049-0.068-0.701-0.354-0.886-0.357
			c-0.184-0.004-0.317,0.047-0.318,0.207s0.87,0.573,0.87,0.573s0.493,1.119,0.431,1.249c-0.062,0.129-0.203-0.206-0.203-0.206
			l-0.784-0.78l-0.739,0.01c0,0-0.161,0.08-0.11,0.205c0.052,0.126,0.177,0.228,0.177,0.228l0.473,0.09c0,0,0.356,0.808,0.383,1.011
			c0.026,0.204-0.042,0.782-0.203,1.166c-0.16,0.385-0.138,1.006-0.043,1.248c0.096,0.242,0.202,0.446,0.171,0.668
			s-0.638,8.126,0.711,10.418c1.419,0.39,2.714-1.257,2.714-1.257S224.261,314.977,224.111,314.544z"/>
		
			<linearGradient id="SVGID_16_" gradientUnits="userSpaceOnUse" x1="1404.4731" y1="350.4453" x2="1405.0835" y2="350.4453" gradientTransform="matrix(0.998 0.0629 -0.0629 0.998 -1157.5242 -137.1323)">
			<stop  offset="0.1224" style="stop-color:#FCA4B5"/>
			<stop  offset="0.9896" style="stop-color:#FFADB7"/>
		</linearGradient>
		<path fill="url(#SVGID_16_)" d="M222.155,300.785c0,0,0.466,0.382,0.524,0.482c0.06,0.101-0.199-0.346-0.199-0.346l-0.364-0.259
			L222.155,300.785z"/>
	</g>
</g>
</svg>
