<?xml version="1.0" encoding="utf-8"?>
<!-- Generator: Adobe Illustrator 16.0.0, SVG Export Plug-In . SVG Version: 6.00 Build 0)  -->
<!DOCTYPE svg PUBLIC "-//W3C//DTD SVG 1.1//EN" "http://www.w3.org/Graphics/SVG/1.1/DTD/svg11.dtd">
<svg version="1.1" id="Layer_1" xmlns="http://www.w3.org/2000/svg" xmlns:xlink="http://www.w3.org/1999/xlink" x="0px" y="0px"
	 width="463.683px" height="425.749px" viewBox="0 0 463.683 425.749" enable-background="new 0 0 463.683 425.749"
	 xml:space="preserve">
<g>
	<path fill="#FEBFBF" d="M393.494,236.434c0,0-1.345-0.176-1.966,0.779c-0.622,0.955-1.257,2.687-1.092,5.482
		c0.165,2.795,0.209,3.521-0.099,4.659s-0.368,1.804-0.536,5.283c-0.169,3.479-0.178,4.727-0.464,5.54s-0.874,1.952-0.871,2.196
		c0.002,0.244-0.049,1.896,0.167,2.054s1.165,0.87,1.641,0.928s0.247-1.042,0.247-1.042s0.711-5.19,0.75-5.581
		c0.038-0.391,1.792-13.544,1.792-13.544L393.494,236.434z"/>
	
		<linearGradient id="SVGID_1_" gradientUnits="userSpaceOnUse" x1="-598.8208" y1="177.8755" x2="-597.5127" y2="177.8755" gradientTransform="matrix(0.9987 -0.0519 0.0519 0.9987 977.8701 52.8464)">
		<stop  offset="0.1224" style="stop-color:#FCA4B5"/>
		<stop  offset="0.9896" style="stop-color:#FFADB7"/>
	</linearGradient>
	<path fill="url(#SVGID_1_)" d="M389.37,260.242l-0.167,0.775c0,0,0.063,0.845,0.058,0.936c-0.006,0.09-0.169,0.232-0.169,0.232
		l0.382,0.26c0,0,0.009,0.29,0.302,0.372s0.651-0.147,0.651-0.147l-0.614-0.021c0,0-0.25-0.188-0.307-0.436s-0.098-1.3-0.098-1.3
		S389.524,260.514,389.37,260.242z"/>
	
		<linearGradient id="SVGID_2_" gradientUnits="userSpaceOnUse" x1="-597.7583" y1="170.9824" x2="-594.0498" y2="170.9824" gradientTransform="matrix(0.9987 -0.0519 0.0519 0.9987 977.8701 52.8464)">
		<stop  offset="0.1224" style="stop-color:#FCA4B5"/>
		<stop  offset="0.9896" style="stop-color:#FFADB7"/>
	</linearGradient>
	<path fill="url(#SVGID_2_)" d="M390.13,261.701c0,0-0.035-0.509,0.081-1.261c0.116-0.753,0.211-1.108,0.285-1.989
		c0.074-0.882,0.391-1.585,0.64-3.504c0.249-1.92,0.276-3.764,0.395-4.479c0.118-0.714-0.164-3.012-0.164-3.012l1.734-0.053
		l-1.037,9.446L390.13,261.701z"/>
	<g>
		<path fill="#D7E4F2" d="M386.476,291.47c4.29,2.729,11.444,3.025,15.981,0.661c4.536-2.365,4.737-6.494,0.448-9.225
			c-4.289-2.729-11.444-3.025-15.98-0.66C382.388,284.61,382.187,288.74,386.476,291.47z"/>
		<path fill="#504F60" d="M390.917,284.583c0,0-0.053-0.216-0.266-0.067c-0.213,0.149-1.003,0.652-1.753,1.244
			s-2.071,2.252-1.77,2.551c0.301,0.3,1.324,0.504,2.764,0.003s1.71-1.142,2.123-1.44c0.412-0.3,1.271-0.945,1.357-0.601
			c0.739-0.332,1.207-0.547,1.352-0.944s0.136-1.761-0.293-1.737C394.003,283.613,390.917,284.583,390.917,284.583z"/>
		<path fill="#FEC7C7" d="M391.497,282.681c0,0-0.226,0.603-0.311,0.872c-0.085,0.269-0.594,1.227-1.103,1.547
			c0,0.421,0.916,0.736,1.521,0.612s1.753-0.471,2.139-0.568s0.908-0.634,0.864-1.01c-0.043-0.376-0.493-1.191-0.493-1.191
			l-0.134-0.659L391.497,282.681z"/>
		<path fill="#4F5997" d="M391.687,254.819c-0.246,2.019-1.6,4.943-1.981,11.349c-0.382,6.404-0.204,6.308,0.184,6.956
			c0.389,0.649,3.245,0.939,3.945-1.104s2.011-7.276,2.509-8.275c0.498-1,0.953-8.539,0.585-9.16
			C396.561,253.965,391.687,254.819,391.687,254.819z"/>
		<path fill="#4F5997" d="M389.73,270.455c0,0-0.35-0.188-0.217,1.423c0.132,1.61,1.853,9.913,1.887,11.081
			c0.034,1.169,2.73,0.582,2.825-0.063c-0.174-3.009-0.024-3.232,0.277-5.833c0.302-2.602-1.034-6.151-1.248-6.626
			C393.041,269.961,389.73,270.455,389.73,270.455z"/>
		<path fill="#504F60" d="M399.552,282.951l-0.586,0.261c0,0-0.38,0.423-0.455,0.527c-0.074,0.104-0.617,0.955-0.79,1.545
			c-0.173,0.591-1.165,3.375-0.236,3.706c1.853,0.091,2.835-0.85,3.357-1.603c0.522-0.754,0.69-1.476,0.706-1.719
			s0.289-0.7,0.289-0.7s0.239-1.192-0.002-1.886c-0.24-0.693-0.793-0.539-0.793-0.539L399.552,282.951z"/>
		<path fill="#4F5997" d="M395.227,256.592c0,0-0.426,2.414-0.013,3.173c0.412,0.759,0.747,0.516,1.015,1.991
			c0.269,1.476,1.76,8.088,2.544,9.819c0.785,1.732,3.644,0.722,3.762-1.983c0.119-2.705,0.803-4.732,1.5-7.338
			c1.816-6.792-1.444-8.229-1.444-8.229L395.227,256.592z"/>
		<path fill="#4F5997" d="M401.538,282.158c0.224,0.763,0.314,1.373,0.013,1.854c-0.303,0.479-0.329,0.531-1.288,0.84
			c-0.959,0.31-1.925-0.223-1.885-0.328c0.032-0.105,0.119-0.539,0.421-1.472c0.079-0.243,0.145-0.499,0.211-0.769
			c0.177-0.769,0.302-1.656,0.446-2.713c0.197-1.426-0.52-7.141-0.952-8.685c-0.428-1.55,0.052-0.762,0.052-0.762l3.817-1.077
			c0,0,0.742,3.646,0.742,5.058c0,1.359-1.662,6.839-1.59,7.942c0,0,0,0.013,0,0.033
			C401.525,282.112,401.532,282.139,401.538,282.158z"/>
		<path fill="#FEC7C7" d="M401.55,284.012c-0.303,0.479-0.329,0.531-1.288,0.84c-0.959,0.31-1.925-0.223-1.885-0.328
			c0.032-0.105,0.119-0.539,0.421-1.472c0.079-0.243,0.145-0.499,0.211-0.769c0.085,0.584,0.492,0.874,1.518,0.631
			c0.88-0.217,0.985-0.703,0.998-0.834c0,0.032,0.007,0.059,0.013,0.078C401.761,282.921,401.852,283.531,401.55,284.012z"/>
	</g>
	<path fill="#DDE8F6" d="M397.9,235.594c0,0-2.742-0.283-3.066-0.032c-0.323,0.251-2.228,0.617-2.782,1.378
		c-0.555,0.76-0.653,2.869-0.781,4.019s-0.532,2.95-0.523,3.945s1.049,4.823,1.08,6.308c0.032,1.485-0.132,3.482-0.14,3.608
		s1.689,1.862,4.116,2.09s6.678-1.201,6.987-1.797c0.309-0.595-0.127-3.118-0.472-4.226c-0.346-1.107-0.339-4.326,0.155-6.392
		c0.493-2.066,1.733-4.772,1.524-5.473c-0.208-0.701-2.257-2.315-3.088-2.833C399.328,235.199,397.9,235.594,397.9,235.594z"/>
	<path fill="#A8B0C2" d="M401.508,243.113l-0.19,2.99l0.463,2.163l-0.216,1.687c0,0,0.721,3.429,0.754,4.055
		c0.032,0.625-0.456,5.44-0.456,5.44l-0.834,3.094c0,0-0.815,2.752-0.95,2.951c-0.134,0.198,0.612-0.442,0.612-0.442
		s-0.658,2.093-0.415,2.254c0.243,0.159,1.504,0.24,1.504,0.24l0.989-1.883l0.554-5.289l0.674-10.555L401.508,243.113z"/>
	
		<linearGradient id="SVGID_3_" gradientUnits="userSpaceOnUse" x1="-588.064" y1="153.1045" x2="-590.9429" y2="149.5696" gradientTransform="matrix(0.9987 -0.0519 0.0519 0.9987 977.8701 52.8464)">
		<stop  offset="0.1224" style="stop-color:#FEC7C7"/>
		<stop  offset="0.9694" style="stop-color:#FFADB7"/>
	</linearGradient>
	<path fill="url(#SVGID_3_)" d="M393.437,234.491c0.041,0.003,1.337,0.52,1.525,0.762c0.188,0.243-0.555,2.312-0.637,2.957
		s0.189,1.07,1.826,1.351c1.637,0.281,2.9-1.659,3.157-2.077c0.257-0.417,0.763-1.321,0.392-1.67
		c-0.371-0.35-0.748-0.821-0.779-0.972c-0.03-0.151,0.297-1.826,0.406-2.09c0,0,0.91-2.344,0.114-2.435
		C398.647,230.226,393.437,234.491,393.437,234.491z"/>
	
		<linearGradient id="SVGID_4_" gradientUnits="userSpaceOnUse" x1="-592.7949" y1="152.1528" x2="-588.9189" y2="152.1528" gradientTransform="matrix(0.9987 -0.0519 0.0519 0.9987 977.8701 52.8464)">
		<stop  offset="0.1224" style="stop-color:#FCA4B5"/>
		<stop  offset="0.9896" style="stop-color:#FFADB7"/>
	</linearGradient>
	<path fill="url(#SVGID_4_)" d="M393.692,234.588c0,0,1.145,0.508,1.271,0.665c0.125,0.157-0.199,1.261-0.199,1.261
		s0.386,0.418,1.234,0.078c0.85-0.339,0.51-1.321,0.714-1.539c0.203-0.218,0.837-0.928,0.837-0.928L393.692,234.588z"/>
	<path fill="#FEC7C7" d="M395.571,226.566c0,0-0.69,0.064-1.125,0.633c-0.435,0.569-0.972,1.62-0.989,1.891
		c-0.017,0.27-0.629,1.642-0.683,1.909c-0.053,0.268-0.155,3.281,0.285,3.473c0.439,0.19,3.413,0.362,4.489-0.347
		s1.584-1.87,1.789-2.255c0.206-0.385,0.03-3.308-0.524-3.958C398.257,227.262,397.761,226.543,395.571,226.566z"/>
	<path fill="#754554" d="M396.974,227.107c0,0,1.176,0.794,1.362,1.66c0.186,0.867,0.236,1.766,0.126,2.22s-0.661,1.437-0.688,1.651
		s-0.073,0.511-0.073,0.511s0.64-1.302,0.916-1.38c0.275-0.077,0.89-0.133,0.89-0.133s-0.323,1.444-0.347,1.605
		c-0.023,0.162-0.333,0.969-0.211,1.384c0.123,0.415,0.546,0.808,0.768,0.944s1.194,0.619,1.194,0.619s-0.813-1.91-0.763-2.287
		c0.052-0.377,1.412-1.293,1.4-3.438c-0.013-2.144-0.184-3.294-2.029-4.117c-0.588-0.58-1.968-0.627-2.955-0.46
		c-0.987,0.168-1.724,0.649-1.868,0.79c-0.145,0.14-0.425,0.768-0.425,0.768s0.277-0.574,0.905-0.643
		S396.312,227.065,396.974,227.107z"/>
	<g>
		<path fill="#754554" d="M396.538,229.836c-0.865-0.776-1.566-0.595-1.574-0.59l-0.04-0.141c0.031-0.01,0.781-0.213,1.712,0.623
			L396.538,229.836z"/>
	</g>
	<g>
		<path fill="#754554" d="M394.101,229.039c-0.031-0.096-0.307-0.305-0.492-0.422l0.078-0.123c0.082,0.053,0.495,0.319,0.553,0.502
			L394.101,229.039z"/>
	</g>
	<g>
		
			<linearGradient id="SVGID_5_" gradientUnits="userSpaceOnUse" x1="-592.4575" y1="147.0752" x2="-593.3494" y2="147.0752" gradientTransform="matrix(0.9987 -0.0519 0.0519 0.9987 977.8701 52.8464)">
			<stop  offset="0.1224" style="stop-color:#FEC7C7"/>
			<stop  offset="0.9896" style="stop-color:#FFDBDB"/>
		</linearGradient>
		<path fill="url(#SVGID_5_)" d="M394.248,229.239c0.013,0.231-1.451,1.526-1.474,1.76c-0.021,0.233,0.696,0.605,0.949,0.702
			L394.248,229.239z"/>
		
			<linearGradient id="SVGID_6_" gradientUnits="userSpaceOnUse" x1="-593.2876" y1="146.7168" x2="-592.168" y2="147.1466" gradientTransform="matrix(0.9987 -0.0519 0.0519 0.9987 977.8701 52.8464)">
			<stop  offset="0.188" style="stop-color:#FFDCDC"/>
			<stop  offset="0.8991" style="stop-color:#FEC7C7"/>
		</linearGradient>
		<path fill="url(#SVGID_6_)" d="M393.697,231.77c-0.01-0.004-1.027-0.432-0.995-0.777c0.012-0.125,0.231-0.365,0.729-0.881
			c0.293-0.305,0.736-0.766,0.744-0.87l0.146-0.006c0.007,0.138-0.234,0.403-0.786,0.977c-0.284,0.296-0.674,0.701-0.688,0.794
			c-0.013,0.146,0.545,0.49,0.903,0.628L393.697,231.77z"/>
	</g>
	<g>
		<path fill="#FB7F9E" d="M394.119,233.113c-1.013-0.316-1.178-0.529-1.201-0.568l0.127-0.072l-0.063,0.036l0.062-0.04
			c0.001,0.002,0.153,0.203,1.119,0.506L394.119,233.113z"/>
	</g>
	<circle fill="#FFFFFF" cx="395.535" cy="230.369" r="0.301"/>
	
		<ellipse transform="matrix(0.9561 0.2932 -0.2932 0.9561 84.5829 -105.3615)" fill="#FFFFFF" cx="393.758" cy="229.472" rx="0.192" ry="0.278"/>
	
		<linearGradient id="SVGID_7_" gradientUnits="userSpaceOnUse" x1="-588.127" y1="149.4341" x2="-586.084" y2="149.4341" gradientTransform="matrix(0.9987 -0.0519 0.0519 0.9987 977.8701 52.8464)">
		<stop  offset="0.1224" style="stop-color:#FEB9B8"/>
		<stop  offset="1" style="stop-color:#FFDEDE"/>
	</linearGradient>
	<path fill="url(#SVGID_7_)" d="M399.035,231.797c0,0,0.435-0.434,1.039-0.124s-0.274,1.583-0.789,1.768
		c-0.516,0.184-0.819,0.146-0.955,0.003c-0.137-0.141,0.292-0.915,0.292-0.915L399.035,231.797z"/>
	
		<linearGradient id="SVGID_8_" gradientUnits="userSpaceOnUse" x1="-587.6519" y1="149.2646" x2="-586.2671" y2="149.2646" gradientTransform="matrix(0.9987 -0.0519 0.0519 0.9987 977.8701 52.8464)">
		<stop  offset="0.1224" style="stop-color:#FCA4B5"/>
		<stop  offset="0.9896" style="stop-color:#FFADB7"/>
	</linearGradient>
	<path fill="url(#SVGID_8_)" d="M399.086,231.942c0,0,0.397-0.375,0.827-0.198c0.429,0.177-0.005,1.031-0.196,1.154
		c-0.19,0.123-0.969,0.257-0.957,0.115s0.306-0.443,0.315-0.643C399.085,232.173,399.086,231.942,399.086,231.942z"/>
	<path fill="#FEBFBF" d="M403.119,251.535c0,0-0.149,0.369-0.395,1.154s-0.121,5.377-0.413,6.471s-0.746,2.258-0.746,2.258
		s-0.762,0.883-0.824,1.15s-0.349,0.782-0.437,1.319c-0.089,0.537-0.139,0.896-0.206,0.964c-0.068,0.068-0.309,0.297-0.322,0.504
		c-0.013,0.207,0.461,0.156,0.604,0.038c0.144-0.117,0.573-0.623,0.577-0.822c0.004-0.198,0.137-0.588,0.137-0.588
		s0.024,0.607,0.016,0.751c-0.01,0.145-0.337,0.883-0.337,0.883s-0.53,0.229-0.598,0.306c-0.068,0.077-0.145,0.28-0.033,0.378
		s0.942,0.105,0.942,0.105s0.653-0.031,0.902-0.114c0.25-0.083,0.465-0.612,0.465-0.612s0.486,0.013,0.586-0.116
		c0.099-0.13,0.523-0.69,0.691-1.204s-0.039-2.082,0.075-3.016c0.113-0.933,2.536-8.716,1.845-10.695
		C404.362,250.891,403.119,251.535,403.119,251.535z"/>
	<path fill="#FEBFBF" d="M405.636,251.614c0,0,0.159-8.02-0.542-10.207c-0.701-2.188-1.222-2.954-2.328-1.776
		c-1.105,1.177-1.483,2.475-1.085,5.526s0.958,7.079,1.312,7.916C403.346,253.909,405.478,254.94,405.636,251.614z"/>
</g>
</svg>
