<?xml version="1.0" encoding="utf-8"?>
<!-- Generator: Adobe Illustrator 16.0.0, SVG Export Plug-In . SVG Version: 6.00 Build 0)  -->
<!DOCTYPE svg PUBLIC "-//W3C//DTD SVG 1.1//EN" "http://www.w3.org/Graphics/SVG/1.1/DTD/svg11.dtd">
<svg version="1.1" id="Layer_1" xmlns="http://www.w3.org/2000/svg" xmlns:xlink="http://www.w3.org/1999/xlink" x="0px" y="0px"
	 width="463.683px" height="425.749px" viewBox="0 0 463.683 425.749" enable-background="new 0 0 463.683 425.749"
	 xml:space="preserve">
<g>
	<path fill="#BDD6F2" d="M103.892,251.16c-4.325-2.752-11.539-3.051-16.113-0.666c-4.575,2.384-4.777,6.548-0.452,9.3
		s11.539,3.051,16.114,0.666C108.015,258.076,108.217,253.912,103.892,251.16z"/>
	<g>
		<path fill="#626170" d="M86.921,253.56c0,0-0.263,0.13-0.279,0.324c-0.016,0.193-0.029,0.729-0.03,0.854
			c0,0.126,0.324,0.619,1.133,0.818c0.809,0.198,2.787-0.3,3.456-0.68s1.587-1.355,1.864-1.428c0.217-0.056,0.769,0.031,0.996,0.072
			c0.07,0.012,0.139,0.016,0.21,0.01l0.522-0.037c0.074-0.005,0.147-0.02,0.218-0.044l1.121-0.383c0,0,0.169-0.817-0.162-1.079
			C95.638,251.725,86.921,253.56,86.921,253.56z"/>
		<path fill="#504F60" d="M91.557,250.288c0,0-0.973,0.601-1.147,0.771c-0.173,0.17-1.926,0.857-2.536,1.219
			c-0.609,0.361-1.072,0.986-1.114,1.193c-0.042,0.206-0.14,0.677-0.072,0.875c0.068,0.199,0.377,0.729,1.42,0.807
			c0.934,0.068,2.744-0.698,3.113-0.859c0.045-0.021,0.086-0.043,0.127-0.07c0.28-0.186,1.45-0.959,1.642-1.046
			c0.218-0.1,2.146-0.563,2.439-0.655c0.293-0.094,0.621-0.126,0.667-0.36c0.045-0.233,0.149-1.521-0.001-1.929
			C95.945,249.827,92.423,249.26,91.557,250.288z"/>
		<path fill="#5C617D" d="M96.11,250.517c-0.104,0.317-0.477,0.539-1.716,0.589c-0.143,0.005-0.286,0.009-0.429,0.007
			c-0.889,0.019-1.708-0.059-2.599-0.461c-0.312-0.142-0.52-0.455-0.519-0.798c0.006-3.453-1.272-17.716-1.599-26.577
			c-0.207-5.604,1.043-8.435,1.043-8.435l5.986-0.271l0.04,14.777l-0.105,8.547C96.212,237.896,96.209,250.199,96.11,250.517z"/>
		<g>
			<path fill="#8C92B0" d="M94.405,251.128c-0.003-0.099-0.321-9.926-0.45-11.994c-0.129-2.072-0.112-13.821-0.112-13.939h0.231
				c-0.001,0.119-0.018,11.859,0.111,13.926c0.128,2.071,0.446,11.902,0.449,12.001L94.405,251.128z"/>
		</g>
		<path fill="#A8B0C2" d="M96.11,250.517c-0.068,0.207-0.25,0.373-0.713,0.478c-0.551,0.082-1.003,0.111-1.433,0.118l-0.809-25.611
			c0,0-1.545-1.719-1.264-2.771c0.125-0.453,4.302,6.034,4.302,6.034l0.123,0.585l-0.105,8.547
			C96.212,237.896,96.209,250.199,96.11,250.517z"/>
		<g>
			<path fill="#6C6B79" d="M93.96,257.684l-0.363,0.339l-0.076,0.555c0,0,0.403,0.733,1.52,1.013
				c1.117,0.278,2.86,0.017,3.424-0.157c0.563-0.174,1.831-1.268,2.015-1.418s1.071-1.032,1.071-1.032l0.444,0.061l1.448-0.893
				c0,0,0.245-0.37,0.283-0.652c0.039-0.283,0.113-0.825,0.113-0.825s-0.049-0.613-0.446-0.753
				C102.996,253.778,93.96,257.684,93.96,257.684z"/>
			<path fill="#504F60" d="M98.885,252.569c0,0-1.101,1.037-1.251,1.284s-0.439,0.636-0.777,0.902s-2.67,2.373-3.003,2.729
				c-0.334,0.355-0.254,0.751-0.261,0.801c-0.006,0.049,0.83,0.8,1.621,0.942c0.792,0.143,3.697-0.296,4.481-1.008
				s2.196-1.975,2.435-2.126c0.239-0.15,1.305-0.724,1.443-1.123c0.139-0.399,0.23-1.676,0.098-2.046
				C103.536,252.556,98.885,252.569,98.885,252.569z"/>
			<path fill="#5C617D" d="M92.399,216.831c0,0-0.894,5.137-0.081,6.772c0.813,1.635,1.839,2.08,2.02,3.327
				c0.18,1.246,0.968,6.858,1.746,11.545c0.258,1.553,0.875,6.089,1.581,15.037c0.372,0.807,1.365,1.393,3.355,1.164
				c1.99-0.229,2.139-0.459,2.355-0.814s0.192-9.916-0.515-13.178c-0.707-3.261-0.86-4.336-0.86-4.336s-0.549-4.9,0.533-11.072
				c0.435-2.48,0.381-5.928,0.007-7.41C102.167,216.384,92.399,216.831,92.399,216.831z"/>
			<g>
				<path fill="#8C92B0" d="M102.424,254.357l-0.228-0.011c0.001-0.039,0.177-3.892-0.008-6.676c-0.234-3.523-0.752-5.583-1.209-7.4
					c-0.31-1.233-0.603-2.399-0.769-3.859c-0.351-3.101,0.029-7.106,0.334-10.325c0.052-0.54,0.101-1.061,0.145-1.553
					c0.3-3.376-0.101-5.099-0.105-5.116l0.222-0.053c0.017,0.07,0.414,1.771,0.11,5.189c-0.044,0.492-0.094,1.013-0.145,1.554
					c-0.304,3.208-0.683,7.201-0.335,10.278c0.164,1.444,0.455,2.604,0.763,3.829c0.459,1.827,0.979,3.897,1.215,7.44
					C102.602,250.454,102.426,254.319,102.424,254.357z"/>
			</g>
		</g>
		<g>
			<path fill="#8C92B0" d="M92.918,223.415c-0.073-0.003-0.152-0.027-0.232-0.073c-0.374-0.215-0.767-0.878-0.745-1.824
				c0.011-0.508,0.154-2.545,0.195-2.795l0.228,0.038c-0.036,0.214-0.181,2.231-0.192,2.762c-0.021,0.911,0.364,1.468,0.628,1.619
				c0.078,0.045,0.145,0.055,0.187,0.03c0.062-0.038,0.094-0.162,0.084-0.332c-0.062-1.188,0.14-3.937,0.339-4.059l0.059-0.036
				l0.066,0.035l-0.059,0.102l0.001-0.003l0.001,0.004l0.085,0.063c-0.086,0.181-0.337,2.443-0.262,3.882
				c0.018,0.338-0.096,0.48-0.194,0.541C93.051,223.402,92.987,223.419,92.918,223.415z M93.475,218.884l-0.055,0.095
				L93.475,218.884z"/>
		</g>
		<g>
			<path fill="#8C92B0" d="M98.904,223.662c-1.372-0.06-2.411-0.425-3.098-1.094c-0.869-0.847-0.833-1.857-0.831-1.899l0.23,0.01
				c0,0.01-0.031,0.956,0.766,1.729c0.831,0.806,2.228,1.142,4.15,1.002l0.017,0.229C99.701,223.671,99.289,223.679,98.904,223.662z
				"/>
		</g>
		<path fill="#A76478" d="M102.768,219.134c0,0-1.724,1.31-5.175,0.998c-3.451-0.313-4.747-0.797-5.881-1.517
			c-1.133-0.72-1.813-1.617-1.813-1.617l0.255-1.327c0,0,0.621,1.12,2.24,1.922c1.62,0.801,5.15,1.176,6.589,1.267
			c1.439,0.09,3.689-0.775,3.689-0.775L102.768,219.134z"/>
		<path fill="#5C617D" d="M95.931,218.601c0,0-0.106,0.377-0.135,0.828s-0.039,1.282-0.039,1.282l-0.52-0.101
			c0,0-0.068-0.805-0.036-1.205c0.033-0.4,0.171-0.951,0.171-0.951L95.931,218.601z"/>
		<path fill="#4F5997" d="M100.935,218.776c0,0,0.081,0.385,0.08,0.836c-0.001,0.452-0.047,1.281-0.047,1.281l0.526-0.065
			c0,0,0.122-0.798,0.115-1.2c-0.006-0.401-0.107-0.961-0.107-0.961L100.935,218.776z"/>
		<path fill="#5C617D" d="M91.179,216.767c0,0-0.143,0.469-0.174,0.852c-0.032,0.384,0.018,1.043,0.018,1.043l-0.336-0.441
			c0,0-0.033-0.665-0.016-0.874c0.017-0.208,0.23-0.813,0.23-0.813L91.179,216.767z"/>
		<g>
			<path fill="#8C92B0" d="M89.459,218.885c-0.038-0.002-0.076-0.009-0.114-0.021l0.075-0.218c0.281,0.092,0.66-0.606,0.797-0.964
				l0.215,0.083C90.384,217.889,89.977,218.907,89.459,218.885z"/>
		</g>
		<g>
			<path fill="#CCDEFB" d="M93.347,219.69c-0.06-0.01-0.122-0.025-0.184-0.049l-0.964-0.37c-0.411-0.158-0.721-0.599-0.704-1.003
				l0.016-0.386c0.008-0.196,0.092-0.358,0.235-0.456c0.163-0.11,0.384-0.125,0.608-0.038l0.965,0.37
				c0.411,0.158,0.72,0.598,0.704,1.002l-0.016,0.387c-0.008,0.196-0.092,0.358-0.235,0.456
				C93.654,219.683,93.505,219.713,93.347,219.69z M92.165,217.783c-0.066-0.009-0.125,0.001-0.168,0.03
				c-0.044,0.03-0.068,0.078-0.071,0.143l-0.016,0.386c-0.008,0.189,0.172,0.428,0.385,0.509l0.965,0.371
				c0.103,0.039,0.199,0.037,0.262-0.005c0.044-0.03,0.068-0.078,0.071-0.144l0.016-0.385c0.007-0.19-0.172-0.428-0.385-0.51
				l-0.964-0.371C92.226,217.796,92.194,217.788,92.165,217.783z"/>
		</g>
	</g>
	<g>
		<path fill="#E6F1FF" d="M92.575,197.363c0,0-1.697-0.536-2.301,1.264c-0.604,1.798-2.535,9.746-2.639,10.339
			c-0.104,0.594,1.535,2.874,2.559,1.35c1.023-1.523,3.028-11.117,3.146-11.819C93.458,197.793,92.575,197.363,92.575,197.363z"/>
		<path fill="#E6F1FF" d="M93.26,195.481c0,0-2.255-0.182-3.14,2.678c-0.885,2.859-1.334,6.013-1.334,6.013s0.731,1.369,4.642,1.039
			C97.338,204.88,93.26,195.481,93.26,195.481z"/>
		<path fill="#FEBFBF" d="M81.306,209.464c0,0-0.275,0.129-0.852,0.183c-0.578,0.052-0.875-0.263-1.249-0.382l-0.091-0.031
			c-0.313-0.106-0.464-0.205-0.464-0.205l-0.007-0.37c0,0-0.36-0.103-0.391-0.183c-0.031-0.078-0.137-0.248-0.121-0.35
			c0.005-0.033,0.021-0.069,0.045-0.103l0-0.002c0.039-0.059,0.09-0.115,0.11-0.132l0.005-0.007l-0.491-0.257l-0.002-0.501
			l0.263-0.402l0.294,0.031l0.684,0.072l-1.124-0.354c0,0-0.329-0.055-0.472-0.116c-0.144-0.059-0.239-0.341-0.239-0.341
			l0.168-0.378c0,0,1.708,0.278,1.959,0.336c0.25,0.056,1.821,0.537,1.821,0.537s0.546,0.323,0.94,0.775
			c1.265,0.646,5.74,0.25,5.968,0.328c0.231,0.076,0.713,0.554,0.713,0.554s0.741,0.371,1.177,1.962
			C89.936,212.3,81.306,209.464,81.306,209.464z"/>
		<g>
			<path fill="#C4C8D8" d="M81.177,209.71c0.04-0.501-0.056-0.759-0.017-1.262c0.005-0.119-0.129-0.375-0.303-0.558
				c-1.561-1.667-2.533-2.705-4.094-4.372c-0.111-0.121,0.042-0.372-0.021-0.373c-0.01,0-0.274,0.189-0.282,0.193
				c-0.019,0.008-0.031,0.025-0.034,0.053c-0.039,0.503-0.079,1.004-0.118,1.504c0,0.002,0,0.003,0,0.005
				c-0.01,0.117,0.136,0.371,0.303,0.553c1.561,1.667,2.533,2.705,4.094,4.371c0.136,0.143,0.266,0.217,0.315,0.179l0.286-0.195
				C81.306,209.807,81.177,209.711,81.177,209.71z"/>
			<path fill="#F5F5F5" d="M76.789,203.296c0.008-0.099,0.137-0.05,0.279,0.102c1.545,1.649,2.502,2.671,4.047,4.321
				c0.142,0.151,0.258,0.364,0.25,0.463c-0.039,0.492-0.078,0.985-0.116,1.478c-0.008,0.099-0.137,0.051-0.279-0.102
				c-1.545-1.65-2.502-2.671-4.047-4.321c-0.143-0.151-0.258-0.365-0.25-0.463C76.711,204.28,76.75,203.788,76.789,203.296
				L76.789,203.296z M81.326,209.762c0-0.002,0-0.003,0-0.005c0.039-0.5,0.079-1.001,0.118-1.504
				c0.005-0.119-0.129-0.374-0.303-0.558c-1.561-1.666-2.533-2.705-4.094-4.371c-0.173-0.188-0.324-0.236-0.337-0.126
				c-0.04,0.503-0.079,1.003-0.118,1.504c0,0.001,0,0.003,0,0.004c-0.009,0.118,0.136,0.371,0.304,0.554
				c1.561,1.666,2.533,2.704,4.094,4.371C81.157,209.808,81.317,209.879,81.326,209.762L81.326,209.762z"/>
			<path fill="#7C78F0" d="M76.935,204.055l0.021,0.008l0.022,0.039c-0.009,0.122-0.019,0.245-0.028,0.367l-0.025-0.012
				l-0.019-0.034C76.915,204.299,76.925,204.177,76.935,204.055L76.935,204.055z M76.879,204.483l0.042,0.016l0.042,0.073
				l-0.046-0.018L76.879,204.483L76.879,204.483z M76.851,204.574l0.063,0.023l0.06,0.107l-0.066-0.027L76.851,204.574
				L76.851,204.574z M81.249,209.659c0.039-0.492,0.078-0.985,0.116-1.478c0.008-0.099-0.108-0.312-0.25-0.463
				c-1.545-1.65-2.501-2.672-4.047-4.321c-0.142-0.152-0.271-0.2-0.279-0.102c-0.039,0.492-0.078,0.984-0.116,1.478
				c-0.008,0.098,0.108,0.312,0.25,0.463c1.545,1.65,2.501,2.671,4.047,4.321C81.112,209.71,81.241,209.758,81.249,209.659
				L81.249,209.659z"/>
			<path fill="#2A2A2C" d="M76.949,204.468c0.009-0.123,0.019-0.245,0.028-0.367l-0.022-0.039l-0.021-0.008
				c-0.01,0.122-0.02,0.244-0.029,0.367l0.019,0.034L76.949,204.468L76.949,204.468z"/>
			<path fill="#838383" d="M76.875,204.6l0.038,0.011l0.037,0.069l-0.041-0.016L76.875,204.6L76.875,204.6z M76.973,204.705
				l-0.06-0.107l-0.063-0.023l0.056,0.104L76.973,204.705L76.973,204.705z"/>
			<polygon fill="#516F83" points="76.949,204.68 76.912,204.61 76.875,204.6 76.908,204.664 76.949,204.68 			"/>
			<polygon fill="#2A2A2C" points="76.962,204.572 76.921,204.499 76.879,204.483 76.917,204.555 76.962,204.572 			"/>
		</g>
		
			<linearGradient id="SVGID_1_" gradientUnits="userSpaceOnUse" x1="1836.9341" y1="309.1143" x2="1838.033" y2="307.8886" gradientTransform="matrix(0.946 0.3242 -0.3242 0.946 -1559.4902 -679.5366)">
			<stop  offset="0.1224" style="stop-color:#FEB9B8"/>
			<stop  offset="1" style="stop-color:#FFDEDE"/>
		</linearGradient>
		<path fill="url(#SVGID_1_)" d="M80.357,208.804c0,0-0.811,0.354-1.242,0.43c-0.313-0.106-0.464-0.205-0.464-0.205l-0.007-0.37
			c0,0-0.36-0.103-0.391-0.183c-0.031-0.078-0.137-0.248-0.121-0.35c0.005-0.033,0.021-0.069,0.045-0.103l0-0.002l0.11-0.132
			l0.005-0.007l-0.491-0.257l-0.002-0.501l0.263-0.402l0.294,0.031l0.086,0.235c0,0,0.215,0.074,0.449,0.298
			c0.231,0.223-0.049,0.534-0.049,0.534l0.636-0.025c0,0,0.382,0.006,0.486,0.157c0.103,0.151-0.162,0.444-0.162,0.444
			s0.355-0.049,0.45-0.017S80.357,208.804,80.357,208.804z"/>
		<path fill="#FEBFBF" d="M80.719,206.959c0,0-0.68-0.127-0.795-0.07c-0.116,0.057-0.445,0.117-0.741-0.09
			c-0.295-0.207-0.109-0.327-0.109-0.327l0.625-0.316l1.184-0.009c0,0,0.96,0.728,1.017,0.859c0.057,0.133,0.095,1.017-0.195,1.188
			S80.332,207.752,80.719,206.959z"/>
		<polygon fill="#FEBFBF" points="81.094,208.37 80.289,207.698 79.879,207.326 79.399,207.025 79.741,206.689 81.017,206.878 
			80.503,206.951 80.123,207.15 		"/>
		<polygon fill="#FEBFBF" points="79.802,208.397 78.643,208.658 78.646,208.832 79.286,208.636 80.199,208.42 		"/>
		<path fill="#FEBFBF" d="M78.954,207.637c0,0-0.168,0.154-0.284,0.153c-0.115-0.001-0.869-0.164-0.869-0.164l0.486,0.264
			l-0.11,0.134l0.438-0.071l0.703-0.149l-0.475,0.019L78.954,207.637z"/>
	</g>
	<path fill="#DDE8F6" d="M89.957,215.849l-0.131,0.506c0,0,0.996,1.569,4.815,2.407c3.819,0.838,6.055,0.495,6.055,0.495l0.073-0.57
		L89.957,215.849z"/>
	<g>
		<path fill="#DDE8F6" d="M104.654,198.441c0,0,0.522-0.866-2.241-1.814c-1.562-0.536-1.757-1.101-2.737-1.354
			c-0.98-0.253-4.008-0.135-4.429-0.012c-0.421,0.124-2.389-0.033-3.317,0.792c-0.096,0.085-1.73,1.577-1.614,5.795
			c0.117,4.217,0.655,6.285,0.617,7.29c-0.153,4.064-1.09,6.847-1.09,6.847s1.435,2.032,6.213,2.672
			c4.779,0.639,6.171-0.347,6.171-0.347s0.266-6.797,0.444-7.988C102.851,209.128,104.654,198.441,104.654,198.441z"/>
	</g>
	<polygon fill="#E6F1FF" points="96.802,202.328 96.601,205.524 97.83,206.451 99.471,206.148 99.63,203.011 	"/>
	<g>
		<path fill="#DDE8F6" d="M101.232,202.416c0,0-0.242,2.472-0.407,3.114c-0.165,0.641,0.475,5.212,0.268,5.773
			c-0.208,0.562-0.03,5.032-0.03,5.032l-0.604,4.706l1.125-0.544c0,0,1.634-9.988,1.407-12.041S101.232,202.416,101.232,202.416z"/>
		<path fill="#E6F1FF" d="M105.471,210.857c0,0-0.014-8.609-0.161-10.647c-0.147-2.038-0.708-2.891-1.707-2.707
			c-0.999,0.185-2.407,0.968-2.258,3.856c0.149,2.889,1.233,11.018,1.921,11.857C103.956,214.054,105.471,210.857,105.471,210.857z"
			/>
		<path fill="#FEBFBF" d="M103.463,210.208c0,0-0.54,0.348-0.816,0.829c-0.275,0.481-1.278,8.861-1.613,9.526
			c-0.334,0.665-0.574,0.93-0.841,1.199s-1.484,1.988-1.484,1.988s-0.689,2.104-0.774,2.274s0.329,0.241,0.591,0.008
			s0.711-1.249,0.711-1.249l-0.111,1.202c0,0-0.758,1.635-0.837,1.856c-0.079,0.223,0.015,0.488,0.267,0.393
			c0.252-0.096,0.667-0.705,0.667-0.705l0.306,0.204c0,0,0.24,0.221,0.56-0.03s0.609-0.729,0.609-0.729l0.405-0.015l0.498-0.401
			l0.525-0.23c0,0,0.479-0.946,0.388-1.475c-0.091-0.529-0.175-2.001-0.113-2.198c0.061-0.198,3.723-10.566,3.085-11.664
			C104.85,209.894,103.463,210.208,103.463,210.208z"/>
		<polygon fill="#FEBFBF" points="99.223,227.53 99.785,226.848 100.227,226.043 99.905,227.016 99.354,227.617 		"/>
		<polygon fill="#FEBFBF" points="100.698,226.975 101.103,226.007 101.049,226.599 100.843,226.97 		"/>
		<polygon fill="#FEBFBF" points="101.549,226.601 101.877,225.972 101.924,225.692 101.916,226.177 101.736,226.499 		"/>
		<polygon fill="#FEBFBF" points="99.237,224.784 99.388,223.894 99.105,224.581 98.801,225.649 		"/>
	</g>
	<g>
		
			<linearGradient id="SVGID_2_" gradientUnits="userSpaceOnUse" x1="1154.7202" y1="301.8145" x2="1150.1801" y2="298.4754" gradientTransform="matrix(0.9912 0.1326 -0.1326 0.9912 -1004.22 -256.3987)">
			<stop  offset="0.1224" style="stop-color:#FEC7C7"/>
			<stop  offset="0.9694" style="stop-color:#FFADB7"/>
		</linearGradient>
		<path fill="url(#SVGID_2_)" d="M99.704,189.163c0,0-0.577,2.945-0.423,4.039s1.147,2.331,1.195,2.679
			c0.047,0.348-2.113,1.365-3.552,1.384c-1.438,0.02-1.812-0.36-2.039-0.508c-0.228-0.147,0.403-1.429,0.276-2.682
			S97.755,189.126,99.704,189.163z"/>
		<path fill="#F64A6E" d="M94.78,198.446c0,0-1.404,6.496-2.316,16.694l0.58,1.576l1.003-0.975
			c0.533-12.584,1.484-16.953,1.484-16.953L94.78,198.446z"/>
		<polygon fill="#F64A6E" points="95.716,197.13 94.573,198.079 95.024,199.098 96.067,198.655 96.081,198.338 		"/>
		<path fill="#E6F1FF" d="M99.4,193.939l-0.076,0.863c0,0-0.835,2.283-3.608,2.328c-0.042,0.432,0.059,1.65,0.502,1.995
			c1.742-0.732,3.915-2.049,4.287-3.242c0.044-0.141-0.438-1.559-0.438-1.559l-0.631-0.526L99.4,193.939z"/>
		<path fill="#E6F1FF" d="M95.112,194.943c0,0-0.14,0.504-0.1,0.778s0.164,1.03,0.704,1.409c-0.501,0.686-1.378,1.021-1.718,0.996
			c0.243-1.034,0.32-2.008,0.412-2.815C94.501,194.504,95.305,194.354,95.112,194.943z"/>
		
			<linearGradient id="SVGID_3_" gradientUnits="userSpaceOnUse" x1="1149.3931" y1="301.127" x2="1151.9507" y2="301.127" gradientTransform="matrix(0.9912 0.1326 -0.1326 0.9912 -1004.22 -256.3987)">
			<stop  offset="0.1224" style="stop-color:#FCA4B5"/>
			<stop  offset="0.9896" style="stop-color:#FFADB7"/>
		</linearGradient>
		<path fill="url(#SVGID_3_)" d="M94.893,196.248c0,0,0.57,0.892,1.788,0.183c0.655-0.381,0.752-1.292,0.752-1.292l0.511-2.414
			l-2.923,2.952L94.893,196.248z"/>
		<path fill="#FEC7C7" d="M99.352,191.407c-0.02,0.007-0.04,0.014-0.059,0.019c0,0,0.002,0,0,0.001
			c-0.384,0.124-0.69,0.083-0.69,0.083s-0.73,1.763-1.146,2.754s-1.087,1.397-2.374,1.8s-1.603,0.032-1.805-0.218
			c-0.141-0.173-0.515-1.222-0.76-2.188c-0.108-0.419-0.189-0.822-0.22-1.133c-0.098-1.024-0.385-1.697-0.53-1.929
			c-0.145-0.232-0.166-1.576,0.096-3.001c0.26-1.424,1.778-2.916,2.897-3.272c1.119-0.357,2.706-0.058,4.009,0.76
			c1.303,0.818,1.82,1.765,1.768,2.747C100.484,188.812,99.945,190.952,99.352,191.407z"/>
		<path fill="#754554" d="M93.153,191.188c0,0,0.817,0.02,0.979,0.042c0.162,0.021,0.99,0.337,0.99,0.337l-1.082-0.184l-0.866-0.038
			L93.153,191.188z"/>
		<polygon fill="#754554" points="92.374,190.819 91.696,190.328 91.646,190.493 91.768,190.597 92.473,191.075 		"/>
		<g>
			
				<linearGradient id="SVGID_4_" gradientUnits="userSpaceOnUse" x1="1147.0093" y1="299.4053" x2="1146.2253" y2="299.8558" gradientTransform="matrix(0.9912 0.1326 -0.1326 0.9912 -1004.22 -256.3987)">
				<stop  offset="0.1224" style="stop-color:#FEC7C7"/>
				<stop  offset="0.9896" style="stop-color:#FFDBDB"/>
			</linearGradient>
			<path fill="url(#SVGID_4_)" d="M92.72,191.313c0,0-0.268,0.999-0.484,1.535c-0.217,0.536,0.078,0.74,0.534,0.79
				c0.456,0.049,0.676-0.098,0.676-0.098L92.72,191.313z"/>
			
				<linearGradient id="SVGID_5_" gradientUnits="userSpaceOnUse" x1="1146.231" y1="299.4678" x2="1147.6284" y2="299.4678" gradientTransform="matrix(0.9912 0.1326 -0.1326 0.9912 -1004.22 -256.3987)">
				<stop  offset="0.188" style="stop-color:#FFDCDC"/>
				<stop  offset="0.8991" style="stop-color:#FEC7C7"/>
			</linearGradient>
			<path fill="url(#SVGID_5_)" d="M92.881,193.689c-0.037-0.002-0.076-0.005-0.117-0.009c-0.296-0.032-0.492-0.125-0.584-0.279
				c-0.085-0.143-0.08-0.334,0.016-0.57c0.213-0.528,0.48-1.521,0.482-1.531l0.084,0.022c-0.003,0.01-0.271,1.008-0.486,1.541
				c-0.084,0.209-0.092,0.375-0.021,0.492c0.077,0.129,0.251,0.209,0.52,0.238c0.435,0.046,0.645-0.09,0.647-0.091l0.048,0.071
				C93.46,193.581,93.27,193.706,92.881,193.689z"/>
		</g>
		
			<ellipse transform="matrix(0.8469 -0.5318 0.5318 0.8469 -87.723 79.4697)" fill="#FFFFFF" cx="94.142" cy="192.071" rx="0.223" ry="0.245"/>
		
			<ellipse transform="matrix(0.8474 -0.531 0.531 0.8474 -87.5511 78.2747)" fill="#FFFFFF" cx="92.389" cy="191.438" rx="0.177" ry="0.245"/>
		<path fill="#AF727B" d="M99.292,191.426c0,0,0.002,0,0,0.001c-0.384,0.124-0.69,0.083-0.69,0.083s-0.73,1.763-1.146,2.754
			s-1.087,1.397-2.374,1.8s-1.603,0.032-1.805-0.218c-0.141-0.173-0.515-1.222-0.76-2.188c0.191,0.033,0.439,0.08,0.734,0.125
			c0.595,0.246,2.308,0.871,3.298,0.208c0.592-0.396,0.52-1.861,0.52-1.861c0.237-2.122,1.754-2.99,2.176-1.858
			C99.33,190.497,99.354,190.911,99.292,191.426z"/>
		<path fill="#FEC7C7" d="M97.775,193.5c0.129-0.312-0.124-0.811-0.08-1.559s-0.014-1.603,0.247-1.728
			c0.261-0.125,0.809,0.035,0.809,0.035l-0.317,1.665L97.775,193.5z"/>
		<path fill="#754554" d="M97.695,191.941c0,0,0.23-1.253,0.548-1.4c0.317-0.146,0.538,0.023,0.538,0.023s0.449,1.614,0.491,1.697
			c0.267-0.665,0.811-1.148,1.141-2.148c0.33-1,1.043-2.61,0.121-3.981s-2.159-1.454-2.159-1.454s-1.295-1.404-3.824-0.709
			s-3.124,3.463-3.156,3.706c-0.032,0.243,0.342,0.788,0.342,0.788s0.648,0.522,1.618-0.043c0.97-0.564,2.076-0.475,2.347-0.298
			c0.27,0.178-0.136,1.807-0.096,2.035c0.04,0.229,0.973,0.613,1.203,0.803c0.229,0.189,0.262,1.171,0.262,1.171L97.695,191.941z"/>
		<path fill="#754554" d="M92.979,193.834c0,0,0.483-0.21,0.966,0.224s1.146,0.53,1.312,0.458c0.167-0.072,0.167-0.072,0.167-0.072
			s-0.112,0.487-0.895,0.296c-0.782-0.191-1.152-0.488-1.44-0.491C92.871,194.159,92.979,193.834,92.979,193.834z"/>
		<path fill="#754554" d="M93.113,193.873c0,0-0.035-0.076-0.128-0.089c-0.092-0.012-0.291-0.117-0.555-0.074
			c-0.265,0.043-0.461-0.069-0.538-0.258c-0.077-0.189,0.091,0.554,0.41,0.692c0.319,0.138,0.534,0.176,0.788,0.097
			C93.342,194.162,93.113,193.873,93.113,193.873z"/>
		<path fill="#FEC7C7" d="M93.885,194.781c0,0-0.326-0.114-0.447-0.136c-0.121-0.022-0.431-0.076-0.497-0.067
			s0.001,0.26,0.215,0.329C93.371,194.977,93.786,194.868,93.885,194.781z"/>
		
			<linearGradient id="SVGID_6_" gradientUnits="userSpaceOnUse" x1="1151.9507" y1="297.6309" x2="1153.3345" y2="297.6309" gradientTransform="matrix(0.9912 0.1326 -0.1326 0.9912 -1004.22 -256.3987)">
			<stop  offset="0.1224" style="stop-color:#FEB9B8"/>
			<stop  offset="1" style="stop-color:#FFDEDE"/>
		</linearGradient>
		<path fill="url(#SVGID_6_)" d="M98.177,190.991c0,0,0.318-0.723,1.069-0.721c0.75,0.003,0.122,1.319-0.06,1.742
			s-0.548,0.695-0.828,0.619c-0.28-0.077-0.345-0.415-0.345-0.415S98.192,191.519,98.177,190.991z"/>
		
			<linearGradient id="SVGID_7_" gradientUnits="userSpaceOnUse" x1="1152.1147" y1="297.4873" x2="1153.1353" y2="297.4873" gradientTransform="matrix(0.9912 0.1326 -0.1326 0.9912 -1004.22 -256.3987)">
			<stop  offset="0.1224" style="stop-color:#FCA4B5"/>
			<stop  offset="0.9896" style="stop-color:#FFADB7"/>
		</linearGradient>
		<path fill="url(#SVGID_7_)" d="M98.315,191.184c0,0,0.589-0.684,0.908-0.594c0.318,0.089,0.078,0.803-0.103,1.179
			s-0.743,0.301-0.784,0.193c-0.041-0.107-0.098-0.14-0.098-0.14L98.315,191.184z"/>
	</g>
	<path fill="#E6F1FF" d="M101.868,206.383l0.723,4.516l-1.693,9.401c0,0,0.769,0.978,2.17,0.854c0.131-0.432,2.436-7.781,2.5-9.273
		c0.064-1.492-0.08-2.73-0.08-2.73L101.868,206.383z"/>
	<path fill="#E6F1FF" d="M82.444,207.418c0,0,0.034-0.08,0.308-0.037c0.273,0.044,0.5,0.17,1.885,0.198
		c1.384,0.027,3.311,0.019,3.311,0.019s0.947-0.157,1.6,1.138c0.653,1.294,0.587,1.609,0.254,1.975
		c-0.334,0.366-1.494,0.295-1.705,0.286c-0.211-0.009-1.271-0.123-2.124-0.287s-3.729-0.849-4.072-1.059
		c0.157,0.009,0.346,0.069,0.346,0.069s0.531-0.138,0.623-1.024c0.091-0.881-0.213-1.225-0.213-1.225L82.444,207.418z"/>
</g>
</svg>
