<?xml version="1.0" encoding="utf-8"?>
<!-- Generator: Adobe Illustrator 16.0.0, SVG Export Plug-In . SVG Version: 6.00 Build 0)  -->
<!DOCTYPE svg PUBLIC "-//W3C//DTD SVG 1.1//EN" "http://www.w3.org/Graphics/SVG/1.1/DTD/svg11.dtd">
<svg version="1.1" id="Layer_1" xmlns="http://www.w3.org/2000/svg" xmlns:xlink="http://www.w3.org/1999/xlink" x="0px" y="0px"
	 width="463.683px" height="425.749px" viewBox="0 0 463.683 425.749" enable-background="new 0 0 463.683 425.749"
	 xml:space="preserve">
<g>
	<path fill="#FEBFBF" d="M212.506,190.577c0,0-1.345-0.176-1.967,0.779c-0.621,0.955-1.257,2.687-1.092,5.482
		c0.165,2.795,0.21,3.521-0.099,4.659c-0.308,1.138-0.368,1.803-0.536,5.282c-0.168,3.48-0.178,4.728-0.464,5.541
		c-0.285,0.813-0.873,1.951-0.871,2.195c0.003,0.245-0.049,1.896,0.167,2.055s1.165,0.87,1.641,0.928s0.248-1.042,0.248-1.042
		s0.711-5.19,0.749-5.581c0.039-0.391,1.792-13.544,1.792-13.544L212.506,190.577z"/>
	
		<linearGradient id="SVGID_1_" gradientUnits="userSpaceOnUse" x1="-777.1763" y1="122.6895" x2="-775.8677" y2="122.6895" gradientTransform="matrix(0.9987 -0.0519 0.0519 0.9987 977.8701 52.8464)">
		<stop  offset="0.1224" style="stop-color:#FCA4B5"/>
		<stop  offset="0.9896" style="stop-color:#FFADB7"/>
	</linearGradient>
	<path fill="url(#SVGID_1_)" d="M208.381,214.384l-0.167,0.776c0,0,0.063,0.845,0.059,0.936c-0.006,0.09-0.169,0.232-0.169,0.232
		l0.381,0.26c0,0,0.009,0.29,0.302,0.372s0.652-0.148,0.652-0.148l-0.614-0.021c0,0-0.25-0.188-0.307-0.436
		c-0.057-0.247-0.098-1.299-0.098-1.299S208.537,214.656,208.381,214.384z"/>
	
		<linearGradient id="SVGID_2_" gradientUnits="userSpaceOnUse" x1="-776.1133" y1="115.7969" x2="-772.4058" y2="115.7969" gradientTransform="matrix(0.9987 -0.0519 0.0519 0.9987 977.8701 52.8464)">
		<stop  offset="0.1224" style="stop-color:#FCA4B5"/>
		<stop  offset="0.9896" style="stop-color:#FFADB7"/>
	</linearGradient>
	<path fill="url(#SVGID_2_)" d="M209.143,215.844c0,0-0.036-0.509,0.08-1.262c0.116-0.752,0.211-1.107,0.286-1.988
		c0.074-0.882,0.391-1.585,0.64-3.504c0.249-1.92,0.276-3.764,0.395-4.479c0.117-0.714-0.165-3.012-0.165-3.012l1.734-0.053
		l-1.037,9.446L209.143,215.844z"/>
	<g>
		<path fill="#D7E4F2" d="M205.489,245.612c4.289,2.729,11.444,3.024,15.98,0.66c4.537-2.364,4.738-6.494,0.448-9.224
			c-4.289-2.729-11.443-3.025-15.98-0.66C201.4,238.753,201.2,242.883,205.489,245.612z"/>
		<path fill="#504F60" d="M209.929,238.726c0,0-0.054-0.216-0.267-0.067c-0.213,0.149-1.002,0.652-1.753,1.244
			c-0.75,0.592-2.07,2.251-1.77,2.551s1.325,0.503,2.765,0.002s1.71-1.141,2.122-1.44c0.413-0.299,1.271-0.944,1.357-0.6
			c0.74-0.333,1.207-0.547,1.352-0.944c0.145-0.398,0.136-1.761-0.292-1.738C213.015,237.756,209.929,238.726,209.929,238.726z"/>
		<path fill="#FEC7C7" d="M210.508,236.822c0,0-0.226,0.604-0.311,0.873c-0.085,0.269-0.594,1.227-1.103,1.547
			c0,0.42,0.916,0.736,1.521,0.612c0.604-0.124,1.752-0.472,2.139-0.569c0.386-0.097,0.908-0.633,0.864-1.009
			s-0.493-1.191-0.493-1.191l-0.135-0.659L210.508,236.822z"/>
		<path fill="#4F5997" d="M210.699,208.962c-0.246,2.019-1.6,4.943-1.981,11.349c-0.382,6.404-0.204,6.307,0.185,6.955
			c0.388,0.649,3.245,0.94,3.945-1.104s2.011-7.276,2.509-8.275c0.498-1,0.952-8.539,0.585-9.16
			C215.574,208.107,210.699,208.962,210.699,208.962z"/>
		<path fill="#4F5997" d="M208.742,224.598c0,0-0.349-0.188-0.217,1.423s1.854,9.912,1.887,11.081
			c0.034,1.169,2.73,0.581,2.826-0.063c-0.174-3.009-0.024-3.232,0.277-5.834c0.302-2.601-1.035-6.15-1.249-6.625
			C212.052,224.104,208.742,224.598,208.742,224.598z"/>
		<path fill="#504F60" d="M218.564,237.094l-0.586,0.261c0,0-0.38,0.423-0.454,0.526c-0.074,0.104-0.617,0.955-0.79,1.546
			c-0.174,0.591-1.165,3.375-0.237,3.706c1.853,0.091,2.835-0.85,3.358-1.604c0.522-0.753,0.69-1.475,0.706-1.718
			s0.289-0.7,0.289-0.7s0.238-1.192-0.002-1.886s-0.793-0.539-0.793-0.539L218.564,237.094z"/>
		<path fill="#4F5997" d="M214.24,210.734c0,0-0.426,2.414-0.014,3.173c0.413,0.759,0.748,0.516,1.016,1.991
			c0.268,1.475,1.759,8.088,2.544,9.819c0.784,1.732,3.644,0.721,3.762-1.984s0.802-4.731,1.499-7.337
			c1.817-6.792-1.443-8.229-1.443-8.229L214.24,210.734z"/>
		<path fill="#4F5997" d="M220.55,236.301c0.224,0.762,0.314,1.373,0.012,1.853c-0.302,0.479-0.328,0.532-1.287,0.841
			s-1.925-0.223-1.886-0.328c0.033-0.105,0.119-0.539,0.422-1.472c0.079-0.243,0.145-0.499,0.21-0.769
			c0.178-0.769,0.303-1.656,0.447-2.713c0.196-1.426-0.52-7.142-0.953-8.685c-0.427-1.551,0.053-0.763,0.053-0.763l3.816-1.077
			c0,0,0.742,3.646,0.742,5.059c0,1.359-1.662,6.838-1.59,7.942c0,0,0,0.013,0,0.032
			C220.537,236.255,220.543,236.281,220.55,236.301z"/>
		<path fill="#FEC7C7" d="M220.562,238.153c-0.302,0.479-0.328,0.532-1.287,0.841s-1.925-0.223-1.886-0.328
			c0.033-0.105,0.119-0.539,0.422-1.472c0.079-0.243,0.145-0.499,0.21-0.769c0.086,0.584,0.493,0.873,1.518,0.631
			c0.88-0.218,0.985-0.703,0.998-0.835c0,0.033,0.007,0.06,0.014,0.079C220.774,237.063,220.865,237.674,220.562,238.153z"/>
	</g>
	<path fill="#DDE8F6" d="M216.913,189.737c0,0-2.743-0.284-3.066-0.033s-2.228,0.617-2.782,1.377
		c-0.556,0.761-0.654,2.87-0.781,4.019c-0.128,1.149-0.532,2.95-0.523,3.946c0.009,0.995,1.048,4.823,1.08,6.308
		c0.031,1.485-0.132,3.482-0.141,3.608c-0.008,0.126,1.69,1.862,4.117,2.089c2.427,0.229,6.678-1.201,6.986-1.796
		c0.31-0.595-0.126-3.118-0.471-4.226c-0.346-1.107-0.339-4.326,0.154-6.392c0.494-2.066,1.733-4.772,1.525-5.473
		c-0.209-0.7-2.258-2.314-3.088-2.833C218.339,189.342,216.913,189.737,216.913,189.737z"/>
	<path fill="#A8B0C2" d="M220.521,197.255l-0.191,2.99l0.464,2.164l-0.217,1.686c0,0,0.722,3.43,0.754,4.055
		c0.032,0.626-0.456,5.44-0.456,5.44l-0.833,3.094c0,0-0.815,2.753-0.95,2.951c-0.135,0.199,0.611-0.441,0.611-0.441
		s-0.658,2.093-0.415,2.253s1.504,0.241,1.504,0.241l0.99-1.883l0.553-5.289l0.675-10.555L220.521,197.255z"/>
	
		<linearGradient id="SVGID_3_" gradientUnits="userSpaceOnUse" x1="-766.4194" y1="97.918" x2="-769.298" y2="94.3836" gradientTransform="matrix(0.9987 -0.0519 0.0519 0.9987 977.8701 52.8464)">
		<stop  offset="0.1224" style="stop-color:#FEC7C7"/>
		<stop  offset="0.9694" style="stop-color:#FFADB7"/>
	</linearGradient>
	<path fill="url(#SVGID_3_)" d="M212.45,188.633c0.04,0.002,1.337,0.52,1.524,0.762c0.188,0.242-0.555,2.311-0.636,2.957
		c-0.082,0.646,0.189,1.07,1.826,1.351c1.637,0.281,2.899-1.659,3.157-2.077c0.257-0.417,0.763-1.321,0.392-1.67
		s-0.748-0.821-0.779-0.972c-0.031-0.151,0.296-1.825,0.406-2.09c0,0,0.909-2.343,0.114-2.434
		C217.66,184.368,212.45,188.633,212.45,188.633z"/>
	
		<linearGradient id="SVGID_4_" gradientUnits="userSpaceOnUse" x1="-771.1499" y1="96.9663" x2="-767.2759" y2="96.9663" gradientTransform="matrix(0.9987 -0.0519 0.0519 0.9987 977.8701 52.8464)">
		<stop  offset="0.1224" style="stop-color:#FCA4B5"/>
		<stop  offset="0.9896" style="stop-color:#FFADB7"/>
	</linearGradient>
	<path fill="url(#SVGID_4_)" d="M212.705,188.73c0,0,1.145,0.508,1.27,0.666c0.126,0.157-0.198,1.26-0.198,1.26
		s0.386,0.418,1.234,0.079s0.509-1.322,0.713-1.539c0.204-0.218,0.837-0.928,0.837-0.928L212.705,188.73z"/>
	<path fill="#FEC7C7" d="M214.583,180.708c0,0-0.691,0.064-1.125,0.633c-0.435,0.569-0.972,1.62-0.989,1.89s-0.63,1.642-0.683,1.909
		c-0.054,0.268-0.155,3.282,0.284,3.472c0.44,0.191,3.413,0.363,4.489-0.346c1.076-0.708,1.584-1.87,1.79-2.254
		c0.205-0.385,0.03-3.308-0.525-3.958C217.27,181.404,216.773,180.686,214.583,180.708z"/>
	<path fill="#754554" d="M215.987,181.25c0,0,1.176,0.794,1.361,1.66c0.187,0.867,0.237,1.765,0.127,2.219
		c-0.11,0.455-0.661,1.437-0.688,1.652s-0.073,0.511-0.073,0.511s0.639-1.302,0.915-1.379s0.891-0.133,0.891-0.133
		s-0.323,1.444-0.348,1.605c-0.023,0.161-0.333,0.969-0.21,1.384c0.123,0.415,0.545,0.808,0.767,0.944
		c0.223,0.136,1.195,0.619,1.195,0.619s-0.813-1.91-0.763-2.286c0.051-0.377,1.412-1.294,1.399-3.438
		c-0.012-2.144-0.183-3.294-2.029-4.117c-0.587-0.58-1.967-0.627-2.954-0.46s-1.724,0.649-1.868,0.789
		c-0.145,0.141-0.425,0.768-0.425,0.768s0.276-0.573,0.905-0.642C214.817,180.877,215.325,181.208,215.987,181.25z"/>
	<g>
		<path fill="#754554" d="M215.55,183.979c-0.864-0.775-1.566-0.593-1.575-0.59l-0.04-0.14c0.032-0.01,0.782-0.212,1.713,0.622
			L215.55,183.979z"/>
	</g>
	<g>
		<path fill="#754554" d="M213.114,183.182c-0.031-0.097-0.307-0.305-0.493-0.422l0.078-0.123c0.082,0.051,0.496,0.319,0.554,0.501
			L213.114,183.182z"/>
	</g>
	<g>
		
			<linearGradient id="SVGID_5_" gradientUnits="userSpaceOnUse" x1="-770.812" y1="91.8896" x2="-771.7041" y2="91.8896" gradientTransform="matrix(0.9987 -0.0519 0.0519 0.9987 977.8701 52.8464)">
			<stop  offset="0.1224" style="stop-color:#FEC7C7"/>
			<stop  offset="0.9896" style="stop-color:#FFDBDB"/>
		</linearGradient>
		<path fill="url(#SVGID_5_)" d="M213.26,183.382c0.012,0.231-1.452,1.526-1.474,1.759c-0.022,0.234,0.696,0.605,0.948,0.703
			L213.26,183.382z"/>
		
			<linearGradient id="SVGID_6_" gradientUnits="userSpaceOnUse" x1="-771.6421" y1="91.5313" x2="-770.5234" y2="91.9607" gradientTransform="matrix(0.9987 -0.0519 0.0519 0.9987 977.8701 52.8464)">
			<stop  offset="0.188" style="stop-color:#FFDCDC"/>
			<stop  offset="0.8991" style="stop-color:#FEC7C7"/>
		</linearGradient>
		<path fill="url(#SVGID_6_)" d="M212.709,185.912c-0.01-0.004-1.028-0.431-0.995-0.777c0.012-0.125,0.231-0.365,0.729-0.882
			c0.293-0.304,0.736-0.765,0.744-0.868l0.146-0.007c0.007,0.137-0.234,0.403-0.785,0.976c-0.285,0.296-0.675,0.702-0.689,0.795
			c-0.014,0.146,0.545,0.49,0.903,0.628L212.709,185.912z"/>
	</g>
	<g>
		<path fill="#FB7F9E" d="M213.131,187.255c-1.034-0.322-1.187-0.544-1.201-0.567l0.125-0.076c0.001,0.002,0.153,0.203,1.119,0.505
			L213.131,187.255z"/>
	</g>
	<circle fill="#FFFFFF" cx="214.547" cy="184.511" r="0.301"/>
	
		<ellipse transform="matrix(0.9561 0.2932 -0.2932 0.9561 63.1844 -54.3131)" fill="#FFFFFF" cx="212.771" cy="183.615" rx="0.192" ry="0.278"/>
	
		<linearGradient id="SVGID_7_" gradientUnits="userSpaceOnUse" x1="-766.4824" y1="94.248" x2="-764.4399" y2="94.248" gradientTransform="matrix(0.9987 -0.0519 0.0519 0.9987 977.8701 52.8464)">
		<stop  offset="0.1224" style="stop-color:#FEB9B8"/>
		<stop  offset="1" style="stop-color:#FFDEDE"/>
	</linearGradient>
	<path fill="url(#SVGID_7_)" d="M218.047,185.939c0,0,0.435-0.433,1.038-0.124c0.604,0.31-0.273,1.583-0.789,1.767
		s-0.818,0.145-0.955,0.004s0.293-0.916,0.293-0.916L218.047,185.939z"/>
	
		<linearGradient id="SVGID_8_" gradientUnits="userSpaceOnUse" x1="-766.0068" y1="94.0786" x2="-764.623" y2="94.0786" gradientTransform="matrix(0.9987 -0.0519 0.0519 0.9987 977.8701 52.8464)">
		<stop  offset="0.1224" style="stop-color:#FCA4B5"/>
		<stop  offset="0.9896" style="stop-color:#FFADB7"/>
	</linearGradient>
	<path fill="url(#SVGID_8_)" d="M218.099,186.085c0,0,0.396-0.375,0.826-0.198s-0.005,1.03-0.195,1.154
		c-0.191,0.124-0.969,0.257-0.957,0.115s0.306-0.444,0.315-0.642S218.099,186.085,218.099,186.085z"/>
	<path fill="#FEBFBF" d="M222.13,205.678c0,0-0.149,0.369-0.394,1.154c-0.245,0.785-0.122,5.377-0.414,6.471
		s-0.745,2.258-0.745,2.258s-0.762,0.883-0.824,1.15s-0.349,0.782-0.438,1.319c-0.088,0.537-0.139,0.896-0.206,0.964
		c-0.067,0.067-0.308,0.296-0.321,0.504c-0.014,0.207,0.46,0.155,0.604,0.038c0.143-0.117,0.573-0.624,0.577-0.822
		c0.003-0.198,0.137-0.588,0.137-0.588s0.024,0.607,0.015,0.751c-0.009,0.145-0.336,0.883-0.336,0.883s-0.53,0.229-0.599,0.306
		s-0.145,0.28-0.033,0.378s0.942,0.105,0.942,0.105s0.653-0.031,0.903-0.114c0.249-0.084,0.464-0.612,0.464-0.612
		s0.487,0.013,0.586-0.117c0.099-0.129,0.523-0.689,0.691-1.203c0.169-0.514-0.038-2.082,0.076-3.016
		c0.113-0.933,2.536-8.716,1.845-10.695C223.375,205.033,222.13,205.678,222.13,205.678z"/>
	<path fill="#FEBFBF" d="M224.648,205.757c0,0,0.16-8.02-0.541-10.208s-1.223-2.954-2.328-1.776
		c-1.106,1.177-1.484,2.474-1.085,5.526c0.398,3.052,0.958,7.08,1.312,7.916C222.359,208.052,224.49,209.083,224.648,205.757z"/>
</g>
</svg>
