<?xml version="1.0" encoding="utf-8"?>
<!-- Generator: Adobe Illustrator 16.0.0, SVG Export Plug-In . SVG Version: 6.00 Build 0)  -->
<!DOCTYPE svg PUBLIC "-//W3C//DTD SVG 1.1//EN" "http://www.w3.org/Graphics/SVG/1.1/DTD/svg11.dtd">
<svg version="1.1" id="Layer_1" xmlns="http://www.w3.org/2000/svg" xmlns:xlink="http://www.w3.org/1999/xlink" x="0px" y="0px"
	 width="463.683px" height="425.749px" viewBox="0 0 463.683 425.749" enable-background="new 0 0 463.683 425.749"
	 xml:space="preserve">
<g>
	<g>
		<path fill="#D7E4F2" d="M82.297,245.098l11.193,6.462c0.695,0.401,1.411,0.462,1.877,0.159l6.139-3.96
			c0.277-0.18,0.108-0.702-0.304-0.94l-12.316-7.11l-6.893,4.449C81.715,244.338,81.884,244.859,82.297,245.098z"/>
		<g>
			<g>
				<path fill="#25242F" d="M93.783,249.239c0-0.533,0.376-1.183,0.841-1.451c0.234-0.136,0.445-0.147,0.598-0.059v-0.001
					l0.764,0.488l-1.24,2.021l-0.717-0.458v-0.001C93.877,249.693,93.783,249.506,93.783,249.239z"/>
				<path fill="#393842" d="M94.524,249.713c0,0.533,0.377,0.749,0.841,0.48c0.465-0.269,0.842-0.918,0.842-1.451
					c0-0.534-0.377-0.748-0.842-0.48C94.901,248.53,94.524,249.18,94.524,249.713z"/>
			</g>
			<path fill="#CDC6BC" d="M94.762,249.576c0,0.383,0.271,0.536,0.604,0.344c0.333-0.192,0.604-0.658,0.604-1.041
				s-0.27-0.536-0.604-0.344C95.033,248.728,94.762,249.193,94.762,249.576z"/>
		</g>
		<g>
			<g>
				<path fill="#25242F" d="M84.698,243.962c0-0.533,0.377-1.184,0.842-1.452c0.234-0.135,0.445-0.146,0.598-0.059h0l0.764,0.489
					l-1.239,2.021l-0.718-0.459l0,0C84.792,244.416,84.698,244.229,84.698,243.962z"/>
				<path fill="#393842" d="M85.44,244.436c0,0.533,0.376,0.748,0.841,0.48c0.465-0.269,0.841-0.918,0.841-1.452
					c0-0.533-0.376-0.748-0.841-0.479C85.816,243.252,85.44,243.902,85.44,244.436z"/>
			</g>
			<path fill="#CDC6BC" d="M85.678,244.299c0,0.382,0.271,0.536,0.604,0.344c0.333-0.192,0.604-0.658,0.604-1.041
				s-0.27-0.536-0.604-0.344C85.948,243.45,85.678,243.916,85.678,244.299z"/>
		</g>
		<g>
			<g>
				<path fill="#25242F" d="M99.099,246.022c0-0.533,0.377-1.184,0.842-1.452c0.234-0.135,0.445-0.146,0.598-0.059h0l0.764,0.488
					l-1.24,2.021l-0.717-0.459l0,0C99.194,246.477,99.099,246.289,99.099,246.022z"/>
				<path fill="#393842" d="M99.841,246.496c0,0.533,0.377,0.748,0.841,0.48c0.465-0.269,0.842-0.918,0.842-1.452
					c0-0.533-0.377-0.748-0.842-0.479C100.218,245.313,99.841,245.963,99.841,246.496z"/>
			</g>
			<path fill="#CDC6BC" d="M100.079,246.359c0,0.382,0.271,0.536,0.604,0.344c0.333-0.192,0.604-0.658,0.604-1.041
				s-0.27-0.536-0.604-0.344C100.35,245.511,100.079,245.977,100.079,246.359z"/>
		</g>
		<g>
			<g>
				<path fill="#423746" d="M100.875,243.15c0,0-0.146,0.225-0.282,0.148c-0.712-0.399-3.689,0.856-4.402,0.487
					c-0.113,0.077-0.227,0.154-0.34,0.231c0.024,0.074,0.036,0.111,0.06,0.186c0.447,0.258,0.894,0.516,1.341,0.773
					c0.249,0.322,0.497,0.645,0.746,0.966c0.225,0.13,2.065-0.966,2.291-0.835c0.077-0.229,0.798-0.837,0.875-1.064
					C101.069,243.745,100.972,243.447,100.875,243.15z"/>
				
					<linearGradient id="SVGID_1_" gradientUnits="userSpaceOnUse" x1="5065.2944" y1="828.8506" x2="5078.3589" y2="806.2222" gradientTransform="matrix(-0.944 -0.073 0.3212 0.9053 4619.4136 -138.2153)">
					<stop  offset="0" style="stop-color:#D73E41"/>
					<stop  offset="0.0102" style="stop-color:#D53C40"/>
					<stop  offset="0.0155" style="stop-color:#CD353B"/>
					<stop  offset="0.0191" style="stop-color:#C22C34"/>
					<stop  offset="0.5361" style="stop-color:#C22C34"/>
					<stop  offset="0.5477" style="stop-color:#D43D40"/>
					<stop  offset="0.5635" style="stop-color:#E74E4C"/>
					<stop  offset="0.5801" style="stop-color:#F15854"/>
					<stop  offset="0.5987" style="stop-color:#F55B56"/>
					<stop  offset="0.6171" style="stop-color:#F75E58"/>
					<stop  offset="0.6324" style="stop-color:#FC695F"/>
					<stop  offset="0.6377" style="stop-color:#FF6E63"/>
					<stop  offset="0.9832" style="stop-color:#FF6E63"/>
					<stop  offset="0.9837" style="stop-color:#FF6D62"/>
					<stop  offset="0.988" style="stop-color:#FF665E"/>
					<stop  offset="1" style="stop-color:#FF645D"/>
				</linearGradient>
				<path fill="url(#SVGID_1_)" d="M94.263,225.362c-2.731-1.577-5.462-3.153-8.192-4.729c-0.783-0.452-1.265-0.182-0.988,0.63
					c1.486,4.588,4.068,8.503,5.555,13.091c0.018,0.055,0.077,0.125,0.131,0.156c3.643,2.103,6.708,7.468,10.35,9.57
					c0.054,0.031,0.026-0.835,0.009-0.89c-1.487-4.589-3.433-10.917-4.92-15.505C95.952,226.897,95.052,225.805,94.263,225.362z"/>
				
					<linearGradient id="SVGID_2_" gradientUnits="userSpaceOnUse" x1="5068.0112" y1="831.4043" x2="5081.8291" y2="807.4711" gradientTransform="matrix(-0.944 -0.073 0.3212 0.9053 4619.4136 -138.2153)">
					<stop  offset="0" style="stop-color:#EA5257"/>
					<stop  offset="0.0097" style="stop-color:#EC5459"/>
					<stop  offset="0.0148" style="stop-color:#F35C60"/>
					<stop  offset="0.0188" style="stop-color:#FE6A6D"/>
					<stop  offset="0.0191" style="stop-color:#FF6B6E"/>
					<stop  offset="0.5361" style="stop-color:#FF6B69"/>
					<stop  offset="0.5597" style="stop-color:#FF706F"/>
					<stop  offset="0.5987" style="stop-color:#FF7273"/>
					<stop  offset="0.6164" style="stop-color:#FF7575"/>
					<stop  offset="0.631" style="stop-color:#FF8079"/>
					<stop  offset="0.6377" style="stop-color:#FF877D"/>
					<stop  offset="0.9832" style="stop-color:#FF877D"/>
					<stop  offset="0.9837" style="stop-color:#FF867C"/>
					<stop  offset="0.988" style="stop-color:#FF7F77"/>
					<stop  offset="1" style="stop-color:#FF7D76"/>
				</linearGradient>
				<path fill="url(#SVGID_2_)" d="M79.141,223.658l5.127-3.469c0.004-0.002,0.008-0.005,0.012-0.008l0.005-0.003l0.001,0.001
					c0.224-0.134,0.604-0.079,1.089,0.201c2.771,1.6,5.542,3.199,8.313,4.8c0.984,0.567,2.082,1.879,2.403,2.87
					c1.528,4.716,3.515,11.172,5.043,15.888c0.021,0.065,0.014,0.108-0.01,0.133l0.002,0.004l-0.008,0.005
					c-0.001,0.001-0.002,0.002-0.003,0.002l-4.94,4.013l-6.881-9.585c-0.2-0.115-0.4-0.23-0.6-0.346
					c-0.146-0.084-0.305-0.273-0.353-0.422c-0.101-0.309-0.66-2.357-0.76-2.666L79.141,223.658z"/>
				<g>
					<path fill="#423746" d="M91.392,241.22c0.156,0.483,0.079,1.193-0.4,0.917c-0.479-0.277-1.206-1.451-1.362-1.935
						c-0.157-0.483,0.114-0.655,0.594-0.379C90.703,240.101,91.235,240.736,91.392,241.22z"/>
					<path fill="#423746" d="M91.125,241.066c0.107,0.329,0.094,0.973-0.221,0.802c-0.335-0.182-0.91-1.205-1.01-1.513
						c-0.1-0.308,0.07-0.475,0.415-0.264C90.633,240.289,91.019,240.737,91.125,241.066z"/>
				</g>
				<path fill="#750000" d="M87.627,235.217c0,0,0.852,2.275,0.989,2.357c0.721,0.428,1.491,0.938,2.237,1.41
					c0.227,0.273,0.453,0.546,0.68,0.82c0.024,0.073,0.036,0.11,0.06,0.185c-0.447-0.259-0.895-0.517-1.341-0.774
					c-0.106,0.117-0.212,0.234-0.319,0.352c-0.226-0.131-0.451-0.261-0.676-0.391c-0.294-0.442-0.588-0.884-0.882-1.326
					C88.279,237.553,87.724,235.514,87.627,235.217z"/>
			</g>
			<g>
				
					<linearGradient id="SVGID_3_" gradientUnits="userSpaceOnUse" x1="5073.9399" y1="834.8271" x2="5087.5879" y2="811.1882" gradientTransform="matrix(-0.944 -0.073 0.3212 0.9053 4619.4136 -138.2153)">
					<stop  offset="0" style="stop-color:#F75F65"/>
					<stop  offset="0.0104" style="stop-color:#F86167"/>
					<stop  offset="0.016" style="stop-color:#FB696C"/>
					<stop  offset="0.0191" style="stop-color:#FF7273"/>
					<stop  offset="0.5361" style="stop-color:#FF7273"/>
					<stop  offset="0.5614" style="stop-color:#FF7978"/>
					<stop  offset="0.5987" style="stop-color:#FF7D7A"/>
					<stop  offset="0.6167" style="stop-color:#FF807C"/>
					<stop  offset="0.6317" style="stop-color:#FF8B83"/>
					<stop  offset="0.6377" style="stop-color:#FF9187"/>
					<stop  offset="0.9832" style="stop-color:#FF9187"/>
					<stop  offset="0.9837" style="stop-color:#FF9086"/>
					<stop  offset="0.988" style="stop-color:#FF8982"/>
					<stop  offset="1" style="stop-color:#FF8781"/>
				</linearGradient>
				<path fill="url(#SVGID_3_)" d="M88.553,228.654c-2.771-1.601-5.542-3.2-8.313-4.8c-0.985-0.569-1.542-0.213-1.221,0.778
					c1.528,4.715,3.709,11.709,5.237,16.425c0.048,0.147,0.207,0.337,0.353,0.422c3.802,2.194,7.604,4.39,11.406,6.585
					c0.146,0.084,0.227,0.033,0.179-0.115c-1.528-4.715-3.709-11.709-5.237-16.424C90.635,230.533,89.538,229.222,88.553,228.654z"
					/>
				<path fill="#D33D48" d="M88.359,229.078c-2.731-1.576-5.462-3.153-8.193-4.73c-0.782-0.451-1.265-0.182-0.988,0.63
					c1.487,4.589,3.626,11.455,5.113,16.044c0.018,0.054,0.077,0.124,0.131,0.155c3.643,2.104,7.286,4.206,10.928,6.31
					c0.054,0.031,0.084,0.012,0.066-0.042c-1.487-4.589-3.626-11.455-5.113-16.044C90.049,230.613,89.149,229.52,88.359,229.078z"/>
				<polygon fill="#423746" points="92.805,245.834 87.518,242.781 87.659,243.217 92.946,246.27 				"/>
				<path fill="#342838" d="M84.001,240.271c0,0,0.393,0.536,0.53,0.618c0.722,0.428,1.491,0.937,2.237,1.409
					c0.227,0.273,0.454,0.547,0.68,0.82c0.024,0.074,0.036,0.111,0.06,0.185l-0.121,0.114c0,0-0.943-0.729-1.221-0.889
					c-0.106,0.117-0.212,0.234-0.319,0.352c-0.225-0.13-0.451-0.26-0.676-0.391c-0.294-0.441-1.292-2.104-1.292-2.104
					S83.913,240.297,84.001,240.271z"/>
				<path fill="#423746" d="M83.881,240.386c0,0,0.392,0.536,0.53,0.618c0.721,0.428,1.491,0.937,2.237,1.409
					c0.227,0.273,0.454,0.546,0.68,0.819c0.024,0.074,0.036,0.111,0.06,0.186c-0.447-0.258-0.894-0.516-1.341-0.774
					c-0.106,0.117-0.212,0.234-0.318,0.352c-0.226-0.13-0.451-0.261-0.676-0.391c-0.294-0.442-0.588-0.884-0.882-1.326
					C84.074,240.981,83.978,240.684,83.881,240.386z"/>
				<path fill="#342838" d="M95.935,247.161c0,0-0.146,0.226-0.282,0.149c-0.712-0.4-1.431-0.75-2.143-1.12
					c-0.113,0.077-0.227,0.154-0.34,0.231c0.024,0.074,0.036,0.111,0.06,0.186c0.447,0.258,0.894,0.516,1.341,0.773
					c0.248,0.322,1.284,1.472,1.284,1.472l0.137-0.115c0,0,0.154-0.455,0.231-0.683C96.128,247.757,96.032,247.459,95.935,247.161z"
					/>
				<path fill="#423746" d="M95.797,247.276c0,0-0.146,0.226-0.282,0.148c-0.712-0.399-1.431-0.749-2.143-1.119
					c-0.113,0.077-0.227,0.154-0.34,0.231c0.024,0.074,0.036,0.111,0.06,0.185c0.447,0.259,0.894,0.517,1.341,0.774
					c0.249,0.322,0.497,0.645,0.746,0.966c0.225,0.13,0.451,0.261,0.676,0.391c0.077-0.228,0.154-0.456,0.231-0.683
					C95.991,247.872,95.894,247.574,95.797,247.276z"/>
				<path fill="#E44E5A" d="M86.349,241.809c-0.159-0.092-0.238-0.138-0.396-0.229c-0.178-0.103-0.369-0.33-0.427-0.509
					c-1.483-4.576-3.619-11.431-5.102-16.008c-0.058-0.178,0.039-0.24,0.217-0.138c0.158,0.092,0.237,0.138,0.396,0.229
					c0.178,0.102,0.369,0.33,0.426,0.509c1.483,4.576,3.619,11.431,5.102,16.007C86.624,241.849,86.526,241.91,86.349,241.809z"/>
				<path fill="#E44E5A" d="M94.133,246.303c-0.159-0.092-0.238-0.138-0.396-0.229c-0.178-0.104-0.369-0.331-0.427-0.51
					c-1.483-4.576-3.619-11.432-5.102-16.007c-0.058-0.179,0.039-0.241,0.217-0.139c0.158,0.092,0.237,0.138,0.396,0.229
					c0.178,0.102,0.369,0.33,0.426,0.509c1.483,4.576,3.619,11.431,5.102,16.007C94.407,246.343,94.311,246.405,94.133,246.303z"/>
				<path fill="#CE3844" d="M86.124,241.984c-0.159-0.092-0.238-0.137-0.396-0.229c-0.178-0.104-0.368-0.331-0.426-0.51
					c-1.483-4.576-3.619-11.431-5.102-16.007c-0.058-0.179,0.039-0.241,0.217-0.138c0.159,0.091,0.238,0.137,0.396,0.229
					c0.178,0.103,0.368,0.33,0.426,0.51c1.483,4.576,3.619,11.431,5.102,16.007C86.398,242.025,86.301,242.087,86.124,241.984z"/>
				<path fill="#CE3844" d="M93.908,246.479c-0.159-0.092-0.238-0.137-0.396-0.229c-0.178-0.103-0.368-0.33-0.426-0.51
					c-1.483-4.576-3.619-11.431-5.102-16.007c-0.058-0.179,0.039-0.241,0.217-0.138c0.159,0.092,0.238,0.137,0.396,0.229
					c0.177,0.103,0.368,0.33,0.426,0.509c1.483,4.577,3.619,11.431,5.102,16.008C94.182,246.52,94.085,246.581,93.908,246.479z"/>
				<polygon fill="#E44E5A" points="92.832,245.916 92.669,245.963 86.406,227.932 87.36,227.909 87.254,228.439 				"/>
				<polygon fill="#CE3844" points="92.669,245.963 87.382,242.91 81.758,225.291 87.045,228.344 				"/>
				<polygon fill="#FF7B77" points="87.36,227.909 82.073,224.856 81.758,225.291 87.045,228.344 				"/>
				<path fill="#E44E5A" d="M88.605,243.318L88.605,243.318c-0.192-0.111-0.406-0.383-0.479-0.607l-5.048-15.842
					c-0.073-0.224,0.024-0.316,0.216-0.205l0,0c0.192,0.11,0.406,0.383,0.479,0.607l5.048,15.841
					C88.894,243.337,88.797,243.43,88.605,243.318z"/>
				<path fill="#E44E5A" d="M89.932,244.084c-0.021-0.012-0.031-0.018-0.052-0.029c-0.178-0.103-0.369-0.33-0.426-0.51
					c-1.483-4.576-3.619-11.431-5.102-16.007c-0.058-0.179,0.039-0.24,0.217-0.138c0.021,0.012,0.031,0.018,0.052,0.029
					c0.177,0.103,0.368,0.331,0.426,0.51c1.483,4.576,3.619,11.432,5.102,16.007C90.207,244.125,90.11,244.188,89.932,244.084z"/>
				<path fill="#E44E5A" d="M91.234,244.836c-0.021-0.012-0.031-0.018-0.052-0.029c-0.178-0.104-0.369-0.331-0.427-0.51
					c-1.483-4.576-3.619-11.431-5.102-16.007c-0.058-0.179,0.039-0.241,0.216-0.139c0.021,0.013,0.031,0.019,0.052,0.03
					c0.178,0.103,0.368,0.33,0.426,0.51c1.483,4.576,3.619,11.43,5.102,16.007C91.508,244.877,91.412,244.938,91.234,244.836z"/>
				<path fill="#CE3844" d="M88.379,243.494L88.379,243.494c-0.192-0.11-0.406-0.383-0.479-0.606l-5.048-15.842
					c-0.073-0.225,0.024-0.316,0.215-0.206l0,0c0.192,0.111,0.407,0.383,0.479,0.607l5.048,15.842
					C88.668,243.514,88.572,243.605,88.379,243.494z"/>
				<path fill="#CE3844" d="M89.707,244.261c-0.021-0.012-0.031-0.018-0.052-0.03c-0.177-0.102-0.368-0.33-0.426-0.509
					c-1.483-4.576-3.619-11.431-5.102-16.007c-0.058-0.18,0.039-0.241,0.216-0.139c0.021,0.012,0.031,0.018,0.052,0.03
					c0.178,0.103,0.369,0.331,0.426,0.509c1.483,4.577,3.619,11.432,5.102,16.008C89.981,244.302,89.884,244.363,89.707,244.261z"/>
				<path fill="#CE3844" d="M91.008,245.012c-0.021-0.012-0.031-0.018-0.052-0.029c-0.178-0.103-0.369-0.33-0.427-0.51
					c-1.482-4.576-3.619-11.431-5.102-16.007c-0.058-0.179,0.039-0.24,0.217-0.138c0.021,0.012,0.031,0.018,0.052,0.029
					c0.178,0.103,0.369,0.331,0.427,0.51c1.483,4.576,3.619,11.431,5.102,16.007C91.283,245.053,91.186,245.114,91.008,245.012z"/>
			</g>
		</g>
		<g>
			<path fill="#C22C34" d="M96.71,244.865l-4.49-14.18c-0.005-0.016-0.645-1.835-2.344-2.797c-1.745-0.988-8.249-4.762-8.314-4.801
				c-0.297-0.159-0.81-0.342-0.944-0.214l-0.179-0.19c0.317-0.3,1.097,0.095,1.25,0.177c0.069,0.04,6.571,3.813,8.316,4.801
				c1.787,1.013,2.435,2.864,2.462,2.942l4.491,14.184L96.71,244.865z"/>
		</g>
		<polygon fill="#A6AABB" points="87.971,227.213 87.211,227.705 81.857,224.614 82.616,224.122 		"/>
		<g>
			<polygon fill="#251A29" points="80.428,218.562 80.956,218.271 80.187,217.818 			"/>
			<g>
				<path fill="#423746" d="M80.715,217.527c-0.224-0.13-0.335-0.194-0.56-0.323c0.081,0.247,0.161,0.495,0.241,0.743
					c0.224,0.129,0.336,0.193,0.56,0.323C80.875,218.022,80.795,217.774,80.715,217.527z"/>
				<path fill="#423746" d="M84.364,219.634c0.224,0.129,0.335,0.194,0.56,0.323c0.081,0.248,0.161,0.496,0.241,0.743
					c-0.224-0.129-0.335-0.194-0.56-0.323C84.525,220.129,84.445,219.882,84.364,219.634z"/>
			</g>
		</g>
		
			<linearGradient id="SVGID_4_" gradientUnits="userSpaceOnUse" x1="5077.5288" y1="808.9834" x2="5078.4009" y2="808.9834" gradientTransform="matrix(-0.944 -0.073 0.3212 0.9053 4619.4136 -138.2153)">
			<stop  offset="0.02" style="stop-color:#251A29"/>
			<stop  offset="0.3088" style="stop-color:#251A29"/>
			<stop  offset="0.3578" style="stop-color:#312536"/>
			<stop  offset="0.4022" style="stop-color:#35293B"/>
			<stop  offset="0.4607" style="stop-color:#392D3E"/>
			<stop  offset="0.5111" style="stop-color:#423746"/>
			<stop  offset="0.9269" style="stop-color:#423746"/>
		</linearGradient>
		<path fill="url(#SVGID_4_)" d="M84.011,219.596c0.326,0.131,0.713,0.889,1.04,1.021c0.46,1.417,1.768,5.132,2.228,6.549v0.001
			c0.001,0.002,0.002,0.005,0.002,0.008c0-0.001-0.001-0.001-0.001-0.001c0.002,0.013,0,0.023-0.012,0.031l-0.159,0.103
			c-0.028,0.019-0.09,0.011-0.139-0.018l-0.405-0.233c-0.025-0.015-0.041-0.031-0.047-0.047h0
			C86.058,225.589,84.471,221.016,84.011,219.596z"/>
		
			<linearGradient id="SVGID_5_" gradientUnits="userSpaceOnUse" x1="5080.9048" y1="806.7832" x2="5081.7944" y2="806.7832" gradientTransform="matrix(-0.944 -0.073 0.3212 0.9053 4619.4136 -138.2153)">
			<stop  offset="0.02" style="stop-color:#251A29"/>
			<stop  offset="0.3088" style="stop-color:#251A29"/>
			<stop  offset="0.3578" style="stop-color:#312536"/>
			<stop  offset="0.4022" style="stop-color:#35293B"/>
			<stop  offset="0.4607" style="stop-color:#392D3E"/>
			<stop  offset="0.5111" style="stop-color:#423746"/>
			<stop  offset="0.9269" style="stop-color:#423746"/>
		</linearGradient>
		<path fill="url(#SVGID_5_)" d="M80.107,217.379c0.327,0.132,0.534,0.335,0.861,0.466c0.459,1.417,1.934,5.646,2.393,7.062H83.36
			c0.005,0.014,0.003,0.027-0.011,0.035l-0.158,0.104c-0.028,0.018-0.091,0.01-0.139-0.018l-0.405-0.234
			c-0.026-0.015-0.042-0.032-0.047-0.049h-0.001C82.14,223.328,80.566,218.796,80.107,217.379z"/>
		<polygon fill="#342838" points="95.797,247.276 95.935,247.161 96.111,247.056 96.472,248.168 95.993,248.737 96.225,248.055 		
			"/>
		<polygon fill="#342838" points="100.29,245.107 99.91,244.902 100.035,244.72 100.014,244.463 99.778,243.734 100.875,243.15 
			101.165,244.043 100.626,244.963 		"/>
	</g>
	<g>
		<g>
			<path fill="#FEBFBF" d="M65.645,193.054c-0.259,1.059-0.171,6.957-0.387,7.859c-0.216,0.903,2.373-1.654,2.428-5.84
				c0.034-2.611,2.535-4.524,2.05-4.666C67.656,189.805,66.159,190.95,65.645,193.054z"/>
			<path fill="#FEBFBF" d="M64.825,216.9c0,0,0.206,0.184,0.207,0.367c0,0.005,0,0.008,0,0.013
				c-0.004,0.101-0.123,0.166-0.219,0.217c-0.064,0.034-0.117,0.062-0.124,0.088c-0.003,0.009,0,0.016,0.006,0.024
				c0.001,0.001,0.003,0.004,0.002,0.006l0.005,0.015c0.012,0.109-0.292,0.447-0.292,0.447l-0.152-0.054h-0.001l-0.328-0.114
				c0,0-0.13,0.285-0.342,0.253c-0.212-0.032-1.313-1.043-1.403-1.22c-0.09-0.178-0.083-1.68-0.04-2.051
				c0.043-0.371,0.696-1.436,1.146-2.427c0.449-0.992,0.876-5.742,1.057-7.777s0.911-3.624,0.912-3.774
				c0-0.151,0.406-0.264,0.406-0.264s1.164,0.001,1.33,0.836c0.166,0.835-1.597,9.233-1.597,9.233s-0.092,2.119-0.116,2.436
				c-0.023,0.318-0.609,1.704-0.609,1.704s-0.057,0.849-0.071,0.91c-0.014,0.062,0.416,0.563,0.503,0.894
				c0.052,0.199-0.061,0.245-0.159,0.249C64.882,216.915,64.825,216.9,64.825,216.9z"/>
			
				<linearGradient id="SVGID_6_" gradientUnits="userSpaceOnUse" x1="-517.5225" y1="216.1523" x2="-515.2778" y2="216.1523" gradientTransform="matrix(1 0 0 1 580.3091 0)">
				<stop  offset="0.1224" style="stop-color:#FCA4B5"/>
				<stop  offset="0.9896" style="stop-color:#FFADB7"/>
			</linearGradient>
			<path fill="url(#SVGID_6_)" d="M64.743,217.467l0.069,0.03c-0.064,0.034-0.117,0.062-0.124,0.088l-0.01-0.033l-0.691-0.442
				l-0.439-0.691l-0.136,0.681l0.403,0.455l0.441,0.47l-0.328-0.114c0.025-0.046-0.445-0.376-0.524-0.413
				c-0.079-0.037-0.292-0.21-0.309-0.305c-0.017-0.095-0.243-0.445-0.243-0.445s0.044-0.479,0.02-0.74
				c-0.025-0.262-0.085-0.78-0.085-0.78s0,0,0.069-0.037c0.07-0.039,0.269-0.638,0.26-0.713l0.958-0.194l-0.124,0.829
				c0,0,0.093,0.317,0.152,0.491c0.059,0.174,0.3,0.73,0.3,0.73l0.203,0.32l0.34,0.259c-0.063,0.004-0.12-0.011-0.12-0.011
				s0.206,0.184,0.207,0.367l-0.359-0.31l-0.478-0.52l-0.245-0.762l-0.246,0.175l0.068,0.546l0.275,0.589l0.264,0.124
				L64.743,217.467z"/>
			
				<linearGradient id="SVGID_7_" gradientUnits="userSpaceOnUse" x1="-515.9019" y1="211.0869" x2="-514.665" y2="211.0869" gradientTransform="matrix(1 0 0 1 580.3091 0)">
				<stop  offset="0.1224" style="stop-color:#FCA4B5"/>
				<stop  offset="0.9896" style="stop-color:#FFADB7"/>
			</linearGradient>
			<path fill="url(#SVGID_7_)" d="M64.617,215.624c0,0-0.338-0.665-0.155-1.048c0.184-0.382,0.354-1.252,0.354-1.252l0.107-1.992
				c0,0,0.6-3.729,0.664-4.639c0.064-0.911,0.057,2.827,0.057,2.827l-0.363,3.634l-0.609,1.704L64.617,215.624z"/>
			
				<linearGradient id="SVGID_8_" gradientUnits="userSpaceOnUse" x1="-516.3027" y1="212.9863" x2="-516.9539" y2="215.777" gradientTransform="matrix(1 0 0 1 580.3091 0)">
				<stop  offset="0.1224" style="stop-color:#FEC7C7"/>
				<stop  offset="1" style="stop-color:#FFDEDE"/>
			</linearGradient>
			<path fill="url(#SVGID_8_)" d="M64.664,213.515c0,0-0.026,0.702-0.304,1.022s-0.476,0.501-0.505,0.674s-0.053,0.689-0.002,1.132
				c0.051,0.441-0.211,0.939-0.432,0.924c-0.221-0.017-0.266-0.105-0.302-0.592s-0.157-1.28-0.113-1.497
				c0.044-0.219-0.18-0.931-0.061-1.157c0.119-0.228,0.597-1.146,0.975-1.204C64.297,212.758,64.669,212.672,64.664,213.515z"/>
		</g>
		<g>
			<g>
				<path fill="#D7E4F2" d="M61.569,249.228c4.191,2.667,11.182,2.956,15.615,0.646s4.629-6.345,0.438-9.012
					c-4.191-2.667-11.182-2.956-15.615-0.646C57.574,242.525,57.378,246.561,61.569,249.228z"/>
			</g>
			<g>
				<g>
					<path fill="#6C6B79" d="M63.46,243.488c0,0-0.209,0.105-0.22,0.262c-0.011,0.155-0.017,0.584-0.016,0.686
						c0.001,0.101,0.266,0.493,0.917,0.645c0.651,0.151,2.232-0.268,2.765-0.578c0.533-0.311,1.26-1.104,1.481-1.163
						c0.221-0.061,0.881,0.062,0.881,0.062l0.596-0.05l0.98-0.348c0,0,0.128-0.657-0.141-0.864S63.46,243.488,63.46,243.488z"/>
					<path fill="#C2D2EA" d="M67.147,240.819c0,0-0.774,0.49-0.912,0.629c-0.138,0.138-1.537,0.706-2.022,1.002
						c-0.485,0.296-0.85,0.802-0.882,0.968c-0.032,0.166-0.105,0.545-0.049,0.703c0.056,0.159,0.309,0.58,1.146,0.633
						c0.838,0.052,2.542-0.744,2.542-0.744s1.181-0.805,1.354-0.887s1.715-0.473,1.95-0.551c0.234-0.077,0.369-0.11,0.404-0.299
						c0.034-0.188,0.232-1.217,0.108-1.542C70.662,240.406,67.832,239.985,67.147,240.819z"/>
				</g>
				<g>
					<path fill="#6C6B79" d="M69.031,246.101c0,0-0.229,0.005-0.284,0.31s-0.047,0.668-0.047,0.668s0.286,0.437,1.244,0.558
						s2.131-0.233,2.733-0.574s0.817-0.617,1.18-1.121c0.363-0.503,0.737-0.744,0.737-0.744l0.153,0.042c0,0,0.86-0.625,1.001-0.842
						c0.073-0.182,0.127-1.105-0.005-1.189C75.611,243.123,69.031,246.101,69.031,246.101z"/>
					<path fill="#C2D2EA" d="M71.661,242.648l-0.266,0.637c0,0-1.568,1.521-1.992,1.976c-0.425,0.454-0.644,0.852-0.663,1.263
						c-0.019,0.412,1.05,0.678,1.21,0.689c0.161,0.012,0.871,0.081,1.781-0.258c0.911-0.339,1.286-0.666,2.017-1.46
						c0.73-0.795,1.225-1.232,1.449-1.414c0.225-0.182,0.55-0.471,0.546-0.706c-0.003-0.235,0.033-0.895-0.159-0.977
						S72.274,242.063,71.661,242.648z"/>
				</g>
				<path fill="#4F5997" d="M70.552,240.229c0,0-0.21,0.391-0.698,0.604c-0.499,0.222-1.286,0.258-2.436-0.489
					c0,0-0.273-14.333-1.069-18.535l3.426,6.045l1.438,0.052h0.002c0,0,0.593,4.609,0.237,7.029
					C71.095,237.356,70.552,240.229,70.552,240.229z"/>
				<path fill="#4F5997" d="M71.279,227.746c-0.017,0.055-0.038,0.107-0.063,0.159h-0.002c-0.212,0.448-0.673,0.716-1.203,0.833
					c-1.047,0.232-2.363-0.122-2.591-0.822c-0.015-0.043-0.029-0.095-0.047-0.151c-0.414-1.374-1.293-7.154-1.849-11.45
					c-0.577-4.478,0.539-6.615,0.539-6.615l5.467,0.994c0,0,0.047,2.639,0.065,5.803C71.617,220.832,71.556,226.872,71.279,227.746z
					"/>
				<path fill="#A8B0C2" d="M70.552,240.229c0,0-0.21,0.391-0.698,0.604c0.368-2.397,0.967-6.495,0.866-7.339
					c-0.065-0.566-0.208-3.341-0.362-4.677c-1.048-9.067-0.924-11.881-0.924-11.881l-1.166-1.778l3.327,1.338
					c0.022,4.336-0.039,10.376-0.316,11.25c-0.017,0.055-0.038,0.107-0.063,0.159c0,0,0.593,4.609,0.237,7.029
					C71.095,237.356,70.552,240.229,70.552,240.229z"/>
				<path fill="#4F5997" d="M68.151,212.541l-0.764,0.896c0,0-0.066,1.105,2.376,2.943c0.015,2.593,0.975,10.877,1.78,12.852
					c0.805,1.975,3.295,0.441,3.716-1.853c0.421-2.294,2.294-9.487,2.456-11.257s0.301-3.57-0.925-4.613
					C75.564,210.468,68.151,212.541,68.151,212.541z"/>
				<path fill="#4F5997" d="M72.096,242.325c0.458-1.606,0.104-10.547-0.552-13.093c3.383-1.969,3.815-2.351,3.815-2.351
					s1.234,6.55,1.187,7.85c-0.048,1.299-1.094,7.64-1.094,7.64S73.752,243.992,72.096,242.325z"/>
				<g>
					<path fill="#8C92B0" d="M74.71,243.246l-0.24-0.054c0.012-0.051,1.138-5.169,1.149-7.739c0.008-1.972-0.475-4.408-0.828-6.187
						c-0.164-0.829-0.294-1.483-0.325-1.854c-0.031-0.365,0.224-1.459,0.575-2.974c0.78-3.357,1.958-8.432,1.121-10.252l0.223-0.104
						c0.873,1.897-0.317,7.021-1.104,10.411c-0.334,1.437-0.597,2.571-0.571,2.897c0.03,0.356,0.159,1.005,0.322,1.826
						c0.355,1.789,0.84,4.238,0.833,6.234C75.854,238.051,74.722,243.194,74.71,243.246z"/>
				</g>
			</g>
			<g>
				<path fill="#6A3646" d="M74.269,182.055c0,0,1.223-0.638,1.987,0.027c0.764,0.665,0.449,3.535-0.329,5.225
					c-0.698,1.516-0.344,4.201,1.372,4.761c-1.204,0.903-3.915-0.1-4.291-1.757S74.269,182.055,74.269,182.055z"/>
				<path fill="#DDE8F6" d="M77.013,211.588c-0.142,0.149-0.518,0.351-1.046,0.546c-1.26,0.464-3.392,0.896-5.331,0.538
					c-2.751-0.51-4.47-1.833-4.757-2.903c0.046-0.463-0.002-5.174-0.089-6.26c-0.089-1.086-0.877-3.069-0.89-3.844
					c-0.013-0.773,0.51-2.387,0.744-3.233c0.447-1.62,1.258-4.096,1.462-4.449c0.326-0.563,0.796-1.298,1.441-1.466
					c0.646-0.17,4.414-0.281,5.157,0.009c0.745,0.291,1.419,0.976,2.281,1.434c2.604,1.385,2.855,2.918,2.855,2.918
					s-0.905,2.326-1.183,4.12c-0.069,0.448-0.122,0.831-0.153,1.09c-0.149,1.295-0.101,8.324-0.101,8.324
					S77.496,211.08,77.013,211.588z"/>
				<path fill="#FEBFBF" d="M73.768,190.406c0.138,0.007,0.497,0.535,1.113,0.84c0.616,0.305,0.635,0.387-0.107,1.067
					s-3.381,3.715-5.062,3.358c-1.68-0.357-1.596-1.992-1.53-2.646c0.065-0.654,1.063-2.143,1.388-2.286
					S73.768,190.406,73.768,190.406z"/>
				
					<linearGradient id="SVGID_9_" gradientUnits="userSpaceOnUse" x1="779.4438" y1="311.5693" x2="776.4353" y2="307.4843" gradientTransform="matrix(0.995 0.1 -0.1 0.995 -670.6086 -195.8364)">
					<stop  offset="0.1224" style="stop-color:#FEC7C7"/>
					<stop  offset="0.9694" style="stop-color:#FFADB7"/>
				</linearGradient>
				<path fill="url(#SVGID_9_)" d="M69.141,190.171c0,0,0.294,0.689,0.231,1.316s-0.41,1.67-0.41,1.67s0.384,0.739,1.917,0.57
					c1.532-0.169,1.586-0.703,2.071-0.978c0.485-0.274,1.735-1.534,1.656-1.622c-0.078-0.089-1.348-0.721-0.861-2.542
					c0.488-1.82,1.208-2.763,1.208-2.763s0.425-0.765-0.106-0.818C74.315,184.952,69.141,190.171,69.141,190.171z"/>
				
					<linearGradient id="SVGID_10_" gradientUnits="userSpaceOnUse" x1="774.6333" y1="310.668" x2="778.1089" y2="310.668" gradientTransform="matrix(0.995 0.1 -0.1 0.995 -670.6086 -195.8364)">
					<stop  offset="0.1224" style="stop-color:#FCA4B5"/>
					<stop  offset="0.9896" style="stop-color:#FFADB7"/>
				</linearGradient>
				<path fill="url(#SVGID_10_)" d="M72.722,189.3c0,0-1.307,1.221-1.583,1.84s-1.546,1.461-1.546,1.461l-0.214-1.372l-0.238-1.058
					L72.722,189.3z"/>
				<path fill="#DDE8F6" d="M77.013,211.588c-0.142,0.149-0.518,0.351-1.046,0.546c0.022-0.136,0.05-0.284,0.083-0.444
					c0.845-4.118,0.593-3.403,0.474-5.07c-0.121-1.671-0.612-3.208-1.176-3.127c-0.564,0.081-1.289,0.129-2.18-0.299
					c0.727,0.275,1.635,0.179,2.234-0.25c0.6-0.429,0.373-3.713,0.373-3.713c0.76-0.351,1.379-0.4,1.882-0.233
					c-0.069,0.448-0.122,0.831-0.153,1.09c-0.149,1.295-0.101,8.324-0.101,8.324S77.496,211.08,77.013,211.588z"/>
			</g>
			<g>
				<path fill="#FEC7C7" d="M68.78,181.701c0,0-0.557,0.442-0.92,1.376s-0.618,1.729-0.594,1.894s0.164,0.515-0.051,1.181
					c-0.215,0.665,0.461,3.994,1.182,4.322c0.722,0.328,4.054-0.792,4.425-1.267s1.319-2.4,1.436-3.695s0.498-2.807-1.377-3.588
					C71.004,181.143,68.78,181.701,68.78,181.701z"/>
				<g>
					
						<linearGradient id="SVGID_11_" gradientUnits="userSpaceOnUse" x1="773.3374" y1="306.6201" x2="772.7216" y2="306.6903" gradientTransform="matrix(0.995 0.1 -0.1 0.995 -670.6086 -195.8364)">
						<stop  offset="0.1224" style="stop-color:#FEC7C7"/>
						<stop  offset="0.9896" style="stop-color:#FFDBDB"/>
					</linearGradient>
					<path fill="url(#SVGID_11_)" d="M68.348,185.327c0.071,0.366-0.879,1.866-0.922,2.2c-0.042,0.335,0.898,0.313,0.898,0.313
						L68.348,185.327z"/>
					
						<linearGradient id="SVGID_12_" gradientUnits="userSpaceOnUse" x1="772.6128" y1="306.6328" x2="773.5933" y2="306.6328" gradientTransform="matrix(0.995 0.1 -0.1 0.995 -670.6086 -195.8364)">
						<stop  offset="0.188" style="stop-color:#FFDCDC"/>
						<stop  offset="0.8991" style="stop-color:#FEC7C7"/>
					</linearGradient>
					<path fill="url(#SVGID_12_)" d="M68.143,187.886c-0.222-0.01-0.578-0.048-0.712-0.197c-0.044-0.049-0.063-0.106-0.054-0.168
						c0.019-0.147,0.189-0.481,0.388-0.868c0.255-0.498,0.573-1.119,0.535-1.316l0.098-0.019c0.044,0.231-0.254,0.816-0.544,1.381
						c-0.186,0.363-0.361,0.705-0.377,0.835c-0.005,0.033,0.004,0.063,0.029,0.089c0.135,0.149,0.637,0.171,0.818,0.167l0.002,0.1
						C68.305,187.89,68.236,187.89,68.143,187.886z"/>
				</g>
				<g>
					<path fill="#754554" d="M71.083,185.679l-0.412-0.139c-0.998-0.232-1.514-0.116-1.519-0.115l-0.039-0.161
						c0.021-0.005,0.552-0.127,1.603,0.117l0.42,0.141L71.083,185.679z"/>
				</g>
				<g>
					<path fill="#754554" d="M68.066,185.112c-0.231-0.161-0.62-0.372-0.741-0.346l-0.034-0.162c0.239-0.049,0.767,0.3,0.869,0.371
						L68.066,185.112z"/>
				</g>
				
					<ellipse transform="matrix(0.9598 0.2805 -0.2805 0.9598 55.0227 -12.172)" fill="#FFFFFF" cx="70.028" cy="186.109" rx="0.349" ry="0.298"/>
				
					<ellipse transform="matrix(0.6996 -0.7145 0.7145 0.6996 -112.2971 104.2583)" fill="#FFFFFF" cx="67.845" cy="185.683" rx="0.245" ry="0.282"/>
				<path fill="#FB7F9E" d="M69.391,189.024c0,0-0.957-0.332-1.342-0.384c-0.386-0.052-0.413,0.08-0.385,0.211
					S68.29,189.931,69.391,189.024z"/>
				<path fill="#754554" d="M74.733,186.009c0,0-0.304-0.394-0.533-0.261c-0.229,0.132-0.658,0.312-0.676,0.491
					c-0.018,0.18-0.183,1.154-0.183,1.154s-0.413-0.722-0.34-1.442s-0.15-1.727-0.441-2.173c-0.292-0.447-0.587-1.137-1.276-1.247
					s-1.646,0.023-2.208-0.02c-0.561-0.043-0.791-0.243-0.791-0.243l-0.506,1.021c0,0,0.031-0.511,0.344-1.081
					c0.313-0.569,2.595-3.17,5.795-1.366c2.351,1.139,2.196,3.75,1.832,4.697c-0.365,0.947-1.472,1.787-1.585,2.077
					c-0.113,0.291-0.418,0.699-0.418,0.969c0,0.27,0.133-1.011,0.361-1.554C74.334,186.489,74.733,186.009,74.733,186.009z"/>
				
					<linearGradient id="SVGID_13_" gradientUnits="userSpaceOnUse" x1="778.564" y1="306.4111" x2="780.1616" y2="306.4111" gradientTransform="matrix(0.995 0.1 -0.1 0.995 -670.6086 -195.8364)">
					<stop  offset="0.1224" style="stop-color:#FEB9B8"/>
					<stop  offset="1" style="stop-color:#FFDEDE"/>
				</linearGradient>
				<path fill="url(#SVGID_13_)" d="M73.876,186.221c0,0,0.824-0.826,1.123-0.177c0.299,0.65-0.361,1.385-0.788,1.74
					c-0.426,0.355-0.739,0.451-0.861,0.257c-0.122-0.194,0.198-0.903,0.198-0.903L73.876,186.221z"/>
				<circle fill="#EFF0F5" cx="73.484" cy="188.004" r="0.167"/>
				
					<linearGradient id="SVGID_14_" gradientUnits="userSpaceOnUse" x1="778.8218" y1="306.3027" x2="779.9302" y2="306.3027" gradientTransform="matrix(0.995 0.1 -0.1 0.995 -670.6086 -195.8364)">
					<stop  offset="0.1224" style="stop-color:#FCA4B5"/>
					<stop  offset="0.9896" style="stop-color:#FFADB7"/>
				</linearGradient>
				<path fill="url(#SVGID_14_)" d="M73.996,186.233c0,0,0.526-0.472,0.745-0.107s0.034,1.007-0.522,1.544
					c-0.535,0.195-0.613-0.035-0.606-0.102c0.007-0.066,0.211-0.362,0.238-0.626C73.877,186.679,73.996,186.233,73.996,186.233z"/>
			</g>
		</g>
		<g>
			<path fill="#FEBFBF" d="M83.983,219.321c-0.044,0.292-0.499,0.61-0.499,0.61l-0.491-0.019l-0.202-0.007l-0.708-0.379
				l-0.607,0.115c0,0-0.25-0.076-0.271-0.218c-0.002-0.02,0.002-0.045,0.011-0.079c0.062-0.213,0.345-0.668,0.345-0.668
				s-0.05-0.055-0.104-0.152c-0.052-0.092-0.104-0.223-0.122-0.383c-0.036-0.329-0.843-1.412-1.026-1.752
				c-0.183-0.342-0.139-0.726-0.168-1.426c-0.03-0.698-2.684-7.073-2.74-8.986c-0.056-1.914,2.814-1.454,3.188-0.617
				c0.377,0.836,0.688,2.82,0.876,4.68c0.187,1.857,0.825,4.993,0.974,5.381c0.149,0.39,1.617,1.813,1.59,2.05
				C84.004,217.709,84.026,219.029,83.983,219.321z"/>
			<g>
				<path fill="#3B3040" d="M80.187,217.818c-0.224-0.129-0.336-0.194-0.56-0.323c0.08,0.248,0.161,0.495,0.241,0.743
					c0.224,0.129,0.336,0.193,0.56,0.323C80.348,218.313,80.267,218.066,80.187,217.818z"/>
			</g>
			
				<linearGradient id="SVGID_15_" gradientUnits="userSpaceOnUse" x1="5078.2114" y1="806.3369" x2="5081.0283" y2="801.4575" gradientTransform="matrix(-0.944 -0.073 0.3212 0.9053 4619.4136 -138.2153)">
				<stop  offset="0.02" style="stop-color:#251A29"/>
				<stop  offset="0.0769" style="stop-color:#251A29"/>
				<stop  offset="0.0892" style="stop-color:#312536"/>
				<stop  offset="0.1004" style="stop-color:#35293B"/>
				<stop  offset="0.126" style="stop-color:#35293B"/>
				<stop  offset="0.1302" style="stop-color:#35293B"/>
				<stop  offset="0.1653" style="stop-color:#392D3E"/>
				<stop  offset="0.1955" style="stop-color:#423746"/>
				<stop  offset="0.8758" style="stop-color:#423746"/>
				<stop  offset="0.988" style="stop-color:#423746"/>
			</linearGradient>
			<path fill="url(#SVGID_15_)" d="M79.283,217.061l0.528-0.291c0.001-0.001,0.003-0.002,0.004-0.002l0.001-0.002h0
				c0.017-0.012,0.043-0.018,0.086-0.009c0.604,0.114,1.659,0.773,2.441,1.224c0.786,0.455,1.799,0.99,2.589,1.68
				c0.249,0.218,0.262,0.367,0.252,0.448c-0.022,0.18,0.043,0.589-0.021,0.592l-0.528,0.291l-0.538-1.177l-3.228-1.864
				c-0.086,0.101-0.402,0.069-0.476-0.003c-0.05-0.05-0.137-0.211-0.232-0.394L79.283,217.061z"/>
			<path fill="#3B3040" d="M83.836,219.925c0.224,0.13,0.335,0.194,0.56,0.323c0.08,0.248,0.16,0.496,0.241,0.743
				c-0.224-0.129-0.336-0.193-0.56-0.323C83.997,220.421,83.917,220.173,83.836,219.925z"/>
			<path fill="#3B3040" d="M79.376,217.048c0.604,0.114,1.659,0.773,2.441,1.225c0.786,0.454,1.799,0.989,2.589,1.68
				c0.249,0.218,0.261,0.366,0.251,0.447c-0.022,0.181,0.043,0.59-0.021,0.592c-0.053,0.003-0.542-0.451-0.733-0.726
				c-0.363-0.52-1.435-1.072-1.869-1.322c-0.434-0.251-1.568-0.969-1.674-0.723c-0.055,0.128-0.415,0.096-0.493,0.018
				c-0.097-0.096-0.328-0.601-0.503-0.895C79.287,217.212,79.186,217.012,79.376,217.048z"/>
			<path fill="#FEC7C7" d="M82.994,219.913l-0.202-0.007l-0.708-0.379l-0.607,0.115c0,0-0.25-0.076-0.271-0.218l0.011-0.079
				l0.045-0.321l-0.253-0.216l0.179-0.266l0.27-0.018l0.142-0.251c0,0,0.315,0,0.413,0.122c0.098,0.123,0.304,0.648,0.304,0.648
				l0.241,0.083l0.19,0.193l0.192,0.313L82.994,219.913z"/>
			
				<linearGradient id="SVGID_16_" gradientUnits="userSpaceOnUse" x1="-499.0635" y1="219.0742" x2="-497.75" y2="219.0742" gradientTransform="matrix(1 0 0 1 580.3091 0)">
				<stop  offset="0.1224" style="stop-color:#FCA4B5"/>
				<stop  offset="0.9896" style="stop-color:#FFADB7"/>
			</linearGradient>
			<path fill="url(#SVGID_16_)" d="M82.425,219.167c0,0-0.313-0.026-0.371,0.074c-0.058,0.1-0.063,0.22-0.063,0.22l-0.011,0.086
				l-0.401,0.076c0,0,0.158-0.127,0.168-0.209c0.009-0.083-0.118-0.223-0.118-0.223l-0.383-0.045l0.224-0.144l-0.117-0.472
				l0.106-0.006l0.21,0.507l0.19,0.283l0.172-0.212l0.36-0.033l0.167,0.058L82.425,219.167z"/>
			
				<linearGradient id="SVGID_17_" gradientUnits="userSpaceOnUse" x1="-499.1509" y1="217.5293" x2="-496.6211" y2="217.5293" gradientTransform="matrix(1 0 0 1 580.3091 0)">
				<stop  offset="0.1224" style="stop-color:#FCA4B5"/>
				<stop  offset="0.9896" style="stop-color:#FFADB7"/>
			</linearGradient>
			<path fill="url(#SVGID_17_)" d="M81.158,216.466c0,0-0.002,0.412,0.056,0.586s0.438,0.496,0.438,0.496l0.274,0.396l-0.096,0.229
				l0.333-0.201l0.559,0.305l0.742,0.318l0.011-0.579l0.212-0.384l-0.284-0.534l-0.412-0.187L81.158,216.466z"/>
			<path fill="#FEC7C7" d="M80.036,205.719c0,0,0.358-0.099,0.254-0.69c-0.105-0.591-0.804-3.196-0.787-4.938
				c0.017-1.742-0.105-4.205-0.91-5.895c-0.806-1.689-1.672-0.936-2.065-0.425c-0.394,0.51-1.142,1.203-0.902,4.57
				c0.239,3.368,1.266,8.057,1.808,7.968C77.974,206.221,79.48,206.075,80.036,205.719z"/>
			
				<linearGradient id="SVGID_18_" gradientUnits="userSpaceOnUse" x1="-499.1582" y1="218.0313" x2="-496.4766" y2="218.0313" gradientTransform="matrix(1 0 0 1 580.3091 0)">
				<stop  offset="0.1224" style="stop-color:#FEB9B8"/>
				<stop  offset="1" style="stop-color:#FFDEDE"/>
			</linearGradient>
			<path fill="url(#SVGID_18_)" d="M83.428,217.791c0,0,0.29,1.333,0.287,1.443c-0.003,0.111-0.092,0.314-0.036,0.386
				s0.271,0.542,0.066,0.629c-0.205,0.087-0.389-0.008-0.528-0.163s-0.38-0.563-0.354-0.793c0.027-0.229-0.094-0.947-0.333-1.207
				s-0.895-0.68-1.137-1.069s-0.346-0.698-0.111-1.042s0.91-0.164,1.148,0.021c0.238,0.186,0.816,0.559,0.912,0.774
				C83.438,216.985,83.428,217.791,83.428,217.791z"/>
		</g>
	</g>
</g>
</svg>
