<?xml version="1.0" encoding="utf-8"?>
<!-- Generator: Adobe Illustrator 16.0.0, SVG Export Plug-In . SVG Version: 6.00 Build 0)  -->
<!DOCTYPE svg PUBLIC "-//W3C//DTD SVG 1.1//EN" "http://www.w3.org/Graphics/SVG/1.1/DTD/svg11.dtd">
<svg version="1.1" id="Layer_1" xmlns="http://www.w3.org/2000/svg" xmlns:xlink="http://www.w3.org/1999/xlink" x="0px" y="0px"
	 width="463.683px" height="425.749px" viewBox="0 0 463.683 425.749" enable-background="new 0 0 463.683 425.749"
	 xml:space="preserve">
<g>
	<path fill="#BDD6F2" d="M398.322,287.784c4.319,2.749,11.524,3.047,16.094,0.665c4.568-2.381,4.771-6.54,0.451-9.288
		c-4.319-2.749-11.525-3.047-16.094-0.665C394.205,280.877,394.002,285.035,398.322,287.784z"/>
	<g>
		<g>
			<path fill="#6C6B79" d="M400.334,282.288c0,0-0.216,0.109-0.228,0.271c-0.011,0.16-0.017,0.602-0.016,0.706
				s0.274,0.508,0.944,0.664c0.671,0.157,2.301-0.275,2.85-0.596c0.55-0.32,1.299-1.137,1.526-1.198
				c0.229-0.063,0.908,0.063,0.908,0.063l0.613-0.052l1.01-0.358c0,0,0.133-0.677-0.145-0.891S400.334,282.288,400.334,282.288z"/>
			<path fill="#C2D2EA" d="M404.134,279.537c0,0-0.799,0.506-0.94,0.648s-1.584,0.729-2.084,1.033s-0.876,0.826-0.909,0.997
				c-0.033,0.172-0.108,0.562-0.051,0.726c0.058,0.163,0.318,0.598,1.182,0.651s2.62-0.767,2.62-0.767s1.217-0.83,1.396-0.915
				c0.18-0.084,1.769-0.486,2.01-0.566s0.381-0.114,0.416-0.309c0.035-0.193,0.24-1.255,0.111-1.59
				C407.756,279.111,404.839,278.678,404.134,279.537z"/>
		</g>
		<g>
			<path fill="#6C6B79" d="M406.076,284.981c0,0-0.236,0.004-0.293,0.318c-0.056,0.314-0.048,0.688-0.048,0.688
				s0.294,0.45,1.282,0.574c0.987,0.125,2.197-0.24,2.816-0.591c0.62-0.351,0.843-0.637,1.217-1.155
				c0.373-0.52,0.76-0.768,0.76-0.768l0.157,0.043c0,0,0.887-0.645,1.032-0.867c0.075-0.188,0.131-1.141-0.006-1.227
				C412.858,281.911,406.076,284.981,406.076,284.981z"/>
			<path fill="#C2D2EA" d="M408.786,281.424l-0.274,0.655c0,0-1.615,1.568-2.053,2.036c-0.438,0.467-0.664,0.877-0.684,1.302
				c-0.02,0.424,1.083,0.698,1.248,0.71s0.897,0.084,1.836-0.266c0.938-0.35,1.324-0.686,2.078-1.505
				c0.753-0.819,1.262-1.271,1.493-1.457s0.567-0.485,0.563-0.728s0.033-0.923-0.165-1.007
				C412.63,281.08,409.418,280.82,408.786,281.424z"/>
		</g>
		<path fill="#4F5997" d="M407.643,278.929c0,0-0.216,0.401-0.72,0.623c-0.514,0.228-1.325,0.266-2.51-0.505
			c0,0-0.281-14.771-1.102-19.103l3.531,6.229l1.482,0.054h0.002c0,0,0.611,4.751,0.244,7.245
			C408.203,275.969,407.643,278.929,407.643,278.929z"/>
		<path fill="#4F5997" d="M408.392,266.063c-0.018,0.058-0.039,0.111-0.064,0.164h-0.002c-0.219,0.462-0.693,0.737-1.24,0.858
			c-1.079,0.239-2.436-0.125-2.671-0.847c-0.015-0.045-0.03-0.098-0.048-0.157c-0.427-1.416-1.334-7.373-1.905-11.801
			c-0.596-4.614,0.556-6.817,0.556-6.817l5.634,1.024c0,0,0.049,2.719,0.067,5.98C408.742,258.938,408.678,265.162,408.392,266.063z
			"/>
		<path fill="#A8B0C2" d="M407.643,278.929c0,0-0.216,0.401-0.72,0.623c0.38-2.471,0.997-6.694,0.894-7.563
			c-0.067-0.584-0.215-3.443-0.374-4.82c-1.08-9.346-0.951-12.245-0.951-12.245l-1.203-1.833l3.43,1.379
			c0.023,4.47-0.04,10.693-0.326,11.595c-0.018,0.058-0.039,0.111-0.064,0.164c0,0,0.611,4.751,0.244,7.245
			C408.203,275.969,407.643,278.929,407.643,278.929z"/>
		<path fill="#4F5997" d="M405.169,250.393l-0.788,0.924c0,0-0.068,1.139,2.449,3.033c0.016,2.672,1.005,11.211,1.835,13.246
			c0.829,2.035,3.396,0.455,3.83-1.91c0.434-2.364,2.365-9.777,2.531-11.602c0.166-1.823,0.345-4.663-0.919-5.738
			C412.844,247.271,405.169,250.393,405.169,250.393z"/>
		<path fill="#4F5997" d="M409.235,281.09c0.472-1.655,0.106-10.87-0.569-13.494c3.486-2.029,3.933-2.423,3.933-2.423
			s1.271,6.751,1.223,8.09c-0.049,1.34-1.128,7.874-1.128,7.874S410.942,282.808,409.235,281.09z"/>
		<g>
			<path fill="#8C92B0" d="M411.929,282.038l-0.248-0.055c0.012-0.053,1.174-5.327,1.185-7.978c0.009-2.031-0.489-4.542-0.854-6.375
				c-0.17-0.854-0.304-1.529-0.335-1.91c-0.031-0.377,0.23-1.504,0.593-3.064c0.804-3.461,2.019-8.69,1.155-10.566l0.23-0.106
				c0.899,1.956-0.327,7.235-1.139,10.73c-0.344,1.479-0.615,2.648-0.588,2.985c0.031,0.367,0.163,1.035,0.331,1.882
				c0.366,1.844,0.867,4.368,0.858,6.427C413.108,276.685,411.94,281.985,411.929,282.038z"/>
		</g>
	</g>
	<g>
		<path fill="#6A3646" d="M410.532,218.924c0,0,1.303-0.949,2.601-0.006c1.082,0.787,1.363,2.83,0.451,5.111
			c-0.582,1.457-0.061,4.277,1.61,4.571c-1.001,0.999-3.656,0.425-4.226-1.069C410.399,226.039,410.532,218.924,410.532,218.924z"/>
		<g>
			<path fill="#FEBFBF" d="M405.638,227.979c0,0-1.604,0.008-2.084,1.084s-1.69,8.113-2.379,9.699
				c-0.688,1.585,1.703,2.397,2.302,1.514C404.076,239.391,405.638,227.979,405.638,227.979z"/>
			<path fill="#FEBFBF" d="M402.184,238.7c0,0-0.438-0.888-0.91-0.622c-1.103,0.618-6.122,2.099-6.122,2.099
				s-0.596,1.447,0.059,2.091c0.245,0.061,7.483-0.629,7.757-1.655C403.24,239.585,402.184,238.7,402.184,238.7z"/>
			<path fill="#FEBFBF" d="M395.398,242.269c0,0-0.427,0.146-0.589,0.193c-0.162,0.049-0.333,0.104-0.333,0.104l-0.628,0.223
				c0,0-1.993-0.598-2.173-0.74s-0.522-0.525-0.522-0.525l0.206-1.415c0,0,1.229-0.288,1.359-0.308s2.434,0.377,2.434,0.377
				S395.66,241.804,395.398,242.269z"/>
			<g>
				<path fill="#C4C8D8" d="M394.35,242.582c-0.056-0.486-0.125-0.7-0.18-1.187c-0.018-0.113-0.202-0.292-0.425-0.389
					c-1.953-0.872-3.169-1.415-5.118-2.285c-0.138-0.063-0.168-0.364-0.233-0.34c-0.022,0.008-0.123,0.306-0.133,0.323
					c-0.008,0.013-0.012,0.028-0.01,0.047c0.055,0.486,0.11,0.976,0.166,1.463c0,0.001,0,0.002,0,0.004
					c0.013,0.111,0.214,0.288,0.424,0.385c1.948,0.869,3.165,1.413,5.118,2.285c0.163,0.071,0.309,0.084,0.358,0.032l0.13-0.32
					C394.447,242.599,394.35,242.584,394.35,242.582z"/>
				<path fill="#F5F5F5" d="M388.465,238.502c-0.011-0.096,0.133-0.107,0.315-0.026c1.929,0.861,3.126,1.396,5.059,2.259
					c0.184,0.082,0.346,0.23,0.356,0.326c0.055,0.479,0.108,0.959,0.163,1.438c0.011,0.096-0.133,0.107-0.316,0.025
					c-1.934-0.863-3.13-1.398-5.059-2.259c-0.183-0.082-0.345-0.23-0.355-0.326C388.574,239.459,388.519,238.98,388.465,238.502
					L388.465,238.502z M394.455,242.557c0-0.001,0-0.002,0-0.004c-0.056-0.486-0.111-0.977-0.166-1.463
					c-0.018-0.113-0.202-0.291-0.425-0.389c-1.953-0.872-3.169-1.415-5.118-2.285c-0.223-0.102-0.384-0.078-0.376,0.03
					c0.055,0.487,0.11,0.977,0.166,1.463c0,0.001,0,0.003,0,0.005c0.013,0.111,0.214,0.287,0.424,0.384
					c1.948,0.87,3.165,1.413,5.118,2.285C394.288,242.675,394.467,242.669,394.455,242.557L394.455,242.557z"/>
				<path fill="#7C78F0" d="M388.763,239.148l0.028-0.002l0.026,0.026c0.014,0.119,0.027,0.235,0.041,0.354l-0.023,0.005
					l-0.031-0.028C388.791,239.384,388.777,239.268,388.763,239.148L388.763,239.148z M388.789,239.575l0.051-0.004l0.058,0.053
					l-0.051,0.004L388.789,239.575L388.789,239.575z M388.781,239.675l0.07-0.009l0.078,0.075l-0.069,0.006L388.781,239.675
					L388.781,239.675z M394.359,242.498c-0.055-0.479-0.108-0.958-0.163-1.438c-0.011-0.096-0.173-0.244-0.356-0.326
					c-1.933-0.863-3.13-1.397-5.059-2.259c-0.183-0.081-0.326-0.069-0.315,0.026c0.054,0.479,0.108,0.957,0.163,1.437
					c0.011,0.096,0.173,0.244,0.355,0.326c1.929,0.86,3.125,1.396,5.059,2.259C394.226,242.605,394.37,242.594,394.359,242.498
					L394.359,242.498z"/>
				<path fill="#2A2A2C" d="M388.859,239.527c-0.014-0.119-0.027-0.235-0.041-0.354l-0.026-0.026l-0.028,0.002
					c0.014,0.119,0.027,0.235,0.041,0.355l0.031,0.028L388.859,239.527L388.859,239.527z"/>
				<path fill="#838383" d="M388.806,239.686l0.046-0.004l0.048,0.046l-0.042,0.004L388.806,239.686L388.806,239.686z
					 M388.929,239.741l-0.078-0.075l-0.07,0.009l0.079,0.072L388.929,239.741L388.929,239.741z"/>
				<polygon fill="#516F83" points="388.9,239.728 388.852,239.682 388.806,239.686 388.858,239.731 388.9,239.728 				"/>
				<polygon fill="#2A2A2C" points="388.897,239.624 388.839,239.571 388.789,239.575 388.846,239.628 388.897,239.624 				"/>
			</g>
			<path fill="#E6F1FF" d="M403.367,234.09c0,0-0.98-0.85-1.141-1.15c-0.161-0.302-0.285-0.759-0.285-0.759s1.355-2.794,1.483-3.151
				c0.522-1.454,1.722-1.207,2.652-1.453S403.367,234.09,403.367,234.09z"/>
			
				<linearGradient id="SVGID_1_" gradientUnits="userSpaceOnUse" x1="920.5991" y1="286.6699" x2="919.5481" y2="285.0934" gradientTransform="matrix(0.9999 0.0136 -0.0136 0.9999 -522.6223 -57.8325)">
				<stop  offset="0.1224" style="stop-color:#FEB9B8"/>
				<stop  offset="1" style="stop-color:#FFDEDE"/>
			</linearGradient>
			<path fill="url(#SVGID_1_)" d="M395.152,240.177l-0.273-0.048c0,0-1.008-0.578-1.172-0.616c-0.163-0.037-0.414-0.115-0.414-0.115
				l-1.201,0.522l-0.146,0.443c0,0-0.209,0.364-0.221,0.431c-0.011,0.066,0.425,0.254,0.577,0.067s0.327-0.454,0.327-0.454
				l0.744-0.202c0,0-0.003,0.451,0.42,0.765s1.09,0.447,1.328,0.208C395.359,240.938,395.401,240.459,395.152,240.177z"/>
			
				<linearGradient id="SVGID_2_" gradientUnits="userSpaceOnUse" x1="918.8237" y1="288.2119" x2="919.2119" y2="287.4064" gradientTransform="matrix(0.9999 0.0136 -0.0136 0.9999 -522.6223 -57.8325)">
				<stop  offset="0.1224" style="stop-color:#FEB9B8"/>
				<stop  offset="1" style="stop-color:#FFDEDE"/>
			</linearGradient>
			<path fill="url(#SVGID_2_)" d="M392.395,242.268c0,0-0.108-0.352-0.197-0.427s-0.669-0.198-0.669-0.198l-0.314-0.128
				l-0.088,0.036l0.121,0.404l0.4,0.268l0.232,0.377l0.559,0.077c0,0,0.248,0.261,0.419,0.308c0.171,0.048,0.994-0.221,1.07-0.289
				s0.192-0.196,0.11-0.339c-0.081-0.142-0.321-0.086-0.321-0.086l-0.373,0.13c0,0,0.024-0.188-0.081-0.266S393,242.076,393,242.076
				L392.395,242.268z"/>
			
				<linearGradient id="SVGID_3_" gradientUnits="userSpaceOnUse" x1="918.2739" y1="287.7324" x2="919.1089" y2="287.7324" gradientTransform="matrix(0.9999 0.0136 -0.0136 0.9999 -522.6223 -57.8325)">
				<stop  offset="0.1224" style="stop-color:#FCA4B5"/>
				<stop  offset="0.9896" style="stop-color:#FFADB7"/>
			</linearGradient>
			<path fill="url(#SVGID_3_)" d="M392.395,242.268c0,0-0.045,0.112-0.176,0.127c-0.13,0.016-0.571-0.172-0.571-0.172l0.056,0.09
				c0,0,0.471,0.192,0.535,0.192c0.063,0.001,0.243-0.222,0.243-0.222L392.395,242.268z"/>
			
				<linearGradient id="SVGID_4_" gradientUnits="userSpaceOnUse" x1="919.1069" y1="287.8633" x2="920.3813" y2="287.8633" gradientTransform="matrix(0.9999 0.0136 -0.0136 0.9999 -522.6223 -57.8325)">
				<stop  offset="0.1224" style="stop-color:#FCA4B5"/>
				<stop  offset="0.9896" style="stop-color:#FFADB7"/>
			</linearGradient>
			<path fill="url(#SVGID_4_)" d="M393.333,242.433l-0.228,0.126l-0.631,0.153l0.046,0.044l0.698-0.161c0,0,0.51-0.199,0.537-0.331
				c-0.083,0.021-0.411,0.137-0.411,0.137L393.333,242.433z"/>
		</g>
		<path fill="#DDE8F6" d="M414.273,249.406c0,0-2.083,1.613-6.186,0.959c-4.024-0.641-4.984-1.469-5.079-2.381
			c1.021-5.004,0.765-6.293,0.35-8.369c-0.714-2.399-0.676-3.232-0.649-3.893c0.026-0.661,0.706-2.102,1.24-4.119
			c0.533-2.018,1.183-3.576,1.502-3.789c0.318-0.213,1.172-0.016,3.547,0.082c2.376,0.098,2.715-0.444,3.896,0.403
			s2.314,1.896,2.796,2.506s0.836,1.53,0.896,1.989c0.061,0.458-1.888,5.742-1.975,8.765
			C414.523,244.58,414.273,249.406,414.273,249.406z"/>
		<path fill="#DDE8F6" d="M412.316,235.454c0,0-0.093,1.147-0.151,1.58c-0.06,0.434-0.112,0.731-0.112,0.731
			s0.278,0.475,0.438,0.913c0.158,0.438,0.072,5.796-0.051,6.594c-0.123,0.797-1.187,5.907-1.187,5.907l0.972-0.091l2.156-7.933
			L412.316,235.454z"/>
		<path fill="#FEBFBF" d="M413.282,228.734c0,0-0.677-0.629-0.774-0.679s-0.438-0.388-1.496-0.573
			c-1.06-0.187-2.209-0.149-3.196,0.905s-0.987,1.055-0.987,1.055s-0.462,1.369-0.396,1.773c0.065,0.403,0.309,1.061,1.63,1.208
			c1.322,0.146,3.057-1.664,3.853-2.309C412.709,229.47,413.426,229.271,413.282,228.734z"/>
		
			<linearGradient id="SVGID_5_" gradientUnits="userSpaceOnUse" x1="939.0698" y1="272.9883" x2="934.3013" y2="271.0614" gradientTransform="matrix(0.9999 0.0136 -0.0136 0.9999 -522.6223 -57.8325)">
			<stop  offset="0.1224" style="stop-color:#FEC7C7"/>
			<stop  offset="0.9694" style="stop-color:#FFADB7"/>
		</linearGradient>
		<path fill="url(#SVGID_5_)" d="M407.38,226.69c0,0,0.476,1.734,0.347,2.467s-0.494,1.064-0.398,1.171
			c0.097,0.107,2.027,0.843,2.932,0.58c0.903-0.264,2.676-2.051,2.425-2.44c-0.252-0.39-0.178-0.412-0.178-0.412
			s-0.788-0.718-0.956-1.22c-0.167-0.504-0.654-4.287-0.668-4.354S407.38,226.69,407.38,226.69z"/>
		
			<linearGradient id="SVGID_6_" gradientUnits="userSpaceOnUse" x1="935.5229" y1="273.0049" x2="936.1326" y2="273.7053" gradientTransform="matrix(0.9999 0.0136 -0.0136 0.9999 -522.6223 -57.8325)">
			<stop  offset="0.1224" style="stop-color:#FCA4B5"/>
			<stop  offset="0.9896" style="stop-color:#FFADB7"/>
		</linearGradient>
		<path fill="url(#SVGID_6_)" d="M407.723,228.426l0.016,0.644c0,0,0.041,0.968,0.927,0.491c0.886-0.475,0.493-1.141,0.991-1.652
			c0.499-0.512,0.797-1.343,0.638-1.694C410.136,225.861,407.934,227.219,407.723,228.426z"/>
		<path fill="#FEC7C7" d="M410.936,223.504c0,0-0.599,0.169-0.594,0.502c0.005,0.334,0.2,2.164-0.029,2.739
			c-0.229,0.574-2.741,2.129-3.899,2.092c-0.579-0.345-0.98-1.261-1.136-1.544s-0.626-1.198-0.776-1.902
			c-0.15-0.705,0.23-0.667-0.499-1.469c-0.094-0.703,0.046-2.59,0.358-2.842c0.313-0.252,1.531-1.65,3.11-1.463
			C409.05,219.806,411.507,221.928,410.936,223.504z"/>
		<g>
			
				<linearGradient id="SVGID_7_" gradientUnits="userSpaceOnUse" x1="931.5796" y1="271.1504" x2="930.7295" y2="271.7904" gradientTransform="matrix(0.9999 0.0136 -0.0136 0.9999 -522.6223 -57.8325)">
				<stop  offset="0.1224" style="stop-color:#FEC7C7"/>
				<stop  offset="0.9896" style="stop-color:#FFDBDB"/>
			</linearGradient>
			<path fill="url(#SVGID_7_)" d="M404.831,224.938c0.038,0.22-0.42,1.658-0.417,1.932c0.004,0.273,1.321-0.041,1.321-0.041
				L404.831,224.938z"/>
			
				<linearGradient id="SVGID_8_" gradientUnits="userSpaceOnUse" x1="930.7837" y1="271.1738" x2="932.1616" y2="271.1738" gradientTransform="matrix(0.9999 0.0136 -0.0136 0.9999 -522.6223 -57.8325)">
				<stop  offset="0.188" style="stop-color:#FFDCDC"/>
				<stop  offset="0.8991" style="stop-color:#FEC7C7"/>
			</linearGradient>
			<path fill="url(#SVGID_8_)" d="M404.653,227.025c-0.104-0.005-0.188-0.021-0.235-0.059c-0.032-0.025-0.05-0.06-0.05-0.098
				c-0.002-0.135,0.098-0.516,0.202-0.921c0.109-0.42,0.233-0.896,0.215-1.003l0.092-0.017c0.021,0.118-0.072,0.489-0.216,1.043
				c-0.099,0.381-0.201,0.774-0.199,0.896c-0.001,0.007,0.001,0.016,0.013,0.024c0.136,0.106,0.839-0.012,1.25-0.11l0.021,0.091
				C405.658,226.895,405.027,227.041,404.653,227.025z"/>
		</g>
		
			<ellipse transform="matrix(0.9932 0.1162 -0.1162 0.9932 28.9196 -45.6885)" fill="#FFFFFF" cx="406.334" cy="225.202" rx="0.307" ry="0.245"/>
		
			<ellipse transform="matrix(0.6298 0.7768 -0.7768 0.6298 324.397 -231.0689)" fill="#FFFFFF" cx="404.597" cy="224.768" rx="0.176" ry="0.153"/>
		<g>
			<path fill="#754554" d="M405.481,224.685l-0.079-0.135c0.018-0.009,0.424-0.241,1.658-0.098l-0.018,0.154
				C405.876,224.473,405.485,224.683,405.481,224.685z"/>
		</g>
		<g>
			
				<rect x="403.873" y="223.987" transform="matrix(0.7438 0.6684 -0.6684 0.7438 253.2999 -212.7495)" fill="#754554" width="0.634" height="0.156"/>
		</g>
		<path fill="#FB7F9E" d="M406.491,227.721c0,0-0.491,0.199-1.033-0.08c0.169,0.303,0.286,0.344,0.614,0.374
			S406.491,227.721,406.491,227.721z"/>
		<path fill="#FEBFBF" d="M406.191,227.667l-0.524-0.12l-0.227-0.012l-0.041-0.007l0.059,0.112c0,0,0.135,0.08,0.458,0.14
			c0.322,0.06,0.575-0.06,0.575-0.06L406.191,227.667z"/>
		<path fill="#754554" d="M409.846,225.474c0,0-0.842-1.108-1.061-1.901s-0.661-1.844-0.962-1.884
			c-0.3-0.04-1.675,0.141-2.493,0.062c-0.817-0.08-1.119-0.296-1.198-0.229c-0.078,0.067-0.033-0.628,0.897-1.77
			c0.93-1.143,1.924-2.209,4.465-1.89c2.542,0.318,3.25,2.913,3.144,3.956s-0.679,2.261-0.883,3.057s-0.396,0.971-0.262,1.722
			c-0.295-0.886-0.508-2.22-0.486-2.634s-0.369-0.766-0.582-0.422c-0.213,0.343-0.607,0.635-0.51,1.1
			C410.013,225.106,409.846,225.474,409.846,225.474z"/>
		<g>
			<path fill="#FEBFBF" d="M412.436,236.15c0,0,1.112,7.539,1.173,8s1.901,0.953,2.457-0.743c0.557-1.696,0.424-7.558,0.377-8.308
				C416.396,234.349,412.576,234.303,412.436,236.15z"/>
			<path fill="#FEBFBF" d="M413.83,243.654c0,0-0.122-0.032-0.269,0.314c-0.146,0.346-1.114,5.41-1.558,6.717
				c-0.443,1.308-0.692,1.815-0.8,1.926s-0.799,0.75-0.904,0.925s-0.555,1.206-0.555,1.206s-0.197,0.854-0.317,1.046
				c-0.121,0.19-0.384,0.589-0.384,0.589s0.093,0.238,0.376,0.156c0.282-0.081,0.522-0.419,0.672-0.631
				c0.149-0.211,0.436-1.064,0.436-1.064l0.176-0.017c0,0,0.035,0.562-0.003,0.798c-0.039,0.236-0.517,1.148-0.517,1.148
				s-0.56,0.125-0.688,0.2c-0.127,0.075-0.205,0.202-0.215,0.304c-0.011,0.1,1.204,0.05,1.204,0.05s0.308,0.151,0.413,0.169
				s0.438,0.015,0.438,0.015l0.304-0.455l0.455-0.162c0,0,0.853-1.31,1.019-1.896c0.165-0.586,0.153-1.763,0.23-2.114
				c0.076-0.352,3.26-8.387,2.722-9.471C415.076,243.034,413.83,243.654,413.83,243.654z"/>
			
				<linearGradient id="SVGID_9_" gradientUnits="userSpaceOnUse" x1="896.4429" y1="293.748" x2="897.5161" y2="293.748" gradientTransform="matrix(1 0.0016 -0.0016 1 -485.4869 -38.4885)">
				<stop  offset="0.1224" style="stop-color:#FCA4B5"/>
				<stop  offset="0.9896" style="stop-color:#FFADB7"/>
			</linearGradient>
			<path fill="url(#SVGID_9_)" d="M411.56,255.977c0,0-0.608,1.069-0.661,1.156c-0.053,0.088-0.414,0.188-0.414,0.188l0.196,0.091
				l0.288-0.159C410.969,257.253,411.558,256.072,411.56,255.977z"/>
			
				<linearGradient id="SVGID_10_" gradientUnits="userSpaceOnUse" x1="897.2944" y1="293.8916" x2="897.9819" y2="293.8916" gradientTransform="matrix(1 0.0016 -0.0016 1 -485.4869 -38.4885)">
				<stop  offset="0.1224" style="stop-color:#FCA4B5"/>
				<stop  offset="0.9896" style="stop-color:#FFADB7"/>
			</linearGradient>
			<polygon fill="url(#SVGID_10_)" points="412.026,256.174 411.336,257.505 411.64,257.05 			"/>
			<path fill="#E6F1FF" d="M412.497,236.512c0,0-0.48-1.852-0.084-3.461s1.528-2.243,2.181-2.463
				c0.651-0.221,1.012,0.141,1.172,0.332s1.01,1.443,1.092,2.235c0.081,0.792,0.164,2.558,0.164,2.558s-0.453,0.465-1.76,0.539
				C413.956,236.325,412.497,236.512,412.497,236.512z"/>
		</g>
		
			<linearGradient id="SVGID_11_" gradientUnits="userSpaceOnUse" x1="604.9468" y1="188.3525" x2="606.186" y2="188.3525" gradientTransform="matrix(0.9961 -0.0886 0.0886 0.9961 -209.0605 90.5222)">
			<stop  offset="0.1224" style="stop-color:#FEB9B8"/>
			<stop  offset="1" style="stop-color:#FFDEDE"/>
		</linearGradient>
		<path fill="url(#SVGID_11_)" d="M410.296,223.834c0,0,0.209-0.617,0.81-0.359s0.17,1.326-0.128,1.773
			c-0.297,0.445-0.572,0.413-0.668,0.154c-0.095-0.26,0.004-0.928,0.004-0.928L410.296,223.834z"/>
	</g>
</g>
</svg>
