<?xml version="1.0" encoding="utf-8"?>
<!-- Generator: Adobe Illustrator 16.0.0, SVG Export Plug-In . SVG Version: 6.00 Build 0)  -->
<!DOCTYPE svg PUBLIC "-//W3C//DTD SVG 1.1//EN" "http://www.w3.org/Graphics/SVG/1.1/DTD/svg11.dtd">
<svg version="1.1" id="Layer_1" xmlns="http://www.w3.org/2000/svg" xmlns:xlink="http://www.w3.org/1999/xlink" x="0px" y="0px"
	 width="463.683px" height="425.749px" viewBox="0 0 463.683 425.749" enable-background="new 0 0 463.683 425.749"
	 xml:space="preserve">
<g>
	<path fill="#B24E6D" d="M135.373,170.253c0,0,1.531-0.476,2.785,0.511c1.433,1.128,0.663,3.56,0.228,4.568
		c-0.467,1.087-0.788,3.364,0.658,4.223c-0.358,0.904-2.612,0.148-3.295-0.282C135.067,178.844,132.446,172.735,135.373,170.253z"/>
	<g>
		<path fill="#D7E4F2" d="M124.704,236.896c4.183,2.661,11.16,2.95,15.584,0.644c4.424-2.306,4.62-6.332,0.437-8.994
			s-11.16-2.95-15.584-0.645C120.717,230.207,120.521,234.233,124.704,236.896z"/>
		<g>
			<path fill="#FFA1A3" d="M130.517,227.666c0,0,1.118,0.945,0.963,1.523c-0.155,0.577-2.333,4.153-3.488,4.573
				c-2.402,0.874-1.856-1.335-1.461-1.793c0.348-0.403,1.741-1.52,1.715-2.561C128.21,228.006,130.517,227.666,130.517,227.666z"/>
			<path fill="#8E8E8E" d="M130.294,230.983c0,0,0.407,0.133,0.415,0.441s0.058,1.47,0.058,1.47s0.273,0.144,0.425,0.07
				s0.363-0.439,0.363-0.439s0.191-2.287,0.302-2.752S130.294,230.983,130.294,230.983z"/>
			<path fill="#C2D2EA" d="M131.583,228.314c0,0-1.597,1.948-2.224,3.23c-0.627,1.281-1.315,1.801-1.829,1.784
				c-0.819-0.026-1.352-0.524-1.176-0.942c0.176-0.417,0.176-0.417,0.176-0.417s-2.076,2.21-1.794,3.586s3.924-0.551,4.476-1.269
				c0.21-0.274,0.621-2.271,1.095-2.842c0.474-0.571,1.22-0.333,1.518-1.496C132.121,228.787,131.583,228.314,131.583,228.314z"/>
			<path fill="#8E8E8E" d="M130.407,231.17c-0.474,0.57-1.079,2.668-1.29,2.942c-0.513,0.669-3.717,2.344-4.384,1.419
				c0.001,0.008,0.001,0.017,0.002,0.024c0.281,1.376,3.924-0.551,4.476-1.269c0.21-0.274,0.621-2.271,1.095-2.843
				c0.413-0.497,1.258-0.344,1.461-1.307C131.428,230.376,130.75,230.756,130.407,231.17z"/>
			<path fill="#8E8E8E" d="M138.563,227.254c0,0,0.599-0.147,0.579,0.16c-0.021,0.309-0.201,2.226-0.201,2.226
				s0.13,0.14,0.287,0.081c0.158-0.059,0.403-0.404,0.403-0.404s0.334-1.864,0.349-2.342
				C139.996,226.407,138.563,227.254,138.563,227.254z"/>
			
				<linearGradient id="SVGID_1_" gradientUnits="userSpaceOnUse" x1="1292.9253" y1="278.3262" x2="1297.2661" y2="278.3262" gradientTransform="matrix(-0.9957 -0.0923 -0.0923 0.9957 1452.5281 70.251)">
				<stop  offset="0.1224" style="stop-color:#FEC7C7"/>
				<stop  offset="0.9694" style="stop-color:#FFADB7"/>
			</linearGradient>
			<path fill="url(#SVGID_1_)" d="M138.859,224.557c0,0,0.845,0.756,0.782,1.673c-0.062,0.9-1.377,4.503-2.551,4.866
				c-1.173,0.362-2.29-0.443-2.168-0.963c0.123-0.519,1.227-2.087,1.573-3.356C136.864,225.422,138.859,224.557,138.859,224.557z"/>
			<path fill="#C2D2EA" d="M136.518,226.244c0,0-0.952,1.588-1.386,2.681c-0.946,2.382-0.958,3.444-0.81,4.03
				c0.156,0.611,1.924,0.159,3.211-0.791c1.475-1.088,0.928-2.508,1.865-3.87c0.304-0.442,0.582-0.761,0.63-1.849
				c0.058-0.922-0.74-1.346-0.74-1.346s0.571,0.966,0.204,1.731c-0.185,0.385-0.132,0.558-0.406,1.037
				c-0.545,0.954-0.675,1.907-1.422,2.579c-0.702,0.632-2.662,0.124-2.588-0.266c0.135-0.721,0.832-1.912,1.118-2.58
				C136.535,226.807,136.518,226.244,136.518,226.244z"/>
			<path fill="#8E8E8E" d="M139.344,228.188c-0.938,1.361-0.346,2.693-1.821,3.781c-1.191,0.879-2.896,1.353-3.225,0.895
				c0.008,0.031,0.016,0.063,0.023,0.092c0.156,0.611,1.924,0.159,3.211-0.791c1.475-1.088,0.928-2.508,1.865-3.87
				c0.199-0.288,0.494-0.57,0.552-1.154C139.776,227.445,139.492,227.973,139.344,228.188z"/>
			<g>
				<path fill="#738E9E" d="M131.609,215.133c0,0.002,0,0.002,0,0.004c-0.022,0.099-0.049,0.191-0.079,0.278
					c-0.094,0.278-0.266,0.501-0.492,0.672c0,0,0,0,0,0.002c-1.101,0.851-3.423,0.489-3.665-0.347
					c-0.661-2.285-1.462-8.451-1.977-11.472c-0.517-3.019,0.646-8.206,0.646-8.206s5.46,1.887,6.445,2.568
					c0.584,0.403,0.343,3.314-0.012,5.899c-0.243,1.775-0.541,3.397-0.663,3.951C131.528,209.771,132.031,213.354,131.609,215.133z"
					/>
				<path fill="#738E9E" d="M131.09,228.591c-0.023,0.22-0.179,0.418-0.422,0.561c-0.526,0.31-1.46,0.354-2.351-0.255
					c0,0-1.056-14.286-1.992-18.645c1.637-0.369,4.099,4.396,4.808,4.35c0.345-0.021,0.52,0.115,0.476,0.531
					c0,0.002,0,0.002,0,0.004c-0.139,1.275,0.678,5.058,0.467,6.539C131.864,223.159,131.163,227.896,131.09,228.591z"/>
				<path fill="#A8B0C2" d="M131.09,228.591c-0.023,0.22-0.179,0.418-0.422,0.561c0.143-1.772,0.383-4.005,0.71-5.62
					c0.476-2.35-0.269-5.709-0.34-7.442c0-0.002,0-0.002,0-0.002c-0.012-0.309-0.002-0.604,0.043-0.88
					c0.03-0.182,0.046-0.386,0.052-0.605c0.063-1.976-0.697-5.245-0.525-6.453c0.064-0.451,0.179-1.66,0.02-2.349
					c-0.314-1.357-1.077-2.252-1.077-2.252c1.176,0.105,2.139,0.45,2.924,0.983c-0.243,1.775-0.541,3.397-0.663,3.951
					c-0.285,1.289,0.218,4.872-0.204,6.65c0,0.002,0,0.002,0,0.004c-0.139,1.275,0.678,5.058,0.467,6.539
					C131.864,223.159,131.163,227.896,131.09,228.591z"/>
				<path fill="#738E9E" d="M128.78,200.185c0,0-0.098,1.824,0.546,2.997c0.644,1.173,1.798,1.986,1.798,1.986
					s1.861,7.472,3.538,10.45c0.752,1.336,3.217,0.945,3.42-1.432c0.204-2.376,0.22-4.482,1.126-9.705
					c0.221-1.272,0.277-3.555-1.454-6.018C136.025,196.001,128.78,200.185,128.78,200.185z"/>
				<g>
					<g>
						<path fill="#92BACF" d="M135.153,203.504c-2.734-0.118-2.965-1.957-2.968-1.977l0.244-0.027
							c0.009,0.075,0.248,1.821,3.147,1.762l0.005,0.245C135.432,203.511,135.289,203.51,135.153,203.504z"/>
					</g>
					<path fill="#AF727B" d="M138.692,200.142c0,0-2.215,0.65-5.458,0.756c-3.242,0.107-4.462-0.241-5.531-0.86
						c-1.069-0.62-1.713-1.483-1.713-1.483l0.23-1.438c0,0,0.59,1.107,2.116,1.751c1.526,0.644,4.843,0.593,6.194,0.506
						s3.919-0.928,3.919-0.928L138.692,200.142z"/>
					<path fill="#738E9E" d="M131.665,199.487c0,0-0.097,0.414-0.121,0.896c-0.024,0.481-0.027,1.362-0.027,1.362l-0.489-0.041
						c0,0-0.069-0.843-0.042-1.271s0.154-1.03,0.154-1.03L131.665,199.487z"/>
					<path fill="#738E9E" d="M127.19,198.147c0,0-0.13,0.514-0.157,0.924c-0.027,0.411,0.024,1.102,0.024,1.102l-0.319-0.424
						c0,0-0.035-0.701-0.021-0.924s0.21-0.89,0.21-0.89L127.19,198.147z"/>
					<g>
						<path fill="#92BACF" d="M125.559,200.61c-0.023-0.001-0.047-0.004-0.071-0.01l0.061-0.238
							c0.007,0.002,0.014,0.003,0.022,0.003c0.222,0.01,0.55-0.64,0.708-1.133l0.233,0.075
							C126.439,199.535,126.062,200.632,125.559,200.61z"/>
					</g>
					<g>
						<path fill="#CCDEFB" d="M129.246,200.969c-0.056-0.001-0.114-0.011-0.172-0.028l-0.908-0.27
							c-0.387-0.115-0.68-0.542-0.667-0.973l0.012-0.41c0.006-0.21,0.083-0.392,0.217-0.514c0.152-0.138,0.359-0.18,0.57-0.117
							l0.908,0.27c0.387,0.115,0.68,0.542,0.668,0.972l-0.012,0.411c-0.006,0.209-0.083,0.392-0.218,0.513
							C129.535,200.923,129.395,200.973,129.246,200.969z M128.123,199.1c-0.062-0.002-0.117,0.016-0.157,0.053
							c-0.042,0.038-0.064,0.092-0.066,0.161l-0.012,0.41c-0.006,0.202,0.165,0.431,0.365,0.49l0.908,0.271
							c0.097,0.028,0.188,0.014,0.246-0.039c0.042-0.038,0.063-0.092,0.065-0.161l0.012-0.41c0.006-0.202-0.165-0.431-0.365-0.491
							l-0.908-0.27C128.181,199.105,128.151,199.1,128.123,199.1z"/>
					</g>
				</g>
				<path fill="#738E9E" d="M134.711,214.518c0,0-0.541,0.193-0.049,1.101c0.492,0.908,2.525,7.095,2.146,10.283
					c1.046,0.96,2.223,0.669,2.555-0.339c0.333-1.006,0.681-7.88,0.23-9.269c-0.451-1.389-1.502-2.142-1.427-3.183
					C138.242,212.069,134.711,214.518,134.711,214.518z"/>
				<g>
					<path fill="#92BACF" d="M139.215,226.066l-0.243-0.032c0.97-7.644-0.545-10.255-1.043-11.113l-0.05-0.086
						c-0.491-0.859-0.138-6.069,0.189-8.622c0.462-3.616-1.117-5.593-1.133-5.612l0.189-0.156c0.068,0.083,1.665,2.071,1.187,5.799
						c-0.373,2.912-0.629,7.751-0.219,8.469l0.049,0.085C138.65,215.674,140.195,218.339,139.215,226.066z"/>
				</g>
			</g>
		</g>
		<g>
			<path fill="#FEBFBF" d="M126.247,184.313c0,0-1.871,3.437-2.299,5.958c-0.429,2.521,1.292,1.062,1.997,0.343
				C126.648,189.896,131.251,181.931,126.247,184.313z"/>
			<path fill="#B9D3E1" d="M131.104,178.364l-1.986-0.035c0,0-1.935,0.557-2.445,1.621c-0.511,1.065-1.14,3.723-1.14,3.723
				s0.565,1.05,1.236,1.38C127.44,185.382,131.104,178.364,131.104,178.364z"/>
			<path fill="#B9D3E1" d="M125.533,183.673c0,0-1.457,4.644-1.653,5.163c-0.196,0.52,0.875,0.783,1.031,1.341
				s-0.18,1.398-0.107,1.358c0.072-0.041,0.533-0.24,1.024-0.804c0.491-0.563,2.505-5.397,2.214-5.989
				S125.533,183.673,125.533,183.673z"/>
			<path fill="#FFFFFF" d="M138.281,200.089c0,0-1.015-0.053-2.998,0.206c-1.982,0.258-6.135,0.567-8.497-1.571
				c-1.572-1.378-1.233-1.368-1.192-1.65c0.04-0.283,0.556-4.281,0.452-5.954c-0.104-1.672-0.556-2.421-0.198-3.668
				c0.357-1.246,0.779-1.799,1.068-3.325s0.974-4.336,1.127-4.541c1.02-1.362,3.238-1.244,3.611-1.208
				c0.228,0.022,4.218,0.556,4.218,0.556s0.728-0.004,1.566,0.81c0.886,0.86,2.707,2.196,2.707,2.196l-1.78,13.008L138.281,200.089z
				"/>
			<path fill="#92BACF" d="M131.654,178.377c0,0-1.499-0.319-2.605,0.174s-1.479,2.076-1.912,3.822
				c-0.434,1.746-1.46,3.986-1.715,6.279c-0.254,2.294-0.219,7.864-0.219,7.864l0.55-0.75c0,0,0.356-1.938,0.454-3.832
				c0.09-1.73-0.082-3.425-0.014-3.531c0.142-0.221,3.27-7.434,3.529-7.747C129.981,180.346,131.11,178.575,131.654,178.377z"/>
			
				<linearGradient id="SVGID_2_" gradientUnits="userSpaceOnUse" x1="1214.6099" y1="243.041" x2="1215.4656" y2="242.6209" gradientTransform="matrix(0.9991 0.0431 -0.0431 0.9991 -1078.2738 -105.6812)">
				<stop  offset="0.1224" style="stop-color:#FEB9B8"/>
				<stop  offset="1" style="stop-color:#FFDEDE"/>
			</linearGradient>
			<path fill="url(#SVGID_2_)" d="M125.876,189.438c0,0-0.031,0.23-0.234,0.309s-0.745-0.221-0.745-0.221s-0.009-0.821,0.106-0.77
				s0.512,0.381,0.512,0.381S125.946,189.318,125.876,189.438z"/>
			<path fill="#FEBFBF" d="M135.401,178.277c0.138,0.013,0.473,0.555,1.075,0.883c0.602,0.329,0.617,0.413-0.151,1.06
				c-0.768,0.647-3.525,3.565-5.186,3.14c-1.661-0.426-1.51-2.053-1.417-2.703c0.092-0.648,1.15-2.093,1.479-2.221
				S135.401,178.277,135.401,178.277z"/>
			<path fill="#92BACF" d="M136.698,179.195c0,0-3.535,3.146-4.401,5.342c-0.867,2.196,0.148,5.808-1.584,14.66
				c0.296,1.328,9.788,0.822,9.445-1.643c-0.153-1.098-0.012-15.615-0.012-15.615S137.188,179.36,136.698,179.195z"/>
			<g>
				<path fill="#DBE8EF" d="M137.093,195.999c-1.42-0.331-3.707-1.953-3.803-2.021l0.142-0.2c0.023,0.017,2.344,1.663,3.717,1.983
					L137.093,195.999z"/>
			</g>
			<path fill="#A8B0C2" d="M136.983,185.943c0,0,0.021,6.029,0.093,7.263s-0.753,8.05-0.753,8.05s1.423-0.229,1.658-0.549
				c0.234-0.321,0.678-7.416,0.398-9.247C138.1,189.629,136.983,185.943,136.983,185.943z"/>
			
				<linearGradient id="SVGID_3_" gradientUnits="userSpaceOnUse" x1="1543.8267" y1="225.5107" x2="1540.9756" y2="222.7285" gradientTransform="matrix(0.99 0.1411 -0.1411 0.99 -1360.9968 -261.7202)">
				<stop  offset="0.1224" style="stop-color:#FEC7C7"/>
				<stop  offset="0.9694" style="stop-color:#FFADB7"/>
			</linearGradient>
			<path fill="url(#SVGID_3_)" d="M130.797,177.852c0,0,0.265,0.7,0.177,1.322c-0.089,0.623-0.479,1.648-0.479,1.648
				s0.353,0.753,1.888,0.647c1.535-0.106,1.611-0.636,2.106-0.89c0.496-0.253,1.793-1.458,1.719-1.549
				c-0.075-0.092-1.315-0.775-0.753-2.57s1.318-2.705,1.318-2.705s0.456-0.745-0.072-0.82S130.797,177.852,130.797,177.852z"/>
			
				<linearGradient id="SVGID_4_" gradientUnits="userSpaceOnUse" x1="1538.8843" y1="225.2539" x2="1542.354" y2="225.2539" gradientTransform="matrix(0.99 0.1411 -0.1411 0.99 -1360.9968 -261.7202)">
				<stop  offset="0.1224" style="stop-color:#FCA4B5"/>
				<stop  offset="0.9896" style="stop-color:#FFADB7"/>
			</linearGradient>
			<path fill="url(#SVGID_4_)" d="M134.404,177.131c0,0-1.354,1.163-1.655,1.769s-1.602,1.394-1.602,1.394l-0.156-1.377
				l-0.194-1.064L134.404,177.131z"/>
			<path fill="#FEC7C7" d="M130.787,169.39c0,0-0.573,0.418-0.974,1.334c-0.401,0.916-0.688,1.699-0.671,1.864
				c0.017,0.165,0.142,0.52-0.1,1.175c-0.242,0.654,0.294,4.001,1,4.358s4.075-0.622,4.465-1.08s1.414-2.339,1.584-3.625
				s0.612-2.778-1.225-3.634S130.787,169.39,130.787,169.39z"/>
			<g>
				
					<linearGradient id="SVGID_5_" gradientUnits="userSpaceOnUse" x1="1537.7788" y1="221.1963" x2="1537.0162" y2="221.2482" gradientTransform="matrix(0.99 0.1411 -0.1411 0.99 -1360.9968 -261.7202)">
					<stop  offset="0.1224" style="stop-color:#FEC7C7"/>
					<stop  offset="0.9896" style="stop-color:#FFDBDB"/>
				</linearGradient>
				<path fill="url(#SVGID_5_)" d="M130.207,172.988c0.056,0.369-0.954,1.825-1.01,2.156c-0.057,0.332,0.883,0.349,0.883,0.349
					L130.207,172.988z"/>
				
					<linearGradient id="SVGID_6_" gradientUnits="userSpaceOnUse" x1="1536.8677" y1="221.2266" x2="1537.8472" y2="221.2266" gradientTransform="matrix(0.99 0.1411 -0.1411 0.99 -1360.9968 -261.7202)">
					<stop  offset="0.188" style="stop-color:#FFDCDC"/>
					<stop  offset="0.8991" style="stop-color:#FEC7C7"/>
				</linearGradient>
				<path fill="url(#SVGID_6_)" d="M130.023,175.54c-0.175-0.008-0.672-0.045-0.829-0.234c-0.042-0.05-0.057-0.108-0.047-0.17
					c0.024-0.146,0.208-0.472,0.422-0.849c0.275-0.487,0.619-1.093,0.588-1.292l0.098-0.015c0.036,0.233-0.288,0.804-0.6,1.356
					c-0.2,0.353-0.389,0.687-0.411,0.816c-0.005,0.034,0.002,0.063,0.026,0.09c0.128,0.154,0.63,0.202,0.81,0.2l-0.002,0.1
					C130.069,175.542,130.05,175.541,130.023,175.54z"/>
			</g>
			<g>
				<path fill="#754554" d="M132.824,173.149c-1.137-0.288-1.958-0.131-1.966-0.129l-0.032-0.162
					c0.035-0.007,0.865-0.165,2.039,0.131L132.824,173.149z"/>
			</g>
			<g>
				<path fill="#754554" d="M129.945,172.801c-0.224-0.169-0.609-0.397-0.724-0.375l-0.028-0.162
					c0.254-0.042,0.753,0.331,0.852,0.406L129.945,172.801z"/>
			</g>
			
				<ellipse transform="matrix(0.9475 0.3198 -0.3198 0.9475 62.5179 -33.0367)" fill="#FFFFFF" cx="131.85" cy="173.838" rx="0.348" ry="0.297"/>
			
				<ellipse transform="matrix(0.7292 -0.6843 0.6843 0.7292 -83.4832 135.6747)" fill="#FFFFFF" cx="129.69" cy="173.323" rx="0.244" ry="0.281"/>
			<path fill="#B24E6D" d="M131.094,176.718c0,0-0.941-0.371-1.323-0.439c-0.382-0.068-0.414,0.063-0.392,0.194
				C129.4,176.605,129.958,177.577,131.094,176.718z"/>
			<path fill="#BD627E" d="M136.545,173.932c0,0-0.287-0.405-0.521-0.282c-0.233,0.123-0.668,0.284-0.694,0.463
				c-0.025,0.179-0.23,1.143-0.23,1.143s-0.382-0.737-0.28-1.452c0.102-0.715-0.078-1.728-0.351-2.186
				c-0.272-0.457-0.537-1.157-1.221-1.295c-0.683-0.138-1.643-0.045-2.2-0.111c-0.559-0.066-0.778-0.275-0.778-0.275l-0.548,0.998
				c0,0,0.052-0.508,0.388-1.063s2.719-3.054,5.836-1.123c2.297,1.232,2.035,3.831,1.632,4.76c-0.402,0.929-1.542,1.721-1.667,2.006
				c-0.125,0.285-0.446,0.68-0.457,0.948s0.174-1.002,0.423-1.534C136.128,174.395,136.545,173.932,136.545,173.932z"/>
		</g>
		<g>
			<path fill="#749982" d="M124.214,192.655c-0.651,0.253-1.69,0.207-2.321-0.104c-0.631-0.31-0.614-0.768,0.037-1.021
				c0.651-0.254,1.69-0.207,2.321,0.104C124.882,191.944,124.865,192.401,124.214,192.655z"/>
			<polygon fill="#749982" points="125.158,187.676 124.713,192.163 121.431,192.021 121.375,187.513 			"/>
			<path fill="#A89373" d="M124.375,190.747c-0.678-0.318-1.793-0.368-2.491-0.111c-0.698,0.257-0.714,0.722-0.037,1.04
				c0.678,0.317,1.793,0.367,2.491,0.11C125.035,191.53,125.052,191.064,124.375,190.747z"/>
			<polygon fill="#A89373" points="124.872,191.297 125.143,188.881 121.287,188.702 121.349,191.136 			"/>
			<path fill="#DEC7A7" d="M124.599,188.282c-0.743-0.334-1.964-0.388-2.728-0.121c-0.764,0.268-0.781,0.755-0.039,1.089
				s1.964,0.389,2.729,0.121C125.325,189.104,125.342,188.616,124.599,188.282z"/>
			<path fill="#FEBFBF" d="M121.416,189.156c0,0,0.135-0.285,0.072-0.439s-0.081-0.316-0.081-0.316l0.014-0.246l0.101-0.166
				c0,0-0.41-0.011-0.479,0.186s-0.161,0.706-0.161,0.706l0.26,0.295c0,0-0.28,0.045-0.334,0.153
				c-0.054,0.109-0.153,0.441-0.118,0.499c0.036,0.057,0.341,0.342,0.341,0.342s-0.183,0.124-0.197,0.211s-0.002,0.298,0.02,0.383
				s0.444,0.371,0.444,0.371s-0.105,0.146-0.127,0.278c-0.021,0.132,0.005,0.245,0.099,0.333c0.094,0.087,0.715,0.325,0.819,0.351
				s0.114-0.252,0.063-0.387s-0.579-0.275-0.579-0.275l0.016-0.26c0,0,0.405,0.062,0.479-0.113c0.074-0.176-0.073-0.38-0.132-0.408
				c-0.059-0.028-0.536-0.205-0.536-0.205l-0.102-0.099c0,0,0.385,0.082,0.484,0.08c0.1-0.002,0.2-0.175,0.193-0.294
				c-0.008-0.119-0.124-0.29-0.267-0.36c-0.142-0.07-0.331-0.298-0.331-0.298L121.416,189.156z"/>
			<path fill="#749982" d="M124.539,188.046c-0.703-0.346-1.862-0.397-2.587-0.115c-0.726,0.283-0.744,0.792-0.041,1.139
				s1.861,0.398,2.587,0.115C125.224,188.902,125.242,188.392,124.539,188.046z"/>
			<polygon fill="#749982" points="125.04,188.804 125.098,188.414 124.759,188.466 121.406,188.274 121.392,188.599 			"/>
			<path fill="#A19797" d="M124.662,188.716c-0.75,0.292-1.948,0.239-2.675-0.119c-0.727-0.358-0.708-0.885,0.042-1.177
				c0.75-0.292,1.948-0.239,2.675,0.119C125.431,187.896,125.413,188.424,124.662,188.716z"/>
			<path fill="#C5C9D8" d="M125.332,187.612l-0.312-0.014c-0.081-0.063-0.176-0.123-0.29-0.179c-0.792-0.391-2.098-0.448-2.916-0.13
				c-0.121,0.047-0.222,0.101-0.308,0.157l-0.297-0.013l-0.02,0.459c0,0.007-0.001,0.014-0.001,0.021l0,0.01h0.001
				c0.003,0.226,0.194,0.459,0.579,0.648c0.792,0.39,2.098,0.448,2.916,0.13c0.402-0.156,0.61-0.375,0.625-0.603h0.001
				L125.332,187.612z"/>
			<path fill="#EFF0F5" d="M124.749,186.979c-0.792-0.39-2.098-0.449-2.916-0.13c-0.818,0.319-0.839,0.893-0.046,1.283
				s2.098,0.448,2.916,0.13S125.542,187.369,124.749,186.979z"/>
			<path fill="#C5C9D8" d="M125.037,187.585c0-0.004,0-0.008,0-0.013l0.014-0.316l-0.162-0.007
				c-0.083-0.086-0.197-0.169-0.349-0.244c-0.68-0.334-1.799-0.384-2.5-0.111c-0.159,0.063-0.281,0.136-0.37,0.216l-0.154-0.006
				l-0.014,0.317v0.001v0.002l0,0c-0.005,0.199,0.16,0.404,0.498,0.571c0.679,0.334,1.798,0.384,2.5,0.111
				c0.345-0.135,0.523-0.322,0.536-0.518h0V187.585z"/>
			<path fill="#EFF0F5" d="M124.557,186.624c-0.679-0.334-1.798-0.385-2.5-0.111c-0.701,0.273-0.719,0.766-0.04,1.101
				c0.68,0.334,1.799,0.384,2.5,0.111S125.236,186.958,124.557,186.624z"/>
			<path fill="#A0A6C0" d="M124.757,187.356L124.757,187.356c-0.132,0.025-0.27-0.035-0.307-0.137l-0.015-0.041
				c-0.038-0.102,0.04-0.206,0.172-0.231l0,0c0.132-0.026,0.27,0.035,0.307,0.137l0.015,0.041
				C124.966,187.227,124.889,187.33,124.757,187.356z"/>
		</g>
		<g>
			<path fill="#FEBFBF" d="M138.597,182.39c0,0-1.048,0.053-1.311,1.894c-0.262,1.841,0.505,9.942,1.167,10.757
				c0.662,0.815,1.737,0.355,2.109-1.375c0.373-1.73,0.497-6.776,0.495-7.39C141.054,185.663,141.007,181.503,138.597,182.39z"/>
			<path fill="#FEBFBF" d="M138.693,194.012c0,0-0.366,0.29-0.697,1.54s-1.161,7.33-1.663,7.943s-1.066,1.101-1.066,1.101
				s-0.579,0.899-0.619,1.182c-0.04,0.283-0.287,0.878-0.407,1.023c-0.12,0.145-0.531,0.689-0.504,0.82
				c0.026,0.129,0.4,0.228,0.565,0.08s0.67-1.229,0.833-1.422s0.335-0.25,0.335-0.25s0.13,0.775,0.067,0.965
				s-0.646,1.431-0.646,1.431s-0.55,0.76-0.568,0.829c-0.019,0.069,0.269,0.138,0.421,0.016c0.152-0.123,0.107,0.132,0.405,0.066
				c0.298-0.066,1.12-0.715,1.12-0.715l0.132-0.17l0.589-0.088c0,0,0.895-1.35,0.967-1.727s0.472-3.312,0.472-3.312
				s2.851-7.053,1.963-9.071C139.974,193.617,138.693,194.012,138.693,194.012z"/>
			<path fill="#FEBFBF" d="M136.379,207.338c0,0-0.551,1.07-0.667,1.175c-0.117,0.104-0.968,0.757-0.968,0.757l0.188,0.026
				c0,0,0.391-0.372,0.488-0.439s0.436-0.357,0.436-0.357l0.491-0.93L136.379,207.338z"/>
			<path fill="#FEBFBF" d="M137.055,207.434l-0.514,0.906l-0.14,0.111l0.133-0.02c0,0,0.204-0.191,0.266-0.346
				C136.862,207.934,137.055,207.434,137.055,207.434z"/>
			<path fill="#B9D3E1" d="M138.739,181.794c0,0-0.954,0.148-1.476,1.438c-0.521,1.291-0.165,4.666-0.165,4.666
				s1.377-0.087,2.802-0.411c1.424-0.324,1.581-0.949,1.581-0.949s-0.614-3.089-0.843-3.568
				C140.41,182.491,140.424,181.346,138.739,181.794z"/>
		</g>
	</g>
	<path fill="#E6EAF2" d="M129.503,180.901c0,0-1.622,5.736-1.604,7.978c0.018,2.241-0.28,8.359-0.28,8.359s-1.68,0.358-1.763-1.04
		c-0.083-1.397,1.278-9.951,1.278-9.951S129.16,179.502,129.503,180.901z"/>
	<path fill="#B8CFEC" d="M125.203,196.517c0,0,0.867-0.293,1.164-1.411c0.296-1.117,0.569-2.952,0.595-4.84
		c0.026-1.888,1.003-5.005,1.433-6.368c0.43-1.364,1.508-3.754,1.508-3.754s-3.491,6.54-3.709,8.261
		C125.975,190.126,126.117,195.785,125.203,196.517z"/>
	<path fill="#DBE8EF" d="M131.11,178.227c0,0-0.663-0.043-0.949,0.026c-0.286,0.07-1.159,0.836-1.253,1.094
		c-0.094,0.258,0.063,0.995,0.063,0.995s-0.75,1.305-0.769,1.525s-0.651,2.976-0.651,2.976l2.274-4.528L131.11,178.227z"/>
	<path fill="#B9D3E1" d="M137.319,197.585l0.698-2.832l-0.918-6.855l4.383-1.36c0,0-0.031,5.733-0.476,7.333
		c-0.202,2.133-0.78,4.654-0.78,4.654L137.319,197.585z"/>
	<polygon fill="#DBE8EF" points="140.061,199.781 137.092,199.067 137.338,197.139 140.591,197.93 	"/>
	<path fill="#DBE8EF" d="M131.862,189.14c0,0,0.9-2.962,1.505-3.793c0.604-0.831,1.373-2.163,1.373-2.163l-0.412-0.7
		c0,0,0.981-0.056,1.831-0.589c0.85-0.534,1.493-2.039,1.493-2.039s-2.203-2.068-2.227-1.823s0.376,0.811,0.376,0.811
		s0.123,0.463-0.009,0.768c-0.133,0.304-3.108,3.609-3.361,4.197C132.177,184.396,131.632,186.152,131.862,189.14z"/>
	<g>
		<polygon fill="#EFF0F5" points="128.288,172.702 128.334,172.587 128.315,172.588 129.208,172.297 129.259,172.119 
			128.05,172.608 		"/>
	</g>
	<g>
		<path fill="#A28C87" d="M129.503,173.241c0.178,0.528,0.06,1.007-0.264,1.069s-0.732-0.314-0.911-0.842
			c-0.178-0.528-0.06-1.007,0.264-1.069C128.917,172.336,129.325,172.714,129.503,173.241z"/>
	</g>
	<g>
		<path fill="#A28C87" d="M132.126,174.219c0.196,0.579-0.005,1.118-0.448,1.204c-0.443,0.085-0.962-0.314-1.158-0.894
			c-0.196-0.58,0.005-1.119,0.449-1.204C131.412,173.239,131.931,173.64,132.126,174.219z"/>
	</g>
	<g>
		<polygon fill="#EFF0F5" points="132.643,174.567 136.22,173.763 136.157,173.644 132.633,174.43 132.167,174.219 132.121,174.334 
					"/>
	</g>
	
		<linearGradient id="SVGID_7_" gradientUnits="userSpaceOnUse" x1="1169.8169" y1="234.1133" x2="1171.4116" y2="234.1133" gradientTransform="matrix(0.9997 0.0264 -0.0264 0.9997 -1028.1338 -90.3086)">
		<stop  offset="0.1224" style="stop-color:#FEB9B8"/>
		<stop  offset="1" style="stop-color:#FFDEDE"/>
	</linearGradient>
	<path fill="url(#SVGID_7_)" d="M135.556,173.91c0,0,0.759-0.884,1.104-0.259c0.345,0.625-0.258,1.405-0.656,1.79
		s-0.702,0.503-0.838,0.319s0.131-0.913,0.131-0.913L135.556,173.91z"/>
	
		<linearGradient id="SVGID_8_" gradientUnits="userSpaceOnUse" x1="1170.0747" y1="234.0059" x2="1171.1802" y2="234.0059" gradientTransform="matrix(0.9997 0.0264 -0.0264 0.9997 -1028.1338 -90.3086)">
		<stop  offset="0.1224" style="stop-color:#FCA4B5"/>
		<stop  offset="0.9896" style="stop-color:#FFADB7"/>
	</linearGradient>
	<path fill="url(#SVGID_8_)" d="M135.676,173.913c0,0,0.488-0.509,0.733-0.161s0.107,1-0.406,1.575
		c-0.519,0.234-0.613,0.011-0.611-0.057c0.001-0.066,0.184-0.377,0.191-0.641S135.676,173.913,135.676,173.913z"/>
	<g>
		<path fill="#EFF0F5" d="M130.446,173.772l0.117-0.056c-0.146-0.229-0.327-0.376-0.533-0.439c-0.286-0.087-0.518,0.022-0.528,0.027
			l0.074,0.114C129.594,173.409,130.071,173.19,130.446,173.772z"/>
	</g>
	<path fill="#EFF0F5" d="M128.706,174.132c-0.176-0.163-0.322-0.396-0.41-0.657c-0.183-0.543-0.054-1.04,0.287-1.105
		c0.164-0.035,0.362,0.041,0.542,0.209c0.176,0.163,0.322,0.396,0.41,0.657l-0.032,0.006l0.032-0.006
		c0.118,0.346,0.111,0.693-0.015,0.905c-0.064,0.11-0.158,0.179-0.271,0.201c-0.032,0.007-0.065,0.009-0.099,0.007
		C129.007,174.342,128.853,174.268,128.706,174.132z M128.603,172.43c-0.306,0.06-0.415,0.522-0.243,1.033
		c0.084,0.249,0.224,0.473,0.392,0.627c0.162,0.151,0.332,0.217,0.477,0.19c0.096-0.019,0.176-0.079,0.232-0.174
		c0.118-0.199,0.122-0.528,0.011-0.858l0,0c-0.085-0.25-0.224-0.474-0.391-0.628c-0.133-0.123-0.271-0.19-0.396-0.196
		C128.656,172.423,128.629,172.425,128.603,172.43z"/>
	<path fill="#EFF0F5" d="M130.986,175.248c-0.224-0.173-0.401-0.426-0.497-0.713c-0.202-0.595,0.009-1.151,0.47-1.241
		c0.181-0.036,0.375,0.005,0.565,0.114c0.282,0.162,0.518,0.462,0.633,0.805l0,0c0.201,0.594-0.009,1.151-0.469,1.24
		c-0.052,0.01-0.106,0.014-0.161,0.012C131.349,175.457,131.162,175.383,130.986,175.248z M130.979,173.355
		c-0.425,0.082-0.617,0.606-0.427,1.168c0.092,0.273,0.26,0.515,0.474,0.679c0.208,0.162,0.433,0.228,0.642,0.19
		c0.425-0.083,0.616-0.606,0.426-1.168l0,0c-0.11-0.326-0.334-0.611-0.601-0.765c-0.124-0.071-0.249-0.11-0.37-0.115
		C131.074,173.343,131.026,173.347,130.979,173.355z"/>
	<g>
		<path fill="#A8B0C2" d="M134.948,187.699c-0.205,0.5-0.736,0.709-1.186,0.469c-0.45-0.24-0.648-0.84-0.443-1.339
			c0.206-0.499,0.736-0.709,1.186-0.468C134.955,186.601,135.153,187.2,134.948,187.699z"/>
		<path fill="#DBA259" d="M134.86,187.654c-0.205,0.5-0.736,0.709-1.186,0.469s-0.648-0.84-0.443-1.339
			c0.205-0.5,0.736-0.709,1.186-0.469C134.867,186.555,135.065,187.154,134.86,187.654z"/>
		<path fill="#EDB83A" d="M134.747,187.629c-0.197,0.479-0.703,0.683-1.13,0.454c-0.426-0.228-0.612-0.802-0.415-1.281
			c0.198-0.479,0.704-0.683,1.13-0.454S134.944,187.149,134.747,187.629z"/>
		<path fill="#F7D165" d="M134.703,187.63c-0.193,0.468-0.688,0.667-1.105,0.444s-0.599-0.784-0.406-1.252
			c0.193-0.469,0.688-0.667,1.105-0.444C134.714,186.601,134.896,187.161,134.703,187.63z"/>
		<path fill="#738E9E" d="M134.131,186.52c-0.362-0.126-0.732,0.087-0.826,0.477c-0.093,0.389,0.126,0.809,0.488,0.936
			c0.362,0.126,0.732-0.087,0.826-0.477S134.494,186.646,134.131,186.52z M133.761,187.73c-0.08-0.043-0.146-0.102-0.198-0.176
			l0.279-0.161L133.761,187.73z M134.015,186.67l-0.084,0.353l0,0l-0.035,0.145l-0.411,0.237c-0.041-0.113-0.06-0.234-0.031-0.355
			C133.52,186.775,133.762,186.625,134.015,186.67z M133.91,187.782l0.08-0.333l0.168,0.311
			C134.081,187.791,133.998,187.798,133.91,187.782z M134.29,187.683l-0.248-0.455l0.121-0.506c0.234,0.126,0.372,0.409,0.307,0.683
			C134.442,187.524,134.373,187.614,134.29,187.683z"/>
	</g>
	
		<ellipse transform="matrix(0.5395 0.842 -0.842 0.5395 219.1762 -27.1609)" fill="#A08471" cx="134.419" cy="186.797" rx="0.329" ry="0.185"/>
	<path fill="#EFF0F5" d="M135.209,177.556c0.478,0.021,0.884-0.401,0.908-0.942c0.021-0.484-0.273-0.897-0.677-0.994
		c-0.017,0.035-0.04,0.068-0.072,0.096c0.012,0.002,0.024,0,0.036,0.003c0.237,0.056,0.438,0.24,0.536,0.492
		c0.169,0.435,0,0.948-0.379,1.145c-0.187,0.095-0.387,0.102-0.572,0.022c-0.19-0.081-0.34-0.243-0.423-0.455
		c-0.169-0.435,0.001-0.948,0.38-1.145c0.042-0.021,0.084-0.039,0.128-0.051c0.026-0.008,0.053-0.008,0.079-0.012
		c-0.011-0.02-0.027-0.034-0.026-0.062c0.001-0.016,0.014-0.031,0.02-0.046c-0.411,0.062-0.738,0.448-0.759,0.932
		C134.362,177.079,134.731,177.535,135.209,177.556z"/>
</g>
</svg>
