<?xml version="1.0" encoding="utf-8"?>
<!-- Generator: Adobe Illustrator 16.0.0, SVG Export Plug-In . SVG Version: 6.00 Build 0)  -->
<!DOCTYPE svg PUBLIC "-//W3C//DTD SVG 1.1//EN" "http://www.w3.org/Graphics/SVG/1.1/DTD/svg11.dtd">
<svg version="1.1" id="Layer_1" xmlns="http://www.w3.org/2000/svg" xmlns:xlink="http://www.w3.org/1999/xlink" x="0px" y="0px"
	 width="463.683px" height="425.749px" viewBox="0 0 463.683 425.749" enable-background="new 0 0 463.683 425.749"
	 xml:space="preserve">
<g>
	<path fill="#656565" d="M52.559,148.691c0,0,0.271-0.521,0.742-0.611s7.904-0.274,8.217,0.007c0.313,0.281,0.506,0.629,0.507,1.113
		c0.001,0.484-3.922,0.511-3.922,0.511L52.559,148.691z"/>
	<g>
		<path fill="#D7E4F2" d="M50.108,214.683c4.489-2.857,11.977-3.166,16.725-0.691c4.748,2.475,4.958,6.797,0.469,9.652
			c-4.489,2.857-11.977,3.166-16.725,0.691S45.62,217.538,50.108,214.683z"/>
		<g>
			<path fill="#FEBFBF" d="M61.096,174.364c0.353,1.988,3.669,11.486,4.074,12.778c0.027,0.084,0.04,0.127,0.04,0.127
				s0.315,0.083,0.477-0.033c0.161-0.116,0.32-1.212,0.32-1.212l0.015,0.509c0,0.002,0,0.002,0,0.004l0.003,0.14
				c0,0.008,0.001,0.019,0.004,0.027c0,0.006,0.003,0.012,0.003,0.018c0.021,0.085,0.093,0.249,0.326,0.232
				c0.04-0.003,0.078-0.022,0.113-0.056c0.006-0.004,0.012-0.011,0.018-0.018c0.25-0.258,0.437-1.114,0.483-1.25
				c0.053-0.16,0.046-1.192,0.046-1.192l0.018,0.018c0.047,0.049,0.178,0.18,0.31,0.277v0.002c0.11,0.082,0.224,0.143,0.291,0.117
				c0.165-0.063-0.046-0.663-0.046-0.663s-0.319-1.01-0.407-1.33c-0.089-0.32-0.563-1.488-0.951-2.193
				c-0.227-1.029-1.524-10.056-1.524-10.056s0.208-9.656-0.958-11.77c-1.166-2.112-3.322-1.175-3.322-1.175
				S60.72,172.248,61.096,174.364z"/>
			<path fill="#E6F1FF" d="M60.025,156.534c0,0,2.478-0.372,3.565,0.833c1.088,1.204,1.262,2.998,1.229,5.131
				s0.123,7.037,0.186,8.042c0.063,1.004,1.253,8.969,1.253,8.969s-1.186,0.994-2.435,0.526
				C62.575,179.567,60.025,156.534,60.025,156.534z"/>
			<path fill="#FEBFBF" d="M67.346,184.732l-0.31-0.277C67.083,184.504,67.213,184.635,67.346,184.732z"/>
			<path fill="#FEBFBF" d="M66.866,185.725c0.033,0.17-0.285,1.032-0.377,1.156c0.25-0.258,0.437-1.114,0.483-1.25
				c0.053-0.16,0.046-1.192,0.046-1.192s-0.336-0.825-0.468-0.973s-0.71-0.943-0.71-0.943s0.263,0.761,0.325,0.907
				s0.427,0.52,0.521,0.73c0.092,0.213,0.232,0.481,0.232,0.481S66.831,185.554,66.866,185.725z"/>
			<path fill="#FEBFBF" d="M65.17,187.142c0.027,0.084,0.04,0.127,0.04,0.127s0.315,0.083,0.477-0.033
				c0.161-0.116,0.32-1.212,0.32-1.212l0.015,0.509c0.03-0.255,0.275-1.465,0.275-1.465l-0.094-0.951l-0.17,0.282
				c0,0-0.019,0.864-0.015,0.917c0.004,0.052-0.315,1.466-0.315,1.466S65.619,187.169,65.17,187.142z"/>
		</g>
		<g>
			<path fill="#626170" d="M67.09,217.769c0,0,0.271,0.139,0.285,0.34s0.021,0.756,0.021,0.887
				c-0.001,0.131-0.345,0.639-1.187,0.834s-2.888-0.346-3.578-0.748s-1.63-1.428-1.917-1.506c-0.225-0.061-0.798,0.023-1.035,0.063
				c-0.073,0.012-0.145,0.016-0.219,0.008l-0.541-0.045c-0.077-0.006-0.153-0.021-0.226-0.049l-1.158-0.41
				c0,0-0.166-0.852,0.182-1.119C58.066,215.755,67.09,217.769,67.09,217.769z"/>
			<path fill="#504F60" d="M62.319,214.315c0,0,1.002,0.635,1.18,0.814c0.178,0.178,1.989,0.914,2.617,1.297
				c0.627,0.383,1.101,1.037,1.142,1.252s0.137,0.705,0.064,0.91s-0.4,0.75-1.484,0.818c-0.97,0.061-2.839-0.758-3.221-0.932
				c-0.046-0.021-0.088-0.045-0.131-0.074c-0.289-0.195-1.493-1.012-1.69-1.105c-0.226-0.105-2.22-0.611-2.523-0.711
				c-0.303-0.102-0.643-0.139-0.688-0.383c-0.044-0.242-0.135-1.58,0.025-2C57.771,213.78,61.434,213.237,62.319,214.315z"/>
			<path fill="#CCDEFB" d="M57.591,214.495c0.104,0.33,0.489,0.564,1.774,0.633c0.148,0.006,0.297,0.012,0.445,0.012
				c0.922,0.031,1.773-0.039,2.703-0.445c0.326-0.143,0.545-0.465,0.549-0.822c0.037-3.584,1.543-18.37,1.993-27.562
				c0.285-5.813-0.977-8.767-0.977-8.767l-6.209-0.357l-0.228,15.337l0.002,8.872C57.644,201.395,57.493,214.163,57.591,214.495z"/>
			<g>
				<path fill="#ACBBD4" d="M59.353,215.151c0.005-0.104,0.459-10.298,0.618-12.444c0.16-2.149,0.29-14.342,0.292-14.465
					l-0.239-0.002c-0.001,0.123-0.132,12.309-0.291,14.451c-0.159,2.147-0.613,12.347-0.618,12.449L59.353,215.151z"/>
			</g>
			<path fill="#DBDEE5" d="M57.591,214.495c0.068,0.215,0.255,0.391,0.734,0.504c0.579,0.094,0.909,0.146,1.485,0.141l1.161-26.57
				c0,0,1.625-1.765,1.346-2.861c-0.124-0.472-4.54,6.209-4.54,6.209l-0.135,0.605l0.002,8.872
				C57.644,201.395,57.493,214.163,57.591,214.495z"/>
			<path fill="#626170" d="M59.676,221.048c0,0,0.297,0.004,0.368,0.4c0.023,0.131,0.038,0.27,0.047,0.395
				c0.024,0.342-0.138,0.674-0.436,0.84c-0.251,0.143-0.626,0.287-1.164,0.355c-1.243,0.156-2.764-0.303-3.544-0.744
				c-0.78-0.443-1.06-0.801-1.53-1.455c-0.47-0.652-0.956-0.965-0.956-0.965l-0.198,0.055c0,0-0.696-0.506-1.079-0.857
				c-0.154-0.143-0.254-0.33-0.28-0.537c-0.054-0.439-0.063-1.158,0.067-1.24C51.143,217.185,59.676,221.048,59.676,221.048z"/>
			<path fill="#504F60" d="M56.378,216.839l0.162,0.387c0.047,0.111,0.115,0.213,0.202,0.297c0.458,0.445,1.986,1.938,2.453,2.436
				c0.551,0.588,0.835,1.104,0.859,1.639c0.024,0.533-1.362,0.879-1.57,0.893c-0.208,0.016-1.129,0.105-2.31-0.334
				s-1.667-0.863-2.615-1.895c-0.948-1.029-1.588-1.598-1.879-1.832c-0.291-0.236-0.714-0.611-0.709-0.916s-0.043-1.16,0.207-1.268
				c0.225-0.096,3.53-0.371,4.763,0.131C56.145,216.458,56.294,216.636,56.378,216.839z"/>
			<path fill="#CCDEFB" d="M61.69,180.016c0,0,0.588,2.549,0.824,4.979c0.21,2.168-2.088,2.939-2.088,2.939
				s-1.479,10.358-2.004,12.909c-0.466,2.261-1.765,12.867-2.057,15.189c-0.038,0.307-0.227,0.566-0.506,0.697
				c-0.835,0.389-2.687,1.055-4.221,0.191c-0.271-0.152-0.441-0.441-0.451-0.752c-0.24-7.176,0.954-15.745,1.031-16.86
				c0.003-0.043,0.004-0.078,0.002-0.121c-0.104-2.1-1.224-9.415-1.599-14.345c-0.328-1.938,0.24-5.011,0.24-5.011L61.69,180.016z"
				/>
			<g>
				<path fill="#8C92B0" d="M61.049,186.356c-0.102-0.063-0.218-0.213-0.195-0.563c0.096-1.491-0.137-3.843-0.224-4.033l0.089-0.063
					l0.001-0.003l0.001,0.002l-0.061-0.106l0.069-0.035l0.06,0.038c0.205,0.128,0.381,2.983,0.302,4.216
					c-0.011,0.176,0.02,0.306,0.083,0.346c0.044,0.027,0.114,0.016,0.194-0.028c0.276-0.154,0.683-0.727,0.673-1.672
					c-0.006-0.551-0.131-2.647-0.165-2.87l0.236-0.036c0.04,0.26,0.162,2.376,0.167,2.903c0.011,0.982-0.405,1.665-0.795,1.883
					c-0.082,0.046-0.162,0.07-0.237,0.074C61.176,186.411,61.108,186.394,61.049,186.356z M60.78,181.797l-0.057-0.099
					L60.78,181.797z"/>
			</g>
			<g>
				<path fill="#ACBBD4" d="M52.07,217.403l0.239-0.012c-0.287-5.803,0.344-11.956,0.721-15.631c0.146-1.423,0.251-2.45,0.24-2.882
					c-0.024-0.946-0.353-4.162-0.67-7.271c-0.184-1.805-0.358-3.51-0.455-4.599c-0.256-2.883-0.031-4.608-0.029-4.625l-0.237-0.032
					c-0.002,0.018-0.23,1.766,0.027,4.678c0.097,1.091,0.271,2.797,0.455,4.603c0.303,2.96,0.645,6.316,0.669,7.253
					c0.011,0.417-0.094,1.438-0.239,2.852C52.414,205.418,51.783,211.583,52.07,217.403z"/>
			</g>
			<g>
				<path fill="#8C92B0" d="M55.137,186.584c1.371-0.059,2.417-0.425,3.119-1.092c0.913-0.868,0.889-1.917,0.887-1.961l-0.239,0.008
					c0,0.009,0.02,0.992-0.817,1.783c-0.873,0.826-2.327,1.159-4.32,0.988l-0.02,0.238
					C54.243,186.591,54.706,186.604,55.137,186.584z"/>
			</g>
			<path fill="#A76478" d="M50.563,182.248c0,0,2.285,0.973,5.87,0.693c3.586-0.28,4.938-0.767,6.123-1.5
				c1.186-0.733,1.902-1.656,1.902-1.656l-0.249-1.38c0,0-0.658,1.155-2.349,1.966s-5.36,1.156-6.854,1.232
				c-1.495,0.076-4.331-0.444-4.331-0.444L50.563,182.248z"/>
			<path fill="#4F5997" d="M58.178,181.373c0,0,0.105,0.394,0.13,0.862c0.024,0.469,0.024,1.331,0.024,1.331l0.541-0.098
				c0,0,0.081-0.833,0.052-1.25c-0.029-0.416-0.165-0.99-0.165-0.99L58.178,181.373z"/>
			<path fill="#4F5997" d="M52.982,181.493c0,0-0.089,0.397-0.093,0.867c-0.004,0.469,0.032,1.33,0.032,1.33l-0.545-0.075
				c0,0-0.116-0.83-0.104-1.246c0.012-0.417,0.124-0.996,0.124-0.996L52.982,181.493z"/>
			<path fill="#4F5997" d="M63.133,179.53c0,0,0.142,0.487,0.17,0.886c0.028,0.398-0.032,1.082-0.032,1.082l0.355-0.454
				c0,0,0.042-0.69,0.027-0.907c-0.015-0.216-0.229-0.846-0.229-0.846L63.133,179.53z"/>
			<g>
				<path fill="#8C92B0" d="M64.896,181.75c0.037-0.002,0.075-0.009,0.114-0.021l-0.075-0.227c-0.306,0.107-0.677-0.639-0.815-1.01
					l-0.224,0.082C63.944,180.704,64.356,181.772,64.896,181.75z"/>
			</g>
			<g>
				<path fill="#CCDEFB" d="M60.407,182.441c-0.148-0.104-0.233-0.272-0.239-0.477l-0.011-0.4c-0.012-0.42,0.314-0.873,0.743-1.032
					l1.006-0.373c0.234-0.086,0.463-0.069,0.63,0.047c0.148,0.104,0.233,0.273,0.239,0.478l0.011,0.4
					c0.012,0.42-0.314,0.873-0.743,1.032l-1.006,0.372c-0.064,0.023-0.128,0.04-0.191,0.048
					C60.681,182.558,60.527,182.525,60.407,182.441z M62,180.597l-1.006,0.372c-0.222,0.082-0.412,0.327-0.406,0.523l0.012,0.4
					c0.002,0.067,0.026,0.118,0.072,0.149c0.065,0.045,0.165,0.048,0.272,0.008l1.006-0.372c0.222-0.083,0.412-0.327,0.406-0.523
					l-0.012-0.4c-0.002-0.067-0.026-0.118-0.072-0.15c-0.044-0.031-0.105-0.042-0.174-0.033
					C62.066,180.576,62.033,180.584,62,180.597z"/>
			</g>
		</g>
		<path fill="#DDE8F6" d="M49.45,168.702c0.077,0.531,0.148,1.043,0.198,1.506c0.269,2.493,1.185,10.838,1.185,10.838
			c0,0.004,0.021,0.153,1.207,0.275c0.394,0.042,1.053,0.052,1.85,0.036c1.651-0.035,3.894-0.183,5.567-0.424
			c2.483-0.355,5.021-2.294,4.913-2.934c-0.11-0.638-0.277-2.747,0.072-6.715c0.349-3.971,0.241-10.068-0.631-12.072
			c-0.872-2.001-1.414-2.277-3.078-2.525c-1.665-0.25-4.954-0.214-5.588,0.039c-0.636,0.254-3.583,2.179-4.541,3.057
			c-0.957,0.878-1.624,2.044-1.624,2.044C48.56,162.56,49.108,166.355,49.45,168.702z"/>
		<path fill="#DDE8F6" d="M60.136,157.515c2.694,1.25,0.932,0.527-0.043,1.294c-0.975,0.768-1.721,0.943-2.635,0.879
			c-1.953-0.137-1.365,0.583-1.854,0.59c-1.213,0.019-2.307-0.562-2.845-0.59c-0.539-0.029-1.849-0.13-2.629,0.573
			c0.473-0.48,0.473-0.48,0.473-0.48l1.277-1.16C51.879,158.621,58.173,156.605,60.136,157.515z"/>
		<path fill="#E6F1FF" d="M61.543,148.696c0,0,0.698,4.739,0.344,6.697c-0.429,2.081-0.224,2.489-0.359,2.777
			s-2.15-1.156-3.372-0.586s2.397-8.288,2.397-8.288L61.543,148.696z"/>
		<path fill="#DDE8F6" d="M46.789,209.257c0.283,0.432,0.832,1.059,1.663,1.635c1.197,0.852,2.957,1.602,5.285,1.5
			c3.931-0.17,4.23-0.105,7.556-1.453c3.326-1.35,3.485-3.334,3.485-3.334s0.347-5.855,0.772-14.362
			c0.419-8.501-0.134-12.814-0.792-16.563c-0.658-3.755-0.319-14.714-0.319-14.714l-14.587,7.752c0,0-0.089,4.2-0.129,9.261
			c-0.025,3.43-0.022,7.252,0.044,10.42C49.951,197.248,48.038,205.922,46.789,209.257z"/>
		<path fill="#DDE8F6" d="M49.767,189.399c-0.066-3.168-0.069-6.99-0.044-10.42c0.271-0.617,0.515-1.093,0.729-1.406
			c-0.285-2.599-0.65-5.939-0.804-7.365c-0.049-0.463-0.121-0.975-0.198-1.506l3.998-2.187c0,0-0.306,8.188-0.509,9.248
			c-0.169,0.866,0.568,4.829,0.568,4.83c0.102,0.925,1.655,9.842,1.655,9.842s-0.833,1.312-1.454,1.552
			c-0.622,0.24-1.734,1.95-1.613,2.802c0.121,0.858-0.806,8.201-1.737,11.413c-0.472,1.625-1.149,3.4-1.905,4.689
			c-0.831-0.576-1.38-1.203-1.663-1.635C48.038,205.922,49.951,197.248,49.767,189.399z"/>
		<path fill="#E6F1FF" d="M51.107,160.957c0,0,2.74,0.444,2.225,5.026s-1.479,11.199-1.656,11.655
			c-0.177,0.457-3.01,1.787-3.317,0.015c-0.307-1.772-0.383-7.024-0.406-8.851c-0.024-1.827,0.585-6.097,1.142-6.972
			C49.6,161.035,50.433,160.694,51.107,160.957z"/>
		<path fill="#FEBFBF" d="M51.41,175.697c0,0,0.526-0.323,0.64,0.178s0.333,9.969,0.413,10.355c0.079,0.387,0.824,1.196,1.007,1.323
			c0.183,0.126,0.994,1.01,1.118,1.297c0.125,0.288,0.577,1.645,0.73,1.961c0.153,0.315,0.749,0.81,0.592,1.173
			c-0.158,0.364-0.806-0.126-1.102-0.432s-0.796-1.486-1.081-1.818c-0.027,0.354-0.083,1.521-0.067,2.029
			c0.011,0.36,0.844,2.162,0.673,2.33c-0.084,0.083-0.319,0.101-0.529-0.093s-0.86-1.272-0.86-1.272s0.416,1.277,0.418,1.499
			s-0.238,0.33-0.52,0.037c-0.282-0.294-0.361-0.498-0.361-0.498s-0.333,0.285-0.491,0.074c-0.159-0.211-0.688-0.971-0.738-1.268
			c-0.051-0.297-0.182-0.679-0.182-0.679s-0.273-0.234-0.449-0.744c-0.175-0.51-0.507-1.515-0.537-2.191
			c-0.03-0.678-0.169-2.414-0.402-3.745c-0.233-1.331-1.926-8.079-1.502-9.369C49.098,175.894,51.41,175.697,51.41,175.697z"/>
		<g>
			
				<linearGradient id="SVGID_1_" gradientUnits="userSpaceOnUse" x1="3889.4487" y1="33.7246" x2="3887.3557" y2="29.4783" gradientTransform="matrix(-0.9975 0.07 0.07 0.9975 3933.3735 -147.2732)">
				<stop  offset="0.1224" style="stop-color:#FEC7C7"/>
				<stop  offset="0.9694" style="stop-color:#FFADB7"/>
			</linearGradient>
			<path fill="url(#SVGID_1_)" d="M59.514,156.481c0,0-0.164,1.469,0.166,2.395c-1.248,0.927-2.571,0.61-3.823,0.031
				c-1.252-0.58-1.733-1.121-1.792-1.321c-0.059-0.201,0.681-0.315,0.864-1.682c0.184-1.367,0.104-2.29,0.016-3.248
				c-0.087-0.957,0.562-1.798,0.562-1.798L59.514,156.481z"/>
			
				<linearGradient id="SVGID_2_" gradientUnits="userSpaceOnUse" x1="3885.605" y1="31.6299" x2="3888.7456" y2="31.6299" gradientTransform="matrix(-0.9975 0.07 0.07 0.9975 3933.3735 -147.2732)">
				<stop  offset="0.1224" style="stop-color:#FCA4B5"/>
				<stop  offset="0.9896" style="stop-color:#FFADB7"/>
			</linearGradient>
			<path fill="url(#SVGID_2_)" d="M56.469,155.135c0,0,0.86,1.895,1.188,2.201s1.408,0.498,1.691,0.208s0.311-1.81,0.311-1.81
				L56.469,155.135z"/>
			<path fill="#FEC7C7" d="M56.583,155.497c0.293,0.827,3.487,2.414,4.438,1.601c0.486-0.416,0.681-1.683,0.758-2.928
				c0.077-1.196,0.048-2.376,0.072-2.772c0.049-0.808-0.507-2.503-0.507-2.503l-4.752,0.255c0,0-1.115,1.06-0.974,2.112
				c0.027,0.197,0.068,0.439,0.116,0.708C55.951,153.14,56.348,154.825,56.583,155.497z"/>
			<g>
				
					<linearGradient id="SVGID_3_" gradientUnits="userSpaceOnUse" x1="3884.396" y1="28.124" x2="3883.304" y2="28.4425" gradientTransform="matrix(-0.9975 0.07 0.07 0.9975 3933.3735 -147.2732)">
					<stop  offset="0.1224" style="stop-color:#FEC7C7"/>
					<stop  offset="0.9896" style="stop-color:#FFDBDB"/>
				</linearGradient>
				<path fill="url(#SVGID_3_)" d="M60.874,151.207c-0.073,0.511,0.837,1.938,0.935,2.424c0.098,0.487-1.456,0.518-1.456,0.518
					L60.874,151.207z"/>
				
					<linearGradient id="SVGID_4_" gradientUnits="userSpaceOnUse" x1="3883.2632" y1="28.1323" x2="3884.8042" y2="28.1323" gradientTransform="matrix(-0.9975 0.07 0.07 0.9975 3933.3735 -147.2732)">
					<stop  offset="0.188" style="stop-color:#FFDCDC"/>
					<stop  offset="0.8991" style="stop-color:#FEC7C7"/>
				</linearGradient>
				<path fill="url(#SVGID_4_)" d="M60.432,154.194c0.268-0.012,1.14-0.07,1.369-0.357c0.052-0.065,0.071-0.138,0.055-0.216
					c-0.04-0.199-0.203-0.531-0.392-0.917c-0.274-0.561-0.584-1.196-0.542-1.49l-0.095-0.014c-0.047,0.323,0.271,0.973,0.551,1.546
					c0.178,0.364,0.346,0.708,0.384,0.895c0.01,0.05-0.002,0.094-0.035,0.136c-0.198,0.247-1.065,0.316-1.374,0.324l0.002,0.097
					C60.361,154.196,60.388,154.196,60.432,154.194z"/>
			</g>
			<g>
				<path fill="#754554" d="M58.43,151.886c1.058-0.579,2.027-0.314,2.037-0.312l0.044-0.155c-0.043-0.012-1.039-0.287-2.16,0.326
					L58.43,151.886z"/>
			</g>
			<g>
				<path fill="#754554" d="M61.133,151.337c0.003-0.002,0.348-0.262,0.801-0.348l-0.03-0.158c-0.492,0.092-0.854,0.367-0.869,0.378
					L61.133,151.337z"/>
			</g>
			<path fill="#AF727B" d="M56.583,155.497c0.293,0.827,3.487,2.414,4.438,1.601c0.486-0.416,0.681-1.683,0.758-2.928
				c-0.064,0.038-0.136,0.055-0.209,0.038c-0.296-0.068-0.724-0.079-1.159,0.234c-0.432,0.313-1.039,0.729-1.402,0.775
				c-0.363,0.046-1.632-0.32-1.94-0.789c-0.308-0.47-0.546-1.738-0.546-1.738l-0.789-0.721
				C55.951,153.14,56.348,154.825,56.583,155.497z"/>
			
				<linearGradient id="SVGID_5_" gradientUnits="userSpaceOnUse" x1="3614.438" y1="223.5537" x2="3615.8726" y2="223.5537" gradientTransform="matrix(-0.9999 -0.0108 -0.0108 0.9999 3672.4219 -31.4324)">
				<stop  offset="0.1224" style="stop-color:#FEB9B8"/>
				<stop  offset="1" style="stop-color:#FFDEDE"/>
			</linearGradient>
			<path fill="url(#SVGID_5_)" d="M55.715,152.149c0,0-0.492-0.7-1.051-0.257s0.507,2.417,0.806,2.469
				c0.298,0.052,0.464-0.3,0.451-0.491S55.521,152.508,55.715,152.149z"/>
			
				<linearGradient id="SVGID_6_" gradientUnits="userSpaceOnUse" x1="3614.5386" y1="223.4424" x2="3615.6841" y2="223.4424" gradientTransform="matrix(-0.9999 -0.0108 -0.0108 0.9999 3672.4219 -31.4324)">
				<stop  offset="0.1224" style="stop-color:#FCA4B5"/>
				<stop  offset="0.9896" style="stop-color:#FFADB7"/>
			</linearGradient>
			<path fill="url(#SVGID_6_)" d="M55.567,152.145c0,0-0.584-0.375-0.823-0.077c-0.239,0.299,0.435,1.585,0.623,1.807
				c0.188,0.222,0.457-0.239,0.457-0.239S55.488,152.434,55.567,152.145z"/>
			<path fill="#FEC7C7" d="M61.483,155.178c0,0-0.913,0.309-1.43,0.29C59.535,155.449,61.871,154.727,61.483,155.178z"/>
			
				<ellipse transform="matrix(-0.9801 0.1984 -0.1984 -0.9801 148.1597 290.0875)" fill="#FFFFFF" cx="59.549" cy="152.465" rx="0.332" ry="0.215"/>
			
				<ellipse transform="matrix(-0.9016 0.4326 -0.4326 -0.9016 182.7122 262.3484)" fill="#FFFFFF" cx="61.513" cy="151.958" rx="0.215" ry="0.193"/>
			<path fill="#E6F1FF" d="M53.661,152.881c0,0,0.751-0.933,1.006-0.985s1.136,0.272,1.136,0.272l0.073-0.102l0.856-1.114
				c0,0,0.006,0.001,0.017,0.001c0.16,0.004,1.497-0.042,2.299-0.104c0.854-0.067,2.245-0.437,2.66-0.627
				c0.37-0.168-0.055-1.246-0.188-1.587c-0.015-0.042-0.033-0.072-0.033-0.089c0.003-1.083-1.8-2.371-2.609-2.537
				c-0.743-0.152-3.324-0.762-5.281,1.655c-0.377,0.466-0.606,0.944-0.73,1.416c-0.063,0.236-0.1,0.471-0.113,0.701
				C52.64,151.466,53.661,152.881,53.661,152.881z"/>
			<path fill="#E6F1FF" d="M55.803,152.168c0,0,0.122,2.568,0.033,4.244c-0.089,1.675,0.084,3.362-0.026,3.656
				c-0.231,0.619-4.198-1.17-4.823-0.611c-0.625,0.559-0.625,0.559-0.625,0.559s1.267-1.792,1.622-3.359s0.865-4.196,0.762-6.594
				C54.725,149.729,55.803,152.168,55.803,152.168z"/>
			<path fill="#DDE8F6" d="M61.473,148.378c0,0-0.129,0.243-0.407,0.339s-1.085,0.282-1.473,0.177
				c-0.805,0.256-1.48,0.376-2.325,0.383s-1.51-0.163-1.663-0.284c-0.407,0.051-1.093-0.012-1.596-0.188
				c-0.35-0.146-0.476-0.374-0.476-0.374s-0.33,0.104-0.42-0.016c-0.051,0.109-0.051,0.109-0.051,0.109l0.076,0.449l-0.369,0.625
				l-0.021,0.273c0,0,0.413,0.392,1.516,0.655c1.104,0.264,3.184,0.322,4.905,0.141c1.182-0.125,2.273-0.428,2.664-0.755
				c0.025-0.184-0.054-0.445-0.054-0.445L61.473,148.378z"/>
			<path fill="#656565" d="M52.601,149.621c0.128,0.159,0.877,0.469,1.002,0.516c0.916,0.341,2.439,0.649,5.301,0.425
				c0.888-0.069,2.578-0.576,3.009-0.773c0.384-0.175,0.103-0.887-0.035-1.241c-0.004,0.003-0.157-0.115-0.16-0.11
				c-0.043,0.05-0.167,0.047-0.23,0.109c-0.499,0.486-2.585,0.728-4.105,0.769c-1.683,0.047-3.738-0.548-3.738-0.548
				s-0.557-0.244-0.765-0.308c-0.142,0.062-0.332,0.155-0.347,0.299C52.519,148.901,52.437,149.418,52.601,149.621z"/>
		</g>
		<path fill="#E6F1FF" d="M52.148,174.915l0.483,11.187c0,0-0.902,0.574-1.977,0.557c-1.075-0.018-1.075-0.018-1.075-0.018
			s-1.834-8.231-1.462-11.759C49.686,174.792,52.148,174.915,52.148,174.915z"/>
	</g>
	<path fill="#F0F5FB" d="M53.17,151.539c0,0,0.213,4.895-1.909,7.37c1.142-0.641,1.789-0.386,1.789-0.386
		S53.663,154.476,53.17,151.539z"/>
</g>
</svg>
