<?xml version="1.0" encoding="utf-8"?>
<!-- Generator: Adobe Illustrator 16.0.0, SVG Export Plug-In . SVG Version: 6.00 Build 0)  -->
<!DOCTYPE svg PUBLIC "-//W3C//DTD SVG 1.1//EN" "http://www.w3.org/Graphics/SVG/1.1/DTD/svg11.dtd">
<svg version="1.1" id="Layer_1" xmlns="http://www.w3.org/2000/svg" xmlns:xlink="http://www.w3.org/1999/xlink" x="0px" y="0px"
	 width="463.683px" height="425.749px" viewBox="0 0 463.683 425.749" enable-background="new 0 0 463.683 425.749"
	 xml:space="preserve">
<g>
	<path fill="#D7E4F2" d="M168.344,238.076c4.231,2.692,11.288,2.984,15.763,0.651c4.475-2.332,4.673-6.405,0.442-9.098
		c-4.231-2.692-11.288-2.984-15.763-0.651C164.311,231.311,164.113,235.384,168.344,238.076z"/>
	<g>
		<path fill="#6C6B79" d="M169.224,232.944c0,0-0.209,0.112-0.217,0.27c-0.007,0.157-0.004,0.591-0.001,0.692
			s0.279,0.492,0.939,0.631c0.66,0.139,2.247-0.318,2.778-0.643c0.531-0.326,1.248-1.141,1.47-1.206s0.89,0.043,0.89,0.043
			l0.6-0.063l0.982-0.371c0,0,0.115-0.666-0.161-0.869C176.228,231.224,169.224,232.944,169.224,232.944z"/>
		<path fill="#504F60" d="M172.887,230.172c0,0-0.771,0.512-0.907,0.654s-1.536,0.746-2.019,1.056
			c-0.483,0.309-0.841,0.827-0.87,0.995c-0.029,0.168-0.095,0.552-0.035,0.711s0.325,0.579,1.171,0.613
			c0.846,0.035,2.55-0.805,2.55-0.805s1.174-0.839,1.348-0.925c0.174-0.087,1.721-0.514,1.956-0.597
			c0.235-0.084,0.37-0.12,0.401-0.312c0.031-0.19,0.208-1.233,0.076-1.559C176.425,229.68,173.56,229.316,172.887,230.172z"/>
	</g>
	<g>
		<path fill="#6C6B79" d="M175.146,235.648c0,0-0.231,0.009-0.28,0.317c-0.049,0.31-0.033,0.676-0.033,0.676
			s0.298,0.435,1.268,0.536c0.97,0.102,2.146-0.281,2.746-0.639c0.6-0.356,0.812-0.641,1.167-1.156s0.728-0.767,0.728-0.767
			l0.155,0.038c0,0,0.854-0.649,0.993-0.871c0.069-0.185,0.104-1.119-0.031-1.201C181.723,232.5,175.146,235.648,175.146,235.648z"
			/>
		<path fill="#504F60" d="M177.725,232.107l-0.255,0.648c0,0-1.549,1.569-1.968,2.036c-0.419,0.467-0.632,0.873-0.642,1.289
			s1.075,0.662,1.237,0.669c0.162,0.009,0.881,0.064,1.792-0.298c0.911-0.361,1.283-0.699,2.004-1.517
			c0.72-0.818,1.209-1.271,1.432-1.458c0.223-0.188,0.545-0.487,0.537-0.726c-0.009-0.236,0.014-0.903-0.182-0.981
			C181.483,231.691,178.332,231.504,177.725,232.107z"/>
	</g>
	<g>
		<path fill="#FEBFBF" d="M171.33,204.496l-0.026,0.532c0,0-0.032,0.068-0.092,0.117c-0.036,0.029-0.084,0.052-0.14,0.045
			c-0.025-0.004-0.051-0.007-0.078-0.01c-0.134-0.021-0.281-0.057-0.281-0.057s-0.007,0.002-0.018,0.008
			c-0.051,0.023-0.196,0.087-0.259,0.059c-0.075-0.032-1.063-1.064-1.063-1.064s-0.378-1.535-0.36-1.791s0.462-2.572,0.551-3.452
			c0.088-0.878,0.457-5.595,0.511-6.385c0.053-0.788,0.46-2.066,0.572-2.911c0.11-0.843,0.371-4.373,0.371-4.373l1.619,0.11
			l-0.939,11.672L171.33,204.496z"/>
		
			<linearGradient id="SVGID_1_" gradientUnits="userSpaceOnUse" x1="1976.6968" y1="170.5801" x2="1978.4233" y2="170.5801" gradientTransform="matrix(0.9977 0.0675 -0.0675 0.9977 -1790.9294 -100.5544)">
			<stop  offset="0.1224" style="stop-color:#FCA4B5"/>
			<stop  offset="0.9896" style="stop-color:#FFADB7"/>
		</linearGradient>
		<path fill="url(#SVGID_1_)" d="M171.304,205.027c0,0-0.032,0.068-0.092,0.117c-0.001-0.108-0.001-0.204,0-0.231
			c0.004-0.07-0.245-0.288-0.365-0.409c-0.12-0.123-0.325-0.159-0.325-0.159s0.211,0.25,0.256,0.353
			c0.042,0.103,0.216,0.481,0.216,0.481c-0.134-0.021-0.281-0.057-0.281-0.057s-0.007,0.002-0.018,0.008
			c0.02-0.164-0.04-0.349-0.04-0.349s-0.646-0.756-0.772-0.929c0.022-0.199-0.164-0.954-0.159-1.069
			c0.002-0.114,0.202-0.936,0.202-0.936l0.708,0.091l0.313-0.829l0.011,1.636c0,0,0.197,1.29,0.297,1.513
			c0.024,0.055,0.049,0.139,0.073,0.236L171.304,205.027z"/>
		<path fill="#6F7ABD" d="M174.581,180.716c0,0-2.737-0.135-3.285,1.473c-0.548,1.608-0.679,3.095-0.679,3.095
			s0.796,0.689,1.015,0.714S174.581,180.716,174.581,180.716z"/>
		
			<linearGradient id="SVGID_2_" gradientUnits="userSpaceOnUse" x1="1977.0552" y1="167.9702" x2="1977.4623" y2="171.128" gradientTransform="matrix(0.9977 0.0675 -0.0675 0.9977 -1790.9294 -100.5544)">
			<stop  offset="0.1224" style="stop-color:#FEB9B8"/>
			<stop  offset="1" style="stop-color:#FFDEDE"/>
		</linearGradient>
		<path fill="url(#SVGID_2_)" d="M170.641,202.728c0,0,0.019-0.673,0.101-0.813c0.083-0.14,0.024-1.273-0.097-1.488
			c-0.121-0.215-0.821-0.006-0.816,0.88c0.004,0.886,0.1,1.792,0.1,1.792s0.221,0.629,0.219,0.74s0.11,0.35,0.357,0.281
			c0.248-0.069,0.232-0.531,0.223-0.646C170.718,203.359,170.641,202.728,170.641,202.728z"/>
	</g>
	<g>
		<path fill="#4F5997" d="M176.55,229.758c0,0-0.203,0.398-0.692,0.625c-0.499,0.234-1.292,0.288-2.469-0.441
			c0,0-0.6-13.736-1.493-17.959l3.604,5.302l1.452,0.021l0.002,0.001c0,0,0.698,4.639,0.391,7.089
			C177.036,226.848,176.55,229.758,176.55,229.758z"/>
		<path fill="#4F5997" d="M177.015,217.144c-0.016,0.057-0.036,0.11-0.06,0.163l-0.002-0.001c-0.204,0.458-0.664,0.737-1.196,0.866
			c-1.052,0.258-2.388-0.071-2.633-0.773c-0.015-0.043-0.031-0.095-0.05-0.151c-0.447-1.378-1.459-7.192-2.112-11.517
			c-0.679-4.507,0.402-6.688,0.402-6.688l5.539,0.885c0,0,0.104,2.662,0.19,5.855C177.208,210.159,177.276,216.256,177.015,217.144z
			"/>
		<path fill="#A8B0C2" d="M176.55,229.758c0,0-0.203,0.398-0.692,0.625c0.32-2.428,0.836-6.576,0.716-7.425
			c-0.077-0.57-0.282-3.368-0.466-4.712c-1.253-9.13-1.188-11.973-1.188-11.973l-1.215-1.77l3.387,1.279
			c0.116,4.376,0.184,10.473-0.077,11.36c-0.016,0.057-0.036,0.11-0.06,0.163c0,0,0.698,4.639,0.391,7.089
			C177.036,226.848,176.55,229.758,176.55,229.758z"/>
		<path fill="#4F5997" d="M173.532,201.866l-0.752,0.92c0,0-0.043,1.117,2.462,2.92c0.071,2.616,1.057,8.011,2.073,12.933
			c0.435,2.108,3.335,0.375,3.711-1.949c0.375-2.325,2.112-9.625,2.236-11.414c0.125-1.79,0.227-3.61-1.033-4.636
			C180.969,199.613,173.532,201.866,173.532,201.866z"/>
		<g>
			<g>
				<path fill="#8C92B0" d="M180.438,205.161c-2.654-0.114-2.917-1.915-2.919-1.935l0.246-0.032c0.01,0.075,0.28,1.838,3.218,1.718
					l0.01,0.248C180.798,205.168,180.613,205.168,180.438,205.161z"/>
			</g>
			<path fill="#1B292C" d="M183.074,200.892c0,0-1.23,1.504-4.506,1.678c-3.276,0.175-4.518-0.152-5.611-0.757
				c-1.094-0.604-1.763-1.466-1.763-1.466l0.204-1.458c0,0,0.619,1.108,2.176,1.728s4.909,0.501,6.274,0.386
				c1.365-0.115,3.106-1.222,3.106-1.222L183.074,200.892z"/>
			<path fill="#4F5997" d="M176.951,201.175c0,0-0.09,0.42-0.104,0.907s0,1.378,0,1.378l-0.496-0.031c0,0-0.087-0.851-0.068-1.285
				c0.02-0.434,0.134-1.044,0.134-1.044L176.951,201.175z"/>
			<path fill="#4F5997" d="M172.399,199.911c0,0-0.122,0.522-0.141,0.938c-0.019,0.416,0.047,1.114,0.047,1.114l-0.332-0.423
				c0,0-0.05-0.708-0.04-0.934s0.194-0.905,0.194-0.905L172.399,199.911z"/>
			<g>
				<path fill="#8C92B0" d="M170.792,202.434c-0.021-0.001-0.043-0.004-0.065-0.009l0.056-0.242
					c0.239,0.059,0.561-0.639,0.715-1.157l0.237,0.07C171.667,201.331,171.305,202.456,170.792,202.434z"/>
			</g>
			<g>
				<path fill="#CCDEFB" d="M174.536,202.722c-0.057,0-0.116-0.008-0.175-0.025l-0.924-0.254c-0.394-0.108-0.699-0.535-0.695-0.97
					l0.004-0.415c0.002-0.212,0.076-0.398,0.209-0.524c0.15-0.142,0.36-0.189,0.574-0.13l0.924,0.254
					c0.394,0.108,0.699,0.534,0.695,0.97l-0.004,0.416c-0.001,0.212-0.076,0.398-0.209,0.524
					C174.826,202.67,174.687,202.724,174.536,202.722z M173.361,200.854c-0.063,0-0.118,0.019-0.158,0.057
					c-0.042,0.039-0.063,0.094-0.063,0.164l-0.004,0.415c-0.002,0.204,0.175,0.433,0.379,0.489l0.924,0.254
					c0.099,0.027,0.19,0.011,0.248-0.044c0.042-0.039,0.063-0.094,0.063-0.163l0.003-0.416c0.002-0.205-0.175-0.433-0.379-0.489
					l-0.924-0.255C173.42,200.859,173.39,200.854,173.361,200.854z"/>
			</g>
		</g>
		<path fill="#4F5997" d="M178.208,231.697c0.428-1.631-0.176-10.503-0.893-13.059c3.372-2.06,3.8-2.454,3.8-2.454
			s1.313,5.601,1.366,7.896c0.031,1.313-1.265,7.829-1.265,7.829S179.916,233.344,178.208,231.697z"/>
		<g>
			<path fill="#8C92B0" d="M180.811,232.717l-0.242-0.055c0.013-0.057,1.288-5.698,1.244-8.292
				c-0.035-2.019-0.557-4.621-0.902-6.345c-0.162-0.806-0.29-1.442-0.327-1.803c-0.038-0.362,0.156-1.398,0.425-2.834
				c0.611-3.266,1.536-8.201,0.644-10.034l0.223-0.109c0.927,1.906-0.006,6.891-0.624,10.188c-0.255,1.362-0.456,2.438-0.422,2.763
				c0.037,0.35,0.163,0.981,0.324,1.781c0.347,1.731,0.872,4.348,0.908,6.389C182.106,226.99,180.824,232.66,180.811,232.717z"/>
		</g>
	</g>
	<g>
		<path fill="#5F6BB5" d="M183.186,187.763c-0.194,0.674-0.381,1.247-0.502,1.538c-0.424,1.023-0.926,3.925-0.923,5.715
			c0.009,1.52,0.349,1.894,0.555,3.201c0.031,0.229,0.238,1.389,0.262,1.684c-0.119,1.03-1.068,0.322-2.331,0.643
			c-0.211,0.056-0.435,0.104-0.676,0.142c-0.82,0.138-2.123,0.201-3.21,0.219c-4.48-0.254-4.927-2.137-4.927-2.137
			s-0.01-3.664-0.114-4.963c-0.104-1.299-0.653-1.996-0.641-2.825c0.018-0.828,0.392-3.354,1.003-5.527
			c0.606-2.166,1.049-4.037,1.675-4.347c0.571-0.276,1.206-0.262,2.158-0.373c0.945-0.106,3.044,0.3,3.044,0.3
			s1.165,0.301,1.623,0.468c0.459,0.167,3.065,1.52,3.597,1.952C184.163,183.76,183.655,186.085,183.186,187.763z"/>
	</g>
	<g>
		<path fill="#1B292C" d="M172.086,200.792c0,0-0.5,0.1-0.603,0.06c-0.1-0.043-0.29-0.355-0.309-0.522
			c-0.022-0.164,0.059-1.698,0.089-1.781c0.027-0.086,0.425-0.026,0.496-0.055c0.065-0.029,0.306,0.371,0.361,0.456l0.005,0.011
			C172.166,199.079,172.086,200.792,172.086,200.792z"/>
		<path fill="#263336" d="M172.126,198.96c0,0-0.465,0.037-0.504,0.043c-0.042,0.007-0.402,0.696-0.402,0.696l0.045-1.152
			c0.027-0.086,0.425-0.026,0.496-0.055c0.065-0.029,0.306,0.371,0.361,0.456L172.126,198.96z"/>
		<path fill="#CCDEFB" d="M171.312,199.29c0.002,0.067-0.01,0.124-0.027,0.126c-0.017,0.003-0.032-0.048-0.034-0.115
			c-0.002-0.067,0.01-0.123,0.027-0.126C171.295,199.172,171.31,199.224,171.312,199.29z"/>
	</g>
	<path fill="#A8B0C2" d="M182.684,189.301c-0.424,1.023-0.926,3.925-0.923,5.715c0.009,1.52,0.349,1.894,0.555,3.201l-2.077,2.717
		l-0.346,0.449l-0.33-0.308l0.805-1.934c0,0,0.446-0.651,0.634-1.248c0.188-0.596-0.979-4.651-0.919-5.202
		c0.06-0.545,0.467-0.765,0.942-2.178c0.481-1.418,0.283-3.621,0.283-3.621c0.475-0.56,1.282,0.166,1.878,0.87
		C182.992,188.437,182.805,189.009,182.684,189.301z"/>
	
		<linearGradient id="SVGID_3_" gradientUnits="userSpaceOnUse" x1="2011.0874" y1="180.769" x2="2008.3182" y2="178.1172" gradientTransform="matrix(0.9969 0.0788 -0.0788 0.9969 -1811.2739 -157.5149)">
		<stop  offset="0.1224" style="stop-color:#FEC7C7"/>
		<stop  offset="0.9694" style="stop-color:#FFADB7"/>
	</linearGradient>
	<path fill="url(#SVGID_3_)" d="M174.904,178.673c0,0,0.545,1.811,0.354,2.335c-0.19,0.525-1.075,1.694-0.726,2.365
		c0.349,0.67,1.733,1.308,2.952,0.555s1.551-1.281,1.871-1.557c0.32-0.275,0.722-0.714,0.522-0.948
		c-0.2-0.233-0.383-1.147-0.39-1.94s0.026-1.639,0.25-2.724c0.224-1.084,0.307-2.432,0.307-2.432l-2.919,1.641L174.904,178.673z"/>
	
		<linearGradient id="SVGID_4_" gradientUnits="userSpaceOnUse" x1="2006.9526" y1="178.9282" x2="2008.7908" y2="180.8135" gradientTransform="matrix(0.9969 0.0788 -0.0788 0.9969 -1811.2739 -157.5149)">
		<stop  offset="0.1224" style="stop-color:#FCA4B5"/>
		<stop  offset="0.9896" style="stop-color:#FFADB7"/>
	</linearGradient>
	<path fill="url(#SVGID_4_)" d="M175.199,179.867c0,0,0.1,0.867,0.08,1.064c-0.019,0.197-0.57,0.94-0.533,1.092
		c0.038,0.152,0.801,1.154,1.24,0.993c0.439-0.161,0.801-2.319,1.707-2.97c0.319-0.23,0.753-1.153,0.753-1.153L175.199,179.867z"/>
	<g>
		<path fill="#FEBFBF" d="M187.367,189.753c0,0-1.861-3.59-2.85-4.389c-1.928-0.248-2.258,1.877-2.189,2.622
			c0.069,0.746,0.652,1.625,1.99,3.012c1.337,1.387,2.116,2.98,2.796,3.625s2.688,1.448,3.051,0.418
			C190.139,193.678,188.522,191.138,187.367,189.753z"/>
		<g>
			<path fill="#1B292C" d="M183.332,201.088c0.009,0.378-0.162,0.68-0.354,0.898c-0.058,0.063-0.127,0.13-0.201,0.203
				c-0.17,0.15-0.319,0.225-0.319,0.225l-0.003,0.047l-0.136,3.367c0,0-0.894,0.675-2.116,0.406
				c-0.467-0.723-1.147-5.201-1.035-5.381c0.111-0.18,2.466-0.925,2.466-0.925l0.86-0.335c0,0,0.375,0.097,0.583,0.169
				C183.29,199.838,183.323,200.224,183.332,201.088z"/>
			<path fill="#263336" d="M183.332,201.088c0.009,0.378-0.162,0.68-0.354,0.898c-0.058,0.063-0.127,0.13-0.201,0.203
				c-0.1,0.089-0.204,0.185-0.322,0.272c-0.305,0.24-0.667,0.456-1.041,0.551c-1.032,0.257-1.661-1.213-1.715-1.495
				s-0.531-0.664-0.531-0.664c0.111-0.18,2.466-0.925,2.466-0.925l0.86-0.335c0,0,0.375,0.097,0.583,0.169
				C183.29,199.838,183.323,200.224,183.332,201.088z"/>
			
				<ellipse transform="matrix(0.9822 0.1879 -0.1879 0.9822 41.2835 -30.4553)" fill="#CCDEFB" cx="181.244" cy="202.476" rx="0.27" ry="0.33"/>
		</g>
		<path fill="#FEBFBF" d="M189.99,195.516c-0.119,0.108-0.285,0.226-0.504,0.357c-0.526,0.322-1.189,0.887-2.354,1.361
			c-1.632,0.664-4.703,1.682-4.74,1.738c-0.043,0.061-0.208,0.933-0.288,1.555c-0.039,0.306-0.158,0.773-0.274,1.178
			c-0.119,0.418-0.231,0.767-0.24,0.805c-0.016,0.071-0.788,0.753-0.788,0.753l-0.186,0.023c0,0-0.533,0.241-0.624,0.245
			c-0.087,0.011-0.221-0.174-0.221-0.174s-0.217-0.144-0.202-0.215c0.016-0.072,0.575-0.851,0.575-0.851l0.116-1.053l-0.19-1.337
			c0,0-0.671,0.834-0.894,1.004c-0.223,0.17-0.575,0.45-0.73,0.116c-0.011-0.242,0.922-1.397,0.922-1.397s0.485-0.916,0.635-1.231
			c0.155-0.315,1.265-0.876,1.74-1.08c0.476-0.204,3.149-1.593,4.256-2.475s1.483-0.847,1.483-0.847l2.566,0.353
			C190.049,194.344,190.401,195.153,189.99,195.516z"/>
		
			<linearGradient id="SVGID_5_" gradientUnits="userSpaceOnUse" x1="2444.6812" y1="232.4355" x2="2444.1733" y2="234.3144" gradientTransform="matrix(0.9759 0.2184 -0.2184 0.9759 -2153.6746 -559.8042)">
			<stop  offset="0.1224" style="stop-color:#FCA4B5"/>
			<stop  offset="0.9896" style="stop-color:#FFADB7"/>
		</linearGradient>
		<path fill="url(#SVGID_5_)" d="M180.977,201.252l-0.212,1.098c0,0-0.577,0.68-0.716,0.79c-0.139,0.11-0.277,0.215-0.277,0.215
			s0.261-0.05,0.39-0.176c0.129-0.126,0.591-0.623,0.662-0.729c0.071-0.105,0.204-0.911,0.204-0.911L180.977,201.252z"/>
		
			<linearGradient id="SVGID_6_" gradientUnits="userSpaceOnUse" x1="2445.2104" y1="232.5791" x2="2444.7026" y2="234.4582" gradientTransform="matrix(0.9759 0.2184 -0.2184 0.9759 -2153.6746 -559.8042)">
			<stop  offset="0.1224" style="stop-color:#FCA4B5"/>
			<stop  offset="0.9896" style="stop-color:#FFADB7"/>
		</linearGradient>
		<path fill="url(#SVGID_6_)" d="M181.488,201.285c0,0-0.274,1.286-0.297,1.329c-0.023,0.042-0.419,0.546-0.419,0.546
			s0.488-0.403,0.547-0.484C181.377,202.595,181.488,201.285,181.488,201.285z"/>
		
			<linearGradient id="SVGID_7_" gradientUnits="userSpaceOnUse" x1="2444.7085" y1="229.1084" x2="2451.7944" y2="229.1084" gradientTransform="matrix(0.9759 0.2184 -0.2184 0.9759 -2153.6746 -559.8042)">
			<stop  offset="0.1224" style="stop-color:#FCA4B5"/>
			<stop  offset="0.9896" style="stop-color:#FFADB7"/>
		</linearGradient>
		<path fill="url(#SVGID_7_)" d="M189.857,195.396l-0.372,0.476c-0.526,0.322-1.189,0.887-2.354,1.361
			c-1.632,0.664-4.703,1.682-4.74,1.738c-0.043,0.061-0.208,0.933-0.288,1.555c-0.039,0.306-0.158,0.773-0.274,1.178
			c0,0,0.184-1.403,0.182-1.748c-0.003-0.346-0.131-0.954-0.131-0.954l-0.03-0.266c0,0,1.488-0.556,2.322-0.754
			c0.832-0.193,4.303-1.9,4.303-1.9L189.857,195.396z"/>
		<path fill="#6F7ABD" d="M186.689,187.594c0,0-0.336,0.796-1.273,1.206c-0.938,0.409-2.502,0.954-2.502,0.954l-1.453-2.093
			c0,0-0.574-1.603,0.401-3.082s1.917-1.126,1.917-1.126s1.23,1.254,1.784,2.107C186.116,186.411,186.689,187.594,186.689,187.594z"
			/>
	</g>
	<path fill="#FEC7C7" d="M175.042,171.831c0,0-1.11,0.246-1.482,1.33c-0.373,1.084-0.524,1.405-0.503,1.716
		c0.021,0.312-0.182,2.178-0.182,2.178s0.268,2.983,0.915,3.355c0.648,0.373,3.952-0.618,4.525-1.341
		c0.573-0.723,0.868-1.688,0.868-1.688s1.322-1.342,0.941-3.048c-0.382-1.706-1.817-2.577-2.395-2.668
		S175.042,171.831,175.042,171.831z"/>
	<g>
		
			<linearGradient id="SVGID_8_" gradientUnits="userSpaceOnUse" x1="2005.1099" y1="176.9912" x2="2004.1486" y2="177.1764" gradientTransform="matrix(0.9969 0.0788 -0.0788 0.9969 -1811.2739 -157.5149)">
			<stop  offset="0.1224" style="stop-color:#FEC7C7"/>
			<stop  offset="0.9896" style="stop-color:#FFDBDB"/>
		</linearGradient>
		<path fill="url(#SVGID_8_)" d="M173.661,175.803c-0.09,0.412-0.758,1.362-0.892,1.703c-0.134,0.342,0.779,0.505,1.106,0.531
			L173.661,175.803z"/>
		
			<linearGradient id="SVGID_9_" gradientUnits="userSpaceOnUse" x1="2004.2036" y1="176.9917" x2="2005.3989" y2="176.9917" gradientTransform="matrix(0.9969 0.0788 -0.0788 0.9969 -1811.2739 -157.5149)">
			<stop  offset="0.188" style="stop-color:#FFDCDC"/>
			<stop  offset="0.8991" style="stop-color:#FEC7C7"/>
		</linearGradient>
		<path fill="url(#SVGID_9_)" d="M173.872,178.079c-0.24-0.019-0.961-0.131-1.124-0.391c-0.04-0.063-0.045-0.13-0.019-0.198
			c0.055-0.14,0.191-0.369,0.348-0.633c0.229-0.385,0.489-0.823,0.542-1.063l0.083,0.019c-0.056,0.253-0.319,0.696-0.551,1.088
			c-0.149,0.25-0.29,0.488-0.343,0.621c-0.017,0.042-0.013,0.083,0.012,0.122c0.132,0.211,0.782,0.329,1.059,0.351L173.872,178.079z
			"/>
	</g>
	<circle fill="#FFFFFF" cx="175.03" cy="176.323" r="0.265"/>
	<path fill="#FFFFFF" d="M173.525,175.901c-0.051,0.124-0.167,0.162-0.26,0.084s-0.127-0.241-0.076-0.365s0.167-0.162,0.26-0.084
		S173.576,175.777,173.525,175.901z"/>
	<polygon fill="#754554" points="174.252,175.431 174.264,175.711 175.323,175.721 176.483,175.864 175.41,175.399 	"/>
	<polygon fill="#754554" points="173.512,175.26 173.498,175.431 172.913,174.853 173.015,174.631 173.522,175.131 	"/>
	<path fill="#FB7F9E" d="M173.307,179.025c0,0-0.02,0.193,0.211,0.334c0.229,0.141,0.813-0.027,0.813-0.027
		s-0.531-0.252-0.631-0.295C173.6,178.995,173.307,179.025,173.307,179.025z"/>
	<path fill="#FB7F9E" d="M174.419,179.231c0,0-0.504-0.017-0.571-0.087s-0.52-0.206-0.52-0.206l-0.145-0.149
		c0,0,0.305-0.038,0.335-0.035c0.031,0.003,0.39,0.157,0.39,0.157L174.419,179.231z"/>
	<path fill="#754554" d="M177.611,173.756c0,0-0.13,0.771,0.008,1.355c0.137,0.585,0.455,1.505,0.578,1.687
		c0.123,0.182,0.248,1.328,0.248,1.328s0.203-1.511,0.287-1.71c0.085-0.2,0.85-0.289,0.85-0.289l-0.074,2.394
		c0,0,1.005-1.252,1.557-1.852c0.553-0.599,0.946-2.516,0.651-3.871c-0.295-1.355-1.09-1.616-1.864-1.987
		c-0.774-0.371-1.76-0.392-2.765-0.31c-1.005,0.081-2.122,0.705-2.63,1.181c-0.509,0.477-0.611,0.939-0.611,0.939
		s0.036,0.232,1.479,0.289C176.766,172.966,177.475,173.148,177.611,173.756z"/>
	
		<linearGradient id="SVGID_10_" gradientUnits="userSpaceOnUse" x1="2010.1694" y1="176.7705" x2="2011.7915" y2="176.7705" gradientTransform="matrix(0.9969 0.0788 -0.0788 0.9969 -1811.2739 -157.5149)">
		<stop  offset="0.1224" style="stop-color:#FEB9B8"/>
		<stop  offset="1" style="stop-color:#FFDEDE"/>
	</linearGradient>
	<path fill="url(#SVGID_10_)" d="M178.916,176.507c0,0,0.527-0.662,1.159-0.337s0.15,1.206-0.038,1.451
		c-0.188,0.245-0.712,0.487-0.841,0.576c-0.129,0.089-0.484,0.03-0.524-0.148c-0.04-0.179,0.132-0.602,0.132-0.602
		S178.982,176.706,178.916,176.507z"/>
	
		<linearGradient id="SVGID_11_" gradientUnits="userSpaceOnUse" x1="2010.4927" y1="176.626" x2="2011.5327" y2="176.626" gradientTransform="matrix(0.9969 0.0788 -0.0788 0.9969 -1811.2739 -157.5149)">
		<stop  offset="0.1224" style="stop-color:#FCA4B5"/>
		<stop  offset="0.9896" style="stop-color:#FFADB7"/>
	</linearGradient>
	<path fill="url(#SVGID_11_)" d="M179.18,176.849c0,0-0.01-0.261,0.22-0.357c0.229-0.097,0.684-0.329,0.729,0.172
		c0.044,0.501-0.615,0.877-0.615,0.877s-0.476,0.139-0.499,0.145s0.169-0.3,0.14-0.417
		C179.125,177.151,179.18,176.849,179.18,176.849z"/>
	<path fill="#1B292C" d="M180.746,182.127c0,0-0.389,0.766-0.402,0.925c0,0,0.971,0.361,1.516,0.934
		c0.894-0.802,1.919-0.535,1.919-0.535s-1.104-0.78-2.056-1.393C181.046,182.095,180.746,182.127,180.746,182.127z"/>
	<path fill="#CCDEFB" d="M184.71,184.666c-0.111-0.104-0.884,0.082-0.884,0.082s-0.444,0.702-0.367,0.847
		c0.076,0.144,1.125,1.511,1.947,1.184C185.803,186.015,184.82,184.769,184.71,184.666z"/>
	<g>
		<path fill="#6B6A78" d="M173.377,172.728c0,0-0.99,0.598-0.676,1.28c0.313,0.683,2.789,1.679,4.306,1.246
			c0.674-0.192,1.716-0.833,1.716-0.833S174.779,174.278,173.377,172.728z"/>
		<path fill="#1B292C" d="M173.341,172.854l0.156-2.023c0,0-0.26,0.688,1.082,1.389c1.781,0.93,5.45,1.31,7.524,0.426
			c0.084,0.208-0.214,1.024-0.214,1.024s-2.025,0.964-4.196,0.822C175.521,174.351,173.562,173.516,173.341,172.854z"/>
		<path fill="#4F5997" d="M173.424,171.942c0,0-1.302-1.932-1.283-2.171c0.02-0.239,1.29-0.481,3.207-0.246
			c1.917,0.236,5.607,2.99,7.948,2.788c-0.175,0.278-0.936,0.734-1.2,0.835C181.281,173.457,175.085,174.067,173.424,171.942z"/>
		<path fill="#7A84C2" d="M172.141,169.771c0,0,0.278-0.228,1.378,0.086c3.426,0.98,5.375,3.613,9.776,2.456
			c0.243-0.178-0.19-1.285-2.038-2.381c-0.837-0.496-6.241-1.459-7.162-1.282C173.175,168.828,171.944,169.335,172.141,169.771z"/>
		<path fill="#CCDEFB" d="M174.51,171.365c0.206,0.453,0.175,0.851-0.068,0.887s-0.606-0.301-0.811-0.754
			c-0.206-0.453-0.175-0.85,0.067-0.887C173.942,170.575,174.305,170.913,174.51,171.365z"/>
		<path fill="#8C8B96" d="M174.602,173.886c0,0-0.45,0.271-0.753,0.866c0.813,0.413,1.726,0.5,1.726,0.5s-0.003-0.605,0.522-0.911
			C175.476,174.248,174.602,173.886,174.602,173.886z"/>
		<g>
			<path fill="#B4B3BA" d="M177.439,174.543c-0.977-0.042-2.028-0.232-2.877-0.552c-0.673-0.253-1.101-0.574-1.271-0.953
				c-0.135-0.299-0.052-0.523-0.048-0.533l0.21,0.08l-0.105-0.04l0.105,0.038c-0.009,0.027-0.216,0.668,1.188,1.196
				c1.525,0.575,3.713,0.722,4.877,0.328l0.072,0.213C179.039,174.509,178.266,174.579,177.439,174.543z"/>
		</g>
		<circle fill="#B4B3BA" cx="179.381" cy="174.253" r="0.263"/>
	</g>
	<g>
		<path fill="#CCDEFB" d="M173.721,186.354c0.075-0.079-0.364-0.038-0.654-0.405c-0.12-0.152-0.132-0.142-0.333-0.077
			c-0.357,0.115-0.575-0.131-0.572-0.029c0.008,0.323-0.049,0.444-0.086,0.569c-0.363,1.223-0.075,1.129,0.503,1.808
			c0.838-0.247,0.994-0.03,1-1.226C173.58,186.855,173.598,186.482,173.721,186.354z"/>
		<path fill="#B5CFE2" d="M173.13,187.096c-0.002,0.308-0.171,0.529-0.378,0.494c-0.207-0.034-0.372-0.311-0.37-0.618
			c0.002-0.308,0.172-0.529,0.378-0.494C172.967,186.512,173.132,186.789,173.13,187.096z"/>
	</g>
	<g>
		<path fill="#6F7ABD" d="M176.359,187.733l-0.201,0.795l1.33,0.964l2.123-0.25l0.144-0.731
			C177.978,188.408,176.359,187.733,176.359,187.733z"/>
		<path fill="#CCDEFB" d="M176.528,187.1l-0.109,0.371c0,0,1.126,0.534,3.43,0.787l0.075-0.381
			C178.17,187.679,176.528,187.1,176.528,187.1z"/>
	</g>
	<polygon fill="#5F6BB5" points="176.371,183.529 176.12,183.4 175.131,183.302 174.741,182.155 174.187,182.998 174.367,184.523 
		176.549,185.106 	"/>
	<path fill="#7A84C2" d="M179.532,180.724l-0.083,0.734c0,0-0.796,1.936-3.33,1.942c-0.045,0.368,0.029,1.406,0.429,1.706
		c1.602-0.604,3.607-1.702,3.964-2.714c0.042-0.119-0.367-1.499-0.367-1.499l-0.568-0.455L179.532,180.724z"/>
	<path fill="#7A84C2" d="M175.204,181.268c0,0-0.019,0.795,0.047,1.023c0.065,0.228,0.261,0.854,0.869,1.109
		c-0.479,0.643-1.387,1.035-1.751,1.055c0.173-0.906,0.175-1.743,0.205-2.438S175.361,180.742,175.204,181.268z"/>
	<path fill="#1B292C" d="M175.325,180.7l0.11,0.287l-0.9,0.477l-1.721,0.102c0,0,0.412-0.569,0.732-0.713
		C173.868,180.707,175.325,180.7,175.325,180.7z"/>
	<ellipse fill="#CCDEFB" cx="181.051" cy="182.348" rx="0.178" ry="0.108"/>
	
		<ellipse transform="matrix(0.9748 -0.2231 0.2231 0.9748 -35.9757 43.6025)" fill="#CCDEFB" cx="174.95" cy="180.991" rx="0.125" ry="0.054"/>
</g>
</svg>
