<?xml version="1.0" encoding="utf-8"?>
<!-- Generator: Adobe Illustrator 16.0.0, SVG Export Plug-In . SVG Version: 6.00 Build 0)  -->
<!DOCTYPE svg PUBLIC "-//W3C//DTD SVG 1.1//EN" "http://www.w3.org/Graphics/SVG/1.1/DTD/svg11.dtd">
<svg version="1.1" id="Layer_1" xmlns="http://www.w3.org/2000/svg" xmlns:xlink="http://www.w3.org/1999/xlink" x="0px" y="0px"
	 width="463.683px" height="425.749px" viewBox="0 0 463.683 425.749" enable-background="new 0 0 463.683 425.749"
	 xml:space="preserve">
<g>
	<path fill="#D7E4F2" d="M436.414,264.067c-4.733-2.732-12.432-2.719-17.193,0.031c-1.688,0.975-2.769,2.163-3.266,3.411
		l-8.029,4.637l10.24,5.912l4.544-2.624c4.478,1.174,9.948,0.697,13.65-1.44C441.123,271.244,441.147,266.801,436.414,264.067z"/>
	<g>
		<g>
			<path fill="#FEBFBF" d="M429.787,211.223c0,0,0.343,3.523,0.701,7.007c0.319,3.063,0.648,6.099,0.768,6.675
				c0.257,1.23,3.143,7.635,3.39,8.371c0.044,0.134,0.079,0.328,0.104,0.559c0.061,0.558,0.063,1.321-0.016,1.929
				c-0.069,0.538-0.204,0.954-0.416,0.988c-0.547,0.093-0.519,0.275-0.513,0.351c0.007,0.078,0.642,0.086,0.642,0.086
				s-0.72,0.262-0.795,0.469c-0.076,0.207,0.327,0.236,0.327,0.236s-0.322,0.381-0.194,0.448c0.13,0.067,0.822,0.023,0.822,0.023
				s-0.2,0.202-0.236,0.33c-0.019,0.066,0.035,0.131,0.115,0.178c0.072,0.042,0.167,0.069,0.247,0.07
				c0.169,0.001,1.155-0.406,1.284-0.524c0.129-0.121,0.67-1.975,0.67-1.975s-0.065-1.154-0.326-2.06
				c-0.262-0.905-0.175-0.974-0.523-3.665c-0.348-2.691-1.599-8.028-1.911-8.435c-0.313-0.405-0.893-5.017-1.58-8.048
				C431.66,211.201,429.787,211.223,429.787,211.223z"/>
			<path fill="#FEC7C6" d="M435.109,236.422c0,0-0.178,0.556-0.164,0.91c0.015,0.354-0.031,0.906-0.281,0.974
				c-0.25,0.068-0.457-0.016-0.464-0.37c-0.007-0.355,0.043-0.971,0.083-1.229c0.04-0.259-0.144-1.186-0.102-1.599
				c0.041-0.413,0.258-1.243,0.768-1.34s0.684,0.414,0.71,0.821c0.026,0.408-0.265,1.367-0.332,1.481
				S435.109,236.422,435.109,236.422z"/>
			<path fill="#FA9698" d="M433.979,237.893c0,0-0.322,0.381-0.194,0.448c0.13,0.067,0.822,0.023,0.822,0.023s-0.2,0.202-0.236,0.33
				c-0.019,0.066,0.035,0.131,0.115,0.178c0.069-0.125,0.14-0.232,0.194-0.267c0.148-0.089,0.283-0.039,0.478-0.133
				c0.192-0.092,0.396-0.395,0.396-0.395l0.323-0.886c0,0-0.158-0.319-0.341-0.729c-0.181-0.409-0.184-0.819-0.184-0.819
				s-0.265,0.027-0.619,0.118c-0.069,0.538-0.204,0.954-0.416,0.988c-0.547,0.093-0.519,0.275-0.513,0.351
				c0.007,0.078,0.642,0.086,0.642,0.086s-0.72,0.262-0.795,0.469C433.576,237.863,433.979,237.893,433.979,237.893z"/>
			<path fill="#FA9698" d="M430.488,218.229c0.319,3.063,0.648,6.099,0.768,6.675c0.257,1.23,3.143,7.635,3.39,8.371
				c0.044,0.134,0.079,0.328,0.104,0.559c0.16-0.363,0.334-0.854,0.305-1.21c-0.054-0.646-2.263-5.7-2.694-7.263
				c-0.431-1.565-1.554-6.943-1.554-6.943S430.683,218.328,430.488,218.229z"/>
			<path fill="#FFDC6E" d="M429.11,210.515c0,0,1.749-0.228,2.772,1.536c1.023,1.763,1.856,7.833,1.856,7.833s-0.837,1.38-3.673,1.6
				S429.11,210.515,429.11,210.515z"/>
		</g>
		<g>
			<path fill="#5C6467" d="M431.003,264.427c0,0,2.132,1.285,2.525,1.471c0.393,0.186,2.135,1.324,2.415,1.742
				c0.28,0.419,0.213,0.748,0.14,0.985c-0.074,0.238-0.646,0.638-0.975,0.688c-0.328,0.049-2.065-0.14-2.993-0.639
				c-0.927-0.499-0.858-0.705-0.985-0.75c-0.127-0.044-0.938-0.243-0.938-0.243s-0.188,0.153-0.567,0.053
				c-0.379-0.103-1.525-0.429-1.618-0.731c-0.093-0.302-0.146-1.371,0.007-1.886C428.167,264.603,431.003,264.427,431.003,264.427z"
				/>
			<path fill="#FEBFBF" d="M431.369,264.77c0,0,1.366,0.812,1.193,1.266c-0.174,0.454-1.682,0.438-2.293,0.219
				c-0.744-0.266-1.051-0.505-1.158-0.982c-0.106-0.479,0.517-0.56,0.517-0.56L431.369,264.77z"/>
			<path fill="#7282B5" d="M432.82,243.061c-0.632,4.994-0.613,5.736-0.688,6.915c-0.064,1.188-0.715,14.694-0.705,14.87
				c0.019,0.167-0.882,0.826-1.838,0.891c-0.093,0.01-0.195,0.01-0.288,0c-1.049-0.083-1.392-0.213-1.447-0.649
				s-0.845-11.5-0.771-13.552c-0.548-2.385-0.437-9.689-0.371-12.623c0.019-0.771,0.037-1.244,0.037-1.244l6.265-3.035
				C433.014,234.633,433.451,238.077,432.82,243.061z"/>
			<path fill="#E8D0C8" d="M429.589,265.736c-0.093,0.01-0.195,0.01-0.288,0c-1.049-0.083-1.392-0.213-1.447-0.649
				s-0.845-11.5-0.771-13.552c-0.548-2.385-0.437-9.689-0.371-12.623c0.9-0.223,1.781,0.464,2.385,3.082
				c0,0-1.354,0.955-1.179,4.863c0.177,3.907,0.455,5.031,0.483,6.34c0.037,1.317,0.018,9.94,0.352,11.23
				C428.866,264.855,429.19,265.31,429.589,265.736z"/>
			<path fill="#5C6467" d="M425.469,267.992c0.008-0.001,0.082,0.094,0.198,0.247c0.335,0.441,1.017,1.366,1.443,1.878
				c0.575,0.691,1.559,2.413,1.626,2.874c0.066,0.461-0.049,0.634-0.162,0.774c-0.112,0.142-0.774,0.604-1.793,0.474
				c-1.02-0.132-1.874-0.739-2.454-1.445c-0.579-0.705-1.578-2.235-1.791-2.509c-0.214-0.272-0.952-0.837-1.072-1.1
				c-0.121-0.264-0.024-1.419,0.201-1.735c0.225-0.316,3.868,0.506,3.868,0.506L425.469,267.992z"/>
			<path fill="#FEBFBF" d="M425.101,267.498c0,0,0.995,1.301,0.922,1.705c-0.073,0.405-1.025,0.645-1.617,0.506
				c-0.592-0.14-2.074-1.179-1.955-1.619C422.569,267.648,425.101,267.498,425.101,267.498z"/>
			<path fill="#7282B5" d="M429.896,240.75c-0.325,1.179-2.423,2.683-2.423,2.683s-0.315,3.035-0.724,9.347
				c-0.148,2.376-0.437,8.428-1.086,15.464c-1.012,0.937-2.052,0.825-2.794,0.52c-0.204-0.084-0.391-0.177-0.539-0.27
				c-0.315-0.186-0.51-0.371-0.528-0.39c-0.074-0.064-0.613-5.736-0.594-9.449c0.009-1.781,0.417-5.939,0.436-6.766
				c0.492-2.711-2.023-6.461-1.596-13.904c0.027-0.576,0.751-0.929,1.791-1.143c2.868-0.575,8.158-0.074,8.158-0.074
				S430.22,239.562,429.896,240.75z"/>
			<g>
				<path fill="#A0ABCD" d="M422.562,268.645c-1.172-6.179-0.217-13.434,0.098-15.818c0.03-0.238,0.055-0.423,0.069-0.549
					c0.127-1.116-0.379-3.887-0.913-6.821c-0.107-0.587-0.217-1.185-0.324-1.785c-0.653-3.667-0.176-6.494-0.17-6.522l0.229,0.04
					c-0.005,0.028-0.476,2.817,0.17,6.441c0.107,0.601,0.216,1.198,0.323,1.784c0.562,3.08,1.048,5.739,0.916,6.89
					c-0.015,0.127-0.039,0.313-0.07,0.553c-0.313,2.375-1.264,9.603-0.099,15.745L422.562,268.645z"/>
			</g>
			<path fill="#E8D0C8" d="M422.052,262.813c0.111,1.912,0.167,4.065,0.278,5.681c-0.315-0.186-0.51-0.371-0.528-0.39
				c-0.074-0.064-0.613-5.736-0.594-9.449c0.009-1.781,0.417-5.939,0.436-6.766c0.492-2.711-2.023-6.461-1.596-13.904
				c0.027-0.576,0.751-0.929,1.791-1.143c0.194,0.576-0.808,0.984-0.613,1.681c0,0-0.231,4.993,0.177,6.905s1.226,5.718,0.872,7.342
				C421.922,254.395,421.783,258.125,422.052,262.813z"/>
			<path fill="#FDD249" d="M433.535,234.141c0,0-0.279,1.959-3.964,3.584c-2.821,1.243-5.522,1.262-7.147,1.03
				c-0.501-0.075-0.909-0.177-1.179-0.27c-1.216-0.437-1.336-0.575-1.373-1.151c-0.047-0.575,0.037-3.926-0.297-7.639
				c-0.344-3.713-1.959-8.372-1.959-8.372c0-0.037-0.186-0.725-0.353-1.532c-0.186-0.826-0.371-1.754-0.381-2.189
				c-0.009-0.854,0.241-1.764,1.875-3.185c1.643-1.42,3.082-2.599,3.824-3.118c0.742-0.511,4.78-1.151,6.052-0.984
				c3.072,0.381,3.351,3.406,3.546,4.354c0.194,0.938,0.659,4.854,0.604,6.701c-0.047,1.856-0.251,3.5-0.242,5.653
				C432.55,229.176,433.535,234.141,433.535,234.141z"/>
			<path fill="#DEDEDE" d="M424.578,235.33c-0.706,1.586-1.838,1.271-1.875,2.366c-0.01,0.278-0.121,0.659-0.279,1.059
				c-0.501-0.075-0.909-0.177-1.179-0.27c-1.216-0.437-1.336-0.575-1.373-1.151c-0.047-0.575,0.037-3.926-0.297-7.639
				c-0.344-3.713-1.959-8.372-1.959-8.372c0-0.037-0.186-0.725-0.353-1.532c1.16-0.594,2.58-0.844,4.316-0.594
				c0,0-0.957,2.637-0.919,3.063c0.046,0.427,0.046,0.427,0.046,0.427s3.75,1.931,4.057,2.395
				C425.079,225.547,425.283,233.742,424.578,235.33z"/>
		</g>
		<g>
			<g>
				<polygon fill="#C99A6B" points="416.75,239.146 424.578,234.627 424.578,225.645 416.75,230.164 				"/>
				<polygon fill="#87623F" points="424.578,225.645 416.75,230.164 420.974,227.904 				"/>
				<polygon fill="#AE835B" points="416.75,239.146 408.923,234.627 408.923,225.645 416.75,230.164 				"/>
				<polygon fill="#E8B687" points="416.75,230.164 408.923,225.645 416.75,221.126 424.578,225.645 				"/>
				<polygon fill="#D9AF84" points="420.278,231.676 421.536,230.949 421.536,227.401 420.278,228.128 				"/>
				<polygon fill="#EBCBAB" points="420.278,228.128 412.451,223.608 413.708,222.883 421.536,227.401 				"/>
				<polygon fill="#87623F" points="408.923,225.645 416.75,230.164 412.527,227.904 				"/>
				<polygon fill="#9C754E" points="413.355,231.752 412.098,231.026 412.098,227.478 413.355,228.204 				"/>
				<polygon fill="#54493E" points="413.355,228.204 421.183,223.685 419.925,222.959 412.098,227.478 				"/>
				<polygon fill="#D1A986" points="412.774,227.868 420.601,223.349 420.515,223.299 412.687,227.818 				"/>
				<polygon fill="#AE835B" points="413.355,228.204 413.355,228.351 412.589,227.94 412.098,227.632 412.098,227.478 				"/>
			</g>
			<polygon fill="#AE835B" points="420.974,227.904 420.278,228.277 420.278,228.128 421.536,227.401 421.536,227.553 			"/>
		</g>
		<g>
			<path fill="#FEBFBF" d="M417.92,215.595c0,0-9.286,9.286-9.346,9.963c-0.06,0.678,2.829,10.545,3.012,11.341
				c0.183,0.797,0.618,1.433,1.077,1.789c0.458,0.355,2.843,1.837,3.349,1.783c0.505-0.055,0.743-0.26,0.743-0.26
				s1.198-0.506,1.388-0.73c0.19-0.225,0.53-0.729,0.474-1.002c-0.059-0.272-1.826,0.768-1.964,0.779
				c-0.139,0.012-1.367-1.23-2.062-1.775c-0.695-0.545-0.862-0.334-1.049-1.454s-1.11-8.984-1.008-9.411
				c0.104-0.426,3.807-2.729,5.925-4.576c2.117-1.846,2.762-3.013,2.201-4.728C420.1,215.598,418.969,214.834,417.92,215.595z"/>
			<path fill="#FEC7C6" d="M413.995,237.277c0,0-0.353,0.365,0.232,0.978c0.584,0.611,1.168,0.655,1.692,0.693
				c0.524,0.037,0.963,0.208,0.963,0.208s0.576,0.565,0.939,0.548c0.362-0.019,0.4-0.393,0.286-0.649s-0.902-0.666-1.014-0.75
				c-0.111-0.083-1.184-0.852-1.399-0.938C415.479,237.28,414.339,236.959,413.995,237.277z"/>
			<path fill="#FFDC6E" d="M412.604,220.784c0,0,3.201,2.979,3.91,3.321s4.237-3.227,4.585-3.769
				c1.123-1.751,0.499-3.916-1.114-4.822c-1.655-0.929-2.451,0.081-2.943,0.479C416.549,216.39,412.604,220.784,412.604,220.784z"/>
		</g>
	</g>
	<g>
		<g>
			<path fill="#87623F" d="M416.221,232.4l-1.796-1.036v-2.062l1.796,1.037V232.4z M414.543,231.296l1.56,0.9v-1.789l-1.56-0.899
				V231.296z"/>
		</g>
		<g>
			<polygon fill="#87623F" points="415.522,231.74 415.125,231.512 415.125,230.474 415.522,230.703 			"/>
			<polygon fill="#87623F" points="415.911,231.125 414.736,230.446 415.324,230.077 			"/>
		</g>
	</g>
	<path fill="#FFADB7" d="M427.947,211.902c-0.01,0.909,0.194,1.234,0.019,1.513c-0.177,0.278-1.318,0.538-2.46,0.297
		c-0.232-0.056-0.529-0.148-0.845-0.306c-0.009,0-0.009-0.01-0.009-0.01c-0.65-0.307-1.053-0.746-1.471-1.48
		c-0.167-0.306-0.139-0.557-0.139-0.557s0.699-0.877,0.987-1.945c0.186-0.668,0.111-1.68,0.027-2.33
		c-0.046-0.38-0.093-0.64-0.093-0.64s-0.445-1.531,0.093-1.644c0.548-0.111,4.112,2.962,4.112,2.962s-0.084,1.233-0.148,2.385
		c-0.019,0.474-0.047,0.938-0.056,1.3C427.956,211.633,427.947,211.781,427.947,211.902z"/>
	
		<linearGradient id="SVGID_1_" gradientUnits="userSpaceOnUse" x1="844.7769" y1="210.3311" x2="847.3695" y2="213.6131" gradientTransform="matrix(1 0 0 1 -419.7622 0)">
		<stop  offset="0.1224" style="stop-color:#FCA4B5"/>
		<stop  offset="0.9896" style="stop-color:#FFADB7"/>
	</linearGradient>
	<path fill="url(#SVGID_1_)" d="M428.021,210.147c-0.019,0.474-0.047,0.938-0.056,1.3c-0.14,0.009-0.315-0.019-0.539-0.084
		c-1.179-0.353-2.218-0.798-2.617,0c-0.297,0.576-0.557,1.355-0.157,2.033c-0.65-0.307-1.053-0.746-1.471-1.48
		c-0.167-0.306-0.139-0.557-0.139-0.557s0.699-0.877,0.987-1.945c0.186-0.668,0.111-1.68,0.027-2.33
		C425.969,207.623,427.352,209.201,428.021,210.147z"/>
	<path fill="#FEBFBF" d="M424.458,205.969c0,0,0.126,2.825,0.402,3.423c0.277,0.598,2.271,2.136,4.194,1.868
		c0.516-0.273,1.31-1.697,1.4-2.954c0.091-1.258-0.012-1.721,0.017-1.831s0.414-0.878,0.354-1.231
		c-0.06-0.353-0.161-2.339-0.847-3.208s-2.58-1.404-4.28-0.718C424,202.003,424.458,205.969,424.458,205.969z"/>
	<path fill="#754554" d="M425.061,206.968c0,0,0.162-1.117-0.539-1.315c-0.701-0.197,0.093,2.416,0.093,2.416l-0.429,0.66
		l-0.024,0.282c0,0-0.868-1.476-1.106-1.915c-0.238-0.44-0.351-0.62-0.445-1.108c-0.094-0.488-0.471-2.58-0.372-3.312
		c0.1-0.731,1.354-1.834,2.313-1.914c0.438-0.59,1.339-0.882,2.204-0.888c0.866-0.006,1.511,0.061,2.549,0.87
		c1.039,0.809,1.076,1.447,1.156,1.645c0.08,0.197,0.086,1.008,0.086,1.008l-0.114-0.421c0,0-0.411,0.272-1.695,0.161
		c-1.284-0.111-1.992-0.625-1.992-0.625s0.235,0.909,0.187,1.246c-0.048,0.336-0.247,1.377-0.247,1.377s-0.66,0.393-0.88,0.547
		s-0.324,0.512-0.324,0.512l-0.083,0.893L425.061,206.968z"/>
	
		<linearGradient id="SVGID_2_" gradientUnits="userSpaceOnUse" x1="2292.269" y1="26.1543" x2="2293.6626" y2="26.1543" gradientTransform="matrix(-0.986 0.1666 0.1666 0.986 2680.8313 -201.0032)">
		<stop  offset="0.1224" style="stop-color:#FEB9B8"/>
		<stop  offset="1" style="stop-color:#FFDEDE"/>
	</linearGradient>
	<path fill="url(#SVGID_2_)" d="M424.936,206.232c0,0-0.38-1.002-1.146-0.614s0.333,2.387,0.83,2.414
		c0.496,0.027,0.404-0.484,0.404-0.484S424.489,206.707,424.936,206.232z"/>
	<path fill="#FECB4C" d="M430.731,203.158l-0.186,0.241c0,0-3.388,0.994-3.74,1.086c-0.158,0.038-0.437,0.158-0.845,0.288
		c-0.465,0.148-1.104,0.316-1.931,0.381c-1.551,0.13-1.551,0.13-1.551,0.13s-0.491-1.485-0.26-2.84
		c0.187-1.086,1.458-2.023,2.924-2.451c0.047-0.019,0.065-0.027,0.065-0.027c0.344-0.093,0.705-0.167,1.058-0.205
		c1.875-0.195,3.146,0.594,3.75,1.503C430.62,202.175,430.731,203.158,430.731,203.158z"/>
	<path fill="#FCF5E8" d="M425.96,204.773c-0.465,0.148-1.104,0.316-1.931,0.381c-1.551,0.13-1.551,0.13-1.551,0.13
		s-0.491-1.485-0.26-2.84c0.187-1.086,1.458-2.023,2.924-2.451c-0.25,0.111-1.188,0.604-1.29,1.541
		C423.751,202.509,424.466,204.161,425.96,204.773z"/>
	<path fill="#725E6D" d="M426.011,204.758c0,0,2.706,2.328,3.637,1.391c0.656-0.661,2.285-1.293,3.001-1.08
		c0.715,0.213,0.715,0.213,0.715,0.213s0.152-0.031,0.133-0.205s-2.766-1.914-2.766-1.914S429.644,202.004,426.011,204.758z"/>
</g>
</svg>
