<?xml version="1.0" encoding="utf-8"?>
<!-- Generator: Adobe Illustrator 16.0.0, SVG Export Plug-In . SVG Version: 6.00 Build 0)  -->
<!DOCTYPE svg PUBLIC "-//W3C//DTD SVG 1.1//EN" "http://www.w3.org/Graphics/SVG/1.1/DTD/svg11.dtd">
<svg version="1.1" id="Layer_1" xmlns="http://www.w3.org/2000/svg" xmlns:xlink="http://www.w3.org/1999/xlink" x="0px" y="0px"
	 width="463.683px" height="425.749px" viewBox="0 0 463.683 425.749" enable-background="new 0 0 463.683 425.749"
	 xml:space="preserve">
<g>
	<g>
		<path fill="#B9D3E1" d="M241.164,180.263c0,0-1.479-0.13-2.367,1.514c-0.89,1.644-1.011,2.578-1.847,4.103
			c-0.836,1.525-2.979,4.905-2.896,5.71c0.082,0.805,1.517,1.94,2.855,1.52s3.054-2.91,3.379-3.34
			C248.6,178.788,241.164,180.263,241.164,180.263z"/>
		<path fill="#E3E5EF" d="M252.559,231.461c-4.049-2.576-10.804-2.855-15.086-0.623c-1.904,0.992-2.994,2.315-3.267,3.704
			c-1.89,0.141-3.714,0.622-5.161,1.458c-3.493,2.017-3.476,5.297,0.04,7.326s9.196,2.04,12.689,0.023
			c0.888-0.513,1.546-1.107,1.98-1.742c2.969,0.244,6.043-0.221,8.381-1.439C256.418,237.936,256.608,234.038,252.559,231.461z"/>
		<path fill="#626170" d="M237.326,234.629c0,0-0.244,0.123-0.257,0.306c-0.013,0.182-0.02,0.682-0.019,0.8s0.311,0.576,1.07,0.753
			c0.759,0.177,2.604-0.313,3.227-0.675c0.622-0.363,1.471-1.287,1.729-1.357c0.203-0.056,0.721,0.02,0.934,0.055
			c0.066,0.012,0.131,0.014,0.197,0.008l0.488-0.04c0.069-0.006,0.138-0.021,0.203-0.044l1.045-0.371c0,0,0.15-0.767-0.164-1.009
			C245.465,232.812,237.326,234.629,237.326,234.629z"/>
		<path fill="#504F60" d="M241.628,231.514c0,0-0.903,0.572-1.064,0.734c-0.16,0.161-1.794,0.824-2.359,1.17
			c-0.566,0.345-0.993,0.936-1.03,1.129c-0.037,0.194-0.123,0.636-0.058,0.821s0.361,0.677,1.339,0.738
			c0.875,0.054,2.561-0.685,2.905-0.84c0.042-0.02,0.08-0.041,0.118-0.067c0.26-0.177,1.346-0.913,1.524-0.997
			c0.203-0.096,2.003-0.551,2.276-0.642s0.579-0.125,0.62-0.345c0.04-0.22,0.122-1.426-0.023-1.806
			C245.732,231.031,242.428,230.54,241.628,231.514z"/>
		<path fill="#626170" d="M244.013,237.852c0,0-0.269,0.004-0.332,0.361c-0.021,0.117-0.035,0.242-0.043,0.356
			c-0.021,0.308,0.125,0.606,0.393,0.758c0.228,0.128,0.565,0.258,1.05,0.319c1.121,0.142,2.494-0.273,3.197-0.672
			s0.956-0.723,1.38-1.311c0.425-0.589,0.862-0.871,0.862-0.871l0.18,0.049c0,0,0.628-0.457,0.973-0.773
			c0.139-0.127,0.229-0.297,0.253-0.484c0.048-0.396,0.057-1.043-0.061-1.118C251.709,234.367,244.013,237.852,244.013,237.852z"/>
		<path fill="#504F60" d="M246.988,234.055l-0.146,0.35c-0.042,0.102-0.104,0.191-0.182,0.268c-0.413,0.402-1.792,1.747-2.213,2.196
			c-0.496,0.53-0.753,0.996-0.775,1.478c-0.021,0.481,1.229,0.793,1.417,0.807c0.188,0.013,1.019,0.095,2.083-0.302
			s1.504-0.778,2.358-1.708s1.433-1.441,1.694-1.653c0.263-0.213,0.644-0.551,0.64-0.826s0.038-1.047-0.187-1.143
			c-0.203-0.087-3.184-0.335-4.297,0.118C247.198,233.713,247.064,233.873,246.988,234.055z"/>
		<path fill="#6D899A" d="M239.255,200.051c0,0-0.405,0.69-0.369,2.38c0.035,1.69,0.25,11.034,1.226,16.008
			c0.976,3.046,1.549,11.931,1.572,12.716c0.905,1.285,4.39,0.762,4.295-0.072c-0.095-0.832-0.137-7.084-0.02-8.631
			c0.116-1.547-0.062-16.301-1.348-18.434C243.325,201.884,239.255,200.051,239.255,200.051z"/>
		<path fill="#738E9E" d="M242.059,203.162c0,0-0.258,4.529,0.408,5.481c0.667,0.952,0.979,0.997,1.169,2.973
			c0.19,1.975,0.998,7.621,1.45,9.168s1.544,9.606,1.901,13.271c1.737,0.833,4.594,0.894,4.689-0.534
			c0.095-1.429,0.279-7.194-0.481-10.55c-0.762-3.355-0.943-4.775-0.943-5.799s0.164-8.006,0.26-8.291
			c0.095-0.286,1.118-4.25-0.048-5.834C249.298,201.462,242.059,203.162,242.059,203.162z"/>
		<g>
			<g>
				<path fill="#8C92B0" d="M242.25,207.959c-0.064,0.002-0.136-0.013-0.209-0.045c-0.353-0.156-0.76-0.704-0.822-1.536
					c-0.034-0.453-0.085-2.253-0.069-2.469l0.205,0.014c-0.013,0.186,0.034,1.967,0.069,2.44c0.061,0.8,0.453,1.256,0.701,1.365
					c0.072,0.032,0.133,0.036,0.169,0.011c0.052-0.039,0.069-0.15,0.046-0.299c-0.158-1.037-0.218-3.466-0.051-3.589l0.049-0.037
					l0.062,0.025l-0.044,0.094l0.001-0.002l0.001,0.003l0.081,0.047c-0.061,0.167-0.087,2.174,0.105,3.429
					c0.046,0.295-0.044,0.43-0.126,0.49C242.369,207.938,242.312,207.956,242.25,207.959z M242.354,203.937l-0.042,0.087
					L242.354,203.937z"/>
			</g>
			<g>
				<path fill="#8C92B0" d="M247.514,207.666c-1.183,0.049-2.107-0.185-2.762-0.699c-0.848-0.667-0.903-1.557-0.905-1.594
					l0.205-0.011c0,0.009,0.057,0.841,0.833,1.449c0.812,0.636,2.085,0.813,3.786,0.523l0.034,0.2
					C248.284,207.606,247.886,207.65,247.514,207.666z"/>
			</g>
			<path fill="#A76478" d="M251.125,203.665c0,0-1.892,0.989-4.993,1.012c-3.103,0.022-4.3-0.29-5.372-0.825
				s-1.757-1.263-1.757-1.263l0.112-1.186c0,0,0.65,0.929,2.163,1.493c1.514,0.563,4.691,0.589,5.981,0.545s3.689-0.689,3.689-0.689
				L251.125,203.665z"/>
			<path fill="#738E9E" d="M244.518,203.477c0,0-0.062,0.34-0.048,0.738c0.014,0.398,0.077,1.128,0.077,1.128l-0.473-0.044
				c0,0-0.131-0.699-0.137-1.054c-0.005-0.354,0.069-0.85,0.069-0.85L244.518,203.477z"/>
			<path fill="#738E9E" d="M248.992,203.202c0,0,0.105,0.33,0.144,0.726s0.07,1.128,0.07,1.128l0.463-0.103
				c0,0,0.038-0.711-0.002-1.063c-0.041-0.352-0.18-0.834-0.18-0.834L248.992,203.202z"/>
			<path fill="#738E9E" d="M240.124,202.276c0,0-0.086,0.423-0.081,0.762c0.006,0.339,0.107,0.913,0.107,0.913l-0.338-0.358
				c0,0-0.088-0.581-0.091-0.766c-0.003-0.184,0.134-0.733,0.134-0.733L240.124,202.276z"/>
			<g>
				<path fill="#8C92B0" d="M238.772,204.282c-0.032,0.001-0.065-0.002-0.099-0.01l0.048-0.197c0.25,0.063,0.534-0.589,0.625-0.913
					l0.198,0.053C239.513,203.329,239.238,204.263,238.772,204.282z"/>
			</g>
			<g>
				<path fill="#CCDEFB" d="M242.31,204.654c-0.054-0.002-0.11-0.012-0.167-0.027l-0.892-0.242
					c-0.381-0.103-0.694-0.462-0.715-0.819l-0.02-0.339c-0.01-0.173,0.05-0.323,0.17-0.421c0.135-0.111,0.331-0.142,0.538-0.085
					l0.892,0.242c0.38,0.103,0.694,0.462,0.715,0.818l0.02,0.34c0.01,0.173-0.05,0.323-0.17,0.421
					C242.583,204.622,242.454,204.66,242.31,204.654z M241.09,203.083c-0.06-0.002-0.11,0.012-0.146,0.041
					c-0.037,0.03-0.055,0.074-0.052,0.132l0.02,0.34c0.01,0.167,0.191,0.359,0.388,0.413l0.892,0.242
					c0.096,0.026,0.182,0.016,0.233-0.026c0.037-0.03,0.055-0.075,0.051-0.131l-0.02-0.34c-0.01-0.167-0.19-0.36-0.387-0.414
					l-0.893-0.242C241.147,203.089,241.118,203.084,241.09,203.083z"/>
			</g>
		</g>
		<path fill="#92BACF" d="M252.242,189.508c0,0,0.824-3.665-0.254-4.87c-1.079-1.206-3.189-2.777-4.269-3.332
			c-1.079-0.556-4.259-1.35-5.846-0.954c-1.587,0.397-3.197,3-3.309,5.285s0.071,4.419,0.476,6.465
			c0.404,2.047-0.952,8.274-0.174,8.671c0.229,0.611,0.008,1.142,0.02,1.658c0.009,0.414,1.367,1.625,5.067,2.156
			c4.706,0.677,6.867-0.395,6.892-0.883c0.023-0.488-0.19-1.464-0.19-1.464s0.583-0.178,0.583-0.666
			S250.091,196.814,252.242,189.508z"/>
		<path fill="#92BACF" d="M252.236,190.533c-0.077,0.479-0.148,0.938-0.199,1.355c-0.275,2.245-1.231,9.758-1.231,9.758
			c0,0.004-0.021,0.138-1.092,0.231c-0.355,0.033-0.95,0.033-1.669,0.007c-1.488-0.053-3.51-0.218-5.016-0.457
			c-2.234-0.354-4.497-2.136-4.392-2.712c0.107-0.574,0.305-2.473,0.043-6.057c-0.261-3.585-0.237-8.302,0.577-10.098
			c0.813-1.793,1.637-2.6,3.141-2.802c1.505-0.203,4.535-0.059,5.104,0.178c0.57,0.237,1.538,1.422,2.545,2.023
			c1.16,0.694,2.605,2.026,2.975,2.741C254.031,186.659,252.576,188.422,252.236,190.533z"/>
		<path fill="#ADFF91" d="M253.431,185.77c-0.144,0.619-0.384,2.063-0.657,3.801c-0.026,0.169-0.059,0.338-0.078,0.514
			c-0.183,1.146-0.371,2.389-0.56,3.585c-0.085,0.547-0.169,1.087-0.248,1.607c-0.059,0.358-0.117,0.709-0.169,1.042
			c-0.13,0.78-0.247,1.483-0.351,2.05c-0.137,0.768-0.254,1.288-0.326,1.425c-0.377,0.723-2.863,1.731-5.883,1.249
			c-3.025-0.481-2.882-0.677-3.312-1.249c-0.449,0.553-1.692,0.228-2.688-0.787c-0.885-0.892-0.501-1.432-0.437-2.753
			c0.007-0.176,0.014-0.371,0.007-0.579c-0.013-0.391-0.026-0.95-0.046-1.581c-0.006-0.247-0.02-0.508-0.025-0.774
			c-0.02-0.729-0.039-1.503-0.059-2.245c-0.026-1.015-0.053-1.959-0.059-2.563c-0.007-0.208-0.007-0.384-0.007-0.501
			c0-0.417,0-0.983,0.065-1.673c0.098-1.054,0.357-2.395,1.002-3.924c1.093-2.59,3.514-2.831,6.045-2.401
			c1.295,0.215,2.955,0.481,2.955,0.481S253.918,183.7,253.431,185.77z"/>
		<g>
			<path fill="#F4F4F4" d="M251.719,196.318c-0.13,0.78-0.247,1.483-0.351,2.05c-0.873,0.286-1.959,0.423-3.15,0.423
				c-2.264,0-4.938-0.508-7.386-1.51c-0.839-0.345-1.542-0.683-2.108-1.028c0.007-0.176,0.014-0.371,0.007-0.579
				c-0.013-0.391-0.026-0.95-0.046-1.581c0.229,0.26,0.892,0.82,2.799,1.601C246,197.548,250.535,197.294,251.719,196.318z"/>
		</g>
		<g>
			<path fill="#F4F4F4" d="M252.136,193.669c-0.085,0.547-0.169,1.087-0.248,1.607c-0.949,0.41-2.225,0.619-3.663,0.619
				c-2.271,0-4.945-0.508-7.393-1.517c-0.872-0.358-1.601-0.709-2.173-1.061c-0.02-0.729-0.039-1.503-0.059-2.245
				c0.104,0.176,0.618,0.794,2.883,1.725c4.626,1.9,9.279,1.581,10.32,0.54L252.136,193.669z"/>
		</g>
		<g>
			<path fill="#F4F4F4" d="M252.774,189.57c-0.026,0.169-0.059,0.338-0.078,0.514c-0.964,0.716-2.577,1.074-4.478,1.074
				c-2.264,0-4.938-0.508-7.386-1.517c-0.937-0.384-1.698-0.761-2.29-1.132c-0.007-0.208-0.007-0.384-0.007-0.501
				c0-0.417,0-0.983,0.065-1.673c0.104,0.176,0.618,0.787,2.883,1.718c4.626,1.907,9.279,1.588,10.32,0.547L252.774,189.57z"/>
		</g>
		<path fill="#92BACF" d="M244.969,180.105c0,0-1.893-0.25-2.678,1.678c-0.785,1.927,0.273,3.01,0.262,3.771
			c0.952-0.63,1.479-1.522,3.399-1.951s3.002-1.583,2.967-2.142C248.883,180.902,247.515,179.498,244.969,180.105z"/>
		<path fill="#A8B0C2" d="M249.385,187.478c0,0-0.825,2.149-0.801,4.292c0.023,2.142,0.433,4.474,0.406,4.95s0,6.069,0,6.069
			s1.212-7.045,1.212-8.163C250.203,193.506,249.385,187.478,249.385,187.478z"/>
		<path fill="#B9D3E1" d="M252.066,184.341c0,0-2.491-0.102-3.052,2.65c-0.591,2.904-0.438,4.898-0.217,6.536
			c0.222,1.637,0.246,3.735,1.169,3.846c0.923,0.111,2.759,0.195,2.957-1.322c0.199-1.518,0.394-7.857,0.486-9.234
			C253.537,184.929,253.042,184.36,252.066,184.341z"/>
		<path fill="#A8B0C2" d="M242.173,201.931c0,0-1.348-0.978-1.586-1.512c-0.238-0.534-1.023-1.091-1.023-1.091
			s-0.143,0.46-0.428-0.194c0.023,0.727,0.404,1.036,0.57,1.132c0.167,0.095,0.163-0.382,0.617,0.392
			C240.778,201.432,242.173,201.931,242.173,201.931z"/>
		<path fill="#A8B0C2" d="M244.324,203.233c0,0-2.475-0.398-3.284-0.826c-0.809-0.429-2.173-1.634-2.173-1.634v0.796
			C238.867,201.569,241.516,203.798,244.324,203.233z"/>
		<path fill="#EDEFF3" d="M247.679,196.672c0,0-0.428-1.714-0.928-2.57c-0.5-0.857-2.023-1.643-2.237-3.927
			c0.214,2.213,0.643,3.016,1.5,4.03C246.871,195.22,247.679,196.672,247.679,196.672z"/>
		<path fill="#EDEFF3" d="M249.179,182.972c0,0,0.254,0.364-0.571,1.761s-1.301,2.063-1.396,2.745
			c-0.095,0.682-0.095,0.682-0.095,0.682s0.734-1.507,1.185-2.063c0.449-0.555,1.068-0.825,1.497-1.539
			c-0.81,1.381-1.762,2.761-2.047,4.221c-0.286,1.46-0.396,2.697-0.396,2.697s0.016-1.603-0.302-2.301s-0.479-1.46-0.048-2.411
			C247.91,184.764,248.862,184.558,249.179,182.972z"/>
		<path fill="#EDEFF3" d="M252.066,195.671c0,0-0.603-0.301-1.148-0.169c-0.545,0.132-1.065,0.506-1.16,0.566
			s-0.63,0.124-0.63,0.124s0.334-0.392,0.612-0.46c0.278-0.067,0.943-0.551,1.327-0.567
			C251.452,195.148,251.855,195.265,252.066,195.671z"/>
		<g>
			
				<linearGradient id="SVGID_1_" gradientUnits="userSpaceOnUse" x1="-704.5728" y1="471.0596" x2="-708.1664" y2="468.7908" gradientTransform="matrix(0.9937 0.1119 -0.1119 0.9937 1000.5759 -209.2993)">
				<stop  offset="0.1224" style="stop-color:#FEC7C7"/>
				<stop  offset="0.9694" style="stop-color:#FFADB7"/>
			</linearGradient>
			<path fill="url(#SVGID_1_)" d="M242.887,178.635c0,0-0.1,2.844-0.303,3.388c-0.203,0.545,0.601,1.104,1.93,1.064
				s2.894-1.184,3.419-1.361c0.524-0.177,0.518-0.448,0.119-1.012c-0.399-0.564-0.89-1.251-0.597-2.874
				c0.294-1.623,0.851-3.91,0.491-4.36s-3.075,0-3.716,1.206C243.591,175.892,242.887,178.635,242.887,178.635z"/>
			<path fill="#FEC7C7" d="M247.159,174.874c0,0-1.118,2.871-1.355,3.428c-0.234,0.557-0.878,1.146-1.755,1.505
				c-0.875,0.359-2.275,0.61-2.815,0.36c-0.539-0.25-0.572-0.378-0.57-0.679c0.001-0.25-0.237-1.001-0.228-2.035
				c0.002-0.203,0.015-0.415,0.04-0.636c0.099-0.875-0.122-2.143-0.032-2.384c0.091-0.242,0.026-2.188,0.686-2.998
				s2.612-2.34,4.548-1.885c1.595,0.374,1.567,3.746,1.511,4.922C247.173,174.722,247.159,174.874,247.159,174.874z"/>
			<path fill="#754554" d="M247.425,178.027l0.469-0.578l0.315-0.138l0.552-0.979c0,0,1.137-2.111,1.051-3.304
				c-0.087-1.192-0.733-2.552-2.127-2.826c-0.978-1.12-2.755-1.304-3.793-1.184c-1.039,0.12-2.336,0.999-2.904,2.117
				c-0.567,1.119-0.248,1.13-0.248,1.13s0.621,0.458,1.439,0.061c0.817-0.396,1.201-0.732,1.498-0.699
				c0.295,0.034,0.574,0.774,0.534,1.133c-0.04,0.358-0.208,1.285,0.155,1.563c0.363,0.277,1.073,1.114,1.194,1.301
				c0.12,0.187,0.007,0.916,0.007,0.916l0.456-0.185c0,0,0.094-0.924,0.599-1.267c0.504-0.343,0.818,0.086,0.819,0.354
				c0.002,0.268-0.218,1.095-0.161,1.291C247.337,176.929,247.472,177.607,247.425,178.027z"/>
			
				<linearGradient id="SVGID_2_" gradientUnits="userSpaceOnUse" x1="-1094.0991" y1="226.6074" x2="-1092.6162" y2="226.6074" gradientTransform="matrix(1 0.001 -0.001 1 1340.6082 -49.2231)">
				<stop  offset="0.1224" style="stop-color:#FEB9B8"/>
				<stop  offset="1" style="stop-color:#FFDEDE"/>
			</linearGradient>
			<path fill="url(#SVGID_2_)" d="M246.548,175.353c0,0,0.33-0.548,0.972-0.336c0.643,0.212-0.174,1.807-0.221,1.902
				s-0.188,0.753-0.714,0.69c-0.525-0.063-0.211-0.8-0.211-0.8S246.666,175.831,246.548,175.353z"/>
			
				<linearGradient id="SVGID_3_" gradientUnits="userSpaceOnUse" x1="-1093.8159" y1="226.3271" x2="-1092.8232" y2="226.3271" gradientTransform="matrix(1 0.001 -0.001 1 1340.6082 -49.2231)">
				<stop  offset="0.1224" style="stop-color:#FCA4B5"/>
				<stop  offset="0.9896" style="stop-color:#FFADB7"/>
			</linearGradient>
			<path fill="url(#SVGID_3_)" d="M246.76,175.337c0,0,0.373-0.319,0.689-0.097c0.315,0.223-0.121,1.387-0.474,1.617
				c-0.204,0.015-0.411-0.03-0.411-0.03S246.862,175.619,246.76,175.337z"/>
		</g>
		<path fill="#B9D3E1" d="M236.492,191.158c0,0-1.095-0.879-1.87-0.949c-0.529,0.13-5.965,5.438-6.13,5.623
			c-0.166,0.184-0.559,0.503,0.217,1.42c0.775,0.918,1.003,0.784,1.182,0.664c0.18-0.121,0.654-0.394,0.733-0.391
			c0.079,0.003,1.584-0.828,2.025-1.165c1.402-1.071,1.903-1.555,2.701-1.831c1.058-0.365,1.991-1.398,1.966-1.592
			C237.29,192.743,237.07,191.83,236.492,191.158z"/>
		<g>
			<path fill="#FFCC54" d="M229.703,198.232c-0.096,0.33-0.262,0.276-0.368,0.445c-0.107,0.167-0.064,0.284-0.097,0.383
				c-0.034,0.1-0.29,0.27-0.407,0.349c-0.115,0.078-0.374-0.021-0.374-0.021s-0.281,0.073-0.454,0.067
				c-0.173-0.007-0.256-0.194-0.256-0.194s-0.147-0.042-0.322-0.107c-0.177-0.066-0.282-0.283-0.331-0.273
				c-0.047,0.009-0.431-0.089-0.48-0.186c-0.004-0.007-0.009-0.017-0.015-0.027c-0.044-0.095-0.089-0.215-0.089-0.215
				s-0.104,0.091-0.248,0.117c-0.088,0.014-0.183-0.009-0.248-0.057h-0.001c-0.041-0.03-0.068-0.067-0.078-0.109
				c-0.026-0.115,0.127-0.234,0.222-0.387c0.096-0.15,0.172-0.464,0.215-0.646c0.043-0.183,0.754-0.925,0.912-1.027
				c0.16-0.101,0.528-0.129,0.751-0.164c0.223-0.038,0.405-0.18,0.405-0.18s0.273,0.004,0.472,0.112
				c0.2,0.108,0.354,0.413,0.354,0.413c0.09,0.141,0.17,0.102,0.401,0.593C229.898,197.608,229.797,197.902,229.703,198.232z"/>
			<g>
				<path fill="#E1E3EE" d="M226.696,201.126c-0.009-0.032-0.217-0.81-0.5-2.241c-0.305-1.536,0.781-2.308,1.74-2.99l0.222-0.159
					c0.947-0.685,1.964-0.209,2.367,0.138l-0.424,0.493l0.212-0.247l-0.211,0.248c-0.031-0.027-0.798-0.656-1.563-0.105
					l-0.226,0.162c-0.913,0.649-1.701,1.21-1.479,2.333c0.278,1.407,0.488,2.191,0.49,2.199L226.696,201.126z"/>
			</g>
			
				<linearGradient id="SVGID_4_" gradientUnits="userSpaceOnUse" x1="324.9468" y1="273.293" x2="327.7153" y2="273.293" gradientTransform="matrix(0.9993 0.0369 -0.0369 0.9993 -88.599 -87.1758)">
				<stop  offset="0.1224" style="stop-color:#FCA4B5"/>
				<stop  offset="0.9896" style="stop-color:#FFADB7"/>
			</linearGradient>
			<path fill="url(#SVGID_4_)" d="M228.798,198.074c0,0-0.076-0.197-0.137-0.226c-0.058-0.029-0.193-0.085-0.288-0.089
				c-0.027-0.045-0.132-0.101-0.255-0.106c-0.122-0.008-0.264,0.061-0.264,0.061s-0.072-0.058-0.148-0.103
				c-0.074-0.045-0.285-0.03-0.356,0.004s-0.172,0.273-0.258,0.372c-0.087,0.097-0.316,0.327-0.402,0.43
				c-0.088,0.106-0.071,0.118-0.092,0.25c-0.044-0.095-0.089-0.215-0.089-0.215s-0.104,0.091-0.248,0.117
				c-0.088,0.014-0.183-0.009-0.248-0.057c0.352,0.091,0.459-0.03,0.7-0.266c0.241-0.235,0.229-0.415,0.229-0.415l0.425-0.36
				l-0.075-0.24l0.199,0.144l0.206-0.129c0,0,0.054,0.008,0.021,0.043c-0.029,0.035-0.174,0.22-0.174,0.22s0.143,0.017,0.343,0.06
				c0.2,0.042,0.312-0.019,0.312-0.019s0.06-0.034,0.219,0.002c0.158,0.036,0.315,0.012,0.315,0.012l-0.267,0.106
				c0,0,0.228,0.073,0.288,0.138C228.817,197.875,228.798,198.074,228.798,198.074z"/>
			
				<linearGradient id="SVGID_5_" gradientUnits="userSpaceOnUse" x1="326.0405" y1="273.6621" x2="326.853" y2="273.6621" gradientTransform="matrix(0.9993 0.0369 -0.0369 0.9993 -88.599 -87.1758)">
				<stop  offset="0.1224" style="stop-color:#FCA4B5"/>
				<stop  offset="0.9896" style="stop-color:#FFADB7"/>
			</linearGradient>
			<path fill="url(#SVGID_5_)" d="M227.855,197.714c0,0,0.026,0.342-0.045,0.435c-0.07,0.093-0.547,0.679-0.717,0.732
				c0.065,0.049,0.131,0.122,0.131,0.122s0.004-0.149,0.073-0.199s0.595-0.613,0.624-0.656s0.018-0.467,0.018-0.467L227.855,197.714
				z"/>
			
				<linearGradient id="SVGID_6_" gradientUnits="userSpaceOnUse" x1="326.6382" y1="273.8125" x2="327.3657" y2="273.8125" gradientTransform="matrix(0.9993 0.0369 -0.0369 0.9993 -88.599 -87.1758)">
				<stop  offset="0.1224" style="stop-color:#FCA4B5"/>
				<stop  offset="0.9896" style="stop-color:#FFADB7"/>
			</linearGradient>
			<path fill="url(#SVGID_6_)" d="M228.374,197.76c0,0,0.039,0.693-0.03,0.827c-0.07,0.135-0.664,0.654-0.664,0.654l0.067,0.021
				c0,0,0.647-0.577,0.668-0.647C228.435,198.542,228.485,197.835,228.374,197.76z"/>
			
				<linearGradient id="SVGID_7_" gradientUnits="userSpaceOnUse" x1="327.3647" y1="273.9678" x2="328.2612" y2="273.9678" gradientTransform="matrix(0.9993 0.0369 -0.0369 0.9993 -88.599 -87.1758)">
				<stop  offset="0.1224" style="stop-color:#FCA4B5"/>
				<stop  offset="0.9896" style="stop-color:#FFADB7"/>
			</linearGradient>
			<path fill="url(#SVGID_7_)" d="M229.308,198.723c0,0,0.005-0.271-0.082-0.32c-0.088-0.048-0.264-0.138-0.313-0.081
				c-0.05,0.058-0.068,0.378-0.09,0.491c-0.022,0.112-0.367,0.575-0.367,0.575l-0.057,0.014c0,0,0.37-0.501,0.373-0.615
				c0.002-0.113,0.078-0.557,0.079-0.593c0.002-0.035-0.054-0.12-0.054-0.12l0.002-0.104c0,0,0.031,0.129,0.148,0.199
				C229.065,198.238,229.415,198.232,229.308,198.723z"/>
		</g>
		<g>
			<g>
				<g>
					<linearGradient id="SVGID_8_" gradientUnits="userSpaceOnUse" x1="227.3628" y1="215.0273" x2="244.1401" y2="215.0273">
						<stop  offset="0" style="stop-color:#C4C8D8"/>
						<stop  offset="0.0704" style="stop-color:#B1B6CC"/>
						<stop  offset="0.1511" style="stop-color:#A0A6C0"/>
						<stop  offset="0.3773" style="stop-color:#A0A6C0"/>
						<stop  offset="0.4933" style="stop-color:#ACB1C8"/>
						<stop  offset="0.7749" style="stop-color:#C4C8D8"/>
						<stop  offset="0.9821" style="stop-color:#C4C8D8"/>
						<stop  offset="1" style="stop-color:#C4C8D8"/>
					</linearGradient>
					<path fill="url(#SVGID_8_)" d="M244.14,201.426h-16.777l1.035,22.957h0.001c0.012,1.082,0.734,2.165,2.169,2.992
						c2.881,1.664,7.537,1.672,10.399,0.02c1.438-0.83,2.147-1.92,2.136-3.012h0.002L244.14,201.426z"/>
					<path fill="#9198B5" d="M229.386,224.969l-0.197-0.158c-0.132-0.104-0.21-0.262-0.215-0.43l-0.516-17.639
						c-0.015-0.486,0.547-0.766,0.927-0.463l0.197,0.158c0.131,0.104,0.21,0.262,0.214,0.429l0.517,17.64
						C230.328,224.991,229.766,225.271,229.386,224.969z"/>
					<path fill="#9198B5" d="M231.969,226.801L231.969,226.801c-0.344-0.095-0.586-0.404-0.595-0.761l-0.458-17.439
						c-0.015-0.545,0.503-0.949,1.028-0.804l0,0c0.345,0.096,0.586,0.404,0.596,0.762l0.457,17.438
						C233.012,226.543,232.496,226.947,231.969,226.801z"/>
					<path fill="#9198B5" d="M240.273,226.693L240.273,226.693c-0.387,0.187-0.833-0.102-0.82-0.531l0.521-18.021
						c0.006-0.213,0.13-0.404,0.322-0.497l0,0c0.385-0.188,0.832,0.102,0.819,0.53l-0.521,18.021
						C240.587,226.408,240.464,226.6,240.273,226.693z"/>
					<path fill="#9198B5" d="M242.225,225.518L242.225,225.518c-0.325,0.186-0.696-0.106-0.682-0.535l0.618-18.018
						c0.008-0.213,0.113-0.403,0.274-0.495l0,0c0.325-0.185,0.696,0.106,0.682,0.535l-0.618,18.017
						C242.492,225.234,242.386,225.426,242.225,225.518z"/>
					<path fill="#9198B5" d="M238.164,227.25L238.164,227.25c-0.518,0.279-1.022-0.004-1.019-0.572l0.134-17.824
						c0.002-0.26,0.168-0.529,0.405-0.656l0,0c0.518-0.279,1.022,0.004,1.019,0.573l-0.135,17.823
						C238.566,226.854,238.4,227.123,238.164,227.25z"/>
					<path fill="#9198B5" d="M235.167,227.375L235.167,227.375c-0.408,0.004-0.741-0.324-0.745-0.732l-0.153-17.664
						c-0.003-0.408,0.325-0.742,0.732-0.746l0,0c0.408-0.003,0.742,0.325,0.746,0.732l0.152,17.665
						C235.904,227.038,235.576,227.371,235.167,227.375z"/>
					<path fill="#948F96" d="M241.702,202.409c-3.266,1.885-8.577,1.876-11.863-0.021s-3.304-4.964-0.037-6.85
						c3.266-1.885,8.577-1.875,11.863,0.021C244.951,197.457,244.967,200.523,241.702,202.409z"/>
					<linearGradient id="SVGID_9_" gradientUnits="userSpaceOnUse" x1="226.5142" y1="201.042" x2="244.9878" y2="201.042">
						<stop  offset="0" style="stop-color:#CFD3E4"/>
						<stop  offset="0.0722" style="stop-color:#BBC0D7"/>
						<stop  offset="0.1511" style="stop-color:#AAB0CC"/>
						<stop  offset="0.3773" style="stop-color:#AAB0CC"/>
						<stop  offset="0.5001" style="stop-color:#B7BCD4"/>
						<stop  offset="0.7749" style="stop-color:#CFD3E4"/>
						<stop  offset="0.9821" style="stop-color:#CFD3E4"/>
						<stop  offset="1" style="stop-color:#CFD3E4"/>
					</linearGradient>
					<path fill="url(#SVGID_9_)" d="M244.988,198.974h-0.749c-0.454-0.613-1.108-1.19-1.977-1.69
						c-3.619-2.089-9.467-2.101-13.063-0.024c-0.878,0.507-1.536,1.091-1.983,1.715h-0.702v2.068h0.002
						c0.015,1.359,0.923,2.719,2.725,3.759c3.618,2.089,9.466,2.1,13.062,0.023c1.806-1.042,2.699-2.412,2.684-3.782h0.002V198.974z
						"/>
					<path fill="#C9CDE0" d="M242.302,202.756c-3.596,2.076-9.443,2.065-13.062-0.024c-3.619-2.089-3.637-5.465-0.041-7.541
						c3.596-2.076,9.443-2.065,13.063,0.023C245.88,197.304,245.899,200.68,242.302,202.756z"/>
					<path fill="#EFF0F5" d="M241.973,195.17c-3.515-2.029-9.196-2.04-12.689-0.023s-3.476,5.297,0.04,7.327
						c3.515,2.029,9.196,2.039,12.689,0.022S245.489,197.199,241.973,195.17z"/>
					<path fill="#CFD3E4" d="M241.052,195.562c-2.946-1.701-7.708-1.71-10.636-0.02s-2.913,4.439,0.033,6.141
						s7.708,1.709,10.636,0.02C244.013,200.012,243.999,197.263,241.052,195.562z"/>
					<path fill="#E1E3EE" d="M240.655,196.116c-2.726-1.574-7.13-1.581-9.839-0.018c-2.708,1.563-2.694,4.106,0.031,5.68
						c2.726,1.574,7.13,1.582,9.839,0.019C243.394,200.233,243.38,197.689,240.655,196.116z"/>
				</g>
			</g>
			<g>
				<path fill="#CFCECE" d="M235.776,200.939c-0.998,0-1.931-0.222-2.63-0.627c-0.656-0.379-1.016-0.863-1.016-1.368
					c0-0.499,0.354-0.977,0.998-1.35c0.527-0.303,1.192-0.504,1.918-0.577c0.111-0.012,0.222-0.023,0.339-0.029
					c0.113-0.006,0.227-0.009,0.344-0.009c0.122,0,0.248,0.003,0.367,0.012c0.108,0.006,0.216,0.015,0.321,0.026
					c0.731,0.076,1.404,0.28,1.941,0.589c0.653,0.376,1.015,0.863,1.015,1.368c0,0.499-0.353,0.977-0.997,1.347
					C237.688,200.721,236.764,200.939,235.776,200.939z"/>
				<path fill="#CFD3E4" d="M240.303,196.347c-0.811-0.469-1.778-0.788-2.808-0.957c-0.289-0.05-0.583-0.084-0.883-0.11
					c-0.502-0.041-1.013-0.047-1.52-0.018c-0.286,0.014-0.574,0.043-0.857,0.082c-1.125,0.151-2.189,0.481-3.067,0.986
					c-2.514,1.452-2.502,3.813,0.029,5.274c2.53,1.46,6.622,1.469,9.135,0.017C242.849,200.17,242.834,197.808,240.303,196.347z
					 M233.714,201.898c-0.791-0.169-1.514-0.435-2.123-0.787c-1.064-0.615-1.65-1.408-1.65-2.239c0-0.822,0.577-1.606,1.621-2.21
					c1.103-0.636,2.575-0.985,4.152-0.985c1.589,0,3.079,0.355,4.198,1c1.064,0.615,1.647,1.411,1.647,2.239
					c0,0.822-0.574,1.606-1.621,2.21c-0.688,0.396-1.521,0.683-2.435,0.843c-0.09,0.015-0.184,0.029-0.277,0.044
					c-0.146,0.021-0.294,0.038-0.445,0.052c-0.032,0.002-0.067,0.005-0.103,0.009c-0.076,0.009-0.151,0.012-0.228,0.014
					c-0.219,0.018-0.44,0.024-0.661,0.024c-0.596,0-1.179-0.05-1.732-0.146C233.941,201.945,233.828,201.925,233.714,201.898z
					 M239.942,197.449c-0.009-0.006-0.018-0.015-0.023-0.021c-0.204-0.201-0.454-0.388-0.752-0.56
					c-1.898-1.097-4.966-1.103-6.853-0.012c-0.282,0.163-0.521,0.341-0.717,0.531c-1.307,1.12-1.094,2.656,0.633,3.65
					c1.956,1.131,5.12,1.137,7.064,0.015C240.989,200.077,241.202,198.569,239.942,197.449z M234.936,201.266
					c-0.026,0-0.05-0.003-0.07-0.005c-0.108-0.012-0.213-0.027-0.321-0.043c-0.74-0.12-1.416-0.348-1.971-0.668
					c-0.799-0.461-1.239-1.053-1.239-1.668c0-0.609,0.432-1.192,1.219-1.645c0.84-0.487,1.966-0.752,3.17-0.752
					c1.213,0,2.353,0.271,3.207,0.764c0.796,0.46,1.236,1.053,1.236,1.668c0,0.606-0.432,1.192-1.216,1.645
					c-0.571,0.329-1.274,0.557-2.044,0.673c-0.093,0.012-0.189,0.024-0.286,0.032c-0.058,0.009-0.113,0.015-0.172,0.018
					c-0.219,0.021-0.443,0.029-0.668,0.029c-0.227,0-0.451-0.009-0.673-0.029C235.049,201.28,234.992,201.274,234.936,201.266z"/>
				<path fill="#D7D6D6" d="M235.776,200.939c-0.998,0-1.931-0.222-2.63-0.627c-0.656-0.379-1.016-0.863-1.016-1.368
					c0-0.499,0.354-0.977,0.998-1.35c0.527-0.303,1.192-0.504,1.918-0.577c0.111-0.012,0.222-0.023,0.339-0.029
					c0.113-0.006,0.227-0.009,0.344-0.009c0.122,0,0.248,0.003,0.367,0.012c0.108,0.006,0.216,0.015,0.321,0.026
					c0.731,0.076,1.404,0.28,1.941,0.589c0.653,0.376,1.015,0.863,1.015,1.368c0,0.499-0.353,0.977-0.997,1.347
					C237.688,200.721,236.764,200.939,235.776,200.939z"/>
				<path fill="#EFF0F5" d="M240.146,196.304c-0.767-0.44-1.682-0.747-2.65-0.913c-0.289-0.05-0.583-0.084-0.883-0.11
					c-0.502-0.041-1.013-0.047-1.52-0.018c-0.286,0.014-0.574,0.043-0.857,0.082c-1.064,0.151-2.073,0.466-2.904,0.944
					c-2.429,1.4-2.414,3.68,0.026,5.088c2.44,1.411,6.389,1.417,8.814,0.017C242.598,199.992,242.586,197.715,240.146,196.304z
					 M237.227,202.013c-0.146,0.021-0.294,0.038-0.445,0.052c-0.032,0.002-0.067,0.005-0.103,0.009
					c-0.076,0.009-0.151,0.012-0.228,0.014c-0.219,0.018-0.44,0.024-0.661,0.024c-0.596,0-1.179-0.05-1.732-0.146
					c-0.117-0.021-0.23-0.041-0.344-0.067c-0.791-0.169-1.514-0.435-2.123-0.787c-1.064-0.615-1.65-1.408-1.65-2.239
					c0-0.822,0.577-1.606,1.621-2.21c1.103-0.636,2.575-0.985,4.152-0.985c1.589,0,3.079,0.355,4.198,1
					c1.064,0.615,1.647,1.411,1.647,2.239c0,0.822-0.574,1.606-1.621,2.21c-0.688,0.396-1.521,0.683-2.435,0.843
					C237.415,201.983,237.321,201.998,237.227,202.013z M239.942,197.449c-0.009-0.006-0.018-0.015-0.023-0.021
					c-0.204-0.201-0.454-0.388-0.752-0.56c-1.898-1.097-4.966-1.103-6.853-0.012c-0.282,0.163-0.521,0.341-0.717,0.531
					c-1.307,1.12-1.094,2.656,0.633,3.65c1.956,1.131,5.12,1.137,7.064,0.015C240.989,200.077,241.202,198.569,239.942,197.449z
					 M234.936,201.266c-0.026,0-0.05-0.003-0.07-0.005c-0.108-0.012-0.213-0.027-0.321-0.043c-0.74-0.12-1.416-0.348-1.971-0.668
					c-0.799-0.461-1.239-1.053-1.239-1.668c0-0.609,0.432-1.192,1.219-1.645c0.84-0.487,1.966-0.752,3.17-0.752
					c1.213,0,2.353,0.271,3.207,0.764c0.796,0.46,1.236,1.053,1.236,1.668c0,0.606-0.432,1.192-1.216,1.645
					c-0.571,0.329-1.274,0.557-2.044,0.673c-0.093,0.012-0.189,0.024-0.286,0.032c-0.058,0.009-0.113,0.015-0.172,0.018
					c-0.219,0.021-0.443,0.029-0.668,0.029c-0.227,0-0.451-0.009-0.673-0.029C235.049,201.28,234.992,201.274,234.936,201.266z"/>
				<path fill="#CFCECE" d="M235.776,200.939c-0.998,0-1.931-0.222-2.63-0.627c-0.656-0.379-1.016-0.863-1.016-1.368
					c0-0.499,0.354-0.977,0.998-1.35c0.527-0.303,1.192-0.504,1.918-0.577c0.111-0.012,0.222-0.023,0.339-0.029
					c0.113-0.006,0.227-0.009,0.344-0.009c0.122,0,0.248,0.003,0.367,0.012c0.108,0.006,0.216,0.015,0.321,0.026
					c0.731,0.076,1.404,0.28,1.941,0.589c0.653,0.376,1.015,0.863,1.015,1.368c0,0.499-0.353,0.977-0.997,1.347
					C237.688,200.721,236.764,200.939,235.776,200.939z"/>
				<path fill="#CFD3E4" d="M239.983,196.589c-1.14-0.659-2.656-1.021-4.271-1.021c-1.601,0-3.097,0.359-4.216,1.003
					c-1.064,0.615-1.65,1.411-1.65,2.248c0,0.843,0.598,1.651,1.676,2.274c0.63,0.365,1.377,0.639,2.193,0.805
					c-0.791-0.169-1.514-0.435-2.123-0.787c-1.064-0.615-1.65-1.408-1.65-2.239c0-0.822,0.577-1.606,1.621-2.21
					c1.103-0.636,2.575-0.985,4.152-0.985c1.589,0,3.079,0.355,4.198,1c1.064,0.615,1.647,1.411,1.647,2.239
					c0,0.822-0.574,1.606-1.621,2.21c-0.688,0.396-1.521,0.683-2.435,0.843c0.938-0.157,1.799-0.449,2.505-0.857
					c1.062-0.615,1.647-1.411,1.647-2.248C241.657,198.021,241.062,197.213,239.983,196.589z M239.942,197.449
					c-0.009-0.006-0.018-0.015-0.023-0.021c-0.204-0.201-0.454-0.388-0.752-0.56c-1.898-1.097-4.966-1.103-6.853-0.012
					c-0.282,0.163-0.521,0.341-0.717,0.531c-1.307,1.12-1.094,2.656,0.633,3.65c1.956,1.131,5.12,1.137,7.064,0.015
					C240.989,200.077,241.202,198.569,239.942,197.449z M234.936,201.266c-0.026,0-0.05-0.003-0.07-0.005
					c-0.108-0.012-0.213-0.027-0.321-0.043c-0.74-0.12-1.416-0.348-1.971-0.668c-0.799-0.461-1.239-1.053-1.239-1.668
					c0-0.609,0.432-1.192,1.219-1.645c0.84-0.487,1.966-0.752,3.17-0.752c1.213,0,2.353,0.271,3.207,0.764
					c0.796,0.46,1.236,1.053,1.236,1.668c0,0.606-0.432,1.192-1.216,1.645c-0.571,0.329-1.274,0.557-2.044,0.673
					c-0.093,0.012-0.189,0.024-0.286,0.032c-0.058,0.009-0.113,0.015-0.172,0.018c-0.219,0.021-0.443,0.029-0.668,0.029
					c-0.227,0-0.451-0.009-0.673-0.029C235.049,201.28,234.992,201.274,234.936,201.266z"/>
				<path fill="#C9C8C8" d="M235.776,200.939c-0.998,0-1.931-0.222-2.63-0.627c-0.656-0.379-1.016-0.863-1.016-1.368
					c0-0.499,0.354-0.977,0.998-1.35c0.527-0.303,1.192-0.504,1.918-0.577c0.111-0.012,0.222-0.023,0.339-0.029
					c0.113-0.006,0.227-0.009,0.344-0.009c0.122,0,0.248,0.003,0.367,0.012c0.108,0.006,0.216,0.015,0.321,0.026
					c0.731,0.076,1.404,0.28,1.941,0.589c0.653,0.376,1.015,0.863,1.015,1.368c0,0.499-0.353,0.977-0.997,1.347
					C237.688,200.721,236.764,200.939,235.776,200.939z"/>
				<path fill="#C9C8C8" d="M239.942,197.449c-0.009-0.006-0.018-0.015-0.023-0.021c-0.204-0.201-0.454-0.388-0.752-0.56
					c-1.898-1.097-4.966-1.103-6.853-0.012c-0.282,0.163-0.521,0.341-0.717,0.531c-1.307,1.12-1.094,2.656,0.633,3.65
					c1.956,1.131,5.12,1.137,7.064,0.015C240.989,200.077,241.202,198.569,239.942,197.449z M234.936,201.266
					c-0.026,0-0.05-0.003-0.07-0.005c-0.108-0.012-0.213-0.027-0.321-0.043c-0.74-0.12-1.416-0.348-1.971-0.668
					c-0.799-0.461-1.239-1.053-1.239-1.668c0-0.609,0.432-1.192,1.219-1.645c0.84-0.487,1.966-0.752,3.17-0.752
					c1.213,0,2.353,0.271,3.207,0.764c0.796,0.46,1.236,1.053,1.236,1.668c0,0.606-0.432,1.192-1.216,1.645
					c-0.571,0.329-1.274,0.557-2.044,0.673c-0.093,0.012-0.189,0.024-0.286,0.032c-0.058,0.009-0.113,0.015-0.172,0.018
					c-0.219,0.021-0.443,0.029-0.668,0.029c-0.227,0-0.451-0.009-0.673-0.029C235.049,201.28,234.992,201.274,234.936,201.266z"/>
				<path fill="#CFCECE" d="M238.376,200.321c-0.688,0.399-1.612,0.618-2.601,0.618c-0.998,0-1.931-0.222-2.63-0.627
					c-0.656-0.379-1.016-0.863-1.016-1.368c0-0.499,0.354-0.977,0.998-1.35c0.527-0.303,1.192-0.504,1.918-0.577
					c0.111-0.012,0.222-0.023,0.339-0.029c0.113-0.006,0.227-0.009,0.344-0.009c0.122,0,0.248,0.003,0.367,0.012
					c0.108,0.006,0.216,0.015,0.321,0.026c0.731,0.076,1.404,0.28,1.941,0.589c0.653,0.376,1.015,0.863,1.015,1.368
					C239.374,199.473,239.021,199.951,238.376,200.321z"/>
				<path fill="#CFD3E4" d="M239.942,197.449c-0.009-0.006-0.018-0.015-0.023-0.021c-0.184-0.163-0.399-0.314-0.644-0.458
					c-1.96-1.128-5.123-1.134-7.068-0.012c-0.23,0.135-0.435,0.277-0.609,0.429c-1.307,1.12-1.094,2.656,0.633,3.65
					c1.956,1.131,5.12,1.137,7.064,0.015C240.989,200.077,241.202,198.569,239.942,197.449z M234.936,201.266
					c-0.026,0-0.05-0.003-0.07-0.005c-0.108-0.012-0.213-0.027-0.321-0.043c-0.74-0.12-1.416-0.348-1.971-0.668
					c-0.799-0.461-1.239-1.053-1.239-1.668c0-0.609,0.432-1.192,1.219-1.645c0.84-0.487,1.966-0.752,3.17-0.752
					c1.213,0,2.353,0.271,3.207,0.764c0.796,0.46,1.236,1.053,1.236,1.668c0,0.606-0.432,1.192-1.216,1.645
					c-0.571,0.329-1.274,0.557-2.044,0.673c-0.093,0.012-0.189,0.024-0.286,0.032c-0.058,0.009-0.113,0.015-0.172,0.018
					c-0.219,0.021-0.443,0.029-0.668,0.029c-0.227,0-0.451-0.009-0.673-0.029C235.049,201.28,234.992,201.274,234.936,201.266z"/>
				<path fill="#D7D6D6" d="M238.376,200.321c-0.688,0.399-1.612,0.618-2.601,0.618c-0.998,0-1.931-0.222-2.63-0.627
					c-0.656-0.379-1.016-0.863-1.016-1.368c0-0.499,0.354-0.977,0.998-1.35c0.527-0.303,1.192-0.504,1.918-0.577
					c0.111-0.012,0.222-0.023,0.339-0.029c0.113-0.006,0.227-0.009,0.344-0.009c0.122,0,0.248,0.003,0.367,0.012
					c0.108,0.006,0.216,0.015,0.321,0.026c0.731,0.076,1.404,0.28,1.941,0.589c0.653,0.376,1.015,0.863,1.015,1.368
					C239.374,199.473,239.021,199.951,238.376,200.321z"/>
				<path fill="#EFF0F5" d="M239.942,197.449c-0.009-0.006-0.018-0.015-0.023-0.021c-0.204-0.201-0.454-0.388-0.752-0.56
					c-1.898-1.097-4.966-1.103-6.853-0.012c-0.282,0.163-0.521,0.341-0.717,0.531c-1.125,1.07-0.878,2.493,0.737,3.426
					c1.898,1.096,4.969,1.102,6.855,0.011C240.77,199.913,241.018,198.522,239.942,197.449z M236.621,201.266
					c-0.058,0.009-0.113,0.015-0.172,0.018c-0.219,0.021-0.443,0.029-0.668,0.029c-0.227,0-0.451-0.009-0.673-0.029
					c-0.059-0.003-0.116-0.009-0.172-0.018c-0.026,0-0.05-0.003-0.07-0.005c-0.108-0.012-0.213-0.027-0.321-0.043
					c-0.74-0.12-1.416-0.348-1.971-0.668c-0.799-0.461-1.239-1.053-1.239-1.668c0-0.609,0.432-1.192,1.219-1.645
					c0.84-0.487,1.966-0.752,3.17-0.752c1.213,0,2.353,0.271,3.207,0.764c0.796,0.46,1.236,1.053,1.236,1.668
					c0,0.606-0.432,1.192-1.216,1.645c-0.571,0.329-1.274,0.557-2.044,0.673C236.814,201.246,236.717,201.257,236.621,201.266z"/>
				<path fill="#CFCECE" d="M238.376,200.321c-0.688,0.399-1.612,0.618-2.601,0.618c-0.998,0-1.931-0.222-2.63-0.627
					c-0.656-0.379-1.016-0.863-1.016-1.368c0-0.499,0.354-0.977,0.998-1.35c0.527-0.303,1.192-0.504,1.918-0.577
					c0.111-0.012,0.222-0.023,0.339-0.029c0.113-0.006,0.227-0.009,0.344-0.009c0.122,0,0.248,0.003,0.367,0.012
					c0.108,0.006,0.216,0.015,0.321,0.026c0.731,0.076,1.404,0.28,1.941,0.589c0.653,0.376,1.015,0.863,1.015,1.368
					C239.374,199.473,239.021,199.951,238.376,200.321z"/>
				<path fill="#CFD3E4" d="M240.269,198.857c0,0.624-0.44,1.222-1.242,1.686c-0.592,0.341-1.321,0.577-2.12,0.69
					c0.77-0.116,1.473-0.344,2.044-0.673c0.784-0.452,1.216-1.038,1.216-1.645c0-0.615-0.44-1.208-1.236-1.668
					c-0.854-0.493-1.994-0.764-3.207-0.764c-1.204,0-2.33,0.265-3.17,0.752c-0.787,0.452-1.219,1.035-1.219,1.645
					c0,0.615,0.44,1.207,1.239,1.668c0.633,0.367,1.426,0.609,2.292,0.711c-0.893-0.099-1.712-0.35-2.367-0.729
					c-0.817-0.473-1.266-1.079-1.266-1.709c0-0.621,0.443-1.219,1.245-1.682c0.859-0.496,2.012-0.77,3.242-0.77
					c1.245,0,2.411,0.277,3.283,0.781C239.82,197.624,240.269,198.23,240.269,198.857z"/>
				<path fill="#C9C8C8" d="M239.374,198.974c0,0.499-0.353,0.977-0.997,1.347c-0.688,0.399-1.612,0.618-2.601,0.618
					c-0.998,0-1.931-0.222-2.63-0.627c-0.656-0.379-1.016-0.863-1.016-1.368c0-0.499,0.354-0.977,0.998-1.35
					c0.527-0.303,1.192-0.504,1.918-0.577c0.111-0.012,0.222-0.023,0.339-0.029c0.113-0.006,0.227-0.009,0.344-0.009
					c0.122,0,0.248,0.003,0.367,0.012c0.108,0.006,0.216,0.015,0.321,0.026c0.731,0.076,1.404,0.28,1.941,0.589
					C239.012,197.983,239.374,198.47,239.374,198.974z"/>
				<path fill="#CFD3E4" d="M239.374,198.974c0,0.499-0.353,0.977-0.997,1.347c-0.688,0.399-1.612,0.618-2.601,0.618
					c-0.998,0-1.931-0.222-2.63-0.627c-0.656-0.379-1.016-0.863-1.016-1.368c0-0.499,0.354-0.977,0.998-1.35
					c0.527-0.303,1.192-0.504,1.918-0.577c0.111-0.012,0.222-0.023,0.339-0.029c0.113-0.006,0.227-0.009,0.344-0.009
					c0.122,0,0.248,0.003,0.367,0.012c0.108,0.006,0.216,0.015,0.321,0.026c0.731,0.076,1.404,0.28,1.941,0.589
					C239.012,197.983,239.374,198.47,239.374,198.974z"/>
				<path fill="#EFF0F5" d="M239.158,198.854c0,0.47-0.332,0.919-0.938,1.269c-0.647,0.376-1.517,0.58-2.443,0.58
					c-0.939,0-1.817-0.21-2.476-0.589c-0.615-0.355-0.957-0.813-0.957-1.286c0-0.469,0.336-0.921,0.939-1.268
					c0.486-0.283,1.096-0.466,1.764-0.542c0.111-0.012,0.222-0.023,0.339-0.029c0.113-0.006,0.227-0.009,0.344-0.009
					c0.122,0,0.248,0.003,0.367,0.012c0.108,0.006,0.216,0.015,0.321,0.026c0.673,0.076,1.294,0.266,1.787,0.551
					C238.82,197.925,239.158,198.379,239.158,198.854z"/>
			</g>
			<g>
				<path fill="#CCC9CD" d="M237.131,199.678c0,0,0.171-0.055,0.018-0.341c-0.109-0.206-0.291-0.172-0.291-0.172l-0.393,0.047
					c-0.526,0.049-0.927,0.09-1.452-0.237l-1.065-0.664c-0.18-0.111,0.564-0.122,0.564-0.122c0.086,0,0.184-0.024,0.013-0.344
					c-0.119-0.224-0.203-0.169-0.286-0.169c-0.254,0-1.838,0.268-1.396,0.543l1.264,0.788c0.578,0.36,1.322,0.784,2.065,0.788
					C236.44,199.795,237.131,199.678,237.131,199.678z"/>
			</g>
			<g>
				<path fill="#C4C8D8" d="M237.328,199.501c0,0,0.032,0.176-0.292,0.176c-0.233,0-0.289-0.176-0.289-0.176v-0.468
					c0-0.413-0.293-0.918-0.653-1.126l-0.833-0.481c-0.359-0.208-0.506-0.186-0.506,0.228v0.361c0,0,0.064,0.173-0.298,0.173
					c-0.254,0-0.284-0.173-0.284-0.173v-0.343c0-0.862,0.635-1.091,1.234-0.745l0.833,0.48c0.6,0.347,1.088,0.795,1.088,1.877
					V199.501z"/>
			</g>
		</g>
		<g>
			<path fill="#B9D3E1" d="M250.282,196.364c0,0-0.471-0.476-0.889-0.099c-0.419,0.377-1.586,2.876-1.903,3.288
				c-0.317,0.413-1.762,1.698-2.07,2.174c-0.31,0.476-0.294,0.793-0.294,0.793s-1.793,0.921-1.92,1.063s-0.206,0.476,0.477,1.618
				c0.682,1.143,1.095,1.158,1.364,0.984c0.27-0.176,1.158-1.032,1.476-1.096s0.937,0.158,1.317-0.079
				c0.38-0.238,0.872-0.838,1.443-1.188s2.332-2.873,2.649-3.587s0.848-2.793,0.956-3.475
				C252.996,196.078,253.042,194.841,250.282,196.364z"/>
			<g>
				<path fill="#E1E3EE" d="M243.725,207.854h-0.65c0-0.649,0.212-1.216,0.399-1.714c0.114-0.307,0.224-0.598,0.277-0.881
					c-0.032,0.018-0.063,0.039-0.088,0.057l-0.391-0.521c0.162-0.122,0.576-0.386,0.903-0.184c0.211,0.13,0.284,0.38,0.219,0.744
					c-0.063,0.349-0.189,0.686-0.312,1.013C243.907,206.838,243.725,207.323,243.725,207.854z M243.766,205.084L243.766,205.084
					L243.766,205.084z"/>
			</g>
			<path fill="#FFCC54" d="M245,206.098c-0.01,0.167-0.413,0.919-0.501,1.079c-0.088,0.158-0.293,0.587-0.794,0.516
				c-0.43-0.063-0.501-0.165-0.624-0.201c-0.02-0.008-0.04-0.012-0.065-0.014c-0.036-0.004-0.106-0.014-0.193-0.026h-0.002
				c-0.332-0.054-0.926-0.172-1.05-0.259c-0.068-0.048-0.108-0.096-0.129-0.132c0,0,0,0-0.002-0.002
				c-0.028-0.047-0.028-0.08-0.028-0.08s-0.044-0.01-0.107-0.03c-0.125-0.04-0.329-0.118-0.407-0.225
				c-0.007-0.01-0.015-0.021-0.022-0.032v-0.002c-0.09-0.15-0.034-0.329-0.034-0.329s-0.181,0.103-0.411,0.11
				c-0.184,0.006-0.296-0.014-0.368-0.11c-0.019-0.024-0.034-0.058-0.048-0.094c-0.064-0.181,0.305-0.47,0.305-0.47
				s0.118-0.254,0.214-0.389c0.095-0.135,0.784-0.904,0.967-1.072c0.183-0.165,1.508-0.754,1.714-0.696
				c0.207,0.055,0.476,0.301,0.476,0.301C244.935,204.813,245.007,205.932,245,206.098z"/>
			<path fill="#DEA954" d="M242.433,205.354c-0.062,0.195,0.07,0.338-0.072,0.361c-0.143,0.024-0.339,0.03-0.535,0.064
				c-0.196,0.036-0.369,0.215-0.56,0.423c-0.19,0.209-0.214,0.251-0.192,0.487c-0.09-0.15-0.034-0.329-0.034-0.329
				s-0.181,0.103-0.411,0.11c-0.184,0.006-0.296-0.014-0.368-0.11c0.16,0.089,0.4,0.064,0.589-0.032
				c0.209-0.107,0.263-0.298,0.436-0.435c0.172-0.137,0.529-0.405,0.672-0.571c0.143-0.167,0.178-0.219,0.267-0.327
				c0.09-0.108,0.379-0.221,0.379-0.221C242.628,204.869,242.492,205.155,242.433,205.354z"/>
			<path fill="#DEA954" d="M241.641,207.061c0,0,0,0-0.002-0.002c-0.028-0.047-0.028-0.08-0.028-0.08s-0.044-0.01-0.107-0.03
				c0,0,0.002,0,0.004,0c0.122,0.008,1.095-0.229,1.095-0.229C242.682,206.91,241.641,207.061,241.641,207.061z"/>
			<path fill="#DEA954" d="M243.271,207.411l-0.19,0.08c-0.02-0.008-0.04-0.012-0.065-0.014c-0.036-0.004-0.106-0.014-0.193-0.026
				L243.271,207.411z"/>
		</g>
	</g>
	<g>
		<path fill="#E1E3EE" d="M239.092,208.797c-0.148-0.167-0.076-0.615-0.066-0.808c0.013-0.266,0.046-0.53,0.108-0.789
			c0.077-0.323,0.2-0.7,0.459-0.927c0.382-0.336,0.83-0.593,1.297-0.791c0.272-0.116,0.553-0.213,0.838-0.293
			c0.151-0.043,0.304-0.082,0.457-0.116c0.041-0.009,0.141-0.062,0.177-0.025c0.03,0.03-0.021,0.21-0.027,0.252
			c-0.04,0.28-0.279,0.471-0.542,0.548c-0.233,0.069-0.463,0.152-0.688,0.25c-0.389,0.168-0.763,0.383-1.082,0.664
			c-0.205,0.181-0.265,0.57-0.305,0.82c-0.044,0.274-0.055,0.554-0.046,0.831c0.006,0.154,0.022,0.249-0.106,0.358
			c-0.086,0.072-0.201,0.112-0.313,0.1c-0.05-0.006-0.1-0.021-0.138-0.053C239.106,208.812,239.099,208.805,239.092,208.797z"/>
	</g>
</g>
</svg>
