<?xml version="1.0" encoding="utf-8"?>
<!-- Generator: Adobe Illustrator 16.0.0, SVG Export Plug-In . SVG Version: 6.00 Build 0)  -->
<!DOCTYPE svg PUBLIC "-//W3C//DTD SVG 1.1//EN" "http://www.w3.org/Graphics/SVG/1.1/DTD/svg11.dtd">
<svg version="1.1" id="Layer_1" xmlns="http://www.w3.org/2000/svg" xmlns:xlink="http://www.w3.org/1999/xlink" x="0px" y="0px"
	 width="463.683px" height="425.749px" viewBox="0 0 463.683 425.749" enable-background="new 0 0 463.683 425.749"
	 xml:space="preserve">
<g>
	<path fill="#6A3646" d="M204.697,282.787c0,0-1.571-0.487-2.856,0.524c-1.47,1.157-0.68,3.651-0.234,4.687
		c0.479,1.114,0.809,3.449-0.674,4.33c0.367,0.928,2.679,0.152,3.379-0.289C205.01,291.599,207.699,285.332,204.697,282.787z"/>
	<g>
		<path fill="#BDD6F2" d="M216.013,351.824c-4.291,2.73-11.447,3.025-15.984,0.66c-4.538-2.365-4.738-6.495-0.448-9.226
			c4.29-2.729,11.446-3.025,15.984-0.66C220.102,344.964,220.303,349.094,216.013,351.824z"/>
		<g>
			<g>
				<g>
					<path fill="#FFA1A3" d="M208.329,340.357c0,0-1.086,1.036-0.892,1.618s2.646,4.108,3.854,4.467
						c2.514,0.747,1.818-1.481,1.385-1.926c-0.381-0.392-1.876-1.448-1.914-2.516C210.711,340.562,208.329,340.357,208.329,340.357z
						"/>
					<path fill="#8E8E8E" d="M208.762,343.739c0,0-0.408,0.161-0.397,0.478c0.01,0.316,0.031,1.509,0.031,1.509
						s-0.271,0.163-0.43,0.099c-0.159-0.066-0.399-0.428-0.399-0.428s-0.337-2.33-0.479-2.8
						C206.944,342.128,208.762,343.739,208.762,343.739z"/>
					<path fill="#C2D2EA" d="M207.277,341.086c0,0,1.756,1.896,2.477,3.17c0.721,1.274,1.458,1.764,1.983,1.715
						c0.836-0.078,1.352-0.621,1.146-1.038c-0.206-0.416-0.206-0.416-0.206-0.416s2.262,2.134,2.059,3.561s-4.051-0.321-4.66-1.022
						c-0.233-0.268-0.776-2.287-1.297-2.842s-1.269-0.266-1.646-1.438C206.755,341.604,207.277,341.086,207.277,341.086z"/>
					<path fill="#8E8E8E" d="M208.658,343.938c0.521,0.555,1.269,2.665,1.502,2.934c0.567,0.652,3.95,2.168,4.576,1.181
						c-0.001,0.009,0,0.017-0.001,0.025c-0.203,1.427-4.051-0.321-4.66-1.022c-0.233-0.268-0.776-2.287-1.297-2.842
						c-0.453-0.483-1.309-0.275-1.577-1.248C207.563,343.188,208.28,343.535,208.658,343.938z"/>
				</g>
				<g>
					<path fill="#8E8E8E" d="M203.865,345.113c0,0-0.606-0.182-0.601,0.135c0.005,0.317,0.093,2.29,0.093,2.29
						s-0.14,0.136-0.298,0.068c-0.159-0.067-0.392-0.434-0.392-0.434s-0.248-1.928-0.239-2.418
						C202.439,344.173,203.865,345.113,203.865,345.113z"/>
					
						<linearGradient id="SVGID_1_" gradientUnits="userSpaceOnUse" x1="-979.4019" y1="293.7744" x2="-974.9482" y2="293.7744" gradientTransform="matrix(0.9991 -0.0431 0.0431 0.9991 1168.75 10.1523)">
						<stop  offset="0.1224" style="stop-color:#FEC7C7"/>
						<stop  offset="0.9694" style="stop-color:#FFADB7"/>
					</linearGradient>
					<path fill="url(#SVGID_1_)" d="M203.697,342.335c0,0-0.903,0.731-0.886,1.674c0.018,0.927,1.183,4.683,2.367,5.114
						c1.184,0.431,2.369-0.339,2.27-0.876c-0.1-0.538-1.151-2.2-1.441-3.519C205.697,343.321,203.697,342.335,203.697,342.335z"/>
					<path fill="#C2D2EA" d="M206.01,344.182c0,0,0.895,1.675,1.284,2.816c0.849,2.488,0.808,3.576,0.626,4.17
						c-0.19,0.618-1.979,0.065-3.249-0.973c-1.456-1.189-0.823-2.616-1.715-4.059c-0.29-0.469-0.558-0.81-0.553-1.926
						c-0.013-0.947,0.826-1.342,0.826-1.342s-0.634,0.961-0.296,1.764c0.17,0.403,0.107,0.578,0.363,1.083
						c0.51,1.005,0.595,1.987,1.327,2.714c0.687,0.683,2.72,0.262,2.665-0.141c-0.102-0.745-0.755-2.002-1.015-2.699
						C205.964,344.757,206.01,344.182,206.01,344.182z"/>
					<path fill="#8E8E8E" d="M203.016,346.029c0.892,1.442,0.219,2.777,1.675,3.967c1.176,0.961,2.898,1.531,3.258,1.079
						c-0.01,0.031-0.02,0.063-0.029,0.093c-0.19,0.618-1.979,0.065-3.249-0.973c-1.456-1.189-0.823-2.617-1.715-4.059
						c-0.189-0.307-0.478-0.609-0.508-1.211C202.612,345.248,202.876,345.803,203.016,346.029z"/>
				</g>
				<path fill="#4F5997" d="M207.632,341.626c0,0,0.214,0.399,0.714,0.619c0.511,0.227,1.316,0.264,2.494-0.501
					c0,0,0.279-14.673,1.094-18.974l-3.508,6.188l-1.472,0.053l-0.002,0.001c0,0-0.607,4.719-0.243,7.195
					C207.077,338.686,207.632,341.626,207.632,341.626z"/>
				<path fill="#4F5997" d="M206.888,328.848c0.018,0.058,0.039,0.111,0.064,0.164l0.002-0.001c0.217,0.46,0.689,0.733,1.231,0.853
					c1.072,0.238,2.419-0.124,2.653-0.841c0.015-0.044,0.03-0.097,0.048-0.155c0.423-1.406,1.324-7.323,1.892-11.722
					c0.591-4.583-0.63-7.824-0.63-7.824l-5.518,2.07c0,0-0.048,2.701-0.067,5.94C206.542,321.771,206.604,327.953,206.888,328.848z"
					/>
				<path fill="#A8B0C2" d="M207.632,341.626c0,0,0.214,0.399,0.714,0.619c-0.377-2.454-0.99-6.648-0.887-7.513
					c0.066-0.58,0.213-3.42,0.371-4.787c1.072-9.283,0.945-12.163,0.945-12.163l1.194-1.819l-3.406,1.369
					c-0.023,4.439,0.04,10.621,0.324,11.516c0.018,0.058,0.039,0.111,0.064,0.164c0,0-0.607,4.719-0.243,7.195
					C207.077,338.686,207.632,341.626,207.632,341.626z"/>
				<path fill="#4F5997" d="M210.089,313.284l0.782,0.916c0,0,0.068,1.132-2.433,3.014c-0.015,2.653-0.898,8.145-1.822,13.156
					c-0.396,2.146-3.373,0.452-3.804-1.896c-0.431-2.349-2.349-9.712-2.514-11.523s-0.308-3.654,0.947-4.722
					C202.501,311.16,210.089,313.284,210.089,313.284z"/>
				<path fill="#4F5997" d="M205.994,343.628c-0.469-1.644-0.048-10.651,0.623-13.258c-3.463-2.015-3.906-2.406-3.906-2.406
					s-1.21,5.706-1.214,8.035c-0.003,1.331,1.451,7.909,1.451,7.909S204.298,345.334,205.994,343.628z"/>
				<g>
					<path fill="#8C92B0" d="M203.376,344.719l0.244-0.062c-0.014-0.058-1.428-5.749-1.44-8.38
						c-0.009-2.047,0.465-4.697,0.777-6.451c0.147-0.82,0.263-1.469,0.293-1.836s-0.188-1.414-0.492-2.863
						c-0.69-3.298-1.734-8.281-0.87-10.158l-0.229-0.105c-0.899,1.953,0.155,6.985,0.852,10.314
						c0.287,1.375,0.515,2.461,0.488,2.792c-0.03,0.354-0.145,0.998-0.29,1.813c-0.315,1.763-0.791,4.427-0.782,6.497
						C201.94,338.939,203.362,344.66,203.376,344.719z"/>
				</g>
			</g>
			<g>
				<path fill="#FEBFBF" d="M210.716,292.169c0,0,1.454-0.291,1.924,0.593c0.47,0.884,2.194,10.557,2.171,11.063
					c-0.023,0.506-1.917,2.522-2.958-1.847C210.813,297.609,210.716,292.169,210.716,292.169z"/>
				<path fill="#FEBFBF" d="M212.325,305.521c0,0,2.489-0.429,2.583-0.392c0.093,0.038,3.014-0.823,1.736-1.159
					s-2.066-0.358-2.066-0.358S210.615,304.094,212.325,305.521z"/>
				<g>
					<path fill="#E6F1FF" d="M209.231,291.4l1.517,0.033c0,0,1.69,0.314,2.173,1.427c0.482,1.111,0.861,3.604,0.861,3.604
						s-0.644,0.48-1.345,0.792C211.736,297.568,209.231,291.4,209.231,291.4z"/>
				</g>
				<path fill="#DDE8F6" d="M201.304,312.759c0.146,0.152,0.533,0.355,1.075,0.552c1.293,0.467,3.479,0.895,5.461,0.515
					c2.813-0.54,4.563-1.907,4.85-3.004c-0.051-0.474-0.033-5.296,0.049-6.409c0.083-1.113,0.877-3.147,0.885-3.941
					c0.008-0.791-0.642-2.491-0.792-3.378c-0.15-0.886-1.013-4.46-1.399-4.882c-0.282-0.309-0.777-0.582-1.707-0.729
					c-0.676-0.105-4.418-0.609-5.176-0.307c-0.761,0.302-1.503,0.916-2.325,1.482c-0.823,0.565-2.855,2.024-2.855,2.024
					s0.894,3.357,1.19,5.192c0.073,0.457,0.131,0.849,0.164,1.115c0.162,1.324,0.16,8.52,0.16,8.52S200.807,312.242,201.304,312.759
					z"/>
				<path fill="#FEBFBF" d="M204.483,291.055c-0.142,0.008-0.504,0.551-1.133,0.867c-0.628,0.315-0.647,0.4,0.117,1.091
					c0.764,0.691,3.486,3.78,5.204,3.403s1.621-2.051,1.549-2.719c-0.072-0.669-1.104-2.187-1.437-2.33
					C208.451,291.223,204.483,291.055,204.483,291.055z"/>
				<path fill="#DDE8F6" d="M201.304,312.759c0.146,0.152,0.533,0.355,1.075,0.552c-0.023-0.139-0.053-0.29-0.088-0.454
					c-0.893-4.21,0.337-3.718,0.448-5.425c0.113-1.711-0.362-3.051,0.216-2.971c0.578,0.079,1.32,0.123,2.229-0.321
					c-0.742,0.287-1.673,0.194-2.289-0.24c-0.616-0.436-0.407-3.799-0.407-3.799c-0.78-0.354-1.414-0.4-1.928-0.226
					c0.073,0.457,0.131,0.849,0.164,1.115c0.162,1.324,0.16,8.52,0.16,8.52S200.807,312.242,201.304,312.759z"/>
				<g>
					<path fill="#FEBFBF" d="M200.918,294.918c0,0,1.073,0.093,1.276,1.989s-0.872,10.173-1.58,10.984
						c-0.708,0.812-1.792,0.303-2.113-1.485c-0.32-1.787-0.268-6.963-0.243-7.592C198.283,298.187,198.479,293.924,200.918,294.918z
						"/>
					<path fill="#FEBFBF" d="M200.405,306.828c0,0,0.365,0.311,0.66,1.604c0.295,1.294,0.929,7.557,1.421,8.202
						c0.493,0.646,1.055,1.166,1.055,1.166s0.561,0.943,0.592,1.233c0.031,0.292,0.263,0.911,0.381,1.064
						c0.118,0.152,0.52,0.726,0.488,0.857c-0.032,0.133-0.418,0.221-0.583,0.063c-0.164-0.156-0.644-1.283-0.803-1.486
						c-0.16-0.204-0.334-0.268-0.334-0.268s-0.162,0.789-0.104,0.986c0.058,0.195,0.61,1.489,0.61,1.489s0.536,0.798,0.553,0.87
						c0.017,0.071-0.281,0.131-0.433,0s-0.115,0.132-0.417,0.054c-0.303-0.077-1.122-0.772-1.122-0.772l-0.13-0.18l-0.601-0.109
						c0,0-0.869-1.416-0.929-1.805c-0.06-0.39-0.366-3.412-0.366-3.412s-2.67-7.331-1.688-9.369
						C199.105,306.379,200.405,306.828,200.405,306.828z"/>
					
						<linearGradient id="SVGID_2_" gradientUnits="userSpaceOnUse" x1="3857.9761" y1="102.7715" x2="3859.3569" y2="102.7715" gradientTransform="matrix(-0.9943 0.1065 0.1065 0.9943 4028.8311 -191.5432)">
						<stop  offset="0.1224" style="stop-color:#FCA4B5"/>
						<stop  offset="0.9896" style="stop-color:#FFADB7"/>
					</linearGradient>
					<path fill="url(#SVGID_2_)" d="M202.301,320.571c0,0,0.527,1.116,0.642,1.229c0.116,0.111,0.965,0.81,0.965,0.81l-0.193,0.021
						c0,0-0.388-0.396-0.485-0.468c-0.097-0.072-0.434-0.381-0.434-0.381l-0.47-0.971L202.301,320.571z"/>
					
						<linearGradient id="SVGID_3_" gradientUnits="userSpaceOnUse" x1="3859.5405" y1="102.2354" x2="3860.0562" y2="102.2354" gradientTransform="matrix(-0.9943 0.1065 0.1065 0.9943 4028.8311 -191.5432)">
						<stop  offset="0.1224" style="stop-color:#FCA4B5"/>
						<stop  offset="0.9896" style="stop-color:#FFADB7"/>
					</linearGradient>
					<path fill="url(#SVGID_3_)" d="M201.605,320.646l0.495,0.948l0.139,0.117l-0.135-0.023c0,0-0.202-0.204-0.26-0.363
						C201.785,321.164,201.605,320.646,201.605,320.646z"/>
					<path fill="#E6F1FF" d="M200.775,294.693c0,0,0.972,0.186,1.461,1.527c0.489,1.341,0.002,4.788,0.002,4.788
						s-1.409-0.139-2.857-0.521s-1.587-1.028-1.587-1.028s0.739-3.146,0.991-3.628S199.063,294.173,200.775,294.693z"/>
				</g>
			</g>
			<g>
				
					<linearGradient id="SVGID_4_" gradientUnits="userSpaceOnUse" x1="3853.9155" y1="73.6895" x2="3851.2881" y2="70.3838" gradientTransform="matrix(-0.9943 0.1065 0.1065 0.9943 4028.8311 -191.5432)">
					<stop  offset="0.1224" style="stop-color:#FEC7C7"/>
					<stop  offset="0.9694" style="stop-color:#FFADB7"/>
				</linearGradient>
				<path fill="url(#SVGID_4_)" d="M209.218,290.782c0,0-0.297,0.708-0.228,1.349c0.068,0.642,0.431,1.707,0.431,1.707
					s-0.389,0.76-1.958,0.596c-1.569-0.162-1.628-0.708-2.127-0.986c-0.499-0.277-1.786-1.558-1.707-1.649
					c0.08-0.091,1.375-0.747,0.864-2.607c-0.511-1.86-1.254-2.819-1.254-2.819s-0.44-0.78,0.104-0.839
					C203.886,285.475,209.218,290.782,209.218,290.782z"/>
				
					<linearGradient id="SVGID_5_" gradientUnits="userSpaceOnUse" x1="3849.3062" y1="73.377" x2="3852.8647" y2="73.377" gradientTransform="matrix(-0.9943 0.1065 0.1065 0.9943 4028.8311 -191.5432)">
					<stop  offset="0.1224" style="stop-color:#FCA4B5"/>
					<stop  offset="0.9896" style="stop-color:#FFADB7"/>
				</linearGradient>
				<path fill="url(#SVGID_5_)" d="M205.546,289.915c0,0,1.346,1.24,1.633,1.872s1.593,1.485,1.593,1.485l0.209-1.406l0.237-1.084
					L205.546,289.915z"/>
				<path fill="#FEC7C7" d="M209.531,282.109c0,0,0.572,0.449,0.95,1.402c0.378,0.953,0.645,1.767,0.622,1.935
					s-0.164,0.528,0.061,1.208s-0.445,4.092-1.181,4.432c-0.736,0.342-4.155-0.782-4.538-1.266
					c-0.383-0.484-1.367-2.448-1.495-3.773c-0.128-1.324-0.528-2.869,1.386-3.682S209.531,282.109,209.531,282.109z"/>
				<g>
					
						<linearGradient id="SVGID_6_" gradientUnits="userSpaceOnUse" x1="3848.2505" y1="69.2168" x2="3847.2336" y2="69.2486" gradientTransform="matrix(-0.9943 0.1065 0.1065 0.9943 4028.8311 -191.5432)">
						<stop  offset="0.1224" style="stop-color:#FEC7C7"/>
						<stop  offset="0.9896" style="stop-color:#FFDBDB"/>
					</linearGradient>
					<path fill="url(#SVGID_6_)" d="M209.997,285.817c-0.07,0.376,0.913,1.904,0.958,2.246c0.046,0.343-0.917,0.326-0.917,0.326
						L209.997,285.817z"/>
					
						<linearGradient id="SVGID_7_" gradientUnits="userSpaceOnUse" x1="3847.2388" y1="69.2451" x2="3848.2437" y2="69.2451" gradientTransform="matrix(-0.9943 0.1065 0.1065 0.9943 4028.8311 -191.5432)">
						<stop  offset="0.188" style="stop-color:#FFDCDC"/>
						<stop  offset="0.8991" style="stop-color:#FEC7C7"/>
					</linearGradient>
					<path fill="url(#SVGID_7_)" d="M210.203,288.438c0.226-0.01,0.608-0.05,0.749-0.207c0.045-0.051,0.063-0.109,0.054-0.174
						c-0.02-0.15-0.197-0.49-0.402-0.884c-0.265-0.51-0.594-1.143-0.557-1.346l-0.1-0.019c-0.044,0.237,0.267,0.834,0.566,1.411
						c0.192,0.369,0.374,0.718,0.392,0.851c0.004,0.035-0.005,0.064-0.03,0.092c-0.137,0.154-0.654,0.181-0.837,0.177l-0.002,0.102
						C210.056,288.44,210.119,288.441,210.203,288.438z"/>
				</g>
				<g>
					<path fill="#754554" d="M207.394,285.957c1.175-0.253,1.819-0.181,1.825-0.18l0.021-0.169
						c-0.027-0.002-0.675-0.077-1.882,0.184L207.394,285.957z"/>
				</g>
				<g>
					<path fill="#754554" d="M210.241,285.588c0.236-0.166,0.63-0.385,0.757-0.359l0.034-0.165
						c-0.258-0.054-0.784,0.313-0.888,0.385L210.241,285.588z"/>
				</g>
				
					<ellipse transform="matrix(-0.9579 0.287 -0.287 -0.9579 490.0586 501.4327)" fill="#FFFFFF" cx="208.282" cy="286.63" rx="0.357" ry="0.306"/>
				
					<ellipse transform="matrix(-0.7037 -0.7105 0.7105 -0.7037 155.32 637.1328)" fill="#FFFFFF" cx="210.514" cy="286.179" rx="0.251" ry="0.288"/>
				<path fill="#FB7F9E" d="M208.954,289.609c0,0,0.977-0.346,1.372-0.402c0.394-0.056,0.422,0.079,0.396,0.213
					C210.694,289.555,210.088,290.53,208.954,289.609z"/>
				<path fill="#754554" d="M203.466,286.559c0,0,0.309-0.404,0.543-0.271c0.235,0.135,0.676,0.315,0.695,0.499
					c0.02,0.185,0.195,1.18,0.195,1.18s0.417-0.741,0.338-1.479c-0.079-0.736,0.142-1.768,0.438-2.228
					c0.296-0.459,0.593-1.167,1.298-1.284s1.685,0.013,2.26-0.035s0.807-0.254,0.807-0.254l0.526,1.041c0,0-0.035-0.521-0.359-1.104
					c-0.325-0.581-2.678-3.228-5.942-1.359c-2.399,1.182-2.223,3.854-1.844,4.82s1.519,1.819,1.637,2.116
					c0.118,0.296,0.433,0.712,0.435,0.988s-0.143-1.033-0.379-1.588C203.877,287.049,203.466,286.559,203.466,286.559z"/>
				
					<linearGradient id="SVGID_8_" gradientUnits="userSpaceOnUse" x1="3853.3315" y1="69.0186" x2="3854.9673" y2="69.0186" gradientTransform="matrix(-0.9943 0.1065 0.1065 0.9943 4028.8311 -191.5432)">
					<stop  offset="0.1224" style="stop-color:#FEB9B8"/>
					<stop  offset="1" style="stop-color:#FFDEDE"/>
				</linearGradient>
				<path fill="url(#SVGID_8_)" d="M204.344,286.771c0,0-0.85-0.841-1.15-0.173c-0.301,0.666,0.379,1.415,0.818,1.775
					c0.439,0.359,0.76,0.456,0.883,0.257s-0.209-0.923-0.209-0.923L204.344,286.771z"/>
				
					<linearGradient id="SVGID_9_" gradientUnits="userSpaceOnUse" x1="3853.5952" y1="68.9087" x2="3854.729" y2="68.9087" gradientTransform="matrix(-0.9943 0.1065 0.1065 0.9943 4028.8311 -191.5432)">
					<stop  offset="0.1224" style="stop-color:#FCA4B5"/>
					<stop  offset="0.9896" style="stop-color:#FFADB7"/>
				</linearGradient>
				<path fill="url(#SVGID_9_)" d="M204.221,286.783c0,0-0.542-0.479-0.763-0.104c-0.222,0.375-0.028,1.031,0.545,1.576
					c0.549,0.197,0.627-0.039,0.62-0.107c-0.007-0.068-0.219-0.37-0.248-0.64C204.346,287.24,204.221,286.783,204.221,286.783z"/>
			</g>
			<g>
				<path fill="#FEBFBF" d="M214.29,303.887l0.412-0.964c0,0,1.133-0.333,1.396-0.278c0.263,0.055,2.146,0.874,2.146,0.874
					s0.844,0.747,0.275,1.028c-0.567,0.282-1.106,0.237-1.106,0.237l-0.048,0.586l-0.917,0.715l-0.912-0.013l-0.732-0.586
					l-0.791-0.144c0,0-0.556-0.806-0.389-0.971s0.673-0.072,0.673-0.072l0.465,0.052L214.29,303.887z"/>
				<g>
					<path fill="#C4C8D8" d="M213.09,304.77c-0.055,0.023,0.02,0.412,0.024,0.422c0.007,0.016,0.084,0.015,0.21-0.006
						c1.936-0.319,3.142-0.519,5.073-0.837c0.212-0.035,0.514-0.114,0.658-0.175c0.002-0.001,0.003-0.002,0.005-0.002
						c0.629-0.265,1.255-0.527,1.885-0.791c0.053-0.022,0.079-0.041,0.079-0.052c0-0.004-0.029-0.407-0.036-0.409
						c-0.024-0.008-0.355,0.134-0.465,0.152c-1.932,0.319-2.846,0.779-4.782,1.1c-0.209,0.032-0.515,0.115-0.663,0.177
						c-0.629,0.264-1.353,0.155-1.982,0.419C213.093,304.768,213.092,304.769,213.09,304.77L213.09,304.77z"/>
					<path fill="#F5F5F5" d="M220.798,302.995c-0.615,0.259-1.234,0.519-1.851,0.776c-0.12,0.051-0.375,0.119-0.557,0.148
						c-1.911,0.315-3.098,0.512-5.014,0.827c-0.182,0.03-0.226,0.011-0.105-0.04c0.616-0.258,1.235-0.518,1.851-0.775
						c0.12-0.051,0.37-0.118,0.552-0.148c1.916-0.316,3.103-0.512,5.014-0.827C220.87,302.927,220.918,302.944,220.798,302.995
						L220.798,302.995z M213.152,304.733c-0.144,0.061-0.069,0.077,0.136,0.044c1.936-0.319,3.142-0.519,5.073-0.837
						c0.211-0.036,0.514-0.114,0.658-0.175c0.002-0.001,0.003-0.002,0.005-0.002c0.629-0.265,1.255-0.527,1.884-0.791
						c0.139-0.06,0.098-0.086-0.13-0.047c-1.932,0.319-3.137,0.518-5.073,0.837c-0.209,0.033-0.516,0.116-0.663,0.178
						c-0.629,0.264-1.255,0.526-1.884,0.79C213.156,304.731,213.154,304.732,213.152,304.733L213.152,304.733z"/>
					<path fill="#7C78F0" d="M219.868,303.326c-0.153,0.063-0.307,0.128-0.46,0.192l-0.046,0.012l-0.008-0.003
						c0.153-0.064,0.307-0.129,0.46-0.193l0.041-0.011L219.868,303.326L219.868,303.326z M219.326,303.559l-0.087,0.023
						l-0.016-0.006l0.086-0.023L219.326,303.559L219.326,303.559z M219.214,303.612l-0.129,0.034l-0.023-0.009l0.124-0.033
						L219.214,303.612L219.214,303.612z M213.272,304.707c-0.12,0.051-0.076,0.07,0.105,0.04c1.916-0.315,3.103-0.512,5.014-0.827
						c0.182-0.029,0.437-0.098,0.557-0.148c0.616-0.258,1.235-0.518,1.851-0.776c0.12-0.051,0.071-0.068-0.11-0.039
						c-1.911,0.315-3.098,0.511-5.014,0.827c-0.182,0.03-0.432,0.098-0.552,0.148C214.507,304.189,213.888,304.449,213.272,304.707
						L213.272,304.707z"/>
					<path fill="#2A2A2C" d="M219.354,303.527c0.153-0.064,0.307-0.129,0.46-0.193l0.041-0.011l0.013,0.003
						c-0.153,0.063-0.307,0.128-0.46,0.192l-0.046,0.012L219.354,303.527L219.354,303.527z"/>
					<path fill="#838383" d="M219.185,303.617l-0.083,0.022l-0.011-0.007l0.074-0.021L219.185,303.617L219.185,303.617z
						 M219.062,303.638l0.023,0.009l0.129-0.034l-0.028-0.008L219.062,303.638L219.062,303.638z"/>
					<polygon fill="#516F83" points="219.091,303.633 219.166,303.612 219.185,303.617 219.102,303.64 219.091,303.633 					"/>
					<polygon fill="#2A2A2C" points="219.223,303.576 219.309,303.553 219.326,303.559 219.239,303.582 219.223,303.576 					"/>
				</g>
				
					<linearGradient id="SVGID_10_" gradientUnits="userSpaceOnUse" x1="3842.4937" y1="87.8057" x2="3845.3843" y2="87.8057" gradientTransform="matrix(-0.9943 0.1065 0.1065 0.9943 4028.8311 -191.5432)">
					<stop  offset="0.1224" style="stop-color:#FCA4B5"/>
					<stop  offset="0.9896" style="stop-color:#FFADB7"/>
				</linearGradient>
				<polygon fill="url(#SVGID_10_)" points="217.501,304.5 217.43,304.691 217.568,304.768 217.494,305.283 216.006,305.654 
					214.721,305.341 216.044,305.41 217.151,304.914 217.171,304.674 215.858,304.787 				"/>
				
					<linearGradient id="SVGID_11_" gradientUnits="userSpaceOnUse" x1="3843.3257" y1="86.1885" x2="3845.0969" y2="85.7337" gradientTransform="matrix(-0.9943 0.1065 0.1065 0.9943 4028.8311 -191.5432)">
					<stop  offset="0.1224" style="stop-color:#FEB9B8"/>
					<stop  offset="1" style="stop-color:#FFDEDE"/>
				</linearGradient>
				<path fill="url(#SVGID_11_)" d="M215.074,303.307c0,0,0.116,0.742,0.236,0.83s0.454,0.034,0.558-0.29
					c0.104-0.323,0.13-0.511,0.13-0.511l0.396,0.179c0,0,0.686-0.562,0.124-0.823s-1.242-0.262-1.242-0.262
					s-0.399,0.229-0.367,0.281C214.941,302.763,215.074,303.307,215.074,303.307z"/>
				
					<linearGradient id="SVGID_12_" gradientUnits="userSpaceOnUse" x1="3842.7144" y1="86.1587" x2="3844.1958" y2="86.1587" gradientTransform="matrix(-0.9943 0.1065 0.1065 0.9943 4028.8311 -191.5432)">
					<stop  offset="0.1224" style="stop-color:#FCA4B5"/>
					<stop  offset="0.9896" style="stop-color:#FFADB7"/>
				</linearGradient>
				<polygon fill="url(#SVGID_12_)" points="216.012,302.884 215.984,303.827 215.789,304.141 216.054,304.013 216.499,303.807 
					217.225,303.643 216.747,303.633 216.796,303.149 216.222,303.633 				"/>
			</g>
		</g>
	</g>
</g>
</svg>
