<?xml version="1.0" encoding="utf-8"?>
<!-- Generator: Adobe Illustrator 16.0.0, SVG Export Plug-In . SVG Version: 6.00 Build 0)  -->
<!DOCTYPE svg PUBLIC "-//W3C//DTD SVG 1.1//EN" "http://www.w3.org/Graphics/SVG/1.1/DTD/svg11.dtd">
<svg version="1.1" id="Layer_1" xmlns="http://www.w3.org/2000/svg" xmlns:xlink="http://www.w3.org/1999/xlink" x="0px" y="0px"
	 width="463.683px" height="425.749px" viewBox="0 0 463.683 425.749" enable-background="new 0 0 463.683 425.749"
	 xml:space="preserve">
<g>
	<path fill="#D7E4F2" d="M91.336,222.165c4.161,2.402,10.927,2.39,15.114-0.027c4.187-2.417,4.208-6.324,0.047-8.726
		c-4.161-2.402-10.928-2.391-15.114,0.027C87.197,215.856,87.175,219.763,91.336,222.165z"/>
	<path fill="#773952" d="M95.917,211.955l-0.337,2.4c0,0,3.743-0.906,3.807-1.581c0.064-0.675-0.078-2.185-0.078-2.185
		L95.917,211.955z"/>
	<path fill="#EBE1D5" d="M90.814,216.708c0.067,0.09,0.563,0.441,1.344,0.485c0.36,0.021,0.779-0.025,1.247-0.192
		c1.475-0.526,2.007-1.025,2.991-1.262c0.987-0.237,2.92-0.622,3.177-1.157c0.254-0.534-0.016-2.02-0.016-2.02
		s-0.308-0.121-0.434,0.098c-0.124,0.219-0.699,0.838-1.36,1.049c-0.467,0.148-1.01,0.11-1.287,0.074
		c-0.118-0.013-0.19-0.028-0.19-0.028s0.093-0.619,0.026-0.83c-0.064-0.211-0.732-0.604-0.732-0.604l-1.596,1.405
		c0,0-2.947,1.707-3.038,1.936C90.855,215.889,90.719,216.579,90.814,216.708z"/>
	<path fill="#FF6647" d="M92.243,188.686l0.629,12.952l0.013,0.268L92.904,202l1.449,8.627c0.031,0.756,0.139,1.463,0.35,2.08
		c0.231,0.678,0.622,1.254,1.843,1.248c0.55-0.002,1.27-0.123,2.221-0.406c1.683-0.501,1.505-1.616,1.505-1.616l-1.159-10.523
		l0.051-9.537c0.229-0.55,0.565-2.23,0.704-4.04c0.19-2.485,0.01-5.212-1.336-5.607c-2.49-0.73-4.847,0.75-4.847,0.75
		s-0.987,0.995-0.936,5.697L92.243,188.686z"/>
	<path fill="#E3C3C3" d="M96.545,213.955c0.55-0.002,1.27-0.123,2.221-0.406c1.683-0.501,1.505-1.616,1.505-1.616l-1.159-10.523
		l0.051-9.537c0.229-0.55-1.844-4.725-3.29-4.25c0.225,2.471,1.16,2.135,1.553,3.16c0.676,1.771-0.782,2.38-0.836,6.808
		c-0.054,4.428,1.725,10.992,1.933,13.002C98.673,212.021,97.329,213.325,96.545,213.955z"/>
	<g>
		<path fill="#DE4504" d="M98.513,213.593c-0.013-0.073-1.281-7.415-1.693-10.742c-0.413-3.346,0.279-13.043,0.308-13.454
			l0.513,0.037c-0.008,0.101-0.719,10.058-0.311,13.354c0.41,3.314,1.675,10.644,1.688,10.718L98.513,213.593z"/>
	</g>
	<path fill="#8E8E8E" d="M90.815,216.708c0.095,0.13,1.113,0.821,2.588,0.294c1.476-0.528,2.008-1.027,2.994-1.264
		s2.919-0.621,3.174-1.155c0.071-0.149,0.101-0.374,0.107-0.619c0.01,0.339-0.012,0.986-0.107,1.187
		c-0.255,0.533-2.189,0.604-3.174,0.839c-0.985,0.236-1.518,1.052-2.994,1.579c-1.476,0.528-2.493-0.163-2.588-0.293
		c-0.036-0.049-0.039-0.488-0.025-0.639C90.795,216.668,90.804,216.692,90.815,216.708z"/>
	<path fill="#773952" d="M102.095,214.406l-0.294,2.4c0,0,3.259-0.906,3.315-1.581s-0.067-2.185-0.067-2.185L102.095,214.406z"/>
	<path fill="#EBE1D5" d="M101.454,215.635c0,0,0.209-0.478,0.701-0.5c0.492-0.023,1.017,0.199,1.105,0.407
		c0.088,0.208,0.08,0.512,0.08,0.512s1.312-0.372,1.41-0.668s-0.003-1.03-0.003-1.03s1.028-0.012,1.107,0.467
		c0.078,0.477,0.048,2.317,0.052,2.642c0.004,0.325-1.939,1.776-2.081,2.343s-1.232,2.004-2.948,2.174
		c-1.717,0.169-1.953-1.598-1.954-1.877c-0.002-0.279,2.185-2.785,2.204-3.1S101.44,215.701,101.454,215.635z"/>
	<path fill="#8E8E8E" d="M100.876,221.648c1.716-0.17,2.92-1.717,3.062-2.284c0.142-0.565,1.972-2.111,1.968-2.436
		c-0.001-0.119,0.001-0.398,0.002-0.728c0,0.422-0.004,1.118-0.002,1.263c0.004,0.325-1.939,1.776-2.081,2.343
		s-1.232,2.004-2.948,2.174c-1.418,0.14-1.982-1.08-1.965-1.623C98.932,220.93,99.631,221.771,100.876,221.648z"/>
	<g>
		<path fill="#FF785C" d="M86.982,183.892l1.74,0.566l1.483,0.48c0,0,1.385-1.728,1.724-2.377c0.629-1.206,1.781-5.143,1.781-5.143
			l1.388-10.267l0.2-1.48l0.393-1.292l-3.24-0.987l-0.45,1.496l-2.305,10.646c0,0-2.033,4.221-2.426,5.727
			C87.104,181.9,86.982,183.892,86.982,183.892z"/>
	</g>
	<path fill="#F5B6A4" d="M88.583,182.689c-0.008,0.709,0.042,1.295,0.139,1.769l1.483,0.48c0,0,1.385-1.728,1.724-2.377
		c0.629-1.206,1.781-5.143,1.781-5.143l1.388-10.267c-1.226-0.234-2.362-0.01-2.457,1.562c-0.213,3.523-1.072,7.101-0.712,7.582
		c0.36,0.483,0.796,1.737,0.697,2.956c-0.101,1.223-1.784,3.813-1.784,3.813s-0.237-0.182-0.938-0.375
		C89.203,182.497,88.583,182.689,88.583,182.689z"/>
	<path fill="#FF785C" d="M93.493,162.049c-1.161,0.98-1.493,2.497-0.741,3.386c0.751,0.889,1.825,0.521,2.986-0.459
		c1.161-0.981,2.238-2.647,1.487-3.536C96.473,160.55,94.654,161.067,93.493,162.049z"/>
	<path fill="#FF6647" d="M97.91,190.528c0.252,0.306,1.249,11.508,1.249,11.508l1.794,12.302l-0.002,0.019
		c0,0,0.005,0.023,0.013,0.054l0.002,0.008c0.088,0.332,0.599,1.994,2.167,1.781c0.4-0.055,0.825-0.146,1.213-0.27
		c0.511-0.162,0.961-0.373,1.21-0.612c0.422-0.408,1.049-1.115,0.943-2.396l-0.666-7.885l-1.002-4.813l1.987-10.13
		c0.491-1.743,0.439-3.983,0.35-5.302c-0.002-0.036-0.002-0.072-0.008-0.105c-0.008-0.103-0.015-0.201-0.021-0.291
		c-0.002-0.028-0.005-0.057-0.008-0.087c-0.01-0.11-0.021-0.208-0.028-0.293c-0.01-0.093-0.021-0.188-0.031-0.283
		c-0.002-0.013-0.005-0.026-0.005-0.042c0-0.005-0.003-0.01-0.003-0.015c0,0-10.729-5.942-11.372-2.179
		C94.312,189.587,96.707,189.079,97.91,190.528z"/>
	<g>
		<path fill="#FF9061" d="M100.912,186.703c-0.113,0-0.228-0.001-0.344-0.003c-5.372-0.115-7.407-1.944-7.464-3.146l0.752-0.036
			c0.034,0.717,1.775,2.323,6.729,2.429c4.828,0.103,6.179-2.098,6.193-2.12l0.651,0.378
			C107.368,184.309,105.92,186.703,100.912,186.703z"/>
	</g>
	<g>
		<path fill="#FF9061" d="M97.381,189.86c-0.085,0-0.174-0.022-0.263-0.067c-0.356-0.18-0.752-0.755-0.778-1.596
			c-0.014-0.422,0.011-2.109,0.034-2.314l0.51,0.057c-0.018,0.162-0.045,1.817-0.031,2.241c0.021,0.667,0.32,1.046,0.473,1.142
			c0.001-0.021,0-0.049-0.003-0.085c-0.051-0.474-0.151-3.263,0.163-3.479l0.126-0.087l0.142,0.069l-0.117,0.229l0.001,0.002
			l0.227,0.099c-0.06,0.208-0.153,1.987-0.031,3.112c0.038,0.354-0.089,0.523-0.204,0.602
			C97.557,189.835,97.472,189.86,97.381,189.86z"/>
	</g>
	<g>
		<path fill="#FF6647" d="M92.747,172.839c0.812,4.978,0.853,11.259,0.853,11.259c0.565,0.383,1.136,0.707,1.701,0.979
			c4.061,1.95,8.003,1.229,10.082,0.398l0.002-0.003c0.84-0.336,1.377-0.691,1.493-0.895c0.27-0.47,0.239-2.174,0.175-3.731
			c-0.043-1.013-0.1-1.963-0.1-2.472c0-0.344,0.234-1.257,0.521-2.452c0.789-3.279,1.973-8.185,0.371-10.366
			c-1.242-1.692-3.892-3.288-6.128-4.133c-2.901-1.098-5.052-0.38-6.263,0.015C93.317,162.14,91.935,167.858,92.747,172.839z"/>
		<g>
			<path fill="#FF9061" d="M104.8,215.638l-0.101-0.504l0.051,0.252l-0.062-0.249c0.016-0.006,1.641-0.578,0.191-7.443
				c-0.451-2.136-0.783-3.487-1.026-4.474c-0.5-2.029-0.576-2.341-0.33-4.242c0.128-1,0.47-2.18,0.866-3.546
				c0.704-2.432,1.58-5.459,1.744-9.121c0.129-2.899-0.083-4.721-0.253-6.185c-0.169-1.458-0.303-2.608-0.043-4.163l0.506,0.084
				c-0.247,1.482-0.117,2.602,0.048,4.019c0.173,1.482,0.387,3.327,0.255,6.268c-0.166,3.723-1.052,6.782-1.764,9.24
				c-0.39,1.347-0.726,2.509-0.85,3.469c-0.234,1.806-0.182,2.019,0.319,4.054c0.244,0.991,0.577,2.347,1.03,4.489
				c1.006,4.762,0.582,6.726,0.049,7.535C105.149,215.549,104.856,215.627,104.8,215.638z"/>
		</g>
		<g>
			<path fill="#FF9061" d="M96.716,185.887c-0.016-0.1-1.567-10.224,1.442-22.313l0.73,0.182
				c-2.972,11.942-1.444,21.915-1.428,22.014L96.716,185.887z"/>
		</g>
	</g>
	<path fill="#E3C3C3" d="M92.948,189.415c0,0,9.321-2.118,12.436-3.939l0.002-0.003c0.509-0.298,0.854-0.589,0.961-0.858
		c0.29-0.727,0.524-2.205,0.707-3.768c-0.043-1.013-0.1-1.963-0.1-2.472c0-0.344,0.234-1.257,0.521-2.452
		c0.018-0.313,0.028-0.493,0.028-0.493l-4.363-4.752c0,0-1.291,2.246-1.422,4.752c-0.131,2.505-3.641,5.474-3.641,5.474
		l-2.622,3.888l-0.154,0.286L92.948,189.415z"/>
	<path fill="#FF785C" d="M93.212,186.981l0.565,0.907c0.136,0.218,0.332,0.352,0.553,0.419c0.275,0.084,0.596,0.062,0.907-0.026
		c2.822-0.799,5.533-2.438,7.211-3.41c0.586-0.337,1.945-1.611,1.945-1.611l0.298-0.671c0,0,3.681-6.646,4.461-12.3
		c0,0,0.036-0.977,0.018-1.707v-0.008c-0.005-0.17-0.013-0.326-0.023-0.452c-0.162-1.771-1.65-3.082-3.323-2.93
		c-1.521,0.139-2.667,1.444-2.742,3.012c-0.016,0.057-0.031,0.121-0.049,0.195l-0.771,5.582c-0.267,1.175-0.563,2.341-0.845,3.511
		l-0.948,2.667c-1.049,0.509-4.937,2.429-6.058,3.595c-0.247,0.257-0.666,0.758-0.997,1.115
		C92.88,185.447,92.793,186.311,93.212,186.981z"/>
	<g>
		<path fill="#FFA575" d="M94.885,187.849c-0.078,0-0.154-0.003-0.229-0.008l0.033-0.513c2.384,0.165,6.331-2.58,8.401-4.455
			c1.264-1.144,2.533-4.551,3.762-7.846c0.356-0.957,0.708-1.902,1.056-2.776c1.475-3.718,0.146-5.778,0.133-5.799
			c-0.017-0.027-0.491-0.852-2.44-2.07c-1.979-1.237-3.803-1.48-3.82-1.483c-1.692-0.401-6.193-1.413-7.083-1.327l-0.049-0.512
			c1.149-0.108,6.976,1.275,7.224,1.334c0.051,0.005,1.921,0.252,4.001,1.552c2.089,1.306,2.587,2.205,2.607,2.242
			c0.049,0.071,1.478,2.286-0.095,6.253c-0.346,0.87-0.696,1.812-1.052,2.766c-1.25,3.353-2.542,6.819-3.898,8.047
			C101.648,184.872,97.627,187.849,94.885,187.849z"/>
	</g>
	<path fill="#F5B6A4" d="M93.991,187.148l0.339,1.159c0.275,0.084,0.596,0.062,0.907-0.026c2.822-0.799,5.533-2.438,7.211-3.41
		c0.586-0.337,1.945-1.611,1.945-1.611l0.298-0.671c0,0,3.681-6.646,4.461-12.3c0,0,0.036-0.977,0.018-1.707
		c-0.216,1.948-0.599,3.722-1.624,6.269c-0.882,2.188-1.932,4.313-2.974,6.428c-0.234,0.477-0.362,0.935-0.66,1.384
		c-0.064,0.097-0.13,0.196-0.218,0.272c-0.769,0.669-1.565,1.332-2.445,1.856c-2.377,1.416-4.991,2.845-5.975,2.524
		s-1.244-0.992-1.244-0.992L93.991,187.148z"/>
	<g>
		<path id="XMLID_96_" fill="#FEBFBF" d="M90.066,184.881c-0.04,0.05-0.285,0.428-0.397,0.578c-0.112,0.152-0.52,0.516-0.592,0.848
			c-0.005,0.019-0.009,0.038-0.014,0.058c-0.084,0.323-0.297,0.72-0.458,0.974c-0.171,0.269-0.427,0.154-0.549,0.143
			c-0.124-0.011-0.389-0.207-0.509-0.174c-0.12,0.032-0.239-0.231-0.446-0.249c-0.209-0.018-0.248-0.28-0.47-0.275
			c-0.222,0.005-0.395-0.349-0.616-0.559c-0.222-0.211-0.164-0.249-0.336-0.659c-0.089-0.212-0.162-0.333-0.199-0.459
			c-0.037-0.118-0.042-0.24-0.006-0.446c0.074-0.423,1.19-1.7,1.203-1.714c0.118-0.136,0.531-0.044,0.693-0.069
			c0.271-0.041,0.549-0.131,0.823-0.064c0.241,0.059,0.513,0.137,0.708,0.284c0.149,0.112,0.301,0.22,0.455,0.326
			C89.928,183.838,90.106,184.831,90.066,184.881z"/>
		<path id="XMLID_95_" fill="#FEBFBF" d="M89.025,186.226c0.012,0.019,0.025,0.067,0.038,0.139c-0.084,0.323-0.297,0.72-0.458,0.974
			c-0.007,0.011-0.015,0.021-0.022,0.031c-0.17,0.228-0.41,0.123-0.526,0.111c-0.124-0.011-0.389-0.207-0.509-0.174
			c-0.12,0.032-0.239-0.231-0.446-0.249c-0.209-0.018-0.248-0.28-0.47-0.275c-0.222,0.005-0.395-0.349-0.616-0.559
			c-0.222-0.211-0.164-0.249-0.336-0.659c-0.089-0.212-0.162-0.333-0.2-0.458c0.002,0,0.002,0,0.001-0.001
			c0.038-0.095,0.081-0.198,0.127-0.299c0.177-0.388,0.407-0.751,0.605-0.56c0.025,0.021,0.049,0.051,0.071,0.091
			c0.04,0.066,0.077,0.16,0.112,0.285c0,0,0.462-0.342,0.767-0.031c0.306,0.31,0.592,0.285,0.644,0.354
			c0.053,0.07,0.311,0.353,0.311,0.353s0.106,0.126,0.312,0.248c0.205,0.124,0.159,0.333,0.159,0.333S88.972,186.145,89.025,186.226
			z"/>
		<path id="XMLID_94_" fill="#FEBFBF" d="M87.303,186.838c0.002,0.024,0.02,0.045,0.036,0.064c0.083,0.095,0.184,0.174,0.296,0.232
			c0.026,0.015,0.054,0.028,0.084,0.025c0.029-0.002,0.055-0.019,0.079-0.035c0.379-0.268,0.563-0.731,0.724-1.167
			c-0.046,0.325-0.208,0.624-0.393,0.896c-0.045,0.067-0.095,0.136-0.109,0.215c-0.016,0.093,0.02,0.193,0.092,0.255
			c0.073,0.061,0.177,0.079,0.266,0.047c0.038-0.014,0.072-0.035,0.112-0.035c0.034,0.001,0.063,0.02,0.093,0.035
			c-0.17,0.228-0.41,0.123-0.526,0.111c-0.124-0.011-0.389-0.207-0.509-0.174c-0.12,0.032-0.239-0.231-0.446-0.249
			c-0.209-0.018-0.248-0.28-0.47-0.275c-0.222,0.005-0.395-0.349-0.616-0.559c-0.222-0.211-0.164-0.249-0.336-0.659
			c-0.089-0.212-0.162-0.333-0.2-0.458c0.002,0,0.002,0,0.001-0.001c0.038-0.095,0.081-0.198,0.127-0.299
			c0.17-0.221,0.371-0.414,0.605-0.56c0.024-0.015,0.049-0.031,0.074-0.044c0.001,0.044,0.001,0.09-0.003,0.135
			c-0.01,0.217-0.063,0.433-0.153,0.632c-0.054,0.118-0.122,0.231-0.166,0.354c-0.036,0.1-0.072,0.247-0.027,0.351
			s0.164,0.214,0.239,0.302c0.04,0.045,0.084,0.091,0.141,0.106c0.089,0.025,0.181-0.03,0.254-0.088
			c0.356-0.282,0.624-0.675,0.755-1.108c-0.133,0.46-0.392,0.882-0.74,1.208c-0.017,0.016-0.038,0.035-0.039,0.06
			c-0.001,0.02,0.007,0.037,0.018,0.054c0.137,0.219,0.366,0.361,0.587,0.495c0.016,0.011,0.034,0.021,0.054,0.023
			c0.032,0.004,0.062-0.014,0.089-0.033c0.138-0.103,0.229-0.252,0.311-0.402c0.181-0.336,0.32-0.694,0.412-1.065
			c0.022,0.103-0.014,0.209-0.051,0.308c-0.108,0.285-0.24,0.563-0.371,0.839c-0.06,0.128-0.124,0.26-0.227,0.355
			C87.338,186.759,87.299,186.794,87.303,186.838z"/>
		<path id="XMLID_93_" fill="#FEBFBF" d="M86.71,184.065c0,0-0.52,0.401-0.552,0.542s-0.086,0.82-0.341,1.057
			c-0.255,0.236-0.696,0.346-0.724,0.029c-0.027-0.317-0.146-1.135-0.146-1.135s-0.029-0.305,0.611-0.853
			c0.64-0.547,0.98-0.719,1.119-0.759c0.138-0.041,0.48-0.141,0.48-0.141s0.859-0.006,1.057,0.135
			c0.197,0.141,0.764,0.356,0.695,0.924s-0.66,0.934-1.095,0.918C87.381,184.766,86.812,184.092,86.71,184.065z"/>
	</g>
	<g>
		<path id="XMLID_92_" fill="#FEBFBF" d="M94.399,187.524c0.022,0.182,0.022,0.373-0.063,0.483c-0.088,0.115-0.331,0.17-0.465,0.232
			c0,0-0.532,0.335-0.578,0.381c-0.042,0.042-0.915,1.035-1.237,1.354c-0.039,0.039-0.069,0.066-0.09,0.083
			c-0.19,0.15-1.5-0.221-1.615-0.313c-0.115-0.093-0.567-0.545-0.544-0.718c0.004-0.035,0.004-0.065-0.001-0.09
			c-0.018-0.104-0.097-0.153-0.125-0.246c-0.034-0.115-0.231-0.613-0.231-0.613s0.058-0.614,0.104-0.833
			c0.046-0.221,0.336-0.395,0.336-0.395s0-0.22,0-0.324c0-0.014,0.007-0.036,0.019-0.064c0.083-0.193,0.412-0.686,0.501-0.903
			c0.049-0.115,0.266-0.272,0.502-0.407c0.279-0.158,0.585-0.286,0.68-0.279c0.107,0.009,0.642,0.212,1.035,0.368
			c0.638,0.25,1.367,0.8,1.604,1.472c0.052,0.147,0.08,0.302,0.107,0.456C94.354,187.259,94.383,187.39,94.399,187.524z"/>
		<path id="XMLID_91_" fill="#FEBFBF" d="M91.541,189.983c0.113,0,0.325-0.006,0.516-0.008c-0.039,0.039-0.069,0.066-0.09,0.083
			c-0.19,0.15-1.5-0.221-1.615-0.313c-0.115-0.093-0.567-0.545-0.544-0.718c0.004-0.035,0.004-0.065-0.001-0.09
			c-0.018-0.104-0.097-0.153-0.125-0.246c-0.034-0.115-0.231-0.613-0.231-0.613s0.058-0.614,0.104-0.833
			c0.046-0.221,0.336-0.395,0.336-0.395s0-0.22,0-0.324c0-0.014,0.007-0.036,0.019-0.064c0.083-0.193,0.412-0.686,0.501-0.903
			c0.049-0.115,0.266-0.272,0.502-0.407l1.324,0.506l-0.2,0.481l-0.46,0.179l-0.772,0.62l-0.495,0.058c0,0-0.018-0.295-0.139-0.069
			c-0.122,0.225-0.139,0.503-0.139,0.503l1.51,0.156h-0.85l-0.895-0.156l-0.096,0.382l0.206,0.468l1.635,0.347h-0.495l-1.277-0.294
			c0,0-0.086,0.348,0.061,0.452s0.339,0.208,0.339,0.208l1.097,0.339h-0.298l-1.161-0.394c0.026,0.035,0.46,0.594,0.518,0.653
			C90.386,189.652,91.308,189.983,91.541,189.983z"/>
		<path id="XMLID_90_" fill="#FEBFBF" d="M92.626,185.24c-0.09,0.168-0.215,0.33-0.391,0.417l-1.12,0.911
			c0,0-0.208,0.296-0.668,0.357c-0.459,0.06-0.564-0.132-0.54-0.464c0.083-0.193,0.412-0.686,0.501-0.903
			c0.104-0.25,1.008-0.7,1.182-0.687C91.698,184.881,92.233,185.084,92.626,185.24z"/>
	</g>
	<path fill="#EEEFF0" d="M92.374,184.675c0,0,0.28-0.234,1.184,0.227c1.459,0.745,1.885,2.683,1.663,3.329
		c-0.223,0.646-0.743,1.301-1.914,0.422l0.407-0.507c0,0,0.822,0.449,0.931-0.294c0.108-0.744-0.049-1.356-0.66-2
		C93.568,185.411,92.857,184.899,92.374,184.675z"/>
	<path fill="#EEEFF0" d="M92.374,184.675l-0.345,0.381l1.351,0.514c0,0,1.586,1.588,1.231,2.688
		c-0.354,1.099-0.535,0.942-0.535,0.942s0.404,0.438,0.855-0.514c0.451-0.953-0.159-1.981-0.159-1.981S93.617,184.85,92.374,184.675
		z"/>
	<path fill="#C2C5C7" d="M92.028,185.011c0,0,0.281-0.234,1.184,0.227c1.46,0.745,1.886,2.682,1.663,3.329s-0.743,1.301-1.914,0.423
		l0.407-0.508c0,0,0.822,0.45,0.931-0.294c0.108-0.743-0.048-1.355-0.659-2C93.222,185.748,92.511,185.236,92.028,185.011z"/>
	<path fill="#EEEFF0" d="M86.833,182.722c0,0-0.253-0.601,0.501-0.901c0.753-0.299,2.625,0.679,3.055,1.282
		c0.466,0.652,0.949,1.863-0.045,2.263c-0.377,0.152-0.667,0.168-0.876,0.149l0.417-0.809c0,0,0.5,0.094,0.162-0.867
		c-0.338-0.96-1.527-1.451-2.292-1.388S86.833,182.722,86.833,182.722z"/>
	<path fill="#EEEFF0" d="M86.584,182.743c0,0,0.031-0.335,0.303-0.587c0.272-0.251,3.429,0.621,3.729,1.55
		c0.301,0.93,0.309,1.028,0.309,1.028s-0.18,0.686-0.362,0.787c-0.183,0.101-0.6-0.144-0.6-0.144l0.108-1.175l-1.213-1.235
		l-2.067-0.375L86.584,182.743z"/>
	<path fill="#C2C5C7" d="M86.625,183.113c0,0-0.252-0.601,0.501-0.901s2.625,0.679,3.056,1.281c0.465,0.652,0.948,1.864-0.045,2.263
		c-0.377,0.152-0.668,0.168-0.876,0.149l0.417-0.809c0,0,0.5,0.095,0.162-0.866c-0.337-0.961-1.527-1.451-2.292-1.388
		C86.782,182.906,86.625,183.113,86.625,183.113z"/>
	<path fill="#FBFBFB" d="M93.192,168.876c0,0,1.478,0.916,2.265,0.899c-0.064,0.819,0,0.899,0,0.899s-0.787,0.048-1.542-0.385
		c-0.755-0.434-0.755-0.434-0.755-0.434L93.192,168.876z"/>
	<path fill="#E3C3C3" d="M104.345,215.93c0.511-0.162,0.961-0.373,1.21-0.612c0.422-0.408,1.049-1.115,0.943-2.396l-0.666-7.885
		l-1.002-4.813l1.987-10.13c0.491-1.743,0.439-3.983,0.35-5.302c0.157,2.681-0.437,4.431-1.095,6.862
		c-0.748,2.755-2.07,8.983-2.07,8.983c1.37,4.819,2.216,11.351,2.003,12.849C105.854,214.533,104.905,215.464,104.345,215.93z"/>
	<g>
		<path fill="#FFA575" d="M100.527,180.259c0.542-0.241,1.322,0.217,1.755,0.594c0.111,0.096,0.273-0.065,0.162-0.162
			c-0.512-0.444-1.329-0.942-2.033-0.63C100.278,180.122,100.394,180.318,100.527,180.259L100.527,180.259z"/>
	</g>
	<g>
		<path fill="#B8BDC2" d="M89.904,183.636c-0.079,0-0.154-0.023-0.22-0.069c-0.084-0.059-0.142-0.147-0.16-0.249l-0.011-0.062
			c-0.018-0.102,0.004-0.204,0.063-0.289c0.059-0.085,0.147-0.142,0.249-0.16l0.742-0.135c0.104-0.018,0.206,0.004,0.29,0.063
			c0.085,0.059,0.142,0.147,0.16,0.249l0.011,0.061c0.019,0.102-0.004,0.205-0.063,0.289c-0.059,0.085-0.147,0.142-0.249,0.161
			l-0.742,0.135C89.95,183.634,89.927,183.636,89.904,183.636z M90.637,182.924c-0.007,0-0.016,0-0.023,0.002l-0.743,0.135
			c-0.035,0.006-0.064,0.024-0.084,0.053c-0.02,0.028-0.027,0.063-0.021,0.097l0.011,0.061c0.006,0.034,0.025,0.063,0.054,0.083
			s0.063,0.028,0.097,0.021v0l0.743-0.135c0.035-0.006,0.064-0.024,0.083-0.053c0.02-0.029,0.027-0.063,0.021-0.098l-0.011-0.062
			c-0.006-0.033-0.025-0.063-0.054-0.082C90.688,182.932,90.664,182.924,90.637,182.924z"/>
	</g>
	<g>
		<path fill="#B8BDC2" d="M93.134,185.504c-0.131,0-0.26-0.067-0.333-0.188l-0.388-0.647c-0.109-0.184-0.049-0.421,0.134-0.53
			l0.052-0.032c0.09-0.054,0.193-0.069,0.294-0.043c0.1,0.025,0.184,0.088,0.237,0.177l0.388,0.647
			c0.052,0.088,0.068,0.192,0.043,0.292c-0.025,0.101-0.087,0.186-0.176,0.238l-0.054,0.031
			C93.27,185.486,93.201,185.504,93.134,185.504z M92.634,184.536l0.388,0.647c0.037,0.062,0.118,0.081,0.177,0.044l0.054-0.032
			c0.03-0.018,0.051-0.046,0.059-0.08c0.008-0.033,0.003-0.068-0.015-0.098l-0.388-0.648c-0.018-0.03-0.046-0.051-0.079-0.059
			c-0.033-0.008-0.068-0.004-0.098,0.015l-0.053,0.031C92.618,184.395,92.597,184.475,92.634,184.536L92.634,184.536z"/>
	</g>
	<g>
		<path fill="#EEEFF0" d="M92.761,184.689c-0.131,0-0.26-0.067-0.333-0.188l-0.388-0.648c-0.109-0.184-0.049-0.421,0.134-0.53
			l0.054-0.032c0.087-0.053,0.192-0.068,0.292-0.043c0.101,0.025,0.185,0.088,0.238,0.177l0.387,0.647
			c0.054,0.089,0.068,0.192,0.043,0.293c-0.025,0.1-0.087,0.185-0.176,0.237l-0.054,0.032
			C92.897,184.672,92.829,184.689,92.761,184.689z M92.262,183.722l0.387,0.647c0.036,0.062,0.118,0.081,0.178,0.045l0.054-0.032
			c0.029-0.018,0.051-0.046,0.059-0.08c0.008-0.034,0.004-0.068-0.014-0.098l-0.388-0.648c-0.018-0.03-0.046-0.051-0.079-0.06
			c-0.035-0.008-0.069-0.003-0.098,0.015l-0.054,0.032C92.245,183.581,92.225,183.66,92.262,183.722L92.262,183.722z"/>
	</g>
	<g>
		<path fill="#EEEFF0" d="M91.478,183.604c-0.01,0-0.021-0.001-0.03-0.002l-0.753-0.059c-0.103-0.008-0.197-0.056-0.264-0.135
			c-0.067-0.079-0.099-0.179-0.091-0.281l0.005-0.061c0.008-0.103,0.056-0.197,0.134-0.264c0.079-0.067,0.181-0.102,0.282-0.092
			l0.752,0.06c0.103,0.008,0.197,0.056,0.264,0.135c0.067,0.078,0.099,0.179,0.091,0.281l-0.005,0.061
			C91.847,183.45,91.677,183.604,91.478,183.604z M90.715,183.287l0.753,0.06c0.076,0.002,0.133-0.048,0.139-0.12l0.005-0.061
			c0.003-0.035-0.007-0.068-0.03-0.095c-0.023-0.026-0.054-0.042-0.089-0.045l-0.752-0.06c-0.033,0-0.068,0.008-0.095,0.031
			c-0.026,0.022-0.042,0.053-0.044,0.087l-0.005,0.062c-0.002,0.035,0.008,0.068,0.03,0.095S90.68,183.284,90.715,183.287
			L90.715,183.287z"/>
	</g>
	<g>
		<path fill="#B8BDC2" d="M92.046,183.894c-0.063,0-0.125-0.015-0.182-0.046l-0.666-0.357c-0.09-0.049-0.157-0.13-0.187-0.229
			c-0.03-0.099-0.02-0.204,0.029-0.294l0.029-0.055c0.1-0.188,0.335-0.259,0.523-0.157l0.665,0.357
			c0.091,0.049,0.158,0.13,0.187,0.229c0.03,0.099,0.02,0.204-0.029,0.294l-0.029,0.055c-0.049,0.091-0.13,0.157-0.229,0.187
			C92.122,183.888,92.084,183.894,92.046,183.894z M91.32,183.264l0.666,0.357c0.063,0.034,0.141,0.011,0.175-0.053l0.029-0.055
			c0.017-0.03,0.02-0.065,0.01-0.099c-0.01-0.033-0.032-0.061-0.063-0.077l-0.666-0.357c-0.063-0.035-0.142-0.009-0.175,0.053
			l-0.029,0.055c-0.017,0.03-0.02,0.065-0.01,0.098C91.268,183.22,91.29,183.248,91.32,183.264L91.32,183.264z"/>
	</g>
	<g>
		<path fill="#FBFBFB" d="M100.865,160.982c0,0,2.149,0.548,2.527,1.491s-0.271,2.484-5.841,5.29
			c-0.835-0.857-1.791-4.919-0.589-6.161C98.163,160.359,100.865,160.982,100.865,160.982z"/>
		<path fill="#FFADB7" d="M97.882,162.122c-0.1,0.48-0.54,1.362,0.588,1.84c0.432,0.182,1.056,0.251,1.668,0.162
			c0.224-0.033,0.442-0.087,0.65-0.169c0.707-0.267,1.264-0.817,1.264-1.745c-0.005-1.943,0.008-2.396,0.483-3.976
			c0.35-1.174-1.038-1.568-1.781-1.694c0-0.002-0.002,0-0.002,0c-0.257-0.043-0.435-0.054-0.435-0.054l-2.768,3.12
			c0,0,0.136,0.635,0.236,1.277C97.866,161.393,97.925,161.909,97.882,162.122z"/>
		
			<linearGradient id="SVGID_1_" gradientUnits="userSpaceOnUse" x1="1782.8696" y1="160.2046" x2="1779.7965" y2="160.4149" gradientTransform="matrix(-1 0 0 1 1883.0107 0)">
			<stop  offset="0.1224" style="stop-color:#F59FB0"/>
			<stop  offset="0.9896" style="stop-color:#F8A8B2"/>
		</linearGradient>
		<path fill="url(#SVGID_1_)" d="M99.406,163.461c0.396,0.283,0.904,0.427,1.383,0.494c0.707-0.267,1.264-0.817,1.264-1.745
			c-0.005-1.943,0.008-2.396,0.483-3.976c0.35-1.174-1.038-1.568-1.781-1.694c0-0.002-0.002,0-0.002,0
			c-1.051,0.781-1.47,3.066-1.681,3.693C98.766,161.148,98.349,162.708,99.406,163.461z"/>
		<g>
			<path fill="#FEBFBF" d="M95.345,159.411c0.38,1.354,0.938,2.359,1.57,2.542c0.498,0.144,2.875,0.252,4.41-1.182
				c0.412-0.386,0.687-1.452,0.938-1.977c0.119-0.246,0.237-0.49,0.35-0.732c1.046-2.194,1.861-4.232,0.887-6.224
				c-0.758-1.549-3.053-2.239-4.423-1.835c0,0-2.724,0.691-3.351,2.822c-0.046,0.154-0.087,0.298-0.124,0.432l-0.005,0.018
				c-0.48,1.699-0.375,1.833-0.298,2.609C95.378,156.723,94.965,158.054,95.345,159.411z"/>
			<path fill="#E6BCCB" d="M95.188,158.437c0.018,0.319,0.064,0.645,0.157,0.974c0.38,1.354,0.938,2.359,1.57,2.542
				c0.498,0.144,2.875,0.252,4.41-1.182c0.412-0.386,0.687-1.452,0.938-1.977c0.054-0.113,0.108-0.224,0.162-0.334
				c-0.008-1.018-0.707-1.845-0.707-1.845s-0.393,0.364-0.555,1.043c-0.162,0.678-0.738,1.442-1.326,1.72
				c-0.588,0.277-1.488,0.47-2.429,0.257c-0.94-0.213-1.567-0.504-1.876-0.943C95.425,158.537,95.301,158.465,95.188,158.437z"/>
			<path fill="#F2AEAE" d="M95.602,153.256c0.034-0.072,0.18-0.354,0.519-0.233c0.473,0.164,0.681,0.519,1.064,0.637
				c2.709,0.83,3.213,0.093,3.485,1.318c0.275,1.234,0.494,2.681,0.494,2.681l0.807-1.315c0,0,0.617,0.066,0.974,0.521
				c-0.095,0.388-0.206,0.799-0.332,1.197c1.046-2.194,1.861-4.232,0.887-6.224c-0.758-1.549-3.053-2.239-4.423-1.835
				c0,0-2.724,0.691-3.351,2.822C95.679,152.979,95.638,153.122,95.602,153.256z"/>
			
				<linearGradient id="SVGID_2_" gradientUnits="userSpaceOnUse" x1="-5709.1714" y1="-763.436" x2="-5706.3662" y2="-764.7032" gradientTransform="matrix(0.9834 -0.1815 0.1815 0.9834 5854.4678 -127.4744)">
				<stop  offset="0.1224" style="stop-color:#FEB9B8"/>
				<stop  offset="1" style="stop-color:#FFDEDE"/>
			</linearGradient>
			<path fill="url(#SVGID_2_)" d="M101.718,156.794c0,0,0.232-0.875,1.145-0.799c0.913,0.076,0.931,1.097,0.163,2.155
				c-0.768,1.058-1.188,0.055-1.246-0.005C101.722,158.085,102.059,157.365,101.718,156.794z"/>
			
				<linearGradient id="SVGID_3_" gradientUnits="userSpaceOnUse" x1="-5707.7686" y1="-764.4395" x2="-5708.5537" y2="-763.4471" gradientTransform="matrix(0.9834 -0.1815 0.1815 0.9834 5854.4678 -127.4744)">
				<stop  offset="0.1224" style="stop-color:#FCA4B5"/>
				<stop  offset="0.9896" style="stop-color:#FFADB7"/>
			</linearGradient>
			<path fill="url(#SVGID_3_)" d="M102.056,156.856c0,0,0.3-0.523,0.709-0.396c0.629,0.197-0.027,1.289-0.084,1.423
				c-0.058,0.134-0.49,0.165-0.591-0.114C101.988,157.49,102.416,157.164,102.056,156.856z"/>
		</g>
		<g>
			
				<ellipse transform="matrix(-0.9991 0.0423 -0.0423 -0.9991 198.1591 309.0367)" fill="#FFFFFF" cx="95.811" cy="156.614" rx="0.202" ry="0.474"/>
			<path fill="#FEBFBF" d="M96.135,157.872c-0.129,0.091-0.364-0.039-0.524-0.291c-0.16-0.252-0.186-0.531-0.057-0.623
				c0.129-0.092,0.363,0.039,0.524,0.291C96.239,157.501,96.264,157.78,96.135,157.872z"/>
			<path fill="#FFADB7" d="M95.956,157.836c-0.134,0.096-0.342,0.011-0.464-0.188c-0.123-0.2-0.113-0.438,0.021-0.534
				c0.134-0.095,0.342-0.01,0.464,0.189C96.1,157.502,96.09,157.741,95.956,157.836z"/>
			<path fill="#FFFFFF" d="M98.396,157.441c-0.005,0.172-0.021,0.551-0.021,0.551s-0.176-0.096-0.292-0.091
				c-0.182,0.007-0.34,0.063-0.291-0.491c0.021-0.242,0.129-0.444,0.311-0.452S98.404,157.198,98.396,157.441z"/>
			<path fill="#FEBFBF" d="M98.565,158.091c0,0-0.341,0.351-0.638,0.315c-0.297-0.036-0.529-0.193-0.518-0.351
				c0.011-0.157,0.26-0.256,0.557-0.221C98.263,157.87,98.565,158.091,98.565,158.091z"/>
			<g>
				<path fill="#754554" d="M97.702,156.167c0.323,0.172,0.607,0.425,0.879,0.666c0.149,0.133,0.371-0.086,0.221-0.22
					c-0.29-0.257-0.598-0.532-0.942-0.715C97.682,155.804,97.524,156.072,97.702,156.167L97.702,156.167z"/>
			</g>
			<g>
				<path fill="#754554" d="M96.124,155.14c-0.27,0.007-0.613-0.015-0.859,0.112c-0.178,0.092-0.021,0.361,0.157,0.27
					c0.188-0.097,0.494-0.065,0.702-0.07C96.324,155.446,96.325,155.135,96.124,155.14L96.124,155.14z"/>
			</g>
			<g>
				<path fill="#C28698" d="M95.902,160.007c0.41-0.215,0.739,0.074,0.96,0.418c0.079,0.124,0.277,0.009,0.197-0.115
					c-0.292-0.455-0.741-0.78-1.273-0.501C95.657,159.878,95.772,160.076,95.902,160.007L95.902,160.007z"/>
			</g>
			<path fill="#FC9AB2" d="M96.399,158.741L96.399,158.741c-0.212-0.033-0.356-0.232-0.323-0.444l0.295-1.725
				c0.034-0.212,0.232-0.356,0.444-0.323l0,0c0.212,0.033,0.356,0.232,0.323,0.444l-0.295,1.725
				C96.81,158.63,96.611,158.775,96.399,158.741z"/>
			<path fill="#FC9AB2" d="M96.437,158.958l-0.449-0.163c-0.195-0.071-0.296-0.286-0.225-0.48l0,0
				c0.093-0.257,0.38-0.392,0.638-0.298l0.221,0.08c0.257,0.094,0.391,0.38,0.297,0.637l0,0.001
				C96.846,158.93,96.631,159.029,96.437,158.958z"/>
			
				<linearGradient id="SVGID_4_" gradientUnits="userSpaceOnUse" x1="-4525.249" y1="158.937" x2="-4525.4971" y2="155.9347" gradientTransform="matrix(1 0 0 1 4622.0239 0)">
				<stop  offset="0.1224" style="stop-color:#FB7F9E"/>
				<stop  offset="1" style="stop-color:#FCA4B5"/>
			</linearGradient>
			<path fill="url(#SVGID_4_)" d="M97.139,156.692l-0.274,1.597c0.085,0.129,0.108,0.291,0.054,0.445
				c-0.057,0.151-0.201,0.246-0.352,0.246c-0.044,0-0.087-0.008-0.128-0.023l-0.224-0.08c0.083,0.023,0.329,0.077,0.468-0.059
				c0.059-0.057,0.084-0.146,0.092-0.237c0.018-0.172-0.025-0.356-0.025-0.356l0.013-0.049l0.379-1.518
				C97.142,156.669,97.142,156.682,97.139,156.692z"/>
			
				<ellipse transform="matrix(0.9611 0.276 -0.276 0.9611 47.5368 -20.9084)" fill="#FFADB7" cx="98.04" cy="158.408" rx="0.683" ry="0.363"/>
		</g>
		<g>
			<g>
				<path fill="#D99AAD" d="M98.715,161.108c1.006-0.177,2.015-0.735,2.582-1.596c0.055-0.083-0.079-0.161-0.133-0.078
					c-0.544,0.827-1.523,1.355-2.489,1.525C98.577,160.977,98.618,161.125,98.715,161.108L98.715,161.108z"/>
			</g>
			<g>
				<path fill="#D99AAD" d="M98.763,160.655c-0.031,0.229-0.025,0.488,0.151,0.663c0.07,0.07,0.179-0.039,0.109-0.109
					c-0.131-0.131-0.134-0.344-0.111-0.513C98.925,160.599,98.777,160.557,98.763,160.655L98.763,160.655z"/>
			</g>
			<g>
				<path fill="#D99AAD" d="M99.349,160.444c-0.032,0.229-0.025,0.488,0.15,0.663c0.07,0.07,0.179-0.039,0.109-0.109
					c-0.131-0.131-0.134-0.344-0.111-0.513C99.511,160.388,99.362,160.347,99.349,160.444L99.349,160.444z"/>
			</g>
			<g>
				<path fill="#D99AAD" d="M99.838,160.255c0.066,0.221,0.188,0.449,0.419,0.533c0.094,0.033,0.134-0.115,0.041-0.149
					c-0.175-0.063-0.263-0.264-0.311-0.425C99.959,160.119,99.81,160.159,99.838,160.255L99.838,160.255z"/>
			</g>
			<g>
				<path fill="#D99AAD" d="M100.512,159.824c0.066,0.222,0.188,0.45,0.418,0.533c0.094,0.034,0.134-0.115,0.041-0.149
					c-0.175-0.063-0.263-0.264-0.311-0.426C100.632,159.688,100.483,159.728,100.512,159.824L100.512,159.824z"/>
			</g>
		</g>
		<g>
			<path fill="#FDEBEE" d="M99.896,158.315l0.794-0.647c0.083-0.068,0.104-0.202,0.044-0.299l-0.049-0.08
				c-0.059-0.097-0.174-0.12-0.258-0.052l-0.794,0.648c-0.083,0.068-0.104,0.202-0.044,0.298l0.049,0.081
				C99.697,158.36,99.812,158.384,99.896,158.315z"/>
			<path fill="#FEF9FA" d="M99.696,157.469l0.56,0.919c0.059,0.097,0.175,0.12,0.258,0.052l0.069-0.057
				c0.083-0.068,0.104-0.202,0.044-0.299l-0.56-0.919c-0.059-0.097-0.175-0.12-0.258-0.051l-0.07,0.057
				C99.657,157.238,99.637,157.372,99.696,157.469z"/>
		</g>
	</g>
	<g>
		<path fill="#FF9061" d="M104.333,191.914c-2.392-1.409-2.804-4.14-2.821-4.256l0.509-0.072c0.003,0.026,0.397,2.604,2.572,3.886
			L104.333,191.914z"/>
	</g>
</g>
</svg>
