<?xml version="1.0" encoding="utf-8"?>
<!-- Generator: Adobe Illustrator 16.0.0, SVG Export Plug-In . SVG Version: 6.00 Build 0)  -->
<!DOCTYPE svg PUBLIC "-//W3C//DTD SVG 1.1//EN" "http://www.w3.org/Graphics/SVG/1.1/DTD/svg11.dtd">
<svg version="1.1" id="Layer_1" xmlns="http://www.w3.org/2000/svg" xmlns:xlink="http://www.w3.org/1999/xlink" x="0px" y="0px"
	 width="463.683px" height="425.749px" viewBox="0 0 463.683 425.749" enable-background="new 0 0 463.683 425.749"
	 xml:space="preserve">
<g>
	<path fill="#754554" d="M398.36,203.314c0,0,0.505,2.474,0.235,3.711c-0.27,1.238-1.291,2.942-1.954,3.107
		c-0.282,0.298-0.421,0.775-0.337,0.806c2.31,0.851,5.636-1.671,5.345-3.159C401.346,206.236,398.36,203.314,398.36,203.314z"/>
	<path fill="#D7E4F2" d="M411.973,261.675c-3.945,2.511-10.526,2.782-14.7,0.607c-4.173-2.175-4.357-5.973-0.412-8.483
		s10.526-2.783,14.699-0.607C415.734,255.366,415.918,259.164,411.973,261.675z"/>
	<g>
		<path fill="#6C6B79" d="M410.996,257.379c0,0,0.197,0.1,0.208,0.246c0.011,0.147,0.016,0.551,0.015,0.646s-0.25,0.464-0.863,0.606
			c-0.612,0.144-2.101-0.252-2.603-0.544c-0.501-0.292-1.186-1.038-1.394-1.095c-0.209-0.057-0.829,0.059-0.829,0.059l-0.562-0.047
			l-0.922-0.328c0,0-0.121-0.618,0.132-0.813S410.996,257.379,410.996,257.379z"/>
		<path fill="#C2D2EA" d="M407.526,254.866c0,0,0.729,0.462,0.858,0.593c0.13,0.13,1.447,0.665,1.903,0.943
			c0.457,0.278,0.801,0.754,0.831,0.91c0.029,0.156,0.099,0.513,0.046,0.662c-0.053,0.15-0.291,0.547-1.079,0.596
			c-0.789,0.049-2.394-0.7-2.394-0.7s-1.111-0.759-1.274-0.836c-0.164-0.077-1.615-0.444-1.836-0.517
			c-0.221-0.074-0.348-0.105-0.38-0.282s-0.219-1.146-0.102-1.452C404.217,254.478,406.881,254.082,407.526,254.866z"/>
	</g>
	<g>
		<path fill="#6C6B79" d="M405.752,259.839c0,0,0.216,0.003,0.267,0.291c0.052,0.286,0.045,0.629,0.045,0.629
			s-0.27,0.411-1.172,0.524c-0.902,0.114-2.007-0.22-2.572-0.54c-0.566-0.32-0.77-0.581-1.111-1.056
			c-0.341-0.474-0.693-0.7-0.693-0.7l-0.145,0.038c0,0-0.81-0.588-0.942-0.792c-0.069-0.17-0.119-1.04,0.005-1.12
			C399.557,257.034,405.752,259.839,405.752,259.839z"/>
		<path fill="#C2D2EA" d="M403.277,256.589l0.25,0.599c0,0,1.476,1.433,1.876,1.859c0.399,0.428,0.606,0.802,0.624,1.189
			s-0.989,0.639-1.141,0.648c-0.15,0.012-0.819,0.077-1.676-0.242c-0.857-0.319-1.211-0.626-1.898-1.375
			c-0.688-0.748-1.153-1.159-1.364-1.33s-0.518-0.443-0.515-0.665c0.004-0.222-0.031-0.843,0.15-0.92
			S402.699,256.038,403.277,256.589z"/>
	</g>
	<path fill="#A8678D" d="M404.32,254.311c0,0,0.197,0.367,0.657,0.568c0.47,0.209,1.211,0.243,2.294-0.461
		c0,0,0.256-13.492,1.006-17.447l-3.227,5.689l-1.354,0.049h-0.002c0,0-0.559,4.34-0.223,6.617
		C403.809,251.606,404.32,254.311,404.32,254.311z"/>
	<path fill="#A8678D" d="M403.636,242.559c0.016,0.053,0.035,0.102,0.059,0.15h0.002c0.2,0.422,0.634,0.674,1.133,0.784
		c0.986,0.219,2.225-0.114,2.439-0.774c0.014-0.04,0.027-0.088,0.044-0.142c0.39-1.294,1.218-6.735,1.74-10.779
		c0.544-4.216-0.507-6.228-0.507-6.228l-5.146,0.936c0,0-0.045,2.484-0.062,5.463C403.318,236.051,403.375,241.736,403.636,242.559z
		"/>
	<path fill="#A8B0C2" d="M404.32,254.311c0,0,0.197,0.367,0.657,0.568c-0.347-2.256-0.91-6.114-0.815-6.908
		c0.062-0.533,0.196-3.146,0.342-4.402c0.986-8.537,0.869-11.186,0.869-11.186l1.098-1.674l-3.132,1.26
		c-0.021,4.082,0.036,9.768,0.298,10.59c0.016,0.053,0.035,0.102,0.059,0.15c0,0-0.559,4.34-0.223,6.617
		C403.809,251.606,404.32,254.311,404.32,254.311z"/>
	<path fill="#A8678D" d="M406.581,228.246l0.719,0.843c0,0,0.063,1.041-2.237,2.771c-0.014,2.44-0.918,10.239-1.676,12.099
		c-0.758,1.858-3.102,0.415-3.498-1.744c-0.396-2.16-2.16-8.932-2.312-10.598c-0.152-1.665-0.283-3.36,0.871-4.342
		C399.601,226.293,406.581,228.246,406.581,228.246z"/>
	<path fill="#A8678D" d="M402.867,256.284c-0.432-1.512-0.098-9.929,0.52-12.325c-3.185-1.854-3.592-2.213-3.592-2.213
		s-1.162,6.166-1.117,7.389c0.045,1.224,1.031,7.192,1.031,7.192S401.307,257.854,402.867,256.284z"/>
	<g>
		<path fill="#BB88A6" d="M400.406,257.15l0.226-0.05c-0.011-0.048-1.071-4.866-1.081-7.286c-0.008-1.856,0.447-4.149,0.779-5.824
			c0.155-0.779,0.277-1.396,0.306-1.744c0.029-0.344-0.21-1.374-0.541-2.799c-0.734-3.161-1.844-7.938-1.056-9.652l-0.21-0.097
			c-0.821,1.786,0.299,6.609,1.04,9.801c0.314,1.353,0.563,2.421,0.537,2.728c-0.028,0.336-0.149,0.946-0.303,1.719
			c-0.334,1.684-0.792,3.99-0.784,5.87C399.329,252.261,400.395,257.102,400.406,257.15z"/>
	</g>
	<g>
		<g>
			<path fill="#FEBFBF" d="M403.867,207.975c0,0,0.813-0.002,2.003-0.255c1.188-0.253,6.603-0.602,8.345-1.51
				c2.014,0.634,4.474,0.275,2.645,1.703c-1.828,1.429-9.474,3.328-10.75,3.491C404.832,211.566,403.867,207.975,403.867,207.975z"
				/>
			<path fill="#FEBFBF" d="M415.368,207.521c0,0-0.989-0.338-1.153-1.312c-0.164-0.97-0.117-2.513-0.416-3.831
				c-0.422-1.859-0.656-2.028-0.695-2.066c-0.038-0.038-0.713-0.808-0.84-1.072c-0.127-0.264-0.296-1.125-0.231-1.354
				s0.422-0.35,0.506-0.293c0.083,0.058,0.15,0.117,0.15,0.117l0.118-0.473l0.686-0.206c0,0,0.656-0.108,0.823,0.006
				s0.283,0.422,0.313,0.52s0.029,0.098,0.029,0.098s0.475,0.066,0.498,0.318c0.023,0.251-0.065,0.348,0.072,0.567
				c0.139,0.22-0.044,0.591-0.021,0.766c0.022,0.176,0.121,0.35-0.035,0.658c-0.155,0.308-0.333,0.517-0.231,0.776
				c0.101,0.258,1.867,4.021,2.437,5.364C418.175,207.988,416.283,208.031,415.368,207.521z"/>
			<polygon fill="#DBAB81" points="413.227,216.063 414.618,215.492 413.825,179.156 412.434,179.726 			"/>
			<path fill="#FF785C" d="M403.944,207.787c0,0,3.216-0.829,3.895-0.89c0.679-0.062,1.122,0.124,1.122,0.124
				s0.584,0.689,0.268,2.104s-0.702,1.984-1.046,2.181s-1.952,0.249-1.952,0.249L403.944,207.787z"/>
			
				<linearGradient id="SVGID_1_" gradientUnits="userSpaceOnUse" x1="3207.9702" y1="36.9204" x2="3210.4048" y2="36.9204" gradientTransform="matrix(-0.992 0.1261 0.1261 0.992 3592.3032 -242.3508)">
				<stop  offset="0.1224" style="stop-color:#FCA4B5"/>
				<stop  offset="0.9896" style="stop-color:#FFADB7"/>
			</linearGradient>
			<path fill="url(#SVGID_1_)" d="M412.538,197.595c0,0-0.009,0.113,0.068,0.225c0.078,0.111,0.228,0.289,0.259,0.387
				c0.032,0.098,0.18,0.46-0.055,0.567c-0.234,0.106-0.524-0.074-0.573-0.208c-0.049-0.133-0.09-0.408-0.09-0.408
				s-0.043,0.368,0.11,0.571s0.424,0.328,0.424,0.328s0.104,0.019,0.168,0.227s0.16,0.456,0.16,0.456s-0.103,0.249-0.035,0.329
				c0.068,0.081,0.129,0.245,0.129,0.245l0.244,0.033l0.55,0.127l0.555-0.141l0.356-0.3l-0.654,0.204c0,0-0.536,0.087-0.643,0.05
				c-0.106-0.038-0.176-0.08-0.266-0.285c-0.089-0.205-0.036-0.339-0.036-0.339l0.395,0.001l1.108-0.389
				c0,0-1.017,0.263-1.141,0.285c-0.125,0.022-0.4,0.057-0.427-0.054c-0.027-0.11-0.062-0.38-0.062-0.38l0.274-0.245l1.124-0.366
				l-1.261,0.339c0,0-0.1-0.229-0.152-0.445s0.049-0.318,0.049-0.318l1.211-0.478l-1.267,0.345c0,0-0.305-0.187-0.317-0.303
				c-0.014-0.116,0.004-0.189,0.004-0.189l-0.061,0.246L412.538,197.595z"/>
		</g>
		<g>
			<g>
				<path fill="#BB88A6" d="M400.32,231.859c2.319-0.1,2.572-1.654,2.574-1.671l-0.229-0.034c-0.01,0.064-0.261,1.582-2.836,1.473
					l-0.01,0.232C399.996,231.866,400.163,231.866,400.32,231.859z"/>
			</g>
			<path fill="#1B292C" d="M397.577,228.654c0,0,1.071,0.946,3.94,1.103c2.869,0.155,4.42-0.266,5.387-0.786
				c0.966-0.521,1.841-1.561,1.841-1.561l-0.16-1.26c0,0-0.834,1.254-2.206,1.786c-1.372,0.533-4.309,0.425-5.504,0.323
				s-3.033-0.645-3.033-0.645L397.577,228.654z"/>
			<path fill="#A8678D" d="M403.412,228.414c0,0,0.073,0.362,0.08,0.783c0.006,0.422-0.018,1.191-0.018,1.191l0.435-0.026
				c0,0,0.087-0.735,0.075-1.11s-0.104-0.902-0.104-0.902L403.412,228.414z"/>
			<path fill="#A8678D" d="M407.417,227.33c0,0,0.101,0.45,0.111,0.81c0.012,0.359-0.056,0.962-0.056,0.962l0.296-0.364
				c0,0,0.053-0.612,0.047-0.807c-0.006-0.195-0.159-0.782-0.159-0.782L407.417,227.33z"/>
			<g>
				<path fill="#BB88A6" d="M408.794,229.521c0.02-0.001,0.039-0.004,0.059-0.008l-0.052-0.226c-0.183,0.041-0.476-0.55-0.603-0.995
					l-0.223,0.064C408.035,228.561,408.339,229.539,408.794,229.521z"/>
			</g>
			<g>
				<path fill="#CCDEFB" d="M405.161,229.62c-0.115-0.108-0.179-0.27-0.177-0.453l0.002-0.358c0.002-0.377,0.274-0.744,0.621-0.837
					l0.813-0.218c0.189-0.052,0.372-0.01,0.502,0.112c0.115,0.109,0.178,0.271,0.177,0.453l-0.001,0.358
					c-0.002,0.377-0.275,0.744-0.622,0.837l-0.813,0.219c-0.052,0.014-0.104,0.021-0.154,0.021
					C405.376,229.756,405.254,229.709,405.161,229.62z M406.483,228.154l-0.813,0.219c-0.179,0.048-0.337,0.244-0.338,0.421
					l-0.002,0.358c-0.001,0.061,0.018,0.108,0.053,0.143c0.051,0.047,0.13,0.061,0.217,0.037l0.813-0.218
					c0.179-0.048,0.337-0.245,0.338-0.422l0.002-0.358c0.001-0.061-0.018-0.108-0.053-0.142s-0.083-0.05-0.139-0.05
					C406.537,228.143,406.51,228.146,406.483,228.154z"/>
			</g>
		</g>
		<g>
			<path fill="#FF8269" d="M400.475,208.347c0,0,1.613-0.218,2.602-0.152c0.987,0.065,0.694-0.628,1.407-0.528
				c0.712,0.101,1.655,1.045,1.655,1.045s0.937,2.027,1.394,4.323c0.458,2.295,1.55,4.382,1.607,5.24
				c0.059,0.857-0.339,1.837-0.383,3.19s-0.01,4.924-0.01,4.924s-0.688,2.395-5.324,2.882c-3.396,0.109-5.571-0.747-5.642-1.425
				c0.475-1.945,0.661-2.754,0.577-4.609c-0.083-1.855-1.266-5.068-1.754-6.108s-1.305-5.991-0.771-6.466
				c0.534-0.475,2.517-1.558,2.983-1.753S400.475,208.347,400.475,208.347z"/>
			<path fill="#FF8269" d="M403.423,229.271c-3.396,0.109-5.847-0.979-5.642-1.425c0.515-1.877,0.661-2.754,0.577-4.609
				C398.276,221.381,408.059,228.783,403.423,229.271z"/>
		</g>
		<g>
			<path fill="#FEBFBF" d="M400.346,207.845c-0.13,0.01-0.454,0.516-1.026,0.817s-0.588,0.38,0.127,1.002
				c0.715,0.621,3.274,3.412,4.847,3.035c1.571-0.378,1.453-1.915,1.375-2.528s-1.055-1.991-1.363-2.116
				C403.997,207.928,400.346,207.845,400.346,207.845z"/>
			
				<linearGradient id="SVGID_2_" gradientUnits="userSpaceOnUse" x1="3223.7046" y1="45.584" x2="3220.8591" y2="42.2707" gradientTransform="matrix(-0.992 0.1261 0.1261 0.992 3592.3032 -242.3508)">
				<stop  offset="0.1224" style="stop-color:#FEC7C7"/>
				<stop  offset="0.9694" style="stop-color:#FFADB7"/>
			</linearGradient>
			<path fill="url(#SVGID_2_)" d="M404.694,207.509c0,0-0.26,0.656-0.186,1.245c0.075,0.588,0.428,1.561,0.428,1.561
				s-0.344,0.705-1.79,0.584c-1.446-0.122-1.51-0.623-1.974-0.869s-1.67-1.4-1.599-1.485c0.071-0.086,1.251-0.712,0.747-2.413
				s-1.204-2.57-1.204-2.57s-0.419-0.709,0.08-0.773C399.695,202.725,404.694,207.509,404.694,207.509z"/>
			
				<linearGradient id="SVGID_3_" gradientUnits="userSpaceOnUse" x1="3218.9468" y1="44.8438" x2="3222.2202" y2="44.8438" gradientTransform="matrix(-0.992 0.1261 0.1261 0.992 3592.3032 -242.3508)">
				<stop  offset="0.1224" style="stop-color:#FCA4B5"/>
				<stop  offset="0.9896" style="stop-color:#FFADB7"/>
			</linearGradient>
			<path fill="url(#SVGID_3_)" d="M401.302,206.777c0,0,1.26,1.117,1.535,1.692s1.491,1.337,1.491,1.337l0.167-1.297l0.198-1.001
				L401.302,206.777z"/>
			<path fill="#FEC7C7" d="M404.825,199.528c0,0,0.534,0.403,0.899,1.272c0.365,0.87,0.625,1.612,0.606,1.768
				s-0.142,0.489,0.077,1.11c0.219,0.621-0.335,3.769-1.006,4.096s-3.834-0.645-4.195-1.082s-1.301-2.227-1.442-3.442
				c-0.142-1.215-0.538-2.628,1.207-3.41C402.717,199.059,404.825,199.528,404.825,199.528z"/>
			<g>
				
					<linearGradient id="SVGID_4_" gradientUnits="userSpaceOnUse" x1="3217.8618" y1="41.019" x2="3217.063" y2="41.0877" gradientTransform="matrix(-0.992 0.1261 0.1261 0.992 3592.3032 -242.3508)">
					<stop  offset="0.1224" style="stop-color:#FEC7C7"/>
					<stop  offset="0.9896" style="stop-color:#FFDBDB"/>
				</linearGradient>
				<path fill="url(#SVGID_4_)" d="M405.321,202.93c-0.058,0.346,0.873,1.734,0.922,2.047c0.048,0.313-0.838,0.316-0.838,0.316
					L405.321,202.93z"/>
				
					<linearGradient id="SVGID_5_" gradientUnits="userSpaceOnUse" x1="3217.0454" y1="41.0439" x2="3217.9683" y2="41.0439" gradientTransform="matrix(-0.992 0.1261 0.1261 0.992 3592.3032 -242.3508)">
					<stop  offset="0.188" style="stop-color:#FFDCDC"/>
					<stop  offset="0.8991" style="stop-color:#FEC7C7"/>
				</linearGradient>
				<path fill="url(#SVGID_5_)" d="M405.5,205.338c0.191-0.008,0.604-0.045,0.742-0.207c0.039-0.047,0.056-0.102,0.046-0.16
					c-0.021-0.139-0.189-0.448-0.386-0.807c-0.252-0.463-0.566-1.039-0.535-1.227l-0.093-0.016c-0.036,0.22,0.26,0.762,0.546,1.287
					c0.184,0.336,0.357,0.654,0.376,0.776c0.005,0.031-0.003,0.059-0.025,0.085c-0.123,0.145-0.595,0.176-0.766,0.177v0.094
					C405.418,205.341,405.452,205.34,405.5,205.338z"/>
			</g>
			<g>
				<path fill="#754554" d="M402.85,203.044c1.076-0.254,1.848-0.095,1.855-0.093l0.032-0.152c-0.032-0.008-0.813-0.169-1.924,0.094
					L402.85,203.044z"/>
			</g>
			<g>
				<path fill="#754554" d="M405.607,202.831c0.214-0.156,0.571-0.37,0.689-0.344l0.027-0.153c-0.017-0.003-0.035-0.004-0.056-0.003
					c-0.244,0.011-0.666,0.311-0.753,0.375L405.607,202.831z"/>
			</g>
			
				<ellipse transform="matrix(-0.952 0.306 -0.306 -0.952 850.4817 274.1125)" fill="#FFFFFF" cx="403.759" cy="203.708" rx="0.329" ry="0.281"/>
			
				<ellipse transform="matrix(-0.7187 -0.6954 0.6954 -0.7187 556.1091 631.5001)" fill="#FFFFFF" cx="405.803" cy="203.253" rx="0.23" ry="0.265"/>
			<path fill="#FB7F9E" d="M404.43,206.436c0,0,0.893-0.336,1.254-0.395s0.39,0.064,0.367,0.188S405.49,207.262,404.43,206.436z"/>
			<path fill="#754554" d="M399.329,203.73c0,0,0.276-0.378,0.495-0.259c0.219,0.119,0.627,0.277,0.648,0.446
				s0.201,1.081,0.201,1.081s0.37-0.689,0.284-1.365s0.099-1.628,0.362-2.056s0.523-1.084,1.17-1.205
				c0.646-0.121,1.549-0.019,2.076-0.073s0.738-0.249,0.738-0.249l0.502,0.948c0,0-0.041-0.479-0.351-1.008
				c-0.309-0.529-2.521-2.919-5.487-1.143c-2.185,1.13-1.975,3.583-1.608,4.466c0.367,0.882,1.43,1.645,1.543,1.915
				c0.114,0.271,0.411,0.647,0.418,0.901s-0.149-0.947-0.378-1.453C399.716,204.172,399.329,203.73,399.329,203.73z"/>
			
				<linearGradient id="SVGID_6_" gradientUnits="userSpaceOnUse" x1="3222.6489" y1="40.8359" x2="3224.1519" y2="40.8359" gradientTransform="matrix(-0.992 0.1261 0.1261 0.992 3592.3032 -242.3508)">
				<stop  offset="0.1224" style="stop-color:#FEB9B8"/>
				<stop  offset="1" style="stop-color:#FFDEDE"/>
			</linearGradient>
			<path fill="url(#SVGID_6_)" d="M400.14,203.908c0,0-0.796-0.757-1.061-0.139c-0.265,0.619,0.374,1.295,0.784,1.618
				s0.707,0.406,0.817,0.221c0.109-0.187-0.21-0.845-0.21-0.845L400.14,203.908z"/>
			
				<linearGradient id="SVGID_7_" gradientUnits="userSpaceOnUse" x1="3222.8901" y1="40.7344" x2="3223.9341" y2="40.7344" gradientTransform="matrix(-0.992 0.1261 0.1261 0.992 3592.3032 -242.3508)">
				<stop  offset="0.1224" style="stop-color:#FCA4B5"/>
				<stop  offset="0.9896" style="stop-color:#FFADB7"/>
			</linearGradient>
			<path fill="url(#SVGID_7_)" d="M400.028,203.923c0,0-0.507-0.432-0.704-0.082s-0.007,0.948,0.529,1.439
				c0.509,0.171,0.576-0.048,0.568-0.11s-0.208-0.336-0.239-0.583S400.028,203.923,400.028,203.923z"/>
		</g>
		<g>
			<path fill="#FEBFBF" d="M396.155,210.889c0,0,0.644-0.676,1.835,0.021c1.19,0.697,5.14,6.148,6.738,7.115
				c1.34,1.068,1.018,3.467,0.465,3.655c-0.553,0.189-6.623-3.263-8.274-5.986C395.266,212.969,395.057,211.859,396.155,210.889z"/>
			<path fill="#FF785C" d="M395.951,210.613c0,0,0.974-1.01,2.514,0.168c1.541,1.178,2.813,3.441,2.813,3.441l0.033,0.266
				l-0.337-0.396c0,0-1.087-0.269-2.448,0.498s-1.506,1.262-1.506,1.262l0.512,0.669c0,0-0.605-0.235-0.781-0.416
				s-1.095-1.676-1.381-2.86C395.083,212.059,395.33,211.069,395.951,210.613z"/>
			<path fill="#FEBFBF" d="M404.565,218.605c0,0-0.08-0.363,0.163-0.581c0.244-0.218,2.37-1.233,4.309-2.803
				c1.938-1.569,2.624-2.302,2.703-2.616c0.078-0.315,0.422-1.216,0.487-1.368c0.065-0.153,0.547-0.638,0.547-0.638
				s0.524-0.211,0.754-0.139s0.406,0.194,0.406,0.194s0.288-0.139,0.396-0.093s0.586,0.74,0.586,0.74s-0.002,0.254,0.062,0.416
				c0.063,0.161,0.134,0.585,0.129,0.679c-0.005,0.095-0.011,0.256,0,0.467c0.01,0.211-0.255,0.465-0.267,0.576
				c-0.011,0.112,0.004,0.364-0.406,0.476c-0.409,0.111-1.605,0.374-1.92,0.702s-3.539,5.123-7.355,7.121
				C404,220.729,404.565,218.605,404.565,218.605z"/>
			
				<linearGradient id="SVGID_8_" gradientUnits="userSpaceOnUse" x1="3210.1343" y1="48.7183" x2="3210.9214" y2="48.7183" gradientTransform="matrix(-0.992 0.1261 0.1261 0.992 3592.3032 -242.3508)">
				<stop  offset="0.1224" style="stop-color:#FCA4B5"/>
				<stop  offset="0.9896" style="stop-color:#FFADB7"/>
			</linearGradient>
			<path fill="url(#SVGID_8_)" d="M413.709,210.532l0.03,0.232c0,0-0.494-0.007-0.512,0.205s0.287,0.147,0.287,0.147
				s0.396-0.082,0.458-0.09s0.001-0.39,0.001-0.39l-0.04,0.018L413.709,210.532z"/>
		</g>
	</g>
	<polygon fill="#EEECF1" points="405.524,196.396 421.459,190.468 421.315,178.063 405.379,183.99 	"/>
	<g>
		<g>
			<path fill="#9FC7A8" d="M409.167,188.871c-0.05-2.501,1.883-5.196,4.307-6.007c2.424-0.812,4.436,0.564,4.485,3.065
				c0.049,2.501-1.883,5.196-4.307,6.007S409.216,191.373,409.167,188.871z M410.162,188.538c0.038,1.936,1.595,2.999,3.47,2.372
				c1.876-0.627,3.37-2.712,3.332-4.647c-0.038-1.936-1.595-2.999-3.47-2.372C411.618,184.519,410.124,186.604,410.162,188.538z"/>
		</g>
		<g>
			<polygon fill="#9FC7A8" points="416.007,189.788 416.697,188.826 414.056,187.021 413.981,183.211 412.986,183.544 
				413.069,187.779 			"/>
		</g>
		<g>
			<polygon fill="#9FC7A8" points="413.136,191.215 414.132,190.882 414.038,186.091 410.384,191.035 411.089,191.544 
				413.089,188.836 			"/>
		</g>
	</g>
	<path fill="#754554" d="M400.941,204.184c0,0-0.298,1.656,0.115,2.68c-0.443-0.996-0.387-2.179-0.387-2.179L400.941,204.184z"/>
</g>
</svg>
