<?xml version="1.0" encoding="utf-8"?>
<!-- Generator: Adobe Illustrator 16.0.0, SVG Export Plug-In . SVG Version: 6.00 Build 0)  -->
<!DOCTYPE svg PUBLIC "-//W3C//DTD SVG 1.1//EN" "http://www.w3.org/Graphics/SVG/1.1/DTD/svg11.dtd">
<svg version="1.1" id="Layer_1" xmlns="http://www.w3.org/2000/svg" xmlns:xlink="http://www.w3.org/1999/xlink" x="0px" y="0px"
	 width="463.683px" height="425.749px" viewBox="0 0 463.683 425.749" enable-background="new 0 0 463.683 425.749"
	 xml:space="preserve">
<g>
	<path fill="#BDD6F2" d="M148.604,226.27c4.32,2.749,11.525,3.047,16.094,0.666c4.568-2.382,4.771-6.541,0.451-9.289
		c-4.319-2.749-11.524-3.047-16.093-0.666C144.487,219.362,144.285,223.521,148.604,226.27z"/>
	<g>
		<g>
			<path fill="#6C6B79" d="M150.617,220.773c0,0-0.216,0.109-0.227,0.27c-0.012,0.161-0.018,0.603-0.017,0.707
				c0.001,0.104,0.274,0.508,0.945,0.664s2.3-0.275,2.85-0.596s1.298-1.137,1.526-1.199c0.228-0.062,0.908,0.064,0.908,0.064
				l0.614-0.052l1.01-0.358c0,0,0.132-0.677-0.146-0.891C157.804,219.169,150.617,220.773,150.617,220.773z"/>
			<path fill="#C2D2EA" d="M154.417,218.022c0,0-0.799,0.506-0.94,0.649c-0.142,0.142-1.584,0.728-2.084,1.032
				s-0.876,0.826-0.909,0.997c-0.033,0.172-0.108,0.562-0.051,0.725c0.058,0.164,0.319,0.599,1.182,0.652s2.62-0.767,2.62-0.767
				s1.217-0.83,1.396-0.915c0.179-0.084,1.768-0.486,2.01-0.566c0.241-0.08,0.38-0.114,0.416-0.309
				c0.035-0.193,0.239-1.254,0.111-1.59C158.039,217.598,155.122,217.164,154.417,218.022z"/>
		</g>
		<g>
			<path fill="#6C6B79" d="M156.358,223.467c0,0-0.236,0.004-0.292,0.318s-0.048,0.688-0.048,0.688s0.294,0.45,1.282,0.574
				c0.988,0.125,2.197-0.24,2.817-0.591c0.62-0.352,0.842-0.637,1.216-1.156c0.374-0.519,0.76-0.767,0.76-0.767l0.158,0.042
				c0,0,0.886-0.644,1.032-0.867c0.075-0.186,0.131-1.139-0.005-1.226S156.358,223.467,156.358,223.467z"/>
			<path fill="#C2D2EA" d="M159.068,219.908l-0.274,0.656c0,0-1.616,1.568-2.053,2.036s-0.664,0.878-0.683,1.302
				c-0.02,0.424,1.083,0.698,1.248,0.71c0.166,0.012,0.897,0.084,1.836-0.266c0.938-0.35,1.325-0.686,2.078-1.505
				s1.262-1.27,1.493-1.457c0.231-0.187,0.567-0.485,0.563-0.728c-0.004-0.243,0.034-0.923-0.165-1.007
				C162.913,219.565,159.701,219.306,159.068,219.908z"/>
		</g>
		<path fill="#4F5997" d="M157.926,217.414c0,0-0.216,0.402-0.72,0.623c-0.514,0.228-1.325,0.266-2.51-0.505
			c0,0-0.281-14.772-1.102-19.103l3.532,6.229l1.482,0.054h0.002c0,0,0.612,4.751,0.245,7.245
			C158.485,214.454,157.926,217.414,157.926,217.414z"/>
		<path fill="#4F5997" d="M158.674,204.549c-0.017,0.057-0.039,0.111-0.064,0.164h-0.002c-0.219,0.463-0.693,0.737-1.24,0.858
			c-1.079,0.239-2.436-0.125-2.67-0.847c-0.015-0.045-0.03-0.098-0.048-0.156c-0.427-1.417-1.333-7.374-1.905-11.802
			c-0.595-4.614,0.556-6.817,0.556-6.817l5.634,1.024c0,0,0.048,2.72,0.067,5.981C159.024,197.424,158.961,203.648,158.674,204.549z
			"/>
		<path fill="#A8B0C2" d="M157.926,217.414c0,0-0.216,0.402-0.72,0.623c0.38-2.471,0.997-6.694,0.893-7.563
			c-0.067-0.584-0.215-3.443-0.374-4.82c-1.08-9.346-0.952-12.246-0.952-12.246l-1.202-1.832l3.429,1.38
			c0.023,4.469-0.04,10.693-0.326,11.594c-0.017,0.057-0.039,0.111-0.064,0.164c0,0,0.612,4.751,0.245,7.245
			C158.485,214.454,157.926,217.414,157.926,217.414z"/>
		<path fill="#4F5997" d="M155.452,188.879l-0.788,0.922c0,0-0.069,1.139,2.449,3.034c0.015,2.672,1.005,11.21,1.834,13.246
			s3.396,0.455,3.83-1.909c0.434-2.365,2.365-9.778,2.531-11.603c0.166-1.823,0.345-4.664-0.919-5.738
			C163.126,185.756,155.452,188.879,155.452,188.879z"/>
		<path fill="#4F5997" d="M159.517,219.575c0.472-1.655,0.107-10.87-0.569-13.494c3.487-2.029,3.933-2.423,3.933-2.423
			s1.272,6.75,1.223,8.09c-0.049,1.34-1.128,7.875-1.128,7.875S161.224,221.293,159.517,219.575z"/>
		<g>
			<path fill="#8C92B0" d="M162.211,220.523l-0.247-0.055c0.011-0.053,1.173-5.327,1.184-7.977c0.009-2.032-0.489-4.543-0.854-6.377
				c-0.169-0.854-0.303-1.528-0.334-1.909c-0.032-0.377,0.23-1.504,0.592-3.064c0.804-3.461,2.019-8.69,1.156-10.566l0.23-0.106
				c0.9,1.955-0.327,7.236-1.139,10.73c-0.344,1.48-0.615,2.649-0.588,2.986c0.031,0.367,0.164,1.036,0.332,1.881
				c0.366,1.844,0.867,4.369,0.858,6.426C163.391,215.17,162.223,220.471,162.211,220.523z"/>
		</g>
	</g>
	<g>
		<path fill="#6A3646" d="M160.815,157.408c0,0,1.302-0.948,2.6-0.004c1.082,0.787,1.364,2.829,0.452,5.111
			c-0.583,1.457-0.061,4.277,1.61,4.572c-1.001,0.999-3.657,0.424-4.226-1.069C160.682,164.524,160.815,157.408,160.815,157.408z"/>
		<g>
			<path fill="#FEBFBF" d="M155.921,166.464c0,0-1.605,0.008-2.084,1.084c-0.479,1.076-1.69,8.114-2.378,9.699
				s1.703,2.397,2.301,1.513C154.358,177.876,155.921,166.464,155.921,166.464z"/>
			<path fill="#FEBFBF" d="M152.467,177.186c0,0-0.438-0.888-0.911-0.623c-1.102,0.619-6.122,2.099-6.122,2.099
				s-0.596,1.448,0.059,2.092c0.246,0.06,7.484-0.63,7.757-1.656C153.522,178.07,152.467,177.186,152.467,177.186z"/>
			<path fill="#FEBFBF" d="M145.681,180.754c0,0-0.427,0.146-0.589,0.193c-0.162,0.049-0.333,0.104-0.333,0.104l-0.628,0.223
				c0,0-1.993-0.598-2.173-0.74s-0.522-0.526-0.522-0.526l0.206-1.416c0,0,1.228-0.287,1.359-0.307s2.433,0.376,2.433,0.376
				S145.942,180.289,145.681,180.754z"/>
			<g>
				<path fill="#C4C8D8" d="M144.632,181.067c-0.055-0.486-0.125-0.7-0.18-1.187c-0.018-0.113-0.202-0.292-0.424-0.389
					c-1.954-0.872-3.169-1.416-5.118-2.286c-0.138-0.063-0.168-0.364-0.234-0.339c-0.022,0.008-0.123,0.306-0.133,0.322
					c-0.008,0.014-0.011,0.029-0.01,0.048c0.055,0.487,0.111,0.976,0.166,1.462c0,0.001,0,0.003,0,0.004
					c0.013,0.112,0.213,0.288,0.424,0.385c1.948,0.87,3.165,1.413,5.118,2.285c0.163,0.071,0.309,0.083,0.359,0.032l0.129-0.321
					C144.73,181.084,144.632,181.069,144.632,181.067z"/>
				<path fill="#F5F5F5" d="M138.748,176.987c-0.011-0.096,0.133-0.108,0.316-0.026c1.928,0.861,3.125,1.396,5.058,2.259
					c0.183,0.082,0.345,0.23,0.356,0.327c0.055,0.479,0.109,0.957,0.163,1.437c0.011,0.096-0.133,0.107-0.316,0.025
					c-1.933-0.863-3.13-1.398-5.058-2.259c-0.183-0.082-0.346-0.23-0.356-0.326C138.856,177.944,138.802,177.466,138.748,176.987
					L138.748,176.987z M144.737,181.042c0-0.001,0-0.003,0-0.004c-0.055-0.487-0.111-0.976-0.166-1.463
					c-0.018-0.113-0.202-0.292-0.424-0.388c-1.953-0.873-3.169-1.416-5.118-2.286c-0.223-0.102-0.385-0.078-0.377,0.03
					c0.055,0.487,0.111,0.977,0.166,1.463c0,0.001,0,0.003,0,0.004c0.013,0.112,0.214,0.288,0.424,0.384
					c1.948,0.87,3.165,1.413,5.118,2.286C144.57,181.16,144.75,181.154,144.737,181.042L144.737,181.042z"/>
				<path fill="#7C78F0" d="M139.046,177.634l0.028-0.002l0.026,0.026c0.013,0.119,0.027,0.235,0.041,0.354l-0.023,0.005
					l-0.031-0.029C139.073,177.87,139.06,177.753,139.046,177.634L139.046,177.634z M139.071,178.061l0.052-0.004l0.057,0.053
					l-0.051,0.004L139.071,178.061L139.071,178.061z M139.064,178.16l0.069-0.008l0.079,0.074l-0.07,0.006L139.064,178.16
					L139.064,178.16z M144.641,180.983c-0.054-0.479-0.108-0.958-0.163-1.437c-0.011-0.097-0.173-0.245-0.356-0.327
					c-1.933-0.864-3.13-1.398-5.058-2.259c-0.183-0.082-0.327-0.07-0.316,0.026c0.054,0.479,0.108,0.957,0.163,1.437
					c0.011,0.096,0.173,0.244,0.356,0.326c1.928,0.861,3.125,1.396,5.058,2.259C144.508,181.091,144.652,181.079,144.641,180.983
					L144.641,180.983z"/>
				<path fill="#2A2A2C" d="M139.141,178.013c-0.014-0.119-0.027-0.235-0.041-0.354l-0.026-0.026l-0.028,0.002
					c0.014,0.119,0.027,0.236,0.041,0.354l0.031,0.029L139.141,178.013L139.141,178.013z"/>
				<path fill="#838383" d="M139.088,178.171l0.047-0.004l0.047,0.046l-0.042,0.003L139.088,178.171L139.088,178.171z
					 M139.212,178.227l-0.079-0.074l-0.069,0.008l0.078,0.072L139.212,178.227L139.212,178.227z"/>
				<polygon fill="#516F83" points="139.182,178.213 139.135,178.167 139.088,178.171 139.141,178.217 139.182,178.213 				"/>
				<polygon fill="#2A2A2C" points="139.18,178.109 139.123,178.056 139.071,178.061 139.129,178.113 139.18,178.109 				"/>
			</g>
			<path fill="#E6F1FF" d="M153.649,172.574c0,0-0.98-0.849-1.141-1.149c-0.16-0.302-0.285-0.759-0.285-0.759
				s1.355-2.794,1.484-3.151c0.522-1.454,1.722-1.207,2.652-1.452C157.29,165.816,153.649,172.574,153.649,172.574z"/>
			
				<linearGradient id="SVGID_1_" gradientUnits="userSpaceOnUse" x1="670.0649" y1="228.5566" x2="669.0143" y2="226.9807" gradientTransform="matrix(0.9999 0.0136 -0.0136 0.9999 -522.6223 -57.8325)">
				<stop  offset="0.1224" style="stop-color:#FEB9B8"/>
				<stop  offset="1" style="stop-color:#FFDEDE"/>
			</linearGradient>
			<path fill="url(#SVGID_1_)" d="M145.434,178.662l-0.273-0.048c0,0-1.007-0.578-1.171-0.615c-0.164-0.038-0.415-0.116-0.415-0.116
				l-1.201,0.522l-0.146,0.443c0,0-0.209,0.364-0.221,0.431s0.424,0.254,0.577,0.067c0.152-0.187,0.327-0.455,0.327-0.455
				l0.744-0.202c0,0-0.003,0.451,0.42,0.765c0.423,0.313,1.09,0.447,1.328,0.208C145.641,179.423,145.683,178.944,145.434,178.662z"
				/>
			
				<linearGradient id="SVGID_2_" gradientUnits="userSpaceOnUse" x1="668.2896" y1="230.0996" x2="668.6779" y2="229.2937" gradientTransform="matrix(0.9999 0.0136 -0.0136 0.9999 -522.6223 -57.8325)">
				<stop  offset="0.1224" style="stop-color:#FEB9B8"/>
				<stop  offset="1" style="stop-color:#FFDEDE"/>
			</linearGradient>
			<path fill="url(#SVGID_2_)" d="M142.678,180.753c0,0-0.109-0.352-0.198-0.427s-0.669-0.198-0.669-0.198L141.497,180l-0.087,0.036
				l0.121,0.405l0.401,0.267l0.232,0.378l0.558,0.077c0,0,0.249,0.261,0.419,0.309c0.171,0.047,0.995-0.222,1.07-0.29
				c0.076-0.067,0.192-0.196,0.111-0.339c-0.082-0.142-0.322-0.086-0.322-0.086l-0.373,0.13c0,0,0.024-0.188-0.082-0.266
				c-0.105-0.078-0.262-0.059-0.262-0.059L142.678,180.753z"/>
			
				<linearGradient id="SVGID_3_" gradientUnits="userSpaceOnUse" x1="667.7417" y1="229.6191" x2="668.5767" y2="229.6191" gradientTransform="matrix(0.9999 0.0136 -0.0136 0.9999 -522.6223 -57.8325)">
				<stop  offset="0.1224" style="stop-color:#FCA4B5"/>
				<stop  offset="0.9896" style="stop-color:#FFADB7"/>
			</linearGradient>
			<path fill="url(#SVGID_3_)" d="M142.678,180.753c0,0-0.045,0.112-0.176,0.127c-0.131,0.015-0.571-0.173-0.571-0.173l0.055,0.09
				c0,0,0.471,0.191,0.535,0.192s0.244-0.222,0.244-0.222L142.678,180.753z"/>
			
				<linearGradient id="SVGID_4_" gradientUnits="userSpaceOnUse" x1="668.5737" y1="229.75" x2="669.8481" y2="229.75" gradientTransform="matrix(0.9999 0.0136 -0.0136 0.9999 -522.6223 -57.8325)">
				<stop  offset="0.1224" style="stop-color:#FCA4B5"/>
				<stop  offset="0.9896" style="stop-color:#FFADB7"/>
			</linearGradient>
			<path fill="url(#SVGID_4_)" d="M143.615,180.918l-0.228,0.126l-0.631,0.153l0.046,0.044l0.699-0.161c0,0,0.51-0.199,0.537-0.331
				c-0.083,0.022-0.411,0.137-0.411,0.137L143.615,180.918z"/>
		</g>
		<path fill="#DDE8F6" d="M164.555,187.891c0,0-2.083,1.614-6.186,0.961c-4.024-0.642-4.983-1.469-5.079-2.382
			c1.021-5.004,0.765-6.293,0.35-8.369c-0.714-2.399-0.676-3.232-0.649-3.893c0.027-0.661,0.707-2.101,1.24-4.118
			c0.534-2.018,1.183-3.577,1.502-3.79c0.319-0.212,1.172-0.016,3.547,0.082s2.714-0.444,3.896,0.403
			c1.182,0.848,2.315,1.896,2.796,2.506s0.835,1.53,0.896,1.988c0.06,0.459-1.888,5.744-1.975,8.765
			C164.805,183.066,164.555,187.891,164.555,187.891z"/>
		<path fill="#DDE8F6" d="M162.599,173.939c0,0-0.093,1.147-0.152,1.581c-0.059,0.433-0.111,0.731-0.111,0.731
			s0.277,0.474,0.437,0.913c0.159,0.438,0.073,5.796-0.05,6.594c-0.123,0.797-1.187,5.907-1.187,5.907l0.972-0.091l2.157-7.932
			L162.599,173.939z"/>
		<path fill="#FEBFBF" d="M163.564,167.22c0,0-0.677-0.629-0.775-0.679c-0.098-0.05-0.437-0.387-1.496-0.573
			c-1.059-0.186-2.208-0.149-3.196,0.905c-0.987,1.055-0.987,1.055-0.987,1.055s-0.462,1.369-0.397,1.773
			c0.065,0.404,0.309,1.061,1.63,1.208c1.322,0.146,3.056-1.664,3.852-2.309S163.709,167.757,163.564,167.22z"/>
		
			<linearGradient id="SVGID_5_" gradientUnits="userSpaceOnUse" x1="688.5366" y1="214.875" x2="683.769" y2="212.9485" gradientTransform="matrix(0.9999 0.0136 -0.0136 0.9999 -522.6223 -57.8325)">
			<stop  offset="0.1224" style="stop-color:#FEC7C7"/>
			<stop  offset="0.9694" style="stop-color:#FFADB7"/>
		</linearGradient>
		<path fill="url(#SVGID_5_)" d="M157.663,165.176c0,0,0.476,1.734,0.347,2.467s-0.494,1.064-0.398,1.171
			c0.097,0.107,2.027,0.843,2.931,0.58c0.903-0.263,2.676-2.05,2.425-2.44s-0.178-0.412-0.178-0.412s-0.788-0.718-0.956-1.221
			s-0.654-4.286-0.668-4.353C161.152,160.901,157.663,165.176,157.663,165.176z"/>
		
			<linearGradient id="SVGID_6_" gradientUnits="userSpaceOnUse" x1="684.9897" y1="214.8916" x2="685.5997" y2="215.5924" gradientTransform="matrix(0.9999 0.0136 -0.0136 0.9999 -522.6223 -57.8325)">
			<stop  offset="0.1224" style="stop-color:#FCA4B5"/>
			<stop  offset="0.9896" style="stop-color:#FFADB7"/>
		</linearGradient>
		<path fill="url(#SVGID_6_)" d="M158.005,166.911l0.016,0.644c0,0,0.042,0.968,0.927,0.492c0.886-0.476,0.494-1.142,0.992-1.653
			c0.498-0.512,0.796-1.343,0.638-1.694C160.418,164.347,158.217,165.705,158.005,166.911z"/>
		<path fill="#FEC7C7" d="M161.219,161.989c0,0-0.6,0.169-0.594,0.502s0.2,2.164-0.029,2.739c-0.229,0.574-2.741,2.129-3.899,2.092
			c-0.579-0.345-0.981-1.26-1.136-1.543c-0.155-0.284-0.626-1.199-0.776-1.904c-0.15-0.705,0.23-0.667-0.499-1.468
			c-0.094-0.703,0.046-2.59,0.359-2.842s1.531-1.65,3.11-1.462C159.333,158.291,161.79,160.414,161.219,161.989z"/>
		<g>
			
				<linearGradient id="SVGID_7_" gradientUnits="userSpaceOnUse" x1="681.0464" y1="213.0381" x2="680.1965" y2="213.678" gradientTransform="matrix(0.9999 0.0136 -0.0136 0.9999 -522.6223 -57.8325)">
				<stop  offset="0.1224" style="stop-color:#FEC7C7"/>
				<stop  offset="0.9896" style="stop-color:#FFDBDB"/>
			</linearGradient>
			<path fill="url(#SVGID_7_)" d="M155.113,163.423c0.038,0.22-0.419,1.658-0.416,1.932c0.003,0.273,1.32-0.041,1.32-0.041
				L155.113,163.423z"/>
			
				<linearGradient id="SVGID_8_" gradientUnits="userSpaceOnUse" x1="680.2505" y1="213.0605" x2="681.6284" y2="213.0605" gradientTransform="matrix(0.9999 0.0136 -0.0136 0.9999 -522.6223 -57.8325)">
				<stop  offset="0.188" style="stop-color:#FFDCDC"/>
				<stop  offset="0.8991" style="stop-color:#FEC7C7"/>
			</linearGradient>
			<path fill="url(#SVGID_8_)" d="M154.936,165.511c-0.104-0.005-0.189-0.022-0.236-0.059c-0.032-0.025-0.049-0.059-0.05-0.098
				c-0.002-0.135,0.098-0.517,0.203-0.921c0.109-0.42,0.233-0.896,0.214-1.003l0.092-0.016c0.021,0.118-0.072,0.49-0.216,1.042
				c-0.099,0.381-0.201,0.774-0.199,0.896c0,0.007,0.001,0.016,0.013,0.024c0.135,0.106,0.838-0.012,1.25-0.11l0.021,0.091
				C155.94,165.38,155.309,165.526,154.936,165.511z"/>
		</g>
		
			<ellipse transform="matrix(0.9933 0.1154 -0.1154 0.9933 19.9376 -16.9813)" fill="#FFFFFF" cx="156.617" cy="163.687" rx="0.307" ry="0.245"/>
		
			<ellipse transform="matrix(0.632 0.775 -0.775 0.632 183.5251 -59.9477)" fill="#FFFFFF" cx="154.879" cy="163.252" rx="0.176" ry="0.154"/>
		<g>
			<path fill="#754554" d="M155.764,163.17l-0.079-0.135c0.017-0.01,0.423-0.241,1.658-0.098l-0.018,0.154
				C156.159,162.958,155.767,163.168,155.764,163.17z"/>
		</g>
		<g>
			
				<rect x="154.155" y="162.474" transform="matrix(0.7434 0.6688 -0.6688 0.7434 148.3438 -61.6075)" fill="#754554" width="0.634" height="0.155"/>
		</g>
		<path fill="#FB7F9E" d="M156.773,166.205c0,0-0.492,0.2-1.033-0.079c0.169,0.302,0.287,0.343,0.614,0.374
			C156.682,166.53,156.773,166.205,156.773,166.205z"/>
		<path fill="#FEBFBF" d="M156.473,166.152l-0.524-0.12l-0.227-0.012l-0.041-0.007l0.059,0.113c0,0,0.135,0.08,0.458,0.139
			c0.322,0.06,0.576-0.061,0.576-0.061L156.473,166.152z"/>
		<path fill="#754554" d="M160.128,163.959c0,0-0.842-1.108-1.061-1.901s-0.661-1.844-0.961-1.884
			c-0.3-0.04-1.675,0.141-2.493,0.061c-0.817-0.08-1.12-0.295-1.198-0.228s-0.033-0.628,0.897-1.77
			c0.93-1.142,1.924-2.208,4.465-1.89s3.25,2.913,3.143,3.956s-0.679,2.261-0.883,3.057c-0.204,0.796-0.396,0.971-0.262,1.722
			c-0.295-0.886-0.508-2.22-0.486-2.634c0.021-0.414-0.369-0.766-0.582-0.422c-0.213,0.343-0.607,0.635-0.51,1.1
			C160.295,163.591,160.128,163.959,160.128,163.959z"/>
		<g>
			<path fill="#FEBFBF" d="M162.718,174.636c0,0,1.113,7.539,1.173,8c0.061,0.461,1.902,0.954,2.458-0.743
				c0.556-1.696,0.423-7.557,0.376-8.308C166.678,172.834,162.858,172.788,162.718,174.636z"/>
			<path fill="#FEBFBF" d="M164.112,182.14c0,0-0.122-0.033-0.268,0.314c-0.146,0.346-1.114,5.41-1.558,6.717
				c-0.443,1.307-0.692,1.815-0.8,1.925s-0.799,0.75-0.904,0.925c-0.105,0.174-0.555,1.206-0.555,1.206s-0.197,0.854-0.317,1.046
				c-0.121,0.19-0.384,0.588-0.384,0.588s0.093,0.239,0.376,0.158c0.282-0.082,0.522-0.419,0.672-0.631
				c0.149-0.211,0.436-1.065,0.436-1.065l0.175-0.017c0,0,0.036,0.562-0.003,0.798s-0.516,1.148-0.516,1.148
				s-0.56,0.125-0.688,0.201c-0.127,0.075-0.206,0.202-0.215,0.303c-0.01,0.101,1.205,0.05,1.205,0.05s0.307,0.152,0.413,0.169
				c0.105,0.018,0.438,0.015,0.438,0.015l0.304-0.455l0.455-0.162c0,0,0.853-1.31,1.019-1.896s0.154-1.763,0.23-2.114
				s3.26-8.387,2.723-9.471C165.358,181.52,164.112,182.14,164.112,182.14z"/>
			
				<linearGradient id="SVGID_9_" gradientUnits="userSpaceOnUse" x1="646.6284" y1="232.6328" x2="647.7017" y2="232.6328" gradientTransform="matrix(1 0.0016 -0.0016 1 -485.4869 -38.4885)">
				<stop  offset="0.1224" style="stop-color:#FCA4B5"/>
				<stop  offset="0.9896" style="stop-color:#FFADB7"/>
			</linearGradient>
			<path fill="url(#SVGID_9_)" d="M161.843,194.462c0,0-0.609,1.069-0.662,1.156c-0.053,0.087-0.414,0.188-0.414,0.188l0.195,0.091
				l0.288-0.159C161.251,195.738,161.84,194.558,161.843,194.462z"/>
			
				<linearGradient id="SVGID_10_" gradientUnits="userSpaceOnUse" x1="647.479" y1="232.7764" x2="648.1675" y2="232.7764" gradientTransform="matrix(1 0.0016 -0.0016 1 -485.4869 -38.4885)">
				<stop  offset="0.1224" style="stop-color:#FCA4B5"/>
				<stop  offset="0.9896" style="stop-color:#FFADB7"/>
			</linearGradient>
			<polygon fill="url(#SVGID_10_)" points="162.309,194.659 161.619,195.99 161.923,195.535 			"/>
			<path fill="#E6F1FF" d="M162.779,174.997c0,0-0.48-1.852-0.084-3.461c0.396-1.61,1.528-2.243,2.181-2.463
				s1.012,0.141,1.172,0.332c0.161,0.191,1.011,1.443,1.092,2.235s0.165,2.558,0.165,2.558s-0.453,0.465-1.76,0.539
				C164.238,174.811,162.779,174.997,162.779,174.997z"/>
		</g>
		
			<linearGradient id="SVGID_11_" gradientUnits="userSpaceOnUse" x1="361.6685" y1="104.959" x2="362.9077" y2="104.959" gradientTransform="matrix(0.9961 -0.0886 0.0886 0.9961 -209.0605 90.5222)">
			<stop  offset="0.1224" style="stop-color:#FEB9B8"/>
			<stop  offset="1" style="stop-color:#FFDEDE"/>
		</linearGradient>
		<path fill="url(#SVGID_11_)" d="M160.579,162.319c0,0,0.208-0.617,0.809-0.359s0.17,1.326-0.127,1.772
			c-0.298,0.446-0.573,0.414-0.668,0.154c-0.096-0.259,0.003-0.927,0.003-0.927L160.579,162.319z"/>
	</g>
</g>
</svg>
