<?xml version="1.0" encoding="utf-8"?>
<!-- Generator: Adobe Illustrator 16.0.0, SVG Export Plug-In . SVG Version: 6.00 Build 0)  -->
<!DOCTYPE svg PUBLIC "-//W3C//DTD SVG 1.1//EN" "http://www.w3.org/Graphics/SVG/1.1/DTD/svg11.dtd">
<svg version="1.1" id="Layer_1" xmlns="http://www.w3.org/2000/svg" xmlns:xlink="http://www.w3.org/1999/xlink" x="0px" y="0px"
	 width="463.683px" height="425.749px" viewBox="0 0 463.683 425.749" enable-background="new 0 0 463.683 425.749"
	 xml:space="preserve">
<g>
	<path fill="#BDD6F2" d="M64.561,207.318c4.503-2.865,12.016-3.176,16.779-0.693c4.763,2.483,4.974,6.818,0.47,9.685
		c-4.503,2.866-12.016,3.177-16.779,0.694C60.268,214.521,60.057,210.185,64.561,207.318z"/>
	<g>
		<path fill="#FEBFBF" d="M79.008,164.547c0,0,0.43,0.261,0.653,0.662c0.223,0.401,0.92,2.04,1.065,4.179s0.766,6.636,1.034,7.732
			c0.267,1.098,0.565,2.157,0.586,2.404c0.021,0.248-0.417,1.911-0.482,1.917c-0.065,0.005-1.195,0.821-1.368,0.849
			c-0.172,0.028-0.127-0.212-0.127-0.212s-0.437,0.115-0.654,0.173c-0.219,0.058-0.094-0.333-0.094-0.333s-0.247-0.124-0.26-0.28
			c-0.013-0.156,1.225-1.034,1.225-1.034s-0.92,0.444-1.075,0.483c-0.154,0.04-0.181-0.286-0.035-0.417s0.831-1.041,0.831-1.041
			s-0.016-0.813-0.113-1.04c-0.098-0.228-0.321-1.167-0.323-1.351c-0.002-0.184,0.19-1.17,0.129-1.271
			c-0.061-0.1-2.667-7.054-2.636-8.905C77.396,165.212,79.008,164.547,79.008,164.547z"/>
		<path fill="#626170" d="M81.062,212.697l0.38,0.361c0,0,0.05,0.652,0.064,0.77c0.014,0.116-0.7,0.832-1.411,0.957
			c-0.711,0.126-1.799-0.334-2.168-0.67c-0.37-0.337-1.716-1.535-1.971-1.606c-0.255-0.07-2.015-1.024-2.148-1.367
			c-0.134-0.344-0.126-0.948-0.126-0.948L81.062,212.697z"/>
		<path fill="#504F60" d="M76.848,208.604l0.609,0.533c0,0,1.28,0.844,1.29,0.974s2.364,1.77,2.435,1.986
			c0.071,0.218,0.371,0.821,0.208,1.229c-0.163,0.407-0.924,1.021-1.697,0.89c-0.771-0.132-1.797-0.466-2.772-1.46
			s-1.88-1.299-2.04-1.324s-0.859-0.361-1.026-0.648c-0.168-0.288-0.294-1.17-0.202-1.637s0.407-1.24,0.407-1.24l1.871-0.223
			L76.848,208.604z"/>
		<path fill="#C98398" d="M73.031,193.012c0.047,0.334,0.096,0.611,0.145,0.821c0.052,0.223,0.124,0.422,0.214,0.602
			c0.85,1.698,3.18,1.435,3.608,0.877c0.115-0.148,0.272-0.653,0.45-1.369l0-0.002c0.558-2.24,1.172-10,1.48-12.005
			c0.408-2.648-0.471-6.871-0.471-6.871l-6.587,2.177c0,0,0.065,1.254,0.171,2.996C72.219,183.112,72.729,190.932,73.031,193.012z"
			/>
		<path fill="#C98398" d="M72.851,198.809c0.089,0.754,0.283,9.38,0.283,9.38s0.141,0.31,0.547,0.586
			c0.207,0.141,0.997,0.401,1.358,0.479c1.068,0.225,2.133-0.521,2.133-0.521l1.193-21.548l-1.592,2.847l0.412,3.165l-3.78-0.153
			l-0.375-0.032C73.031,193.012,72.763,198.057,72.851,198.809z"/>
		<path fill="#D4B7B7" d="M72.851,198.809c0.089,0.754,0.283,9.38,0.283,9.38s0.141,0.31,0.547,0.586
			c-0.239-3.819-0.147-13.396-0.292-14.341c-0.048-0.321-0.033-0.82,0.016-1.391c0.129-1.516,0.282-7.167,0.343-7.834
			c0.087-0.916-0.169-5.093-0.169-5.093s-0.886-0.102-1.539,0.121c0.178,2.875,0.688,10.694,0.99,12.774
			C73.031,193.012,72.763,198.057,72.851,198.809z"/>
		<path fill="#626170" d="M65.063,208.883c0,0-0.148-0.049-0.171,0.277s-0.018,0.806-0.018,0.806s0.667,1.282,0.889,1.526
			c0.222,0.244,0.862,1.52,1.519,2.051s1.737,0.79,2.859,0.608c1.122-0.182,1.807-0.563,1.834-0.862
			c0.028-0.3,0.004-0.787-0.157-0.94c-0.162-0.152-4.425-1.238-4.425-1.238L65.063,208.883z"/>
		<path fill="#FEBFBF" d="M76.911,154.81c0,0,1.815-0.717,2.037,2.133c0.222,2.851,0.831,8.222,0.522,8.825
			s-2.246,0.451-2.946-2.482C75.823,160.354,76.911,154.81,76.911,154.81z"/>
		<path fill="#FFE6B8" d="M75.08,153.596c0,0,3.825-0.048,4.225,3.359c0.192,1.636,0.507,6.108,0.507,6.108
			s-2.199,0.971-2.706,1.041C76.598,164.172,72.573,155.302,75.08,153.596z"/>
		<path fill="#504F60" d="M68.173,207.669l0.917,0.946c0,0,0.735,1.364,0.997,1.771c0.262,0.406,1.476,1.537,1.547,1.654
			c0.071,0.116,0.205,0.56,0.205,0.56s-0.447,0.72-2.061,0.873c-1.614,0.152-2.645-0.671-2.945-1.013s-1.028-1.624-1.028-1.624
			s-0.549-0.71-0.732-1.114c-0.183-0.405-0.27-1.133-0.209-1.662c0.061-0.53,0.748-1.41,0.748-1.41L68.173,207.669z"/>
		<path fill="#C98398" d="M75.188,176.144c0,0,0.668,2.968,0.207,4.03c-0.462,1.063-1.708,2.005-1.7,2.101
			c0.008,0.095-2.248,9.819-4.021,14.934c-0.421,1.215-3.415-0.589-3.456-3.794c-0.041-3.204-0.269-9.168-0.535-11.087
			c-0.266-1.92-0.263-4.387,0.577-5.638C67.1,175.438,75.188,176.144,75.188,176.144z"/>
		<g>
			<g>
				<path fill="#B56D84" d="M74.678,182.701c0.065-0.003,0.135-0.022,0.207-0.059c0.372-0.187,0.786-0.805,0.815-1.719
					c0.017-0.495-0.012-2.468-0.039-2.707l-0.221,0.025c0.023,0.204,0.055,2.156,0.038,2.674c-0.029,0.879-0.431,1.395-0.693,1.528
					c-0.077,0.039-0.143,0.045-0.181,0.019c-0.058-0.04-0.082-0.162-0.064-0.325c0.112-1.041,0.088-3.796-0.109-3.932l-0.055-0.038
					l-0.065,0.03l0.051,0.099l-0.001,0.003l-0.086,0.055c0.073,0.18,0.194,2.376,0.045,3.758c-0.036,0.325,0.066,0.469,0.158,0.532
					C74.536,182.686,74.604,182.705,74.678,182.701z"/>
			</g>
			<g>
				<path fill="#B56D84" d="M68.808,181.106c1.738-0.075,2.263-1.223,2.27-1.237l-0.204-0.089c-0.027,0.061-0.693,1.483-3.169,1.016
					l-0.042,0.218C68.093,181.096,68.473,181.121,68.808,181.106z"/>
			</g>
			<path fill="#A76478" d="M65.655,178.357c0,0,2.084,0.997,5.429,0.882c3.345-0.116,4.621-0.513,5.752-1.147
				c1.132-0.634,1.835-1.462,1.835-1.462l-0.175-1.293c0,0-0.658,1.047-2.264,1.733c-1.605,0.686-5.029,0.857-6.422,0.868
				c-1.393,0.01-4.009-0.588-4.009-0.588L65.655,178.357z"/>
			<path fill="#C98398" d="M72.304,177.838c0,0,0.082,0.37,0.085,0.807s-0.031,1.238-0.031,1.238l0.507-0.07
				c0,0,0.108-0.772,0.099-1.16c-0.011-0.388-0.114-0.927-0.114-0.927L72.304,177.838z"/>
			<path fill="#C98398" d="M67.469,177.74c0,0-0.099,0.366-0.122,0.801c-0.022,0.437-0.023,1.238-0.023,1.238l-0.504-0.092
				c0,0-0.074-0.775-0.047-1.163c0.028-0.387,0.155-0.921,0.155-0.921L67.469,177.74z"/>
			<path fill="#C98398" d="M76.998,176.612c0,0,0.113,0.458,0.123,0.83c0.01,0.372-0.074,1.004-0.074,1.004l0.349-0.407
				c0,0,0.067-0.64,0.062-0.842s-0.178-0.796-0.178-0.796L76.998,176.612z"/>
			<g>
				<path fill="#B56D84" d="M78.742,178.651c0.03-0.001,0.06-0.006,0.09-0.015l-0.06-0.214c-0.293,0.078-0.604-0.621-0.717-0.973
					l-0.211,0.069C77.883,177.643,78.23,178.673,78.742,178.651z"/>
			</g>
			<g>
				<path fill="#CCDEFB" d="M74.141,179.013c-0.128-0.108-0.192-0.273-0.18-0.463l0.024-0.372c0.025-0.39,0.367-0.781,0.778-0.891
					l0.964-0.258c0.224-0.06,0.436-0.024,0.58,0.098c0.128,0.109,0.192,0.273,0.18,0.462l-0.024,0.372
					c-0.025,0.39-0.367,0.782-0.778,0.892l-0.964,0.257c-0.062,0.017-0.123,0.026-0.181,0.028
					C74.386,179.144,74.246,179.101,74.141,179.013z M75.777,177.442l-0.964,0.257c-0.213,0.057-0.41,0.267-0.422,0.45l-0.024,0.372
					c-0.004,0.063,0.014,0.111,0.054,0.145c0.056,0.047,0.148,0.058,0.251,0.031l0.964-0.257c0.213-0.057,0.41-0.267,0.422-0.45
					l0.024-0.372c0.004-0.063-0.015-0.111-0.054-0.145c-0.039-0.033-0.094-0.048-0.158-0.046
					C75.841,177.429,75.81,177.434,75.777,177.442z"/>
			</g>
		</g>
		<path fill="#C98398" d="M69.448,194.475c0,0,1.17-1.106,0.796,0.308c-0.375,1.415-1.607,12.278-1.55,13.271
			c-0.808,0.697-3.765,0.594-3.82-0.688s-0.27-8.049,0.331-9.963c0.601-1.913,1.162-6.391,1.162-6.391L69.448,194.475z"/>
		<path fill="#FFEAC4" d="M64.165,156.64c0.208-0.829,0.253-0.807,1.175-1.233c1.561-0.721,3.167-1.341,4.198-1.558
			c1.031-0.218,3.7-0.544,4.133-0.398c0.432,0.148,1.26-0.282,3.985,1.051c0.12,0.058,1.368,1.7,1.053,6.082
			c-0.314,4.382-0.773,7.044-0.712,8.089c0.061,1.045,0.761,7.179,0.761,7.179s-1.586,2.048-6.587,2.495
			c-5,0.445-6.404-0.645-6.404-0.645s0.093-5.755-0.038-7.003C65.599,169.449,64.165,156.64,64.165,156.64z"/>
		<path fill="#FFE6B8" d="M78.441,163.642c0,0-0.409,0.883-3.568,1.524c-3.159,0.642-7.483,0.505-8.311,0.06
			c-0.828-0.446-1.496-0.524-1.496-0.524l0.447,5.223c0,0,4.485,1.632,9.657-0.019c2.547-0.649,2.836-1.107,2.836-1.107
			S78.036,166.566,78.441,163.642z"/>
		<path fill="#DDE8F6" d="M67.625,160.874c0,0-0.075,2.438,0.056,3.057c0.13,0.619-0.806,4.519-0.896,5.084
			c-0.149,0.935,0.154,5.222,0.154,5.222l0.379,4.517l-1.05-0.566c0,0-1.08-9.604-0.778-11.553
			C65.793,164.684,67.625,160.874,67.625,160.874z"/>
		<path fill="#FEBFBF" d="M63.244,169.202c0,0-0.143-7.329-0.016-9.277c0.126-1.949,1.041-3.846,1.996-3.677
			c0.955,0.17,2.22,1.025,2.098,3.786c-0.122,2.761-1.305,10.6-1.956,11.406C64.714,172.245,63.244,169.202,63.244,169.202z"/>
		<path fill="#FEBFBF" d="M65.233,168.619c0,0,0.486,0.374,0.71,0.854s0.506,8.538,0.771,9.198s0.472,0.931,0.705,1.209
			c0.233,0.277,1.253,2.012,1.253,2.012s0.487,2.058,0.554,2.228c0.066,0.169-0.333,0.203-0.563-0.04
			c-0.23-0.244-0.577-1.246-0.577-1.246l0.009,1.153c0,0,0.59,1.617,0.648,1.835c0.058,0.218-0.053,0.464-0.285,0.352
			c-0.232-0.111-0.579-0.725-0.579-0.725l-0.307,0.17c0,0-0.247,0.191-0.531-0.074c-0.285-0.265-0.521-0.744-0.521-0.744
			l-0.384-0.046l-0.442-0.422l-0.481-0.261c0,0-0.38-0.939-0.251-1.436s0.327-1.891,0.284-2.083
			c-0.042-0.193-2.696-10.357-2.001-11.351C63.939,168.208,65.233,168.619,65.233,168.619z"/>
		
			<linearGradient id="SVGID_1_" gradientUnits="userSpaceOnUse" x1="4905.2397" y1="-59.9067" x2="4907.6021" y2="-59.9067" gradientTransform="matrix(-0.9965 0.0836 0.0836 0.9965 4974.8911 -170.1389)">
			<stop  offset="0.1224" style="stop-color:#FCA4B5"/>
			<stop  offset="0.9896" style="stop-color:#FFADB7"/>
		</linearGradient>
		<path fill="url(#SVGID_1_)" d="M81.39,178.446c0,0,0.155,0.39,0.214,0.673s0.167,0.633,0.167,0.633l-0.124,1.139
			c0,0,0.08,0.422-0.149,0.511c-0.229,0.09-0.349,0.03-0.349,0.03l-0.509,0.48l-0.339,0.186l-0.638,0.158l0.9-0.451l0.499-0.488
			l-0.178-0.352l-0.504,0.453l-0.696,0.355l-0.088,0.256l-0.011-0.131l0.132-0.258l0.703-0.374l0.406-0.375l-0.117-0.357
			l-0.165-0.184l0.043,0.255l-1.075,0.483l0.625-0.376l0.441-0.57c0,0-0.122-1.025-0.158-1.13c-0.036-0.105,0.126-0.406,0.126-0.406
			L81.39,178.446z"/>
		
			<linearGradient id="SVGID_2_" gradientUnits="userSpaceOnUse" x1="4906.022" y1="-62.7183" x2="4905.874" y2="-59.3938" gradientTransform="matrix(-0.9965 0.0836 0.0836 0.9965 4974.8911 -170.1389)">
			<stop  offset="0.1224" style="stop-color:#FEC7C7"/>
			<stop  offset="0.9896" style="stop-color:#FFDBDB"/>
		</linearGradient>
		<path fill="url(#SVGID_2_)" d="M80.547,179.243c0,0,0.144,0.259,0.159,0.433c0.015,0.174-0.056,0.688,0.193,1.051
			c0.25,0.364,0.346,0.469,0.502,0.457c0.156-0.013,0.219-0.106,0.201-0.314c-0.018-0.208-0.188-0.57-0.178-0.869
			c0.01-0.298,0.12-1.593,0.1-1.836s-0.075-1.209-0.556-1.204c-0.481,0.005-0.719,0.13-0.767,0.528
			C80.153,177.886,80.317,179,80.547,179.243z"/>
		<polygon fill="#FEBFBF" points="67.88,185.449 67.4,184.754 67.044,183.953 67.273,184.905 67.75,185.521 		"/>
		<polygon fill="#FEBFBF" points="66.521,184.802 66.213,183.848 66.217,184.416 66.384,184.785 		"/>
		<polygon fill="#FEBFBF" points="65.741,184.377 65.479,183.752 65.457,183.483 65.425,183.944 65.571,184.267 		"/>
		<polygon fill="#FEBFBF" points="68.087,182.834 68.015,181.974 68.229,182.651 68.433,183.692 		"/>
		
			<linearGradient id="SVGID_3_" gradientUnits="userSpaceOnUse" x1="4914.3589" y1="-86.8999" x2="4911.29" y2="-89.3227" gradientTransform="matrix(-0.9965 0.0836 0.0836 0.9965 4974.8911 -170.1389)">
			<stop  offset="0.1224" style="stop-color:#FEC7C7"/>
			<stop  offset="0.9694" style="stop-color:#FFADB7"/>
		</linearGradient>
		<path fill="url(#SVGID_3_)" d="M68.869,154.42c0,0,2.435,2.341,4.319,2.074c1.885-0.267,1.576-1.239,1.576-1.239l-0.239-0.557
			c0,0,0.083-1.092,0.417-1.487c0.334-0.396-3.428-3.858-4.271-4.05c-0.843-0.192-1.185-0.093-0.951,0.395
			c0.233,0.488,0.512,1.934,0.391,2.784S68.869,154.42,68.869,154.42z"/>
		
			<linearGradient id="SVGID_4_" gradientUnits="userSpaceOnUse" x1="4910.1392" y1="-87.4619" x2="4913.4517" y2="-87.4619" gradientTransform="matrix(-0.9965 0.0836 0.0836 0.9965 4974.8911 -170.1389)">
			<stop  offset="0.1224" style="stop-color:#FCA4B5"/>
			<stop  offset="0.9896" style="stop-color:#FFADB7"/>
		</linearGradient>
		<path fill="url(#SVGID_4_)" d="M71.196,151.934c0,0,1.314,2.216,1.953,2.74s1.454-0.457,1.454-0.457l0.074-0.415l-1.813-1.799
			L71.196,151.934z"/>
		<path fill="#FEC7C7" d="M70.103,148.408c0,0,0.853,2.951,0.975,3.361c0.122,0.41,3.054,2.28,4.487,2.125
			c1.164-0.447,1.143-3.612,1.124-4.048s0.248-2.26,0.188-2.552c-0.06-0.292-0.044-1.781-1.277-2.709
			c-1.232-0.928-3.659-1.197-4.51-0.653C70.238,144.475,69.161,146.982,70.103,148.408z"/>
		<g>
			
				<linearGradient id="SVGID_5_" gradientUnits="userSpaceOnUse" x1="4908.5464" y1="-90.6733" x2="4907.7939" y2="-90.5897" gradientTransform="matrix(-0.9965 0.0836 0.0836 0.9965 4974.8911 -170.1389)">
				<stop  offset="0.1224" style="stop-color:#FEC7C7"/>
				<stop  offset="0.9896" style="stop-color:#FFDBDB"/>
			</linearGradient>
			<path fill="url(#SVGID_5_)" d="M75.807,148.612c-0.052,0.323,0.937,1.848,0.87,2.165c-0.067,0.317-1.178,0.314-1.178,0.314
				L75.807,148.612z"/>
			
				<linearGradient id="SVGID_6_" gradientUnits="userSpaceOnUse" x1="4907.8374" y1="-90.6807" x2="4909.0972" y2="-90.6807" gradientTransform="matrix(-0.9965 0.0836 0.0836 0.9965 4974.8911 -170.1389)">
				<stop  offset="0.188" style="stop-color:#FFDCDC"/>
				<stop  offset="0.8991" style="stop-color:#FEC7C7"/>
			</linearGradient>
			<path fill="url(#SVGID_6_)" d="M75.684,151.136c0.334-0.015,0.983-0.077,1.041-0.349c0.034-0.165-0.145-0.538-0.444-1.132
				c-0.211-0.418-0.45-0.891-0.426-1.035l-0.096-0.015c-0.026,0.163,0.147,0.522,0.436,1.094c0.218,0.433,0.466,0.924,0.435,1.068
				c-0.042,0.202-0.717,0.274-1.13,0.275l0,0.097C75.524,151.14,75.592,151.14,75.684,151.136z"/>
		</g>
		<g>
			<path fill="#754554" d="M73.405,148.694c1.018-0.395,1.981-0.17,1.991-0.168l0.038-0.156c-0.041-0.01-1.02-0.24-2.087,0.174
				L73.405,148.694z"/>
		</g>
		<g>
			<path fill="#754554" d="M76.027,148.361c0.273-0.104,0.753-0.268,0.881-0.259l0.009-0.162c-0.205-0.009-0.873,0.241-0.948,0.27
				L76.027,148.361z"/>
		</g>
		<path fill="#FEC7C7" d="M74.745,152.26c0,0,1.021,0.921,1.587-0.307C75.944,151.71,75.082,151.904,74.745,152.26z"/>
		<path fill="#754554" d="M71.46,149.711l-0.521-0.068c0,0,0.072-1.039-0.43-1.21c-0.501-0.172-0.553,0.08-0.543,0.669
			c0.01,0.589,0.211,0.016,0.086,0.557c-0.125,0.54,0.044,1.505,0.049,1.544c0.004,0.039-0.449-0.842-0.638-1.062
			c-0.189-0.221-0.63-0.787-0.854-1.896c-0.224-1.109-0.298-1.838-0.298-1.838l-0.113,0.009c0,0-0.332-1.875,1.939-2.642
			c0.894-1.544,3.527-1.267,4.491-0.888s1.988,1.644,2.143,2.392c0.154,0.748,0.317,1.045,0.063,1.646
			c-0.241-1.002-0.241-1.002-0.241-1.002s-0.383-0.452-1.119-0.312c-0.736,0.14-2.174-0.264-2.174-0.264s-0.521,0.674-0.561,0.979
			c-0.04,0.306-0.071,1.344-0.144,1.416c-0.073,0.072-0.836,0.517-0.913,0.851C71.604,148.925,71.46,149.711,71.46,149.711z"/>
		<path fill="#FFE6B8" d="M62.983,164.82c0,0,1.26,0.389,2.085,0.601c0.825,0.212,1.917,0.066,1.917,0.066s0.857-3.509,0.721-5.74
			s-1.567-4.028-2.807-4.045s-1.852,4.501-1.9,5.433C62.951,162.066,62.983,164.82,62.983,164.82z"/>
		<path fill="#504F60" d="M70.325,148.807l3.081,0.685l0.05,0.97c0,0,0.249,0.326,0.52,0.313c0.271-0.012,1.089-0.137,1.292-0.262
			c0.202-0.126,0.61-1.222,0.61-1.222l0.112-0.016l0.14,0.306l0.538,0.813c0,0,0.45-0.117,0.679-0.29
			c0.229-0.173,0.462-1.531,0.462-1.531l-0.025-0.177l-1.033-0.274l-0.011,0.242l0.463,0.097l-0.919,0.289
			c0,0-0.301,0.175-0.453,0.218c-0.152,0.044-0.422-0.059-0.856-0.077c-0.434-0.018-1.545,0.219-1.545,0.219l-3.478-0.643
			l-0.197,0.324L70.325,148.807z M76.292,149.724l-0.05-0.6c0.071-0.309,1.093-0.485,1.093-0.485s0.291-0.002,0.309,0.128
			c0.019,0.129-0.153,0.902-0.285,1.158c-0.131,0.256-0.681,0.29-0.681,0.29L76.292,149.724z M73.575,149.361l0.78-0.26
			c0,0,1.235,0.019,1.27,0.075c0.034,0.057-0.263,1.129-0.492,1.25c-0.229,0.121-1.193,0.235-1.378,0.196
			C73.568,150.583,73.575,149.361,73.575,149.361z"/>
		<path fill="#C0BABA" d="M74.354,149.102c0,0,1.235,0.019,1.27,0.075c0.034,0.057-0.263,1.129-0.492,1.249
			c-0.229,0.121-1.193,0.235-1.378,0.196c-0.186-0.04-0.179-1.26-0.179-1.26L74.354,149.102z M76.241,149.125l0.05,0.6l0.387,0.492
			c0,0,0.55-0.034,0.681-0.29c0.131-0.256,0.303-1.029,0.285-1.158c-0.018-0.13-0.309-0.128-0.309-0.128
			S76.312,148.815,76.241,149.125z"/>
		
			<linearGradient id="SVGID_7_" gradientUnits="userSpaceOnUse" x1="4913.7231" y1="-91.458" x2="4915.0317" y2="-91.458" gradientTransform="matrix(-0.9965 0.0836 0.0836 0.9965 4974.8911 -170.1389)">
			<stop  offset="0.1224" style="stop-color:#FEB9B8"/>
			<stop  offset="1" style="stop-color:#FFDEDE"/>
		</linearGradient>
		<path fill="url(#SVGID_7_)" d="M70.654,148.953c0,0-0.308-0.801-1.014-0.61c-0.706,0.19,0.049,1.34,0.279,1.823
			c0.229,0.483,0.38,0.72,0.687,0.615s0.129-0.864,0.129-0.864S70.516,149.135,70.654,148.953z"/>
		
			<linearGradient id="SVGID_8_" gradientUnits="userSpaceOnUse" x1="4913.8228" y1="-91.5713" x2="4914.8228" y2="-91.5713" gradientTransform="matrix(-0.9965 0.0836 0.0836 0.9965 4974.8911 -170.1389)">
			<stop  offset="0.1224" style="stop-color:#FCA4B5"/>
			<stop  offset="0.9896" style="stop-color:#FFADB7"/>
		</linearGradient>
		<path fill="url(#SVGID_8_)" d="M70.569,148.934c0,0-0.307-0.453-0.689-0.395c-0.382,0.058-0.35,0.408-0.23,0.769
			c0.12,0.362,0.469,0.976,0.632,1.041c0.163,0.064,0.392-0.177,0.392-0.177s-0.154-0.709-0.108-0.818
			S70.569,148.934,70.569,148.934z"/>
	</g>
</g>
</svg>
