<?xml version="1.0" encoding="utf-8"?>
<!-- Generator: Adobe Illustrator 16.0.0, SVG Export Plug-In . SVG Version: 6.00 Build 0)  -->
<!DOCTYPE svg PUBLIC "-//W3C//DTD SVG 1.1//EN" "http://www.w3.org/Graphics/SVG/1.1/DTD/svg11.dtd">
<svg version="1.1" id="Layer_1" xmlns="http://www.w3.org/2000/svg" xmlns:xlink="http://www.w3.org/1999/xlink" x="0px" y="0px"
	 width="463.683px" height="425.749px" viewBox="0 0 463.683 425.749" enable-background="new 0 0 463.683 425.749"
	 xml:space="preserve">
<g>
	<g>
		<path fill="#D7E4F2" d="M203.666,209.44c-4.051-2.578-10.808-2.857-15.092-0.624c-4.285,2.233-4.474,6.133-0.423,8.711
			s10.808,2.857,15.092,0.624C207.528,215.918,207.717,212.018,203.666,209.44z"/>
		<g>
			<path fill="#6C6B79" d="M187.79,212.497c0,0-0.265-0.144-0.355,0.316c-0.09,0.459-0.092,0.892-0.092,0.892
				s0.595,0.741,1.863,0.675c1.269-0.066,3.257-1.505,3.257-1.505s3.565-0.846,3.696-1.379c0.131-0.535-0.089-1.455-0.089-1.455
				l-4.02,0.98L187.79,212.497z"/>
			<path fill="#434254" d="M192.274,208.342c0,0-0.166,0.92-0.538,1.027c-0.373,0.107-3.843,2.309-4.084,2.504
				c-0.241,0.194-0.323,1.174-0.323,1.174s0.914,1.067,2.313,0.473c1.399-0.594,3.451-1.339,4.036-1.515s2.25-0.642,2.374-1.703
				s-0.344-1.465-0.344-1.465L192.274,208.342z"/>
			<path fill="#3C3B4E" d="M197.955,185.199c-0.633,2.475-2.744,8.081-3.075,9.801c-0.103,0.527,0.249,0.805,0.065,1.262
				c-0.147,0.37-0.323,0.708-0.528,1c-0.002,0.002-0.003,0.004-0.003,0.004c-0.767,1.081-2.621,1.04-4.397,0.138
				c-0.025-0.423-0.046-0.838-0.062-1.244c-0.47-10.635,1.288-17.384,1.288-17.384l3.05,1.549c0,0,2.831,0.825,3.233,2.208
				C197.653,182.973,198.25,184.047,197.955,185.199z"/>
			<path fill="#3C3B4E" d="M195.852,208.405c-0.016,0.134-0.055,0.251-0.113,0.356c-0.582,1.023-3.582,0.958-3.556,0.645
				c0.029-0.344-1.931-10.254-2.166-12.003c-0.071-0.537-0.083-0.94-0.062-1.244c0.041-0.686,0.237-0.852,0.237-0.852l4.535,0.523
				h0.104c0,0,0.046,0.168,0.113,0.431c0.185,0.719,0.537,2.156,0.581,2.844C195.584,200.046,196.008,206.966,195.852,208.405z"/>
			<path fill="#A8B0C2" d="M195.852,208.405c-0.016,0.134-0.055,0.251-0.113,0.356c-0.136,0.227-0.245,0.276-0.494,0.438
				c-0.34-3.764-0.871-11.878-0.832-11.934c0,0-0.444-0.708-0.441-0.709c0.021-0.058-0.166-1.171-0.002-1.965
				c0.406-1.946,1.742-6.835,1.742-6.835l-0.205-1.137l-0.997-1.122l2.097-2.73l1.347,2.433c-0.633,2.475-2.744,8.081-3.075,9.801
				c-0.103,0.527,0.249,0.805,0.065,1.262c0.185,0.719,0.537,2.156,0.581,2.844C195.584,200.046,196.008,206.966,195.852,208.405z"
				/>
			<path fill="#6C6B79" d="M196.454,215.195l-0.303-0.025c0,0-0.125,0.703-0.074,0.86c0.052,0.158,0.737,0.856,2.134,0.903
				c1.397,0.049,2.154-0.112,2.701-0.655c0.547-0.542,1.951-2.223,1.957-2.292c0.006-0.068,0.517-0.596,0.615-0.934
				c0.097-0.338,0.106-1.063,0.106-1.063l-2.068,0.327L196.454,215.195z"/>
			<path fill="#434254" d="M200.101,209.863c-0.005,0.051-0.565,1.578-0.565,1.578l-3.346,3.594c0,0-0.387,0.486,1.232,0.985
				s2.967,0.093,3.395-0.269c0.428-0.362,2-2.6,2-2.6s0.809-0.779,0.893-1.153c0.083-0.374-0.242-1.751-0.364-2.003
				s-1.203-0.359-1.203-0.359L200.101,209.863z"/>
			<path fill="#3C3B4E" d="M202.825,196.343c-0.002,0.051-0.011,0.102-0.013,0.153c-0.025,0.273-0.062,0.534-0.118,0.794
				c-0.67,3.392-3.395,5.32-3.583,4.219c-0.271-1.578-0.54-3.054-0.794-4.408c-0.01-0.058-0.021-0.116-0.025-0.16
				c-0.011-0.04-0.016-0.071-0.021-0.11c0-0.006-0.005-0.013-0.005-0.013c0-0.02-0.005-0.032-0.005-0.039
				c-0.006-0.013-0.006-0.019-0.006-0.025c-1.166-6.176-2.063-9.833-2.063-9.833l-1.678-1.422l-0.321-3.971l8.544-3.749
				c0,0,0.202,0.501,0.454,1.19c0.343,0.935,0.773,2.227,0.884,3.063C204.536,185.438,203.205,192.434,202.825,196.343z"/>
			<path fill="#3C3B4E" d="M203.328,210.168c-0.012,0.128-0.113,0.258-0.271,0.379c-0.779,0.574-2.974,0.895-3.096-0.28
				c-0.232-2.466-1.371-11.345-1.644-13.166c-0.01-0.058-0.021-0.116-0.025-0.16c-0.011-0.045-0.016-0.084-0.021-0.11
				c0-0.006-0.005-0.013-0.005-0.013c0-0.02-0.005-0.032-0.005-0.039c-0.006-0.013-0.006-0.019-0.006-0.025
				c0.007-0.146,0.828,0.535,0.828,0.535l3.364-2.093l0.066-0.042c0,0,0.126,0.485,0.313,1.19c0.298,1.106,0.757,2.75,1.13,3.879
				C204.559,202.076,203.393,209.41,203.328,210.168z"/>
		</g>
		<g>
			<g>
				<path fill="#8C92B0" d="M195.856,186.159c-0.065-0.003-0.135-0.021-0.207-0.056c-0.381-0.185-0.813-0.808-0.857-1.738
					c-0.024-0.505-0.026-2.514-0.004-2.756l0.226,0.022c-0.02,0.207-0.021,2.196,0.005,2.724c0.042,0.895,0.459,1.414,0.729,1.544
					c0.078,0.039,0.146,0.044,0.185,0.016c0.058-0.042,0.081-0.165,0.06-0.332c-0.144-1.161-0.138-3.873,0.049-4.005l0.056-0.039
					l0.067,0.029l-0.05,0.102l0.001,0.003l0.088,0.055c-0.072,0.184-0.161,2.422,0.014,3.828c0.041,0.33-0.061,0.478-0.153,0.544
					C196.005,186.143,195.934,186.162,195.856,186.159z"/>
			</g>
			<g>
				<path fill="#8C92B0" d="M200.103,184.917c-0.617-0.026-1.141-0.174-1.568-0.443c-0.818-0.515-0.957-1.282-0.962-1.313
					l0.188-0.033c0.001,0.007,0.134,0.72,0.88,1.188c0.835,0.522,2.077,0.553,3.692,0.092l0.052,0.184
					C201.522,184.836,200.759,184.945,200.103,184.917z"/>
			</g>
			<path fill="#A76478" d="M203.862,181.116c0,0-1.528,1.483-4.936,1.588c-3.408,0.104-4.731-0.215-5.923-0.784
				c-1.192-0.569-1.962-1.364-1.962-1.364l0.092-1.326c0,0,0.739,1.02,2.416,1.611c1.677,0.59,5.168,0.538,6.584,0.456
				c1.417-0.082,3.512-1.194,3.512-1.194L203.862,181.116z"/>
			<path fill="#A8B0C2" d="M203.328,210.168c-0.012,0.128-0.113,0.258-0.271,0.379c0.163-1.713,0.839-8.934,0.65-9.435
				c-0.138-0.352-0.661-2.312-1.012-3.822c-0.204-0.91-0.35-1.658-0.306-1.791c0.008-0.031,0.031-0.133,0.058-0.304
				c0.285-1.848,1.422-11.46,0.904-13.695c-0.15-1.106-0.613-2.373-0.613-2.373l0.454-0.159c0.343,0.935,0.773,2.227,0.884,3.063
				c0.46,3.408-0.871,10.403-1.25,14.313c0.298,1.106,0.757,2.75,1.13,3.879C204.559,202.076,203.393,209.41,203.328,210.168z"/>
			<path fill="#3C3B4E" d="M197.123,181.405c0,0-0.06,0.381-0.034,0.825c0.025,0.444,0.114,1.257,0.114,1.257l-0.52-0.037
				c0,0-0.162-0.777-0.177-1.172s0.054-0.95,0.054-0.95L197.123,181.405z"/>
			<path fill="#3C3B4E" d="M202.03,180.984c0,0,0.125,0.365,0.177,0.807c0.052,0.442,0.106,1.258,0.106,1.258l0.506-0.127
				c0,0,0.024-0.793-0.03-1.185s-0.218-0.926-0.218-0.926L202.03,180.984z"/>
			<path fill="#3C3B4E" d="M192.264,180.179c0,0-0.084,0.473-0.069,0.852c0.015,0.379,0.142,1.016,0.142,1.016l-0.381-0.391
				c0,0-0.11-0.646-0.119-0.852c-0.008-0.206,0.128-0.821,0.128-0.821L192.264,180.179z"/>
			<g>
				<path fill="#8C92B0" d="M191.216,183.19c-0.028-0.001-0.057-0.006-0.086-0.014l0.058-0.218c0.297,0.074,0.605-0.642,0.716-1.001
					l0.217,0.066C192.082,182.15,191.741,183.213,191.216,183.19z"/>
			</g>
			<g>
				<path fill="#CCDEFB" d="M195.831,182.825c-0.061,0.007-0.123,0.008-0.187,0.002l-0.99-0.102
					c-0.422-0.043-0.765-0.385-0.781-0.777l-0.015-0.375c-0.008-0.191,0.063-0.369,0.198-0.5c0.153-0.149,0.372-0.221,0.603-0.197
					l0.99,0.102c0.422,0.043,0.765,0.385,0.781,0.777l0.015,0.375c0.008,0.19-0.063,0.369-0.198,0.5
					C196.136,182.738,195.99,182.806,195.831,182.825z M194.5,181.306c-0.066,0.008-0.124,0.033-0.165,0.073
					c-0.042,0.041-0.062,0.093-0.06,0.156l0.015,0.374c0.008,0.185,0.206,0.366,0.424,0.388l0.99,0.101
					c0.106,0.011,0.201-0.017,0.261-0.074c0.042-0.041,0.062-0.093,0.059-0.156l-0.015-0.375c-0.008-0.184-0.206-0.365-0.424-0.388
					l-0.99-0.102C194.563,181.301,194.53,181.302,194.5,181.306z"/>
			</g>
		</g>
		<g>
			<g>
				<path fill="#FEBFBF" d="M191.11,185.834c-0.314-0.164-0.986-1.656-0.986-1.656l0.211,3.667c0,0-0.387,0.279-0.424,0.328
					c-0.04,0.049-0.247-0.158-0.287-0.3c-0.04-0.143-0.94-3.643-0.813-6.383c-0.398-2.057,0.199-10.413,0.431-11.327
					s0.573-8.167,0.973-9.872c0.405-1.704,1.652-1.73,1.652-1.73l-0.112,3.667c0,0-0.019,1.512-0.044,3.471
					c-0.043,3.51-0.111,8.455-0.145,8.707c-0.05,0.395-1.281,6.829-1.281,6.829s0.036,0.047,0.091,0.128
					c0.094,0.135,0.243,0.365,0.381,0.655c0.224,0.469,0.243,1.613,0.225,1.818c-0.017,0.206,0.676,1.441,0.723,1.705
					C191.752,185.802,191.424,185.999,191.11,185.834z"/>
				
					<linearGradient id="SVGID_1_" gradientUnits="userSpaceOnUse" x1="1281.5796" y1="237.4258" x2="1283.3374" y2="237.4258" gradientTransform="matrix(0.9965 0.0836 -0.0836 0.9965 -1067.3761 -170.1389)">
					<stop  offset="0.1224" style="stop-color:#FCA4B5"/>
					<stop  offset="0.9896" style="stop-color:#FFADB7"/>
				</linearGradient>
				<path fill="url(#SVGID_1_)" d="M191.566,174.404c-0.05,0.395-1.281,6.829-1.281,6.829s0.036,0.047,0.091,0.128l-0.252,0.31
					l0.766-5.783c0,0,0.089-4.386-0.027-5.052c-0.116-0.667-0.439-3.843-0.439-3.843l1.288-1.295
					C191.668,169.208,191.6,174.152,191.566,174.404z"/>
				<path fill="#444355" d="M191.785,168.436c0,0-1.663-0.585-2.265-0.999s-0.548-0.859-0.548-0.859s0.443-5.47,1.009-7.03
					c0.771-2.125,3.783-2.187,3.783-2.187L191.785,168.436z"/>
				<path fill="#504F60" d="M204.033,180.503c0,0-0.223,0.129-0.61,0.316c-1.153,0.56-4.996,0.933-7.504,0.722
					c-3.352-0.281-4.919-1.494-4.919-1.494s0.552-6.724,0.532-8.594c-0.02-1.87-0.749-4.317-0.825-6.79
					c-0.077-2.472,0.15-5.814,0.834-6.367c1.678-1.355,4.404-1.029,5.221-1.168c0.815-0.14,2.484-0.57,3.245-0.039
					c0.761,0.53,5.278,2.605,5.597,3.323c0.526,1.182-0.251,2.694-0.628,4.715c-0.231,1.224-0.471,2.449-0.605,3.328
					C204.022,170.788,203.218,176.803,204.033,180.503z"/>
				
					<linearGradient id="SVGID_2_" gradientUnits="userSpaceOnUse" x1="687.5815" y1="177.2324" x2="693.4839" y2="177.2324" gradientTransform="matrix(0.9961 -0.0885 0.0885 0.9961 -505.7195 44.0559)">
					<stop  offset="0.1224" style="stop-color:#FEC7C7"/>
					<stop  offset="0.9694" style="stop-color:#FFADB7"/>
				</linearGradient>
				<path fill="url(#SVGID_2_)" d="M200.553,157.653c0,0-0.013-0.368-0.753-0.422c-0.739-0.055-4.217,0.024-4.506,0.299
					c-0.664,0.632-0.688,3.109,0.455,4.424c2.052-1.212,3.716-2.035,4.406-3.139C200.845,157.713,200.553,157.653,200.553,157.653z"
					/>
				<path fill="#DDE8F6" d="M204.033,180.503c0,0-0.223,0.129-0.61,0.316l-0.036-0.932l-0.996-1.956l0.487-3.253l0.567-2.477
					l0.122-4.538c0,0-0.475-0.336-1.079-1.74c-0.603-1.406,0.04-2.303,0.039-2.413c0,0,1.126,0.477,2.45,1.617
					c-0.231,1.224-0.471,2.449-0.605,3.328C204.022,170.788,203.218,176.803,204.033,180.503z"/>
				<path fill="#FEBFBF" d="M209.318,170.117c0,0-3.138,6.482-3.843,6.838c-0.704,0.356-2.183-0.883-2.183-0.883l-0.505,0.45
					l-0.644,0.246l-1.403,0.335l-1.495,0.809l0.255,0.358c0,0-0.739,0.457-0.754,0.637s0.11,0.386,0.188,0.392
					c0.078,0.006,0.21,0.055,0.21,0.055l0.242,0.593l0.589-0.067c0,0,0.096,0.255,0.41,0.372c0.314,0.118,1.374,0.167,1.79,0.007
					c0.416-0.159,1.768-0.199,1.768-0.199s0.488,0.051,2.06-0.738c1.571-0.79,7.86-7.371,7.238-8.486
					S209.318,170.117,209.318,170.117z"/>
				<path fill="#FEBFBF" d="M202.015,177.846l-0.954,0.076l-2.014,0.663l0.454-0.313l-0.097-0.137c0,0,0.665,0.029,0.798-0.025
					c0.134-0.053,1.117-0.322,1.117-0.322l0.701-0.006L202.015,177.846z"/>
				<polygon fill="#FEBFBF" points="202.258,178.657 200.607,178.856 198.935,179.3 199.172,179.419 199.996,179.181 				"/>
				<path fill="#FEBFBF" d="M202.479,179.429c0,0-1.492,0.315-1.764,0.306c-0.272-0.01-1.263,0.205-1.263,0.205l0.67,0.057
					l2.154-0.316L202.479,179.429z"/>
				<path fill="#FEBFBF" d="M204.999,160.985c0,0-2.43-0.411-2.278,2.715c0.153,3.126,7.991,8.039,8.917,8.143
					c0.925,0.104,1.819-0.652,1.576-1.477c-0.242-0.824-3.021-4.508-4.806-6.422S206.003,161.07,204.999,160.985z"/>
				<path fill="#444355" d="M209.893,165.154c0,0-0.877,0.881-1.451,1.676c-0.252,0.349-1.704,2.188-1.704,2.188l-3.683-2.906
					c0,0-1.278-1.392-0.427-3.95c0.852-2.559,2.721-2,2.721-2L209.893,165.154z"/>
			</g>
			<g>
				<path fill="#E65E5E" d="M203.826,149.503c0,0,0.86-0.989,0.76-1.307c-0.1-0.318-0.628-1.199-1.402-1.25
					c-0.774-0.051-2.385,0.015-2.385,0.015l0.99,1.738L203.826,149.503z"/>
				
					<linearGradient id="SVGID_3_" gradientUnits="userSpaceOnUse" x1="1290.4106" y1="221.4473" x2="1287.4296" y2="216.9224" gradientTransform="matrix(0.9965 0.0836 -0.0836 0.9965 -1067.3761 -170.1389)">
					<stop  offset="0.1224" style="stop-color:#FEC7C7"/>
					<stop  offset="0.9694" style="stop-color:#FFADB7"/>
				</linearGradient>
				<path fill="url(#SVGID_3_)" d="M195.189,156.337c0,0,0.208,1.021,0.039,1.802s-0.589,0.902-0.184,1.195
					c0.405,0.293,1.647,0.536,3.181-0.01s2.105-1.38,2.198-1.666c0.093-0.286-0.366-0.999-0.366-0.999s-0.353-1.154-0.116-2.535
					c0.237-1.382,1.733-2.934,1.289-3.61c-0.445-0.678-4.048-1.43-5.194,0.065C194.89,152.074,195.189,156.337,195.189,156.337z"/>
				<path fill="#FEC7C7" d="M199.519,153.522c-0.242,0.863-0.566,1.663-0.85,2.123c-0.715,1.163-3.71,2.277-4.646,1.541
					c-0.429-0.339-0.592-1.576-0.643-2.843c-0.059-1.494,0.04-3.032,0.042-3.191c0.003-0.292,0.336-1.41,0.336-1.41
					s5.05-0.633,5.83,0.387C200.059,150.744,199.886,152.206,199.519,153.522z"/>
				<path fill="#5C5B6B" d="M198.773,153.286c-0.242,0.863,0.179,1.899-0.104,2.359c-0.715,1.163-3.71,2.277-4.646,1.541
					c-0.429-0.339-0.592-1.576-0.643-2.843l0.602,0.405l0.876,0.282c0,0,2.547,0.394,2.794,0.047
					c0.249-0.347,0.661-1.631,0.661-1.631L198.773,153.286z"/>
				<g>
					<path fill="#754554" d="M196.464,152.446c-0.68-0.36-1.792-0.279-1.803-0.278l-0.012-0.159c0.046-0.003,1.168-0.086,1.89,0.296
						L196.464,152.446z"/>
				</g>
				<g>
					<path fill="#754554" d="M193.989,151.847c-0.005-0.005-0.477-0.461-0.744-0.551l0.052-0.152
						c0.301,0.102,0.783,0.568,0.804,0.588L193.989,151.847z"/>
				</g>
				<g>
					
						<linearGradient id="SVGID_4_" gradientUnits="userSpaceOnUse" x1="1222.9976" y1="218.0771" x2="1222.0205" y2="218.3427" gradientTransform="matrix(0.9978 0.0661 -0.0661 0.9978 -1011.5397 -145.2515)">
						<stop  offset="0.1224" style="stop-color:#FEC7C7"/>
						<stop  offset="0.9896" style="stop-color:#FFDBDB"/>
					</linearGradient>
					<path fill="url(#SVGID_4_)" d="M194.217,151.794c0.071,0.366-0.867,2.13-0.879,2.317c-0.012,0.187,0.946,0.449,1.345,0.428
						L194.217,151.794z"/>
					
						<linearGradient id="SVGID_5_" gradientUnits="userSpaceOnUse" x1="1221.9985" y1="218.0723" x2="1223.4233" y2="218.0723" gradientTransform="matrix(0.9978 0.0661 -0.0661 0.9978 -1011.5397 -145.2515)">
						<stop  offset="0.188" style="stop-color:#FFDCDC"/>
						<stop  offset="0.8991" style="stop-color:#FEC7C7"/>
					</linearGradient>
					<path fill="url(#SVGID_5_)" d="M194.58,154.587c-0.391-0.017-1.069-0.198-1.242-0.373c-0.034-0.034-0.05-0.07-0.048-0.106
						c0.005-0.072,0.1-0.284,0.283-0.684c0.254-0.558,0.639-1.401,0.597-1.621l0.095-0.018c0.044,0.231-0.248,0.897-0.604,1.679
						c-0.133,0.291-0.27,0.592-0.274,0.65c0,0.005,0.005,0.017,0.021,0.032c0.155,0.157,0.913,0.366,1.274,0.345l0.004,0.096
						C194.654,154.589,194.618,154.589,194.58,154.587z"/>
				</g>
				<path fill="#FEBFBF" d="M194.998,155.782c0,0-1.161,0.191-1.332-0.485C193.987,155.137,194.998,155.782,194.998,155.782z"/>
				<circle fill="#FFFFFF" cx="195.671" cy="152.828" r="0.286"/>
				
					<ellipse transform="matrix(0.9959 -0.0907 0.0907 0.9959 -12.9966 18.1974)" fill="#FFFFFF" cx="193.819" cy="152.165" rx="0.183" ry="0.252"/>
				<path fill="#444355" d="M198.8,153.326l-0.486,0.12c0,0,0.021-1.163-0.332-1.56s-1.158-1.251-1.158-1.251l2.272-0.944
					l2.71-0.472l0.429,1.342c0,0-0.269,1.451-0.712,2.146c-0.444,0.696-1.069,1.051-1.363,1.528
					c-0.219,0.356-0.333,0.696-0.299,0.692c0,0-0.045-0.456,0.065-0.806c0.181-0.573,0.528-1.189,0.323-1.481
					c-0.332-0.471-0.792-0.571-0.962-0.34C199.117,152.531,198.8,153.326,198.8,153.326z"/>
				<path fill="#444355" d="M199.862,154.929l0.012,0.604c0,0,0.511-1.099,0.73-1.319s0.855-1.208,0.986-1.619
					c0.131-0.411-0.998-0.177-0.998-0.177l-0.73,2.054L199.862,154.929z"/>
				<path fill="#F26363" d="M202.506,149.354l0.2-0.16c0,0-0.578-1.438-1.907-2.234c-1.329-0.796-3.691-0.866-4.35-0.824
					s-1.631,0.635-1.746,1.059c-0.115,0.424-0.768,1.158-0.796,1.588c-0.029,0.43,2.35,1.814,2.35,1.814
					S201.64,150.954,202.506,149.354z"/>
				<path fill="#E65E5E" d="M199.612,149.749c0,0-1.75-0.427-2.135-0.625c-0.384-0.199-1.174-0.789-1.174-0.789
					S197.069,149.546,199.612,149.749z"/>
				<path fill="#F76565" d="M202.236,150.562c0,0-0.85,0.583-2.137,0.705c-1.286,0.122-3.049,0.402-4.532,0.097
					c-1.482-0.306-2.176-1.042-2.176-1.042s0.02-1.087,0.247-1.383s0.227-0.296,0.227-0.296s1.464,1.099,2.181,1.232
					c0.716,0.134,4.551,0.129,5.432-0.383c0.538-0.313,0.937-0.376,1.165-0.379c0.146-0.001,0.223,0.022,0.223,0.022l-0.163,0.368
					L202.236,150.562z"/>
				<path fill="#E65E5E" d="M197.49,149.453c0,0-2.677-0.787-3.165-1.249C194.841,148.24,197.49,149.453,197.49,149.453z"/>
				<path fill="#E65E5E" d="M199.37,149.889c0,0-2.535,0.071-2.93,0.028c-0.395-0.042-1.096-0.321-1.096-0.321l-1.173-0.732
					c0,0,1.173,0.637,2.044,0.79C197.087,149.806,199.37,149.889,199.37,149.889z"/>
				<path fill="#E65E5E" d="M199.846,150.922c0,0-1.731,0.316-2.212,0.285s-3.457-0.748-3.457-0.748l3.724,0.627L199.846,150.922z"
					/>
				<path fill="#F26363" d="M203.425,147.998c0,0-0.482-0.55-0.74-1.085c-0.258-0.535-0.623-1.095-1.136-0.749
					c-0.513,0.346,0.125,1.148,0.125,1.148l1.35,1.005L203.425,147.998z"/>
				<path fill="#F26363" d="M201.664,149.813c0,0,0.479,0.255,0.61,0.663s0.065,0.87,0.065,0.87s1.381,0.282,1.583-0.431
					c0.203-0.712-0.052-1.299-0.052-1.299l-0.149-0.873l-1.393-0.597l-0.199,0.687l-0.274,0.54l-0.532,0.192L201.664,149.813z"/>
				
					<linearGradient id="SVGID_6_" gradientUnits="userSpaceOnUse" x1="1227.8071" y1="217.8672" x2="1229.3179" y2="217.8672" gradientTransform="matrix(0.9978 0.0661 -0.0661 0.9978 -1011.5397 -145.2515)">
					<stop  offset="0.1224" style="stop-color:#FEB9B8"/>
					<stop  offset="1" style="stop-color:#FFDEDE"/>
				</linearGradient>
				<path fill="url(#SVGID_6_)" d="M199.508,152.453c0,0,0.555-0.645,1.085-0.035c0.53,0.609-0.852,2-1.14,2.088
					c-0.288,0.088-0.406-0.654-0.274-0.815C199.31,153.529,199.508,152.453,199.508,152.453z"/>
				
					<linearGradient id="SVGID_7_" gradientUnits="userSpaceOnUse" x1="744.686" y1="186.2832" x2="745.9116" y2="186.2832" gradientTransform="matrix(0.9974 -0.0725 0.0725 0.9974 -557.0488 21.4885)">
					<stop  offset="0.1224" style="stop-color:#FCA4B5"/>
					<stop  offset="0.9896" style="stop-color:#FFADB7"/>
				</linearGradient>
				<path fill="url(#SVGID_7_)" d="M199.607,152.598c0,0,0.708-0.328,0.781,0.081c0.073,0.409-0.594,1.281-0.744,1.338
					s-0.393-0.097-0.393-0.097L199.607,152.598z"/>
				<path fill="#444355" d="M198.646,152.944c0.017-0.001,0.19,0.598,0.886,0.972c-0.58-0.573-0.723-1.345-0.723-1.345
					s0.498,0.578,0.672,0.668c0.176,0.089,0.315,0.09,0.315,0.09l-0.315-0.215c0,0-0.404-0.421-0.398-0.774
					c0.006-0.353-0.214-0.42-0.214-0.42L198.646,152.944z"/>
			</g>
		</g>
	</g>
	<g>
		<g>
			<polygon fill="#858AAB" points="195.432,175.239 194.786,175.061 194.916,171.924 195.557,172.1 			"/>
			<polygon fill="#858AAB" points="196.237,175.357 195.591,175.179 195.714,172.039 196.356,172.215 			"/>
			<path fill="#858AAB" d="M195.992,164.774c0,0-3.458-1.015-3.465,3.694c-0.005,3.675,1.648,3.975,1.672,4.507
				c0.023,0.533,0.363,0.954,0.604,1.261c0.241,0.308,0.801,0.339,0.801,0.339L195.992,164.774z"/>
			<path fill="#858AAB" d="M195.992,164.774c0,0,3.487,0.48,3.124,5.126c-0.283,3.625-1.902,3.062-1.967,3.575
				c-0.065,0.514-0.432,0.78-0.694,0.977s-0.851,0.123-0.851,0.123L195.992,164.774z"/>
		</g>
		<path fill="#504F60" d="M194.436,167.616c0,0-1.531-0.269-1.379,1.44c0.153,1.722,1.811,1.042,1.984,0.66
			C195.214,169.335,195.57,167.883,194.436,167.616z"/>
		<path fill="#504F60" d="M197.161,168.329c0,0,1.515,0.528,1.09,2.09c-0.428,1.573-1.909,0.065-2.013-0.389
			C196.134,169.576,196.029,168.002,197.161,168.329z"/>
		<path fill="#504F60" d="M195.287,172.504c0,0,0.58,0.312,0.632-0.313c0.053-0.622-0.092-1.276-0.253-1.43
			C195.505,170.607,194.632,172.324,195.287,172.504z"/>
	</g>
</g>
</svg>
