<?xml version="1.0" encoding="utf-8"?>
<!-- Generator: Adobe Illustrator 16.0.0, SVG Export Plug-In . SVG Version: 6.00 Build 0)  -->
<!DOCTYPE svg PUBLIC "-//W3C//DTD SVG 1.1//EN" "http://www.w3.org/Graphics/SVG/1.1/DTD/svg11.dtd">
<svg version="1.1" id="Layer_1" xmlns="http://www.w3.org/2000/svg" xmlns:xlink="http://www.w3.org/1999/xlink" x="0px" y="0px"
	 width="463.683px" height="425.749px" viewBox="0 0 463.683 425.749" enable-background="new 0 0 463.683 425.749"
	 xml:space="preserve">
<g>
	<g>
		<path fill="#D7E4F2" d="M355.294,242.104c4.664-2.967,12.442-3.289,17.375-0.718c4.933,2.57,5.15,7.061,0.487,10.027
			c-4.663,2.968-12.442,3.29-17.375,0.719C350.849,249.563,350.631,245.072,355.294,242.104z"/>
		<g>
			<path fill="#6C6B79" d="M372.486,247.182l0.249,0.631c0,0,0.117,0.751-0.025,0.872c-0.143,0.12-0.711,0.893-1.87,0.899
				c-1.158,0.007-3.229-1.776-3.229-1.776s-3.186-1.702-3.288-1.841c-0.102-0.139-0.103-1.226-0.103-1.226l6.269,2.177
				L372.486,247.182z"/>
			<path fill="#6C6B79" d="M362.659,248.368c0,0,0.491,0.067,0.581,0.259c0.091,0.192,0.076,0.899,0.076,0.899
				s-0.987,0.95-2.692,0.922c-1.705-0.027-2.537-0.882-2.744-1.19s-2.154-2.57-2.154-2.57s-0.29-0.283-0.243-0.959
				c0.046-0.677,0.01-0.744,0.01-0.744s2.709,2.272,2.768,2.322C358.317,247.355,362.659,248.368,362.659,248.368z"/>
			<path fill="#504F60" d="M367.871,243.349c0,0,0.386,0.71,0.766,0.914c0.379,0.203,3.671,2.3,3.671,2.3s0.717,0.991,0.259,1.572
				c-0.459,0.582-1.855,0.771-2.813,0.381c-0.956-0.391-2.255-1.404-2.708-1.62c-0.452-0.216-2.6-1.195-2.777-1.796
				c-0.177-0.602-0.168-0.71-0.092-1.098c0.076-0.387,0.268-1.345,0.32-1.367C364.548,242.612,367.871,243.349,367.871,243.349z"/>
			<path fill="#4F5997" d="M364.101,228.304c0.053,0.606,0.113,1.145,0.178,1.58c0.051,0.34,0.128,0.638,0.228,0.895
				c0.876,2.302,3.445,1.556,3.92,0.605c0.054-0.106,0.111-0.272,0.172-0.486v-0.002c0.533-1.882,1.196-9.897,1.565-13.636
				c0.412-4.164-1.057-7.41-1.256-9.351l-4.768,2.321l-0.674,4.513c0,0,0.016,0.645,0.044,1.655
				C363.581,218.748,363.84,225.461,364.101,228.304z"/>
			<path fill="#4F5997" d="M364.027,242.996c0,0,0.508,0.482,1.277,0.869c0.034,0.02,0.068,0.036,0.102,0.053
				c0.855,0.398,2.475-0.462,2.465-0.569c-0.009-0.108,0.555-10.651,0.728-12.451v-0.002c0.171-1.79-0.672-2.44-0.672-2.44
				l-3.407-0.135l-0.418-0.017l-0.005,0.001c0,0-0.682,1.94-0.583,4.952C363.619,236.515,364.027,242.996,364.027,242.996z"/>
			<path fill="#A8B0C2" d="M364.027,242.996c0,0,0.508,0.482,1.277,0.869c-0.896-11.847,0.204-14.288,0.104-15.51l-0.135-8.288
				l0.57-3.034l-2.333-0.635c0.07,2.35,0.33,9.063,0.591,11.905l-0.005,0.001c0,0-0.61,1.939-0.583,4.952
				C363.544,236.769,364.027,242.996,364.027,242.996z"/>
			<path fill="#504F60" d="M356.191,242.789c-0.119,0.045-0.785,1.17-0.744,1.656c0.041,0.485,0.271,1.716,0.329,1.766
				c0.059,0.049,1.724,2.844,3.081,3.255c1.356,0.412,3.41-0.159,3.96-0.513c0.55-0.354,0.401-0.396,0.401-0.396
				s-0.041-0.485-0.648-0.815c-0.607-0.329-2.394-2.842-2.394-2.842l-0.739-2.004L356.191,242.789z"/>
			<path fill="#4F5997" d="M366.455,212.645c0,0,0.525,2.673,0.311,3.705s-1.668,1.843-1.722,2.064
				c-0.054,0.223-2.938,14.079-3.894,14.775c-0.956,0.695-3.021,1.122-3.272-3.168c-0.251-4.289-1.415-12.669-1.599-13.994
				s-0.119-4.186,0.681-5.448S366.455,212.645,366.455,212.645z"/>
			<g>
				<path fill="#8C92B0" d="M365.414,217.478c0.056-0.003,0.115-0.02,0.177-0.052c0.297-0.153,0.621-0.639,0.635-1.344
					c0.008-0.386-0.038-1.922-0.062-2.107l-0.176,0.022c0.021,0.159,0.068,1.679,0.061,2.081c-0.013,0.676-0.329,1.082-0.539,1.191
					c-0.068,0.035-0.124,0.041-0.158,0.018c-0.046-0.031-0.066-0.124-0.055-0.248c0.088-0.887,0.02-2.959-0.131-3.063l-0.043-0.029
					l-0.053,0.023l0.04,0.078l-0.001,0.004l-0.066,0.045c0.062,0.141,0.185,1.85,0.078,2.924c-0.024,0.251,0.058,0.362,0.131,0.412
					C365.298,217.466,365.354,217.48,365.414,217.478z"/>
			</g>
			<g>
				<path fill="#8C92B0" d="M359.558,217.498c1.594-0.069,2.427-0.486,2.857-0.872c0.519-0.462,0.54-0.934,0.541-0.953l-0.178-0.007
					c0,0.004-0.023,0.423-0.488,0.834c-0.53,0.469-1.701,0.986-4.276,0.785l-0.013,0.178
					C358.587,217.509,359.104,217.518,359.558,217.498z"/>
			</g>
			<path fill="#A76478" d="M356.084,214.52c0,0,1.751,1.082,5.474,0.949c3.724-0.132,5.149-0.469,6.418-0.997s2.063-1.21,2.063-1.21
				l-0.175-1.049c0,0-0.749,0.858-2.545,1.435c-1.796,0.575-5.608,0.755-7.158,0.778c-1.55,0.024-3.898-0.728-3.898-0.728
				L356.084,214.52z"/>
			<path fill="#4F5997" d="M363.454,214.322c0,0,0.086,0.3,0.083,0.654c-0.002,0.355-0.053,1.007-0.053,1.007l0.564-0.062
				c0,0,0.133-0.629,0.128-0.944c-0.006-0.315-0.112-0.752-0.112-0.752L363.454,214.322z"/>
			<path fill="#4F5997" d="M358.076,214.299c0,0-0.115,0.298-0.146,0.652c-0.032,0.355-0.046,1.007-0.046,1.007l-0.559-0.069
				c0,0-0.071-0.629-0.034-0.944c0.036-0.314,0.186-0.75,0.186-0.75L358.076,214.299z"/>
			<path fill="#4F5997" d="M368.685,213.039c0,0,0.118,0.371,0.124,0.674c0.005,0.302-0.097,0.816-0.097,0.816l0.393-0.335
				c0,0,0.085-0.521,0.082-0.685S369,212.864,369,212.864L368.685,213.039z"/>
			<g>
				<path fill="#8C92B0" d="M369.972,215.385c0.035-0.001,0.071-0.006,0.107-0.016l-0.053-0.205
					c-0.366,0.095-0.751-0.508-0.87-0.747l-0.189,0.096C368.987,214.551,369.424,215.409,369.972,215.385z"/>
			</g>
			<g>
				<path fill="#CCDEFB" d="M364.479,215.241c-0.155-0.096-0.242-0.233-0.244-0.386l-0.005-0.299
					c-0.004-0.313,0.351-0.606,0.809-0.668l1.074-0.143c0.25-0.033,0.493,0.01,0.668,0.118c0.155,0.097,0.242,0.233,0.244,0.386
					l0.005,0.299c0.005,0.313-0.351,0.606-0.809,0.668l-1.074,0.143c-0.069,0.01-0.138,0.014-0.204,0.011
					C364.768,215.364,364.605,215.32,364.479,215.241z M366.205,214.082l-1.075,0.145c-0.236,0.031-0.442,0.188-0.44,0.335
					l0.004,0.299c0.001,0.05,0.026,0.091,0.074,0.12c0.067,0.042,0.174,0.058,0.288,0.043l1.075-0.144
					c0.236-0.032,0.442-0.188,0.44-0.335l-0.005-0.299c0-0.051-0.025-0.092-0.073-0.121c-0.047-0.029-0.11-0.045-0.184-0.048
					C366.276,214.076,366.24,214.078,366.205,214.082z"/>
			</g>
			<path fill="#4F5997" d="M361.359,231.36c0,0,0.494,0.058,0.321,0.91s-1.913,11.09-1.913,11.09s-1.768,0.635-2.814,0.252
				c-1.047-0.384-1.267-0.716-1.275-0.823c-0.01-0.108-0.191-5.866,0.609-8.849c0.8-2.982,1.545-7.136,1.545-7.136L361.359,231.36z"
				/>
			<path fill="#FEBFBF" d="M367.89,191.05c0,0,1.83,0.009,2.454,2.258c0.623,2.248,1.76,8.456,1.619,9.373
				c-0.141,0.918-2.248,1.493-3.292-0.376C367.627,200.437,367.89,191.05,367.89,191.05z"/>
			<path fill="#E6F1FF" d="M367.262,189.675c0,0,2.549-0.108,3.27,2.766c0.257,1.025,1.578,7.149,1.578,7.149
				s-2.456,2.108-3.893,1.358C366.781,200.2,367.262,189.675,367.262,189.675z"/>
			<path fill="#FEBFBF" d="M371.974,202.535c0.307,0.264,2.608,4.165,2.745,4.28s0.987-0.318,0.987-0.318l1.019,0.259l1.059,0.527
				c0,0,0.759,0.189,0.821,0.293s-0.081,0.333-0.429,0.289c-0.348-0.043-0.967-0.082-1.304-0.217
				c-0.338-0.134,0.042,1.156,0.042,1.156s-0.195,0.904-0.556,0.935c-0.359,0.03-0.975,0.136-1.276,0.161s-0.73-0.12-0.73-0.12
				l-0.679-0.106l-0.746-1.114c0,0-4.577-3.614-3.956-5.815C370.636,202.412,371.667,202.271,371.974,202.535z"/>
			<g>
				<path fill="#C4C8D8" d="M375.122,208.066c0.153-0.085,0.421-0.169,0.577-0.178c1.416-0.09,5.172-0.662,5.189-0.651
					c0.008,0.004,0.046,0.342,0.048,0.348c0.011,0.025-0.029,0.067-0.113,0.115c-0.665,0.368-1.33,0.735-1.999,1.106
					c-0.003,0.001-0.005,0.002-0.007,0.004c-0.154,0.085-0.417,0.161-0.57,0.173c-1.42,0.091-3.704,0.237-5.12,0.329
					c-0.074,0.004-0.115-0.009-0.119-0.033c-0.004-0.023-0.047-0.354-0.047-0.354L375.122,208.066z"/>
				<path fill="#D7E4F2" d="M380.688,207.362c-0.657,0.363-1.311,0.725-1.968,1.088c-0.129,0.071-0.348,0.139-0.482,0.147
					c-1.4,0.09-3.672,0.235-5.076,0.326c-0.131,0.008-0.133-0.045-0.003-0.116c0.657-0.364,1.31-0.726,1.967-1.089
					c0.129-0.071,0.349-0.139,0.479-0.146c1.404-0.091,3.676-0.236,5.075-0.326C380.815,207.237,380.817,207.291,380.688,207.362
					L380.688,207.362z M373.066,208.824c-0.154,0.086-0.138,0.145,0.011,0.137c1.417-0.092,3.7-0.238,5.121-0.329
					c0.153-0.012,0.416-0.088,0.57-0.173c0.002-0.002,0.004-0.003,0.006-0.004c0.669-0.371,1.335-0.738,2-1.106
					c0.148-0.085,0.159-0.152-0.005-0.14c-1.42,0.091-3.704,0.237-5.12,0.328c-0.155,0.009-0.424,0.093-0.577,0.178
					c-0.665,0.367-1.33,0.735-1.999,1.106C373.071,208.822,373.068,208.823,373.066,208.824L373.066,208.824z"/>
				<path fill="#7C78F0" d="M379.774,207.781c-0.165,0.092-0.326,0.181-0.487,0.27l-0.037,0.013v-0.01
					c0.161-0.089,0.322-0.179,0.488-0.271l0.036-0.01V207.781L379.774,207.781z M379.194,208.112l-0.077,0.024v-0.02l0.077-0.022
					V208.112L379.194,208.112z M379.061,208.193l-0.105,0.033l-0.005-0.025l0.113-0.035L379.061,208.193L379.061,208.193z
					 M373.159,208.808c-0.13,0.071-0.128,0.124,0.003,0.116c1.404-0.091,3.676-0.236,5.076-0.326
					c0.135-0.009,0.354-0.076,0.482-0.147c0.657-0.363,1.311-0.725,1.968-1.088c0.129-0.071,0.127-0.125-0.008-0.116
					c-1.399,0.09-3.671,0.235-5.075,0.326c-0.131,0.008-0.351,0.075-0.479,0.146C374.468,208.082,373.816,208.443,373.159,208.808
					L373.159,208.808z"/>
				<path fill="#2A2A2C" d="M379.25,208.054c0.161-0.089,0.322-0.179,0.488-0.271l0.036-0.01v0.008
					c-0.165,0.092-0.326,0.181-0.487,0.27l-0.037,0.013V208.054L379.25,208.054z"/>
				<path fill="#838383" d="M379.041,208.195l-0.064,0.02l-0.005-0.016l0.073-0.021L379.041,208.195L379.041,208.195z
					 M378.951,208.201l0.005,0.025l0.105-0.033l0.003-0.027L378.951,208.201L378.951,208.201z"/>
				<polygon fill="#516F83" points="378.971,208.199 379.044,208.178 379.041,208.195 378.976,208.215 378.971,208.199 				"/>
				<polygon fill="#2A2A2C" points="379.117,208.117 379.194,208.095 379.194,208.112 379.117,208.137 379.117,208.117 				"/>
			</g>
			
				<linearGradient id="SVGID_1_" gradientUnits="userSpaceOnUse" x1="3618.437" y1="78.0391" x2="3619.5344" y2="75.75" gradientTransform="matrix(-0.9965 0.0836 0.0836 0.9965 3975.0552 -170.1389)">
				<stop  offset="0.1224" style="stop-color:#FEB9B8"/>
				<stop  offset="1" style="stop-color:#FFDEDE"/>
			</linearGradient>
			<path fill="url(#SVGID_1_)" d="M375.576,208.5c0.036-0.003,0.301,0.021,0.559,0.071s0.479,0.213,0.479,0.213l0.288-0.023
				l0.106,1.268l-2.702,0.399l-0.829-1.046l0.143-1.315c0,0,0.439-0.163,0.485-0.04c0.047,0.122,0.047,0.122,0.047,0.122
				s0.14-0.273,0.375-0.275s0.231,0.161,0.231,0.161s0.202-0.29,0.371-0.213C375.299,207.898,375.576,208.5,375.576,208.5z"/>
			
				<linearGradient id="SVGID_2_" gradientUnits="userSpaceOnUse" x1="3618.6792" y1="76.7305" x2="3619.4507" y2="76.7305" gradientTransform="matrix(-0.9965 0.0836 0.0836 0.9965 3975.0552 -170.1389)">
				<stop  offset="0.1224" style="stop-color:#FCA4B5"/>
				<stop  offset="0.9896" style="stop-color:#FFADB7"/>
			</linearGradient>
			<path fill="url(#SVGID_2_)" d="M374.806,207.975c0,0,0.042,0.379,0.114,0.481c0.071,0.103,0.368,1.155,0.368,1.155l0.252,0.232
				l-0.249,0.021l-0.209-0.335l-0.375-1.346l-0.104-0.271L374.806,207.975z"/>
			
				<linearGradient id="SVGID_3_" gradientUnits="userSpaceOnUse" x1="3619.6323" y1="76.7271" x2="3620.228" y2="76.7271" gradientTransform="matrix(-0.9965 0.0836 0.0836 0.9965 3975.0552 -170.1389)">
				<stop  offset="0.1224" style="stop-color:#FCA4B5"/>
				<stop  offset="0.9896" style="stop-color:#FFADB7"/>
			</linearGradient>
			<polygon fill="url(#SVGID_3_)" points="374.152,208.148 374.336,209.374 374.583,209.845 373.975,209.722 374.246,209.391 
				374.094,208.435 374.105,208.026 			"/>
			<path fill="#A8B0C2" d="M356.155,214.204c0,0,1.666,1.064,5.39,0.933c3.723-0.133,5.148-0.471,6.417-0.998
				c1.269-0.528,2.026-1.197,2.026-1.197l-0.138-1.062c0,0-0.748,0.858-2.545,1.434c-1.796,0.576-5.608,0.755-7.158,0.779
				s-3.934-0.765-3.934-0.765L356.155,214.204z"/>
			<path fill="#DDE8F6" d="M355.784,200.11c0.089,1.128,1.345,6.323,0.847,9.07c-0.49,2.753-0.44,3.608-0.501,4.206
				c-0.019,0.209,0.296,0.49,0.942,0.743c1.24,0.489,3.7,0.878,7.365,0.472c4.26-0.465,5.586-1.994,5.586-1.994
				s-0.521-2.128-0.784-5.451c-0.257-3.316,0.88-5.508,1.107-8.946c0.226-3.444,0.118-6.252-1.266-7.585
				c-1.397-1.352-5.798-1.852-7.657-1.343s-1.367,0.902-3.529,2.007s-2.661,1.481-2.661,1.481c-0.615,0.951-0.448,2.651-0.141,4.205
				C355.366,198.334,355.741,199.577,355.784,200.11z"/>
			<polygon fill="#E6F1FF" points="362.719,198.582 362.918,201.742 361.704,202.658 360.082,202.358 359.924,199.257 			"/>
			<path fill="#DDE8F6" d="M356.63,209.181c-0.49,2.753-0.44,3.608-0.501,4.206c-0.019,0.209,0.296,0.49,0.942,0.743
				c1.009-1.442,0.936-4.245,0.922-5.938c1.363-0.996,7.283-1.292,7.754-1.868c0.477-0.583,0.238-0.693-0.173-1.051
				c-0.403-0.357-7.255,0.085-7.36-0.03c-0.104-0.116-0.437-1.448-0.144-3.349c0.293-1.901,0.333-5.458,0.333-5.458
				s-2.043,0.135-3.312,0.538c0.273,1.36,0.648,2.604,0.691,3.137C355.873,201.238,357.128,206.434,356.63,209.181z"/>
			
				<linearGradient id="SVGID_4_" gradientUnits="userSpaceOnUse" x1="3631.8442" y1="55.8618" x2="3626.2979" y2="54.8306" gradientTransform="matrix(-0.9965 0.0836 0.0836 0.9965 3975.0552 -170.1389)">
				<stop  offset="0.1224" style="stop-color:#FEC7C7"/>
				<stop  offset="0.9694" style="stop-color:#FFADB7"/>
			</linearGradient>
			<path fill="url(#SVGID_4_)" d="M366.833,189.49c0,0-0.543,1.712-0.493,2.088s-1.069,1.068-2.896,0.66
				c-1.828-0.408-3.041-1.918-3.003-2.103c0.039-0.185,0.823-0.341,1.528-1.867s1.22-3.344,1.203-3.995
				c-0.017-0.65,1.802-0.351,1.802-0.351L366.833,189.49z"/>
			<path fill="#E6F1FF" d="M364.81,192.2c0,0,0.549,0.654,0.962,0.73c0.536-0.173,0.854-0.998,0.892-1.236
				c0.036-0.237-0.075-0.769-0.166-0.985s-0.379-0.307-0.365,0.016c0.015,0.323-0.584,1.052-1.304,1.181
				C364.725,192.062,364.81,192.2,364.81,192.2z"/>
			<path fill="#FEC7C7" d="M363.827,188.819c0.077,0.706,2.682,2.662,3.695,2.587c0.475-0.035,1.009-0.978,1.507-2.059
				c0.561-1.221,1.076-2.616,1.414-3.077c0.634-0.868,0.598-3.239,0.355-3.743c-0.242-0.505-1.68-2.087-3.095-2.114
				s-3.229,0.778-3.376,1.424c-0.146,0.647,0.12,2.925,0.12,2.925s-0.061,0.29-0.145,0.716
				C364.105,186.505,363.772,188.322,363.827,188.819z"/>
			<g>
				
					<linearGradient id="SVGID_5_" gradientUnits="userSpaceOnUse" x1="3623.3931" y1="55.1367" x2="3622.5427" y2="55.8191" gradientTransform="matrix(-0.9965 0.0836 0.0836 0.9965 3975.0552 -170.1389)">
					<stop  offset="0.1224" style="stop-color:#FEC7C7"/>
					<stop  offset="0.9896" style="stop-color:#FFDBDB"/>
				</linearGradient>
				<path fill="url(#SVGID_5_)" d="M369.496,186.547c-0.118,0.424,0.289,1.939,0.189,2.259c-0.1,0.321-1.273,0.094-1.389,0.008
					L369.496,186.547z"/>
				
					<linearGradient id="SVGID_6_" gradientUnits="userSpaceOnUse" x1="3622.6704" y1="55.2285" x2="3624.1714" y2="55.2285" gradientTransform="matrix(-0.9965 0.0836 0.0836 0.9965 3975.0552 -170.1389)">
					<stop  offset="0.188" style="stop-color:#FFDCDC"/>
					<stop  offset="0.8991" style="stop-color:#FEC7C7"/>
				</linearGradient>
				<path fill="url(#SVGID_6_)" d="M369.287,189.022c0.098-0.004,0.188-0.017,0.26-0.041c0.101-0.033,0.164-0.087,0.187-0.159
					c0.051-0.164-0.014-0.57-0.089-1.041c-0.074-0.473-0.159-1.008-0.1-1.221l-0.097-0.027c-0.065,0.234,0.018,0.757,0.098,1.264
					c0.067,0.42,0.136,0.854,0.092,0.995c-0.013,0.04-0.054,0.072-0.123,0.095c-0.321,0.106-1.105-0.051-1.188-0.112l-0.059,0.081
					C368.351,188.918,368.888,189.039,369.287,189.022z"/>
			</g>
			
				<ellipse transform="matrix(-0.9965 0.0842 -0.0842 -0.9965 749.8927 342.7031)" fill="#FFFFFF" cx="367.723" cy="187.158" rx="0.325" ry="0.25"/>
			
				<ellipse transform="matrix(-0.9972 -0.0754 0.0754 -0.9972 724.2759 401.3409)" fill="#FFFFFF" cx="369.718" cy="186.991" rx="0.149" ry="0.216"/>
			<g>
				<path fill="#754554" d="M369.036,186.578l0.033-0.164c-0.052-0.011-1.287-0.261-2.347-0.022l0.037,0.163
					C367.784,186.323,369.022,186.575,369.036,186.578z"/>
			</g>
			<g>
				<path fill="#754554" d="M369.705,186.415c0.005-0.001,0.423-0.185,0.934-0.289l-0.033-0.165c-0.528,0.108-0.95,0.292-0.967,0.3
					L369.705,186.415z"/>
			</g>
			<path fill="#AF727B" d="M363.827,188.819c0.077,0.706,2.682,2.662,3.695,2.587c0.475-0.035,1.009-0.978,1.507-2.059
				c0,0-0.109-0.068-0.234-0.1c-0.124-0.029-0.603-0.059-0.894,0.049c-0.289,0.104-0.819,0.258-1.429,0.12
				c-0.609-0.14-1.472-0.877-1.521-1.405c-0.053-0.547,0.166-1.795,0.166-1.795l-0.813-0.736
				C364.105,186.505,363.772,188.322,363.827,188.819z"/>
			<path fill="#FEC7C7" d="M364.009,187.101c0,0,0.411-1.39,0.484-1.756c0.072-0.366-0.443-0.892-0.652-0.988
				c-0.209-0.096-0.56-0.015-0.56-0.015L364.009,187.101z"/>
			<path fill="#754554" d="M365.049,186.484c0,0,0.449-1.053,0.823-1.137c0.373-0.083,1.872-1.811,1.872-1.811l0.307-0.887
				c0,0,0.849,0.875,1.879,1.056c1.029,0.181,1.268,0.132,1.268,0.132s0.141-0.703,0.124-1.336
				c-0.018-0.632-1.748-4.418-6.003-3.318c-3.215,0.106-3.055,2.883-3.078,3.464s-0.132,2.342-0.132,2.342s0.388,0.567,0.526,1.599
				c0.359-0.799,0.545-2.076,0.897-2.075c0.354,0.001,0.852,0.134,0.946,0.616c0.095,0.481-0.183,0.975-0.183,0.975L365.049,186.484
				z"/>
			
				<linearGradient id="SVGID_7_" gradientUnits="userSpaceOnUse" x1="3628.3901" y1="52.9507" x2="3629.3584" y2="52.014" gradientTransform="matrix(-0.9965 0.0836 0.0836 0.9965 3975.0552 -170.1389)">
				<stop  offset="0.1224" style="stop-color:#FEB9B8"/>
				<stop  offset="1" style="stop-color:#FFDEDE"/>
			</linearGradient>
			<path fill="url(#SVGID_7_)" d="M364.191,184.948c0,0-0.398-0.7-0.994-0.378s-0.043,2.159,0.113,2.409
				c0.157,0.25,0.554-0.191,0.554-0.191l0.446-1.604L364.191,184.948z"/>
			<path fill="#FEBFBF" d="M356.427,193.678c0.714,0.303,2.055,1.82,1.035,4.786c-1.019,2.965-2.37,7.372-4.252,7.819
				c-1.045,0.249-1.813,1.071-1.87-0.214c-0.046-1.03,0.477-4.028,0.854-5.189c0.851-2.607,2.101-6.063,2.602-6.993
				C355.298,192.957,356.427,193.678,356.427,193.678z"/>
			<g>
				<path fill="#627847" d="M363.512,205.737c0.694,0.271,1.803,0.221,2.476-0.11c0.672-0.331,0.654-0.818-0.04-1.089
					s-1.802-0.221-2.475,0.11C362.801,204.979,362.819,205.467,363.512,205.737z"/>
				<polygon fill="#627847" points="362.506,200.428 362.98,205.213 366.48,205.063 366.54,200.254 				"/>
				<path fill="#B09064" d="M363.342,203.702c0.723-0.339,1.911-0.392,2.655-0.118c0.745,0.273,0.763,0.771,0.04,1.109
					c-0.723,0.338-1.912,0.391-2.656,0.117C362.637,204.538,362.62,204.041,363.342,203.702z"/>
				<polygon fill="#B09064" points="362.812,204.289 362.523,201.713 366.634,201.522 366.568,204.117 				"/>
				<path fill="#DEC7A7" d="M363.102,201.075c0.792-0.356,2.095-0.415,2.909-0.13c0.814,0.285,0.833,0.805,0.041,1.162
					c-0.792,0.356-2.095,0.414-2.909,0.129C362.329,201.951,362.31,201.432,363.102,201.075z"/>
				<path fill="#627847" d="M363.167,200.822c0.749-0.369,1.985-0.424,2.759-0.122c0.773,0.301,0.794,0.845,0.044,1.214
					s-1.985,0.424-2.759,0.123C362.436,201.736,362.417,201.192,363.167,200.822z"/>
				<polygon fill="#627847" points="362.632,201.63 362.571,201.215 362.931,201.271 366.507,201.066 366.522,201.412 				"/>
				<path fill="#A19797" d="M363.035,201.537c0.801,0.312,2.077,0.254,2.853-0.127c0.775-0.381,0.755-0.944-0.045-1.255
					c-0.8-0.311-2.077-0.254-2.853,0.127S362.235,201.226,363.035,201.537z"/>
				<path fill="#C7BEBE" d="M362.322,200.36l0.332-0.014c0.086-0.067,0.188-0.131,0.309-0.191c0.845-0.416,2.237-0.478,3.109-0.139
					c0.129,0.05,0.237,0.107,0.329,0.168l0.316-0.014l0.021,0.489c0,0.008,0.001,0.015,0.001,0.022v0.011h-0.001
					c-0.003,0.241-0.207,0.489-0.618,0.691c-0.845,0.416-2.236,0.479-3.108,0.139c-0.429-0.167-0.651-0.399-0.667-0.643h-0.001
					L362.322,200.36z"/>
				<path fill="#E2D9D9" d="M362.943,199.685c0.845-0.416,2.236-0.478,3.108-0.138c0.872,0.339,0.895,0.952,0.05,1.368
					c-0.846,0.416-2.237,0.478-3.109,0.139C362.12,200.714,362.097,200.101,362.943,199.685z"/>
				<path fill="#C7BEBE" d="M362.635,200.331c0-0.005-0.001-0.009-0.001-0.014l-0.015-0.337l0.174-0.008
					c0.088-0.092,0.21-0.18,0.372-0.26c0.724-0.356,1.917-0.41,2.665-0.119c0.17,0.066,0.3,0.145,0.395,0.23l0.164-0.007
					l0.015,0.338v0v0.003l0,0c0.006,0.211-0.17,0.431-0.531,0.608c-0.725,0.356-1.918,0.41-2.665,0.119
					c-0.368-0.143-0.559-0.343-0.572-0.552l0,0V200.331z"/>
				<path fill="#E1D8D8" d="M363.148,199.307c0.724-0.356,1.917-0.41,2.665-0.118c0.748,0.291,0.767,0.816,0.042,1.172
					c-0.725,0.357-1.918,0.41-2.665,0.119C362.442,200.188,362.423,199.663,363.148,199.307z"/>
				<path fill="#C7BEBE" d="M362.975,200.083L362.975,200.083c0.142,0.028,0.288-0.037,0.327-0.146l0.017-0.044
					c0.04-0.108-0.043-0.219-0.184-0.246l0,0c-0.142-0.028-0.288,0.037-0.328,0.146l-0.016,0.043
					C362.751,199.945,362.833,200.056,362.975,200.083z"/>
			</g>
			<path fill="#FEBFBF" d="M351.738,204.542c0,0,0.741-0.547,2.041-0.589c1.299-0.041,2.807,0.502,4.364,0.21
				c1.559-0.292,2.321-0.581,2.872-1.167c0.55-0.587,1.336-1.546,1.336-1.546l0.674-0.267l-0.363,0.722l0.402,0.107l1.624-0.439
				l1.604-0.077c0,0,0.14,0.229,0.019,0.383c-0.122,0.155-1.304,0.367-1.538,0.447c-0.232,0.079-1.568,0.773-1.568,0.773
				l2.464-0.471l1.152-0.285c0,0,0.272,0.163,0.188,0.377c-0.085,0.214-1.396,0.704-1.396,0.704l-1.673,0.439l0.405,0.123
				l1.498-0.275l1.011-0.414c0,0,0.266,0.163,0.042,0.452s-0.607,0.483-0.607,0.483l0.416,0.048c0,0-0.042,0.267-0.085,0.356
				c-0.043,0.091-1.04,0.633-1.04,0.633l-1.658,0.337c0,0-0.935,0.444-1.977,0.467c-1.043,0.023-1.563,0.197-1.827,0.345
				c-0.264,0.148-3.102,1.463-5.308,1.515c-2.207,0.051-3.321-0.587-3.474-1.217S351.738,204.542,351.738,204.542z"/>
			<path fill="#B09064" d="M364.082,204.988c0,0,1.107-0.139,1.657-0.294c0.55-0.155,0.888-0.423,0.888-0.423l-0.339-0.039
				l-0.63,0.259L364.082,204.988z"/>
			<path fill="#E6F1FF" d="M351.889,201.033c0,0,2.689,1.296,4.443,1.148c0.948-1.329,1.652-3.942,2.072-5.743
				c0.419-1.802-1.536-3.73-2.149-3.923c-0.614-0.193-1.239,0.45-1.239,0.45S351.869,199.899,351.889,201.033z"/>
			
				<linearGradient id="SVGID_8_" gradientUnits="userSpaceOnUse" x1="3627.9614" y1="52.6128" x2="3629.0981" y2="52.6128" gradientTransform="matrix(-0.9965 0.0836 0.0836 0.9965 3975.0552 -170.1389)">
				<stop  offset="0.1224" style="stop-color:#FCA4B5"/>
				<stop  offset="0.9896" style="stop-color:#FFADB7"/>
			</linearGradient>
			<path fill="url(#SVGID_8_)" d="M364.151,185.123c0,0-0.322-0.508-0.725-0.437c-0.403,0.071-0.509,0.631-0.26,1.335
				s0.627,0.563,0.627,0.563l0.282-0.947L364.151,185.123z"/>
			<path fill="#FEC7C7" d="M367.269,189.838c0,0,1.35-0.131,1.388,0.033c0.037,0.165-0.714,0.44-0.914,0.458
				C367.542,190.346,367.269,189.838,367.269,189.838z"/>
		</g>
	</g>
	<path fill="#E6F1FF" d="M361.352,189.34c0,0-0.344,0.585,0.609,1.339s2.666,1.162,2.867,1.227c0.081,0.025,0.155,0.191,0.109,0.436
		c-0.069,0.365-0.317,0.862-0.499,0.988c-1.01-0.14-1.7-0.559-2.809-1.26c-1.109-0.701-1.319-1.581-1.33-1.811
		c-0.01-0.229,0.823-1.061,0.945-1.139s0.328-0.134,0.328-0.134L361.352,189.34z"/>
</g>
</svg>
