<?xml version="1.0" encoding="utf-8"?>
<!-- Generator: Adobe Illustrator 16.0.0, SVG Export Plug-In . SVG Version: 6.00 Build 0)  -->
<!DOCTYPE svg PUBLIC "-//W3C//DTD SVG 1.1//EN" "http://www.w3.org/Graphics/SVG/1.1/DTD/svg11.dtd">
<svg version="1.1" id="Layer_1" xmlns="http://www.w3.org/2000/svg" xmlns:xlink="http://www.w3.org/1999/xlink" x="0px" y="0px"
	 width="463.683px" height="425.749px" viewBox="0 0 463.683 425.749" enable-background="new 0 0 463.683 425.749"
	 xml:space="preserve">
<g>
	<path fill="#6A3646" d="M87.965,136.162c0,0,1.294-1.126,2.694-0.007c1.221,0.976,0.775,4.038,0.545,5.267
		c-0.248,1.323-0.144,4.564,1.947,4.327c-0.173,1.094-2.759,0.742-3.588,0.41S85.412,139.594,87.965,136.162z"/>
	<path fill="#D7E4F2" d="M78.523,203.473c4.216,2.684,11.25,2.974,15.709,0.649c4.46-2.324,4.657-6.384,0.44-9.067
		c-4.216-2.683-11.25-2.974-15.709-0.649C74.504,196.73,74.307,200.79,78.523,203.473z"/>
	<g>
		<g>
			
				<linearGradient id="SVGID_1_" gradientUnits="userSpaceOnUse" x1="1190.5396" y1="249.873" x2="1195.9624" y2="249.873" gradientTransform="matrix(0.9991 0.0431 -0.0431 0.9991 -1096.9154 -105.6812)">
				<stop  offset="0.1224" style="stop-color:#FEC7C7"/>
				<stop  offset="0.9694" style="stop-color:#FFADB7"/>
			</linearGradient>
			<path fill="url(#SVGID_1_)" d="M86.377,192.331c0,0,1.067,1.018,0.876,1.59s-2.6,4.038-3.788,4.391
				c-2.47,0.733-1.786-1.456-1.361-1.894c0.375-0.385,1.844-1.422,1.881-2.472C84.036,192.531,86.377,192.331,86.377,192.331z"/>
			<path fill="#8E8E8E" d="M85.952,195.654c0,0,0.401,0.159,0.391,0.47c-0.01,0.312-0.031,1.482-0.031,1.482s0.267,0.16,0.423,0.097
				c0.157-0.064,0.393-0.421,0.393-0.421s0.331-2.29,0.471-2.75S85.952,195.654,85.952,195.654z"/>
			<path fill="#DDE8F6" d="M87.412,193.047c0,0-1.726,1.863-2.435,3.115s-1.433,1.732-1.948,1.685
				c-0.822-0.077-1.329-0.61-1.126-1.02c0.202-0.41,0.202-0.41,0.202-0.41s-2.223,2.098-2.023,3.5
				c0.199,1.402,3.981-0.315,4.58-1.004c0.229-0.264,0.763-2.248,1.274-2.793s1.248-0.261,1.618-1.413
				C87.924,193.556,87.412,193.047,87.412,193.047z"/>
			<path fill="#8E8E8E" d="M86.054,195.85c-0.512,0.545-1.248,2.619-1.476,2.882c-0.558,0.642-3.882,2.132-4.498,1.162
				c0.001,0.008,0,0.017,0.001,0.024c0.199,1.402,3.981-0.315,4.58-1.004c0.229-0.264,0.763-2.248,1.274-2.793
				c0.445-0.475,1.287-0.27,1.55-1.227C87.13,195.112,86.425,195.454,86.054,195.85z"/>
		</g>
		<g>
			<path fill="#8E8E8E" d="M90.766,197.005c0,0,0.596-0.178,0.59,0.133c-0.006,0.312-0.092,2.25-0.092,2.25s0.138,0.134,0.293,0.067
				c0.156-0.066,0.385-0.427,0.385-0.427s0.244-1.894,0.235-2.375C92.167,196.081,90.766,197.005,90.766,197.005z"/>
			<path fill="#FEBBC0" d="M90.93,194.274c0,0,0.888,0.719,0.871,1.646c-0.018,0.909-1.163,4.602-2.327,5.025
				c-1.163,0.424-2.328-0.332-2.23-0.861c0.098-0.528,1.131-2.163,1.417-3.458C88.965,195.244,90.93,194.274,90.93,194.274z"/>
			<path fill="#DDE8F6" d="M88.656,196.089c0,0-0.879,1.646-1.262,2.768c-0.834,2.445-0.794,3.515-0.615,4.098
				c0.187,0.608,1.945,0.065,3.193-0.955c1.431-1.169,0.809-2.572,1.686-3.989c0.285-0.461,0.548-0.795,0.542-1.893
				c0.013-0.931-0.812-1.319-0.812-1.319s0.624,0.945,0.292,1.733c-0.167,0.397-0.105,0.568-0.357,1.064
				c-0.501,0.987-0.585,1.954-1.304,2.668c-0.675,0.671-2.673,0.257-2.619-0.139c0.1-0.732,0.742-1.967,0.997-2.653
				C88.702,196.654,88.656,196.089,88.656,196.089z"/>
			<path fill="#8E8E8E" d="M91.599,197.905c-0.876,1.418-0.215,2.729-1.646,3.898c-1.155,0.944-2.849,1.505-3.202,1.061
				c0.01,0.031,0.019,0.062,0.028,0.091c0.187,0.608,1.945,0.065,3.193-0.955c1.431-1.169,0.809-2.572,1.686-3.989
				c0.186-0.301,0.469-0.6,0.499-1.19C91.997,197.138,91.737,197.682,91.599,197.905z"/>
		</g>
		
			<linearGradient id="SVGID_2_" gradientUnits="userSpaceOnUse" x1="1190.7173" y1="239.1914" x2="1196.4663" y2="239.1914" gradientTransform="matrix(0.9991 0.0431 -0.0431 0.9991 -1096.9154 -105.6812)">
			<stop  offset="0.1224" style="stop-color:#FEC7C7"/>
			<stop  offset="0.9694" style="stop-color:#FFADB7"/>
		</linearGradient>
		<path fill="url(#SVGID_2_)" d="M86.852,193.385c0,0,0,0.585-0.492,0.801c-0.502,0.222-1.19,0.301-2.348-0.451
			c0,0-0.377-14.462-1.178-18.689l3.448,6.081l1.446,0.052l0.002,0.001c0,0,0.597,4.637,0.238,7.072
			C87.608,190.688,86.852,193.385,86.852,193.385z"/>
		
			<linearGradient id="SVGID_3_" gradientUnits="userSpaceOnUse" x1="1189.3608" y1="226.9893" x2="1196.0396" y2="226.9893" gradientTransform="matrix(0.9991 0.0431 -0.0431 0.9991 -1096.9154 -105.6812)">
			<stop  offset="0.1224" style="stop-color:#FEC7C7"/>
			<stop  offset="0.9694" style="stop-color:#FFADB7"/>
		</linearGradient>
		<path fill="url(#SVGID_3_)" d="M87.793,181.019c-0.017,0.056-0.038,0.108-0.063,0.161l-0.002-0.001
			c-0.213,0.452-0.677,0.721-1.21,0.838c-1.054,0.235-2.378-0.121-2.607-0.826c-0.015-0.043-0.029-0.095-0.047-0.152
			c-0.416-1.383-1.302-7.198-1.86-11.521c-0.581-4.504,0.542-6.654,0.542-6.654l5.5,0.999c0,0,0.047,2.655,0.065,5.839
			C88.134,174.063,88.073,180.14,87.793,181.019z"/>
		
			<linearGradient id="SVGID_4_" gradientUnits="userSpaceOnUse" x1="1192.3569" y1="235.7148" x2="1196.4663" y2="235.7148" gradientTransform="matrix(0.9991 0.0431 -0.0431 0.9991 -1096.9154 -105.6812)">
			<stop  offset="0.1224" style="stop-color:#FCA4B5"/>
			<stop  offset="0.9896" style="stop-color:#FFADB7"/>
		</linearGradient>
		<path fill="url(#SVGID_4_)" d="M86.852,193.385c0,0,0,0.585-0.492,0.801c0.371-2.412,0.974-6.535,0.872-7.383
			c-0.065-0.57-0.209-3.361-0.365-4.705c-1.054-9.124-0.929-11.954-0.929-11.954l-1.174-1.789l3.348,1.347
			c0.022,4.362-0.039,10.438-0.318,11.318c-0.017,0.056-0.038,0.108-0.063,0.161c0,0,0.597,4.637,0.238,7.072
			C87.608,190.688,86.852,193.385,86.852,193.385z"/>
		
			<linearGradient id="SVGID_5_" gradientUnits="userSpaceOnUse" x1="1191.397" y1="227.7305" x2="1201.396" y2="227.7305" gradientTransform="matrix(0.9991 0.0431 -0.0431 0.9991 -1096.9154 -105.6812)">
			<stop  offset="0.1224" style="stop-color:#FEC7C7"/>
			<stop  offset="0.9694" style="stop-color:#FFADB7"/>
		</linearGradient>
		<path fill="url(#SVGID_5_)" d="M84.647,165.722l-0.769,0.901c0,0-0.067,1.112,2.391,2.962c0.015,2.608,0.981,10.943,1.791,12.93
			c0.81,1.986,3.315,0.444,3.739-1.864c0.423-2.308,1.78-9.596,1.942-11.376c0.162-1.78,0.276-4.44-0.958-5.489
			C91.55,162.736,84.647,165.722,84.647,165.722z"/>
		<path fill="#ECF2FA" d="M92.581,162.373c-1.402-2.44-6.378-2.2-8.729-1.647c-0.564,0.133-1.075,1.266-1.075,1.266
			s-1.091,2.883-0.965,5.286c0.126,2.402,0.332,4.434,1.023,9.958c6.933,3.29,9.69,0.958,9.69,0.958
			C93.202,173.095,95.451,167.37,92.581,162.373z"/>
		<path fill="#FEBBC0" d="M88.909,196.016c0.461-1.616-0.188-10.939-0.849-13.5c3.404-1.98,3.839-2.365,3.839-2.365
			s0.705,6.605,0.657,7.913c-0.048,1.307-0.89,7.758-0.89,7.758S90.576,197.692,88.909,196.016z"/>
	</g>
	<g>
		<path fill="#FEBFBF" d="M83.429,145.329c0,0-0.743,0.387-1.057,2.184c-0.314,1.796-0.818,8.195-0.405,9.081s1.68-0.642,2.125-4.64
			S85.772,145.862,83.429,145.329z"/>
		<path fill="#FEBFBF" d="M80.883,165.025c0,0,0.068,0.419-0.016,0.716s-0.458,1.447-0.458,1.447s0.021,0.416,0.002,0.622
			c-0.025,0.206,0.277,1.055,0.134,1.247c-0.013,0.023-0.026,0.034-0.044,0.051h-0.006c-0.105,0.07-0.228-0.05-0.278-0.101
			l0.111,0.22c0,0,0.005,0.013-0.009,0.047c-0.008,0.029-0.028,0.082-0.075,0.162c-0.047,0.086-0.131,0.098-0.201,0.088
			c-0.076-0.011-0.14-0.045-0.14-0.045s0.013,0.078-0.004,0.16l0,0.006c-0.017,0.076-0.063,0.15-0.159,0.173
			c-0.061,0.014-0.147-0.015-0.245-0.063c-0.219-0.108-0.484-0.32-0.523-0.353c0,0.012,0.008,0.06,0.005,0.113
			c0.005,0.113-0.022,0.259-0.188,0.266c-0.262,0.008-0.989-1.229-0.989-1.229s0.08-1.453,0.106-1.694
			c0.021-0.236,0.95-1.25,1.264-1.989c0.319-0.738,1.834-7.56,2.285-8.978c0.451-1.423,0.834-1.02,0.834-1.02
			c0.303-0.01,1.406,1.108,1.258,2.516C83.398,158.788,80.883,165.025,80.883,165.025z"/>
		<path fill="#CBDCF5" d="M83.114,161.797c0.125-1.484,0.525-4.332,0.211-5.545c-0.334-1.289-1.42-3.431-1.308-4.349
			c0.112-0.92,0.568-2.708,0.7-3.961c0.132-1.255,0.683-2.601,1.084-2.72s4.702-1.022,5.669-0.61
			c0.968,0.411,0.789,0.431,1.788,1.002c1,0.569,2.539,1.73,2.539,1.73s0.382,1.427,0.279,2.371
			c-0.035,0.33-0.093,0.628-0.182,0.836c-0.351,0.807-1.229,7.792-1.405,9.464c-0.074,0.705-0.026,1.572,0.093,2.357
			C92.834,164.043,85.131,164.17,83.114,161.797z"/>
		
			<linearGradient id="SVGID_6_" gradientUnits="userSpaceOnUse" x1="1263.0298" y1="203.0586" x2="1258.3409" y2="206.2026" gradientTransform="matrix(0.998 0.0629 -0.0629 0.998 -1157.5242 -137.1323)">
			<stop  offset="0.1224" style="stop-color:#FEC7C7"/>
			<stop  offset="0.9694" style="stop-color:#FFADB7"/>
		</linearGradient>
		<path fill="url(#SVGID_6_)" d="M89.694,144.509c0.124,0.001,0.368,0.426,0.897,0.737c0.467,0.276,0.703,0.299,0.063,0.93
			c-0.639,0.632-2.894,3.428-4.405,3.165c-1.511-0.264-1.491-1.726-1.454-2.311c0.037-0.586,0.878-1.948,1.163-2.086
			S89.694,144.509,89.694,144.509z"/>
		
			<linearGradient id="SVGID_7_" gradientUnits="userSpaceOnUse" x1="1261.9321" y1="201.7456" x2="1259.4427" y2="205.0483" gradientTransform="matrix(0.998 0.0629 -0.0629 0.998 -1157.5242 -137.1323)">
			<stop  offset="0.1224" style="stop-color:#FEC7C7"/>
			<stop  offset="0.9694" style="stop-color:#FFADB7"/>
		</linearGradient>
		<path fill="url(#SVGID_7_)" d="M85.597,144.54c0,0,0.286,0.605,0.25,1.167c-0.035,0.562-0.311,1.503-0.311,1.503
			s0.368,0.647,1.729,0.445s1.392-0.68,1.816-0.94c0.424-0.262,1.498-1.427,1.424-1.503c-0.073-0.076-1.227-0.598-0.853-2.239
			c0.375-1.641,0.729-2.062,0.729-2.062s0.61-1.14,0.134-1.17C90.042,139.71,85.597,144.54,85.597,144.54z"/>
		
			<linearGradient id="SVGID_8_" gradientUnits="userSpaceOnUse" x1="1258.4019" y1="203.4375" x2="1261.5054" y2="203.4375" gradientTransform="matrix(0.998 0.0629 -0.0629 0.998 -1157.5242 -137.1323)">
			<stop  offset="0.1224" style="stop-color:#FCA4B5"/>
			<stop  offset="0.9896" style="stop-color:#FFADB7"/>
		</linearGradient>
		<path fill="url(#SVGID_8_)" d="M88.764,143.644c0,0-1.126,1.133-1.352,1.694s-1.331,1.355-1.331,1.355l-0.236-1.218l-0.248-0.936
			L88.764,143.644z"/>
		<path fill="#DDE8F6" d="M92.67,164.999c-0.419-1.874-1.171-3.834-1.359-4.555c-0.267-1.032,0.573-3.875,0.612-4.007
			c-0.104,0.16-2.048,3.471-3.958,3.318c-1.981-0.08-1.009-8.725-1.009-8.725l1.929,2l1.969-3.907l1.563,1.711l1.57-1.437
			c-0.035,0.33-0.093,0.627-0.182,0.835c-0.351,0.807-1.229,7.792-1.405,9.465c-0.176,1.674,0.429,4.25,0.47,4.543
			C92.911,164.516,93.523,164.468,92.67,164.999z"/>
		<path fill="#FEBFBF" d="M93.971,147.647c0,0-0.174-0.526-1.001-0.222c-0.827,0.304-2.596,2.102-2.761,4.784
			C90.044,154.891,93.96,149.028,93.971,147.647z"/>
		<path fill="#FEBFBF" d="M93.788,147.602c0,0-0.685-0.673-1.859,0.728c-1.174,1.401-2.874,8.108-3.049,8.699
			c-0.174,0.592,0.1,2.164,1.097,1.691s3.045-4.969,3.432-5.755C93.796,152.177,94.967,148.294,93.788,147.602z"/>
		<path fill="#FEC7C7" d="M83.939,137.603c0,0-0.556,0.82-0.674,1.482c-0.117,0.662-0.134,1.274-0.134,1.274
			s0.136,0.424,0.079,0.972c-0.058,0.547,0.763,3.847,1.515,4.251c0.939,0.111,2.94-0.834,3.545-1.324s1.053-4.415,1.014-4.672
			c-0.039-0.257-0.191-1.44-1.062-1.978C87.353,137.071,83.939,137.603,83.939,137.603z"/>
		<g>
			
				<linearGradient id="SVGID_9_" gradientUnits="userSpaceOnUse" x1="1257.1323" y1="200.7832" x2="1256.0537" y2="201.4164" gradientTransform="matrix(0.998 0.0629 -0.0629 0.998 -1157.5242 -137.1323)">
				<stop  offset="0.1224" style="stop-color:#FEC7C7"/>
				<stop  offset="0.9896" style="stop-color:#FFDBDB"/>
			</linearGradient>
			<path fill="url(#SVGID_9_)" d="M84.128,141.182c0.052,0.495-0.641,1.661-0.604,2.002s1.245,0.292,1.245,0.292L84.128,141.182z"/>
			
				<linearGradient id="SVGID_10_" gradientUnits="userSpaceOnUse" x1="1256.1987" y1="200.8213" x2="1257.5132" y2="200.8213" gradientTransform="matrix(0.998 0.0629 -0.0629 0.998 -1157.5242 -137.1323)">
				<stop  offset="0.188" style="stop-color:#FFDCDC"/>
				<stop  offset="0.8991" style="stop-color:#FEC7C7"/>
			</linearGradient>
			<path fill="url(#SVGID_10_)" d="M84.386,143.519c-0.374-0.016-0.878-0.083-0.906-0.331c-0.018-0.166,0.114-0.486,0.267-0.856
				c0.17-0.416,0.365-0.887,0.337-1.146l0.088-0.009c0.029,0.281-0.161,0.743-0.344,1.189c-0.142,0.344-0.275,0.669-0.26,0.813
				c0.024,0.218,0.747,0.271,1.199,0.253l0.003,0.089C84.728,143.522,84.574,143.527,84.386,143.519z"/>
		</g>
		
			<ellipse transform="matrix(0.9945 0.1049 -0.1049 0.9945 15.3506 -8.2079)" fill="#FFFFFF" cx="85.695" cy="141.811" rx="0.335" ry="0.255"/>
		<path fill="#FFFFFF" d="M83.533,141.3c-0.109-0.072-0.16-0.206-0.113-0.301c0.046-0.095,0.172-0.114,0.281-0.042
			c0.109,0.071,0.16,0.206,0.113,0.301S83.642,141.371,83.533,141.3z"/>
		<g>
			<path fill="#754554" d="M86.473,141.291c-1.107-0.231-1.693-0.138-1.697-0.137l-0.025-0.146c0.025-0.005,0.614-0.101,1.753,0.138
				L86.473,141.291z"/>
		</g>
		<g>
			<path fill="#754554" d="M83.815,140.863c-0.16-0.106-0.618-0.386-0.821-0.408l0.016-0.146c0.281,0.03,0.862,0.415,0.887,0.432
				L83.815,140.863z"/>
		</g>
		<path fill="#FB7F9E" d="M85.369,144.357c0,0-0.384,0.358-0.779,0.37s-0.516-0.602-0.516-0.602S84.342,143.843,85.369,144.357z"/>
		
			<linearGradient id="SVGID_11_" gradientUnits="userSpaceOnUse" x1="1254.0688" y1="224.5957" x2="1254.104" y2="224.5957" gradientTransform="matrix(0.998 0.0629 -0.0629 0.998 -1157.5242 -137.1323)">
			<stop  offset="0.1224" style="stop-color:#FCA4B5"/>
			<stop  offset="0.9896" style="stop-color:#FFADB7"/>
		</linearGradient>
		<path fill="url(#SVGID_11_)" d="M79.929,166.056c0.006-0.095,0.001-0.201-0.009-0.321
			C79.92,165.735,79.966,165.845,79.929,166.056z"/>
		
			<linearGradient id="SVGID_12_" gradientUnits="userSpaceOnUse" x1="1252.4468" y1="226.6191" x2="1254.4292" y2="226.6191" gradientTransform="matrix(0.998 0.0629 -0.0629 0.998 -1157.5242 -137.1323)">
			<stop  offset="0.1224" style="stop-color:#FCA4B5"/>
			<stop  offset="0.9896" style="stop-color:#FFADB7"/>
		</linearGradient>
		<path fill="url(#SVGID_12_)" d="M79.903,169.479c0,0,0.013,0.078-0.004,0.16c-0.035-0.192-0.413-0.5-0.413-0.5
			s-0.364-0.521-0.364-0.616c0.006-0.094-0.007-0.54-0.007-0.54l-0.087-0.124l-0.067,0.594l-0.125,0.383l0.243,0.471l0.417,0.447
			c-0.219-0.108-0.484-0.32-0.523-0.353c0,0.012,0.008,0.06,0.005,0.113c0,0-0.259-0.408-0.336-0.395
			c-0.079,0.019-0.342-0.027-0.342-0.027l-0.107-0.463c0,0-0.023-1.317,0.018-1.404c0.034-0.075,0.217-0.531,0.266-0.647
			c-0.019,0.194-0.179,1.429-0.17,1.655c0.015,0.238-0.041,0.649,0.041,0.767c0.087,0.118,0.276,0.041,0.324-0.057
			c0.054-0.097,0.233-0.785,0.233-0.785l0.029-0.271l0.246-0.702c0,0,0.333-0.21,0.596-0.703c0.088-0.173,0.132-0.312,0.157-0.423
			c-0.003,0.427-0.104,0.711-0.253,0.909c-0.176,0.244-0.405,0.312-0.405,0.312l-0.167,0.398l0.261-0.001l-0.186,0.125
			c0,0,0.036,0.458,0.035,0.666c-0.001,0.213,0.422,0.631,0.477,0.717c0.06,0.081,0.342,0.306,0.342,0.306l0.01,0.031
			C79.966,169.514,79.903,169.479,79.903,169.479z"/>
		
			<linearGradient id="SVGID_13_" gradientUnits="userSpaceOnUse" x1="1254.0034" y1="227.0449" x2="1254.856" y2="227.0449" gradientTransform="matrix(0.998 0.0629 -0.0629 0.998 -1157.5242 -137.1323)">
			<stop  offset="0.1224" style="stop-color:#FCA4B5"/>
			<stop  offset="0.9896" style="stop-color:#FFADB7"/>
		</linearGradient>
		<path fill="url(#SVGID_13_)" d="M80.217,169.008l0.111,0.22c0,0,0.005,0.013-0.009,0.047c-0.087-0.124-0.163-0.235-0.191-0.249
			c-0.069-0.028-0.341-0.703-0.341-0.703l-0.044-0.814l0.247-0.056l-0.146,0.151l0.112,0.67l0.298,0.636l0.242,0.199
			C80.39,169.179,80.268,169.058,80.217,169.008z"/>
		<path fill="#754554" d="M88.22,141.531c0.003-0.036-0.3-1.957-0.702-2.373c-0.402-0.415-0.631-0.523-1.333-0.597
			s-1.602-0.216-1.975-0.34c-0.372-0.124-0.571-0.113-0.571-0.113s-0.34,0.711-0.394,1.093c0.158-1.089,0.413-2.025,1.343-2.746
			c0.93-0.721,1.768-1.475,4.186-0.775s2.036,3.765,1.93,4.428c-0.105,0.663-0.564,1.457-0.587,1.858s-0.167,0.735-0.167,0.735
			s0.483-1.851,0.08-1.906c-0.403-0.054-0.735,0.464-0.735,0.464l-0.617,1.055L88.22,141.531z"/>
		
			<linearGradient id="SVGID_14_" gradientUnits="userSpaceOnUse" x1="1261.4409" y1="200.1563" x2="1262.8745" y2="200.1563" gradientTransform="matrix(0.998 0.0629 -0.0629 0.998 -1157.5242 -137.1323)">
			<stop  offset="0.1224" style="stop-color:#FEB9B8"/>
			<stop  offset="1" style="stop-color:#FFDEDE"/>
		</linearGradient>
		<path fill="url(#SVGID_14_)" d="M88.926,141.416c0,0,0.487-0.589,1.059-0.529s0.208,1.119-0.169,1.614
			c-0.377,0.495-0.74,0.641-0.74,0.641S88.586,142.093,88.926,141.416z"/>
		<g>
			<g>
				<path fill="#C4C8D8" d="M89.776,140.866l1.187,1.116c0.108,0.093,0.104,0.301-0.009,0.463l-2.667,3.88
					c-0.107,0.156-0.285,0.214-0.395,0.131l-1.422-1.09c-0.114-0.088-0.119-0.291-0.01-0.452l2.693-4.003
					c0.102-0.151,0.263-0.214,0.375-0.154C89.541,140.764,89.765,140.856,89.776,140.866z"/>
				<path fill="#EFF0F5" d="M89.821,140.896l1.398,1.201c0.108,0.092,0.103,0.301-0.009,0.463l-2.667,3.88
					c-0.108,0.155-0.285,0.214-0.395,0.13l-1.421-1.089c-0.114-0.087-0.119-0.291-0.01-0.452l2.693-4.003
					C89.523,140.857,89.708,140.799,89.821,140.896z"/>
				<path fill="#54585F" d="M91.157,142.535l-0.755,1.087l-1.896,2.771c-0.09,0.13-0.239,0.179-0.331,0.108l-1.396-1.072
					c-0.096-0.073-0.099-0.243-0.008-0.378l1.912-2.852l0.763-1.123c0.095-0.141,0.25-0.189,0.344-0.108l1.374,1.178
					C91.255,142.225,91.251,142.398,91.157,142.535z"/>
				<path fill="#54585F" d="M91.157,142.535l-0.755,1.087l-1.719-1.422l0.763-1.123c0.095-0.141,0.25-0.189,0.344-0.108l1.374,1.178
					C91.255,142.225,91.251,142.398,91.157,142.535z"/>
				<path fill="#838383" d="M89.562,141.443c0.052,0.044,0.131,0.025,0.176-0.042s0.041-0.157-0.011-0.201
					c-0.052-0.045-0.131-0.026-0.176,0.041C89.505,141.31,89.51,141.399,89.562,141.443z"/>
				<path fill="#B6B3F6" d="M89.579,141.419c0.042,0.035,0.104,0.021,0.141-0.033c0.037-0.054,0.033-0.125-0.009-0.16
					c-0.041-0.035-0.104-0.021-0.141,0.033C89.534,141.313,89.538,141.384,89.579,141.419z"/>
				<path fill="#D9D8FA" d="M89.688,141.238c-0.029-0.024-0.072-0.014-0.098,0.023s-0.022,0.087,0.006,0.111
					c0.028,0.024,0.072,0.014,0.098-0.023C89.719,141.313,89.716,141.263,89.688,141.238z"/>
				<path fill="#AFACF5" d="M89.663,141.275c-0.013-0.011-0.034-0.006-0.045,0.01c-0.012,0.018-0.01,0.041,0.003,0.052
					s0.033,0.006,0.045-0.011C89.677,141.309,89.676,141.286,89.663,141.275z"/>
				<path fill="#FFE56F" d="M89.481,141.572c-0.029-0.024-0.073-0.014-0.098,0.023c-0.025,0.037-0.023,0.087,0.006,0.111
					c0.029,0.024,0.073,0.015,0.098-0.023S89.51,141.597,89.481,141.572z"/>
				<path fill="#C4C8D8" d="M89.721,142.718c-0.094-0.08-0.236-0.046-0.319,0.075c-0.082,0.121-0.073,0.283,0.021,0.362
					s0.236,0.046,0.318-0.075C89.823,142.959,89.814,142.797,89.721,142.718z"/>
			</g>
		</g>
		
			<linearGradient id="SVGID_15_" gradientUnits="userSpaceOnUse" x1="1256.7056" y1="214.8096" x2="1265.6283" y2="204.753" gradientTransform="matrix(0.998 0.0629 -0.0629 0.998 -1157.5242 -137.1323)">
			<stop  offset="0.1224" style="stop-color:#FEB9B8"/>
			<stop  offset="1" style="stop-color:#FFDEDE"/>
		</linearGradient>
		<path fill="url(#SVGID_15_)" d="M90.608,156.828c0,0-0.939-2.667-1.134-3.714s-0.755-3.963-0.652-4.482s1.022-2.396,1.046-2.626
			s-0.35-1.706-0.35-1.706l-0.134-0.175l-0.541-1.726c0,0-0.346-0.069-0.298,0.233c0.049,0.302,0.106,0.437,0.106,0.437
			s-1.057-0.4-1.139-0.385c-0.082,0.016-0.245,0.271,0.128,0.463c0.373,0.191,0.81,0.462,0.883,0.526
			c0.074,0.063,0.197,1.489,0.197,1.489s-0.792-1.319-0.841-1.388s-0.701-0.354-0.885-0.358s-0.318,0.047-0.318,0.208
			c-0.001,0.16,0.87,0.572,0.87,0.572s0.492,1.119,0.431,1.249s-0.203-0.206-0.203-0.206l-0.784-0.78l-0.74,0.011
			c0,0-0.161,0.079-0.11,0.205c0.051,0.126,0.177,0.228,0.177,0.228l0.472,0.089c0,0,0.356,0.809,0.383,1.012
			c0.026,0.203-0.042,0.782-0.203,1.167c-0.161,0.384-0.137,1.004-0.043,1.247c0.095,0.243,0.202,0.447,0.171,0.668
			s-0.638,8.125,0.71,10.418c1.419,0.39,2.714-1.256,2.714-1.256S90.758,157.261,90.608,156.828z"/>
		
			<linearGradient id="SVGID_16_" gradientUnits="userSpaceOnUse" x1="1261.311" y1="201.4375" x2="1261.9214" y2="201.4375" gradientTransform="matrix(0.998 0.0629 -0.0629 0.998 -1157.5242 -137.1323)">
			<stop  offset="0.1224" style="stop-color:#FCA4B5"/>
			<stop  offset="0.9896" style="stop-color:#FFADB7"/>
		</linearGradient>
		<path fill="url(#SVGID_16_)" d="M88.652,143.069c0,0,0.466,0.382,0.524,0.482c0.059,0.101-0.199-0.346-0.199-0.346l-0.365-0.258
			L88.652,143.069z"/>
	</g>
</g>
</svg>
