<?xml version="1.0" encoding="utf-8"?>
<!-- Generator: Adobe Illustrator 16.0.0, SVG Export Plug-In . SVG Version: 6.00 Build 0)  -->
<!DOCTYPE svg PUBLIC "-//W3C//DTD SVG 1.1//EN" "http://www.w3.org/Graphics/SVG/1.1/DTD/svg11.dtd">
<svg version="1.1" id="Layer_1" xmlns="http://www.w3.org/2000/svg" xmlns:xlink="http://www.w3.org/1999/xlink" x="0px" y="0px"
	 width="463.683px" height="425.749px" viewBox="0 0 463.683 425.749" enable-background="new 0 0 463.683 425.749"
	 xml:space="preserve">
<g>
	<g>
		<path fill="#D7E4F2" d="M164.357,195.833c3.873-2.464,10.334-2.731,14.431-0.596c4.097,2.135,4.278,5.864,0.405,8.328
			c-3.873,2.465-10.334,2.732-14.431,0.597S160.484,198.298,164.357,195.833z"/>
		<g>
			<path fill="#626170" d="M179.694,198.379c0,0,0.257,0.13,0.271,0.321c0.013,0.191,0.02,0.718,0.019,0.842
				s-0.327,0.605-1.125,0.791c-0.799,0.186-2.74-0.328-3.394-0.71c-0.654-0.382-1.546-1.354-1.818-1.427
				c-0.213-0.058-0.757,0.021-0.981,0.059c-0.07,0.011-0.138,0.014-0.208,0.008l-0.513-0.043c-0.073-0.006-0.145-0.021-0.214-0.046
				l-1.099-0.39c0,0-0.157-0.806,0.173-1.061C171.135,196.468,179.694,198.379,179.694,198.379z"/>
			<path fill="#C5757D" d="M175.169,195.103c0,0,0.951,0.602,1.12,0.772s1.886,0.867,2.482,1.23
				c0.595,0.363,1.043,0.984,1.083,1.188c0.039,0.204,0.129,0.668,0.061,0.863c-0.069,0.194-0.379,0.712-1.408,0.776
				c-0.92,0.057-2.692-0.719-3.055-0.883c-0.044-0.02-0.084-0.042-0.125-0.07c-0.274-0.187-1.416-0.961-1.603-1.049
				c-0.214-0.101-2.106-0.58-2.394-0.675s-0.61-0.131-0.652-0.362c-0.042-0.231-0.128-1.5,0.024-1.898
				C170.855,194.596,174.329,194.08,175.169,195.103z"/>
			<path fill="#EAACB6" d="M170.684,195.273c0.099,0.313,0.464,0.536,1.683,0.6c0.141,0.006,0.282,0.013,0.423,0.012
				c0.875,0.029,1.681-0.038,2.563-0.423c0.31-0.136,0.517-0.441,0.521-0.778c0.035-3.399,1.463-17.425,1.89-26.144
				c0.27-5.514-0.926-8.315-0.926-8.315l-5.89-0.339l-0.216,14.547l0.002,8.415C170.735,182.848,170.591,194.959,170.684,195.273z"
				/>
			<g>
				<path fill="#CE8C9E" d="M172.355,195.896c0.004-0.097,0.435-9.768,0.586-11.802c0.152-2.039,0.275-13.604,0.276-13.721
					l-0.227-0.002c-0.001,0.116-0.125,11.674-0.275,13.706c-0.151,2.037-0.582,11.711-0.586,11.809L172.355,195.896z"/>
			</g>
			<path fill="#D4B7B7" d="M170.684,195.273c0.065,0.204,0.242,0.37,0.696,0.479c0.623-0.479,0.854-0.658,1.476-1.138l1.034-23.931
				c0,0,1.542-1.674,1.277-2.714c-0.117-0.448-4.306,5.89-4.306,5.89l-0.128,0.574l0.002,8.415
				C170.735,182.848,170.591,194.959,170.684,195.273z"/>
			<path fill="#626170" d="M172.663,201.488c0,0,0.282,0.005,0.349,0.38c0.022,0.124,0.036,0.254,0.044,0.375
				c0.023,0.323-0.131,0.637-0.413,0.796c-0.239,0.135-0.594,0.271-1.104,0.336c-1.179,0.149-2.622-0.287-3.362-0.706
				c-0.74-0.419-1.005-0.76-1.451-1.379s-0.907-0.916-0.907-0.916l-0.188,0.051c0,0-0.66-0.479-1.023-0.813
				c-0.146-0.134-0.241-0.313-0.266-0.51c-0.051-0.417-0.06-1.098,0.063-1.176C164.569,197.825,172.663,201.488,172.663,201.488z"/>
			<path fill="#C5757D" d="M169.534,197.496l0.154,0.368c0.044,0.105,0.109,0.201,0.191,0.281c0.435,0.422,1.884,1.837,2.326,2.31
				c0.522,0.558,0.792,1.047,0.815,1.554c0.023,0.506-1.292,0.834-1.489,0.848s-1.071,0.1-2.19-0.317s-1.582-0.818-2.48-1.796
				c-0.898-0.978-1.506-1.516-1.782-1.739c-0.275-0.223-0.677-0.579-0.672-0.868c0.004-0.29-0.041-1.102,0.196-1.202
				c0.213-0.09,3.348-0.352,4.518,0.125C169.313,197.136,169.454,197.305,169.534,197.496z"/>
			<path fill="#EAACB6" d="M174.573,162.57c0,0,0.558,2.418,0.781,4.723c0.199,2.057-1.981,2.788-1.981,2.788
				s-1.403,9.825-1.901,12.245c-0.442,2.145-1.674,12.203-1.951,14.406c-0.037,0.29-0.215,0.537-0.48,0.66
				c-0.792,0.371-2.548,1.002-4.003,0.184c-0.257-0.145-0.418-0.419-0.428-0.714c-0.228-6.806,0.905-14.933,0.979-15.991
				c0.003-0.041,0.004-0.074,0.002-0.115c-0.099-1.992-1.161-8.93-1.517-13.606c-0.312-1.838,0.228-4.753,0.228-4.753
				L174.573,162.57z"/>
			<g>
				<path fill="#CE8C9E" d="M173.964,168.584c-0.097-0.061-0.207-0.203-0.185-0.535c0.091-1.415-0.129-3.646-0.211-3.825l0.084-0.06
					l0.001-0.003l0.001,0.002l-0.058-0.1l0.065-0.033l0.057,0.036c0.194,0.122,0.361,2.83,0.286,3.999
					c-0.01,0.167,0.02,0.29,0.08,0.328c0.041,0.025,0.106,0.016,0.184-0.027c0.262-0.146,0.647-0.69,0.638-1.586
					c-0.005-0.523-0.124-2.511-0.156-2.723l0.224-0.034c0.038,0.247,0.153,2.254,0.159,2.754c0.011,0.932-0.384,1.579-0.754,1.787
					c-0.078,0.043-0.154,0.066-0.225,0.07C174.085,168.635,174.021,168.619,173.964,168.584z M173.709,164.259l-0.054-0.093
					L173.709,164.259z"/>
			</g>
			<g>
				<path fill="#CE8C9E" d="M165.448,198.032l0.226-0.011c-0.272-5.504,0.327-11.34,0.684-14.827
					c0.138-1.349,0.238-2.324,0.228-2.733c-0.02-0.766-0.325-3.147-0.647-5.67c-0.277-2.169-0.564-4.412-0.679-5.705
					c-0.242-2.733,0.152-4.843,0.156-4.864l-0.223-0.042c-0.004,0.021-0.404,2.161-0.159,4.926c0.115,1.296,0.401,3.542,0.679,5.714
					c0.322,2.516,0.626,4.893,0.646,5.646c0.01,0.395-0.089,1.363-0.227,2.705C165.774,186.665,165.175,192.511,165.448,198.032z"/>
			</g>
			<g>
				<path fill="#CE8C9E" d="M168.357,168.801c1.3-0.056,2.292-0.403,2.959-1.037c0.865-0.823,0.842-1.818,0.841-1.86l-0.226,0.008
					c0,0.009,0.018,0.941-0.774,1.691c-0.829,0.783-2.207,1.1-4.098,0.938l-0.019,0.226
					C167.509,168.807,167.949,168.818,168.357,168.801z"/>
			</g>
			<path fill="#A76478" d="M164.019,164.687c0,0,2.167,0.923,5.568,0.657s4.683-0.727,5.807-1.422s1.804-1.57,1.804-1.57
				l-0.236-1.309c0,0-0.624,1.095-2.228,1.865c-1.604,0.77-5.083,1.096-6.501,1.168c-1.417,0.072-4.077-0.723-4.077-0.723
				L164.019,164.687z"/>
			<path fill="#EAACB6" d="M171.241,163.857c0,0,0.1,0.373,0.123,0.817c0.023,0.445,0.023,1.262,0.023,1.262l0.514-0.093
				c0,0,0.077-0.791,0.049-1.185s-0.157-0.939-0.157-0.939L171.241,163.857z"/>
			<path fill="#4F5997" d="M166.305,163.78c0,0-0.084,0.377-0.088,0.822c-0.004,0.445,0.031,1.262,0.031,1.262l-0.517-0.072
				c0,0-0.11-0.787-0.099-1.182c0.011-0.395,0.117-0.944,0.117-0.944L166.305,163.78z"/>
			<path fill="#4F5997" d="M175.941,162.109c0,0,0.135,0.462,0.162,0.84c0.026,0.378-0.031,1.025-0.031,1.025l0.336-0.43
				c0,0,0.04-0.655,0.026-0.86s-0.217-0.803-0.217-0.803L175.941,162.109z"/>
			<g>
				<path fill="#8C92B0" d="M177.613,164.214c0.035-0.001,0.071-0.008,0.108-0.02l-0.071-0.216
					c-0.286,0.098-0.642-0.605-0.772-0.958l-0.212,0.079C176.711,163.223,177.102,164.236,177.613,164.214z"/>
			</g>
			<g>
				<path fill="#CCDEFB" d="M173.355,164.87c-0.141-0.098-0.221-0.258-0.226-0.452l-0.011-0.38
					c-0.011-0.398,0.299-0.828,0.705-0.979l0.954-0.353c0.222-0.082,0.439-0.066,0.598,0.044c0.14,0.098,0.22,0.259,0.226,0.453
					l0.011,0.379c0.012,0.398-0.298,0.828-0.705,0.979l-0.954,0.353c-0.061,0.023-0.122,0.038-0.181,0.045
					C173.616,164.98,173.47,164.95,173.355,164.87z M174.866,163.121l-0.954,0.353c-0.21,0.078-0.39,0.31-0.385,0.497l0.011,0.38
					c0.002,0.063,0.025,0.111,0.068,0.142c0.062,0.043,0.156,0.045,0.258,0.008l0.954-0.353c0.211-0.078,0.391-0.31,0.385-0.497
					l-0.011-0.379c-0.001-0.064-0.024-0.112-0.068-0.142c-0.042-0.029-0.1-0.04-0.165-0.031
					C174.929,163.102,174.898,163.109,174.866,163.121z"/>
			</g>
		</g>
		<path fill="#D692A6" d="M172.271,138.783l3.167,9.603c0,0,0,0.006,0.007,0.011c0.196,0.142,4.102,3.032,5.21,3.351
			c0.195,0.056,0.388,0.088,0.586,0.107c0.947,0.1,1.82-0.211,1.784-0.619c-0.044-0.493-4.73-7.054-6.325-8.99
			C175.105,140.31,172.271,138.783,172.271,138.783z"/>
		<path fill="#EBDDDD" d="M175.438,148.386c0,0,0,0.006,0.007,0.011c0.196,0.142,4.102,3.032,5.21,3.351
			c0.195,0.056,0.388,0.088,0.586,0.107l-1.664-1.054c0,0-1.743-1.316-2.091-1.653c-0.354-0.331-1.456-2.917-1.456-2.917
			L175.438,148.386z"/>
		<path fill="#DDE8F6" d="M163.742,154.791c0.597,3.073,0.482,7.97,0.482,7.97c0.52,0.668,1.522,1.026,2.693,1.176
			c2.241,0.289,6.05-0.529,7.312-1.014c1.919-0.741,2.725-1.903,2.752-2.153c0.027-0.251,0.181-0.844,0.037-1.936
			c-0.149-1.09-0.434-8.562-0.76-11.114c-0.327-2.552-1.013-5.435-2.229-7.578c-1.217-2.141-3.554-1.312-5.014-1.257
			c-1.458,0.054-3.125,1.134-3.467,1.623c-0.339,0.491-2.622,0.945-3.625,3.614c-0.002,0.002,0.631-0.299,0.631-0.299
			C161.55,146.492,163.147,151.717,163.742,154.791z"/>
		<path fill="#C98398" d="M175.957,162.238c-0.018-0.964-0.079-2.442-0.172-4.147c-0.028-1.217-0.074-2.479-0.171-3.7
			c-0.063-0.79-0.15-1.624-0.252-2.471c-0.211-2.524-0.463-4.871-0.732-6.307c-0.27-1.437-0.569-2.564-0.851-3.434
			c-0.066-0.338-0.105-0.527-0.105-0.527l-0.419-0.88c-0.084-0.194-0.163-0.36-0.231-0.499l1.809-0.13c0,0,1.755,2.409,1.759,8.104
			c-0.437,4.368,1.408,14.584,1.408,14.584s-0.057,1.696-1.301,2.205c-0.602,0.246-0.752-0.691-0.826-2.725
			C175.899,162.285,175.928,162.264,175.957,162.238z"/>
		<path fill="#D692A6" d="M169.563,139.799c0,0,1.674-1.419,3.07-0.248s1.994,4.929,1.994,4.929s1.07,1.044,1.113,1.195
			c0.043,0.151,0.694,15.886,0.328,16.846c-0.739,1.935-0.502-8.528-1.884-16.211C172.957,139.486,169.563,139.799,169.563,139.799z
			"/>
		<path fill="#C98398" d="M168.762,146.178c1.193,2.214,3.685,19.108,2.165,20.295c-1.275,0.996-5.936,2.585-6.321,0.125
			c-0.285-1.823,0.92-19.136,0.92-19.136S168.35,145.411,168.762,146.178z"/>
		<path fill="#C98398" d="M166.761,167.63c0,0-2.079,0.731-3.162-1.358c-0.082-1.884,0.457-4.469,0.232-8.306
			s-2.158-10.51-2.034-12.178c0.125-1.667-0.864-2.334,4.446-5.886c-0.838,1.833-0.572,2.479-0.572,2.479l1.844,4.216
			L166.761,167.63z"/>
		<path fill="#EBDDDD" d="M180.076,150.755c0,0-1.746-2.674-2.275-4.05c-0.53-1.375-3.018-3.868-3.018-3.868l-1.366-2.329l3.5,2.256
			l2.388,4.593C179.304,147.357,180.521,149.011,180.076,150.755z"/>
		<path fill="#FEBFBF" d="M174.757,138.754c0,0,0.054-0.418,0.249-0.552s0.951-0.557,1.296-0.587
			c0.345-0.031,0.451,0.142,0.465,0.298c0.014,0.156,0.222,0.451,0.222,0.451l0.52,0.822l0.267,0.575c0,0,0.214,0.177,0.432,0.762
			c0.218,0.584,0.303,0.991,0.414,1.584c0.111,0.594,1.825,2.625,2.109,3.03s2.712,3.911,2.708,5.169
			c-0.005,1.846-1.835,1.577-2.013,1.564s-0.852-0.366-1.349-1.116c-0.497-0.75-0.847-2.638-1.453-4.057
			c-0.606-1.418-1.248-2.61-1.623-2.924c-0.375-0.314-0.74-0.596-0.872-0.593s-0.672-0.304-1.258-0.93
			c-0.585-0.626-1.878-1.681-1.97-2.056s-0.11-1.234-0.11-1.234s0.712-0.261,0.789,0.08
			C173.655,139.381,174.757,138.754,174.757,138.754z"/>
		<path fill="#D692A6" d="M177.383,144.087c0,0,0.351,0.109,0.933-0.125c0.582-0.234,0.708-0.49,0.792-0.666
			c0.084-0.176-0.126-0.485-0.126-0.485l-0.138-0.219c0,0,0.22,0.029,0.387,0.229s2.842,4.231,3.285,4.936
			c0.443,0.706,0.871,1.884,0.929,2.046c0.058,0.162,0.141,1.371-0.424,1.781c-0.454,0.338-1.127,0.385-1.687,0.326
			c-0.56-0.058-1.223-0.948-1.373-1.239s-1.849-4.809-2.229-5.64S177,143.774,177,143.774L177.383,144.087z"/>
		
			<linearGradient id="SVGID_1_" gradientUnits="userSpaceOnUse" x1="3823.3667" y1="-22.8955" x2="3826.2808" y2="-22.8955" gradientTransform="matrix(-0.9961 0.0887 0.0887 0.9961 3987.894 -175.9509)">
			<stop  offset="0.1224" style="stop-color:#FCA4B5"/>
			<stop  offset="0.9896" style="stop-color:#FFADB7"/>
		</linearGradient>
		<path fill="url(#SVGID_1_)" d="M176.68,142.785c0,0,0.086-1.121,0.117-1.289s-0.1-0.516-0.1-0.516l-0.348,0.278l0.021-0.882
			l-0.528,0.307l-0.712,0.398l-0.431,0.601l-0.095-1.069l-0.186-0.979l0.77-1.077c0,0,0.017-0.535,0.781-0.318
			c0.764,0.218,0.948,1.172,0.948,1.172s0.292,0.762,0.445,0.955c0.154,0.192,0.046,1.257,0.013,1.558
			S176.873,142.773,176.68,142.785z"/>
		<polygon points="174.436,136.218 175.936,139.958 174.053,141.066 172.524,137.04 		"/>
		
			<linearGradient id="SVGID_2_" gradientUnits="userSpaceOnUse" x1="3835.0093" y1="-23.105" x2="3830.1995" y2="-26.6423" gradientTransform="matrix(-0.9961 0.0887 0.0887 0.9961 3987.894 -175.9509)">
			<stop  offset="0.1224" style="stop-color:#FEC7C7"/>
			<stop  offset="0.9694" style="stop-color:#FFADB7"/>
		</linearGradient>
		<path fill="url(#SVGID_2_)" d="M166.754,134.122c0,0,0.473,3.146,0.258,4.295c-0.214,1.151-1.324,2.414-1.39,2.78
			c-0.067,0.365,2.172,1.543,3.694,1.631c1.521,0.088,1.934-0.296,2.182-0.442s-0.36-1.532-0.167-2.852
			C171.524,138.214,168.819,134.174,166.754,134.122z"/>
		<path fill="#F64A6E" d="M171.639,143.729c0,0,1.696,6.799,3.088,17.522l-0.495,1.687l-1.035-0.99
			c-1.134-13.256-2.281-17.828-2.281-17.828L171.639,143.729z"/>
		<polygon fill="#F64A6E" points="170.654,142.377 171.825,143.334 171.431,144.427 170.383,144 170.354,143.665 		"/>
		<path fill="#E6F1FF" d="M166.861,139.439l0.122,0.845c0,0,0.944,2.199,3.672,2.093c0.065,0.423,0.032,1.625-0.385,1.988
			c-1.752-0.625-3.959-1.803-4.39-2.955c-0.051-0.136,0.328-1.746,0.328-1.746l0.592-0.551L166.861,139.439z"/>
		<path fill="#D692A6" d="M166.135,139.978c0,0-1.693,1.286-0.793,3.133c0.9,1.847,3.124,5.386,3.124,5.386l-0.617,0.87
			c0,0,2.431,7.99,2.792,9.239c0.361,1.25,0.841,5.283,0.841,5.283s-0.011-6.769-0.638-10.465s-1.391-6.874-2.057-8.451
			c-0.455-1.076-1.576-2.178-2.241-2.769c-0.328-0.291-0.502-0.717-0.476-1.154L166.135,139.978z"/>
		
			<linearGradient id="SVGID_3_" gradientUnits="userSpaceOnUse" x1="3829.3687" y1="-23.834" x2="3832.0776" y2="-23.834" gradientTransform="matrix(-0.9961 0.0887 0.0887 0.9961 3987.894 -175.9509)">
			<stop  offset="0.1224" style="stop-color:#FCA4B5"/>
			<stop  offset="0.9896" style="stop-color:#FFADB7"/>
		</linearGradient>
		<path fill="url(#SVGID_3_)" d="M171.515,141.846c0,0-0.645,0.917-1.9,0.11c-0.676-0.434-0.736-1.403-0.736-1.403l-0.428-2.578
			l2.957,3.261L171.515,141.846z"/>
		<path fill="#E6F1FF" d="M171.13,140.195c0,0,0.165,0.487,0.14,0.759s-0.106,1.021-0.616,1.423c0.53,0.647,1.41,0.93,1.743,0.886
			c-0.294-1.003-0.423-1.957-0.557-2.745C171.707,139.73,170.909,139.625,171.13,140.195z"/>
		<path fill="#EBDDDD" d="M163.742,154.791c0.597,3.073-0.143,11.481-0.143,11.481c0.396,0.791,1.159,1.426,2.33,1.576
			c-0.282-0.223-0.23-2.438-0.356-4.464c-0.25-1.584,0.146-1.01-0.252-5.029c-0.398-4.021-1.649-7.104-1.649-7.104l0.459,0.768
			c0,0,2.457,4.886,2.902,5.057c0.446,0.171,0.794,0.147,0.794,0.147s3.287,1.462,4.238,1.377c0.953-0.084,4.582-3.656,4.582-3.656
			s-3.677,0.067-4.156-0.188c-0.479-0.255-2.211-1.627-2.717-2.841c-0.505-1.211-2.65-5.455-2.65-5.455s-2.75,1.937-3.736,1.662
			c-0.983-0.276-0.834-4.299-0.834-4.299C161.55,146.492,163.147,151.717,163.742,154.791z"/>
		<path fill="#FEC7C7" d="M167.022,136.515c0.021,0.008,0.042,0.017,0.062,0.022c0,0-0.002,0,0,0.002
			c0.4,0.149,0.727,0.12,0.727,0.12s0.691,1.899,1.083,2.969c0.393,1.069,1.085,1.53,2.428,2.017
			c1.343,0.487,1.696,0.11,1.921-0.146c0.157-0.177,0.602-1.269,0.907-2.281c0.134-0.439,0.239-0.861,0.285-1.189
			c0.152-1.079,0.487-1.778,0.652-2.018c0.163-0.239,0.249-1.66,0.038-3.18c-0.208-1.52-1.745-3.17-2.914-3.6
			c-1.168-0.43-2.862-0.188-4.279,0.617c-1.417,0.806-2.01,1.783-2,2.825C165.945,133.714,166.416,136.005,167.022,136.515z"/>
		<path fill="#754554" d="M173.662,136.602c0,0-0.945-0.034-1.118-0.019c-0.173,0.015-1.013,0.324-1.013,0.324l0.943-0.144
			l1.128,0.001L173.662,136.602z"/>
		<polygon fill="#754554" points="174.455,136.249 175.195,135.761 175.221,135.907 175.088,136.011 174.319,136.484 		"/>
		<g>
			
				<linearGradient id="SVGID_4_" gradientUnits="userSpaceOnUse" x1="3826.8374" y1="-25.6582" x2="3826.0068" y2="-25.1809" gradientTransform="matrix(-0.9961 0.0887 0.0887 0.9961 3987.894 -175.9509)">
				<stop  offset="0.1224" style="stop-color:#FEC7C7"/>
				<stop  offset="0.9896" style="stop-color:#FFDBDB"/>
			</linearGradient>
			<path fill="url(#SVGID_4_)" d="M174.047,136.724c0,0,0.236,1.07,0.44,1.648c0.205,0.578-0.117,0.78-0.602,0.811
				c-0.485,0.031-0.711-0.135-0.711-0.135L174.047,136.724z"/>
			
				<linearGradient id="SVGID_5_" gradientUnits="userSpaceOnUse" x1="3826.0171" y1="-25.5918" x2="3827.4976" y2="-25.5918" gradientTransform="matrix(-0.9961 0.0887 0.0887 0.9961 3987.894 -175.9509)">
				<stop  offset="0.188" style="stop-color:#FFDCDC"/>
				<stop  offset="0.8991" style="stop-color:#FEC7C7"/>
			</linearGradient>
			<path fill="url(#SVGID_5_)" d="M173.848,139.231c0.013,0,0.027-0.001,0.041-0.002c0.315-0.021,0.528-0.111,0.632-0.269
				c0.096-0.146,0.1-0.35,0.01-0.604c-0.201-0.568-0.436-1.632-0.438-1.643l-0.09,0.02c0.002,0.011,0.239,1.08,0.442,1.654
				c0.08,0.226,0.08,0.4,0,0.521c-0.088,0.133-0.277,0.21-0.562,0.229c-0.013,0-0.025,0.001-0.038,0.002
				c-0.434,0.019-0.641-0.127-0.643-0.129l-0.054,0.074C173.157,139.092,173.379,139.251,173.848,139.231z"/>
		</g>
		
			<ellipse transform="matrix(-0.8222 -0.5692 0.5692 -0.8222 236.108 348.6665)" fill="#FFFFFF" cx="172.505" cy="137.46" rx="0.236" ry="0.26"/>
		
			<ellipse transform="matrix(-0.8223 -0.569 0.569 -0.8223 239.9161 348.6588)" fill="#FFFFFF" cx="174.391" cy="136.874" rx="0.188" ry="0.259"/>
		<path fill="#C4868F" d="M167.084,136.537c0,0-0.002,0,0,0.002c0.4,0.149,0.727,0.12,0.727,0.12s0.691,1.899,1.083,2.969
			c0.393,1.069,1.085,1.53,2.428,2.017c1.343,0.487,1.696,0.11,1.921-0.146c0.157-0.177,0.602-1.269,0.907-2.281
			c-0.204,0.026-0.469,0.064-0.784,0.098c-0.64,0.232-2.483,0.814-3.5,0.066c-0.607-0.447-0.652-2.015-0.652-2.015
			c-0.151-2.258-1.528-3.227-2.027-2.049C167.088,135.552,167.043,135.988,167.084,136.537z"/>
		<path fill="#FEC7C7" d="M168.787,137.13c0,0-0.25,1.373-0.204,1.646c-0.559-1.432-0.805-2.271-0.805-2.271
			s-0.583-1.57,0.101-1.418S168.981,136.45,168.787,137.13z"/>
		<path fill="#D692A6" d="M161.615,146.779c0,0-0.577-2.579,1.069-3.322c1.646-0.742,3.266,0.173,4.529,3.212
			c1.264,3.039,2.919,6.3,4.095,7.237c1.009,1.3,1.247,4.803-0.884,4.844c-2.045-0.389-4.83-4.905-6.294-7.133
			C162.667,149.391,161.872,147.751,161.615,146.779z"/>
		<path fill="#FEBFBF" d="M169.763,158.501c0,0,0.609,0.593,2.222,0.116c3.666-1.085,6.444-2.393,7.87-3.125
			c0.605-0.312,0.966-0.521,1.05-0.562c0.277-0.14,0.732-0.23,1.183-0.469c0.449-0.239,0.741-0.686,0.741-0.686
			s-0.029,0.325,0.107,0.561c0.136,0.236,0.497,0.097,0.542-0.048c0.013-0.039,0.035-0.104,0.062-0.181
			c0.005-0.014,0.009-0.028,0.016-0.043c0.003-0.006,0.004-0.012,0.006-0.019c0.001-0.006,0.003-0.012,0.006-0.019
			c0.002-0.004,0.002-0.006,0.002-0.006c0.063-0.18,0.133-0.375,0.133-0.375s0.064-0.014,0.209-0.059
			c0.145-0.047,0.59-0.441,0.61-0.485c0.022-0.043,0.165-0.942-0.109-1.225c-0.273-0.284-1.267-0.672-1.409-0.766
			c-0.141-0.095-0.559-0.149-0.89-0.25c-0.333-0.104-0.666,0.06-0.666,0.06s-0.555,0.081-0.691,0.218
			c-0.137,0.136-0.278,0.777-0.322,0.923c-0.045,0.143-0.02,0.452-0.447,0.651c-0.431,0.199-1.532,0.633-3.248,1.033
			c-1.713,0.401-4.731,0.372-5.32,0.319c-0.59-0.053-0.534-0.021-0.534-0.021c-1.193,0.313-2.178,1.227-2.201,2.289
			C168.666,157.394,169.763,158.501,169.763,158.501z"/>
		
			<linearGradient id="SVGID_6_" gradientUnits="userSpaceOnUse" x1="3817.9702" y1="-9" x2="3822.2983" y2="-9" gradientTransform="matrix(-0.9961 0.0887 0.0887 0.9961 3987.894 -175.9509)">
			<stop  offset="0.1224" style="stop-color:#FCA4B5"/>
			<stop  offset="0.9896" style="stop-color:#FFADB7"/>
		</linearGradient>
		<path fill="url(#SVGID_6_)" d="M179.855,155.492c0.605-0.312,0.966-0.521,1.05-0.562c0.277-0.14,0.732-0.23,1.183-0.469
			c0.449-0.239,0.741-0.686,0.741-0.686s-0.029,0.325,0.107,0.561c0.136,0.236,0.497,0.097,0.542-0.048
			c0.013-0.039,0.035-0.104,0.062-0.181c-0.039,0.081-0.11,0.195-0.234,0.222c-0.201,0.042-0.388-0.124-0.359-0.35
			c0.03-0.227,0.45-0.703,0.45-0.703s0.296-0.397,0.37-0.396c0.075,0.001,0.173-0.016,0.173-0.016l-0.044-0.501l-0.392,0.15
			l-0.062,0.337c0,0-0.715,0.973-0.877,1.121c-0.16,0.147-0.633,0.487-0.9,0.568c-0.265,0.082-1.547,0.467-1.797,0.714
			C179.805,155.315,179.805,155.401,179.855,155.492z"/>
		<path fill="#504F60" d="M180.304,152.784c0,0,0.402,0.2,0.621,0.844s0.094,1.406,0.094,1.406s-0.117,0.222-0.295,0.312
			c-0.178,0.09-0.474,0.253-0.474,0.253s-0.33,0.035-0.381-0.115c0.244-0.126,0.402-0.21,0.402-0.21s0.373-0.56,0.191-1.275
			s-1.247-0.826-1.365-0.828c-0.118-0.001-0.453,0.051-0.453,0.051s0.007-0.185,0.128-0.362c0.121-0.179,0.57-0.287,0.632-0.286
			C179.466,152.573,180.17,152.746,180.304,152.784z"/>
		<path fill="#D692A6" d="M171.308,153.907c0,0,4.281-0.141,5.705-0.508c1.423-0.367,1.607-0.449,1.607-0.449s1.247-0.114,1.7,0.757
			c0.454,0.871,0.215,1.529-0.116,1.807c-0.27,0.131-4.074,1.91-6.247,2.583c-2.174,0.673-2.773,0.727-2.773,0.727
			s-0.902,0.126-1.42-0.322s-1.005-1.183-1.161-1.715c-0.155-0.532,0.077-1.091,0.569-1.879
			C169.665,154.12,170.926,153.884,171.308,153.907z"/>
		<path fill="#754554" d="M168.787,137.13c0,0-0.079-1.278-0.409-1.447c-0.33-0.17-0.644,0.479-0.644,0.479s-0.62,1.175-0.667,1.261
			c-0.252-0.716-0.805-1.254-1.107-2.327s-0.982-2.813,0.059-4.22s2.354-1.438,2.354-1.438s1.437-1.426,4.081-0.572
			c2.645,0.854,3.144,3.813,3.167,4.071c0.023,0.259-0.399,0.818-0.399,0.818s-0.71,0.522-1.71-0.122c-1-0.643-2.176-0.6-2.47-0.425
			c-0.295,0.175,0.059,1.918,0.006,2.158c-0.053,0.241-1.059,0.604-1.311,0.794c-0.252,0.189-0.521,1.206-0.521,1.206
			L168.787,137.13z"/>
		<path fill="#754554" d="M173.678,139.378c0,0-0.517-0.211-1.019,0.258c-0.502,0.47-1.201,0.587-1.379,0.515
			c-0.178-0.072-0.178-0.072-0.178-0.072s0.129,0.514,0.955,0.293c0.825-0.22,1.21-0.542,1.515-0.552
			C173.799,139.721,173.678,139.378,173.678,139.378z"/>
		<path fill="#754554" d="M173.536,139.423c0,0,0.036-0.082,0.133-0.097s0.305-0.13,0.586-0.091
			c0.281,0.039,0.487-0.083,0.564-0.286c0.077-0.202-0.083,0.589-0.418,0.743s-0.561,0.198-0.832,0.12
			C173.299,139.734,173.536,139.423,173.536,139.423z"/>
		<path fill="#FEC7C7" d="M172.65,140.342c0,0,0.351-0.106,0.479-0.124c0.129-0.018,0.46-0.06,0.529-0.047s-0.013,0.274-0.243,0.338
			C173.186,140.573,172.752,140.438,172.65,140.342z"/>
		
			<linearGradient id="SVGID_7_" gradientUnits="userSpaceOnUse" x1="3823.311" y1="-22.9136" x2="3825.3442" y2="-22.8754" gradientTransform="matrix(-0.9961 0.0887 0.0887 0.9961 3987.894 -175.9509)">
			<stop  offset="0.1224" style="stop-color:#FEC7C7"/>
			<stop  offset="0.9896" style="stop-color:#FFDBDB"/>
		</linearGradient>
		<path fill="url(#SVGID_7_)" d="M176.188,140.979c0,0-0.126-0.923-0.132-1.065c-0.007-0.142,0.759-0.666,0.759-0.666
			s-0.376,0.092-0.595,0.149c-0.218,0.057-0.57,0.913-0.762,0.986c-0.192,0.073-0.35-0.093-0.334-0.411s0.282-0.951,0.282-0.951
			l0.501-0.434l-0.438,0.095c0,0-0.389,0.373-0.58,0.385c-0.191,0.013-0.048-0.695,0.07-0.824c0.118-0.128,1.006-0.585,1.283-0.619
			c0.278-0.034,0.451,0.158,0.539,0.353c0.088,0.193,1.269,2.173,1.318,2.284c0.049,0.111,0.509,1.548,0.552,2.034
			s-0.143,0.764-0.619,0.855s-0.779-2.338-0.782-2.369c-0.003-0.031-0.199-0.558-0.263-0.583c-0.064-0.026-0.199-0.033-0.295,0.05
			s-0.042,0.753-0.276,0.873C176.215,141.224,176.188,140.979,176.188,140.979z"/>
		
			<linearGradient id="SVGID_8_" gradientUnits="userSpaceOnUse" x1="3832.0776" y1="-27.5391" x2="3833.5435" y2="-27.5391" gradientTransform="matrix(-0.9961 0.0887 0.0887 0.9961 3987.894 -175.9509)">
			<stop  offset="0.1224" style="stop-color:#FEB9B8"/>
			<stop  offset="1" style="stop-color:#FFDEDE"/>
		</linearGradient>
		<path fill="url(#SVGID_8_)" d="M168.286,136.129c0,0-0.304-0.78-1.098-0.813c-0.794-0.033-0.19,1.39-0.018,1.846
			c0.173,0.457,0.548,0.762,0.848,0.694c0.3-0.068,0.384-0.423,0.384-0.423S168.245,136.687,168.286,136.129z"/>
		
			<linearGradient id="SVGID_9_" gradientUnits="userSpaceOnUse" x1="3832.2515" y1="-27.6909" x2="3833.3325" y2="-27.6909" gradientTransform="matrix(-0.9961 0.0887 0.0887 0.9961 3987.894 -175.9509)">
			<stop  offset="0.1224" style="stop-color:#FCA4B5"/>
			<stop  offset="0.9896" style="stop-color:#FFADB7"/>
		</linearGradient>
		<path fill="url(#SVGID_9_)" d="M168.129,136.326c0,0-0.591-0.752-0.933-0.672c-0.341,0.081-0.121,0.847,0.054,1.253
			s0.772,0.354,0.82,0.241c0.048-0.111,0.11-0.143,0.11-0.143L168.129,136.326z"/>
	</g>
	
		<ellipse transform="matrix(-0.9991 0.0433 -0.0433 -0.9991 365.9153 297.8585)" fill="#504F60" cx="179.733" cy="152.89" rx="0.801" ry="0.264"/>
	
		<ellipse transform="matrix(-0.9991 0.043 -0.043 -0.9991 365.8478 297.5836)" fill="#504F60" cx="179.726" cy="152.723" rx="0.801" ry="0.265"/>
	
		<ellipse transform="matrix(-0.9991 0.0434 -0.0434 -0.9991 365.9092 297.5031)" fill="#EFF0F5" cx="179.726" cy="152.722" rx="0.647" ry="0.214"/>
	<g>
		<path fill="#EAACB6" d="M166.74,160.496c1.215-0.053,2.453-0.407,2.522-0.427l-0.063-0.217c-0.021,0.006-2.208,0.631-3.572,0.351
			l-0.045,0.223C165.935,160.497,166.336,160.513,166.74,160.496z"/>
	</g>
</g>
</svg>
