<?xml version="1.0" encoding="utf-8"?>
<!-- Generator: Adobe Illustrator 16.0.0, SVG Export Plug-In . SVG Version: 6.00 Build 0)  -->
<!DOCTYPE svg PUBLIC "-//W3C//DTD SVG 1.1//EN" "http://www.w3.org/Graphics/SVG/1.1/DTD/svg11.dtd">
<svg version="1.1" id="Layer_1" xmlns="http://www.w3.org/2000/svg" xmlns:xlink="http://www.w3.org/1999/xlink" x="0px" y="0px"
	 width="463.683px" height="425.749px" viewBox="0 0 463.683 425.749" enable-background="new 0 0 463.683 425.749"
	 xml:space="preserve">
<g>
	<g>
		<path fill="#FEBFBF" d="M393.515,193.543c0,0,1.286,0.244,1.615,2.127c0.328,1.882,0.856,8.588,0.424,9.516
			c-0.432,0.929-1.761-0.672-2.227-4.862C392.863,196.135,391.059,194.102,393.515,193.543z"/>
		<path fill="#FEBFBF" d="M396.69,214.021c0,0-0.071,0.439,0.017,0.752c0.088,0.311,0.48,1.516,0.48,1.516s-0.022,0.436-0.002,0.652
			c0.025,0.217-0.291,1.105-0.142,1.307c0.014,0.025,0.027,0.035,0.047,0.053h0.006c0.11,0.074,0.239-0.053,0.292-0.105l-0.116,0.23
			c0,0-0.005,0.014,0.01,0.049c0.008,0.031,0.03,0.086,0.079,0.17c0.049,0.09,0.137,0.104,0.211,0.092
			c0.079-0.012,0.146-0.045,0.146-0.045s-0.014,0.08,0.005,0.166v0.006c0.018,0.08,0.065,0.158,0.167,0.184
			c0.063,0.014,0.154-0.016,0.257-0.066c0.229-0.113,0.506-0.336,0.548-0.369c0.001,0.012-0.009,0.063-0.005,0.117
			c-0.005,0.119,0.023,0.271,0.197,0.279c0.274,0.008,1.037-1.289,1.037-1.289s-0.084-1.521-0.112-1.775
			c-0.021-0.246-0.995-1.311-1.324-2.084c-0.334-0.773-1.922-7.922-2.395-9.408c-0.473-1.492-0.874-1.069-0.874-1.069
			c-0.318-0.011-1.474,1.161-1.318,2.635C394.054,207.486,396.69,214.021,396.69,214.021z"/>
		<path fill="#485455" d="M391.9,193.289c0,0,2.143-0.589,3.124,1.268s0.815,8.219,0.928,9.014c0.429,0.982,2.468,9.012,2.446,9.486
			c-0.021,0.473-1.571,0.885-1.928,0.885c-0.357,0-3.148-8.602-3.359-9.771C392.9,202.999,391.9,193.289,391.9,193.289z"/>
		
			<linearGradient id="SVGID_1_" gradientUnits="userSpaceOnUse" x1="3804.8276" y1="114.9819" x2="3806.9038" y2="114.9819" gradientTransform="matrix(-0.998 0.0629 0.0629 0.998 4189.5249 -137.1323)">
			<stop  offset="0.1224" style="stop-color:#FCA4B5"/>
			<stop  offset="0.9896" style="stop-color:#FFADB7"/>
		</linearGradient>
		<path fill="url(#SVGID_1_)" d="M397.717,218.691c0,0-0.014,0.08,0.005,0.166c0.036-0.201,0.433-0.523,0.433-0.523
			s0.382-0.547,0.382-0.645c-0.007-0.1,0.008-0.566,0.008-0.566l0.091-0.131l0.07,0.623l0.131,0.402l-0.255,0.494l-0.436,0.469
			c0.229-0.113,0.506-0.336,0.548-0.369c0.001,0.012-0.009,0.063-0.005,0.117c0,0,0.271-0.428,0.353-0.414
			c0.082,0.02,0.358-0.027,0.358-0.027l0.112-0.486c0,0,0.024-1.381-0.019-1.471c-0.035-0.078-0.228-0.557-0.278-0.678
			c0.019,0.203,0.188,1.496,0.178,1.734c-0.016,0.248,0.043,0.68-0.043,0.803c-0.091,0.125-0.289,0.043-0.339-0.059
			c-0.057-0.102-0.244-0.822-0.244-0.822l-0.03-0.285l-0.258-0.734c0,0-0.35-0.221-0.624-0.738c-0.092-0.18-0.139-0.326-0.165-0.441
			c0.004,0.445,0.109,0.744,0.266,0.951c0.184,0.256,0.424,0.328,0.424,0.328l0.176,0.416h-0.273l0.194,0.129
			c0,0-0.038,0.482-0.037,0.699c0.002,0.223-0.442,0.662-0.499,0.752c-0.063,0.084-0.358,0.32-0.358,0.32l-0.01,0.031
			C397.651,218.725,397.717,218.691,397.717,218.691z"/>
		
			<linearGradient id="SVGID_2_" gradientUnits="userSpaceOnUse" x1="3806.4585" y1="115.4277" x2="3807.3511" y2="115.4277" gradientTransform="matrix(-0.998 0.0629 0.0629 0.998 4189.5249 -137.1323)">
			<stop  offset="0.1224" style="stop-color:#FCA4B5"/>
			<stop  offset="0.9896" style="stop-color:#FFADB7"/>
		</linearGradient>
		<path fill="url(#SVGID_2_)" d="M397.388,218.195l-0.116,0.23c0,0-0.005,0.014,0.01,0.049c0.091-0.129,0.17-0.246,0.2-0.26
			c0.073-0.029,0.357-0.736,0.357-0.736l0.046-0.854l-0.259-0.059l0.153,0.158l-0.117,0.703l-0.313,0.664l-0.254,0.209
			C397.207,218.375,397.335,218.248,397.388,218.195z"/>
	</g>
	<g>
		<path fill="#BDD6F2" d="M396.706,250.006c-4.021,2.561-10.728,2.836-14.981,0.621c-4.253-2.217-4.44-6.088-0.42-8.648
			c4.021-2.559,10.729-2.836,14.981-0.619S400.727,247.447,396.706,250.006z"/>
		<g>
			<path fill="#FEBFBF" d="M390.146,240.291c0,0-1.057,0.928-0.896,1.48c0.159,0.553,2.321,3.947,3.438,4.33
				c2.325,0.795,1.759-1.318,1.37-1.752c-0.342-0.381-1.701-1.426-1.696-2.428C392.369,240.572,390.146,240.291,390.146,240.291z"/>
			<path fill="#8E8E8E" d="M390.422,243.475c0,0-0.388,0.135-0.391,0.432c-0.002,0.297-0.028,1.414-0.028,1.414
				s-0.26,0.143-0.406,0.074c-0.146-0.066-0.357-0.414-0.357-0.414s-0.227-2.195-0.343-2.641
				C388.781,241.896,390.422,243.475,390.422,243.475z"/>
			<path fill="#3F4A4B" d="M389.132,240.934c0,0,1.572,1.842,2.199,3.063c0.627,1.219,1.299,1.705,1.792,1.68
				c0.786-0.041,1.289-0.529,1.112-0.928c-0.178-0.398-0.178-0.398-0.178-0.398s2.037,2.086,1.793,3.414s-3.781-0.455-4.325-1.135
				c-0.208-0.26-0.64-2.172-1.106-2.711c-0.467-0.541-1.179-0.297-1.486-1.408C388.625,241.398,389.132,240.934,389.132,240.934z"/>
			<path fill="#8E8E8E" d="M390.318,243.656c0.466,0.539,1.087,2.543,1.295,2.803c0.506,0.633,3.616,2.182,4.24,1.281
				c-0.002,0.008-0.001,0.016-0.002,0.023c-0.244,1.328-3.781-0.455-4.325-1.135c-0.208-0.26-0.64-2.172-1.106-2.711
				c-0.406-0.471-1.216-0.307-1.429-1.229C389.321,242.91,389.979,243.264,390.318,243.656z"/>
			<path fill="#4F5997" d="M389.03,229.371c0,0.002,0,0.002,0,0.004c0.024,0.094,0.051,0.184,0.081,0.266
				c0.096,0.266,0.266,0.477,0.485,0.637c0,0,0,0,0,0.002c1.074,0.797,3.3,0.406,3.517-0.402c0.592-2.209,0.293-7.783,0.73-10.697
				c0.439-2.91-0.777-7.875-0.777-7.875s-4.261,1.551-5.193,2.225c-0.555,0.398-0.267,3.191,0.124,5.668
				c0.266,1.703,0.583,3.256,0.711,3.785C389.006,224.217,388.59,227.67,389.03,229.371z"/>
			<path fill="#2A3637" d="M389.487,241.189c0.026,0.211,0.18,0.398,0.416,0.529c0.512,0.289,1.41,0.314,2.254-0.289
				c0,0,0.745-13.75,1.563-17.957c-1.581-0.322-3.856,4.303-4.539,4.271c-0.332-0.014-0.497,0.121-0.447,0.52
				c0,0.002,0,0.002,0.001,0.004c0.157,1.225-0.556,4.875-0.325,6.295C388.64,235.982,389.404,240.523,389.487,241.189z"/>
			<path fill="#A8B0C2" d="M389.487,241.189c0.026,0.211,0.18,0.398,0.416,0.529c-0.171-1.699-0.443-3.84-0.789-5.387
				c-0.501-2.25,0.15-5.492,0.187-7.16c-0.001-0.002-0.001-0.002-0.001-0.002c0.006-0.297-0.009-0.58-0.058-0.846
				c-0.033-0.174-0.053-0.367-0.062-0.58c-0.099-1.896,0.57-5.055,0.382-6.211c-0.07-0.434-0.203-1.594-0.063-2.258
				c0.276-1.311,0.992-2.184,0.992-2.184c-1.128,0.123-2.047,0.473-2.791,1c0.267,1.701,0.584,3.254,0.712,3.785
				c0.298,1.232-0.118,4.686,0.321,6.387c0,0.002,0,0.002,0.001,0.004c0.157,1.225-0.556,4.875-0.325,6.295
				C388.64,235.982,389.404,240.523,389.487,241.189z"/>
			<g>
				<path fill="#8E8E8E" d="M385.667,244.646c0,0-0.571-0.158-0.56,0.137c0.011,0.297,0.131,2.145,0.131,2.145
					s-0.129,0.131-0.278,0.07s-0.376-0.4-0.376-0.4s-0.269-1.801-0.27-2.26C384.313,243.793,385.667,244.646,385.667,244.646z"/>
				<path fill="#FEBFBF" d="M385.457,242.045c0,0-0.833,0.703-0.798,1.586c0.034,0.867,1.198,4.365,2.315,4.746
					c1.118,0.383,2.214-0.361,2.11-0.863s-1.12-2.039-1.418-3.27C387.349,242.932,385.457,242.045,385.457,242.045z"/>
				<path fill="#3F4A4B" d="M387.66,243.732c0,0,0.871,1.553,1.258,2.613c0.843,2.316,0.825,3.336,0.666,3.896
					c-0.167,0.582-1.854,0.1-3.063-0.85c-1.388-1.086-0.821-2.436-1.685-3.77c-0.28-0.434-0.538-0.748-0.555-1.795
					c-0.03-0.887,0.748-1.273,0.748-1.273s-0.576,0.914-0.244,1.658c0.168,0.375,0.112,0.541,0.361,1.008
					c0.497,0.932,0.596,1.852,1.295,2.52c0.657,0.625,2.555,0.191,2.495-0.184c-0.109-0.697-0.746-1.861-1.003-2.51
					C387.627,244.271,387.66,243.732,387.66,243.732z"/>
				<path fill="#8E8E8E" d="M384.889,245.521c0.864,1.334,0.259,2.598,1.646,3.684c1.12,0.877,2.745,1.379,3.074,0.949
					c-0.009,0.029-0.018,0.059-0.025,0.088c-0.167,0.582-1.854,0.1-3.063-0.85c-1.388-1.086-0.821-2.436-1.685-3.77
					c-0.184-0.283-0.459-0.563-0.499-1.125C384.496,244.797,384.753,245.311,384.889,245.521z"/>
			</g>
			<path fill="#4F5997" d="M392.075,216.822c0,0,0.167,1.748-0.404,2.9c-0.57,1.152-1.646,1.979-1.646,1.979
				s-1.486,7.252-2.978,10.182c-0.668,1.313-3.052,1.037-3.343-1.238c-0.291-2.273-0.392-4.297-1.472-9.275
				c-0.264-1.213-0.41-3.404,1.152-5.838C384.947,213.096,392.075,216.822,392.075,216.822z"/>
			<path fill="#2A3637" d="M388.87,232.285c0,0,0.527,0.164,0.091,1.057c-0.436,0.891-2.14,6.914-1.646,9.963
				c-0.966,0.963-2.107,0.73-2.468-0.223c-0.359-0.953-0.972-7.541-0.594-8.893c0.377-1.352,1.356-2.117,1.242-3.115
				S388.87,232.285,388.87,232.285z"/>
			<g>
				<g>
					<path fill="#3F4A4B" d="M381.836,219.102c0.016,0.248,0.02,0.719,0.008,1.344c0.291-0.133,0.593-0.291,0.899-0.482
						c4.73-2.852,11.458-11.604,11.813-12.633c0.011-0.039,0.016-0.059,0.016-0.059c0.168-1.385,0.308-1.279,0.94-3.586
						c0.625-2.313,0.235-4.454-0.438-6.958c-0.674-2.511-1.382-3.136-2.686-3.417c-1.31-0.274-9.728,1.052-10.843,2.255
						c-1.109,1.203-1.138,2.364-1.138,2.364s0.278,1.485,0.601,3.063c0.148,0.742,0.311,1.496,0.452,2.13
						c0.078,0.333,0.147,0.627,0.214,0.872c0.45,1.69,0.596,5.114,0.771,7.299c-0.051,0.201-0.107,0.422-0.149,0.666
						C381.871,214.082,381.709,217.602,381.836,219.102z"/>
					<path fill="#DDE0E7" d="M392.569,197.474c0,0-0.31,0.747-2.702,0.116c-2.394-0.63-3.297-2.221-3.297-2.221
						s-3.423-0.364-3.612-0.321c-0.188,0.042,1.986-1.111,1.986-1.111L392.569,197.474z"/>
					<path fill="#3F4A4B" d="M381.014,240.178c0,0,0.115,0.311,0.367,0.67c0.23,0.33,0.579,0.709,1.063,0.914
						c1.074,0.678,4.652-1.236,7.082-1.107c2.672,0.143,3.942-0.314,4.673-1.354c-0.144-6.123,1.003-17.133,0.387-23.164
						c-0.625-6.184-0.144-8.404-0.029-8.807c0.011-0.039,0.016-0.059,0.016-0.059s-7.143,1.252-10.464,2.703
						c-0.979,0.438-1.626,0.879-1.662,1.32c-0.023,0.238-0.074,0.451-0.149,0.666c-0.537,1.582-2.106,3.361,0.186,14.59
						C383.035,229.254,381.225,235.434,381.014,240.178z"/>
					<path fill="#DDE0E7" d="M381.381,240.848c0.788-4.271,2.46-11.307,2.508-12.773c0.068-2.35-0.679-6.162-0.762-8.531
						c-0.012-0.369-0.236-6.346-0.236-6.346s0.588-1.584,1.218-3.223c0.405-1.038,0.822-2.102,1.117-2.789
						c0.767-1.773-0.42-1.406-1.146-3.443c-0.721-2.043-0.577-4.103-0.577-4.103s-0.802,1.516-2.041,3.484
						c0.078,0.333,0.147,0.627,0.214,0.872c0.45,1.69,0.596,5.114,0.771,7.299c-0.051,0.201-0.107,0.422-0.149,0.666
						c-0.537,1.582-2.106,3.361,0.186,14.59c0.552,2.703-1.258,8.883-1.469,13.627C381.014,240.178,381.129,240.488,381.381,240.848
						z"/>
					<path fill="#DDE8F6" d="M381.155,196.048c0,0,0.953-0.999,2.153-1.041c1.2-0.041,3.396,0.176,4.017,0.2
						s-2.653-5.027-2.653-5.027s-2.004,2.016-2.481,2.613C381.711,193.39,381.018,195.553,381.155,196.048z"/>
					<path fill="#DDE8F6" d="M385.097,186.304c0,0,0.558-3.162,3.305-3.748c2.803-0.502,4.389,1.494,4.678,1.991
						s0.738,1.895,0.619,2.745c-0.118,0.849-1.131,6.325-2.365,6.369s-2.236-0.048-3.307-0.668s-3.035-2.094-3.355-2.813
						C384.338,189.256,385.097,186.304,385.097,186.304z"/>
					<path fill="#DDE8F6" d="M392.314,191.962c0,0,0.952,2.44,1.037,2.771c0.085,0.329,0.27,1.014,0.083,1.322
						s-0.378,1.493-1.428,1.636c-1.051,0.144-2.678-0.527-3.691-1.275s-2.104-1.702-2.652-2.626
						c-0.548-0.923-2.184-2.393-2.184-2.393l1.139-1.27C384.618,190.127,389.759,193.76,392.314,191.962z"/>
					<path fill="#FEC7C7" d="M393.517,186.101c0,0-0.271-0.834-0.891-0.627c-0.618,0.206-2.118,1.551-2.617,3.038
						c-0.5,1.488-0.593,2.267-0.569,3.451c0.022,1.184,1.065,1.62,1.253,1.706c0.187,0.085,1.058,0.147,1.438-0.09
						c0.382-0.238,1.301-2.885,1.456-3.487S393.68,186.424,393.517,186.101z"/>
					<g>
						
							<linearGradient id="SVGID_3_" gradientUnits="userSpaceOnUse" x1="4139.8198" y1="62.2373" x2="4138.7432" y2="62.7357" gradientTransform="matrix(-0.998 0.0628 0.0628 0.998 4520.2163 -131.999)">
							<stop  offset="0.1224" style="stop-color:#FEC7C7"/>
							<stop  offset="0.9896" style="stop-color:#FFDBDB"/>
						</linearGradient>
						<path fill="url(#SVGID_3_)" d="M392.718,188.973c0.08,0.459,0.561,1.425,0.66,1.792c0.101,0.368-1.242,0.326-1.242,0.326
							L392.718,188.973z"/>
						
							<linearGradient id="SVGID_4_" gradientUnits="userSpaceOnUse" x1="4138.8843" y1="62.8037" x2="4140.1914" y2="62.0491" gradientTransform="matrix(-0.998 0.0628 0.0628 0.998 4520.2163 -131.999)">
							<stop  offset="0.188" style="stop-color:#FFDCDC"/>
							<stop  offset="0.8991" style="stop-color:#FEC7C7"/>
						</linearGradient>
						<path fill="url(#SVGID_4_)" d="M392.515,191.136c0.324-0.014,0.752-0.063,0.877-0.222c0.037-0.047,0.048-0.103,0.032-0.161
							c-0.042-0.153-0.148-0.41-0.262-0.681c-0.165-0.394-0.351-0.84-0.397-1.106l-0.094,0.017c0.049,0.276,0.236,0.728,0.403,1.127
							c0.112,0.269,0.218,0.521,0.258,0.669c0.008,0.029,0.003,0.053-0.015,0.077c-0.143,0.181-0.9,0.196-1.181,0.188l-0.003,0.095
							C392.174,191.14,392.328,191.144,392.515,191.136z"/>
					</g>
					<circle fill="#FFFFFF" cx="390.946" cy="189.127" r="0.267"/>
					
						<ellipse transform="matrix(-0.9559 -0.2937 0.2937 -0.9559 713.5051 484.4708)" fill="#FFFFFF" cx="393.122" cy="188.673" rx="0.241" ry="0.316"/>
					<g>
						<path fill="#754554" d="M390.302,188.537c0.719-0.31,1.674-0.106,1.684-0.104l0.034-0.155
							c-0.04-0.009-1.014-0.217-1.781,0.114L390.302,188.537z"/>
					</g>
					<g>
						<path fill="#754554" d="M392.835,188.205c0.442-0.343,0.838-0.386,0.842-0.386l-0.016-0.159
							c-0.018,0.001-0.441,0.046-0.924,0.418L392.835,188.205z"/>
					</g>
					<g>
						<path fill="#FB7F9E" d="M391.568,192.347c0.329-0.015,1.008-0.07,1.27-0.289l-0.102-0.122
							c-0.249,0.208-1.057,0.254-1.351,0.256l0.001,0.159C391.396,192.352,391.465,192.352,391.568,192.347z"/>
					</g>
					<polygon fill="#C6D6ED" points="383.724,192.061 384.035,191.766 385.47,193.05 386.096,193.991 384.353,193.275 
						384.079,192.468 382.377,193.047 382.998,192.261 					"/>
					<path fill="#CDDDF5" d="M382.131,194.328c0,0,0.834-0.505,1.498-0.554c0.663-0.048,2.582,0.764,2.582,0.764l0.016,0.252
						l-2.185-0.67L382.131,194.328z"/>
					<path fill="#C6D6ED" d="M390.96,196.743c0,0,1.291,0.045,1.612-1.413c0.32-1.458,0.159-1.539,0.159-1.539
						s0.915,1.408-0.099,3.052C392.127,197.271,391.252,197.017,390.96,196.743z"/>
					<path fill="#CDDDF5" d="M386.211,193.7c0,0,2,2.838,4.792,3.719c0.434,0.076-0.042-0.32-0.629-0.63
						C389.789,196.478,388.299,195.953,386.211,193.7z"/>
					<path fill="#CDDDF5" d="M388.344,194.21c0,0,0.914,1.015,1.831,1.259c0.918,0.244,2.199,0.282,1.837-1.153
						C391.373,195.231,389.552,195.191,388.344,194.21z"/>
					<path fill="#CDDDF5" d="M385.805,191.753c0,0-0.17,0.578,2.571,2.97C387.687,193.8,386.403,192.483,385.805,191.753z"/>
				</g>
				<g>
					<path fill="#485455" d="M378.164,208.344c0,0,0.928-8.185,1.477-9.834c0.55-1.65,0.736-2.229,2.267-2.497
						c1.529-0.268,2.583,1.469,2.302,3.824c-0.281,2.355-4.127,12.072-4.412,12.451S378.597,211.428,378.164,208.344z"/>
					<path fill="#485455" d="M378.091,209.396c0,0-0.183-0.727,0.451-1.299c0.635-0.572,2.762-1.426,2.895-0.836
						c0.134,0.59,0.271,10.723,0.292,11.064s-0.948,0.764-1.896,0.721c-0.947-0.043-1.271-0.264-1.36-0.602
						S378.091,209.396,378.091,209.396z"/>
					<path fill="#FEBFBF" d="M381.525,218.227c0,0,0.219,0.459,0.289,0.893c0.069,0.434,0.141,1.564,0.203,1.732
						c0.062,0.168,0.207,0.434,0.089,0.596c-0.119,0.162-0.454,0.156-0.662-0.285c-0.208-0.443-0.348-1.559-0.348-1.559
						s-0.279,0.609-0.287,0.766c-0.007,0.154,0.057,1.027,0.151,1.176c0.096,0.148,0.388,0.008,0.483,0.029
						c0.096,0.02,0.17,0.109,0.17,0.109s0.279,0.068,0.241,0.414c-0.135,0.182-0.654,0.213-0.932,0.205
						c-0.276-0.008-0.686-0.24-0.686-0.24l-0.409-0.078l-0.294-0.436l-0.229-0.227c0,0-0.244-0.182-0.31-0.273
						c-0.065-0.09-0.533-1.512-0.547-1.727c-0.013-0.213,0.067-1.111,0.067-1.111L381.525,218.227z"/>
					<polygon fill="#FEBFBF" points="379.76,220.686 380.202,222.057 380.08,222.033 					"/>
					<polygon fill="#FEBFBF" points="379.188,220.51 379.535,221.549 379.417,221.432 					"/>
				</g>
			</g>
		</g>
	</g>
</g>
</svg>
