<?xml version="1.0" encoding="utf-8"?>
<!-- Generator: Adobe Illustrator 16.0.0, SVG Export Plug-In . SVG Version: 6.00 Build 0)  -->
<!DOCTYPE svg PUBLIC "-//W3C//DTD SVG 1.1//EN" "http://www.w3.org/Graphics/SVG/1.1/DTD/svg11.dtd">
<svg version="1.1" id="Layer_1" xmlns="http://www.w3.org/2000/svg" xmlns:xlink="http://www.w3.org/1999/xlink" x="0px" y="0px"
	 width="463.683px" height="425.749px" viewBox="0 0 463.683 425.749" enable-background="new 0 0 463.683 425.749"
	 xml:space="preserve">
<g>
	<path fill="#BDD6F2" d="M187.176,193.664c4.325-2.752,11.54-3.05,16.114-0.666c4.575,2.385,4.777,6.548,0.452,9.3
		c-4.325,2.753-11.539,3.051-16.113,0.667C183.054,200.58,182.852,196.416,187.176,193.664z"/>
	<g>
		<path fill="#FEBFBF" d="M197.7,155.704c0.304,1.921,3.344,11.131,3.709,12.384c0.024,0.082,0.037,0.123,0.037,0.123
			s0.302,0.085,0.459-0.023c0.158-0.109,0.331-1.161,0.331-1.161l0.005,0.49c0,0.002,0,0.002,0,0.004l0,0.135
			c0,0.008,0.001,0.018,0.003,0.026c0,0.006,0.003,0.012,0.003,0.018c0.018,0.081,0.084,0.241,0.309,0.229
			c0.038-0.002,0.076-0.02,0.11-0.052c0.006-0.004,0.012-0.011,0.018-0.017c0.245-0.244,0.44-1.064,0.488-1.196
			c0.055-0.153,0.066-1.147,0.066-1.147l0.017,0.017c0.045,0.048,0.168,0.176,0.293,0.273v0.002
			c0.105,0.081,0.213,0.142,0.278,0.118c0.16-0.058-0.033-0.64-0.033-0.64s-0.289-0.979-0.367-1.289
			c-0.081-0.31-0.515-1.444-0.876-2.129c-0.2-0.996-1.303-9.714-1.303-9.714s0.378-9.298-0.706-11.355
			c-1.085-2.056-3.179-1.193-3.179-1.193S197.376,153.659,197.7,155.704z"/>
		<path fill="#E9F0F9" d="M197.096,139.042c0,0,2.925-0.518,3.799,1.748c0.874,2.265,0.72,6.494,0.72,6.494s-1.891,2.328-4.33,0.078
			C194.846,145.113,197.096,139.042,197.096,139.042z"/>
		<path fill="#FEBFBF" d="M203.549,165.807l-0.293-0.273C203.301,165.582,203.424,165.71,203.549,165.807z"/>
		
			<linearGradient id="SVGID_1_" gradientUnits="userSpaceOnUse" x1="3678.0718" y1="95.519" x2="3679.0737" y2="95.519" gradientTransform="matrix(-0.9987 0.051 0.051 0.9987 3871.6689 -117.2642)">
			<stop  offset="0.1224" style="stop-color:#FCA4B5"/>
			<stop  offset="0.9896" style="stop-color:#FFADB7"/>
		</linearGradient>
		<path fill="url(#SVGID_1_)" d="M203.069,166.754c0.028,0.164-0.293,0.988-0.384,1.106c0.245-0.244,0.44-1.064,0.488-1.196
			c0.055-0.153,0.066-1.147,0.066-1.147s-0.308-0.801-0.432-0.945s-0.667-0.922-0.667-0.922s0.239,0.738,0.296,0.88
			c0.058,0.142,0.402,0.508,0.489,0.713c0.085,0.207,0.215,0.467,0.215,0.467S203.038,166.589,203.069,166.754z"/>
		
			<linearGradient id="SVGID_2_" gradientUnits="userSpaceOnUse" x1="3678.8062" y1="96.4639" x2="3680.0308" y2="96.4639" gradientTransform="matrix(-0.9987 0.051 0.051 0.9987 3871.6689 -117.2642)">
			<stop  offset="0.1224" style="stop-color:#FCA4B5"/>
			<stop  offset="0.9896" style="stop-color:#FFADB7"/>
		</linearGradient>
		<path fill="url(#SVGID_2_)" d="M201.409,168.088c0.024,0.082,0.037,0.123,0.037,0.123s0.302,0.085,0.459-0.023
			c0.158-0.109,0.331-1.161,0.331-1.161l0.005,0.49c0.034-0.245,0.292-1.407,0.292-1.407l-0.073-0.917l-0.169,0.268
			c0,0-0.034,0.832-0.032,0.882c0.003,0.05-0.33,1.407-0.33,1.407S201.841,168.122,201.409,168.088z"/>
	</g>
	<g>
		<path fill="#626170" d="M203.448,197.047c0,0,0.261,0.132,0.274,0.327s0.021,0.729,0.02,0.854
			c-0.001,0.126-0.332,0.615-1.143,0.804c-0.812,0.189-2.783-0.333-3.447-0.721s-1.57-1.375-1.847-1.45
			c-0.216-0.059-0.769,0.022-0.997,0.06c-0.071,0.012-0.14,0.014-0.211,0.008l-0.521-0.043c-0.074-0.006-0.147-0.022-0.218-0.047
			l-1.116-0.396c0,0-0.16-0.819,0.175-1.077C194.753,195.106,203.448,197.047,203.448,197.047z"/>
		<path fill="#504F60" d="M198.851,193.72c0,0,0.966,0.612,1.138,0.784c0.171,0.173,1.916,0.881,2.521,1.25
			c0.605,0.369,1.061,1,1.1,1.207c0.04,0.207,0.131,0.679,0.062,0.876c-0.07,0.198-0.385,0.724-1.43,0.788
			c-0.935,0.059-2.735-0.73-3.103-0.896c-0.045-0.021-0.085-0.043-0.126-0.071c-0.278-0.189-1.438-0.976-1.629-1.065
			c-0.217-0.103-2.139-0.588-2.431-0.686c-0.292-0.097-0.619-0.133-0.662-0.368s-0.13-1.523,0.024-1.928
			S197.998,192.681,198.851,193.72z"/>
		<path fill="#4F5997" d="M194.295,193.893c0.101,0.318,0.471,0.544,1.709,0.609c0.143,0.007,0.286,0.013,0.429,0.013
			c0.889,0.029,1.708-0.038,2.604-0.43c0.314-0.137,0.525-0.448,0.529-0.791c0.036-3.453,1.487-17.699,1.92-26.555
			c0.274-5.601-0.941-8.446-0.941-8.446l-5.982-0.345l-0.219,14.776l0.002,8.548C194.347,181.271,194.201,193.574,194.295,193.893z"
			/>
		<g>
			<path fill="#8C92B0" d="M195.993,194.525c0.005-0.099,0.442-9.922,0.595-11.988c0.154-2.071,0.279-13.818,0.28-13.938
				l-0.23-0.002c-0.001,0.118-0.126,11.858-0.28,13.923c-0.153,2.069-0.591,11.896-0.595,11.995L195.993,194.525z"/>
		</g>
		<path fill="#A8B0C2" d="M194.295,193.893c0.066,0.208,0.246,0.376,0.707,0.486c0.633-0.488,0.867-0.668,1.5-1.156l1.05-24.309
			c0,0,1.566-1.7,1.297-2.757c-0.119-0.454-4.374,5.982-4.374,5.982l-0.13,0.583l0.002,8.548
			C194.347,181.271,194.201,193.574,194.295,193.893z"/>
		<path fill="#626170" d="M196.305,200.206c0,0,0.286,0.005,0.354,0.386c0.022,0.125,0.037,0.258,0.045,0.381
			c0.023,0.328-0.133,0.647-0.419,0.809c-0.243,0.137-0.603,0.276-1.121,0.342c-1.198,0.15-2.664-0.292-3.415-0.718
			c-0.751-0.425-1.021-0.771-1.474-1.4s-0.921-0.93-0.921-0.93l-0.191,0.051c0,0-0.671-0.487-1.039-0.825
			c-0.148-0.136-0.245-0.318-0.27-0.518c-0.052-0.424-0.061-1.115,0.065-1.195C188.083,196.484,196.305,200.206,196.305,200.206z"/>
		<path fill="#504F60" d="M193.127,196.15l0.156,0.374c0.045,0.107,0.111,0.205,0.194,0.286c0.441,0.429,1.914,1.866,2.363,2.346
			c0.53,0.567,0.804,1.063,0.828,1.578c0.023,0.514-1.313,0.847-1.513,0.861c-0.2,0.014-1.087,0.102-2.225-0.322
			c-1.137-0.424-1.606-0.831-2.519-1.824c-0.913-0.994-1.53-1.54-1.811-1.767s-0.687-0.588-0.683-0.882s-0.042-1.119,0.199-1.221
			c0.217-0.092,3.401-0.357,4.589,0.126C192.903,195.785,193.046,195.956,193.127,196.15z"/>
		<path fill="#4F5997" d="M198.245,160.674c0,0,0.567,2.456,0.793,4.798c0.203,2.089-2.012,2.831-2.012,2.831
			s-1.425,9.979-1.931,12.438c-0.449,2.178-1.7,12.396-1.981,14.634c-0.037,0.294-0.219,0.545-0.488,0.671
			c-0.805,0.376-2.588,1.018-4.066,0.186c-0.261-0.147-0.425-0.425-0.435-0.725c-0.231-6.914,0.919-15.169,0.994-16.244
			c0.003-0.042,0.004-0.075,0.002-0.117c-0.101-2.023-1.18-9.071-1.541-13.82c-0.316-1.868,0.231-4.828,0.231-4.828L198.245,160.674
			z"/>
		<g>
			<path fill="#8C92B0" d="M197.627,166.782c-0.098-0.062-0.209-0.205-0.188-0.542c0.093-1.437-0.131-3.703-0.215-3.885l0.086-0.062
				l0.001-0.003l0.001,0.001l-0.059-0.102l0.066-0.034l0.058,0.037c0.198,0.123,0.367,2.875,0.291,4.063
				c-0.011,0.17,0.02,0.294,0.081,0.333c0.043,0.026,0.11,0.015,0.187-0.028c0.266-0.148,0.658-0.7,0.648-1.611
				c-0.006-0.539-0.126-2.557-0.159-2.765l0.228-0.035c0.038,0.243,0.156,2.283,0.162,2.797c0.011,0.947-0.39,1.604-0.767,1.815
				c-0.079,0.044-0.156,0.068-0.228,0.071C197.75,166.835,197.685,166.818,197.627,166.782z M197.369,162.39l-0.055-0.095
				L197.369,162.39z"/>
		</g>
		<g>
			<path fill="#8C92B0" d="M188.977,196.695l0.23-0.011c-0.276-5.588,0.331-11.515,0.693-15.056
				c0.141-1.373,0.243-2.365,0.232-2.782c-0.023-0.915-0.341-4.027-0.649-7.037c-0.176-1.726-0.342-3.355-0.435-4.399
				c-0.246-2.776-0.029-4.439-0.027-4.456l-0.228-0.031c-0.002,0.017-0.222,1.702,0.026,4.507c0.093,1.045,0.259,2.676,0.436,4.402
				c0.293,2.866,0.624,6.114,0.647,7.02c0.011,0.402-0.09,1.388-0.23,2.752C189.308,185.152,188.7,191.09,188.977,196.695z"/>
		</g>
		<g>
			<path fill="#8C92B0" d="M191.932,167.002c1.321-0.057,2.328-0.409,3.005-1.052c0.879-0.836,0.855-1.847,0.854-1.889l-0.23,0.007
				c0,0.01,0.019,0.956-0.787,1.718c-0.842,0.796-2.242,1.117-4.163,0.953l-0.02,0.229
				C191.07,167.009,191.517,167.021,191.932,167.002z"/>
		</g>
		<path fill="#A76478" d="M187.525,162.824c0,0,2.201,0.938,5.656,0.668c3.455-0.271,4.756-0.738,5.898-1.445
			c1.142-0.707,1.833-1.596,1.833-1.596l-0.239-1.33c0,0-0.634,1.112-2.264,1.894s-5.164,1.114-6.604,1.187
			s-4.173-0.428-4.173-0.428L187.525,162.824z"/>
		<path fill="#4F5997" d="M194.861,161.981c0,0,0.102,0.378,0.125,0.83c0.023,0.451,0.023,1.282,0.023,1.282l0.521-0.095
			c0,0,0.078-0.803,0.05-1.204s-0.159-0.954-0.159-0.954L194.861,161.981z"/>
		<path fill="#4F5997" d="M189.855,162.097c0,0-0.085,0.383-0.089,0.835c-0.004,0.452,0.031,1.282,0.031,1.282l-0.525-0.072
			c0,0-0.112-0.8-0.101-1.201c0.011-0.401,0.119-0.959,0.119-0.959L189.855,162.097z"/>
		<path fill="#4F5997" d="M199.635,160.206c0,0,0.137,0.469,0.164,0.853c0.027,0.384-0.031,1.042-0.031,1.042l0.342-0.437
			c0,0,0.041-0.665,0.026-0.874c-0.015-0.208-0.22-0.815-0.22-0.815L199.635,160.206z"/>
		<g>
			<path fill="#8C92B0" d="M201.334,162.344c0.036-0.002,0.072-0.008,0.109-0.021l-0.072-0.218
				c-0.272,0.095-0.652-0.615-0.785-0.973l-0.216,0.08C200.417,161.336,200.814,162.366,201.334,162.344z"/>
		</g>
		<g>
			<path fill="#CCDEFB" d="M197.008,163.01c-0.143-0.099-0.224-0.263-0.229-0.459l-0.011-0.386
				c-0.011-0.404,0.303-0.841,0.716-0.994l0.969-0.359c0.225-0.083,0.446-0.067,0.607,0.045c0.143,0.099,0.224,0.263,0.23,0.459
				l0.011,0.386c0.012,0.404-0.303,0.841-0.716,0.994l-0.969,0.358c-0.062,0.023-0.124,0.038-0.184,0.046
				C197.273,163.123,197.125,163.092,197.008,163.01z M198.543,161.233l-0.969,0.359c-0.213,0.079-0.396,0.315-0.391,0.504
				l0.011,0.386c0.002,0.065,0.025,0.113,0.069,0.144c0.063,0.043,0.158,0.046,0.262,0.008l0.969-0.358
				c0.214-0.079,0.396-0.315,0.391-0.505l-0.011-0.386c-0.002-0.064-0.025-0.113-0.069-0.144c-0.043-0.03-0.102-0.041-0.168-0.032
				C198.607,161.214,198.576,161.222,198.543,161.233z"/>
		</g>
	</g>
	<path fill="#DDE8F6" d="M186.234,149.946c0.082,0.512,0.158,1.003,0.212,1.448c0.295,2.398,1.316,10.424,1.316,10.424
		c0,0.004,0.022,0.147,1.166,0.247c0.38,0.034,1.015,0.035,1.783,0.008c1.59-0.057,3.749-0.232,5.357-0.488
		c2.387-0.379,4.804-2.282,4.691-2.897c-0.115-0.613-0.325-2.642-0.046-6.469c0.279-3.83,0.253-8.868-0.616-10.786
		c-0.868-1.916-1.395-2.173-3.001-2.39s-5.198-0.667-5.805-0.413c-0.609,0.253-1.643,1.519-2.718,2.161
		c-1.24,0.741-2.505,2.066-2.899,2.829C184.594,145.711,185.871,147.691,186.234,149.946z"/>
	<path fill="#DDE8F6" d="M186.234,149.946c0.082,0.512,0.158,1.003,0.212,1.448c0.295,2.398,1.316,10.424,1.316,10.424
		c0,0.004,0.022,0.147,1.166,0.247c0.38,0.034,1.015,0.035,1.783,0.008c-0.495-1.722-1.091-3.258-0.94-4.095
		c0.181-1.023,0.283-10.195,0.283-10.195L186.234,149.946z"/>
	<path fill="#FEBFBF" d="M187.911,143.279c0,0,2.636,0.45,2.102,4.86c-0.535,4.41-1.544,9.496-1.719,9.935
		c-0.174,0.438-2.915,1.696-3.195-0.014c-0.281-1.71-0.285-5.489-0.292-7.25c-0.008-1.76,0.615-5.869,1.159-6.707
		C186.458,143.342,187.264,143.021,187.911,143.279z"/>
	
		<linearGradient id="SVGID_3_" gradientUnits="userSpaceOnUse" x1="3878.7827" y1="-87.0894" x2="3874.9441" y2="-89.5127" gradientTransform="matrix(-0.9937 0.1119 0.1119 0.9937 4055.2378 -209.2993)">
		<stop  offset="0.1224" style="stop-color:#FEC7C7"/>
		<stop  offset="0.9694" style="stop-color:#FFADB7"/>
	</linearGradient>
	<path fill="url(#SVGID_3_)" d="M196.355,136.836c0,0,0.106,3.038,0.323,3.62c0.217,0.582-0.956,0.933-2.376,0.891
		c-1.419-0.042-2.776-1.018-3.336-1.208c-0.561-0.189-0.553-0.478-0.127-1.081c0.426-0.603,0.95-1.336,0.637-3.069
		c-0.313-1.733-0.908-4.177-0.524-4.658s3.285,0,3.969,1.288S196.355,136.836,196.355,136.836z"/>
	<path fill="#FEC7C7" d="M191.792,132.818c0,0,1.195,3.067,1.448,3.662c0.251,0.594,0.938,1.224,1.875,1.607
		c0.935,0.384,2.431,0.652,3.007,0.386c0.577-0.268,0.612-0.405,0.61-0.726c-0.002-0.267,0.253-1.07,0.242-2.175
		c-0.002-0.216-0.016-0.442-0.042-0.678c-0.105-0.935,0.13-2.289,0.034-2.547c-0.098-0.258-0.028-2.338-0.732-3.203
		c-0.704-0.864-2.79-2.5-4.858-2.014c-1.704,0.4-1.674,4.001-1.613,5.258C191.777,132.656,191.792,132.818,191.792,132.818z"/>
	<g>
		
			<linearGradient id="SVGID_4_" gradientUnits="userSpaceOnUse" x1="3871.2808" y1="-90.123" x2="3870.3374" y2="-89.9091" gradientTransform="matrix(-0.9937 0.1119 0.1119 0.9937 4055.2378 -209.2993)">
			<stop  offset="0.1224" style="stop-color:#FEC7C7"/>
			<stop  offset="0.9896" style="stop-color:#FFDBDB"/>
		</linearGradient>
		<path fill="url(#SVGID_4_)" d="M198.307,133.079c0.121,0.778,0.854,1.589,0.987,2.028c0.133,0.44-1.237,0.479-1.466,0.451
			L198.307,133.079z"/>
		
			<linearGradient id="SVGID_5_" gradientUnits="userSpaceOnUse" x1="3870.2896" y1="-90.1182" x2="3871.8589" y2="-90.1182" gradientTransform="matrix(-0.9937 0.1119 0.1119 0.9937 4055.2378 -209.2993)">
			<stop  offset="0.188" style="stop-color:#FFDCDC"/>
			<stop  offset="0.8991" style="stop-color:#FEC7C7"/>
		</linearGradient>
		<path fill="url(#SVGID_5_)" d="M198.184,135.607c0.382-0.016,0.936-0.085,1.109-0.292c0.054-0.065,0.07-0.141,0.046-0.221
			c-0.053-0.175-0.193-0.4-0.355-0.66c-0.249-0.397-0.558-0.893-0.631-1.362l-0.092,0.014c0.076,0.489,0.391,0.993,0.644,1.398
			c0.159,0.254,0.296,0.474,0.345,0.637c0.015,0.05,0.006,0.093-0.029,0.134c-0.205,0.245-1.158,0.285-1.388,0.258l-0.011,0.093
			C197.873,135.611,198.011,135.614,198.184,135.607z"/>
	</g>
	<path fill="#AF727B" d="M191.792,132.818c0,0,1.195,3.067,1.448,3.662c0.251,0.594,0.938,1.224,1.875,1.607
		c0.935,0.384,2.431,0.652,3.007,0.386c0.577-0.268,0.612-0.405,0.61-0.726c-0.002-0.267,0.253-1.07,0.242-2.175
		c-0.204-0.001-0.514,0.016-0.877,0.125c-0.489,0.148-2.622,0.951-3.332,0.626c-0.712-0.324-1.274-1.726-1.274-1.726
		s-0.052-1.072-0.152-1.509c-0.093-0.41-1.405-0.666-1.577-0.699C191.777,132.656,191.792,132.818,191.792,132.818z"/>
	<path fill="#FEC7C7" d="M192.9,135.64c0,0,0.254-1.976-0.116-2.694c-0.371-0.717-1.391-0.686-1.391-0.686l0.44,1.598
		C191.833,133.858,191.722,135.229,192.9,135.64z"/>
	<path fill="#FEC7C7" d="M197.586,136.905c0,0,0.421-0.377,0.804-0.502c0.382-0.125,0.442,0.17,0.378,0.326
		C198.705,136.883,198.397,137.595,197.586,136.905z"/>
	
		<ellipse transform="matrix(-0.6826 -0.7308 0.7308 -0.6826 233.3947 368.5364)" fill="#FFFFFF" cx="196.734" cy="133.581" rx="0.314" ry="0.355"/>
	
		<ellipse transform="matrix(-0.9911 -0.1328 0.1328 -0.9911 377.8345 291.508)" fill="#FFFFFF" cx="198.635" cy="133.158" rx="0.189" ry="0.344"/>
	<path fill="#754554" d="M197.739,132.756c0,0-0.053,0.267-0.195,0.274c-0.142,0.008-0.737-0.043-0.737-0.043l-1.076,0.248
		l0.038-0.19l1.071-0.436L197.739,132.756z"/>
	<path fill="#754554" d="M198.347,132.654c-0.02,0.002,0.023,0.208,0.023,0.208l0.62-0.281c0,0,0.043-0.097,0.051-0.136
		c0.007-0.039-0.093-0.18-0.093-0.18L198.347,132.654z"/>
	<path fill="#754554" d="M191.508,136.187l-0.501-0.618l-0.336-0.147l-0.59-1.045c0,0-1.214-2.255-1.122-3.529
		c0.092-1.274,0.783-2.727,2.271-3.019c1.045-1.196,2.943-1.393,4.052-1.265c1.109,0.128,2.496,1.067,3.102,2.262
		c0.606,1.195,0.265,1.207,0.265,1.207s-0.663,0.489-1.537,0.065c-0.873-0.424-1.284-0.782-1.6-0.747
		c-0.316,0.036-0.615,0.828-0.571,1.21c0.043,0.382,0.222,1.373-0.166,1.669s-1.146,1.19-1.275,1.39
		c-0.129,0.2-0.008,0.978-0.008,0.978l-0.487-0.198c0,0-0.1-0.987-0.639-1.354c-0.539-0.367-0.875,0.092-0.876,0.378
		c-0.001,0.287,0.233,1.17,0.172,1.379C191.601,135.014,191.458,135.738,191.508,136.187z"/>
	<path fill="#FEBFBF" d="M188.296,157.936c0,0,0.502-0.319,0.619,0.162s0.409,8.32,0.491,8.691c0.082,0.371,0.811,1.141,0.989,1.26
		s0.972,0.959,1.096,1.233c0.125,0.275,0.58,1.576,0.731,1.878c0.152,0.302,0.733,0.77,0.587,1.122
		c-0.146,0.353-0.778-0.109-1.067-0.4c-0.289-0.29-0.788-1.419-1.067-1.736c-0.021,0.342-0.058,1.467-0.035,1.956
		c0.016,0.346,0.844,2.07,0.682,2.235c-0.08,0.081-0.306,0.102-0.511-0.083c-0.205-0.185-0.847-1.213-0.847-1.213
		s0.419,1.225,0.425,1.438c0.005,0.214-0.225,0.322-0.5,0.043c-0.276-0.279-0.355-0.474-0.355-0.474s-0.316,0.278-0.472,0.078
		c-0.156-0.201-0.676-0.925-0.729-1.21c-0.053-0.285-0.185-0.652-0.185-0.652s-0.267-0.221-0.443-0.71
		c-0.176-0.489-0.51-1.452-0.548-2.104c-0.039-0.652-0.198-2.322-0.441-3.602c-0.243-1.28-1.916-6.476-1.526-7.726
		C186.072,158.159,188.296,157.936,188.296,157.936z"/>
	
		<linearGradient id="SVGID_6_" gradientUnits="userSpaceOnUse" x1="3522.6528" y1="180.0313" x2="3524.2378" y2="180.0313" gradientTransform="matrix(-1 0.001 0.001 1 3715.2036 -49.2231)">
		<stop  offset="0.1224" style="stop-color:#FEB9B8"/>
		<stop  offset="1" style="stop-color:#FFDEDE"/>
	</linearGradient>
	<path fill="url(#SVGID_6_)" d="M192.445,133.33c0,0-0.353-0.586-1.039-0.359c-0.686,0.227,0.186,1.931,0.236,2.033
		s0.202,0.804,0.762,0.737c0.561-0.067,0.226-0.854,0.226-0.854S192.32,133.841,192.445,133.33z"/>
	
		<linearGradient id="SVGID_7_" gradientUnits="userSpaceOnUse" x1="3522.9556" y1="179.7334" x2="3524.0161" y2="179.7334" gradientTransform="matrix(-1 0.001 0.001 1 3715.2036 -49.2231)">
		<stop  offset="0.1224" style="stop-color:#FCA4B5"/>
		<stop  offset="0.9896" style="stop-color:#FFADB7"/>
	</linearGradient>
	<path fill="url(#SVGID_7_)" d="M192.218,133.313c0,0-0.399-0.341-0.736-0.103s0.129,1.481,0.506,1.727
		c0.218,0.017,0.439-0.032,0.439-0.032S192.11,133.615,192.218,133.313z"/>
	<path fill="#E9F0F9" d="M184.695,149.978c0,0,2.642,1.002,5.162,0.556c0.345-1.309,1.268-8.029-2.525-8.213
		c-1.406-0.024-1.61,1.071-1.848,1.748S184.771,147.468,184.695,149.978z"/>
</g>
</svg>
