<?xml version="1.0" encoding="utf-8"?>
<!-- Generator: Adobe Illustrator 16.0.0, SVG Export Plug-In . SVG Version: 6.00 Build 0)  -->
<!DOCTYPE svg PUBLIC "-//W3C//DTD SVG 1.1//EN" "http://www.w3.org/Graphics/SVG/1.1/DTD/svg11.dtd">
<svg version="1.1" id="Layer_1" xmlns="http://www.w3.org/2000/svg" xmlns:xlink="http://www.w3.org/1999/xlink" x="0px" y="0px"
	 width="463.683px" height="425.749px" viewBox="0 0 463.683 425.749" enable-background="new 0 0 463.683 425.749"
	 xml:space="preserve">
<g>
	<path fill="#D7E4F2" d="M242.071,345.194c-4.733-2.733-12.431-2.719-17.193,0.031c-1.688,0.975-2.769,2.163-3.266,3.411
		l-8.03,4.637l10.241,5.912l4.544-2.624c4.478,1.173,9.948,0.697,13.65-1.44C246.78,352.371,246.804,347.927,242.071,345.194z"/>
	<g>
		<g>
			<path fill="#FEBFBF" d="M235.444,292.35c0,0,0.343,3.523,0.701,7.007c0.319,3.063,0.649,6.099,0.768,6.675
				c0.257,1.23,3.143,7.635,3.39,8.371c0.045,0.133,0.079,0.327,0.104,0.559c0.062,0.557,0.063,1.321-0.016,1.929
				c-0.069,0.538-0.204,0.954-0.416,0.988c-0.547,0.092-0.519,0.275-0.513,0.351c0.007,0.077,0.642,0.086,0.642,0.086
				s-0.72,0.262-0.795,0.469c-0.075,0.206,0.327,0.236,0.327,0.236s-0.322,0.381-0.194,0.448c0.13,0.066,0.822,0.023,0.822,0.023
				s-0.2,0.202-0.236,0.33c-0.019,0.066,0.035,0.13,0.115,0.178c0.072,0.042,0.167,0.069,0.247,0.069
				c0.169,0.001,1.155-0.406,1.284-0.524c0.129-0.12,0.67-1.974,0.67-1.974s-0.065-1.154-0.326-2.06
				c-0.262-0.905-0.175-0.974-0.523-3.666c-0.348-2.69-1.599-8.027-1.911-8.434s-0.893-5.017-1.58-8.049
				C237.318,292.328,235.444,292.35,235.444,292.35z"/>
			<path fill="#FEC7C6" d="M240.766,317.549c0,0-0.178,0.556-0.163,0.91c0.014,0.354-0.032,0.906-0.282,0.974
				s-0.457-0.016-0.464-0.371c-0.006-0.354,0.043-0.97,0.083-1.228c0.04-0.259-0.144-1.187-0.102-1.6s0.258-1.242,0.768-1.339
				s0.684,0.414,0.71,0.821c0.026,0.408-0.264,1.367-0.332,1.48C240.917,317.312,240.766,317.549,240.766,317.549z"/>
			<path fill="#FA9698" d="M239.636,319.02c0,0-0.322,0.381-0.194,0.448c0.13,0.066,0.822,0.023,0.822,0.023s-0.2,0.202-0.236,0.33
				c-0.019,0.066,0.035,0.13,0.115,0.178c0.069-0.125,0.14-0.232,0.194-0.267c0.148-0.089,0.283-0.039,0.478-0.133
				c0.192-0.092,0.397-0.395,0.397-0.395l0.322-0.887c0,0-0.158-0.318-0.341-0.728c-0.181-0.41-0.184-0.819-0.184-0.819
				s-0.265,0.027-0.619,0.118c-0.069,0.538-0.204,0.954-0.416,0.988c-0.547,0.092-0.519,0.275-0.513,0.351
				c0.007,0.077,0.642,0.086,0.642,0.086s-0.72,0.262-0.795,0.469C239.234,318.989,239.636,319.02,239.636,319.02z"/>
			<path fill="#FA9698" d="M236.145,299.356c0.319,3.063,0.649,6.099,0.768,6.675c0.257,1.23,3.143,7.635,3.39,8.371
				c0.045,0.133,0.079,0.327,0.104,0.559c0.16-0.363,0.335-0.854,0.305-1.211c-0.054-0.645-2.263-5.699-2.694-7.262
				c-0.431-1.565-1.554-6.943-1.554-6.943S236.34,299.455,236.145,299.356z"/>
			<path fill="#FFDC6E" d="M234.767,291.642c0,0,1.749-0.228,2.772,1.536c1.023,1.763,1.856,7.833,1.856,7.833
				s-0.837,1.379-3.673,1.599C232.888,302.83,234.767,291.642,234.767,291.642z"/>
		</g>
		<g>
			<path fill="#5C6467" d="M236.661,345.554c0,0,2.132,1.285,2.525,1.471c0.393,0.186,2.136,1.323,2.415,1.742
				c0.28,0.419,0.213,0.748,0.14,0.985c-0.074,0.237-0.646,0.638-0.974,0.687c-0.329,0.05-2.066-0.14-2.994-0.639
				c-0.927-0.499-0.858-0.705-0.985-0.749s-0.938-0.243-0.938-0.243s-0.188,0.153-0.567,0.052s-1.524-0.429-1.618-0.73
				c-0.093-0.302-0.146-1.371,0.007-1.885C233.824,345.729,236.661,345.554,236.661,345.554z"/>
			<path fill="#FEBFBF" d="M237.026,345.896c0,0,1.366,0.813,1.193,1.267s-1.682,0.437-2.293,0.219
				c-0.743-0.266-1.051-0.505-1.158-0.983c-0.106-0.478,0.517-0.559,0.517-0.559L237.026,345.896z"/>
			<path fill="#7282B5" d="M238.477,324.188c-0.632,4.994-0.613,5.736-0.688,6.915c-0.064,1.188-0.714,14.693-0.705,14.87
				c0.019,0.167-0.882,0.826-1.838,0.891c-0.093,0.01-0.194,0.01-0.288,0c-1.049-0.083-1.392-0.214-1.447-0.649
				c-0.056-0.437-0.845-11.5-0.771-13.552c-0.548-2.385-0.437-9.69-0.371-12.623c0.019-0.771,0.037-1.244,0.037-1.244l6.265-3.035
				C238.671,315.76,239.108,319.204,238.477,324.188z"/>
			<path fill="#E8D0C8" d="M235.247,346.863c-0.093,0.01-0.194,0.01-0.288,0c-1.049-0.083-1.392-0.214-1.447-0.649
				c-0.056-0.437-0.845-11.5-0.771-13.552c-0.548-2.385-0.437-9.69-0.371-12.623c0.9-0.223,1.782,0.464,2.386,3.082
				c0,0-1.355,0.955-1.18,4.863c0.177,3.907,0.455,5.03,0.483,6.34c0.037,1.317,0.019,9.94,0.353,11.23
				C234.523,345.981,234.847,346.437,235.247,346.863z"/>
			<path fill="#5C6467" d="M231.126,349.119c0.008-0.001,0.082,0.094,0.198,0.247c0.335,0.441,1.017,1.365,1.443,1.878
				c0.575,0.691,1.56,2.413,1.626,2.874s-0.049,0.634-0.162,0.774c-0.112,0.141-0.773,0.604-1.793,0.473s-1.874-0.738-2.454-1.444
				c-0.579-0.706-1.578-2.235-1.791-2.509c-0.214-0.273-0.952-0.837-1.072-1.101c-0.121-0.264-0.024-1.418,0.201-1.734
				c0.225-0.316,3.868,0.505,3.868,0.505L231.126,349.119z"/>
			<path fill="#FEBFBF" d="M230.758,348.625c0,0,0.995,1.301,0.922,1.705s-1.025,0.645-1.617,0.505
				c-0.592-0.139-2.074-1.178-1.955-1.619C228.226,348.774,230.758,348.625,230.758,348.625z"/>
			<path fill="#7282B5" d="M235.553,321.877c-0.325,1.179-2.423,2.683-2.423,2.683s-0.315,3.035-0.724,9.347
				c-0.148,2.376-0.437,8.428-1.086,15.463c-1.012,0.938-2.052,0.826-2.794,0.52c-0.204-0.083-0.391-0.176-0.539-0.269
				c-0.315-0.186-0.51-0.371-0.528-0.39c-0.074-0.065-0.612-5.736-0.595-9.449c0.01-1.782,0.418-5.94,0.437-6.767
				c0.492-2.71-2.023-6.46-1.597-13.904c0.028-0.575,0.752-0.928,1.792-1.142c2.868-0.575,8.158-0.074,8.158-0.074
				S235.877,320.688,235.553,321.877z"/>
			<g>
				<path fill="#A0ABCD" d="M228.22,349.771c-1.172-6.179-0.218-13.435,0.097-15.818c0.03-0.238,0.056-0.423,0.069-0.549
					c0.127-1.116-0.379-3.888-0.913-6.821c-0.107-0.587-0.217-1.185-0.324-1.785c-0.653-3.667-0.176-6.494-0.17-6.522l0.229,0.04
					c-0.005,0.028-0.476,2.817,0.17,6.441c0.107,0.601,0.216,1.198,0.323,1.784c0.562,3.08,1.048,5.739,0.916,6.889
					c-0.015,0.127-0.039,0.313-0.07,0.554c-0.313,2.375-1.264,9.603-0.099,15.745L228.22,349.771z"/>
			</g>
			<path fill="#E8D0C8" d="M227.709,343.939c0.111,1.912,0.167,4.065,0.278,5.681c-0.315-0.186-0.51-0.371-0.528-0.39
				c-0.074-0.065-0.612-5.736-0.595-9.449c0.01-1.782,0.418-5.94,0.437-6.767c0.492-2.71-2.023-6.46-1.597-13.904
				c0.028-0.575,0.752-0.928,1.792-1.142c0.194,0.576-0.808,0.984-0.612,1.681c0,0-0.232,4.993,0.176,6.905s1.226,5.718,0.873,7.342
				C227.58,335.521,227.441,339.252,227.709,343.939z"/>
			<path fill="#FDD249" d="M239.191,315.268c0,0-0.277,1.959-3.963,3.583c-2.821,1.244-5.522,1.263-7.146,1.03
				c-0.502-0.074-0.91-0.176-1.18-0.269c-1.216-0.437-1.336-0.576-1.373-1.151c-0.047-0.575,0.037-3.926-0.297-7.639
				c-0.344-3.713-1.959-8.372-1.959-8.372c0-0.038-0.186-0.725-0.353-1.532c-0.186-0.826-0.371-1.754-0.381-2.189
				c-0.009-0.854,0.241-1.764,1.875-3.185c1.644-1.42,3.082-2.599,3.824-3.118c0.743-0.511,4.78-1.151,6.052-0.984
				c3.072,0.381,3.351,3.406,3.546,4.354c0.194,0.938,0.659,4.854,0.604,6.701c-0.047,1.856-0.251,3.5-0.241,5.652
				C238.208,310.303,239.191,315.268,239.191,315.268z"/>
			<path fill="#DEDEDE" d="M230.235,316.456c-0.706,1.587-1.838,1.271-1.875,2.367c-0.01,0.278-0.121,0.659-0.278,1.058
				c-0.502-0.074-0.91-0.176-1.18-0.269c-1.216-0.437-1.336-0.576-1.373-1.151c-0.047-0.575,0.037-3.926-0.297-7.639
				c-0.344-3.713-1.959-8.372-1.959-8.372c0-0.038-0.186-0.725-0.353-1.532c1.16-0.594,2.58-0.844,4.316-0.594
				c0,0-0.956,2.637-0.919,3.063c0.046,0.427,0.046,0.427,0.046,0.427s3.75,1.931,4.057,2.395
				C230.736,306.673,230.94,314.869,230.235,316.456z"/>
		</g>
		<g>
			<g>
				<polygon fill="#C99A6B" points="222.408,320.273 230.236,315.754 230.236,306.771 222.408,311.291 				"/>
				<polygon fill="#87623F" points="230.236,306.771 222.408,311.291 226.631,309.031 				"/>
				<polygon fill="#AE835B" points="222.408,320.273 214.581,315.754 214.581,306.771 222.408,311.291 				"/>
				<polygon fill="#E8B687" points="222.408,311.291 214.581,306.771 222.408,302.252 230.236,306.771 				"/>
				<polygon fill="#D9AF84" points="225.935,312.803 227.193,312.076 227.193,308.528 225.935,309.255 				"/>
				<polygon fill="#EBCBAB" points="225.935,309.255 218.108,304.735 219.366,304.009 227.193,308.528 				"/>
				<polygon fill="#87623F" points="214.581,306.771 222.408,311.291 218.184,309.031 				"/>
				<polygon fill="#9C754E" points="219.013,312.879 217.755,312.152 217.755,308.604 219.013,309.33 				"/>
				<polygon fill="#54493E" points="219.013,309.33 226.84,304.812 225.583,304.086 217.755,308.604 				"/>
				<polygon fill="#D1A986" points="218.431,308.995 226.258,304.476 226.171,304.426 218.344,308.945 				"/>
				<polygon fill="#AE835B" points="219.013,309.33 219.013,309.477 218.246,309.066 217.755,308.759 217.755,308.604 				"/>
			</g>
			<polygon fill="#AE835B" points="226.631,309.031 225.935,309.404 225.935,309.255 227.193,308.528 227.193,308.68 			"/>
		</g>
		<g>
			<path fill="#FEBFBF" d="M223.578,296.722c0,0-9.287,9.286-9.346,9.963c-0.06,0.678,2.829,10.545,3.012,11.341
				c0.183,0.797,0.618,1.433,1.077,1.788c0.458,0.356,2.843,1.837,3.349,1.784c0.506-0.055,0.743-0.26,0.743-0.26
				s1.198-0.506,1.389-0.73c0.189-0.225,0.53-0.729,0.472-1.002c-0.057-0.273-1.825,0.768-1.963,0.779
				c-0.139,0.011-1.367-1.23-2.062-1.775s-0.862-0.334-1.049-1.454c-0.187-1.121-1.11-8.984-1.007-9.411
				c0.104-0.426,3.806-2.729,5.924-4.576c2.117-1.846,2.762-3.013,2.201-4.728C225.757,296.725,224.626,295.961,223.578,296.722z"/>
			<path fill="#FEC7C6" d="M219.652,318.404c0,0-0.352,0.365,0.232,0.978c0.584,0.611,1.168,0.655,1.692,0.692
				c0.524,0.038,0.964,0.209,0.964,0.209s0.575,0.564,0.938,0.547c0.363-0.018,0.401-0.392,0.287-0.648s-0.902-0.667-1.014-0.75
				c-0.111-0.084-1.184-0.852-1.399-0.938C221.136,318.407,219.997,318.086,219.652,318.404z"/>
			<path fill="#FFDC6E" d="M218.261,301.911c0,0,3.201,2.979,3.91,3.321s4.237-3.227,4.585-3.769
				c1.123-1.751,0.499-3.917-1.114-4.822c-1.655-0.929-2.451,0.081-2.943,0.478C222.207,297.517,218.261,301.911,218.261,301.911z"
				/>
		</g>
	</g>
	<g>
		<g>
			<path fill="#87623F" d="M221.878,313.527l-1.796-1.036v-2.062l1.796,1.036V313.527z M220.201,312.423l1.56,0.9v-1.789l-1.56-0.9
				V312.423z"/>
		</g>
		<g>
			<polygon fill="#87623F" points="221.179,312.867 220.783,312.639 220.783,311.601 221.179,311.829 			"/>
			<polygon fill="#87623F" points="221.568,312.252 220.393,311.573 220.981,311.204 			"/>
		</g>
	</g>
	<path fill="#FFADB7" d="M233.604,293.028c-0.01,0.91,0.194,1.235,0.019,1.513c-0.177,0.279-1.318,0.539-2.46,0.298
		c-0.232-0.056-0.529-0.148-0.845-0.307c-0.009,0-0.009-0.009-0.009-0.009c-0.65-0.307-1.053-0.747-1.47-1.48
		c-0.168-0.306-0.14-0.557-0.14-0.557s0.699-0.878,0.987-1.945c0.186-0.668,0.111-1.68,0.027-2.33
		c-0.046-0.38-0.093-0.64-0.093-0.64s-0.445-1.531,0.093-1.644c0.548-0.111,4.112,2.961,4.112,2.961s-0.084,1.234-0.148,2.386
		c-0.019,0.474-0.047,0.938-0.056,1.3C233.613,292.76,233.604,292.908,233.604,293.028z"/>
	
		<linearGradient id="SVGID_1_" gradientUnits="userSpaceOnUse" x1="650.4341" y1="291.458" x2="653.0267" y2="294.7401" gradientTransform="matrix(1 0 0 1 -419.7622 0)">
		<stop  offset="0.1224" style="stop-color:#FCA4B5"/>
		<stop  offset="0.9896" style="stop-color:#FFADB7"/>
	</linearGradient>
	<path fill="url(#SVGID_1_)" d="M233.678,291.274c-0.019,0.474-0.047,0.938-0.056,1.3c-0.14,0.009-0.315-0.019-0.539-0.084
		c-1.179-0.353-2.218-0.798-2.617,0c-0.297,0.575-0.557,1.355-0.157,2.033c-0.65-0.307-1.053-0.747-1.47-1.48
		c-0.168-0.306-0.14-0.557-0.14-0.557s0.699-0.878,0.987-1.945c0.186-0.668,0.111-1.68,0.027-2.33
		C231.626,288.75,233.009,290.328,233.678,291.274z"/>
	<path fill="#FEBFBF" d="M230.116,287.095c0,0,0.126,2.826,0.402,3.423c0.276,0.598,2.271,2.136,4.194,1.869
		c0.516-0.274,1.31-1.697,1.4-2.954c0.09-1.258-0.012-1.721,0.017-1.831s0.414-0.878,0.354-1.231s-0.161-2.34-0.847-3.208
		s-2.58-1.403-4.28-0.718S230.116,287.095,230.116,287.095z"/>
	<path fill="#754554" d="M230.718,288.094c0,0,0.162-1.117-0.539-1.314s0.093,2.416,0.093,2.416l-0.429,0.66l-0.023,0.282
		c0,0-0.869-1.476-1.107-1.915c-0.238-0.44-0.351-0.621-0.445-1.108c-0.094-0.488-0.471-2.58-0.371-3.312
		c0.099-0.731,1.354-1.834,2.313-1.914c0.439-0.59,1.339-0.883,2.205-0.889c0.865-0.005,1.51,0.062,2.549,0.871
		c1.038,0.809,1.075,1.446,1.155,1.645c0.08,0.197,0.087,1.008,0.087,1.008l-0.115-0.422c0,0-0.411,0.272-1.695,0.161
		c-1.284-0.11-1.992-0.624-1.992-0.624s0.236,0.909,0.188,1.245c-0.049,0.337-0.248,1.378-0.248,1.378s-0.66,0.393-0.88,0.547
		s-0.323,0.512-0.323,0.512l-0.084,0.893L230.718,288.094z"/>
	
		<linearGradient id="SVGID_2_" gradientUnits="userSpaceOnUse" x1="2497.4165" y1="73.77" x2="2498.8101" y2="73.77" gradientTransform="matrix(-0.986 0.1666 0.1666 0.986 2680.8313 -201.0032)">
		<stop  offset="0.1224" style="stop-color:#FEB9B8"/>
		<stop  offset="1" style="stop-color:#FFDEDE"/>
	</linearGradient>
	<path fill="url(#SVGID_2_)" d="M230.593,287.359c0,0-0.38-1.002-1.146-0.614c-0.767,0.387,0.333,2.387,0.83,2.414
		c0.496,0.027,0.404-0.484,0.404-0.484S230.146,287.834,230.593,287.359z"/>
	<path fill="#FECB4C" d="M236.388,284.285l-0.186,0.241c0,0-3.388,0.993-3.74,1.086c-0.158,0.037-0.437,0.158-0.845,0.288
		c-0.465,0.148-1.104,0.315-1.931,0.38c-1.551,0.131-1.551,0.131-1.551,0.131s-0.491-1.485-0.26-2.841
		c0.186-1.086,1.458-2.023,2.925-2.45c0.046-0.019,0.064-0.027,0.064-0.027c0.344-0.093,0.705-0.168,1.058-0.204
		c1.875-0.195,3.146,0.594,3.75,1.503S236.388,284.285,236.388,284.285z"/>
	<path fill="#FCF5E8" d="M231.618,285.9c-0.465,0.148-1.104,0.315-1.931,0.38c-1.551,0.131-1.551,0.131-1.551,0.131
		s-0.491-1.485-0.26-2.841c0.186-1.086,1.458-2.023,2.925-2.45c-0.251,0.111-1.188,0.604-1.291,1.541
		C229.409,283.636,230.124,285.288,231.618,285.9z"/>
	<path fill="#725E6D" d="M231.668,285.885c0,0,2.706,2.328,3.638,1.391c0.656-0.661,2.284-1.293,3-1.08
		c0.715,0.213,0.715,0.213,0.715,0.213s0.152-0.031,0.133-0.205s-2.766-1.914-2.766-1.914S235.301,283.131,231.668,285.885z"/>
</g>
</svg>
