<?xml version="1.0" encoding="utf-8"?>
<!-- Generator: Adobe Illustrator 16.0.0, SVG Export Plug-In . SVG Version: 6.00 Build 0)  -->
<!DOCTYPE svg PUBLIC "-//W3C//DTD SVG 1.1//EN" "http://www.w3.org/Graphics/SVG/1.1/DTD/svg11.dtd">
<svg version="1.1" id="Layer_1" xmlns="http://www.w3.org/2000/svg" xmlns:xlink="http://www.w3.org/1999/xlink" x="0px" y="0px"
	 width="463.683px" height="425.749px" viewBox="0 0 463.683 425.749" enable-background="new 0 0 463.683 425.749"
	 xml:space="preserve">
<g>
	<g>
		<path fill="#B9D3E1" d="M54.451,126.999c0,0-1.479-0.13-2.368,1.514c-0.889,1.644-1.01,2.578-1.846,4.103
			c-0.836,1.525-2.979,4.906-2.896,5.711c0.083,0.805,1.517,1.939,2.856,1.52c1.339-0.42,3.053-2.91,3.378-3.34
			C61.887,125.525,54.451,126.999,54.451,126.999z"/>
		<path fill="#E3E5EF" d="M65.846,178.198c-4.049-2.576-10.803-2.856-15.085-0.624c-1.904,0.993-2.995,2.315-3.268,3.704
			c-1.889,0.141-3.713,0.623-5.16,1.458c-3.493,2.018-3.475,5.297,0.04,7.327c3.515,2.029,9.196,2.04,12.689,0.022
			c0.888-0.513,1.546-1.107,1.98-1.741c2.969,0.243,6.042-0.222,8.38-1.44C69.705,184.673,69.895,180.774,65.846,178.198z"/>
		<path fill="#626170" d="M50.613,181.365c0,0-0.245,0.124-0.257,0.306c-0.013,0.182-0.019,0.683-0.018,0.8s0.311,0.576,1.07,0.752
			s2.605-0.312,3.227-0.675c0.622-0.363,1.471-1.288,1.729-1.357c0.203-0.055,0.72,0.02,0.934,0.056
			c0.066,0.011,0.131,0.013,0.197,0.008l0.488-0.041c0.07-0.006,0.138-0.021,0.204-0.044l1.045-0.371c0,0,0.15-0.767-0.164-1.009
			C58.752,179.548,50.613,181.365,50.613,181.365z"/>
		<path fill="#504F60" d="M54.916,178.25c0,0-0.904,0.573-1.065,0.734c-0.161,0.162-1.794,0.824-2.36,1.17
			c-0.566,0.345-0.992,0.936-1.029,1.129s-0.124,0.636-0.058,0.821c0.065,0.186,0.361,0.678,1.338,0.738
			c0.875,0.054,2.561-0.685,2.905-0.84c0.042-0.019,0.081-0.04,0.119-0.066c0.26-0.177,1.346-0.914,1.525-0.998
			c0.203-0.096,2.002-0.551,2.276-0.642s0.58-0.124,0.62-0.344c0.04-0.219,0.122-1.426-0.023-1.805
			C59.019,177.768,55.715,177.277,54.916,178.25z"/>
		<path fill="#626170" d="M57.3,184.588c0,0-0.269,0.005-0.333,0.361c-0.021,0.118-0.034,0.242-0.042,0.357
			c-0.022,0.307,0.125,0.605,0.393,0.757c0.228,0.128,0.565,0.258,1.05,0.319c1.121,0.142,2.494-0.272,3.197-0.671
			c0.703-0.398,0.956-0.722,1.38-1.311s0.862-0.87,0.862-0.87l0.18,0.048c0,0,0.627-0.456,0.973-0.772
			c0.139-0.128,0.229-0.298,0.252-0.484c0.049-0.397,0.058-1.044-0.061-1.119C64.997,181.104,57.3,184.588,57.3,184.588z"/>
		<path fill="#504F60" d="M60.274,180.791l-0.146,0.35c-0.042,0.101-0.104,0.191-0.182,0.267c-0.413,0.402-1.792,1.748-2.212,2.197
			c-0.497,0.531-0.753,0.996-0.775,1.477c-0.022,0.482,1.229,0.793,1.417,0.807s1.018,0.095,2.083-0.302s1.504-0.778,2.358-1.708
			c0.855-0.93,1.433-1.441,1.695-1.653c0.263-0.212,0.644-0.551,0.64-0.826c-0.004-0.275,0.038-1.047-0.187-1.143
			c-0.203-0.086-3.185-0.335-4.296,0.118C60.485,180.449,60.351,180.609,60.274,180.791z"/>
		<path fill="#6D899A" d="M52.542,146.788c0,0-0.405,0.69-0.369,2.38s0.25,11.034,1.226,16.007
			c0.976,3.047,1.549,11.931,1.573,12.716c0.905,1.285,4.39,0.762,4.295-0.071c-0.096-0.833-0.137-7.084-0.02-8.631
			c0.117-1.547-0.061-16.301-1.348-18.435C56.611,148.62,52.542,146.788,52.542,146.788z"/>
		<path fill="#738E9E" d="M55.346,149.898c0,0-0.258,4.529,0.408,5.48c0.667,0.952,0.979,0.998,1.169,2.973
			c0.19,1.976,0.998,7.621,1.45,9.168s1.544,9.606,1.901,13.271c1.737,0.833,4.594,0.894,4.69-0.534
			c0.095-1.428,0.279-7.193-0.482-10.549c-0.762-3.355-0.943-4.775-0.943-5.799c0-1.023,0.164-8.006,0.259-8.291
			c0.095-0.286,1.118-4.25-0.048-5.834C62.585,148.199,55.346,149.898,55.346,149.898z"/>
		<g>
			<g>
				<path fill="#8C92B0" d="M55.536,154.695c-0.064,0.003-0.135-0.012-0.208-0.045c-0.352-0.156-0.759-0.703-0.822-1.536
					c-0.034-0.453-0.084-2.252-0.069-2.469l0.206,0.014c-0.013,0.186,0.034,1.967,0.069,2.44c0.061,0.801,0.453,1.256,0.701,1.366
					c0.072,0.031,0.132,0.036,0.168,0.01c0.052-0.038,0.069-0.15,0.046-0.299c-0.159-1.037-0.218-3.465-0.051-3.589l0.049-0.036
					l0.062,0.024l-0.044,0.094l0.001-0.002l0.001,0.003l0.081,0.047c-0.061,0.166-0.087,2.173,0.105,3.428
					c0.045,0.295-0.043,0.43-0.126,0.491C55.656,154.674,55.599,154.693,55.536,154.695z M55.641,150.673l-0.042,0.088
					L55.641,150.673z"/>
			</g>
			<g>
				<path fill="#8C92B0" d="M60.801,154.402c-1.183,0.049-2.108-0.185-2.762-0.698c-0.848-0.667-0.904-1.557-0.906-1.594
					l0.206-0.011c0,0.009,0.056,0.841,0.833,1.45c0.812,0.635,2.084,0.812,3.786,0.523l0.035,0.2
					C61.57,154.343,61.173,154.387,60.801,154.402z"/>
			</g>
			<path fill="#A76478" d="M64.413,150.401c0,0-1.892,0.989-4.994,1.012c-3.102,0.023-4.299-0.29-5.372-0.824
				c-1.073-0.535-1.757-1.264-1.757-1.264l0.112-1.186c0,0,0.651,0.929,2.164,1.493c1.513,0.563,4.691,0.589,5.981,0.545
				c1.29-0.044,3.689-0.689,3.689-0.689L64.413,150.401z"/>
			<path fill="#738E9E" d="M57.805,150.213c0,0-0.062,0.341-0.048,0.739s0.077,1.127,0.077,1.127l-0.472-0.044
				c0,0-0.131-0.699-0.137-1.054c-0.005-0.354,0.069-0.849,0.069-0.849L57.805,150.213z"/>
			<path fill="#738E9E" d="M62.278,149.938c0,0,0.105,0.33,0.144,0.726c0.038,0.396,0.07,1.128,0.07,1.128l0.463-0.103
				c0,0,0.039-0.71-0.002-1.062s-0.179-0.833-0.179-0.833L62.278,149.938z"/>
			<path fill="#738E9E" d="M53.411,149.013c0,0-0.086,0.422-0.081,0.762s0.107,0.913,0.107,0.913l-0.338-0.357
				c0,0-0.087-0.582-0.09-0.766c-0.003-0.185,0.134-0.733,0.134-0.733L53.411,149.013z"/>
			<g>
				<path fill="#8C92B0" d="M52.059,151.019c-0.032,0.002-0.065-0.001-0.099-0.01l0.048-0.197c0.25,0.063,0.534-0.589,0.625-0.913
					l0.199,0.054C52.8,150.065,52.524,150.999,52.059,151.019z"/>
			</g>
			<g>
				<path fill="#CCDEFB" d="M55.597,151.391c-0.054-0.002-0.11-0.011-0.167-0.027l-0.892-0.242c-0.38-0.103-0.694-0.463-0.714-0.819
					l-0.02-0.339c-0.01-0.174,0.05-0.323,0.17-0.421c0.135-0.11,0.331-0.142,0.538-0.085l0.892,0.242
					c0.38,0.104,0.694,0.463,0.714,0.819l0.02,0.339c0.01,0.174-0.05,0.323-0.169,0.421
					C55.871,151.358,55.741,151.397,55.597,151.391z M54.377,149.82c-0.06-0.003-0.111,0.011-0.147,0.04
					c-0.037,0.03-0.054,0.075-0.051,0.132l0.02,0.34c0.01,0.167,0.191,0.36,0.387,0.414l0.892,0.242
					c0.096,0.025,0.181,0.016,0.233-0.027c0.037-0.03,0.054-0.074,0.051-0.131l-0.02-0.34c-0.01-0.167-0.19-0.36-0.388-0.414
					l-0.892-0.242C54.434,149.825,54.405,149.821,54.377,149.82z"/>
			</g>
		</g>
		<path fill="#92BACF" d="M65.528,136.245c0,0,0.825-3.665-0.254-4.871c-1.079-1.206-3.188-2.776-4.268-3.332
			s-4.26-1.35-5.846-0.953s-3.198,3-3.309,5.284c-0.111,2.285,0.071,4.419,0.476,6.466c0.404,2.047-0.952,8.274-0.175,8.671
			c0.23,0.611,0.009,1.141,0.02,1.658c0.009,0.414,1.368,1.625,5.067,2.156c4.707,0.676,6.868-0.395,6.892-0.883
			s-0.19-1.464-0.19-1.464s0.583-0.178,0.583-0.666S63.378,143.551,65.528,136.245z"/>
		<path fill="#92BACF" d="M65.522,137.27c-0.077,0.479-0.148,0.939-0.198,1.355c-0.276,2.245-1.232,9.759-1.232,9.759
			c0,0.004-0.021,0.138-1.091,0.231c-0.356,0.032-0.95,0.032-1.669,0.007c-1.489-0.053-3.51-0.217-5.016-0.458
			c-2.235-0.354-4.497-2.136-4.391-2.712c0.107-0.574,0.304-2.473,0.043-6.057c-0.261-3.586-0.237-8.302,0.576-10.098
			c0.813-1.794,1.638-2.6,3.142-2.802c1.505-0.202,4.535-0.059,5.104,0.178c0.57,0.237,1.538,1.422,2.544,2.023
			c1.161,0.694,2.606,2.026,2.975,2.741C67.318,133.396,65.863,135.158,65.522,137.27z"/>
		<path fill="#ADFF91" d="M66.718,132.507c-0.143,0.618-0.384,2.063-0.657,3.8c-0.026,0.169-0.059,0.339-0.078,0.515
			c-0.182,1.145-0.371,2.388-0.56,3.585c-0.084,0.547-0.169,1.087-0.248,1.607c-0.059,0.358-0.117,0.709-0.169,1.041
			c-0.13,0.781-0.247,1.484-0.352,2.05c-0.137,0.768-0.254,1.289-0.325,1.425c-0.377,0.722-2.863,1.731-5.883,1.25
			c-3.025-0.481-2.882-0.677-3.312-1.25c-0.449,0.553-1.692,0.228-2.687-0.788c-0.885-0.892-0.501-1.432-0.437-2.753
			c0.007-0.175,0.013-0.37,0.007-0.579c-0.013-0.39-0.026-0.95-0.046-1.582c-0.006-0.247-0.02-0.508-0.026-0.774
			c-0.02-0.729-0.039-1.503-0.059-2.245c-0.026-1.015-0.052-1.958-0.059-2.564c-0.006-0.208-0.006-0.384-0.006-0.501
			c0-0.417,0-0.982,0.065-1.673c0.098-1.054,0.358-2.394,1.002-3.923c1.093-2.59,3.514-2.831,6.045-2.401
			c1.295,0.215,2.954,0.482,2.954,0.482S67.206,130.438,66.718,132.507z"/>
		<g>
			<path fill="#F4F4F4" d="M65.006,143.055c-0.13,0.781-0.247,1.484-0.352,2.05c-0.872,0.286-1.958,0.423-3.149,0.423
				c-2.265,0-4.939-0.507-7.386-1.509c-0.839-0.345-1.542-0.684-2.108-1.029c0.007-0.175,0.013-0.37,0.007-0.579
				c-0.013-0.39-0.026-0.95-0.046-1.582c0.228,0.261,0.892,0.82,2.798,1.601C59.287,144.285,63.822,144.031,65.006,143.055z"/>
		</g>
		<g>
			<path fill="#F4F4F4" d="M65.423,140.406c-0.084,0.547-0.169,1.087-0.248,1.607c-0.95,0.41-2.225,0.618-3.663,0.618
				c-2.271,0-4.946-0.508-7.393-1.517c-0.872-0.357-1.601-0.709-2.173-1.061c-0.02-0.729-0.039-1.503-0.059-2.245
				c0.104,0.175,0.618,0.793,2.883,1.724c4.626,1.9,9.279,1.581,10.32,0.54L65.423,140.406z"/>
		</g>
		<g>
			<path fill="#F4F4F4" d="M66.061,136.307c-0.026,0.169-0.059,0.339-0.078,0.515c-0.963,0.715-2.577,1.073-4.477,1.073
				c-2.265,0-4.939-0.508-7.386-1.516c-0.937-0.384-1.698-0.761-2.291-1.132c-0.006-0.208-0.006-0.384-0.006-0.501
				c0-0.417,0-0.982,0.065-1.673c0.104,0.176,0.618,0.788,2.883,1.718c4.626,1.907,9.279,1.588,10.32,0.547L66.061,136.307z"/>
		</g>
		<path fill="#92BACF" d="M58.255,126.842c0,0-1.892-0.25-2.677,1.678c-0.785,1.928,0.274,3.011,0.262,3.772
			c0.952-0.63,1.479-1.523,3.399-1.952c1.92-0.428,3.002-1.582,2.967-2.142C62.17,127.639,60.802,126.235,58.255,126.842z"/>
		<path fill="#A8B0C2" d="M62.671,134.214c0,0-0.824,2.15-0.8,4.292c0.024,2.142,0.433,4.474,0.407,4.95
			c-0.026,0.476,0,6.068,0,6.068s1.211-7.044,1.211-8.163C63.489,140.243,62.671,134.214,62.671,134.214z"/>
		<path fill="#B9D3E1" d="M65.353,131.078c0,0-2.491-0.103-3.051,2.649c-0.591,2.904-0.439,4.899-0.217,6.536
			c0.222,1.638,0.246,3.735,1.169,3.846c0.923,0.111,2.758,0.195,2.958-1.322c0.199-1.518,0.393-7.856,0.485-9.234
			C66.823,131.665,66.329,131.097,65.353,131.078z"/>
		<path fill="#A8B0C2" d="M55.461,148.667c0,0-1.349-0.977-1.586-1.512c-0.238-0.535-1.023-1.091-1.023-1.091
			s-0.143,0.46-0.428-0.194c0.024,0.727,0.405,1.035,0.571,1.131c0.167,0.095,0.163-0.382,0.617,0.392
			S55.461,148.667,55.461,148.667z"/>
		<path fill="#A8B0C2" d="M57.611,149.97c0,0-2.475-0.398-3.284-0.827c-0.809-0.428-2.174-1.634-2.174-1.634v0.796
			C52.153,148.306,54.803,150.534,57.611,149.97z"/>
		<path fill="#EDEFF3" d="M60.966,143.408c0,0-0.428-1.714-0.928-2.57c-0.5-0.856-2.023-1.643-2.237-3.927
			c0.214,2.213,0.643,3.016,1.5,4.03C60.157,141.957,60.966,143.408,60.966,143.408z"/>
		<path fill="#EDEFF3" d="M62.466,129.708c0,0,0.254,0.365-0.571,1.761c-0.825,1.396-1.301,2.063-1.396,2.745
			c-0.095,0.683-0.095,0.683-0.095,0.683s0.734-1.508,1.184-2.063c0.45-0.555,1.069-0.825,1.497-1.539
			c-0.809,1.38-1.761,2.761-2.046,4.22c-0.286,1.46-0.397,2.697-0.397,2.697s0.016-1.602-0.301-2.3s-0.478-1.46-0.047-2.412
			C61.197,131.5,62.148,131.294,62.466,129.708z"/>
		<path fill="#EDEFF3" d="M65.353,142.408c0,0-0.603-0.301-1.148-0.169c-0.546,0.132-1.066,0.506-1.16,0.566
			c-0.095,0.06-0.63,0.123-0.63,0.123s0.334-0.392,0.612-0.459s0.943-0.551,1.327-0.568
			C64.739,141.885,65.142,142.001,65.353,142.408z"/>
		<g>
			
				<linearGradient id="SVGID_1_" gradientUnits="userSpaceOnUse" x1="-896.0776" y1="439.0234" x2="-899.6718" y2="436.7544" gradientTransform="matrix(0.9937 0.1119 -0.1119 0.9937 1000.5759 -209.2993)">
				<stop  offset="0.1224" style="stop-color:#FEC7C7"/>
				<stop  offset="0.9694" style="stop-color:#FFADB7"/>
			</linearGradient>
			<path fill="url(#SVGID_1_)" d="M56.174,125.372c0,0-0.1,2.843-0.303,3.388s0.601,1.104,1.93,1.064
				c1.329-0.039,2.894-1.183,3.418-1.36s0.518-0.447,0.119-1.012c-0.399-0.565-0.889-1.251-0.596-2.874
				c0.293-1.623,0.851-3.91,0.491-4.361c-0.359-0.45-3.075,0.001-3.716,1.206C56.877,122.628,56.174,125.372,56.174,125.372z"/>
			<path fill="#FEC7C7" d="M60.446,121.61c0,0-1.119,2.872-1.355,3.428c-0.235,0.557-0.878,1.146-1.755,1.506
				c-0.875,0.359-2.275,0.61-2.815,0.36s-0.572-0.379-0.571-0.68c0.001-0.249-0.237-1.001-0.227-2.035
				c0.002-0.202,0.015-0.415,0.04-0.635c0.099-0.875-0.122-2.143-0.032-2.384c0.091-0.241,0.027-2.188,0.686-2.998
				c0.659-0.81,2.612-2.34,4.548-1.886c1.595,0.375,1.567,3.746,1.51,4.922C60.46,121.458,60.446,121.61,60.446,121.61z"/>
			<path fill="#754554" d="M60.712,124.764l0.469-0.578l0.315-0.138l0.552-0.979c0,0,1.137-2.112,1.05-3.304
				s-0.733-2.552-2.126-2.826c-0.978-1.12-2.755-1.304-3.793-1.184c-1.039,0.119-2.336,0.998-2.904,2.117s-0.248,1.13-0.248,1.13
				s0.621,0.458,1.438,0.061c0.818-0.396,1.203-0.731,1.498-0.698c0.296,0.033,0.575,0.774,0.535,1.132
				c-0.041,0.358-0.208,1.286,0.155,1.563c0.363,0.278,1.073,1.114,1.194,1.302c0.121,0.188,0.007,0.916,0.007,0.916l0.456-0.185
				c0,0,0.094-0.924,0.598-1.268c0.505-0.343,0.819,0.086,0.82,0.354c0.001,0.269-0.218,1.096-0.161,1.291
				C60.625,123.665,60.759,124.344,60.712,124.764z"/>
			
				<linearGradient id="SVGID_2_" gradientUnits="userSpaceOnUse" x1="-1280.8652" y1="173.5303" x2="-1279.3828" y2="173.5303" gradientTransform="matrix(1 0.001 -0.001 1 1340.6082 -49.2231)">
				<stop  offset="0.1224" style="stop-color:#FEB9B8"/>
				<stop  offset="1" style="stop-color:#FFDEDE"/>
			</linearGradient>
			<path fill="url(#SVGID_2_)" d="M59.835,122.089c0,0,0.33-0.548,0.972-0.336c0.643,0.212-0.174,1.807-0.221,1.902
				c-0.047,0.096-0.189,0.754-0.713,0.69c-0.525-0.063-0.211-0.799-0.211-0.799S59.953,122.567,59.835,122.089z"/>
			
				<linearGradient id="SVGID_3_" gradientUnits="userSpaceOnUse" x1="-1280.5825" y1="173.251" x2="-1279.5894" y2="173.251" gradientTransform="matrix(1 0.001 -0.001 1 1340.6082 -49.2231)">
				<stop  offset="0.1224" style="stop-color:#FCA4B5"/>
				<stop  offset="0.9896" style="stop-color:#FFADB7"/>
			</linearGradient>
			<path fill="url(#SVGID_3_)" d="M60.047,122.073c0,0,0.374-0.318,0.69-0.096c0.316,0.223-0.121,1.386-0.474,1.616
				c-0.204,0.016-0.411-0.029-0.411-0.029S60.148,122.355,60.047,122.073z"/>
		</g>
		<path fill="#B9D3E1" d="M49.778,137.895c0,0-1.094-0.879-1.87-0.948c-0.529,0.129-5.964,5.438-6.13,5.622
			c-0.166,0.184-0.558,0.503,0.218,1.421c0.775,0.918,1.003,0.783,1.182,0.663c0.179-0.121,0.654-0.394,0.733-0.391
			s1.584-0.828,2.025-1.165c1.403-1.071,1.904-1.555,2.702-1.831c1.058-0.365,1.991-1.397,1.965-1.592
			C50.577,139.48,50.356,138.567,49.778,137.895z"/>
		<g>
			<path fill="#FFCC54" d="M42.99,144.969c-0.096,0.33-0.262,0.276-0.369,0.445c-0.107,0.168-0.064,0.283-0.096,0.383
				c-0.034,0.1-0.29,0.269-0.407,0.349c-0.115,0.077-0.375-0.022-0.375-0.022s-0.281,0.074-0.454,0.067
				c-0.173-0.006-0.256-0.194-0.256-0.194s-0.147-0.041-0.322-0.106c-0.177-0.066-0.283-0.283-0.331-0.273
				c-0.048,0.009-0.431-0.089-0.48-0.186c-0.004-0.008-0.009-0.018-0.015-0.027c-0.044-0.095-0.089-0.215-0.089-0.215
				s-0.104,0.092-0.248,0.117c-0.088,0.014-0.183-0.008-0.248-0.057h-0.001c-0.041-0.03-0.068-0.067-0.078-0.109
				c-0.026-0.115,0.127-0.233,0.222-0.386c0.095-0.151,0.171-0.465,0.214-0.646c0.043-0.184,0.754-0.925,0.913-1.028
				c0.16-0.101,0.528-0.129,0.751-0.165c0.222-0.037,0.405-0.18,0.405-0.18s0.274,0.005,0.472,0.113
				c0.2,0.108,0.354,0.413,0.354,0.413c0.09,0.14,0.169,0.102,0.401,0.592C43.185,144.345,43.084,144.639,42.99,144.969z"/>
			<g>
				<path fill="#E1E3EE" d="M39.983,147.863c-0.009-0.033-0.217-0.811-0.501-2.242c-0.305-1.535,0.781-2.307,1.738-2.989l0.225-0.16
					c0.949-0.687,1.965-0.209,2.367,0.139l-0.423,0.494c-0.032-0.027-0.797-0.657-1.563-0.105l-0.228,0.163
					c-0.913,0.649-1.7,1.209-1.478,2.332c0.279,1.407,0.489,2.191,0.491,2.199L39.983,147.863z"/>
			</g>
			
				<linearGradient id="SVGID_4_" gradientUnits="userSpaceOnUse" x1="136.3916" y1="226.9551" x2="139.1592" y2="226.9551" gradientTransform="matrix(0.9993 0.0369 -0.0369 0.9993 -88.599 -87.1758)">
				<stop  offset="0.1224" style="stop-color:#FCA4B5"/>
				<stop  offset="0.9896" style="stop-color:#FFADB7"/>
			</linearGradient>
			<path fill="url(#SVGID_4_)" d="M42.085,144.812c0,0-0.077-0.197-0.136-0.226c-0.058-0.029-0.193-0.085-0.288-0.089
				c-0.027-0.045-0.132-0.1-0.255-0.107c-0.122-0.008-0.263,0.061-0.263,0.061s-0.072-0.058-0.148-0.103
				c-0.075-0.044-0.285-0.029-0.356,0.004c-0.072,0.034-0.172,0.274-0.258,0.372c-0.087,0.098-0.317,0.327-0.403,0.431
				c-0.087,0.105-0.071,0.117-0.091,0.25c-0.044-0.095-0.089-0.215-0.089-0.215s-0.104,0.092-0.248,0.117
				c-0.088,0.014-0.183-0.008-0.248-0.057c0.352,0.092,0.458-0.03,0.7-0.266c0.241-0.234,0.229-0.414,0.229-0.414l0.425-0.36
				l-0.075-0.241l0.199,0.145l0.207-0.13c0,0,0.053,0.008,0.021,0.043c-0.03,0.035-0.174,0.22-0.174,0.22s0.142,0.017,0.342,0.06
				c0.201,0.042,0.312-0.019,0.312-0.019s0.06-0.034,0.219,0.002c0.159,0.036,0.316,0.012,0.316,0.012l-0.267,0.106
				c0,0,0.228,0.073,0.288,0.139C42.104,144.612,42.085,144.812,42.085,144.812z"/>
			
				<linearGradient id="SVGID_5_" gradientUnits="userSpaceOnUse" x1="137.4844" y1="227.3242" x2="138.2974" y2="227.3242" gradientTransform="matrix(0.9993 0.0369 -0.0369 0.9993 -88.599 -87.1758)">
				<stop  offset="0.1224" style="stop-color:#FCA4B5"/>
				<stop  offset="0.9896" style="stop-color:#FFADB7"/>
			</linearGradient>
			<path fill="url(#SVGID_5_)" d="M41.142,144.45c0,0,0.026,0.342-0.045,0.435c-0.071,0.093-0.547,0.68-0.717,0.732
				c0.065,0.049,0.13,0.122,0.13,0.122s0.004-0.149,0.074-0.198c0.069-0.05,0.594-0.613,0.624-0.656
				c0.03-0.042,0.018-0.467,0.018-0.467L41.142,144.45z"/>
			
				<linearGradient id="SVGID_6_" gradientUnits="userSpaceOnUse" x1="138.084" y1="227.4746" x2="138.8101" y2="227.4746" gradientTransform="matrix(0.9993 0.0369 -0.0369 0.9993 -88.599 -87.1758)">
				<stop  offset="0.1224" style="stop-color:#FCA4B5"/>
				<stop  offset="0.9896" style="stop-color:#FFADB7"/>
			</linearGradient>
			<path fill="url(#SVGID_6_)" d="M41.661,144.497c0,0,0.039,0.692-0.031,0.827s-0.664,0.654-0.664,0.654l0.067,0.02
				c0,0,0.647-0.576,0.668-0.647C41.721,145.279,41.771,144.572,41.661,144.497z"/>
			
				<linearGradient id="SVGID_7_" gradientUnits="userSpaceOnUse" x1="138.8096" y1="227.6299" x2="139.7056" y2="227.6299" gradientTransform="matrix(0.9993 0.0369 -0.0369 0.9993 -88.599 -87.1758)">
				<stop  offset="0.1224" style="stop-color:#FCA4B5"/>
				<stop  offset="0.9896" style="stop-color:#FFADB7"/>
			</linearGradient>
			<path fill="url(#SVGID_7_)" d="M42.595,145.459c0,0,0.005-0.271-0.082-0.32s-0.263-0.139-0.313-0.081
				c-0.049,0.058-0.067,0.379-0.089,0.491s-0.367,0.575-0.367,0.575l-0.056,0.014c0,0,0.37-0.501,0.373-0.615
				c0.002-0.112,0.078-0.557,0.08-0.592c0.001-0.036-0.054-0.12-0.054-0.12l0.002-0.105c0,0,0.032,0.129,0.148,0.199
				C42.352,144.975,42.701,144.969,42.595,145.459z"/>
		</g>
		<g>
			<g>
				<g>
					<linearGradient id="SVGID_8_" gradientUnits="userSpaceOnUse" x1="40.6499" y1="161.7637" x2="57.4268" y2="161.7637">
						<stop  offset="0" style="stop-color:#C4C8D8"/>
						<stop  offset="0.0704" style="stop-color:#B1B6CC"/>
						<stop  offset="0.1511" style="stop-color:#A0A6C0"/>
						<stop  offset="0.3773" style="stop-color:#A0A6C0"/>
						<stop  offset="0.4933" style="stop-color:#ACB1C8"/>
						<stop  offset="0.7749" style="stop-color:#C4C8D8"/>
						<stop  offset="0.9821" style="stop-color:#C4C8D8"/>
						<stop  offset="1" style="stop-color:#C4C8D8"/>
					</linearGradient>
					<path fill="url(#SVGID_8_)" d="M57.427,148.162H40.65l1.035,22.958h0c0.012,1.082,0.734,2.165,2.169,2.993
						c2.881,1.663,7.537,1.672,10.399,0.019c1.438-0.83,2.148-1.921,2.137-3.012h0.001L57.427,148.162z"/>
					<path fill="#9198B5" d="M42.672,171.705l-0.197-0.158c-0.131-0.105-0.209-0.262-0.214-0.43l-0.516-17.638
						c-0.014-0.486,0.547-0.766,0.927-0.463l0.197,0.158c0.131,0.104,0.209,0.262,0.215,0.43l0.516,17.639
						C43.614,171.728,43.053,172.008,42.672,171.705z"/>
					<path fill="#9198B5" d="M45.256,173.538L45.256,173.538c-0.344-0.096-0.586-0.404-0.595-0.762l-0.458-17.438
						c-0.015-0.546,0.502-0.95,1.028-0.805l0,0c0.344,0.096,0.586,0.405,0.595,0.762l0.458,17.438
						C46.299,173.279,45.782,173.684,45.256,173.538z"/>
					<path fill="#9198B5" d="M53.559,173.43L53.559,173.43c-0.386,0.187-0.832-0.102-0.82-0.53l0.522-18.021
						c0.006-0.213,0.13-0.404,0.321-0.497l0,0c0.386-0.188,0.833,0.102,0.82,0.53l-0.522,18.021
						C53.875,173.145,53.751,173.336,53.559,173.43z"/>
					<path fill="#9198B5" d="M55.512,172.254L55.512,172.254c-0.325,0.186-0.696-0.106-0.682-0.535l0.618-18.017
						c0.007-0.213,0.113-0.403,0.274-0.496l0,0c0.325-0.185,0.696,0.106,0.681,0.535l-0.618,18.018
						C55.779,171.972,55.673,172.162,55.512,172.254z"/>
					<path fill="#9198B5" d="M51.45,173.987L51.45,173.987c-0.518,0.279-1.022-0.005-1.018-0.573l0.134-17.823
						c0.002-0.26,0.168-0.529,0.405-0.657l0,0c0.518-0.279,1.023,0.005,1.018,0.573l-0.134,17.824
						C51.853,173.59,51.687,173.86,51.45,173.987z"/>
					<path fill="#9198B5" d="M48.455,174.112L48.455,174.112c-0.408,0.003-0.742-0.325-0.746-0.732l-0.153-17.665
						c-0.003-0.408,0.324-0.742,0.732-0.746l0,0c0.408-0.003,0.742,0.325,0.746,0.733l0.153,17.664
						C49.191,173.774,48.863,174.108,48.455,174.112z"/>
					<path fill="#948F96" d="M54.988,149.146c-3.266,1.886-8.577,1.876-11.863-0.021c-3.287-1.897-3.303-4.963-0.037-6.849
						c3.266-1.885,8.577-1.875,11.863,0.022C58.237,144.194,58.254,147.26,54.988,149.146z"/>
					<linearGradient id="SVGID_9_" gradientUnits="userSpaceOnUse" x1="39.8013" y1="147.7783" x2="58.2744" y2="147.7783">
						<stop  offset="0" style="stop-color:#CFD3E4"/>
						<stop  offset="0.0722" style="stop-color:#BBC0D7"/>
						<stop  offset="0.1511" style="stop-color:#AAB0CC"/>
						<stop  offset="0.3773" style="stop-color:#AAB0CC"/>
						<stop  offset="0.5001" style="stop-color:#B7BCD4"/>
						<stop  offset="0.7749" style="stop-color:#CFD3E4"/>
						<stop  offset="0.9821" style="stop-color:#CFD3E4"/>
						<stop  offset="1" style="stop-color:#CFD3E4"/>
					</linearGradient>
					<path fill="url(#SVGID_9_)" d="M58.274,145.71h-0.749c-0.454-0.613-1.108-1.189-1.977-1.69
						c-3.619-2.089-9.467-2.1-13.063-0.024c-0.877,0.506-1.536,1.091-1.983,1.714h-0.702v2.068h0.002
						c0.015,1.359,0.922,2.719,2.724,3.759c3.618,2.089,9.467,2.1,13.063,0.024c1.805-1.042,2.698-2.413,2.683-3.783h0.001V145.71z"
						/>
					<path fill="#C9CDE0" d="M55.59,149.493c-3.596,2.076-9.444,2.065-13.063-0.024c-3.619-2.089-3.637-5.465-0.041-7.542
						s9.444-2.065,13.063,0.023C59.167,144.041,59.186,147.417,55.59,149.493z"/>
					<path fill="#EFF0F5" d="M55.26,141.906c-3.515-2.029-9.196-2.04-12.689-0.022c-3.493,2.017-3.476,5.297,0.04,7.326
						s9.197,2.04,12.689,0.023C58.793,147.216,58.775,143.936,55.26,141.906z"/>
					<path fill="#CFD3E4" d="M54.339,142.298c-2.946-1.701-7.708-1.709-10.636-0.019c-2.928,1.69-2.913,4.439,0.033,6.14
						c2.946,1.701,7.708,1.709,10.636,0.019S57.286,143.999,54.339,142.298z"/>
					<path fill="#E1E3EE" d="M53.942,142.853c-2.726-1.574-7.13-1.582-9.838-0.018s-2.695,4.107,0.031,5.681
						c2.725,1.573,7.13,1.581,9.838,0.018S56.667,144.426,53.942,142.853z"/>
				</g>
			</g>
			<g>
				<path fill="#CFCECE" d="M49.063,147.676c-0.998,0-1.93-0.221-2.63-0.627c-0.656-0.379-1.015-0.863-1.015-1.367
					c0-0.499,0.353-0.977,0.998-1.35c0.527-0.304,1.192-0.505,1.918-0.578c0.111-0.012,0.222-0.023,0.338-0.029
					c0.114-0.006,0.228-0.009,0.344-0.009c0.123,0,0.248,0.002,0.368,0.011c0.107,0.006,0.216,0.014,0.32,0.026
					c0.732,0.076,1.405,0.28,1.942,0.589c0.653,0.376,1.015,0.863,1.015,1.368c0,0.498-0.353,0.977-0.998,1.347
					C50.975,147.457,50.051,147.676,49.063,147.676z"/>
				<path fill="#CFD3E4" d="M53.59,143.084c-0.811-0.47-1.778-0.787-2.808-0.957c-0.289-0.05-0.583-0.084-0.884-0.111
					c-0.501-0.041-1.012-0.047-1.519-0.018c-0.286,0.015-0.574,0.044-0.857,0.082c-1.125,0.152-2.19,0.481-3.067,0.986
					c-2.514,1.452-2.502,3.813,0.029,5.274c2.531,1.461,6.622,1.47,9.135,0.018C56.136,146.906,56.122,144.544,53.59,143.084z
					 M47.001,148.635c-0.791-0.169-1.513-0.434-2.123-0.787c-1.064-0.615-1.65-1.409-1.65-2.239c0-0.822,0.577-1.607,1.621-2.21
					c1.102-0.636,2.575-0.985,4.152-0.985c1.589,0,3.079,0.356,4.199,1c1.064,0.615,1.647,1.411,1.647,2.239
					c0,0.822-0.574,1.606-1.621,2.21c-0.688,0.397-1.522,0.683-2.435,0.843c-0.091,0.015-0.184,0.029-0.277,0.044
					c-0.146,0.021-0.294,0.038-0.446,0.053c-0.032,0.003-0.067,0.006-0.102,0.009c-0.076,0.008-0.152,0.012-0.228,0.015
					c-0.219,0.018-0.44,0.023-0.662,0.023c-0.595,0-1.178-0.049-1.731-0.146C47.228,148.682,47.115,148.662,47.001,148.635z
					 M53.229,144.186c-0.009-0.005-0.018-0.014-0.023-0.02c-0.204-0.201-0.455-0.388-0.752-0.56
					c-1.898-1.096-4.966-1.102-6.853-0.011c-0.283,0.163-0.521,0.341-0.717,0.53c-1.307,1.12-1.094,2.657,0.633,3.651
					c1.956,1.131,5.12,1.137,7.064,0.014C54.276,146.813,54.489,145.306,53.229,144.186z M48.223,148.002
					c-0.026,0-0.049-0.003-0.07-0.006c-0.108-0.011-0.213-0.026-0.321-0.043c-0.741-0.12-1.417-0.347-1.971-0.668
					c-0.799-0.461-1.239-1.053-1.239-1.668c0-0.609,0.432-1.192,1.219-1.645c0.84-0.486,1.965-0.752,3.169-0.752
					c1.213,0,2.353,0.271,3.208,0.764c0.796,0.461,1.236,1.053,1.236,1.668c0,0.606-0.432,1.192-1.216,1.645
					c-0.572,0.33-1.274,0.557-2.044,0.674c-0.094,0.012-0.19,0.023-0.286,0.032c-0.058,0.009-0.113,0.015-0.172,0.018
					c-0.219,0.02-0.443,0.029-0.668,0.029c-0.227,0-0.452-0.009-0.673-0.029C48.336,148.018,48.278,148.011,48.223,148.002z"/>
				<path fill="#D7D6D6" d="M49.063,147.676c-0.998,0-1.93-0.221-2.63-0.627c-0.656-0.379-1.015-0.863-1.015-1.367
					c0-0.499,0.353-0.977,0.998-1.35c0.527-0.304,1.192-0.505,1.918-0.578c0.111-0.012,0.222-0.023,0.338-0.029
					c0.114-0.006,0.228-0.009,0.344-0.009c0.123,0,0.248,0.002,0.368,0.011c0.107,0.006,0.216,0.014,0.32,0.026
					c0.732,0.076,1.405,0.28,1.942,0.589c0.653,0.376,1.015,0.863,1.015,1.368c0,0.498-0.353,0.977-0.998,1.347
					C50.975,147.457,50.051,147.676,49.063,147.676z"/>
				<path fill="#EFF0F5" d="M53.433,143.04c-0.767-0.44-1.683-0.746-2.65-0.913c-0.289-0.05-0.583-0.084-0.884-0.111
					c-0.501-0.041-1.012-0.047-1.519-0.018c-0.286,0.015-0.574,0.044-0.857,0.082c-1.064,0.152-2.073,0.467-2.904,0.945
					c-2.429,1.399-2.414,3.68,0.026,5.088c2.44,1.411,6.388,1.417,8.814,0.018C55.885,146.729,55.874,144.451,53.433,143.04z
					 M50.514,148.749c-0.146,0.021-0.294,0.038-0.446,0.053c-0.032,0.003-0.067,0.006-0.102,0.009
					c-0.076,0.008-0.152,0.012-0.228,0.015c-0.219,0.018-0.44,0.023-0.662,0.023c-0.595,0-1.178-0.049-1.731-0.146
					c-0.117-0.021-0.23-0.041-0.344-0.067c-0.791-0.169-1.513-0.434-2.123-0.787c-1.064-0.615-1.65-1.409-1.65-2.239
					c0-0.822,0.577-1.607,1.621-2.21c1.102-0.636,2.575-0.985,4.152-0.985c1.589,0,3.079,0.356,4.199,1
					c1.064,0.615,1.647,1.411,1.647,2.239c0,0.822-0.574,1.606-1.621,2.21c-0.688,0.397-1.522,0.683-2.435,0.843
					C50.701,148.72,50.608,148.734,50.514,148.749z M53.229,144.186c-0.009-0.005-0.018-0.014-0.023-0.02
					c-0.204-0.201-0.455-0.388-0.752-0.56c-1.898-1.096-4.966-1.102-6.853-0.011c-0.283,0.163-0.521,0.341-0.717,0.53
					c-1.307,1.12-1.094,2.657,0.633,3.651c1.956,1.131,5.12,1.137,7.064,0.014C54.276,146.813,54.489,145.306,53.229,144.186z
					 M48.223,148.002c-0.026,0-0.049-0.003-0.07-0.006c-0.108-0.011-0.213-0.026-0.321-0.043c-0.741-0.12-1.417-0.347-1.971-0.668
					c-0.799-0.461-1.239-1.053-1.239-1.668c0-0.609,0.432-1.192,1.219-1.645c0.84-0.486,1.965-0.752,3.169-0.752
					c1.213,0,2.353,0.271,3.208,0.764c0.796,0.461,1.236,1.053,1.236,1.668c0,0.606-0.432,1.192-1.216,1.645
					c-0.572,0.33-1.274,0.557-2.044,0.674c-0.094,0.012-0.19,0.023-0.286,0.032c-0.058,0.009-0.113,0.015-0.172,0.018
					c-0.219,0.02-0.443,0.029-0.668,0.029c-0.227,0-0.452-0.009-0.673-0.029C48.336,148.018,48.278,148.011,48.223,148.002z"/>
				<path fill="#CFCECE" d="M49.063,147.676c-0.998,0-1.93-0.221-2.63-0.627c-0.656-0.379-1.015-0.863-1.015-1.367
					c0-0.499,0.353-0.977,0.998-1.35c0.527-0.304,1.192-0.505,1.918-0.578c0.111-0.012,0.222-0.023,0.338-0.029
					c0.114-0.006,0.228-0.009,0.344-0.009c0.123,0,0.248,0.002,0.368,0.011c0.107,0.006,0.216,0.014,0.32,0.026
					c0.732,0.076,1.405,0.28,1.942,0.589c0.653,0.376,1.015,0.863,1.015,1.368c0,0.498-0.353,0.977-0.998,1.347
					C50.975,147.457,50.051,147.676,49.063,147.676z"/>
				<path fill="#CFD3E4" d="M53.27,143.325c-1.141-0.659-2.656-1.02-4.272-1.02c-1.601,0-3.096,0.358-4.216,1.003
					c-1.064,0.615-1.65,1.411-1.65,2.248c0,0.842,0.598,1.65,1.676,2.274c0.63,0.365,1.376,0.639,2.193,0.805
					c-0.791-0.169-1.513-0.434-2.123-0.787c-1.064-0.615-1.65-1.409-1.65-2.239c0-0.822,0.577-1.607,1.621-2.21
					c1.102-0.636,2.575-0.985,4.152-0.985c1.589,0,3.079,0.356,4.199,1c1.064,0.615,1.647,1.411,1.647,2.239
					c0,0.822-0.574,1.606-1.621,2.21c-0.688,0.397-1.522,0.683-2.435,0.843c0.938-0.157,1.799-0.449,2.504-0.857
					c1.062-0.615,1.647-1.411,1.647-2.248C54.943,144.757,54.349,143.949,53.27,143.325z M53.229,144.186
					c-0.009-0.005-0.018-0.014-0.023-0.02c-0.204-0.201-0.455-0.388-0.752-0.56c-1.898-1.096-4.966-1.102-6.853-0.011
					c-0.283,0.163-0.521,0.341-0.717,0.53c-1.307,1.12-1.094,2.657,0.633,3.651c1.956,1.131,5.12,1.137,7.064,0.014
					C54.276,146.813,54.489,145.306,53.229,144.186z M48.223,148.002c-0.026,0-0.049-0.003-0.07-0.006
					c-0.108-0.011-0.213-0.026-0.321-0.043c-0.741-0.12-1.417-0.347-1.971-0.668c-0.799-0.461-1.239-1.053-1.239-1.668
					c0-0.609,0.432-1.192,1.219-1.645c0.84-0.486,1.965-0.752,3.169-0.752c1.213,0,2.353,0.271,3.208,0.764
					c0.796,0.461,1.236,1.053,1.236,1.668c0,0.606-0.432,1.192-1.216,1.645c-0.572,0.33-1.274,0.557-2.044,0.674
					c-0.094,0.012-0.19,0.023-0.286,0.032c-0.058,0.009-0.113,0.015-0.172,0.018c-0.219,0.02-0.443,0.029-0.668,0.029
					c-0.227,0-0.452-0.009-0.673-0.029C48.336,148.018,48.278,148.011,48.223,148.002z"/>
				<path fill="#C9C8C8" d="M49.063,147.676c-0.998,0-1.93-0.221-2.63-0.627c-0.656-0.379-1.015-0.863-1.015-1.367
					c0-0.499,0.353-0.977,0.998-1.35c0.527-0.304,1.192-0.505,1.918-0.578c0.111-0.012,0.222-0.023,0.338-0.029
					c0.114-0.006,0.228-0.009,0.344-0.009c0.123,0,0.248,0.002,0.368,0.011c0.107,0.006,0.216,0.014,0.32,0.026
					c0.732,0.076,1.405,0.28,1.942,0.589c0.653,0.376,1.015,0.863,1.015,1.368c0,0.498-0.353,0.977-0.998,1.347
					C50.975,147.457,50.051,147.676,49.063,147.676z"/>
				<path fill="#C9C8C8" d="M53.229,144.186c-0.009-0.005-0.018-0.014-0.023-0.02c-0.204-0.201-0.455-0.388-0.752-0.56
					c-1.898-1.096-4.966-1.102-6.853-0.011c-0.283,0.163-0.521,0.341-0.717,0.53c-1.307,1.12-1.094,2.657,0.633,3.651
					c1.956,1.131,5.12,1.137,7.064,0.014C54.276,146.813,54.489,145.306,53.229,144.186z M48.223,148.002
					c-0.026,0-0.049-0.003-0.07-0.006c-0.108-0.011-0.213-0.026-0.321-0.043c-0.741-0.12-1.417-0.347-1.971-0.668
					c-0.799-0.461-1.239-1.053-1.239-1.668c0-0.609,0.432-1.192,1.219-1.645c0.84-0.486,1.965-0.752,3.169-0.752
					c1.213,0,2.353,0.271,3.208,0.764c0.796,0.461,1.236,1.053,1.236,1.668c0,0.606-0.432,1.192-1.216,1.645
					c-0.572,0.33-1.274,0.557-2.044,0.674c-0.094,0.012-0.19,0.023-0.286,0.032c-0.058,0.009-0.113,0.015-0.172,0.018
					c-0.219,0.02-0.443,0.029-0.668,0.029c-0.227,0-0.452-0.009-0.673-0.029C48.336,148.018,48.278,148.011,48.223,148.002z"/>
				<path fill="#CFCECE" d="M51.663,147.058c-0.688,0.399-1.612,0.618-2.601,0.618c-0.998,0-1.93-0.221-2.63-0.627
					c-0.656-0.379-1.015-0.863-1.015-1.367c0-0.499,0.353-0.977,0.998-1.35c0.527-0.304,1.192-0.505,1.918-0.578
					c0.111-0.012,0.222-0.023,0.338-0.029c0.114-0.006,0.228-0.009,0.344-0.009c0.123,0,0.248,0.002,0.368,0.011
					c0.107,0.006,0.216,0.014,0.32,0.026c0.732,0.076,1.405,0.28,1.942,0.589c0.653,0.376,1.015,0.863,1.015,1.368
					C52.661,146.209,52.308,146.688,51.663,147.058z"/>
				<path fill="#CFD3E4" d="M53.229,144.186c-0.009-0.005-0.018-0.014-0.023-0.02c-0.184-0.164-0.399-0.315-0.645-0.458
					c-1.959-1.128-5.123-1.134-7.067-0.011c-0.23,0.134-0.435,0.276-0.609,0.428c-1.307,1.12-1.094,2.657,0.633,3.651
					c1.956,1.131,5.12,1.137,7.064,0.014C54.276,146.813,54.489,145.306,53.229,144.186z M48.223,148.002
					c-0.026,0-0.049-0.003-0.07-0.006c-0.108-0.011-0.213-0.026-0.321-0.043c-0.741-0.12-1.417-0.347-1.971-0.668
					c-0.799-0.461-1.239-1.053-1.239-1.668c0-0.609,0.432-1.192,1.219-1.645c0.84-0.486,1.965-0.752,3.169-0.752
					c1.213,0,2.353,0.271,3.208,0.764c0.796,0.461,1.236,1.053,1.236,1.668c0,0.606-0.432,1.192-1.216,1.645
					c-0.572,0.33-1.274,0.557-2.044,0.674c-0.094,0.012-0.19,0.023-0.286,0.032c-0.058,0.009-0.113,0.015-0.172,0.018
					c-0.219,0.02-0.443,0.029-0.668,0.029c-0.227,0-0.452-0.009-0.673-0.029C48.336,148.018,48.278,148.011,48.223,148.002z"/>
				<path fill="#D7D6D6" d="M51.663,147.058c-0.688,0.399-1.612,0.618-2.601,0.618c-0.998,0-1.93-0.221-2.63-0.627
					c-0.656-0.379-1.015-0.863-1.015-1.367c0-0.499,0.353-0.977,0.998-1.35c0.527-0.304,1.192-0.505,1.918-0.578
					c0.111-0.012,0.222-0.023,0.338-0.029c0.114-0.006,0.228-0.009,0.344-0.009c0.123,0,0.248,0.002,0.368,0.011
					c0.107,0.006,0.216,0.014,0.32,0.026c0.732,0.076,1.405,0.28,1.942,0.589c0.653,0.376,1.015,0.863,1.015,1.368
					C52.661,146.209,52.308,146.688,51.663,147.058z"/>
				<path fill="#EFF0F5" d="M53.229,144.186c-0.009-0.005-0.018-0.014-0.023-0.02c-0.204-0.201-0.455-0.388-0.752-0.56
					c-1.898-1.096-4.966-1.102-6.853-0.011c-0.283,0.163-0.521,0.341-0.717,0.53c-1.126,1.07-0.878,2.493,0.737,3.426
					c1.898,1.096,4.969,1.102,6.855,0.012C54.057,146.649,54.305,145.259,53.229,144.186z M49.908,148.002
					c-0.058,0.009-0.113,0.015-0.172,0.018c-0.219,0.02-0.443,0.029-0.668,0.029c-0.227,0-0.452-0.009-0.673-0.029
					c-0.058-0.003-0.117-0.009-0.172-0.018c-0.026,0-0.049-0.003-0.07-0.006c-0.108-0.011-0.213-0.026-0.321-0.043
					c-0.741-0.12-1.417-0.347-1.971-0.668c-0.799-0.461-1.239-1.053-1.239-1.668c0-0.609,0.432-1.192,1.219-1.645
					c0.84-0.486,1.965-0.752,3.169-0.752c1.213,0,2.353,0.271,3.208,0.764c0.796,0.461,1.236,1.053,1.236,1.668
					c0,0.606-0.432,1.192-1.216,1.645c-0.572,0.33-1.274,0.557-2.044,0.674C50.1,147.982,50.004,147.994,49.908,148.002z"/>
				<path fill="#CFCECE" d="M51.663,147.058c-0.688,0.399-1.612,0.618-2.601,0.618c-0.998,0-1.93-0.221-2.63-0.627
					c-0.656-0.379-1.015-0.863-1.015-1.367c0-0.499,0.353-0.977,0.998-1.35c0.527-0.304,1.192-0.505,1.918-0.578
					c0.111-0.012,0.222-0.023,0.338-0.029c0.114-0.006,0.228-0.009,0.344-0.009c0.123,0,0.248,0.002,0.368,0.011
					c0.107,0.006,0.216,0.014,0.32,0.026c0.732,0.076,1.405,0.28,1.942,0.589c0.653,0.376,1.015,0.863,1.015,1.368
					C52.661,146.209,52.308,146.688,51.663,147.058z"/>
				<path fill="#CFD3E4" d="M53.555,145.594c0,0.624-0.44,1.222-1.242,1.685c-0.592,0.341-1.321,0.578-2.12,0.691
					c0.77-0.117,1.472-0.344,2.044-0.674c0.784-0.452,1.216-1.038,1.216-1.645c0-0.615-0.44-1.207-1.236-1.668
					c-0.854-0.492-1.995-0.764-3.208-0.764c-1.204,0-2.33,0.266-3.169,0.752c-0.787,0.452-1.219,1.035-1.219,1.645
					c0,0.615,0.44,1.207,1.239,1.668c0.633,0.367,1.426,0.609,2.292,0.711c-0.893-0.099-1.712-0.35-2.368-0.729
					c-0.817-0.472-1.266-1.079-1.266-1.708c0-0.621,0.443-1.218,1.245-1.682c0.86-0.496,2.012-0.77,3.242-0.77
					c1.245,0,2.412,0.277,3.283,0.782C53.106,144.361,53.555,144.967,53.555,145.594z"/>
				<path fill="#C9C8C8" d="M52.661,145.711c0,0.498-0.353,0.977-0.998,1.347c-0.688,0.399-1.612,0.618-2.601,0.618
					c-0.998,0-1.93-0.221-2.63-0.627c-0.656-0.379-1.015-0.863-1.015-1.367c0-0.499,0.353-0.977,0.998-1.35
					c0.527-0.304,1.192-0.505,1.918-0.578c0.111-0.012,0.222-0.023,0.338-0.029c0.114-0.006,0.228-0.009,0.344-0.009
					c0.123,0,0.248,0.002,0.368,0.011c0.107,0.006,0.216,0.014,0.32,0.026c0.732,0.076,1.405,0.28,1.942,0.589
					C52.299,144.719,52.661,145.207,52.661,145.711z"/>
				<path fill="#CFD3E4" d="M52.661,145.711c0,0.498-0.353,0.977-0.998,1.347c-0.688,0.399-1.612,0.618-2.601,0.618
					c-0.998,0-1.93-0.221-2.63-0.627c-0.656-0.379-1.015-0.863-1.015-1.367c0-0.499,0.353-0.977,0.998-1.35
					c0.527-0.304,1.192-0.505,1.918-0.578c0.111-0.012,0.222-0.023,0.338-0.029c0.114-0.006,0.228-0.009,0.344-0.009
					c0.123,0,0.248,0.002,0.368,0.011c0.107,0.006,0.216,0.014,0.32,0.026c0.732,0.076,1.405,0.28,1.942,0.589
					C52.299,144.719,52.661,145.207,52.661,145.711z"/>
				<path fill="#EFF0F5" d="M52.445,145.591c0,0.469-0.333,0.918-0.939,1.269c-0.647,0.375-1.516,0.58-2.443,0.58
					c-0.939,0-1.817-0.21-2.476-0.589c-0.615-0.355-0.957-0.813-0.957-1.286c0-0.469,0.335-0.921,0.939-1.268
					c0.487-0.283,1.096-0.467,1.764-0.542c0.111-0.012,0.222-0.023,0.338-0.029c0.114-0.006,0.228-0.009,0.344-0.009
					c0.123,0,0.248,0.002,0.368,0.011c0.107,0.006,0.216,0.014,0.32,0.026c0.674,0.076,1.295,0.265,1.788,0.551
					C52.106,144.661,52.445,145.116,52.445,145.591z"/>
			</g>
			<g>
				<path fill="#CCC9CD" d="M50.418,146.415c0,0,0.17-0.055,0.018-0.341c-0.109-0.206-0.292-0.172-0.292-0.172l-0.392,0.047
					c-0.527,0.05-0.927,0.09-1.453-0.237l-1.065-0.664c-0.18-0.112,0.564-0.123,0.564-0.123c0.086,0,0.184-0.024,0.013-0.344
					c-0.119-0.224-0.203-0.169-0.287-0.169c-0.253,0-1.837,0.268-1.396,0.543l1.264,0.787c0.578,0.36,1.322,0.784,2.065,0.788
					C49.727,146.532,50.418,146.415,50.418,146.415z"/>
			</g>
			<g>
				<path fill="#C4C8D8" d="M50.615,146.238c0,0,0.032,0.176-0.292,0.176c-0.233,0-0.29-0.176-0.29-0.176v-0.468
					c0-0.413-0.293-0.918-0.653-1.126l-0.833-0.481c-0.36-0.208-0.506-0.186-0.506,0.227v0.362c0,0,0.065,0.173-0.297,0.173
					c-0.254,0-0.284-0.173-0.284-0.173v-0.343c0-0.862,0.635-1.091,1.234-0.745l0.833,0.481c0.6,0.346,1.088,0.794,1.088,1.876
					V146.238z"/>
			</g>
		</g>
		<g>
			<path fill="#B9D3E1" d="M63.569,143.101c0,0-0.471-0.477-0.889-0.099s-1.586,2.875-1.903,3.288
				c-0.317,0.413-1.762,1.698-2.071,2.173c-0.31,0.477-0.293,0.794-0.293,0.794s-1.793,0.92-1.92,1.063s-0.206,0.476,0.476,1.618
				c0.682,1.143,1.095,1.159,1.365,0.984c0.27-0.175,1.158-1.032,1.476-1.096c0.317-0.063,0.936,0.159,1.316-0.079
				c0.381-0.238,0.873-0.838,1.444-1.188c0.571-0.35,2.333-2.873,2.65-3.587s0.848-2.792,0.955-3.475
				C66.282,142.815,66.33,141.577,63.569,143.101z"/>
			<g>
				<path fill="#E1E3EE" d="M57.012,154.59h-0.65c0-0.649,0.212-1.214,0.398-1.713c0.115-0.307,0.225-0.597,0.278-0.881
					c-0.032,0.019-0.063,0.039-0.088,0.057l-0.391-0.521c0.162-0.123,0.577-0.387,0.903-0.184c0.211,0.13,0.284,0.38,0.219,0.744
					c-0.063,0.348-0.189,0.687-0.313,1.013C57.194,153.574,57.012,154.06,57.012,154.59z"/>
			</g>
			<path fill="#FFCC54" d="M58.286,152.834c-0.009,0.167-0.413,0.92-0.5,1.079c-0.088,0.158-0.293,0.587-0.794,0.517
				c-0.431-0.063-0.501-0.166-0.625-0.202c-0.019-0.008-0.04-0.012-0.065-0.014c-0.036-0.003-0.106-0.013-0.194-0.026h-0.001
				c-0.332-0.053-0.925-0.171-1.049-0.259c-0.068-0.048-0.108-0.096-0.129-0.131c0,0,0,0-0.002-0.002
				c-0.029-0.047-0.029-0.08-0.029-0.08s-0.043-0.009-0.106-0.03c-0.125-0.04-0.329-0.118-0.407-0.225
				c-0.008-0.01-0.016-0.021-0.023-0.033v-0.002c-0.089-0.15-0.034-0.329-0.034-0.329s-0.181,0.103-0.411,0.11
				c-0.183,0.006-0.295-0.013-0.368-0.11c-0.019-0.024-0.034-0.057-0.047-0.093c-0.065-0.181,0.304-0.47,0.304-0.47
				s0.118-0.253,0.213-0.389c0.095-0.135,0.785-0.904,0.967-1.072c0.183-0.165,1.508-0.753,1.713-0.696
				c0.208,0.055,0.476,0.301,0.476,0.301C58.222,151.549,58.294,152.668,58.286,152.834z"/>
			<path fill="#DEA954" d="M55.72,152.089c-0.061,0.196,0.071,0.339-0.072,0.362c-0.143,0.024-0.339,0.03-0.535,0.064
				c-0.196,0.037-0.369,0.216-0.56,0.423c-0.19,0.21-0.213,0.251-0.192,0.487c-0.089-0.15-0.034-0.329-0.034-0.329
				s-0.181,0.103-0.411,0.11c-0.183,0.006-0.295-0.013-0.368-0.11c0.16,0.089,0.4,0.064,0.588-0.032
				c0.209-0.106,0.263-0.297,0.436-0.435c0.171-0.137,0.529-0.405,0.672-0.571c0.143-0.167,0.177-0.219,0.267-0.327
				c0.09-0.108,0.379-0.221,0.379-0.221C55.916,151.605,55.779,151.892,55.72,152.089z"/>
			<path fill="#DEA954" d="M54.928,153.797c0,0,0,0-0.002-0.002c-0.029-0.047-0.029-0.08-0.029-0.08s-0.043-0.009-0.106-0.03
				c0,0,0.002,0,0.004,0c0.122,0.007,1.095-0.229,1.095-0.229C55.969,153.647,54.928,153.797,54.928,153.797z"/>
			<path fill="#DEA954" d="M56.558,154.147l-0.19,0.08c-0.019-0.008-0.04-0.012-0.065-0.014c-0.036-0.003-0.106-0.013-0.194-0.026
				L56.558,154.147z"/>
		</g>
	</g>
	<g>
		<path fill="#E1E3EE" d="M52.379,155.533c-0.148-0.167-0.076-0.615-0.066-0.808c0.013-0.265,0.046-0.53,0.107-0.788
			c0.078-0.324,0.201-0.7,0.459-0.928c0.382-0.336,0.83-0.592,1.297-0.791c0.272-0.116,0.553-0.212,0.838-0.293
			c0.151-0.043,0.304-0.082,0.458-0.116c0.04-0.009,0.141-0.061,0.176-0.025c0.031,0.031-0.021,0.211-0.027,0.252
			c-0.04,0.281-0.279,0.471-0.542,0.548c-0.233,0.069-0.464,0.153-0.688,0.25c-0.389,0.168-0.763,0.383-1.083,0.664
			c-0.205,0.181-0.264,0.57-0.304,0.82c-0.044,0.275-0.055,0.554-0.046,0.831c0.005,0.154,0.022,0.25-0.106,0.358
			c-0.086,0.073-0.201,0.113-0.314,0.1c-0.049-0.005-0.099-0.021-0.138-0.053C52.393,155.548,52.386,155.541,52.379,155.533z"/>
	</g>
</g>
</svg>
