<?xml version="1.0" encoding="utf-8"?>
<!-- Generator: Adobe Illustrator 16.0.0, SVG Export Plug-In . SVG Version: 6.00 Build 0)  -->
<!DOCTYPE svg PUBLIC "-//W3C//DTD SVG 1.1//EN" "http://www.w3.org/Graphics/SVG/1.1/DTD/svg11.dtd">
<svg version="1.1" id="Layer_1" xmlns="http://www.w3.org/2000/svg" xmlns:xlink="http://www.w3.org/1999/xlink" x="0px" y="0px"
	 width="463.683px" height="425.749px" viewBox="0 0 463.683 425.749" enable-background="new 0 0 463.683 425.749"
	 xml:space="preserve">
<g>
	<path fill="#D7E4F2" d="M431.832,238.832c4.488-2.856,11.977-3.166,16.725-0.691s4.958,6.797,0.469,9.652
		c-4.488,2.857-11.977,3.166-16.725,0.691S427.343,241.688,431.832,238.832z"/>
	<g>
		<path fill="#FEBFBF" d="M442.819,198.514c0.353,1.988,3.67,11.486,4.074,12.779c0.026,0.083,0.04,0.127,0.04,0.127
			s0.314,0.082,0.477-0.034c0.16-0.115,0.32-1.212,0.32-1.212l0.015,0.509c0,0.003,0,0.003,0,0.005l0.004,0.14
			c0,0.009,0.001,0.019,0.004,0.026c0,0.007,0.003,0.013,0.003,0.02c0.021,0.084,0.093,0.248,0.326,0.231
			c0.039-0.003,0.078-0.022,0.113-0.056c0.006-0.005,0.012-0.012,0.018-0.019c0.249-0.258,0.436-1.113,0.482-1.25
			c0.054-0.161,0.046-1.192,0.046-1.192l0.019,0.018c0.047,0.049,0.178,0.18,0.31,0.277v0.002c0.11,0.082,0.224,0.143,0.29,0.117
			c0.165-0.063-0.046-0.663-0.046-0.663s-0.319-1.011-0.407-1.33c-0.089-0.319-0.562-1.488-0.951-2.192
			c-0.227-1.029-1.523-10.057-1.523-10.057s0.209-9.656-0.957-11.77c-1.167-2.112-3.322-1.175-3.322-1.175
			S442.443,196.398,442.819,198.514z"/>
		<path fill="#E6F1FF" d="M441.748,180.684c0,0,2.478-0.372,3.566,0.833c1.088,1.205,1.261,2.999,1.228,5.131
			s0.123,7.037,0.187,8.042c0.063,1.004,1.253,8.969,1.253,8.969s-1.186,0.994-2.435,0.526S441.748,180.684,441.748,180.684z"/>
		<path fill="#FEBFBF" d="M449.069,208.883l-0.31-0.277C448.806,208.654,448.937,208.785,449.069,208.883z"/>
		<path fill="#FEBFBF" d="M448.588,209.875c0.033,0.17-0.284,1.032-0.376,1.155c0.249-0.258,0.436-1.113,0.482-1.25
			c0.054-0.161,0.046-1.192,0.046-1.192s-0.336-0.825-0.468-0.973c-0.131-0.147-0.709-0.943-0.709-0.943s0.262,0.762,0.324,0.908
			c0.063,0.146,0.428,0.52,0.521,0.73c0.093,0.213,0.232,0.48,0.232,0.48S448.554,209.705,448.588,209.875z"/>
		<path fill="#FEBFBF" d="M446.893,211.293c0.026,0.083,0.04,0.127,0.04,0.127s0.314,0.082,0.477-0.034
			c0.16-0.115,0.32-1.212,0.32-1.212l0.015,0.509c0.03-0.255,0.275-1.466,0.275-1.466l-0.094-0.95l-0.171,0.282
			c0,0-0.019,0.863-0.015,0.916c0.004,0.052-0.315,1.467-0.315,1.467S447.341,211.319,446.893,211.293z"/>
	</g>
	<g>
		<path fill="#626170" d="M448.813,241.918c0,0,0.271,0.139,0.285,0.34c0.014,0.201,0.021,0.756,0.021,0.887
			c-0.002,0.131-0.345,0.638-1.187,0.834s-2.889-0.346-3.578-0.748s-1.63-1.427-1.916-1.505c-0.225-0.062-0.798,0.022-1.035,0.062
			c-0.073,0.013-0.145,0.016-0.219,0.009l-0.541-0.046c-0.077-0.006-0.152-0.021-0.226-0.048l-1.158-0.411
			c0,0-0.166-0.851,0.182-1.119C439.789,239.904,448.813,241.918,448.813,241.918z"/>
		<path fill="#504F60" d="M444.042,238.465c0,0,1.002,0.635,1.18,0.814c0.179,0.179,1.989,0.914,2.617,1.297
			s1.101,1.037,1.142,1.252s0.137,0.705,0.063,0.91c-0.072,0.205-0.4,0.751-1.484,0.818c-0.97,0.06-2.838-0.759-3.22-0.932
			c-0.047-0.021-0.089-0.045-0.132-0.073c-0.288-0.196-1.492-1.013-1.69-1.106c-0.225-0.105-2.22-0.61-2.523-0.711
			c-0.303-0.101-0.643-0.139-0.688-0.382c-0.044-0.243-0.135-1.581,0.025-2.002C439.494,237.931,443.157,237.387,444.042,238.465z"
			/>
		<path fill="#CCDEFB" d="M439.314,238.645c0.104,0.331,0.488,0.565,1.773,0.633c0.148,0.006,0.298,0.013,0.445,0.013
			c0.923,0.03,1.773-0.04,2.703-0.446c0.326-0.143,0.545-0.466,0.549-0.821c0.038-3.584,1.543-18.37,1.993-27.563
			c0.285-5.813-0.976-8.767-0.976-8.767l-6.21-0.357l-0.228,15.337l0.003,8.872C439.368,225.545,439.215,238.313,439.314,238.645z"
			/>
		<g>
			<path fill="#ACBBD4" d="M441.076,239.301c0.005-0.103,0.459-10.299,0.618-12.443c0.159-2.149,0.29-14.342,0.291-14.465
				l-0.239-0.003c-0.001,0.123-0.132,12.309-0.291,14.451c-0.158,2.147-0.613,12.347-0.617,12.449L441.076,239.301z"/>
		</g>
		<path fill="#DBDEE5" d="M439.314,238.645c0.068,0.216,0.255,0.391,0.733,0.505c0.579,0.093,0.909,0.146,1.485,0.141l1.161-26.57
			c0,0,1.625-1.765,1.347-2.861c-0.124-0.472-4.541,6.209-4.541,6.209l-0.135,0.605l0.003,8.872
			C439.368,225.545,439.215,238.313,439.314,238.645z"/>
		<path fill="#626170" d="M441.4,245.197c0,0,0.297,0.005,0.367,0.4c0.023,0.131,0.038,0.269,0.047,0.396
			c0.024,0.34-0.138,0.671-0.436,0.839c-0.251,0.143-0.626,0.286-1.163,0.354c-1.243,0.156-2.765-0.303-3.544-0.744
			c-0.78-0.441-1.061-0.801-1.531-1.454c-0.47-0.653-0.955-0.965-0.955-0.965l-0.199,0.054c0,0-0.696-0.506-1.078-0.857
			c-0.154-0.141-0.255-0.329-0.28-0.537c-0.054-0.439-0.063-1.157,0.067-1.24C432.866,241.334,441.4,245.197,441.4,245.197z"/>
		<path fill="#504F60" d="M438.101,240.988l0.163,0.388c0.046,0.111,0.114,0.212,0.201,0.297c0.458,0.445,1.986,1.937,2.452,2.435
			c0.551,0.588,0.836,1.104,0.86,1.638s-1.362,0.88-1.57,0.895s-1.13,0.104-2.31-0.335c-1.181-0.439-1.668-0.862-2.615-1.894
			c-0.947-1.03-1.588-1.598-1.879-1.833s-0.713-0.611-0.709-0.916c0.005-0.305-0.042-1.16,0.207-1.267
			c0.226-0.096,3.53-0.371,4.764,0.131C437.868,240.608,438.017,240.786,438.101,240.988z"/>
		<path fill="#CCDEFB" d="M443.414,204.166c0,0,0.588,2.549,0.823,4.979c0.21,2.168-2.088,2.938-2.088,2.938
			s-1.479,10.358-2.005,12.909c-0.466,2.261-1.764,12.866-2.057,15.188c-0.038,0.307-0.227,0.566-0.506,0.696
			c-0.835,0.392-2.686,1.057-4.221,0.193c-0.271-0.153-0.44-0.442-0.451-0.753c-0.24-7.176,0.954-15.744,1.031-16.859
			c0.004-0.043,0.005-0.078,0.002-0.121c-0.104-2.101-1.224-9.415-1.599-14.345c-0.328-1.938,0.24-5.011,0.24-5.011L443.414,204.166
			z"/>
		<g>
			<path fill="#8C92B0" d="M442.772,210.506c-0.102-0.063-0.218-0.213-0.195-0.563c0.097-1.491-0.136-3.843-0.224-4.033l0.09-0.063
				l0.001-0.004l0.001,0.002l-0.061-0.105l0.069-0.035l0.061,0.038c0.205,0.128,0.38,2.983,0.301,4.216
				c-0.011,0.176,0.021,0.306,0.084,0.346c0.045,0.027,0.114,0.016,0.194-0.028c0.275-0.154,0.683-0.727,0.672-1.672
				c-0.006-0.551-0.131-2.647-0.165-2.87l0.237-0.036c0.039,0.26,0.161,2.376,0.167,2.903c0.011,0.982-0.405,1.665-0.796,1.884
				c-0.081,0.045-0.162,0.07-0.236,0.073C442.899,210.561,442.832,210.543,442.772,210.506z M442.503,205.946l-0.057-0.099
				L442.503,205.946z"/>
		</g>
		<g>
			<path fill="#ACBBD4" d="M433.793,241.553l0.238-0.012c-0.287-5.803,0.344-11.955,0.721-15.631
				c0.146-1.423,0.251-2.451,0.24-2.882c-0.024-0.946-0.353-4.162-0.67-7.271c-0.185-1.806-0.358-3.51-0.454-4.599
				c-0.257-2.883-0.032-4.608-0.029-4.626l-0.237-0.032c-0.002,0.018-0.229,1.768,0.028,4.679c0.097,1.091,0.27,2.797,0.454,4.603
				c0.303,2.96,0.646,6.316,0.669,7.253c0.011,0.416-0.094,1.438-0.238,2.852C434.137,229.568,433.505,235.732,433.793,241.553z"/>
		</g>
		<g>
			<path fill="#8C92B0" d="M436.861,210.734c1.37-0.059,2.416-0.425,3.118-1.092c0.913-0.868,0.889-1.917,0.888-1.961l-0.239,0.008
				c0.001,0.009,0.02,0.992-0.816,1.783c-0.873,0.826-2.327,1.159-4.32,0.988l-0.02,0.238
				C435.965,210.741,436.429,210.754,436.861,210.734z"/>
		</g>
		<path fill="#A76478" d="M432.287,206.397c0,0,2.284,0.974,5.87,0.693s4.938-0.767,6.122-1.5c1.186-0.733,1.902-1.656,1.902-1.656
			l-0.248-1.379c0,0-0.658,1.154-2.35,1.965c-1.691,0.811-5.359,1.156-6.854,1.231c-1.494,0.076-4.331-0.443-4.331-0.443
			L432.287,206.397z"/>
		<path fill="#4F5997" d="M439.901,205.522c0,0,0.105,0.394,0.13,0.862c0.023,0.469,0.023,1.33,0.023,1.33l0.542-0.099
			c0,0,0.08-0.833,0.052-1.249c-0.029-0.416-0.166-0.99-0.166-0.99L439.901,205.522z"/>
		<path fill="#4F5997" d="M434.706,205.643c0,0-0.089,0.397-0.093,0.867c-0.005,0.469,0.031,1.33,0.031,1.33l-0.545-0.075
			c0,0-0.115-0.829-0.104-1.247c0.012-0.416,0.124-0.995,0.124-0.995L434.706,205.643z"/>
		<path fill="#4F5997" d="M444.856,203.68c0,0,0.143,0.487,0.171,0.886c0.027,0.398-0.033,1.081-0.033,1.081l0.355-0.453
			c0,0,0.042-0.69,0.027-0.907c-0.016-0.217-0.229-0.847-0.229-0.847L444.856,203.68z"/>
		<g>
			<path fill="#8C92B0" d="M446.62,205.898c0.037-0.001,0.075-0.008,0.113-0.021l-0.075-0.228c-0.306,0.108-0.677-0.638-0.814-1.009
				l-0.225,0.083C445.667,204.854,446.08,205.923,446.62,205.898z"/>
		</g>
		<g>
			<path fill="#CCDEFB" d="M442.129,206.591c-0.147-0.103-0.232-0.272-0.238-0.477l-0.012-0.4c-0.012-0.42,0.314-0.873,0.743-1.032
				l1.006-0.372c0.233-0.087,0.463-0.07,0.631,0.046c0.147,0.104,0.232,0.272,0.238,0.478l0.012,0.4
				c0.012,0.42-0.314,0.873-0.743,1.031l-1.006,0.372c-0.064,0.024-0.129,0.04-0.191,0.048
				C442.404,206.707,442.25,206.675,442.129,206.591z M443.722,204.746l-1.006,0.373c-0.222,0.082-0.411,0.327-0.406,0.523
				l0.012,0.4c0.002,0.067,0.026,0.117,0.072,0.149c0.064,0.045,0.164,0.048,0.271,0.009l1.006-0.373
				c0.223-0.082,0.412-0.326,0.406-0.523l-0.012-0.4c-0.002-0.066-0.025-0.117-0.071-0.148c-0.045-0.031-0.105-0.043-0.175-0.034
				C443.79,204.727,443.756,204.734,443.722,204.746z"/>
		</g>
	</g>
	<path fill="#DDE8F6" d="M431.173,192.852c0.076,0.531,0.148,1.043,0.197,1.505c0.27,2.494,1.186,10.839,1.186,10.839
		c0,0.004,0.021,0.153,1.206,0.274c0.394,0.041,1.053,0.052,1.85,0.035c1.651-0.034,3.894-0.183,5.567-0.424
		c2.483-0.355,5.021-2.293,4.913-2.934c-0.109-0.639-0.276-2.748,0.072-6.716c0.349-3.971,0.241-10.068-0.632-12.072
		c-0.871-2.001-1.413-2.277-3.078-2.526c-1.664-0.249-4.954-0.213-5.588,0.04c-0.637,0.253-3.583,2.178-4.541,3.056
		c-0.957,0.878-1.624,2.044-1.624,2.044C430.283,186.71,430.831,190.505,431.173,192.852z"/>
	<path fill="#DDE8F6" d="M441.859,181.665c2.693,1.25,0.932,0.527-0.043,1.294s-1.721,0.943-2.635,0.879
		c-1.953-0.136-1.365,0.583-1.854,0.591c-1.214,0.018-2.308-0.563-2.846-0.591c-0.538-0.029-1.848-0.13-2.629,0.573
		c0.474-0.48,0.474-0.48,0.474-0.48l1.277-1.159C433.603,182.771,439.896,180.755,441.859,181.665z"/>
	<path fill="#E6F1FF" d="M443.267,172.846c0,0,0.697,4.739,0.344,6.697c-0.43,2.082-0.225,2.489-0.359,2.777
		c-0.136,0.288-2.15-1.156-3.371-0.586c-1.223,0.57,2.397-8.288,2.397-8.288L443.267,172.846z"/>
	<path fill="#DDE8F6" d="M428.512,233.406c0.282,0.433,0.832,1.06,1.662,1.637c1.197,0.851,2.957,1.6,5.286,1.499
		c3.931-0.17,4.229-0.105,7.555-1.454c3.326-1.349,3.485-3.334,3.485-3.334s0.347-5.855,0.772-14.361
		c0.42-8.501-0.134-12.814-0.792-16.563c-0.658-3.756-0.319-14.714-0.319-14.714l-14.586,7.751c0,0-0.09,4.2-0.129,9.261
		c-0.026,3.431-0.022,7.252,0.043,10.421C431.674,221.397,429.76,230.072,428.512,233.406z"/>
	<path fill="#DDE8F6" d="M431.49,213.549c-0.065-3.169-0.069-6.99-0.043-10.421c0.27-0.617,0.515-1.092,0.729-1.406
		c-0.285-2.599-0.65-5.939-0.805-7.365c-0.049-0.463-0.121-0.974-0.197-1.506l3.997-2.187c0,0-0.305,8.188-0.509,9.248
		c-0.169,0.867,0.567,4.829,0.567,4.83c0.102,0.925,1.655,9.843,1.655,9.843s-0.833,1.312-1.454,1.551
		c-0.621,0.24-1.733,1.951-1.612,2.803c0.12,0.858-0.807,8.201-1.738,11.412c-0.471,1.625-1.148,3.401-1.905,4.691
		c-0.83-0.577-1.38-1.204-1.662-1.637C429.76,230.072,431.674,221.397,431.49,213.549z"/>
	<path fill="#E6F1FF" d="M432.83,185.106c0,0,2.74,0.443,2.226,5.025s-1.479,11.199-1.656,11.655
		c-0.177,0.457-3.01,1.788-3.316,0.015c-0.308-1.772-0.383-7.024-0.406-8.851c-0.024-1.827,0.585-6.097,1.142-6.972
		C431.323,185.186,432.156,184.844,432.83,185.106z"/>
	<path fill="#FEBFBF" d="M433.132,199.847c0,0,0.526-0.323,0.64,0.178s0.334,9.97,0.413,10.355c0.079,0.387,0.824,1.196,1.007,1.323
		c0.183,0.126,0.994,1.01,1.118,1.297c0.125,0.288,0.577,1.645,0.73,1.961c0.152,0.315,0.749,0.81,0.592,1.173
		c-0.158,0.364-0.806-0.126-1.102-0.432s-0.797-1.485-1.081-1.818c-0.027,0.354-0.083,1.521-0.067,2.029
		c0.012,0.36,0.845,2.161,0.674,2.33c-0.084,0.083-0.32,0.101-0.529-0.093c-0.21-0.194-0.86-1.273-0.86-1.273s0.416,1.278,0.419,1.5
		c0.002,0.222-0.238,0.33-0.521,0.036c-0.281-0.294-0.361-0.497-0.361-0.497s-0.333,0.284-0.491,0.073
		c-0.158-0.21-0.688-0.97-0.738-1.267s-0.182-0.68-0.182-0.68s-0.273-0.233-0.448-0.744c-0.176-0.51-0.507-1.515-0.537-2.191
		c-0.03-0.678-0.169-2.413-0.402-3.745c-0.232-1.331-1.925-8.079-1.502-9.369C430.821,200.044,433.132,199.847,433.132,199.847z"/>
	<g>
		
			<linearGradient id="SVGID_1_" gradientUnits="userSpaceOnUse" x1="3510.3335" y1="84.54" x2="3508.2405" y2="80.2937" gradientTransform="matrix(-0.9975 0.07 0.07 0.9975 3933.3735 -147.2732)">
			<stop  offset="0.1224" style="stop-color:#FEC7C7"/>
			<stop  offset="0.9694" style="stop-color:#FFADB7"/>
		</linearGradient>
		<path fill="url(#SVGID_1_)" d="M441.237,180.631c0,0-0.163,1.469,0.166,2.396c-1.248,0.926-2.571,0.609-3.823,0.03
			s-1.733-1.12-1.792-1.321c-0.059-0.201,0.681-0.315,0.865-1.682c0.184-1.367,0.103-2.291,0.016-3.248
			c-0.088-0.957,0.561-1.798,0.561-1.798L441.237,180.631z"/>
		
			<linearGradient id="SVGID_2_" gradientUnits="userSpaceOnUse" x1="3506.4917" y1="82.4453" x2="3509.6323" y2="82.4453" gradientTransform="matrix(-0.9975 0.07 0.07 0.9975 3933.3735 -147.2732)">
			<stop  offset="0.1224" style="stop-color:#FCA4B5"/>
			<stop  offset="0.9896" style="stop-color:#FFADB7"/>
		</linearGradient>
		<path fill="url(#SVGID_2_)" d="M438.192,179.285c0,0,0.86,1.896,1.188,2.201s1.408,0.498,1.69,0.208
			c0.283-0.291,0.312-1.81,0.312-1.81L438.192,179.285z"/>
		<path fill="#FEC7C7" d="M438.306,179.646c0.294,0.828,3.487,2.414,4.438,1.6c0.486-0.416,0.681-1.682,0.758-2.928
			c0.077-1.196,0.049-2.375,0.072-2.771c0.05-0.808-0.507-2.503-0.507-2.503l-4.752,0.255c0,0-1.115,1.06-0.975,2.112
			c0.027,0.197,0.068,0.439,0.116,0.708C437.673,177.29,438.071,178.976,438.306,179.646z"/>
		<g>
			
				<linearGradient id="SVGID_3_" gradientUnits="userSpaceOnUse" x1="3505.2808" y1="78.9375" x2="3504.1902" y2="79.2556" gradientTransform="matrix(-0.9975 0.07 0.07 0.9975 3933.3735 -147.2732)">
				<stop  offset="0.1224" style="stop-color:#FEC7C7"/>
				<stop  offset="0.9896" style="stop-color:#FFDBDB"/>
			</linearGradient>
			<path fill="url(#SVGID_3_)" d="M442.597,175.356c-0.074,0.511,0.836,1.938,0.935,2.424s-1.456,0.518-1.456,0.518L442.597,175.356
				z"/>
			
				<linearGradient id="SVGID_4_" gradientUnits="userSpaceOnUse" x1="3504.1509" y1="78.9478" x2="3505.6909" y2="78.9478" gradientTransform="matrix(-0.9975 0.07 0.07 0.9975 3933.3735 -147.2732)">
				<stop  offset="0.188" style="stop-color:#FFDCDC"/>
				<stop  offset="0.8991" style="stop-color:#FEC7C7"/>
			</linearGradient>
			<path fill="url(#SVGID_4_)" d="M442.155,178.344c0.269-0.012,1.14-0.071,1.369-0.357c0.052-0.065,0.071-0.138,0.055-0.216
				c-0.04-0.2-0.202-0.532-0.392-0.918c-0.274-0.561-0.585-1.196-0.543-1.49l-0.095-0.014c-0.047,0.323,0.271,0.973,0.552,1.546
				c0.177,0.364,0.346,0.708,0.383,0.895c0.011,0.05-0.001,0.094-0.035,0.137c-0.198,0.246-1.064,0.315-1.373,0.323l0.001,0.097
				C442.083,178.347,442.112,178.346,442.155,178.344z"/>
		</g>
		<g>
			<path fill="#754554" d="M440.153,176.036c1.058-0.579,2.027-0.314,2.037-0.312l0.045-0.155c-0.044-0.012-1.038-0.287-2.159,0.326
				L440.153,176.036z"/>
		</g>
		<g>
			<path fill="#754554" d="M442.856,175.487c0.004-0.003,0.349-0.263,0.802-0.349l-0.029-0.158c-0.493,0.092-0.855,0.367-0.87,0.378
				L442.856,175.487z"/>
		</g>
		<path fill="#AF727B" d="M438.306,179.646c0.294,0.828,3.487,2.414,4.438,1.6c0.486-0.416,0.681-1.682,0.758-2.928
			c-0.064,0.039-0.136,0.055-0.209,0.039c-0.297-0.067-0.725-0.079-1.158,0.234c-0.433,0.313-1.04,0.729-1.402,0.775
			c-0.363,0.046-1.632-0.32-1.94-0.79c-0.308-0.469-0.545-1.738-0.545-1.738l-0.79-0.721
			C437.673,177.29,438.071,178.976,438.306,179.646z"/>
		
			<linearGradient id="SVGID_5_" gradientUnits="userSpaceOnUse" x1="3232.4595" y1="243.5801" x2="3233.894" y2="243.5801" gradientTransform="matrix(-0.9999 -0.0108 -0.0108 0.9999 3672.4219 -31.4324)">
			<stop  offset="0.1224" style="stop-color:#FEB9B8"/>
			<stop  offset="1" style="stop-color:#FFDEDE"/>
		</linearGradient>
		<path fill="url(#SVGID_5_)" d="M437.438,176.299c0,0-0.491-0.7-1.051-0.257s0.507,2.418,0.806,2.469
			c0.299,0.052,0.465-0.3,0.451-0.491S437.244,176.658,437.438,176.299z"/>
		
			<linearGradient id="SVGID_6_" gradientUnits="userSpaceOnUse" x1="3232.5601" y1="243.4688" x2="3233.7056" y2="243.4688" gradientTransform="matrix(-0.9999 -0.0108 -0.0108 0.9999 3672.4219 -31.4324)">
			<stop  offset="0.1224" style="stop-color:#FCA4B5"/>
			<stop  offset="0.9896" style="stop-color:#FFADB7"/>
		</linearGradient>
		<path fill="url(#SVGID_6_)" d="M437.29,176.295c0,0-0.584-0.375-0.822-0.076c-0.239,0.299,0.435,1.584,0.623,1.807
			c0.188,0.222,0.457-0.239,0.457-0.239S437.21,176.584,437.29,176.295z"/>
		<path fill="#FEC7C7" d="M443.207,179.328c0,0-0.912,0.309-1.431,0.29C441.258,179.599,443.594,178.877,443.207,179.328z"/>
		
			<ellipse transform="matrix(-0.9799 0.1994 -0.1994 -0.9799 908.8969 261.7094)" fill="#FFFFFF" cx="441.272" cy="176.615" rx="0.332" ry="0.215"/>
		
			<ellipse transform="matrix(-0.9016 0.4326 -0.4326 -0.9016 919.0356 143.13)" fill="#FFFFFF" cx="443.236" cy="176.108" rx="0.215" ry="0.193"/>
		<path fill="#E6F1FF" d="M435.383,177.03c0,0,0.751-0.933,1.007-0.984c0.255-0.052,1.136,0.271,1.136,0.271l0.073-0.102
			l0.855-1.114c0,0,0.007,0,0.018,0c0.16,0.004,1.496-0.041,2.299-0.104c0.854-0.066,2.245-0.436,2.659-0.626
			c0.37-0.168-0.055-1.246-0.188-1.587c-0.015-0.042-0.032-0.072-0.032-0.089c0.003-1.084-1.801-2.371-2.609-2.537
			c-0.744-0.152-3.325-0.762-5.281,1.655c-0.378,0.466-0.606,0.944-0.73,1.416c-0.063,0.236-0.1,0.471-0.112,0.701
			C434.363,175.616,435.383,177.03,435.383,177.03z"/>
		<path fill="#E6F1FF" d="M437.526,176.317c0,0,0.122,2.569,0.032,4.244c-0.088,1.676,0.084,3.362-0.025,3.657
			c-0.232,0.619-4.198-1.171-4.824-0.612c-0.625,0.559-0.625,0.559-0.625,0.559s1.268-1.792,1.622-3.359
			c0.355-1.568,0.865-4.197,0.763-6.595C436.449,173.879,437.526,176.317,437.526,176.317z"/>
		<path fill="#DDE8F6" d="M443.196,172.528c0,0-0.128,0.243-0.406,0.338c-0.278,0.096-1.086,0.282-1.473,0.178
			c-0.805,0.256-1.479,0.376-2.325,0.383c-0.845,0.007-1.51-0.163-1.662-0.284c-0.407,0.051-1.093-0.013-1.596-0.188
			c-0.351-0.147-0.477-0.374-0.477-0.374s-0.329,0.104-0.42-0.016c-0.052,0.109-0.052,0.109-0.052,0.109l0.075,0.449l-0.369,0.625
			l-0.02,0.273c0,0,0.412,0.392,1.516,0.655c1.103,0.263,3.184,0.322,4.904,0.141c1.182-0.125,2.272-0.428,2.663-0.755
			c0.026-0.183-0.054-0.445-0.054-0.445L443.196,172.528z"/>
		<path fill="#656565" d="M434.324,173.771c0.129,0.159,0.877,0.469,1.002,0.515c0.916,0.341,2.439,0.649,5.301,0.425
			c0.888-0.069,2.578-0.576,3.009-0.773c0.385-0.175,0.103-0.887-0.035-1.241c-0.004,0.003-0.156-0.115-0.16-0.11
			c-0.042,0.051-0.167,0.048-0.229,0.109c-0.5,0.486-2.586,0.729-4.105,0.77c-1.684,0.047-3.738-0.549-3.738-0.549
			s-0.557-0.244-0.764-0.308c-0.143,0.062-0.333,0.155-0.348,0.299C434.243,173.051,434.16,173.568,434.324,173.771z"/>
	</g>
	<path fill="#E6F1FF" d="M433.872,199.064l0.482,11.187c0,0-0.901,0.574-1.977,0.557s-1.075-0.018-1.075-0.018
		s-1.834-8.231-1.461-11.759C431.409,198.942,433.872,199.064,433.872,199.064z"/>
</g>
</svg>
