<?xml version="1.0" encoding="utf-8"?>
<!-- Generator: Adobe Illustrator 16.0.0, SVG Export Plug-In . SVG Version: 6.00 Build 0)  -->
<!DOCTYPE svg PUBLIC "-//W3C//DTD SVG 1.1//EN" "http://www.w3.org/Graphics/SVG/1.1/DTD/svg11.dtd">
<svg version="1.1" id="Layer_1" xmlns="http://www.w3.org/2000/svg" xmlns:xlink="http://www.w3.org/1999/xlink" x="0px" y="0px"
	 width="463.683px" height="425.749px" viewBox="0 0 463.683 425.749" enable-background="new 0 0 463.683 425.749"
	 xml:space="preserve">
<g>
	<path fill="#BDD6F2" d="M327.095,231.049c4.146,2.639,11.063,2.924,15.449,0.639c4.386-2.286,4.579-6.278,0.433-8.917
		c-4.146-2.639-11.063-2.925-15.448-0.639S322.949,228.41,327.095,231.049z"/>
	<g>
		<g>
			<path fill="#6C6B79" d="M328.966,225.369c0,0-0.206,0.105-0.218,0.26c-0.011,0.154-0.017,0.578-0.015,0.678
				c0,0.101,0.263,0.488,0.906,0.638c0.644,0.15,2.208-0.265,2.735-0.571c0.527-0.309,1.247-1.092,1.466-1.15
				c0.219-0.061,0.871,0.061,0.871,0.061l0.589-0.05l0.97-0.344c0,0,0.127-0.65-0.139-0.855S328.966,225.369,328.966,225.369z"/>
			<path fill="#C2D2EA" d="M332.615,222.729c0,0-0.767,0.486-0.903,0.623c-0.136,0.137-1.521,0.699-2,0.992
				c-0.48,0.292-0.841,0.793-0.873,0.957c-0.031,0.164-0.104,0.539-0.049,0.695c0.056,0.157,0.306,0.574,1.135,0.626
				s2.515-0.735,2.515-0.735s1.168-0.798,1.34-0.879c0.173-0.081,1.698-0.467,1.93-0.544c0.231-0.076,0.365-0.109,0.399-0.296
				s0.229-1.204,0.106-1.525C336.092,222.32,333.292,221.904,332.615,222.729z"/>
		</g>
		<g>
			<path fill="#6C6B79" d="M334.478,227.955c0,0-0.227,0.004-0.28,0.306c-0.055,0.302-0.047,0.661-0.047,0.661
				s0.282,0.432,1.231,0.552c0.947,0.119,2.108-0.231,2.703-0.568c0.596-0.337,0.809-0.61,1.168-1.108
				c0.358-0.498,0.729-0.736,0.729-0.736l0.151,0.04c0,0,0.851-0.618,0.99-0.833c0.072-0.179,0.125-1.094-0.005-1.177
				C340.989,225.008,334.478,227.955,334.478,227.955z"/>
			<path fill="#C2D2EA" d="M337.08,224.539l-0.264,0.629c0,0-1.55,1.507-1.971,1.955c-0.42,0.449-0.637,0.843-0.655,1.25
				s1.039,0.671,1.198,0.682c0.158,0.012,0.861,0.08,1.762-0.255s1.271-0.658,1.995-1.444c0.723-0.787,1.211-1.219,1.434-1.398
				c0.222-0.18,0.544-0.467,0.54-0.699c-0.003-0.232,0.033-0.886-0.157-0.967S337.687,223.961,337.08,224.539z"/>
		</g>
		<path fill="#4F5997" d="M335.983,222.145c0,0-0.207,0.386-0.69,0.599c-0.494,0.218-1.272,0.255-2.41-0.484
			c0,0-0.27-14.181-1.057-18.338l3.39,5.979l1.423,0.051l0.002,0.001c0,0,0.587,4.561,0.234,6.955
			C336.52,219.303,335.983,222.145,335.983,222.145z"/>
		<path fill="#4F5997" d="M336.702,209.795c-0.017,0.055-0.037,0.106-0.062,0.157l-0.002-0.001c-0.21,0.445-0.666,0.709-1.19,0.825
			c-1.036,0.229-2.339-0.12-2.563-0.813c-0.015-0.042-0.029-0.094-0.047-0.149c-0.409-1.359-1.279-7.079-1.829-11.329
			c-0.571-4.43,0.534-6.544,0.534-6.544l5.408,0.982c0,0,0.047,2.611,0.064,5.742C337.037,202.955,336.977,208.93,336.702,209.795z"
			/>
		<path fill="#A8B0C2" d="M335.983,222.145c0,0-0.207,0.386-0.69,0.599c0.364-2.372,0.957-6.427,0.857-7.261
			c-0.064-0.561-0.206-3.306-0.359-4.627c-1.036-8.972-0.913-11.756-0.913-11.756l-1.154-1.759l3.292,1.324
			c0.021,4.29-0.038,10.265-0.313,11.13c-0.017,0.055-0.037,0.106-0.062,0.157c0,0,0.587,4.561,0.234,6.955
			C336.52,219.303,335.983,222.145,335.983,222.145z"/>
		<path fill="#4F5997" d="M333.608,194.751l-0.756,0.886c0,0-0.065,1.094,2.351,2.913c0.016,2.565,0.965,10.762,1.762,12.715
			c0.796,1.953,3.26,0.437,3.677-1.833c0.416-2.271,2.271-9.387,2.43-11.137c0.159-1.751,0.298-3.533-0.915-4.564
			C340.943,192.699,333.608,194.751,333.608,194.751z"/>
		<path fill="#4F5997" d="M337.51,224.219c0.454-1.588,0.104-10.435-0.546-12.953c3.347-1.947,3.775-2.326,3.775-2.326
			s1.221,6.48,1.174,7.766c-0.048,1.286-1.083,7.56-1.083,7.56S339.15,225.869,337.51,224.219z"/>
		<g>
			<path fill="#8C92B0" d="M340.097,225.13l-0.237-0.053c0.012-0.051,1.126-5.113,1.137-7.657c0.008-1.951-0.47-4.361-0.819-6.12
				c-0.163-0.82-0.291-1.468-0.321-1.834c-0.03-0.361,0.221-1.444,0.569-2.942c0.771-3.322,1.938-8.342,1.108-10.143l0.222-0.103
				c0.863,1.877-0.314,6.946-1.094,10.3c-0.33,1.422-0.59,2.544-0.564,2.867c0.03,0.353,0.157,0.994,0.318,1.807
				c0.352,1.771,0.832,4.193,0.824,6.168C341.229,219.99,340.109,225.079,340.097,225.13z"/>
		</g>
	</g>
	<g>
		<path fill="#6A3646" d="M339.661,164.589c0,0,1.21-0.631,1.966,0.027c0.756,0.658,0.444,3.498-0.325,5.169
			c-0.69,1.5-0.34,4.156,1.358,4.71c-1.191,0.893-3.873-0.099-4.246-1.738C338.042,171.117,339.661,164.589,339.661,164.589z"/>
		
			<linearGradient id="SVGID_1_" gradientUnits="userSpaceOnUse" x1="1427.271" y1="224.0273" x2="1425.0795" y2="228.5332" gradientTransform="matrix(0.9991 0.0431 -0.0431 0.9991 -1083.9056 -105.6812)">
			<stop  offset="0.1224" style="stop-color:#FEC7C7"/>
			<stop  offset="0.9694" style="stop-color:#FFADB7"/>
		</linearGradient>
		<path fill="url(#SVGID_1_)" d="M330.592,179.502c0,0-1.438,3.604-1.563,6.135c-0.125,2.531,1.396,0.893,2.006,0.103
			C331.644,184.95,335.238,176.568,330.592,179.502z"/>
		<path fill="#FFDADA" d="M331.086,184.804c0,0-0.036,0.227-0.239,0.301c-0.202,0.074-0.732-0.236-0.732-0.236
			s0.01-0.815,0.123-0.761c0.112,0.054,0.498,0.39,0.498,0.39S331.158,184.688,331.086,184.804z"/>
		<path fill="#E6F1FF" d="M333.89,172.964l-0.453,0.047c0,0-1.466,0.179-2.088,2.045c-0.37,1.111-0.996,4.027-0.996,4.027
			s0.732,0.927,1.445,1.131C332.511,180.421,333.89,172.964,333.89,172.964z"/>
		<path fill="#DDE8F6" d="M342.375,193.808c-0.141,0.148-0.513,0.348-1.035,0.541c-1.247,0.459-3.356,0.887-5.274,0.532
			c-2.722-0.503-4.422-1.813-4.706-2.872c0.046-0.458-0.002-5.118-0.088-6.193c-0.088-1.075-0.868-3.037-0.88-3.804
			c-0.014-0.765,0.839-2.349,0.979-3.207c0.14-0.856,1.002-4.044,1.203-4.394c0.322-0.557,0.788-1.284,1.426-1.451
			c0.64-0.168,4.367-0.277,5.103,0.01c0.736,0.287,1.403,0.965,2.257,1.419c2.575,1.37,2.824,2.887,2.824,2.887
			s-0.896,2.302-1.17,4.076c-0.068,0.443-0.121,0.822-0.151,1.079c-0.147,1.282-0.1,8.235-0.1,8.235
			S342.853,193.306,342.375,193.808z"/>
		<path fill="#FEBFBF" d="M339.165,172.852c0.137,0.007,0.491,0.529,1.101,0.831s0.628,0.383-0.105,1.056
			c-0.734,0.673-3.346,3.676-5.008,3.322c-1.662-0.354-1.58-1.971-1.515-2.618c0.064-0.646,1.053-2.121,1.373-2.262
			C335.332,173.04,339.165,172.852,339.165,172.852z"/>
		
			<linearGradient id="SVGID_2_" gradientUnits="userSpaceOnUse" x1="1619.144" y1="209.5166" x2="1616.1676" y2="205.4751" gradientTransform="matrix(0.995 0.1 -0.1 0.995 -1250.9182 -195.8364)">
			<stop  offset="0.1224" style="stop-color:#FEC7C7"/>
			<stop  offset="0.9694" style="stop-color:#FFADB7"/>
		</linearGradient>
		<path fill="url(#SVGID_2_)" d="M334.587,172.619c0,0,0.291,0.682,0.229,1.302s-0.405,1.652-0.405,1.652s0.38,0.731,1.896,0.563
			c1.516-0.167,1.568-0.695,2.049-0.967c0.481-0.271,1.717-1.518,1.639-1.605c-0.077-0.087-1.334-0.713-0.852-2.515
			c0.482-1.801,1.194-2.733,1.194-2.733s0.421-0.757-0.105-0.81C339.707,167.455,334.587,172.619,334.587,172.619z"/>
		
			<linearGradient id="SVGID_3_" gradientUnits="userSpaceOnUse" x1="1614.3833" y1="208.625" x2="1617.8208" y2="208.625" gradientTransform="matrix(0.995 0.1 -0.1 0.995 -1250.9182 -195.8364)">
			<stop  offset="0.1224" style="stop-color:#FCA4B5"/>
			<stop  offset="0.9896" style="stop-color:#FFADB7"/>
		</linearGradient>
		<path fill="url(#SVGID_3_)" d="M338.13,171.757c0,0-1.293,1.208-1.566,1.82s-1.529,1.445-1.529,1.445l-0.212-1.358l-0.235-1.046
			L338.13,171.757z"/>
		<path fill="#DDE8F6" d="M342.375,193.808c-0.141,0.148-0.513,0.348-1.035,0.541c0.022-0.134,0.05-0.281,0.083-0.44
			c0.836-4.074,0.586-3.367,0.469-5.017c-0.12-1.652-0.605-3.174-1.164-3.093s-1.275,0.127-2.156-0.296
			c0.719,0.273,1.618,0.178,2.211-0.247c0.593-0.425,0.369-3.674,0.369-3.674c0.751-0.347,1.364-0.396,1.861-0.231
			c-0.068,0.443-0.121,0.822-0.151,1.079c-0.147,1.282-0.1,8.235-0.1,8.235S342.853,193.306,342.375,193.808z"/>
		<g>
			<g>
				<path fill="#627847" d="M329.51,187.852c-0.646,0.251-1.676,0.205-2.301-0.103c-0.626-0.308-0.609-0.761,0.036-1.013
					c0.646-0.251,1.676-0.205,2.301,0.103C330.171,187.147,330.155,187.6,329.51,187.852z"/>
				<polygon fill="#627847" points="330.445,182.916 330.004,187.364 326.751,187.224 326.695,182.754 				"/>
				<path fill="#B09064" d="M329.668,185.959c-0.672-0.314-1.777-0.364-2.47-0.109c-0.691,0.254-0.708,0.715-0.036,1.031
					c0.672,0.315,1.777,0.364,2.469,0.109C330.324,186.736,330.34,186.274,329.668,185.959z"/>
				<polygon fill="#B09064" points="330.161,186.505 330.43,184.11 326.608,183.933 326.669,186.346 				"/>
				<path fill="#DEC7A7" d="M329.891,183.517c-0.736-0.332-1.947-0.385-2.704-0.12c-0.758,0.265-0.774,0.749-0.038,1.08
					s1.947,0.385,2.704,0.12C330.611,184.332,330.627,183.849,329.891,183.517z"/>
				<path fill="#627847" d="M329.832,183.282c-0.697-0.343-1.846-0.394-2.564-0.114c-0.72,0.28-0.738,0.786-0.041,1.129
					s1.846,0.394,2.565,0.114C330.511,184.131,330.529,183.626,329.832,183.282z"/>
				<path fill="#FEBFBF" d="M326.737,184.605c0,0,0.119-0.289,0.05-0.439c-0.068-0.15-0.096-0.309-0.096-0.309l0.003-0.244
					l0.092-0.169c0,0-0.407,0.009-0.465,0.207c-0.059,0.198-0.125,0.707-0.125,0.707l0.272,0.28c0,0-0.275,0.058-0.323,0.168
					s-0.131,0.444-0.093,0.499c0.039,0.055,0.355,0.323,0.355,0.323s-0.176,0.131-0.186,0.219s0.013,0.295,0.038,0.378
					s0.458,0.346,0.458,0.346s-0.097,0.149-0.111,0.281c-0.016,0.131,0.017,0.242,0.114,0.324c0.098,0.082,0.724,0.287,0.828,0.308
					s0.101-0.256,0.044-0.387s-0.586-0.245-0.586-0.245l0.002-0.257c0,0,0.405,0.042,0.47-0.136
					c0.064-0.177-0.091-0.373-0.151-0.397c-0.059-0.024-0.54-0.177-0.54-0.177l-0.105-0.092c0,0,0.385,0.062,0.483,0.055
					c0.099-0.006,0.19-0.183,0.177-0.3s-0.137-0.281-0.281-0.344c-0.145-0.063-0.342-0.279-0.342-0.279L326.737,184.605z"/>
				<polygon fill="#627847" points="330.328,184.033 330.385,183.647 330.05,183.699 326.725,183.509 326.711,183.831 				"/>
				<path fill="#A19797" d="M329.954,183.946c-0.744,0.29-1.931,0.237-2.651-0.118s-0.702-0.877,0.042-1.167
					s1.931-0.237,2.651,0.118S330.698,183.657,329.954,183.946z"/>
				<path fill="#C7BEBE" d="M330.617,182.853l-0.309-0.013c-0.08-0.063-0.174-0.122-0.287-0.178
					c-0.785-0.387-2.08-0.444-2.891-0.129c-0.12,0.047-0.22,0.1-0.306,0.156l-0.294-0.013l-0.021,0.455c0,0.007,0,0.014,0,0.021
					l-0.001,0.01h0.001c0.003,0.224,0.193,0.455,0.574,0.643c0.786,0.387,2.08,0.444,2.891,0.128
					c0.398-0.155,0.605-0.372,0.62-0.598h0.001L330.617,182.853z"/>
				<path fill="#E2D9D9" d="M330.04,182.225c-0.785-0.387-2.079-0.444-2.89-0.128c-0.812,0.316-0.832,0.885-0.047,1.272
					c0.786,0.387,2.08,0.444,2.891,0.129C330.805,183.182,330.826,182.611,330.04,182.225z"/>
				<path fill="#C7BEBE" d="M330.326,182.825c0-0.004,0-0.008,0-0.012l0.014-0.314l-0.16-0.007
					c-0.082-0.085-0.196-0.167-0.347-0.241c-0.673-0.332-1.782-0.381-2.478-0.11c-0.158,0.062-0.279,0.135-0.367,0.214l-0.152-0.006
					l-0.014,0.314v0.001v0.001l0,0c-0.006,0.197,0.158,0.401,0.494,0.566c0.673,0.331,1.782,0.381,2.478,0.11
					c0.342-0.133,0.519-0.319,0.531-0.513h0.001V182.825z"/>
				<path fill="#E1D8D8" d="M329.849,181.873c-0.674-0.332-1.783-0.381-2.479-0.11c-0.694,0.271-0.713,0.759-0.039,1.091
					c0.674,0.332,1.783,0.381,2.479,0.11C330.505,182.693,330.523,182.205,329.849,181.873z"/>
				<path fill="#C7BEBE" d="M330.017,182.505L330.017,182.505c-0.101,0.02-0.206-0.027-0.234-0.105l-0.012-0.031
					c-0.028-0.078,0.031-0.157,0.132-0.177l0,0c0.102-0.02,0.206,0.027,0.235,0.105l0.011,0.031
					C330.177,182.405,330.119,182.484,330.017,182.505z"/>
			</g>
		</g>
		<g>
			<path fill="#FEBFBF" d="M342.575,177.633c0,0-1.036,0.096-1.22,1.93c-0.185,1.834,0.907,9.826,1.597,10.606
				c0.688,0.78,1.734,0.281,2.032-1.448c0.299-1.729,0.215-6.732,0.187-7.339C345.143,180.774,344.925,176.656,342.575,177.633z"/>
			<path fill="#FEBFBF" d="M343.147,189.141c0,0-0.351,0.302-0.628,1.554c-0.276,1.252-0.849,7.308-1.321,7.937
				c-0.472,0.627-1.011,1.133-1.011,1.133s-0.536,0.915-0.564,1.196s-0.249,0.882-0.361,1.03c-0.113,0.148-0.498,0.706-0.466,0.833
				c0.031,0.128,0.405,0.21,0.563,0.057c0.158-0.153,0.614-1.245,0.768-1.442c0.153-0.198,0.321-0.261,0.321-0.261
				s0.161,0.763,0.106,0.953s-0.58,1.443-0.58,1.443s-0.514,0.775-0.529,0.845s0.271,0.125,0.418-0.002
				c0.146-0.127,0.111,0.126,0.403,0.049s1.08-0.753,1.08-0.753l0.124-0.174l0.58-0.11c0,0,0.831-1.374,0.887-1.75
				s0.331-3.299,0.331-3.299s2.534-7.103,1.572-9.065C344.4,188.697,343.147,189.141,343.147,189.141z"/>
			<path fill="#FEBFBF" d="M341.403,202.434c0,0-0.502,1.083-0.613,1.192c-0.11,0.108-0.928,0.789-0.928,0.789l0.187,0.019
				c0,0,0.372-0.385,0.466-0.456c0.094-0.07,0.417-0.371,0.417-0.371l0.448-0.941L341.403,202.434z"/>
			<path fill="#FEBFBF" d="M342.076,202.502l-0.473,0.919l-0.134,0.115l0.131-0.025c0,0,0.194-0.198,0.249-0.352
				C341.905,203.005,342.076,202.502,342.076,202.502z"/>
			<path fill="#E6F1FF" d="M342.712,176.68c0,0-0.938,0.186-1.402,1.485s0.028,4.628,0.028,4.628s1.36-0.143,2.758-0.522
				s1.527-1.004,1.527-1.004s-0.734-3.035-0.981-3.5C344.396,177.302,344.363,176.166,342.712,176.68z"/>
		</g>
	</g>
	<g>
		<path fill="#FEC7C7" d="M334.23,164.238c0,0-0.551,0.438-0.91,1.361s-0.612,1.711-0.588,1.874
			c0.023,0.162,0.162,0.509-0.051,1.168c-0.213,0.658,0.456,3.951,1.17,4.276c0.713,0.325,4.011-0.783,4.377-1.253
			c0.367-0.469,1.306-2.375,1.421-3.656c0.115-1.282,0.492-2.776-1.363-3.55C336.431,163.687,334.23,164.238,334.23,164.238z"/>
		<g>
			
				<linearGradient id="SVGID_4_" gradientUnits="userSpaceOnUse" x1="1613.1011" y1="204.6201" x2="1612.4915" y2="204.6896" gradientTransform="matrix(0.995 0.1 -0.1 0.995 -1250.9182 -195.8364)">
				<stop  offset="0.1224" style="stop-color:#FEC7C7"/>
				<stop  offset="0.9896" style="stop-color:#FFDBDB"/>
			</linearGradient>
			<path fill="url(#SVGID_4_)" d="M333.802,167.825c0.07,0.363-0.869,1.846-0.912,2.177c-0.042,0.331,0.889,0.309,0.889,0.309
				L333.802,167.825z"/>
			
				<linearGradient id="SVGID_5_" gradientUnits="userSpaceOnUse" x1="1612.3823" y1="204.6309" x2="1613.354" y2="204.6309" gradientTransform="matrix(0.995 0.1 -0.1 0.995 -1250.9182 -195.8364)">
				<stop  offset="0.188" style="stop-color:#FFDCDC"/>
				<stop  offset="0.8991" style="stop-color:#FEC7C7"/>
			</linearGradient>
			<path fill="url(#SVGID_5_)" d="M333.6,170.358c-0.22-0.009-0.572-0.048-0.705-0.195c-0.043-0.049-0.062-0.104-0.054-0.167
				c0.019-0.146,0.188-0.476,0.384-0.858c0.253-0.494,0.567-1.107,0.529-1.303l0.097-0.019c0.044,0.229-0.252,0.807-0.538,1.366
				c-0.185,0.359-0.357,0.698-0.373,0.827c-0.005,0.033,0.004,0.062,0.028,0.088c0.134,0.148,0.631,0.169,0.81,0.166l0.003,0.098
				C333.76,170.361,333.691,170.362,333.6,170.358z"/>
		</g>
		<g>
			<path fill="#754554" d="M336.509,168.174l-0.408-0.138c-0.987-0.229-1.497-0.114-1.503-0.113l-0.038-0.159
				c0.021-0.006,0.547-0.126,1.586,0.115l0.416,0.14L336.509,168.174z"/>
		</g>
		<g>
			<path fill="#754554" d="M333.523,167.613c-0.229-0.159-0.613-0.368-0.732-0.342l-0.034-0.161c0.236-0.048,0.759,0.297,0.86,0.367
				L333.523,167.613z"/>
		</g>
		
			<ellipse transform="matrix(0.96 0.2799 -0.2799 0.96 60.612 -87.1706)" fill="#FFFFFF" cx="335.465" cy="168.6" rx="0.345" ry="0.295"/>
		
			<ellipse transform="matrix(0.6995 -0.7146 0.7146 0.6995 -20.0286 288.7245)" fill="#FFFFFF" cx="333.305" cy="168.178" rx="0.242" ry="0.278"/>
		<path fill="#FB7F9E" d="M334.834,171.483c0,0-0.946-0.328-1.328-0.38s-0.408,0.079-0.381,0.208S333.745,172.381,334.834,171.483z"
			/>
		<path fill="#754554" d="M340.12,168.5c0,0-0.301-0.389-0.527-0.258c-0.227,0.131-0.651,0.309-0.669,0.486
			c-0.018,0.179-0.182,1.142-0.182,1.142s-0.408-0.714-0.336-1.427c0.071-0.712-0.148-1.708-0.438-2.15s-0.58-1.125-1.262-1.233
			c-0.683-0.109-1.629,0.022-2.185-0.02c-0.556-0.043-0.782-0.241-0.782-0.241l-0.501,1.011c0,0,0.03-0.505,0.341-1.069
			c0.31-0.564,2.567-3.136,5.733-1.352c2.326,1.126,2.173,3.71,1.813,4.647c-0.36,0.937-1.456,1.768-1.568,2.055
			c-0.111,0.288-0.413,0.691-0.414,0.958c0,0.267,0.132-1,0.356-1.537C339.725,168.976,340.12,168.5,340.12,168.5z"/>
		
			<linearGradient id="SVGID_6_" gradientUnits="userSpaceOnUse" x1="1618.272" y1="204.4121" x2="1619.853" y2="204.4121" gradientTransform="matrix(0.995 0.1 -0.1 0.995 -1250.9182 -195.8364)">
			<stop  offset="0.1224" style="stop-color:#FEB9B8"/>
			<stop  offset="1" style="stop-color:#FFDEDE"/>
		</linearGradient>
		<path fill="url(#SVGID_6_)" d="M339.272,168.71c0,0,0.815-0.818,1.11-0.175c0.296,0.643-0.357,1.37-0.779,1.722
			c-0.422,0.351-0.731,0.446-0.852,0.254c-0.121-0.192,0.196-0.894,0.196-0.894L339.272,168.71z"/>
		<circle fill="#EFF0F5" cx="338.884" cy="170.475" r="0.165"/>
		
			<linearGradient id="SVGID_7_" gradientUnits="userSpaceOnUse" x1="1618.5269" y1="204.3057" x2="1619.6226" y2="204.3057" gradientTransform="matrix(0.995 0.1 -0.1 0.995 -1250.9182 -195.8364)">
			<stop  offset="0.1224" style="stop-color:#FCA4B5"/>
			<stop  offset="0.9896" style="stop-color:#FFADB7"/>
		</linearGradient>
		<path fill="url(#SVGID_7_)" d="M339.39,168.723c0,0,0.521-0.468,0.737-0.106c0.217,0.362,0.033,0.997-0.517,1.528
			c-0.529,0.194-0.606-0.034-0.6-0.1s0.209-0.359,0.235-0.62C339.273,169.164,339.39,168.723,339.39,168.723z"/>
	</g>
</g>
</svg>
