<?xml version="1.0" encoding="utf-8"?>
<!-- Generator: Adobe Illustrator 16.0.0, SVG Export Plug-In . SVG Version: 6.00 Build 0)  -->
<!DOCTYPE svg PUBLIC "-//W3C//DTD SVG 1.1//EN" "http://www.w3.org/Graphics/SVG/1.1/DTD/svg11.dtd">
<svg version="1.1" id="Layer_1" xmlns="http://www.w3.org/2000/svg" xmlns:xlink="http://www.w3.org/1999/xlink" x="0px" y="0px"
	 width="463.683px" height="425.749px" viewBox="0 0 463.683 425.749" enable-background="new 0 0 463.683 425.749"
	 xml:space="preserve">
<g>
	<path fill="#BDD6F2" d="M28.279,180.405c4.32,2.749,11.524,3.047,16.093,0.666c4.569-2.382,4.771-6.54,0.451-9.289
		c-4.319-2.749-11.524-3.046-16.093-0.665C24.162,173.499,23.96,177.657,28.279,180.405z"/>
	<g>
		<g>
			<path fill="#6C6B79" d="M30.292,174.909c0,0-0.216,0.11-0.227,0.271c-0.011,0.16-0.018,0.602-0.016,0.707
				c0,0.104,0.274,0.508,0.945,0.665c0.67,0.156,2.3-0.276,2.849-0.596c0.549-0.321,1.298-1.137,1.526-1.199
				c0.228-0.062,0.908,0.063,0.908,0.063l0.614-0.051l1.01-0.359c0,0,0.132-0.677-0.145-0.89
				C37.479,173.305,30.292,174.909,30.292,174.909z"/>
			<path fill="#C2D2EA" d="M34.091,172.159c0,0-0.798,0.505-0.94,0.648c-0.142,0.143-1.583,0.728-2.083,1.032
				c-0.5,0.305-0.876,0.827-0.909,0.998c-0.033,0.171-0.109,0.561-0.051,0.725c0.058,0.163,0.318,0.598,1.182,0.651
				c0.863,0.054,2.62-0.767,2.62-0.767s1.217-0.83,1.396-0.914c0.179-0.085,1.768-0.486,2.009-0.567
				c0.242-0.08,0.38-0.115,0.416-0.309s0.24-1.254,0.112-1.589C37.714,171.733,34.796,171.3,34.091,172.159z"/>
		</g>
		<g>
			<path fill="#6C6B79" d="M36.033,177.603c0,0-0.236,0.004-0.292,0.319c-0.057,0.314-0.049,0.688-0.049,0.688
				s0.294,0.45,1.282,0.575c0.988,0.124,2.197-0.241,2.817-0.592c0.62-0.351,0.842-0.636,1.216-1.155s0.76-0.767,0.76-0.767
				l0.158,0.042c0,0,0.886-0.644,1.031-0.867c0.075-0.187,0.131-1.14-0.005-1.227C42.815,174.533,36.033,177.603,36.033,177.603z"/>
			<path fill="#C2D2EA" d="M38.743,174.044l-0.274,0.656c0,0-1.615,1.569-2.053,2.036c-0.438,0.468-0.664,0.878-0.683,1.302
				c-0.02,0.425,1.083,0.699,1.248,0.71c0.166,0.012,0.897,0.084,1.835-0.266c0.938-0.349,1.325-0.686,2.078-1.505
				c0.753-0.82,1.263-1.27,1.494-1.457c0.231-0.188,0.567-0.486,0.563-0.728c-0.004-0.243,0.034-0.923-0.164-1.007
				C42.588,173.702,39.375,173.441,38.743,174.044z"/>
		</g>
		<path fill="#4F5997" d="M37.601,171.55c0,0-0.216,0.402-0.72,0.624c-0.515,0.228-1.325,0.266-2.511-0.505
			c0,0-0.281-14.772-1.102-19.103l3.532,6.23l1.481,0.053l0.002,0c0,0,0.611,4.75,0.245,7.245
			C38.16,168.59,37.601,171.55,37.601,171.55z"/>
		<path fill="#4F5997" d="M38.35,158.685c-0.018,0.058-0.039,0.111-0.064,0.165l-0.002,0c-0.218,0.463-0.693,0.738-1.24,0.858
			c-1.08,0.24-2.436-0.125-2.671-0.847c-0.015-0.044-0.03-0.098-0.048-0.156c-0.426-1.416-1.333-7.374-1.905-11.801
			c-0.595-4.615,0.555-6.817,0.555-6.817l5.634,1.023c0,0,0.049,2.72,0.067,5.981C38.699,151.56,38.636,157.784,38.35,158.685z"/>
		<path fill="#A8B0C2" d="M37.601,171.55c0,0-0.216,0.402-0.72,0.624c0.38-2.471,0.997-6.694,0.893-7.563
			c-0.066-0.584-0.214-3.444-0.374-4.82c-1.08-9.347-0.952-12.246-0.952-12.246l-1.202-1.833l3.429,1.379
			c0.023,4.469-0.04,10.693-0.326,11.594c-0.018,0.058-0.039,0.111-0.064,0.165c0,0,0.611,4.75,0.245,7.245
			C38.16,168.59,37.601,171.55,37.601,171.55z"/>
		<path fill="#4F5997" d="M35.126,143.015l-0.787,0.923c0,0-0.069,1.14,2.449,3.034c0.016,2.672,1.005,11.211,1.834,13.246
			c0.83,2.035,3.396,0.455,3.831-1.91c0.434-2.364,2.365-9.778,2.531-11.602c0.166-1.824,0.345-4.664-0.918-5.739
			C42.802,139.893,35.126,143.015,35.126,143.015z"/>
		<path fill="#4F5997" d="M39.192,173.711c0.473-1.655,0.107-10.871-0.569-13.494c3.487-2.029,3.933-2.423,3.933-2.423
			s1.272,6.75,1.223,8.09s-1.128,7.875-1.128,7.875S40.899,175.43,39.192,173.711z"/>
		<g>
			<path fill="#8C92B0" d="M41.886,174.659l-0.247-0.054c0.012-0.053,1.173-5.327,1.184-7.978c0.009-2.032-0.489-4.542-0.854-6.375
				c-0.169-0.854-0.303-1.528-0.334-1.91c-0.032-0.376,0.23-1.504,0.593-3.064c0.804-3.46,2.019-8.69,1.155-10.567l0.23-0.106
				c0.9,1.956-0.327,7.236-1.138,10.73c-0.344,1.48-0.616,2.649-0.588,2.986c0.031,0.367,0.164,1.035,0.331,1.881
				c0.366,1.843,0.867,4.369,0.859,6.426C43.065,169.306,41.898,174.606,41.886,174.659z"/>
		</g>
	</g>
	<g>
		<path fill="#6A3646" d="M40.49,111.544c0,0,1.302-0.948,2.6-0.004c1.082,0.787,1.364,2.829,0.452,5.11
			c-0.583,1.457-0.062,4.277,1.61,4.572c-1.001,0.999-3.657,0.424-4.226-1.069C40.356,118.661,40.49,111.544,40.49,111.544z"/>
		<g>
			<path fill="#FEBFBF" d="M35.596,120.6c0,0-1.605,0.008-2.084,1.083c-0.479,1.076-1.691,8.114-2.379,9.699
				c-0.688,1.585,1.703,2.397,2.302,1.514C34.034,132.012,35.596,120.6,35.596,120.6z"/>
			<path fill="#FEBFBF" d="M32.142,131.321c0,0-0.438-0.888-0.911-0.622c-1.102,0.618-6.122,2.099-6.122,2.099
				s-0.596,1.448,0.059,2.092c0.245,0.06,7.484-0.629,7.757-1.656S32.142,131.321,32.142,131.321z"/>
			<path fill="#FEBFBF" d="M25.356,134.89c0,0-0.427,0.146-0.589,0.194c-0.162,0.048-0.334,0.103-0.334,0.103l-0.628,0.222
				c0,0-1.993-0.598-2.173-0.74s-0.521-0.525-0.521-0.525l0.206-1.415c0,0,1.228-0.288,1.359-0.307s2.433,0.376,2.433,0.376
				S25.617,134.425,25.356,134.89z"/>
			<g>
				<path fill="#C4C8D8" d="M24.307,135.204c-0.055-0.487-0.125-0.7-0.18-1.188c-0.018-0.113-0.202-0.292-0.424-0.388
					c-1.953-0.873-3.169-1.416-5.118-2.286c-0.138-0.063-0.169-0.363-0.234-0.34c-0.022,0.008-0.123,0.306-0.133,0.323
					c-0.007,0.013-0.011,0.029-0.01,0.047c0.056,0.487,0.111,0.977,0.166,1.463c0,0.001,0,0.003,0,0.004
					c0.013,0.112,0.214,0.288,0.424,0.385c1.949,0.87,3.165,1.413,5.118,2.286c0.163,0.071,0.309,0.083,0.359,0.032l0.129-0.321
					C24.405,135.221,24.308,135.205,24.307,135.204z"/>
				<path fill="#F5F5F5" d="M18.422,131.123c-0.011-0.096,0.134-0.107,0.316-0.026c1.928,0.861,3.125,1.396,5.059,2.259
					c0.183,0.082,0.345,0.23,0.356,0.326c0.054,0.479,0.109,0.958,0.163,1.437c0.011,0.096-0.133,0.108-0.316,0.026
					c-1.934-0.864-3.13-1.398-5.059-2.26c-0.183-0.082-0.346-0.23-0.356-0.326C18.531,132.081,18.477,131.602,18.422,131.123
					L18.422,131.123z M24.413,135.179c0-0.002,0-0.003-0.001-0.005c-0.055-0.486-0.11-0.976-0.166-1.462
					c-0.018-0.113-0.202-0.292-0.424-0.388c-1.954-0.873-3.17-1.416-5.118-2.286c-0.223-0.102-0.384-0.078-0.377,0.031
					c0.056,0.486,0.111,0.976,0.166,1.462c0,0.002,0,0.003,0.001,0.005c0.013,0.112,0.213,0.288,0.424,0.384
					c1.948,0.87,3.165,1.413,5.118,2.286C24.245,135.296,24.425,135.291,24.413,135.179L24.413,135.179z"/>
				<path fill="#7C78F0" d="M18.721,131.771l0.028-0.003l0.026,0.027c0.014,0.119,0.027,0.236,0.041,0.354l-0.023,0.004
					l-0.032-0.029C18.748,132.006,18.735,131.889,18.721,131.771L18.721,131.771z M18.746,132.196l0.051-0.004l0.058,0.053
					l-0.051,0.004L18.746,132.196L18.746,132.196z M18.739,132.297l0.069-0.009l0.079,0.074l-0.07,0.006L18.739,132.297
					L18.739,132.297z M24.316,135.119c-0.054-0.479-0.109-0.958-0.163-1.437c-0.011-0.096-0.173-0.244-0.356-0.326
					c-1.934-0.863-3.13-1.398-5.059-2.259c-0.183-0.082-0.327-0.07-0.316,0.026c0.055,0.479,0.109,0.958,0.163,1.437
					c0.011,0.096,0.173,0.245,0.356,0.326c1.928,0.861,3.125,1.396,5.059,2.26C24.183,135.227,24.327,135.215,24.316,135.119
					L24.316,135.119z"/>
				<path fill="#2A2A2C" d="M18.816,132.149c-0.014-0.119-0.027-0.236-0.041-0.354l-0.026-0.027l-0.028,0.003
					c0.014,0.118,0.027,0.235,0.04,0.354l0.032,0.029L18.816,132.149L18.816,132.149z"/>
				<path fill="#838383" d="M18.763,132.308l0.047-0.004l0.047,0.046l-0.042,0.003L18.763,132.308L18.763,132.308z M18.887,132.362
					l-0.079-0.074l-0.069,0.009l0.079,0.071L18.887,132.362L18.887,132.362z"/>
				<polygon fill="#516F83" points="18.857,132.35 18.81,132.304 18.763,132.308 18.815,132.353 18.857,132.35 				"/>
				<polygon fill="#2A2A2C" points="18.855,132.245 18.797,132.192 18.746,132.196 18.804,132.249 18.855,132.245 				"/>
			</g>
			<path fill="#E6F1FF" d="M33.324,126.711c0,0-0.98-0.849-1.141-1.15s-0.285-0.758-0.285-0.758s1.355-2.795,1.484-3.152
				c0.522-1.454,1.722-1.207,2.652-1.453S33.324,126.711,33.324,126.711z"/>
			
				<linearGradient id="SVGID_1_" gradientUnits="userSpaceOnUse" x1="549.1274" y1="184.333" x2="548.0764" y2="182.7565" gradientTransform="matrix(0.9999 0.0136 -0.0136 0.9999 -522.6223 -57.8325)">
				<stop  offset="0.1224" style="stop-color:#FEB9B8"/>
				<stop  offset="1" style="stop-color:#FFDEDE"/>
			</linearGradient>
			<path fill="url(#SVGID_1_)" d="M25.109,132.798l-0.273-0.048c0,0-1.007-0.578-1.171-0.615c-0.164-0.038-0.415-0.116-0.415-0.116
				l-1.201,0.522l-0.146,0.443c0,0-0.209,0.364-0.221,0.43c-0.012,0.066,0.425,0.254,0.577,0.067
				c0.152-0.187,0.328-0.454,0.328-0.454l0.743-0.202c0,0-0.002,0.452,0.42,0.765c0.423,0.313,1.09,0.448,1.329,0.208
				C25.316,133.56,25.358,133.081,25.109,132.798z"/>
			
				<linearGradient id="SVGID_2_" gradientUnits="userSpaceOnUse" x1="547.353" y1="185.876" x2="547.7415" y2="185.0698" gradientTransform="matrix(0.9999 0.0136 -0.0136 0.9999 -522.6223 -57.8325)">
				<stop  offset="0.1224" style="stop-color:#FEB9B8"/>
				<stop  offset="1" style="stop-color:#FFDEDE"/>
			</linearGradient>
			<path fill="url(#SVGID_2_)" d="M22.353,134.89c0,0-0.109-0.352-0.198-0.427c-0.089-0.076-0.669-0.199-0.669-0.199l-0.314-0.127
				l-0.087,0.036l0.121,0.405l0.401,0.267l0.232,0.378l0.558,0.076c0,0,0.249,0.262,0.419,0.309s0.995-0.222,1.07-0.29
				s0.192-0.197,0.111-0.339c-0.082-0.143-0.322-0.086-0.322-0.086l-0.373,0.131c0,0,0.024-0.188-0.082-0.266
				c-0.105-0.078-0.263-0.059-0.263-0.059L22.353,134.89z"/>
			
				<linearGradient id="SVGID_3_" gradientUnits="userSpaceOnUse" x1="546.8032" y1="185.396" x2="547.6372" y2="185.396" gradientTransform="matrix(0.9999 0.0136 -0.0136 0.9999 -522.6223 -57.8325)">
				<stop  offset="0.1224" style="stop-color:#FCA4B5"/>
				<stop  offset="0.9896" style="stop-color:#FFADB7"/>
			</linearGradient>
			<path fill="url(#SVGID_3_)" d="M22.353,134.89c0,0-0.045,0.111-0.176,0.127c-0.131,0.016-0.571-0.173-0.571-0.173l0.056,0.09
				c0,0,0.471,0.192,0.534,0.193c0.064,0,0.244-0.221,0.244-0.221L22.353,134.89z"/>
			
				<linearGradient id="SVGID_4_" gradientUnits="userSpaceOnUse" x1="547.6343" y1="185.5259" x2="548.9097" y2="185.5259" gradientTransform="matrix(0.9999 0.0136 -0.0136 0.9999 -522.6223 -57.8325)">
				<stop  offset="0.1224" style="stop-color:#FCA4B5"/>
				<stop  offset="0.9896" style="stop-color:#FFADB7"/>
			</linearGradient>
			<path fill="url(#SVGID_4_)" d="M23.29,135.055l-0.228,0.126l-0.631,0.152l0.046,0.044l0.699-0.162c0,0,0.51-0.199,0.536-0.331
				c-0.083,0.022-0.41,0.137-0.41,0.137L23.29,135.055z"/>
		</g>
		<path fill="#DDE8F6" d="M44.23,142.027c0,0-2.083,1.614-6.186,0.96c-4.024-0.641-4.983-1.469-5.079-2.381
			c1.021-5.004,0.765-6.293,0.35-8.369c-0.714-2.399-0.676-3.233-0.649-3.894c0.026-0.661,0.707-2.101,1.24-4.118
			c0.534-2.018,1.183-3.577,1.502-3.79s1.172-0.016,3.548,0.082c2.375,0.098,2.714-0.444,3.896,0.403s2.315,1.896,2.797,2.506
			c0.481,0.609,0.835,1.53,0.895,1.989c0.06,0.458-1.887,5.743-1.975,8.765C44.48,137.202,44.23,142.027,44.23,142.027z"/>
		<path fill="#DDE8F6" d="M42.273,128.076c0,0-0.092,1.147-0.152,1.581c-0.059,0.433-0.111,0.731-0.111,0.731
			s0.278,0.474,0.437,0.913c0.159,0.438,0.073,5.796-0.05,6.594s-1.187,5.907-1.187,5.907l0.972-0.091l2.157-7.932L42.273,128.076z"
			/>
		<path fill="#FEBFBF" d="M43.24,121.356c0,0-0.677-0.629-0.775-0.68c-0.098-0.05-0.437-0.387-1.496-0.573
			c-1.059-0.187-2.208-0.149-3.196,0.905c-0.987,1.055-0.987,1.055-0.987,1.055s-0.463,1.369-0.397,1.772
			c0.065,0.404,0.309,1.061,1.63,1.208c1.322,0.147,3.056-1.664,3.852-2.309S43.384,121.894,43.24,121.356z"/>
		
			<linearGradient id="SVGID_5_" gradientUnits="userSpaceOnUse" x1="567.5981" y1="170.6519" x2="562.8305" y2="168.7253" gradientTransform="matrix(0.9999 0.0136 -0.0136 0.9999 -522.6223 -57.8325)">
			<stop  offset="0.1224" style="stop-color:#FEC7C7"/>
			<stop  offset="0.9694" style="stop-color:#FFADB7"/>
		</linearGradient>
		<path fill="url(#SVGID_5_)" d="M37.337,119.313c0,0,0.476,1.734,0.347,2.466c-0.128,0.732-0.494,1.065-0.397,1.172
			c0.096,0.106,2.027,0.842,2.931,0.579c0.904-0.264,2.677-2.051,2.425-2.44c-0.251-0.39-0.177-0.412-0.177-0.412
			s-0.789-0.717-0.956-1.22c-0.167-0.502-0.654-4.286-0.668-4.353C40.827,115.038,37.337,119.313,37.337,119.313z"/>
		
			<linearGradient id="SVGID_6_" gradientUnits="userSpaceOnUse" x1="564.0513" y1="170.667" x2="564.6612" y2="171.3678" gradientTransform="matrix(0.9999 0.0136 -0.0136 0.9999 -522.6223 -57.8325)">
			<stop  offset="0.1224" style="stop-color:#FCA4B5"/>
			<stop  offset="0.9896" style="stop-color:#FFADB7"/>
		</linearGradient>
		<path fill="url(#SVGID_6_)" d="M37.68,121.047l0.016,0.645c0,0,0.042,0.967,0.927,0.491s0.493-1.141,0.992-1.653
			c0.498-0.512,0.797-1.343,0.638-1.695S37.892,119.841,37.68,121.047z"/>
		<path fill="#FEC7C7" d="M40.894,116.125c0,0-0.6,0.169-0.594,0.502c0.005,0.334,0.2,2.164-0.029,2.739s-2.742,2.129-3.899,2.092
			c-0.579-0.345-0.981-1.26-1.137-1.543c-0.154-0.283-0.626-1.199-0.776-1.903c-0.15-0.704,0.23-0.667-0.499-1.469
			c-0.094-0.703,0.045-2.589,0.359-2.841c0.313-0.252,1.531-1.65,3.11-1.462S41.465,114.55,40.894,116.125z"/>
		<g>
			
				<linearGradient id="SVGID_7_" gradientUnits="userSpaceOnUse" x1="560.1079" y1="168.814" x2="559.258" y2="169.4538" gradientTransform="matrix(0.9999 0.0136 -0.0136 0.9999 -522.6223 -57.8325)">
				<stop  offset="0.1224" style="stop-color:#FEC7C7"/>
				<stop  offset="0.9896" style="stop-color:#FFDBDB"/>
			</linearGradient>
			<path fill="url(#SVGID_7_)" d="M34.788,117.559c0.038,0.22-0.419,1.658-0.416,1.932s1.321-0.041,1.321-0.041L34.788,117.559z"/>
			
				<linearGradient id="SVGID_8_" gradientUnits="userSpaceOnUse" x1="559.311" y1="168.8369" x2="560.6899" y2="168.8369" gradientTransform="matrix(0.9999 0.0136 -0.0136 0.9999 -522.6223 -57.8325)">
				<stop  offset="0.188" style="stop-color:#FFDCDC"/>
				<stop  offset="0.8991" style="stop-color:#FEC7C7"/>
			</linearGradient>
			<path fill="url(#SVGID_8_)" d="M34.611,119.646c-0.104-0.004-0.189-0.022-0.236-0.059c-0.032-0.025-0.049-0.059-0.05-0.098
				c-0.001-0.134,0.098-0.516,0.203-0.92c0.108-0.421,0.232-0.897,0.214-1.004l0.092-0.016c0.021,0.118-0.072,0.489-0.216,1.042
				c-0.099,0.381-0.201,0.774-0.199,0.896c0,0.008,0.002,0.016,0.014,0.025c0.135,0.106,0.838-0.012,1.25-0.11l0.021,0.091
				C35.615,119.516,34.984,119.663,34.611,119.646z"/>
		</g>
		
			<ellipse transform="matrix(0.9933 0.1155 -0.1155 0.9933 13.8515 -3.4032)" fill="#FFFFFF" cx="36.292" cy="117.823" rx="0.306" ry="0.245"/>
		
			<ellipse transform="matrix(0.6313 0.7756 -0.7756 0.6313 103.7834 16.4859)" fill="#FFFFFF" cx="34.554" cy="117.389" rx="0.176" ry="0.153"/>
		<g>
			<path fill="#754554" d="M35.438,117.306l-0.079-0.135c0.017-0.009,0.423-0.242,1.658-0.098L37,117.228
				C35.834,117.094,35.442,117.304,35.438,117.306z"/>
		</g>
		<g>
			
				<rect x="33.83" y="116.609" transform="matrix(0.7442 0.668 -0.668 0.7442 86.6812 7.0414)" fill="#754554" width="0.634" height="0.156"/>
		</g>
		<path fill="#FB7F9E" d="M36.448,120.342c0,0-0.491,0.199-1.033-0.079c0.169,0.302,0.286,0.344,0.614,0.374
			C36.357,120.667,36.448,120.342,36.448,120.342z"/>
		<path fill="#FEBFBF" d="M36.148,120.289l-0.525-0.12l-0.226-0.013l-0.041-0.007l0.059,0.113c0,0,0.135,0.079,0.457,0.139
			s0.576-0.06,0.576-0.06L36.148,120.289z"/>
		<path fill="#754554" d="M39.803,118.095c0,0-0.842-1.107-1.061-1.901s-0.661-1.844-0.961-1.884c-0.3-0.04-1.676,0.14-2.493,0.061
			c-0.818-0.08-1.12-0.296-1.199-0.228c-0.079,0.067-0.033-0.628,0.897-1.77c0.93-1.142,1.924-2.208,4.465-1.89
			c2.542,0.319,3.25,2.913,3.144,3.956c-0.107,1.044-0.679,2.261-0.883,3.057c-0.204,0.795-0.397,0.97-0.262,1.722
			c-0.294-0.886-0.507-2.22-0.486-2.634c0.021-0.414-0.369-0.766-0.582-0.422s-0.607,0.636-0.509,1.101
			C39.97,117.728,39.803,118.095,39.803,118.095z"/>
		<g>
			<path fill="#FEBFBF" d="M42.394,128.772c0,0,1.113,7.539,1.173,8s1.901,0.954,2.458-0.743c0.556-1.696,0.423-7.557,0.376-8.308
				C46.353,126.97,42.533,126.924,42.394,128.772z"/>
			<path fill="#FEBFBF" d="M43.787,136.276c0,0-0.123-0.033-0.269,0.313c-0.146,0.346-1.114,5.411-1.557,6.718
				s-0.693,1.815-0.8,1.925c-0.107,0.11-0.799,0.751-0.904,0.925c-0.105,0.175-0.555,1.206-0.555,1.206s-0.197,0.855-0.318,1.046
				c-0.121,0.191-0.383,0.589-0.383,0.589s0.093,0.239,0.375,0.157c0.282-0.082,0.523-0.419,0.672-0.631s0.436-1.065,0.436-1.065
				l0.175-0.016c0,0,0.036,0.562-0.002,0.797c-0.039,0.237-0.516,1.148-0.516,1.148s-0.561,0.125-0.688,0.2
				c-0.127,0.075-0.206,0.203-0.216,0.303c-0.01,0.1,1.205,0.05,1.205,0.05s0.307,0.152,0.413,0.17
				c0.106,0.017,0.438,0.014,0.438,0.014l0.304-0.455l0.454-0.162c0,0,0.853-1.31,1.019-1.896c0.166-0.585,0.154-1.763,0.23-2.114
				c0.077-0.351,3.261-8.387,2.723-9.471C45.033,135.656,43.787,136.276,43.787,136.276z"/>
			
				<linearGradient id="SVGID_9_" gradientUnits="userSpaceOnUse" x1="526.23" y1="186.9614" x2="527.3032" y2="186.9614" gradientTransform="matrix(1 0.0016 -0.0016 1 -485.4869 -38.4885)">
				<stop  offset="0.1224" style="stop-color:#FCA4B5"/>
				<stop  offset="0.9896" style="stop-color:#FFADB7"/>
			</linearGradient>
			<path fill="url(#SVGID_9_)" d="M41.518,148.599c0,0-0.609,1.068-0.662,1.156c-0.052,0.087-0.414,0.188-0.414,0.188l0.195,0.091
				l0.288-0.159C40.926,149.875,41.515,148.694,41.518,148.599z"/>
			
				<linearGradient id="SVGID_10_" gradientUnits="userSpaceOnUse" x1="527.0815" y1="187.1055" x2="527.77" y2="187.1055" gradientTransform="matrix(1 0.0016 -0.0016 1 -485.4869 -38.4885)">
				<stop  offset="0.1224" style="stop-color:#FCA4B5"/>
				<stop  offset="0.9896" style="stop-color:#FFADB7"/>
			</linearGradient>
			<polygon fill="url(#SVGID_10_)" points="41.984,148.796 41.294,150.126 41.598,149.671 			"/>
			<path fill="#E6F1FF" d="M42.454,129.134c0,0-0.48-1.853-0.084-3.462c0.396-1.609,1.528-2.242,2.181-2.463
				c0.652-0.22,1.012,0.141,1.172,0.332s1.01,1.444,1.091,2.235c0.082,0.792,0.165,2.558,0.165,2.558s-0.453,0.465-1.759,0.539
				C43.913,128.947,42.454,129.134,42.454,129.134z"/>
		</g>
		
			<linearGradient id="SVGID_11_" gradientUnits="userSpaceOnUse" x1="245.8843" y1="48.6172" x2="247.1226" y2="48.6172" gradientTransform="matrix(0.9961 -0.0886 0.0886 0.9961 -209.0605 90.5222)">
			<stop  offset="0.1224" style="stop-color:#FEB9B8"/>
			<stop  offset="1" style="stop-color:#FFDEDE"/>
		</linearGradient>
		<path fill="url(#SVGID_11_)" d="M40.254,116.455c0,0,0.208-0.616,0.809-0.358s0.17,1.326-0.127,1.772
			c-0.297,0.446-0.573,0.413-0.668,0.154c-0.095-0.26,0.003-0.927,0.003-0.927L40.254,116.455z"/>
	</g>
</g>
</svg>
