<?xml version="1.0" encoding="utf-8"?>
<!-- Generator: Adobe Illustrator 16.0.0, SVG Export Plug-In . SVG Version: 6.00 Build 0)  -->
<!DOCTYPE svg PUBLIC "-//W3C//DTD SVG 1.1//EN" "http://www.w3.org/Graphics/SVG/1.1/DTD/svg11.dtd">
<svg version="1.1" id="Layer_1" xmlns="http://www.w3.org/2000/svg" xmlns:xlink="http://www.w3.org/1999/xlink" x="0px" y="0px"
	 width="463.683px" height="425.749px" viewBox="0 0 463.683 425.749" enable-background="new 0 0 463.683 425.749"
	 xml:space="preserve">
<g>
	<path fill="#D7E4F2" d="M255.733,199.817c-4.459-2.837-11.896-3.145-16.612-0.687s-4.925,6.75-0.466,9.588
		s11.896,3.145,16.612,0.686C259.983,206.947,260.192,202.654,255.733,199.817z"/>
	<g>
		<path fill="#FEBFBF" d="M237.446,154.473c0,0,0.088-1.406,0.207-2.037c0.221-1.174,1.809-4.822,2.498-5.442
			s3.121,2.186,3.121,2.186l-1.039,2.676c0,0-1.301,1.729-1.633,2.126C240.269,154.38,237.446,154.473,237.446,154.473z"/>
		<path fill="#FEBFBF" d="M246.797,140.965c0,0-2.675-1.279-4.282,0.471c-1.616,1.76-2.93,7.616-2.93,7.616s2.966,2.029,3.192,1.938
			c0.227-0.092,1.942-3.839,2.265-5.343C245.364,144.143,246.797,140.965,246.797,140.965z"/>
	</g>
	<g>
		<path fill="#626170" d="M238.178,202.611c0,0-0.27,0.137-0.283,0.337s-0.021,0.751-0.021,0.881
			c0.002,0.13,0.343,0.634,1.179,0.829s2.869-0.344,3.554-0.744c0.686-0.4,1.619-1.418,1.903-1.495
			c0.224-0.061,0.793,0.022,1.028,0.062c0.073,0.012,0.144,0.015,0.218,0.009l0.537-0.045c0.076-0.007,0.151-0.023,0.224-0.049
			l1.151-0.408c0,0,0.164-0.845-0.181-1.111C247.142,200.61,238.178,202.611,238.178,202.611z"/>
		<path fill="#C2D2EA" d="M242.917,199.181c0,0-0.995,0.631-1.172,0.809c-0.177,0.177-1.976,0.908-2.6,1.288
			c-0.623,0.38-1.093,1.03-1.134,1.244c-0.04,0.213-0.136,0.7-0.063,0.904s0.398,0.746,1.475,0.813
			c0.963,0.06,2.819-0.753,3.199-0.924c0.046-0.021,0.088-0.044,0.13-0.073c0.287-0.195,1.482-1.006,1.68-1.099
			c0.224-0.106,2.205-0.607,2.506-0.707c0.301-0.101,0.639-0.138,0.683-0.379c0.045-0.242,0.135-1.571-0.024-1.988
			C247.435,198.65,243.796,198.109,242.917,199.181z"/>
		<path fill="#5C617D" d="M247.614,199.359c-0.104,0.329-0.485,0.562-1.762,0.628c-0.147,0.007-0.295,0.013-0.442,0.014
			c-0.917,0.029-1.762-0.04-2.686-0.444c-0.323-0.142-0.541-0.462-0.545-0.815c-0.037-3.56-1.532-18.248-1.979-27.378
			c-0.283-5.774,0.97-8.708,0.97-8.708l6.168-0.354l0.226,15.234l-0.002,8.813C247.561,186.347,247.711,199.03,247.614,199.359z"/>
		<g>
			<path fill="#8C92B0" d="M245.864,200.011c-0.005-0.102-0.456-10.229-0.614-12.359c-0.158-2.136-0.287-14.247-0.288-14.369
				l0.237-0.002c0.001,0.122,0.13,12.226,0.288,14.354c0.158,2.133,0.609,12.265,0.614,12.366L245.864,200.011z"/>
		</g>
		<path fill="#A8B0C2" d="M247.614,199.359c-0.067,0.214-0.254,0.388-0.729,0.502c-0.567,0.091-1.033,0.126-1.476,0.14
			l-1.153-26.393c0,0-1.678-1.499-1.215-3.311c0.12-0.469,4.388,6.636,4.388,6.636l0.134,0.601l-0.002,8.813
			C247.561,186.347,247.711,199.03,247.614,199.359z"/>
		<g>
			<path fill="#6C6B79" d="M245.486,206.773l-0.369,0.355l-0.071,0.572c0,0,0.425,0.75,1.579,1.025
				c1.154,0.273,2.948-0.02,3.527-0.205s1.872-1.33,2.061-1.486c0.188-0.158,1.091-1.078,1.091-1.078l0.458,0.057l1.482-0.938
				c0,0,0.247-0.384,0.283-0.676c0.036-0.292,0.106-0.852,0.106-0.852s-0.058-0.631-0.47-0.771
				C254.752,202.636,245.486,206.773,245.486,206.773z"/>
			<path fill="#C2D2EA" d="M250.5,201.44c0,0-1.121,1.083-1.274,1.34c-0.152,0.257-0.444,0.66-0.789,0.939
				c-0.346,0.279-2.723,2.48-3.063,2.851c-0.339,0.371-0.252,0.779-0.259,0.83c-0.006,0.051,0.865,0.814,1.683,0.951
				s3.808-0.352,4.607-1.096s2.239-2.063,2.483-2.221c0.244-0.159,1.336-0.764,1.474-1.177c0.139-0.413,0.217-1.73,0.075-2.109
				C255.294,201.369,250.5,201.44,250.5,201.44z"/>
			<path fill="#5C617D" d="M255.145,202.714c-0.09,0.15-0.166,0.281-0.363,0.395c-0.282,0.173-0.833,0.322-2.056,0.48
				c-2.048,0.258-3.078-0.337-3.472-1.161c-0.838-9.217-1.533-13.882-1.816-15.482c-0.86-4.819-1.744-10.6-1.945-11.883
				c-0.201-1.283-1.264-1.726-2.126-3.401c-0.856-1.676,0.001-6.985,0.001-6.985s10.063-0.583,10.465,0.945
				c0.005,0.026,0.011,0.045,0.017,0.071c0.394,1.561,0.479,5.04,0.07,7.564c-1.037,6.376-0.41,11.423-0.41,11.423
				s0.17,1.108,0.941,4.458C255.221,192.494,255.366,202.346,255.145,202.714z"/>
			<g>
				<path fill="#8C92B0" d="M253.936,203.232c0.001-0.04,0.134-4.014-0.092-6.882c-0.286-3.629-0.845-5.746-1.339-7.614
					c-0.335-1.269-0.651-2.467-0.841-3.969c-0.399-3.191-0.059-7.325,0.217-10.646c0.047-0.559,0.091-1.097,0.129-1.605
					c0.268-3.483-0.167-5.255-0.172-5.272l0.229-0.058c0.019,0.073,0.449,1.82,0.178,5.348c-0.038,0.509-0.083,1.047-0.129,1.606
					c-0.274,3.311-0.615,7.43-0.217,10.598c0.187,1.486,0.501,2.677,0.834,3.938c0.496,1.877,1.058,4.005,1.346,7.655
					c0.227,2.882,0.094,6.869,0.092,6.909L253.936,203.232z"/>
			</g>
		</g>
		<g>
			<path fill="#8C92B0" d="M243.98,171.46c-0.074-0.003-0.154-0.028-0.235-0.073c-0.389-0.217-0.801-0.895-0.79-1.871
				c0.006-0.523,0.127-2.626,0.166-2.884l0.235,0.036c-0.034,0.221-0.158,2.303-0.164,2.851c-0.011,0.938,0.395,1.508,0.668,1.661
				c0.08,0.043,0.147,0.055,0.193,0.029c0.063-0.04,0.094-0.169,0.082-0.344c-0.078-1.225,0.096-4.061,0.3-4.188l0.06-0.038
				l0.068,0.035l-0.06,0.105l0.001-0.002l0.001,0.003l0.089,0.063c-0.086,0.188-0.317,2.524-0.222,4.006
				c0.022,0.348-0.093,0.496-0.193,0.56C244.12,171.446,244.052,171.463,243.98,171.46z M244.501,166.782l-0.056,0.099
				L244.501,166.782z"/>
		</g>
		<g>
			<path fill="#8C92B0" d="M250.05,171.636c-1.361-0.059-2.399-0.422-3.099-1.085c-0.906-0.861-0.882-1.904-0.881-1.948l0.238,0.008
				c-0.001,0.01-0.02,0.985,0.811,1.771c0.867,0.82,2.311,1.152,4.291,0.982l0.021,0.236
				C250.94,171.643,250.479,171.655,250.05,171.636z"/>
		</g>
		<path fill="#A76478" d="M254.085,166.924c0,0-1.761,1.372-5.322,1.092c-3.562-0.278-4.904-0.761-6.081-1.489
			c-1.178-0.729-1.89-1.645-1.89-1.645l0.246-1.371c0,0,0.654,1.146,2.334,1.953c1.681,0.806,5.323,1.148,6.809,1.224
			c1.484,0.076,3.794-0.845,3.794-0.845L254.085,166.924z"/>
		<path fill="#5C617D" d="M247.031,166.458c0,0-0.104,0.391-0.129,0.856c-0.023,0.465-0.023,1.322-0.023,1.322l-0.538-0.098
			c0,0-0.08-0.828-0.052-1.241c0.029-0.413,0.165-0.983,0.165-0.983L247.031,166.458z"/>
		<path fill="#5C617D" d="M252.191,166.579c0,0,0.089,0.395,0.093,0.86s-0.031,1.322-0.031,1.322l0.541-0.075
			c0,0,0.115-0.824,0.104-1.238s-0.122-0.989-0.122-0.989L252.191,166.579z"/>
		<path fill="#5C617D" d="M242.109,164.628c0,0-0.142,0.483-0.169,0.879c-0.028,0.396,0.031,1.074,0.031,1.074l-0.353-0.45
			c0,0-0.042-0.686-0.026-0.901c0.015-0.215,0.227-0.841,0.227-0.841L242.109,164.628z"/>
		<g>
			<path fill="#8C92B0" d="M240.357,166.833c-0.037-0.001-0.074-0.008-0.112-0.021l0.074-0.226c0.304,0.107,0.673-0.634,0.81-1.003
				l0.223,0.083C241.303,165.794,240.894,166.856,240.357,166.833z"/>
		</g>
		<g>
			<path fill="#CCDEFB" d="M244.38,167.614c-0.062-0.008-0.126-0.024-0.189-0.048l-0.999-0.37c-0.426-0.158-0.75-0.607-0.738-1.024
				l0.012-0.397c0.006-0.203,0.09-0.372,0.236-0.474c0.166-0.116,0.395-0.132,0.627-0.046l0.998,0.369
				c0.426,0.158,0.75,0.608,0.738,1.025l-0.011,0.398c-0.006,0.203-0.091,0.371-0.237,0.474
				C244.697,167.604,244.544,167.636,244.38,167.614z M243.137,165.664c-0.068-0.009-0.129,0.002-0.173,0.033
				c-0.046,0.031-0.069,0.082-0.071,0.148l-0.012,0.397c-0.006,0.195,0.184,0.438,0.403,0.521l0.999,0.369
				c0.107,0.04,0.206,0.036,0.271-0.008c0.046-0.032,0.069-0.082,0.071-0.148l0.012-0.397c0.006-0.196-0.183-0.439-0.403-0.521
				l-0.999-0.37C243.202,165.676,243.168,165.667,243.137,165.664z"/>
		</g>
	</g>
	<path fill="#DDE8F6" d="M254.899,157.677c-0.632,3.219-0.923,8.168-0.923,8.168c-0.153,0.147-0.332,0.28-0.528,0.393
		c-2.438,1.432-7.877,0.48-9.092,0.004c-2.008-0.784-3.316-2.083-3.343-2.347c-0.027-0.257-0.187-0.885-0.034-2.024
		c0.164-1.139,0.113-8.721,0.459-11.389c0.353-2.674,0.933-5.594,2.12-7.886c0.923-1.798,4.336-1.657,5.863-1.597
		c1.527,0.066,2.213,0.793,3.626,1.712c0.448,0.294,2.768,0.567,3.857,2.01c0.194,0.252,0.349,0.534,0.449,0.865
		C258.229,148.448,255.531,154.458,254.899,157.677z"/>
	<path fill="#FEBFBF" d="M256.537,144.252c0,0-0.783-0.574-1.436-0.82c-1.171,0.21-2.282,1.176-3.053,3.304
		c-0.771,2.127-1.896,6.07-1.661,7.531c0.236,1.46,4.127-0.045,4.127-0.045L256.537,144.252z"/>
	<path fill="#FEBFBF" d="M247.352,141.813c0,0-0.926-0.135-1.605,1.076c-0.679,1.211-0.948,4.681,0.893,5.601
		c1.841,0.919,5.219-3.803,5.43-4.047s1.53-0.993,0.96-1.599s-0.467-0.554-0.779-0.74
		C251.938,141.916,247.352,141.813,247.352,141.813z"/>
	<path fill="#FEBFBF" d="M246.792,141.1c0,0-1.813,0.59-2.561,2.017c-0.792,1.513-1.591,6.086-1.85,6.516s-0.917,0.656-0.917,0.656
		S241.352,140.354,246.792,141.1z"/>
	<path fill="#DDE8F6" d="M254.899,157.677c-0.632,3.219-0.923,8.168-0.923,8.168c-0.153,0.147-0.332,0.28-0.528,0.393
		c-0.296-0.57-0.447-1.18-0.557-2.215c-0.229-2.097-0.057-4.288,0.026-4.579c-0.107,0.252-0.445,0.621-1.559,0.52
		c-3.226-0.293-5.235-0.971-6.698-1.949c-1.462-0.985-2.004-1.307-2.004-1.307l-1.494,0.172l0.116-2.709l4.229,2.302l5.23-0.139
		l5.44-9.747c0,0,0.326-1.042,0.727-1.864c0.194,0.252,0.349,0.534,0.449,0.865C258.229,148.448,255.531,154.458,254.899,157.677z"
		/>
	<g>
		
			<linearGradient id="SVGID_1_" gradientUnits="userSpaceOnUse" x1="1119.8071" y1="221.5781" x2="1116.8855" y2="217.0365" gradientTransform="matrix(0.9958 0.0914 -0.0914 0.9958 -843.1835 -180.3286)">
			<stop  offset="0.1224" style="stop-color:#FEC7C7"/>
			<stop  offset="0.9694" style="stop-color:#FFADB7"/>
		</linearGradient>
		<path fill="url(#SVGID_1_)" d="M246.772,140.84c0,0,0.221,0.956,0.033,1.79c-0.188,0.834-0.639,0.959-0.207,1.276
			c0.431,0.318,1.721,0.923,3.365,0.353c1.645-0.571,2.671-1.753,2.495-2.022c-0.374-0.572-0.482-1.012-0.482-1.012
			s-0.368-1.237-0.103-2.712c0.265-1.476,1.878-3.123,1.408-3.852c-0.47-0.728-4.318-1.562-5.557,0.027
			C246.488,136.278,246.772,140.84,246.772,140.84z"/>
		<path fill="#E0B54B" d="M256.167,133.679c0,0,0.946-1.035,0.849-1.377c-0.099-0.343-0.641-1.299-1.466-1.375
			c-0.826-0.076-2.551-0.049-2.551-0.049l1.012,1.886L256.167,133.679z"/>
		<path fill="#F2D363" d="M253.847,133.951c0,0,0.506,0.286,0.634,0.726c0.129,0.44,0.047,0.933,0.047,0.933
			s1.469,0.338,1.704-0.418c0.236-0.756-0.021-1.39-0.021-1.39l-0.136-0.938l-1.473-0.676l-0.231,0.729l-0.308,0.569l-0.574,0.191
			L253.847,133.951z"/>
		<path fill="#F2D363" d="M255.779,132.059c0,0-0.5-0.602-0.762-1.181c-0.261-0.58-0.636-1.188-1.194-0.832
			c-0.558,0.356,0.103,1.231,0.103,1.231l1.416,1.111L255.779,132.059z"/>
		<path fill="#FEC7C7" d="M251.453,137.861c-0.282,0.916-0.65,1.762-0.966,2.246c-0.797,1.224-4.029,2.333-5.01,1.521
			c-0.45-0.375-0.59-1.7-0.61-3.058c-0.021-1.599,0.124-3.241,0.132-3.411c0.01-0.313,0.396-1.499,0.396-1.499
			s5.953-0.431,6.759,0.68C252.641,135.012,251.88,136.462,251.453,137.861z"/>
		<g>
			<path fill="#754554" d="M248.215,136.626c-0.718-0.404-1.794-0.382-1.805-0.381l-0.004-0.171
				c0.047-0.001,1.134-0.023,1.893,0.403L248.215,136.626z"/>
		</g>
		<g>
			<path fill="#754554" d="M245.602,135.88c-0.005-0.005-0.512-0.467-0.797-0.571l0.059-0.16c0.316,0.115,0.832,0.585,0.854,0.605
				L245.602,135.88z"/>
		</g>
		<g>
			
				<linearGradient id="SVGID_2_" gradientUnits="userSpaceOnUse" x1="1113.5581" y1="216.8271" x2="1112.5133" y2="217.0843" gradientTransform="matrix(0.9958 0.0914 -0.0914 0.9958 -843.1835 -180.3286)">
				<stop  offset="0.1224" style="stop-color:#FEC7C7"/>
				<stop  offset="0.9896" style="stop-color:#FFDBDB"/>
			</linearGradient>
			<path fill="url(#SVGID_2_)" d="M245.831,135.869c0.066,0.393-0.984,2.254-1.003,2.453c-0.018,0.2,1,0.506,1.427,0.495
				L245.831,135.869z"/>
			
				<linearGradient id="SVGID_3_" gradientUnits="userSpaceOnUse" x1="1112.5474" y1="216.8105" x2="1114.0708" y2="216.8105" gradientTransform="matrix(0.9958 0.0914 -0.0914 0.9958 -843.1835 -180.3286)">
				<stop  offset="0.188" style="stop-color:#FFDCDC"/>
				<stop  offset="0.8991" style="stop-color:#FEC7C7"/>
			</linearGradient>
			<path fill="url(#SVGID_3_)" d="M246.18,138.867c-0.411-0.018-1.17-0.237-1.354-0.435c-0.036-0.038-0.053-0.077-0.049-0.115
				c0.007-0.077,0.115-0.3,0.32-0.722c0.288-0.59,0.723-1.481,0.684-1.718l0.101-0.017c0.042,0.249-0.289,0.953-0.691,1.779
				c-0.15,0.308-0.306,0.625-0.312,0.688c0,0.005,0.005,0.018,0.021,0.035c0.162,0.172,0.971,0.411,1.353,0.403l0.004,0.103
				C246.232,138.868,246.207,138.868,246.18,138.867z"/>
		</g>
		<circle fill="#FFFFFF" cx="247.357" cy="137.013" r="0.306"/>
		
			<ellipse transform="matrix(0.9978 -0.0661 0.0661 0.9978 -8.4704 16.5199)" fill="#FFFFFF" cx="245.395" cy="136.255" rx="0.196" ry="0.269"/>
		<path fill="#CDA8AD" d="M250.975,137.221c-0.281,0.917-0.173,2.402-0.488,2.886c-0.797,1.224-4.029,2.333-5.01,1.521
			c-0.45-0.375-0.59-1.7-0.61-3.058l0.632,0.449l0.93,0.325c0,0,2.295,0.331,2.715,0.155c1.088-0.455,1.025-1.945,1.025-1.945
			L250.975,137.221z"/>
		<path fill="#754554" d="M250.893,137.553l-0.727,0.193c0,0,0.054-1.242-0.313-1.677c-0.365-0.434-1.204-1.369-1.204-1.369
			l2.456-0.948l2.91-0.431l0.422,1.447c0,0-0.326,1.544-0.819,2.276c-0.493,0.731-1.199,1.196-1.487,1.715
			c-0.212,0.383-0.35,0.614-0.35,0.614s-0.04-0.475,0.115-0.974c0.178-0.57,0.544-1.188,0.361-1.461
			c-0.342-0.513-0.798-0.563-0.986-0.321C251.083,136.859,250.893,137.553,250.893,137.553z"/>
		
			<linearGradient id="SVGID_4_" gradientUnits="userSpaceOnUse" x1="794.6665" y1="186.9561" x2="796.2827" y2="186.9561" gradientTransform="matrix(1 -0.0017 0.0017 1 -543.9082 -47.9065)">
			<stop  offset="0.1224" style="stop-color:#FEB9B8"/>
			<stop  offset="1" style="stop-color:#FFDEDE"/>
		</linearGradient>
		<path fill="url(#SVGID_4_)" d="M251.467,136.926c0,0,0.459-0.895,1.068-0.283c0.61,0.612-0.764,2.196-1.064,2.311
			s-0.48-0.668-0.352-0.85S251.467,136.926,251.467,136.926z"/>
		
			<linearGradient id="SVGID_5_" gradientUnits="userSpaceOnUse" x1="794.7466" y1="186.9951" x2="796.0571" y2="186.9951" gradientTransform="matrix(1 -0.0017 0.0017 1 -543.9082 -47.9065)">
			<stop  offset="0.1224" style="stop-color:#FCA4B5"/>
			<stop  offset="0.9896" style="stop-color:#FFADB7"/>
		</linearGradient>
		<path fill="url(#SVGID_5_)" d="M251.636,136.889c0,0,0.78-0.296,0.827,0.146s-0.866,1.593-1.029,1.643
			c-0.164,0.05-0.277-0.405-0.277-0.405L251.636,136.889z"/>
		<path fill="#754554" d="M250.655,136.552c0.02-0.001,0.188,0.645,0.921,1.063c-0.604-0.629-0.736-1.458-0.736-1.458
			s0.517,0.632,0.701,0.732c0.186,0.101,0.334,0.105,0.334,0.105l-0.331-0.238c0,0-0.42-0.461-0.404-0.838
			c0.017-0.377-0.218-0.455-0.218-0.455L250.655,136.552z"/>
		<path fill="#754554" d="M251.792,140.054c0,0,0.403-0.208,0.617-0.477c0.215-0.269,1.21-2.533,1.21-2.533
			s-1.272,1.099-1.458,1.411c-0.187,0.313-0.379,0.917-0.379,0.917S251.773,139.831,251.792,140.054z"/>
		<path fill="#F2D363" d="M254.76,133.483l0.219-0.165c0,0-0.58-1.553-1.979-2.44c-1.399-0.888-3.923-1.027-4.629-0.999
			c-0.706,0.027-1.762,0.634-1.896,1.085c-0.134,0.45-0.852,1.218-0.895,1.676c-0.042,0.459,2.464,2.003,2.464,2.003
			S253.791,135.171,254.76,133.483z"/>
		<path fill="#F2D363" d="M254.157,135.814c0,0-0.798,0.218-1.98,0.097c-1.374-0.141-3.358-0.239-4.935-0.606
			c-1.577-0.367-2.255-1.034-2.255-1.034s0.051-1.162,0.302-1.472c0.251-0.311,0.251-0.311,0.251-0.311s1.536,1.215,2.299,1.377
			s4.863,0.261,5.818-0.262c0.583-0.319,1.012-0.377,1.256-0.373c0.156,0.002,0.238,0.029,0.238,0.029l-0.184,0.389L254.157,135.814
			z"/>
		<path fill="#E0B54B" d="M251.655,133.828c0,0-1.86-0.504-2.266-0.726s-1.234-0.875-1.234-0.875S248.942,133.542,251.655,133.828z"
			/>
		<path fill="#E0B54B" d="M249.394,133.454c0,0-2.841-0.914-3.351-1.421C246.594,132.086,249.394,133.454,249.394,133.454z"/>
		<path fill="#E0B54B" d="M251.392,133.97c0,0-2.713,0.008-3.134-0.048c-0.42-0.056-1.162-0.374-1.162-0.374l-1.234-0.815
			c0,0,1.237,0.713,2.164,0.9C248.953,133.82,251.392,133.97,251.392,133.97z"/>
		<path fill="#E0B54B" d="M251.873,135.088c0,0-1.859,0.292-2.373,0.245c-0.515-0.047-3.677-0.893-3.677-0.893l3.965,0.771
			L251.873,135.088z"/>
		<path fill="#FEC7C7" d="M246.557,140.154c0,0-1.246,0.173-1.411-0.555C245.494,139.436,246.557,140.154,246.557,140.154z"/>
	</g>
	<g>
		<path fill="#FEBFBF" d="M257.883,147.254c0.014,0.416,0.109,2.998-1.028,4.65c-0.928,2.815-2.841,5.657-3.938,6.762
			c-0.529,0.528-1.026,0.641-1.45,0.52c-0.924-0.264-1.523-1.653-1.375-2.409c0.041-0.216,0.136-0.634,0.269-1.179
			c0.538-2.243,0.152-4.715,2.443-9.152c0.911-3.008,2.725-2.45,2.725-2.45C257.522,144.077,257.846,146.036,257.883,147.254z"/>
		
			<linearGradient id="SVGID_6_" gradientUnits="userSpaceOnUse" x1="955.686" y1="221.334" x2="948.3439" y2="223.8255" gradientTransform="matrix(0.9991 0.0431 -0.0431 0.9991 -694.2938 -105.6812)">
			<stop  offset="0.1224" style="stop-color:#FEBFBF"/>
			<stop  offset="0.9694" style="stop-color:#FFADB7"/>
		</linearGradient>
		<path fill="url(#SVGID_6_)" d="M251.411,159.723c-5.05-0.026-8.349-2.947-8.836-3.544c-0.486-0.597,2.202-0.43,2.274-0.325
			c0.072,0.112,0.882,0.051,1.993,0.105c1.111,0.061,3.16-0.536,3.16-0.536l0.357,0.176l0.959,0.464l1.358,2.21l0.239,0.394
			C252.917,158.667,253.305,158.709,251.411,159.723z"/>
		
			<linearGradient id="SVGID_7_" gradientUnits="userSpaceOnUse" x1="949.0327" y1="217.9395" x2="947.114" y2="222.5764" gradientTransform="matrix(0.9991 0.0431 -0.0431 0.9991 -694.2938 -105.6812)">
			<stop  offset="0.1224" style="stop-color:#FEC7C7"/>
			<stop  offset="0.9694" style="stop-color:#FFADB7"/>
		</linearGradient>
		<path fill="url(#SVGID_7_)" d="M250.888,152.856l-0.479,1.759l-0.406,0.809l-2.397,0.505c0,0-2.107-0.116-2.24,0
			c-0.133,0.109-2.964,0.577-4.256,0.559c-0.985-0.011-2.847-0.642-3.496-1.035c-0.206-0.124-0.206-0.553-0.163-0.973
			c0.031-0.274,0.075-0.541,0.096-0.72c0.203-1.905,2.873-1.464,2.873-1.464s1.27,0.567,1.959,0.763
			c0.689,0.19,3.948,0.337,4.42,0.229c0.472-0.107,2.184-0.61,2.742-0.502C250.099,152.893,250.888,152.856,250.888,152.856z"/>
		
			<linearGradient id="SVGID_8_" gradientUnits="userSpaceOnUse" x1="942.0532" y1="219.5791" x2="955.4185" y2="219.5791" gradientTransform="matrix(0.9991 0.0431 -0.0431 0.9991 -694.2938 -105.6812)">
			<stop  offset="0.1224" style="stop-color:#FCA4B5"/>
			<stop  offset="0.9896" style="stop-color:#FFADB7"/>
		</linearGradient>
		<path fill="url(#SVGID_8_)" d="M250.888,152.856l-0.479,1.759l-0.406,0.809l-2.397,0.505c0,0-2.107-0.116-2.24,0
			c-0.133,0.109-2.964,0.577-4.256,0.559c-0.985-0.011-2.847-0.642-3.496-1.035c-0.206-0.124-0.206-0.553-0.163-0.973
			c0.019,0.02,0.086,0.1,0.366,0.419c0.366,0.425,1.895,1.061,3.349,1.188c1.454,0.121,3.793-0.361,4.396-0.412
			c0.604-0.057,1.736,0.133,2.146-0.01c0.403-0.143,2.042-0.449,2.042-0.449l0.242-0.553L250.888,152.856z"/>
		<path fill="#FEBFBF" d="M256.855,151.905c-0.928,2.815-1.442,5.62-3.938,6.762L256.855,151.905z"/>
	</g>
	<path fill="#DDE8F6" d="M255.145,202.714c-0.09,0.15-0.166,0.281-0.363,0.395c-0.066-3.038-0.271-11.356-0.379-12.565
		c-0.135-1.485-0.976-3.365-1.354-6.307c-0.385-2.949,0.224-9.184,0.521-12.084c0.298-2.906-0.122-5.915-0.122-5.915
		c0.136-0.186,0.271-0.372,0.401-0.546c0.394,1.561,0.479,5.04,0.07,7.564c-1.037,6.376-0.41,11.423-0.41,11.423
		s0.17,1.108,0.941,4.458C255.221,192.494,255.366,202.346,255.145,202.714z"/>
	<path fill="#F2D363" d="M253.647,169.429c0,0,0.273,0.225-0.061,1.408c-0.335,1.184-0.642,6.108-0.606,7.257
		c0.483,0.234,1.204,1.808,1.204,1.808s0.899-2.651,0.742-4.551c-0.158-1.901,0.215-5.597,0.149-6.558s-1.266-0.901-1.266-0.901
		S254.165,168.84,253.647,169.429z"/>
</g>
</svg>
