<?xml version="1.0" encoding="utf-8"?>
<!-- Generator: Adobe Illustrator 16.0.0, SVG Export Plug-In . SVG Version: 6.00 Build 0)  -->
<!DOCTYPE svg PUBLIC "-//W3C//DTD SVG 1.1//EN" "http://www.w3.org/Graphics/SVG/1.1/DTD/svg11.dtd">
<svg version="1.1" id="Layer_1" xmlns="http://www.w3.org/2000/svg" xmlns:xlink="http://www.w3.org/1999/xlink" x="0px" y="0px"
	 width="463.683px" height="425.749px" viewBox="0 0 463.683 425.749" enable-background="new 0 0 463.683 425.749"
	 xml:space="preserve">
<g>
	<g>
		<path fill="#D7E4F2" d="M432.959,224.404c-4.051-2.578-10.808-2.857-15.093-0.624c-4.284,2.233-4.474,6.133-0.423,8.711
			c4.051,2.577,10.808,2.856,15.093,0.624C436.821,230.882,437.01,226.981,432.959,224.404z"/>
		<g>
			<path fill="#6C6B79" d="M417.083,227.461c0,0-0.265-0.144-0.355,0.316c-0.09,0.459-0.092,0.891-0.092,0.891
				s0.595,0.742,1.863,0.676c1.268-0.066,3.257-1.505,3.257-1.505s3.564-0.846,3.696-1.38c0.131-0.533-0.089-1.454-0.089-1.454
				l-4.021,0.979L417.083,227.461z"/>
			<path fill="#434254" d="M421.568,223.306c0,0-0.166,0.92-0.538,1.026c-0.372,0.107-3.843,2.309-4.085,2.504
				c-0.24,0.195-0.322,1.174-0.322,1.174s0.913,1.068,2.313,0.474c1.398-0.595,3.45-1.339,4.035-1.515
				c0.586-0.176,2.251-0.642,2.375-1.703c0.123-1.063-0.345-1.465-0.345-1.465L421.568,223.306z"/>
			<path fill="#3C3B4E" d="M427.249,200.163c-0.634,2.475-2.745,8.081-3.075,9.801c-0.103,0.526,0.248,0.804,0.064,1.262
				c-0.147,0.37-0.323,0.708-0.528,1c-0.002,0.002-0.002,0.004-0.002,0.004c-0.768,1.081-2.622,1.04-4.397,0.138
				c-0.024-0.424-0.046-0.838-0.062-1.244c-0.47-10.635,1.288-17.384,1.288-17.384l3.05,1.549c0,0,2.831,0.825,3.233,2.208
				C426.947,197.936,427.544,199.011,427.249,200.163z"/>
			<path fill="#3C3B4E" d="M425.145,223.369c-0.015,0.134-0.054,0.251-0.112,0.355c-0.582,1.024-3.583,0.959-3.557,0.646
				c0.029-0.345-1.931-10.254-2.166-12.003c-0.071-0.537-0.083-0.941-0.062-1.244c0.041-0.686,0.237-0.852,0.237-0.852l4.535,0.523
				h0.104c0,0,0.046,0.168,0.113,0.431c0.185,0.72,0.537,2.156,0.581,2.845C424.877,215.01,425.301,221.93,425.145,223.369z"/>
			<path fill="#A8B0C2" d="M425.145,223.369c-0.015,0.134-0.054,0.251-0.112,0.355c-0.136,0.228-0.245,0.277-0.494,0.438
				c-0.34-3.764-0.87-11.879-0.831-11.934c0,0-0.444-0.708-0.442-0.71c0.021-0.059-0.166-1.171-0.001-1.965
				c0.405-1.945,1.741-6.835,1.741-6.835l-0.204-1.137l-0.997-1.123l2.098-2.73l1.347,2.433c-0.634,2.475-2.745,8.081-3.075,9.801
				c-0.103,0.526,0.248,0.804,0.064,1.262c0.185,0.72,0.537,2.156,0.581,2.845C424.877,215.01,425.301,221.93,425.145,223.369z"/>
			<path fill="#6C6B79" d="M425.748,230.159l-0.304-0.025c0,0-0.125,0.702-0.073,0.86c0.051,0.158,0.736,0.855,2.133,0.904
				c1.397,0.048,2.154-0.114,2.702-0.656c0.547-0.542,1.95-2.223,1.956-2.292c0.006-0.068,0.518-0.597,0.614-0.935
				c0.098-0.337,0.106-1.063,0.106-1.063l-2.068,0.327L425.748,230.159z"/>
			<path fill="#434254" d="M429.394,224.826c-0.004,0.052-0.564,1.579-0.564,1.579l-3.346,3.594c0,0-0.387,0.486,1.232,0.985
				c1.618,0.499,2.967,0.094,3.395-0.269c0.429-0.362,2-2.6,2-2.6s0.809-0.78,0.893-1.153c0.083-0.373-0.243-1.751-0.364-2.003
				c-0.122-0.252-1.202-0.36-1.202-0.36L429.394,224.826z"/>
			<path fill="#3C3B4E" d="M432.119,211.307c-0.003,0.051-0.011,0.102-0.014,0.152c-0.024,0.274-0.061,0.535-0.117,0.795
				c-0.671,3.392-3.395,5.32-3.584,4.219c-0.271-1.578-0.539-3.055-0.794-4.408c-0.011-0.058-0.021-0.116-0.024-0.16
				c-0.012-0.039-0.017-0.071-0.021-0.11c0-0.007-0.006-0.013-0.006-0.013c0.001-0.02-0.005-0.032-0.005-0.039
				c-0.006-0.013-0.005-0.019-0.005-0.025c-1.166-6.176-2.063-9.833-2.063-9.833l-1.678-1.422l-0.321-3.972l8.544-3.749
				c0,0,0.202,0.501,0.454,1.19c0.343,0.935,0.773,2.226,0.884,3.062C433.83,200.402,432.498,207.397,432.119,211.307z"/>
			<path fill="#3C3B4E" d="M432.622,225.133c-0.012,0.127-0.113,0.257-0.272,0.378c-0.779,0.573-2.973,0.895-3.095-0.28
				c-0.232-2.466-1.371-11.345-1.645-13.166c-0.011-0.058-0.021-0.116-0.024-0.16c-0.012-0.046-0.016-0.084-0.021-0.11
				c0-0.007-0.006-0.013-0.006-0.013c0.001-0.02-0.005-0.032-0.005-0.039c-0.006-0.013-0.005-0.019-0.005-0.025
				c0.006-0.146,0.827,0.535,0.827,0.535l3.364-2.094l0.065-0.042c0,0,0.126,0.485,0.313,1.19c0.297,1.106,0.757,2.75,1.13,3.879
				C433.853,217.04,432.686,224.375,432.622,225.133z"/>
		</g>
		<g>
			<g>
				<path fill="#8C92B0" d="M425.149,201.123c-0.064-0.003-0.134-0.021-0.206-0.056c-0.382-0.185-0.813-0.807-0.857-1.737
					c-0.023-0.505-0.026-2.514-0.003-2.757l0.225,0.022c-0.02,0.208-0.021,2.197,0.005,2.724c0.043,0.895,0.46,1.414,0.729,1.544
					c0.078,0.039,0.146,0.045,0.186,0.017c0.058-0.042,0.08-0.166,0.06-0.332c-0.144-1.161-0.137-3.872,0.05-4.006l0.056-0.039
					l0.066,0.029l-0.05,0.102l0.001,0.004l0.088,0.055c-0.072,0.184-0.16,2.422,0.015,3.828c0.04,0.33-0.061,0.478-0.153,0.543
					C425.298,201.106,425.227,201.126,425.149,201.123z"/>
			</g>
			<g>
				<path fill="#8C92B0" d="M429.396,199.881c-0.617-0.026-1.141-0.174-1.568-0.443c-0.817-0.514-0.956-1.281-0.962-1.313
					l0.188-0.032c0.002,0.008,0.135,0.72,0.88,1.188c0.835,0.522,2.077,0.553,3.693,0.092l0.052,0.184
					C430.816,199.8,430.053,199.909,429.396,199.881z"/>
			</g>
			<path fill="#A76478" d="M433.156,196.08c0,0-1.528,1.483-4.936,1.587c-3.407,0.104-4.73-0.214-5.923-0.783
				c-1.192-0.569-1.963-1.365-1.963-1.365l0.093-1.326c0,0,0.738,1.021,2.416,1.611c1.677,0.59,5.168,0.538,6.584,0.456
				c1.417-0.082,3.512-1.194,3.512-1.194L433.156,196.08z"/>
			<path fill="#A8B0C2" d="M432.622,225.133c-0.012,0.127-0.113,0.257-0.272,0.378c0.164-1.713,0.84-8.935,0.65-9.435
				c-0.139-0.352-0.661-2.312-1.012-3.822c-0.203-0.91-0.351-1.658-0.307-1.791c0.008-0.031,0.031-0.133,0.059-0.305
				c0.284-1.848,1.421-11.46,0.904-13.694c-0.15-1.106-0.614-2.373-0.614-2.373l0.455-0.159c0.343,0.935,0.773,2.226,0.884,3.062
				c0.461,3.409-0.871,10.404-1.25,14.313c0.297,1.106,0.757,2.75,1.13,3.879C433.853,217.04,432.686,224.375,432.622,225.133z"/>
			<path fill="#3C3B4E" d="M426.416,196.369c0,0-0.059,0.381-0.033,0.825c0.025,0.444,0.114,1.257,0.114,1.257l-0.521-0.037
				c0,0-0.162-0.777-0.177-1.173c-0.016-0.395,0.054-0.949,0.054-0.949L426.416,196.369z"/>
			<path fill="#3C3B4E" d="M431.324,195.948c0,0,0.124,0.365,0.176,0.807c0.053,0.442,0.107,1.257,0.107,1.257l0.506-0.127
				c0,0,0.023-0.793-0.03-1.185s-0.219-0.926-0.219-0.926L431.324,195.948z"/>
			<path fill="#3C3B4E" d="M421.557,195.142c0,0-0.084,0.474-0.069,0.852s0.142,1.016,0.142,1.016l-0.381-0.391
				c0,0-0.111-0.646-0.119-0.852c-0.008-0.206,0.128-0.821,0.128-0.821L421.557,195.142z"/>
			<g>
				<path fill="#8C92B0" d="M420.51,198.154c-0.028-0.001-0.058-0.006-0.087-0.014l0.059-0.218c0.297,0.075,0.605-0.641,0.716-1
					l0.217,0.066C421.375,197.114,421.035,198.176,420.51,198.154z"/>
			</g>
			<g>
				<path fill="#CCDEFB" d="M425.125,197.789c-0.061,0.008-0.124,0.008-0.188,0.001l-0.99-0.101
					c-0.422-0.043-0.765-0.385-0.78-0.777l-0.016-0.375c-0.008-0.191,0.063-0.369,0.198-0.501c0.152-0.149,0.372-0.22,0.602-0.197
					l0.99,0.102c0.422,0.043,0.766,0.384,0.781,0.777l0.016,0.375c0.008,0.191-0.063,0.369-0.198,0.501
					C425.429,197.701,425.284,197.769,425.125,197.789z M423.793,196.27c-0.066,0.008-0.124,0.033-0.165,0.073
					c-0.041,0.041-0.062,0.093-0.059,0.156l0.015,0.375c0.008,0.185,0.206,0.365,0.425,0.388l0.989,0.102
					c0.106,0.01,0.202-0.017,0.262-0.074c0.041-0.041,0.062-0.094,0.059-0.157l-0.015-0.374c-0.008-0.185-0.206-0.366-0.425-0.388
					l-0.99-0.101C423.856,196.265,423.824,196.266,423.793,196.27z"/>
			</g>
		</g>
		<g>
			<g>
				<path fill="#FEBFBF" d="M420.404,200.797c-0.314-0.164-0.986-1.656-0.986-1.656l0.211,3.666c0,0-0.387,0.279-0.424,0.328
					c-0.039,0.048-0.246-0.158-0.286-0.3c-0.04-0.142-0.939-3.643-0.813-6.382c-0.398-2.057,0.199-10.413,0.432-11.328
					c0.231-0.915,0.572-8.167,0.973-9.873c0.404-1.704,1.652-1.729,1.652-1.729l-0.112,3.667c0,0-0.02,1.511-0.044,3.471
					c-0.044,3.51-0.112,8.455-0.146,8.707c-0.05,0.395-1.28,6.829-1.28,6.829s0.035,0.046,0.091,0.128
					c0.095,0.135,0.243,0.365,0.381,0.655c0.225,0.469,0.242,1.612,0.226,1.818c-0.018,0.207,0.676,1.441,0.722,1.704
					C421.045,200.766,420.717,200.963,420.404,200.797z"/>
				
					<linearGradient id="SVGID_1_" gradientUnits="userSpaceOnUse" x1="1511.3218" y1="233.167" x2="1513.0796" y2="233.167" gradientTransform="matrix(0.9965 0.0836 -0.0836 0.9965 -1067.3761 -170.1389)">
					<stop  offset="0.1224" style="stop-color:#FCA4B5"/>
					<stop  offset="0.9896" style="stop-color:#FFADB7"/>
				</linearGradient>
				<path fill="url(#SVGID_1_)" d="M420.86,189.368c-0.05,0.395-1.28,6.829-1.28,6.829s0.035,0.046,0.091,0.128l-0.252,0.309
					l0.765-5.782c0,0,0.09-4.387-0.026-5.052c-0.116-0.667-0.439-3.843-0.439-3.843l1.288-1.295
					C420.961,184.171,420.893,189.116,420.86,189.368z"/>
				<path fill="#444355" d="M421.079,183.399c0,0-1.663-0.585-2.266-0.999s-0.548-0.859-0.548-0.859s0.443-5.47,1.01-7.03
					c0.771-2.125,3.783-2.188,3.783-2.188L421.079,183.399z"/>
				<path fill="#504F60" d="M433.326,195.467c0,0-0.223,0.129-0.609,0.316c-1.153,0.559-4.996,0.933-7.504,0.722
					c-3.352-0.281-4.919-1.494-4.919-1.494s0.551-6.724,0.531-8.594c-0.02-1.87-0.748-4.317-0.825-6.79
					c-0.077-2.472,0.15-5.814,0.834-6.367c1.679-1.355,4.404-1.029,5.222-1.168c0.814-0.139,2.484-0.57,3.245-0.039
					s5.277,2.606,5.598,3.323c0.526,1.182-0.251,2.694-0.628,4.715c-0.231,1.224-0.472,2.449-0.605,3.328
					C433.316,185.751,432.511,191.767,433.326,195.467z"/>
				
					<linearGradient id="SVGID_2_" gradientUnits="userSpaceOnUse" x1="914.646" y1="212.4287" x2="920.5474" y2="212.4287" gradientTransform="matrix(0.9961 -0.0885 0.0885 0.9961 -505.7195 44.0559)">
					<stop  offset="0.1224" style="stop-color:#FEC7C7"/>
					<stop  offset="0.9694" style="stop-color:#FFADB7"/>
				</linearGradient>
				<path fill="url(#SVGID_2_)" d="M429.846,172.616c0,0-0.013-0.367-0.752-0.422c-0.739-0.054-4.218,0.025-4.507,0.3
					c-0.664,0.631-0.688,3.109,0.455,4.424c2.052-1.212,3.716-2.036,4.406-3.139C430.139,172.676,429.846,172.616,429.846,172.616z"
					/>
				<path fill="#DDE8F6" d="M433.326,195.467c0,0-0.223,0.129-0.609,0.316l-0.035-0.932l-0.996-1.956l0.486-3.253l0.566-2.477
					l0.122-4.538c0,0-0.475-0.336-1.079-1.74c-0.603-1.406,0.039-2.303,0.038-2.413c0,0,1.127,0.476,2.451,1.617
					c-0.231,1.224-0.472,2.449-0.605,3.328C433.316,185.751,432.511,191.767,433.326,195.467z"/>
				<path fill="#FEBFBF" d="M438.612,185.081c0,0-3.139,6.482-3.843,6.838s-2.184-0.884-2.184-0.884l-0.504,0.451l-0.644,0.246
					l-1.403,0.334l-1.495,0.809l0.256,0.358c0,0-0.739,0.457-0.754,0.637c-0.016,0.18,0.11,0.385,0.188,0.392
					c0.077,0.006,0.21,0.055,0.21,0.055l0.241,0.593l0.59-0.067c0,0,0.096,0.254,0.41,0.372s1.374,0.167,1.789,0.007
					c0.416-0.159,1.768-0.199,1.768-0.199s0.489,0.051,2.06-0.738c1.571-0.79,7.86-7.371,7.239-8.486
					C441.914,184.684,438.612,185.081,438.612,185.081z"/>
				<path fill="#FEBFBF" d="M431.308,192.81l-0.953,0.076l-2.014,0.663l0.454-0.313l-0.098-0.137c0,0,0.664,0.028,0.799-0.025
					c0.134-0.053,1.116-0.321,1.116-0.321l0.701-0.006L431.308,192.81z"/>
				<polygon fill="#FEBFBF" points="431.552,193.621 429.901,193.82 428.229,194.264 428.465,194.384 429.29,194.145 				"/>
				<path fill="#FEBFBF" d="M431.773,194.392c0,0-1.493,0.316-1.765,0.306s-1.263,0.205-1.263,0.205l0.67,0.057l2.154-0.316
					L431.773,194.392z"/>
				<path fill="#FEBFBF" d="M434.292,175.949c0,0-2.431-0.411-2.277,2.715c0.152,3.126,7.991,8.039,8.916,8.142
					c0.926,0.104,1.819-0.652,1.577-1.476c-0.242-0.825-3.021-4.509-4.806-6.422C435.917,176.994,435.297,176.034,434.292,175.949z"
					/>
				<path fill="#444355" d="M439.187,180.118c0,0-0.878,0.881-1.451,1.676c-0.252,0.349-1.704,2.188-1.704,2.188l-3.684-2.906
					c0,0-1.278-1.392-0.427-3.95s2.721-2.001,2.721-2.001L439.187,180.118z"/>
			</g>
			<g>
				<path fill="#E65E5E" d="M433.12,164.467c0,0,0.86-0.99,0.761-1.308c-0.1-0.317-0.629-1.199-1.403-1.25
					c-0.773-0.052-2.385,0.015-2.385,0.015l0.991,1.739L433.12,164.467z"/>
				
					<linearGradient id="SVGID_3_" gradientUnits="userSpaceOnUse" x1="1520.1528" y1="217.1895" x2="1517.1718" y2="212.6646" gradientTransform="matrix(0.9965 0.0836 -0.0836 0.9965 -1067.3761 -170.1389)">
					<stop  offset="0.1224" style="stop-color:#FEC7C7"/>
					<stop  offset="0.9694" style="stop-color:#FFADB7"/>
				</linearGradient>
				<path fill="url(#SVGID_3_)" d="M424.483,171.301c0,0,0.208,1.021,0.039,1.802c-0.169,0.781-0.59,0.902-0.185,1.195
					c0.406,0.294,1.648,0.536,3.182-0.01s2.104-1.38,2.197-1.666c0.094-0.286-0.365-1-0.365-1s-0.354-1.154-0.116-2.535
					c0.237-1.381,1.733-2.934,1.289-3.611c-0.445-0.677-4.049-1.429-5.194,0.066C424.183,167.038,424.483,171.301,424.483,171.301z"
					/>
				<path fill="#FEC7C7" d="M428.812,168.486c-0.242,0.863-0.566,1.662-0.85,2.122c-0.716,1.163-3.71,2.277-4.646,1.541
					c-0.43-0.339-0.593-1.575-0.643-2.843c-0.059-1.494,0.039-3.032,0.041-3.191c0.003-0.292,0.336-1.41,0.336-1.41
					s5.05-0.633,5.83,0.387C429.353,165.707,429.179,167.169,428.812,168.486z"/>
				<path fill="#5C5B6B" d="M428.067,168.25c-0.241,0.862,0.179,1.898-0.104,2.358c-0.716,1.163-3.71,2.277-4.646,1.541
					c-0.43-0.339-0.593-1.575-0.643-2.843l0.601,0.405l0.877,0.282c0,0,2.548,0.394,2.795,0.047c0.248-0.346,0.66-1.631,0.66-1.631
					L428.067,168.25z"/>
				<g>
					<path fill="#754554" d="M425.758,167.41c-0.68-0.359-1.792-0.279-1.804-0.278l-0.012-0.159c0.047-0.003,1.168-0.086,1.89,0.296
						L425.758,167.41z"/>
				</g>
				<g>
					<path fill="#754554" d="M423.283,166.811c-0.005-0.005-0.478-0.461-0.744-0.551l0.051-0.151
						c0.301,0.101,0.784,0.567,0.805,0.588L423.283,166.811z"/>
				</g>
				<g>
					
						<linearGradient id="SVGID_4_" gradientUnits="userSpaceOnUse" x1="1452.7817" y1="217.8516" x2="1451.8051" y2="218.117" gradientTransform="matrix(0.9978 0.0661 -0.0661 0.9978 -1011.5397 -145.2515)">
						<stop  offset="0.1224" style="stop-color:#FEC7C7"/>
						<stop  offset="0.9896" style="stop-color:#FFDBDB"/>
					</linearGradient>
					<path fill="url(#SVGID_4_)" d="M423.51,166.758c0.071,0.365-0.866,2.13-0.879,2.317c-0.013,0.187,0.946,0.448,1.345,0.428
						L423.51,166.758z"/>
					
						<linearGradient id="SVGID_5_" gradientUnits="userSpaceOnUse" x1="1451.7827" y1="217.8457" x2="1453.2075" y2="217.8457" gradientTransform="matrix(0.9978 0.0661 -0.0661 0.9978 -1011.5397 -145.2515)">
						<stop  offset="0.188" style="stop-color:#FFDCDC"/>
						<stop  offset="0.8991" style="stop-color:#FEC7C7"/>
					</linearGradient>
					<path fill="url(#SVGID_5_)" d="M423.873,169.551c-0.391-0.017-1.068-0.199-1.241-0.373c-0.034-0.034-0.05-0.07-0.048-0.106
						c0.005-0.072,0.101-0.283,0.283-0.684c0.254-0.558,0.64-1.401,0.597-1.621l0.095-0.018c0.044,0.232-0.247,0.897-0.604,1.679
						c-0.133,0.292-0.271,0.592-0.274,0.651c0,0.005,0.005,0.017,0.021,0.032c0.155,0.157,0.913,0.366,1.274,0.345l0.005,0.096
						C423.947,169.553,423.912,169.553,423.873,169.551z"/>
				</g>
				<path fill="#FEBFBF" d="M424.292,170.746c0,0-1.161,0.191-1.333-0.485C423.281,170.101,424.292,170.746,424.292,170.746z"/>
				<circle fill="#FFFFFF" cx="424.964" cy="167.792" r="0.287"/>
				
					<ellipse transform="matrix(0.9959 -0.0908 0.0908 0.9959 -13.4245 39.0987)" fill="#FFFFFF" cx="423.112" cy="167.129" rx="0.183" ry="0.252"/>
				<path fill="#444355" d="M428.093,168.29l-0.486,0.119c0,0,0.021-1.162-0.331-1.559c-0.352-0.397-1.158-1.251-1.158-1.251
					l2.273-0.944l2.709-0.472l0.43,1.343c0,0-0.27,1.451-0.713,2.146c-0.443,0.696-1.068,1.05-1.362,1.528
					c-0.219,0.356-0.333,0.696-0.299,0.692c0,0-0.045-0.457,0.064-0.806c0.181-0.573,0.529-1.189,0.323-1.481
					c-0.331-0.471-0.791-0.571-0.962-0.34S428.093,168.29,428.093,168.29z"/>
				<path fill="#444355" d="M429.156,169.893l0.012,0.604c0,0,0.512-1.099,0.73-1.319c0.22-0.221,0.855-1.208,0.986-1.619
					s-0.998-0.177-0.998-0.177l-0.729,2.054L429.156,169.893z"/>
				<path fill="#F26363" d="M431.799,164.317l0.201-0.159c0,0-0.579-1.438-1.908-2.234s-3.69-0.866-4.35-0.824
					s-1.632,0.634-1.746,1.059c-0.114,0.424-0.768,1.158-0.796,1.588s2.35,1.814,2.35,1.814S430.933,165.918,431.799,164.317z"/>
				<path fill="#E65E5E" d="M428.906,164.713c0,0-1.751-0.427-2.135-0.625s-1.174-0.789-1.174-0.789
					S426.363,164.509,428.906,164.713z"/>
				<path fill="#F76565" d="M431.53,165.525c0,0-0.851,0.583-2.137,0.705c-1.287,0.122-3.05,0.402-4.532,0.097
					s-2.177-1.043-2.177-1.043s0.021-1.086,0.247-1.382c0.227-0.295,0.227-0.295,0.227-0.295s1.465,1.099,2.182,1.232
					s4.552,0.129,5.432-0.383c0.538-0.313,0.937-0.376,1.166-0.379c0.146-0.001,0.223,0.021,0.223,0.021l-0.163,0.368
					L431.53,165.525z"/>
				<path fill="#E65E5E" d="M426.784,164.417c0,0-2.677-0.787-3.165-1.249C424.135,163.205,426.784,164.417,426.784,164.417z"/>
				<path fill="#E65E5E" d="M428.664,164.852c0,0-2.535,0.072-2.93,0.029s-1.096-0.322-1.096-0.322l-1.173-0.732
					c0,0,1.173,0.637,2.044,0.79C426.38,164.77,428.664,164.852,428.664,164.852z"/>
				<path fill="#E65E5E" d="M429.139,165.885c0,0-1.731,0.317-2.213,0.286c-0.481-0.032-3.457-0.748-3.457-0.748l3.725,0.627
					L429.139,165.885z"/>
				<path fill="#F26363" d="M432.718,162.961c0,0-0.481-0.55-0.739-1.085c-0.259-0.535-0.623-1.095-1.136-0.749
					c-0.514,0.346,0.124,1.148,0.124,1.148l1.351,1.005L432.718,162.961z"/>
				<path fill="#F26363" d="M430.958,164.776c0,0,0.479,0.255,0.61,0.664c0.13,0.408,0.065,0.87,0.065,0.87s1.38,0.282,1.583-0.431
					c0.202-0.712-0.053-1.299-0.053-1.299l-0.148-0.874l-1.393-0.596l-0.199,0.687l-0.273,0.539l-0.532,0.192L430.958,164.776z"/>
				
					<linearGradient id="SVGID_6_" gradientUnits="userSpaceOnUse" x1="1457.5913" y1="217.6406" x2="1459.1021" y2="217.6406" gradientTransform="matrix(0.9978 0.0661 -0.0661 0.9978 -1011.5397 -145.2515)">
					<stop  offset="0.1224" style="stop-color:#FEB9B8"/>
					<stop  offset="1" style="stop-color:#FFDEDE"/>
				</linearGradient>
				<path fill="url(#SVGID_6_)" d="M428.801,167.416c0,0,0.555-0.644,1.085-0.035c0.529,0.61-0.853,2-1.141,2.088
					c-0.287,0.088-0.405-0.654-0.273-0.815C428.604,168.492,428.801,167.416,428.801,167.416z"/>
				
					<linearGradient id="SVGID_7_" gradientUnits="userSpaceOnUse" x1="972.2827" y1="217.8301" x2="973.5093" y2="217.8301" gradientTransform="matrix(0.9974 -0.0725 0.0725 0.9974 -557.0488 21.4885)">
					<stop  offset="0.1224" style="stop-color:#FCA4B5"/>
					<stop  offset="0.9896" style="stop-color:#FFADB7"/>
				</linearGradient>
				<path fill="url(#SVGID_7_)" d="M428.901,167.561c0,0,0.708-0.328,0.78,0.082c0.073,0.41-0.594,1.281-0.743,1.338
					c-0.149,0.057-0.394-0.098-0.394-0.098L428.901,167.561z"/>
				<path fill="#444355" d="M427.939,167.907c0.018,0,0.19,0.599,0.886,0.973c-0.58-0.573-0.723-1.345-0.723-1.345
					s0.497,0.578,0.673,0.668c0.176,0.089,0.314,0.089,0.314,0.089l-0.314-0.214c0,0-0.404-0.421-0.398-0.774
					c0.007-0.353-0.214-0.42-0.214-0.42L427.939,167.907z"/>
			</g>
		</g>
	</g>
	<g>
		<g>
			<polygon fill="#858AAB" points="424.726,190.203 424.08,190.024 424.208,186.888 424.85,187.063 			"/>
			<polygon fill="#858AAB" points="425.531,190.321 424.884,190.143 425.008,187.003 425.65,187.18 			"/>
			<path fill="#858AAB" d="M425.286,179.738c0,0-3.459-1.015-3.465,3.694c-0.005,3.675,1.648,3.975,1.671,4.507
				c0.023,0.533,0.363,0.954,0.604,1.261c0.242,0.308,0.802,0.339,0.802,0.339L425.286,179.738z"/>
			<path fill="#858AAB" d="M425.286,179.738c0,0,3.487,0.48,3.124,5.126c-0.283,3.625-1.902,3.062-1.967,3.575
				c-0.064,0.514-0.433,0.78-0.693,0.977c-0.262,0.197-0.852,0.123-0.852,0.123L425.286,179.738z"/>
		</g>
		<path fill="#504F60" d="M423.729,182.58c0,0-1.53-0.269-1.379,1.439c0.153,1.723,1.812,1.042,1.985,0.66
			C424.507,184.299,424.864,182.846,423.729,182.58z"/>
		<path fill="#504F60" d="M426.455,183.292c0,0,1.515,0.528,1.09,2.09c-0.428,1.573-1.909,0.065-2.013-0.389
			C425.428,184.54,425.323,182.966,426.455,183.292z"/>
		<path fill="#504F60" d="M424.581,187.468c0,0,0.579,0.312,0.632-0.313c0.053-0.622-0.093-1.276-0.253-1.43
			C424.798,185.572,423.926,187.288,424.581,187.468z"/>
	</g>
</g>
</svg>
