<?xml version="1.0" encoding="utf-8"?>
<!-- Generator: Adobe Illustrator 16.0.0, SVG Export Plug-In . SVG Version: 6.00 Build 0)  -->
<!DOCTYPE svg PUBLIC "-//W3C//DTD SVG 1.1//EN" "http://www.w3.org/Graphics/SVG/1.1/DTD/svg11.dtd">
<svg version="1.1" id="Layer_1" xmlns="http://www.w3.org/2000/svg" xmlns:xlink="http://www.w3.org/1999/xlink" x="0px" y="0px"
	 width="463.683px" height="425.749px" viewBox="0 0 463.683 425.749" enable-background="new 0 0 463.683 425.749"
	 xml:space="preserve">
<g>
	<path fill="#FEBFBF" d="M266.731,159.852c0,0-1.345-0.176-1.967,0.779c-0.621,0.955-1.257,2.687-1.091,5.482
		c0.165,2.795,0.209,3.521-0.1,4.659c-0.308,1.138-0.368,1.803-0.536,5.283c-0.168,3.479-0.177,4.727-0.463,5.54
		s-0.874,1.952-0.872,2.196c0.003,0.245-0.049,1.896,0.168,2.054c0.216,0.159,1.165,0.87,1.641,0.928
		c0.475,0.058,0.247-1.042,0.247-1.042s0.711-5.19,0.75-5.581c0.038-0.391,1.792-13.544,1.792-13.544L266.731,159.852z"/>
	
		<linearGradient id="SVGID_1_" gradientUnits="userSpaceOnUse" x1="-721.4326" y1="94.8218" x2="-720.1245" y2="94.8218" gradientTransform="matrix(0.9987 -0.0519 0.0519 0.9987 977.8701 52.8464)">
		<stop  offset="0.1224" style="stop-color:#FCA4B5"/>
		<stop  offset="0.9896" style="stop-color:#FFADB7"/>
	</linearGradient>
	<path fill="url(#SVGID_1_)" d="M262.607,183.66l-0.168,0.776c0,0,0.064,0.845,0.059,0.935c-0.006,0.09-0.169,0.234-0.169,0.234
		l0.382,0.259c0,0,0.008,0.29,0.301,0.372c0.294,0.082,0.652-0.148,0.652-0.148l-0.614-0.021c0,0-0.25-0.188-0.307-0.436
		c-0.057-0.248-0.098-1.3-0.098-1.3S262.761,183.932,262.607,183.66z"/>
	
		<linearGradient id="SVGID_2_" gradientUnits="userSpaceOnUse" x1="-720.3701" y1="87.9287" x2="-716.6616" y2="87.9287" gradientTransform="matrix(0.9987 -0.0519 0.0519 0.9987 977.8701 52.8464)">
		<stop  offset="0.1224" style="stop-color:#FCA4B5"/>
		<stop  offset="0.9896" style="stop-color:#FFADB7"/>
	</linearGradient>
	<path fill="url(#SVGID_2_)" d="M263.368,185.119c0,0-0.036-0.508,0.08-1.261s0.212-1.108,0.286-1.989
		c0.074-0.882,0.391-1.585,0.64-3.504c0.249-1.919,0.276-3.764,0.395-4.478s-0.164-3.013-0.164-3.013l1.734-0.052l-1.038,9.447
		L263.368,185.119z"/>
	<g>
		<path fill="#D7E4F2" d="M259.713,214.888c4.289,2.729,11.444,3.025,15.981,0.661c4.536-2.365,4.737-6.494,0.448-9.225
			c-4.29-2.729-11.444-3.025-15.981-0.66C255.625,208.028,255.424,212.158,259.713,214.888z"/>
		<path fill="#504F60" d="M264.154,208.001c0,0-0.053-0.216-0.266-0.067c-0.213,0.149-1.003,0.652-1.753,1.244
			c-0.751,0.592-2.071,2.251-1.771,2.551c0.302,0.3,1.325,0.504,2.765,0.002c1.439-0.5,1.71-1.141,2.122-1.44
			c0.413-0.299,1.271-0.944,1.357-0.6c0.74-0.332,1.207-0.547,1.352-0.944s0.137-1.761-0.292-1.737
			C267.24,207.031,264.154,208.001,264.154,208.001z"/>
		<path fill="#FEC7C7" d="M264.733,206.099c0,0-0.226,0.603-0.311,0.872s-0.594,1.227-1.103,1.547
			c0.001,0.42,0.916,0.736,1.521,0.612c0.604-0.124,1.752-0.472,2.139-0.568c0.386-0.098,0.908-0.634,0.864-1.01
			s-0.493-1.191-0.493-1.191l-0.135-0.659L264.733,206.099z"/>
		<path fill="#4F5997" d="M264.924,178.237c-0.247,2.019-1.6,4.943-1.981,11.349c-0.383,6.404-0.205,6.308,0.184,6.956
			s3.245,0.939,3.945-1.104s2.011-7.276,2.509-8.276s0.952-8.539,0.585-9.159C269.798,177.382,264.924,178.237,264.924,178.237z"/>
		<path fill="#4F5997" d="M262.967,193.873c0,0-0.35-0.187-0.218,1.423c0.133,1.61,1.854,9.913,1.888,11.081
			c0.034,1.169,2.729,0.581,2.825-0.063c-0.174-3.009-0.024-3.232,0.277-5.833c0.302-2.602-1.035-6.151-1.248-6.625
			C266.277,193.379,262.967,193.873,262.967,193.873z"/>
		<path fill="#504F60" d="M272.79,206.369l-0.587,0.261c0,0-0.38,0.423-0.454,0.527c-0.074,0.104-0.617,0.955-0.79,1.545
			c-0.174,0.591-1.165,3.376-0.236,3.706c1.852,0.091,2.834-0.85,3.357-1.604c0.522-0.753,0.69-1.475,0.706-1.718
			s0.289-0.7,0.289-0.7s0.239-1.192-0.002-1.886c-0.24-0.693-0.793-0.539-0.793-0.539L272.79,206.369z"/>
		<path fill="#4F5997" d="M268.464,180.01c0,0-0.426,2.414-0.013,3.173c0.412,0.759,0.747,0.516,1.015,1.991s1.76,8.087,2.544,9.819
			c0.784,1.732,3.644,0.722,3.762-1.984c0.118-2.705,0.803-4.732,1.499-7.337c1.817-6.792-1.443-8.229-1.443-8.229L268.464,180.01z"
			/>
		<path fill="#4F5997" d="M274.775,205.576c0.224,0.762,0.314,1.373,0.012,1.854c-0.302,0.479-0.328,0.531-1.287,0.84
			s-1.925-0.223-1.886-0.328c0.033-0.105,0.12-0.539,0.422-1.472c0.079-0.243,0.145-0.499,0.21-0.769
			c0.178-0.769,0.303-1.655,0.447-2.713c0.197-1.426-0.52-7.141-0.953-8.685c-0.427-1.55,0.053-0.763,0.053-0.763l3.816-1.077
			c0,0,0.743,3.646,0.743,5.059c0,1.359-1.662,6.838-1.59,7.942c0,0,0,0.013,0,0.032
			C274.762,205.53,274.768,205.557,274.775,205.576z"/>
		<path fill="#FEC7C7" d="M274.787,207.43c-0.302,0.479-0.328,0.531-1.287,0.84s-1.925-0.223-1.886-0.328
			c0.033-0.105,0.12-0.539,0.422-1.472c0.079-0.243,0.145-0.499,0.21-0.769c0.086,0.584,0.493,0.874,1.518,0.631
			c0.881-0.217,0.985-0.703,0.999-0.835c0,0.033,0.006,0.06,0.013,0.079C274.999,206.338,275.089,206.949,274.787,207.43z"/>
	</g>
	<path fill="#DDE8F6" d="M271.137,159.012c0,0-2.743-0.284-3.066-0.033c-0.323,0.25-2.228,0.617-2.782,1.377
		c-0.555,0.761-0.653,2.87-0.781,4.02s-0.532,2.95-0.523,3.945s1.049,4.823,1.08,6.308c0.032,1.485-0.132,3.482-0.14,3.608
		c-0.009,0.126,1.689,1.862,4.116,2.09c2.427,0.227,6.678-1.202,6.987-1.797c0.31-0.595-0.127-3.118-0.472-4.226
		c-0.346-1.107-0.339-4.326,0.154-6.392c0.494-2.066,1.734-4.772,1.525-5.472c-0.208-0.701-2.258-2.314-3.088-2.833
		C272.564,158.618,271.137,159.012,271.137,159.012z"/>
	<path fill="#A8B0C2" d="M274.746,166.531l-0.191,2.989l0.464,2.164l-0.216,1.686c0,0,0.721,3.429,0.753,4.055
		c0.033,0.625-0.456,5.441-0.456,5.441l-0.833,3.093c0,0-0.815,2.752-0.95,2.951s0.612-0.442,0.612-0.442s-0.658,2.093-0.415,2.253
		c0.242,0.16,1.503,0.241,1.503,0.241l0.99-1.882l0.554-5.29l0.674-10.555L274.746,166.531z"/>
	
		<linearGradient id="SVGID_3_" gradientUnits="userSpaceOnUse" x1="-710.6758" y1="70.0498" x2="-713.5543" y2="66.5154" gradientTransform="matrix(0.9987 -0.0519 0.0519 0.9987 977.8701 52.8464)">
		<stop  offset="0.1224" style="stop-color:#FEC7C7"/>
		<stop  offset="0.9694" style="stop-color:#FFADB7"/>
	</linearGradient>
	<path fill="url(#SVGID_3_)" d="M266.674,157.909c0.041,0.002,1.337,0.52,1.524,0.762c0.188,0.242-0.554,2.311-0.636,2.957
		c-0.082,0.646,0.189,1.07,1.826,1.351c1.637,0.281,2.899-1.659,3.157-2.077c0.257-0.417,0.763-1.321,0.392-1.67
		c-0.371-0.35-0.748-0.821-0.779-0.973c-0.03-0.15,0.296-1.825,0.406-2.089c0,0,0.909-2.343,0.114-2.435
		C271.884,153.644,266.674,157.909,266.674,157.909z"/>
	
		<linearGradient id="SVGID_4_" gradientUnits="userSpaceOnUse" x1="-715.4063" y1="69.0986" x2="-711.5317" y2="69.0986" gradientTransform="matrix(0.9987 -0.0519 0.0519 0.9987 977.8701 52.8464)">
		<stop  offset="0.1224" style="stop-color:#FCA4B5"/>
		<stop  offset="0.9896" style="stop-color:#FFADB7"/>
	</linearGradient>
	<path fill="url(#SVGID_4_)" d="M266.929,158.006c0,0,1.145,0.508,1.27,0.665c0.126,0.157-0.198,1.26-0.198,1.26
		s0.386,0.418,1.234,0.079c0.849-0.339,0.51-1.321,0.713-1.539c0.204-0.218,0.837-0.928,0.837-0.928L266.929,158.006z"/>
	<path fill="#FEC7C7" d="M268.808,149.983c0,0-0.691,0.064-1.125,0.634c-0.435,0.569-0.972,1.62-0.989,1.89s-0.629,1.642-0.683,1.91
		c-0.053,0.268-0.155,3.281,0.285,3.473c0.439,0.19,3.412,0.362,4.488-0.347s1.585-1.87,1.79-2.255s0.03-3.308-0.524-3.958
		C271.495,150.68,270.998,149.961,268.808,149.983z"/>
	<path fill="#754554" d="M270.211,150.525c0,0,1.176,0.794,1.361,1.661c0.187,0.866,0.237,1.765,0.127,2.219
		c-0.11,0.454-0.661,1.436-0.688,1.651c-0.027,0.215-0.073,0.511-0.073,0.511s0.639-1.302,0.915-1.38
		c0.276-0.077,0.891-0.133,0.891-0.133s-0.323,1.444-0.347,1.605c-0.024,0.161-0.333,0.969-0.211,1.384
		c0.123,0.415,0.546,0.808,0.768,0.944c0.222,0.136,1.194,0.619,1.194,0.619s-0.813-1.911-0.763-2.287
		c0.052-0.376,1.412-1.293,1.399-3.438c-0.012-2.144-0.183-3.294-2.029-4.117c-0.587-0.58-1.967-0.627-2.954-0.46
		c-0.987,0.168-1.724,0.649-1.868,0.79c-0.145,0.14-0.425,0.768-0.425,0.768s0.276-0.574,0.905-0.643
		C269.042,150.152,269.549,150.483,270.211,150.525z"/>
	<g>
		<path fill="#754554" d="M269.775,153.255c-0.865-0.777-1.567-0.595-1.575-0.591l-0.04-0.14c0.033-0.01,0.782-0.212,1.713,0.623
			L269.775,153.255z"/>
	</g>
	<g>
		<path fill="#754554" d="M267.338,152.458c-0.031-0.097-0.307-0.305-0.493-0.422l0.078-0.123c0.082,0.051,0.496,0.319,0.554,0.501
			L267.338,152.458z"/>
	</g>
	<g>
		
			<linearGradient id="SVGID_5_" gradientUnits="userSpaceOnUse" x1="-715.0688" y1="64.0215" x2="-715.9607" y2="64.0215" gradientTransform="matrix(0.9987 -0.0519 0.0519 0.9987 977.8701 52.8464)">
			<stop  offset="0.1224" style="stop-color:#FEC7C7"/>
			<stop  offset="0.9896" style="stop-color:#FFDBDB"/>
		</linearGradient>
		<path fill="url(#SVGID_5_)" d="M267.485,152.657c0.012,0.231-1.451,1.526-1.474,1.76c-0.021,0.233,0.696,0.605,0.949,0.702
			L267.485,152.657z"/>
		
			<linearGradient id="SVGID_6_" gradientUnits="userSpaceOnUse" x1="-715.8999" y1="63.6636" x2="-714.7813" y2="64.093" gradientTransform="matrix(0.9987 -0.0519 0.0519 0.9987 977.8701 52.8464)">
			<stop  offset="0.188" style="stop-color:#FFDCDC"/>
			<stop  offset="0.8991" style="stop-color:#FEC7C7"/>
		</linearGradient>
		<path fill="url(#SVGID_6_)" d="M266.934,155.188c-0.01-0.004-1.027-0.432-0.995-0.777c0.012-0.125,0.231-0.365,0.729-0.881
			c0.293-0.305,0.736-0.766,0.744-0.87l0.146-0.006c0.007,0.137-0.234,0.403-0.786,0.977c-0.284,0.296-0.674,0.701-0.688,0.794
			c-0.013,0.146,0.545,0.489,0.903,0.627L266.934,155.188z"/>
	</g>
	<g>
		<path fill="#FB7F9E" d="M267.356,156.531c-1.013-0.316-1.178-0.529-1.201-0.568l0.127-0.073l-0.063,0.037l0.062-0.039
			c0.001,0.001,0.153,0.203,1.119,0.505L267.356,156.531z"/>
	</g>
	<circle fill="#FFFFFF" cx="268.772" cy="153.787" r="0.301"/>
	
		<ellipse transform="matrix(0.9561 0.2932 -0.2932 0.9561 56.5592 -71.5614)" fill="#FFFFFF" cx="266.995" cy="152.89" rx="0.192" ry="0.278"/>
	
		<linearGradient id="SVGID_7_" gradientUnits="userSpaceOnUse" x1="-710.7388" y1="66.3809" x2="-708.6963" y2="66.3809" gradientTransform="matrix(0.9987 -0.0519 0.0519 0.9987 977.8701 52.8464)">
		<stop  offset="0.1224" style="stop-color:#FEB9B8"/>
		<stop  offset="1" style="stop-color:#FFDEDE"/>
	</linearGradient>
	<path fill="url(#SVGID_7_)" d="M272.272,155.215c0,0,0.435-0.434,1.039-0.124c0.604,0.31-0.274,1.583-0.79,1.768
		c-0.515,0.184-0.818,0.145-0.955,0.003c-0.136-0.141,0.293-0.916,0.293-0.916L272.272,155.215z"/>
	
		<linearGradient id="SVGID_8_" gradientUnits="userSpaceOnUse" x1="-710.2637" y1="66.2109" x2="-708.8794" y2="66.2109" gradientTransform="matrix(0.9987 -0.0519 0.0519 0.9987 977.8701 52.8464)">
		<stop  offset="0.1224" style="stop-color:#FCA4B5"/>
		<stop  offset="0.9896" style="stop-color:#FFADB7"/>
	</linearGradient>
	<path fill="url(#SVGID_8_)" d="M272.324,155.36c0,0,0.396-0.375,0.826-0.198s-0.004,1.03-0.195,1.154
		c-0.191,0.123-0.969,0.257-0.957,0.115c0.012-0.142,0.306-0.444,0.315-0.643S272.324,155.36,272.324,155.36z"/>
	<path fill="#FEBFBF" d="M276.355,174.953c0,0-0.148,0.37-0.394,1.155c-0.245,0.785-0.122,5.377-0.413,6.471
		c-0.292,1.094-0.746,2.258-0.746,2.258s-0.762,0.882-0.824,1.15s-0.349,0.783-0.438,1.319c-0.088,0.537-0.138,0.896-0.206,0.963
		c-0.067,0.068-0.308,0.297-0.321,0.504c-0.014,0.208,0.46,0.156,0.604,0.039s0.573-0.623,0.577-0.822
		c0.003-0.199,0.137-0.588,0.137-0.588s0.024,0.607,0.016,0.751s-0.337,0.883-0.337,0.883s-0.53,0.228-0.599,0.305
		c-0.067,0.077-0.144,0.28-0.033,0.378c0.111,0.098,0.943,0.105,0.943,0.105s0.653-0.031,0.902-0.114s0.464-0.612,0.464-0.612
		s0.487,0.013,0.586-0.116c0.1-0.129,0.523-0.69,0.692-1.204c0.168-0.514-0.039-2.082,0.075-3.015
		c0.113-0.933,2.536-8.716,1.845-10.696C277.599,174.309,276.355,174.953,276.355,174.953z"/>
	<path fill="#FEBFBF" d="M278.874,175.032c0,0,0.159-8.02-0.542-10.207c-0.701-2.188-1.222-2.954-2.328-1.776
		c-1.105,1.177-1.484,2.474-1.085,5.526c0.398,3.052,0.958,7.079,1.312,7.916C276.583,177.327,278.715,178.358,278.874,175.032z"/>
</g>
</svg>
