<?xml version="1.0" encoding="utf-8"?>
<!-- Generator: Adobe Illustrator 16.0.0, SVG Export Plug-In . SVG Version: 6.00 Build 0)  -->
<!DOCTYPE svg PUBLIC "-//W3C//DTD SVG 1.1//EN" "http://www.w3.org/Graphics/SVG/1.1/DTD/svg11.dtd">
<svg version="1.1" id="Layer_1" xmlns="http://www.w3.org/2000/svg" xmlns:xlink="http://www.w3.org/1999/xlink" x="0px" y="0px"
	 width="463.683px" height="425.749px" viewBox="0 0 463.683 425.749" enable-background="new 0 0 463.683 425.749"
	 xml:space="preserve">
<g>
	<path fill="#BDD6F2" d="M19.108,162.501c4.146,2.639,11.063,2.925,15.449,0.639s4.58-6.278,0.433-8.917
		c-4.146-2.638-11.063-2.924-15.449-0.639C15.156,155.87,14.962,159.862,19.108,162.501z"/>
	<g>
		<g>
			<path fill="#6C6B79" d="M20.979,156.822c0,0-0.207,0.105-0.218,0.259c-0.011,0.154-0.017,0.578-0.016,0.678
				s0.263,0.488,0.907,0.638c0.644,0.15,2.208-0.265,2.735-0.572s1.246-1.091,1.465-1.15c0.219-0.06,0.871,0.061,0.871,0.061
				l0.589-0.049l0.969-0.344c0,0,0.127-0.649-0.139-0.854C27.879,155.282,20.979,156.822,20.979,156.822z"/>
			<path fill="#C2D2EA" d="M24.627,154.182c0,0-0.766,0.485-0.902,0.623c-0.136,0.137-1.521,0.699-2,0.992
				c-0.48,0.292-0.841,0.793-0.873,0.957c-0.031,0.164-0.104,0.539-0.049,0.695c0.056,0.157,0.306,0.574,1.135,0.626
				c0.829,0.051,2.515-0.735,2.515-0.735s1.168-0.797,1.34-0.878c0.172-0.081,1.698-0.467,1.929-0.544
				c0.232-0.077,0.365-0.11,0.399-0.296s0.23-1.205,0.107-1.526C28.104,153.773,25.304,153.357,24.627,154.182z"/>
		</g>
		<g>
			<path fill="#6C6B79" d="M26.491,159.407c0,0-0.227,0.004-0.281,0.306c-0.055,0.302-0.047,0.661-0.047,0.661
				s0.283,0.432,1.231,0.552s2.109-0.23,2.704-0.568c0.595-0.337,0.809-0.611,1.167-1.109c0.359-0.499,0.729-0.736,0.729-0.736
				l0.151,0.041c0,0,0.851-0.619,0.99-0.833c0.072-0.18,0.125-1.094-0.005-1.177C33.001,156.46,26.491,159.407,26.491,159.407z"/>
			<path fill="#C2D2EA" d="M29.093,155.992l-0.264,0.629c0,0-1.55,1.506-1.971,1.955s-0.637,0.842-0.656,1.25
				c-0.019,0.408,1.039,0.671,1.198,0.683c0.159,0.011,0.862,0.08,1.762-0.255s1.272-0.658,1.995-1.445
				c0.723-0.786,1.211-1.219,1.434-1.398c0.222-0.18,0.544-0.466,0.541-0.699s0.033-0.885-0.158-0.967
				C32.783,155.663,29.7,155.413,29.093,155.992z"/>
		</g>
		<path fill="#4F5997" d="M27.996,153.598c0,0-0.208,0.386-0.691,0.598c-0.494,0.219-1.272,0.255-2.41-0.484
			c0,0-0.27-14.181-1.057-18.338l3.39,5.98l1.423,0.051h0.002c0,0,0.587,4.561,0.235,6.955
			C28.533,150.755,27.996,153.598,27.996,153.598z"/>
		<path fill="#4F5997" d="M28.715,141.247c-0.017,0.055-0.038,0.106-0.062,0.157h-0.002c-0.21,0.444-0.666,0.708-1.19,0.824
			c-1.036,0.23-2.338-0.12-2.564-0.813c-0.014-0.042-0.029-0.093-0.046-0.149c-0.409-1.359-1.28-7.078-1.829-11.329
			c-0.572-4.43,0.533-6.544,0.533-6.544l5.409,0.982c0,0,0.047,2.611,0.064,5.742C29.05,134.407,28.99,140.382,28.715,141.247z"/>
		<path fill="#A8B0C2" d="M27.996,153.598c0,0-0.208,0.386-0.691,0.598c0.365-2.372,0.957-6.426,0.857-7.26
			c-0.064-0.561-0.206-3.306-0.359-4.627c-1.037-8.972-0.914-11.755-0.914-11.755l-1.154-1.759l3.292,1.324
			c0.022,4.29-0.038,10.265-0.313,11.13c-0.017,0.055-0.038,0.106-0.062,0.157c0,0,0.587,4.561,0.235,6.955
			C28.533,150.755,27.996,153.598,27.996,153.598z"/>
		<path fill="#4F5997" d="M25.621,126.204l-0.756,0.886c0,0-0.066,1.093,2.351,2.913c0.015,2.564,0.965,10.762,1.761,12.715
			c0.796,1.954,3.26,0.436,3.677-1.833s2.271-9.387,2.43-11.137c0.159-1.751,0.298-3.532-0.915-4.564
			C32.955,124.152,25.621,126.204,25.621,126.204z"/>
		<path fill="#4F5997" d="M29.523,155.672c0.454-1.589,0.103-10.435-0.546-12.954c3.347-1.948,3.775-2.326,3.775-2.326
			s1.221,6.479,1.174,7.766c-0.047,1.286-1.083,7.559-1.083,7.559S31.163,157.321,29.523,155.672z"/>
		<g>
			<path fill="#8C92B0" d="M32.11,156.582l-0.237-0.052c0.011-0.05,1.126-5.114,1.137-7.658c0.008-1.95-0.47-4.361-0.819-6.12
				c-0.163-0.82-0.291-1.468-0.321-1.834c-0.03-0.361,0.221-1.444,0.569-2.942c0.772-3.322,1.938-8.342,1.109-10.143l0.221-0.102
				c0.864,1.876-0.314,6.946-1.093,10.3c-0.331,1.421-0.591,2.543-0.564,2.866c0.03,0.353,0.157,0.995,0.318,1.807
				c0.352,1.77,0.832,4.194,0.824,6.168C33.242,151.443,32.121,156.531,32.11,156.582z"/>
		</g>
	</g>
	<g>
		<path fill="#6A3646" d="M31.673,96.041c0,0,1.21-0.631,1.966,0.027c0.756,0.657,0.444,3.498-0.325,5.169
			c-0.69,1.5-0.34,4.156,1.357,4.71c-1.191,0.894-3.873-0.099-4.245-1.738S31.673,96.041,31.673,96.041z"/>
		
			<linearGradient id="SVGID_1_" gradientUnits="userSpaceOnUse" x1="1116.6245" y1="168.8203" x2="1114.4332" y2="173.3258" gradientTransform="matrix(0.9991 0.0431 -0.0431 0.9991 -1083.9056 -105.6812)">
			<stop  offset="0.1224" style="stop-color:#FEC7C7"/>
			<stop  offset="0.9694" style="stop-color:#FFADB7"/>
		</linearGradient>
		<path fill="url(#SVGID_1_)" d="M22.605,110.955c0,0-1.438,3.603-1.563,6.135c-0.125,2.531,1.397,0.893,2.006,0.103
			C23.657,116.403,27.25,108.021,22.605,110.955z"/>
		<path fill="#FFDADA" d="M23.099,116.257c0,0-0.036,0.227-0.239,0.301c-0.203,0.073-0.733-0.236-0.733-0.236s0.01-0.814,0.123-0.76
			s0.499,0.389,0.499,0.389S23.171,116.14,23.099,116.257z"/>
		<path fill="#E6F1FF" d="M25.903,104.416l-0.454,0.048c0,0-1.466,0.18-2.088,2.045c-0.37,1.111-0.997,4.027-0.997,4.027
			s0.733,0.927,1.446,1.132C24.524,111.873,25.903,104.416,25.903,104.416z"/>
		<path fill="#DDE8F6" d="M34.389,125.261c-0.141,0.147-0.513,0.347-1.035,0.54c-1.247,0.459-3.356,0.887-5.274,0.532
			c-2.722-0.504-4.422-1.813-4.707-2.872c0.046-0.458-0.002-5.119-0.088-6.194c-0.088-1.075-0.868-3.036-0.88-3.804
			c-0.012-0.765,0.84-2.349,0.979-3.207c0.139-0.856,1.001-4.044,1.203-4.394c0.322-0.557,0.788-1.284,1.425-1.45
			c0.64-0.168,4.368-0.278,5.103,0.009c0.736,0.288,1.404,0.966,2.256,1.419c2.576,1.37,2.825,2.887,2.825,2.887
			s-0.896,2.301-1.17,4.077c-0.068,0.443-0.121,0.821-0.151,1.078c-0.148,1.282-0.1,8.235-0.1,8.235S34.866,124.758,34.389,125.261z
			"/>
		<path fill="#FEBFBF" d="M31.177,104.304c0.137,0.006,0.491,0.529,1.101,0.831c0.61,0.301,0.628,0.383-0.106,1.056
			s-3.345,3.676-5.007,3.322s-1.58-1.972-1.515-2.618s1.053-2.12,1.374-2.261S31.177,104.304,31.177,104.304z"/>
		
			<linearGradient id="SVGID_2_" gradientUnits="userSpaceOnUse" x1="1305.8491" y1="172.1113" x2="1302.8721" y2="168.0692" gradientTransform="matrix(0.995 0.1 -0.1 0.995 -1250.9182 -195.8364)">
			<stop  offset="0.1224" style="stop-color:#FEC7C7"/>
			<stop  offset="0.9694" style="stop-color:#FFADB7"/>
		</linearGradient>
		<path fill="url(#SVGID_2_)" d="M26.6,104.071c0,0,0.291,0.682,0.229,1.302c-0.063,0.62-0.406,1.652-0.406,1.652
			s0.38,0.731,1.896,0.564c1.516-0.167,1.569-0.695,2.049-0.967c0.48-0.271,1.716-1.517,1.639-1.605
			c-0.078-0.087-1.334-0.713-0.852-2.515c0.482-1.801,1.194-2.733,1.194-2.733s0.42-0.757-0.105-0.81
			C31.719,98.907,26.6,104.071,26.6,104.071z"/>
		
			<linearGradient id="SVGID_3_" gradientUnits="userSpaceOnUse" x1="1301.0884" y1="171.2192" x2="1304.5269" y2="171.2192" gradientTransform="matrix(0.995 0.1 -0.1 0.995 -1250.9182 -195.8364)">
			<stop  offset="0.1224" style="stop-color:#FCA4B5"/>
			<stop  offset="0.9896" style="stop-color:#FFADB7"/>
		</linearGradient>
		<path fill="url(#SVGID_3_)" d="M30.143,103.209c0,0-1.293,1.208-1.566,1.82c-0.273,0.612-1.529,1.446-1.529,1.446l-0.211-1.358
			l-0.236-1.046L30.143,103.209z"/>
		<path fill="#DDE8F6" d="M34.389,125.261c-0.141,0.147-0.513,0.347-1.035,0.54c0.022-0.135,0.049-0.281,0.083-0.44
			c0.836-4.075,0.586-3.367,0.468-5.017c-0.12-1.652-0.605-3.173-1.164-3.093c-0.558,0.081-1.275,0.128-2.156-0.295
			c0.719,0.272,1.618,0.178,2.211-0.247s0.369-3.674,0.369-3.674c0.751-0.347,1.364-0.396,1.861-0.23
			c-0.068,0.443-0.121,0.821-0.151,1.078c-0.148,1.282-0.1,8.235-0.1,8.235S34.866,124.758,34.389,125.261z"/>
		<g>
			<g>
				<path fill="#627847" d="M21.522,119.304c-0.645,0.251-1.675,0.205-2.3-0.103c-0.625-0.308-0.609-0.761,0.036-1.012
					c0.646-0.252,1.676-0.206,2.301,0.102S22.168,119.053,21.522,119.304z"/>
				<polygon fill="#627847" points="22.458,114.368 22.017,118.816 18.764,118.676 18.708,114.206 				"/>
				<path fill="#B09064" d="M21.681,117.412c-0.672-0.314-1.777-0.364-2.469-0.109c-0.692,0.254-0.708,0.716-0.037,1.03
					c0.672,0.315,1.777,0.364,2.469,0.11C22.336,118.188,22.353,117.728,21.681,117.412z"/>
				<polygon fill="#B09064" points="22.174,117.958 22.443,115.563 18.621,115.386 18.682,117.798 				"/>
				<path fill="#DEC7A7" d="M21.904,114.97c-0.736-0.331-1.947-0.385-2.704-0.12c-0.757,0.265-0.774,0.748-0.038,1.079
					c0.736,0.332,1.947,0.385,2.704,0.12C22.624,115.784,22.64,115.301,21.904,114.97z"/>
				<path fill="#627847" d="M21.845,114.735c-0.697-0.344-1.846-0.395-2.565-0.114c-0.719,0.28-0.738,0.785-0.041,1.129
					c0.697,0.343,1.846,0.394,2.565,0.114C22.523,115.584,22.542,115.079,21.845,114.735z"/>
				<path fill="#FEBFBF" d="M18.75,116.058c0,0,0.119-0.29,0.05-0.439c-0.069-0.15-0.095-0.31-0.095-0.31l0.002-0.244l0.092-0.169
					c0,0-0.407,0.009-0.465,0.207c-0.058,0.198-0.125,0.706-0.125,0.706l0.272,0.28c0,0-0.275,0.058-0.323,0.168
					s-0.13,0.444-0.092,0.499c0.038,0.056,0.355,0.323,0.355,0.323s-0.175,0.131-0.186,0.219c-0.01,0.088,0.013,0.295,0.039,0.378
					c0.025,0.083,0.458,0.346,0.458,0.346s-0.097,0.149-0.112,0.281c-0.015,0.132,0.017,0.242,0.114,0.324
					c0.098,0.083,0.724,0.287,0.828,0.308c0.104,0.021,0.1-0.255,0.044-0.386s-0.586-0.245-0.586-0.245l0.002-0.258
					c0,0,0.405,0.042,0.469-0.136s-0.091-0.373-0.151-0.397c-0.059-0.024-0.541-0.177-0.541-0.177l-0.105-0.092
					c0,0,0.384,0.061,0.483,0.055c0.099-0.007,0.19-0.183,0.177-0.3s-0.137-0.28-0.281-0.343s-0.342-0.279-0.342-0.279
					L18.75,116.058z"/>
				<polygon fill="#627847" points="22.341,115.486 22.398,115.1 22.063,115.151 18.738,114.962 18.724,115.283 				"/>
				<path fill="#A19797" d="M21.966,115.399c-0.744,0.29-1.931,0.237-2.651-0.118c-0.721-0.355-0.702-0.877,0.042-1.167
					c0.744-0.29,1.931-0.237,2.651,0.118C22.729,114.587,22.71,115.109,21.966,115.399z"/>
				<path fill="#C7BEBE" d="M22.63,114.306l-0.309-0.014c-0.08-0.062-0.174-0.122-0.287-0.178c-0.785-0.387-2.08-0.444-2.891-0.128
					c-0.12,0.046-0.22,0.1-0.305,0.156l-0.295-0.013l-0.02,0.455c0,0.007-0.001,0.014-0.001,0.021l0,0.01h0.001
					c0.003,0.224,0.193,0.455,0.574,0.643c0.786,0.387,2.08,0.444,2.89,0.129c0.399-0.155,0.605-0.372,0.62-0.598h0.001
					L22.63,114.306z"/>
				<path fill="#E2D9D9" d="M22.053,113.677c-0.786-0.387-2.08-0.444-2.891-0.128c-0.811,0.315-0.832,0.885-0.046,1.271
					c0.786,0.387,2.08,0.445,2.891,0.129C22.818,114.634,22.838,114.064,22.053,113.677z"/>
				<path fill="#C7BEBE" d="M22.338,114.278c0-0.004,0-0.009,0-0.013l0.014-0.314l-0.161-0.007
					c-0.082-0.085-0.195-0.167-0.346-0.241c-0.673-0.332-1.783-0.381-2.478-0.11c-0.158,0.062-0.279,0.135-0.367,0.214l-0.153-0.006
					l-0.013,0.314v0.001l0,0.001h0c-0.006,0.197,0.158,0.401,0.493,0.566c0.674,0.332,1.783,0.381,2.478,0.11
					c0.342-0.133,0.519-0.319,0.532-0.513h0V114.278z"/>
				<path fill="#E1D8D8" d="M21.862,113.326c-0.673-0.332-1.783-0.381-2.478-0.11c-0.695,0.271-0.713,0.759-0.039,1.09
					c0.673,0.332,1.783,0.381,2.478,0.11C22.518,114.146,22.536,113.657,21.862,113.326z"/>
				<path fill="#C7BEBE" d="M22.03,113.957L22.03,113.957c-0.101,0.02-0.206-0.027-0.235-0.104l-0.011-0.031
					c-0.029-0.078,0.03-0.157,0.132-0.177l0,0c0.101-0.02,0.206,0.027,0.234,0.104l0.012,0.031
					C22.19,113.858,22.131,113.937,22.03,113.957z"/>
			</g>
		</g>
		<g>
			<path fill="#FEBFBF" d="M34.587,109.085c0,0-1.036,0.096-1.22,1.931c-0.184,1.834,0.908,9.826,1.597,10.606
				c0.689,0.78,1.734,0.281,2.033-1.449s0.214-6.732,0.186-7.339C37.156,112.227,36.938,108.108,34.587,109.085z"/>
			<path fill="#FEBFBF" d="M35.16,120.593c0,0-0.351,0.302-0.627,1.554c-0.276,1.251-0.849,7.308-1.321,7.936
				s-1.011,1.134-1.011,1.134s-0.536,0.914-0.564,1.196s-0.249,0.881-0.361,1.03c-0.113,0.149-0.498,0.706-0.466,0.833
				c0.032,0.128,0.405,0.21,0.563,0.057c0.158-0.152,0.614-1.244,0.767-1.442c0.153-0.198,0.322-0.261,0.322-0.261
				s0.161,0.763,0.106,0.952c-0.054,0.19-0.58,1.444-0.58,1.444s-0.514,0.775-0.529,0.844s0.272,0.125,0.418-0.002
				c0.146-0.128,0.112,0.126,0.404,0.049c0.292-0.077,1.08-0.753,1.08-0.753l0.125-0.175l0.58-0.11c0,0,0.831-1.374,0.887-1.75
				c0.056-0.376,0.332-3.299,0.332-3.299s2.534-7.103,1.572-9.066C36.413,120.149,35.16,120.593,35.16,120.593z"/>
			<path fill="#FEBFBF" d="M33.416,133.887c0,0-0.502,1.083-0.613,1.191s-0.928,0.789-0.928,0.789l0.187,0.019
				c0,0,0.372-0.385,0.465-0.455c0.094-0.071,0.417-0.372,0.417-0.372l0.448-0.941L33.416,133.887z"/>
			<path fill="#FEBFBF" d="M34.088,133.954l-0.472,0.919l-0.134,0.115l0.13-0.024c0,0,0.194-0.198,0.25-0.353
				C33.918,134.457,34.088,133.954,34.088,133.954z"/>
			<path fill="#E6F1FF" d="M34.725,108.133c0,0-0.938,0.186-1.402,1.484c-0.464,1.3,0.028,4.629,0.028,4.629s1.36-0.144,2.758-0.522
				c1.397-0.38,1.527-1.004,1.527-1.004s-0.734-3.035-0.981-3.5C36.409,108.755,36.376,107.619,34.725,108.133z"/>
		</g>
	</g>
	<g>
		<path fill="#FEC7C7" d="M26.242,95.69c0,0-0.55,0.438-0.91,1.362s-0.612,1.711-0.588,1.874c0.024,0.162,0.162,0.51-0.05,1.168
			c-0.213,0.658,0.456,3.951,1.169,4.276s4.011-0.783,4.378-1.253c0.367-0.47,1.305-2.375,1.42-3.656
			c0.116-1.281,0.492-2.776-1.363-3.549S26.242,95.69,26.242,95.69z"/>
		<g>
			
				<linearGradient id="SVGID_4_" gradientUnits="userSpaceOnUse" x1="1299.8062" y1="167.2148" x2="1299.1965" y2="167.2843" gradientTransform="matrix(0.995 0.1 -0.1 0.995 -1250.9182 -195.8364)">
				<stop  offset="0.1224" style="stop-color:#FEC7C7"/>
				<stop  offset="0.9896" style="stop-color:#FFDBDB"/>
			</linearGradient>
			<path fill="url(#SVGID_4_)" d="M25.815,99.278c0.07,0.363-0.87,1.846-0.912,2.177c-0.042,0.331,0.889,0.309,0.889,0.309
				L25.815,99.278z"/>
			
				<linearGradient id="SVGID_5_" gradientUnits="userSpaceOnUse" x1="1299.0894" y1="167.2266" x2="1300.0601" y2="167.2266" gradientTransform="matrix(0.995 0.1 -0.1 0.995 -1250.9182 -195.8364)">
				<stop  offset="0.188" style="stop-color:#FFDCDC"/>
				<stop  offset="0.8991" style="stop-color:#FEC7C7"/>
			</linearGradient>
			<path fill="url(#SVGID_5_)" d="M25.613,101.811c-0.22-0.01-0.572-0.048-0.705-0.195c-0.043-0.048-0.062-0.104-0.054-0.167
				c0.019-0.146,0.188-0.476,0.383-0.858c0.253-0.493,0.567-1.107,0.529-1.303l0.097-0.019c0.044,0.229-0.252,0.807-0.538,1.366
				c-0.184,0.358-0.357,0.697-0.373,0.826c-0.005,0.033,0.004,0.062,0.029,0.088c0.133,0.148,0.631,0.169,0.81,0.166l0.002,0.098
				C25.773,101.813,25.704,101.814,25.613,101.811z"/>
		</g>
		<g>
			<path fill="#754554" d="M28.522,99.626l-0.408-0.137c-0.987-0.229-1.497-0.115-1.502-0.114l-0.038-0.159
				c0.021-0.005,0.546-0.125,1.586,0.115l0.416,0.14L28.522,99.626z"/>
		</g>
		<g>
			<path fill="#754554" d="M25.536,99.065c-0.229-0.158-0.614-0.367-0.733-0.342l-0.034-0.16c0.236-0.048,0.759,0.297,0.86,0.367
				L25.536,99.065z"/>
		</g>
		
			<ellipse transform="matrix(0.9598 0.2808 -0.2808 0.9598 29.1988 -3.6903)" fill="#FFFFFF" cx="27.478" cy="100.052" rx="0.345" ry="0.295"/>
		
			<ellipse transform="matrix(0.6995 -0.7146 0.7146 0.6995 -63.59 48.0292)" fill="#FFFFFF" cx="25.317" cy="99.63" rx="0.243" ry="0.279"/>
		<path fill="#FB7F9E" d="M26.847,102.936c0,0-0.947-0.329-1.328-0.38s-0.408,0.079-0.381,0.208
			C25.166,102.894,25.757,103.833,26.847,102.936z"/>
		<path fill="#754554" d="M32.132,99.953c0,0-0.301-0.39-0.527-0.259s-0.651,0.309-0.669,0.487
			c-0.018,0.178-0.181,1.141-0.181,1.141s-0.408-0.714-0.336-1.426c0.071-0.712-0.148-1.708-0.437-2.15
			c-0.289-0.442-0.581-1.125-1.262-1.233c-0.683-0.108-1.629,0.023-2.185-0.02c-0.555-0.043-0.782-0.241-0.782-0.241l-0.501,1.01
			c0,0,0.03-0.505,0.34-1.069s2.568-3.136,5.734-1.352c2.326,1.127,2.173,3.711,1.812,4.647c-0.36,0.937-1.456,1.768-1.568,2.055
			c-0.111,0.288-0.414,0.692-0.414,0.958c0,0.267,0.131-1,0.356-1.537S32.132,99.953,32.132,99.953z"/>
		
			<linearGradient id="SVGID_6_" gradientUnits="userSpaceOnUse" x1="1304.978" y1="167.0068" x2="1306.5581" y2="167.0068" gradientTransform="matrix(0.995 0.1 -0.1 0.995 -1250.9182 -195.8364)">
			<stop  offset="0.1224" style="stop-color:#FEB9B8"/>
			<stop  offset="1" style="stop-color:#FFDEDE"/>
		</linearGradient>
		<path fill="url(#SVGID_6_)" d="M31.285,100.163c0,0,0.815-0.818,1.11-0.175c0.295,0.643-0.357,1.371-0.779,1.721
			c-0.422,0.351-0.731,0.446-0.852,0.254c-0.121-0.192,0.196-0.893,0.196-0.893L31.285,100.163z"/>
		<circle fill="#EFF0F5" cx="30.897" cy="101.927" r="0.165"/>
		
			<linearGradient id="SVGID_7_" gradientUnits="userSpaceOnUse" x1="1305.2319" y1="166.9004" x2="1306.3286" y2="166.9004" gradientTransform="matrix(0.995 0.1 -0.1 0.995 -1250.9182 -195.8364)">
			<stop  offset="0.1224" style="stop-color:#FCA4B5"/>
			<stop  offset="0.9896" style="stop-color:#FFADB7"/>
		</linearGradient>
		<path fill="url(#SVGID_7_)" d="M31.403,100.175c0,0,0.52-0.468,0.737-0.106c0.217,0.362,0.033,0.997-0.517,1.528
			c-0.529,0.193-0.607-0.034-0.6-0.101c0.007-0.065,0.209-0.359,0.236-0.62C31.286,100.616,31.403,100.175,31.403,100.175z"/>
	</g>
</g>
</svg>
