<?xml version="1.0" encoding="utf-8"?>
<!-- Generator: Adobe Illustrator 16.0.0, SVG Export Plug-In . SVG Version: 6.00 Build 0)  -->
<!DOCTYPE svg PUBLIC "-//W3C//DTD SVG 1.1//EN" "http://www.w3.org/Graphics/SVG/1.1/DTD/svg11.dtd">
<svg version="1.1" id="Layer_1" xmlns="http://www.w3.org/2000/svg" xmlns:xlink="http://www.w3.org/1999/xlink" x="0px" y="0px"
	 width="463.683px" height="425.749px" viewBox="0 0 463.683 425.749" enable-background="new 0 0 463.683 425.749"
	 xml:space="preserve">
<g>
	<path fill="#B24E6D" d="M295.112,151.843c0,0,1.532-0.476,2.785,0.511c1.434,1.128,0.663,3.56,0.229,4.569
		c-0.468,1.086-0.788,3.363,0.657,4.222c-0.357,0.904-2.611,0.148-3.294-0.282S292.185,154.324,295.112,151.843z"/>
	<g>
		<path fill="#D7E4F2" d="M284.443,218.484c4.183,2.662,11.16,2.951,15.584,0.645c4.424-2.306,4.62-6.333,0.438-8.995
			c-4.183-2.661-11.16-2.95-15.584-0.644C280.456,211.796,280.26,215.823,284.443,218.484z"/>
		<g>
			<path fill="#FFA1A3" d="M290.255,209.256c0,0,1.118,0.944,0.963,1.522c-0.154,0.578-2.333,4.153-3.487,4.573
				c-2.402,0.874-1.856-1.335-1.462-1.793c0.349-0.403,1.741-1.519,1.715-2.561C287.949,209.595,290.255,209.256,290.255,209.256z"
				/>
			<path fill="#8E8E8E" d="M290.033,212.572c0,0,0.407,0.134,0.415,0.441c0.009,0.31,0.059,1.471,0.059,1.471
				s0.272,0.143,0.425,0.07c0.151-0.073,0.362-0.44,0.362-0.44s0.191-2.287,0.303-2.752S290.033,212.572,290.033,212.572z"/>
			<path fill="#C2D2EA" d="M291.322,209.903c0,0-1.597,1.948-2.224,3.23s-1.315,1.802-1.829,1.784
				c-0.818-0.025-1.352-0.524-1.176-0.941c0.176-0.418,0.176-0.418,0.176-0.418s-2.075,2.21-1.794,3.586
				c0.281,1.377,3.924-0.551,4.476-1.269c0.21-0.274,0.62-2.271,1.095-2.842c0.474-0.571,1.22-0.333,1.517-1.495
				C291.861,210.377,291.322,209.903,291.322,209.903z"/>
			<path fill="#8E8E8E" d="M290.146,212.759c-0.475,0.571-1.079,2.669-1.29,2.942c-0.513,0.669-3.717,2.344-4.384,1.42
				c0.002,0.008,0.001,0.016,0.003,0.023c0.281,1.377,3.924-0.551,4.476-1.269c0.21-0.274,0.62-2.271,1.095-2.842
				c0.413-0.497,1.258-0.345,1.461-1.308C291.167,211.965,290.49,212.346,290.146,212.759z"/>
			<path fill="#8E8E8E" d="M298.301,208.844c0,0,0.6-0.147,0.579,0.16c-0.021,0.309-0.201,2.225-0.201,2.225s0.13,0.14,0.287,0.081
				c0.157-0.058,0.402-0.403,0.402-0.403s0.334-1.865,0.349-2.343C299.735,207.996,298.301,208.844,298.301,208.844z"/>
			
				<linearGradient id="SVGID_1_" gradientUnits="userSpaceOnUse" x1="1135.562" y1="245.248" x2="1139.9028" y2="245.248" gradientTransform="matrix(-0.9957 -0.0923 -0.0923 0.9957 1452.5281 70.251)">
				<stop  offset="0.1224" style="stop-color:#FEC7C7"/>
				<stop  offset="0.9694" style="stop-color:#FFADB7"/>
			</linearGradient>
			<path fill="url(#SVGID_1_)" d="M298.598,206.146c0,0,0.845,0.756,0.782,1.672c-0.062,0.9-1.377,4.503-2.551,4.866
				c-1.174,0.362-2.29-0.443-2.168-0.962c0.123-0.519,1.227-2.088,1.572-3.357C296.603,207.011,298.598,206.146,298.598,206.146z"/>
			<path fill="#C2D2EA" d="M296.257,207.833c0,0-0.952,1.589-1.387,2.681c-0.945,2.383-0.958,3.444-0.81,4.03
				c0.155,0.612,1.924,0.159,3.211-0.79c1.475-1.089,0.927-2.509,1.865-3.871c0.304-0.441,0.581-0.761,0.63-1.848
				c0.058-0.922-0.739-1.347-0.739-1.347s0.571,0.967,0.203,1.731c-0.185,0.385-0.132,0.559-0.405,1.037
				c-0.545,0.954-0.675,1.907-1.423,2.58c-0.701,0.631-2.661,0.124-2.588-0.266c0.135-0.721,0.831-1.913,1.118-2.58
				C296.274,208.396,296.257,207.833,296.257,207.833z"/>
			<path fill="#8E8E8E" d="M299.083,209.776c-0.938,1.361-0.346,2.693-1.821,3.782c-1.19,0.879-2.896,1.352-3.225,0.895
				c0.008,0.03,0.017,0.062,0.023,0.091c0.155,0.612,1.924,0.159,3.211-0.79c1.475-1.089,0.927-2.509,1.865-3.871
				c0.198-0.288,0.494-0.57,0.552-1.154C299.515,209.035,299.231,209.562,299.083,209.776z"/>
			<g>
				<path fill="#738E9E" d="M291.348,196.722c0,0.002,0,0.002,0,0.004c-0.022,0.099-0.049,0.192-0.079,0.279
					c-0.094,0.278-0.266,0.5-0.491,0.671c0,0,0,0,0,0.002c-1.101,0.851-3.424,0.489-3.665-0.347
					c-0.661-2.284-1.462-8.451-1.977-11.471c-0.518-3.019,0.646-8.207,0.646-8.207s5.461,1.887,6.444,2.568
					c0.585,0.403,0.343,3.313-0.013,5.899c-0.242,1.775-0.54,3.397-0.662,3.951C291.267,191.36,291.771,194.944,291.348,196.722z"/>
				<path fill="#738E9E" d="M290.83,210.18c-0.023,0.22-0.179,0.418-0.422,0.561c-0.526,0.31-1.46,0.354-2.351-0.255
					c0,0-1.057-14.286-1.992-18.645c1.637-0.368,4.099,4.396,4.808,4.351c0.345-0.022,0.52,0.115,0.476,0.53
					c0,0.002,0,0.002,0,0.004c-0.139,1.276,0.678,5.058,0.467,6.539C291.603,204.748,290.902,209.485,290.83,210.18z"/>
				<path fill="#A8B0C2" d="M290.83,210.18c-0.023,0.22-0.179,0.418-0.422,0.561c0.143-1.771,0.383-4.004,0.71-5.62
					c0.476-2.35-0.27-5.708-0.34-7.442c0-0.002,0-0.002,0-0.002c-0.012-0.309-0.003-0.604,0.044-0.88
					c0.029-0.182,0.046-0.385,0.051-0.604c0.063-1.976-0.696-5.246-0.524-6.454c0.064-0.451,0.179-1.661,0.02-2.348
					c-0.313-1.358-1.077-2.252-1.077-2.252c1.177,0.104,2.14,0.449,2.924,0.983c-0.242,1.775-0.54,3.397-0.662,3.951
					c-0.285,1.289,0.219,4.872-0.204,6.65c0,0.002,0,0.002,0,0.004c-0.139,1.276,0.678,5.058,0.467,6.539
					C291.603,204.748,290.902,209.485,290.83,210.18z"/>
				<path fill="#738E9E" d="M288.519,181.774c0,0-0.098,1.824,0.546,2.997c0.645,1.173,1.799,1.985,1.799,1.985
					s1.86,7.472,3.538,10.451c0.752,1.335,3.217,0.945,3.42-1.432s0.22-4.482,1.126-9.705c0.221-1.272,0.277-3.555-1.453-6.018
					C295.764,177.59,288.519,181.774,288.519,181.774z"/>
				<g>
					<g>
						<path fill="#92BACF" d="M294.892,185.093c-2.734-0.118-2.966-1.957-2.968-1.977l0.244-0.026
							c0.009,0.075,0.248,1.82,3.146,1.762l0.005,0.246C295.17,185.101,295.028,185.099,294.892,185.093z"/>
					</g>
					<path fill="#AF727B" d="M298.431,181.731c0,0-2.215,0.649-5.457,0.757c-3.242,0.106-4.462-0.242-5.531-0.861
						c-1.068-0.62-1.713-1.484-1.713-1.484l0.23-1.438c0,0,0.59,1.107,2.116,1.751s4.843,0.593,6.194,0.507s3.919-0.929,3.919-0.929
						L298.431,181.731z"/>
					<path fill="#738E9E" d="M291.404,181.076c0,0-0.098,0.414-0.121,0.896s-0.027,1.362-0.027,1.362l-0.489-0.041
						c0,0-0.069-0.843-0.042-1.272c0.028-0.428,0.154-1.029,0.154-1.029L291.404,181.076z"/>
					<path fill="#738E9E" d="M286.929,179.737c0,0-0.131,0.513-0.157,0.924c-0.027,0.41,0.024,1.102,0.024,1.102l-0.319-0.424
						c0,0-0.035-0.701-0.021-0.924s0.21-0.89,0.21-0.89L286.929,179.737z"/>
					<g>
						<path fill="#92BACF" d="M285.298,182.199c-0.023-0.001-0.047-0.005-0.071-0.011l0.061-0.237
							c0.007,0.001,0.014,0.003,0.021,0.003c0.223,0.01,0.551-0.64,0.708-1.134l0.233,0.075
							C286.178,181.125,285.801,182.221,285.298,182.199z"/>
					</g>
					<g>
						<path fill="#CCDEFB" d="M288.986,182.558c-0.057-0.001-0.115-0.011-0.173-0.028l-0.908-0.27
							c-0.388-0.115-0.681-0.542-0.668-0.973l0.013-0.41c0.006-0.21,0.083-0.392,0.218-0.514c0.151-0.137,0.358-0.18,0.569-0.117
							l0.908,0.27c0.388,0.115,0.681,0.542,0.668,0.973l-0.012,0.41c-0.007,0.209-0.084,0.392-0.218,0.514
							C289.274,182.513,289.134,182.563,288.986,182.558z M287.862,180.688c-0.063-0.001-0.117,0.017-0.157,0.053
							c-0.042,0.038-0.064,0.092-0.066,0.161l-0.012,0.41c-0.006,0.202,0.164,0.431,0.365,0.491l0.908,0.27
							c0.097,0.029,0.188,0.015,0.246-0.038c0.041-0.038,0.063-0.092,0.065-0.161l0.012-0.41c0.006-0.202-0.164-0.431-0.364-0.49
							l-0.908-0.271C287.919,180.694,287.89,180.689,287.862,180.688z"/>
					</g>
				</g>
				<path fill="#738E9E" d="M294.451,196.106c0,0-0.541,0.193-0.049,1.101s2.525,7.094,2.146,10.283
					c1.046,0.96,2.223,0.669,2.556-0.338c0.332-1.007,0.68-7.881,0.229-9.269c-0.451-1.389-1.503-2.141-1.427-3.183
					C297.981,193.658,294.451,196.106,294.451,196.106z"/>
				<g>
					<path fill="#92BACF" d="M298.955,207.655l-0.243-0.031c0.97-7.645-0.546-10.256-1.043-11.114l-0.05-0.086
						c-0.491-0.859-0.139-6.069,0.189-8.621c0.462-3.617-1.117-5.593-1.134-5.612l0.189-0.156c0.068,0.083,1.664,2.071,1.187,5.799
						c-0.373,2.912-0.629,7.751-0.219,8.469l0.049,0.084C298.389,197.263,299.935,199.928,298.955,207.655z"/>
				</g>
			</g>
		</g>
		<g>
			<path fill="#FEBFBF" d="M285.986,165.902c0,0-1.871,3.437-2.299,5.958c-0.429,2.521,1.292,1.062,1.996,0.344
				C286.387,171.485,290.991,163.521,285.986,165.902z"/>
			<path fill="#B9D3E1" d="M290.843,159.953l-1.986-0.035c0,0-1.935,0.556-2.445,1.622c-0.51,1.065-1.14,3.722-1.14,3.722
				s0.564,1.05,1.236,1.379C287.179,166.971,290.843,159.953,290.843,159.953z"/>
			<path fill="#B9D3E1" d="M285.272,165.262c0,0-1.457,4.644-1.653,5.163s0.875,0.783,1.031,1.341
				c0.155,0.558-0.181,1.398-0.108,1.358c0.072-0.04,0.533-0.239,1.024-0.803c0.49-0.563,2.505-5.398,2.214-5.99
				C287.488,165.74,285.272,165.262,285.272,165.262z"/>
			<path fill="#FFFFFF" d="M298.02,181.678c0,0-1.015-0.052-2.998,0.206c-1.982,0.258-6.135,0.567-8.497-1.571
				c-1.572-1.378-1.233-1.367-1.192-1.65c0.04-0.283,0.556-4.281,0.452-5.954c-0.104-1.672-0.557-2.421-0.198-3.668
				c0.357-1.246,0.778-1.799,1.068-3.325c0.289-1.526,0.974-4.336,1.127-4.541c1.02-1.361,3.238-1.244,3.611-1.208
				c0.228,0.021,4.218,0.556,4.218,0.556s0.727-0.004,1.566,0.81c0.886,0.86,2.707,2.196,2.707,2.196l-1.78,13.008L298.02,181.678z"
				/>
			<path fill="#92BACF" d="M291.393,159.967c0,0-1.499-0.319-2.605,0.174c-1.106,0.493-1.479,2.076-1.912,3.822
				s-1.461,3.986-1.715,6.279c-0.255,2.294-0.219,7.865-0.219,7.865l0.55-0.751c0,0,0.355-1.938,0.454-3.831
				c0.09-1.73-0.082-3.425-0.015-3.53c0.142-0.221,3.271-7.435,3.529-7.747C289.72,161.935,290.849,160.164,291.393,159.967z"/>
			
				<linearGradient id="SVGID_2_" gradientUnits="userSpaceOnUse" x1="1373.4019" y1="217.7637" x2="1374.2581" y2="217.3434" gradientTransform="matrix(0.9991 0.0431 -0.0431 0.9991 -1078.2738 -105.6812)">
				<stop  offset="0.1224" style="stop-color:#FEB9B8"/>
				<stop  offset="1" style="stop-color:#FFDEDE"/>
			</linearGradient>
			<path fill="url(#SVGID_2_)" d="M285.615,171.027c0,0-0.031,0.23-0.233,0.309c-0.203,0.079-0.745-0.22-0.745-0.22
				s-0.009-0.822,0.106-0.771c0.114,0.052,0.512,0.381,0.512,0.381S285.685,170.907,285.615,171.027z"/>
			<path fill="#FEBFBF" d="M295.14,159.867c0.138,0.012,0.473,0.554,1.074,0.883c0.603,0.329,0.617,0.412-0.15,1.06
				s-3.525,3.565-5.186,3.14c-1.661-0.426-1.51-2.053-1.418-2.702c0.093-0.649,1.15-2.093,1.479-2.222
				S295.14,159.867,295.14,159.867z"/>
			<path fill="#92BACF" d="M296.437,160.784c0,0-3.534,3.146-4.401,5.342c-0.866,2.196,0.148,5.807-1.584,14.66
				c0.296,1.328,9.788,0.822,9.444-1.643c-0.152-1.098-0.012-15.615-0.012-15.615S296.927,160.949,296.437,160.784z"/>
			<g>
				<path fill="#DBE8EF" d="M296.832,177.589c-1.42-0.332-3.706-1.954-3.803-2.022l0.142-0.2c0.024,0.018,2.345,1.663,3.717,1.984
					L296.832,177.589z"/>
			</g>
			<path fill="#A8B0C2" d="M296.722,167.532c0,0,0.021,6.03,0.093,7.264c0.072,1.234-0.753,8.05-0.753,8.05s1.423-0.228,1.658-0.548
				c0.234-0.321,0.678-7.416,0.398-9.248C297.839,171.218,296.722,167.532,296.722,167.532z"/>
			
				<linearGradient id="SVGID_3_" gradientUnits="userSpaceOnUse" x1="1699.3687" y1="184.7451" x2="1696.517" y2="181.9624" gradientTransform="matrix(0.99 0.1411 -0.1411 0.99 -1360.9968 -261.7202)">
				<stop  offset="0.1224" style="stop-color:#FEC7C7"/>
				<stop  offset="0.9694" style="stop-color:#FFADB7"/>
			</linearGradient>
			<path fill="url(#SVGID_3_)" d="M290.537,159.44c0,0,0.265,0.7,0.176,1.323c-0.088,0.623-0.478,1.648-0.478,1.648
				s0.353,0.753,1.888,0.647s1.61-0.635,2.106-0.889c0.495-0.254,1.793-1.458,1.719-1.55c-0.075-0.092-1.315-0.774-0.754-2.57
				c0.562-1.794,1.318-2.704,1.318-2.704s0.455-0.746-0.072-0.821C295.912,154.449,290.537,159.44,290.537,159.44z"/>
			
				<linearGradient id="SVGID_4_" gradientUnits="userSpaceOnUse" x1="1694.4272" y1="184.4883" x2="1697.896" y2="184.4883" gradientTransform="matrix(0.99 0.1411 -0.1411 0.99 -1360.9968 -261.7202)">
				<stop  offset="0.1224" style="stop-color:#FCA4B5"/>
				<stop  offset="0.9896" style="stop-color:#FFADB7"/>
			</linearGradient>
			<path fill="url(#SVGID_4_)" d="M294.143,158.72c0,0-1.354,1.163-1.654,1.769c-0.301,0.605-1.603,1.394-1.603,1.394l-0.155-1.378
				l-0.194-1.064L294.143,158.72z"/>
			<path fill="#FEC7C7" d="M290.526,150.979c0,0-0.573,0.418-0.974,1.334c-0.401,0.916-0.688,1.699-0.672,1.864
				c0.018,0.164,0.143,0.52-0.1,1.175s0.295,4.002,1.001,4.359c0.706,0.357,4.075-0.622,4.465-1.08
				c0.39-0.458,1.414-2.339,1.584-3.625s0.612-2.778-1.226-3.634C292.768,150.515,290.526,150.979,290.526,150.979z"/>
			<g>
				
					<linearGradient id="SVGID_5_" gradientUnits="userSpaceOnUse" x1="1693.3218" y1="180.4302" x2="1692.5592" y2="180.4821" gradientTransform="matrix(0.99 0.1411 -0.1411 0.99 -1360.9968 -261.7202)">
					<stop  offset="0.1224" style="stop-color:#FEC7C7"/>
					<stop  offset="0.9896" style="stop-color:#FFDBDB"/>
				</linearGradient>
				<path fill="url(#SVGID_5_)" d="M289.946,154.577c0.056,0.368-0.954,1.824-1.01,2.156c-0.057,0.332,0.883,0.349,0.883,0.349
					L289.946,154.577z"/>
				
					<linearGradient id="SVGID_6_" gradientUnits="userSpaceOnUse" x1="1692.4097" y1="180.46" x2="1693.3901" y2="180.46" gradientTransform="matrix(0.99 0.1411 -0.1411 0.99 -1360.9968 -261.7202)">
					<stop  offset="0.188" style="stop-color:#FFDCDC"/>
					<stop  offset="0.8991" style="stop-color:#FEC7C7"/>
				</linearGradient>
				<path fill="url(#SVGID_6_)" d="M289.762,157.129c-0.175-0.007-0.672-0.045-0.829-0.233c-0.041-0.051-0.057-0.108-0.047-0.171
					c0.024-0.146,0.209-0.471,0.422-0.848c0.275-0.487,0.619-1.093,0.589-1.292l0.098-0.015c0.035,0.233-0.288,0.804-0.6,1.356
					c-0.2,0.353-0.39,0.688-0.411,0.815c-0.005,0.034,0.003,0.063,0.026,0.09c0.128,0.154,0.63,0.202,0.81,0.2l-0.002,0.1
					C289.808,157.131,289.79,157.13,289.762,157.129z"/>
			</g>
			<g>
				<path fill="#754554" d="M292.563,154.738c-1.138-0.288-1.958-0.131-1.966-0.129l-0.032-0.163
					c0.035-0.007,0.865-0.164,2.038,0.131L292.563,154.738z"/>
			</g>
			<g>
				<path fill="#754554" d="M289.684,154.391c-0.224-0.17-0.609-0.397-0.725-0.375l-0.027-0.163
					c0.254-0.042,0.753,0.331,0.852,0.406L289.684,154.391z"/>
			</g>
			
				<ellipse transform="matrix(0.9476 0.3196 -0.3196 0.9476 64.9649 -85.0378)" fill="#FFFFFF" cx="291.589" cy="155.427" rx="0.348" ry="0.298"/>
			
				<ellipse transform="matrix(0.7287 -0.6848 0.6848 0.7287 -27.57 240.2252)" fill="#FFFFFF" cx="289.429" cy="154.912" rx="0.245" ry="0.281"/>
			<path fill="#B24E6D" d="M290.833,158.308c0,0-0.941-0.371-1.323-0.439s-0.414,0.063-0.393,0.194
				C289.14,158.194,289.697,159.166,290.833,158.308z"/>
			<path fill="#BD627E" d="M296.285,155.521c0,0-0.287-0.405-0.521-0.283c-0.233,0.123-0.668,0.284-0.693,0.463
				c-0.026,0.179-0.23,1.143-0.23,1.143s-0.382-0.737-0.28-1.452c0.103-0.715-0.078-1.728-0.351-2.185
				c-0.272-0.458-0.537-1.158-1.221-1.296c-0.684-0.138-1.643-0.045-2.2-0.11c-0.559-0.066-0.778-0.275-0.778-0.275l-0.548,0.997
				c0,0,0.052-0.508,0.388-1.063c0.336-0.555,2.719-3.054,5.836-1.123c2.298,1.233,2.035,3.831,1.633,4.76s-1.542,1.721-1.667,2.006
				c-0.124,0.285-0.445,0.68-0.457,0.948c-0.011,0.269,0.175-1.002,0.424-1.534C295.867,155.984,296.285,155.521,296.285,155.521z"
				/>
		</g>
		<g>
			<path fill="#749982" d="M283.954,174.244c-0.651,0.253-1.69,0.207-2.321-0.104s-0.614-0.768,0.037-1.021
				c0.651-0.253,1.69-0.207,2.32,0.104C284.621,173.533,284.605,173.99,283.954,174.244z"/>
			<polygon fill="#749982" points="284.897,169.265 284.453,173.752 281.17,173.611 281.115,169.102 			"/>
			<path fill="#A89373" d="M284.114,172.335c-0.678-0.317-1.793-0.367-2.491-0.111c-0.698,0.257-0.715,0.723-0.037,1.04
				c0.678,0.318,1.793,0.367,2.491,0.111C284.775,173.119,284.791,172.653,284.114,172.335z"/>
			<polygon fill="#A89373" points="284.611,172.886 284.881,170.471 281.026,170.291 281.088,172.725 			"/>
			<path fill="#DEC7A7" d="M284.338,169.872c-0.743-0.334-1.964-0.389-2.729-0.122c-0.764,0.267-0.781,0.755-0.038,1.089
				c0.742,0.334,1.964,0.388,2.729,0.121C285.064,170.693,285.082,170.206,284.338,169.872z"/>
			<path fill="#FEBFBF" d="M281.155,170.746c0,0,0.135-0.286,0.072-0.44s-0.081-0.316-0.081-0.316l0.014-0.246l0.102-0.166
				c0,0-0.41-0.011-0.479,0.185c-0.068,0.197-0.161,0.706-0.161,0.706l0.261,0.296c0,0-0.28,0.044-0.334,0.153
				s-0.154,0.441-0.118,0.499s0.342,0.343,0.342,0.343s-0.183,0.124-0.197,0.212c-0.015,0.088-0.002,0.297,0.02,0.382
				s0.444,0.371,0.444,0.371s-0.105,0.146-0.127,0.278c-0.021,0.132,0.005,0.245,0.1,0.332c0.094,0.088,0.715,0.325,0.818,0.352
				c0.104,0.026,0.114-0.253,0.063-0.388c-0.05-0.135-0.578-0.275-0.578-0.275l0.016-0.26c0,0,0.405,0.063,0.479-0.113
				c0.074-0.175-0.073-0.38-0.132-0.408c-0.06-0.027-0.536-0.205-0.536-0.205l-0.102-0.098c0,0,0.385,0.081,0.484,0.079
				s0.2-0.175,0.192-0.294c-0.008-0.119-0.124-0.289-0.267-0.36c-0.142-0.07-0.33-0.298-0.33-0.298L281.155,170.746z"/>
			<path fill="#749982" d="M284.278,169.635c-0.703-0.346-1.861-0.398-2.587-0.115c-0.727,0.283-0.744,0.792-0.041,1.138
				c0.703,0.347,1.861,0.398,2.588,0.116C284.963,170.491,284.982,169.981,284.278,169.635z"/>
			<polygon fill="#749982" points="284.779,170.393 284.837,170.003 284.499,170.055 281.145,169.864 281.13,170.188 			"/>
			<path fill="#A19797" d="M284.401,170.305c-0.75,0.292-1.947,0.239-2.675-0.119c-0.727-0.358-0.708-0.885,0.043-1.177
				c0.75-0.292,1.947-0.239,2.675,0.119C285.17,169.485,285.152,170.013,284.401,170.305z"/>
			<path fill="#C5C9D8" d="M285.071,169.202l-0.312-0.013c-0.081-0.063-0.176-0.123-0.29-0.18c-0.792-0.39-2.098-0.448-2.916-0.129
				c-0.121,0.047-0.222,0.1-0.308,0.157l-0.298-0.013l-0.02,0.459c-0.001,0.007-0.001,0.014-0.001,0.021l-0.001,0.01h0.002
				c0.003,0.227,0.194,0.459,0.579,0.649c0.792,0.39,2.098,0.448,2.916,0.129c0.401-0.156,0.609-0.375,0.625-0.603h0.001
				L285.071,169.202z"/>
			<path fill="#EFF0F5" d="M284.488,168.568c-0.792-0.391-2.098-0.449-2.915-0.13c-0.818,0.318-0.839,0.893-0.047,1.283
				c0.793,0.39,2.099,0.448,2.916,0.13C285.26,169.533,285.281,168.958,284.488,168.568z"/>
			<path fill="#C5C9D8" d="M284.776,169.174c0.001-0.004,0.001-0.009,0.001-0.013l0.014-0.316l-0.162-0.007
				c-0.082-0.086-0.197-0.169-0.35-0.244c-0.679-0.334-1.798-0.384-2.499-0.111c-0.159,0.062-0.281,0.136-0.37,0.216l-0.154-0.007
				l-0.014,0.317v0.001v0.002l0,0c-0.006,0.198,0.16,0.404,0.498,0.57c0.68,0.334,1.799,0.385,2.5,0.111
				c0.345-0.134,0.523-0.321,0.536-0.517l0,0V169.174z"/>
			<path fill="#EFF0F5" d="M284.296,168.213c-0.68-0.335-1.799-0.384-2.5-0.111s-0.72,0.765-0.04,1.1
				c0.68,0.334,1.799,0.384,2.5,0.111S284.975,168.548,284.296,168.213z"/>
			<path fill="#A0A6C0" d="M284.496,168.945L284.496,168.945c-0.132,0.026-0.27-0.035-0.307-0.137l-0.016-0.041
				c-0.037-0.102,0.04-0.205,0.173-0.231l0,0c0.132-0.026,0.27,0.035,0.307,0.137l0.016,0.041
				C284.706,168.815,284.628,168.919,284.496,168.945z"/>
		</g>
		<g>
			<path fill="#FEBFBF" d="M298.335,163.979c0,0-1.048,0.053-1.311,1.895c-0.262,1.841,0.505,9.941,1.167,10.756
				s1.736,0.355,2.109-1.375c0.373-1.731,0.497-6.776,0.494-7.389C300.792,167.252,300.746,163.092,298.335,163.979z"/>
			<path fill="#FEBFBF" d="M298.432,175.601c0,0-0.366,0.29-0.697,1.54s-1.161,7.331-1.663,7.943
				c-0.502,0.613-1.066,1.101-1.066,1.101s-0.579,0.899-0.619,1.182c-0.04,0.283-0.287,0.878-0.407,1.023
				c-0.12,0.146-0.531,0.69-0.505,0.82c0.027,0.13,0.4,0.229,0.565,0.081s0.671-1.229,0.833-1.422
				c0.163-0.193,0.336-0.25,0.336-0.25s0.13,0.775,0.067,0.965c-0.063,0.189-0.646,1.43-0.646,1.43s-0.55,0.759-0.568,0.829
				c-0.02,0.069,0.269,0.137,0.421,0.015c0.152-0.123,0.107,0.132,0.405,0.066s1.119-0.714,1.119-0.714l0.133-0.17l0.589-0.087
				c0,0,0.896-1.35,0.967-1.728c0.072-0.377,0.472-3.311,0.472-3.311s2.851-7.053,1.964-9.072
				C299.713,175.207,298.432,175.601,298.432,175.601z"/>
			<path fill="#FEBFBF" d="M296.119,188.927c0,0-0.551,1.07-0.667,1.175c-0.117,0.105-0.969,0.756-0.969,0.756l0.188,0.026
				c0,0,0.391-0.372,0.487-0.439c0.098-0.067,0.437-0.356,0.437-0.356l0.49-0.931L296.119,188.927z"/>
			<path fill="#FEBFBF" d="M296.794,189.023l-0.515,0.907l-0.14,0.11l0.133-0.02c0,0,0.204-0.191,0.266-0.345
				C296.601,189.522,296.794,189.023,296.794,189.023z"/>
			<path fill="#B9D3E1" d="M298.478,163.383c0,0-0.954,0.148-1.476,1.439c-0.521,1.29-0.165,4.665-0.165,4.665
				s1.378-0.087,2.802-0.411c1.425-0.324,1.581-0.948,1.581-0.948s-0.613-3.09-0.843-3.568
				C300.149,164.081,300.164,162.935,298.478,163.383z"/>
		</g>
	</g>
	<path fill="#E6EAF2" d="M289.243,162.49c0,0-1.622,5.737-1.604,7.978c0.018,2.241-0.28,8.36-0.28,8.36s-1.68,0.358-1.763-1.04
		s1.278-9.952,1.278-9.952S288.899,161.091,289.243,162.49z"/>
	<path fill="#B8CFEC" d="M284.942,178.106c0,0,0.867-0.293,1.163-1.411c0.297-1.118,0.569-2.953,0.596-4.841
		c0.025-1.888,1.003-5.004,1.433-6.368c0.43-1.363,1.507-3.754,1.507-3.754s-3.49,6.541-3.709,8.262
		C285.713,171.715,285.856,177.374,284.942,178.106z"/>
	<path fill="#DBE8EF" d="M290.849,159.816c0,0-0.663-0.044-0.949,0.026c-0.286,0.07-1.159,0.836-1.254,1.094
		c-0.094,0.258,0.064,0.995,0.064,0.995s-0.751,1.305-0.77,1.525c-0.02,0.22-0.651,2.976-0.651,2.976l2.274-4.528L290.849,159.816z"
		/>
	<path fill="#B9D3E1" d="M297.058,179.175l0.698-2.832l-0.919-6.856l4.383-1.359c0,0-0.031,5.732-0.476,7.333
		c-0.202,2.133-0.78,4.655-0.78,4.655L297.058,179.175z"/>
	<polygon fill="#DBE8EF" points="299.8,181.37 296.832,180.656 297.077,178.728 300.33,179.519 	"/>
	<path fill="#DBE8EF" d="M291.601,170.729c0,0,0.899-2.962,1.505-3.793c0.604-0.831,1.373-2.163,1.373-2.163l-0.412-0.7
		c0,0,0.981-0.057,1.831-0.59c0.851-0.534,1.493-2.039,1.493-2.039s-2.203-2.068-2.228-1.823c-0.023,0.246,0.376,0.81,0.376,0.81
		s0.123,0.463-0.009,0.768c-0.133,0.305-3.108,3.609-3.361,4.198C291.917,165.986,291.371,167.741,291.601,170.729z"/>
	<g>
		<polygon fill="#EFF0F5" points="288.027,154.291 288.073,154.177 288.054,154.177 288.948,153.886 288.999,153.708 
			287.79,154.198 		"/>
	</g>
	<g>
		<path fill="#A28C87" d="M289.242,154.831c0.179,0.528,0.061,1.006-0.264,1.069c-0.324,0.063-0.732-0.314-0.911-0.842
			c-0.178-0.527-0.06-1.006,0.265-1.069C288.656,153.926,289.064,154.303,289.242,154.831z"/>
	</g>
	<g>
		<path fill="#A28C87" d="M291.866,155.808c0.195,0.579-0.005,1.118-0.448,1.204s-0.962-0.314-1.157-0.894
			c-0.196-0.579,0.005-1.118,0.448-1.204C291.152,154.829,291.669,155.229,291.866,155.808z"/>
	</g>
	<g>
		<polygon fill="#EFF0F5" points="292.382,156.157 295.958,155.352 295.896,155.233 292.373,156.019 291.907,155.809 
			291.86,155.923 		"/>
	</g>
	
		<linearGradient id="SVGID_7_" gradientUnits="userSpaceOnUse" x1="1329.0073" y1="211.4932" x2="1330.6011" y2="211.4932" gradientTransform="matrix(0.9997 0.0264 -0.0264 0.9997 -1028.1338 -90.3086)">
		<stop  offset="0.1224" style="stop-color:#FEB9B8"/>
		<stop  offset="1" style="stop-color:#FFDEDE"/>
	</linearGradient>
	<path fill="url(#SVGID_7_)" d="M295.294,155.499c0,0,0.76-0.883,1.104-0.259c0.345,0.625-0.258,1.405-0.656,1.79
		c-0.398,0.384-0.702,0.503-0.838,0.319c-0.136-0.185,0.131-0.914,0.131-0.914L295.294,155.499z"/>
	
		<linearGradient id="SVGID_8_" gradientUnits="userSpaceOnUse" x1="1329.2642" y1="211.3857" x2="1330.3687" y2="211.3857" gradientTransform="matrix(0.9997 0.0264 -0.0264 0.9997 -1028.1338 -90.3086)">
		<stop  offset="0.1224" style="stop-color:#FCA4B5"/>
		<stop  offset="0.9896" style="stop-color:#FFADB7"/>
	</linearGradient>
	<path fill="url(#SVGID_8_)" d="M295.416,155.502c0,0,0.488-0.509,0.733-0.162c0.245,0.348,0.107,1-0.406,1.575
		c-0.519,0.234-0.612,0.011-0.611-0.056c0.002-0.067,0.185-0.377,0.191-0.641C295.33,155.955,295.416,155.502,295.416,155.502z"/>
	<g>
		<path fill="#EFF0F5" d="M290.185,155.362l0.117-0.056c-0.146-0.229-0.327-0.376-0.533-0.44c-0.286-0.087-0.518,0.022-0.528,0.028
			l0.074,0.114C289.333,154.999,289.81,154.78,290.185,155.362z"/>
	</g>
	<path fill="#EFF0F5" d="M288.445,155.721c-0.176-0.163-0.322-0.396-0.41-0.656c-0.183-0.544-0.054-1.04,0.287-1.106
		c0.164-0.034,0.361,0.041,0.542,0.209c0.177,0.163,0.322,0.397,0.41,0.657l-0.032,0.007l0.032-0.007
		c0.117,0.347,0.111,0.693-0.015,0.905c-0.064,0.11-0.158,0.179-0.271,0.2c-0.032,0.007-0.065,0.009-0.1,0.008
		C288.747,155.931,288.592,155.856,288.445,155.721z M288.341,154.019c-0.306,0.059-0.414,0.522-0.242,1.033
		c0.084,0.25,0.224,0.473,0.392,0.628c0.162,0.15,0.332,0.217,0.477,0.19c0.095-0.019,0.176-0.079,0.232-0.174
		c0.118-0.199,0.122-0.528,0.011-0.858l0,0c-0.085-0.25-0.225-0.473-0.391-0.628c-0.134-0.123-0.271-0.19-0.396-0.196
		C288.396,154.012,288.369,154.014,288.341,154.019z"/>
	<path fill="#EFF0F5" d="M290.725,156.837c-0.224-0.173-0.4-0.426-0.497-0.712c-0.201-0.595,0.01-1.152,0.471-1.241
		c0.18-0.035,0.374,0.005,0.564,0.114c0.282,0.162,0.519,0.462,0.634,0.804l0,0c0.201,0.595-0.009,1.151-0.47,1.24
		c-0.052,0.01-0.106,0.014-0.16,0.012C291.088,157.046,290.901,156.972,290.725,156.837z M290.718,154.944
		c-0.425,0.083-0.616,0.606-0.427,1.168c0.093,0.273,0.261,0.515,0.474,0.679c0.209,0.162,0.433,0.229,0.643,0.19
		c0.425-0.083,0.615-0.606,0.426-1.167l0,0c-0.11-0.326-0.335-0.612-0.601-0.765c-0.124-0.071-0.249-0.11-0.37-0.115
		C290.813,154.932,290.765,154.936,290.718,154.944z"/>
	<g>
		<path fill="#A8B0C2" d="M294.687,169.289c-0.205,0.5-0.736,0.709-1.186,0.469c-0.45-0.241-0.648-0.84-0.443-1.339
			c0.205-0.5,0.736-0.709,1.186-0.469C294.694,168.189,294.892,168.79,294.687,169.289z"/>
		<path fill="#DBA259" d="M294.599,169.243c-0.205,0.499-0.736,0.709-1.186,0.468c-0.45-0.24-0.648-0.839-0.443-1.339
			c0.206-0.499,0.736-0.709,1.187-0.468C294.606,168.144,294.804,168.744,294.599,169.243z"/>
		<path fill="#EDB83A" d="M294.486,169.218c-0.197,0.479-0.703,0.682-1.13,0.455c-0.427-0.229-0.612-0.802-0.415-1.281
			c0.197-0.479,0.703-0.683,1.13-0.455C294.498,168.165,294.683,168.739,294.486,169.218z"/>
		<path fill="#F7D165" d="M294.442,169.219c-0.192,0.469-0.688,0.667-1.104,0.444c-0.418-0.224-0.6-0.784-0.406-1.252
			s0.688-0.667,1.105-0.444C294.454,168.189,294.635,168.75,294.442,169.219z"/>
		<path fill="#738E9E" d="M293.871,168.109c-0.362-0.126-0.732,0.087-0.826,0.477c-0.093,0.389,0.126,0.81,0.488,0.936
			c0.362,0.127,0.732-0.087,0.825-0.477C294.452,168.656,294.233,168.236,293.871,168.109z M293.5,169.32
			c-0.08-0.043-0.146-0.102-0.198-0.176l0.278-0.161L293.5,169.32z M293.753,168.259l-0.084,0.353l0,0l-0.034,0.145l-0.411,0.238
			c-0.041-0.113-0.06-0.235-0.031-0.356C293.258,168.364,293.5,168.214,293.753,168.259z M293.649,169.372l0.079-0.333l0.17,0.311
			C293.82,169.38,293.736,169.387,293.649,169.372z M294.029,169.272l-0.247-0.455l0.121-0.506c0.233,0.125,0.372,0.409,0.307,0.682
			C294.181,169.113,294.112,169.204,294.029,169.272z"/>
	</g>
	
		<ellipse transform="matrix(0.5392 0.8422 -0.8422 0.5392 277.3672 -170.1415)" fill="#A08471" cx="294.158" cy="168.386" rx="0.329" ry="0.185"/>
	<path fill="#EFF0F5" d="M294.948,159.145c0.479,0.021,0.885-0.401,0.908-0.942c0.021-0.484-0.272-0.897-0.677-0.994
		c-0.018,0.036-0.041,0.069-0.073,0.097c0.013,0.002,0.024,0.001,0.036,0.003c0.237,0.056,0.438,0.24,0.535,0.492
		c0.17,0.435,0,0.948-0.379,1.145c-0.188,0.094-0.387,0.102-0.572,0.021c-0.19-0.081-0.341-0.243-0.423-0.455
		c-0.17-0.435,0.001-0.949,0.38-1.145c0.042-0.021,0.085-0.039,0.129-0.051c0.026-0.008,0.053-0.008,0.079-0.013
		c-0.011-0.019-0.027-0.034-0.026-0.062c0.001-0.017,0.014-0.031,0.02-0.047c-0.411,0.063-0.738,0.448-0.76,0.932
		C294.101,158.668,294.47,159.124,294.948,159.145z"/>
</g>
</svg>
