<?xml version="1.0" encoding="utf-8"?>
<!-- Generator: Adobe Illustrator 16.0.0, SVG Export Plug-In . SVG Version: 6.00 Build 0)  -->
<!DOCTYPE svg PUBLIC "-//W3C//DTD SVG 1.1//EN" "http://www.w3.org/Graphics/SVG/1.1/DTD/svg11.dtd">
<svg version="1.1" id="Layer_1" xmlns="http://www.w3.org/2000/svg" xmlns:xlink="http://www.w3.org/1999/xlink" x="0px" y="0px"
	 width="463.683px" height="425.749px" viewBox="0 0 463.683 425.749" enable-background="new 0 0 463.683 425.749"
	 xml:space="preserve">
<g>
	<path fill="#BDD6F2" d="M213.07,326.329c-4.325-2.752-11.539-3.05-16.114-0.666c-4.574,2.385-4.776,6.548-0.452,9.3
		c4.325,2.753,11.539,3.051,16.113,0.667C217.193,333.245,217.394,329.082,213.07,326.329z"/>
	<g>
		<path fill="#626170" d="M196.841,329.439c0,0-0.261,0.133-0.275,0.327c-0.013,0.194-0.021,0.729-0.019,0.854
			c0.001,0.126,0.332,0.614,1.143,0.804c0.811,0.188,2.783-0.333,3.447-0.722c0.664-0.387,1.57-1.375,1.846-1.449
			c0.216-0.059,0.769,0.021,0.997,0.06c0.071,0.012,0.14,0.014,0.211,0.008l0.521-0.044c0.074-0.006,0.147-0.021,0.218-0.047
			l1.116-0.396c0,0,0.16-0.819-0.176-1.077C205.536,327.498,196.841,329.439,196.841,329.439z"/>
		<path fill="#504F60" d="M201.438,326.112c0,0-0.966,0.611-1.138,0.784s-1.916,0.881-2.521,1.25c-0.604,0.368-1.06,0.999-1.1,1.206
			s-0.131,0.679-0.062,0.877s0.385,0.724,1.43,0.788c0.935,0.059,2.735-0.73,3.103-0.896c0.045-0.021,0.085-0.043,0.126-0.071
			c0.278-0.189,1.438-0.976,1.628-1.065c0.217-0.103,2.139-0.589,2.431-0.686c0.292-0.098,0.62-0.133,0.663-0.368
			c0.043-0.234,0.13-1.522-0.024-1.929C205.82,325.598,202.291,325.073,201.438,326.112z"/>
		<path fill="#4F5997" d="M205.994,326.285c-0.101,0.318-0.471,0.545-1.709,0.609c-0.143,0.006-0.286,0.013-0.429,0.013
			c-0.889,0.028-1.708-0.038-2.604-0.431c-0.314-0.137-0.525-0.448-0.529-0.791c-0.036-3.453-1.487-17.699-1.92-26.555
			c-0.274-5.602,0.941-8.447,0.941-8.447l5.982-0.344l0.219,14.776l-0.002,8.548C205.942,313.664,206.088,325.967,205.994,326.285z"
			/>
		<g>
			<path fill="#8C92B0" d="M204.296,326.917c-0.005-0.099-0.442-9.921-0.595-11.987c-0.153-2.071-0.279-13.819-0.281-13.938
				l0.23-0.002c0.001,0.118,0.127,11.858,0.281,13.922c0.153,2.07,0.59,11.896,0.594,11.995L204.296,326.917z"/>
		</g>
		<path fill="#A8B0C2" d="M205.994,326.285c-0.066,0.208-0.246,0.377-0.707,0.486c-0.633-0.487-0.867-0.668-1.5-1.155l-1.05-24.309
			c0,0-1.566-1.7-1.297-2.757c0.119-0.455,4.374,5.982,4.374,5.982l0.13,0.583l-0.002,8.548
			C205.942,313.664,206.088,325.967,205.994,326.285z"/>
		<path fill="#626170" d="M203.984,332.599c0,0-0.286,0.005-0.354,0.386c-0.022,0.126-0.037,0.259-0.045,0.381
			c-0.023,0.328,0.133,0.648,0.42,0.81c0.242,0.137,0.603,0.275,1.121,0.341c1.198,0.151,2.664-0.291,3.415-0.717
			c0.751-0.426,1.021-0.771,1.474-1.4s0.921-0.93,0.921-0.93l0.191,0.051c0,0,0.671-0.487,1.039-0.825
			c0.148-0.136,0.245-0.317,0.27-0.518c0.052-0.424,0.062-1.114-0.064-1.194C212.206,328.877,203.984,332.599,203.984,332.599z"/>
		<path fill="#504F60" d="M207.162,328.543l-0.157,0.374c-0.045,0.107-0.11,0.204-0.194,0.286c-0.441,0.429-1.914,1.865-2.363,2.346
			c-0.53,0.566-0.805,1.063-0.828,1.578c-0.023,0.514,1.313,0.847,1.513,0.861c0.201,0.014,1.088,0.102,2.226-0.322
			c1.137-0.424,1.606-0.832,2.519-1.824c0.913-0.994,1.53-1.54,1.81-1.767c0.28-0.227,0.688-0.589,0.683-0.883
			s0.042-1.118-0.199-1.22c-0.217-0.093-3.401-0.358-4.589,0.125C207.386,328.178,207.243,328.349,207.162,328.543z"/>
		<path fill="#4F5997" d="M202.044,293.066c0,0-0.567,2.456-0.793,4.797c-0.203,2.09,2.012,2.832,2.012,2.832
			s1.425,9.979,1.931,12.438c0.449,2.178,1.7,12.396,1.981,14.634c0.037,0.294,0.219,0.545,0.488,0.671
			c0.805,0.376,2.588,1.018,4.066,0.186c0.261-0.146,0.425-0.426,0.435-0.725c0.231-6.914-0.919-15.169-0.994-16.244
			c-0.003-0.041-0.004-0.075-0.002-0.116c0.101-2.023,1.18-9.071,1.541-13.821c0.316-1.867-0.231-4.828-0.231-4.828L202.044,293.066
			z"/>
		<g>
			<path fill="#8C92B0" d="M202.469,299.225c-0.073-0.003-0.15-0.027-0.229-0.07c-0.376-0.211-0.777-0.869-0.766-1.815
				c0.006-0.515,0.124-2.555,0.162-2.798l0.228,0.035c-0.033,0.209-0.153,2.227-0.16,2.766c-0.01,0.91,0.382,1.463,0.648,1.611
				c0.078,0.043,0.146,0.053,0.186,0.027c0.062-0.039,0.092-0.164,0.081-0.334c-0.076-1.187,0.093-3.938,0.291-4.062l0.058-0.036
				l0.066,0.033l-0.058,0.102l0.001-0.002l0.001,0.004l0.086,0.062c-0.084,0.182-0.308,2.447-0.216,3.885
				c0.022,0.337-0.09,0.481-0.187,0.543C202.605,299.211,202.539,299.228,202.469,299.225z M202.975,294.688l-0.054,0.095
				L202.975,294.688z"/>
		</g>
		<g>
			<path fill="#8C92B0" d="M211.312,329.088l-0.23-0.012c0.276-5.588-0.331-11.515-0.694-15.056
				c-0.141-1.373-0.242-2.365-0.231-2.781c0.023-0.915,0.341-4.027,0.648-7.038c0.177-1.726,0.343-3.355,0.435-4.398
				c0.247-2.777,0.03-4.439,0.027-4.456l0.228-0.03c0.002,0.016,0.223,1.701-0.026,4.507c-0.093,1.044-0.259,2.675-0.436,4.401
				c-0.292,2.866-0.624,6.115-0.647,7.021c-0.011,0.401,0.091,1.388,0.231,2.752C210.98,317.545,211.589,323.481,211.312,329.088z"
				/>
		</g>
		<g>
			<path fill="#8C92B0" d="M208.357,299.396c-1.32-0.058-2.328-0.41-3.005-1.053c-0.88-0.836-0.855-1.847-0.854-1.89l0.23,0.008
				c0,0.01-0.019,0.955,0.787,1.719c0.841,0.795,2.242,1.116,4.162,0.952l0.019,0.229
				C209.219,299.401,208.772,299.413,208.357,299.396z"/>
		</g>
		<path fill="#A76478" d="M212.764,295.217c0,0-2.201,0.938-5.656,0.667c-3.455-0.27-4.757-0.737-5.898-1.444
			c-1.142-0.707-1.833-1.596-1.833-1.596l0.239-1.329c0,0,0.634,1.112,2.263,1.894c1.63,0.782,5.164,1.114,6.604,1.188
			c1.44,0.072,4.173-0.428,4.173-0.428L212.764,295.217z"/>
		<path fill="#4F5997" d="M205.428,294.373c0,0-0.102,0.379-0.125,0.831c-0.023,0.451-0.023,1.282-0.023,1.282l-0.521-0.096
			c0,0-0.078-0.803-0.05-1.203c0.028-0.4,0.159-0.954,0.159-0.954L205.428,294.373z"/>
		<path fill="#4F5997" d="M210.433,294.489c0,0,0.086,0.383,0.09,0.835c0.004,0.452-0.031,1.282-0.031,1.282l0.525-0.073
			c0,0,0.112-0.799,0.101-1.2c-0.011-0.401-0.119-0.96-0.119-0.96L210.433,294.489z"/>
		<path fill="#4F5997" d="M200.653,292.598c0,0-0.137,0.469-0.164,0.854c-0.027,0.385,0.031,1.042,0.031,1.042l-0.342-0.437
			c0,0-0.041-0.665-0.026-0.874s0.22-0.815,0.22-0.815L200.653,292.598z"/>
		<g>
			<path fill="#8C92B0" d="M198.955,294.736c-0.035-0.002-0.072-0.008-0.109-0.021l0.073-0.219c0.272,0.095,0.652-0.614,0.785-0.973
				l0.216,0.08C199.872,293.729,199.475,294.759,198.955,294.736z"/>
		</g>
		<g>
			<path fill="#CCDEFB" d="M202.857,295.494c-0.06-0.008-0.122-0.023-0.184-0.047l-0.969-0.357c-0.413-0.153-0.728-0.59-0.716-0.994
				L201,293.71c0.005-0.197,0.087-0.36,0.229-0.46c0.161-0.111,0.382-0.129,0.607-0.045l0.969,0.358
				c0.413,0.153,0.728,0.589,0.716,0.994l-0.011,0.386c-0.006,0.197-0.087,0.359-0.229,0.459
				C203.164,295.484,203.016,295.515,202.857,295.494z M201.652,293.602c-0.066-0.008-0.125,0.003-0.168,0.032
				c-0.044,0.03-0.067,0.079-0.069,0.145l-0.011,0.386c-0.005,0.189,0.177,0.426,0.391,0.504l0.969,0.359
				c0.104,0.037,0.2,0.035,0.262-0.008c0.044-0.031,0.067-0.08,0.069-0.145l0.011-0.386c0.005-0.189-0.177-0.426-0.391-0.505
				l-0.97-0.358C201.713,293.614,201.682,293.606,201.652,293.602z"/>
		</g>
	</g>
	<path fill="#FEBFBF" d="M201.211,279.175c-0.266,2.151-0.604,4.17-1.029,5.008c-0.103,0.203-0.21,0.386-0.323,0.547
		c-0.242,0.35-0.504,0.616-0.77,0.821c-0.988,0.752-2.042,0.596-2.143-0.197c-0.031-0.233,0.034-0.873,0.155-1.732
		c0.441-3.191,1.684-9.506,2.08-10.211c0.504-0.9,2.641-1.301,2.641-1.301S201.617,275.806,201.211,279.175z"/>
	<path fill="#FEBFBF" d="M199.916,285.263c0.039,1.183-2.171,1.842-4.622,2.165c-1.403,0.187-2.895,0.266-4.081,0.264
		c-0.189-0.007-0.373-0.006-0.542-0.012c-0.846-0.018-1.473-0.082-1.704-0.173c-1.103-0.424-0.281-2.476,1.294-2.494
		c2.004,0.345,5.449-1.3,6.297-1.402c0.212-0.026,0.535-0.073,0.682-0.044c0.456,0.073,0.516,0.385,0.516,0.385
		s0.706-0.398,1.312-0.24c0.353,0.093,0.666,0.373,0.79,1.019C199.888,284.888,199.91,285.059,199.916,285.263z"/>
	<path fill="#FEBFBF" d="M190.284,285.076c0,0-0.197-0.697-0.625-0.725c-0.427-0.026-3.266-0.032-3.342,0.117
		c-0.075,0.15-0.258,0.637-0.318,0.959c-0.06,0.321,0.113,1.417,0.113,1.417s0.089,0.82,0.097,0.853s2.369-0.038,2.369-0.038
		l2.225-1.333L190.284,285.076z"/>
	
		<linearGradient id="SVGID_1_" gradientUnits="userSpaceOnUse" x1="1559.8306" y1="321.3223" x2="1565.1548" y2="321.3223" gradientTransform="matrix(0.9975 0.07 -0.07 0.9975 -1337.7943 -147.2732)">
		<stop  offset="0.1224" style="stop-color:#FCA4B5"/>
		<stop  offset="0.9896" style="stop-color:#FFADB7"/>
	</linearGradient>
	<path fill="url(#SVGID_1_)" d="M200.182,284.183c-0.103,0.203-0.21,0.386-0.323,0.547c0.03,0.158,0.051,0.329,0.058,0.533
		c0.039,1.183-2.171,1.842-4.622,2.165c1.629-0.307,2.883-0.781,3.267-1.025c0.362-0.232,0.495-0.576,0.527-0.852
		c0.039-0.262-0.008-0.469-0.008-0.469s-0.029-0.457-0.012-1.371c0.015-0.507,0.041-1.156,0.096-1.953
		c0.143-2.221,0.077-4.091,0.077-4.091l1.969,1.508C200.945,281.326,200.607,283.345,200.182,284.183z"/>
	<path fill="#FF7895" d="M204.608,271.296c0,0-4.692-0.626-5.644,1.806c-0.561,1.435-1.567,6.844-1.567,6.844s0.429,1.055,2.9,1.265
		S204.608,271.296,204.608,271.296z"/>
	<path fill="#FF94AB" d="M214.709,276.816c-0.006,0.354-0.11,0.793-0.244,1.475c-0.062,0.36-0.146,0.787-0.213,1.299
		c-0.08,0.512-1.347,1.603-1.591,6.381c-0.128,2.413-0.006,8.289-0.006,8.289c0,0.006-0.018,0.146-1.158,0.268
		c-0.012,0-0.018,0-0.024,0.006h-0.018c-0.378,0.031-1,0.043-1.743,0.024c-1.591-0.03-3.748-0.177-5.363-0.408
		c-2.395-0.341-5.01-2.285-4.9-2.901c0.104-0.621,0.433-2.571,0.097-6.393c-0.335-3.827-0.176-9.258,0.665-11.189
		c0.841-1.926,1.365-2.194,2.968-2.438c1.609-0.238,4.979-0.348,5.588-0.104c0.609,0.243,2.876,1.821,3.98,2.413
		c1.548,0.841,1.779,2.535,1.779,2.535C214.66,276.311,214.715,276.537,214.709,276.816z"/>
	<path fill="#FF7895" d="M213.253,281.98c0,0-4.756,1.326-11.515-0.755c-2.272-0.7-2.308-1.97-2.308-1.97s-0.096,3.198,0.116,5.602
		c0.627,0.947,2.883,2.085,7.467,2.583c1.809,0.079,4.179,0.063,5.619-0.641C212.673,285.556,212.845,283.137,213.253,281.98z"/>
	<path fill="#DDE8F6" d="M214.709,276.816c-0.006,0.354-0.11,0.793-0.244,1.475c-0.062,0.36-0.146,0.787-0.213,1.299
		c-0.08,0.512-1.347,1.603-1.591,6.381c-0.128,2.413-0.006,8.289-0.006,8.289c0,0.006-0.018,0.146-1.158,0.268
		c-0.012,0-0.018,0-0.024,0.006c-0.152-0.683-0.238-1.371-0.25-2.115c-0.043-2.114,0.262-7.282,0.28-7.532c0-0.006,0-0.006,0-0.006
		c0.128-0.737,0.737-3.376,0.609-3.81c-0.476-1.614-0.994-2.84-0.994-2.84l3.547-1.604
		C214.666,276.627,214.678,276.695,214.709,276.816z"/>
	
		<linearGradient id="SVGID_2_" gradientUnits="userSpaceOnUse" x1="1572.356" y1="309.333" x2="1567.9933" y2="305.6102" gradientTransform="matrix(0.9975 0.07 -0.07 0.9975 -1337.7943 -147.2732)">
		<stop  offset="0.1224" style="stop-color:#FEC7C7"/>
		<stop  offset="0.9694" style="stop-color:#FFADB7"/>
	</linearGradient>
	<path fill="url(#SVGID_2_)" d="M203.575,269.404c0,0,0.022,3.038-0.17,3.629s0.995,0.892,2.411,0.79
		c1.417-0.103,2.731-1.134,3.283-1.347c0.552-0.214,0.532-0.501,0.081-1.086c-0.451-0.585-1.005-1.295-0.765-3.041
		c0.24-1.744,0.731-4.21,0.328-4.675c-0.403-0.465-3.282,0.139-3.911,1.454C204.203,266.443,203.575,269.404,203.575,269.404z"/>
	<path fill="#FEC7C7" d="M207.964,265.196c0,0-1.064,3.115-1.292,3.72c-0.226,0.604-0.886,1.263-1.806,1.686
		c-0.918,0.423-2.401,0.754-2.988,0.512c-0.587-0.242-0.628-0.379-0.64-0.699c-0.009-0.267-0.298-1.059-0.333-2.162
		c-0.007-0.217-0.003-0.443,0.014-0.68c0.066-0.938-0.227-2.281-0.142-2.543c0.087-0.262-0.069-2.337,0.597-3.23
		c0.667-0.894,2.683-2.615,4.769-2.217c1.719,0.327,1.841,3.927,1.833,5.185C207.974,265.034,207.964,265.196,207.964,265.196z"/>
	<g>
		
			<linearGradient id="SVGID_3_" gradientUnits="userSpaceOnUse" x1="1564.7739" y1="305.4795" x2="1563.6687" y2="305.8091" gradientTransform="matrix(0.9975 0.07 -0.07 0.9975 -1337.7943 -147.2732)">
			<stop  offset="0.1224" style="stop-color:#FEC7C7"/>
			<stop  offset="0.9896" style="stop-color:#FFDBDB"/>
		</linearGradient>
		<path fill="url(#SVGID_3_)" d="M201.467,265.731c-0.088,0.782-0.787,1.623-0.901,2.068c-0.114,0.444,1.256,0.427,1.483,0.39
			L201.467,265.731z"/>
		
			<linearGradient id="SVGID_4_" gradientUnits="userSpaceOnUse" x1="1563.6655" y1="305.5068" x2="1565.2329" y2="305.5068" gradientTransform="matrix(0.9975 0.07 -0.07 0.9975 -1337.7943 -147.2732)">
			<stop  offset="0.188" style="stop-color:#FFDCDC"/>
			<stop  offset="0.8991" style="stop-color:#FEC7C7"/>
		</linearGradient>
		<path fill="url(#SVGID_4_)" d="M201.492,268.248c-0.354-0.016-0.764-0.074-0.917-0.241c-0.057-0.062-0.076-0.138-0.055-0.219
			c0.045-0.177,0.176-0.407,0.328-0.674c0.23-0.407,0.519-0.915,0.572-1.388l0.093,0.011c-0.056,0.491-0.349,1.008-0.585,1.423
			c-0.147,0.262-0.275,0.486-0.318,0.651c-0.013,0.051-0.002,0.093,0.034,0.133c0.217,0.236,1.171,0.235,1.397,0.198l0.015,0.092
			C201.99,268.246,201.757,268.259,201.492,268.248z"/>
	</g>
	<path fill="#E5A395" d="M207.964,265.196c0,0-1.064,3.115-1.292,3.72c-0.226,0.604-0.886,1.263-1.806,1.686
		c-0.918,0.423-2.401,0.754-2.988,0.512c-0.587-0.242-0.628-0.379-0.64-0.699c-0.009-0.267-0.298-1.059-0.333-2.162
		c0.204-0.01,0.514-0.006,0.882,0.088c0.495,0.127,2.66,0.839,3.355,0.485c0.697-0.354,1.2-1.778,1.2-1.778s0.007-1.073,0.088-1.515
		c0.076-0.413,1.376-0.726,1.546-0.766C207.974,265.034,207.964,265.196,207.964,265.196z"/>
	<path fill="#FEC7C7" d="M202.348,269.524c0,0-0.437-0.359-0.824-0.469c-0.388-0.108-0.435,0.189-0.365,0.341
		C201.229,269.549,201.567,270.247,202.348,269.524z"/>
	
		<ellipse transform="matrix(0.6514 -0.7587 0.7587 0.6514 -131.162 246.84)" fill="#FFFFFF" cx="203.06" cy="266.166" rx="0.314" ry="0.356"/>
	
		<ellipse transform="matrix(0.9846 -0.175 0.175 0.9846 -43.4231 39.3103)" fill="#FFFFFF" cx="201.142" cy="265.825" rx="0.19" ry="0.343"/>
	<path fill="#A86A63" d="M202.021,265.385c0,0-0.002,0.206,0.141,0.208c0.143,0.001,0.813-0.082,0.813-0.082l1.073,0.268
		l-0.045-0.188l-0.998-0.332L202.021,265.385z"/>
	<path fill="#A86A63" d="M201.417,265.119c0.02,0.001-0.015,0.208-0.015,0.208l-0.535-0.296c0,0-0.144-0.053-0.152-0.092
		c-0.009-0.039,0.085-0.183,0.085-0.183L201.417,265.119z"/>
	<path fill="#A86A63" d="M208.391,268.55l0.475-0.638l0.33-0.162l0.545-1.068c0,0,1.118-2.305,0.972-3.574
		c-0.146-1.269-0.897-2.69-2.396-2.92c-1.094-1.15-2.999-1.268-4.102-1.093s-2.448,1.171-3.003,2.39
		c-0.556,1.221-0.214,1.217-0.214,1.217s0.683,0.461,1.538,0.001c0.854-0.46,1.25-0.835,1.567-0.813
		c0.317,0.022,0.648,0.801,0.622,1.186c-0.027,0.384-0.164,1.381,0.236,1.66c0.4,0.28,1.195,1.142,1.333,1.336
		c0.138,0.194,0.049,0.977,0.049,0.977l0.478-0.219c0,0,0.059-0.989,0.582-1.379c0.523-0.389,0.877,0.056,0.891,0.342
		s-0.184,1.179-0.114,1.385C208.248,267.382,208.422,268.1,208.391,268.55z"/>
	
		<linearGradient id="SVGID_5_" gradientUnits="userSpaceOnUse" x1="1570.2378" y1="304.8281" x2="1571.8218" y2="304.8281" gradientTransform="matrix(0.9975 0.07 -0.07 0.9975 -1337.7943 -147.2732)">
		<stop  offset="0.1224" style="stop-color:#FEB9B8"/>
		<stop  offset="1" style="stop-color:#FFDEDE"/>
	</linearGradient>
	<path fill="url(#SVGID_5_)" d="M207.533,265.729c0,0,0.392-0.56,1.061-0.286s-0.319,1.912-0.376,2.011s-0.257,0.789-0.812,0.683
		c-0.555-0.105-0.166-0.867-0.166-0.867S207.623,266.247,207.533,265.729z"/>
	
		<linearGradient id="SVGID_6_" gradientUnits="userSpaceOnUse" x1="1570.5405" y1="304.5293" x2="1571.6011" y2="304.5293" gradientTransform="matrix(0.9975 0.07 -0.07 0.9975 -1337.7943 -147.2732)">
		<stop  offset="0.1224" style="stop-color:#FCA4B5"/>
		<stop  offset="0.9896" style="stop-color:#FFADB7"/>
	</linearGradient>
	<path fill="url(#SVGID_6_)" d="M207.76,265.729c0,0,0.422-0.313,0.742-0.052s-0.231,1.468-0.624,1.688
		c-0.218,0.002-0.436-0.062-0.436-0.062S207.847,266.037,207.76,265.729z"/>
	<g>
		<path fill="#627847" d="M189.179,288.396c-0.666,0.26-1.729,0.212-2.375-0.105s-0.628-0.786,0.038-1.045
			c0.667-0.26,1.729-0.212,2.375,0.105S189.845,288.137,189.179,288.396z"/>
		<polygon fill="#627847" points="190.145,283.3 189.69,287.893 186.331,287.748 186.273,283.133 		"/>
		<path fill="#B09064" d="M189.342,286.443c-0.693-0.326-1.834-0.377-2.549-0.113c-0.714,0.262-0.731,0.738-0.038,1.063
			c0.694,0.325,1.835,0.376,2.549,0.113S190.036,286.768,189.342,286.443z"/>
		<polygon fill="#B09064" points="189.851,287.006 190.128,284.534 186.183,284.351 186.247,286.841 		"/>
		<path fill="#DEC7A7" d="M189.573,283.922c-0.76-0.343-2.01-0.398-2.792-0.125s-0.8,0.773-0.04,1.115s2.01,0.396,2.792,0.123
			S190.333,284.264,189.573,283.922z"/>
		<path fill="#627847" d="M189.511,283.68c-0.72-0.354-1.905-0.407-2.648-0.118s-0.762,0.811-0.042,1.165s1.905,0.407,2.648,0.118
			C190.212,284.556,190.231,284.033,189.511,283.68z"/>
		<polygon fill="#627847" points="190.023,284.454 190.083,284.056 189.737,284.109 186.304,283.913 186.29,284.245 		"/>
		<path fill="#A19797" d="M189.637,284.364c-0.768,0.3-1.994,0.245-2.737-0.122c-0.744-0.365-0.725-0.905,0.043-1.204
			c0.768-0.299,1.994-0.245,2.738,0.122C190.424,283.526,190.405,284.065,189.637,284.364z"/>
		<path fill="#C7BEBE" d="M190.322,283.235l-0.318-0.014c-0.083-0.063-0.18-0.126-0.297-0.183c-0.811-0.4-2.146-0.459-2.984-0.133
			c-0.124,0.048-0.228,0.102-0.315,0.16l-0.304-0.014l-0.021,0.471c0,0.007,0,0.015,0,0.021l0,0.01h0.001
			c0.003,0.232,0.199,0.471,0.593,0.664c0.811,0.399,2.147,0.459,2.984,0.133c0.412-0.16,0.625-0.384,0.64-0.617h0.001
			L190.322,283.235z"/>
		<path fill="#E2D9D9" d="M189.726,282.588c-0.811-0.4-2.147-0.459-2.984-0.134c-0.837,0.326-0.858,0.914-0.047,1.313
			s2.147,0.459,2.984,0.133C190.516,283.574,190.537,282.986,189.726,282.588z"/>
		<path fill="#C7BEBE" d="M190.021,283.207c0-0.004,0-0.009,0-0.013l0.014-0.323l-0.166-0.008c-0.084-0.088-0.202-0.173-0.357-0.249
			c-0.695-0.343-1.84-0.394-2.558-0.114c-0.163,0.063-0.288,0.139-0.378,0.221l-0.158-0.006l-0.014,0.324l0,0v0.003h0
			c-0.006,0.203,0.163,0.413,0.509,0.584c0.695,0.343,1.841,0.394,2.558,0.114c0.353-0.138,0.536-0.33,0.549-0.529h0V283.207z"/>
		<path fill="#E1D8D8" d="M189.529,282.225c-0.695-0.343-1.841-0.395-2.558-0.114c-0.718,0.279-0.736,0.783-0.041,1.126
			c0.695,0.342,1.841,0.393,2.559,0.113S190.225,282.566,189.529,282.225z"/>
		<path fill="#C7BEBE" d="M189.695,282.97L189.695,282.97c-0.136,0.026-0.276-0.036-0.314-0.141l-0.016-0.042
			c-0.038-0.104,0.041-0.209,0.176-0.236l0,0c0.136-0.026,0.276,0.036,0.315,0.141l0.015,0.041
			C189.909,282.837,189.831,282.943,189.695,282.97z"/>
		<path fill="#FEBFBF" d="M186.386,284.556c0,0,0.034,0.39-0.125,0.495c-0.158,0.104-0.158,0.104-0.158,0.104
			s0.705,0.599,0.646,0.781s-0.477,0.223-0.477,0.223l-0.109-0.027l0.047,0.274c0,0,0.386,0.189,0.538,0.372
			s-0.146,0.319-0.146,0.319l-0.39,0.041l0.049,0.297c0,0,0.331,0.12,0.492,0.213c0.161,0.094,0.176,0.254,0.046,0.341
			c-0.13,0.086-0.305,0.093-0.305,0.093l-0.465-0.221l0.013-0.418l0.056-0.223c0,0-0.383-0.307-0.485-0.477
			c-0.102-0.171-0.003-0.356,0.044-0.438c0.046-0.08,0.205-0.134,0.205-0.134l0.111-0.182c0,0-0.488-0.254-0.491-0.452
			c-0.002-0.198,0.205-0.396,0.205-0.396l0.195-0.096c0,0-0.147-0.234-0.198-0.353c-0.052-0.118,0.102-0.501,0.14-0.557
			c0.038-0.057,0.541-0.218,0.541-0.218l-0.081,0.279L186.386,284.556z"/>
		
			<linearGradient id="SVGID_7_" gradientUnits="userSpaceOnUse" x1="1555.0942" y1="326.877" x2="1555.7778" y2="326.877" gradientTransform="matrix(0.9975 0.07 -0.07 0.9975 -1337.7943 -147.2732)">
			<stop  offset="0.1224" style="stop-color:#FCA4B5"/>
			<stop  offset="0.9896" style="stop-color:#FFADB7"/>
		</linearGradient>
		<path fill="url(#SVGID_7_)" d="M190.534,287.616c0.228,0.036,0.45,0.059,0.68,0.075c-0.189-0.007-0.373-0.006-0.542-0.012
			C190.625,287.656,190.58,287.64,190.534,287.616z"/>
	</g>
	<g>
		<path fill="#FEBFBF" d="M222.226,283.816c0,0-5.788-8.021-8.376-9.83c-2.256-0.074-2.612,2.143-2.512,3.18
			c0.1,1.039,6.771,7.803,8.461,8.156C221.49,285.675,222.589,284.947,222.226,283.816z"/>
		<path fill="#FEBFBF" d="M219.806,283.243c0,0-1.031-0.539-2.101,1.802c-1.069,2.34-2.897,5.721-4.161,6.541
			c-0.673-0.183-1.492-0.625-1.492-0.625l-0.933-0.778l-0.021,0.3l-0.019,0.273c0,0-0.669,0.026-0.693,0.373
			c-0.024,0.346-0.052,0.737-0.052,0.737s-0.108,0.239-0.062,0.883c0.046,0.644,0.166,1.283,0.324,1.515
			c0.157,0.23,0.219,0.391,0.695,0.387c0.476-0.003,0.351-0.176,1.197-0.126s1.03,0.044,1.842-0.457s0.818-0.718,1.707-1.389
			c0.888-0.671,6.709-7.323,6.233-8.218C221.795,283.565,219.806,283.243,219.806,283.243z"/>
	</g>
	<path fill="#FF7895" d="M213.51,273.986c0,0-2.668-0.905-2.734,3.425c0.028,1.313,3.63,4.813,3.63,4.813s0.361-1.185,2.023-2.417
		c1.661-1.233,1.661-1.233,1.661-1.233S214.337,274.031,213.51,273.986z"/>
</g>
</svg>
