<?xml version="1.0" encoding="utf-8"?>
<!-- Generator: Adobe Illustrator 16.0.0, SVG Export Plug-In . SVG Version: 6.00 Build 0)  -->
<!DOCTYPE svg PUBLIC "-//W3C//DTD SVG 1.1//EN" "http://www.w3.org/Graphics/SVG/1.1/DTD/svg11.dtd">
<svg version="1.1" id="Layer_1" xmlns="http://www.w3.org/2000/svg" xmlns:xlink="http://www.w3.org/1999/xlink" x="0px" y="0px"
	 width="463.683px" height="425.749px" viewBox="0 0 463.683 425.749" enable-background="new 0 0 463.683 425.749"
	 xml:space="preserve">
<g>
	<path fill="#D7E4F2" d="M405.346,220.959c4.161,2.402,10.928,2.391,15.114-0.027c4.188-2.417,4.208-6.324,0.048-8.726
		c-4.161-2.402-10.928-2.391-15.114,0.026C401.208,214.65,401.186,218.557,405.346,220.959z"/>
	<path fill="#773952" d="M409.927,210.75l-0.338,2.4c0,0,3.743-0.907,3.807-1.582c0.064-0.674-0.077-2.185-0.077-2.185
		L409.927,210.75z"/>
	<path fill="#EBE1D5" d="M404.825,215.502c0.067,0.09,0.563,0.442,1.345,0.485c0.359,0.021,0.778-0.025,1.246-0.192
		c1.475-0.527,2.007-1.025,2.991-1.262c0.987-0.236,2.92-0.622,3.177-1.156c0.254-0.535-0.016-2.021-0.016-2.021
		s-0.309-0.12-0.435,0.098c-0.123,0.219-0.698,0.838-1.359,1.049c-0.468,0.149-1.01,0.11-1.287,0.074
		c-0.118-0.013-0.19-0.028-0.19-0.028s0.093-0.619,0.025-0.83c-0.064-0.211-0.732-0.604-0.732-0.604l-1.596,1.406
		c0,0-2.947,1.706-3.038,1.935C404.866,214.682,404.73,215.373,404.825,215.502z"/>
	<path fill="#FF6647" d="M406.253,187.479l0.63,12.952l0.013,0.268l0.019,0.095l1.449,8.628c0.03,0.755,0.139,1.462,0.35,2.078
		c0.231,0.679,0.622,1.255,1.843,1.25c0.55-0.003,1.27-0.124,2.22-0.406c1.684-0.502,1.507-1.617,1.507-1.617l-1.159-10.523
		l0.051-9.537c0.229-0.55,0.565-2.23,0.704-4.04c0.19-2.485,0.011-5.212-1.336-5.607c-2.49-0.73-4.847,0.75-4.847,0.75
		s-0.987,0.995-0.936,5.698L406.253,187.479z"/>
	<path fill="#E3C3C3" d="M410.556,212.75c0.55-0.003,1.27-0.124,2.22-0.406c1.684-0.502,1.507-1.617,1.507-1.617l-1.159-10.523
		l0.051-9.537c0.229-0.55-1.844-4.725-3.289-4.25c0.225,2.471,1.159,2.134,1.553,3.16c0.676,1.771-0.782,2.379-0.836,6.807
		c-0.054,4.429,1.725,10.992,1.933,13.001C412.684,210.814,411.339,212.12,410.556,212.75z"/>
	<g>
		<path fill="#DE4504" d="M412.523,212.387c-0.013-0.073-1.281-7.415-1.692-10.742c-0.413-3.346,0.278-13.043,0.308-13.454
			l0.514,0.037c-0.008,0.101-0.719,10.058-0.311,13.354c0.41,3.314,1.675,10.645,1.688,10.718L412.523,212.387z"/>
	</g>
	<path fill="#8E8E8E" d="M404.826,215.502c0.096,0.13,1.113,0.821,2.589,0.294c1.476-0.528,2.008-1.026,2.993-1.263
		s2.92-0.622,3.175-1.156c0.071-0.149,0.101-0.374,0.107-0.619c0.01,0.338-0.013,0.986-0.107,1.187
		c-0.255,0.534-2.189,0.604-3.175,0.839c-0.985,0.237-1.518,1.052-2.993,1.58c-1.476,0.527-2.493-0.164-2.589-0.294
		c-0.035-0.048-0.039-0.489-0.024-0.638C404.806,215.462,404.814,215.486,404.826,215.502z"/>
	<path fill="#773952" d="M416.106,213.2l-0.294,2.4c0,0,3.259-0.906,3.314-1.581c0.057-0.675-0.067-2.185-0.067-2.185L416.106,213.2
		z"/>
	<path fill="#EBE1D5" d="M415.464,214.429c0,0,0.21-0.478,0.701-0.5c0.492-0.022,1.017,0.199,1.105,0.407
		c0.088,0.209,0.079,0.512,0.079,0.512s1.313-0.372,1.41-0.668c0.099-0.296-0.003-1.029-0.003-1.029s1.028-0.012,1.106,0.465
		c0.078,0.479,0.049,2.318,0.053,2.643s-1.939,1.776-2.081,2.343s-1.232,2.005-2.949,2.174c-1.716,0.169-1.952-1.597-1.953-1.877
		c-0.002-0.279,2.185-2.785,2.203-3.099C415.156,215.484,415.451,214.496,415.464,214.429z"/>
	<path fill="#8E8E8E" d="M414.886,220.442c1.717-0.169,2.921-1.717,3.063-2.283c0.141-0.566,1.972-2.112,1.968-2.437
		c-0.002-0.119,0.001-0.397,0.002-0.727c0.001,0.42-0.004,1.117-0.002,1.262c0.004,0.324-1.939,1.776-2.081,2.343
		s-1.232,2.005-2.949,2.174c-1.417,0.14-1.981-1.079-1.964-1.623C412.942,219.724,413.641,220.565,414.886,220.442z"/>
	<g>
		<path fill="#FF785C" d="M400.994,182.687l1.739,0.565l1.483,0.481c0,0,1.385-1.727,1.724-2.377
			c0.63-1.206,1.781-5.143,1.781-5.143l1.388-10.267l0.2-1.48l0.394-1.292l-3.24-0.987l-0.45,1.496l-2.306,10.647
			c0,0-2.032,4.22-2.426,5.726C401.114,180.694,400.994,182.687,400.994,182.687z"/>
	</g>
	<path fill="#F5B6A4" d="M402.594,181.483c-0.008,0.709,0.041,1.296,0.139,1.768l1.483,0.481c0,0,1.385-1.727,1.724-2.377
		c0.63-1.206,1.781-5.143,1.781-5.143l1.388-10.267c-1.226-0.234-2.361-0.01-2.457,1.562c-0.213,3.523-1.071,7.101-0.712,7.582
		c0.36,0.483,0.797,1.737,0.697,2.955c-0.101,1.224-1.784,3.814-1.784,3.814s-0.236-0.182-0.938-0.375
		C403.213,181.291,402.594,181.483,402.594,181.483z"/>
	<path fill="#FF785C" d="M407.503,160.843c-1.161,0.98-1.493,2.497-0.742,3.386c0.752,0.889,1.826,0.522,2.986-0.459
		c1.161-0.98,2.238-2.647,1.486-3.536C410.483,159.344,408.665,159.862,407.503,160.843z"/>
	<path fill="#FF6647" d="M411.92,189.322c0.252,0.305,1.249,11.508,1.249,11.508l1.794,12.303l-0.003,0.018
		c0,0,0.006,0.023,0.013,0.055l0.003,0.007c0.088,0.332,0.599,1.995,2.166,1.781c0.401-0.054,0.825-0.146,1.214-0.27
		c0.511-0.162,0.961-0.373,1.21-0.612c0.422-0.408,1.049-1.115,0.943-2.395l-0.666-7.885l-1.002-4.813l1.986-10.131
		c0.491-1.742,0.439-3.983,0.35-5.302c-0.002-0.036-0.002-0.072-0.008-0.105c-0.008-0.103-0.016-0.2-0.021-0.29
		c-0.002-0.029-0.005-0.057-0.008-0.088c-0.01-0.11-0.021-0.208-0.028-0.293c-0.01-0.093-0.021-0.188-0.03-0.283
		c-0.003-0.013-0.005-0.025-0.005-0.041c0-0.005-0.003-0.01-0.003-0.015c0,0-10.729-5.941-11.372-2.18
		C408.323,188.381,410.718,187.873,411.92,189.322z"/>
	<g>
		<path fill="#FF9061" d="M414.922,185.497c-0.113,0-0.228-0.001-0.344-0.003c-5.372-0.115-7.407-1.944-7.465-3.146l0.753-0.036
			c0.033,0.717,1.775,2.323,6.729,2.429c4.828,0.103,6.179-2.097,6.192-2.12l0.651,0.378
			C421.378,183.103,419.931,185.497,414.922,185.497z"/>
	</g>
	<g>
		<path fill="#FF9061" d="M411.392,188.654c-0.085,0-0.175-0.022-0.264-0.067c-0.355-0.18-0.752-0.755-0.778-1.596
			c-0.014-0.422,0.011-2.109,0.034-2.314l0.511,0.057c-0.018,0.162-0.045,1.818-0.031,2.241c0.021,0.667,0.319,1.047,0.473,1.142
			c0.001-0.021,0-0.049-0.003-0.085c-0.052-0.474-0.152-3.263,0.162-3.479l0.126-0.087l0.142,0.069l-0.116,0.229l0.001,0.002
			l0.227,0.099c-0.06,0.208-0.152,1.987-0.031,3.113c0.038,0.354-0.09,0.523-0.203,0.602
			C411.567,188.629,411.482,188.654,411.392,188.654z"/>
	</g>
	<g>
		<path fill="#FF6647" d="M406.757,171.633c0.813,4.978,0.854,11.259,0.854,11.259c0.565,0.383,1.136,0.707,1.701,0.979
			c4.061,1.95,8.003,1.229,10.082,0.398l0.002-0.003c0.841-0.336,1.378-0.691,1.493-0.894c0.271-0.47,0.239-2.174,0.175-3.732
			c-0.043-1.012-0.1-1.963-0.1-2.472c0-0.344,0.233-1.256,0.521-2.452c0.789-3.279,1.973-8.185,0.371-10.366
			c-1.242-1.692-3.892-3.288-6.128-4.133c-2.901-1.097-5.053-0.38-6.263,0.015C407.328,160.935,405.945,166.652,406.757,171.633z"/>
		<g>
			<path fill="#FF9061" d="M418.811,214.432l-0.102-0.504l0.051,0.252l-0.062-0.249c0.017-0.005,1.642-0.578,0.191-7.443
				c-0.451-2.136-0.783-3.487-1.026-4.474c-0.5-2.029-0.577-2.341-0.33-4.242c0.128-0.999,0.47-2.179,0.866-3.546
				c0.704-2.432,1.58-5.459,1.744-9.121c0.129-2.899-0.083-4.721-0.253-6.185c-0.169-1.457-0.303-2.608-0.044-4.163l0.507,0.084
				c-0.247,1.482-0.117,2.602,0.048,4.019c0.172,1.482,0.387,3.327,0.255,6.267c-0.166,3.723-1.052,6.782-1.764,9.241
				c-0.39,1.346-0.727,2.508-0.85,3.468c-0.234,1.806-0.182,2.018,0.319,4.054c0.243,0.99,0.577,2.346,1.029,4.49
				c1.007,4.762,0.582,6.726,0.049,7.534C419.16,214.344,418.867,214.421,418.811,214.432z"/>
		</g>
		<g>
			<path fill="#FF9061" d="M410.727,184.681c-0.016-0.101-1.567-10.224,1.442-22.314l0.729,0.182
				c-2.972,11.943-1.444,21.915-1.428,22.015L410.727,184.681z"/>
		</g>
	</g>
	<path fill="#E3C3C3" d="M406.958,188.209c0,0,9.32-2.117,12.436-3.939l0.002-0.003c0.51-0.298,0.854-0.588,0.962-0.858
		c0.29-0.727,0.524-2.205,0.706-3.768c-0.043-1.012-0.1-1.963-0.1-2.472c0-0.344,0.233-1.256,0.521-2.452
		c0.018-0.313,0.028-0.493,0.028-0.493l-4.364-4.752c0,0-1.29,2.246-1.421,4.752s-3.642,5.474-3.642,5.474l-2.621,3.889
		l-0.154,0.285L406.958,188.209z"/>
	<path fill="#FF785C" d="M407.222,185.775l0.565,0.907c0.137,0.219,0.332,0.352,0.553,0.419c0.275,0.085,0.597,0.062,0.907-0.026
		c2.822-0.799,5.533-2.439,7.211-3.41c0.586-0.336,1.946-1.611,1.946-1.611l0.298-0.671c0,0,3.68-6.646,4.461-12.299
		c0,0,0.036-0.977,0.019-1.707v-0.008c-0.005-0.17-0.013-0.327-0.023-0.453c-0.162-1.771-1.649-3.081-3.323-2.93
		c-1.521,0.139-2.667,1.444-2.741,3.012c-0.016,0.057-0.031,0.121-0.05,0.195l-0.771,5.582c-0.268,1.175-0.563,2.342-0.846,3.511
		l-0.948,2.668c-1.049,0.509-4.937,2.428-6.058,3.595c-0.246,0.257-0.665,0.759-0.997,1.116
		C406.891,184.241,406.804,185.104,407.222,185.775z"/>
	<g>
		<path fill="#FFA575" d="M408.896,186.643c-0.078,0-0.154-0.002-0.229-0.007l0.033-0.513c2.384,0.165,6.331-2.58,8.401-4.455
			c1.264-1.144,2.533-4.551,3.762-7.846c0.356-0.958,0.709-1.903,1.055-2.777c1.476-3.718,0.147-5.778,0.134-5.798
			c-0.017-0.028-0.491-0.853-2.44-2.071c-1.979-1.236-3.803-1.48-3.82-1.482c-1.692-0.402-6.193-1.413-7.083-1.328l-0.049-0.512
			c1.149-0.108,6.976,1.275,7.224,1.334c0.051,0.005,1.921,0.252,4.001,1.552c2.09,1.307,2.588,2.205,2.608,2.242
			c0.049,0.071,1.477,2.286-0.096,6.253c-0.346,0.871-0.696,1.813-1.052,2.766c-1.25,3.353-2.542,6.82-3.898,8.047
			C415.659,183.666,411.638,186.643,408.896,186.643z"/>
	</g>
	<path fill="#F5B6A4" d="M408.001,185.942l0.339,1.159c0.275,0.085,0.597,0.062,0.907-0.026c2.822-0.799,5.533-2.439,7.211-3.41
		c0.586-0.336,1.946-1.611,1.946-1.611l0.298-0.671c0,0,3.68-6.646,4.461-12.299c0,0,0.036-0.977,0.019-1.707
		c-0.216,1.948-0.599,3.721-1.624,6.268c-0.883,2.188-1.932,4.313-2.974,6.428c-0.234,0.477-0.362,0.935-0.66,1.384
		c-0.064,0.098-0.13,0.196-0.218,0.272c-0.769,0.669-1.565,1.332-2.445,1.856c-2.377,1.416-4.99,2.845-5.975,2.523
		s-1.244-0.992-1.244-0.992L408.001,185.942z"/>
	<g>
		<path id="XMLID_89_" fill="#FEBFBF" d="M404.078,183.675c-0.041,0.05-0.285,0.428-0.397,0.578
			c-0.112,0.152-0.52,0.516-0.593,0.849c-0.004,0.018-0.008,0.038-0.014,0.057c-0.084,0.323-0.297,0.721-0.458,0.974
			c-0.172,0.269-0.427,0.155-0.549,0.143c-0.124-0.011-0.39-0.207-0.509-0.174c-0.12,0.032-0.239-0.23-0.446-0.249
			c-0.209-0.017-0.248-0.28-0.471-0.275c-0.222,0.006-0.394-0.349-0.615-0.559c-0.222-0.211-0.164-0.249-0.337-0.659
			c-0.089-0.212-0.161-0.333-0.198-0.459c-0.037-0.117-0.042-0.24-0.006-0.446c0.074-0.423,1.19-1.7,1.202-1.714
			c0.119-0.136,0.531-0.044,0.693-0.069c0.271-0.041,0.549-0.131,0.823-0.064c0.241,0.06,0.513,0.137,0.707,0.284
			c0.149,0.112,0.302,0.22,0.455,0.326C403.939,182.632,404.117,183.625,404.078,183.675z"/>
		<path id="XMLID_88_" fill="#FEBFBF" d="M403.036,185.02c0.013,0.019,0.025,0.067,0.038,0.139
			c-0.084,0.323-0.297,0.721-0.458,0.974c-0.007,0.011-0.015,0.021-0.022,0.031c-0.17,0.228-0.41,0.123-0.526,0.112
			c-0.124-0.011-0.39-0.207-0.509-0.174c-0.12,0.032-0.239-0.23-0.446-0.249c-0.209-0.017-0.248-0.28-0.471-0.275
			c-0.222,0.006-0.394-0.349-0.615-0.559c-0.222-0.211-0.164-0.249-0.337-0.659c-0.089-0.212-0.161-0.333-0.199-0.458
			c0.002,0,0.002,0,0.001-0.001c0.038-0.095,0.081-0.198,0.127-0.299c0.177-0.388,0.407-0.751,0.605-0.56
			c0.024,0.021,0.049,0.051,0.07,0.091c0.04,0.066,0.077,0.16,0.112,0.285c0,0,0.462-0.342,0.768-0.03
			c0.306,0.309,0.592,0.284,0.644,0.354c0.053,0.07,0.312,0.353,0.312,0.353s0.105,0.126,0.312,0.248
			c0.205,0.124,0.159,0.333,0.159,0.333S402.983,184.939,403.036,185.02z"/>
		<path id="XMLID_87_" fill="#FEBFBF" d="M401.313,185.632c0.003,0.024,0.021,0.045,0.036,0.064
			c0.083,0.095,0.184,0.174,0.296,0.232c0.026,0.014,0.054,0.028,0.085,0.025c0.028-0.002,0.055-0.019,0.079-0.035
			c0.38-0.268,0.562-0.73,0.724-1.167c-0.047,0.325-0.208,0.624-0.394,0.896c-0.045,0.066-0.095,0.135-0.109,0.215
			c-0.016,0.093,0.021,0.193,0.092,0.255c0.073,0.061,0.178,0.079,0.267,0.047c0.037-0.014,0.072-0.035,0.112-0.034
			c0.033,0.001,0.063,0.019,0.093,0.034c-0.17,0.228-0.41,0.123-0.526,0.112c-0.124-0.011-0.39-0.207-0.509-0.174
			c-0.12,0.032-0.239-0.23-0.446-0.249c-0.209-0.017-0.248-0.28-0.471-0.275c-0.222,0.006-0.394-0.349-0.615-0.559
			c-0.222-0.211-0.164-0.249-0.337-0.659c-0.089-0.212-0.161-0.333-0.199-0.458c0.002,0,0.002,0,0.001-0.001
			c0.038-0.095,0.081-0.198,0.127-0.299c0.17-0.221,0.37-0.414,0.605-0.56c0.024-0.014,0.049-0.03,0.073-0.043
			c0.002,0.044,0.002,0.089-0.003,0.135c-0.01,0.217-0.063,0.433-0.152,0.633c-0.054,0.117-0.122,0.23-0.166,0.354
			c-0.036,0.1-0.071,0.247-0.026,0.351c0.045,0.104,0.164,0.215,0.238,0.302c0.04,0.045,0.084,0.091,0.141,0.107
			c0.09,0.024,0.182-0.031,0.255-0.089c0.356-0.282,0.623-0.675,0.755-1.108c-0.133,0.46-0.393,0.882-0.74,1.209
			c-0.018,0.016-0.037,0.035-0.039,0.06c-0.002,0.02,0.008,0.037,0.019,0.054c0.137,0.219,0.365,0.36,0.587,0.494
			c0.016,0.011,0.033,0.021,0.054,0.023c0.032,0.004,0.063-0.014,0.09-0.033c0.138-0.103,0.229-0.252,0.311-0.402
			c0.181-0.336,0.32-0.695,0.412-1.065c0.022,0.102-0.014,0.208-0.051,0.307c-0.108,0.285-0.241,0.563-0.371,0.839
			c-0.06,0.128-0.124,0.26-0.227,0.355C401.349,185.553,401.309,185.588,401.313,185.632z"/>
		<path id="XMLID_86_" fill="#FEBFBF" d="M400.72,182.859c0,0-0.52,0.401-0.552,0.542c-0.032,0.14-0.086,0.82-0.341,1.056
			c-0.255,0.237-0.695,0.346-0.724,0.029c-0.027-0.317-0.146-1.135-0.146-1.135s-0.029-0.305,0.61-0.853
			c0.641-0.548,0.981-0.72,1.119-0.76c0.139-0.04,0.481-0.141,0.481-0.141s0.858-0.006,1.056,0.135s0.765,0.356,0.696,0.924
			s-0.66,0.934-1.095,0.918S400.823,182.887,400.72,182.859z"/>
	</g>
	<g>
		<path id="XMLID_85_" fill="#FEBFBF" d="M408.41,186.318c0.022,0.183,0.022,0.373-0.063,0.484
			c-0.088,0.115-0.331,0.169-0.465,0.232c0,0-0.532,0.334-0.578,0.38c-0.042,0.042-0.915,1.035-1.237,1.354
			c-0.039,0.039-0.069,0.067-0.09,0.083c-0.19,0.15-1.499-0.221-1.614-0.313c-0.116-0.093-0.567-0.544-0.545-0.718
			c0.004-0.035,0.004-0.065-0.002-0.091c-0.018-0.104-0.097-0.153-0.125-0.246c-0.034-0.115-0.231-0.612-0.231-0.612
			s0.058-0.614,0.104-0.834c0.046-0.221,0.337-0.395,0.337-0.395s0-0.22,0-0.324c0-0.014,0.007-0.036,0.019-0.064
			c0.084-0.193,0.412-0.687,0.502-0.903c0.049-0.115,0.266-0.272,0.502-0.407c0.279-0.158,0.585-0.286,0.679-0.279
			c0.107,0.009,0.643,0.213,1.036,0.369c0.638,0.25,1.367,0.8,1.604,1.472c0.052,0.147,0.079,0.302,0.106,0.455
			C408.364,186.053,408.393,186.184,408.41,186.318z"/>
		<path id="XMLID_84_" fill="#FEBFBF" d="M405.551,188.777c0.113,0,0.325-0.005,0.516-0.008c-0.039,0.039-0.069,0.067-0.09,0.083
			c-0.19,0.15-1.499-0.221-1.614-0.313c-0.116-0.093-0.567-0.544-0.545-0.718c0.004-0.035,0.004-0.065-0.002-0.091
			c-0.018-0.104-0.097-0.153-0.125-0.246c-0.034-0.115-0.231-0.612-0.231-0.612s0.058-0.614,0.104-0.834
			c0.046-0.221,0.337-0.395,0.337-0.395s0-0.22,0-0.324c0-0.014,0.007-0.036,0.019-0.064c0.084-0.193,0.412-0.687,0.502-0.903
			c0.049-0.115,0.266-0.272,0.502-0.407l1.324,0.506l-0.2,0.481l-0.46,0.179l-0.772,0.62l-0.495,0.058c0,0-0.018-0.294-0.139-0.069
			c-0.122,0.225-0.139,0.502-0.139,0.502l1.51,0.156h-0.851l-0.895-0.156l-0.096,0.382l0.206,0.468l1.635,0.347h-0.494l-1.277-0.294
			c0,0-0.086,0.348,0.062,0.452c0.147,0.104,0.339,0.208,0.339,0.208l1.097,0.339h-0.298l-1.161-0.393
			c0.026,0.034,0.46,0.593,0.518,0.653C404.397,188.446,405.318,188.777,405.551,188.777z"/>
		<path id="XMLID_83_" fill="#FEBFBF" d="M406.637,184.035c-0.091,0.168-0.216,0.329-0.391,0.417l-1.12,0.912
			c0,0-0.208,0.296-0.668,0.357c-0.459,0.059-0.564-0.132-0.54-0.464c0.084-0.193,0.412-0.687,0.502-0.903
			c0.104-0.25,1.008-0.7,1.181-0.687C405.708,183.675,406.244,183.879,406.637,184.035z"/>
	</g>
	<path fill="#EEEFF0" d="M406.384,183.469c0,0,0.28-0.234,1.184,0.227c1.46,0.745,1.886,2.683,1.663,3.329s-0.742,1.301-1.913,0.423
		l0.407-0.508c0,0,0.821,0.45,0.931-0.294c0.108-0.744-0.049-1.356-0.66-2C407.579,184.205,406.868,183.693,406.384,183.469z"/>
	<path fill="#EEEFF0" d="M406.384,183.469l-0.346,0.381l1.352,0.514c0,0,1.586,1.589,1.231,2.688
		c-0.354,1.099-0.535,0.942-0.535,0.942s0.403,0.439,0.854-0.514c0.451-0.953-0.159-1.981-0.159-1.981
		S407.627,183.644,406.384,183.469z"/>
	<path fill="#C2C5C7" d="M406.039,183.805c0,0,0.28-0.233,1.185,0.228c1.459,0.745,1.886,2.682,1.663,3.328
		s-0.743,1.301-1.914,0.423l0.407-0.507c0,0,0.822,0.449,0.931-0.295c0.108-0.743-0.049-1.355-0.659-1.999
		C407.233,184.542,406.522,184.03,406.039,183.805z"/>
	<path fill="#EEEFF0" d="M400.843,181.516c0,0-0.253-0.601,0.501-0.9c0.753-0.3,2.625,0.678,3.055,1.281
		c0.466,0.651,0.948,1.863-0.045,2.263c-0.377,0.152-0.668,0.168-0.877,0.149l0.417-0.809c0,0,0.5,0.095,0.162-0.866
		s-1.527-1.451-2.292-1.388C401,181.309,400.843,181.516,400.843,181.516z"/>
	<path fill="#EEEFF0" d="M400.595,181.537c0,0,0.03-0.335,0.303-0.586c0.272-0.251,3.429,0.62,3.729,1.55s0.309,1.028,0.309,1.028
		s-0.18,0.685-0.362,0.786c-0.183,0.101-0.6-0.144-0.6-0.144l0.108-1.174l-1.214-1.235l-2.066-0.375L400.595,181.537z"/>
	<path fill="#C2C5C7" d="M400.635,181.907c0,0-0.252-0.601,0.501-0.9c0.754-0.3,2.625,0.679,3.056,1.281
		c0.466,0.651,0.948,1.863-0.045,2.263c-0.378,0.152-0.668,0.168-0.877,0.15l0.417-0.81c0,0,0.5,0.095,0.162-0.866
		s-1.527-1.451-2.292-1.388C400.792,181.7,400.635,181.907,400.635,181.907z"/>
	<path fill="#FBFBFB" d="M407.203,167.67c0,0,1.478,0.916,2.265,0.9c-0.064,0.819,0,0.899,0,0.899s-0.787,0.048-1.542-0.385
		c-0.755-0.434-0.755-0.434-0.755-0.434L407.203,167.67z"/>
	<path fill="#E3C3C3" d="M418.356,214.724c0.511-0.162,0.961-0.373,1.21-0.612c0.422-0.408,1.049-1.115,0.943-2.395l-0.666-7.885
		l-1.002-4.813l1.986-10.131c0.491-1.742,0.439-3.983,0.35-5.302c0.157,2.68-0.437,4.431-1.095,6.861
		c-0.748,2.755-2.07,8.983-2.07,8.983c1.37,4.818,2.217,11.351,2.004,12.849C419.864,213.328,418.916,214.258,418.356,214.724z"/>
	<g>
		<path fill="#FFA575" d="M414.538,179.054c0.543-0.241,1.321,0.217,1.756,0.594c0.11,0.097,0.272-0.064,0.162-0.161
			c-0.512-0.444-1.329-0.943-2.033-0.63C414.289,178.916,414.404,179.113,414.538,179.054L414.538,179.054z"/>
	</g>
	<g>
		<path fill="#B8BDC2" d="M403.915,182.43c-0.079,0-0.154-0.023-0.22-0.069c-0.085-0.059-0.143-0.147-0.16-0.249l-0.011-0.062
			c-0.019-0.102,0.004-0.204,0.063-0.289c0.059-0.085,0.146-0.142,0.248-0.161l0.742-0.135c0.104-0.018,0.205,0.004,0.29,0.063
			c0.085,0.06,0.142,0.148,0.159,0.249l0.012,0.062c0.019,0.102-0.004,0.204-0.063,0.289c-0.06,0.085-0.148,0.142-0.25,0.16
			l-0.741,0.135C403.96,182.428,403.937,182.43,403.915,182.43z M404.647,181.718c-0.007,0-0.016,0.001-0.022,0.002l-0.743,0.135
			c-0.034,0.006-0.063,0.025-0.084,0.053c-0.02,0.029-0.027,0.063-0.021,0.097l0.011,0.062c0.006,0.034,0.025,0.063,0.054,0.083
			c0.028,0.02,0.063,0.028,0.097,0.021l0,0l0.743-0.135c0.034-0.006,0.063-0.025,0.084-0.053c0.02-0.028,0.027-0.063,0.021-0.097
			l-0.011-0.061c-0.006-0.034-0.025-0.063-0.054-0.083C404.699,181.726,404.673,181.718,404.647,181.718z"/>
	</g>
	<g>
		<path fill="#B8BDC2" d="M407.144,184.298c-0.131,0-0.26-0.067-0.332-0.188l-0.389-0.648c-0.109-0.183-0.049-0.421,0.134-0.53
			l0.053-0.031c0.089-0.054,0.193-0.069,0.294-0.044c0.1,0.025,0.184,0.088,0.237,0.177l0.388,0.647
			c0.052,0.088,0.068,0.192,0.043,0.293c-0.025,0.1-0.088,0.185-0.177,0.237l-0.054,0.031
			C407.28,184.28,407.212,184.298,407.144,184.298z M406.645,183.33l0.388,0.647c0.036,0.062,0.117,0.081,0.177,0.045l0.054-0.032
			c0.03-0.018,0.051-0.046,0.06-0.08c0.008-0.033,0.003-0.068-0.015-0.098l-0.389-0.647c-0.018-0.03-0.046-0.051-0.079-0.06
			c-0.032-0.008-0.068-0.003-0.098,0.015l-0.053,0.031C406.628,183.188,406.608,183.269,406.645,183.33L406.645,183.33z"/>
	</g>
	<g>
		<path fill="#EEEFF0" d="M406.772,183.483c-0.132,0-0.261-0.067-0.333-0.188l-0.388-0.648c-0.109-0.183-0.05-0.421,0.134-0.53
			l0.054-0.031c0.087-0.054,0.191-0.068,0.292-0.044c0.101,0.025,0.185,0.088,0.237,0.177l0.388,0.647
			c0.054,0.089,0.068,0.193,0.043,0.293s-0.087,0.185-0.176,0.238l-0.054,0.032C406.908,183.466,406.839,183.483,406.772,183.483z
			 M406.272,182.516l0.388,0.648c0.036,0.062,0.117,0.081,0.178,0.044l0.054-0.031c0.029-0.019,0.051-0.046,0.059-0.08
			c0.008-0.033,0.003-0.068-0.015-0.098l-0.388-0.648c-0.019-0.029-0.046-0.051-0.079-0.06c-0.035-0.008-0.069-0.003-0.098,0.015
			l-0.055,0.032C406.255,182.375,406.235,182.455,406.272,182.516L406.272,182.516z"/>
	</g>
	<g>
		<path fill="#EEEFF0" d="M405.489,182.398c-0.011,0-0.021-0.001-0.03-0.002l-0.753-0.059c-0.104-0.008-0.197-0.056-0.265-0.135
			c-0.066-0.079-0.099-0.179-0.091-0.282l0.005-0.061c0.009-0.103,0.057-0.197,0.135-0.264c0.078-0.067,0.181-0.102,0.281-0.092
			l0.753,0.06c0.104,0.008,0.196,0.056,0.265,0.135c0.066,0.079,0.099,0.179,0.09,0.282l-0.004,0.061
			C405.858,182.244,405.688,182.398,405.489,182.398z M404.726,182.082l0.752,0.059c0.077,0.002,0.134-0.048,0.14-0.119l0.005-0.061
			c0.003-0.035-0.008-0.068-0.03-0.094c-0.022-0.026-0.054-0.043-0.089-0.046l-0.752-0.06c-0.033,0-0.068,0.009-0.096,0.031
			c-0.025,0.022-0.041,0.054-0.044,0.088l-0.005,0.062c-0.003,0.035,0.008,0.068,0.03,0.095S404.691,182.079,404.726,182.082
			L404.726,182.082z"/>
	</g>
	<g>
		<path fill="#B8BDC2" d="M406.057,182.688c-0.063,0-0.126-0.015-0.183-0.046l-0.665-0.357c-0.091-0.049-0.157-0.13-0.187-0.229
			c-0.03-0.099-0.021-0.204,0.029-0.294l0.029-0.055c0.1-0.188,0.335-0.259,0.523-0.158l0.665,0.357
			c0.091,0.049,0.157,0.13,0.187,0.229c0.03,0.1,0.021,0.204-0.029,0.295l-0.029,0.055c-0.049,0.091-0.13,0.157-0.229,0.187
			C406.132,182.683,406.095,182.688,406.057,182.688z M405.332,182.058l0.665,0.357c0.063,0.034,0.142,0.011,0.175-0.053
			l0.029-0.054c0.017-0.031,0.021-0.066,0.011-0.099c-0.011-0.033-0.032-0.061-0.063-0.077l-0.666-0.357
			c-0.063-0.035-0.142-0.01-0.175,0.053l-0.029,0.055c-0.017,0.03-0.02,0.065-0.011,0.099
			C405.279,182.015,405.3,182.042,405.332,182.058L405.332,182.058z"/>
	</g>
	<g>
		<path fill="#FBFBFB" d="M414.875,159.776c0,0,2.15,0.548,2.527,1.49c0.378,0.942-0.27,2.484-5.841,5.29
			c-0.836-0.857-1.791-4.918-0.589-6.161C412.173,159.154,414.875,159.776,414.875,159.776z"/>
		<path fill="#FFADB7" d="M411.892,160.916c-0.1,0.481-0.539,1.362,0.589,1.841c0.432,0.182,1.056,0.251,1.668,0.162
			c0.224-0.034,0.441-0.087,0.649-0.17c0.707-0.267,1.265-0.817,1.265-1.745c-0.005-1.943,0.008-2.396,0.483-3.976
			c0.35-1.175-1.038-1.568-1.781-1.694c0-0.002-0.002,0-0.002,0c-0.258-0.043-0.435-0.054-0.435-0.054l-2.768,3.12
			c0,0,0.136,0.635,0.236,1.277C411.876,160.187,411.936,160.703,411.892,160.916z"/>
		
			<linearGradient id="SVGID_1_" gradientUnits="userSpaceOnUse" x1="1468.8589" y1="158.9985" x2="1465.7849" y2="159.2089" gradientTransform="matrix(-1 0 0 1 1883.0107 0)">
			<stop  offset="0.1224" style="stop-color:#F59FB0"/>
			<stop  offset="0.9896" style="stop-color:#F8A8B2"/>
		</linearGradient>
		<path fill="url(#SVGID_1_)" d="M413.417,162.255c0.396,0.283,0.904,0.426,1.382,0.493c0.707-0.267,1.265-0.817,1.265-1.745
			c-0.005-1.943,0.008-2.396,0.483-3.976c0.35-1.175-1.038-1.568-1.781-1.694c0-0.002-0.002,0-0.002,0
			c-1.051,0.781-1.471,3.066-1.682,3.693C412.776,159.942,412.36,161.502,413.417,162.255z"/>
		<g>
			<path fill="#FEBFBF" d="M409.356,158.205c0.38,1.354,0.938,2.359,1.57,2.542c0.498,0.144,2.875,0.252,4.409-1.182
				c0.412-0.386,0.687-1.452,0.938-1.977c0.118-0.246,0.236-0.49,0.35-0.732c1.046-2.194,1.86-4.232,0.887-6.224
				c-0.758-1.55-3.054-2.238-4.423-1.834c0,0-2.725,0.691-3.352,2.821c-0.046,0.154-0.087,0.298-0.123,0.432l-0.005,0.019
				c-0.481,1.698-0.376,1.832-0.299,2.608C409.389,155.517,408.975,156.848,409.356,158.205z"/>
			<path fill="#E6BCCB" d="M409.199,157.231c0.019,0.319,0.064,0.645,0.157,0.974c0.38,1.354,0.938,2.359,1.57,2.542
				c0.498,0.144,2.875,0.252,4.409-1.182c0.412-0.386,0.687-1.452,0.938-1.977c0.054-0.112,0.108-0.224,0.162-0.334
				c-0.008-1.018-0.707-1.845-0.707-1.845s-0.394,0.365-0.555,1.043c-0.162,0.679-0.738,1.442-1.326,1.72
				c-0.589,0.277-1.488,0.47-2.429,0.257c-0.94-0.213-1.567-0.504-1.876-0.943C409.435,157.331,409.312,157.259,409.199,157.231z"/>
			<path fill="#F2AEAE" d="M409.613,152.05c0.033-0.072,0.18-0.354,0.52-0.233c0.473,0.164,0.681,0.519,1.063,0.637
				c2.709,0.83,3.212,0.092,3.485,1.318c0.274,1.234,0.493,2.68,0.493,2.68l0.807-1.315c0,0,0.617,0.066,0.974,0.521
				c-0.095,0.388-0.205,0.799-0.331,1.197c1.046-2.194,1.86-4.232,0.887-6.224c-0.758-1.55-3.054-2.238-4.423-1.834
				c0,0-2.725,0.691-3.352,2.821C409.69,151.772,409.649,151.917,409.613,152.05z"/>
			
				<linearGradient id="SVGID_2_" gradientUnits="userSpaceOnUse" x1="-5400.1602" y1="-707.6299" x2="-5397.355" y2="-708.8971" gradientTransform="matrix(0.9834 -0.1815 0.1815 0.9834 5854.4678 -127.4744)">
				<stop  offset="0.1224" style="stop-color:#FEB9B8"/>
				<stop  offset="1" style="stop-color:#FFDEDE"/>
			</linearGradient>
			<path fill="url(#SVGID_2_)" d="M415.729,155.588c0,0,0.231-0.875,1.145-0.798s0.931,1.097,0.163,2.155
				c-0.768,1.058-1.188,0.055-1.246-0.005C415.732,156.88,416.07,156.16,415.729,155.588z"/>
			
				<linearGradient id="SVGID_3_" gradientUnits="userSpaceOnUse" x1="-5398.7573" y1="-708.6338" x2="-5399.5425" y2="-707.6414" gradientTransform="matrix(0.9834 -0.1815 0.1815 0.9834 5854.4678 -127.4744)">
				<stop  offset="0.1224" style="stop-color:#FCA4B5"/>
				<stop  offset="0.9896" style="stop-color:#FFADB7"/>
			</linearGradient>
			<path fill="url(#SVGID_3_)" d="M416.066,155.65c0,0,0.3-0.524,0.709-0.396c0.63,0.197-0.026,1.289-0.084,1.423
				c-0.058,0.135-0.49,0.165-0.591-0.114C415.999,156.284,416.426,155.958,416.066,155.65z"/>
		</g>
		<g>
			
				<ellipse transform="matrix(-0.9991 0.0422 -0.0422 -0.9991 825.8412 293.3694)" fill="#FFFFFF" cx="409.822" cy="155.408" rx="0.202" ry="0.474"/>
			<path fill="#FEBFBF" d="M410.146,156.666c-0.129,0.092-0.363-0.039-0.524-0.291c-0.16-0.252-0.187-0.531-0.058-0.623
				c0.13-0.091,0.364,0.039,0.525,0.291C410.25,156.295,410.275,156.574,410.146,156.666z"/>
			<path fill="#FFADB7" d="M409.966,156.63c-0.134,0.096-0.342,0.011-0.464-0.188s-0.113-0.438,0.021-0.534
				c0.134-0.095,0.342-0.011,0.464,0.189C410.111,156.296,410.101,156.535,409.966,156.63z"/>
			<path fill="#FFFFFF" d="M412.407,156.235c-0.005,0.173-0.021,0.551-0.021,0.551s-0.176-0.096-0.292-0.091
				c-0.182,0.007-0.341,0.063-0.291-0.491c0.021-0.241,0.129-0.444,0.311-0.452C412.295,155.745,412.414,155.992,412.407,156.235z"
				/>
			<path fill="#FEBFBF" d="M412.576,156.885c0,0-0.342,0.351-0.639,0.314c-0.297-0.035-0.528-0.192-0.518-0.35
				s0.261-0.256,0.558-0.22C412.274,156.664,412.576,156.885,412.576,156.885z"/>
			<g>
				<path fill="#754554" d="M411.712,154.961c0.323,0.172,0.607,0.425,0.879,0.666c0.149,0.133,0.371-0.087,0.221-0.22
					c-0.29-0.257-0.598-0.532-0.942-0.715C411.693,154.598,411.535,154.866,411.712,154.961L411.712,154.961z"/>
			</g>
			<g>
				<path fill="#754554" d="M410.134,153.934c-0.271,0.007-0.613-0.015-0.859,0.112c-0.179,0.092-0.021,0.361,0.157,0.27
					c0.188-0.097,0.494-0.064,0.702-0.07C410.334,154.24,410.335,153.929,410.134,153.934L410.134,153.934z"/>
			</g>
			<g>
				<path fill="#C28698" d="M409.913,158.801c0.41-0.215,0.739,0.074,0.961,0.419c0.079,0.123,0.277,0.009,0.197-0.116
					c-0.292-0.456-0.741-0.781-1.273-0.501C409.667,158.672,409.783,158.87,409.913,158.801L409.913,158.801z"/>
			</g>
			<path fill="#FC9AB2" d="M410.41,157.536L410.41,157.536c-0.212-0.034-0.356-0.232-0.323-0.444l0.296-1.726
				c0.033-0.212,0.231-0.356,0.443-0.323l0,0c0.212,0.034,0.356,0.232,0.323,0.444l-0.295,1.726
				C410.821,157.424,410.622,157.569,410.41,157.536z"/>
			<path fill="#FC9AB2" d="M410.448,157.753l-0.449-0.163c-0.195-0.07-0.296-0.286-0.226-0.481l0,0
				c0.094-0.257,0.381-0.391,0.638-0.298l0.221,0.08c0.258,0.094,0.392,0.38,0.297,0.638v0.001
				C410.857,157.724,410.642,157.823,410.448,157.753z"/>
			
				<linearGradient id="SVGID_4_" gradientUnits="userSpaceOnUse" x1="-4211.2383" y1="157.7314" x2="-4211.4863" y2="154.7291" gradientTransform="matrix(1 0 0 1 4622.0239 0)">
				<stop  offset="0.1224" style="stop-color:#FB7F9E"/>
				<stop  offset="1" style="stop-color:#FCA4B5"/>
			</linearGradient>
			<path fill="url(#SVGID_4_)" d="M411.15,155.486l-0.274,1.597c0.085,0.128,0.108,0.291,0.054,0.445
				c-0.057,0.151-0.2,0.247-0.352,0.247c-0.044,0-0.088-0.008-0.129-0.023l-0.224-0.08c0.082,0.023,0.329,0.077,0.468-0.059
				c0.06-0.057,0.085-0.146,0.093-0.237c0.018-0.172-0.025-0.357-0.025-0.357l0.013-0.049l0.379-1.518
				C411.152,155.463,411.152,155.476,411.15,155.486z"/>
			
				<ellipse transform="matrix(0.9612 0.2757 -0.2757 0.9612 59.3138 -107.5144)" fill="#FFADB7" cx="412.05" cy="157.202" rx="0.683" ry="0.363"/>
		</g>
		<g>
			<g>
				<path fill="#D99AAD" d="M412.726,159.902c1.006-0.177,2.015-0.735,2.581-1.596c0.055-0.083-0.079-0.161-0.133-0.078
					c-0.545,0.828-1.524,1.356-2.489,1.525C412.587,159.771,412.628,159.919,412.726,159.902L412.726,159.902z"/>
			</g>
			<g>
				<path fill="#D99AAD" d="M412.774,159.449c-0.031,0.229-0.025,0.488,0.15,0.663c0.07,0.07,0.18-0.039,0.109-0.109
					c-0.132-0.13-0.134-0.344-0.111-0.513C412.936,159.393,412.788,159.351,412.774,159.449L412.774,159.449z"/>
			</g>
			<g>
				<path fill="#D99AAD" d="M413.359,159.238c-0.031,0.229-0.024,0.489,0.151,0.664c0.07,0.07,0.179-0.04,0.108-0.109
					c-0.131-0.13-0.134-0.344-0.11-0.513C413.521,159.183,413.373,159.141,413.359,159.238L413.359,159.238z"/>
			</g>
			<g>
				<path fill="#D99AAD" d="M413.849,159.049c0.066,0.222,0.188,0.449,0.419,0.533c0.093,0.034,0.134-0.115,0.041-0.149
					c-0.175-0.063-0.263-0.263-0.312-0.425C413.969,158.913,413.821,158.953,413.849,159.049L413.849,159.049z"/>
			</g>
			<g>
				<path fill="#D99AAD" d="M414.522,158.617c0.066,0.223,0.188,0.45,0.419,0.534c0.094,0.034,0.134-0.115,0.041-0.149
					c-0.175-0.063-0.263-0.263-0.311-0.426C414.642,158.482,414.494,158.522,414.522,158.617L414.522,158.617z"/>
			</g>
		</g>
		<g>
			<path fill="#FDEBEE" d="M413.907,157.109l0.794-0.647c0.083-0.068,0.104-0.202,0.044-0.299l-0.049-0.08
				c-0.059-0.097-0.174-0.12-0.258-0.052l-0.794,0.648c-0.084,0.068-0.104,0.201-0.045,0.298l0.049,0.081
				C413.708,157.155,413.823,157.178,413.907,157.109z"/>
			<path fill="#FEF9FA" d="M413.707,156.263l0.56,0.919c0.059,0.097,0.175,0.12,0.258,0.052l0.069-0.057
				c0.084-0.068,0.104-0.202,0.045-0.299l-0.56-0.919c-0.06-0.097-0.175-0.119-0.259-0.052l-0.069,0.058
				C413.667,156.032,413.647,156.166,413.707,156.263z"/>
		</g>
	</g>
	<g>
		<path fill="#FF9061" d="M418.343,190.708c-2.393-1.409-2.805-4.14-2.821-4.255l0.51-0.072c0.003,0.025,0.397,2.604,2.571,3.885
			L418.343,190.708z"/>
	</g>
</g>
</svg>
