<?xml version="1.0" encoding="utf-8"?>
<!-- Generator: Adobe Illustrator 16.0.0, SVG Export Plug-In . SVG Version: 6.00 Build 0)  -->
<!DOCTYPE svg PUBLIC "-//W3C//DTD SVG 1.1//EN" "http://www.w3.org/Graphics/SVG/1.1/DTD/svg11.dtd">
<svg version="1.1" id="Layer_1" xmlns="http://www.w3.org/2000/svg" xmlns:xlink="http://www.w3.org/1999/xlink" x="0px" y="0px"
	 width="463.683px" height="425.749px" viewBox="0 0 463.683 425.749" enable-background="new 0 0 463.683 425.749"
	 xml:space="preserve">
<g>
	<g>
		<path fill="#D7E4F2" d="M165.443,169.18c-4.051-2.578-10.808-2.857-15.093-0.624c-4.284,2.233-4.474,6.133-0.423,8.71
			c4.051,2.578,10.808,2.857,15.092,0.624S169.494,171.757,165.443,169.18z"/>
		<g>
			<path fill="#6C6B79" d="M149.566,172.236c0,0-0.265-0.144-0.355,0.316c-0.091,0.459-0.092,0.892-0.092,0.892
				s0.595,0.742,1.863,0.675s3.257-1.505,3.257-1.505s3.565-0.845,3.696-1.379c0.131-0.534-0.089-1.454-0.089-1.454l-4.02,0.979
				L149.566,172.236z"/>
			<path fill="#434254" d="M154.051,168.081c0,0-0.166,0.92-0.539,1.027c-0.372,0.107-3.843,2.309-4.084,2.504
				s-0.323,1.174-0.323,1.174s0.914,1.068,2.313,0.474c1.399-0.595,3.45-1.339,4.036-1.515c0.586-0.176,2.25-0.642,2.374-1.704
				c0.124-1.062-0.344-1.464-0.344-1.464L154.051,168.081z"/>
			<path fill="#3C3B4E" d="M159.731,144.938c-0.633,2.475-2.745,8.081-3.076,9.801c-0.102,0.526,0.249,0.804,0.065,1.262
				c-0.147,0.37-0.323,0.708-0.528,1c-0.002,0.002-0.002,0.004-0.002,0.004c-0.767,1.081-2.622,1.04-4.397,0.138
				c-0.025-0.424-0.046-0.838-0.062-1.244c-0.469-10.635,1.288-17.384,1.288-17.384l3.05,1.549c0,0,2.83,0.825,3.233,2.208
				C159.43,142.711,160.027,143.786,159.731,144.938z"/>
			<path fill="#3C3B4E" d="M157.628,168.145c-0.016,0.134-0.054,0.251-0.113,0.355c-0.582,1.024-3.583,0.958-3.556,0.646
				c0.029-0.345-1.931-10.254-2.166-12.003c-0.071-0.537-0.083-0.941-0.062-1.244c0.041-0.686,0.238-0.852,0.238-0.852l4.535,0.523
				l0.104,0c0,0,0.046,0.168,0.113,0.431c0.185,0.719,0.537,2.156,0.581,2.845C157.36,159.785,157.785,166.705,157.628,168.145z"/>
			<path fill="#A8B0C2" d="M157.628,168.145c-0.016,0.134-0.054,0.251-0.113,0.355c-0.136,0.228-0.245,0.276-0.494,0.438
				c-0.34-3.764-0.871-11.878-0.831-11.934c0,0-0.444-0.708-0.441-0.71c0.021-0.059-0.167-1.171-0.002-1.965
				c0.406-1.946,1.742-6.835,1.742-6.835l-0.205-1.137l-0.997-1.123l2.097-2.73l1.347,2.433c-0.633,2.475-2.745,8.081-3.076,9.801
				c-0.102,0.526,0.249,0.804,0.065,1.262c0.185,0.719,0.537,2.156,0.581,2.845C157.36,159.785,157.785,166.705,157.628,168.145z"/>
			<path fill="#6C6B79" d="M158.23,174.935l-0.303-0.025c0,0-0.125,0.702-0.074,0.86s0.737,0.855,2.133,0.903
				c1.397,0.048,2.154-0.113,2.702-0.655c0.547-0.542,1.951-2.223,1.957-2.292c0.005-0.068,0.517-0.597,0.614-0.935
				c0.098-0.337,0.106-1.063,0.106-1.063l-2.068,0.328L158.23,174.935z"/>
			<path fill="#434254" d="M161.877,169.602c-0.004,0.052-0.565,1.579-0.565,1.579l-3.346,3.594c0,0-0.387,0.486,1.232,0.985
				c1.619,0.5,2.967,0.093,3.396-0.269c0.428-0.361,2-2.6,2-2.6s0.809-0.779,0.892-1.152c0.083-0.374-0.242-1.751-0.363-2.003
				c-0.122-0.252-1.203-0.36-1.203-0.36L161.877,169.602z"/>
			<path fill="#3C3B4E" d="M164.601,156.082c-0.002,0.051-0.01,0.102-0.013,0.153c-0.024,0.274-0.062,0.535-0.117,0.794
				c-0.671,3.393-3.395,5.32-3.584,4.219c-0.271-1.578-0.539-3.054-0.794-4.408c-0.011-0.058-0.021-0.116-0.025-0.161
				c-0.011-0.039-0.016-0.071-0.021-0.109c0-0.006-0.006-0.013-0.006-0.013c0-0.02-0.005-0.032-0.005-0.039
				c-0.006-0.013-0.006-0.02-0.005-0.026c-1.166-6.175-2.063-9.833-2.063-9.833l-1.677-1.422l-0.321-3.972l8.544-3.749
				c0,0,0.203,0.501,0.454,1.19c0.344,0.935,0.774,2.226,0.885,3.063C166.313,145.177,164.981,152.172,164.601,156.082z"/>
			<path fill="#3C3B4E" d="M165.104,169.908c-0.012,0.127-0.113,0.257-0.272,0.378c-0.779,0.574-2.974,0.895-3.095-0.28
				c-0.233-2.465-1.371-11.344-1.644-13.166c-0.011-0.058-0.021-0.116-0.025-0.161c-0.011-0.045-0.016-0.083-0.021-0.109
				c0-0.006-0.006-0.013-0.006-0.013c0-0.02-0.005-0.032-0.005-0.039c-0.006-0.013-0.006-0.02-0.005-0.026
				c0.006-0.147,0.828,0.535,0.828,0.535l3.364-2.093l0.066-0.042c0,0,0.126,0.485,0.313,1.19c0.298,1.106,0.758,2.75,1.131,3.879
				C166.336,161.815,165.169,169.149,165.104,169.908z"/>
		</g>
		<g>
			<g>
				<path fill="#8C92B0" d="M157.632,145.897c-0.065-0.002-0.135-0.021-0.206-0.056c-0.382-0.185-0.813-0.808-0.857-1.737
					c-0.023-0.505-0.026-2.514-0.003-2.757l0.225,0.021c-0.02,0.208-0.021,2.197,0.005,2.724c0.042,0.895,0.46,1.414,0.729,1.544
					c0.078,0.038,0.146,0.044,0.186,0.017c0.058-0.042,0.08-0.166,0.06-0.332c-0.144-1.161-0.138-3.873,0.049-4.006l0.056-0.039
					l0.066,0.029l-0.05,0.102l0.001,0.004l0.088,0.055c-0.072,0.184-0.161,2.421,0.014,3.828c0.041,0.33-0.061,0.478-0.152,0.543
					C157.782,145.882,157.71,145.901,157.632,145.897z"/>
			</g>
			<g>
				<path fill="#8C92B0" d="M161.879,144.656c-0.617-0.027-1.141-0.175-1.568-0.443c-0.817-0.515-0.957-1.281-0.962-1.313
					l0.188-0.032c0.001,0.007,0.134,0.72,0.88,1.188c0.835,0.521,2.077,0.553,3.692,0.092l0.052,0.183
					C163.299,144.575,162.536,144.684,161.879,144.656z"/>
			</g>
			<path fill="#A76478" d="M165.639,140.855c0,0-1.528,1.482-4.936,1.587c-3.407,0.104-4.73-0.214-5.922-0.783
				c-1.192-0.569-1.963-1.365-1.963-1.365l0.092-1.325c0,0,0.739,1.02,2.416,1.61c1.677,0.591,5.169,0.538,6.585,0.456
				s3.512-1.194,3.512-1.194L165.639,140.855z"/>
			<path fill="#A8B0C2" d="M165.104,169.908c-0.012,0.127-0.113,0.257-0.272,0.378c0.164-1.712,0.839-8.934,0.65-9.434
				c-0.138-0.352-0.661-2.312-1.011-3.823c-0.204-0.91-0.351-1.658-0.307-1.79c0.008-0.032,0.031-0.133,0.058-0.305
				c0.284-1.848,1.421-11.46,0.904-13.694c-0.151-1.106-0.614-2.374-0.614-2.374l0.454-0.159c0.344,0.935,0.774,2.226,0.885,3.063
				c0.46,3.408-0.871,10.403-1.251,14.313c0.298,1.106,0.758,2.75,1.131,3.879C166.336,161.815,165.169,169.149,165.104,169.908z"/>
			<path fill="#3C3B4E" d="M158.899,141.145c0,0-0.059,0.381-0.034,0.825s0.114,1.256,0.114,1.256l-0.52-0.037
				c0,0-0.162-0.777-0.177-1.172c-0.015-0.395,0.054-0.949,0.054-0.949L158.899,141.145z"/>
			<path fill="#3C3B4E" d="M163.806,140.724c0,0,0.125,0.365,0.177,0.807c0.053,0.441,0.106,1.257,0.106,1.257l0.506-0.127
				c0,0,0.024-0.793-0.029-1.185s-0.219-0.926-0.219-0.926L163.806,140.724z"/>
			<path fill="#3C3B4E" d="M154.041,139.917c0,0-0.084,0.474-0.07,0.853c0.015,0.378,0.142,1.016,0.142,1.016l-0.381-0.391
				c0,0-0.111-0.646-0.119-0.852c-0.008-0.206,0.128-0.821,0.128-0.821L154.041,139.917z"/>
			<g>
				<path fill="#8C92B0" d="M152.993,142.929c-0.028-0.001-0.057-0.006-0.086-0.014l0.059-0.219c0.297,0.075,0.605-0.641,0.716-1
					l0.217,0.066C153.858,141.89,153.517,142.951,152.993,142.929z"/>
			</g>
			<g>
				<path fill="#CCDEFB" d="M157.607,142.564c-0.061,0.007-0.123,0.008-0.187,0.001l-0.99-0.101
					c-0.422-0.043-0.765-0.385-0.781-0.777l-0.015-0.375c-0.008-0.191,0.062-0.369,0.198-0.501c0.153-0.148,0.372-0.22,0.602-0.196
					l0.99,0.102c0.422,0.043,0.765,0.384,0.781,0.777l0.015,0.375c0.008,0.191-0.063,0.369-0.198,0.5
					C157.913,142.477,157.767,142.544,157.607,142.564z M156.277,141.044c-0.066,0.008-0.124,0.033-0.165,0.073
					c-0.042,0.041-0.062,0.094-0.06,0.156l0.016,0.375c0.007,0.184,0.206,0.365,0.424,0.388l0.99,0.102
					c0.106,0.01,0.202-0.017,0.261-0.074c0.042-0.041,0.062-0.093,0.06-0.156l-0.015-0.375c-0.008-0.184-0.206-0.365-0.424-0.387
					l-0.99-0.101C156.339,141.04,156.307,141.041,156.277,141.044z"/>
			</g>
		</g>
		<g>
			<g>
				<path fill="#FEBFBF" d="M152.887,145.572c-0.314-0.163-0.986-1.656-0.986-1.656l0.211,3.667c0,0-0.387,0.279-0.424,0.328
					c-0.039,0.048-0.246-0.158-0.286-0.3c-0.04-0.142-0.94-3.642-0.814-6.382c-0.398-2.057,0.199-10.413,0.431-11.327
					c0.232-0.915,0.573-8.167,0.974-9.873c0.404-1.703,1.652-1.729,1.652-1.729l-0.112,3.667c0,0-0.019,1.512-0.044,3.471
					c-0.043,3.51-0.111,8.455-0.145,8.708c-0.05,0.394-1.281,6.829-1.281,6.829s0.036,0.046,0.091,0.128
					c0.095,0.134,0.244,0.365,0.381,0.654c0.224,0.47,0.243,1.612,0.225,1.818c-0.017,0.207,0.676,1.441,0.723,1.705
					S153.201,145.738,152.887,145.572z"/>
				
					<linearGradient id="SVGID_1_" gradientUnits="userSpaceOnUse" x1="1240.1245" y1="200.5" x2="1241.8823" y2="200.5" gradientTransform="matrix(0.9965 0.0836 -0.0836 0.9965 -1067.3761 -170.1389)">
					<stop  offset="0.1224" style="stop-color:#FCA4B5"/>
					<stop  offset="0.9896" style="stop-color:#FFADB7"/>
				</linearGradient>
				<path fill="url(#SVGID_1_)" d="M153.343,134.144c-0.05,0.394-1.281,6.829-1.281,6.829s0.036,0.046,0.091,0.128l-0.252,0.309
					l0.766-5.783c0,0,0.09-4.386-0.026-5.052c-0.117-0.667-0.439-3.843-0.439-3.843l1.287-1.295
					C153.445,128.946,153.376,133.891,153.343,134.144z"/>
				<path fill="#444355" d="M153.562,128.175c0,0-1.664-0.585-2.266-1s-0.547-0.859-0.547-0.859s0.443-5.47,1.009-7.031
					c0.771-2.125,3.783-2.187,3.783-2.187L153.562,128.175z"/>
				<path fill="#504F60" d="M165.809,140.242c0,0-0.223,0.129-0.61,0.316c-1.153,0.559-4.996,0.933-7.504,0.722
					c-3.351-0.281-4.919-1.493-4.919-1.493s0.552-6.724,0.532-8.594c-0.02-1.87-0.748-4.318-0.825-6.79
					c-0.077-2.472,0.15-5.814,0.834-6.367c1.678-1.355,4.404-1.029,5.221-1.168c0.815-0.139,2.485-0.57,3.246-0.04
					c0.761,0.531,5.277,2.606,5.597,3.323c0.526,1.182-0.251,2.694-0.628,4.715c-0.231,1.224-0.471,2.449-0.605,3.328
					C165.799,130.526,164.995,136.542,165.809,140.242z"/>
				
					<linearGradient id="SVGID_2_" gradientUnits="userSpaceOnUse" x1="653.0718" y1="133.7471" x2="658.9741" y2="133.7471" gradientTransform="matrix(0.9961 -0.0885 0.0885 0.9961 -505.7195 44.0559)">
					<stop  offset="0.1224" style="stop-color:#FEC7C7"/>
					<stop  offset="0.9694" style="stop-color:#FFADB7"/>
				</linearGradient>
				<path fill="url(#SVGID_2_)" d="M162.33,117.392c0,0-0.013-0.367-0.752-0.422s-4.217,0.024-4.507,0.3
					c-0.664,0.631-0.688,3.109,0.456,4.424c2.052-1.212,3.716-2.035,4.406-3.139C162.622,117.451,162.33,117.392,162.33,117.392z"/>
				<path fill="#DDE8F6" d="M165.809,140.242c0,0-0.223,0.129-0.61,0.316l-0.035-0.932l-0.996-1.956l0.486-3.252l0.567-2.477
					l0.122-4.538c0,0-0.475-0.336-1.079-1.74c-0.603-1.405,0.039-2.302,0.038-2.413c0,0,1.126,0.477,2.451,1.617
					c-0.231,1.224-0.471,2.449-0.605,3.328C165.799,130.526,164.995,136.542,165.809,140.242z"/>
				<path fill="#FEBFBF" d="M171.095,129.856c0,0-3.138,6.482-3.843,6.838c-0.705,0.356-2.183-0.883-2.183-0.883l-0.505,0.45
					l-0.643,0.247l-1.403,0.334l-1.495,0.809l0.255,0.358c0,0-0.739,0.457-0.754,0.637c-0.015,0.181,0.11,0.386,0.188,0.392
					c0.078,0.006,0.21,0.055,0.21,0.055l0.241,0.593l0.589-0.067c0,0,0.096,0.254,0.41,0.371c0.315,0.117,1.374,0.167,1.79,0.008
					c0.415-0.16,1.768-0.199,1.768-0.199s0.489,0.051,2.06-0.738c1.571-0.789,7.86-7.37,7.239-8.486
					C174.397,129.458,171.095,129.856,171.095,129.856z"/>
				<path fill="#FEBFBF" d="M163.792,137.584l-0.953,0.076l-2.014,0.663l0.454-0.314l-0.097-0.137c0,0,0.664,0.029,0.798-0.025
					s1.117-0.321,1.117-0.321l0.701-0.006L163.792,137.584z"/>
				<polygon fill="#FEBFBF" points="164.035,138.396 162.384,138.595 160.712,139.039 160.949,139.158 161.773,138.92 				"/>
				<path fill="#FEBFBF" d="M164.255,139.167c0,0-1.492,0.316-1.764,0.307s-1.263,0.205-1.263,0.205l0.67,0.056l2.154-0.316
					L164.255,139.167z"/>
				<path fill="#FEBFBF" d="M166.775,120.725c0,0-2.43-0.411-2.277,2.715s7.991,8.039,8.917,8.142
					c0.925,0.104,1.819-0.651,1.577-1.476c-0.242-0.825-3.021-4.509-4.806-6.423C168.4,121.769,167.78,120.809,166.775,120.725z"/>
				<path fill="#444355" d="M171.669,124.894c0,0-0.877,0.881-1.451,1.675c-0.252,0.349-1.705,2.189-1.705,2.189l-3.683-2.906
					c0,0-1.279-1.392-0.427-3.95c0.852-2.559,2.72-2.001,2.72-2.001L171.669,124.894z"/>
			</g>
			<g>
				<path fill="#E65E5E" d="M165.603,109.242c0,0,0.86-0.99,0.76-1.308c-0.1-0.317-0.629-1.199-1.403-1.25
					c-0.774-0.051-2.385,0.015-2.385,0.015l0.99,1.738L165.603,109.242z"/>
				
					<linearGradient id="SVGID_3_" gradientUnits="userSpaceOnUse" x1="1248.9556" y1="184.522" x2="1245.9747" y2="179.9976" gradientTransform="matrix(0.9965 0.0836 -0.0836 0.9965 -1067.3761 -170.1389)">
					<stop  offset="0.1224" style="stop-color:#FEC7C7"/>
					<stop  offset="0.9694" style="stop-color:#FFADB7"/>
				</linearGradient>
				<path fill="url(#SVGID_3_)" d="M156.966,116.076c0,0,0.208,1.021,0.039,1.802c-0.169,0.781-0.59,0.902-0.185,1.195
					c0.405,0.293,1.647,0.536,3.181-0.01c1.533-0.546,2.104-1.38,2.198-1.667c0.093-0.286-0.366-1-0.366-1s-0.353-1.154-0.116-2.535
					c0.237-1.381,1.734-2.933,1.289-3.61c-0.445-0.677-4.049-1.429-5.195,0.066C156.667,111.813,156.966,116.076,156.966,116.076z"
					/>
				<path fill="#FEC7C7" d="M161.295,113.262c-0.242,0.863-0.566,1.662-0.85,2.122c-0.716,1.163-3.71,2.277-4.646,1.541
					c-0.429-0.339-0.592-1.575-0.643-2.843c-0.059-1.494,0.039-3.032,0.042-3.191c0.003-0.292,0.336-1.41,0.336-1.41
					s5.05-0.633,5.83,0.386C161.836,110.482,161.662,111.945,161.295,113.262z"/>
				<path fill="#5C5B6B" d="M160.55,113.025c-0.242,0.863,0.179,1.899-0.104,2.359c-0.716,1.163-3.71,2.277-4.646,1.541
					c-0.429-0.339-0.592-1.575-0.643-2.843l0.601,0.404l0.877,0.282c0,0,2.547,0.394,2.794,0.047
					c0.249-0.346,0.661-1.631,0.661-1.631L160.55,113.025z"/>
				<g>
					<path fill="#754554" d="M158.241,112.185c-0.68-0.36-1.792-0.279-1.803-0.278l-0.012-0.159c0.046-0.003,1.168-0.086,1.89,0.296
						L158.241,112.185z"/>
				</g>
				<g>
					<path fill="#754554" d="M155.766,111.586c-0.005-0.005-0.477-0.461-0.744-0.551l0.051-0.151
						c0.301,0.101,0.784,0.568,0.804,0.588L155.766,111.586z"/>
				</g>
				<g>
					
						<linearGradient id="SVGID_4_" gradientUnits="userSpaceOnUse" x1="1182.1968" y1="180.4302" x2="1181.2197" y2="180.6957" gradientTransform="matrix(0.9978 0.0661 -0.0661 0.9978 -1011.5397 -145.2515)">
						<stop  offset="0.1224" style="stop-color:#FEC7C7"/>
						<stop  offset="0.9896" style="stop-color:#FFDBDB"/>
					</linearGradient>
					<path fill="url(#SVGID_4_)" d="M155.994,111.533c0.071,0.365-0.867,2.129-0.879,2.317c-0.013,0.187,0.946,0.449,1.345,0.428
						L155.994,111.533z"/>
					
						<linearGradient id="SVGID_5_" gradientUnits="userSpaceOnUse" x1="1181.1978" y1="180.4248" x2="1182.6216" y2="180.4248" gradientTransform="matrix(0.9978 0.0661 -0.0661 0.9978 -1011.5397 -145.2515)">
						<stop  offset="0.188" style="stop-color:#FFDCDC"/>
						<stop  offset="0.8991" style="stop-color:#FEC7C7"/>
					</linearGradient>
					<path fill="url(#SVGID_5_)" d="M156.356,114.326c-0.391-0.018-1.069-0.199-1.241-0.373c-0.034-0.035-0.05-0.07-0.048-0.106
						c0.005-0.072,0.1-0.284,0.283-0.684c0.254-0.558,0.639-1.401,0.597-1.622l0.094-0.018c0.044,0.231-0.247,0.897-0.604,1.679
						c-0.133,0.292-0.27,0.592-0.274,0.651c0,0.005,0.005,0.016,0.021,0.032c0.155,0.157,0.913,0.366,1.274,0.345l0.005,0.096
						C156.43,114.328,156.395,114.328,156.356,114.326z"/>
				</g>
				<path fill="#FEBFBF" d="M156.774,115.521c0,0-1.161,0.19-1.333-0.486C155.764,114.875,156.774,115.521,156.774,115.521z"/>
				<circle fill="#FFFFFF" cx="157.448" cy="112.567" r="0.287"/>
				
					<ellipse transform="matrix(0.9959 -0.0907 0.0907 0.9959 -9.5041 14.5664)" fill="#FFFFFF" cx="155.595" cy="111.904" rx="0.183" ry="0.252"/>
				<path fill="#444355" d="M160.577,113.065l-0.486,0.12c0,0,0.021-1.162-0.331-1.56c-0.352-0.396-1.158-1.251-1.158-1.251
					l2.273-0.944l2.709-0.472l0.429,1.343c0,0-0.269,1.45-0.712,2.146s-1.068,1.05-1.363,1.528
					c-0.219,0.355-0.333,0.696-0.298,0.692c0,0-0.046-0.457,0.064-0.807c0.181-0.573,0.529-1.188,0.323-1.481
					c-0.332-0.471-0.792-0.57-0.962-0.34C160.894,112.271,160.577,113.065,160.577,113.065z"/>
				<path fill="#444355" d="M161.639,114.668l0.011,0.604c0,0,0.512-1.1,0.731-1.319c0.219-0.221,0.855-1.208,0.986-1.619
					s-0.998-0.178-0.998-0.178l-0.729,2.054L161.639,114.668z"/>
				<path fill="#F26363" d="M164.283,109.092l0.201-0.159c0,0-0.579-1.438-1.908-2.233c-1.329-0.797-3.691-0.867-4.35-0.824
					c-0.659,0.043-1.631,0.635-1.746,1.059s-0.768,1.158-0.796,1.588c-0.029,0.43,2.35,1.814,2.35,1.814
					S163.417,110.693,164.283,109.092z"/>
				<path fill="#E65E5E" d="M161.389,109.487c0,0-1.751-0.427-2.135-0.625c-0.384-0.198-1.174-0.788-1.174-0.788
					S158.846,109.285,161.389,109.487z"/>
				<path fill="#F76565" d="M164.013,110.301c0,0-0.851,0.583-2.137,0.705c-1.287,0.122-3.05,0.402-4.532,0.097
					s-2.176-1.042-2.176-1.042s0.02-1.087,0.247-1.383c0.227-0.296,0.227-0.296,0.227-0.296s1.465,1.099,2.181,1.233
					c0.717,0.134,4.552,0.129,5.432-0.383c0.538-0.313,0.937-0.376,1.166-0.379c0.146-0.002,0.223,0.021,0.223,0.021l-0.163,0.368
					L164.013,110.301z"/>
				<path fill="#E65E5E" d="M159.267,109.191c0,0-2.677-0.787-3.165-1.249C156.618,107.979,159.267,109.191,159.267,109.191z"/>
				<path fill="#E65E5E" d="M161.147,109.627c0,0-2.536,0.072-2.93,0.029c-0.395-0.042-1.096-0.322-1.096-0.322l-1.172-0.732
					c0,0,1.173,0.637,2.044,0.79C158.863,109.545,161.147,109.627,161.147,109.627z"/>
				<path fill="#E65E5E" d="M161.623,110.661c0,0-1.731,0.317-2.213,0.285c-0.481-0.032-3.457-0.747-3.457-0.747l3.724,0.627
					L161.623,110.661z"/>
				<path fill="#F26363" d="M165.202,107.736c0,0-0.481-0.55-0.74-1.085s-0.623-1.095-1.136-0.749
					c-0.513,0.346,0.125,1.148,0.125,1.148l1.35,1.005L165.202,107.736z"/>
				<path fill="#F26363" d="M163.44,109.551c0,0,0.479,0.256,0.61,0.664c0.13,0.408,0.065,0.87,0.065,0.87s1.38,0.281,1.583-0.431
					s-0.052-1.299-0.052-1.299l-0.149-0.874l-1.392-0.596l-0.199,0.687l-0.274,0.539l-0.532,0.192L163.44,109.551z"/>
				
					<linearGradient id="SVGID_6_" gradientUnits="userSpaceOnUse" x1="1187.0054" y1="180.2197" x2="1188.5161" y2="180.2197" gradientTransform="matrix(0.9978 0.0661 -0.0661 0.9978 -1011.5397 -145.2515)">
					<stop  offset="0.1224" style="stop-color:#FEB9B8"/>
					<stop  offset="1" style="stop-color:#FFDEDE"/>
				</linearGradient>
				<path fill="url(#SVGID_6_)" d="M161.285,112.191c0,0,0.555-0.645,1.084-0.035c0.53,0.61-0.852,2-1.14,2.088
					c-0.288,0.088-0.405-0.654-0.274-0.815C161.087,113.268,161.285,112.191,161.285,112.191z"/>
				
					<linearGradient id="SVGID_7_" gradientUnits="userSpaceOnUse" x1="709.4829" y1="143.3584" x2="710.7085" y2="143.3584" gradientTransform="matrix(0.9974 -0.0725 0.0725 0.9974 -557.0488 21.4885)">
					<stop  offset="0.1224" style="stop-color:#FCA4B5"/>
					<stop  offset="0.9896" style="stop-color:#FFADB7"/>
				</linearGradient>
				<path fill="url(#SVGID_7_)" d="M161.384,112.336c0,0,0.708-0.328,0.781,0.082c0.073,0.41-0.594,1.281-0.743,1.338
					c-0.149,0.057-0.394-0.098-0.394-0.098L161.384,112.336z"/>
				<path fill="#444355" d="M160.422,112.683c0.018-0.001,0.19,0.599,0.886,0.973c-0.58-0.573-0.723-1.345-0.723-1.345
					s0.497,0.578,0.672,0.667s0.314,0.09,0.314,0.09l-0.315-0.214c0,0-0.404-0.421-0.397-0.774c0.006-0.353-0.214-0.42-0.214-0.42
					L160.422,112.683z"/>
			</g>
		</g>
	</g>
	<g>
		<g>
			<polygon fill="#858AAB" points="157.208,134.978 156.563,134.8 156.692,131.663 157.333,131.839 			"/>
			<polygon fill="#858AAB" points="158.014,135.097 157.368,134.918 157.491,131.778 158.133,131.954 			"/>
			<path fill="#858AAB" d="M157.769,124.514c0,0-3.459-1.016-3.465,3.694c-0.005,3.675,1.648,3.975,1.671,4.507
				c0.023,0.533,0.363,0.954,0.604,1.261c0.242,0.308,0.802,0.339,0.802,0.339L157.769,124.514z"/>
			<path fill="#858AAB" d="M157.769,124.514c0,0,3.487,0.48,3.124,5.126c-0.284,3.625-1.902,3.062-1.967,3.575
				c-0.064,0.514-0.432,0.779-0.693,0.977c-0.262,0.196-0.851,0.123-0.851,0.123L157.769,124.514z"/>
		</g>
		<path fill="#504F60" d="M156.212,127.354c0,0-1.53-0.269-1.379,1.44c0.153,1.722,1.812,1.042,1.984,0.66
			C156.991,129.074,157.347,127.621,156.212,127.354z"/>
		<path fill="#504F60" d="M158.937,128.067c0,0,1.515,0.528,1.09,2.09c-0.427,1.574-1.909,0.066-2.013-0.388
			C157.911,129.315,157.806,127.741,158.937,128.067z"/>
		<path fill="#504F60" d="M157.063,132.242c0,0,0.58,0.313,0.633-0.312c0.053-0.623-0.093-1.276-0.253-1.43
			S156.409,132.063,157.063,132.242z"/>
	</g>
</g>
</svg>
