<?xml version="1.0" encoding="utf-8"?>
<!-- Generator: Adobe Illustrator 16.0.0, SVG Export Plug-In . SVG Version: 6.00 Build 0)  -->
<!DOCTYPE svg PUBLIC "-//W3C//DTD SVG 1.1//EN" "http://www.w3.org/Graphics/SVG/1.1/DTD/svg11.dtd">
<svg version="1.1" id="Layer_1" xmlns="http://www.w3.org/2000/svg" xmlns:xlink="http://www.w3.org/1999/xlink" x="0px" y="0px"
	 width="463.683px" height="425.749px" viewBox="0 0 463.683 425.749" enable-background="new 0 0 463.683 425.749"
	 xml:space="preserve">
<g>
	<path fill="#D7E4F2" d="M330.546,205.836c-3.864-2.458-10.311-2.725-14.397-0.595c-0.504,0.263-0.947,0.55-1.331,0.854
		c-3.451-0.707-7.364-0.363-10.178,1.104c-4.146,2.161-4.33,5.936-0.409,8.43c3.92,2.495,10.46,2.766,14.606,0.604
		c0.563-0.294,1.047-0.619,1.464-0.966c3.354,0.646,7.12,0.297,9.841-1.121C334.23,212.016,334.411,208.296,330.546,205.836z"/>
	<path fill="#C29F70" d="M321.291,155.868c0,0,2.176-1.631,3.033-1.692c0.721-0.053,4.399,1.084,6.3,1.886
		c0.36,0.151,0.644,1.224,0.78,1.318c0.86,0.586,0.971,5.811-0.105,6.832C330.221,165.233,321.291,155.868,321.291,155.868z"/>
	<path fill="#C29F70" d="M320.458,152.625c0,0-0.36-1.351,0.496-1.413s6.946,1.955,7.807,2.542c0.861,0.586,0.972,5.811-0.105,6.833
		S320.458,152.625,320.458,152.625z"/>
	<path fill="#C29F70" d="M320.412,170.184c0,0,0.654-10.51,1.512-10.572c3.866-0.28,9.989,2.344,9.033,1.692
		c0.861,0.586,1.402,10.227,0.326,11.249c-0.11,0.104-2.5,1.227-2.738,1.254C326.45,174.051,320.412,170.184,320.412,170.184z"/>
	<path fill="#BCC2D0" d="M331.391,158.365c0,0-0.099-1.131-0.611-1.584c-0.512-0.453-1.092-0.081-1.858-0.088
		c-0.768-0.007-1.979-0.799-2.59-1.453c-0.612-0.653-2.503-1.606-3.607-1.93s-2.817-0.134-2.817-0.134s2.003,16.93,4.178,18.487
		c2.176,1.557,4.387,2.176,4.818,2.016c0.432-0.16,0.599-0.419,0.599-0.419s0.001-5.804-0.019-6.525
		c0.511-6.261-0.497-8.78-0.38-9.162S331.391,158.365,331.391,158.365z"/>
	<path fill="#3C3B4E" d="M322.059,210.299c0,0-0.283,0.255-0.267,0.369c0.018,0.115-0.016,0.214,0.002,0.411
		s0.751,0.474,1.508,0.553s2.551-0.347,3.744-1.213c0.773-0.562,1.352-1.572,1.6-1.933c0.129-0.188,0.293-0.052,0.293-0.052
		l0.668-1.121c0,0,0.212-0.38,0.212-0.462s-0.201-0.903-0.218-0.92c-0.017-0.016-2.886,0.768-2.886,0.768L322.059,210.299z"/>
	<polygon fill="#773952" points="306.942,206.775 308.209,202.775 310.844,203.086 309.575,208.188 306.563,207.669 	"/>
	<path fill="#3C3B4E" d="M301.482,207.689l-0.394,0.118l-0.081,0.724c0,0,0.542,0.867,2.268,1.08
		c0.366,0.045,1.73,0.109,2.879,0.158c0.283,0.012,0.891-0.153,1.13-0.143c0.55,0.021,0.598,0.212,0.598,0.212l2.792-0.077
		c0,0,0.31-0.961,0.205-1.109c-0.104-0.148-3.889,0.311-3.889,0.311l-3.559-0.311L301.482,207.689z"/>
	<g>
		<path fill="#DBC2A2" d="M311.645,175.998c-0.046-0.002-0.093-0.013-0.138-0.033l0.088-0.197c0.258,0.113,0.669-0.51,0.829-0.831
			l0.193,0.096C312.564,175.142,312.115,176.018,311.645,175.998z"/>
	</g>
	<path fill="#7C745F" d="M310.372,207.018l0.109,0.955l-0.087,0.764l-1.813,0.409l-4.982-0.308c0,0-2.375-0.938-2.511-1.03
		c-0.137-0.093,0.275-0.513,0.275-0.513l3.798-0.484l1.621-1.167l1.377,0.864c0,0,0.553,0.942,0.864,0.888
		c0.155-0.027,0.492-0.122,0.79-0.21l0.178-0.674C310.145,206.465,310.372,207.018,310.372,207.018z"/>
	<path fill="#CCA776" d="M325.632,204.275l-0.441,0.595l-0.5,1.719c0,0-2.479,2.017-2.876,2.971
		c-0.106,0.256-0.022,1.108-0.022,1.108s0.571,0.455,1.591,0.499s3.542-1.081,4.049-1.692c0.212-0.256,0.698-0.873,1.057-1.355
		c0.498-0.672,0.706-0.713,1.215-1.801c0.003-0.321-0.492-1.376-0.492-1.376l-0.832-1.013L325.632,204.275z"/>
	<path fill="#BFA783" d="M320.451,180.435c-0.005,0.104-0.902-0.28-0.997-0.169c-0.458,0.573-1.544,4.609-3.483,8.113
		c-0.35,0.625-0.572,1.314-0.634,2.028c-0.276,3.198-1.784,9.235-2.882,10.303c-0.341,1.31-0.598,2.271-0.788,2.976
		c-0.47,1.697-0.559,1.9-0.559,1.9s-0.654,0.068-1.462,0.063c-1.131-0.012-2.769-0.321-3.085-1.03
		c-0.154-0.337,1.094-1.69,0.394-4.864c0.059-0.359-0.342-5.529,1.395-10.984c0.281-0.883,0.455-1.807,0.524-2.741
		c0.529-7.093,2.889-11.422,3.234-12.011c0.374-0.627,1.152-1.561,1.152-1.561s3.586,3.027,5.69,5.464
		C319.862,178.964,320.489,179.894,320.451,180.435z"/>
	<path fill="#CFD4DD" d="M320.451,180.435c-0.005,0.104-0.902-0.28-0.997-0.169c-0.458,0.573-1.544,4.609-3.483,8.113
		c-0.35,0.625-0.572,1.314-0.634,2.028c-0.276,3.198-1.784,9.235-2.882,10.303c-0.341,1.31-0.598,2.271-0.788,2.976
		c-1.103,0.934-1.743-0.953-0.342-2.216c2.74-2.471,0.759-4.918,1.431-8.135c0.665-3.223,1.526-4.293,1.526-4.293
		s0.799-2.393,1.232-5.858c0.458-3.658,0.548-4.281,0.548-4.281s1.664-0.606,2.889-0.981
		C319.862,178.964,320.489,179.894,320.451,180.435z"/>
	<path fill="#BFA783" d="M328.545,204.755c-0.933,0.703-6.024-4.482-5.415-4.51c-0.816,0.029-2.701-6.026-3.455-8.548
		c-2.162-5.436-2.427-11.378-2.427-11.378s-1.093-0.711-1.461-1.662c-0.121-0.313-0.226-1.711-0.272-2.161
		c-0.041-0.48,0.675-0.939,0.674-1.292c0.002-0.311,0.007-0.513,0.007-0.513s0.146-0.011,0.396-0.026
		c1.8-0.144,8.926-0.535,9.378,0.162c0.038,0.054,0.071,0.125,0.104,0.203c0.648,1.429,1.105,6.614,0.298,14.453
		c-0.092,0.857,0.03,1.731,0.339,2.531c1.336,3.471,1.907,6.158,1.354,8.257c-0.017,0.056,0.026,0.414,0.099,0.899
		C328.335,202.457,328.676,204.658,328.545,204.755z"/>
	<path fill="#CFD4DD" d="M328.163,201.17c-0.677-0.006-0.819-0.746-0.651-2.208c0.44-1.521-0.644-4.929-0.644-4.929
		s-1.353-1.678-1.721-3.646c0.279-2.449,0.323-7.942,0.005-9.705c-0.318-1.764-12.754-0.591-13.842-4.451
		c-0.896-3.179,14.764-1.2,14.764-1.2c0.648,1.429,1.105,6.614,0.298,14.453c-0.092,0.857,0.03,1.731,0.339,2.531
		c1.336,3.471,1.907,6.158,1.354,8.257C328.047,200.327,328.09,200.685,328.163,201.17z"/>
	<g>
		<path fill="#DBC2A2" d="M323.589,181.104c-2.175-0.094-3.19-1.544-3.202-1.562l0.149-0.102c0.015,0.02,1.406,2.001,4.455,1.358
			l0.037,0.178C324.502,181.088,324.023,181.123,323.589,181.104z"/>
	</g>
	<g>
		<path fill="#DBC2A2" d="M316.333,178.846c-0.072-0.003-0.15-0.029-0.229-0.079c-0.344-0.215-0.686-0.852-0.629-1.738
			c0.029-0.479,0.24-2.384,0.288-2.614l0.212,0.044c-0.041,0.196-0.253,2.082-0.285,2.583c-0.054,0.854,0.286,1.39,0.528,1.542
			c0.07,0.045,0.133,0.056,0.174,0.035c0.06-0.034,0.094-0.149,0.092-0.309c-0.014-1.116,0.28-3.686,0.472-3.792l0.057-0.032
			l0.061,0.035l-0.059,0.091l0.001,0.003l0.077,0.062c-0.088,0.167-0.408,2.279-0.393,3.63c0.004,0.317-0.107,0.447-0.202,0.5
			C316.448,178.835,316.392,178.849,316.333,178.846z"/>
	</g>
	<g>
		<path fill="#504F60" d="M325.224,176.389c0,0-1.75,1.096-5.257,0.782c-3.507-0.314-4.824-0.746-5.977-1.377
			c-1.151-0.631-1.843-1.409-1.843-1.409l0.259-1.131c0,0,0.631,0.966,2.277,1.674c1.646,0.708,5.233,1.076,6.695,1.174
			c1.462,0.097,3.748-0.612,3.748-0.612L325.224,176.389z"/>
		<path fill="#BFA783" d="M318.278,175.838c0,0-0.108,0.321-0.137,0.707c-0.029,0.385-0.039,1.095-0.039,1.095l-0.528-0.093
			c0,0-0.07-0.689-0.037-1.031c0.033-0.342,0.174-0.812,0.174-0.812L318.278,175.838z"/>
		<path fill="#4F5997" d="M323.362,176.058c0,0,0.082,0.33,0.081,0.716c-0.001,0.387-0.047,1.096-0.047,1.096l0.535-0.05
			c0,0,0.123-0.68,0.116-1.024s-0.109-0.823-0.109-0.823L323.362,176.058z"/>
		<path fill="#BFA783" d="M313.448,174.205c0,0-0.145,0.398-0.177,0.726c-0.032,0.328,0.02,0.892,0.02,0.892l-0.343-0.381
			c0,0-0.033-0.57-0.016-0.748c0.017-0.178,0.233-0.692,0.233-0.692L313.448,174.205z"/>
		<g>
			<path fill="#CCDEFB" d="M316.777,176.908c-0.063-0.001-0.127-0.008-0.191-0.021l-1.003-0.205
				c-0.427-0.087-0.736-0.422-0.704-0.762l0.031-0.325c0.016-0.166,0.109-0.311,0.265-0.408c0.175-0.11,0.408-0.146,0.642-0.099
				l1.003,0.205c0.427,0.087,0.736,0.422,0.704,0.762l-0.03,0.325c-0.016,0.166-0.11,0.311-0.265,0.408
				C317.101,176.869,316.943,176.91,316.777,176.908z M315.601,175.441c-0.069-0.001-0.131,0.014-0.178,0.043
				c-0.048,0.03-0.075,0.073-0.08,0.127l-0.031,0.325c-0.015,0.16,0.166,0.339,0.387,0.384l1.003,0.204
				c0.107,0.022,0.209,0.01,0.276-0.032c0.049-0.03,0.075-0.073,0.08-0.128l0.031-0.324c0.015-0.159-0.166-0.339-0.387-0.385
				l-1.003-0.204C315.666,175.445,315.632,175.441,315.601,175.441z"/>
		</g>
	</g>
	<g>
		<path fill="#263336" d="M326.166,177.081c-0.021,0.295-0.175,0.518-0.34,0.675c-0.05,0.045-0.108,0.092-0.172,0.143
			c-0.084,0.063-0.172,0.13-0.27,0.189c-0.255,0.166-0.553,0.308-0.851,0.355c-0.823,0.126-1.207-1.064-1.229-1.288
			c-0.022-0.224-0.366-0.556-0.366-0.556c0.1-0.132,1.988-0.543,1.988-0.543l0.693-0.2c0,0,0.286,0.103,0.442,0.174
			C326.222,176.104,326.221,176.406,326.166,177.081z"/>
		
			<ellipse transform="matrix(0.9814 0.1922 -0.1922 0.9814 40.1877 -59.055)" fill="#CCDEFB" cx="324.45" cy="177.591" rx="0.193" ry="0.235"/>
	</g>
	<path fill="#BFA783" d="M316.186,157.821c0,0-0.521,1.114-1.235,2.552c-1.128,2.243-2.132,7.161-2.992,7.956
		c-0.032,0.03-0.065,0.054-0.092,0.077c-0.29,0.223-0.585,0.31-0.88,0.316c-1.075,0.003-2.773-1.858-2.773-1.858
		s0.272-0.764,0.664-1.881c0,0,0,0,0.005-0.007c0.977-2.768,2.027-8.76,2.359-9.506c1.379-3.102,2.871-3.319,2.871-3.319
		l1.957-0.584L316.186,157.821z"/>
	<path fill="#F7D165" d="M312.842,162.328c0,0-0.707,0.113-1.516-0.039c-0.81-0.15-1.39-1.11-1.39-1.11l-0.559,1.925
		c0,0,0.538,0.821,1.883,1.143c1.344,0.322,2.351-0.064,2.351-0.064l0.557-1.545C314.168,162.638,313.537,162.288,312.842,162.328z"
		/>
	<path fill="#BFA783" d="M312.645,166.876c0,0,0.153,0.46-0.047,0.848c-0.922,1.758-2.966,5.8-4.655,8.188
		c-0.104-0.001-0.614,0-0.787-0.119c-0.653-0.425-1.742-1.787-1.742-1.787s0.983-4.279,1.502-5.274
		c0.335-0.653,1.289-2.909,2.023-3.708c0,0,0,0,0.004-0.008c0.216-0.432,0.368-0.736,0.368-0.736l2.805,2.158L312.645,166.876z"/>
	<path fill="#CFD4DD" d="M314.029,159.345c-0.682,2.416-0.736,7.435-1.431,8.378c-0.922,1.758-2.966,5.8-4.655,8.188
		c-0.104-0.001-0.614,0-0.787-0.119c0.004-0.008,0.007-0.016,0.007-0.016s3.731-6.796,3.763-6.854
		c0.221-0.401,0.98-1.867,1.19-2.486c0.302-0.88-0.109-3.32,0.042-3.872c0.275-1.001-0.587-4.362-0.587-4.362
		S312.985,158.676,314.029,159.345z"/>
	<path fill="#FEBFBF" d="M306.906,173.67c0,0-0.184,0.012-0.409,0.111c-0.227,0.098-0.525,0.313-0.525,0.313l-0.938,0.266
		l-1.01,0.963l-0.809,0.218l-0.137,0.333l0.914,0.295l0.277-0.136l-1.324,2.784c0,0,0.071,0.264,0.187,0.257
		c0.114-0.006,0.14,0.065,0.14,0.065s-0.293,0.309-0.182,0.468c0.109,0.159,0.25,0.245,0.465,0.064
		c0.05-0.063,0.05-0.063,0.05-0.063s0.056,0.133,0.238,0.116c0.184-0.017,0.603-0.354,0.603-0.354s0.063,0.303,0.358,0.224
		c0.296-0.08,1.563-1.498,1.563-1.498s0.325-0.252,0.7-0.871c0.376-0.619,0.639-1.725,0.639-1.725l0.021-0.351l0.066-0.445
		C307.792,174.705,307.219,173.695,306.906,173.67z"/>
	<path fill="#FEBFBF" d="M305.756,174.314c0,0,0.096-0.32,0.506-0.504c0.381-0.171,0.821-0.045,1.103,0.127
		c0.439,0.269,0.715,0.938,0.575,1.259s-0.34,0.441-0.34,0.441L305.756,174.314z"/>
	<path fill="#7C745F" d="M306.169,173.188c0,0-0.493,0.558-0.516,0.831c-0.022,0.273-0.022,0.273-0.022,0.273l0.21-0.056
		c0,0,0.229-0.366,0.421-0.426c0.19-0.06,0.846-0.029,1.177,0.498c0.331,0.527,0.343,0.983,0.343,0.983l-0.108,0.339l-0.042,0.157
		c0,0,0.139-0.102,0.345-0.362c0.205-0.26,0.377-0.616,0.398-0.785C308.397,174.472,307.935,172.495,306.169,173.188z"/>
	<polygon fill="#FEBFBF" points="304.437,177.163 304.367,177.502 303.183,179.078 303.271,179.14 304.424,177.602 304.657,177.432 
			"/>
	<polygon fill="#FEBFBF" points="304.926,177.721 304.528,178.214 303.554,179.671 303.687,179.635 304.851,178.028 
		305.154,177.782 	"/>
	<polygon fill="#FEBFBF" points="305.707,178.003 305.416,177.983 305.397,178.218 304.39,179.421 304.468,179.438 305.428,178.35 
		305.793,178.013 	"/>
	<path fill="#CEB18C" d="M326.465,177.686c-0.018,0.249-0.667,0.694-1.589,0.955c-0.223,0.069-0.464,0.125-0.716,0.161
		c-0.479,0.075-2.103,0.089-2.748,0.058c-2.313-0.11-3.685-0.511-4.876-0.727c-0.133-0.024-0.305-0.258-0.446-0.491
		c-0.136-0.226-0.241-0.451-0.241-0.451s-0.182,0.229-0.367,0.403c-0.134,0.122-0.266,0.213-0.344,0.185
		c-1.811-0.671-3.799-1.572-4.003-2.801c1.432-5.715,1.112-9.391,1.003-12.727c-0.119-3.647,0.553-6.733,0.688-7.136
		c0.142-0.401,0.672-1.816,1.715-2.06c1.043-0.249,5.674-0.65,6.834,0.1c1.166,0.751,3.56,1.487,4.936,2.426
		c1.378,0.932,1.033,0.348,1.071,2.76c0.007,0.61-0.284,1.737-0.588,2.852c-0.163,0.62-0.333,1.234-0.449,1.76
		c-0.496,2.215-0.815,4.945-0.815,4.945C326.818,172.59,326.498,177.261,326.465,177.686z"/>
	<path fill="#DBC2A2" d="M318.221,160.797l-0.067,0.735l1.584,0.89l2.204-0.236l0.019-0.676
		C320.06,161.417,318.221,160.797,318.221,160.797z"/>
	<path fill="#CCDEFB" d="M318.285,160.21l-0.049,0.343c0,0,1.291,0.492,3.778,0.722l0.01-0.353
		C320.13,160.742,318.285,160.21,318.285,160.21z"/>
	<g>
		<path fill="#DBC2A2" d="M317.05,162.754c-0.012,3.178-0.496,11.29-0.961,14.891c-0.135-0.226-0.24-0.45-0.24-0.45
			s-0.182,0.229-0.367,0.403c0.456-3.553,0.944-11.744,0.958-14.849c0.024-4.092,0.943-6.995,0.979-7.122l0.95,0.749
			C318.362,156.4,317.069,158.759,317.05,162.754z"/>
	</g>
	<path fill="#7C745F" d="M317.172,155.579c0,0-0.687,2.724-0.47,5.766c1.231-3.03,2.273-4.258,2.448-4.649
		c0.175-0.393-0.283-0.781-0.283-0.781S317.863,155.878,317.172,155.579z"/>
	<path fill="#656565" d="M328.542,161.334c0,0,1.036,0.61,0.731,3.455s0.158,6.688-0.868,7.415
		C327.38,172.93,328.542,161.334,328.542,161.334z"/>
	<path fill="#7A6D5C" d="M315.111,158.295c0,0,0.311-2.314,0.824-3.311c0.857-1.664,2.338-2.012,2.338-2.012
		s-2.305-0.226-3.021-0.005c-1.105,0.521-2.297,3.016-2.394,5.045C312.74,160.496,315.111,158.295,315.111,158.295z"/>
	<path fill="#847663" d="M314.94,158.287c0,0,0.311-2.314,0.823-3.311c0.857-1.664,2.338-2.012,2.338-2.012
		s-2.304-0.226-3.021-0.005c-1.106,0.521-2.298,3.016-2.394,5.045C312.569,160.487,314.94,158.287,314.94,158.287z"/>
	<path fill="#7A6D5C" d="M327.5,165.65c0,0-3.068,0.999-3.87-1.493c-0.803-2.492-0.814-3.751-0.814-3.751l-3.092-1.069l-0.061,0.28
		l-0.449,0.916c0,0-1.824,0.098-2.523-0.274s-1.223-0.87-1.223-0.87l-0.463-1.355l-2.301-0.288l-0.018,0.26l0.059,1.273l-0.48,1.429
		c0,0,0.144,6.806-0.395,11.039c0.385,1.445,4.266,2.603,8.324,3.085c4.768,0.567,7.146-2.108,7.23-2.21S327.5,165.65,327.5,165.65z
		"/>
	<path fill="#847663" d="M327.198,165.875c0,0-3.068,0.999-3.87-1.494c-0.803-2.492-0.813-3.751-0.813-3.751l-2.851-1.013
		l-0.752,1.14c0,0-1.824,0.098-2.523-0.274s-1.223-0.87-1.223-0.87l-0.313-1.336l-2.166-0.271l-0.244,1.497l-0.48,1.43
		c0,0,0.144,6.806-0.395,11.038c0.385,1.445,4.266,2.603,8.324,3.086c4.768,0.566,7.146-2.108,7.23-2.21
		S327.198,165.875,327.198,165.875z"/>
	<g>
		<path fill="#92826E" d="M312.52,161.889c0,0-0.627-0.049-0.724,0.785c-0.098,0.834-0.275,2.58-0.138,2.891s2.276,1.291,2.663,1.29
			c0.386,0,0.704-0.042,0.704-0.042l0.315-3.894L312.52,161.889z"/>
		<path fill="#8A7B68" d="M311.717,163.401l2.971,1.146l-0.366,2.308c0,0-1.348-0.212-2.66-1.205
			C311.537,165.337,311.717,163.401,311.717,163.401z"/>
		<path fill="#7A6D5C" d="M315.341,162.919c0,0-0.626,0.294-0.742,0.842c-0.116,0.547-0.277,3.094-0.277,3.094l0.704-0.042
			L315.341,162.919z"/>
	</g>
	<g>
		<path fill="#92826E" d="M315.923,163.059c0,0-0.591,0.104-0.688,0.938c-0.098,0.834-0.286,2.801-0.148,3.113
			c0.138,0.312,1.716,0.658,2.103,0.657c0.386,0,0.608-0.047,0.608-0.047l0.326-4.115L315.923,163.059z"/>
		<path fill="#8A7B68" d="M315.161,164.702l2.219,0.545l-0.189,2.52c0,0-1.442-0.148-2.167-0.58
			C314.962,167.155,314.987,165.977,315.161,164.702z"/>
		<path fill="#7A6D5C" d="M318.125,163.604c0,0-0.53,0.299-0.646,0.847c-0.116,0.547-0.288,3.316-0.288,3.316l0.608-0.047
			L318.125,163.604z"/>
	</g>
	<g>
		<path fill="#92826E" d="M318.678,163.732c0,0-0.299,0.148-0.368,0.995c-0.07,0.847-0.326,2.766-0.15,3.047
			c0.146,0.233,2.072,0.576,2.98,0.642c0.188,0.013,0.905,0.045,0.905,0.045l0.642-4.19L318.678,163.732z"/>
		<path fill="#8A7B68" d="M322.165,165.85l-3.912-0.523c0,0-0.215,1.903-0.181,2.393c0.063,0.218,0.332,0.267,0.332,0.267
			s2.83,0.566,3.642,0.476C322.202,167.974,322.165,165.85,322.165,165.85z"/>
		<path fill="#7A6D5C" d="M322.687,164.271c0,0-0.43,0.214-0.475,0.765c-0.047,0.551-0.167,3.425-0.167,3.425l0.446-0.161
			L322.687,164.271z"/>
	</g>
	<g>
		<path fill="#92826E" d="M312.276,167.004c0,0-0.627-0.049-0.724,0.785c-0.097,0.834-0.238,1.797-0.101,2.108
			s2.277,1.291,2.663,1.29c0.387,0,0.704-0.042,0.704-0.042l0.279-3.111L312.276,167.004z"/>
		<path fill="#8A7B68" d="M311.474,168.517l2.971,1.146l-0.33,1.525c0,0-1.347-0.212-2.659-1.205
			C311.331,169.67,311.474,168.517,311.474,168.517z"/>
		<path fill="#7A6D5C" d="M315.098,168.034c0,0-0.626,0.294-0.743,0.841c-0.116,0.547-0.24,2.312-0.24,2.312l0.704-0.042
			L315.098,168.034z"/>
	</g>
	<g>
		<path fill="#92826E" d="M315.68,168.174c0,0-0.592,0.104-0.688,0.938c-0.097,0.834-0.249,2.019-0.111,2.331
			c0.138,0.312,1.717,0.658,2.104,0.658c0.386,0,0.607-0.047,0.607-0.047l0.289-3.333L315.68,168.174z"/>
		<path fill="#8A7B68" d="M314.917,169.817l2.219,0.545l-0.151,1.738c0,0-1.443-0.148-2.167-0.58
			C314.756,171.488,314.743,171.092,314.917,169.817z"/>
		<path fill="#7A6D5C" d="M317.88,168.72c0,0-0.529,0.299-0.646,0.847c-0.116,0.547-0.25,2.534-0.25,2.534l0.607-0.047
			L317.88,168.72z"/>
	</g>
	<g>
		<path fill="#92826E" d="M318.434,168.848c0,0-0.299,0.148-0.368,0.994c-0.069,0.847-0.288,1.984-0.112,2.265
			c0.146,0.233,2.071,0.576,2.98,0.642c0.187,0.014,0.905,0.045,0.905,0.045l0.604-3.408L318.434,168.848z"/>
		<path fill="#8A7B68" d="M321.92,170.965l-3.912-0.523c0,0-0.177,1.121-0.143,1.611c0.062,0.218,0.332,0.267,0.332,0.267
			s2.829,0.566,3.642,0.475C321.996,172.307,321.92,170.965,321.92,170.965z"/>
		<path fill="#7A6D5C" d="M322.444,169.387c0,0-0.43,0.214-0.476,0.765c-0.046,0.551-0.129,2.643-0.129,2.643l0.446-0.161
			L322.444,169.387z"/>
	</g>
	<path fill="#7A6D5C" d="M319.728,159.678c0,0,0.655-3.353,1.992-4.6c0.963-0.867,1.337-1.051,1.337-1.051s2.024,0.537,3.179,1.356
		c0.016,0.011-0.023,0.15-0.008,0.162c-1.141-0.306-2.837,1.674-3.507,5.321C320.303,160.388,319.728,159.678,319.728,159.678z"/>
	<path fill="#847663" d="M319.736,159.516c0,0,0.655-3.353,1.992-4.6c0.963-0.867,1.337-1.052,1.337-1.052s2.024,0.684,3.171,1.519
		c-1.142-0.306-2.98,1.498-3.65,5.146C320.167,160.051,319.736,159.516,319.736,159.516z"/>
	
		<linearGradient id="SVGID_1_" gradientUnits="userSpaceOnUse" x1="1526.1499" y1="188.0225" x2="1522.454" y2="184.8086" gradientTransform="matrix(0.9969 0.0781 -0.0781 0.9969 -1184.6125 -153.9397)">
		<stop  offset="0.1224" style="stop-color:#FEC7C7"/>
		<stop  offset="0.9694" style="stop-color:#FFADB7"/>
	</linearGradient>
	<path fill="url(#SVGID_1_)" d="M321.641,150.017c0,0,0.015,1.149,0.419,1.981c0.404,0.833,0.615,0.988,0.615,0.988
		s-1.475,1.763-2.677,2c-1.201,0.236-2.527,0.063-3.032-0.604c-0.504-0.666-0.076-1.467-0.076-1.467l0.078-2.5
		c0,0,3.359-4.365,4.054-4.745c0.694-0.381,1.405,0.092,1.439,0.765s-0.513,2.318-0.513,2.318L321.641,150.017z"/>
	
		<linearGradient id="SVGID_2_" gradientUnits="userSpaceOnUse" x1="2158.7974" y1="63.0342" x2="2161.6704" y2="63.0342" gradientTransform="matrix(0.9649 0.2627 -0.2627 0.9649 -1749.499 -476.481)">
		<stop  offset="0.1224" style="stop-color:#FCA4B5"/>
		<stop  offset="0.9896" style="stop-color:#FFADB7"/>
	</linearGradient>
	<path fill="url(#SVGID_2_)" d="M320.169,150.624c0,0-0.739,2.148-1.506,2.613c-0.383,0.232-1.455,0.142-1.676-0.198
		s0.047-1.833,0.047-1.833L320.169,150.624z"/>
	<path fill="#504F60" d="M316.988,153.151c0,0-0.182,0.344-1.055,0.269c-0.629-0.055-0.89-0.422-0.844-0.563
		C315.134,152.715,316.988,153.151,316.988,153.151z"/>
	<path fill="#DBC2A2" d="M317.744,155.166c0,0-0.826,0.565-1.255,0.508c-0.451-0.327-0.43-1.357-0.374-1.589
		c0.056-0.231,0.295-0.708,0.467-0.88c0.171-0.172,0.413-0.457,0.275-0.162c-0.138,0.294,0.304,1.466,0.949,1.809
		C317.845,155.029,317.744,155.166,317.744,155.166z"/>
	<path fill="#CCA776" d="M316.014,151.688c0,0-1.948,1.95-2.548,3.557c-0.853,2.283-0.732,5.903-1.888,10.489
		c0.134,2.327,0.019,1.817,0.296,1.981c0.278,0.163,1.16-0.755,1.573-1.691c0.414-0.937,1.273-6.342,1.411-8.344
		c0.138-2.001,1.289-4.406,2.452-5.027C318.475,152.03,316.014,151.688,316.014,151.688z"/>
	<path fill="#DBC2A2" d="M322.175,152.054c0,0,0.409,0.511-0.486,1.421c-0.895,0.91-2.311,1.612-2.774,1.695
		c-0.087,0.016-0.234,0.224-0.169,0.461c0.099,0.353,0.48,0.802,0.674,0.899c1-0.306,1.658-0.837,2.714-1.72
		c1.056-0.882,1.195-1.796,1.187-2.027c-0.008-0.231-0.909-0.925-1.038-0.983c-0.128-0.059-0.339-0.081-0.339-0.081
		C321.989,151.819,322.175,152.054,322.175,152.054z"/>
	<path fill="#FEC7C7" d="M321.73,146.438c-0.023,0.623-0.876,1.483-0.949,2.091c-0.042,0.339-0.09,0.659-0.142,0.939
		c-0.035,0.198-0.076,0.376-0.122,0.529c-0.398,1.48-3.978,2.97-5.012,2.129c-0.358-0.185-0.553-1.642-0.655-2.999
		c-0.086-1.182-0.104-2.277-0.086-2.398c0.038-0.262-0.166-0.973,0.193-2.424c0.352-1.45,2.244-2.255,2.315-2.271
		c1.449-0.285,3.279,1.702,3.539,2.312C320.94,144.637,321.774,145.378,321.73,146.438z"/>
	<path fill="#D6A7AE" d="M320.639,149.469c-0.035,0.198-0.076,0.376-0.122,0.529c-0.398,1.48-3.978,2.97-5.012,2.129
		c-0.358-0.185-0.553-1.917-0.655-2.999c0,0,0.624,0.004,0.988,0.06c0.357,0.062,2.757,0.755,3.222,0.314
		c0.459-0.442,0.654-1.694,0.654-1.694l0.79-0.11C320.504,147.699,320.508,148.974,320.639,149.469z"/>
	<g>
		<path fill="#754554" d="M318.037,146.66c-0.754-0.651-1.883-0.404-1.895-0.401l-0.036-0.156c0.05-0.012,1.22-0.269,2.035,0.436
			L318.037,146.66z"/>
	</g>
	<g>
		<path fill="#754554" d="M315.605,146.101c-0.549-0.41-0.886-0.235-0.899-0.228l-0.079-0.14c0.018-0.01,0.437-0.238,1.074,0.239
			L315.605,146.101z"/>
	</g>
	<g>
		
			<linearGradient id="SVGID_3_" gradientUnits="userSpaceOnUse" x1="1519.5171" y1="183.4912" x2="1518.3824" y2="183.9803" gradientTransform="matrix(0.9969 0.0781 -0.0781 0.9969 -1184.6125 -153.9397)">
			<stop  offset="0.1224" style="stop-color:#FEC7C7"/>
			<stop  offset="0.9896" style="stop-color:#FFDBDB"/>
		</linearGradient>
		<path fill="url(#SVGID_3_)" d="M315.619,146.376c0.066,0.268-0.831,2.059-0.877,2.204c-0.046,0.144,0.092,0.276,1.399,0.345
			L315.619,146.376z"/>
		
			<linearGradient id="SVGID_4_" gradientUnits="userSpaceOnUse" x1="1518.4185" y1="183.5039" x2="1519.894" y2="183.5039" gradientTransform="matrix(0.9969 0.0781 -0.0781 0.9969 -1184.6125 -153.9397)">
			<stop  offset="0.188" style="stop-color:#FFDCDC"/>
			<stop  offset="0.8991" style="stop-color:#FEC7C7"/>
		</linearGradient>
		<path fill="url(#SVGID_4_)" d="M316.138,148.973c-1.132-0.059-1.354-0.163-1.426-0.267c-0.028-0.041-0.034-0.087-0.017-0.14
			c0.012-0.037,0.065-0.153,0.167-0.372c0.227-0.485,0.755-1.621,0.71-1.805l0.094-0.023c0.049,0.2-0.326,1.033-0.716,1.869
			c-0.085,0.183-0.152,0.327-0.163,0.36c-0.01,0.03-0.004,0.045,0.004,0.057c0.074,0.106,0.528,0.182,1.353,0.225L316.138,148.973z"
			/>
	</g>
	<path fill="#FEC7C7" d="M316.522,150.172c0,0-0.883-0.278-1.082-0.285c-0.2-0.007-0.379,0.17-0.379,0.17l0.502,0.475
		L316.522,150.172z"/>
	<path fill="#754554" d="M319.714,147.809c0,0,0.043-1.435-0.179-1.713c-0.222-0.279-0.758-1.826-0.758-1.826l-2.129-0.343
		l-1.285-0.329l-0.532,0.944c0,0,0.125-0.93,0.328-1.296c0.203-0.367,2.842-3.849,6.755-1.159c2.271,0.787,1.397,4.718,1.287,5.022
		c-0.111,0.305-1.305,2.093-1.305,2.093l-0.256,0.815l0.209-1.775c0,0,0.517-1.265-0.052-1.779
		c-0.569-0.515-1.176,0.117-1.199,0.428c-0.024,0.311-0.094,0.81-0.094,0.81L319.714,147.809z"/>
	
		<linearGradient id="SVGID_5_" gradientUnits="userSpaceOnUse" x1="1524.4409" y1="183.1465" x2="1525.9253" y2="183.1465" gradientTransform="matrix(0.9969 0.0781 -0.0781 0.9969 -1184.6125 -153.9397)">
		<stop  offset="0.1224" style="stop-color:#FEC7C7"/>
		<stop  offset="1" style="stop-color:#FFDEDE"/>
	</linearGradient>
	<path fill="url(#SVGID_5_)" d="M320.913,146.965c0,0,0.319-0.826,1.009-0.528c0.69,0.297,0.404,1.198-0.082,1.891
		c-0.485,0.692-0.604,0.875-0.941,0.744c-0.338-0.131-0.061-1.153-0.061-1.153L320.913,146.965z"/>
	<path fill="#504F60" d="M305.384,174.261l-0.221,0.062c0,0,0.2,0.052,0.134,0.369c-0.067,0.318-0.288,0.378-0.338,0.548
		s-0.07,0.276-0.07,0.276s-0.493,0.359-0.62,0.517c-0.795,0.98-0.932,1.845-0.932,1.845l0.439,0.385l-0.318,0.429l0.562,0.46
		l0.207-0.28l0.459,0.319l0.22-0.248l0.397,0.275c0,0,1.412-1.29,1.603-1.557c0.19-0.266,0.653-0.896,0.78-1.552
		c0.166-0.342,0.072-0.535,0.072-0.535s0.2-0.667-0.746-1.327c-0.592-0.412-1.045-0.278-1.045-0.278l-0.271,0.174L305.384,174.261z"
		/>
	<g>
		<path fill="#FEBFBF" d="M328.213,176.192c-0.009-0.005-0.019-0.011-0.027-0.017c-0.448-0.292-0.53-1.095-0.674-1.569
			c-0.413-1.37-0.607-2.853-0.925-4.249c-0.07-0.31-0.15-0.619-0.176-0.936c-0.36-4.435-1.348-8.064-1.348-8.064
			s-0.029-3.059,1.061-3.394s2.31,4.129,2.308,5.416c-0.002,1.286,0.171,2.858,0.171,2.858s0.049,8.443,0.053,8.467
			c0.027,0.188,0.498,1.568,0.345,1.584C328.744,176.316,328.445,176.327,328.213,176.192z"/>
	</g>
	
		<linearGradient id="SVGID_6_" gradientUnits="userSpaceOnUse" x1="560.8521" y1="-238.5483" x2="562.0854" y2="-238.5483" gradientTransform="matrix(1.0894 -0.2446 0.2463 1.0974 -231.5031 546.6721)">
		<stop  offset="0.1224" style="stop-color:#FCA4B5"/>
		<stop  offset="0.9896" style="stop-color:#FFADB7"/>
	</linearGradient>
	<path fill="url(#SVGID_6_)" d="M321.063,146.854c0,0,0.731-0.484,0.882-0.038c0.149,0.446-0.446,1.532-0.603,1.62
		c-0.156,0.089-0.453-0.043-0.453-0.043L321.063,146.854z"/>
	<g>
		<path fill="#A8B0C2" d="M326.465,177.686c-0.018,0.249-0.667,0.694-1.589,0.955c-0.089-0.444-0.218-1.188-0.188-1.833
			c0.048-0.992,0.234-4.4,0.057-5.409c-0.184-1.003-0.3-4.974-0.674-6.725c-0.375-1.744,0.227-4.766,0.227-4.766
			s1.089,0.454,2.495,1.284c-0.163,0.62-0.333,1.234-0.449,1.76c-0.496,2.215-0.815,4.945-0.815,4.945
			C326.818,172.59,326.498,177.261,326.465,177.686z"/>
		<path fill="#CCA776" d="M326.199,154.377l-2.258-1.009c0,0-2.143,0.469-3.222,3.787s-0.934,6.145-1.061,8.229
			c-0.128,2.083,2.854,4.926,3.562,5.239c0.706,0.313,2.979,0.248,2.979,0.248l-0.333-1.155c0,0-2.537-1.947-3.29-3.661
			c-0.753-1.713,0.56-8.167,1.015-9.357C324.214,155.066,326.199,154.377,326.199,154.377z"/>
		<path fill="#BFA783" d="M324.287,164.257c0,0-0.361-3.475-0.375-4.564s0.408-2.567,1.827-3.442
			c0.764-0.47,1.514-0.863,2.422,1.201c0.959,2.178,1.46,8.408,1.041,12.585c-0.059,0.591-0.999,1.589-2.276,2.108
			C325.647,172.663,324.287,164.257,324.287,164.257z"/>
		<path fill="#FEBFBF" d="M327.334,179.698c0.049,0.067,0.077,1.141,0.077,1.141s-0.538,0.71-0.62,1.721
			c-0.083,1.011-0.26,1.827-0.26,1.827s-0.224,1.357,0.323,1.483c0.547,0.126,0.728-1.113,0.728-1.113l0.036-0.567l0.514,2.615
			l0.525,0.189l0.32-0.438l0.314-0.271l0.034-0.831l0.115-3.87c0,0,0.17-1.314-0.073-1.919c-0.244-0.605-0.537-4.966-0.537-4.966
			L327.334,179.698z"/>
		<path fill="#7C745F" d="M326.806,180.442c0,0,0,0.344,0.111,0.674c0.111,0.33,0.659,0.453,1.502,0.493
			c1.016,0.048,1.174-0.365,1.174-0.365l0.045-0.956L326.806,180.442z"/>
		<path fill="#BFA783" d="M326.438,166.976c0,0-1.001,1.054-1.197,1.562c0.082,6.326,1.377,12.027,1.377,12.027
			s0.825,0.236,1.59,0.276c1.271,0.065,1.619-0.34,1.619-0.34s-0.094-9.245-0.671-11.343
			C328.869,168.31,326.438,166.976,326.438,166.976z"/>
	</g>
	<path fill="#C29F70" d="M324.764,206.336c0,0-0.284-2.47-0.672-3.396c-0.389-0.927-1.156-2.43-1.156-2.43l0.19-0.267
		c0,0,0.284,0.561,1.978,0.323c1.694-0.238,3.086-1.791,3.035-2.031c-0.05-0.241,0.164-0.052,0.204,0.227
		c0.04,0.277,0.831,6.092,0.868,6.18c0.038,0.089-0.382,0.499-0.829,0.781s-1.581,0.54-1.581,0.54L324.764,206.336z"/>
	<path fill="#504F60" d="M320.695,148.29c0,0-0.387,2.361-1.107,2.862c-0.721,0.5-2.153,1.183-2.807,1.194
		c0.604,0.063,1.696-0.114,3.167-1.144c0.649-0.68,1.048-2.817,1.048-2.817L320.695,148.29z"/>
	<path fill="#504F60" d="M320.034,146.245c0,0-0.11,2.396-0.477,3.556c-0.367,1.159-0.738,1.956-0.738,1.956s0.27-0.17,0.419-0.322
		s0.541-1.402,0.633-1.77c0.093-0.368,0.49-2.506,0.405-3.292C320.221,146.202,320.147,146.111,320.034,146.245z"/>
	<path fill="#BFA783" d="M322.748,148.686c-0.165,0.136-1.988-0.156-2.012-0.196l-0.33-1.056c0,0-0.15-0.731-0.394-0.743
		c0,0-1.481-0.57-3.145-0.743c-0.937-0.097-2.188-0.455-2.643-0.666c-0.406-0.188,0.078-1.843,0.083-1.86
		c0.557-1.814,2.157-2.576,3.047-2.755c0.817-0.164,3.656-0.821,5.794,1.845c0.413,0.514,0.661,1.04,0.795,1.559
		c0.067,0.26,0.107,0.519,0.121,0.771c0.06,0.947,0.18,1.238,0.027,1.9c-0.134,0.583-0.26,0.771-0.637,1.286
		C323.205,148.373,322.817,148.629,322.748,148.686z"/>
	<g>
		<path fill="#D4BB9B" d="M322.927,148.951l-2.436-0.384l-0.096-0.319c-0.207-0.688-0.498-1.408-0.646-1.603
			c-0.409-0.138-2.308-0.483-3.349-0.673c-0.634-0.115-1.189-0.217-1.497-0.28c-0.837-0.174-1.298-0.27-1.532-0.642
			c-0.12-0.19-0.15-0.414-0.089-0.664c0.097-0.399,0.516-1.502,0.563-1.627l0.991,0.378c-0.148,0.39-0.373,1.003-0.479,1.34
			c0.191,0.058,0.511,0.124,0.763,0.176c0.302,0.063,0.848,0.162,1.471,0.275c2.494,0.454,3.43,0.643,3.708,0.802
			c0.327,0.187,0.667,0.823,1.012,1.892l1.271,0.201c0.27-0.272,0.775-0.833,0.985-1.4l0.995,0.368
			c-0.384,1.038-1.406,1.956-1.449,1.994L322.927,148.951z"/>
	</g>
	<path fill="#504F60" d="M315.285,151.917l0.027-0.062c0,0,0.063,0.051,0.441,0.173c0.55,0.177,0.975,0.054,1.248,0.12
		c0.272,0.065,0.283,0.146,0.283,0.146s0.019,0.084-0.387,0.19c-0.406,0.106-1.031-0.049-1.175-0.141
		C315.581,152.25,315.289,152.056,315.285,151.917z"/>
	
		<ellipse transform="matrix(0.9908 0.1355 -0.1355 0.9908 22.9014 -41.5985)" fill="#FFFFFF" cx="317.056" cy="147.446" rx="0.288" ry="0.267"/>
	
		<ellipse transform="matrix(0.9877 -0.1562 0.1562 0.9877 -19.0755 51.0289)" fill="#FFFFFF" cx="315.074" cy="146.86" rx="0.184" ry="0.254"/>
	<path fill="#373649" d="M317.28,142.723c-0.092-0.017-0.145-0.025-0.145-0.025s-0.053-0.011-0.144-0.028
		c-0.55-0.102-2.272-0.264-2.822,0.45c-0.378,0.647-1.104,1.552-0.92,1.964c0.071,0.158,0.191,0.298,0.244,0.352
		c0.073,0.075,1.208,0.366,1.395,0.364c0.436-0.002,0.958-0.784,1.182-0.714c0.365,0.113,0.21,0.739,1.046,1.112
		c0.187,0.083,0.873,0.397,2.119,0.533c0.521-0.052,1.208-1.313,1.126-2.411c-0.05-0.205-0.659-0.926-1.016-1.114
		C318.515,142.768,317.72,142.804,317.28,142.723L317.28,142.723z"/>
	<path fill="#373649" d="M313.578,142.821c0,0,0.238-0.591,1.318-0.573c-0.172,0.231-0.179,0.266-0.179,0.266L313.578,142.821z"/>
	<path fill="#504F60" d="M316.646,142.414c-0.091-0.017-0.144-0.024-0.144-0.024s-0.051-0.011-0.142-0.027
		c-0.542-0.1-2.242-0.254-2.783,0.459c-0.501,0.874-0.404,2.089-0.355,2.215c0.037,0.104,0.34,0.378,0.869,0.49
		c0.149,0.032,0.212,0.027,0.396,0.025c0.862-0.008,1.018-0.73,1.383-0.641c0.346,0.164,0.367,0.816,1.192,1.184
		c0.184,0.082,0.476,0.163,0.646,0.199c0.617,0.131,1.101,0,1.199-0.086c0.125-0.103,0.928-1.293,0.844-2.388
		C319.529,142.901,317.206,142.516,316.646,142.414L316.646,142.414z"/>
	<path fill="#C2A463" d="M318.696,145.9c-0.037,0.022-0.221,0.085-0.532,0.078c-0.123-0.003-0.251-0.021-0.394-0.046
		c-0.155-0.032-0.423-0.105-0.576-0.174c-0.407-0.175-0.628-0.524-0.738-0.711c-0.098-0.169-0.207-0.354-0.506-0.486l-0.072-0.011
		c-0.21-0.031-0.377,0.023-0.544,0.085c-0.213,0.068-0.428,0.561-0.915,0.57c-0.137-0.001-0.163,0.007-0.274-0.022
		c-0.363-0.072-0.578-0.224-0.646-0.292c-0.026-0.233-0.072-1.137,0.306-1.795c0.091-0.123,0.181-0.461,1.007-0.465
		c0.607-0.003,1.239,0.047,1.482,0.098l0.149,0.029l0.13,0.022c1.379,0.265,2.704,0.708,2.796,1.086
		C319.438,144.754,318.8,145.782,318.696,145.9z"/>
	<path fill="#CCAE72" d="M316.573,142.781l-0.13-0.022l-0.149-0.029c-0.11-0.022-0.305-0.045-0.534-0.063
		c-0.529,0.521-1.254,1.389-1.635,2.512c0.007,0.002,0.012,0.004,0.02,0.005c0.111,0.029,0.138,0.021,0.274,0.022
		c0.487-0.01,0.702-0.502,0.915-0.57c0.167-0.062,0.334-0.116,0.544-0.085l0.072,0.011c0.299,0.132,0.408,0.317,0.506,0.486
		c0.11,0.187,0.331,0.536,0.738,0.711c0.12,0.055,0.31,0.11,0.462,0.147c0.448-0.804,0.921-1.583,1.624-2.183
		C318.947,143.382,317.781,143.013,316.573,142.781z"/>
	<path fill="#D3BD8E" d="M314.34,144.197c0.146-0.601,0.39-1.099,0.678-1.527c-0.645,0.052-1.131,0.314-1.214,0.427
		c-0.378,0.658-0.332,1.562-0.306,1.795c0.041,0.041,0.14,0.111,0.286,0.177C313.843,144.605,314.337,144.207,314.34,144.197z"/>
	<path fill="#BA9059" d="M313.955,143.356c0.092-0.122,0.183-0.46,1.01-0.461c0.609-0.001,1.242,0.051,1.486,0.103l0.15,0.029
		l0.13,0.022c1.141,0.222,2.233,0.565,2.637,0.893c-0.001-0.025,0.003-0.051,0.001-0.076c-0.092-0.377-1.417-0.821-2.796-1.085
		l-0.13-0.022l-0.149-0.029c-0.243-0.051-0.875-0.101-1.482-0.098c-0.826,0.004-0.916,0.342-1.007,0.465
		c-0.378,0.658-0.332,1.562-0.306,1.795c0.024,0.024,0.075,0.062,0.138,0.1C313.618,144.639,313.634,143.912,313.955,143.356z"/>
	<path fill="#656565" d="M320.035,144.638l-0.439,1.334c0,0,1.266,0.744,2.326,0.995c1.061,0.252,2.277,0.328,2.277,0.328
		s0.242-1.175,0.074-1.563C324.273,145.731,322.974,145.972,320.035,144.638z"/>
	<path fill="#CCA776" d="M312.648,201.086c-0.106,0.369-1.667,4.601-1.678,5.096c-0.011,0.496-0.02,1.75-0.076,2.365
		c-0.029,0.339-0.488,0.489-1.01,0.554h-0.006c-0.423,0.057-0.889,0.05-1.188,0.036c-0.681-0.028-3.94,0.11-5.618-0.337
		c-0.617-0.16-2.095-0.629-1.982-0.991c0,0-0.235-0.691,0.555-1.387c0.785-0.689,2.024-0.619,2.965-0.722
		c0.934-0.095,1.368-0.409,1.482-0.595c0.113-0.187,0.6-2.387,0.738-3.619c0.133-1.232,0.125-1.733,0.125-1.733
		s0.652,0.708,2.121,0.976c1.476,0.272,2.141,0.332,2.499,0.304c0.353-0.027,1.041-0.367,1.041-0.367
		S312.754,200.724,312.648,201.086z"/>
	<path fill="#A68860" d="M312.648,201.086c-0.106,0.369-1.667,4.601-1.678,5.096c-0.011,0.496-0.02,1.75-0.076,2.365
		c-0.029,0.339-0.488,0.489-1.01,0.554c0.19-0.234,0.42-0.516,0.552-0.708c0.269-0.399,0.007-2.317,0.053-2.761
		c0.046-0.438,1.07-3.919,1.086-4.599c0.353-0.027,1.041-0.367,1.041-0.367S312.754,200.724,312.648,201.086z"/>
	<path fill="#7C745F" d="M328.275,159.213c-0.081-0.193-1.181-0.418-1.181-0.418s-0.984,0.598-0.971,0.819
		c0.013,0.22,0.545,2.505,1.791,2.588C328.875,161.501,328.355,159.403,328.275,159.213z"/>
	<path fill="#A89373" d="M308.434,200.57c0.367,0.359-0.163,2.768-0.163,2.768s0.609-2.032,1.056-2.194s1.357-0.159,1.357-0.159
		l-1.122-1.433L308.434,200.57z"/>
	<path fill="#A89373" d="M325.615,200.454c0,0,1.049-0.009,1.208,0.899c0.161-1.174,0.162-1.148,0.462-1.312
		c0.299-0.163,1.132-0.748,1.096-1.014c-0.037-0.266-0.241-0.492-0.241-0.492S326.976,199.641,325.615,200.454z"/>
	<polygon fill="#C29F70" points="326.372,189.483 322.963,191.379 323.583,192.398 326.409,190.891 	"/>
	<polygon fill="#C29F70" points="326.714,191.729 323.394,193.497 323.634,194.537 327.051,192.93 	"/>
	<path fill="#A89373" d="M324.311,192.474c0.555,2.229-0.271,3.264-1.555,3.634c-1.284,0.369-2.29-0.421-2.854-2.381
		c-0.563-1.96-0.521-3.686,0.764-4.056C321.95,189.303,323.678,189.934,324.311,192.474z"/>
	
		<rect x="311.068" y="189.954" transform="matrix(0.9896 0.144 -0.144 0.9896 30.6821 -43.106)" fill="#C29F70" width="4.321" height="1.048"/>
	
		<rect x="310.754" y="192.113" transform="matrix(0.9846 0.175 -0.175 0.9846 38.5443 -51.792)" fill="#C29F70" width="4.322" height="1.047"/>
	<path fill="#A89373" d="M311.496,191.866c-0.378,1.907-1.391,2.707-2.677,2.452s-1.869-1.453-1.49-3.36
		c0.379-1.908,1.238-3.264,2.524-3.008C311.139,188.205,311.875,189.958,311.496,191.866z"/>
	<g>
		<path fill="#CFD4DD" d="M311.166,156.007c0,0-0.061,0.918-0.208,1.174s-0.197,0.496-0.197,0.496l-0.874,3.456l0.519,0.596
			l0.541-0.684L311.166,156.007z"/>
		<g>
			<polygon fill="#656565" points="309.894,157.413 310.012,156.948 310.461,155.599 311.156,155.741 310.784,158.215 			"/>
			<path fill="#DBC2A2" d="M310.855,157.595l-1.127-0.205c0,0-0.314,3.421-0.186,3.594c0.052,0.069,0.211,0.123,0.39,0.159
				c0.266,0.055,0.392-0.672,0.411-0.735C310.541,159.769,310.947,158.023,310.855,157.595z"/>
			<path fill="#DBC2A2" d="M328.674,164.218l-1.623,0.17c0,0,0.259,3.452,0.436,3.577c0.07,0.05,1.223-0.066,1.404-0.087
				c0.269-0.03,0.165-0.761,0.164-0.826C329.046,166.382,328.894,164.597,328.674,164.218z"/>
			
				<rect x="310.836" y="154.525" transform="matrix(0.9718 0.236 -0.236 0.9718 45.4293 -68.9893)" fill="#656565" width="0.279" height="1.599"/>
		</g>
		<polygon fill="#DBC2A2" points="310.218,156.33 309.975,156.5 309.728,157.39 309.952,158.356 309.969,157.481 		"/>
	</g>
	<path fill="#504F60" d="M329.476,181.23c0,0-0.065,0.333-0.881,0.335c-0.815,0.001-1.477-0.215-1.477-0.215
		s-0.196-0.17-0.335,0.383c-0.139,0.554-0.412,1.968-0.167,2.204c0.309-0.25,0.328-0.229,0.583-0.135
		c0.255,0.093,0.433,0.187,0.415,0.449c-0.017,0.262,0.115,1.378,0.259,1.672c0.144,0.293,0.697,0.216,0.845,0.122
		c0.147-0.095,0.55-0.432,0.621-0.746C329.411,184.987,329.818,181.654,329.476,181.23z"/>
	<path fill="#A68860" d="M328.361,198.858c-0.299,0.157-0.849,0.469-0.906,0.746c-0.078,0.38,0.552,3.023,0.848,3.446
		c0.109,0.154,0.372,0.188,0.658,0.172L328.361,198.858z"/>
	<g>
		<path fill="#DBC2A2" d="M306.992,205.639c-0.206-0.009-0.524-0.083-1.002-0.229c-0.051-0.016-0.087-0.026-0.1-0.029l0.018-0.084
			l-0.067-0.07c0.04-0.039,0.06-0.033,0.202,0.01c0.879,0.268,1.056,0.234,1.092,0.207c-0.044-0.139-0.305-0.363-0.516-0.544
			c-0.294-0.253-0.446-0.392-0.412-0.529c0.039-0.162,0.287-0.136,0.661-0.096c0.161,0.017,0.649,0.067,0.669-0.007
			c0.029-0.107-0.48-0.479-0.699-0.638c-0.289-0.211-0.441-0.326-0.479-0.418c-0.016-0.038-0.012-0.08,0.012-0.112
			c0.065-0.094,0.245-0.101,0.872-0.077c0.187,0.007,0.449,0.018,0.587,0.007c-0.076-0.078-0.21-0.2-0.334-0.312
			c-0.567-0.517-0.965-0.9-0.909-1.124c0.012-0.049,0.045-0.088,0.094-0.111c0.279-0.132,1.322,0.342,1.635,0.491l-0.078,0.164
			c-0.699-0.333-1.379-0.557-1.48-0.49c-0.024,0.129,0.597,0.694,0.862,0.935c0.292,0.266,0.405,0.374,0.436,0.444l0.02,0.046
			l-0.03,0.063c-0.06,0.086-0.217,0.092-0.809,0.069c-0.212-0.008-0.513-0.019-0.656-0.004c0.082,0.075,0.241,0.191,0.367,0.282
			c0.5,0.366,0.824,0.621,0.767,0.833c-0.062,0.224-0.448,0.183-0.863,0.14c-0.152-0.016-0.374-0.039-0.459-0.023
			c0.041,0.067,0.224,0.224,0.348,0.33c0.253,0.218,0.516,0.442,0.565,0.646c0.021,0.089-0.019,0.144-0.044,0.168
			C307.208,205.623,307.124,205.645,306.992,205.639z"/>
	</g>
	<g>
		<path fill="#DBC2A2" d="M326.353,206.605c-0.557-0.023-1.636-0.342-1.748-0.625c-0.025-0.063-0.012-0.125,0.035-0.173
			c0.12-0.12,0.396-0.163,0.744-0.216c0.284-0.043,0.604-0.092,0.803-0.189c-0.126-0.036-0.382-0.07-0.581-0.097
			c-0.582-0.077-0.973-0.14-1.106-0.293c-0.056-0.064-0.071-0.125-0.049-0.183c0.045-0.111,0.203-0.127,0.468-0.152
			c0.3-0.029,0.712-0.069,0.96-0.27c0.027-0.022,0.042-0.038,0.05-0.048c-0.088-0.051-0.431-0.07-0.663-0.084
			c-0.511-0.03-0.829-0.058-0.94-0.199c-0.036-0.045-0.047-0.099-0.03-0.15c0.053-0.162,0.382-0.262,0.917-0.409
			c0.149-0.041,0.339-0.094,0.45-0.135c-0.09-0.038-0.225-0.085-0.371-0.139c-0.936-0.338-1.646-0.624-1.573-0.966l0.02-0.089
			l0.088,0.019c0.587,0.124,1.731,0.046,2.196,0.006l0.036-0.003l0.006,0.182l-0.003-0.091l0.005,0.091l-0.028,0.002
			c-0.438,0.038-1.467,0.108-2.102,0.016c0.197,0.222,1.063,0.534,1.417,0.662c0.24,0.087,0.414,0.149,0.493,0.195
			c0.074,0.042,0.075,0.102,0.072,0.125c-0.015,0.118-0.181,0.169-0.658,0.3c-0.261,0.072-0.746,0.205-0.792,0.292
			c0.069,0.066,0.515,0.092,0.809,0.109c0.514,0.03,0.784,0.053,0.835,0.212c0.038,0.117-0.079,0.211-0.118,0.243
			c-0.291,0.235-0.733,0.278-1.058,0.309c-0.105,0.011-0.231,0.022-0.293,0.04c0.109,0.11,0.637,0.18,0.988,0.227
			c0.576,0.077,0.766,0.113,0.792,0.244c0.013,0.063-0.021,0.119-0.101,0.166c-0.224,0.133-0.573,0.186-0.91,0.237
			c-0.265,0.04-0.564,0.085-0.642,0.163c0.054,0.119,0.984,0.463,1.587,0.488c0.007,0,0.013,0.001,0.02,0.001l-0.006,0.182
			C326.365,206.606,326.359,206.606,326.353,206.605z"/>
	</g>
</g>
</svg>
