<?xml version="1.0" encoding="utf-8"?>
<!-- Generator: Adobe Illustrator 16.0.0, SVG Export Plug-In . SVG Version: 6.00 Build 0)  -->
<!DOCTYPE svg PUBLIC "-//W3C//DTD SVG 1.1//EN" "http://www.w3.org/Graphics/SVG/1.1/DTD/svg11.dtd">
<svg version="1.1" id="Layer_1" xmlns="http://www.w3.org/2000/svg" xmlns:xlink="http://www.w3.org/1999/xlink" x="0px" y="0px"
	 width="463.683px" height="425.749px" viewBox="0 0 463.683 425.749" enable-background="new 0 0 463.683 425.749"
	 xml:space="preserve">
<g>
	<path fill="#754554" d="M131.8,121.989c0,0,0.504,2.473,0.235,3.711c-0.27,1.238-1.291,2.942-1.954,3.107
		c-0.282,0.297-0.421,0.774-0.337,0.806c2.309,0.851,5.636-1.671,5.344-3.16C134.787,124.911,131.8,121.989,131.8,121.989z"/>
	<path fill="#D7E4F2" d="M145.413,180.35c-3.945,2.511-10.526,2.782-14.699,0.607s-4.357-5.974-0.412-8.483
		c3.945-2.511,10.526-2.783,14.699-0.608C149.174,174.041,149.358,177.839,145.413,180.35z"/>
	<g>
		<path fill="#6C6B79" d="M144.436,176.053c0,0,0.197,0.1,0.208,0.247s0.016,0.55,0.015,0.646c0,0.095-0.25,0.464-0.863,0.607
			c-0.612,0.142-2.101-0.252-2.603-0.544c-0.502-0.293-1.186-1.039-1.395-1.095c-0.208-0.057-0.829,0.058-0.829,0.058l-0.561-0.047
			l-0.922-0.327c0,0-0.121-0.619,0.132-0.813C137.872,174.588,144.436,176.053,144.436,176.053z"/>
		<path fill="#C2D2EA" d="M140.966,173.541c0,0,0.729,0.462,0.859,0.592c0.129,0.131,1.446,0.665,1.903,0.944
			c0.457,0.278,0.8,0.754,0.83,0.911c0.03,0.156,0.1,0.513,0.047,0.662s-0.291,0.546-1.08,0.595s-2.393-0.7-2.393-0.7
			s-1.111-0.758-1.275-0.835c-0.164-0.077-1.615-0.444-1.835-0.518c-0.22-0.073-0.347-0.104-0.379-0.281
			c-0.033-0.177-0.219-1.146-0.102-1.452C137.657,173.152,140.322,172.756,140.966,173.541z"/>
	</g>
	<g>
		<path fill="#6C6B79" d="M139.192,178.513c0,0,0.216,0.004,0.268,0.292c0.051,0.287,0.044,0.629,0.044,0.629
			s-0.269,0.411-1.171,0.525c-0.902,0.113-2.007-0.22-2.573-0.541c-0.566-0.321-0.769-0.582-1.11-1.055
			c-0.342-0.474-0.694-0.7-0.694-0.7l-0.144,0.038c0,0-0.809-0.588-0.942-0.792c-0.069-0.171-0.12-1.041,0.004-1.12
			C132.998,175.709,139.192,178.513,139.192,178.513z"/>
		<path fill="#C2D2EA" d="M136.717,175.264l0.25,0.599c0,0,1.476,1.433,1.875,1.859c0.4,0.428,0.606,0.802,0.624,1.189
			c0.018,0.388-0.988,0.638-1.14,0.649c-0.151,0.01-0.819,0.076-1.676-0.243c-0.857-0.319-1.21-0.626-1.898-1.375
			c-0.688-0.748-1.153-1.16-1.364-1.331c-0.211-0.17-0.518-0.443-0.515-0.664c0.003-0.222-0.031-0.843,0.15-0.92
			C133.205,174.95,136.139,174.713,136.717,175.264z"/>
	</g>
	<path fill="#A8678D" d="M137.76,172.985c0,0,0.197,0.367,0.657,0.569c0.47,0.208,1.21,0.243,2.293-0.46
		c0,0,0.257-13.493,1.006-17.449l-3.226,5.69l-1.354,0.049l-0.002,0c0,0-0.559,4.339-0.223,6.618
		C137.25,170.28,137.76,172.985,137.76,172.985z"/>
	<path fill="#A8678D" d="M137.076,161.233c0.016,0.052,0.036,0.102,0.059,0.15l0.002,0c0.2,0.422,0.634,0.674,1.133,0.784
		c0.985,0.219,2.225-0.114,2.439-0.773c0.014-0.041,0.027-0.089,0.044-0.143c0.39-1.293,1.218-6.735,1.74-10.779
		c0.543-4.215-0.508-6.227-0.508-6.227l-5.146,0.936c0,0-0.044,2.484-0.061,5.463C136.757,154.726,136.815,160.411,137.076,161.233z
		"/>
	<path fill="#A8B0C2" d="M137.76,172.985c0,0,0.197,0.367,0.657,0.569c-0.347-2.256-0.911-6.114-0.815-6.908
		c0.061-0.533,0.196-3.146,0.341-4.402c0.987-8.537,0.87-11.186,0.87-11.186l1.098-1.674l-3.132,1.26
		c-0.021,4.082,0.036,9.768,0.297,10.59c0.016,0.052,0.036,0.102,0.059,0.15c0,0-0.559,4.339-0.223,6.618
		C137.25,170.28,137.76,172.985,137.76,172.985z"/>
	<path fill="#A8678D" d="M140.02,146.921l0.72,0.843c0,0,0.063,1.041-2.237,2.771c-0.014,2.44-0.918,10.239-1.676,12.099
		c-0.758,1.858-3.102,0.415-3.498-1.744c-0.396-2.16-2.16-8.932-2.312-10.598c-0.152-1.666-0.283-3.36,0.871-4.342
		C133.042,144.968,140.02,146.921,140.02,146.921z"/>
	<path fill="#A8678D" d="M136.307,174.958c-0.432-1.511-0.098-9.928,0.52-12.325c-3.185-1.854-3.592-2.213-3.592-2.213
		s-1.162,6.165-1.117,7.389s1.03,7.192,1.03,7.192S134.748,176.528,136.307,174.958z"/>
	<g>
		<path fill="#BB88A6" d="M133.846,175.825l0.226-0.05c-0.011-0.048-1.072-4.866-1.081-7.286c-0.008-1.856,0.447-4.149,0.779-5.824
			c0.155-0.78,0.277-1.396,0.306-1.744c0.029-0.345-0.21-1.374-0.542-2.8c-0.734-3.161-1.844-7.938-1.055-9.651l-0.21-0.097
			c-0.822,1.786,0.298,6.609,1.04,9.801c0.314,1.352,0.562,2.42,0.537,2.728c-0.028,0.335-0.149,0.946-0.302,1.719
			c-0.335,1.684-0.792,3.99-0.785,5.87C132.769,170.936,133.835,175.776,133.846,175.825z"/>
	</g>
	<g>
		<g>
			<path fill="#FEBFBF" d="M137.307,126.649c0,0,0.814-0.001,2.003-0.254s6.603-0.602,8.344-1.511
				c2.015,0.635,4.474,0.275,2.646,1.704c-1.828,1.428-9.474,3.328-10.75,3.491S137.307,126.649,137.307,126.649z"/>
			<path fill="#FEBFBF" d="M148.808,126.196c0,0-0.99-0.337-1.154-1.313c-0.163-0.969-0.116-2.512-0.416-3.83
				c-0.421-1.86-0.656-2.029-0.695-2.066c-0.039-0.037-0.713-0.808-0.84-1.072c-0.126-0.263-0.295-1.124-0.231-1.353
				c0.064-0.229,0.422-0.351,0.506-0.293c0.083,0.057,0.15,0.116,0.15,0.116l0.118-0.473l0.687-0.206c0,0,0.656-0.109,0.823,0.006
				c0.167,0.114,0.283,0.422,0.312,0.52c0.029,0.098,0.029,0.098,0.029,0.098s0.475,0.067,0.499,0.318s-0.066,0.348,0.072,0.568
				c0.138,0.22-0.043,0.59-0.021,0.766c0.022,0.175,0.121,0.349-0.035,0.657c-0.156,0.309-0.333,0.518-0.232,0.776
				c0.101,0.258,1.868,4.021,2.438,5.363C151.615,126.662,149.723,126.706,148.808,126.196z"/>
			<polygon fill="#DBAB81" points="146.667,134.736 148.058,134.167 147.264,97.831 145.874,98.4 			"/>
			<path fill="#FF785C" d="M137.384,126.461c0,0,3.215-0.828,3.894-0.889s1.123,0.125,1.123,0.125s0.584,0.689,0.268,2.103
				c-0.316,1.415-0.702,1.985-1.046,2.181s-1.953,0.248-1.953,0.248L137.384,126.461z"/>
			
				<linearGradient id="SVGID_1_" gradientUnits="userSpaceOnUse" x1="3462.1519" y1="-77.3716" x2="3464.5864" y2="-77.3716" gradientTransform="matrix(-0.992 0.1261 0.1261 0.992 3592.3032 -242.3508)">
				<stop  offset="0.1224" style="stop-color:#FCA4B5"/>
				<stop  offset="0.9896" style="stop-color:#FFADB7"/>
			</linearGradient>
			<path fill="url(#SVGID_1_)" d="M145.978,116.27c0,0-0.009,0.113,0.069,0.224c0.078,0.111,0.228,0.29,0.259,0.387
				c0.032,0.098,0.18,0.46-0.055,0.566c-0.234,0.106-0.524-0.073-0.573-0.207s-0.09-0.408-0.09-0.408s-0.042,0.368,0.111,0.571
				c0.153,0.203,0.423,0.328,0.423,0.328s0.104,0.018,0.169,0.227c0.064,0.208,0.16,0.457,0.16,0.457s-0.102,0.249-0.035,0.329
				c0.067,0.08,0.129,0.244,0.129,0.244l0.244,0.033l0.55,0.127l0.555-0.141l0.356-0.3l-0.655,0.204c0,0-0.536,0.087-0.643,0.05
				c-0.106-0.037-0.175-0.079-0.265-0.284c-0.089-0.205-0.037-0.339-0.037-0.339l0.395,0.001l1.108-0.389
				c0,0-1.016,0.263-1.14,0.285c-0.125,0.022-0.4,0.058-0.427-0.054c-0.027-0.111-0.061-0.38-0.061-0.38l0.274-0.245l1.124-0.365
				l-1.261,0.338c0,0-0.099-0.229-0.152-0.444c-0.053-0.217,0.049-0.318,0.049-0.318l1.211-0.478l-1.266,0.345
				c0,0-0.305-0.187-0.319-0.303c-0.013-0.116,0.005-0.189,0.005-0.189l-0.061,0.245L145.978,116.27z"/>
		</g>
		<g>
			<g>
				<path fill="#BB88A6" d="M133.76,150.534c2.319-0.1,2.572-1.655,2.575-1.672l-0.229-0.033c-0.01,0.065-0.261,1.582-2.836,1.473
					l-0.01,0.231C133.436,150.541,133.603,150.541,133.76,150.534z"/>
			</g>
			<path fill="#1B292C" d="M131.017,147.329c0,0,1.071,0.946,3.94,1.102c2.869,0.156,4.421-0.265,5.387-0.785
				c0.966-0.521,1.841-1.561,1.841-1.561l-0.16-1.261c0,0-0.834,1.254-2.207,1.787c-1.372,0.533-4.309,0.425-5.503,0.323
				c-1.195-0.102-3.034-0.645-3.034-0.645L131.017,147.329z"/>
			<path fill="#A8678D" d="M136.852,147.088c0,0,0.073,0.363,0.08,0.785c0.006,0.421-0.018,1.191-0.018,1.191l0.435-0.026
				c0,0,0.087-0.735,0.076-1.11c-0.012-0.375-0.104-0.902-0.104-0.902L136.852,147.088z"/>
			<path fill="#A8678D" d="M140.857,146.004c0,0,0.1,0.451,0.111,0.811c0.011,0.359-0.056,0.962-0.056,0.962l0.296-0.364
				c0,0,0.053-0.612,0.047-0.807c-0.006-0.195-0.159-0.782-0.159-0.782L140.857,146.004z"/>
			<g>
				<path fill="#BB88A6" d="M142.235,148.194c0.019,0,0.039-0.003,0.058-0.007l-0.051-0.226c-0.183,0.042-0.476-0.55-0.603-0.995
					l-0.223,0.063C141.475,147.234,141.779,148.214,142.235,148.194z"/>
			</g>
			<g>
				<path fill="#CCDEFB" d="M138.601,148.294c-0.115-0.109-0.178-0.27-0.177-0.453l0.002-0.359c0.002-0.376,0.275-0.744,0.622-0.836
					l0.813-0.219c0.189-0.051,0.372-0.01,0.502,0.113c0.115,0.109,0.178,0.27,0.177,0.453l-0.002,0.358
					c-0.002,0.376-0.275,0.744-0.621,0.837l-0.813,0.218c-0.052,0.014-0.104,0.021-0.154,0.021
					C138.817,148.43,138.695,148.384,138.601,148.294z M139.922,146.829l-0.813,0.218c-0.18,0.048-0.337,0.245-0.339,0.422
					l-0.001,0.358c0,0.061,0.018,0.108,0.053,0.142c0.05,0.047,0.13,0.062,0.217,0.038l0.813-0.218
					c0.179-0.049,0.337-0.245,0.338-0.422l0.002-0.358c0-0.061-0.018-0.108-0.054-0.142c-0.034-0.033-0.082-0.05-0.138-0.05
					C139.977,146.817,139.95,146.821,139.922,146.829z"/>
			</g>
		</g>
		<g>
			<path fill="#FF8269" d="M133.916,127.021c0,0,1.613-0.217,2.601-0.152s0.695-0.628,1.407-0.528
				c0.712,0.101,1.656,1.044,1.656,1.044s0.937,2.028,1.394,4.324s1.55,4.382,1.607,5.24c0.059,0.858-0.339,1.837-0.383,3.191
				c-0.044,1.354-0.01,4.924-0.01,4.924s-0.688,2.395-5.324,2.882c-3.396,0.109-5.571-0.748-5.641-1.425
				c0.475-1.945,0.66-2.754,0.577-4.609c-0.083-1.855-1.266-5.068-1.754-6.108c-0.488-1.04-1.304-5.991-0.771-6.466
				c0.533-0.475,2.516-1.557,2.983-1.752C132.724,127.389,133.916,127.021,133.916,127.021z"/>
			<path fill="#FF8269" d="M136.863,147.945c-3.396,0.109-5.846-0.979-5.641-1.425c0.514-1.877,0.66-2.754,0.577-4.609
				C131.716,140.056,141.5,147.458,136.863,147.945z"/>
		</g>
		<g>
			<path fill="#FEBFBF" d="M133.786,126.52c-0.13,0.01-0.454,0.516-1.026,0.817s-0.587,0.38,0.127,1.001s3.274,3.413,4.846,3.035
				c1.572-0.378,1.454-1.915,1.375-2.528c-0.078-0.614-1.054-1.99-1.363-2.117C137.437,126.603,133.786,126.52,133.786,126.52z"/>
			
				<linearGradient id="SVGID_2_" gradientUnits="userSpaceOnUse" x1="3477.8853" y1="-68.7085" x2="3475.0403" y2="-72.0212" gradientTransform="matrix(-0.992 0.1261 0.1261 0.992 3592.3032 -242.3508)">
				<stop  offset="0.1224" style="stop-color:#FEC7C7"/>
				<stop  offset="0.9694" style="stop-color:#FFADB7"/>
			</linearGradient>
			<path fill="url(#SVGID_2_)" d="M138.134,126.183c0,0-0.26,0.657-0.185,1.245c0.075,0.588,0.428,1.562,0.428,1.562
				s-0.344,0.705-1.79,0.583c-1.446-0.121-1.51-0.622-1.974-0.868s-1.671-1.4-1.599-1.486c0.071-0.085,1.251-0.712,0.747-2.413
				c-0.504-1.701-1.205-2.57-1.205-2.57s-0.419-0.709,0.08-0.772C133.135,121.399,138.134,126.183,138.134,126.183z"/>
			
				<linearGradient id="SVGID_3_" gradientUnits="userSpaceOnUse" x1="3473.1284" y1="-69.4478" x2="3476.4009" y2="-69.4478" gradientTransform="matrix(-0.992 0.1261 0.1261 0.992 3592.3032 -242.3508)">
				<stop  offset="0.1224" style="stop-color:#FCA4B5"/>
				<stop  offset="0.9896" style="stop-color:#FFADB7"/>
			</linearGradient>
			<path fill="url(#SVGID_3_)" d="M134.742,125.452c0,0,1.26,1.116,1.536,1.692c0.275,0.576,1.491,1.337,1.491,1.337l0.167-1.297
				l0.198-1.001L134.742,125.452z"/>
			<path fill="#FEC7C7" d="M138.265,118.203c0,0,0.535,0.403,0.899,1.272s0.625,1.612,0.606,1.768s-0.142,0.488,0.078,1.109
				c0.219,0.621-0.335,3.77-1.006,4.097c-0.671,0.327-3.835-0.645-4.196-1.082s-1.3-2.227-1.442-3.442s-0.538-2.628,1.208-3.41
				C136.157,117.733,138.265,118.203,138.265,118.203z"/>
			<g>
				
					<linearGradient id="SVGID_4_" gradientUnits="userSpaceOnUse" x1="3472.0425" y1="-73.2729" x2="3471.2454" y2="-73.2045" gradientTransform="matrix(-0.992 0.1261 0.1261 0.992 3592.3032 -242.3508)">
					<stop  offset="0.1224" style="stop-color:#FEC7C7"/>
					<stop  offset="0.9896" style="stop-color:#FFDBDB"/>
				</linearGradient>
				<path fill="url(#SVGID_4_)" d="M138.761,121.604c-0.058,0.347,0.873,1.734,0.921,2.048c0.049,0.313-0.837,0.316-0.837,0.316
					L138.761,121.604z"/>
				
					<linearGradient id="SVGID_5_" gradientUnits="userSpaceOnUse" x1="3471.2261" y1="-73.2471" x2="3472.1489" y2="-73.2471" gradientTransform="matrix(-0.992 0.1261 0.1261 0.992 3592.3032 -242.3508)">
					<stop  offset="0.188" style="stop-color:#FFDCDC"/>
					<stop  offset="0.8991" style="stop-color:#FEC7C7"/>
				</linearGradient>
				<path fill="url(#SVGID_5_)" d="M138.939,124.013c0.191-0.008,0.603-0.045,0.742-0.208c0.04-0.046,0.056-0.102,0.047-0.16
					c-0.021-0.138-0.19-0.448-0.386-0.807c-0.252-0.463-0.567-1.039-0.536-1.227l-0.092-0.016c-0.036,0.219,0.26,0.762,0.546,1.287
					c0.184,0.336,0.357,0.655,0.376,0.776c0.005,0.032-0.004,0.059-0.026,0.085c-0.123,0.144-0.594,0.176-0.766,0.177l0,0.093
					C138.858,124.015,138.892,124.015,138.939,124.013z"/>
			</g>
			<g>
				<path fill="#754554" d="M136.29,121.719c1.076-0.254,1.848-0.095,1.856-0.093l0.032-0.153c-0.032-0.007-0.813-0.168-1.924,0.095
					L136.29,121.719z"/>
			</g>
			<g>
				<path fill="#754554" d="M139.047,121.506c0.214-0.156,0.572-0.37,0.689-0.344l0.028-0.153c-0.017-0.003-0.035-0.004-0.055-0.003
					c-0.244,0.01-0.666,0.31-0.754,0.375L139.047,121.506z"/>
			</g>
			
				<ellipse transform="matrix(-0.9522 0.3055 -0.3055 -0.9522 305.226 196.9995)" fill="#FFFFFF" cx="137.198" cy="122.383" rx="0.328" ry="0.281"/>
			
				<ellipse transform="matrix(-0.7181 -0.6959 0.6959 -0.7181 154.3857 306.3874)" fill="#FFFFFF" cx="139.243" cy="121.927" rx="0.231" ry="0.265"/>
			<path fill="#FB7F9E" d="M137.871,125.11c0,0,0.892-0.336,1.253-0.395c0.362-0.059,0.39,0.065,0.368,0.189
				C139.469,125.028,138.929,125.936,137.871,125.11z"/>
			<path fill="#754554" d="M132.769,122.404c0,0,0.276-0.378,0.495-0.259s0.627,0.277,0.648,0.446
				c0.021,0.169,0.201,1.081,0.201,1.081s0.37-0.689,0.284-1.365s0.099-1.628,0.362-2.056c0.264-0.428,0.523-1.085,1.169-1.205
				c0.646-0.12,1.55-0.019,2.077-0.073c0.527-0.054,0.738-0.248,0.738-0.248l0.502,0.948c0,0-0.042-0.479-0.351-1.008
				c-0.309-0.529-2.521-2.919-5.488-1.143c-2.184,1.13-1.974,3.584-1.607,4.466c0.367,0.882,1.43,1.645,1.543,1.915
				c0.114,0.271,0.411,0.647,0.418,0.901c0.007,0.253-0.15-0.948-0.378-1.454S132.769,122.404,132.769,122.404z"/>
			
				<linearGradient id="SVGID_6_" gradientUnits="userSpaceOnUse" x1="3476.8296" y1="-73.4561" x2="3478.3335" y2="-73.4561" gradientTransform="matrix(-0.992 0.1261 0.1261 0.992 3592.3032 -242.3508)">
				<stop  offset="0.1224" style="stop-color:#FEB9B8"/>
				<stop  offset="1" style="stop-color:#FFDEDE"/>
			</linearGradient>
			<path fill="url(#SVGID_6_)" d="M133.581,122.583c0,0-0.796-0.757-1.061-0.139c-0.265,0.619,0.375,1.295,0.785,1.618
				c0.41,0.323,0.707,0.406,0.816,0.22c0.11-0.186-0.209-0.845-0.209-0.845L133.581,122.583z"/>
			
				<linearGradient id="SVGID_7_" gradientUnits="userSpaceOnUse" x1="3477.0718" y1="-73.5576" x2="3478.1138" y2="-73.5576" gradientTransform="matrix(-0.992 0.1261 0.1261 0.992 3592.3032 -242.3508)">
				<stop  offset="0.1224" style="stop-color:#FCA4B5"/>
				<stop  offset="0.9896" style="stop-color:#FFADB7"/>
			</linearGradient>
			<path fill="url(#SVGID_7_)" d="M133.468,122.598c0,0-0.506-0.432-0.704-0.083s-0.007,0.949,0.529,1.44
				c0.508,0.171,0.576-0.048,0.568-0.11c-0.008-0.063-0.208-0.336-0.24-0.583C133.591,123.015,133.468,122.598,133.468,122.598z"/>
		</g>
		<g>
			<path fill="#FEBFBF" d="M129.595,129.563c0,0,0.644-0.675,1.834,0.021c1.191,0.696,5.141,6.148,6.739,7.115
				c1.34,1.068,1.017,3.466,0.464,3.655c-0.553,0.189-6.623-3.263-8.275-5.987C128.706,131.644,128.497,130.533,129.595,129.563z"/>
			<path fill="#FF785C" d="M129.39,129.288c0,0,0.974-1.011,2.515,0.167s2.812,3.442,2.812,3.442l0.034,0.266l-0.337-0.396
				c0,0-1.087-0.269-2.448,0.498c-1.361,0.767-1.506,1.262-1.506,1.262l0.512,0.669c0,0-0.605-0.235-0.781-0.416
				c-0.176-0.182-1.095-1.676-1.381-2.861C128.522,130.733,128.77,129.744,129.39,129.288z"/>
			<path fill="#FEBFBF" d="M138.004,137.279c0,0-0.08-0.362,0.164-0.58c0.244-0.218,2.37-1.234,4.308-2.803
				c1.938-1.569,2.625-2.301,2.704-2.617s0.422-1.215,0.488-1.368s0.546-0.638,0.546-0.638s0.524-0.21,0.754-0.138
				c0.229,0.072,0.406,0.194,0.406,0.194s0.288-0.139,0.396-0.093c0.107,0.046,0.585,0.74,0.585,0.74s-0.001,0.254,0.062,0.416
				s0.134,0.585,0.128,0.679c-0.005,0.094-0.01,0.255,0,0.466c0.01,0.21-0.254,0.465-0.266,0.577
				c-0.011,0.112,0.004,0.364-0.406,0.476c-0.41,0.111-1.606,0.374-1.92,0.702s-3.539,5.122-7.355,7.121
				C137.439,139.404,138.004,137.279,138.004,137.279z"/>
			
				<linearGradient id="SVGID_8_" gradientUnits="userSpaceOnUse" x1="3464.3159" y1="-65.5737" x2="3465.1021" y2="-65.5737" gradientTransform="matrix(-0.992 0.1261 0.1261 0.992 3592.3032 -242.3508)">
				<stop  offset="0.1224" style="stop-color:#FCA4B5"/>
				<stop  offset="0.9896" style="stop-color:#FFADB7"/>
			</linearGradient>
			<path fill="url(#SVGID_8_)" d="M147.15,129.207l0.03,0.233c0,0-0.494-0.007-0.512,0.205s0.288,0.147,0.288,0.147
				s0.395-0.082,0.458-0.09c0.063-0.008,0-0.39,0-0.39l-0.039,0.018L147.15,129.207z"/>
		</g>
	</g>
	<polygon fill="#EEECF1" points="138.964,115.07 154.9,109.142 154.755,96.737 138.82,102.665 	"/>
	<g>
		<g>
			<path fill="#9FC7A8" d="M142.606,107.546c-0.049-2.501,1.883-5.196,4.307-6.007s4.436,0.564,4.485,3.066
				c0.049,2.501-1.883,5.196-4.307,6.007C144.668,111.423,142.656,110.047,142.606,107.546z M143.602,107.213
				c0.038,1.935,1.594,2.999,3.47,2.371c1.875-0.627,3.37-2.712,3.332-4.647c-0.039-1.935-1.595-2.999-3.47-2.372
				C145.058,103.193,143.564,105.278,143.602,107.213z"/>
		</g>
		<g>
			<polygon fill="#9FC7A8" points="149.448,108.462 150.137,107.5 147.496,105.696 147.421,101.886 146.425,102.219 
				146.509,106.454 			"/>
		</g>
		<g>
			<polygon fill="#9FC7A8" points="146.577,109.89 147.572,109.557 147.478,104.766 143.825,109.71 144.529,110.219 146.53,107.511 
							"/>
		</g>
	</g>
	<path fill="#754554" d="M134.381,122.858c0,0-0.298,1.655,0.115,2.68c-0.444-0.996-0.388-2.179-0.388-2.179L134.381,122.858z"/>
</g>
</svg>
