<?xml version="1.0" encoding="utf-8"?>
<!-- Generator: Adobe Illustrator 16.0.0, SVG Export Plug-In . SVG Version: 6.00 Build 0)  -->
<!DOCTYPE svg PUBLIC "-//W3C//DTD SVG 1.1//EN" "http://www.w3.org/Graphics/SVG/1.1/DTD/svg11.dtd">
<svg version="1.1" id="Layer_1" xmlns="http://www.w3.org/2000/svg" xmlns:xlink="http://www.w3.org/1999/xlink" x="0px" y="0px"
	 width="463.683px" height="425.749px" viewBox="0 0 463.683 425.749" enable-background="new 0 0 463.683 425.749"
	 xml:space="preserve">
<g>
	<path fill="#BDD6F2" d="M309.158,203.35c-4.324-2.752-11.539-3.05-16.113-0.666c-4.574,2.384-4.776,6.548-0.451,9.3
		c4.324,2.753,11.539,3.051,16.113,0.667C313.281,210.266,313.483,206.102,309.158,203.35z"/>
	<g>
		<path fill="#626170" d="M292.187,205.75c0,0-0.263,0.129-0.279,0.323c-0.016,0.194-0.029,0.728-0.029,0.854
			c-0.001,0.126,0.324,0.618,1.133,0.817c0.809,0.198,2.787-0.3,3.456-0.68s1.587-1.355,1.863-1.427
			c0.218-0.057,0.769,0.031,0.996,0.071c0.07,0.013,0.14,0.016,0.211,0.011l0.521-0.037c0.074-0.006,0.147-0.021,0.218-0.045
			l1.121-0.382c0,0,0.17-0.817-0.162-1.08S292.187,205.75,292.187,205.75z"/>
		<path fill="#504F60" d="M296.823,202.478c0,0-0.973,0.6-1.146,0.771s-1.927,0.858-2.536,1.219s-1.072,0.986-1.114,1.193
			c-0.042,0.206-0.14,0.677-0.072,0.876c0.068,0.198,0.377,0.728,1.421,0.805c0.934,0.07,2.743-0.697,3.113-0.858
			c0.045-0.021,0.086-0.042,0.127-0.069c0.28-0.187,1.45-0.959,1.642-1.047c0.218-0.1,2.146-0.563,2.439-0.655
			c0.293-0.094,0.621-0.126,0.667-0.36c0.045-0.234,0.148-1.522-0.002-1.929C301.211,202.016,297.689,201.449,296.823,202.478z"/>
		<path fill="#5C617D" d="M301.376,202.706c-0.104,0.317-0.478,0.539-1.717,0.589c-0.143,0.005-0.286,0.009-0.429,0.007
			c-0.889,0.018-1.708-0.059-2.599-0.461c-0.313-0.142-0.521-0.455-0.52-0.797c0.006-3.454-1.272-17.716-1.599-26.577
			c-0.206-5.604,1.043-8.434,1.043-8.434l5.986-0.272l0.04,14.778l-0.105,8.547C301.478,190.085,301.474,202.389,301.376,202.706z"
			/>
		<g>
			<path fill="#8C92B0" d="M299.671,203.318c-0.004-0.1-0.321-9.927-0.45-11.995c-0.128-2.073-0.112-13.821-0.112-13.94l0.23,0
				c0,0.119-0.017,11.859,0.112,13.925c0.128,2.071,0.446,11.902,0.449,12.001L299.671,203.318z"/>
		</g>
		<path fill="#A8B0C2" d="M301.376,202.706c-0.068,0.207-0.251,0.374-0.713,0.478c-0.551,0.082-1.004,0.111-1.433,0.118
			l-0.809-25.611c0,0-1.546-1.72-1.264-2.773c0.124-0.453,4.302,6.036,4.302,6.036l0.123,0.584l-0.105,8.547
			C301.478,190.085,301.474,202.389,301.376,202.706z"/>
		<g>
			<path fill="#6C6B79" d="M299.226,209.873l-0.363,0.34l-0.076,0.554c0,0,0.403,0.733,1.521,1.013
				c1.116,0.279,2.86,0.017,3.424-0.156c0.563-0.174,1.831-1.268,2.015-1.418c0.185-0.15,1.071-1.033,1.071-1.033l0.443,0.061
				l1.448-0.893c0,0,0.244-0.369,0.283-0.652c0.039-0.282,0.113-0.825,0.113-0.825s-0.049-0.612-0.446-0.753
				C308.262,205.969,299.226,209.873,299.226,209.873z"/>
			<path fill="#504F60" d="M304.151,204.759c0,0-1.101,1.037-1.252,1.284c-0.15,0.247-0.438,0.636-0.776,0.902
				s-2.67,2.373-3.004,2.729c-0.333,0.355-0.254,0.751-0.26,0.801c-0.008,0.05,0.829,0.8,1.62,0.942s3.697-0.295,4.481-1.008
				c0.784-0.712,2.196-1.975,2.435-2.125c0.238-0.152,1.305-0.725,1.443-1.124s0.23-1.676,0.097-2.046
				C308.802,204.746,304.151,204.759,304.151,204.759z"/>
			<path fill="#5C617D" d="M297.666,169.021c0,0-0.895,5.137-0.081,6.771c0.813,1.635,1.839,2.08,2.02,3.327
				c0.18,1.247,0.968,6.859,1.745,11.545c0.258,1.553,0.876,6.089,1.582,15.037c0.372,0.807,1.365,1.394,3.355,1.164
				c1.989-0.228,2.139-0.459,2.354-0.813c0.217-0.355,0.192-9.917-0.515-13.178s-0.86-4.336-0.86-4.336s-0.549-4.901,0.533-11.073
				c0.436-2.48,0.382-5.928,0.008-7.41S297.666,169.021,297.666,169.021z"/>
			<g>
				<path fill="#8C92B0" d="M307.69,206.547l-0.228-0.01c0.002-0.039,0.178-3.892-0.008-6.677c-0.234-3.523-0.752-5.583-1.209-7.4
					c-0.311-1.234-0.604-2.4-0.769-3.86c-0.351-3.101,0.029-7.106,0.334-10.325c0.052-0.54,0.102-1.061,0.145-1.553
					c0.3-3.376-0.101-5.099-0.104-5.115l0.222-0.054c0.017,0.07,0.414,1.771,0.11,5.189c-0.044,0.492-0.094,1.013-0.145,1.554
					c-0.304,3.208-0.684,7.201-0.335,10.278c0.164,1.444,0.454,2.604,0.763,3.83c0.46,1.826,0.979,3.896,1.215,7.44
					C307.868,202.643,307.692,206.509,307.69,206.547z"/>
			</g>
		</g>
		<g>
			<path fill="#8C92B0" d="M298.184,175.605c-0.073-0.003-0.152-0.028-0.231-0.074c-0.375-0.215-0.767-0.877-0.744-1.824
				c0.011-0.508,0.153-2.545,0.194-2.795l0.228,0.038c-0.035,0.214-0.181,2.231-0.192,2.763c-0.021,0.91,0.364,1.467,0.629,1.619
				c0.077,0.044,0.146,0.054,0.187,0.029c0.062-0.038,0.094-0.162,0.084-0.332c-0.062-1.188,0.141-3.937,0.339-4.059l0.059-0.035
				l0.066,0.034l-0.06,0.102l0.002-0.002l0.001,0.003l0.085,0.063c-0.087,0.181-0.338,2.444-0.262,3.883
				c0.018,0.337-0.097,0.479-0.195,0.54C298.317,175.592,298.252,175.608,298.184,175.605z M298.741,171.074l-0.055,0.094
				L298.741,171.074z"/>
		</g>
		<g>
			<path fill="#8C92B0" d="M304.17,175.852c-1.372-0.059-2.411-0.425-3.098-1.094c-0.869-0.846-0.833-1.857-0.831-1.899l0.23,0.01
				c-0.001,0.01-0.031,0.956,0.766,1.728c0.83,0.806,2.228,1.142,4.15,1.003l0.017,0.229
				C304.967,175.86,304.555,175.868,304.17,175.852z"/>
		</g>
		<path fill="#A76478" d="M308.034,171.324c0,0-1.724,1.309-5.175,0.997c-3.451-0.313-4.748-0.796-5.881-1.517
			c-1.133-0.72-1.813-1.617-1.813-1.617l0.256-1.327c0,0,0.62,1.12,2.24,1.921c1.62,0.802,5.149,1.176,6.589,1.267
			s3.689-0.775,3.689-0.775L308.034,171.324z"/>
		<path fill="#5C617D" d="M301.197,170.79c0,0-0.105,0.378-0.135,0.829c-0.028,0.451-0.039,1.281-0.039,1.281l-0.52-0.101
			c0,0-0.068-0.805-0.035-1.205c0.032-0.4,0.17-0.951,0.17-0.951L301.197,170.79z"/>
		<path fill="#4F5997" d="M306.201,170.967c0,0,0.081,0.383,0.08,0.835c-0.002,0.453-0.047,1.282-0.047,1.282l0.526-0.066
			c0,0,0.121-0.798,0.114-1.199c-0.006-0.402-0.106-0.961-0.106-0.961L306.201,170.967z"/>
		<path fill="#5C617D" d="M296.445,168.957c0,0-0.143,0.467-0.175,0.851c-0.031,0.383,0.019,1.042,0.019,1.042l-0.337-0.441
			c0,0-0.032-0.666-0.016-0.875c0.018-0.208,0.23-0.813,0.23-0.813L296.445,168.957z"/>
		<g>
			<path fill="#8C92B0" d="M294.725,171.074c-0.038-0.001-0.075-0.009-0.114-0.021l0.075-0.218c0.281,0.092,0.659-0.606,0.797-0.963
				l0.215,0.082C295.65,170.078,295.243,171.097,294.725,171.074z"/>
		</g>
		<g>
			<path fill="#CCDEFB" d="M298.613,171.88c-0.06-0.009-0.121-0.025-0.184-0.049l-0.965-0.371c-0.41-0.158-0.72-0.598-0.703-1.002
				l0.016-0.385c0.008-0.197,0.092-0.359,0.235-0.457c0.162-0.11,0.384-0.124,0.607-0.038l0.965,0.37
				c0.411,0.158,0.721,0.599,0.704,1.003l-0.016,0.385c-0.008,0.197-0.092,0.359-0.235,0.457
				C298.92,171.873,298.771,171.902,298.613,171.88z M297.43,169.973c-0.066-0.009-0.125,0.001-0.168,0.03
				c-0.044,0.03-0.068,0.078-0.071,0.144l-0.016,0.385c-0.008,0.19,0.172,0.427,0.385,0.509l0.965,0.37
				c0.104,0.039,0.199,0.037,0.263-0.005c0.044-0.03,0.068-0.078,0.071-0.143l0.016-0.386c0.007-0.189-0.173-0.427-0.386-0.509
				l-0.964-0.371C297.492,169.986,297.46,169.978,297.43,169.973z"/>
		</g>
	</g>
	<g>
		<path fill="#E6F1FF" d="M297.84,149.553c0,0-1.697-0.536-2.301,1.263s-2.535,9.747-2.639,10.34
			c-0.104,0.593,1.534,2.873,2.559,1.35c1.023-1.524,3.028-11.118,3.146-11.82C298.723,149.983,297.84,149.553,297.84,149.553z"/>
		<path fill="#E6F1FF" d="M298.526,147.671c0,0-2.256-0.182-3.141,2.678c-0.885,2.859-1.334,6.013-1.334,6.013
			s0.731,1.369,4.643,1.038S298.526,147.671,298.526,147.671z"/>
		<path fill="#FEBFBF" d="M286.572,161.654c0,0-0.274,0.128-0.852,0.182c-0.578,0.052-0.875-0.263-1.248-0.381l-0.092-0.031
			c-0.313-0.107-0.464-0.206-0.464-0.206l-0.008-0.371c0,0-0.36-0.103-0.391-0.183c-0.031-0.078-0.137-0.249-0.121-0.35
			c0.005-0.033,0.021-0.069,0.045-0.103v-0.002c0.039-0.059,0.091-0.115,0.11-0.131l0.005-0.007l-0.491-0.257l-0.002-0.5
			l0.264-0.403l0.294,0.032l0.684,0.072l-1.123-0.355c0,0-0.329-0.055-0.473-0.115c-0.144-0.059-0.239-0.342-0.239-0.342
			l0.169-0.377c0,0,1.708,0.277,1.959,0.335c0.249,0.056,1.82,0.537,1.82,0.537s0.547,0.323,0.94,0.775
			c1.264,0.646,5.74,0.25,5.968,0.328c0.23,0.077,0.713,0.555,0.713,0.555s0.741,0.37,1.177,1.961
			C295.202,164.489,286.572,161.654,286.572,161.654z"/>
		<g>
			<path fill="#C4C8D8" d="M286.443,161.899c0.039-0.5-0.057-0.759-0.017-1.262c0.005-0.119-0.129-0.374-0.304-0.558
				c-1.561-1.667-2.532-2.705-4.094-4.372c-0.111-0.121,0.041-0.372-0.021-0.373c-0.011,0-0.274,0.189-0.282,0.193
				c-0.02,0.008-0.031,0.025-0.034,0.053c-0.039,0.503-0.079,1.004-0.118,1.504c0,0.001,0,0.003-0.001,0.004
				c-0.009,0.117,0.137,0.371,0.304,0.553c1.562,1.667,2.533,2.705,4.095,4.372c0.136,0.142,0.266,0.217,0.315,0.178l0.285-0.195
				C286.572,161.997,286.443,161.901,286.443,161.899z"/>
			<path fill="#F5F5F5" d="M282.054,155.485c0.008-0.099,0.137-0.05,0.279,0.102c1.545,1.65,2.502,2.671,4.047,4.321
				c0.142,0.152,0.258,0.365,0.25,0.464c-0.039,0.492-0.077,0.984-0.116,1.477c-0.008,0.099-0.137,0.051-0.278-0.102
				c-1.546-1.649-2.502-2.671-4.047-4.321c-0.143-0.152-0.259-0.365-0.251-0.463C281.977,156.47,282.015,155.978,282.054,155.485
				L282.054,155.485z M286.592,161.951c0-0.002,0-0.003,0-0.005c0.04-0.5,0.079-1,0.118-1.503c0.006-0.119-0.129-0.375-0.303-0.558
				c-1.562-1.667-2.533-2.705-4.094-4.372c-0.174-0.188-0.324-0.236-0.338-0.126c-0.039,0.503-0.078,1.003-0.118,1.504
				c0,0.001,0,0.003,0,0.004c-0.01,0.118,0.136,0.371,0.304,0.553c1.561,1.667,2.532,2.705,4.094,4.371
				C286.423,161.997,286.583,162.069,286.592,161.951L286.592,161.951z"/>
			<path fill="#7C78F0" d="M282.201,156.244l0.021,0.008l0.022,0.039c-0.01,0.123-0.02,0.245-0.029,0.368l-0.024-0.012l-0.019-0.035
				C282.181,156.489,282.191,156.366,282.201,156.244L282.201,156.244z M282.145,156.673l0.042,0.016l0.041,0.073l-0.046-0.018
				L282.145,156.673L282.145,156.673z M282.117,156.764l0.063,0.023l0.06,0.107l-0.066-0.027L282.117,156.764L282.117,156.764z
				 M286.514,161.849c0.039-0.492,0.077-0.984,0.116-1.477c0.008-0.099-0.108-0.312-0.25-0.464c-1.545-1.65-2.502-2.671-4.047-4.321
				c-0.143-0.152-0.271-0.2-0.279-0.102c-0.039,0.492-0.077,0.985-0.116,1.478c-0.008,0.098,0.108,0.312,0.251,0.463
				c1.545,1.65,2.501,2.671,4.047,4.321C286.377,161.899,286.506,161.947,286.514,161.849L286.514,161.849z"/>
			<path fill="#2A2A2C" d="M282.214,156.658c0.01-0.123,0.02-0.245,0.029-0.368l-0.022-0.039l-0.021-0.008
				c-0.01,0.122-0.02,0.245-0.029,0.367l0.019,0.035L282.214,156.658L282.214,156.658z"/>
			<path fill="#838383" d="M282.14,156.789l0.038,0.011l0.037,0.069l-0.042-0.016L282.14,156.789L282.14,156.789z M282.239,156.895
				l-0.06-0.107l-0.063-0.023l0.056,0.104L282.239,156.895L282.239,156.895z"/>
			<polygon fill="#516F83" points="282.215,156.869 282.178,156.8 282.14,156.789 282.173,156.854 282.215,156.869 			"/>
			<polygon fill="#2A2A2C" points="282.228,156.762 282.187,156.688 282.145,156.673 282.182,156.744 282.228,156.762 			"/>
		</g>
		
			<linearGradient id="SVGID_1_" gradientUnits="userSpaceOnUse" x1="2015.6108" y1="197.3413" x2="2016.7096" y2="196.1158" gradientTransform="matrix(0.946 0.3242 -0.3242 0.946 -1559.4902 -679.5366)">
			<stop  offset="0.1224" style="stop-color:#FEB9B8"/>
			<stop  offset="1" style="stop-color:#FFDEDE"/>
		</linearGradient>
		<path fill="url(#SVGID_1_)" d="M285.623,160.993c0,0-0.811,0.354-1.242,0.431c-0.313-0.107-0.464-0.206-0.464-0.206l-0.008-0.371
			c0,0-0.36-0.103-0.391-0.183c-0.031-0.078-0.137-0.249-0.121-0.35c0.005-0.033,0.021-0.069,0.045-0.103v-0.002l0.11-0.131
			l0.005-0.007l-0.491-0.257l-0.002-0.5l0.264-0.403l0.294,0.032l0.086,0.236c0,0,0.216,0.073,0.449,0.297
			c0.231,0.223-0.049,0.534-0.049,0.534l0.636-0.025c0,0,0.383,0.005,0.485,0.157c0.104,0.151-0.161,0.445-0.161,0.445
			s0.354-0.05,0.45-0.018C285.613,160.603,285.623,160.993,285.623,160.993z"/>
		<path fill="#FEBFBF" d="M285.985,159.148c0,0-0.68-0.127-0.796-0.07c-0.115,0.057-0.445,0.117-0.74-0.09
			c-0.295-0.207-0.109-0.327-0.109-0.327l0.624-0.316l1.185-0.009c0,0,0.96,0.727,1.017,0.86c0.058,0.132,0.096,1.017-0.194,1.187
			C286.68,160.554,285.597,159.941,285.985,159.148z"/>
		<polygon fill="#FEBFBF" points="286.36,160.56 285.554,159.888 285.145,159.517 284.666,159.216 285.007,158.88 286.283,159.067 
			285.768,159.141 285.389,159.34 		"/>
		<polygon fill="#FEBFBF" points="285.068,160.588 283.909,160.848 283.913,161.021 284.552,160.826 285.465,160.61 		"/>
		<path fill="#FEBFBF" d="M284.219,159.826c0,0-0.168,0.154-0.284,0.153c-0.115-0.001-0.869-0.164-0.869-0.164l0.486,0.264
			l-0.11,0.133l0.438-0.071l0.703-0.15l-0.475,0.019L284.219,159.826z"/>
	</g>
	<path fill="#DDE8F6" d="M295.222,168.039l-0.13,0.505c0,0,0.995,1.57,4.813,2.408c3.819,0.837,6.056,0.495,6.056,0.495l0.073-0.57
		L295.222,168.039z"/>
	<g>
		<path fill="#DDE8F6" d="M309.92,150.631c0,0,0.522-0.867-2.241-1.815c-1.562-0.535-1.757-1.101-2.736-1.354
			c-0.98-0.252-4.008-0.135-4.43-0.012c-0.42,0.123-2.389-0.033-3.317,0.791c-0.096,0.085-1.729,1.577-1.613,5.795
			s0.655,6.286,0.617,7.29c-0.153,4.064-1.091,6.847-1.091,6.847s1.436,2.033,6.214,2.672s6.171-0.347,6.171-0.347
			s0.267-6.796,0.444-7.989C308.117,161.318,309.92,150.631,309.92,150.631z"/>
	</g>
	<polygon fill="#E6F1FF" points="302.068,154.518 301.867,157.715 303.096,158.641 304.736,158.338 304.896,155.201 	"/>
	<g>
		<path fill="#DDE8F6" d="M306.498,154.605c0,0-0.241,2.472-0.406,3.113s0.475,5.212,0.268,5.774
			c-0.208,0.563-0.029,5.032-0.029,5.032l-0.605,4.706l1.125-0.543c0,0,1.634-9.989,1.407-12.042S306.498,154.605,306.498,154.605z"
			/>
		<path fill="#E6F1FF" d="M310.737,163.047c0,0-0.014-8.608-0.16-10.647c-0.147-2.038-0.708-2.891-1.707-2.707
			c-0.998,0.185-2.406,0.967-2.257,3.856c0.148,2.889,1.232,11.018,1.921,11.856C309.222,166.243,310.737,163.047,310.737,163.047z"
			/>
		<path fill="#FEBFBF" d="M308.729,162.398c0,0-0.54,0.348-0.815,0.829s-1.278,8.861-1.613,9.526
			c-0.335,0.665-0.574,0.93-0.842,1.199c-0.268,0.269-1.483,1.988-1.483,1.988s-0.689,2.104-0.774,2.274
			c-0.084,0.171,0.33,0.241,0.591,0.008c0.262-0.233,0.712-1.249,0.712-1.249l-0.111,1.202c0,0-0.758,1.635-0.838,1.857
			c-0.079,0.223,0.015,0.488,0.268,0.392c0.252-0.096,0.667-0.706,0.667-0.706l0.306,0.205c0,0,0.24,0.221,0.561-0.03
			c0.32-0.251,0.609-0.729,0.609-0.729l0.404-0.015l0.499-0.401l0.524-0.23c0,0,0.479-0.946,0.389-1.475s-0.175-2-0.113-2.198
			c0.061-0.198,3.723-10.565,3.085-11.664C310.115,162.083,308.729,162.398,308.729,162.398z"/>
		<polygon fill="#FEBFBF" points="304.489,179.719 305.051,179.037 305.493,178.233 305.17,179.206 304.62,179.807 		"/>
		<polygon fill="#FEBFBF" points="305.964,179.164 306.369,178.196 306.315,178.789 306.109,179.159 		"/>
		<polygon fill="#FEBFBF" points="306.815,178.79 307.143,178.161 307.19,177.882 307.182,178.366 307.001,178.689 		"/>
		<polygon fill="#FEBFBF" points="304.503,176.974 304.654,176.083 304.371,176.771 304.067,177.839 		"/>
	</g>
	<g>
		
			<linearGradient id="SVGID_2_" gradientUnits="userSpaceOnUse" x1="1351.8276" y1="227.2119" x2="1347.2882" y2="223.8734" gradientTransform="matrix(0.9912 0.1326 -0.1326 0.9912 -1004.22 -256.3987)">
			<stop  offset="0.1224" style="stop-color:#FEC7C7"/>
			<stop  offset="0.9694" style="stop-color:#FFADB7"/>
		</linearGradient>
		<path fill="url(#SVGID_2_)" d="M304.97,141.353c0,0-0.577,2.946-0.423,4.039c0.153,1.094,1.147,2.331,1.195,2.678
			c0.047,0.348-2.113,1.365-3.552,1.385s-1.812-0.36-2.039-0.508c-0.227-0.148,0.403-1.43,0.276-2.683
			C300.302,145.012,303.021,141.315,304.97,141.353z"/>
		<path fill="#F64A6E" d="M300.046,150.635c0,0-1.404,6.497-2.316,16.694l0.58,1.577l1.003-0.976
			c0.533-12.584,1.484-16.953,1.484-16.953L300.046,150.635z"/>
		<polygon fill="#F64A6E" points="300.982,149.32 299.839,150.269 300.291,151.288 301.333,150.845 301.347,150.527 		"/>
		<path fill="#E6F1FF" d="M304.666,146.129l-0.075,0.863c0,0-0.835,2.283-3.608,2.328c-0.042,0.432,0.059,1.649,0.502,1.995
			c1.742-0.732,3.916-2.05,4.287-3.242c0.044-0.141-0.438-1.559-0.438-1.559l-0.631-0.526L304.666,146.129z"/>
		<path fill="#E6F1FF" d="M300.377,147.133c0,0-0.14,0.503-0.1,0.778s0.165,1.03,0.704,1.409c-0.501,0.686-1.378,1.021-1.718,0.996
			c0.243-1.034,0.32-2.009,0.412-2.815C299.767,146.694,300.571,146.542,300.377,147.133z"/>
		
			<linearGradient id="SVGID_3_" gradientUnits="userSpaceOnUse" x1="1346.5015" y1="226.5234" x2="1349.0591" y2="226.5234" gradientTransform="matrix(0.9912 0.1326 -0.1326 0.9912 -1004.22 -256.3987)">
			<stop  offset="0.1224" style="stop-color:#FCA4B5"/>
			<stop  offset="0.9896" style="stop-color:#FFADB7"/>
		</linearGradient>
		<path fill="url(#SVGID_3_)" d="M300.159,148.438c0,0,0.57,0.892,1.788,0.183c0.654-0.381,0.752-1.292,0.752-1.292l0.512-2.413
			l-2.924,2.952L300.159,148.438z"/>
		<path fill="#FEC7C7" d="M304.618,143.598c-0.021,0.007-0.04,0.013-0.06,0.019c0,0,0.002,0,0,0.001
			c-0.384,0.124-0.691,0.083-0.691,0.083s-0.729,1.763-1.145,2.754c-0.416,0.992-1.087,1.397-2.374,1.801
			c-1.286,0.403-1.603,0.032-1.805-0.219c-0.141-0.173-0.515-1.221-0.76-2.188c-0.107-0.419-0.189-0.822-0.22-1.133
			c-0.098-1.024-0.385-1.698-0.531-1.93c-0.144-0.232-0.165-1.576,0.097-3c0.261-1.424,1.778-2.916,2.897-3.273
			c1.119-0.356,2.706-0.058,4.009,0.761c1.304,0.818,1.82,1.765,1.769,2.747C305.75,141.001,305.211,143.142,304.618,143.598z"/>
		<path fill="#754554" d="M298.419,143.376c0,0,0.817,0.021,0.979,0.042c0.161,0.021,0.99,0.337,0.99,0.337l-1.081-0.184
			l-0.866-0.038L298.419,143.376z"/>
		<polygon fill="#754554" points="297.639,143.008 296.962,142.518 296.912,142.683 297.034,142.786 297.739,143.265 		"/>
		<g>
			
				<linearGradient id="SVGID_4_" gradientUnits="userSpaceOnUse" x1="1344.1157" y1="224.8018" x2="1343.3323" y2="225.252" gradientTransform="matrix(0.9912 0.1326 -0.1326 0.9912 -1004.22 -256.3987)">
				<stop  offset="0.1224" style="stop-color:#FEC7C7"/>
				<stop  offset="0.9896" style="stop-color:#FFDBDB"/>
			</linearGradient>
			<path fill="url(#SVGID_4_)" d="M297.986,143.502c0,0-0.268,0.999-0.484,1.535s0.077,0.741,0.533,0.79
				c0.457,0.049,0.677-0.098,0.677-0.098L297.986,143.502z"/>
			
				<linearGradient id="SVGID_5_" gradientUnits="userSpaceOnUse" x1="1343.3384" y1="224.8643" x2="1344.7358" y2="224.8643" gradientTransform="matrix(0.9912 0.1326 -0.1326 0.9912 -1004.22 -256.3987)">
				<stop  offset="0.188" style="stop-color:#FFDCDC"/>
				<stop  offset="0.8991" style="stop-color:#FEC7C7"/>
			</linearGradient>
			<path fill="url(#SVGID_5_)" d="M298.147,145.879c-0.037-0.001-0.075-0.005-0.116-0.009c-0.297-0.032-0.493-0.125-0.585-0.279
				c-0.085-0.143-0.08-0.334,0.016-0.569c0.214-0.528,0.479-1.521,0.482-1.531l0.084,0.023c-0.003,0.01-0.271,1.008-0.486,1.541
				c-0.085,0.209-0.092,0.375-0.021,0.493c0.077,0.128,0.252,0.208,0.52,0.237c0.435,0.046,0.646-0.09,0.647-0.091l0.048,0.071
				C298.726,145.771,298.536,145.896,298.147,145.879z"/>
		</g>
		
			<ellipse transform="matrix(0.8469 -0.5318 0.5318 0.8469 -30.8706 181.3034)" fill="#FFFFFF" cx="299.408" cy="144.26" rx="0.223" ry="0.245"/>
		
			<ellipse transform="matrix(0.8468 -0.532 0.532 0.8468 -30.794 180.3543)" fill="#FFFFFF" cx="297.655" cy="143.628" rx="0.178" ry="0.245"/>
		<path fill="#AF727B" d="M304.558,143.616c0,0,0.002,0,0,0.001c-0.384,0.124-0.691,0.083-0.691,0.083s-0.729,1.763-1.145,2.754
			c-0.416,0.992-1.087,1.397-2.374,1.801c-1.286,0.403-1.603,0.032-1.805-0.219c-0.141-0.173-0.515-1.221-0.76-2.188
			c0.191,0.033,0.439,0.079,0.734,0.125c0.595,0.245,2.308,0.871,3.298,0.208c0.591-0.396,0.52-1.86,0.52-1.86
			c0.237-2.123,1.755-2.991,2.176-1.859C304.596,142.687,304.62,143.101,304.558,143.616z"/>
		<path fill="#FEC7C7" d="M303.041,145.689c0.131-0.312-0.123-0.811-0.079-1.559c0.043-0.748-0.014-1.603,0.246-1.727
			c0.261-0.125,0.81,0.035,0.81,0.035l-0.317,1.666L303.041,145.689z"/>
		<path fill="#754554" d="M302.961,144.131c0,0,0.229-1.253,0.548-1.399c0.317-0.146,0.538,0.023,0.538,0.023
			s0.449,1.613,0.49,1.696c0.268-0.665,0.811-1.149,1.141-2.148c0.33-0.999,1.044-2.61,0.121-3.981s-2.159-1.454-2.159-1.454
			s-1.295-1.404-3.824-0.709s-3.124,3.463-3.156,3.707c-0.032,0.243,0.342,0.788,0.342,0.788s0.648,0.522,1.618-0.043
			c0.97-0.564,2.076-0.475,2.347-0.298s-0.136,1.806-0.096,2.035s0.973,0.613,1.203,0.802c0.229,0.189,0.262,1.171,0.262,1.171
			L302.961,144.131z"/>
		<path fill="#754554" d="M298.245,146.023c0,0,0.482-0.21,0.966,0.224s1.146,0.53,1.313,0.458c0.166-0.072,0.166-0.072,0.166-0.072
			s-0.112,0.487-0.895,0.296c-0.782-0.191-1.152-0.488-1.441-0.491C298.136,146.349,298.245,146.023,298.245,146.023z"/>
		<path fill="#754554" d="M298.378,146.063c0,0-0.035-0.076-0.128-0.088c-0.092-0.013-0.29-0.117-0.555-0.075
			c-0.265,0.043-0.462-0.069-0.538-0.258c-0.077-0.188,0.091,0.555,0.409,0.692c0.319,0.138,0.534,0.176,0.788,0.097
			S298.378,146.063,298.378,146.063z"/>
		<path fill="#FEC7C7" d="M299.151,146.971c0,0-0.325-0.114-0.446-0.136s-0.432-0.075-0.497-0.066s0.001,0.259,0.215,0.329
			C298.636,147.167,299.051,147.058,299.151,146.971z"/>
		
			<linearGradient id="SVGID_6_" gradientUnits="userSpaceOnUse" x1="1349.0591" y1="223.0273" x2="1350.4419" y2="223.0273" gradientTransform="matrix(0.9912 0.1326 -0.1326 0.9912 -1004.22 -256.3987)">
			<stop  offset="0.1224" style="stop-color:#FEB9B8"/>
			<stop  offset="1" style="stop-color:#FFDEDE"/>
		</linearGradient>
		<path fill="url(#SVGID_6_)" d="M303.443,143.181c0,0,0.318-0.723,1.068-0.72c0.751,0.002,0.122,1.319-0.06,1.742
			c-0.183,0.423-0.549,0.695-0.829,0.619c-0.279-0.077-0.344-0.415-0.344-0.415S303.458,143.708,303.443,143.181z"/>
		
			<linearGradient id="SVGID_7_" gradientUnits="userSpaceOnUse" x1="1349.2231" y1="222.8838" x2="1350.2446" y2="222.8838" gradientTransform="matrix(0.9912 0.1326 -0.1326 0.9912 -1004.22 -256.3987)">
			<stop  offset="0.1224" style="stop-color:#FCA4B5"/>
			<stop  offset="0.9896" style="stop-color:#FFADB7"/>
		</linearGradient>
		<path fill="url(#SVGID_7_)" d="M303.582,143.373c0,0,0.589-0.684,0.908-0.594c0.318,0.09,0.078,0.803-0.104,1.179
			c-0.181,0.376-0.742,0.301-0.783,0.193s-0.098-0.14-0.098-0.14L303.582,143.373z"/>
	</g>
	<path fill="#E6F1FF" d="M307.134,158.573l0.723,4.515l-1.693,9.402c0,0,0.769,0.977,2.17,0.853
		c0.131-0.432,2.436-7.781,2.499-9.273c0.064-1.492-0.079-2.731-0.079-2.731L307.134,158.573z"/>
	<path fill="#E6F1FF" d="M287.71,159.607c0,0,0.034-0.08,0.308-0.036c0.272,0.043,0.5,0.169,1.884,0.197
		c1.385,0.028,3.312,0.02,3.312,0.02s0.946-0.158,1.6,1.137c0.652,1.294,0.587,1.609,0.253,1.976
		c-0.333,0.366-1.493,0.295-1.705,0.285c-0.211-0.009-1.27-0.123-2.123-0.287c-0.853-0.164-3.729-0.849-4.072-1.059
		c0.157,0.009,0.346,0.07,0.346,0.07s0.531-0.138,0.623-1.024c0.091-0.881-0.213-1.224-0.213-1.224L287.71,159.607z"/>
</g>
</svg>
