<?xml version="1.0" encoding="utf-8"?>
<!-- Generator: Adobe Illustrator 16.0.0, SVG Export Plug-In . SVG Version: 6.00 Build 0)  -->
<!DOCTYPE svg PUBLIC "-//W3C//DTD SVG 1.1//EN" "http://www.w3.org/Graphics/SVG/1.1/DTD/svg11.dtd">
<svg version="1.1" id="Layer_1" xmlns="http://www.w3.org/2000/svg" xmlns:xlink="http://www.w3.org/1999/xlink" x="0px" y="0px"
	 width="463.683px" height="425.749px" viewBox="0 0 463.683 425.749" enable-background="new 0 0 463.683 425.749"
	 xml:space="preserve">
<g>
	<path fill="#6A3646" d="M384.887,148.51c0,0-1.571-0.488-2.856,0.524c-1.471,1.157-0.68,3.651-0.234,4.686
		c0.479,1.114,0.809,3.45-0.675,4.331c0.368,0.927,2.68,0.152,3.38-0.289C385.201,157.321,387.889,151.056,384.887,148.51z"/>
	<g>
		<path fill="#BDD6F2" d="M396.203,217.547c-4.289,2.73-11.446,3.025-15.983,0.661c-4.538-2.365-4.739-6.496-0.448-9.226
			c4.29-2.73,11.446-3.026,15.984-0.661C400.292,210.687,400.494,214.816,396.203,217.547z"/>
		<g>
			<g>
				<g>
					<path fill="#FFA1A3" d="M388.519,206.08c0,0-1.086,1.036-0.892,1.618s2.646,4.108,3.854,4.467
						c2.514,0.747,1.818-1.481,1.386-1.926c-0.382-0.392-1.876-1.448-1.914-2.515C390.902,206.285,388.519,206.08,388.519,206.08z"
						/>
					<path fill="#8E8E8E" d="M388.953,209.462c0,0-0.408,0.161-0.397,0.478c0.01,0.317,0.03,1.509,0.03,1.509
						s-0.271,0.163-0.43,0.099c-0.16-0.065-0.398-0.428-0.398-0.428s-0.338-2.33-0.48-2.799
						C387.134,207.851,388.953,209.462,388.953,209.462z"/>
					<path fill="#C2D2EA" d="M387.467,206.81c0,0,1.756,1.896,2.477,3.169c0.722,1.274,1.458,1.764,1.983,1.715
						c0.836-0.078,1.352-0.621,1.146-1.038c-0.206-0.416-0.206-0.416-0.206-0.416s2.262,2.134,2.059,3.561s-4.051-0.321-4.66-1.022
						c-0.232-0.268-0.776-2.287-1.297-2.842s-1.27-0.266-1.646-1.438C386.946,207.326,387.467,206.81,387.467,206.81z"/>
					<path fill="#8E8E8E" d="M388.848,209.66c0.521,0.555,1.27,2.665,1.502,2.934c0.567,0.652,3.95,2.169,4.576,1.181
						c-0.001,0.009,0,0.018-0.001,0.025c-0.203,1.427-4.051-0.321-4.66-1.022c-0.232-0.268-0.776-2.287-1.297-2.842
						c-0.453-0.483-1.309-0.275-1.576-1.248C387.753,208.91,388.47,209.258,388.848,209.66z"/>
				</g>
				<g>
					<path fill="#8E8E8E" d="M384.055,210.836c0,0-0.606-0.182-0.601,0.136c0.005,0.316,0.093,2.289,0.093,2.289
						s-0.14,0.136-0.298,0.068s-0.393-0.434-0.393-0.434s-0.248-1.927-0.238-2.417C382.629,209.896,384.055,210.836,384.055,210.836
						z"/>
					
						<linearGradient id="SVGID_1_" gradientUnits="userSpaceOnUse" x1="-793.5972" y1="167.3916" x2="-789.144" y2="167.3916" gradientTransform="matrix(0.9991 -0.0431 0.0431 0.9991 1168.75 10.1523)">
						<stop  offset="0.1224" style="stop-color:#FEC7C7"/>
						<stop  offset="0.9694" style="stop-color:#FFADB7"/>
					</linearGradient>
					<path fill="url(#SVGID_1_)" d="M383.887,208.058c0,0-0.903,0.732-0.886,1.675c0.018,0.926,1.183,4.682,2.367,5.113
						c1.184,0.431,2.368-0.339,2.27-0.876c-0.1-0.538-1.151-2.2-1.441-3.519C385.887,209.045,383.887,208.058,383.887,208.058z"/>
					<path fill="#C2D2EA" d="M386.201,209.904c0,0,0.895,1.676,1.284,2.816c0.849,2.488,0.808,3.576,0.626,4.17
						c-0.19,0.618-1.979,0.066-3.249-0.973c-1.456-1.189-0.823-2.616-1.716-4.059c-0.289-0.469-0.557-0.81-0.552-1.926
						c-0.013-0.947,0.826-1.342,0.826-1.342s-0.635,0.961-0.297,1.764c0.17,0.403,0.107,0.578,0.363,1.083
						c0.51,1.005,0.595,1.987,1.327,2.714c0.687,0.683,2.72,0.262,2.665-0.141c-0.103-0.745-0.756-2.002-1.015-2.699
						C386.155,210.479,386.201,209.904,386.201,209.904z"/>
					<path fill="#8E8E8E" d="M383.207,211.752c0.892,1.442,0.219,2.777,1.675,3.967c1.176,0.961,2.898,1.531,3.258,1.079
						c-0.01,0.031-0.02,0.063-0.028,0.093c-0.19,0.618-1.979,0.066-3.249-0.973c-1.456-1.189-0.823-2.616-1.716-4.059
						c-0.188-0.306-0.477-0.609-0.507-1.211C382.802,210.971,383.066,211.525,383.207,211.752z"/>
				</g>
				<path fill="#4F5997" d="M387.823,207.35c0,0,0.214,0.398,0.714,0.619c0.512,0.226,1.316,0.264,2.494-0.502
					c0,0,0.279-14.672,1.094-18.974l-3.508,6.188l-1.472,0.053l-0.002,0.001c0,0-0.607,4.718-0.243,7.195
					C387.267,204.408,387.823,207.35,387.823,207.35z"/>
				<path fill="#4F5997" d="M387.079,194.571c0.018,0.057,0.039,0.11,0.064,0.163l0.002-0.001c0.217,0.46,0.688,0.733,1.231,0.853
					c1.072,0.238,2.42-0.124,2.652-0.841c0.015-0.044,0.03-0.097,0.049-0.155c0.423-1.406,1.324-7.323,1.892-11.721
					c0.591-4.583-0.63-7.825-0.63-7.825l-5.518,2.07c0,0-0.049,2.701-0.066,5.941C386.732,187.494,386.794,193.676,387.079,194.571z
					"/>
				<path fill="#A8B0C2" d="M387.823,207.35c0,0,0.214,0.398,0.714,0.619c-0.377-2.455-0.99-6.649-0.887-7.513
					c0.066-0.58,0.213-3.421,0.371-4.788c1.073-9.283,0.946-12.163,0.946-12.163l1.193-1.82l-3.405,1.371
					c-0.023,4.438,0.039,10.62,0.323,11.516c0.018,0.057,0.039,0.11,0.064,0.163c0,0-0.607,4.718-0.243,7.195
					C387.267,204.408,387.823,207.35,387.823,207.35z"/>
				<path fill="#4F5997" d="M390.28,179.007l0.782,0.917c0,0,0.068,1.131-2.433,3.013c-0.016,2.654-0.898,8.144-1.822,13.156
					c-0.396,2.146-3.373,0.452-3.804-1.897c-0.432-2.349-2.35-9.712-2.515-11.523c-0.165-1.811-0.308-3.654,0.947-4.722
					S390.28,179.007,390.28,179.007z"/>
				<path fill="#4F5997" d="M386.184,209.351c-0.469-1.644-0.049-10.651,0.623-13.257c-3.463-2.015-3.905-2.407-3.905-2.407
					s-1.211,5.707-1.215,8.035c-0.003,1.331,1.451,7.909,1.451,7.909S384.488,211.058,386.184,209.351z"/>
				<g>
					<path fill="#8C92B0" d="M383.567,210.441l0.243-0.062c-0.014-0.058-1.428-5.749-1.439-8.379
						c-0.009-2.046,0.465-4.697,0.777-6.452c0.146-0.82,0.263-1.469,0.293-1.835c0.03-0.368-0.188-1.415-0.492-2.864
						c-0.689-3.297-1.733-8.281-0.869-10.158l-0.229-0.105c-0.899,1.953,0.154,6.985,0.852,10.315
						c0.287,1.375,0.516,2.46,0.488,2.792c-0.03,0.355-0.145,0.998-0.29,1.813c-0.315,1.763-0.791,4.427-0.782,6.497
						C382.13,204.662,383.552,210.384,383.567,210.441z"/>
				</g>
			</g>
			<g>
				<path fill="#FEBFBF" d="M390.906,157.892c0,0,1.454-0.291,1.924,0.593c0.471,0.884,2.195,10.556,2.172,11.062
					s-1.917,2.522-2.958-1.847C391.003,163.332,390.906,157.892,390.906,157.892z"/>
				<path fill="#FEBFBF" d="M392.515,171.244c0,0,2.489-0.429,2.583-0.392c0.093,0.038,3.014-0.824,1.736-1.16
					s-2.066-0.358-2.066-0.358S390.805,169.816,392.515,171.244z"/>
				<g>
					<path fill="#E6F1FF" d="M389.421,157.123l1.517,0.033c0,0,1.69,0.315,2.173,1.427s0.861,3.604,0.861,3.604
						s-0.645,0.48-1.345,0.792C391.926,163.292,389.421,157.123,389.421,157.123z"/>
				</g>
				<path fill="#DDE8F6" d="M381.494,178.481c0.146,0.152,0.533,0.356,1.075,0.552c1.293,0.467,3.479,0.895,5.461,0.515
					c2.813-0.54,4.563-1.906,4.85-3.004c-0.051-0.474-0.033-5.296,0.049-6.409c0.083-1.113,0.877-3.148,0.885-3.941
					c0.008-0.792-0.642-2.491-0.792-3.378c-0.149-0.885-1.013-4.46-1.398-4.882c-0.282-0.308-0.777-0.582-1.707-0.728
					c-0.676-0.106-4.418-0.609-5.176-0.307c-0.761,0.302-1.503,0.916-2.325,1.483c-0.823,0.564-2.854,2.024-2.854,2.024
					s0.894,3.357,1.189,5.192c0.073,0.458,0.131,0.849,0.164,1.115c0.161,1.325,0.159,8.52,0.159,8.52
					S380.997,177.965,381.494,178.481z"/>
				<path fill="#FEBFBF" d="M384.673,156.777c-0.142,0.008-0.504,0.551-1.133,0.867s-0.647,0.4,0.117,1.092
					c0.764,0.691,3.486,3.78,5.203,3.403c1.718-0.377,1.621-2.05,1.55-2.719c-0.072-0.668-1.104-2.187-1.437-2.33
					C388.641,156.946,384.673,156.777,384.673,156.777z"/>
				<path fill="#DDE8F6" d="M381.494,178.481c0.146,0.152,0.533,0.356,1.075,0.552c-0.023-0.139-0.054-0.29-0.089-0.454
					c-0.893-4.21,0.338-3.717,0.448-5.425c0.112-1.71-0.362-3.051,0.216-2.971s1.32,0.124,2.229-0.321
					c-0.742,0.287-1.673,0.195-2.289-0.24c-0.616-0.435-0.407-3.799-0.407-3.799c-0.78-0.354-1.414-0.4-1.928-0.226
					c0.073,0.458,0.131,0.849,0.164,1.115c0.161,1.325,0.159,8.52,0.159,8.52S380.997,177.965,381.494,178.481z"/>
				<g>
					<path fill="#FEBFBF" d="M381.109,160.642c0,0,1.072,0.092,1.275,1.988s-0.872,10.173-1.58,10.984
						c-0.707,0.812-1.792,0.303-2.112-1.484c-0.32-1.788-0.268-6.964-0.243-7.593C378.473,163.909,378.669,159.646,381.109,160.642z
						"/>
					<path fill="#FEBFBF" d="M380.595,172.551c0,0,0.365,0.31,0.66,1.604c0.295,1.293,0.929,7.555,1.421,8.202
						s1.055,1.166,1.055,1.166s0.561,0.943,0.592,1.234s0.263,0.91,0.381,1.063c0.117,0.152,0.52,0.727,0.487,0.858
						c-0.031,0.132-0.418,0.22-0.582,0.063s-0.644-1.284-0.803-1.487c-0.16-0.204-0.335-0.268-0.335-0.268s-0.161,0.791-0.104,0.987
						c0.058,0.196,0.61,1.489,0.61,1.489s0.536,0.798,0.553,0.87c0.018,0.072-0.28,0.131-0.432,0
						c-0.152-0.131-0.115,0.132-0.418,0.054c-0.303-0.078-1.122-0.772-1.122-0.772l-0.13-0.179l-0.601-0.11
						c0,0-0.869-1.416-0.93-1.805c-0.06-0.389-0.365-3.411-0.365-3.411s-2.67-7.332-1.688-9.369
						C379.296,172.102,380.595,172.551,380.595,172.551z"/>
					
						<linearGradient id="SVGID_2_" gradientUnits="userSpaceOnUse" x1="3664.5063" y1="-11.5532" x2="3665.8892" y2="-11.5532" gradientTransform="matrix(-0.9943 0.1065 0.1065 0.9943 4028.8311 -191.5432)">
						<stop  offset="0.1224" style="stop-color:#FCA4B5"/>
						<stop  offset="0.9896" style="stop-color:#FFADB7"/>
					</linearGradient>
					<path fill="url(#SVGID_2_)" d="M382.491,186.294c0,0,0.527,1.117,0.643,1.229c0.115,0.111,0.966,0.81,0.966,0.81l-0.193,0.021
						c0,0-0.388-0.396-0.485-0.468s-0.435-0.381-0.435-0.381l-0.469-0.972L382.491,186.294z"/>
					
						<linearGradient id="SVGID_3_" gradientUnits="userSpaceOnUse" x1="3666.0718" y1="-12.0879" x2="3666.5874" y2="-12.0879" gradientTransform="matrix(-0.9943 0.1065 0.1065 0.9943 4028.8311 -191.5432)">
						<stop  offset="0.1224" style="stop-color:#FCA4B5"/>
						<stop  offset="0.9896" style="stop-color:#FFADB7"/>
					</linearGradient>
					<path fill="url(#SVGID_3_)" d="M381.795,186.369l0.494,0.948l0.14,0.118l-0.136-0.025c0,0-0.202-0.204-0.26-0.363
						C381.975,186.888,381.795,186.369,381.795,186.369z"/>
					<path fill="#E6F1FF" d="M380.966,160.416c0,0,0.972,0.186,1.46,1.527c0.489,1.342,0.003,4.789,0.003,4.789
						s-1.409-0.139-2.857-0.521c-1.449-0.383-1.587-1.028-1.587-1.028s0.739-3.146,0.991-3.628S379.253,159.896,380.966,160.416z"/>
				</g>
			</g>
			<g>
				
					<linearGradient id="SVGID_4_" gradientUnits="userSpaceOnUse" x1="3660.4468" y1="-40.6353" x2="3657.8193" y2="-43.9409" gradientTransform="matrix(-0.9943 0.1065 0.1065 0.9943 4028.8311 -191.5432)">
					<stop  offset="0.1224" style="stop-color:#FEC7C7"/>
					<stop  offset="0.9694" style="stop-color:#FFADB7"/>
				</linearGradient>
				<path fill="url(#SVGID_4_)" d="M389.408,156.505c0,0-0.297,0.708-0.228,1.35c0.068,0.641,0.431,1.706,0.431,1.706
					s-0.389,0.76-1.958,0.597c-1.569-0.164-1.628-0.709-2.127-0.987s-1.786-1.558-1.707-1.65c0.08-0.091,1.376-0.747,0.864-2.607
					c-0.512-1.859-1.254-2.819-1.254-2.819s-0.44-0.78,0.103-0.839C384.076,151.197,389.408,156.505,389.408,156.505z"/>
				
					<linearGradient id="SVGID_5_" gradientUnits="userSpaceOnUse" x1="3655.8384" y1="-40.9478" x2="3659.396" y2="-40.9478" gradientTransform="matrix(-0.9943 0.1065 0.1065 0.9943 4028.8311 -191.5432)">
					<stop  offset="0.1224" style="stop-color:#FCA4B5"/>
					<stop  offset="0.9896" style="stop-color:#FFADB7"/>
				</linearGradient>
				<path fill="url(#SVGID_5_)" d="M385.736,155.638c0,0,1.347,1.24,1.633,1.872c0.287,0.632,1.594,1.485,1.594,1.485l0.209-1.406
					l0.236-1.084L385.736,155.638z"/>
				<path fill="#FEC7C7" d="M389.721,147.832c0,0,0.572,0.449,0.95,1.402s0.645,1.767,0.621,1.935s-0.164,0.528,0.061,1.208
					s-0.445,4.091-1.181,4.433c-0.736,0.341-4.155-0.783-4.538-1.267c-0.384-0.483-1.367-2.448-1.495-3.773
					c-0.128-1.324-0.528-2.869,1.386-3.681C387.439,147.276,389.721,147.832,389.721,147.832z"/>
				<g>
					
						<linearGradient id="SVGID_6_" gradientUnits="userSpaceOnUse" x1="3654.7827" y1="-45.1079" x2="3653.7659" y2="-45.0761" gradientTransform="matrix(-0.9943 0.1065 0.1065 0.9943 4028.8311 -191.5432)">
						<stop  offset="0.1224" style="stop-color:#FEC7C7"/>
						<stop  offset="0.9896" style="stop-color:#FFDBDB"/>
					</linearGradient>
					<path fill="url(#SVGID_6_)" d="M390.187,151.541c-0.07,0.375,0.912,1.904,0.959,2.246c0.045,0.342-0.918,0.326-0.918,0.326
						L390.187,151.541z"/>
					
						<linearGradient id="SVGID_7_" gradientUnits="userSpaceOnUse" x1="3653.77" y1="-45.0796" x2="3654.7739" y2="-45.0796" gradientTransform="matrix(-0.9943 0.1065 0.1065 0.9943 4028.8311 -191.5432)">
						<stop  offset="0.188" style="stop-color:#FFDCDC"/>
						<stop  offset="0.8991" style="stop-color:#FEC7C7"/>
					</linearGradient>
					<path fill="url(#SVGID_7_)" d="M390.393,154.16c0.226-0.01,0.608-0.05,0.749-0.208c0.044-0.05,0.063-0.108,0.054-0.173
						c-0.02-0.15-0.197-0.49-0.402-0.884c-0.265-0.509-0.594-1.143-0.557-1.346l-0.1-0.019c-0.044,0.237,0.267,0.834,0.566,1.411
						c0.192,0.369,0.374,0.718,0.392,0.851c0.005,0.035-0.005,0.064-0.029,0.092c-0.138,0.154-0.654,0.18-0.837,0.176l-0.002,0.102
						C390.247,154.163,390.309,154.164,390.393,154.16z"/>
				</g>
				<g>
					<path fill="#754554" d="M387.584,151.681c1.176-0.254,1.818-0.182,1.825-0.181l0.021-0.168
						c-0.027-0.002-0.675-0.078-1.882,0.183L387.584,151.681z"/>
				</g>
				<g>
					<path fill="#754554" d="M390.431,151.311c0.236-0.166,0.63-0.385,0.757-0.359l0.034-0.166
						c-0.258-0.054-0.783,0.313-0.888,0.386L390.431,151.311z"/>
				</g>
				
					<ellipse transform="matrix(-0.9581 0.2863 -0.2863 -0.9581 804.3041 187.089)" fill="#FFFFFF" cx="388.473" cy="152.353" rx="0.357" ry="0.305"/>
				
					<ellipse transform="matrix(-0.7042 -0.71 0.71 -0.7042 557.9789 536.2761)" fill="#FFFFFF" cx="390.705" cy="151.902" rx="0.251" ry="0.289"/>
				<path fill="#FB7F9E" d="M389.144,155.333c0,0,0.978-0.346,1.372-0.402c0.394-0.056,0.422,0.079,0.396,0.213
					C390.884,155.277,390.278,156.253,389.144,155.333z"/>
				<path fill="#754554" d="M383.656,152.282c0,0,0.309-0.405,0.544-0.271c0.235,0.135,0.676,0.315,0.695,0.499
					c0.02,0.185,0.195,1.18,0.195,1.18s0.417-0.741,0.339-1.478c-0.079-0.737,0.142-1.768,0.438-2.228
					c0.295-0.459,0.592-1.167,1.297-1.284s1.686,0.013,2.26-0.035s0.808-0.254,0.808-0.254l0.526,1.042c0,0-0.035-0.521-0.36-1.103
					c-0.324-0.582-2.678-3.228-5.941-1.36c-2.399,1.182-2.224,3.854-1.844,4.821s1.519,1.818,1.637,2.115
					c0.117,0.297,0.433,0.713,0.435,0.988c0.002,0.276-0.143-1.033-0.379-1.588C384.067,152.771,383.656,152.282,383.656,152.282z"
					/>
				
					<linearGradient id="SVGID_8_" gradientUnits="userSpaceOnUse" x1="3659.8628" y1="-45.3057" x2="3661.4985" y2="-45.3057" gradientTransform="matrix(-0.9943 0.1065 0.1065 0.9943 4028.8311 -191.5432)">
					<stop  offset="0.1224" style="stop-color:#FEB9B8"/>
					<stop  offset="1" style="stop-color:#FFDEDE"/>
				</linearGradient>
				<path fill="url(#SVGID_8_)" d="M384.535,152.493c0,0-0.85-0.84-1.15-0.173c-0.302,0.667,0.379,1.415,0.818,1.775
					c0.438,0.36,0.76,0.457,0.883,0.257c0.123-0.199-0.209-0.923-0.209-0.923L384.535,152.493z"/>
				
					<linearGradient id="SVGID_9_" gradientUnits="userSpaceOnUse" x1="3660.1265" y1="-45.416" x2="3661.2603" y2="-45.416" gradientTransform="matrix(-0.9943 0.1065 0.1065 0.9943 4028.8311 -191.5432)">
					<stop  offset="0.1224" style="stop-color:#FCA4B5"/>
					<stop  offset="0.9896" style="stop-color:#FFADB7"/>
				</linearGradient>
				<path fill="url(#SVGID_9_)" d="M384.412,152.507c0,0-0.542-0.48-0.764-0.104c-0.222,0.375-0.027,1.031,0.545,1.577
					c0.549,0.197,0.627-0.04,0.62-0.108s-0.219-0.37-0.248-0.64C384.537,152.963,384.412,152.507,384.412,152.507z"/>
			</g>
			<g>
				<path fill="#FEBFBF" d="M394.48,169.61l0.412-0.964c0,0,1.133-0.333,1.396-0.278c0.263,0.055,2.145,0.874,2.145,0.874
					s0.844,0.747,0.276,1.029c-0.567,0.281-1.106,0.237-1.106,0.237l-0.048,0.585l-0.917,0.715l-0.912-0.013l-0.732-0.586
					l-0.79-0.144c0,0-0.556-0.806-0.39-0.971c0.167-0.164,0.674-0.072,0.674-0.072l0.465,0.051L394.48,169.61z"/>
				<g>
					<path fill="#C4C8D8" d="M393.28,170.492c-0.055,0.023,0.021,0.412,0.024,0.422c0.007,0.016,0.084,0.015,0.21-0.006
						c1.937-0.319,3.143-0.518,5.073-0.837c0.211-0.035,0.514-0.114,0.658-0.175c0.002,0,0.003-0.001,0.005-0.002
						c0.63-0.264,1.255-0.527,1.885-0.791c0.053-0.022,0.079-0.04,0.079-0.051c0-0.004-0.029-0.408-0.036-0.41
						c-0.024-0.007-0.355,0.134-0.465,0.153c-1.932,0.319-2.846,0.78-4.782,1.099c-0.209,0.033-0.516,0.117-0.663,0.177
						c-0.629,0.264-1.354,0.155-1.982,0.419C393.284,170.49,393.282,170.491,393.28,170.492L393.28,170.492z"/>
					<path fill="#F5F5F5" d="M400.989,168.718c-0.616,0.258-1.235,0.518-1.851,0.777c-0.12,0.05-0.375,0.119-0.557,0.148
						c-1.911,0.315-3.098,0.511-5.014,0.827c-0.182,0.03-0.226,0.011-0.105-0.04c0.615-0.259,1.234-0.519,1.851-0.776
						c0.12-0.051,0.37-0.118,0.552-0.148c1.916-0.315,3.103-0.511,5.014-0.827C401.06,168.649,401.109,168.667,400.989,168.718
						L400.989,168.718z M393.342,170.456c-0.145,0.061-0.069,0.077,0.136,0.044c1.937-0.319,3.142-0.519,5.073-0.837
						c0.211-0.036,0.514-0.114,0.658-0.175c0.001-0.001,0.003-0.001,0.005-0.002c0.629-0.264,1.255-0.527,1.884-0.791
						c0.139-0.059,0.097-0.085-0.13-0.046c-1.932,0.318-3.137,0.517-5.073,0.836c-0.209,0.033-0.515,0.116-0.663,0.177
						c-0.629,0.264-1.255,0.526-1.885,0.791C393.346,170.455,393.344,170.455,393.342,170.456L393.342,170.456z"/>
					<path fill="#7C78F0" d="M400.058,169.049c-0.153,0.063-0.307,0.128-0.46,0.192l-0.046,0.012l-0.008-0.003
						c0.153-0.064,0.307-0.128,0.459-0.192l0.042-0.011L400.058,169.049L400.058,169.049z M399.516,169.282l-0.087,0.022
						l-0.016-0.006l0.086-0.023L399.516,169.282L399.516,169.282z M399.405,169.335l-0.129,0.034l-0.023-0.009l0.123-0.033
						L399.405,169.335L399.405,169.335z M393.462,170.431c-0.12,0.05-0.076,0.069,0.105,0.04c1.916-0.316,3.103-0.512,5.014-0.827
						c0.182-0.03,0.437-0.099,0.557-0.148c0.615-0.259,1.234-0.519,1.851-0.777c0.12-0.051,0.071-0.068-0.11-0.039
						c-1.911,0.315-3.098,0.511-5.014,0.827c-0.182,0.03-0.432,0.098-0.552,0.148C394.697,169.912,394.078,170.172,393.462,170.431
						L393.462,170.431z"/>
					<path fill="#2A2A2C" d="M399.544,169.25c0.153-0.064,0.307-0.128,0.459-0.192l0.042-0.011l0.013,0.002
						c-0.153,0.063-0.307,0.128-0.46,0.192l-0.046,0.012L399.544,169.25L399.544,169.25z"/>
					<path fill="#838383" d="M399.375,169.34l-0.082,0.022l-0.011-0.007l0.074-0.02L399.375,169.34L399.375,169.34z M399.252,169.36
						l0.023,0.009l0.129-0.034l-0.029-0.008L399.252,169.36L399.252,169.36z"/>
					<polygon fill="#516F83" points="399.282,169.355 399.356,169.335 399.375,169.34 399.292,169.362 399.282,169.355 					"/>
					<polygon fill="#2A2A2C" points="399.414,169.299 399.5,169.275 399.516,169.282 399.429,169.305 399.414,169.299 					"/>
				</g>
				
					<linearGradient id="SVGID_10_" gradientUnits="userSpaceOnUse" x1="3649.0249" y1="-26.5195" x2="3651.9165" y2="-26.5195" gradientTransform="matrix(-0.9943 0.1065 0.1065 0.9943 4028.8311 -191.5432)">
					<stop  offset="0.1224" style="stop-color:#FCA4B5"/>
					<stop  offset="0.9896" style="stop-color:#FFADB7"/>
				</linearGradient>
				<polygon fill="url(#SVGID_10_)" points="397.692,170.223 397.621,170.414 397.757,170.491 397.684,171.006 396.197,171.376 
					394.912,171.063 396.235,171.133 397.341,170.638 397.361,170.396 396.048,170.509 				"/>
				
					<linearGradient id="SVGID_11_" gradientUnits="userSpaceOnUse" x1="3649.8569" y1="-28.1353" x2="3651.6274" y2="-28.5898" gradientTransform="matrix(-0.9943 0.1065 0.1065 0.9943 4028.8311 -191.5432)">
					<stop  offset="0.1224" style="stop-color:#FEB9B8"/>
					<stop  offset="1" style="stop-color:#FFDEDE"/>
				</linearGradient>
				<path fill="url(#SVGID_11_)" d="M395.264,169.029c0,0,0.116,0.742,0.236,0.83s0.454,0.034,0.558-0.29
					c0.104-0.324,0.129-0.511,0.129-0.511l0.396,0.179c0,0,0.686-0.561,0.124-0.823c-0.562-0.262-1.243-0.263-1.243-0.263
					s-0.399,0.23-0.366,0.282C395.132,168.485,395.264,169.029,395.264,169.029z"/>
				
					<linearGradient id="SVGID_12_" gradientUnits="userSpaceOnUse" x1="3649.2456" y1="-28.166" x2="3650.7271" y2="-28.166" gradientTransform="matrix(-0.9943 0.1065 0.1065 0.9943 4028.8311 -191.5432)">
					<stop  offset="0.1224" style="stop-color:#FCA4B5"/>
					<stop  offset="0.9896" style="stop-color:#FFADB7"/>
				</linearGradient>
				<polygon fill="url(#SVGID_12_)" points="396.203,168.606 396.174,169.55 395.979,169.863 396.245,169.735 396.689,169.529 
					397.416,169.366 396.937,169.355 396.986,168.872 396.413,169.355 				"/>
			</g>
		</g>
	</g>
</g>
</svg>
