<?xml version="1.0" encoding="utf-8"?>
<!-- Generator: Adobe Illustrator 16.0.0, SVG Export Plug-In . SVG Version: 6.00 Build 0)  -->
<!DOCTYPE svg PUBLIC "-//W3C//DTD SVG 1.1//EN" "http://www.w3.org/Graphics/SVG/1.1/DTD/svg11.dtd">
<svg version="1.1" id="Layer_1" xmlns="http://www.w3.org/2000/svg" xmlns:xlink="http://www.w3.org/1999/xlink" x="0px" y="0px"
	 width="463.683px" height="425.749px" viewBox="0 0 463.683 425.749" enable-background="new 0 0 463.683 425.749"
	 xml:space="preserve">
<g>
	<path fill="#D7E4F2" d="M115.81,182.772c3.46,1.997,9.087,1.987,12.569-0.023c3.482-2.01,3.5-5.259,0.04-7.256
		c-3.46-1.998-9.087-1.988-12.569,0.022C112.368,177.525,112.351,180.774,115.81,182.772z"/>
	<path fill="#8E8E8E" d="M120.81,178.589l-0.164,0.179c0,0,0.036,0.583,0.211,0.859c0.174,0.277,0.745,0.359,2.038,0.335
		s1.933-0.943,2.224-1.316s0.291-0.373,0.291-0.373l0.431-0.57l1.048-0.804c0,0,0.268-0.606,0.198-0.908
		c-0.07-0.303-1.281-0.326-1.281-0.326l-1.712,1.937L120.81,178.589z"/>
	<path fill="#848484" d="M127.098,179.206c0,0-0.384,0.128-0.605-0.047s-0.429-1.295-0.529-1.55c-0.1-0.255-0.403-0.488-0.403-0.488
		s0.301-0.873,0.769-1.013s0.769,0,0.769,0s-0.303,0.932-0.233,1.292S127.11,179.112,127.098,179.206z"/>
	<path fill="#C2D2EA" d="M123.081,177.028c0,0-1.257,0.641-1.735,0.757s-0.757,0.501-0.71,0.926c0.047,0.425,0.629,0.634,1.362,0.82
		c0.734,0.187,1.747,0.233,2.445-1.141c0.699-1.374,1.316-2.341,1.793-2.398c0.478-0.059,0.85,0,0.85,0s0.221-0.874-0.594-1.433
		c-0.815-0.559-1.816,0.408-1.816,0.408L123.081,177.028z"/>
	<path fill="#FFA1A3" d="M121.211,141.338c0,0-2.05,5.729-1.304,10.76c0.745,5.03,3.198,18.703,3.427,20.001
		c0.189,1.07,1.006,4.442-0.819,5.231c-0.749,0.586-0.539,1.103,0.186,0.879c0.726-0.224,0.996-1.796,1.804-2.31
		c1.414-0.899,2.157-0.59,2.033-1.136c-0.124-0.546-0.718-3.141-0.78-7.426c-0.062-4.285-1.408-8.341-1.285-9.277
		c0.124-0.937,2.179-6.437,2.358-9.716C126.968,145.805,127.701,142.409,121.211,141.338z"/>
	<path fill="#8E8E8E" d="M116.404,180.427c0,0-0.894-0.605-0.861-0.269c0.033,0.337,0.275,0.807,0.403,0.979
		c0.128,0.172,1.296,0.757,2.367,0.664s1.293-0.454,1.677-0.908c0.384-0.454,0.734-0.874,0.967-0.874s1.327,0.21,1.956-0.232
		c0.629-0.443,0.602-0.995,0.602-0.995l-1.382,0.215l-2.678,1.106L116.404,180.427z"/>
	<path fill="#848484" d="M121.179,179.717c0,0,0.617,0.457,0.664,0.589c0.047,0.133,0.093,0.948,0.093,1.064s0.5,0.084,0.5,0.084
		s-0.023-1.109,0.163-1.388c0.187-0.279,0.513-0.699,0.513-0.699S121.877,179.822,121.179,179.717z"/>
	<path fill="#CBDCF5" d="M118.792,178.995c0,0-0.815,0.233-1.304,0.361c-0.489,0.128-1.755,0.283-1.918,0.609
		c-0.163,0.326,0.486,0.789,0.917,1.08c0.431,0.291,1.537,0.559,2.306,0.314s1.246-1.654,2.096-1.712
		c0.851-0.058,1.526,0.14,2.225-0.279c0.698-0.419,0.698-2.375,0-2.177C122.413,177.388,118.792,178.995,118.792,178.995z"/>
	<path fill="#FFB1B2" d="M117.872,143.073c0,0-2.049,5.729-1.304,10.76s3.726,20.751,3.54,22.056
		c-0.187,1.305,0.124,2.082-2.019,3.479c-0.59,0.746-0.202,1.583,0.45,1.196c0.652-0.389,1.057-1.346,2.625-1.936
		s2.157-0.59,2.032-1.136c-0.124-0.546-0.718-4.134-0.78-8.419c-0.062-4.285-1.408-8.341-1.285-9.277
		c0.124-0.936,2.179-6.437,2.358-9.716C123.628,147.54,124.361,144.145,117.872,143.073z"/>
	<path fill="#565388" d="M125.562,140.775c0,0,2.657,2.248,1.991,8.303c-0.666,6.056-0.666,6.056-0.666,6.056
		s-1.553,1.94-5.139,2.639s-4.559,0.738-6.288-0.22c-1.578-0.875-1.352-2.244-1.352-2.383c0-0.14,0.759-10.184,2.615-12.64
		S125.562,140.775,125.562,140.775z"/>
	<path fill="#E6F1FF" d="M126.826,126.42c0.547,0.078,1.316,0.411,1.204,2.643c-0.144,2.854-1.056,7.359-1.056,7.639
		s-1.386,2.64-3.255,3.54c-1.868,0.9-1.589-3.696-1.589-3.696l3.073-9.907C125.203,126.639,126.304,126.346,126.826,126.42z"/>
	<path fill="#DDE8F6" d="M116.167,143.552c0,0,0.203-3.852-0.271-4.921c-0.475-1.071-1.273-3.482-1.235-4.623
		c0.038-1.141,0.794-2.146,1.768-3.159c0.974-1.013,4.253-2.759,5.71-3.239s3.832-1.563,4.809-0.863
		c0.978,0.701,1.304,2.066-0.245,6.378c-0.8,2.229-1.162,4.711-1.251,6.37c-0.04,0.745,0.579,2.272,0.632,2.552
		c0.109,0.577-1.084,2.036-4.868,2.783C117.432,145.577,116.167,143.552,116.167,143.552z"/>
	<path fill="#A8B0C2" d="M114.109,155.169c0,0.098-0.11,0.785,0.348,1.486c-0.041-2.121,0.694-5.653,1.042-7.17
		c0.436-1.908,1.953-4.922,1.953-4.922c-0.055-0.699,0.361-1.699,0.456-2.961c0.222-2.991,0.701-6.652,0.701-6.652
		s-2.235,0.938-3.823,0.188c0.236,1.197,0.761,2.705,1.109,3.492c0.475,1.07,0.271,4.92,0.271,4.92
		C114.715,147.012,114.109,155.045,114.109,155.169z"/>
	<path fill="#E6F1FF" d="M114.804,142.458c0,0-0.012-8.177,0.431-10.048c0.443-1.871,3.348-0.676,3.303,1.371
		c-0.045,2.047-0.932,8.574-1.166,8.858C117.139,142.924,114.863,144.508,114.804,142.458z"/>
	<path fill="#FFADB7" d="M117.458,126.275c0.024,0.155,0.095,0.258,0.193,0.324c0.255,0.175,0.696,0.103,0.999,0.086
		c0.544-0.03,0.351,0.675,0.456,2.433c0.203,0.05,0.422,0.083,0.651,0.1c1.555,0.134,3.535-0.408,3.714-1.063
		c0.098-0.368-0.83-0.833-1.186-1.648c-0.358-0.818-0.093-2.507-0.093-2.507s-1.429-3.54-3.215-3.074
		c-1.77,0.463-1.023,3.268-1.417,4.618c-0.004,0.014-0.007,0.026-0.012,0.041C117.453,125.887,117.429,126.111,117.458,126.275z"/>
	
		<linearGradient id="SVGID_1_" gradientUnits="userSpaceOnUse" x1="2736.1421" y1="127.2769" x2="2738.8501" y2="127.576" gradientTransform="matrix(-1 0 0 1 2855.7451 0)">
		<stop  offset="0.1224" style="stop-color:#FCA4B5"/>
		<stop  offset="0.9896" style="stop-color:#FFADB7"/>
	</linearGradient>
	<path fill="url(#SVGID_1_)" d="M117.458,126.275l0.193,0.324c0.255,0.175,0.696,0.103,0.999,0.086
		c0.544-0.03,0.351,0.675,0.456,2.433c0.203,0.05,0.422,0.083,0.651,0.1c0.594-0.61-0.208-2.247,0.086-2.743
		c0.322-0.546,0.725-0.923,0.725-0.923l-3.007-0.009c-0.004,0.014-0.007,0.026-0.012,0.041
		C117.453,125.887,117.429,126.111,117.458,126.275z"/>
	<path fill="#FFFFFF" d="M119.085,128.702c0,0,1.468,0.157,2.66-0.193c1.193-0.351,1.35-0.783,1.35-0.783l-0.345-0.536
		c0,0,0.204-0.057,0.345,0.046s0.656,0.9,0.656,0.9s-0.554,1.234-2.84,1.356c-1.957,0.104-2.204-0.065-2.204-0.065l-0.886,0.362
		L119.085,128.702z"/>
	<path fill="#FEBFBF" d="M116.792,119.374c0,0-0.755,1.408-0.755,2.481c0,1.073,0.068,1.132-0.165,1.749
		c-0.232,0.617,0.265,1.153,0.265,1.153s0.417,2.187,1.312,2.444c0.895,0.259,2.287-1.019,2.663-1.297
		c0.376-0.279,0.968-1.067,1.279-2.021C121.701,122.929,119.594,118.265,116.792,119.374z"/>
	<path fill="#FF5288" d="M117.021,120.445c0,0,0.34,0.403,0.427,1.553c0.086,1.149,0.262,1.863,0.262,1.863l0.228,0.202
		c0,0,0.311-0.989,1.382-0.96c1.071,0.028,1.149,1.022,0.73,1.535c-0.244,0.297,0.062,1.267,0.062,1.267s0.124,0.053,0.729,0.379
		s1.457-0.214,1.457-0.214s0.466-0.62,1.491-1.147c1.025-0.528,2.115-1.642,2.208-3.381c0.093-1.739-0.829-3.745-3.018-4.257
		c-2.189-0.512-3.093-0.339-4.199-0.1c-0.972,0.211-1.714,0.367-2.226,1.081c-0.512,0.715,0.143,1.753,0.126,1.886
		c-0.017,0.132-0.543,0.559-0.543,0.559S116.462,121.252,117.021,120.445z"/>
	
		<linearGradient id="SVGID_2_" gradientUnits="userSpaceOnUse" x1="-6458.4111" y1="124.605" x2="-6455.8374" y2="123.4423" gradientTransform="matrix(1 0 0 1 6576.5723 0)">
		<stop  offset="0.1224" style="stop-color:#FEB9B8"/>
		<stop  offset="1" style="stop-color:#FFDEDE"/>
	</linearGradient>
	<path fill="url(#SVGID_2_)" d="M118.551,123.573c0,0,0.355-0.751,1.166-0.53s0.657,1.145-0.212,1.972
		c-0.869,0.826-1.081-0.148-1.123-0.212S118.763,124.146,118.551,123.573z"/>
	
		<linearGradient id="SVGID_3_" gradientUnits="userSpaceOnUse" x1="-6457.1235" y1="123.6851" x2="-6457.8438" y2="124.5954" gradientTransform="matrix(1 0 0 1 6576.5723 0)">
		<stop  offset="0.1224" style="stop-color:#FCA4B5"/>
		<stop  offset="0.9896" style="stop-color:#FFADB7"/>
	</linearGradient>
	<path fill="url(#SVGID_3_)" d="M118.845,123.685c0,0,0.358-0.422,0.706-0.239c0.535,0.282-0.238,1.158-0.313,1.27
		c-0.075,0.112-0.469,0.067-0.514-0.201C118.678,124.247,119.118,124.023,118.845,123.685z"/>
	<circle fill="#F8FBFF" cx="118.859" cy="125.112" r="0.177"/>
	<path fill="#FEBFBF" d="M111.515,152.347c0,0-0.082,0.656-0.083,1.105c0,0.075,0.002,0.134,0.01,0.174
		c0.052,0.281,0.063,0.855,0.063,0.855s0.013,0.057,0.033,0.139c0.042,0.16,0.517,0.121,0.692,0.277
		c0.073,0.065,0.281-0.089,0.281-0.089l0.246-0.217c0,0,0.153,0.088,0.283,0.032l0-0.001c0.026-0.011,0.051-0.027,0.074-0.051
		c0.139-0.149,0.349-1.083,0.356-1.122c0.008-0.039,0.471-1.549,0.471-1.549l-0.143-2.078c0,0-0.636-0.222-1.023-0.228
		c-0.065,0-0.111,0.008-0.128,0.029c-0.125,0.152-0.982,1.854-0.982,1.854s-0.35,0.6-0.737,1.146
		c-0.044,0.063-0.218,0.586,0.169,0.368C111.271,152.893,111.515,152.347,111.515,152.347z"/>
	<path fill="#E6F1FF" d="M112.288,150.074c0,0,0.322-1.465,0.787-2.596c0.466-1.13,1.686-4.821,1.851-5.016
		c0.165-0.196,1.868-1.167,2.574-0.055c-0.568,1.867-3.424,6.95-3.539,7.523S112.509,150.534,112.288,150.074z"/>
	
		<linearGradient id="SVGID_4_" gradientUnits="userSpaceOnUse" x1="2739.4731" y1="124.0015" x2="2740.1472" y2="124.1836" gradientTransform="matrix(-1 0 0 1 2855.7451 0)">
		<stop  offset="0" style="stop-color:#FEB9B8"/>
		<stop  offset="0.4054" style="stop-color:#FCA4B5"/>
	</linearGradient>
	<path fill="url(#SVGID_4_)" d="M116.136,124.757c0,0,0.277,0.266,0.179-0.825c-0.065-0.713-0.3-0.678-0.354-0.583
		C115.877,123.495,115.544,124.087,116.136,124.757z"/>
	<path fill="#FF77A1" d="M124.732,119.21c0,0,2.117-1.371,3.308,1.114c1.51,3.15-2.038,4.957-1.748,7.931
		c0.286,2.938,2.037,2.213,2.037,2.213s-7.451,2.398-5.814-3.056c0.474-1.579,5.163-5.743,2.15-6.513
		C123.237,120.086,124.732,119.21,124.732,119.21z"/>
	<path fill="#F8FBFF" d="M124.732,119.21c0,0-0.948,0.519,0.004,1.708c0.047-0.05,0.53,0.241,0.53,0.241s0.381,0.305,0.382,0.58
		c-0.152,0.154-0.876,0.017-1.055-0.07c-0.825-0.4-1.192-1.575-0.693-2.202c0.417-0.524,0.924-0.455,1.093-0.385
		C124.921,119.172,124.732,119.21,124.732,119.21z"/>
</g>
</svg>
