<?xml version="1.0" encoding="utf-8"?>
<!-- Generator: Adobe Illustrator 16.0.0, SVG Export Plug-In . SVG Version: 6.00 Build 0)  -->
<!DOCTYPE svg PUBLIC "-//W3C//DTD SVG 1.1//EN" "http://www.w3.org/Graphics/SVG/1.1/DTD/svg11.dtd">
<svg version="1.1" id="Layer_1" xmlns="http://www.w3.org/2000/svg" xmlns:xlink="http://www.w3.org/1999/xlink" x="0px" y="0px"
	 width="463.683px" height="425.749px" viewBox="0 0 463.683 425.749" enable-background="new 0 0 463.683 425.749"
	 xml:space="preserve">
<g>
	<path fill="#B24E6D" d="M356.86,151.342c0,0,1.532-0.475,2.786,0.512c1.433,1.128,0.662,3.56,0.228,4.568
		c-0.467,1.087-0.788,3.364,0.658,4.223c-0.358,0.904-2.612,0.148-3.295-0.282C356.555,159.933,353.934,153.824,356.86,151.342z"/>
	<g>
		<path fill="#D7E4F2" d="M346.191,217.984c4.183,2.662,11.16,2.95,15.584,0.645c4.425-2.307,4.62-6.333,0.438-8.995
			s-11.16-2.95-15.584-0.645C342.205,211.296,342.008,215.322,346.191,217.984z"/>
		<g>
			<path fill="#FFA1A3" d="M352.004,208.755c0,0,1.117,0.945,0.963,1.523c-0.155,0.577-2.334,4.153-3.488,4.573
				c-2.402,0.874-1.856-1.335-1.461-1.793c0.348-0.403,1.74-1.519,1.715-2.56C349.698,209.095,352.004,208.755,352.004,208.755z"/>
			<path fill="#8E8E8E" d="M351.782,212.072c0,0,0.406,0.133,0.414,0.441c0.009,0.309,0.059,1.47,0.059,1.47s0.273,0.143,0.425,0.07
				s0.363-0.439,0.363-0.439s0.19-2.287,0.302-2.752S351.782,212.072,351.782,212.072z"/>
			<path fill="#C2D2EA" d="M353.071,209.403c0,0-1.598,1.948-2.225,3.23c-0.627,1.281-1.315,1.801-1.829,1.784
				c-0.818-0.026-1.352-0.524-1.175-0.942c0.176-0.417,0.176-0.417,0.176-0.417s-2.076,2.21-1.795,3.586s3.924-0.551,4.476-1.269
				c0.211-0.274,0.621-2.271,1.095-2.842c0.475-0.571,1.22-0.333,1.518-1.496C353.609,209.876,353.071,209.403,353.071,209.403z"/>
			<path fill="#8E8E8E" d="M351.894,212.259c-0.474,0.57-1.079,2.668-1.289,2.943c-0.514,0.668-3.717,2.343-4.384,1.418
				c0.001,0.008,0.001,0.017,0.002,0.024c0.281,1.376,3.924-0.551,4.476-1.269c0.211-0.274,0.621-2.271,1.095-2.842
				c0.413-0.497,1.258-0.345,1.461-1.308C352.916,211.465,352.238,211.845,351.894,212.259z"/>
			<path fill="#8E8E8E" d="M360.05,208.343c0,0,0.599-0.147,0.578,0.161c-0.021,0.308-0.201,2.225-0.201,2.225
				s0.13,0.14,0.287,0.081s0.403-0.403,0.403-0.403s0.334-1.865,0.349-2.343C361.484,207.496,360.05,208.343,360.05,208.343z"/>
			
				<linearGradient id="SVGID_1_" gradientUnits="userSpaceOnUse" x1="1074.1226" y1="239.0488" x2="1078.4624" y2="239.0488" gradientTransform="matrix(-0.9957 -0.0923 -0.0923 0.9957 1452.5281 70.251)">
				<stop  offset="0.1224" style="stop-color:#FEC7C7"/>
				<stop  offset="0.9694" style="stop-color:#FFADB7"/>
			</linearGradient>
			<path fill="url(#SVGID_1_)" d="M360.346,205.646c0,0,0.846,0.756,0.782,1.673c-0.062,0.9-1.377,4.503-2.551,4.866
				c-1.173,0.362-2.29-0.443-2.167-0.962c0.122-0.519,1.226-2.088,1.572-3.357C358.352,206.511,360.346,205.646,360.346,205.646z"/>
			<path fill="#C2D2EA" d="M358.005,207.333c0,0-0.952,1.588-1.386,2.681c-0.946,2.382-0.959,3.444-0.811,4.03
				c0.156,0.611,1.924,0.159,3.211-0.79c1.476-1.089,0.928-2.509,1.865-3.871c0.305-0.442,0.582-0.761,0.631-1.849
				c0.058-0.922-0.74-1.346-0.74-1.346s0.571,0.966,0.204,1.731c-0.186,0.385-0.132,0.558-0.406,1.037
				c-0.545,0.954-0.675,1.907-1.422,2.579c-0.702,0.632-2.662,0.125-2.589-0.266c0.135-0.721,0.832-1.912,1.118-2.58
				C358.022,207.896,358.005,207.333,358.005,207.333z"/>
			<path fill="#8E8E8E" d="M360.832,209.276c-0.938,1.361-0.346,2.693-1.821,3.781c-1.19,0.879-2.896,1.352-3.225,0.895
				c0.008,0.031,0.017,0.062,0.023,0.092c0.156,0.611,1.924,0.159,3.211-0.79c1.476-1.089,0.928-2.509,1.865-3.871
				c0.199-0.288,0.494-0.57,0.553-1.154C361.263,208.534,360.979,209.062,360.832,209.276z"/>
			<g>
				<path fill="#738E9E" d="M353.097,196.222c-0.001,0.002-0.001,0.002-0.001,0.004c-0.022,0.099-0.049,0.192-0.078,0.278
					c-0.094,0.278-0.267,0.501-0.492,0.672c0,0,0,0,0,0.002c-1.101,0.851-3.423,0.49-3.665-0.347
					c-0.66-2.285-1.462-8.451-1.977-11.471c-0.517-3.019,0.646-8.207,0.646-8.207s5.461,1.887,6.444,2.568
					c0.585,0.403,0.344,3.313-0.012,5.898c-0.242,1.775-0.541,3.397-0.663,3.951C353.015,190.86,353.519,194.444,353.097,196.222z"
					/>
				<path fill="#738E9E" d="M352.578,209.68c-0.022,0.22-0.179,0.418-0.422,0.561c-0.526,0.31-1.46,0.354-2.351-0.255
					c0,0-1.056-14.286-1.992-18.646c1.638-0.367,4.099,4.397,4.809,4.351c0.345-0.022,0.52,0.115,0.476,0.531
					c-0.001,0.002-0.001,0.002-0.001,0.004c-0.139,1.275,0.678,5.058,0.467,6.539C353.351,204.248,352.651,208.985,352.578,209.68z"
					/>
				<path fill="#A8B0C2" d="M352.578,209.68c-0.022,0.22-0.179,0.418-0.422,0.561c0.143-1.772,0.383-4.005,0.71-5.62
					c0.476-2.35-0.269-5.709-0.34-7.442c0-0.002,0-0.002,0-0.002c-0.012-0.309-0.002-0.604,0.044-0.88
					c0.03-0.182,0.046-0.385,0.052-0.604c0.063-1.976-0.697-5.246-0.525-6.454c0.064-0.451,0.18-1.66,0.021-2.349
					c-0.314-1.357-1.077-2.252-1.077-2.252c1.176,0.105,2.139,0.45,2.924,0.983c-0.242,1.775-0.541,3.397-0.663,3.951
					c-0.285,1.289,0.219,4.873-0.203,6.65c-0.001,0.002-0.001,0.002-0.001,0.004c-0.139,1.275,0.678,5.058,0.467,6.539
					C353.351,204.248,352.651,208.985,352.578,209.68z"/>
				<path fill="#738E9E" d="M350.268,181.274c0,0-0.098,1.823,0.546,2.997c0.644,1.173,1.798,1.986,1.798,1.986
					s1.861,7.472,3.538,10.45c0.752,1.335,3.217,0.945,3.42-1.431c0.204-2.377,0.22-4.483,1.126-9.706
					c0.221-1.272,0.277-3.555-1.453-6.018C357.513,177.09,350.268,181.274,350.268,181.274z"/>
				<g>
					<g>
						<path fill="#92BACF" d="M356.64,184.593c-2.734-0.118-2.965-1.957-2.968-1.977l0.244-0.027
							c0.009,0.075,0.248,1.82,3.146,1.762l0.006,0.245C356.918,184.6,356.776,184.599,356.64,184.593z"/>
					</g>
					<path fill="#AF727B" d="M360.18,181.231c0,0-2.216,0.65-5.458,0.757c-3.241,0.107-4.462-0.242-5.53-0.861
						c-1.069-0.619-1.714-1.483-1.714-1.483l0.23-1.438c0,0,0.591,1.107,2.116,1.751c1.526,0.644,4.843,0.593,6.194,0.507
						c1.352-0.087,3.919-0.929,3.919-0.929L360.18,181.231z"/>
					<path fill="#738E9E" d="M353.152,180.577c0,0-0.098,0.413-0.121,0.895c-0.023,0.481-0.027,1.362-0.027,1.362l-0.489-0.041
						c0,0-0.069-0.843-0.041-1.271c0.027-0.428,0.153-1.03,0.153-1.03L353.152,180.577z"/>
					<path fill="#738E9E" d="M348.677,179.237c0,0-0.13,0.513-0.157,0.924s0.024,1.102,0.024,1.102l-0.319-0.425
						c0,0-0.035-0.701-0.021-0.924c0.015-0.223,0.21-0.891,0.21-0.891L348.677,179.237z"/>
					<g>
						<path fill="#92BACF" d="M347.046,181.699c-0.023-0.001-0.047-0.004-0.071-0.01l0.061-0.238
							c0.007,0.002,0.015,0.003,0.021,0.004c0.223,0.009,0.551-0.641,0.709-1.134l0.232,0.075
							C347.926,180.624,347.549,181.721,347.046,181.699z"/>
					</g>
					<g>
						<path fill="#CCDEFB" d="M350.734,182.058c-0.057-0.001-0.114-0.011-0.173-0.028l-0.908-0.27
							c-0.387-0.115-0.68-0.542-0.668-0.973l0.013-0.41c0.006-0.209,0.083-0.392,0.218-0.514c0.151-0.137,0.359-0.181,0.57-0.117
							l0.908,0.27c0.387,0.115,0.68,0.542,0.667,0.973l-0.012,0.411c-0.006,0.209-0.083,0.392-0.218,0.513
							C351.022,182.012,350.882,182.063,350.734,182.058z M349.61,180.188c-0.063-0.002-0.117,0.016-0.157,0.053
							c-0.042,0.038-0.063,0.092-0.065,0.161l-0.013,0.41c-0.006,0.202,0.165,0.431,0.365,0.49l0.908,0.271
							c0.097,0.028,0.188,0.015,0.246-0.039c0.042-0.038,0.063-0.092,0.065-0.161l0.013-0.41c0.005-0.202-0.165-0.432-0.365-0.491
							l-0.908-0.27C349.668,180.194,349.638,180.189,349.61,180.188z"/>
					</g>
				</g>
				<path fill="#738E9E" d="M356.199,195.606c0,0-0.541,0.193-0.049,1.101c0.492,0.908,2.526,7.094,2.146,10.283
					c1.046,0.96,2.223,0.668,2.556-0.339c0.332-1.006,0.681-7.88,0.229-9.269c-0.45-1.389-1.502-2.141-1.427-3.183
					S356.199,195.606,356.199,195.606z"/>
				<g>
					<path fill="#92BACF" d="M360.703,207.155l-0.243-0.031c0.97-7.645-0.545-10.256-1.043-11.115l-0.05-0.085
						c-0.491-0.859-0.138-6.069,0.189-8.622c0.462-3.617-1.117-5.593-1.133-5.613l0.188-0.156c0.068,0.083,1.664,2.071,1.188,5.799
						c-0.373,2.912-0.63,7.751-0.219,8.469l0.048,0.085C360.137,196.763,361.683,199.428,360.703,207.155z"/>
				</g>
			</g>
		</g>
		<g>
			<path fill="#FEBFBF" d="M347.735,165.402c0,0-1.872,3.437-2.3,5.958c-0.429,2.521,1.292,1.062,1.997,0.343
				C348.135,170.985,352.739,163.021,347.735,165.402z"/>
			<path fill="#B9D3E1" d="M352.591,159.453l-1.985-0.035c0,0-1.936,0.557-2.445,1.622c-0.511,1.065-1.141,3.722-1.141,3.722
				s0.564,1.05,1.236,1.38C348.928,166.471,352.591,159.453,352.591,159.453z"/>
			<path fill="#B9D3E1" d="M347.02,164.762c0,0-1.457,4.644-1.653,5.163c-0.196,0.52,0.875,0.783,1.031,1.341
				c0.155,0.558-0.181,1.399-0.108,1.358c0.073-0.041,0.533-0.24,1.024-0.803s2.506-5.398,2.214-5.99
				C349.237,165.239,347.02,164.762,347.02,164.762z"/>
			<path fill="#FFFFFF" d="M359.768,181.177c0,0-1.015-0.052-2.998,0.206c-1.982,0.258-6.135,0.567-8.497-1.571
				c-1.572-1.378-1.232-1.368-1.192-1.65s0.556-4.281,0.452-5.954c-0.104-1.672-0.556-2.421-0.198-3.668
				c0.357-1.246,0.779-1.799,1.068-3.325s0.974-4.336,1.127-4.541c1.02-1.361,3.238-1.243,3.611-1.208
				c0.228,0.022,4.218,0.556,4.218,0.556s0.728-0.004,1.566,0.81c0.887,0.86,2.707,2.196,2.707,2.196l-1.78,13.008L359.768,181.177z
				"/>
			<path fill="#92BACF" d="M353.141,159.466c0,0-1.499-0.319-2.605,0.174s-1.479,2.076-1.912,3.822s-1.46,3.986-1.715,6.279
				c-0.254,2.294-0.219,7.865-0.219,7.865l0.55-0.75c0,0,0.356-1.938,0.454-3.831c0.09-1.73-0.081-3.426-0.014-3.531
				c0.142-0.221,3.27-7.435,3.529-7.747C351.468,161.434,352.598,159.664,353.141,159.466z"/>
			
				<linearGradient id="SVGID_2_" gradientUnits="userSpaceOnUse" x1="1435.0698" y1="214.6035" x2="1435.9252" y2="214.1836" gradientTransform="matrix(0.9991 0.0431 -0.0431 0.9991 -1078.2738 -105.6812)">
				<stop  offset="0.1224" style="stop-color:#FEB9B8"/>
				<stop  offset="1" style="stop-color:#FFDEDE"/>
			</linearGradient>
			<path fill="url(#SVGID_2_)" d="M347.363,170.526c0,0-0.03,0.23-0.233,0.309s-0.744-0.221-0.744-0.221s-0.01-0.822,0.105-0.77
				c0.115,0.052,0.512,0.381,0.512,0.381S347.433,170.407,347.363,170.526z"/>
			<path fill="#FEBFBF" d="M356.888,159.366c0.138,0.013,0.474,0.555,1.075,0.883c0.602,0.329,0.617,0.413-0.151,1.059
				c-0.768,0.648-3.525,3.566-5.186,3.14s-1.51-2.053-1.417-2.702c0.092-0.649,1.149-2.093,1.479-2.222
				C353.017,159.396,356.888,159.366,356.888,159.366z"/>
			<path fill="#92BACF" d="M358.186,160.285c0,0-3.535,3.146-4.402,5.341c-0.866,2.196,0.148,5.808-1.584,14.66
				c0.296,1.329,9.788,0.823,9.444-1.642c-0.152-1.098-0.012-15.615-0.012-15.615S358.675,160.449,358.186,160.285z"/>
			<g>
				<path fill="#DBE8EF" d="M358.581,177.088c-1.421-0.332-3.707-1.954-3.804-2.022l0.142-0.2c0.024,0.017,2.345,1.663,3.718,1.983
					L358.581,177.088z"/>
			</g>
			<path fill="#A8B0C2" d="M358.47,167.032c0,0,0.021,6.029,0.093,7.264c0.072,1.233-0.753,8.05-0.753,8.05s1.424-0.228,1.658-0.549
				s0.678-7.415,0.398-9.247S358.47,167.032,358.47,167.032z"/>
			
				<linearGradient id="SVGID_3_" gradientUnits="userSpaceOnUse" x1="1760.4282" y1="175.5371" x2="1757.5778" y2="172.7555" gradientTransform="matrix(0.99 0.1411 -0.1411 0.99 -1360.9968 -261.7202)">
				<stop  offset="0.1224" style="stop-color:#FEC7C7"/>
				<stop  offset="0.9694" style="stop-color:#FFADB7"/>
			</linearGradient>
			<path fill="url(#SVGID_3_)" d="M352.285,158.94c0,0,0.266,0.7,0.177,1.322c-0.089,0.623-0.479,1.648-0.479,1.648
				s0.354,0.753,1.888,0.647c1.535-0.105,1.61-0.636,2.106-0.889c0.496-0.254,1.793-1.458,1.719-1.549s-1.314-0.775-0.753-2.57
				c0.561-1.795,1.317-2.705,1.317-2.705s0.456-0.745-0.072-0.82C357.661,153.949,352.285,158.94,352.285,158.94z"/>
			
				<linearGradient id="SVGID_4_" gradientUnits="userSpaceOnUse" x1="1755.4868" y1="175.2803" x2="1758.9565" y2="175.2803" gradientTransform="matrix(0.99 0.1411 -0.1411 0.99 -1360.9968 -261.7202)">
				<stop  offset="0.1224" style="stop-color:#FCA4B5"/>
				<stop  offset="0.9896" style="stop-color:#FFADB7"/>
			</linearGradient>
			<path fill="url(#SVGID_4_)" d="M355.892,158.22c0,0-1.354,1.163-1.655,1.77c-0.301,0.605-1.602,1.393-1.602,1.393l-0.156-1.377
				l-0.194-1.064L355.892,158.22z"/>
			<path fill="#FEC7C7" d="M352.274,150.479c0,0-0.573,0.418-0.974,1.334s-0.688,1.699-0.671,1.864
				c0.017,0.165,0.142,0.52-0.1,1.175c-0.242,0.655,0.294,4.001,1,4.359s4.075-0.622,4.465-1.08s1.414-2.339,1.584-3.625
				s0.612-2.778-1.225-3.634C354.516,150.015,352.274,150.479,352.274,150.479z"/>
			<g>
				
					<linearGradient id="SVGID_5_" gradientUnits="userSpaceOnUse" x1="1754.3794" y1="171.2222" x2="1753.6168" y2="171.274" gradientTransform="matrix(0.99 0.1411 -0.1411 0.99 -1360.9968 -261.7202)">
					<stop  offset="0.1224" style="stop-color:#FEC7C7"/>
					<stop  offset="0.9896" style="stop-color:#FFDBDB"/>
				</linearGradient>
				<path fill="url(#SVGID_5_)" d="M351.694,154.077c0.056,0.369-0.953,1.824-1.01,2.156c-0.057,0.332,0.883,0.349,0.883,0.349
					L351.694,154.077z"/>
				
					<linearGradient id="SVGID_6_" gradientUnits="userSpaceOnUse" x1="1753.4702" y1="171.252" x2="1754.4497" y2="171.252" gradientTransform="matrix(0.99 0.1411 -0.1411 0.99 -1360.9968 -261.7202)">
					<stop  offset="0.188" style="stop-color:#FFDCDC"/>
					<stop  offset="0.8991" style="stop-color:#FEC7C7"/>
				</linearGradient>
				<path fill="url(#SVGID_6_)" d="M351.51,156.629c-0.175-0.008-0.672-0.046-0.828-0.234c-0.042-0.05-0.058-0.108-0.047-0.17
					c0.024-0.146,0.208-0.472,0.422-0.849c0.275-0.486,0.618-1.093,0.588-1.292l0.098-0.016c0.036,0.233-0.287,0.804-0.6,1.356
					c-0.2,0.353-0.389,0.687-0.41,0.816c-0.006,0.034,0.002,0.063,0.025,0.09c0.128,0.154,0.63,0.202,0.81,0.2l-0.002,0.1
					C351.556,156.631,351.538,156.63,351.51,156.629z"/>
			</g>
			<g>
				<path fill="#754554" d="M354.311,154.238c-1.137-0.288-1.958-0.131-1.966-0.129l-0.032-0.162
					c0.035-0.007,0.865-0.165,2.039,0.131L354.311,154.238z"/>
			</g>
			<g>
				<path fill="#754554" d="M351.432,153.891c-0.224-0.17-0.609-0.397-0.725-0.376l-0.027-0.163
					c0.254-0.042,0.753,0.332,0.853,0.406L351.432,153.891z"/>
			</g>
			
				<ellipse transform="matrix(0.9476 0.3196 -0.3196 0.9476 68.0435 -104.7981)" fill="#FFFFFF" cx="353.337" cy="154.927" rx="0.348" ry="0.297"/>
			
				<ellipse transform="matrix(0.7287 -0.6848 0.6848 0.7287 -10.4768 282.3755)" fill="#FFFFFF" cx="351.178" cy="154.412" rx="0.245" ry="0.281"/>
			<path fill="#B24E6D" d="M352.582,157.807c0,0-0.94-0.37-1.323-0.438c-0.382-0.068-0.414,0.062-0.393,0.194
				C350.888,157.694,351.446,158.665,352.582,157.807z"/>
			<path fill="#BD627E" d="M358.033,155.021c0,0-0.287-0.405-0.521-0.283c-0.234,0.123-0.669,0.284-0.694,0.463
				s-0.23,1.143-0.23,1.143s-0.382-0.737-0.279-1.452c0.102-0.715-0.079-1.727-0.352-2.185c-0.272-0.458-0.537-1.158-1.221-1.295
				c-0.683-0.138-1.642-0.045-2.2-0.111c-0.559-0.066-0.778-0.275-0.778-0.275l-0.548,0.998c0,0,0.053-0.508,0.389-1.063
				c0.336-0.555,2.719-3.054,5.836-1.123c2.297,1.233,2.035,3.831,1.632,4.76c-0.402,0.929-1.542,1.721-1.666,2.006
				c-0.125,0.285-0.446,0.68-0.457,0.948c-0.012,0.269,0.174-1.002,0.423-1.534C357.616,155.483,358.033,155.021,358.033,155.021z"
				/>
		</g>
		<g>
			<path fill="#749982" d="M345.702,173.744c-0.65,0.253-1.69,0.208-2.32-0.103c-0.631-0.311-0.614-0.768,0.036-1.021
				c0.651-0.254,1.69-0.207,2.321,0.104S346.353,173.49,345.702,173.744z"/>
			<polygon fill="#749982" points="346.645,168.765 346.201,173.252 342.918,173.11 342.863,168.602 			"/>
			<path fill="#A89373" d="M345.862,171.835c-0.678-0.318-1.793-0.367-2.491-0.111c-0.698,0.257-0.714,0.723-0.037,1.04
				c0.678,0.317,1.793,0.367,2.491,0.11C346.523,172.619,346.54,172.153,345.862,171.835z"/>
			<polygon fill="#A89373" points="346.359,172.386 346.629,169.97 342.774,169.791 342.836,172.225 			"/>
			<path fill="#DEC7A7" d="M346.086,169.371c-0.742-0.334-1.964-0.388-2.729-0.121c-0.764,0.268-0.781,0.755-0.038,1.089
				c0.743,0.334,1.964,0.389,2.729,0.121C346.812,170.193,346.83,169.705,346.086,169.371z"/>
			<path fill="#FEBFBF" d="M342.903,170.246c0,0,0.135-0.286,0.072-0.44c-0.063-0.155-0.081-0.316-0.081-0.316l0.015-0.246
				l0.102-0.166c0,0-0.411-0.011-0.479,0.186s-0.161,0.706-0.161,0.706l0.261,0.296c0,0-0.28,0.044-0.334,0.153
				c-0.054,0.108-0.153,0.441-0.118,0.499c0.036,0.057,0.342,0.342,0.342,0.342s-0.183,0.124-0.197,0.211s-0.002,0.298,0.02,0.383
				c0.021,0.084,0.444,0.371,0.444,0.371s-0.105,0.146-0.127,0.278c-0.021,0.132,0.005,0.245,0.1,0.333
				c0.094,0.088,0.715,0.325,0.819,0.351c0.104,0.026,0.113-0.252,0.063-0.387c-0.05-0.135-0.578-0.275-0.578-0.275l0.016-0.26
				c0,0,0.405,0.062,0.479-0.113c0.074-0.176-0.073-0.38-0.132-0.408c-0.059-0.027-0.536-0.205-0.536-0.205l-0.102-0.098
				c0,0,0.385,0.081,0.484,0.08c0.1-0.002,0.2-0.176,0.192-0.294c-0.007-0.119-0.123-0.29-0.266-0.36
				c-0.143-0.07-0.331-0.298-0.331-0.298L342.903,170.246z"/>
			<path fill="#749982" d="M346.027,169.135c-0.703-0.346-1.862-0.397-2.588-0.115c-0.726,0.283-0.744,0.793-0.041,1.139
				c0.703,0.347,1.862,0.398,2.588,0.115C346.711,169.991,346.73,169.481,346.027,169.135z"/>
			<polygon fill="#749982" points="346.527,169.892 346.585,169.502 346.247,169.555 342.893,169.363 342.879,169.688 			"/>
			<path fill="#A19797" d="M346.15,169.805c-0.751,0.292-1.948,0.239-2.675-0.119c-0.728-0.358-0.708-0.885,0.042-1.177
				s1.948-0.239,2.675,0.119S346.9,169.513,346.15,169.805z"/>
			<path fill="#C5C9D8" d="M346.819,168.701l-0.312-0.014c-0.081-0.063-0.176-0.123-0.29-0.179c-0.792-0.39-2.098-0.448-2.916-0.13
				c-0.12,0.047-0.222,0.101-0.308,0.157l-0.298-0.013l-0.02,0.459c0,0.007-0.001,0.014-0.001,0.021v0.01h0.001
				c0.003,0.226,0.194,0.459,0.579,0.648c0.792,0.39,2.098,0.448,2.916,0.13c0.401-0.157,0.61-0.375,0.625-0.603h0.001
				L346.819,168.701z"/>
			<path fill="#EFF0F5" d="M346.237,168.068c-0.793-0.39-2.098-0.448-2.916-0.129c-0.818,0.318-0.839,0.893-0.046,1.283
				c0.792,0.39,2.098,0.448,2.915,0.129C347.008,169.032,347.029,168.458,346.237,168.068z"/>
			<path fill="#C5C9D8" d="M346.525,168.674c0-0.004,0-0.009,0-0.013l0.014-0.316l-0.162-0.007
				c-0.082-0.086-0.197-0.169-0.349-0.244c-0.68-0.334-1.799-0.384-2.5-0.112c-0.159,0.063-0.281,0.136-0.37,0.216l-0.153-0.006
				l-0.014,0.317v0.001v0.001l0,0c-0.006,0.199,0.159,0.404,0.497,0.571c0.68,0.334,1.799,0.384,2.5,0.111
				c0.345-0.134,0.523-0.321,0.536-0.517h0.001V168.674z"/>
			<path fill="#EFF0F5" d="M346.044,167.713c-0.68-0.334-1.799-0.384-2.5-0.111c-0.701,0.273-0.719,0.766-0.04,1.1
				c0.68,0.334,1.799,0.384,2.5,0.111S346.723,168.048,346.044,167.713z"/>
			<path fill="#A0A6C0" d="M346.245,168.445L346.245,168.445c-0.133,0.025-0.271-0.036-0.308-0.137l-0.015-0.042
				c-0.038-0.102,0.039-0.205,0.172-0.231l0,0c0.133-0.026,0.27,0.036,0.308,0.137l0.015,0.041
				C346.454,168.315,346.376,168.419,346.245,168.445z"/>
		</g>
		<g>
			<path fill="#FEBFBF" d="M360.084,163.479c0,0-1.049,0.053-1.311,1.894c-0.263,1.841,0.504,9.942,1.166,10.756
				c0.662,0.815,1.737,0.355,2.109-1.375c0.373-1.73,0.497-6.776,0.494-7.389C362.542,166.752,362.495,162.592,360.084,163.479z"/>
			<path fill="#FEBFBF" d="M360.18,175.101c0,0-0.366,0.29-0.697,1.54s-1.161,7.33-1.663,7.943s-1.066,1.1-1.066,1.1
				s-0.579,0.9-0.619,1.182c-0.04,0.283-0.287,0.878-0.407,1.023c-0.119,0.145-0.53,0.69-0.504,0.82
				c0.026,0.13,0.399,0.228,0.564,0.081c0.166-0.147,0.671-1.229,0.834-1.422c0.162-0.193,0.335-0.25,0.335-0.25
				s0.131,0.775,0.067,0.964c-0.063,0.189-0.646,1.431-0.646,1.431s-0.55,0.76-0.568,0.829s0.269,0.138,0.421,0.015
				c0.153-0.122,0.107,0.133,0.405,0.067c0.298-0.066,1.12-0.715,1.12-0.715l0.132-0.17l0.59-0.087c0,0,0.895-1.35,0.967-1.727
				c0.071-0.377,0.472-3.312,0.472-3.312s2.851-7.053,1.963-9.071C361.461,174.706,360.18,175.101,360.18,175.101z"/>
			<path fill="#FEBFBF" d="M357.867,188.427c0,0-0.551,1.07-0.667,1.175s-0.969,0.756-0.969,0.756l0.188,0.027
				c0,0,0.392-0.373,0.489-0.439c0.097-0.067,0.436-0.357,0.436-0.357l0.491-0.93L357.867,188.427z"/>
			<path fill="#FEBFBF" d="M358.542,188.522l-0.515,0.906l-0.14,0.111l0.133-0.02c0,0,0.204-0.191,0.267-0.345
				C358.35,189.022,358.542,188.522,358.542,188.522z"/>
			<path fill="#B9D3E1" d="M360.226,162.883c0,0-0.954,0.148-1.476,1.439s-0.164,4.666-0.164,4.666s1.377-0.088,2.802-0.412
				c1.424-0.324,1.581-0.948,1.581-0.948s-0.614-3.09-0.844-3.568C361.897,163.581,361.912,162.434,360.226,162.883z"/>
		</g>
	</g>
	<path fill="#E6EAF2" d="M350.991,161.99c0,0-1.622,5.736-1.604,7.978c0.019,2.241-0.28,8.359-0.28,8.359s-1.68,0.358-1.762-1.04
		c-0.084-1.397,1.277-9.951,1.277-9.951S350.647,160.591,350.991,161.99z"/>
	<path fill="#B8CFEC" d="M346.69,177.606c0,0,0.867-0.293,1.164-1.411c0.296-1.118,0.568-2.953,0.595-4.84
		c0.026-1.888,1.003-5.005,1.433-6.369c0.43-1.363,1.508-3.754,1.508-3.754s-3.491,6.541-3.709,8.262
		S347.604,176.873,346.69,177.606z"/>
	<path fill="#DBE8EF" d="M352.597,159.315c0,0-0.662-0.043-0.949,0.026c-0.286,0.07-1.159,0.837-1.253,1.095
		s0.063,0.995,0.063,0.995s-0.75,1.306-0.77,1.525c-0.019,0.22-0.651,2.976-0.651,2.976l2.274-4.528L352.597,159.315z"/>
	<path fill="#B9D3E1" d="M358.806,178.674l0.698-2.831l-0.918-6.855l4.383-1.359c0,0-0.031,5.732-0.477,7.333
		c-0.202,2.133-0.78,4.654-0.78,4.654L358.806,178.674z"/>
	<polygon fill="#DBE8EF" points="361.548,180.87 358.58,180.156 358.826,178.228 362.079,179.018 	"/>
	<path fill="#DBE8EF" d="M353.349,170.229c0,0,0.9-2.962,1.505-3.793c0.604-0.831,1.373-2.163,1.373-2.163l-0.412-0.7
		c0,0,0.981-0.057,1.832-0.589c0.85-0.534,1.492-2.039,1.492-2.039s-2.203-2.068-2.227-1.823c-0.024,0.245,0.376,0.811,0.376,0.811
		s0.122,0.463-0.01,0.768c-0.133,0.305-3.108,3.609-3.361,4.197C353.665,165.485,353.119,167.241,353.349,170.229z"/>
	<g>
		<polygon fill="#EFF0F5" points="349.775,153.791 349.821,153.676 349.802,153.677 350.696,153.385 350.747,153.208 
			349.538,153.698 		"/>
	</g>
	<g>
		<path fill="#A28C87" d="M350.991,154.33c0.178,0.528,0.06,1.007-0.265,1.069s-0.732-0.314-0.91-0.842
			c-0.179-0.528-0.061-1.007,0.264-1.069C350.405,153.425,350.812,153.803,350.991,154.33z"/>
	</g>
	<g>
		<path fill="#A28C87" d="M353.614,155.308c0.195,0.579-0.005,1.118-0.448,1.204c-0.443,0.085-0.962-0.314-1.157-0.894
			c-0.196-0.58,0.005-1.118,0.448-1.204S353.418,154.729,353.614,155.308z"/>
	</g>
	<g>
		<polygon fill="#EFF0F5" points="354.13,155.656 357.708,154.852 357.644,154.732 354.121,155.519 353.655,155.309 
			353.608,155.423 		"/>
	</g>
	
		<linearGradient id="SVGID_7_" gradientUnits="userSpaceOnUse" x1="1390.7173" y1="209.3633" x2="1392.312" y2="209.3633" gradientTransform="matrix(0.9997 0.0264 -0.0264 0.9997 -1028.1338 -90.3086)">
		<stop  offset="0.1224" style="stop-color:#FEB9B8"/>
		<stop  offset="1" style="stop-color:#FFDEDE"/>
	</linearGradient>
	<path fill="url(#SVGID_7_)" d="M357.043,154.999c0,0,0.759-0.883,1.104-0.259c0.346,0.625-0.258,1.405-0.656,1.79
		s-0.702,0.503-0.838,0.319c-0.136-0.184,0.131-0.913,0.131-0.913L357.043,154.999z"/>
	
		<linearGradient id="SVGID_8_" gradientUnits="userSpaceOnUse" x1="1390.9741" y1="209.2559" x2="1392.0796" y2="209.2559" gradientTransform="matrix(0.9997 0.0264 -0.0264 0.9997 -1028.1338 -90.3086)">
		<stop  offset="0.1224" style="stop-color:#FCA4B5"/>
		<stop  offset="0.9896" style="stop-color:#FFADB7"/>
	</linearGradient>
	<path fill="url(#SVGID_8_)" d="M357.164,155.002c0,0,0.488-0.509,0.733-0.161s0.107,1-0.406,1.575
		c-0.518,0.233-0.612,0.011-0.611-0.056c0.002-0.067,0.185-0.377,0.191-0.641S357.164,155.002,357.164,155.002z"/>
	<g>
		<path fill="#EFF0F5" d="M351.934,154.861l0.116-0.056c-0.146-0.229-0.327-0.376-0.533-0.439c-0.286-0.087-0.518,0.022-0.528,0.027
			l0.074,0.114C351.082,154.498,351.558,154.279,351.934,154.861z"/>
	</g>
	<path fill="#EFF0F5" d="M350.194,155.221c-0.177-0.163-0.323-0.396-0.41-0.657c-0.183-0.543-0.055-1.04,0.286-1.105
		c0.164-0.034,0.362,0.041,0.542,0.209c0.177,0.163,0.322,0.396,0.41,0.657l-0.031,0.006l0.031-0.006
		c0.118,0.346,0.111,0.692-0.015,0.905c-0.064,0.11-0.158,0.179-0.271,0.201c-0.032,0.006-0.064,0.009-0.099,0.007
		C350.495,155.431,350.34,155.356,350.194,155.221z M350.09,153.519c-0.306,0.06-0.414,0.522-0.243,1.033
		c0.085,0.249,0.224,0.473,0.392,0.627c0.162,0.151,0.332,0.217,0.477,0.19c0.096-0.019,0.176-0.079,0.232-0.174
		c0.118-0.199,0.122-0.528,0.011-0.858l0,0c-0.085-0.25-0.224-0.474-0.391-0.628c-0.134-0.123-0.271-0.19-0.396-0.196
		C350.144,153.512,350.117,153.514,350.09,153.519z"/>
	<path fill="#EFF0F5" d="M352.474,156.337c-0.225-0.173-0.401-0.426-0.497-0.713c-0.202-0.595,0.009-1.151,0.47-1.24
		c0.181-0.036,0.374,0.005,0.565,0.113c0.281,0.162,0.518,0.462,0.633,0.804l0,0c0.201,0.594-0.009,1.151-0.469,1.241
		c-0.053,0.01-0.106,0.014-0.161,0.012C352.836,156.546,352.649,156.472,352.474,156.337z M352.467,154.444
		c-0.425,0.082-0.617,0.606-0.427,1.168c0.092,0.273,0.26,0.515,0.474,0.679c0.208,0.162,0.432,0.228,0.642,0.19
		c0.425-0.083,0.616-0.606,0.426-1.167l0,0c-0.11-0.326-0.334-0.611-0.601-0.765c-0.123-0.07-0.249-0.11-0.37-0.115
		C352.562,154.432,352.513,154.436,352.467,154.444z"/>
	<g>
		<path fill="#A8B0C2" d="M356.435,168.789c-0.205,0.5-0.735,0.709-1.186,0.468c-0.45-0.24-0.648-0.84-0.443-1.339
			c0.205-0.5,0.736-0.709,1.187-0.469C356.442,167.689,356.64,168.289,356.435,168.789z"/>
		<path fill="#DBA259" d="M356.348,168.743c-0.205,0.5-0.736,0.709-1.187,0.469c-0.449-0.241-0.647-0.84-0.442-1.339
			s0.735-0.709,1.186-0.469S356.553,168.244,356.348,168.743z"/>
		<path fill="#EDB83A" d="M356.235,168.718c-0.197,0.479-0.704,0.683-1.131,0.454c-0.426-0.228-0.612-0.802-0.415-1.281
			c0.198-0.479,0.704-0.683,1.13-0.454C356.247,167.665,356.432,168.238,356.235,168.718z"/>
		<path fill="#F7D165" d="M356.19,168.719c-0.192,0.468-0.688,0.667-1.104,0.444c-0.417-0.224-0.599-0.784-0.406-1.253
			c0.193-0.469,0.688-0.667,1.105-0.444C356.202,167.689,356.383,168.25,356.19,168.719z"/>
		<path fill="#738E9E" d="M355.619,167.608c-0.362-0.126-0.732,0.087-0.826,0.477c-0.093,0.389,0.126,0.809,0.488,0.936
			s0.732-0.087,0.826-0.477C356.2,168.155,355.981,167.735,355.619,167.608z M355.249,168.819c-0.08-0.043-0.146-0.102-0.198-0.176
			l0.279-0.161L355.249,168.819z M355.502,167.759l-0.084,0.352h-0.001l-0.034,0.145l-0.411,0.237
			c-0.041-0.112-0.06-0.234-0.03-0.355C355.007,167.864,355.25,167.714,355.502,167.759z M355.397,168.871l0.08-0.332l0.169,0.311
			C355.568,168.879,355.485,168.887,355.397,168.871z M355.778,168.772l-0.248-0.456l0.121-0.506
			c0.234,0.126,0.372,0.409,0.307,0.683C355.929,168.613,355.86,168.703,355.778,168.772z"/>
	</g>
	
		<ellipse transform="matrix(0.5399 0.8417 -0.8417 0.5399 305.0695 -222.333)" fill="#A08471" cx="355.907" cy="167.886" rx="0.329" ry="0.185"/>
	<path fill="#EFF0F5" d="M356.696,158.645c0.479,0.021,0.885-0.401,0.908-0.943c0.021-0.484-0.272-0.897-0.677-0.994
		c-0.017,0.035-0.04,0.068-0.072,0.096c0.012,0.002,0.023,0,0.035,0.003c0.237,0.056,0.438,0.24,0.536,0.492
		c0.169,0.435-0.001,0.948-0.38,1.145c-0.187,0.094-0.387,0.102-0.572,0.022c-0.19-0.082-0.34-0.243-0.423-0.455
		c-0.17-0.435,0.002-0.948,0.381-1.145c0.041-0.021,0.084-0.038,0.128-0.051c0.026-0.007,0.053-0.008,0.079-0.012
		c-0.011-0.02-0.027-0.034-0.026-0.062c0.001-0.016,0.014-0.031,0.02-0.047c-0.411,0.063-0.738,0.449-0.759,0.933
		C355.85,158.168,356.218,158.624,356.696,158.645z"/>
</g>
</svg>
