<?xml version="1.0" encoding="utf-8"?>
<!-- Generator: Adobe Illustrator 16.0.0, SVG Export Plug-In . SVG Version: 6.00 Build 0)  -->
<!DOCTYPE svg PUBLIC "-//W3C//DTD SVG 1.1//EN" "http://www.w3.org/Graphics/SVG/1.1/DTD/svg11.dtd">
<svg version="1.1" id="Layer_1" xmlns="http://www.w3.org/2000/svg" xmlns:xlink="http://www.w3.org/1999/xlink" x="0px" y="0px"
	 width="463.683px" height="425.749px" viewBox="0 0 463.683 425.749" enable-background="new 0 0 463.683 425.749"
	 xml:space="preserve">
<g>
	<path fill="#BDD6F2" d="M114.821,162.594c-4.325-2.752-11.539-3.05-16.113-0.667c-4.575,2.384-4.776,6.548-0.452,9.3
		c4.325,2.752,11.539,3.051,16.114,0.666C118.944,169.51,119.146,165.346,114.821,162.594z"/>
	<g>
		<path fill="#626170" d="M97.85,164.994c0,0-0.263,0.129-0.279,0.323c-0.016,0.194-0.029,0.729-0.03,0.854
			c0,0.125,0.325,0.619,1.133,0.818c0.809,0.198,2.787-0.3,3.456-0.68c0.669-0.379,1.587-1.355,1.864-1.428
			c0.217-0.057,0.769,0.031,0.996,0.072c0.07,0.012,0.14,0.016,0.211,0.011l0.521-0.038c0.074-0.005,0.147-0.02,0.218-0.044
			l1.121-0.382c0,0,0.17-0.817-0.162-1.08C106.567,163.158,97.85,164.994,97.85,164.994z"/>
		<path fill="#504F60" d="M102.486,161.722c0,0-0.973,0.601-1.146,0.771c-0.174,0.171-1.927,0.858-2.536,1.219
			c-0.609,0.362-1.072,0.987-1.114,1.193c-0.042,0.207-0.14,0.678-0.072,0.876c0.068,0.199,0.377,0.729,1.42,0.806
			c0.934,0.069,2.744-0.697,3.113-0.859c0.045-0.02,0.086-0.042,0.127-0.07c0.28-0.186,1.45-0.958,1.642-1.046
			c0.218-0.1,2.146-0.563,2.439-0.656c0.293-0.093,0.621-0.125,0.667-0.359c0.045-0.234,0.149-1.521-0.001-1.929
			C106.875,161.26,103.352,160.693,102.486,161.722z"/>
		<path fill="#5C617D" d="M107.039,161.95c-0.104,0.317-0.477,0.539-1.716,0.589c-0.143,0.004-0.286,0.009-0.429,0.007
			c-0.889,0.019-1.708-0.059-2.599-0.462c-0.312-0.141-0.52-0.454-0.519-0.797c0.006-3.453-1.272-17.716-1.599-26.577
			c-0.207-5.604,1.043-8.434,1.043-8.434l5.986-0.272l0.04,14.778l-0.105,8.547C107.141,149.329,107.138,161.633,107.039,161.95z"/>
		<g>
			<path fill="#8C92B0" d="M105.334,162.563c-0.003-0.1-0.321-9.927-0.45-11.995c-0.129-2.073-0.112-13.821-0.112-13.939h0.23
				c0,0.119-0.017,11.859,0.112,13.926c0.128,2.071,0.446,11.901,0.45,12.001L105.334,162.563z"/>
		</g>
		<path fill="#A8B0C2" d="M107.039,161.95c-0.068,0.207-0.25,0.373-0.713,0.478c-0.551,0.082-1.003,0.111-1.433,0.118l-0.809-25.611
			c0,0-1.545-1.719-1.263-2.772c0.125-0.453,4.302,6.035,4.302,6.035l0.123,0.584l-0.105,8.547
			C107.141,149.329,107.138,161.633,107.039,161.95z"/>
		<g>
			<path fill="#6C6B79" d="M104.889,169.117l-0.363,0.339l-0.076,0.554c0,0,0.403,0.733,1.52,1.013
				c1.117,0.279,2.86,0.017,3.424-0.157c0.564-0.173,1.832-1.267,2.015-1.418c0.184-0.15,1.071-1.032,1.071-1.032l0.443,0.061
				l1.448-0.893c0,0,0.245-0.37,0.283-0.652c0.039-0.283,0.113-0.825,0.113-0.825s-0.049-0.612-0.446-0.753
				C113.924,165.212,104.889,169.117,104.889,169.117z"/>
			<path fill="#504F60" d="M109.814,164.002c0,0-1.101,1.038-1.252,1.285c-0.151,0.247-0.438,0.635-0.777,0.902
				c-0.338,0.267-2.669,2.374-3.003,2.729c-0.333,0.356-0.254,0.751-0.261,0.801s0.83,0.8,1.621,0.943
				c0.791,0.142,3.697-0.295,4.481-1.008c0.784-0.712,2.196-1.974,2.435-2.126c0.238-0.151,1.305-0.724,1.443-1.124
				c0.139-0.399,0.23-1.675,0.097-2.045C114.465,163.989,109.814,164.002,109.814,164.002z"/>
			<path fill="#5C617D" d="M103.328,128.265c0,0-0.894,5.138-0.081,6.772s1.839,2.08,2.02,3.327s0.968,6.859,1.746,11.545
				c0.258,1.553,0.876,6.089,1.582,15.037c0.372,0.806,1.365,1.393,3.355,1.164s2.139-0.459,2.355-0.814s0.191-9.916-0.515-13.178
				c-0.707-3.26-0.86-4.336-0.86-4.336s-0.549-4.901,0.533-11.073c0.435-2.48,0.381-5.927,0.007-7.409
				C113.096,127.817,103.328,128.265,103.328,128.265z"/>
			<g>
				<path fill="#8C92B0" d="M113.353,165.791l-0.228-0.011c0.002-0.038,0.177-3.892-0.008-6.676c-0.234-3.523-0.752-5.583-1.209-7.4
					c-0.31-1.234-0.603-2.399-0.769-3.859c-0.351-3.101,0.03-7.106,0.334-10.325c0.052-0.54,0.101-1.061,0.145-1.553
					c0.3-3.376-0.101-5.099-0.104-5.116l0.222-0.053c0.017,0.071,0.414,1.771,0.11,5.19c-0.044,0.492-0.094,1.013-0.145,1.554
					c-0.304,3.208-0.683,7.201-0.335,10.278c0.164,1.444,0.455,2.603,0.763,3.829c0.459,1.827,0.979,3.897,1.215,7.44
					C113.531,161.887,113.355,165.752,113.353,165.791z"/>
			</g>
		</g>
		<g>
			<path fill="#8C92B0" d="M103.847,134.849c-0.073-0.003-0.152-0.028-0.232-0.074c-0.374-0.215-0.766-0.877-0.744-1.824
				c0.011-0.508,0.154-2.546,0.195-2.795l0.228,0.038c-0.036,0.214-0.181,2.232-0.192,2.763c-0.021,0.911,0.364,1.467,0.629,1.619
				c0.077,0.045,0.145,0.055,0.186,0.03c0.062-0.038,0.093-0.162,0.084-0.333c-0.062-1.188,0.141-3.937,0.339-4.058l0.059-0.036
				l0.066,0.034l-0.059,0.102l0.001-0.002l0.001,0.003l0.085,0.063c-0.087,0.181-0.338,2.443-0.263,3.882
				c0.018,0.338-0.096,0.48-0.194,0.541C103.98,134.836,103.916,134.852,103.847,134.849z M104.403,130.318l-0.055,0.094
				L104.403,130.318z"/>
		</g>
		<g>
			<path fill="#8C92B0" d="M109.833,135.096c-1.372-0.059-2.411-0.426-3.097-1.094c-0.87-0.846-0.833-1.856-0.832-1.899l0.23,0.01
				c0,0.01-0.031,0.956,0.766,1.728c0.831,0.807,2.228,1.143,4.15,1.003l0.017,0.229
				C110.63,135.104,110.218,135.112,109.833,135.096z"/>
		</g>
		<path fill="#A76478" d="M113.697,130.568c0,0-1.724,1.309-5.175,0.997s-4.748-0.796-5.881-1.516
			c-1.133-0.72-1.813-1.617-1.813-1.617l0.255-1.327c0,0,0.621,1.12,2.241,1.921c1.62,0.801,5.149,1.176,6.589,1.266
			c1.439,0.091,3.689-0.775,3.689-0.775L113.697,130.568z"/>
		<path fill="#5C617D" d="M106.86,130.034c0,0-0.106,0.377-0.135,0.828c-0.029,0.451-0.039,1.282-0.039,1.282l-0.52-0.101
			c0,0-0.068-0.804-0.036-1.205c0.033-0.4,0.171-0.952,0.171-0.952L106.86,130.034z"/>
		<path fill="#4F5997" d="M111.864,130.21c0,0,0.081,0.384,0.08,0.835c-0.001,0.452-0.046,1.282-0.046,1.282l0.525-0.066
			c0,0,0.122-0.797,0.115-1.199c-0.006-0.402-0.106-0.962-0.106-0.962L111.864,130.21z"/>
		<path fill="#5C617D" d="M102.107,128.2c0,0-0.143,0.468-0.174,0.852s0.019,1.042,0.019,1.042l-0.337-0.441
			c0,0-0.033-0.666-0.016-0.874c0.018-0.209,0.23-0.813,0.23-0.813L102.107,128.2z"/>
		<g>
			<path fill="#8C92B0" d="M100.388,130.318c-0.038-0.002-0.076-0.009-0.114-0.021l0.075-0.218c0.281,0.092,0.659-0.606,0.796-0.964
				l0.215,0.083C101.313,129.322,100.905,130.341,100.388,130.318z"/>
		</g>
		<g>
			<path fill="#CCDEFB" d="M104.276,131.123c-0.06-0.008-0.122-0.024-0.184-0.048l-0.965-0.371c-0.411-0.158-0.72-0.598-0.704-1.002
				l0.016-0.386c0.008-0.197,0.091-0.358,0.235-0.457c0.163-0.11,0.384-0.124,0.608-0.038l0.965,0.37
				c0.411,0.158,0.72,0.598,0.704,1.002l-0.016,0.386c-0.008,0.197-0.091,0.359-0.235,0.457
				C104.583,131.117,104.434,131.146,104.276,131.123z M103.093,129.217c-0.066-0.01-0.125,0-0.168,0.03
				c-0.045,0.03-0.068,0.078-0.071,0.143l-0.016,0.385c-0.008,0.189,0.172,0.428,0.385,0.51l0.965,0.37
				c0.103,0.039,0.199,0.037,0.262-0.005c0.044-0.03,0.068-0.079,0.071-0.144l0.016-0.385c0.007-0.19-0.172-0.428-0.385-0.51
				l-0.965-0.37C103.155,129.229,103.123,129.221,103.093,129.217z"/>
		</g>
	</g>
	<g>
		<path fill="#E6F1FF" d="M103.503,108.796c0,0-1.697-0.535-2.301,1.264s-2.535,9.747-2.639,10.34
			c-0.104,0.594,1.535,2.874,2.559,1.35c1.023-1.523,3.028-11.117,3.146-11.819C104.386,109.227,103.503,108.796,103.503,108.796z"
			/>
		<path fill="#E6F1FF" d="M104.188,106.915c0,0-2.255-0.182-3.14,2.678c-0.885,2.86-1.334,6.014-1.334,6.014
			s0.731,1.369,4.642,1.038S104.188,106.915,104.188,106.915z"/>
		<path fill="#FEBFBF" d="M92.235,120.898c0,0-0.275,0.127-0.852,0.183c-0.578,0.052-0.875-0.263-1.249-0.382l-0.091-0.031
			c-0.313-0.107-0.464-0.206-0.464-0.206l-0.007-0.37c0,0-0.36-0.104-0.391-0.183c-0.031-0.078-0.137-0.249-0.121-0.35
			c0.004-0.033,0.021-0.069,0.044-0.103l0-0.002c0.039-0.058,0.09-0.115,0.11-0.131l0.005-0.008l-0.491-0.256l-0.002-0.501
			l0.263-0.402l0.294,0.031l0.684,0.072l-1.124-0.354c0,0-0.329-0.055-0.472-0.116c-0.144-0.059-0.239-0.341-0.239-0.341
			l0.169-0.377c0,0,1.708,0.277,1.958,0.335c0.25,0.056,1.821,0.536,1.821,0.536s0.546,0.324,0.94,0.776
			c1.264,0.646,5.74,0.25,5.968,0.328c0.23,0.077,0.712,0.554,0.712,0.554s0.741,0.37,1.177,1.961
			C100.864,123.733,92.235,120.898,92.235,120.898z"/>
		<g>
			<path fill="#C4C8D8" d="M92.105,121.144c0.04-0.5-0.056-0.759-0.016-1.262c0.005-0.119-0.129-0.375-0.303-0.557
				c-1.561-1.667-2.533-2.705-4.094-4.372c-0.111-0.121,0.042-0.372-0.021-0.373c-0.011,0-0.275,0.189-0.283,0.193
				c-0.019,0.008-0.031,0.026-0.034,0.053c-0.04,0.503-0.079,1.004-0.118,1.504c0,0.001,0,0.003-0.001,0.004
				c-0.009,0.118,0.136,0.371,0.304,0.553c1.561,1.667,2.533,2.705,4.094,4.371c0.136,0.143,0.266,0.217,0.315,0.179l0.286-0.196
				C92.235,121.24,92.105,121.145,92.105,121.144z"/>
			<path fill="#F5F5F5" d="M87.717,114.729c0.008-0.099,0.137-0.051,0.279,0.102c1.545,1.65,2.501,2.671,4.047,4.321
				c0.142,0.152,0.258,0.365,0.25,0.463c-0.039,0.493-0.078,0.985-0.116,1.478c-0.008,0.099-0.137,0.05-0.279-0.102
				c-1.545-1.65-2.501-2.671-4.047-4.321c-0.142-0.152-0.258-0.365-0.25-0.463C87.64,115.714,87.678,115.222,87.717,114.729
				L87.717,114.729z M92.255,121.195c0-0.001,0-0.003,0-0.005c0.039-0.5,0.079-1.001,0.118-1.504
				c0.005-0.119-0.129-0.374-0.303-0.557c-1.561-1.667-2.533-2.705-4.094-4.372c-0.173-0.188-0.324-0.236-0.337-0.126
				c-0.04,0.503-0.079,1.003-0.118,1.503c0,0.001,0,0.003,0,0.004c-0.009,0.118,0.136,0.371,0.304,0.553
				c1.561,1.667,2.533,2.705,4.094,4.372C92.086,121.241,92.246,121.313,92.255,121.195L92.255,121.195z"/>
			<path fill="#7C78F0" d="M87.863,115.488l0.021,0.008l0.023,0.039c-0.01,0.123-0.02,0.245-0.029,0.367l-0.025-0.012l-0.019-0.034
				C87.844,115.733,87.854,115.61,87.863,115.488L87.863,115.488z M87.808,115.917l0.042,0.016l0.042,0.073l-0.046-0.017
				L87.808,115.917L87.808,115.917z M87.779,116.008l0.063,0.023l0.06,0.107l-0.066-0.028L87.779,116.008L87.779,116.008z
				 M92.177,121.093c0.039-0.492,0.077-0.985,0.116-1.478c0.008-0.099-0.108-0.312-0.25-0.463c-1.545-1.65-2.501-2.671-4.047-4.321
				c-0.142-0.152-0.271-0.2-0.279-0.102c-0.039,0.492-0.077,0.984-0.116,1.477c-0.008,0.098,0.108,0.312,0.25,0.463
				c1.545,1.65,2.501,2.671,4.047,4.321C92.041,121.143,92.169,121.191,92.177,121.093L92.177,121.093z"/>
			<path fill="#2A2A2C" d="M87.878,115.901c0.009-0.122,0.019-0.244,0.029-0.367l-0.023-0.039l-0.021-0.008
				c-0.009,0.122-0.019,0.245-0.028,0.367l0.019,0.034L87.878,115.901L87.878,115.901z"/>
			<path fill="#838383" d="M87.803,116.033l0.038,0.011l0.038,0.069l-0.042-0.016L87.803,116.033L87.803,116.033z M87.902,116.139
				l-0.06-0.107l-0.063-0.023l0.056,0.103L87.902,116.139L87.902,116.139z"/>
			<polygon fill="#516F83" points="87.878,116.113 87.841,116.044 87.803,116.033 87.836,116.098 87.878,116.113 			"/>
			<polygon fill="#2A2A2C" points="87.891,116.005 87.85,115.933 87.808,115.917 87.845,115.988 87.891,116.005 			"/>
		</g>
		
			<linearGradient id="SVGID_1_" gradientUnits="userSpaceOnUse" x1="1818.5591" y1="221.7891" x2="1819.658" y2="220.5634" gradientTransform="matrix(0.946 0.3242 -0.3242 0.946 -1559.4902 -679.5366)">
			<stop  offset="0.1224" style="stop-color:#FEB9B8"/>
			<stop  offset="1" style="stop-color:#FFDEDE"/>
		</linearGradient>
		<path fill="url(#SVGID_1_)" d="M91.286,120.237c0,0-0.811,0.354-1.242,0.43c-0.313-0.107-0.464-0.206-0.464-0.206l-0.007-0.37
			c0,0-0.36-0.104-0.391-0.183c-0.031-0.078-0.137-0.249-0.121-0.35c0.004-0.033,0.021-0.069,0.044-0.103l0-0.002l0.11-0.131
			l0.005-0.008l-0.491-0.256l-0.002-0.501l0.263-0.402l0.294,0.031l0.086,0.235c0,0,0.216,0.074,0.449,0.298
			c0.231,0.223-0.049,0.534-0.049,0.534l0.636-0.025c0,0,0.382,0.006,0.485,0.157c0.104,0.151-0.162,0.444-0.162,0.444
			s0.355-0.05,0.45-0.017C91.276,119.847,91.286,120.237,91.286,120.237z"/>
		<path fill="#FEBFBF" d="M91.648,118.393c0,0-0.68-0.127-0.795-0.07c-0.116,0.057-0.446,0.117-0.741-0.09
			c-0.296-0.208-0.11-0.327-0.11-0.327l0.625-0.316l1.184-0.009c0,0,0.96,0.728,1.017,0.86c0.057,0.132,0.095,1.016-0.195,1.187
			C92.343,119.798,91.26,119.186,91.648,118.393z"/>
		<polygon fill="#FEBFBF" points="92.023,119.804 91.217,119.132 90.808,118.761 90.328,118.459 90.669,118.124 91.946,118.312 
			91.431,118.385 91.052,118.584 		"/>
		<polygon fill="#FEBFBF" points="90.73,119.831 89.572,120.092 89.575,120.266 90.215,120.069 91.128,119.854 		"/>
		<path fill="#FEBFBF" d="M89.882,119.07c0,0-0.169,0.154-0.284,0.153s-0.869-0.164-0.869-0.164l0.486,0.264l-0.11,0.133
			l0.438-0.071l0.703-0.149l-0.475,0.019L89.882,119.07z"/>
	</g>
	<path fill="#DDE8F6" d="M100.885,127.282l-0.131,0.506c0,0,0.996,1.57,4.814,2.407c3.819,0.838,6.055,0.495,6.055,0.495l0.073-0.57
		L100.885,127.282z"/>
	<g>
		<path fill="#DDE8F6" d="M115.583,109.875c0,0,0.523-0.866-2.241-1.814c-1.562-0.536-1.757-1.102-2.737-1.354
			c-0.98-0.252-4.008-0.135-4.429-0.012c-0.421,0.123-2.389-0.033-3.317,0.791c-0.096,0.085-1.73,1.577-1.614,5.795
			c0.117,4.217,0.655,6.286,0.617,7.29c-0.153,4.064-1.09,6.847-1.09,6.847s1.435,2.032,6.214,2.672
			c4.778,0.639,6.171-0.347,6.171-0.347s0.266-6.797,0.444-7.989C113.78,120.562,115.583,109.875,115.583,109.875z"/>
	</g>
	<polygon fill="#E6F1FF" points="107.731,113.761 107.529,116.958 108.759,117.885 110.399,117.582 110.559,114.444 	"/>
	<g>
		<path fill="#DDE8F6" d="M112.161,113.849c0,0-0.242,2.472-0.407,3.113c-0.165,0.642,0.475,5.212,0.268,5.774
			c-0.208,0.562-0.03,5.032-0.03,5.032l-0.604,4.706l1.125-0.543c0,0,1.634-9.989,1.408-12.042
			C113.693,117.836,112.161,113.849,112.161,113.849z"/>
		<path fill="#E6F1FF" d="M116.4,122.291c0,0-0.014-8.609-0.161-10.647c-0.147-2.039-0.707-2.891-1.706-2.707
			c-0.999,0.184-2.407,0.967-2.258,3.855c0.149,2.889,1.233,11.019,1.921,11.856C114.884,125.487,116.4,122.291,116.4,122.291z"/>
		<path fill="#FEBFBF" d="M114.392,121.642c0,0-0.54,0.348-0.815,0.829c-0.276,0.481-1.279,8.861-1.613,9.526
			c-0.335,0.665-0.574,0.93-0.842,1.199s-1.484,1.988-1.484,1.988s-0.689,2.104-0.774,2.275s0.329,0.241,0.591,0.008
			c0.262-0.233,0.711-1.249,0.711-1.249l-0.111,1.202c0,0-0.758,1.635-0.837,1.857c-0.079,0.223,0.015,0.489,0.267,0.392
			c0.252-0.096,0.668-0.706,0.668-0.706l0.306,0.204c0,0,0.24,0.221,0.56-0.03c0.32-0.251,0.609-0.729,0.609-0.729l0.405-0.015
			l0.498-0.401l0.525-0.23c0,0,0.479-0.946,0.389-1.475c-0.091-0.529-0.175-2.001-0.114-2.198
			c0.061-0.198,3.723-10.566,3.085-11.664C115.778,121.327,114.392,121.642,114.392,121.642z"/>
		<polygon fill="#FEBFBF" points="110.152,138.963 110.714,138.281 111.156,137.477 110.833,138.449 110.282,139.051 		"/>
		<polygon fill="#FEBFBF" points="111.627,138.408 112.032,137.44 111.978,138.032 111.771,138.403 		"/>
		<polygon fill="#FEBFBF" points="112.478,138.034 112.805,137.404 112.853,137.126 112.845,137.61 112.665,137.933 		"/>
		<polygon fill="#FEBFBF" points="110.166,136.218 110.317,135.327 110.034,136.015 109.73,137.083 		"/>
	</g>
	<g>
		
			<linearGradient id="SVGID_2_" gradientUnits="userSpaceOnUse" x1="1153.8081" y1="212.584" x2="1149.2679" y2="209.2449" gradientTransform="matrix(0.9912 0.1326 -0.1326 0.9912 -1004.22 -256.3987)">
			<stop  offset="0.1224" style="stop-color:#FEC7C7"/>
			<stop  offset="0.9694" style="stop-color:#FFADB7"/>
		</linearGradient>
		<path fill="url(#SVGID_2_)" d="M110.633,100.597c0,0-0.577,2.945-0.423,4.039s1.147,2.331,1.195,2.679
			c0.048,0.348-2.113,1.365-3.551,1.385c-1.438,0.019-1.812-0.36-2.039-0.509c-0.228-0.148,0.403-1.429,0.276-2.682
			C105.965,104.256,108.684,100.56,110.633,100.597z"/>
		<path fill="#F64A6E" d="M105.709,109.879c0,0-1.404,6.497-2.316,16.694l0.581,1.576l1.003-0.975
			c0.533-12.584,1.484-16.953,1.484-16.953L105.709,109.879z"/>
		<polygon fill="#F64A6E" points="106.645,108.563 105.501,109.513 105.953,110.532 106.996,110.089 107.009,109.771 		"/>
		<path fill="#E6F1FF" d="M110.329,105.373l-0.076,0.863c0,0-0.835,2.283-3.608,2.327c-0.042,0.433,0.059,1.65,0.502,1.996
			c1.742-0.733,3.915-2.05,4.287-3.242c0.044-0.141-0.438-1.559-0.438-1.559l-0.631-0.526L110.329,105.373z"/>
		<path fill="#E6F1FF" d="M106.041,106.377c0,0-0.14,0.503-0.1,0.778s0.164,1.03,0.704,1.408c-0.501,0.686-1.378,1.022-1.718,0.997
			c0.243-1.034,0.32-2.009,0.412-2.815C105.43,105.938,106.233,105.787,106.041,106.377z"/>
		
			<linearGradient id="SVGID_3_" gradientUnits="userSpaceOnUse" x1="1148.4819" y1="211.8965" x2="1151.0396" y2="211.8965" gradientTransform="matrix(0.9912 0.1326 -0.1326 0.9912 -1004.22 -256.3987)">
			<stop  offset="0.1224" style="stop-color:#FCA4B5"/>
			<stop  offset="0.9896" style="stop-color:#FFADB7"/>
		</linearGradient>
		<path fill="url(#SVGID_3_)" d="M105.822,107.681c0,0,0.57,0.892,1.788,0.184c0.655-0.381,0.752-1.292,0.752-1.292l0.511-2.413
			l-2.923,2.951L105.822,107.681z"/>
		<path fill="#FEC7C7" d="M110.28,102.841c-0.02,0.007-0.039,0.014-0.059,0.018c0,0,0.002,0.001,0,0.002
			c-0.384,0.124-0.691,0.083-0.691,0.083s-0.73,1.763-1.145,2.754c-0.416,0.992-1.087,1.398-2.374,1.801
			c-1.286,0.403-1.604,0.033-1.805-0.219c-0.141-0.173-0.514-1.221-0.76-2.188c-0.108-0.419-0.189-0.822-0.219-1.133
			c-0.099-1.024-0.385-1.697-0.531-1.93c-0.144-0.231-0.166-1.575,0.096-3c0.26-1.425,1.778-2.917,2.897-3.273
			c1.119-0.357,2.706-0.059,4.009,0.76c1.303,0.818,1.82,1.765,1.768,2.747C111.413,100.245,110.874,102.386,110.28,102.841z"/>
		<path fill="#754554" d="M104.082,102.621c0,0,0.818,0.021,0.979,0.042c0.162,0.021,0.991,0.336,0.991,0.336l-1.082-0.184
			l-0.866-0.037L104.082,102.621z"/>
		<polygon fill="#754554" points="103.302,102.252 102.625,101.762 102.575,101.927 102.697,102.03 103.401,102.509 		"/>
		<g>
			
				<linearGradient id="SVGID_4_" gradientUnits="userSpaceOnUse" x1="1146.0972" y1="210.1738" x2="1145.3132" y2="210.6244" gradientTransform="matrix(0.9912 0.1326 -0.1326 0.9912 -1004.22 -256.3987)">
				<stop  offset="0.1224" style="stop-color:#FEC7C7"/>
				<stop  offset="0.9896" style="stop-color:#FFDBDB"/>
			</linearGradient>
			<path fill="url(#SVGID_4_)" d="M103.648,102.746c0,0-0.267,0.999-0.484,1.535c-0.217,0.536,0.078,0.74,0.534,0.79
				c0.456,0.049,0.676-0.098,0.676-0.098L103.648,102.746z"/>
			
				<linearGradient id="SVGID_5_" gradientUnits="userSpaceOnUse" x1="1145.3198" y1="210.2363" x2="1146.7173" y2="210.2363" gradientTransform="matrix(0.9912 0.1326 -0.1326 0.9912 -1004.22 -256.3987)">
				<stop  offset="0.188" style="stop-color:#FFDCDC"/>
				<stop  offset="0.8991" style="stop-color:#FEC7C7"/>
			</linearGradient>
			<path fill="url(#SVGID_5_)" d="M103.81,105.123c-0.037-0.001-0.076-0.004-0.117-0.009c-0.296-0.031-0.492-0.125-0.584-0.279
				c-0.085-0.142-0.08-0.334,0.016-0.57c0.213-0.527,0.479-1.52,0.482-1.53l0.084,0.022c-0.003,0.01-0.271,1.008-0.486,1.541
				c-0.084,0.209-0.092,0.375-0.021,0.492c0.077,0.129,0.252,0.209,0.52,0.238c0.435,0.046,0.645-0.09,0.647-0.091l0.048,0.072
				C104.389,105.015,104.198,105.14,103.81,105.123z"/>
		</g>
		
			<ellipse transform="matrix(0.8469 -0.5318 0.5318 0.8469 -38.9529 71.7209)" fill="#FFFFFF" cx="105.071" cy="103.504" rx="0.223" ry="0.245"/>
		
			<ellipse transform="matrix(0.8464 -0.5326 0.5326 0.8464 -38.9166 70.8306)" fill="#FFFFFF" cx="103.318" cy="102.872" rx="0.177" ry="0.245"/>
		<path fill="#AF727B" d="M110.221,102.859c0,0,0.002,0.001,0,0.002c-0.384,0.124-0.691,0.083-0.691,0.083s-0.73,1.763-1.145,2.754
			c-0.416,0.992-1.087,1.398-2.374,1.801c-1.286,0.403-1.604,0.033-1.805-0.219c-0.141-0.173-0.514-1.221-0.76-2.188
			c0.191,0.033,0.439,0.08,0.735,0.125c0.594,0.245,2.308,0.871,3.298,0.208c0.591-0.396,0.52-1.861,0.52-1.861
			c0.237-2.122,1.755-2.99,2.176-1.859C110.259,101.931,110.283,102.345,110.221,102.859z"/>
		<path fill="#FEC7C7" d="M108.704,104.934c0.129-0.312-0.124-0.811-0.08-1.559c0.043-0.748-0.014-1.603,0.247-1.728
			c0.261-0.125,0.809,0.035,0.809,0.035l-0.317,1.665L108.704,104.934z"/>
		<path fill="#754554" d="M108.624,103.375c0,0,0.23-1.254,0.547-1.4c0.318-0.146,0.539,0.023,0.539,0.023s0.449,1.614,0.491,1.696
			c0.267-0.664,0.811-1.148,1.141-2.147c0.33-1,1.044-2.611,0.121-3.981c-0.923-1.371-2.16-1.455-2.16-1.455
			s-1.295-1.404-3.824-0.709s-3.124,3.463-3.156,3.707c-0.033,0.242,0.342,0.787,0.342,0.787s0.648,0.521,1.618-0.042
			c0.97-0.565,2.076-0.476,2.347-0.298c0.271,0.178-0.136,1.806-0.096,2.035s0.973,0.613,1.203,0.803s0.262,1.171,0.262,1.171
			L108.624,103.375z"/>
		<path fill="#754554" d="M103.907,105.268c0,0,0.483-0.21,0.966,0.224s1.146,0.53,1.312,0.458s0.167-0.072,0.167-0.072
			s-0.112,0.487-0.895,0.296s-1.152-0.488-1.441-0.491C103.799,105.593,103.907,105.268,103.907,105.268z"/>
		<path fill="#754554" d="M104.042,105.307c0,0-0.035-0.076-0.128-0.089c-0.092-0.012-0.29-0.117-0.555-0.074
			s-0.462-0.069-0.539-0.258c-0.077-0.189,0.091,0.554,0.41,0.692c0.319,0.138,0.534,0.176,0.788,0.097
			C104.271,105.596,104.042,105.307,104.042,105.307z"/>
		<path fill="#FEC7C7" d="M104.814,106.215c0,0-0.326-0.114-0.446-0.136c-0.121-0.022-0.432-0.076-0.498-0.066
			c-0.066,0.009,0.001,0.259,0.215,0.329C104.299,106.411,104.714,106.302,104.814,106.215z"/>
		
			<linearGradient id="SVGID_6_" gradientUnits="userSpaceOnUse" x1="1151.0396" y1="208.3994" x2="1152.4233" y2="208.3994" gradientTransform="matrix(0.9912 0.1326 -0.1326 0.9912 -1004.22 -256.3987)">
			<stop  offset="0.1224" style="stop-color:#FEB9B8"/>
			<stop  offset="1" style="stop-color:#FFDEDE"/>
		</linearGradient>
		<path fill="url(#SVGID_6_)" d="M109.105,102.425c0,0,0.319-0.723,1.069-0.72c0.751,0.002,0.122,1.319-0.061,1.742
			c-0.182,0.423-0.548,0.695-0.828,0.619c-0.28-0.077-0.345-0.415-0.345-0.415S109.121,102.952,109.105,102.425z"/>
		
			<linearGradient id="SVGID_7_" gradientUnits="userSpaceOnUse" x1="1151.2036" y1="208.2559" x2="1152.2241" y2="208.2559" gradientTransform="matrix(0.9912 0.1326 -0.1326 0.9912 -1004.22 -256.3987)">
			<stop  offset="0.1224" style="stop-color:#FCA4B5"/>
			<stop  offset="0.9896" style="stop-color:#FFADB7"/>
		</linearGradient>
		<path fill="url(#SVGID_7_)" d="M109.245,102.617c0,0,0.589-0.684,0.908-0.594c0.318,0.09,0.079,0.803-0.103,1.179
			c-0.181,0.376-0.742,0.301-0.783,0.193s-0.098-0.14-0.098-0.14L109.245,102.617z"/>
	</g>
	<path fill="#E6F1FF" d="M112.796,117.816l0.723,4.516l-1.693,9.401c0,0,0.769,0.977,2.17,0.854c0.131-0.433,2.435-7.781,2.5-9.273
		s-0.079-2.731-0.079-2.731L112.796,117.816z"/>
	<path fill="#E6F1FF" d="M93.373,118.852c0,0,0.035-0.08,0.308-0.037c0.273,0.044,0.5,0.17,1.885,0.198
		c1.384,0.027,3.311,0.019,3.311,0.019s0.946-0.157,1.599,1.137s0.587,1.61,0.254,1.976c-0.334,0.366-1.494,0.294-1.705,0.286
		c-0.211-0.009-1.271-0.123-2.124-0.287c-0.853-0.165-3.729-0.849-4.072-1.059c0.157,0.008,0.346,0.069,0.346,0.069
		s0.531-0.138,0.623-1.024c0.091-0.881-0.213-1.224-0.213-1.224L93.373,118.852z"/>
</g>
</svg>
