<?xml version="1.0" encoding="utf-8"?>
<!-- Generator: Adobe Illustrator 16.0.0, SVG Export Plug-In . SVG Version: 6.00 Build 0)  -->
<!DOCTYPE svg PUBLIC "-//W3C//DTD SVG 1.1//EN" "http://www.w3.org/Graphics/SVG/1.1/DTD/svg11.dtd">
<svg version="1.1" id="Layer_1" xmlns="http://www.w3.org/2000/svg" xmlns:xlink="http://www.w3.org/1999/xlink" x="0px" y="0px"
	 width="463.683px" height="425.749px" viewBox="0 0 463.683 425.749" enable-background="new 0 0 463.683 425.749"
	 xml:space="preserve">
<g>
	<path fill="#BDD6F2" d="M367.333,181.646c4.324-2.752,11.539-3.05,16.113-0.666s4.776,6.548,0.451,9.3
		c-4.324,2.752-11.538,3.05-16.113,0.666C363.21,188.562,363.008,184.398,367.333,181.646z"/>
	<g>
		<path fill="#FEBFBF" d="M377.857,143.686c0.303,1.921,3.344,11.131,3.709,12.383c0.024,0.082,0.036,0.123,0.036,0.123
			s0.302,0.085,0.46-0.023c0.157-0.108,0.331-1.161,0.331-1.161l0.005,0.49c0,0.002,0,0.002,0,0.004l0.001,0.135
			c0,0.008,0.001,0.019,0.003,0.026c0,0.006,0.003,0.012,0.003,0.018c0.019,0.082,0.085,0.241,0.31,0.23
			c0.038-0.002,0.075-0.02,0.109-0.052c0.006-0.004,0.012-0.011,0.018-0.017c0.245-0.244,0.44-1.064,0.488-1.195
			c0.055-0.154,0.066-1.148,0.066-1.148l0.017,0.018c0.045,0.048,0.168,0.176,0.294,0.272v0.002
			c0.104,0.081,0.212,0.142,0.277,0.118c0.16-0.058-0.033-0.64-0.033-0.64s-0.289-0.979-0.367-1.288
			c-0.08-0.31-0.514-1.444-0.876-2.13c-0.2-0.996-1.303-9.715-1.303-9.715s0.378-9.298-0.707-11.354s-3.179-1.193-3.179-1.193
			S377.533,141.641,377.857,143.686z"/>
		<path fill="#E9F0F9" d="M377.252,127.024c0,0,2.925-0.518,3.799,1.747c0.874,2.265,0.721,6.494,0.721,6.494
			s-1.892,2.328-4.331,0.079C375.002,133.095,377.252,127.024,377.252,127.024z"/>
		<path fill="#FEBFBF" d="M383.707,153.788l-0.294-0.272C383.458,153.563,383.581,153.692,383.707,153.788z"/>
		
			<linearGradient id="SVGID_1_" gradientUnits="userSpaceOnUse" x1="3497.5366" y1="92.7046" x2="3498.5396" y2="92.7046" gradientTransform="matrix(-0.9987 0.051 0.051 0.9987 3871.6689 -117.2642)">
			<stop  offset="0.1224" style="stop-color:#FCA4B5"/>
			<stop  offset="0.9896" style="stop-color:#FFADB7"/>
		</linearGradient>
		<path fill="url(#SVGID_1_)" d="M383.226,154.736c0.028,0.164-0.294,0.989-0.385,1.106c0.245-0.244,0.44-1.064,0.488-1.195
			c0.055-0.154,0.066-1.148,0.066-1.148s-0.309-0.801-0.433-0.945s-0.667-0.921-0.667-0.921s0.239,0.738,0.297,0.88
			c0.058,0.142,0.401,0.508,0.488,0.713c0.086,0.207,0.216,0.468,0.216,0.468S383.195,154.57,383.226,154.736z"/>
		
			<linearGradient id="SVGID_2_" gradientUnits="userSpaceOnUse" x1="3498.271" y1="93.6484" x2="3499.4956" y2="93.6484" gradientTransform="matrix(-0.9987 0.051 0.051 0.9987 3871.6689 -117.2642)">
			<stop  offset="0.1224" style="stop-color:#FCA4B5"/>
			<stop  offset="0.9896" style="stop-color:#FFADB7"/>
		</linearGradient>
		<path fill="url(#SVGID_2_)" d="M381.566,156.069c0.024,0.082,0.036,0.123,0.036,0.123s0.302,0.085,0.46-0.023
			c0.157-0.108,0.331-1.161,0.331-1.161l0.005,0.49c0.033-0.245,0.292-1.407,0.292-1.407l-0.073-0.917l-0.169,0.269
			c0,0-0.034,0.832-0.032,0.882c0.003,0.05-0.33,1.407-0.33,1.407S381.999,156.104,381.566,156.069z"/>
	</g>
	<g>
		<path fill="#626170" d="M383.604,185.029c0,0,0.262,0.132,0.274,0.326c0.014,0.194,0.021,0.729,0.021,0.855
			c-0.001,0.125-0.332,0.615-1.144,0.804c-0.811,0.189-2.782-0.333-3.447-0.721c-0.664-0.388-1.57-1.375-1.846-1.45
			c-0.217-0.059-0.77,0.022-0.997,0.06c-0.071,0.012-0.14,0.015-0.211,0.009l-0.521-0.044c-0.074-0.006-0.147-0.021-0.218-0.047
			l-1.115-0.396c0,0-0.16-0.819,0.175-1.078S383.604,185.029,383.604,185.029z"/>
		<path fill="#504F60" d="M379.007,181.702c0,0,0.967,0.612,1.138,0.784c0.172,0.172,1.916,0.881,2.521,1.25
			c0.604,0.369,1.06,1,1.1,1.207c0.04,0.207,0.132,0.679,0.062,0.876s-0.386,0.723-1.43,0.789c-0.935,0.058-2.735-0.731-3.104-0.897
			c-0.045-0.02-0.085-0.043-0.126-0.071c-0.278-0.189-1.438-0.976-1.629-1.066c-0.217-0.102-2.139-0.588-2.431-0.685
			c-0.292-0.097-0.62-0.133-0.662-0.368c-0.043-0.235-0.131-1.523,0.023-1.929C374.625,181.187,378.155,180.662,379.007,181.702z"/>
		<path fill="#4F5997" d="M374.453,181.875c0.101,0.319,0.47,0.545,1.709,0.61c0.143,0.006,0.286,0.012,0.429,0.012
			c0.889,0.029,1.708-0.039,2.604-0.43c0.314-0.138,0.525-0.448,0.528-0.791c0.036-3.453,1.487-17.699,1.921-26.556
			c0.273-5.601-0.941-8.446-0.941-8.446l-5.982-0.344l-0.219,14.776l0.002,8.548C374.503,169.253,374.358,181.556,374.453,181.875z"
			/>
		<g>
			<path fill="#8C92B0" d="M376.15,182.507c0.005-0.099,0.442-9.922,0.596-11.988c0.153-2.072,0.278-13.819,0.28-13.937
				l-0.231-0.003c0,0.118-0.126,11.858-0.279,13.923c-0.153,2.069-0.591,11.896-0.595,11.995L376.15,182.507z"/>
		</g>
		<path fill="#A8B0C2" d="M374.453,181.875c0.065,0.208,0.245,0.376,0.707,0.486c0.632-0.487,0.866-0.668,1.499-1.156l1.05-24.308
			c0,0,1.566-1.701,1.297-2.757c-0.118-0.455-4.374,5.982-4.374,5.982l-0.13,0.583l0.002,8.548
			C374.503,169.253,374.358,181.556,374.453,181.875z"/>
		<path fill="#626170" d="M376.461,188.188c0,0,0.287,0.005,0.354,0.387c0.023,0.125,0.037,0.259,0.046,0.381
			c0.023,0.328-0.134,0.647-0.42,0.809c-0.243,0.137-0.604,0.276-1.121,0.341c-1.198,0.151-2.663-0.292-3.415-0.717
			c-0.751-0.426-1.021-0.772-1.475-1.401c-0.453-0.629-0.921-0.929-0.921-0.929l-0.191,0.051c0,0-0.671-0.487-1.039-0.825
			c-0.148-0.137-0.245-0.317-0.27-0.518c-0.052-0.423-0.062-1.115,0.064-1.195C368.24,184.467,376.461,188.188,376.461,188.188z"/>
		<path fill="#504F60" d="M373.285,184.133l0.156,0.373c0.045,0.108,0.11,0.205,0.194,0.286c0.44,0.429,1.913,1.866,2.362,2.346
			c0.531,0.567,0.805,1.064,0.828,1.578c0.023,0.515-1.313,0.848-1.513,0.861c-0.2,0.014-1.088,0.102-2.225-0.322
			c-1.138-0.424-1.606-0.831-2.52-1.824s-1.53-1.539-1.811-1.766s-0.688-0.588-0.683-0.882c0.004-0.294-0.041-1.118,0.199-1.221
			c0.217-0.092,3.401-0.357,4.589,0.126C373.059,183.767,373.203,183.938,373.285,184.133z"/>
		<path fill="#4F5997" d="M378.402,148.656c0,0,0.566,2.456,0.793,4.797c0.203,2.089-2.012,2.832-2.012,2.832
			s-1.425,9.98-1.931,12.438c-0.448,2.178-1.7,12.396-1.981,14.634c-0.037,0.294-0.219,0.545-0.487,0.67
			c-0.806,0.376-2.588,1.018-4.066,0.187c-0.262-0.147-0.425-0.426-0.435-0.726c-0.231-6.914,0.919-15.169,0.993-16.244
			c0.003-0.041,0.004-0.075,0.002-0.116c-0.101-2.024-1.18-9.071-1.541-13.821c-0.315-1.867,0.231-4.828,0.231-4.828
			L378.402,148.656z"/>
		<g>
			<path fill="#8C92B0" d="M377.784,154.764c-0.098-0.062-0.209-0.206-0.188-0.542c0.093-1.437-0.131-3.703-0.215-3.886l0.086-0.061
				l0.001-0.003l0.001,0.002l-0.058-0.102l0.066-0.034l0.058,0.036c0.197,0.124,0.366,2.875,0.29,4.063
				c-0.011,0.17,0.02,0.294,0.081,0.333c0.043,0.026,0.109,0.015,0.187-0.028c0.266-0.148,0.658-0.7,0.648-1.611
				c-0.007-0.538-0.127-2.557-0.16-2.765l0.229-0.035c0.037,0.242,0.155,2.282,0.161,2.797c0.011,0.947-0.39,1.604-0.766,1.815
				c-0.079,0.044-0.156,0.067-0.229,0.07C377.907,154.816,377.841,154.801,377.784,154.764z M377.525,150.371l-0.054-0.095
				L377.525,150.371z"/>
		</g>
		<g>
			<path fill="#8C92B0" d="M369.133,184.677l0.23-0.011c-0.276-5.589,0.331-11.515,0.693-15.056
				c0.141-1.373,0.242-2.365,0.231-2.782c-0.023-0.915-0.341-4.027-0.648-7.037c-0.176-1.726-0.343-3.356-0.435-4.399
				c-0.246-2.777-0.03-4.439-0.027-4.456l-0.229-0.031c-0.002,0.017-0.222,1.702,0.026,4.507c0.093,1.045,0.259,2.676,0.436,4.403
				c0.293,2.866,0.624,6.114,0.646,7.02c0.011,0.402-0.09,1.388-0.23,2.752C369.464,173.134,368.857,179.071,369.133,184.677z"/>
		</g>
		<g>
			<path fill="#8C92B0" d="M372.089,154.984c1.32-0.057,2.327-0.409,3.005-1.053c0.879-0.835,0.855-1.846,0.854-1.889l-0.23,0.007
				c0.001,0.009,0.02,0.956-0.786,1.718c-0.842,0.796-2.242,1.117-4.163,0.952l-0.02,0.229
				C371.227,154.991,371.673,155.002,372.089,154.984z"/>
		</g>
		<path fill="#A76478" d="M367.682,150.806c0,0,2.2,0.938,5.655,0.667s4.757-0.738,5.898-1.444c1.143-0.707,1.833-1.596,1.833-1.596
			l-0.239-1.33c0,0-0.634,1.112-2.264,1.894c-1.629,0.782-5.163,1.113-6.604,1.187s-4.173-0.428-4.173-0.428L367.682,150.806z"/>
		<path fill="#4F5997" d="M375.018,149.963c0,0,0.102,0.379,0.125,0.83c0.022,0.452,0.022,1.282,0.022,1.282l0.521-0.095
			c0,0,0.078-0.803,0.051-1.204c-0.028-0.4-0.16-0.953-0.16-0.953L375.018,149.963z"/>
		<path fill="#4F5997" d="M370.012,150.079c0,0-0.085,0.383-0.09,0.835c-0.004,0.452,0.031,1.282,0.031,1.282l-0.525-0.072
			c0,0-0.111-0.799-0.101-1.201c0.012-0.401,0.119-0.959,0.119-0.959L370.012,150.079z"/>
		<path fill="#4F5997" d="M379.792,148.188c0,0,0.137,0.469,0.164,0.853c0.026,0.384-0.031,1.042-0.031,1.042l0.342-0.437
			c0,0,0.041-0.666,0.026-0.874c-0.015-0.209-0.221-0.816-0.221-0.816L379.792,148.188z"/>
		<g>
			<path fill="#8C92B0" d="M381.491,150.325c0.035-0.001,0.072-0.008,0.109-0.02l-0.072-0.219c-0.272,0.095-0.652-0.615-0.784-0.973
				l-0.217,0.08C380.574,149.318,380.97,150.348,381.491,150.325z"/>
		</g>
		<g>
			<path fill="#CCDEFB" d="M377.166,150.992c-0.143-0.1-0.225-0.263-0.23-0.46l-0.011-0.385c-0.012-0.405,0.303-0.841,0.716-0.994
				l0.969-0.359c0.226-0.083,0.446-0.067,0.607,0.045c0.143,0.099,0.225,0.262,0.23,0.459l0.011,0.386
				c0.012,0.404-0.303,0.84-0.716,0.994l-0.969,0.358c-0.063,0.023-0.124,0.039-0.185,0.046
				C377.43,151.104,377.282,151.073,377.166,150.992z M378.7,149.215l-0.969,0.359c-0.214,0.079-0.396,0.314-0.392,0.504
				l0.011,0.386c0.002,0.065,0.025,0.113,0.069,0.144c0.063,0.043,0.159,0.046,0.263,0.008l0.969-0.358
				c0.214-0.079,0.396-0.315,0.392-0.505l-0.012-0.386c-0.002-0.064-0.024-0.113-0.068-0.144s-0.102-0.041-0.168-0.032
				C378.764,149.195,378.732,149.203,378.7,149.215z"/>
		</g>
	</g>
	<path fill="#DDE8F6" d="M366.391,137.929c0.081,0.511,0.157,1.002,0.212,1.447c0.295,2.398,1.315,10.424,1.315,10.424
		c0.001,0.004,0.022,0.147,1.166,0.248c0.38,0.034,1.016,0.035,1.783,0.007c1.59-0.057,3.748-0.232,5.357-0.488
		c2.387-0.378,4.804-2.282,4.69-2.897c-0.114-0.613-0.324-2.642-0.046-6.47c0.279-3.83,0.253-8.868-0.615-10.786
		c-0.869-1.916-1.395-2.174-3.002-2.39c-1.606-0.216-5.197-0.666-5.805-0.413c-0.61,0.254-1.644,1.519-2.719,2.162
		c-1.239,0.742-2.505,2.066-2.899,2.829C364.751,133.692,366.027,135.673,366.391,137.929z"/>
	<path fill="#DDE8F6" d="M366.391,137.929c0.081,0.511,0.157,1.002,0.212,1.447c0.295,2.398,1.315,10.424,1.315,10.424
		c0.001,0.004,0.022,0.147,1.166,0.248c0.38,0.034,1.016,0.035,1.783,0.007c-0.495-1.722-1.091-3.258-0.94-4.095
		c0.181-1.023,0.283-10.195,0.283-10.195L366.391,137.929z"/>
	<path fill="#FEBFBF" d="M368.068,131.261c0,0,2.635,0.451,2.101,4.86c-0.534,4.41-1.544,9.496-1.718,9.935
		c-0.175,0.438-2.915,1.697-3.196-0.014c-0.281-1.71-0.284-5.489-0.292-7.25c-0.007-1.761,0.616-5.869,1.159-6.708
		C366.615,131.324,367.42,131.002,368.068,131.261z"/>
	
		<linearGradient id="SVGID_3_" gradientUnits="userSpaceOnUse" x1="3698.4116" y1="-78.8716" x2="3694.5728" y2="-81.2952" gradientTransform="matrix(-0.9937 0.1119 0.1119 0.9937 4055.2378 -209.2993)">
		<stop  offset="0.1224" style="stop-color:#FEC7C7"/>
		<stop  offset="0.9694" style="stop-color:#FFADB7"/>
	</linearGradient>
	<path fill="url(#SVGID_3_)" d="M376.511,124.818c0,0,0.106,3.037,0.324,3.619c0.217,0.582-0.957,0.933-2.376,0.891
		c-1.42-0.042-2.776-1.018-3.337-1.208s-0.553-0.478-0.127-1.081c0.426-0.604,0.949-1.337,0.637-3.07
		c-0.313-1.733-0.909-4.176-0.525-4.657c0.385-0.481,3.285,0,3.97,1.288C375.76,121.888,376.511,124.818,376.511,124.818z"/>
	<path fill="#FEC7C7" d="M371.95,120.8c0,0,1.194,3.068,1.447,3.662c0.251,0.594,0.938,1.224,1.875,1.608
		c0.935,0.384,2.431,0.652,3.007,0.385s0.611-0.404,0.609-0.726c-0.001-0.267,0.254-1.07,0.242-2.174
		c-0.002-0.217-0.016-0.443-0.041-0.679c-0.105-0.934,0.13-2.289,0.034-2.547c-0.098-0.257-0.029-2.337-0.733-3.202
		c-0.703-0.865-2.79-2.5-4.857-2.014c-1.703,0.4-1.674,4.001-1.613,5.258C371.933,120.638,371.95,120.8,371.95,120.8z"/>
	<g>
		
			<linearGradient id="SVGID_4_" gradientUnits="userSpaceOnUse" x1="3690.9077" y1="-81.9072" x2="3689.9636" y2="-81.6931" gradientTransform="matrix(-0.9937 0.1119 0.1119 0.9937 4055.2378 -209.2993)">
			<stop  offset="0.1224" style="stop-color:#FEC7C7"/>
			<stop  offset="0.9896" style="stop-color:#FFDBDB"/>
		</linearGradient>
		<path fill="url(#SVGID_4_)" d="M378.464,121.061c0.121,0.778,0.854,1.588,0.986,2.028c0.134,0.44-1.236,0.479-1.466,0.451
			L378.464,121.061z"/>
		
			<linearGradient id="SVGID_5_" gradientUnits="userSpaceOnUse" x1="3689.9165" y1="-81.9004" x2="3691.4839" y2="-81.9004" gradientTransform="matrix(-0.9937 0.1119 0.1119 0.9937 4055.2378 -209.2993)">
			<stop  offset="0.188" style="stop-color:#FFDCDC"/>
			<stop  offset="0.8991" style="stop-color:#FEC7C7"/>
		</linearGradient>
		<path fill="url(#SVGID_5_)" d="M378.341,123.589c0.381-0.017,0.935-0.085,1.108-0.292c0.054-0.065,0.07-0.142,0.046-0.221
			c-0.053-0.175-0.192-0.399-0.355-0.659c-0.248-0.397-0.557-0.893-0.631-1.363l-0.092,0.015c0.076,0.488,0.392,0.993,0.645,1.397
			c0.158,0.254,0.295,0.474,0.345,0.637c0.015,0.05,0.006,0.093-0.028,0.134c-0.206,0.245-1.158,0.285-1.389,0.258l-0.01,0.093
			C378.029,123.593,378.167,123.596,378.341,123.589z"/>
	</g>
	<path fill="#AF727B" d="M371.95,120.8c0,0,1.194,3.068,1.447,3.662c0.251,0.594,0.938,1.224,1.875,1.608
		c0.935,0.384,2.431,0.652,3.007,0.385s0.611-0.404,0.609-0.726c-0.001-0.267,0.254-1.07,0.242-2.174
		c-0.204-0.002-0.514,0.015-0.877,0.125c-0.488,0.148-2.622,0.951-3.332,0.626c-0.711-0.324-1.273-1.726-1.273-1.726
		s-0.052-1.072-0.152-1.51c-0.092-0.41-1.404-0.666-1.576-0.699C371.933,120.638,371.95,120.8,371.95,120.8z"/>
	<path fill="#FEC7C7" d="M373.057,123.622c0,0,0.254-1.976-0.116-2.693c-0.371-0.717-1.392-0.686-1.392-0.686l0.441,1.598
		C371.991,121.84,371.878,123.21,373.057,123.622z"/>
	<path fill="#FEC7C7" d="M377.744,124.888c0,0,0.42-0.377,0.803-0.503s0.442,0.171,0.379,0.325
		C378.862,124.865,378.553,125.576,377.744,124.888z"/>
	
		<ellipse transform="matrix(-0.6826 -0.7308 0.7308 -0.6826 545.3168 479.9709)" fill="#FFFFFF" cx="376.891" cy="121.563" rx="0.314" ry="0.356"/>
	
		<ellipse transform="matrix(-0.9912 -0.1326 0.1326 -0.9912 738.1785 291.4336)" fill="#FFFFFF" cx="378.792" cy="121.14" rx="0.19" ry="0.344"/>
	<path fill="#754554" d="M377.895,120.737c0,0-0.053,0.268-0.194,0.275c-0.143,0.007-0.738-0.043-0.738-0.043l-1.075,0.248
		l0.037-0.19l1.071-0.436L377.895,120.737z"/>
	<path fill="#754554" d="M378.503,120.635c-0.02,0.002,0.023,0.208,0.023,0.208l0.62-0.28c0,0,0.043-0.097,0.051-0.136
		c0.007-0.039-0.093-0.179-0.093-0.179L378.503,120.635z"/>
	<path fill="#754554" d="M371.665,124.168l-0.501-0.618l-0.337-0.147l-0.589-1.045c0,0-1.215-2.255-1.122-3.529
		c0.093-1.273,0.783-2.726,2.271-3.019c1.044-1.196,2.942-1.393,4.052-1.265c1.109,0.127,2.495,1.066,3.102,2.262
		c0.606,1.195,0.265,1.207,0.265,1.207s-0.663,0.489-1.536,0.065s-1.284-0.782-1.601-0.746c-0.315,0.036-0.614,0.827-0.571,1.209
		c0.043,0.383,0.223,1.374-0.166,1.669c-0.388,0.297-1.146,1.19-1.274,1.391c-0.13,0.2-0.008,0.978-0.008,0.978l-0.487-0.198
		c0,0-0.101-0.987-0.639-1.354c-0.539-0.367-0.875,0.092-0.876,0.378c-0.002,0.287,0.232,1.17,0.172,1.379
		S371.615,123.72,371.665,124.168z"/>
	<path fill="#FEBFBF" d="M368.453,145.918c0,0,0.503-0.319,0.619,0.162s0.409,8.319,0.49,8.69c0.082,0.371,0.812,1.141,0.989,1.26
		c0.179,0.119,0.973,0.959,1.097,1.234c0.124,0.274,0.579,1.576,0.731,1.878c0.151,0.302,0.733,0.769,0.587,1.122
		c-0.146,0.353-0.778-0.11-1.067-0.401c-0.29-0.291-0.789-1.419-1.067-1.736c-0.021,0.342-0.059,1.467-0.035,1.956
		c0.016,0.347,0.844,2.07,0.682,2.235c-0.08,0.082-0.307,0.102-0.512-0.083c-0.204-0.184-0.847-1.213-0.847-1.213
		s0.42,1.225,0.425,1.438c0.006,0.213-0.225,0.322-0.5,0.042s-0.355-0.474-0.355-0.474s-0.316,0.279-0.472,0.078
		c-0.156-0.201-0.677-0.926-0.729-1.211c-0.054-0.285-0.186-0.652-0.186-0.652s-0.267-0.221-0.442-0.71
		c-0.177-0.489-0.511-1.452-0.549-2.104c-0.039-0.651-0.198-2.322-0.441-3.602c-0.243-1.279-1.915-6.476-1.526-7.725
		C366.229,146.141,368.453,145.918,368.453,145.918z"/>
	
		<linearGradient id="SVGID_6_" gradientUnits="userSpaceOnUse" x1="3342.4849" y1="168.1934" x2="3344.0688" y2="168.1934" gradientTransform="matrix(-1 0.001 0.001 1 3715.2036 -49.2231)">
		<stop  offset="0.1224" style="stop-color:#FEB9B8"/>
		<stop  offset="1" style="stop-color:#FFDEDE"/>
	</linearGradient>
	<path fill="url(#SVGID_6_)" d="M372.601,121.312c0,0-0.352-0.585-1.038-0.359c-0.687,0.227,0.187,1.93,0.236,2.032
		s0.202,0.805,0.763,0.737c0.561-0.068,0.225-0.854,0.225-0.854S372.476,121.822,372.601,121.312z"/>
	
		<linearGradient id="SVGID_7_" gradientUnits="userSpaceOnUse" x1="3342.7876" y1="167.8945" x2="3343.8472" y2="167.8945" gradientTransform="matrix(-1 0.001 0.001 1 3715.2036 -49.2231)">
		<stop  offset="0.1224" style="stop-color:#FCA4B5"/>
		<stop  offset="0.9896" style="stop-color:#FFADB7"/>
	</linearGradient>
	<path fill="url(#SVGID_7_)" d="M372.375,121.295c0,0-0.399-0.341-0.737-0.103c-0.337,0.238,0.13,1.48,0.506,1.727
		c0.218,0.017,0.439-0.031,0.439-0.031S372.267,121.597,372.375,121.295z"/>
	<path fill="#E9F0F9" d="M364.852,137.959c0,0,2.641,1.002,5.161,0.555c0.346-1.309,1.269-8.029-2.525-8.213
		c-1.406-0.024-1.61,1.071-1.848,1.748C365.402,132.726,364.928,135.45,364.852,137.959z"/>
</g>
</svg>
