<?xml version="1.0" encoding="utf-8"?>
<!-- Generator: Adobe Illustrator 16.0.0, SVG Export Plug-In . SVG Version: 6.00 Build 0)  -->
<!DOCTYPE svg PUBLIC "-//W3C//DTD SVG 1.1//EN" "http://www.w3.org/Graphics/SVG/1.1/DTD/svg11.dtd">
<svg version="1.1" id="Layer_1" xmlns="http://www.w3.org/2000/svg" xmlns:xlink="http://www.w3.org/1999/xlink" x="0px" y="0px"
	 width="463.683px" height="425.749px" viewBox="0 0 463.683 425.749" enable-background="new 0 0 463.683 425.749"
	 xml:space="preserve">
<g>
	<g>
		<path fill="#D7E4F2" d="M230.716,324.104c4.663-2.968,12.442-3.289,17.375-0.718c4.932,2.57,5.15,7.06,0.486,10.027
			c-4.663,2.968-12.441,3.289-17.374,0.719C226.271,331.562,226.053,327.072,230.716,324.104z"/>
		<g>
			<path fill="#6C6B79" d="M247.907,329.182l0.25,0.631c0,0,0.117,0.751-0.025,0.871c-0.143,0.121-0.712,0.894-1.87,0.9
				c-1.159,0.006-3.229-1.776-3.229-1.776s-3.187-1.703-3.288-1.842c-0.103-0.138-0.103-1.225-0.103-1.225l6.269,2.177
				L247.907,329.182z"/>
			<path fill="#6C6B79" d="M238.081,330.367c0,0,0.49,0.068,0.581,0.26c0.09,0.191,0.075,0.899,0.075,0.899s-0.987,0.95-2.692,0.922
				s-2.537-0.882-2.744-1.19s-2.153-2.57-2.153-2.57s-0.29-0.283-0.244-0.96c0.047-0.677,0.011-0.743,0.011-0.743
				s2.708,2.272,2.767,2.321C233.739,329.355,238.081,330.367,238.081,330.367z"/>
			<path fill="#504F60" d="M243.292,325.348c0,0,0.386,0.711,0.765,0.914c0.38,0.203,3.671,2.301,3.671,2.301
				s0.717,0.99,0.259,1.572s-1.855,0.771-2.812,0.381c-0.957-0.391-2.256-1.405-2.708-1.621c-0.453-0.215-2.601-1.194-2.777-1.795
				c-0.178-0.602-0.169-0.711-0.092-1.098c0.076-0.387,0.267-1.345,0.319-1.367S243.292,325.348,243.292,325.348z"/>
			<path fill="#4F5997" d="M239.522,310.303c0.054,0.606,0.113,1.145,0.179,1.581c0.05,0.339,0.127,0.637,0.227,0.894
				c0.876,2.303,3.445,1.557,3.92,0.605c0.055-0.106,0.112-0.271,0.172-0.485v-0.003c0.533-1.881,1.197-9.896,1.566-13.636
				c0.411-4.164-1.057-7.41-1.256-9.35l-4.769,2.321l-0.673,4.513c0,0,0.015,0.645,0.043,1.654
				C239.002,300.748,239.262,307.46,239.522,310.303z"/>
			<path fill="#4F5997" d="M239.448,324.996c0,0,0.508,0.481,1.277,0.869c0.034,0.019,0.068,0.035,0.103,0.053
				c0.854,0.397,2.474-0.462,2.465-0.57c-0.01-0.107,0.554-10.651,0.727-12.45v-0.003c0.172-1.789-0.672-2.44-0.672-2.44
				l-3.406-0.134l-0.419-0.018l-0.004,0.001c0,0-0.683,1.94-0.584,4.952C239.041,318.514,239.448,324.996,239.448,324.996z"/>
			<path fill="#A8B0C2" d="M239.448,324.996c0,0,0.508,0.481,1.277,0.869c-0.896-11.848,0.205-14.288,0.104-15.51l-0.135-8.288
				l0.569-3.035l-2.333-0.635c0.071,2.351,0.331,9.063,0.591,11.905l-0.004,0.001c0,0-0.61,1.939-0.584,4.952
				C238.965,318.768,239.448,324.996,239.448,324.996z"/>
			<path fill="#504F60" d="M231.612,324.788c-0.118,0.046-0.784,1.171-0.744,1.656c0.041,0.485,0.271,1.716,0.329,1.766
				s1.725,2.845,3.081,3.256s3.41-0.159,3.96-0.514s0.401-0.396,0.401-0.396s-0.04-0.486-0.647-0.815s-2.395-2.843-2.395-2.843
				l-0.739-2.004L231.612,324.788z"/>
			<path fill="#4F5997" d="M241.875,294.645c0,0,0.525,2.672,0.312,3.705c-0.215,1.032-1.668,1.842-1.723,2.064
				c-0.054,0.222-2.937,14.078-3.893,14.774s-3.021,1.123-3.272-3.167s-1.416-12.67-1.6-13.995s-0.119-4.186,0.681-5.448
				C233.18,291.316,241.875,294.645,241.875,294.645z"/>
			<g>
				<path fill="#8C92B0" d="M240.835,299.477c0.055-0.002,0.115-0.019,0.177-0.051c0.296-0.153,0.621-0.64,0.634-1.344
					c0.008-0.387-0.037-1.923-0.062-2.108l-0.175,0.022c0.021,0.159,0.067,1.68,0.061,2.082c-0.014,0.675-0.33,1.082-0.539,1.19
					c-0.068,0.034-0.125,0.041-0.159,0.019c-0.046-0.031-0.066-0.124-0.054-0.249c0.087-0.886,0.02-2.958-0.132-3.062l-0.043-0.03
					l-0.052,0.023l0.04,0.079l-0.001,0.003l-0.066,0.046c0.061,0.14,0.184,1.85,0.078,2.924c-0.025,0.25,0.057,0.362,0.131,0.412
					C240.719,299.465,240.775,299.479,240.835,299.477z"/>
			</g>
			<g>
				<path fill="#8C92B0" d="M234.98,299.497c1.594-0.068,2.426-0.485,2.857-0.872c0.519-0.462,0.54-0.934,0.541-0.953l-0.178-0.006
					c0,0.004-0.024,0.423-0.489,0.833c-0.53,0.47-1.701,0.985-4.275,0.786l-0.014,0.177
					C234.009,299.508,234.525,299.517,234.98,299.497z"/>
			</g>
			<path fill="#A76478" d="M231.505,296.52c0,0,1.751,1.082,5.475,0.949c3.723-0.133,5.148-0.47,6.417-0.998
				c1.269-0.527,2.064-1.209,2.064-1.209l-0.176-1.049c0,0-0.748,0.857-2.544,1.434c-1.797,0.576-5.609,0.755-7.158,0.779
				c-1.55,0.024-3.898-0.728-3.898-0.728L231.505,296.52z"/>
			<path fill="#4F5997" d="M238.875,296.322c0,0,0.086,0.299,0.084,0.654c-0.003,0.354-0.054,1.006-0.054,1.006l0.565-0.062
				c0,0,0.133-0.629,0.127-0.943c-0.006-0.315-0.112-0.753-0.112-0.753L238.875,296.322z"/>
			<path fill="#4F5997" d="M233.498,296.298c0,0-0.115,0.299-0.147,0.653s-0.045,1.006-0.045,1.006l-0.56-0.068
				c0,0-0.07-0.63-0.034-0.945c0.036-0.314,0.186-0.75,0.186-0.75L233.498,296.298z"/>
			<path fill="#4F5997" d="M244.106,295.039c0,0,0.119,0.371,0.124,0.673c0.006,0.302-0.097,0.817-0.097,0.817l0.394-0.335
				c0,0,0.084-0.521,0.081-0.686c-0.003-0.164-0.187-0.645-0.187-0.645L244.106,295.039z"/>
			<g>
				<path fill="#8C92B0" d="M245.394,297.385c0.035-0.002,0.07-0.007,0.106-0.016l-0.052-0.205
					c-0.366,0.094-0.751-0.508-0.871-0.748l-0.189,0.096C244.409,296.551,244.845,297.408,245.394,297.385z"/>
			</g>
			<g>
				<path fill="#CCDEFB" d="M239.9,297.241c-0.155-0.097-0.242-0.233-0.244-0.386l-0.004-0.299c-0.005-0.313,0.35-0.607,0.808-0.668
					l1.075-0.144c0.249-0.033,0.492,0.01,0.668,0.118c0.154,0.097,0.241,0.233,0.244,0.387l0.004,0.299
					c0.005,0.313-0.35,0.606-0.808,0.667l-1.075,0.144c-0.068,0.01-0.137,0.013-0.203,0.01
					C240.189,297.364,240.027,297.319,239.9,297.241z M241.625,296.082l-1.074,0.144c-0.237,0.031-0.443,0.188-0.441,0.335
					l0.005,0.299c0.001,0.05,0.025,0.091,0.073,0.121c0.068,0.042,0.174,0.057,0.289,0.042l1.074-0.144
					c0.237-0.031,0.443-0.188,0.44-0.335l-0.004-0.299c-0.001-0.05-0.025-0.091-0.074-0.12c-0.046-0.029-0.11-0.046-0.184-0.049
					C241.697,296.075,241.662,296.077,241.625,296.082z"/>
			</g>
			<path fill="#4F5997" d="M236.781,313.359c0,0,0.493,0.058,0.32,0.91s-1.912,11.091-1.912,11.091s-1.769,0.634-2.815,0.251
				c-1.046-0.383-1.267-0.715-1.275-0.823s-0.191-5.866,0.609-8.849s1.546-7.135,1.546-7.135L236.781,313.359z"/>
			<path fill="#FEBFBF" d="M243.312,273.049c0,0,1.83,0.01,2.453,2.258s1.76,8.456,1.619,9.374
				c-0.141,0.917-2.247,1.493-3.292-0.376C243.048,282.436,243.312,273.049,243.312,273.049z"/>
			<path fill="#E6F1FF" d="M242.684,271.674c0,0,2.548-0.108,3.269,2.766c0.258,1.025,1.578,7.15,1.578,7.15
				s-2.455,2.107-3.892,1.358S242.684,271.674,242.684,271.674z"/>
			<path fill="#FEBFBF" d="M247.396,284.534c0.307,0.265,2.607,4.165,2.744,4.28s0.988-0.318,0.988-0.318l1.018,0.26l1.059,0.526
				c0,0,0.759,0.19,0.821,0.294c0.063,0.103-0.08,0.332-0.429,0.289c-0.348-0.043-0.967-0.082-1.304-0.217s0.043,1.156,0.043,1.156
				s-0.196,0.903-0.556,0.934c-0.36,0.03-0.975,0.137-1.277,0.161c-0.302,0.025-0.73-0.119-0.73-0.119l-0.679-0.106l-0.745-1.115
				c0,0-4.577-3.613-3.956-5.814C246.058,284.411,247.088,284.271,247.396,284.534z"/>
			<g>
				<path fill="#C4C8D8" d="M250.542,290.065c0.153-0.085,0.422-0.169,0.577-0.177c1.416-0.091,5.172-0.662,5.19-0.652
					c0.007,0.004,0.045,0.342,0.048,0.348c0.01,0.025-0.03,0.068-0.114,0.115c-0.664,0.368-1.33,0.736-1.999,1.106
					c-0.002,0.001-0.004,0.003-0.006,0.004c-0.154,0.085-0.417,0.161-0.57,0.173c-1.421,0.092-3.704,0.238-5.12,0.329
					c-0.074,0.004-0.116-0.009-0.12-0.032c-0.004-0.024-0.047-0.354-0.047-0.354L250.542,290.065z"/>
				<path fill="#D7E4F2" d="M256.109,289.361c-0.657,0.363-1.31,0.725-1.967,1.089c-0.129,0.071-0.349,0.139-0.483,0.147
					c-1.399,0.09-3.672,0.235-5.075,0.325c-0.131,0.009-0.133-0.044-0.004-0.116c0.657-0.363,1.311-0.725,1.967-1.088
					c0.13-0.071,0.349-0.139,0.479-0.147c1.404-0.09,3.676-0.235,5.075-0.325C256.237,289.237,256.238,289.29,256.109,289.361
					L256.109,289.361z M248.488,290.824c-0.154,0.085-0.139,0.144,0.011,0.136c1.416-0.091,3.7-0.237,5.12-0.329
					c0.153-0.012,0.416-0.088,0.57-0.173c0.002-0.001,0.004-0.003,0.007-0.004c0.669-0.37,1.334-0.738,1.999-1.106
					c0.149-0.084,0.159-0.152-0.004-0.14c-1.421,0.092-3.705,0.238-5.121,0.329c-0.155,0.008-0.423,0.092-0.576,0.177
					c-0.665,0.368-1.33,0.736-2,1.106C248.492,290.821,248.49,290.823,248.488,290.824L248.488,290.824z"/>
				<path fill="#7C78F0" d="M255.196,289.781c-0.166,0.091-0.327,0.18-0.488,0.27l-0.036,0.012v-0.01
					c0.16-0.089,0.322-0.178,0.487-0.27l0.036-0.01L255.196,289.781L255.196,289.781z M254.615,290.111l-0.076,0.025l-0.001-0.02
					l0.077-0.023V290.111L254.615,290.111z M254.483,290.193l-0.106,0.032l-0.004-0.025l0.113-0.034L254.483,290.193
					L254.483,290.193z M248.58,290.807c-0.129,0.072-0.127,0.125,0.004,0.116c1.403-0.09,3.676-0.235,5.075-0.325
					c0.135-0.009,0.354-0.076,0.483-0.147c0.657-0.364,1.31-0.726,1.967-1.089c0.129-0.071,0.128-0.124-0.008-0.115
					c-1.399,0.09-3.671,0.235-5.075,0.325c-0.131,0.009-0.35,0.076-0.479,0.147C249.89,290.082,249.237,290.443,248.58,290.807
					L248.58,290.807z"/>
				<path fill="#2A2A2C" d="M254.671,290.053c0.16-0.089,0.322-0.178,0.487-0.27l0.036-0.01l0.001,0.008
					c-0.166,0.091-0.327,0.18-0.488,0.27l-0.036,0.012V290.053L254.671,290.053z"/>
				<path fill="#838383" d="M254.462,290.194l-0.065,0.021l-0.005-0.016l0.073-0.022L254.462,290.194L254.462,290.194z
					 M254.373,290.2l0.004,0.025l0.106-0.032l0.003-0.027L254.373,290.2L254.373,290.2z"/>
				<polygon fill="#516F83" points="254.392,290.199 254.465,290.177 254.462,290.194 254.397,290.215 254.392,290.199 				"/>
				<polygon fill="#2A2A2C" points="254.538,290.117 254.615,290.094 254.615,290.111 254.539,290.137 254.538,290.117 				"/>
			</g>
			
				<linearGradient id="SVGID_1_" gradientUnits="userSpaceOnUse" x1="3749.4331" y1="149.3369" x2="3750.531" y2="147.0472" gradientTransform="matrix(-0.9965 0.0836 0.0836 0.9965 3975.0552 -170.1389)">
				<stop  offset="0.1224" style="stop-color:#FEB9B8"/>
				<stop  offset="1" style="stop-color:#FFDEDE"/>
			</linearGradient>
			<path fill="url(#SVGID_1_)" d="M250.998,290.5c0.035-0.003,0.301,0.02,0.559,0.07s0.479,0.214,0.479,0.214l0.288-0.024
				l0.106,1.269l-2.702,0.398l-0.829-1.045l0.142-1.315c0,0,0.439-0.164,0.486-0.041c0.046,0.123,0.046,0.123,0.046,0.123
				s0.141-0.274,0.376-0.276c0.235-0.001,0.23,0.162,0.23,0.162s0.202-0.29,0.372-0.213C250.72,289.898,250.998,290.5,250.998,290.5
				z"/>
			
				<linearGradient id="SVGID_2_" gradientUnits="userSpaceOnUse" x1="3749.6753" y1="148.0288" x2="3750.4487" y2="148.0288" gradientTransform="matrix(-0.9965 0.0836 0.0836 0.9965 3975.0552 -170.1389)">
				<stop  offset="0.1224" style="stop-color:#FCA4B5"/>
				<stop  offset="0.9896" style="stop-color:#FFADB7"/>
			</linearGradient>
			<path fill="url(#SVGID_2_)" d="M250.227,289.975c0,0,0.042,0.378,0.114,0.48s0.369,1.155,0.369,1.155l0.252,0.233l-0.249,0.021
				l-0.21-0.336l-0.375-1.345l-0.104-0.272L250.227,289.975z"/>
			
				<linearGradient id="SVGID_3_" gradientUnits="userSpaceOnUse" x1="3750.6294" y1="148.0244" x2="3751.2261" y2="148.0244" gradientTransform="matrix(-0.9965 0.0836 0.0836 0.9965 3975.0552 -170.1389)">
				<stop  offset="0.1224" style="stop-color:#FCA4B5"/>
				<stop  offset="0.9896" style="stop-color:#FFADB7"/>
			</linearGradient>
			<polygon fill="url(#SVGID_3_)" points="249.573,290.148 249.757,291.374 250.004,291.844 249.396,291.721 249.667,291.391 
				249.515,290.434 249.527,290.025 			"/>
			<path fill="#A8B0C2" d="M231.577,296.204c0,0,1.665,1.063,5.389,0.932c3.724-0.133,5.149-0.47,6.417-0.998
				c1.269-0.528,2.027-1.196,2.027-1.196l-0.139-1.063c0,0-0.748,0.858-2.544,1.435c-1.796,0.575-5.608,0.755-7.158,0.779
				c-1.55,0.023-3.934-0.765-3.934-0.765L231.577,296.204z"/>
			<path fill="#DDE8F6" d="M231.205,282.11c0.09,1.128,1.345,6.323,0.848,9.069c-0.491,2.754-0.44,3.608-0.502,4.207
				c-0.018,0.208,0.296,0.489,0.942,0.742c1.24,0.489,3.701,0.879,7.366,0.473c4.259-0.465,5.585-1.995,5.585-1.995
				s-0.521-2.127-0.784-5.45c-0.257-3.316,0.881-5.509,1.107-8.947c0.227-3.444,0.118-6.252-1.265-7.585
				c-1.397-1.353-5.798-1.853-7.658-1.344c-1.859,0.509-1.367,0.903-3.529,2.008c-2.161,1.104-2.661,1.48-2.661,1.48
				c-0.615,0.95-0.448,2.651-0.14,4.204C230.787,280.334,231.162,281.576,231.205,282.11z"/>
			<polygon fill="#E6F1FF" points="238.141,280.581 238.339,283.741 237.125,284.658 235.503,284.357 235.345,281.257 			"/>
			<path fill="#DDE8F6" d="M232.052,291.18c-0.491,2.754-0.44,3.608-0.502,4.207c-0.018,0.208,0.296,0.489,0.942,0.742
				c1.01-1.442,0.936-4.245,0.923-5.938c1.363-0.996,7.283-1.292,7.753-1.868c0.478-0.583,0.238-0.693-0.172-1.051
				c-0.404-0.357-7.255,0.086-7.36-0.03s-0.438-1.447-0.145-3.349c0.293-1.9,0.334-5.457,0.334-5.457s-2.043,0.135-3.312,0.537
				c0.272,1.361,0.647,2.604,0.69,3.138C231.294,283.238,232.549,288.434,232.052,291.18z"/>
			
				<linearGradient id="SVGID_4_" gradientUnits="userSpaceOnUse" x1="3762.8413" y1="127.1597" x2="3757.2949" y2="126.1284" gradientTransform="matrix(-0.9965 0.0836 0.0836 0.9965 3975.0552 -170.1389)">
				<stop  offset="0.1224" style="stop-color:#FEC7C7"/>
				<stop  offset="0.9694" style="stop-color:#FFADB7"/>
			</linearGradient>
			<path fill="url(#SVGID_4_)" d="M242.255,271.489c0,0-0.543,1.712-0.493,2.089c0.05,0.376-1.07,1.067-2.897,0.659
				s-3.041-1.919-3.002-2.103c0.039-0.185,0.822-0.341,1.527-1.867c0.706-1.526,1.22-3.345,1.203-3.995
				c-0.017-0.651,1.802-0.351,1.802-0.351L242.255,271.489z"/>
			<path fill="#E6F1FF" d="M240.231,274.199c0,0,0.55,0.654,0.962,0.73c0.536-0.172,0.854-0.998,0.892-1.235
				c0.037-0.238-0.075-0.769-0.166-0.985s-0.378-0.307-0.364,0.016s-0.585,1.052-1.305,1.18
				C240.147,274.062,240.231,274.199,240.231,274.199z"/>
			<path fill="#FEC7C7" d="M239.249,270.818c0.076,0.707,2.682,2.662,3.694,2.588c0.476-0.035,1.01-0.979,1.508-2.059
				c0.561-1.221,1.076-2.616,1.413-3.077c0.634-0.868,0.599-3.239,0.355-3.742c-0.242-0.506-1.679-2.087-3.094-2.114
				c-1.415-0.026-3.23,0.777-3.376,1.424c-0.146,0.647,0.119,2.925,0.119,2.925s-0.061,0.29-0.145,0.716
				C239.526,268.504,239.194,270.321,239.249,270.818z"/>
			<g>
				
					<linearGradient id="SVGID_5_" gradientUnits="userSpaceOnUse" x1="3754.3892" y1="126.4346" x2="3753.5388" y2="127.1169" gradientTransform="matrix(-0.9965 0.0836 0.0836 0.9965 3975.0552 -170.1389)">
					<stop  offset="0.1224" style="stop-color:#FEC7C7"/>
					<stop  offset="0.9896" style="stop-color:#FFDBDB"/>
				</linearGradient>
				<path fill="url(#SVGID_5_)" d="M244.917,268.547c-0.118,0.424,0.289,1.938,0.189,2.26c-0.1,0.32-1.273,0.093-1.39,0.008
					L244.917,268.547z"/>
				
					<linearGradient id="SVGID_6_" gradientUnits="userSpaceOnUse" x1="3753.6694" y1="126.5254" x2="3755.1694" y2="126.5254" gradientTransform="matrix(-0.9965 0.0836 0.0836 0.9965 3975.0552 -170.1389)">
					<stop  offset="0.188" style="stop-color:#FFDCDC"/>
					<stop  offset="0.8991" style="stop-color:#FEC7C7"/>
				</linearGradient>
				<path fill="url(#SVGID_6_)" d="M244.708,271.021c0.098-0.004,0.187-0.017,0.259-0.04c0.102-0.033,0.164-0.087,0.187-0.16
					c0.051-0.163-0.014-0.569-0.088-1.04c-0.074-0.473-0.16-1.008-0.101-1.221l-0.097-0.027c-0.064,0.233,0.018,0.758,0.098,1.264
					c0.067,0.42,0.136,0.854,0.092,0.995c-0.012,0.04-0.054,0.071-0.122,0.094c-0.321,0.106-1.105-0.05-1.188-0.111l-0.06,0.08
					C243.773,270.917,244.309,271.039,244.708,271.021z"/>
			</g>
			
				<ellipse transform="matrix(-0.9966 0.0827 -0.0827 -0.9966 507.7066 517.2928)" fill="#FFFFFF" cx="243.144" cy="269.158" rx="0.325" ry="0.25"/>
			
				<ellipse transform="matrix(-0.9969 -0.0784 0.0784 -0.9969 468.4227 556.3818)" fill="#FFFFFF" cx="245.14" cy="268.99" rx="0.149" ry="0.216"/>
			<g>
				<path fill="#754554" d="M244.457,268.577l0.033-0.163c-0.052-0.012-1.287-0.262-2.346-0.023l0.037,0.164
					C243.205,268.323,244.444,268.575,244.457,268.577z"/>
			</g>
			<g>
				<path fill="#754554" d="M245.126,268.415c0.004-0.002,0.422-0.185,0.933-0.29l-0.033-0.164
					c-0.528,0.109-0.949,0.293-0.967,0.301L245.126,268.415z"/>
			</g>
			<path fill="#AF727B" d="M239.249,270.818c0.076,0.707,2.682,2.662,3.694,2.588c0.476-0.035,1.01-0.979,1.508-2.059
				c0,0-0.11-0.069-0.234-0.101c-0.124-0.028-0.603-0.058-0.894,0.05c-0.289,0.104-0.819,0.258-1.429,0.119
				c-0.609-0.14-1.472-0.877-1.522-1.405c-0.053-0.548,0.167-1.796,0.167-1.796l-0.814-0.736
				C239.526,268.504,239.194,270.321,239.249,270.818z"/>
			<path fill="#FEC7C7" d="M239.431,269.1c0,0,0.411-1.39,0.483-1.756c0.072-0.365-0.442-0.891-0.651-0.987
				s-0.561-0.016-0.561-0.016L239.431,269.1z"/>
			<path fill="#754554" d="M240.471,268.484c0,0,0.449-1.054,0.822-1.137c0.374-0.084,1.872-1.812,1.872-1.812l0.307-0.887
				c0,0,0.849,0.874,1.879,1.056s1.268,0.133,1.268,0.133s0.141-0.704,0.124-1.336c-0.017-0.633-1.747-4.418-6.002-3.318
				c-3.216,0.106-3.056,2.882-3.079,3.464c-0.023,0.581-0.131,2.343-0.131,2.343s0.387,0.566,0.526,1.598
				c0.358-0.798,0.544-2.075,0.897-2.074s0.851,0.135,0.945,0.615c0.095,0.481-0.183,0.975-0.183,0.975L240.471,268.484z"/>
			
				<linearGradient id="SVGID_7_" gradientUnits="userSpaceOnUse" x1="3759.3882" y1="124.2476" x2="3760.3555" y2="123.3117" gradientTransform="matrix(-0.9965 0.0836 0.0836 0.9965 3975.0552 -170.1389)">
				<stop  offset="0.1224" style="stop-color:#FEB9B8"/>
				<stop  offset="1" style="stop-color:#FFDEDE"/>
			</linearGradient>
			<path fill="url(#SVGID_7_)" d="M239.612,266.947c0,0-0.397-0.7-0.993-0.379c-0.597,0.322-0.044,2.16,0.113,2.409
				c0.156,0.249,0.553-0.191,0.553-0.191l0.446-1.604L239.612,266.947z"/>
			<path fill="#FEBFBF" d="M231.849,275.677c0.713,0.303,2.055,1.82,1.035,4.786c-1.02,2.965-2.37,7.371-4.253,7.819
				c-1.044,0.248-1.813,1.071-1.869-0.214c-0.046-1.031,0.476-4.028,0.854-5.189c0.85-2.607,2.1-6.063,2.602-6.992
				C230.719,274.957,231.849,275.677,231.849,275.677z"/>
			<g>
				<path fill="#627847" d="M238.934,287.736c0.694,0.271,1.802,0.221,2.475-0.109c0.673-0.332,0.655-0.819-0.039-1.09
					c-0.694-0.27-1.803-0.221-2.475,0.11C238.222,286.979,238.24,287.467,238.934,287.736z"/>
				<polygon fill="#627847" points="237.928,282.428 238.402,287.213 241.902,287.062 241.961,282.254 				"/>
				<path fill="#B09064" d="M238.763,285.701c0.723-0.338,1.912-0.391,2.656-0.117s0.762,0.77,0.039,1.108s-1.911,0.392-2.655,0.118
					C238.058,286.537,238.041,286.041,238.763,285.701z"/>
				<polygon fill="#B09064" points="238.234,286.289 237.944,283.713 242.055,283.521 241.989,286.116 				"/>
				<path fill="#DEC7A7" d="M238.524,283.074c0.792-0.355,2.094-0.414,2.909-0.129c0.814,0.285,0.832,0.805,0.04,1.161
					s-2.094,0.414-2.909,0.129C237.75,283.95,237.732,283.431,238.524,283.074z"/>
				<path fill="#627847" d="M238.587,282.822c0.75-0.369,1.985-0.424,2.76-0.123c0.773,0.301,0.793,0.846,0.043,1.215
					s-1.984,0.424-2.759,0.123C237.857,283.735,237.837,283.191,238.587,282.822z"/>
				<polygon fill="#627847" points="238.054,283.63 237.992,283.215 238.353,283.271 241.929,283.065 241.944,283.412 				"/>
				<path fill="#A19797" d="M238.457,283.536c0.8,0.312,2.077,0.255,2.852-0.127c0.775-0.382,0.756-0.943-0.045-1.255
					c-0.8-0.312-2.077-0.255-2.852,0.127C237.636,282.663,237.657,283.225,238.457,283.536z"/>
				<path fill="#C7BEBE" d="M237.743,282.359l0.332-0.014c0.086-0.066,0.188-0.131,0.31-0.191c0.845-0.416,2.236-0.478,3.108-0.139
					c0.129,0.051,0.237,0.107,0.329,0.168l0.317-0.014l0.021,0.49c0.001,0.007,0.001,0.015,0.001,0.021l0.001,0.012h-0.002
					c-0.003,0.24-0.207,0.489-0.617,0.691c-0.845,0.416-2.237,0.478-3.109,0.139c-0.429-0.167-0.65-0.4-0.666-0.644h-0.002
					L237.743,282.359z"/>
				<path fill="#E2D9D9" d="M238.364,281.685c0.845-0.416,2.237-0.478,3.109-0.139c0.872,0.34,0.894,0.952,0.049,1.368
					s-2.237,0.479-3.109,0.139S237.519,282.101,238.364,281.685z"/>
				<path fill="#C7BEBE" d="M238.056,282.331c0-0.005,0-0.009,0-0.014l-0.015-0.338l0.173-0.007c0.088-0.093,0.211-0.181,0.372-0.26
					c0.725-0.357,1.918-0.41,2.665-0.119c0.17,0.066,0.301,0.145,0.395,0.23l0.164-0.008l0.015,0.339v0.001l0.001,0.002h-0.001
					c0.007,0.211-0.17,0.431-0.53,0.608c-0.725,0.356-1.918,0.41-2.666,0.119c-0.367-0.144-0.558-0.343-0.571-0.552h-0.001V282.331z
					"/>
				<path fill="#E1D8D8" d="M238.569,281.307c0.725-0.357,1.918-0.41,2.665-0.119c0.748,0.291,0.768,0.816,0.043,1.173
					s-1.918,0.41-2.666,0.119C237.864,282.188,237.844,281.663,238.569,281.307z"/>
				<path fill="#C7BEBE" d="M238.396,282.083L238.396,282.083c0.142,0.027,0.288-0.038,0.328-0.146l0.016-0.044
					c0.04-0.108-0.042-0.219-0.184-0.247l0,0c-0.141-0.027-0.288,0.037-0.327,0.146l-0.017,0.043
					C238.173,281.944,238.255,282.055,238.396,282.083z"/>
			</g>
			<path fill="#FEBFBF" d="M227.159,286.541c0,0,0.742-0.547,2.041-0.588s2.807,0.501,4.365,0.21
				c1.558-0.292,2.321-0.581,2.871-1.167c0.551-0.587,1.336-1.546,1.336-1.546l0.674-0.268l-0.362,0.723l0.402,0.106l1.623-0.438
				l1.604-0.077c0,0,0.14,0.229,0.019,0.384c-0.121,0.154-1.304,0.367-1.537,0.446s-1.569,0.772-1.569,0.772l2.465-0.47l1.151-0.285
				c0,0,0.272,0.162,0.188,0.377c-0.084,0.214-1.396,0.703-1.396,0.703l-1.674,0.439l0.406,0.123l1.498-0.275l1.01-0.414
				c0,0,0.266,0.164,0.042,0.452s-0.607,0.483-0.607,0.483l0.416,0.048c0,0-0.041,0.267-0.085,0.356
				c-0.043,0.09-1.04,0.633-1.04,0.633l-1.657,0.336c0,0-0.935,0.444-1.978,0.468c-1.042,0.022-1.563,0.196-1.826,0.345
				s-3.102,1.463-5.309,1.514c-2.206,0.052-3.321-0.586-3.473-1.216C226.605,288.086,227.159,286.541,227.159,286.541z"/>
			<path fill="#B09064" d="M239.502,286.987c0,0,1.107-0.139,1.657-0.293c0.55-0.155,0.889-0.423,0.889-0.423l-0.34-0.039
				l-0.63,0.258L239.502,286.987z"/>
			<path fill="#E6F1FF" d="M227.31,283.032c0,0,2.689,1.296,4.443,1.149c0.948-1.33,1.653-3.943,2.072-5.744
				c0.42-1.801-1.535-3.729-2.149-3.922c-0.614-0.193-1.239,0.45-1.239,0.45S227.29,281.898,227.31,283.032z"/>
			
				<linearGradient id="SVGID_8_" gradientUnits="userSpaceOnUse" x1="3758.9595" y1="123.9106" x2="3760.0962" y2="123.9106" gradientTransform="matrix(-0.9965 0.0836 0.0836 0.9965 3975.0552 -170.1389)">
				<stop  offset="0.1224" style="stop-color:#FCA4B5"/>
				<stop  offset="0.9896" style="stop-color:#FFADB7"/>
			</linearGradient>
			<path fill="url(#SVGID_8_)" d="M239.572,267.123c0,0-0.322-0.509-0.725-0.438s-0.509,0.631-0.26,1.335
				c0.25,0.704,0.627,0.563,0.627,0.563l0.283-0.947L239.572,267.123z"/>
			<path fill="#FEC7C7" d="M242.691,271.838c0,0,1.35-0.132,1.387,0.033c0.037,0.164-0.713,0.439-0.914,0.457
				C242.962,272.345,242.691,271.838,242.691,271.838z"/>
		</g>
	</g>
	<path fill="#E6F1FF" d="M236.773,271.34c0,0-0.344,0.585,0.609,1.339s2.666,1.161,2.867,1.226c0.081,0.026,0.156,0.191,0.109,0.437
		c-0.068,0.364-0.316,0.861-0.499,0.988c-1.009-0.141-1.699-0.559-2.809-1.261c-1.109-0.701-1.319-1.58-1.329-1.81
		c-0.01-0.23,0.822-1.062,0.944-1.14s0.328-0.135,0.328-0.135L236.773,271.34z"/>
</g>
</svg>
