<?xml version="1.0" encoding="utf-8"?>
<!-- Generator: Adobe Illustrator 16.0.0, SVG Export Plug-In . SVG Version: 6.00 Build 0)  -->
<!DOCTYPE svg PUBLIC "-//W3C//DTD SVG 1.1//EN" "http://www.w3.org/Graphics/SVG/1.1/DTD/svg11.dtd">
<svg version="1.1" id="Layer_1" xmlns="http://www.w3.org/2000/svg" xmlns:xlink="http://www.w3.org/1999/xlink" x="0px" y="0px"
	 width="463.683px" height="425.749px" viewBox="0 0 463.683 425.749" enable-background="new 0 0 463.683 425.749"
	 xml:space="preserve">
<g>
	<path fill="#656565" d="M77,78.039c0,0,0.271-0.521,0.742-0.611c0.47-0.089,7.904-0.274,8.217,0.007s0.505,0.629,0.507,1.113
		c0.001,0.484-3.922,0.51-3.922,0.51L77,78.039z"/>
	<g>
		<path fill="#D7E4F2" d="M74.549,144.03c4.489-2.856,11.977-3.166,16.725-0.691c4.748,2.475,4.958,6.796,0.469,9.652
			s-11.977,3.166-16.725,0.691C70.271,151.208,70.061,146.887,74.549,144.03z"/>
		<g>
			<path fill="#FEBFBF" d="M85.537,103.712c0.353,1.988,3.67,11.486,4.074,12.778c0.027,0.084,0.041,0.127,0.041,0.127
				s0.315,0.082,0.476-0.033c0.161-0.116,0.321-1.212,0.321-1.212l0.015,0.509c0,0.002,0,0.002,0,0.004l0.004,0.14
				c0,0.008,0.001,0.018,0.004,0.027c0,0.006,0.003,0.013,0.003,0.019c0.021,0.084,0.092,0.249,0.326,0.232
				c0.039-0.003,0.078-0.022,0.113-0.057c0.005-0.004,0.011-0.011,0.017-0.018c0.25-0.258,0.436-1.113,0.483-1.25
				c0.054-0.161,0.046-1.193,0.046-1.193l0.018,0.018c0.047,0.048,0.178,0.179,0.31,0.276v0.002c0.11,0.082,0.224,0.143,0.291,0.118
				c0.165-0.064-0.046-0.664-0.046-0.664s-0.32-1.01-0.407-1.33c-0.089-0.319-0.562-1.488-0.951-2.192
				c-0.227-1.029-1.524-10.057-1.524-10.057s0.209-9.656-0.957-11.769s-3.322-1.176-3.322-1.176S85.161,101.596,85.537,103.712z"/>
			<path fill="#E6F1FF" d="M84.466,85.882c0,0,2.477-0.372,3.565,0.832c1.088,1.205,1.261,2.998,1.228,5.131
				c-0.033,2.133,0.123,7.038,0.186,8.042c0.064,1.005,1.253,8.97,1.253,8.97s-1.186,0.993-2.435,0.525
				C87.015,108.914,84.466,85.882,84.466,85.882z"/>
			<path fill="#FEBFBF" d="M91.787,114.08l-0.31-0.276C91.524,113.852,91.654,113.983,91.787,114.08z"/>
			<path fill="#FEBFBF" d="M91.307,115.073c0.033,0.169-0.285,1.032-0.377,1.155c0.25-0.258,0.436-1.113,0.483-1.25
				c0.054-0.161,0.046-1.193,0.046-1.193s-0.336-0.825-0.467-0.972c-0.131-0.148-0.71-0.943-0.71-0.943s0.262,0.761,0.325,0.907
				s0.428,0.52,0.521,0.73c0.093,0.213,0.232,0.481,0.232,0.481S91.271,114.902,91.307,115.073z"/>
			<path fill="#FEBFBF" d="M89.61,116.49c0.027,0.084,0.041,0.127,0.041,0.127s0.315,0.082,0.476-0.033
				c0.161-0.116,0.321-1.212,0.321-1.212l0.015,0.509c0.03-0.255,0.275-1.466,0.275-1.466l-0.094-0.951l-0.17,0.282
				c0,0-0.019,0.864-0.015,0.916c0.003,0.052-0.315,1.467-0.315,1.467S90.06,116.518,89.61,116.49z"/>
		</g>
		<g>
			<path fill="#626170" d="M91.531,147.116c0,0,0.271,0.138,0.285,0.34c0.014,0.201,0.021,0.756,0.02,0.887
				c-0.001,0.13-0.344,0.638-1.186,0.834s-2.888-0.346-3.578-0.748c-0.689-0.402-1.63-1.427-1.916-1.505
				c-0.225-0.061-0.798,0.023-1.035,0.062c-0.073,0.012-0.145,0.015-0.219,0.008l-0.541-0.045c-0.077-0.006-0.153-0.022-0.226-0.048
				l-1.158-0.411c0,0-0.166-0.851,0.182-1.119S91.531,147.116,91.531,147.116z"/>
			<path fill="#504F60" d="M86.76,143.663c0,0,1.002,0.635,1.18,0.814s1.989,0.914,2.617,1.296c0.628,0.383,1.1,1.038,1.142,1.253
				c0.041,0.215,0.136,0.704,0.063,0.91c-0.072,0.206-0.4,0.751-1.484,0.818c-0.97,0.06-2.839-0.758-3.221-0.931
				c-0.046-0.021-0.089-0.045-0.131-0.073c-0.289-0.196-1.492-1.013-1.69-1.106c-0.225-0.106-2.22-0.611-2.523-0.711
				c-0.303-0.101-0.643-0.138-0.688-0.381c-0.044-0.244-0.136-1.582,0.025-2.002C82.211,143.128,85.875,142.584,86.76,143.663z"/>
			<path fill="#CCDEFB" d="M82.032,143.843c0.104,0.33,0.488,0.565,1.773,0.632c0.149,0.007,0.297,0.013,0.445,0.013
				c0.923,0.03,1.773-0.04,2.704-0.447c0.326-0.143,0.545-0.465,0.548-0.821c0.038-3.584,1.543-18.371,1.993-27.563
				c0.285-5.813-0.976-8.767-0.976-8.767l-6.209-0.357l-0.228,15.337l0.002,8.872C82.085,130.742,81.933,143.511,82.032,143.843z"/>
			<g>
				<path fill="#ACBBD4" d="M83.793,144.499c0.005-0.103,0.458-10.298,0.618-12.443c0.159-2.149,0.29-14.343,0.291-14.466
					l-0.239-0.002c-0.001,0.123-0.131,12.308-0.291,14.451c-0.159,2.147-0.613,12.347-0.618,12.45L83.793,144.499z"/>
			</g>
			<path fill="#DBDEE5" d="M82.032,143.843c0.068,0.215,0.255,0.39,0.734,0.505c0.579,0.092,0.909,0.146,1.485,0.14l1.161-26.57
				c0,0,1.625-1.766,1.346-2.862c-0.124-0.471-4.541,6.21-4.541,6.21l-0.135,0.605l0.002,8.872
				C82.085,130.742,81.933,143.511,82.032,143.843z"/>
			<path fill="#626170" d="M84.117,150.395c0,0,0.297,0.005,0.368,0.401c0.023,0.13,0.038,0.269,0.047,0.396
				c0.024,0.341-0.138,0.672-0.436,0.84c-0.252,0.142-0.626,0.286-1.164,0.354c-1.243,0.157-2.765-0.302-3.544-0.745
				c-0.78-0.441-1.06-0.801-1.53-1.453c-0.47-0.653-0.956-0.965-0.956-0.965l-0.199,0.053c0,0-0.696-0.506-1.078-0.856
				c-0.154-0.142-0.255-0.33-0.28-0.537c-0.054-0.44-0.063-1.157,0.067-1.24C75.583,146.532,84.117,150.395,84.117,150.395z"/>
			<path fill="#504F60" d="M80.819,146.186l0.163,0.388c0.047,0.112,0.115,0.212,0.202,0.296c0.458,0.445,1.986,1.937,2.453,2.436
				c0.551,0.588,0.835,1.104,0.859,1.638c0.024,0.534-1.362,0.879-1.57,0.894c-0.208,0.015-1.129,0.105-2.31-0.334
				c-1.181-0.44-1.667-0.863-2.615-1.894c-0.947-1.031-1.588-1.598-1.879-1.833c-0.291-0.236-0.713-0.611-0.708-0.916
				c0.004-0.306-0.043-1.161,0.207-1.267c0.226-0.096,3.53-0.371,4.764,0.131C80.586,145.807,80.735,145.984,80.819,146.186z"/>
			<path fill="#CCDEFB" d="M86.131,109.364c0,0,0.588,2.549,0.824,4.979c0.21,2.169-2.088,2.939-2.088,2.939
				s-1.479,10.358-2.004,12.91c-0.465,2.261-1.764,12.865-2.056,15.188c-0.039,0.306-0.227,0.566-0.506,0.696
				c-0.835,0.391-2.686,1.056-4.22,0.193c-0.271-0.153-0.441-0.442-0.452-0.752c-0.24-7.176,0.954-15.744,1.032-16.86
				c0.003-0.043,0.004-0.078,0.002-0.121c-0.105-2.1-1.224-9.415-1.599-14.345c-0.328-1.938,0.24-5.011,0.24-5.011L86.131,109.364z"
				/>
			<g>
				<path fill="#8C92B0" d="M85.489,115.704c-0.102-0.064-0.217-0.214-0.195-0.563c0.096-1.491-0.136-3.844-0.223-4.033l0.089-0.063
					l0.001-0.003l0.001,0.002l-0.061-0.106l0.069-0.035l0.06,0.038c0.205,0.128,0.38,2.984,0.302,4.217
					c-0.011,0.176,0.02,0.305,0.083,0.346c0.045,0.027,0.114,0.016,0.194-0.028c0.276-0.155,0.683-0.728,0.672-1.672
					c-0.005-0.551-0.13-2.647-0.165-2.871l0.237-0.036c0.04,0.26,0.162,2.376,0.167,2.903c0.011,0.983-0.405,1.665-0.796,1.883
					c-0.082,0.046-0.162,0.07-0.236,0.074C85.617,115.759,85.549,115.741,85.489,115.704z M85.221,111.145l-0.056-0.099
					L85.221,111.145z"/>
			</g>
			<g>
				<path fill="#ACBBD4" d="M76.511,146.751l0.238-0.012c-0.287-5.803,0.344-11.956,0.721-15.632c0.146-1.422,0.251-2.45,0.24-2.881
					c-0.024-0.946-0.353-4.162-0.67-7.271c-0.184-1.805-0.358-3.509-0.455-4.599c-0.256-2.882-0.032-4.607-0.029-4.625l-0.237-0.032
					c-0.002,0.018-0.23,1.767,0.028,4.678c0.097,1.091,0.271,2.796,0.455,4.603c0.303,2.96,0.646,6.316,0.669,7.252
					c0.01,0.417-0.094,1.438-0.239,2.852C76.855,134.766,76.223,140.93,76.511,146.751z"/>
			</g>
			<g>
				<path fill="#8C92B0" d="M79.579,115.933c1.37-0.06,2.416-0.425,3.118-1.093c0.913-0.867,0.889-1.917,0.888-1.961l-0.239,0.008
					c0,0.01,0.02,0.992-0.816,1.784c-0.873,0.827-2.327,1.159-4.32,0.989l-0.02,0.238C78.684,115.939,79.146,115.951,79.579,115.933
					z"/>
			</g>
			<path fill="#A76478" d="M75.004,111.596c0,0,2.284,0.973,5.87,0.692c3.586-0.28,4.938-0.766,6.123-1.499s1.902-1.656,1.902-1.656
				l-0.248-1.38c0,0-0.658,1.154-2.35,1.966s-5.359,1.156-6.854,1.231c-1.495,0.076-4.332-0.443-4.332-0.443L75.004,111.596z"/>
			<path fill="#4F5997" d="M82.619,110.721c0,0,0.105,0.393,0.129,0.861c0.024,0.469,0.024,1.331,0.024,1.331l0.541-0.099
				c0,0,0.081-0.833,0.052-1.25s-0.165-0.99-0.165-0.99L82.619,110.721z"/>
			<path fill="#4F5997" d="M77.423,110.841c0,0-0.089,0.397-0.093,0.866c-0.004,0.469,0.032,1.331,0.032,1.331l-0.545-0.076
				c0,0-0.116-0.83-0.104-1.247c0.011-0.417,0.123-0.996,0.123-0.996L77.423,110.841z"/>
			<path fill="#4F5997" d="M87.574,108.877c0,0,0.143,0.487,0.17,0.885c0.028,0.399-0.032,1.082-0.032,1.082l0.355-0.453
				c0,0,0.042-0.69,0.027-0.907c-0.016-0.217-0.229-0.847-0.229-0.847L87.574,108.877z"/>
			<g>
				<path fill="#8C92B0" d="M89.337,111.097c0.037-0.001,0.075-0.008,0.113-0.021l-0.075-0.228c-0.306,0.108-0.677-0.638-0.814-1.01
					l-0.225,0.083C88.385,110.052,88.797,111.12,89.337,111.097z"/>
			</g>
			<g>
				<path fill="#CCDEFB" d="M84.847,111.789c-0.148-0.103-0.232-0.272-0.238-0.477l-0.012-0.4c-0.012-0.42,0.314-0.873,0.743-1.031
					l1.006-0.372c0.234-0.087,0.463-0.069,0.63,0.047c0.148,0.103,0.233,0.272,0.239,0.477l0.011,0.4
					c0.012,0.42-0.314,0.873-0.743,1.032l-1.005,0.372c-0.064,0.024-0.129,0.04-0.191,0.048
					C85.122,111.905,84.968,111.873,84.847,111.789z M86.44,109.944l-1.006,0.373c-0.222,0.082-0.411,0.327-0.406,0.524l0.011,0.4
					c0.002,0.067,0.026,0.117,0.072,0.149c0.064,0.045,0.165,0.048,0.272,0.008l1.006-0.372c0.222-0.082,0.412-0.327,0.406-0.523
					l-0.011-0.4c-0.002-0.067-0.026-0.118-0.072-0.149c-0.044-0.031-0.105-0.042-0.174-0.033
					C86.507,109.924,86.474,109.932,86.44,109.944z"/>
			</g>
		</g>
		<path fill="#DDE8F6" d="M73.891,98.049c0.077,0.532,0.148,1.042,0.197,1.505c0.269,2.494,1.185,10.839,1.185,10.839
			c0,0.004,0.021,0.153,1.207,0.275c0.394,0.042,1.053,0.052,1.85,0.036c1.651-0.034,3.894-0.184,5.568-0.424
			c2.483-0.356,5.021-2.294,4.913-2.935c-0.109-0.638-0.276-2.747,0.072-6.715c0.349-3.971,0.241-10.068-0.631-12.072
			c-0.872-2.002-1.414-2.277-3.079-2.526c-1.664-0.249-4.954-0.213-5.588,0.04c-0.636,0.253-3.583,2.178-4.541,3.057
			c-0.957,0.878-1.624,2.043-1.624,2.043C73,91.908,73.549,95.703,73.891,98.049z"/>
		<path fill="#DDE8F6" d="M84.577,86.863c2.694,1.249,0.932,0.526-0.043,1.294c-0.975,0.767-1.721,0.942-2.635,0.879
			c-1.953-0.137-1.365,0.583-1.854,0.59c-1.214,0.018-2.307-0.562-2.846-0.591c-0.538-0.028-1.848-0.13-2.628,0.574
			c0.473-0.48,0.473-0.48,0.473-0.48l1.277-1.16C76.32,87.969,82.614,85.953,84.577,86.863z"/>
		<path fill="#E6F1FF" d="M85.984,78.044c0,0,0.698,4.739,0.344,6.696c-0.429,2.082-0.224,2.489-0.359,2.777
			c-0.136,0.288-2.15-1.156-3.372-0.586c-1.222,0.569,2.397-8.288,2.397-8.288L85.984,78.044z"/>
		<path fill="#DDE8F6" d="M71.23,138.604c0.283,0.432,0.832,1.06,1.662,1.636c1.197,0.851,2.957,1.6,5.286,1.5
			c3.931-0.169,4.23-0.105,7.556-1.454c3.326-1.349,3.485-3.334,3.485-3.334s0.347-5.854,0.772-14.361
			c0.42-8.5-0.134-12.814-0.792-16.563c-0.658-3.755-0.319-14.714-0.319-14.714l-14.586,7.751c0,0-0.089,4.2-0.129,9.261
			c-0.026,3.43-0.022,7.252,0.043,10.42C74.392,126.596,72.478,135.27,71.23,138.604z"/>
		<path fill="#DDE8F6" d="M74.208,118.747c-0.065-3.168-0.069-6.991-0.043-10.42c0.271-0.617,0.515-1.093,0.729-1.406
			c-0.285-2.599-0.65-5.938-0.804-7.365c-0.049-0.463-0.121-0.974-0.197-1.505l3.997-2.187c0,0-0.305,8.188-0.509,9.248
			c-0.169,0.867,0.567,4.83,0.567,4.831c0.102,0.925,1.655,9.842,1.655,9.842s-0.833,1.312-1.454,1.552
			c-0.621,0.239-1.733,1.95-1.613,2.803c0.121,0.858-0.806,8.201-1.738,11.412c-0.471,1.625-1.148,3.401-1.905,4.69
			c-0.83-0.576-1.379-1.204-1.662-1.636C72.478,135.27,74.392,126.596,74.208,118.747z"/>
		<path fill="#E6F1FF" d="M75.548,90.305c0,0,2.74,0.443,2.225,5.025s-1.479,11.198-1.656,11.655
			c-0.177,0.456-3.01,1.787-3.317,0.015s-0.382-7.024-0.406-8.851c-0.024-1.827,0.585-6.097,1.142-6.972
			C74.041,90.383,74.874,90.042,75.548,90.305z"/>
		<path fill="#FEBFBF" d="M75.85,105.044c0,0,0.526-0.323,0.64,0.178s0.334,9.969,0.413,10.355s0.824,1.197,1.007,1.323
			c0.183,0.127,0.994,1.01,1.119,1.298c0.125,0.287,0.577,1.645,0.729,1.96s0.75,0.81,0.592,1.173
			c-0.157,0.364-0.806-0.126-1.101-0.433c-0.296-0.305-0.797-1.485-1.082-1.818c-0.027,0.355-0.083,1.522-0.066,2.03
			c0.011,0.36,0.844,2.162,0.673,2.331c-0.084,0.083-0.32,0.101-0.529-0.094c-0.21-0.194-0.86-1.272-0.86-1.272
			s0.416,1.277,0.419,1.499c0.002,0.222-0.238,0.331-0.52,0.037s-0.362-0.497-0.362-0.497s-0.333,0.284-0.491,0.073
			c-0.158-0.211-0.687-0.971-0.738-1.268c-0.051-0.297-0.182-0.68-0.182-0.68s-0.273-0.233-0.449-0.743
			c-0.175-0.511-0.507-1.515-0.537-2.192c-0.03-0.677-0.169-2.413-0.402-3.744c-0.232-1.332-1.925-8.079-1.502-9.37
			C73.539,105.241,75.85,105.044,75.85,105.044z"/>
		<g>
			
				<linearGradient id="SVGID_1_" gradientUnits="userSpaceOnUse" x1="3860.1187" y1="-35.0469" x2="3858.0259" y2="-39.2926" gradientTransform="matrix(-0.9975 0.07 0.07 0.9975 3933.3735 -147.2732)">
				<stop  offset="0.1224" style="stop-color:#FEC7C7"/>
				<stop  offset="0.9694" style="stop-color:#FFADB7"/>
			</linearGradient>
			<path fill="url(#SVGID_1_)" d="M83.955,85.829c0,0-0.163,1.469,0.166,2.395c-1.248,0.927-2.571,0.609-3.823,0.03
				c-1.252-0.58-1.734-1.12-1.792-1.321c-0.059-0.2,0.681-0.315,0.865-1.682c0.184-1.367,0.103-2.29,0.016-3.247
				c-0.087-0.958,0.561-1.798,0.561-1.798L83.955,85.829z"/>
			
				<linearGradient id="SVGID_2_" gradientUnits="userSpaceOnUse" x1="3856.2769" y1="-37.1411" x2="3859.4175" y2="-37.1411" gradientTransform="matrix(-0.9975 0.07 0.07 0.9975 3933.3735 -147.2732)">
				<stop  offset="0.1224" style="stop-color:#FCA4B5"/>
				<stop  offset="0.9896" style="stop-color:#FFADB7"/>
			</linearGradient>
			<path fill="url(#SVGID_2_)" d="M80.91,84.482c0,0,0.86,1.896,1.188,2.201c0.328,0.306,1.408,0.498,1.69,0.208
				c0.283-0.291,0.312-1.811,0.312-1.811L80.91,84.482z"/>
			<path fill="#FEC7C7" d="M81.024,84.844c0.293,0.828,3.487,2.415,4.438,1.6c0.486-0.415,0.68-1.682,0.757-2.928
				c0.077-1.196,0.049-2.375,0.072-2.771c0.049-0.808-0.507-2.503-0.507-2.503l-4.752,0.254c0,0-1.115,1.06-0.974,2.112
				c0.027,0.196,0.068,0.439,0.116,0.708C80.392,82.488,80.789,84.173,81.024,84.844z"/>
			<g>
				
					<linearGradient id="SVGID_3_" gradientUnits="userSpaceOnUse" x1="3855.0669" y1="-40.6479" x2="3853.9756" y2="-40.3297" gradientTransform="matrix(-0.9975 0.07 0.07 0.9975 3933.3735 -147.2732)">
					<stop  offset="0.1224" style="stop-color:#FEC7C7"/>
					<stop  offset="0.9896" style="stop-color:#FFDBDB"/>
				</linearGradient>
				<path fill="url(#SVGID_3_)" d="M85.314,80.554c-0.074,0.511,0.836,1.937,0.935,2.424c0.099,0.486-1.455,0.518-1.455,0.518
					L85.314,80.554z"/>
				
					<linearGradient id="SVGID_4_" gradientUnits="userSpaceOnUse" x1="3853.9351" y1="-40.6382" x2="3855.4761" y2="-40.6382" gradientTransform="matrix(-0.9975 0.07 0.07 0.9975 3933.3735 -147.2732)">
					<stop  offset="0.188" style="stop-color:#FFDCDC"/>
					<stop  offset="0.8991" style="stop-color:#FEC7C7"/>
				</linearGradient>
				<path fill="url(#SVGID_4_)" d="M84.873,83.542c0.269-0.012,1.14-0.071,1.369-0.357c0.052-0.064,0.071-0.138,0.055-0.216
					c-0.04-0.199-0.203-0.532-0.392-0.918c-0.274-0.561-0.585-1.196-0.543-1.49l-0.095-0.014c-0.047,0.323,0.271,0.973,0.551,1.546
					c0.177,0.364,0.346,0.708,0.383,0.895c0.011,0.049-0.001,0.094-0.035,0.136c-0.199,0.247-1.065,0.316-1.374,0.324l0.001,0.097
					C84.801,83.544,84.83,83.544,84.873,83.542z"/>
			</g>
			<g>
				<path fill="#754554" d="M82.871,81.234c1.058-0.579,2.027-0.314,2.038-0.313l0.044-0.154c-0.043-0.012-1.039-0.287-2.16,0.325
					L82.871,81.234z"/>
			</g>
			<g>
				<path fill="#754554" d="M85.574,80.685c0.004-0.002,0.348-0.263,0.801-0.348l-0.029-0.158c-0.493,0.093-0.855,0.367-0.87,0.378
					L85.574,80.685z"/>
			</g>
			<path fill="#AF727B" d="M81.024,84.844c0.293,0.828,3.487,2.415,4.438,1.6c0.486-0.415,0.68-1.682,0.757-2.928
				c-0.064,0.039-0.135,0.056-0.209,0.038c-0.297-0.067-0.725-0.079-1.159,0.235c-0.432,0.313-1.039,0.729-1.402,0.775
				c-0.363,0.046-1.632-0.32-1.94-0.79c-0.308-0.469-0.546-1.738-0.546-1.738l-0.79-0.721
				C80.392,82.488,80.789,84.173,81.024,84.844z"/>
			
				<linearGradient id="SVGID_5_" gradientUnits="userSpaceOnUse" x1="3590.7603" y1="152.6387" x2="3592.1948" y2="152.6387" gradientTransform="matrix(-0.9999 -0.0108 -0.0108 0.9999 3672.4219 -31.4324)">
				<stop  offset="0.1224" style="stop-color:#FEB9B8"/>
				<stop  offset="1" style="stop-color:#FFDEDE"/>
			</linearGradient>
			<path fill="url(#SVGID_5_)" d="M80.156,81.497c0,0-0.491-0.7-1.051-0.256c-0.56,0.443,0.507,2.417,0.806,2.469
				c0.298,0.051,0.464-0.301,0.451-0.492S79.962,81.856,80.156,81.497z"/>
			
				<linearGradient id="SVGID_6_" gradientUnits="userSpaceOnUse" x1="3590.8608" y1="152.5278" x2="3592.0054" y2="152.5278" gradientTransform="matrix(-0.9999 -0.0108 -0.0108 0.9999 3672.4219 -31.4324)">
				<stop  offset="0.1224" style="stop-color:#FCA4B5"/>
				<stop  offset="0.9896" style="stop-color:#FFADB7"/>
			</linearGradient>
			<path fill="url(#SVGID_6_)" d="M80.007,81.493c0,0-0.583-0.376-0.822-0.077c-0.239,0.299,0.435,1.585,0.623,1.807
				c0.188,0.222,0.457-0.239,0.457-0.239S79.929,81.782,80.007,81.493z"/>
			<path fill="#FEC7C7" d="M85.924,84.525c0,0-0.913,0.309-1.431,0.29C83.976,84.796,86.312,84.075,85.924,84.525z"/>
			
				<ellipse transform="matrix(-0.9801 0.1984 -0.1984 -0.9801 182.54 145.3385)" fill="#FFFFFF" cx="83.99" cy="81.813" rx="0.332" ry="0.215"/>
			
				<ellipse transform="matrix(-0.9016 0.4326 -0.4326 -0.9016 198.6229 117.4239)" fill="#FFFFFF" cx="85.954" cy="81.306" rx="0.215" ry="0.194"/>
			<path fill="#E6F1FF" d="M78.101,82.229c0,0,0.751-0.933,1.007-0.985c0.255-0.051,1.136,0.272,1.136,0.272l0.073-0.102
				l0.856-1.114c0,0,0.007,0,0.018,0c0.16,0.004,1.497-0.042,2.298-0.104c0.854-0.066,2.246-0.436,2.66-0.626
				c0.37-0.168-0.055-1.246-0.188-1.587c-0.015-0.042-0.033-0.072-0.033-0.089c0.003-1.083-1.8-2.371-2.609-2.537
				c-0.744-0.152-3.324-0.763-5.281,1.655c-0.378,0.466-0.606,0.944-0.73,1.416c-0.063,0.236-0.1,0.471-0.113,0.702
				C77.081,80.814,78.101,82.229,78.101,82.229z"/>
			<path fill="#E6F1FF" d="M80.244,81.516c0,0,0.122,2.568,0.033,4.244s0.083,3.362-0.026,3.656
				c-0.232,0.619-4.198-1.171-4.824-0.612c-0.625,0.559-0.625,0.559-0.625,0.559s1.267-1.792,1.622-3.359
				c0.355-1.567,0.865-4.197,0.763-6.595C79.166,79.076,80.244,81.516,80.244,81.516z"/>
			<path fill="#DDE8F6" d="M85.914,77.726c0,0-0.128,0.243-0.406,0.339s-1.085,0.282-1.473,0.178
				c-0.805,0.256-1.48,0.375-2.325,0.382c-0.845,0.007-1.51-0.163-1.662-0.284c-0.407,0.051-1.093-0.012-1.596-0.188
				c-0.35-0.146-0.476-0.373-0.476-0.373s-0.33,0.103-0.42-0.016c-0.051,0.109-0.051,0.109-0.051,0.109l0.076,0.449l-0.37,0.625
				l-0.02,0.273c0,0,0.413,0.392,1.516,0.656c1.103,0.263,3.184,0.322,4.905,0.14c1.181-0.125,2.272-0.427,2.664-0.755
				c0.025-0.183-0.054-0.445-0.054-0.445L85.914,77.726z"/>
			<path fill="#656565" d="M77.042,78.969c0.129,0.159,0.877,0.47,1.002,0.516c0.916,0.341,2.439,0.649,5.301,0.425
				c0.888-0.069,2.578-0.576,3.009-0.773c0.385-0.175,0.103-0.888-0.035-1.241c-0.004,0.003-0.157-0.116-0.16-0.11
				c-0.042,0.05-0.167,0.047-0.23,0.109c-0.499,0.487-2.585,0.728-4.105,0.769c-1.684,0.047-3.738-0.549-3.738-0.549
				s-0.557-0.243-0.764-0.307c-0.142,0.062-0.332,0.154-0.347,0.299C76.96,78.249,76.877,78.766,77.042,78.969z"/>
		</g>
		<path fill="#E6F1FF" d="M76.589,104.262l0.482,11.187c0,0-0.901,0.574-1.977,0.556c-1.075-0.018-1.075-0.018-1.075-0.018
			s-1.834-8.231-1.462-11.759C74.126,104.14,76.589,104.262,76.589,104.262z"/>
	</g>
	<path fill="#F0F5FB" d="M77.611,80.886c0,0,0.213,4.895-1.909,7.37c1.142-0.64,1.79-0.386,1.79-0.386S78.104,83.824,77.611,80.886z
		"/>
</g>
</svg>
