<?xml version="1.0" encoding="utf-8"?>
<!-- Generator: Adobe Illustrator 16.0.0, SVG Export Plug-In . SVG Version: 6.00 Build 0)  -->
<!DOCTYPE svg PUBLIC "-//W3C//DTD SVG 1.1//EN" "http://www.w3.org/Graphics/SVG/1.1/DTD/svg11.dtd">
<svg version="1.1" id="Layer_1" xmlns="http://www.w3.org/2000/svg" xmlns:xlink="http://www.w3.org/1999/xlink" x="0px" y="0px"
	 width="463.683px" height="425.749px" viewBox="0 0 463.683 425.749" enable-background="new 0 0 463.683 425.749"
	 xml:space="preserve">
<g>
	<g>
		<path fill="#FEBFBF" d="M264.791,121.376c0,0,1.286,0.244,1.615,2.126c0.329,1.882,0.857,8.588,0.425,9.517
			s-1.761-0.673-2.227-4.862C264.138,123.968,262.335,121.935,264.791,121.376z"/>
		<path fill="#FEBFBF" d="M267.966,141.854c0,0-0.072,0.439,0.016,0.751c0.088,0.311,0.481,1.517,0.481,1.517
			s-0.022,0.436-0.003,0.652c0.026,0.215-0.29,1.105-0.141,1.307c0.014,0.024,0.026,0.035,0.047,0.053h0.006
			c0.11,0.073,0.238-0.053,0.291-0.105l-0.115,0.23c0,0-0.006,0.013,0.009,0.049c0.009,0.031,0.03,0.085,0.079,0.169
			c0.049,0.09,0.137,0.103,0.211,0.092c0.08-0.011,0.146-0.046,0.146-0.046s-0.014,0.082,0.004,0.167v0.006
			c0.018,0.08,0.066,0.158,0.167,0.183c0.063,0.015,0.154-0.017,0.257-0.066c0.229-0.113,0.507-0.336,0.548-0.37
			c0.001,0.013-0.008,0.063-0.005,0.119c-0.005,0.119,0.023,0.272,0.198,0.28c0.273,0.007,1.036-1.289,1.036-1.289
			s-0.083-1.522-0.111-1.775c-0.022-0.247-0.996-1.311-1.324-2.085c-0.334-0.773-1.922-7.922-2.395-9.408
			c-0.473-1.491-0.875-1.068-0.875-1.068c-0.317-0.012-1.474,1.161-1.318,2.636C265.331,135.319,267.966,141.854,267.966,141.854z"
			/>
		<path fill="#485455" d="M263.176,121.121c0,0,2.142-0.589,3.124,1.268c0.981,1.856,0.815,8.219,0.928,9.014
			c0.429,0.982,2.467,9.013,2.445,9.486s-1.57,0.885-1.928,0.885s-3.147-8.601-3.358-9.771
			C264.175,130.831,263.176,121.121,263.176,121.121z"/>
		
			<linearGradient id="SVGID_1_" gradientUnits="userSpaceOnUse" x1="3928.7583" y1="34.8584" x2="3930.8364" y2="34.8584" gradientTransform="matrix(-0.998 0.0629 0.0629 0.998 4189.5249 -137.1323)">
			<stop  offset="0.1224" style="stop-color:#FCA4B5"/>
			<stop  offset="0.9896" style="stop-color:#FFADB7"/>
		</linearGradient>
		<path fill="url(#SVGID_1_)" d="M268.994,146.523c0,0-0.014,0.082,0.004,0.167c0.037-0.201,0.433-0.524,0.433-0.524
			s0.382-0.546,0.382-0.645c-0.006-0.099,0.008-0.566,0.008-0.566l0.091-0.13l0.071,0.623l0.131,0.401l-0.255,0.495l-0.437,0.468
			c0.229-0.113,0.507-0.336,0.548-0.37c0.001,0.013-0.008,0.063-0.005,0.119c0,0,0.271-0.427,0.354-0.414
			c0.082,0.02,0.358-0.029,0.358-0.029l0.112-0.485c0,0,0.024-1.38-0.019-1.471c-0.036-0.079-0.228-0.557-0.278-0.678
			c0.019,0.204,0.188,1.497,0.177,1.734c-0.015,0.249,0.044,0.68-0.042,0.804c-0.092,0.124-0.289,0.043-0.34-0.06
			c-0.056-0.102-0.244-0.823-0.244-0.823l-0.03-0.283l-0.257-0.735c0,0-0.35-0.221-0.625-0.737
			c-0.092-0.181-0.139-0.327-0.164-0.443c0.003,0.447,0.109,0.745,0.265,0.952c0.184,0.255,0.425,0.327,0.425,0.327l0.176,0.417
			l-0.273-0.001l0.194,0.13c0,0-0.038,0.481-0.037,0.698c0.002,0.224-0.442,0.662-0.499,0.752c-0.063,0.085-0.358,0.321-0.358,0.321
			l-0.011,0.032C268.927,146.558,268.994,146.523,268.994,146.523z"/>
		
			<linearGradient id="SVGID_2_" gradientUnits="userSpaceOnUse" x1="3930.3901" y1="35.3047" x2="3931.2827" y2="35.3047" gradientTransform="matrix(-0.998 0.0629 0.0629 0.998 4189.5249 -137.1323)">
			<stop  offset="0.1224" style="stop-color:#FCA4B5"/>
			<stop  offset="0.9896" style="stop-color:#FFADB7"/>
		</linearGradient>
		<path fill="url(#SVGID_2_)" d="M268.664,146.028l-0.115,0.23c0,0-0.006,0.013,0.009,0.049c0.092-0.13,0.171-0.247,0.201-0.261
			c0.073-0.029,0.357-0.736,0.357-0.736l0.046-0.854l-0.259-0.058l0.152,0.158l-0.116,0.703l-0.313,0.666l-0.254,0.209
			C268.483,146.207,268.611,146.081,268.664,146.028z"/>
	</g>
	<g>
		<path fill="#BDD6F2" d="M267.982,177.839c-4.021,2.559-10.729,2.836-14.981,0.62c-4.253-2.217-4.441-6.088-0.42-8.647
			c4.021-2.559,10.729-2.836,14.981-0.619S272.002,175.28,267.982,177.839z"/>
		<g>
			<path fill="#FEBFBF" d="M261.421,168.123c0,0-1.057,0.929-0.896,1.482c0.16,0.552,2.321,3.948,3.439,4.329
				c2.325,0.795,1.758-1.318,1.37-1.751c-0.343-0.381-1.702-1.427-1.696-2.428C263.645,168.404,261.421,168.123,261.421,168.123z"/>
			<path fill="#8E8E8E" d="M261.699,171.306c0,0-0.389,0.135-0.391,0.432s-0.028,1.414-0.028,1.414s-0.26,0.142-0.407,0.075
				c-0.146-0.067-0.356-0.416-0.356-0.416s-0.228-2.195-0.343-2.639C260.057,169.728,261.699,171.306,261.699,171.306z"/>
			<path fill="#3F4A4B" d="M260.409,168.766c0,0,1.572,1.842,2.199,3.062s1.298,1.707,1.791,1.681
				c0.786-0.041,1.29-0.53,1.112-0.928c-0.177-0.398-0.177-0.398-0.177-0.398s2.036,2.085,1.792,3.413s-3.781-0.455-4.325-1.135
				c-0.207-0.259-0.64-2.171-1.106-2.71c-0.466-0.54-1.178-0.297-1.486-1.408S260.409,168.766,260.409,168.766z"/>
			<path fill="#8E8E8E" d="M261.593,171.488c0.467,0.54,1.088,2.544,1.295,2.803c0.507,0.633,3.617,2.183,4.24,1.281
				c-0.001,0.007,0,0.016-0.002,0.023c-0.244,1.328-3.781-0.455-4.325-1.135c-0.207-0.259-0.64-2.171-1.106-2.71
				c-0.405-0.47-1.215-0.308-1.429-1.229C260.597,170.744,261.255,171.096,261.593,171.488z"/>
			<path fill="#4F5997" d="M260.305,157.203c0.001,0.002,0.001,0.002,0.001,0.004c0.023,0.094,0.051,0.184,0.081,0.267
				c0.095,0.266,0.265,0.476,0.484,0.636c0,0,0,0,0.001,0.002c1.074,0.797,3.299,0.406,3.516-0.403
				c0.592-2.208,0.293-7.783,0.73-10.696c0.439-2.911-0.776-7.875-0.776-7.875s-4.261,1.55-5.194,2.223
				c-0.554,0.399-0.267,3.192,0.124,5.669c0.267,1.702,0.584,3.255,0.712,3.785C260.283,152.049,259.867,155.502,260.305,157.203z"
				/>
			<path fill="#2A3637" d="M260.763,169.021c0.025,0.211,0.179,0.398,0.415,0.531c0.512,0.288,1.411,0.313,2.255-0.29
				c0,0,0.745-13.75,1.562-17.958c-1.58-0.322-3.856,4.304-4.538,4.272c-0.332-0.015-0.498,0.121-0.447,0.52
				c0,0.002,0,0.002,0,0.004c0.157,1.223-0.556,4.874-0.324,6.293C259.916,163.815,260.679,168.355,260.763,169.021z"/>
			<path fill="#A8B0C2" d="M260.763,169.021c0.025,0.211,0.179,0.398,0.415,0.531c-0.17-1.701-0.443-3.841-0.788-5.388
				c-0.502-2.25,0.15-5.492,0.186-7.159c0-0.002,0-0.002,0-0.002c0.006-0.297-0.01-0.58-0.059-0.846
				c-0.032-0.174-0.052-0.369-0.061-0.58c-0.099-1.897,0.57-5.055,0.382-6.212c-0.07-0.433-0.203-1.593-0.063-2.257
				c0.275-1.312,0.992-2.185,0.992-2.185c-1.129,0.124-2.048,0.473-2.791,1c0.266,1.701,0.583,3.255,0.711,3.785
				c0.299,1.234-0.117,4.687,0.322,6.388c0,0.002,0,0.002,0,0.004c0.157,1.223-0.556,4.874-0.324,6.293
				C259.916,163.815,260.679,168.355,260.763,169.021z"/>
			<g>
				<path fill="#8E8E8E" d="M256.943,172.478c0,0-0.571-0.158-0.561,0.138c0.012,0.297,0.132,2.144,0.132,2.144
					s-0.129,0.13-0.278,0.07c-0.15-0.061-0.376-0.399-0.376-0.399s-0.27-1.801-0.271-2.261
					C255.589,171.625,256.943,172.478,256.943,172.478z"/>
				<path fill="#FEBFBF" d="M256.733,169.878c0,0-0.833,0.703-0.798,1.586c0.034,0.867,1.197,4.365,2.315,4.746
					c1.117,0.381,2.213-0.362,2.109-0.864c-0.103-0.502-1.12-2.04-1.417-3.269C258.625,170.765,256.733,169.878,256.733,169.878z"/>
				<path fill="#3F4A4B" d="M258.936,171.564c0,0,0.87,1.553,1.257,2.614c0.843,2.315,0.825,3.336,0.666,3.896
					c-0.166,0.583-1.853,0.1-3.063-0.849c-1.388-1.087-0.822-2.437-1.686-3.771c-0.28-0.433-0.537-0.748-0.554-1.793
					c-0.03-0.888,0.748-1.273,0.748-1.273s-0.576,0.913-0.244,1.658c0.167,0.375,0.111,0.541,0.361,1.008
					c0.497,0.932,0.595,1.852,1.295,2.519c0.657,0.626,2.554,0.193,2.495-0.184c-0.11-0.696-0.746-1.861-1.003-2.51
					C258.904,172.104,258.936,171.564,258.936,171.564z"/>
				<path fill="#8E8E8E" d="M256.166,173.353c0.863,1.334,0.258,2.598,1.646,3.685c1.119,0.877,2.745,1.379,3.073,0.948
					c-0.009,0.03-0.018,0.059-0.025,0.088c-0.166,0.583-1.853,0.1-3.063-0.849c-1.388-1.087-0.822-2.437-1.686-3.771
					c-0.183-0.283-0.459-0.562-0.498-1.125C255.771,172.629,256.03,173.143,256.166,173.353z"/>
			</g>
			<path fill="#4F5997" d="M263.35,144.654c0,0,0.168,1.748-0.403,2.9s-1.647,1.98-1.647,1.98s-1.486,7.251-2.977,10.18
				c-0.669,1.313-3.052,1.037-3.343-1.237c-0.291-2.274-0.392-4.297-1.473-9.276c-0.264-1.213-0.409-3.403,1.153-5.839
				C256.223,140.928,263.35,144.654,263.35,144.654z"/>
			<path fill="#2A3637" d="M260.146,160.118c0,0,0.527,0.164,0.091,1.056c-0.437,0.892-2.141,6.915-1.646,9.963
				c-0.966,0.964-2.108,0.731-2.468-0.223c-0.36-0.953-0.972-7.541-0.595-8.893c0.377-1.352,1.357-2.117,1.243-3.115
				C256.656,157.909,260.146,160.118,260.146,160.118z"/>
			<g>
				<g>
					<path fill="#3F4A4B" d="M253.112,146.935c0.016,0.248,0.021,0.718,0.009,1.343c0.29-0.133,0.593-0.292,0.898-0.483
						c4.73-2.851,11.459-11.604,11.814-12.632c0.01-0.039,0.016-0.058,0.016-0.058c0.167-1.386,0.308-1.28,0.939-3.587
						c0.625-2.313,0.235-4.453-0.438-6.958c-0.674-2.512-1.382-3.136-2.686-3.417c-1.311-0.274-9.729,1.051-10.844,2.255
						c-1.108,1.203-1.137,2.364-1.137,2.364s0.277,1.485,0.6,3.063c0.148,0.742,0.311,1.497,0.453,2.131
						c0.078,0.333,0.147,0.627,0.214,0.872c0.45,1.691,0.595,5.114,0.771,7.3c-0.051,0.201-0.107,0.421-0.148,0.666
						C253.147,141.915,252.986,145.434,253.112,146.935z"/>
					<path fill="#DDE0E7" d="M263.844,125.306c0,0-0.31,0.747-2.702,0.117c-2.393-0.63-3.296-2.222-3.296-2.222
						s-3.423-0.363-3.612-0.321c-0.189,0.043,1.986-1.111,1.986-1.111L263.844,125.306z"/>
					<path fill="#3F4A4B" d="M252.291,168.01c0,0,0.115,0.312,0.366,0.671c0.231,0.33,0.58,0.709,1.064,0.914
						c1.074,0.678,4.652-1.238,7.082-1.108c2.672,0.144,3.942-0.313,4.673-1.353c-0.144-6.124,1.002-17.133,0.386-23.165
						c-0.624-6.184-0.144-8.404-0.028-8.806c0.01-0.039,0.016-0.058,0.016-0.058s-7.143,1.252-10.465,2.702
						c-0.979,0.438-1.626,0.879-1.662,1.321c-0.023,0.238-0.073,0.451-0.148,0.666c-0.538,1.582-2.106,3.361,0.186,14.59
						C254.311,157.086,252.501,163.266,252.291,168.01z"/>
					<path fill="#DDE0E7" d="M252.657,168.681c0.789-4.271,2.46-11.308,2.508-12.775c0.069-2.348-0.679-6.161-0.761-8.53
						c-0.013-0.371-0.236-6.347-0.236-6.347s0.588-1.584,1.217-3.223c0.406-1.038,0.823-2.102,1.117-2.789
						c0.768-1.774-0.42-1.406-1.146-3.443c-0.721-2.043-0.576-4.103-0.576-4.103s-0.803,1.515-2.041,3.484
						c0.078,0.333,0.147,0.627,0.214,0.872c0.45,1.691,0.595,5.114,0.771,7.3c-0.051,0.201-0.107,0.421-0.148,0.666
						c-0.538,1.582-2.106,3.361,0.186,14.59c0.552,2.703-1.258,8.882-1.469,13.626C252.291,168.01,252.406,168.321,252.657,168.681z
						"/>
					<path fill="#DDE8F6" d="M252.43,123.881c0,0,0.954-1,2.154-1.041c1.2-0.041,3.396,0.176,4.016,0.2
						c0.62,0.024-2.653-5.028-2.653-5.028s-2.004,2.016-2.481,2.613C252.988,121.223,252.293,123.386,252.43,123.881z"/>
					<path fill="#DDE8F6" d="M256.374,114.137c0,0,0.557-3.163,3.304-3.748c2.804-0.503,4.39,1.494,4.679,1.991
						c0.289,0.498,0.737,1.896,0.619,2.745s-1.131,6.326-2.365,6.369c-1.234,0.043-2.237-0.048-3.307-0.668
						c-1.07-0.62-3.036-2.095-3.356-2.813C255.614,117.088,256.374,114.137,256.374,114.137z"/>
					<path fill="#DDE8F6" d="M263.589,119.795c0,0,0.953,2.44,1.038,2.77s0.27,1.014,0.083,1.322
						c-0.188,0.309-0.378,1.493-1.429,1.637c-1.05,0.143-2.677-0.528-3.69-1.275c-1.014-0.749-2.104-1.703-2.652-2.626
						c-0.548-0.923-2.184-2.393-2.184-2.393l1.139-1.27C255.894,117.959,261.035,121.592,263.589,119.795z"/>
					<path fill="#FEC7C7" d="M264.792,113.934c0,0-0.271-0.834-0.89-0.627s-2.119,1.551-2.618,3.039s-0.592,2.267-0.568,3.451
						c0.022,1.184,1.064,1.621,1.252,1.706c0.188,0.085,1.059,0.147,1.439-0.091s1.301-2.884,1.456-3.487
						S264.957,114.257,264.792,113.934z"/>
					<g>
						
							<linearGradient id="SVGID_3_" gradientUnits="userSpaceOnUse" x1="4263.7632" y1="-17.874" x2="4262.686" y2="-17.3753" gradientTransform="matrix(-0.998 0.0628 0.0628 0.998 4520.2163 -131.999)">
							<stop  offset="0.1224" style="stop-color:#FEC7C7"/>
							<stop  offset="0.9896" style="stop-color:#FFDBDB"/>
						</linearGradient>
						<path fill="url(#SVGID_3_)" d="M263.994,116.806c0.081,0.459,0.561,1.425,0.661,1.792s-1.243,0.326-1.243,0.326
							L263.994,116.806z"/>
						
							<linearGradient id="SVGID_4_" gradientUnits="userSpaceOnUse" x1="4262.8257" y1="-17.3076" x2="4264.1323" y2="-18.062" gradientTransform="matrix(-0.998 0.0628 0.0628 0.998 4520.2163 -131.999)">
							<stop  offset="0.188" style="stop-color:#FFDCDC"/>
							<stop  offset="0.8991" style="stop-color:#FEC7C7"/>
						</linearGradient>
						<path fill="url(#SVGID_4_)" d="M263.792,118.968c0.324-0.014,0.751-0.063,0.876-0.222c0.037-0.047,0.049-0.103,0.033-0.161
							c-0.042-0.153-0.148-0.41-0.263-0.681c-0.164-0.394-0.351-0.841-0.397-1.106l-0.094,0.017
							c0.049,0.276,0.237,0.728,0.403,1.126c0.112,0.268,0.219,0.522,0.259,0.669c0.008,0.029,0.003,0.054-0.016,0.077
							c-0.143,0.18-0.899,0.196-1.18,0.188l-0.004,0.095C263.45,118.973,263.604,118.976,263.792,118.968z"/>
					</g>
					<circle fill="#FFFFFF" cx="262.222" cy="116.959" r="0.267"/>
					
						<ellipse transform="matrix(-0.9562 -0.2927 0.2927 -0.9562 483.107 305.3035)" fill="#FFFFFF" cx="264.397" cy="116.505" rx="0.241" ry="0.317"/>
					<g>
						<path fill="#754554" d="M261.578,116.369c0.72-0.311,1.674-0.106,1.685-0.104l0.034-0.155
							c-0.04-0.009-1.015-0.218-1.782,0.114L261.578,116.369z"/>
					</g>
					<g>
						<path fill="#754554" d="M264.111,116.037c0.443-0.342,0.838-0.386,0.842-0.386l-0.016-0.159
							c-0.017,0.002-0.441,0.046-0.923,0.419L264.111,116.037z"/>
					</g>
					<g>
						<path fill="#FB7F9E" d="M262.844,120.18c0.329-0.015,1.008-0.07,1.27-0.289l-0.103-0.122c-0.249,0.208-1.056,0.254-1.35,0.256
							v0.159C262.672,120.184,262.742,120.184,262.844,120.18z"/>
					</g>
					<polygon fill="#C6D6ED" points="255,119.893 255.31,119.599 256.747,120.883 257.373,121.823 255.629,121.107 255.355,120.3 
						253.654,120.88 254.274,120.093 					"/>
					<path fill="#CDDDF5" d="M253.408,122.16c0,0,0.833-0.505,1.497-0.554c0.664-0.048,2.583,0.763,2.583,0.763l0.016,0.253
						l-2.185-0.67L253.408,122.16z"/>
					<path fill="#C6D6ED" d="M262.236,124.575c0,0,1.292,0.045,1.612-1.413c0.321-1.458,0.159-1.54,0.159-1.54
						s0.915,1.409-0.098,3.053C263.404,125.103,262.529,124.849,262.236,124.575z"/>
					<path fill="#CDDDF5" d="M257.488,121.532c0,0,1.999,2.838,4.791,3.719c0.435,0.076-0.041-0.32-0.628-0.631
						S259.575,123.784,257.488,121.532z"/>
					<path fill="#CDDDF5" d="M259.62,122.042c0,0,0.915,1.015,1.832,1.259c0.917,0.244,2.198,0.282,1.836-1.152
						C262.648,123.063,260.829,123.023,259.62,122.042z"/>
					<path fill="#CDDDF5" d="M257.082,119.586c0,0-0.17,0.578,2.57,2.97C258.962,121.633,257.679,120.315,257.082,119.586z"/>
				</g>
				<g>
					<path fill="#485455" d="M249.439,136.177c0,0,0.929-8.186,1.478-9.835s0.736-2.228,2.266-2.497
						c1.53-0.268,2.584,1.47,2.303,3.824c-0.282,2.354-4.127,12.072-4.413,12.451C250.787,140.499,249.874,139.259,249.439,136.177z
						"/>
					<path fill="#485455" d="M249.368,137.229c0,0-0.183-0.728,0.451-1.3c0.634-0.573,2.761-1.426,2.895-0.835
						s0.271,10.722,0.292,11.064c0.021,0.342-0.949,0.765-1.896,0.721c-0.948-0.043-1.271-0.264-1.361-0.602
						C249.658,145.939,249.368,137.229,249.368,137.229z"/>
					<path fill="#FEBFBF" d="M252.801,146.06c0,0,0.218,0.459,0.288,0.893s0.142,1.563,0.203,1.731
						c0.063,0.168,0.208,0.434,0.09,0.596c-0.119,0.162-0.454,0.157-0.663-0.285c-0.208-0.442-0.347-1.559-0.347-1.559
						s-0.279,0.61-0.287,0.766c-0.008,0.155,0.056,1.027,0.151,1.176c0.095,0.148,0.387,0.009,0.483,0.029
						c0.096,0.021,0.17,0.11,0.17,0.11s0.279,0.068,0.24,0.415c-0.135,0.18-0.653,0.213-0.931,0.205
						c-0.276-0.008-0.687-0.24-0.687-0.24l-0.408-0.078l-0.294-0.437l-0.229-0.227c0,0-0.243-0.182-0.309-0.272
						c-0.066-0.09-0.533-1.513-0.547-1.727s0.067-1.113,0.067-1.113L252.801,146.06z"/>
					<polygon fill="#FEBFBF" points="251.036,148.518 251.478,149.888 251.355,149.865 					"/>
					<polygon fill="#FEBFBF" points="250.464,148.342 250.811,149.381 250.693,149.265 					"/>
				</g>
			</g>
		</g>
	</g>
</g>
</svg>
