<?xml version="1.0" encoding="utf-8"?>
<!-- Generator: Adobe Illustrator 16.0.0, SVG Export Plug-In . SVG Version: 6.00 Build 0)  -->
<!DOCTYPE svg PUBLIC "-//W3C//DTD SVG 1.1//EN" "http://www.w3.org/Graphics/SVG/1.1/DTD/svg11.dtd">
<svg version="1.1" id="Layer_1" xmlns="http://www.w3.org/2000/svg" xmlns:xlink="http://www.w3.org/1999/xlink" x="0px" y="0px"
	 width="463.683px" height="425.749px" viewBox="0 0 463.683 425.749" enable-background="new 0 0 463.683 425.749"
	 xml:space="preserve">
<g>
	<path fill="#D7E4F2" d="M423.661,199.657c4.23,2.692,11.288,2.984,15.763,0.651c4.475-2.332,4.673-6.405,0.442-9.098
		c-4.23-2.692-11.288-2.984-15.763-0.651C419.627,192.892,419.43,196.965,423.661,199.657z"/>
	<g>
		<path fill="#6C6B79" d="M424.541,194.526c0,0-0.209,0.112-0.217,0.27c-0.008,0.157-0.004,0.59-0.001,0.692
			c0.003,0.102,0.279,0.492,0.939,0.631c0.659,0.139,2.246-0.318,2.777-0.643c0.531-0.326,1.248-1.14,1.47-1.206
			c0.223-0.065,0.891,0.043,0.891,0.043l0.6-0.063l0.981-0.372c0,0,0.115-0.666-0.16-0.87S424.541,194.526,424.541,194.526z"/>
		<path fill="#504F60" d="M428.204,191.753c0,0-0.771,0.512-0.907,0.654c-0.136,0.143-1.535,0.747-2.019,1.056
			c-0.483,0.309-0.841,0.827-0.87,0.996c-0.028,0.168-0.095,0.552-0.034,0.71c0.06,0.159,0.324,0.579,1.171,0.613
			c0.847,0.035,2.55-0.805,2.55-0.805s1.174-0.839,1.348-0.925c0.174-0.087,1.722-0.514,1.956-0.597
			c0.234-0.084,0.37-0.12,0.4-0.311c0.031-0.19,0.209-1.234,0.076-1.559C431.743,191.261,428.876,190.897,428.204,191.753z"/>
	</g>
	<g>
		<path fill="#6C6B79" d="M430.462,197.229c0,0-0.231,0.009-0.28,0.318c-0.048,0.309-0.032,0.675-0.032,0.675
			s0.297,0.435,1.268,0.536c0.97,0.102,2.146-0.281,2.746-0.638c0.6-0.356,0.812-0.641,1.166-1.157
			c0.355-0.516,0.729-0.767,0.729-0.767l0.155,0.038c0,0,0.854-0.649,0.992-0.871c0.07-0.184,0.104-1.119-0.03-1.2
			C437.04,194.082,430.462,197.229,430.462,197.229z"/>
		<path fill="#504F60" d="M433.042,193.688l-0.256,0.648c0,0-1.549,1.57-1.968,2.037c-0.419,0.467-0.632,0.874-0.642,1.289
			c-0.01,0.416,1.075,0.662,1.237,0.67s0.88,0.063,1.792-0.299c0.911-0.361,1.283-0.699,2.003-1.517
			c0.721-0.818,1.21-1.27,1.433-1.458c0.222-0.188,0.545-0.487,0.536-0.725s0.014-0.904-0.183-0.982
			C436.8,193.273,433.649,193.085,433.042,193.688z"/>
	</g>
	<g>
		<path fill="#FEBFBF" d="M426.646,166.077l-0.025,0.531c0,0-0.031,0.068-0.092,0.117c-0.036,0.03-0.084,0.052-0.14,0.045
			c-0.026-0.003-0.052-0.007-0.079-0.01c-0.134-0.021-0.28-0.056-0.28-0.056s-0.007,0.002-0.018,0.009
			c-0.051,0.022-0.196,0.086-0.259,0.058c-0.075-0.032-1.063-1.064-1.063-1.064s-0.378-1.536-0.36-1.792
			c0.017-0.256,0.462-2.572,0.55-3.452c0.089-0.878,0.458-5.596,0.512-6.385c0.053-0.788,0.46-2.066,0.572-2.911
			c0.109-0.843,0.371-4.373,0.371-4.373l1.619,0.11l-0.939,11.672L426.646,166.077z"/>
		
			<linearGradient id="SVGID_1_" gradientUnits="userSpaceOnUse" x1="2228.8423" y1="115.0137" x2="2230.5688" y2="115.0137" gradientTransform="matrix(0.9977 0.0675 -0.0675 0.9977 -1790.9294 -100.5544)">
			<stop  offset="0.1224" style="stop-color:#FCA4B5"/>
			<stop  offset="0.9896" style="stop-color:#FFADB7"/>
		</linearGradient>
		<path fill="url(#SVGID_1_)" d="M426.621,166.608c0,0-0.031,0.068-0.092,0.117c-0.001-0.108-0.002-0.204,0-0.231
			c0.005-0.07-0.244-0.288-0.364-0.409c-0.12-0.123-0.325-0.159-0.325-0.159s0.211,0.251,0.255,0.354
			c0.043,0.102,0.216,0.48,0.216,0.48c-0.134-0.021-0.28-0.056-0.28-0.056s-0.007,0.002-0.018,0.009
			c0.02-0.165-0.04-0.349-0.04-0.349s-0.646-0.756-0.771-0.93c0.022-0.199-0.163-0.954-0.159-1.068
			c0.003-0.115,0.202-0.936,0.202-0.936l0.709,0.091l0.313-0.829l0.012,1.635c0,0,0.197,1.291,0.297,1.513
			c0.023,0.055,0.049,0.139,0.072,0.236L426.621,166.608z"/>
		<path fill="#6F7ABD" d="M429.898,142.298c0,0-2.737-0.135-3.285,1.473c-0.549,1.608-0.679,3.094-0.679,3.094
			s0.796,0.69,1.014,0.714C427.167,147.604,429.898,142.298,429.898,142.298z"/>
		
			<linearGradient id="SVGID_2_" gradientUnits="userSpaceOnUse" x1="2229.2007" y1="112.4043" x2="2229.6077" y2="115.5621" gradientTransform="matrix(0.9977 0.0675 -0.0675 0.9977 -1790.9294 -100.5544)">
			<stop  offset="0.1224" style="stop-color:#FEB9B8"/>
			<stop  offset="1" style="stop-color:#FFDEDE"/>
		</linearGradient>
		<path fill="url(#SVGID_2_)" d="M425.958,164.309c0,0,0.018-0.673,0.101-0.813c0.082-0.14,0.024-1.273-0.097-1.488
			c-0.121-0.215-0.821-0.006-0.817,0.88c0.005,0.885,0.101,1.792,0.101,1.792s0.222,0.629,0.22,0.74
			c-0.003,0.11,0.11,0.35,0.357,0.281c0.247-0.069,0.232-0.531,0.222-0.646C426.035,164.94,425.958,164.309,425.958,164.309z"/>
	</g>
	<g>
		<path fill="#4F5997" d="M431.867,191.339c0,0-0.203,0.398-0.691,0.626c-0.499,0.233-1.292,0.287-2.469-0.442
			c0,0-0.6-13.735-1.493-17.959l3.604,5.302l1.452,0.021l0.002,0.001c0,0,0.698,4.639,0.391,7.089
			C432.353,188.429,431.867,191.339,431.867,191.339z"/>
		<path fill="#4F5997" d="M432.332,178.725c-0.016,0.057-0.035,0.11-0.06,0.163l-0.002-0.001c-0.204,0.458-0.664,0.737-1.196,0.867
			c-1.052,0.257-2.388-0.072-2.633-0.774c-0.016-0.043-0.031-0.095-0.051-0.152c-0.447-1.378-1.459-7.193-2.112-11.517
			c-0.679-4.507,0.402-6.688,0.402-6.688l5.539,0.885c0,0,0.104,2.663,0.19,5.856C432.525,171.74,432.593,177.837,432.332,178.725z"
			/>
		<path fill="#A8B0C2" d="M431.867,191.339c0,0-0.203,0.398-0.691,0.626c0.32-2.428,0.837-6.577,0.717-7.426
			c-0.078-0.57-0.282-3.368-0.467-4.712c-1.252-9.13-1.188-11.972-1.188-11.972l-1.215-1.77l3.387,1.28
			c0.115,4.375,0.184,10.472-0.078,11.359c-0.016,0.057-0.035,0.11-0.06,0.163c0,0,0.698,4.639,0.391,7.089
			C432.353,188.429,431.867,191.339,431.867,191.339z"/>
		<path fill="#4F5997" d="M428.849,163.447l-0.752,0.92c0,0-0.044,1.117,2.461,2.92c0.071,2.616,1.058,8.01,2.073,12.933
			c0.436,2.108,3.335,0.375,3.711-1.95c0.376-2.325,2.112-9.625,2.236-11.414c0.125-1.79,0.228-3.61-1.032-4.636
			C436.286,161.194,428.849,163.447,428.849,163.447z"/>
		<g>
			<g>
				<path fill="#8C92B0" d="M435.755,166.742c-2.653-0.114-2.916-1.915-2.919-1.935l0.246-0.032c0.01,0.075,0.28,1.838,3.218,1.718
					l0.011,0.249C436.115,166.75,435.929,166.75,435.755,166.742z"/>
			</g>
			<path fill="#1B292C" d="M438.391,162.473c0,0-1.23,1.504-4.506,1.678c-3.276,0.174-4.518-0.153-5.611-0.757
				s-1.763-1.465-1.763-1.465l0.203-1.458c0,0,0.62,1.108,2.177,1.728s4.909,0.501,6.273,0.386c1.365-0.115,3.106-1.221,3.106-1.221
				L438.391,162.473z"/>
			<path fill="#4F5997" d="M432.267,162.756c0,0-0.089,0.42-0.104,0.907c-0.014,0.487,0,1.379,0,1.379l-0.495-0.032
				c0,0-0.088-0.851-0.068-1.285c0.02-0.434,0.135-1.045,0.135-1.045L432.267,162.756z"/>
			<path fill="#4F5997" d="M427.715,161.492c0,0-0.121,0.522-0.14,0.938c-0.02,0.416,0.047,1.114,0.047,1.114l-0.331-0.423
				c0,0-0.051-0.708-0.04-0.934c0.01-0.226,0.194-0.905,0.194-0.905L427.715,161.492z"/>
			<g>
				<path fill="#8C92B0" d="M426.11,164.016c-0.021-0.001-0.043-0.004-0.065-0.009l0.057-0.242c0.239,0.059,0.56-0.639,0.714-1.157
					l0.238,0.07C426.983,162.912,426.623,164.037,426.11,164.016z"/>
			</g>
			<g>
				<path fill="#CCDEFB" d="M429.853,164.304c-0.058,0-0.116-0.009-0.176-0.025l-0.924-0.254c-0.394-0.109-0.699-0.535-0.695-0.97
					l0.004-0.416c0.002-0.212,0.076-0.397,0.21-0.523c0.15-0.142,0.359-0.189,0.574-0.13l0.924,0.254
					c0.394,0.108,0.699,0.535,0.695,0.97l-0.004,0.416c-0.002,0.212-0.076,0.398-0.21,0.524
					C430.143,164.251,430.003,164.305,429.853,164.304z M428.678,162.436c-0.063,0-0.118,0.019-0.158,0.057
					c-0.041,0.039-0.063,0.094-0.063,0.164l-0.004,0.416c-0.002,0.204,0.176,0.432,0.379,0.489l0.925,0.254
					c0.099,0.027,0.189,0.01,0.248-0.043c0.041-0.039,0.063-0.095,0.063-0.164l0.004-0.415c0.002-0.205-0.175-0.433-0.379-0.489
					l-0.924-0.255C428.737,162.44,428.707,162.436,428.678,162.436z"/>
			</g>
		</g>
		<path fill="#4F5997" d="M433.525,193.278c0.428-1.631-0.177-10.503-0.894-13.058c3.372-2.06,3.801-2.455,3.801-2.455
			s1.313,5.601,1.366,7.896c0.03,1.313-1.266,7.828-1.266,7.828S435.232,194.925,433.525,193.278z"/>
		<g>
			<path fill="#8C92B0" d="M436.127,194.298l-0.242-0.055c0.014-0.057,1.289-5.698,1.245-8.292
				c-0.035-2.018-0.558-4.622-0.902-6.344c-0.162-0.807-0.29-1.443-0.328-1.804c-0.037-0.362,0.156-1.398,0.426-2.834
				c0.611-3.266,1.535-8.201,0.644-10.034l0.223-0.108c0.927,1.906-0.006,6.89-0.623,10.188c-0.255,1.361-0.456,2.436-0.422,2.762
				c0.036,0.349,0.163,0.981,0.324,1.781c0.347,1.731,0.872,4.348,0.907,6.389C437.422,188.571,436.14,194.241,436.127,194.298z"/>
		</g>
	</g>
	<g>
		<path fill="#5F6BB5" d="M438.503,149.344c-0.195,0.674-0.382,1.247-0.502,1.538c-0.425,1.024-0.927,3.926-0.924,5.715
			c0.009,1.52,0.35,1.894,0.555,3.201c0.031,0.229,0.238,1.389,0.262,1.684c-0.118,1.031-1.068,0.322-2.33,0.643
			c-0.211,0.056-0.435,0.105-0.676,0.142c-0.819,0.139-2.123,0.201-3.21,0.219c-4.48-0.254-4.928-2.137-4.928-2.137
			s-0.01-3.664-0.113-4.963c-0.104-1.3-0.653-1.996-0.642-2.825c0.019-0.828,0.392-3.354,1.004-5.526
			c0.605-2.167,1.05-4.037,1.675-4.348c0.57-0.276,1.206-0.262,2.157-0.373c0.945-0.106,3.045,0.301,3.045,0.301
			s1.164,0.301,1.623,0.467c0.459,0.167,3.065,1.52,3.597,1.953C439.479,145.342,438.972,147.667,438.503,149.344z"/>
	</g>
	<g>
		<path fill="#1B292C" d="M427.403,162.373c0,0-0.5,0.101-0.603,0.06c-0.1-0.043-0.29-0.356-0.309-0.523
			c-0.021-0.164,0.06-1.698,0.09-1.781c0.026-0.087,0.425-0.026,0.495-0.055c0.065-0.029,0.307,0.371,0.36,0.456l0.006,0.011
			C427.482,160.66,427.403,162.373,427.403,162.373z"/>
		<path fill="#263336" d="M427.443,160.542c0,0-0.465,0.037-0.504,0.043c-0.042,0.007-0.402,0.697-0.402,0.697l0.045-1.152
			c0.026-0.087,0.425-0.026,0.495-0.055c0.065-0.029,0.307,0.371,0.36,0.456L427.443,160.542z"/>
		<path fill="#CCDEFB" d="M426.629,160.872c0.002,0.067-0.011,0.124-0.027,0.126s-0.032-0.048-0.034-0.115
			c-0.002-0.066,0.01-0.123,0.027-0.126C426.612,160.753,426.627,160.805,426.629,160.872z"/>
	</g>
	<path fill="#A8B0C2" d="M438.001,150.882c-0.425,1.024-0.927,3.926-0.924,5.715c0.009,1.52,0.35,1.894,0.555,3.201l-2.077,2.717
		l-0.346,0.449l-0.329-0.308l0.805-1.934c0,0,0.446-0.651,0.633-1.248c0.188-0.597-0.979-4.651-0.919-5.203
		c0.06-0.545,0.468-0.765,0.942-2.178c0.481-1.418,0.283-3.621,0.283-3.621c0.475-0.56,1.281,0.166,1.879,0.87
		C438.308,150.018,438.122,150.591,438.001,150.882z"/>
	
		<linearGradient id="SVGID_3_" gradientUnits="userSpaceOnUse" x1="2262.5806" y1="122.3521" x2="2259.8113" y2="119.7002" gradientTransform="matrix(0.9969 0.0788 -0.0788 0.9969 -1811.2739 -157.5149)">
		<stop  offset="0.1224" style="stop-color:#FEC7C7"/>
		<stop  offset="0.9694" style="stop-color:#FFADB7"/>
	</linearGradient>
	<path fill="url(#SVGID_3_)" d="M430.22,140.254c0,0,0.546,1.811,0.355,2.335s-1.075,1.694-0.727,2.364s1.733,1.308,2.952,0.555
		s1.551-1.281,1.871-1.556c0.32-0.276,0.723-0.714,0.522-0.948c-0.199-0.234-0.383-1.148-0.39-1.94
		c-0.006-0.793,0.026-1.64,0.25-2.724c0.223-1.084,0.307-2.433,0.307-2.433l-2.919,1.641L430.22,140.254z"/>
	
		<linearGradient id="SVGID_4_" gradientUnits="userSpaceOnUse" x1="2258.4458" y1="120.5103" x2="2260.2847" y2="122.3961" gradientTransform="matrix(0.9969 0.0788 -0.0788 0.9969 -1811.2739 -157.5149)">
		<stop  offset="0.1224" style="stop-color:#FCA4B5"/>
		<stop  offset="0.9896" style="stop-color:#FFADB7"/>
	</linearGradient>
	<path fill="url(#SVGID_4_)" d="M430.515,141.448c0,0,0.1,0.867,0.081,1.064c-0.02,0.197-0.571,0.94-0.533,1.093
		c0.037,0.152,0.8,1.153,1.239,0.993c0.439-0.161,0.802-2.318,1.708-2.971c0.318-0.229,0.753-1.152,0.753-1.152L430.515,141.448z"/>
	<g>
		<path fill="#FEBFBF" d="M442.683,151.334c0,0-1.86-3.59-2.849-4.389c-1.928-0.248-2.259,1.877-2.189,2.622
			c0.068,0.746,0.652,1.625,1.989,3.012c1.338,1.387,2.117,2.98,2.797,3.625c0.68,0.646,2.688,1.448,3.051,0.418
			C445.457,155.259,443.839,152.719,442.683,151.334z"/>
		<g>
			<path fill="#1B292C" d="M438.649,162.669c0.008,0.379-0.162,0.681-0.354,0.898c-0.059,0.064-0.128,0.13-0.201,0.203
				c-0.17,0.149-0.319,0.225-0.319,0.225l-0.003,0.047l-0.136,3.367c0,0-0.894,0.675-2.115,0.407
				c-0.467-0.724-1.147-5.202-1.036-5.382c0.112-0.179,2.467-0.925,2.467-0.925l0.859-0.335c0,0,0.376,0.098,0.582,0.168
				C438.607,161.419,438.64,161.805,438.649,162.669z"/>
			<path fill="#263336" d="M438.649,162.669c0.008,0.379-0.162,0.681-0.354,0.898c-0.059,0.064-0.128,0.13-0.201,0.203
				c-0.1,0.089-0.204,0.186-0.322,0.272c-0.305,0.24-0.667,0.456-1.04,0.551c-1.033,0.257-1.661-1.213-1.715-1.495
				c-0.055-0.282-0.532-0.664-0.532-0.664c0.112-0.179,2.467-0.925,2.467-0.925l0.859-0.335c0,0,0.376,0.098,0.582,0.168
				C438.607,161.419,438.64,161.805,438.649,162.669z"/>
			
				<ellipse transform="matrix(0.982 0.1886 -0.1886 0.982 38.7873 -79.4101)" fill="#CCDEFB" cx="436.561" cy="164.057" rx="0.27" ry="0.329"/>
		</g>
		<path fill="#FEBFBF" d="M445.307,157.097c-0.119,0.108-0.285,0.226-0.504,0.357c-0.527,0.321-1.189,0.887-2.354,1.36
			c-1.633,0.664-4.702,1.682-4.74,1.738c-0.043,0.061-0.209,0.933-0.287,1.555c-0.039,0.306-0.159,0.773-0.274,1.178
			c-0.118,0.418-0.231,0.768-0.24,0.806c-0.016,0.071-0.788,0.752-0.788,0.752l-0.185,0.024c0,0-0.534,0.24-0.625,0.245
			c-0.087,0.01-0.221-0.175-0.221-0.175s-0.218-0.144-0.201-0.215c0.016-0.071,0.575-0.851,0.575-0.851l0.115-1.053l-0.19-1.336
			c0,0-0.671,0.834-0.894,1.004c-0.224,0.17-0.576,0.451-0.73,0.116c-0.011-0.242,0.922-1.397,0.922-1.397s0.484-0.916,0.635-1.231
			c0.156-0.315,1.266-0.876,1.741-1.079c0.475-0.204,3.149-1.594,4.255-2.475c1.107-0.881,1.484-0.847,1.484-0.847l2.565,0.353
			C445.366,155.925,445.718,156.734,445.307,157.097z"/>
		
			<linearGradient id="SVGID_5_" gradientUnits="userSpaceOnUse" x1="2685.4351" y1="139.1904" x2="2684.9272" y2="141.0689" gradientTransform="matrix(0.9759 0.2184 -0.2184 0.9759 -2153.6746 -559.8042)">
			<stop  offset="0.1224" style="stop-color:#FCA4B5"/>
			<stop  offset="0.9896" style="stop-color:#FFADB7"/>
		</linearGradient>
		<path fill="url(#SVGID_5_)" d="M436.293,162.833l-0.212,1.098c0,0-0.576,0.68-0.716,0.791c-0.14,0.11-0.277,0.214-0.277,0.214
			s0.261-0.049,0.39-0.176c0.13-0.126,0.591-0.622,0.662-0.728c0.07-0.105,0.204-0.912,0.204-0.912L436.293,162.833z"/>
		
			<linearGradient id="SVGID_6_" gradientUnits="userSpaceOnUse" x1="2685.9653" y1="139.332" x2="2685.4575" y2="141.2107" gradientTransform="matrix(0.9759 0.2184 -0.2184 0.9759 -2153.6746 -559.8042)">
			<stop  offset="0.1224" style="stop-color:#FCA4B5"/>
			<stop  offset="0.9896" style="stop-color:#FFADB7"/>
		</linearGradient>
		<path fill="url(#SVGID_6_)" d="M436.805,162.866c0,0-0.274,1.287-0.298,1.329c-0.022,0.042-0.418,0.546-0.418,0.546
			s0.487-0.402,0.546-0.484S436.805,162.866,436.805,162.866z"/>
		
			<linearGradient id="SVGID_7_" gradientUnits="userSpaceOnUse" x1="2685.4644" y1="135.8618" x2="2692.5483" y2="135.8618" gradientTransform="matrix(0.9759 0.2184 -0.2184 0.9759 -2153.6746 -559.8042)">
			<stop  offset="0.1224" style="stop-color:#FCA4B5"/>
			<stop  offset="0.9896" style="stop-color:#FFADB7"/>
		</linearGradient>
		<path fill="url(#SVGID_7_)" d="M445.174,156.978l-0.371,0.477c-0.527,0.321-1.189,0.887-2.354,1.36
			c-1.633,0.664-4.702,1.682-4.74,1.738c-0.043,0.061-0.209,0.933-0.287,1.555c-0.039,0.306-0.159,0.773-0.274,1.178
			c0,0,0.185-1.403,0.182-1.748c-0.003-0.346-0.132-0.954-0.132-0.954l-0.029-0.266c0,0,1.488-0.556,2.321-0.754
			c0.833-0.193,4.304-1.9,4.304-1.9L445.174,156.978z"/>
		<path fill="#6F7ABD" d="M442.006,149.175c0,0-0.336,0.797-1.274,1.206c-0.938,0.409-2.502,0.953-2.502,0.953l-1.452-2.093
			c0,0-0.575-1.604,0.4-3.083c0.976-1.479,1.918-1.125,1.918-1.125s1.229,1.254,1.783,2.106
			C441.433,147.991,442.006,149.175,442.006,149.175z"/>
	</g>
	<path fill="#FEC7C7" d="M430.359,133.413c0,0-1.109,0.246-1.482,1.329c-0.372,1.084-0.523,1.405-0.503,1.716
		c0.021,0.312-0.181,2.179-0.181,2.179s0.267,2.982,0.915,3.354c0.647,0.373,3.951-0.617,4.524-1.341
		c0.574-0.724,0.868-1.688,0.868-1.688s1.323-1.342,0.941-3.048c-0.382-1.706-1.817-2.577-2.396-2.668
		C432.469,133.154,430.359,133.413,430.359,133.413z"/>
	<g>
		
			<linearGradient id="SVGID_8_" gradientUnits="userSpaceOnUse" x1="2256.603" y1="118.5742" x2="2255.6401" y2="118.7597" gradientTransform="matrix(0.9969 0.0788 -0.0788 0.9969 -1811.2739 -157.5149)">
			<stop  offset="0.1224" style="stop-color:#FEC7C7"/>
			<stop  offset="0.9896" style="stop-color:#FFDBDB"/>
		</linearGradient>
		<path fill="url(#SVGID_8_)" d="M428.978,137.384c-0.09,0.412-0.758,1.362-0.893,1.703c-0.134,0.342,0.779,0.506,1.106,0.531
			L428.978,137.384z"/>
		
			<linearGradient id="SVGID_9_" gradientUnits="userSpaceOnUse" x1="2255.6968" y1="118.5742" x2="2256.8931" y2="118.5742" gradientTransform="matrix(0.9969 0.0788 -0.0788 0.9969 -1811.2739 -157.5149)">
			<stop  offset="0.188" style="stop-color:#FFDCDC"/>
			<stop  offset="0.8991" style="stop-color:#FEC7C7"/>
		</linearGradient>
		<path fill="url(#SVGID_9_)" d="M429.188,139.661c-0.239-0.019-0.961-0.131-1.123-0.391c-0.04-0.063-0.046-0.129-0.019-0.198
			c0.055-0.14,0.191-0.368,0.349-0.633c0.229-0.386,0.489-0.823,0.542-1.063l0.082,0.019c-0.056,0.254-0.318,0.697-0.551,1.088
			c-0.149,0.251-0.291,0.488-0.344,0.621c-0.016,0.043-0.013,0.083,0.013,0.122c0.131,0.211,0.781,0.33,1.059,0.352L429.188,139.661
			z"/>
	</g>
	<circle fill="#FFFFFF" cx="430.347" cy="137.904" r="0.265"/>
	<path fill="#FFFFFF" d="M428.841,137.482c-0.05,0.124-0.166,0.162-0.26,0.084c-0.092-0.078-0.126-0.24-0.075-0.364
		s0.167-0.162,0.26-0.084C428.859,137.195,428.892,137.358,428.841,137.482z"/>
	<polygon fill="#754554" points="429.569,137.012 429.581,137.292 430.64,137.302 431.8,137.445 430.727,136.981 	"/>
	<polygon fill="#754554" points="428.829,136.841 428.815,137.012 428.23,136.434 428.332,136.213 428.839,136.712 	"/>
	<path fill="#FB7F9E" d="M428.624,140.606c0,0-0.019,0.193,0.211,0.334c0.23,0.141,0.813-0.027,0.813-0.027
		s-0.531-0.252-0.631-0.294C428.917,140.576,428.624,140.606,428.624,140.606z"/>
	<path fill="#FB7F9E" d="M429.736,140.813c0,0-0.504-0.016-0.57-0.087c-0.066-0.07-0.52-0.205-0.52-0.205l-0.145-0.149
		c0,0,0.305-0.037,0.335-0.035s0.39,0.157,0.39,0.157L429.736,140.813z"/>
	<path fill="#754554" d="M432.927,135.337c0,0-0.129,0.77,0.008,1.355c0.138,0.585,0.455,1.505,0.578,1.688
		c0.124,0.182,0.249,1.328,0.249,1.328s0.202-1.511,0.287-1.711c0.084-0.2,0.849-0.289,0.849-0.289l-0.073,2.394
		c0,0,1.005-1.252,1.558-1.852c0.552-0.599,0.945-2.516,0.65-3.87c-0.294-1.355-1.09-1.616-1.863-1.987
		c-0.774-0.371-1.76-0.392-2.766-0.311c-1.005,0.081-2.121,0.705-2.63,1.182c-0.508,0.476-0.611,0.938-0.611,0.938
		s0.037,0.232,1.479,0.289C432.083,134.548,432.792,134.729,432.927,135.337z"/>
	
		<linearGradient id="SVGID_10_" gradientUnits="userSpaceOnUse" x1="2261.6636" y1="118.3525" x2="2263.2847" y2="118.3525" gradientTransform="matrix(0.9969 0.0788 -0.0788 0.9969 -1811.2739 -157.5149)">
		<stop  offset="0.1224" style="stop-color:#FEB9B8"/>
		<stop  offset="1" style="stop-color:#FFDEDE"/>
	</linearGradient>
	<path fill="url(#SVGID_10_)" d="M434.233,138.088c0,0,0.527-0.662,1.159-0.336c0.633,0.325,0.149,1.206-0.038,1.451
		s-0.712,0.487-0.841,0.576c-0.13,0.089-0.485,0.031-0.524-0.148c-0.039-0.179,0.132-0.602,0.132-0.602
		S434.299,138.287,434.233,138.088z"/>
	
		<linearGradient id="SVGID_11_" gradientUnits="userSpaceOnUse" x1="2261.9868" y1="118.208" x2="2263.0249" y2="118.208" gradientTransform="matrix(0.9969 0.0788 -0.0788 0.9969 -1811.2739 -157.5149)">
		<stop  offset="0.1224" style="stop-color:#FCA4B5"/>
		<stop  offset="0.9896" style="stop-color:#FFADB7"/>
	</linearGradient>
	<path fill="url(#SVGID_11_)" d="M434.497,138.431c0,0-0.01-0.261,0.22-0.357c0.229-0.097,0.685-0.329,0.729,0.172
		c0.045,0.501-0.614,0.877-0.614,0.877s-0.476,0.138-0.499,0.144s0.169-0.3,0.14-0.417
		C434.443,138.732,434.497,138.431,434.497,138.431z"/>
	<path fill="#1B292C" d="M436.063,143.708c0,0-0.389,0.766-0.402,0.925c0,0,0.972,0.362,1.517,0.935
		c0.893-0.803,1.919-0.535,1.919-0.535s-1.104-0.781-2.057-1.394C436.364,143.676,436.063,143.708,436.063,143.708z"/>
	<path fill="#CCDEFB" d="M440.027,146.247c-0.111-0.104-0.884,0.082-0.884,0.082s-0.444,0.703-0.367,0.847
		c0.076,0.143,1.124,1.511,1.946,1.184C441.12,147.596,440.137,146.35,440.027,146.247z"/>
	<g>
		<path fill="#6B6A78" d="M428.695,134.31c0,0-0.99,0.598-0.677,1.28c0.314,0.682,2.789,1.679,4.307,1.246
			c0.674-0.192,1.717-0.833,1.717-0.833S430.095,135.86,428.695,134.31z"/>
		<path fill="#1B292C" d="M428.658,134.436l0.156-2.023c0,0-0.259,0.688,1.082,1.389c1.781,0.93,5.45,1.31,7.523,0.426
			c0.085,0.208-0.214,1.025-0.214,1.025s-2.024,0.963-4.195,0.822C430.838,135.933,428.878,135.097,428.658,134.436z"/>
		<path fill="#4F5997" d="M428.742,133.523c0,0-1.303-1.932-1.283-2.171c0.02-0.239,1.289-0.481,3.206-0.246s5.607,2.99,7.948,2.788
			c-0.175,0.278-0.936,0.735-1.2,0.834C436.598,135.038,430.402,135.649,428.742,133.523z"/>
		<path fill="#7A84C2" d="M427.458,131.353c0,0,0.277-0.228,1.377,0.086c3.427,0.98,5.375,3.612,9.777,2.456
			c0.243-0.178-0.19-1.285-2.038-2.381c-0.837-0.497-6.24-1.459-7.161-1.283C428.492,130.408,427.261,130.917,427.458,131.353z"/>
		<path fill="#CCDEFB" d="M429.828,132.946c0.205,0.454,0.175,0.851-0.068,0.887c-0.242,0.037-0.605-0.301-0.812-0.754
			c-0.205-0.453-0.175-0.85,0.068-0.887C429.259,132.156,429.622,132.494,429.828,132.946z"/>
		<path fill="#8C8B96" d="M429.918,135.467c0,0-0.449,0.271-0.754,0.866c0.813,0.413,1.727,0.5,1.727,0.5s-0.003-0.605,0.521-0.911
			C430.792,135.829,429.918,135.467,429.918,135.467z"/>
		<g>
			<path fill="#B4B3BA" d="M432.756,136.125c-0.977-0.042-2.028-0.232-2.878-0.553c-0.672-0.253-1.1-0.574-1.271-0.953
				c-0.135-0.298-0.052-0.523-0.048-0.533l0.21,0.08l-0.105-0.04l0.106,0.039c-0.01,0.027-0.217,0.667,1.188,1.196
				c1.525,0.575,3.714,0.722,4.878,0.328l0.071,0.213C434.356,136.09,433.583,136.161,432.756,136.125z"/>
		</g>
		<circle fill="#B4B3BA" cx="434.698" cy="135.834" r="0.263"/>
	</g>
	<g>
		<path fill="#CCDEFB" d="M429.038,147.936c0.075-0.079-0.363-0.037-0.654-0.405c-0.12-0.152-0.132-0.142-0.332-0.076
			c-0.357,0.114-0.575-0.132-0.573-0.03c0.009,0.323-0.049,0.444-0.086,0.569c-0.362,1.223-0.074,1.128,0.504,1.808
			c0.838-0.247,0.993-0.03,1-1.226C428.897,148.436,428.916,148.063,429.038,147.936z"/>
		<path fill="#B5CFE2" d="M428.447,148.677c-0.002,0.307-0.171,0.529-0.378,0.494c-0.206-0.035-0.372-0.311-0.369-0.619
			c0.002-0.307,0.171-0.528,0.378-0.494C428.284,148.093,428.45,148.37,428.447,148.677z"/>
	</g>
	<g>
		<path fill="#6F7ABD" d="M431.676,149.314l-0.201,0.795l1.33,0.964l2.123-0.25l0.143-0.731
			C433.295,149.989,431.676,149.314,431.676,149.314z"/>
		<path fill="#CCDEFB" d="M431.845,148.681l-0.11,0.371c0,0,1.127,0.534,3.43,0.788l0.075-0.381
			C433.487,149.26,431.845,148.681,431.845,148.681z"/>
	</g>
	<polygon fill="#5F6BB5" points="431.688,145.11 431.437,144.981 430.449,144.883 430.058,143.736 429.504,144.579 429.684,146.105 
		431.866,146.688 	"/>
	<path fill="#7A84C2" d="M434.849,142.305l-0.082,0.734c0,0-0.797,1.936-3.33,1.942c-0.045,0.368,0.029,1.406,0.429,1.706
		c1.603-0.604,3.606-1.702,3.964-2.713c0.043-0.12-0.366-1.499-0.366-1.499l-0.568-0.455L434.849,142.305z"/>
	<path fill="#7A84C2" d="M430.521,142.849c0,0-0.019,0.795,0.047,1.023s0.261,0.854,0.869,1.109
		c-0.479,0.643-1.387,1.035-1.751,1.055c0.173-0.907,0.174-1.743,0.204-2.439C429.921,142.902,430.677,142.324,430.521,142.849z"/>
	<path fill="#1B292C" d="M430.642,142.281l0.109,0.287l-0.9,0.477l-1.72,0.102c0,0,0.411-0.569,0.732-0.713
		C429.184,142.289,430.642,142.281,430.642,142.281z"/>
	<ellipse fill="#CCDEFB" cx="436.369" cy="143.929" rx="0.178" ry="0.108"/>
	
		<ellipse transform="matrix(0.9748 -0.2231 0.2231 0.9748 -20.9651 99.6061)" fill="#CCDEFB" cx="430.267" cy="142.572" rx="0.125" ry="0.054"/>
</g>
</svg>
