<?xml version="1.0" encoding="utf-8"?>
<!-- Generator: Adobe Illustrator 16.0.0, SVG Export Plug-In . SVG Version: 6.00 Build 0)  -->
<!DOCTYPE svg PUBLIC "-//W3C//DTD SVG 1.1//EN" "http://www.w3.org/Graphics/SVG/1.1/DTD/svg11.dtd">
<svg version="1.1" id="Layer_1" xmlns="http://www.w3.org/2000/svg" xmlns:xlink="http://www.w3.org/1999/xlink" x="0px" y="0px"
	 width="463.683px" height="425.749px" viewBox="0 0 463.683 425.749" enable-background="new 0 0 463.683 425.749"
	 xml:space="preserve">
<g>
	<path fill="#D7E4F2" d="M170.25,157.99c3.746,2.163,9.838,2.152,13.608-0.024c3.77-2.176,3.788-5.693,0.042-7.856
		c-3.746-2.163-9.838-2.152-13.608,0.025C166.523,152.311,166.504,155.828,170.25,157.99z"/>
	<path id="XMLID_80_" fill="#FEBFBF" d="M192.165,113.287c0,0,0.109,0.375,0.04,0.735c-0.067,0.357-0.921,1.498-1.616,1.775
		c-0.045,0.019-1.558,0.388-1.606,0.395c-0.691,0.076-1.64-1.092-1.64-1.092s1.269-1.229,1.367-1.468
		c0.034-0.083-0.028-0.189-0.039-0.272c-0.016-0.108-0.047-0.208-0.097-0.306c-0.086-0.169-0.29-0.345-0.253-0.533
		c0.009-0.048,0.034-0.098,0.081-0.148c0.149-0.159,0.376-0.077,0.538,0.02c0.183,0.106,0.241,0.292,0.341,0.472
		c0.076,0.138,0.162,0.283,0.3,0.359c0.066,0.036,0.178,0.033,0.254,0.042c0.086,0.01,0.174,0.011,0.262,0.005
		c0.18-0.017,1.176-0.272,1.295-0.417c0.204-0.251,0.416-0.396,0.416-0.396s0.394,0.088,0.39,0.199
		C192.195,112.767,192.165,113.287,192.165,113.287z"/>
	<g>
		<path fill="#D692A6" d="M167.793,123.769l-1.436-9.711c-0.138-0.974-0.104-1.943,0.096-2.891l1.814-8.583l2.984,0.631
			l-1.813,8.583c-0.127,0.6-0.147,1.214-0.062,1.824l1.435,9.701L167.793,123.769z"/>
	</g>
	
		<ellipse transform="matrix(-0.9958 0.091 -0.091 -0.9958 351.4828 190.0174)" fill="#D692A6" cx="171.408" cy="103.025" rx="3.245" ry="2.511"/>
	<path fill="#504F60" d="M178.647,153.599l2.397,0.776c0,0,2.488,0.426,2.95,0.731c0.461,0.306,0.578,0.825,0.206,1.266
		s-2.118,1.01-4.386,1.093c-2.269,0.083-3.32,0.634-4.115,0.225c-0.795-0.409-0.512-1.977-0.512-1.977s-0.199-0.443,0.334-1.068
		C176.053,154.02,178.647,153.599,178.647,153.599z"/>
	<path fill="#504F60" d="M169.458,151.895c0.06,0.686,0,0.688,0,0.688s-0.032,0.656,0.469,0.875c0.5,0.219,1.501,0.438,2.127-0.156
		c0.626-0.594,0.688-1.001,1.658-1.658c0.97-0.657,0.532-2.315,0.375-2.722c-0.156-0.407-2.408,0.125-2.596,0.281
		S169.353,150.696,169.458,151.895z"/>
	<path fill="#975F5F" d="M181.225,139.091l-0.035,0.199l-2.076,15.627l-3.422-0.399l-0.66-0.079l1.625-15.401l-0.078-0.721
		l-0.139-1.381c0,0-0.009-0.009-0.009-0.018l-1.32-12.691l1.85-0.165l3.083-0.278l0.035,0.469l1.121,14.567l0.018,0.156
		L181.225,139.091z"/>
	<path fill="#975F5F" d="M179.114,154.917c0,0-0.599,0.8-2.527,0.8c-0.452,0-0.773-0.069-1.008-0.174
		c-0.765-0.356-0.547-1.104-0.547-1.104l0.712-0.33l1.32-0.616L179.114,154.917z"/>
	<polygon fill="#975F5F" points="174.953,134.965 174.927,135.199 173.138,151.434 171.739,151.295 168.907,151.018 170.28,135.025 
		170.21,134.469 168.812,124.28 168.56,122.421 173.485,121.805 173.737,124.08 174.519,131.09 174.545,131.351 174.918,134.687 	
		"/>
	<path fill="#975F5F" d="M181.216,138.978c-0.009,0.061-0.018,0.122-0.026,0.183c-0.121,0.678-1.077,0.973-2.067,0.938
		c-0.816-0.035-1.65-0.295-2.05-0.755c-0.156-0.183-0.321-0.547-0.495-1.025c-0.539-1.52-1.095-4.204-1.477-5.785
		c-0.018-0.069-0.035-0.122-0.044-0.174c-0.026-0.096-0.043-0.182-0.069-0.269c-0.009-0.009-0.009-0.017-0.009-0.017
		c-0.13-0.53-0.243-0.852-0.304-0.826c-0.035,0.009-0.078,0.043-0.13,0.104c-0.156,0.174-0.391,0.548-0.678,1.017
		c-1.051,1.772-2.753,4.795-3.5,2.598c-0.018-0.061-0.043-0.122-0.061-0.183c0,0,0,0,0-0.009c-0.035-0.096-0.07-0.2-0.096-0.304
		c-1.355-4.291-1.781-10.163-1.781-10.163s0.139-0.009,0.382-0.026c0.808-0.044,2.779-0.156,4.925-0.2
		c1.068-0.026,2.189-0.035,3.223-0.017c1.216,0.017,2.319,0.069,3.118,0.191c0.782,0.113,1.277,0.287,1.286,0.539
		C181.442,126.096,181.633,136.12,181.216,138.978z"/>
	<path fill="#975F5F" d="M173.138,151.434c0,0-0.382,0.512-1.52,0.721c-0.287,0.043-0.617,0.078-1.008,0.078
		c-1.928,0-1.703-1.216-1.703-1.216l2.172-1.008l0.764,0.529L173.138,151.434z"/>
	<path fill="#CCD1DC" d="M174.953,134.965l-0.026,0.234l-1.79,16.235c0,0-0.382,0.512-1.52,0.721
		c0.043-0.261,0.078-0.547,0.122-0.86c0.035-0.235,0.069-0.496,0.104-0.756c0.739-5.264,2.163-14.628,2.259-15.253
		c0.069-0.435-0.07-1.737-0.235-2.919c-0.156-1.173-0.33-2.232-0.33-2.232l0.982,0.956l0.156,0.156
		c-0.035,0.009-0.078,0.043-0.13,0.104l0.374,3.336L174.953,134.965z"/>
	<path fill="#CCD1DC" d="M179.783,139.82c0,0-0.295,0.139-0.66,0.278c-0.443,0.166-0.99,0.321-1.259,0.208
		c-0.486-0.2-0.486-0.2-0.486-0.2s-1.112,9.321-1.633,14.002c-0.018,0.139-0.035,0.278-0.052,0.409
		c-0.043,0.382-0.078,0.729-0.113,1.025c-0.765-0.356-0.547-1.104-0.547-1.104l1.625-15.401l-0.078-0.721
		c-0.539-1.52-1.095-4.204-1.477-5.785c0.234,0.86,0.773,2.771,1.329,4.387c0,0.009,0.009,0.018,0.009,0.018
		c0.452,1.303,0.921,2.397,1.269,2.588C178.619,140.046,179.783,139.82,179.783,139.82z"/>
	<path fill="#C98398" d="M182.992,116.896c-0.206,2.834-0.375,6.117-0.305,9.801c-0.109,0.333-0.287,0.625-0.519,0.877
		c-0.16,0.174-0.345,0.329-0.555,0.467c-2.358,1.592-7.682,1.208-11.471-0.678c-1.823-0.909-2.247-1.89-2.247-1.89
		s1.261-9.963,0.65-16.83c0,0-0.632-6.544,1.524-7.685c1.814-0.96,3.778-0.444,7.289,1.229c3.466,1.654,5.109,2.934,5.498,3.339
		c0.426,0.442,0.615,1.284,0.666,2.476C183.61,110.08,183.268,113.083,182.992,116.896z"/>
	<path fill="#CCD1DC" d="M182.687,126.697c-0.109,0.333-0.287,0.625-0.519,0.877c-0.16,0.174-0.345,0.329-0.555,0.467
		c0.46-9.593-1.391-17.827-1.438-18.021l2.816,6.876C182.787,119.731,182.618,123.014,182.687,126.697z"/>
	
		<ellipse transform="matrix(-0.9888 0.1494 -0.1494 -0.9888 377.0487 186.7878)" fill="#D692A6" cx="181.51" cy="107.552" rx="2.29" ry="2.57"/>
	<path fill="#FEBFBF" d="M178.443,102.095l0.499-1.021c0,0,1.044,0.227,1.427,0.21c0.382-0.017,1.262-1.446,1.674-3.27
		c0.413-1.824,0.098-2.852,0.262-3.384c0.163-0.533,0.317-2.35-0.242-2.836s-8.361,0.26-8.252,2.047s1.567,4.15,1.29,4.967
		c-0.277,0.818-1.004,1.697-1.004,1.697S175.474,102.225,178.443,102.095z"/>
	<path fill="#754554" d="M182.557,93.965c0,0-1.184,1.047-1.227,1.533c-0.043,0.486,0.156,1.38-0.914,0.303
		c-1.07-1.076-0.857,2.97-2.099,3.405c-1.242,0.435-2.935-0.268-3.182-0.539s-2.175-2.103-1.879-5.507
		c0.149-1.717,2.721-3.295,4.404-3.584s4.771,0.936,4.987,2.463C182.864,93.568,182.557,93.965,182.557,93.965z"/>
	
		<linearGradient id="SVGID_1_" gradientUnits="userSpaceOnUse" x1="-124.6714" y1="313.5781" x2="-124.6714" y2="316.0072" gradientTransform="matrix(0.9944 -0.106 0.106 0.9944 271.0431 -229.3433)">
		<stop  offset="0" style="stop-color:#FFDEDE"/>
		<stop  offset="0.8776" style="stop-color:#FEB9B8"/>
	</linearGradient>
	<path fill="url(#SVGID_1_)" d="M180.679,95.784c0,0-0.845-0.26-0.833,1.081s0.371,1.459,0.658,1.451
		c0.288-0.008,0.275-0.325,0.275-0.325s-0.181-0.601-0.01-1.017C180.942,96.56,181.173,95.958,180.679,95.784z"/>
	<path fill="#D692A6" d="M184.875,119.43c-0.103,0.599-0.755,0.112-0.86,0.479c-0.219,0.791-0.49,1.11-1.034,1.21
		c-0.167,0.031-0.348-0.096-0.537-0.352c-0.424-0.576-0.327-0.847-0.78-2.363c-1.119-3.732-2.15-8.781-2.409-10.511
		c-0.411-2.742,4.289-1.531,4.289-1.531s1.035,6.904,1.309,10.858C184.923,118.245,184.941,119.041,184.875,119.43z"/>
	<path fill="#D692A6" d="M189.627,116.476c0,0-3.219,3.415-5.615,4.419c-0.871,0.365-1.511,0.34-1.643-0.407
		c0-0.002-0.002-0.007-0.001-0.009c-0.318-1.876,0.29-2.678,0.817-3.06c0.194-0.143,0.376-0.228,0.498-0.288
		c0.148-0.073,0.645-0.369,1.288-0.758c1.341-0.817,2.393-1.498,3.083-2.038c0.25-0.196,1.21,0.601,1.21,0.601
		C189.699,115.484,189.627,116.476,189.627,116.476z"/>
	<path fill="#D692A6" d="M172.89,100.554c0,0,0.365-0.267,1.193-0.455c0.477-0.108,3.858,1.6,3.858,1.6s2.237,1.224,2.448,1.52
		c0.211,0.295,0.372,0.793,0.372,0.793s-1.78-1.112-5.232-1.91C173.42,101.614,172.328,101.189,172.89,100.554z"/>
	<path fill="#975F5F" d="M171.409,127.945c0,0,0.669-4.96,0.669-6.888s0,7.124,0,7.124L171.409,127.945z"/>
</g>
</svg>
