<?xml version="1.0" encoding="utf-8"?>
<!-- Generator: Adobe Illustrator 16.0.0, SVG Export Plug-In . SVG Version: 6.00 Build 0)  -->
<!DOCTYPE svg PUBLIC "-//W3C//DTD SVG 1.1//EN" "http://www.w3.org/Graphics/SVG/1.1/DTD/svg11.dtd">
<svg version="1.1" id="Layer_1" xmlns="http://www.w3.org/2000/svg" xmlns:xlink="http://www.w3.org/1999/xlink" x="0px" y="0px"
	 width="463.683px" height="425.749px" viewBox="0 0 463.683 425.749" enable-background="new 0 0 463.683 425.749"
	 xml:space="preserve">
<g>
	<g>
		<path fill="#D7E4F2" d="M404.13,180.896l11.192,6.462c0.695,0.401,1.411,0.462,1.878,0.159l6.139-3.96
			c0.276-0.18,0.107-0.702-0.305-0.94l-12.316-7.11l-6.893,4.45C403.548,180.136,403.718,180.658,404.13,180.896z"/>
		<g>
			<g>
				<path fill="#25242F" d="M415.616,185.038c0-0.533,0.377-1.184,0.842-1.452c0.233-0.135,0.445-0.147,0.598-0.059l0,0l0.765,0.488
					l-1.24,2.021l-0.717-0.458l0,0C415.71,185.492,415.616,185.305,415.616,185.038z"/>
				<path fill="#393842" d="M416.358,185.512c0,0.534,0.377,0.748,0.841,0.48c0.465-0.269,0.842-0.918,0.842-1.452
					c0-0.534-0.377-0.749-0.842-0.48C416.735,184.329,416.358,184.979,416.358,185.512z"/>
			</g>
			<path fill="#CDC6BC" d="M416.595,185.375c0,0.382,0.271,0.537,0.604,0.344c0.334-0.192,0.604-0.658,0.604-1.041
				c0-0.382-0.27-0.536-0.604-0.344C416.866,184.526,416.595,184.992,416.595,185.375z"/>
		</g>
		<g>
			<g>
				<path fill="#25242F" d="M406.531,179.761c0-0.534,0.377-1.184,0.842-1.452c0.234-0.135,0.445-0.147,0.598-0.058l0.001,0
					l0.764,0.488l-1.239,2.021l-0.718-0.458v0C406.625,180.215,406.531,180.027,406.531,179.761z"/>
				<path fill="#393842" d="M407.273,180.234c0,0.534,0.377,0.749,0.842,0.48c0.465-0.269,0.842-0.918,0.842-1.452
					c0-0.533-0.377-0.748-0.842-0.479C407.65,179.051,407.273,179.701,407.273,180.234z"/>
			</g>
			<path fill="#CDC6BC" d="M407.511,180.098c0,0.382,0.27,0.536,0.604,0.344c0.333-0.192,0.604-0.658,0.604-1.041
				s-0.271-0.537-0.604-0.344C407.781,179.249,407.511,179.715,407.511,180.098z"/>
		</g>
		<g>
			<g>
				<path fill="#25242F" d="M420.932,181.821c0-0.533,0.377-1.184,0.842-1.452c0.234-0.135,0.445-0.147,0.598-0.058l0.001,0
					l0.764,0.489l-1.239,2.021l-0.718-0.458l0,0C421.027,182.275,420.932,182.088,420.932,181.821z"/>
				<path fill="#393842" d="M421.674,182.295c0,0.533,0.377,0.748,0.842,0.479c0.465-0.268,0.841-0.918,0.841-1.452
					s-0.376-0.748-0.841-0.479S421.674,181.762,421.674,182.295z"/>
			</g>
			<path fill="#CDC6BC" d="M421.913,182.157c0,0.383,0.271,0.537,0.604,0.345s0.604-0.659,0.604-1.041s-0.271-0.537-0.604-0.344
				C422.183,181.31,421.913,181.775,421.913,182.157z"/>
		</g>
		<g>
			<g>
				<path fill="#423746" d="M422.708,178.948c0,0-0.146,0.226-0.281,0.149c-0.712-0.399-3.689,0.857-4.402,0.487
					c-0.113,0.077-0.227,0.154-0.34,0.231c0.024,0.074,0.036,0.111,0.061,0.185c0.447,0.258,0.894,0.517,1.341,0.774
					c0.249,0.322,0.497,0.644,0.745,0.966c0.226,0.13,2.065-0.966,2.291-0.835c0.077-0.228,0.799-0.836,0.876-1.064
					C422.902,179.544,422.805,179.246,422.708,178.948z"/>
				
					<linearGradient id="SVGID_1_" gradientUnits="userSpaceOnUse" x1="4689.9429" y1="727.666" x2="4703.0073" y2="705.0379" gradientTransform="matrix(-0.944 -0.073 0.3212 0.9053 4619.4136 -138.2153)">
					<stop  offset="0" style="stop-color:#D73E41"/>
					<stop  offset="0.0102" style="stop-color:#D53C40"/>
					<stop  offset="0.0155" style="stop-color:#CD353B"/>
					<stop  offset="0.0191" style="stop-color:#C22C34"/>
					<stop  offset="0.5361" style="stop-color:#C22C34"/>
					<stop  offset="0.5477" style="stop-color:#D43D40"/>
					<stop  offset="0.5635" style="stop-color:#E74E4C"/>
					<stop  offset="0.5801" style="stop-color:#F15854"/>
					<stop  offset="0.5987" style="stop-color:#F55B56"/>
					<stop  offset="0.6171" style="stop-color:#F75E58"/>
					<stop  offset="0.6324" style="stop-color:#FC695F"/>
					<stop  offset="0.6377" style="stop-color:#FF6E63"/>
					<stop  offset="0.9832" style="stop-color:#FF6E63"/>
					<stop  offset="0.9837" style="stop-color:#FF6D62"/>
					<stop  offset="0.988" style="stop-color:#FF665E"/>
					<stop  offset="1" style="stop-color:#FF645D"/>
				</linearGradient>
				<path fill="url(#SVGID_1_)" d="M416.096,161.161c-2.731-1.577-5.462-3.153-8.192-4.73c-0.783-0.452-1.266-0.181-0.988,0.63
					c1.486,4.588,4.068,8.503,5.556,13.091c0.018,0.054,0.076,0.125,0.131,0.156c3.643,2.103,6.707,7.467,10.35,9.57
					c0.055,0.031,0.026-0.835,0.009-0.89c-1.487-4.588-3.433-10.917-4.92-15.505C417.786,162.696,416.885,161.603,416.096,161.161z"
					/>
				
					<linearGradient id="SVGID_2_" gradientUnits="userSpaceOnUse" x1="4692.6577" y1="730.2207" x2="4706.4756" y2="706.2875" gradientTransform="matrix(-0.944 -0.073 0.3212 0.9053 4619.4136 -138.2153)">
					<stop  offset="0" style="stop-color:#EA5257"/>
					<stop  offset="0.0097" style="stop-color:#EC5459"/>
					<stop  offset="0.0148" style="stop-color:#F35C60"/>
					<stop  offset="0.0188" style="stop-color:#FE6A6D"/>
					<stop  offset="0.0191" style="stop-color:#FF6B6E"/>
					<stop  offset="0.5361" style="stop-color:#FF6B69"/>
					<stop  offset="0.5597" style="stop-color:#FF706F"/>
					<stop  offset="0.5987" style="stop-color:#FF7273"/>
					<stop  offset="0.6164" style="stop-color:#FF7575"/>
					<stop  offset="0.631" style="stop-color:#FF8079"/>
					<stop  offset="0.6377" style="stop-color:#FF877D"/>
					<stop  offset="0.9832" style="stop-color:#FF877D"/>
					<stop  offset="0.9837" style="stop-color:#FF867C"/>
					<stop  offset="0.988" style="stop-color:#FF7F77"/>
					<stop  offset="1" style="stop-color:#FF7D76"/>
				</linearGradient>
				<path fill="url(#SVGID_2_)" d="M400.974,159.457l5.127-3.468c0.004-0.002,0.008-0.005,0.012-0.007l0.005-0.003l0.001,0.001
					c0.224-0.134,0.604-0.079,1.089,0.201c2.771,1.6,5.542,3.199,8.313,4.799c0.984,0.568,2.082,1.879,2.403,2.871
					c1.528,4.715,3.515,11.171,5.043,15.887c0.021,0.065,0.014,0.109-0.011,0.133l0.003,0.004l-0.008,0.005
					c-0.001,0.001-0.002,0.002-0.003,0.002l-4.94,4.012l-6.882-9.585c-0.2-0.115-0.399-0.23-0.6-0.346
					c-0.146-0.084-0.305-0.274-0.353-0.421c-0.101-0.309-0.659-2.358-0.76-2.667L400.974,159.457z"/>
				<g>
					<path fill="#423746" d="M413.225,177.019c0.156,0.482,0.079,1.193-0.4,0.917c-0.479-0.277-1.206-1.452-1.362-1.935
						c-0.156-0.482,0.114-0.655,0.594-0.378C412.536,175.899,413.069,176.536,413.225,177.019z"/>
					<path fill="#423746" d="M412.958,176.864c0.107,0.33,0.094,0.974-0.221,0.803c-0.335-0.182-0.909-1.205-1.01-1.513
						c-0.1-0.308,0.07-0.475,0.415-0.264C412.466,176.088,412.852,176.536,412.958,176.864z"/>
				</g>
				<path fill="#750000" d="M409.46,171.016c0,0,0.852,2.275,0.989,2.357c0.722,0.428,1.491,0.937,2.237,1.409
					c0.227,0.274,0.453,0.547,0.681,0.82c0.023,0.074,0.035,0.111,0.06,0.185c-0.447-0.258-0.895-0.516-1.342-0.774
					c-0.105,0.117-0.212,0.234-0.318,0.351c-0.226-0.13-0.451-0.26-0.676-0.39c-0.294-0.442-0.589-0.884-0.883-1.326
					C410.113,173.351,409.557,171.313,409.46,171.016z"/>
			</g>
			<g>
				
					<linearGradient id="SVGID_3_" gradientUnits="userSpaceOnUse" x1="4698.5864" y1="733.6426" x2="4712.2344" y2="710.004" gradientTransform="matrix(-0.944 -0.073 0.3212 0.9053 4619.4136 -138.2153)">
					<stop  offset="0" style="stop-color:#F75F65"/>
					<stop  offset="0.0104" style="stop-color:#F86167"/>
					<stop  offset="0.016" style="stop-color:#FB696C"/>
					<stop  offset="0.0191" style="stop-color:#FF7273"/>
					<stop  offset="0.5361" style="stop-color:#FF7273"/>
					<stop  offset="0.5614" style="stop-color:#FF7978"/>
					<stop  offset="0.5987" style="stop-color:#FF7D7A"/>
					<stop  offset="0.6167" style="stop-color:#FF807C"/>
					<stop  offset="0.6317" style="stop-color:#FF8B83"/>
					<stop  offset="0.6377" style="stop-color:#FF9187"/>
					<stop  offset="0.9832" style="stop-color:#FF9187"/>
					<stop  offset="0.9837" style="stop-color:#FF9086"/>
					<stop  offset="0.988" style="stop-color:#FF8982"/>
					<stop  offset="1" style="stop-color:#FF8781"/>
				</linearGradient>
				<path fill="url(#SVGID_3_)" d="M410.386,164.453c-2.771-1.6-5.542-3.2-8.313-4.8c-0.984-0.569-1.542-0.212-1.221,0.779
					c1.528,4.715,3.709,11.709,5.237,16.425c0.048,0.147,0.207,0.337,0.353,0.421c3.802,2.195,7.604,4.39,11.406,6.584
					c0.146,0.085,0.227,0.033,0.179-0.114c-1.528-4.715-3.709-11.709-5.237-16.425C412.468,166.332,411.371,165.021,410.386,164.453
					z"/>
				<path fill="#D33D48" d="M410.193,164.876c-2.731-1.577-5.462-3.153-8.193-4.73c-0.782-0.451-1.265-0.181-0.987,0.63
					c1.486,4.589,3.626,11.455,5.113,16.043c0.018,0.054,0.076,0.125,0.131,0.156c3.643,2.104,7.285,4.206,10.928,6.31
					c0.055,0.031,0.084,0.012,0.066-0.043c-1.486-4.588-3.626-11.454-5.113-16.043C411.882,166.412,410.982,165.318,410.193,164.876
					z"/>
				<polygon fill="#423746" points="414.638,181.633 409.351,178.581 409.493,179.016 414.78,182.068 				"/>
				<path fill="#342838" d="M405.834,176.07c0,0,0.393,0.536,0.53,0.618c0.722,0.427,1.491,0.937,2.237,1.409
					c0.227,0.273,0.454,0.547,0.681,0.82c0.023,0.073,0.036,0.11,0.06,0.185l-0.12,0.114c0,0-0.943-0.729-1.221-0.889
					c-0.106,0.117-0.213,0.234-0.319,0.352c-0.226-0.13-0.45-0.26-0.676-0.391c-0.294-0.441-1.292-2.104-1.292-2.104
					S405.746,176.096,405.834,176.07z"/>
				<path fill="#423746" d="M405.714,176.185c0,0,0.393,0.536,0.53,0.618c0.722,0.428,1.491,0.937,2.237,1.41
					c0.227,0.273,0.453,0.547,0.68,0.82c0.024,0.074,0.036,0.111,0.061,0.185c-0.447-0.258-0.895-0.517-1.342-0.774
					c-0.105,0.117-0.212,0.234-0.318,0.352c-0.226-0.13-0.451-0.261-0.676-0.391c-0.294-0.442-0.589-0.884-0.883-1.326
					C405.907,176.78,405.811,176.482,405.714,176.185z"/>
				<path fill="#342838" d="M417.768,182.96c0,0-0.146,0.225-0.282,0.149c-0.711-0.4-1.43-0.75-2.143-1.12
					c-0.113,0.077-0.227,0.154-0.34,0.231c0.024,0.074,0.036,0.111,0.061,0.185c0.446,0.259,0.894,0.517,1.341,0.775
					c0.248,0.322,1.284,1.471,1.284,1.471l0.138-0.115c0,0,0.154-0.455,0.231-0.683C417.961,183.556,417.865,183.258,417.768,182.96
					z"/>
				<path fill="#423746" d="M417.63,183.075c0,0-0.146,0.225-0.281,0.148c-0.712-0.399-1.431-0.75-2.144-1.119
					c-0.113,0.077-0.227,0.154-0.34,0.231c0.024,0.074,0.036,0.11,0.061,0.185c0.446,0.258,0.894,0.517,1.341,0.774
					c0.249,0.322,0.497,0.644,0.746,0.966c0.225,0.13,0.45,0.26,0.676,0.39c0.077-0.228,0.154-0.456,0.231-0.683
					C417.824,183.67,417.727,183.373,417.63,183.075z"/>
				<path fill="#E44E5A" d="M408.182,177.607c-0.159-0.091-0.238-0.137-0.396-0.229c-0.178-0.103-0.368-0.33-0.427-0.509
					c-1.482-4.577-3.618-11.431-5.102-16.007c-0.058-0.179,0.039-0.241,0.217-0.138c0.158,0.092,0.238,0.137,0.396,0.229
					c0.178,0.102,0.368,0.331,0.426,0.509c1.483,4.576,3.619,11.431,5.102,16.007C408.457,177.647,408.36,177.709,408.182,177.607z"
					/>
				<path fill="#E44E5A" d="M415.966,182.101c-0.159-0.091-0.238-0.137-0.396-0.229c-0.178-0.103-0.368-0.33-0.427-0.509
					c-1.482-4.577-3.618-11.431-5.102-16.007c-0.058-0.179,0.039-0.241,0.217-0.138c0.158,0.092,0.237,0.138,0.396,0.229
					c0.177,0.103,0.368,0.331,0.426,0.51c1.483,4.576,3.619,11.431,5.103,16.007C416.241,182.142,416.144,182.204,415.966,182.101z"
					/>
				<path fill="#CE3844" d="M407.957,177.783c-0.158-0.092-0.237-0.137-0.396-0.229c-0.178-0.103-0.368-0.331-0.426-0.51
					c-1.483-4.576-3.619-11.431-5.103-16.007c-0.058-0.179,0.039-0.241,0.217-0.139c0.159,0.092,0.238,0.138,0.396,0.229
					c0.178,0.103,0.368,0.331,0.427,0.509c1.482,4.576,3.618,11.431,5.102,16.007C408.231,177.824,408.134,177.886,407.957,177.783z
					"/>
				<path fill="#CE3844" d="M415.741,182.277c-0.158-0.092-0.237-0.137-0.396-0.229c-0.178-0.103-0.368-0.331-0.426-0.51
					c-1.483-4.576-3.619-11.431-5.103-16.007c-0.058-0.179,0.039-0.241,0.217-0.138c0.158,0.091,0.238,0.137,0.396,0.229
					c0.178,0.103,0.368,0.33,0.427,0.509c1.482,4.576,3.618,11.431,5.102,16.007C416.015,182.318,415.918,182.38,415.741,182.277z"
					/>
				<polygon fill="#E44E5A" points="414.666,181.715 414.502,181.762 408.24,163.73 409.193,163.708 409.087,164.238 				"/>
				<polygon fill="#CE3844" points="414.502,181.762 409.215,178.709 403.591,161.091 408.878,164.143 				"/>
				<polygon fill="#FF7B77" points="409.193,163.708 403.906,160.655 403.591,161.091 408.878,164.143 				"/>
				<path fill="#E44E5A" d="M410.438,179.117L410.438,179.117c-0.191-0.111-0.406-0.383-0.479-0.607l-5.048-15.841
					c-0.072-0.224,0.024-0.317,0.216-0.206l0,0c0.192,0.11,0.406,0.383,0.479,0.607l5.048,15.841
					C410.727,179.136,410.63,179.228,410.438,179.117z"/>
				<path fill="#E44E5A" d="M411.765,179.883c-0.021-0.012-0.031-0.018-0.052-0.03c-0.178-0.103-0.368-0.331-0.427-0.509
					c-1.482-4.577-3.618-11.431-5.102-16.007c-0.058-0.179,0.039-0.24,0.217-0.138c0.021,0.012,0.031,0.018,0.053,0.03
					c0.177,0.103,0.368,0.331,0.426,0.509c1.483,4.576,3.619,11.431,5.102,16.007C412.041,179.924,411.943,179.986,411.765,179.883z
					"/>
				<path fill="#E44E5A" d="M413.067,180.635c-0.021-0.012-0.031-0.018-0.052-0.03c-0.178-0.103-0.368-0.331-0.427-0.509
					c-1.482-4.576-3.618-11.431-5.102-16.007c-0.058-0.179,0.039-0.241,0.217-0.138c0.021,0.012,0.031,0.018,0.052,0.03
					c0.178,0.103,0.368,0.331,0.427,0.509c1.482,4.576,3.618,11.431,5.102,16.007C413.341,180.676,413.245,180.737,413.067,180.635z
					"/>
				<path fill="#CE3844" d="M410.212,179.293L410.212,179.293c-0.191-0.111-0.406-0.383-0.479-0.607l-5.049-15.841
					c-0.072-0.225,0.024-0.317,0.216-0.206l0,0c0.192,0.111,0.407,0.383,0.479,0.607l5.048,15.841
					C410.501,179.312,410.405,179.404,410.212,179.293z"/>
				<path fill="#CE3844" d="M411.541,180.06c-0.021-0.012-0.031-0.018-0.053-0.03c-0.177-0.102-0.368-0.33-0.426-0.509
					c-1.483-4.576-3.619-11.431-5.102-16.007c-0.059-0.179,0.039-0.241,0.216-0.139c0.021,0.012,0.031,0.018,0.053,0.03
					c0.177,0.103,0.368,0.331,0.426,0.509c1.483,4.576,3.619,11.431,5.103,16.007C411.815,180.101,411.718,180.162,411.541,180.06z"
					/>
				<path fill="#CE3844" d="M412.841,180.811c-0.021-0.012-0.031-0.018-0.052-0.03c-0.178-0.103-0.368-0.331-0.427-0.51
					c-1.482-4.576-3.618-11.431-5.102-16.007c-0.058-0.179,0.039-0.241,0.217-0.138c0.021,0.012,0.031,0.018,0.052,0.03
					c0.178,0.103,0.369,0.331,0.427,0.51c1.482,4.576,3.619,11.431,5.102,16.007C413.117,180.852,413.019,180.913,412.841,180.811z"
					/>
			</g>
		</g>
		<g>
			<path fill="#C22C34" d="M418.543,180.664l-4.489-14.18c-0.006-0.016-0.646-1.835-2.344-2.797
				c-1.746-0.988-8.249-4.763-8.314-4.801c-0.298-0.159-0.811-0.341-0.944-0.214l-0.179-0.19c0.317-0.3,1.097,0.094,1.25,0.176
				c0.069,0.04,6.571,3.813,8.316,4.801c1.787,1.012,2.436,2.864,2.462,2.942l4.491,14.183L418.543,180.664z"/>
		</g>
		<polygon fill="#A6AABB" points="409.804,163.012 409.044,163.505 403.69,160.413 404.45,159.92 		"/>
		<g>
			<polygon fill="#251A29" points="402.261,154.36 402.789,154.069 402.02,153.617 			"/>
			<g>
				<path fill="#423746" d="M402.548,153.325c-0.225-0.129-0.336-0.193-0.56-0.323c0.08,0.248,0.16,0.496,0.24,0.744
					c0.225,0.129,0.336,0.193,0.56,0.323C402.708,153.821,402.628,153.573,402.548,153.325z"/>
				<path fill="#423746" d="M406.198,155.433c0.224,0.129,0.335,0.194,0.56,0.323c0.08,0.248,0.16,0.495,0.24,0.743
					c-0.224-0.129-0.336-0.194-0.56-0.323C406.358,155.928,406.278,155.68,406.198,155.433z"/>
			</g>
		</g>
		
			<linearGradient id="SVGID_4_" gradientUnits="userSpaceOnUse" x1="4702.1733" y1="707.7988" x2="4703.0464" y2="707.7988" gradientTransform="matrix(-0.944 -0.073 0.3212 0.9053 4619.4136 -138.2153)">
			<stop  offset="0.02" style="stop-color:#251A29"/>
			<stop  offset="0.3088" style="stop-color:#251A29"/>
			<stop  offset="0.3578" style="stop-color:#312536"/>
			<stop  offset="0.4022" style="stop-color:#35293B"/>
			<stop  offset="0.4607" style="stop-color:#392D3E"/>
			<stop  offset="0.5111" style="stop-color:#423746"/>
			<stop  offset="0.9269" style="stop-color:#423746"/>
		</linearGradient>
		<path fill="url(#SVGID_4_)" d="M405.843,155.394c0.327,0.131,0.714,0.889,1.041,1.021c0.459,1.417,1.768,5.132,2.227,6.549v0.001
			c0.001,0.002,0.002,0.005,0.003,0.007h-0.001c0.002,0.012,0,0.023-0.012,0.031l-0.158,0.103c-0.028,0.019-0.091,0.011-0.14-0.018
			l-0.405-0.233c-0.024-0.015-0.04-0.031-0.047-0.047l0,0C407.89,161.388,406.304,156.814,405.843,155.394z"/>
		
			<linearGradient id="SVGID_5_" gradientUnits="userSpaceOnUse" x1="4705.5503" y1="705.5996" x2="4706.4419" y2="705.5996" gradientTransform="matrix(-0.944 -0.073 0.3212 0.9053 4619.4136 -138.2153)">
			<stop  offset="0.02" style="stop-color:#251A29"/>
			<stop  offset="0.3088" style="stop-color:#251A29"/>
			<stop  offset="0.3578" style="stop-color:#312536"/>
			<stop  offset="0.4022" style="stop-color:#35293B"/>
			<stop  offset="0.4607" style="stop-color:#392D3E"/>
			<stop  offset="0.5111" style="stop-color:#423746"/>
			<stop  offset="0.9269" style="stop-color:#423746"/>
		</linearGradient>
		<path fill="url(#SVGID_5_)" d="M401.94,153.178c0.327,0.131,0.534,0.334,0.861,0.465c0.459,1.417,1.934,5.645,2.393,7.062
			l-0.001,0c0.006,0.014,0.003,0.027-0.011,0.036l-0.158,0.103c-0.028,0.018-0.091,0.01-0.139-0.017l-0.405-0.234
			c-0.025-0.015-0.042-0.032-0.047-0.049c0,0-0.001,0-0.002,0C403.973,159.126,402.4,154.595,401.94,153.178z"/>
		<polygon fill="#342838" points="417.63,183.075 417.768,182.96 417.945,182.854 418.305,183.967 417.827,184.536 418.058,183.853 
					"/>
		<polygon fill="#342838" points="422.123,180.906 421.743,180.701 421.868,180.518 421.847,180.261 421.611,179.534 
			422.708,178.948 422.999,179.842 422.458,180.761 		"/>
	</g>
	<g>
		<g>
			<path fill="#FEBFBF" d="M387.478,128.852c-0.259,1.059-0.172,6.957-0.388,7.859c-0.216,0.902,2.373-1.654,2.428-5.84
				c0.034-2.611,2.536-4.524,2.05-4.666C389.49,125.604,387.992,126.749,387.478,128.852z"/>
			<path fill="#FEBFBF" d="M386.658,152.699c0,0,0.206,0.184,0.207,0.367c-0.001,0.004,0,0.008-0.001,0.012
				c-0.004,0.101-0.122,0.166-0.219,0.217c-0.063,0.034-0.117,0.061-0.124,0.088c-0.003,0.009,0,0.016,0.007,0.024
				c0.001,0.001,0.003,0.004,0.002,0.006l0.005,0.015c0.013,0.109-0.292,0.447-0.292,0.447l-0.151-0.053h-0.002l-0.328-0.114
				c0,0-0.13,0.285-0.342,0.253c-0.213-0.033-1.313-1.043-1.403-1.22c-0.091-0.178-0.083-1.68-0.04-2.051
				c0.043-0.372,0.696-1.436,1.146-2.427c0.449-0.992,0.876-5.743,1.057-7.777c0.181-2.035,0.911-3.624,0.912-3.775
				s0.407-0.263,0.407-0.263s1.163,0.001,1.329,0.836s-1.597,9.234-1.597,9.234s-0.092,2.119-0.115,2.435
				c-0.023,0.318-0.609,1.704-0.609,1.704s-0.057,0.85-0.071,0.91c-0.014,0.062,0.415,0.563,0.503,0.893
				c0.053,0.2-0.061,0.246-0.159,0.25C386.715,152.714,386.658,152.699,386.658,152.699z"/>
			
				<linearGradient id="SVGID_6_" gradientUnits="userSpaceOnUse" x1="-195.6895" y1="151.9512" x2="-193.4443" y2="151.9512" gradientTransform="matrix(1 0 0 1 580.3091 0)">
				<stop  offset="0.1224" style="stop-color:#FCA4B5"/>
				<stop  offset="0.9896" style="stop-color:#FFADB7"/>
			</linearGradient>
			<path fill="url(#SVGID_6_)" d="M386.577,153.266l0.068,0.03c-0.063,0.034-0.117,0.061-0.124,0.088l-0.01-0.033l-0.691-0.442
				l-0.439-0.691l-0.136,0.68l0.403,0.456l0.441,0.47l-0.328-0.114c0.025-0.046-0.445-0.377-0.523-0.414
				c-0.08-0.037-0.292-0.209-0.309-0.304c-0.018-0.095-0.244-0.445-0.244-0.445s0.045-0.478,0.02-0.74
				c-0.025-0.263-0.085-0.78-0.085-0.78s0,0,0.069-0.037c0.069-0.039,0.269-0.637,0.26-0.713l0.958-0.194l-0.124,0.829
				c0,0,0.094,0.317,0.152,0.491s0.3,0.731,0.3,0.731l0.203,0.32l0.34,0.259c-0.063,0.004-0.12-0.011-0.12-0.011
				s0.206,0.184,0.207,0.367l-0.359-0.31l-0.478-0.52l-0.245-0.761l-0.245,0.175l0.067,0.545l0.275,0.589l0.265,0.124
				L386.577,153.266z"/>
			
				<linearGradient id="SVGID_7_" gradientUnits="userSpaceOnUse" x1="-194.0684" y1="146.8857" x2="-192.8315" y2="146.8857" gradientTransform="matrix(1 0 0 1 580.3091 0)">
				<stop  offset="0.1224" style="stop-color:#FCA4B5"/>
				<stop  offset="0.9896" style="stop-color:#FFADB7"/>
			</linearGradient>
			<path fill="url(#SVGID_7_)" d="M386.45,151.423c0,0-0.338-0.665-0.154-1.048c0.184-0.382,0.354-1.252,0.354-1.252l0.106-1.991
				c0,0,0.6-3.729,0.664-4.64c0.063-0.911,0.057,2.828,0.057,2.828l-0.362,3.634l-0.609,1.704L386.45,151.423z"/>
			
				<linearGradient id="SVGID_8_" gradientUnits="userSpaceOnUse" x1="-194.4702" y1="148.7852" x2="-195.1214" y2="151.5759" gradientTransform="matrix(1 0 0 1 580.3091 0)">
				<stop  offset="0.1224" style="stop-color:#FEC7C7"/>
				<stop  offset="1" style="stop-color:#FFDEDE"/>
			</linearGradient>
			<path fill="url(#SVGID_8_)" d="M386.498,149.313c0,0-0.026,0.702-0.305,1.022c-0.278,0.32-0.476,0.501-0.505,0.674
				s-0.053,0.689-0.002,1.132c0.051,0.441-0.211,0.939-0.432,0.924c-0.221-0.017-0.267-0.105-0.303-0.592s-0.157-1.28-0.113-1.498
				s-0.18-0.93-0.061-1.157s0.598-1.146,0.976-1.204C386.13,148.557,386.502,148.47,386.498,149.313z"/>
		</g>
		<g>
			<g>
				<path fill="#D7E4F2" d="M383.402,185.026c4.191,2.667,11.182,2.956,15.615,0.646c4.433-2.31,4.629-6.346,0.438-9.012
					s-11.182-2.956-15.614-0.646S379.211,182.359,383.402,185.026z"/>
			</g>
			<g>
				<g>
					<path fill="#6C6B79" d="M385.293,179.287c0,0-0.209,0.106-0.22,0.262c-0.012,0.156-0.017,0.584-0.016,0.686
						c0,0.101,0.266,0.493,0.916,0.644c0.65,0.152,2.232-0.267,2.765-0.578c0.533-0.311,1.26-1.103,1.481-1.163
						c0.221-0.061,0.881,0.062,0.881,0.062l0.596-0.05l0.979-0.348c0,0,0.128-0.657-0.141-0.864
						C392.267,177.73,385.293,179.287,385.293,179.287z"/>
					<path fill="#C2D2EA" d="M388.98,176.618c0,0-0.774,0.491-0.912,0.629c-0.138,0.138-1.537,0.706-2.021,1.002
						c-0.485,0.296-0.851,0.802-0.883,0.968c-0.031,0.166-0.105,0.544-0.049,0.703c0.057,0.159,0.31,0.58,1.146,0.632
						c0.838,0.052,2.542-0.744,2.542-0.744s1.181-0.806,1.354-0.888s1.716-0.472,1.95-0.549c0.233-0.078,0.369-0.111,0.403-0.299
						c0.034-0.188,0.232-1.217,0.108-1.542C392.496,176.205,389.665,175.784,388.98,176.618z"/>
				</g>
				<g>
					<path fill="#6C6B79" d="M390.865,181.899c0,0-0.229,0.004-0.284,0.309c-0.055,0.305-0.047,0.668-0.047,0.668
						s0.285,0.437,1.243,0.558c0.959,0.121,2.132-0.233,2.733-0.574s0.817-0.617,1.181-1.121c0.362-0.503,0.736-0.744,0.736-0.744
						l0.153,0.041c0,0,0.86-0.625,1.001-0.841c0.073-0.182,0.127-1.106-0.005-1.19C397.445,178.921,390.865,181.899,390.865,181.899
						z"/>
					<path fill="#C2D2EA" d="M393.494,178.448l-0.266,0.636c0,0-1.568,1.521-1.992,1.976c-0.425,0.453-0.645,0.851-0.663,1.263
						c-0.019,0.412,1.051,0.678,1.211,0.689s0.87,0.081,1.78-0.258c0.91-0.339,1.286-0.665,2.017-1.46
						c0.73-0.795,1.225-1.232,1.449-1.414c0.224-0.182,0.55-0.471,0.546-0.706c-0.003-0.235,0.033-0.896-0.159-0.977
						C397.224,178.115,394.107,177.862,393.494,178.448z"/>
				</g>
				<path fill="#4F5997" d="M392.385,176.027c0,0-0.21,0.39-0.698,0.604c-0.499,0.221-1.286,0.258-2.436-0.49
					c0,0-0.273-14.333-1.068-18.535l3.426,6.044l1.438,0.052l0.002,0c0,0,0.593,4.609,0.237,7.029
					C392.928,173.155,392.385,176.027,392.385,176.027z"/>
				<path fill="#4F5997" d="M393.112,163.544c-0.017,0.056-0.038,0.108-0.063,0.16l-0.002,0c-0.212,0.449-0.673,0.716-1.203,0.833
					c-1.048,0.233-2.363-0.122-2.592-0.822c-0.015-0.043-0.028-0.095-0.047-0.151c-0.413-1.374-1.293-7.154-1.849-11.45
					c-0.577-4.478,0.539-6.615,0.539-6.615l5.467,0.993c0,0,0.047,2.639,0.065,5.804
					C393.451,156.631,393.389,162.671,393.112,163.544z"/>
				<path fill="#A8B0C2" d="M392.385,176.027c0,0-0.21,0.39-0.698,0.604c0.369-2.397,0.967-6.495,0.866-7.338
					c-0.064-0.567-0.208-3.341-0.362-4.677c-1.048-9.068-0.924-11.881-0.924-11.881l-1.166-1.778l3.327,1.339
					c0.022,4.335-0.039,10.375-0.316,11.249c-0.017,0.056-0.038,0.108-0.063,0.16c0,0,0.593,4.609,0.237,7.029
					C392.928,173.155,392.385,176.027,392.385,176.027z"/>
				<path fill="#4F5997" d="M389.985,148.341l-0.765,0.895c0,0-0.066,1.105,2.377,2.944c0.015,2.592,0.975,10.877,1.779,12.852
					c0.806,1.975,3.296,0.441,3.717-1.853s2.295-9.487,2.455-11.257c0.162-1.77,0.302-3.57-0.925-4.613
					C397.398,146.267,389.985,148.341,389.985,148.341z"/>
				<path fill="#4F5997" d="M393.929,178.124c0.458-1.606,0.104-10.547-0.553-13.093c3.384-1.968,3.816-2.351,3.816-2.351
					s1.234,6.55,1.187,7.849c-0.048,1.3-1.095,7.64-1.095,7.64S395.585,179.791,393.929,178.124z"/>
				<g>
					<path fill="#8C92B0" d="M396.543,179.044l-0.239-0.053c0.011-0.051,1.138-5.169,1.148-7.74
						c0.008-1.971-0.476-4.407-0.828-6.186c-0.164-0.829-0.294-1.483-0.325-1.854c-0.03-0.365,0.224-1.459,0.575-2.974
						c0.78-3.357,1.959-8.432,1.121-10.252l0.224-0.103c0.873,1.896-0.317,7.02-1.104,10.41c-0.334,1.437-0.598,2.571-0.571,2.897
						c0.03,0.356,0.159,1.005,0.321,1.826c0.355,1.789,0.841,4.239,0.834,6.234C397.687,173.85,396.555,178.993,396.543,179.044z"/>
				</g>
			</g>
			<g>
				<path fill="#6A3646" d="M396.102,117.854c0,0,1.224-0.638,1.987,0.027s0.449,3.536-0.328,5.225
					c-0.698,1.516-0.345,4.201,1.372,4.761c-1.204,0.903-3.915-0.1-4.291-1.757S396.102,117.854,396.102,117.854z"/>
				<path fill="#DDE8F6" d="M398.846,147.387c-0.142,0.149-0.518,0.351-1.046,0.546c-1.261,0.464-3.393,0.896-5.331,0.538
					c-2.751-0.509-4.47-1.833-4.757-2.903c0.047-0.463-0.002-5.174-0.089-6.261c-0.089-1.086-0.877-3.069-0.89-3.844
					c-0.013-0.773,0.51-2.386,0.744-3.233c0.447-1.621,1.258-4.096,1.462-4.449c0.325-0.563,0.796-1.298,1.44-1.466
					c0.646-0.17,4.414-0.281,5.156,0.009c0.745,0.291,1.42,0.976,2.281,1.434c2.604,1.385,2.855,2.918,2.855,2.918
					s-0.905,2.326-1.183,4.12c-0.068,0.448-0.122,0.831-0.152,1.091c-0.149,1.295-0.102,8.324-0.102,8.324
					S399.329,146.878,398.846,147.387z"/>
				<path fill="#FEBFBF" d="M395.601,126.206c0.139,0.006,0.496,0.535,1.112,0.839c0.616,0.305,0.635,0.387-0.107,1.067
					c-0.742,0.68-3.381,3.715-5.062,3.358c-1.68-0.357-1.596-1.992-1.53-2.646s1.063-2.143,1.388-2.286
					S395.601,126.206,395.601,126.206z"/>
				
					<linearGradient id="SVGID_9_" gradientUnits="userSpaceOnUse" x1="1093.2407" y1="215.5088" x2="1090.2322" y2="211.4238" gradientTransform="matrix(0.995 0.1 -0.1 0.995 -670.6086 -195.8364)">
					<stop  offset="0.1224" style="stop-color:#FEC7C7"/>
					<stop  offset="0.9694" style="stop-color:#FFADB7"/>
				</linearGradient>
				<path fill="url(#SVGID_9_)" d="M390.974,125.97c0,0,0.295,0.689,0.231,1.316c-0.063,0.627-0.41,1.67-0.41,1.67
					s0.385,0.739,1.917,0.57s1.586-0.703,2.071-0.977c0.485-0.275,1.735-1.534,1.656-1.623c-0.078-0.089-1.349-0.721-0.86-2.542
					c0.487-1.82,1.207-2.763,1.207-2.763s0.426-0.765-0.106-0.818C396.149,120.75,390.974,125.97,390.974,125.97z"/>
				
					<linearGradient id="SVGID_10_" gradientUnits="userSpaceOnUse" x1="1088.4282" y1="214.6074" x2="1091.9048" y2="214.6074" gradientTransform="matrix(0.995 0.1 -0.1 0.995 -670.6086 -195.8364)">
					<stop  offset="0.1224" style="stop-color:#FCA4B5"/>
					<stop  offset="0.9896" style="stop-color:#FFADB7"/>
				</linearGradient>
				<path fill="url(#SVGID_10_)" d="M394.555,125.099c0,0-1.307,1.221-1.583,1.84c-0.275,0.619-1.546,1.461-1.546,1.461
					l-0.214-1.372l-0.238-1.058L394.555,125.099z"/>
				<path fill="#DDE8F6" d="M398.846,147.387c-0.142,0.149-0.518,0.351-1.046,0.546c0.022-0.136,0.05-0.284,0.083-0.444
					c0.845-4.119,0.593-3.404,0.474-5.071c-0.121-1.67-0.611-3.207-1.176-3.126s-1.289,0.129-2.18-0.299
					c0.727,0.275,1.636,0.18,2.234-0.25c0.6-0.429,0.373-3.713,0.373-3.713c0.76-0.351,1.379-0.4,1.882-0.234
					c-0.068,0.448-0.122,0.831-0.152,1.091c-0.149,1.295-0.102,8.324-0.102,8.324S399.329,146.878,398.846,147.387z"/>
			</g>
			<g>
				<path fill="#FEC7C7" d="M390.613,117.5c0,0-0.557,0.442-0.92,1.376s-0.618,1.729-0.594,1.894
					c0.023,0.164,0.163,0.515-0.052,1.181c-0.215,0.665,0.461,3.994,1.183,4.322c0.722,0.328,4.054-0.792,4.425-1.267
					s1.319-2.4,1.436-3.695c0.116-1.295,0.498-2.807-1.377-3.588C392.837,116.941,390.613,117.5,390.613,117.5z"/>
				<g>
					
						<linearGradient id="SVGID_11_" gradientUnits="userSpaceOnUse" x1="1087.1333" y1="210.5576" x2="1086.5175" y2="210.6278" gradientTransform="matrix(0.995 0.1 -0.1 0.995 -670.6086 -195.8364)">
						<stop  offset="0.1224" style="stop-color:#FEC7C7"/>
						<stop  offset="0.9896" style="stop-color:#FFDBDB"/>
					</linearGradient>
					<path fill="url(#SVGID_11_)" d="M390.181,121.125c0.071,0.367-0.879,1.866-0.922,2.2c-0.043,0.335,0.898,0.313,0.898,0.313
						L390.181,121.125z"/>
					
						<linearGradient id="SVGID_12_" gradientUnits="userSpaceOnUse" x1="1086.4087" y1="210.5713" x2="1087.3892" y2="210.5713" gradientTransform="matrix(0.995 0.1 -0.1 0.995 -670.6086 -195.8364)">
						<stop  offset="0.188" style="stop-color:#FFDCDC"/>
						<stop  offset="0.8991" style="stop-color:#FEC7C7"/>
					</linearGradient>
					<path fill="url(#SVGID_12_)" d="M389.976,123.685c-0.222-0.01-0.578-0.049-0.712-0.197c-0.044-0.049-0.063-0.106-0.054-0.169
						c0.019-0.147,0.189-0.481,0.388-0.868c0.255-0.499,0.573-1.119,0.534-1.316l0.098-0.019c0.045,0.231-0.254,0.816-0.544,1.381
						c-0.186,0.363-0.36,0.705-0.377,0.835c-0.005,0.034,0.005,0.063,0.029,0.089c0.135,0.149,0.638,0.171,0.818,0.167l0.002,0.1
						C390.138,123.688,390.069,123.689,389.976,123.685z"/>
				</g>
				<g>
					<path fill="#754554" d="M392.917,121.478l-0.412-0.139c-0.998-0.232-1.514-0.116-1.519-0.115l-0.038-0.161
						c0.021-0.005,0.552-0.127,1.603,0.117l0.42,0.141L392.917,121.478z"/>
				</g>
				<g>
					<path fill="#754554" d="M389.899,120.911c-0.231-0.16-0.62-0.372-0.741-0.346l-0.034-0.162c0.239-0.048,0.768,0.3,0.87,0.372
						L389.899,120.911z"/>
				</g>
				
					<ellipse transform="matrix(0.9598 0.2805 -0.2805 0.9598 49.9357 -105.0364)" fill="#FFFFFF" cx="391.862" cy="121.908" rx="0.349" ry="0.298"/>
				
					<ellipse transform="matrix(0.7001 -0.7141 0.7141 0.7001 30.1235 314.684)" fill="#FFFFFF" cx="389.678" cy="121.481" rx="0.245" ry="0.282"/>
				<path fill="#FB7F9E" d="M391.224,124.822c0,0-0.957-0.332-1.342-0.384c-0.386-0.052-0.413,0.08-0.385,0.211
					C389.524,124.78,390.123,125.729,391.224,124.822z"/>
				<path fill="#754554" d="M396.566,121.808c0,0-0.304-0.394-0.533-0.261c-0.229,0.132-0.657,0.312-0.676,0.492
					c-0.018,0.18-0.184,1.154-0.184,1.154s-0.412-0.722-0.34-1.442s-0.149-1.727-0.441-2.173c-0.292-0.447-0.587-1.137-1.276-1.247
					s-1.646,0.023-2.207-0.02s-0.79-0.243-0.79-0.243l-0.508,1.021c0,0,0.031-0.511,0.345-1.081c0.313-0.569,2.596-3.17,5.796-1.366
					c2.351,1.139,2.196,3.75,1.832,4.697c-0.365,0.947-1.473,1.787-1.586,2.077c-0.112,0.291-0.418,0.699-0.418,0.969
					s0.133-1.011,0.36-1.554S396.566,121.808,396.566,121.808z"/>
				
					<linearGradient id="SVGID_13_" gradientUnits="userSpaceOnUse" x1="1092.3599" y1="210.3496" x2="1093.9575" y2="210.3496" gradientTransform="matrix(0.995 0.1 -0.1 0.995 -670.6086 -195.8364)">
					<stop  offset="0.1224" style="stop-color:#FEB9B8"/>
					<stop  offset="1" style="stop-color:#FFDEDE"/>
				</linearGradient>
				<path fill="url(#SVGID_13_)" d="M395.709,122.02c0,0,0.823-0.826,1.122-0.177s-0.361,1.385-0.787,1.74
					c-0.427,0.354-0.739,0.451-0.861,0.257c-0.122-0.194,0.198-0.903,0.198-0.903L395.709,122.02z"/>
				<circle fill="#EFF0F5" cx="395.317" cy="123.803" r="0.167"/>
				
					<linearGradient id="SVGID_14_" gradientUnits="userSpaceOnUse" x1="1092.6177" y1="210.2422" x2="1093.7251" y2="210.2422" gradientTransform="matrix(0.995 0.1 -0.1 0.995 -670.6086 -195.8364)">
					<stop  offset="0.1224" style="stop-color:#FCA4B5"/>
					<stop  offset="0.9896" style="stop-color:#FFADB7"/>
				</linearGradient>
				<path fill="url(#SVGID_14_)" d="M395.83,122.031c0,0,0.525-0.472,0.744-0.106c0.22,0.365,0.034,1.007-0.521,1.544
					c-0.535,0.195-0.613-0.035-0.606-0.102c0.007-0.066,0.212-0.363,0.238-0.626S395.83,122.031,395.83,122.031z"/>
			</g>
		</g>
		<g>
			<path fill="#FEBFBF" d="M405.817,155.12c-0.044,0.292-0.499,0.61-0.499,0.61l-0.49-0.019l-0.202-0.007l-0.707-0.379l-0.607,0.116
				c0,0-0.25-0.076-0.271-0.218c-0.002-0.019,0.002-0.045,0.012-0.079c0.062-0.213,0.345-0.668,0.345-0.668
				s-0.051-0.055-0.104-0.153c-0.052-0.092-0.104-0.223-0.121-0.383c-0.037-0.329-0.844-1.412-1.027-1.752
				c-0.183-0.34-0.138-0.725-0.168-1.425c-0.03-0.698-2.684-7.073-2.74-8.987c-0.056-1.914,2.814-1.454,3.188-0.617
				c0.377,0.836,0.688,2.82,0.877,4.679c0.187,1.859,0.824,4.994,0.974,5.382c0.149,0.39,1.617,1.813,1.59,2.05
				C405.837,153.509,405.86,154.828,405.817,155.12z"/>
			<g>
				<path fill="#3B3040" d="M402.02,153.617c-0.224-0.129-0.336-0.194-0.56-0.323c0.08,0.248,0.16,0.495,0.241,0.743
					c0.224,0.129,0.335,0.194,0.56,0.323C402.181,154.112,402.1,153.864,402.02,153.617z"/>
			</g>
			
				<linearGradient id="SVGID_15_" gradientUnits="userSpaceOnUse" x1="4702.8599" y1="705.1533" x2="4705.6768" y2="700.2747" gradientTransform="matrix(-0.944 -0.073 0.3212 0.9053 4619.4136 -138.2153)">
				<stop  offset="0.02" style="stop-color:#251A29"/>
				<stop  offset="0.0769" style="stop-color:#251A29"/>
				<stop  offset="0.0892" style="stop-color:#312536"/>
				<stop  offset="0.1004" style="stop-color:#35293B"/>
				<stop  offset="0.126" style="stop-color:#35293B"/>
				<stop  offset="0.1302" style="stop-color:#35293B"/>
				<stop  offset="0.1653" style="stop-color:#392D3E"/>
				<stop  offset="0.1955" style="stop-color:#423746"/>
				<stop  offset="0.8758" style="stop-color:#423746"/>
				<stop  offset="0.988" style="stop-color:#423746"/>
			</linearGradient>
			<path fill="url(#SVGID_15_)" d="M401.116,152.86l0.528-0.292c0.001-0.001,0.003-0.001,0.004-0.003l0.002,0h0.001
				c0.017-0.013,0.043-0.018,0.086-0.009c0.604,0.114,1.659,0.773,2.441,1.224c0.786,0.455,1.799,0.99,2.589,1.68
				c0.249,0.217,0.262,0.366,0.252,0.447c-0.022,0.181,0.043,0.59-0.021,0.593l-0.527,0.291l-0.538-1.177l-3.228-1.864
				c-0.086,0.101-0.402,0.069-0.476-0.003c-0.05-0.05-0.137-0.21-0.232-0.394L401.116,152.86z"/>
			<path fill="#3B3040" d="M405.669,155.724c0.224,0.129,0.336,0.194,0.56,0.323c0.08,0.248,0.16,0.496,0.241,0.743
				c-0.225-0.129-0.336-0.193-0.56-0.323C405.83,156.219,405.75,155.972,405.669,155.724z"/>
			<path fill="#3B3040" d="M401.209,152.847c0.603,0.114,1.658,0.773,2.441,1.225c0.785,0.454,1.798,0.989,2.589,1.68
				c0.248,0.217,0.261,0.366,0.251,0.447c-0.021,0.18,0.043,0.589-0.021,0.592c-0.054,0.002-0.542-0.451-0.734-0.726
				c-0.362-0.52-1.435-1.072-1.868-1.322c-0.434-0.251-1.567-0.97-1.674-0.723c-0.055,0.128-0.414,0.096-0.492,0.018
				c-0.097-0.096-0.328-0.601-0.503-0.895C401.12,153.011,401.019,152.811,401.209,152.847z"/>
			<path fill="#FEC7C7" d="M404.828,155.712l-0.202-0.007l-0.707-0.379l-0.607,0.116c0,0-0.25-0.076-0.271-0.218l0.012-0.079
				l0.045-0.322l-0.253-0.216l0.179-0.267l0.271-0.017l0.142-0.25c0,0,0.314,0,0.413,0.122c0.098,0.123,0.304,0.648,0.304,0.648
				l0.241,0.083l0.189,0.193l0.192,0.313L404.828,155.712z"/>
			
				<linearGradient id="SVGID_16_" gradientUnits="userSpaceOnUse" x1="-177.2305" y1="154.873" x2="-175.917" y2="154.873" gradientTransform="matrix(1 0 0 1 580.3091 0)">
				<stop  offset="0.1224" style="stop-color:#FCA4B5"/>
				<stop  offset="0.9896" style="stop-color:#FFADB7"/>
			</linearGradient>
			<path fill="url(#SVGID_16_)" d="M404.258,154.966c0,0-0.313-0.026-0.371,0.074c-0.059,0.1-0.063,0.22-0.063,0.22l-0.011,0.086
				l-0.401,0.076c0,0,0.158-0.127,0.168-0.209c0.01-0.083-0.118-0.223-0.118-0.223l-0.383-0.045l0.224-0.144l-0.116-0.471
				l0.106-0.007l0.21,0.507l0.19,0.284l0.172-0.212l0.361-0.033l0.166,0.058L404.258,154.966z"/>
			
				<linearGradient id="SVGID_17_" gradientUnits="userSpaceOnUse" x1="-177.3174" y1="153.3281" x2="-174.7881" y2="153.3281" gradientTransform="matrix(1 0 0 1 580.3091 0)">
				<stop  offset="0.1224" style="stop-color:#FCA4B5"/>
				<stop  offset="0.9896" style="stop-color:#FFADB7"/>
			</linearGradient>
			<path fill="url(#SVGID_17_)" d="M402.992,152.265c0,0-0.003,0.412,0.056,0.585c0.058,0.174,0.438,0.497,0.438,0.497l0.273,0.396
				l-0.096,0.228l0.333-0.201l0.56,0.304l0.742,0.318l0.011-0.578l0.212-0.383l-0.283-0.535l-0.412-0.187L402.992,152.265z"/>
			<path fill="#FEC7C7" d="M401.869,141.517c0,0,0.358-0.098,0.254-0.689c-0.104-0.591-0.804-3.196-0.787-4.938
				c0.018-1.742-0.104-4.205-0.91-5.895c-0.806-1.689-1.672-0.937-2.065-0.425c-0.394,0.511-1.142,1.203-0.902,4.57
				s1.266,8.057,1.808,7.968C399.807,142.02,401.313,141.874,401.869,141.517z"/>
			
				<linearGradient id="SVGID_18_" gradientUnits="userSpaceOnUse" x1="-177.3247" y1="153.8301" x2="-174.6436" y2="153.8301" gradientTransform="matrix(1 0 0 1 580.3091 0)">
				<stop  offset="0.1224" style="stop-color:#FEB9B8"/>
				<stop  offset="1" style="stop-color:#FFDEDE"/>
			</linearGradient>
			<path fill="url(#SVGID_18_)" d="M405.261,153.59c0,0,0.29,1.333,0.287,1.443c-0.004,0.111-0.093,0.314-0.036,0.385
				c0.057,0.072,0.271,0.542,0.066,0.629s-0.389-0.008-0.528-0.163s-0.38-0.563-0.354-0.793c0.027-0.229-0.094-0.948-0.332-1.207
				c-0.239-0.26-0.896-0.68-1.138-1.069s-0.346-0.699-0.11-1.042c0.234-0.343,0.909-0.164,1.147,0.022s0.816,0.559,0.912,0.774
				C405.271,152.784,405.261,153.59,405.261,153.59z"/>
		</g>
	</g>
</g>
</svg>
