<?xml version="1.0" encoding="utf-8"?>
<!-- Generator: Adobe Illustrator 16.0.0, SVG Export Plug-In . SVG Version: 6.00 Build 0)  -->
<!DOCTYPE svg PUBLIC "-//W3C//DTD SVG 1.1//EN" "http://www.w3.org/Graphics/SVG/1.1/DTD/svg11.dtd">
<svg version="1.1" id="Layer_1" xmlns="http://www.w3.org/2000/svg" xmlns:xlink="http://www.w3.org/1999/xlink" x="0px" y="0px"
	 width="463.683px" height="425.749px" viewBox="0 0 463.683 425.749" enable-background="new 0 0 463.683 425.749"
	 xml:space="preserve">
<g>
	<path fill="#D7E4F2" d="M284.427,161.905c-4.733-2.733-12.432-2.719-17.194,0.031c-1.688,0.975-2.768,2.163-3.265,3.412
		l-8.03,4.636l10.241,5.912l4.544-2.624c4.478,1.173,9.948,0.697,13.65-1.44C289.136,169.082,289.16,164.638,284.427,161.905z"/>
	<g>
		<g>
			<path fill="#FEBFBF" d="M277.8,109.06c0,0,0.343,3.524,0.701,7.007c0.319,3.064,0.648,6.098,0.768,6.674
				c0.257,1.231,3.143,7.635,3.39,8.372c0.044,0.133,0.079,0.327,0.104,0.559c0.062,0.557,0.064,1.32-0.015,1.928
				c-0.07,0.539-0.204,0.954-0.416,0.988c-0.547,0.092-0.519,0.275-0.513,0.351c0.007,0.077,0.642,0.085,0.642,0.085
				s-0.72,0.263-0.795,0.469c-0.076,0.207,0.327,0.236,0.327,0.236s-0.322,0.381-0.194,0.449c0.13,0.067,0.822,0.024,0.822,0.024
				s-0.2,0.202-0.236,0.329c-0.019,0.066,0.035,0.131,0.115,0.178c0.072,0.042,0.167,0.069,0.247,0.07
				c0.169,0.001,1.155-0.406,1.284-0.524c0.129-0.12,0.67-1.974,0.67-1.974s-0.065-1.154-0.326-2.06
				c-0.262-0.906-0.175-0.975-0.523-3.666c-0.348-2.69-1.6-8.028-1.911-8.434c-0.313-0.406-0.893-5.017-1.58-8.049
				C279.673,109.038,277.8,109.06,277.8,109.06z"/>
			<path fill="#FEC7C6" d="M283.123,134.259c0,0-0.178,0.556-0.164,0.91c0.015,0.354-0.031,0.906-0.281,0.974
				s-0.457-0.016-0.464-0.371c-0.007-0.355,0.042-0.97,0.083-1.229c0.04-0.258-0.144-1.186-0.103-1.599
				c0.042-0.413,0.259-1.243,0.769-1.34c0.51-0.097,0.684,0.415,0.71,0.822c0.026,0.408-0.265,1.367-0.332,1.481
				C283.273,134.022,283.123,134.259,283.123,134.259z"/>
			<path fill="#FA9698" d="M281.993,135.729c0,0-0.322,0.381-0.194,0.449c0.13,0.067,0.822,0.024,0.822,0.024
				s-0.2,0.202-0.236,0.329c-0.019,0.066,0.035,0.131,0.115,0.178c0.069-0.125,0.14-0.232,0.194-0.267
				c0.148-0.088,0.282-0.038,0.478-0.132c0.192-0.092,0.396-0.395,0.396-0.395l0.323-0.886c0,0-0.158-0.319-0.341-0.729
				c-0.181-0.409-0.184-0.819-0.184-0.819s-0.265,0.028-0.619,0.119c-0.07,0.539-0.204,0.954-0.416,0.988
				c-0.547,0.092-0.519,0.275-0.513,0.351c0.007,0.077,0.642,0.085,0.642,0.085s-0.72,0.263-0.795,0.469
				C281.589,135.7,281.993,135.729,281.993,135.729z"/>
			<path fill="#FA9698" d="M278.501,116.067c0.319,3.064,0.648,6.098,0.768,6.674c0.257,1.231,3.143,7.635,3.39,8.372
				c0.044,0.133,0.079,0.327,0.104,0.559c0.161-0.364,0.335-0.854,0.306-1.211c-0.055-0.645-2.263-5.7-2.694-7.263
				c-0.431-1.565-1.555-6.943-1.555-6.943S278.697,116.166,278.501,116.067z"/>
			<path fill="#FFDC6E" d="M277.124,108.352c0,0,1.749-0.228,2.772,1.536s1.856,7.834,1.856,7.834s-0.837,1.379-3.673,1.599
				C275.244,119.541,277.124,108.352,277.124,108.352z"/>
		</g>
		<g>
			<path fill="#5C6467" d="M279.017,162.264c0,0,2.132,1.285,2.525,1.471c0.393,0.186,2.135,1.324,2.415,1.742
				s0.213,0.748,0.139,0.986c-0.073,0.237-0.645,0.638-0.974,0.687c-0.328,0.049-2.065-0.14-2.993-0.639s-0.858-0.705-0.985-0.75
				c-0.127-0.044-0.938-0.243-0.938-0.243s-0.188,0.154-0.567,0.052s-1.525-0.429-1.618-0.73s-0.146-1.372,0.007-1.886
				S279.017,162.264,279.017,162.264z"/>
			<path fill="#FEBFBF" d="M279.381,162.606c0,0,1.367,0.812,1.194,1.266c-0.174,0.454-1.682,0.437-2.294,0.218
				c-0.743-0.266-1.05-0.504-1.157-0.982c-0.106-0.479,0.516-0.559,0.516-0.559L279.381,162.606z"/>
			<path fill="#7282B5" d="M280.833,140.898c-0.632,4.994-0.613,5.736-0.688,6.915c-0.064,1.188-0.715,14.693-0.705,14.869
				c0.019,0.167-0.882,0.826-1.838,0.891c-0.093,0.009-0.195,0.009-0.288,0c-1.049-0.083-1.392-0.213-1.447-0.65
				c-0.057-0.436-0.845-11.5-0.771-13.551c-0.548-2.385-0.437-9.69-0.371-12.624c0.018-0.77,0.037-1.243,0.037-1.243l6.265-3.035
				C281.028,132.471,281.464,135.914,280.833,140.898z"/>
			<path fill="#E8D0C8" d="M277.603,163.574c-0.093,0.009-0.195,0.009-0.288,0c-1.049-0.083-1.392-0.213-1.447-0.65
				c-0.057-0.436-0.845-11.5-0.771-13.551c-0.548-2.385-0.437-9.69-0.371-12.624c0.899-0.223,1.781,0.464,2.385,3.082
				c0,0-1.355,0.956-1.179,4.863c0.177,3.908,0.455,5.031,0.482,6.34c0.037,1.318,0.019,9.94,0.353,11.231
				C276.879,162.692,277.204,163.147,277.603,163.574z"/>
			<path fill="#5C6467" d="M273.483,165.829c0.008,0,0.082,0.095,0.198,0.248c0.335,0.441,1.017,1.366,1.443,1.878
				c0.575,0.69,1.559,2.412,1.625,2.874c0.066,0.461-0.048,0.634-0.161,0.775c-0.112,0.141-0.774,0.604-1.794,0.473
				c-1.019-0.131-1.873-0.739-2.453-1.445c-0.579-0.706-1.578-2.235-1.791-2.508c-0.214-0.273-0.952-0.837-1.072-1.101
				c-0.121-0.264-0.024-1.418,0.201-1.735c0.225-0.316,3.868,0.505,3.868,0.505L273.483,165.829z"/>
			<path fill="#FEBFBF" d="M273.115,165.335c0,0,0.995,1.301,0.922,1.705c-0.073,0.405-1.025,0.645-1.617,0.505
				c-0.592-0.14-2.074-1.178-1.955-1.619C270.583,165.485,273.115,165.335,273.115,165.335z"/>
			<path fill="#7282B5" d="M277.91,138.587c-0.325,1.179-2.423,2.683-2.423,2.683s-0.315,3.035-0.724,9.347
				c-0.149,2.376-0.437,8.428-1.087,15.464c-1.012,0.938-2.051,0.826-2.794,0.52c-0.203-0.083-0.39-0.176-0.538-0.269
				c-0.315-0.186-0.51-0.372-0.528-0.39c-0.074-0.064-0.613-5.736-0.595-9.449c0.01-1.782,0.418-5.94,0.437-6.766
				c0.492-2.71-2.023-6.46-1.597-13.904c0.028-0.575,0.752-0.928,1.792-1.142c2.867-0.576,8.158-0.074,8.158-0.074
				S278.234,137.399,277.91,138.587z"/>
			<g>
				<path fill="#A0ABCD" d="M270.576,166.482c-1.172-6.179-0.217-13.435,0.098-15.819c0.03-0.238,0.055-0.423,0.069-0.549
					c0.127-1.116-0.379-3.887-0.913-6.821c-0.107-0.586-0.217-1.185-0.324-1.785c-0.653-3.667-0.176-6.494-0.17-6.522l0.229,0.04
					c-0.005,0.027-0.476,2.817,0.17,6.441c0.107,0.601,0.216,1.198,0.322,1.784c0.563,3.079,1.049,5.738,0.917,6.889
					c-0.015,0.127-0.039,0.313-0.071,0.553c-0.312,2.375-1.263,9.603-0.098,15.745L270.576,166.482z"/>
			</g>
			<path fill="#E8D0C8" d="M270.066,160.65c0.111,1.912,0.167,4.065,0.278,5.68c-0.315-0.186-0.51-0.372-0.528-0.39
				c-0.074-0.064-0.613-5.736-0.595-9.449c0.01-1.782,0.418-5.94,0.437-6.766c0.492-2.71-2.023-6.46-1.597-13.904
				c0.028-0.575,0.752-0.928,1.792-1.142c0.194,0.575-0.808,0.984-0.613,1.68c0,0-0.231,4.993,0.177,6.906
				c0.408,1.912,1.226,5.717,0.872,7.342C269.936,152.231,269.796,155.963,270.066,160.65z"/>
			<path fill="#FDD249" d="M281.547,131.979c0,0-0.278,1.958-3.963,3.583c-2.821,1.244-5.522,1.262-7.147,1.03
				c-0.501-0.074-0.909-0.177-1.179-0.27c-1.216-0.436-1.337-0.575-1.373-1.15c-0.047-0.576,0.036-3.927-0.297-7.64
				c-0.344-3.712-1.959-8.372-1.959-8.372c0-0.037-0.186-0.724-0.353-1.532c-0.186-0.826-0.371-1.754-0.381-2.19
				c-0.009-0.854,0.241-1.764,1.875-3.184c1.643-1.42,3.082-2.599,3.824-3.119c0.742-0.511,4.78-1.151,6.052-0.983
				c3.072,0.38,3.351,3.406,3.546,4.353c0.194,0.938,0.658,4.854,0.604,6.702c-0.047,1.856-0.251,3.499-0.242,5.652
				C280.564,127.013,281.547,131.979,281.547,131.979z"/>
			<path fill="#DEDEDE" d="M272.591,133.167c-0.706,1.587-1.838,1.272-1.875,2.367c-0.01,0.279-0.121,0.659-0.279,1.059
				c-0.501-0.074-0.909-0.177-1.179-0.27c-1.216-0.436-1.337-0.575-1.373-1.15c-0.047-0.576,0.036-3.927-0.297-7.64
				c-0.344-3.712-1.959-8.372-1.959-8.372c0-0.037-0.186-0.724-0.353-1.532c1.16-0.594,2.58-0.844,4.315-0.594
				c0,0-0.956,2.637-0.919,3.063c0.047,0.427,0.047,0.427,0.047,0.427s3.75,1.931,4.056,2.395
				C273.092,123.384,273.296,131.579,272.591,133.167z"/>
		</g>
		<g>
			<g>
				<polygon fill="#C99A6B" points="264.764,136.983 272.591,132.464 272.591,123.482 264.764,128.001 				"/>
				<polygon fill="#87623F" points="272.591,123.482 264.764,128.001 268.988,125.742 				"/>
				<polygon fill="#AE835B" points="264.764,136.983 256.937,132.464 256.937,123.482 264.764,128.001 				"/>
				<polygon fill="#E8B687" points="264.764,128.001 256.937,123.482 264.764,118.963 272.591,123.482 				"/>
				<polygon fill="#D9AF84" points="268.292,129.513 269.549,128.787 269.549,125.238 268.292,125.965 				"/>
				<polygon fill="#EBCBAB" points="268.292,125.965 260.464,121.445 261.722,120.72 269.549,125.238 				"/>
				<polygon fill="#87623F" points="256.937,123.482 264.764,128.001 260.541,125.742 				"/>
				<polygon fill="#9C754E" points="261.369,129.589 260.111,128.863 260.111,125.315 261.369,126.041 				"/>
				<polygon fill="#54493E" points="261.369,126.041 269.197,121.522 267.939,120.796 260.111,125.315 				"/>
				<polygon fill="#D1A986" points="260.788,125.705 268.615,121.186 268.528,121.136 260.701,125.655 				"/>
				<polygon fill="#AE835B" points="261.369,126.041 261.369,126.188 260.602,125.777 260.111,125.47 260.111,125.315 				"/>
			</g>
			<polygon fill="#AE835B" points="268.988,125.742 268.292,126.114 268.292,125.965 269.549,125.238 269.549,125.39 			"/>
		</g>
		<g>
			<path fill="#FEBFBF" d="M265.934,113.432c0,0-9.287,9.286-9.346,9.963c-0.06,0.677,2.829,10.544,3.012,11.341
				c0.183,0.796,0.618,1.432,1.077,1.788c0.458,0.355,2.843,1.837,3.349,1.783c0.505-0.054,0.743-0.259,0.743-0.259
				s1.198-0.506,1.388-0.731c0.19-0.225,0.53-0.728,0.474-1.001c-0.059-0.273-1.826,0.767-1.965,0.778
				c-0.138,0.012-1.366-1.23-2.061-1.775c-0.695-0.545-0.862-0.334-1.049-1.455c-0.187-1.12-1.111-8.984-1.008-9.41
				s3.807-2.729,5.924-4.576c2.118-1.847,2.763-3.014,2.202-4.729S266.983,112.672,265.934,113.432z"/>
			<path fill="#FEC7C6" d="M262.008,135.114c0,0-0.353,0.366,0.232,0.978c0.584,0.612,1.167,0.656,1.692,0.693
				c0.524,0.037,0.963,0.209,0.963,0.209s0.576,0.564,0.938,0.547c0.363-0.018,0.401-0.392,0.287-0.649
				c-0.114-0.257-0.902-0.667-1.014-0.75s-1.184-0.852-1.399-0.938C263.493,135.118,262.352,134.796,262.008,135.114z"/>
			<path fill="#FFDC6E" d="M260.618,118.622c0,0,3.201,2.979,3.91,3.321c0.708,0.342,4.237-3.227,4.585-3.769
				c1.122-1.75,0.499-3.917-1.114-4.822c-1.655-0.929-2.451,0.082-2.943,0.478C264.562,114.227,260.618,118.622,260.618,118.622z"/>
		</g>
	</g>
	<g>
		<g>
			<path fill="#87623F" d="M264.235,130.238l-1.796-1.037v-2.062l1.796,1.037V130.238z M262.557,129.133l1.56,0.9v-1.789l-1.56-0.9
				V129.133z"/>
		</g>
		<g>
			<polygon fill="#87623F" points="263.535,129.578 263.139,129.349 263.139,128.311 263.535,128.54 			"/>
			<polygon fill="#87623F" points="263.924,128.962 262.75,128.284 263.337,127.914 			"/>
		</g>
	</g>
	<path fill="#FFADB7" d="M275.96,109.739c-0.01,0.909,0.194,1.234,0.018,1.513c-0.176,0.278-1.317,0.539-2.459,0.297
		c-0.232-0.056-0.529-0.149-0.845-0.306c-0.01,0-0.01-0.01-0.01-0.01c-0.649-0.306-1.052-0.746-1.47-1.479
		c-0.167-0.306-0.139-0.557-0.139-0.557s0.699-0.878,0.987-1.946c0.186-0.668,0.111-1.68,0.027-2.33
		c-0.046-0.38-0.093-0.641-0.093-0.641s-0.445-1.531,0.093-1.643c0.548-0.111,4.112,2.961,4.112,2.961s-0.084,1.234-0.148,2.385
		c-0.019,0.473-0.047,0.938-0.057,1.299C275.969,109.47,275.96,109.619,275.96,109.739z"/>
	
		<linearGradient id="SVGID_1_" gradientUnits="userSpaceOnUse" x1="692.7905" y1="108.1694" x2="695.3828" y2="111.4509" gradientTransform="matrix(1 0 0 1 -419.7622 0)">
		<stop  offset="0.1224" style="stop-color:#FCA4B5"/>
		<stop  offset="0.9896" style="stop-color:#FFADB7"/>
	</linearGradient>
	<path fill="url(#SVGID_1_)" d="M276.035,107.985c-0.019,0.473-0.047,0.938-0.057,1.299c-0.139,0.01-0.314-0.018-0.538-0.083
		c-1.179-0.353-2.218-0.799-2.617,0c-0.297,0.575-0.557,1.355-0.158,2.032c-0.649-0.306-1.052-0.746-1.47-1.479
		c-0.167-0.306-0.139-0.557-0.139-0.557s0.699-0.878,0.987-1.946c0.186-0.668,0.111-1.68,0.027-2.33
		C273.983,105.46,275.366,107.038,276.035,107.985z"/>
	<path fill="#FEBFBF" d="M272.472,103.806c0,0,0.126,2.825,0.402,3.423s2.271,2.136,4.194,1.869c0.516-0.274,1.31-1.697,1.4-2.955
		c0.09-1.258-0.012-1.721,0.017-1.831c0.028-0.111,0.414-0.879,0.354-1.232s-0.161-2.339-0.847-3.208s-2.58-1.404-4.281-0.718
		C272.013,99.841,272.472,103.806,272.472,103.806z"/>
	<path fill="#754554" d="M273.074,104.805c0,0,0.163-1.117-0.538-1.315s0.093,2.417,0.093,2.417l-0.429,0.659l-0.023,0.282
		c0,0-0.869-1.475-1.107-1.915s-0.351-0.62-0.445-1.108c-0.094-0.488-0.471-2.58-0.372-3.311c0.1-0.732,1.354-1.833,2.313-1.914
		c0.439-0.59,1.34-0.883,2.205-0.889c0.866-0.006,1.511,0.062,2.549,0.87c1.039,0.809,1.076,1.447,1.156,1.645
		s0.086,1.008,0.086,1.008l-0.114-0.421c0,0-0.411,0.271-1.695,0.161c-1.284-0.111-1.992-0.625-1.992-0.625s0.235,0.91,0.187,1.246
		c-0.048,0.336-0.247,1.377-0.247,1.377s-0.66,0.393-0.88,0.547s-0.324,0.512-0.324,0.512l-0.083,0.893L273.074,104.805z"/>
	
		<linearGradient id="SVGID_2_" gradientUnits="userSpaceOnUse" x1="2425.1128" y1="-99.9058" x2="2426.5073" y2="-99.9058" gradientTransform="matrix(-0.986 0.1666 0.1666 0.986 2680.8313 -201.0032)">
		<stop  offset="0.1224" style="stop-color:#FEB9B8"/>
		<stop  offset="1" style="stop-color:#FFDEDE"/>
	</linearGradient>
	<path fill="url(#SVGID_2_)" d="M272.95,104.07c0,0-0.38-1.002-1.146-0.615s0.333,2.386,0.83,2.414
		c0.496,0.028,0.404-0.484,0.404-0.484S272.502,104.544,272.95,104.07z"/>
	<path fill="#FECB4C" d="M278.745,100.996l-0.186,0.242c0,0-3.388,0.993-3.741,1.086c-0.157,0.037-0.436,0.158-0.844,0.287
		c-0.465,0.149-1.105,0.316-1.931,0.381c-1.551,0.13-1.551,0.13-1.551,0.13s-0.491-1.485-0.26-2.84
		c0.186-1.086,1.457-2.023,2.924-2.451c0.047-0.018,0.065-0.028,0.065-0.028c0.343-0.093,0.705-0.167,1.058-0.204
		c1.875-0.195,3.146,0.594,3.75,1.503S278.745,100.996,278.745,100.996z"/>
	<path fill="#FCF5E8" d="M273.974,102.61c-0.465,0.149-1.105,0.316-1.931,0.381c-1.551,0.13-1.551,0.13-1.551,0.13
		s-0.491-1.485-0.26-2.84c0.186-1.086,1.457-2.023,2.924-2.451c-0.25,0.112-1.188,0.603-1.29,1.541
		C271.765,100.346,272.48,101.998,273.974,102.61z"/>
	<path fill="#725E6D" d="M274.025,102.596c0,0,2.706,2.328,3.637,1.39c0.656-0.661,2.285-1.292,3.001-1.08
		c0.715,0.213,0.715,0.213,0.715,0.213s0.152-0.03,0.133-0.205s-2.766-1.915-2.766-1.915S277.658,99.841,274.025,102.596z"/>
</g>
</svg>
