<?xml version="1.0" encoding="utf-8"?>
<!-- Generator: Adobe Illustrator 16.0.0, SVG Export Plug-In . SVG Version: 6.00 Build 0)  -->
<!DOCTYPE svg PUBLIC "-//W3C//DTD SVG 1.1//EN" "http://www.w3.org/Graphics/SVG/1.1/DTD/svg11.dtd">
<svg version="1.1" id="Layer_1" xmlns="http://www.w3.org/2000/svg" xmlns:xlink="http://www.w3.org/1999/xlink" x="0px" y="0px"
	 width="463.683px" height="425.749px" viewBox="0 0 463.683 425.749" enable-background="new 0 0 463.683 425.749"
	 xml:space="preserve">
<g>
	<path fill="#D7E4F2" d="M46.39,126.994c4.161,2.402,10.928,2.39,15.114-0.027s4.208-6.324,0.047-8.727
		c-4.161-2.401-10.927-2.39-15.114,0.027C42.251,120.685,42.229,124.592,46.39,126.994z"/>
	<path fill="#773952" d="M50.971,116.785l-0.337,2.4c0,0,3.743-0.907,3.807-1.582c0.064-0.675-0.078-2.185-0.078-2.185
		L50.971,116.785z"/>
	<path fill="#EBE1D5" d="M45.869,121.537c0.067,0.09,0.563,0.442,1.344,0.485c0.36,0.021,0.779-0.025,1.247-0.192
		c1.475-0.527,2.007-1.025,2.992-1.262c0.987-0.236,2.919-0.622,3.176-1.157c0.254-0.534-0.015-2.02-0.015-2.02
		s-0.309-0.121-0.435,0.098c-0.124,0.219-0.699,0.838-1.359,1.048c-0.468,0.149-1.01,0.111-1.288,0.075
		c-0.118-0.013-0.19-0.028-0.19-0.028s0.092-0.619,0.025-0.83c-0.064-0.211-0.732-0.604-0.732-0.604l-1.596,1.406
		c0,0-2.948,1.707-3.038,1.936C45.91,120.717,45.773,121.408,45.869,121.537z"/>
	<path fill="#FF6647" d="M47.297,93.514l0.63,12.953l0.013,0.267l0.018,0.095l1.45,8.627c0.031,0.756,0.139,1.462,0.349,2.079
		c0.231,0.679,0.622,1.255,1.843,1.25c0.55-0.003,1.27-0.124,2.22-0.406c1.684-0.501,1.506-1.617,1.506-1.617l-1.159-10.523
		l0.051-9.537c0.229-0.55,0.565-2.231,0.704-4.04c0.19-2.485,0.01-5.212-1.336-5.607c-2.49-0.73-4.847,0.75-4.847,0.75
		s-0.987,0.995-0.936,5.698L47.297,93.514z"/>
	<path fill="#E3C3C3" d="M51.6,118.785c0.55-0.003,1.27-0.124,2.22-0.406c1.684-0.501,1.506-1.617,1.506-1.617l-1.159-10.523
		l0.051-9.537c0.229-0.55-1.844-4.725-3.29-4.25c0.225,2.471,1.16,2.135,1.553,3.16c0.676,1.771-0.782,2.38-0.836,6.808
		c-0.054,4.428,1.724,10.992,1.933,13.001C53.728,116.85,52.383,118.154,51.6,118.785z"/>
	<g>
		<path fill="#DE4504" d="M53.567,118.422c-0.013-0.074-1.281-7.415-1.692-10.742c-0.414-3.346,0.278-13.043,0.308-13.454
			l0.513,0.037c-0.007,0.101-0.718,10.058-0.311,13.354c0.41,3.314,1.675,10.644,1.688,10.717L53.567,118.422z"/>
	</g>
	<path fill="#8E8E8E" d="M45.87,121.537c0.096,0.13,1.113,0.821,2.589,0.293s2.008-1.026,2.993-1.263
		c0.985-0.236,2.919-0.621,3.175-1.155c0.071-0.149,0.101-0.374,0.107-0.619c0.01,0.338-0.012,0.986-0.107,1.186
		c-0.255,0.534-2.189,0.604-3.175,0.839c-0.985,0.236-1.518,1.051-2.993,1.579s-2.493-0.164-2.589-0.293
		c-0.035-0.048-0.039-0.489-0.025-0.639C45.85,121.497,45.858,121.521,45.87,121.537z"/>
	<path fill="#773952" d="M57.149,119.235l-0.293,2.4c0,0,3.259-0.906,3.314-1.581c0.056-0.674-0.067-2.185-0.067-2.185
		L57.149,119.235z"/>
	<path fill="#EBE1D5" d="M56.508,120.463c0,0,0.209-0.477,0.701-0.5c0.491-0.023,1.017,0.199,1.105,0.407
		c0.088,0.208,0.08,0.512,0.08,0.512s1.312-0.373,1.41-0.668c0.099-0.296-0.003-1.03-0.003-1.03s1.028-0.012,1.106,0.465
		c0.078,0.479,0.048,2.318,0.052,2.643c0.004,0.324-1.939,1.776-2.081,2.342c-0.142,0.566-1.232,2.004-2.949,2.174
		c-1.716,0.169-1.952-1.597-1.954-1.877c-0.002-0.28,2.185-2.785,2.204-3.1C56.199,121.519,56.494,120.531,56.508,120.463z"/>
	<path fill="#8E8E8E" d="M55.93,126.478c1.716-0.17,2.92-1.717,3.062-2.284c0.141-0.566,1.972-2.112,1.968-2.437
		c-0.001-0.119,0.001-0.398,0.002-0.727c0.001,0.421-0.004,1.118-0.002,1.263c0.004,0.324-1.939,1.776-2.081,2.342
		c-0.142,0.566-1.232,2.004-2.949,2.174c-1.417,0.14-1.981-1.08-1.964-1.624C53.986,125.759,54.685,126.601,55.93,126.478z"/>
	<g>
		<path fill="#FF785C" d="M42.037,88.722l1.74,0.565l1.482,0.481c0,0,1.386-1.728,1.725-2.377c0.63-1.206,1.781-5.143,1.781-5.143
			l1.388-10.267l0.2-1.48l0.394-1.292l-3.241-0.987l-0.449,1.496l-2.305,10.647c0,0-2.033,4.22-2.426,5.726
			C42.158,86.729,42.037,88.722,42.037,88.722z"/>
	</g>
	<path fill="#F5B6A4" d="M43.638,87.519c-0.008,0.709,0.041,1.295,0.139,1.768l1.482,0.481c0,0,1.386-1.728,1.725-2.377
		c0.63-1.206,1.781-5.143,1.781-5.143l1.388-10.267c-1.226-0.234-2.362-0.01-2.457,1.563c-0.213,3.523-1.072,7.101-0.712,7.582
		c0.36,0.483,0.797,1.737,0.696,2.956c-0.1,1.224-1.783,3.813-1.783,3.813s-0.236-0.182-0.938-0.375
		C44.257,87.325,43.638,87.519,43.638,87.519z"/>
	<path fill="#FF785C" d="M48.547,66.878c-1.161,0.98-1.493,2.496-0.742,3.386c0.751,0.889,1.825,0.521,2.986-0.459
		c1.161-0.981,2.238-2.647,1.486-3.537C51.527,65.379,49.708,65.897,48.547,66.878z"/>
	<path fill="#FF6647" d="M52.964,95.357c0.252,0.306,1.249,11.508,1.249,11.508l1.794,12.302l-0.003,0.019
		c0,0,0.005,0.023,0.013,0.054l0.003,0.008c0.087,0.332,0.599,1.994,2.167,1.781c0.401-0.054,0.825-0.146,1.213-0.27
		c0.511-0.162,0.961-0.372,1.21-0.611c0.421-0.409,1.048-1.115,0.943-2.395l-0.666-7.885l-1.002-4.813l1.986-10.131
		c0.491-1.743,0.439-3.983,0.35-5.302c-0.002-0.036-0.002-0.072-0.008-0.105c-0.008-0.103-0.015-0.201-0.021-0.291
		c-0.002-0.028-0.005-0.056-0.008-0.087c-0.01-0.111-0.021-0.208-0.028-0.293c-0.01-0.093-0.021-0.188-0.031-0.283
		c-0.002-0.013-0.005-0.026-0.005-0.042c0-0.005-0.002-0.01-0.002-0.015c0,0-10.729-5.942-11.372-2.179
		C49.366,94.416,51.761,93.907,52.964,95.357z"/>
	<g>
		<path fill="#FF9061" d="M55.966,91.531c-0.113,0-0.228-0.001-0.344-0.003c-5.372-0.115-7.407-1.944-7.465-3.146l0.752-0.035
			c0.035,0.717,1.776,2.323,6.729,2.429c4.828,0.102,6.179-2.097,6.193-2.12l0.651,0.378C62.422,89.138,60.975,91.531,55.966,91.531
			z"/>
	</g>
	<g>
		<path fill="#FF9061" d="M52.435,94.689c-0.084,0-0.174-0.022-0.263-0.067c-0.356-0.18-0.752-0.755-0.778-1.596
			c-0.014-0.422,0.011-2.109,0.034-2.314l0.51,0.057c-0.018,0.162-0.045,1.817-0.031,2.241c0.021,0.667,0.32,1.047,0.473,1.142
			c0.001-0.021,0-0.049-0.003-0.085c-0.051-0.474-0.151-3.263,0.163-3.48l0.126-0.087l0.142,0.069l-0.117,0.229l0.001,0.002
			l0.227,0.099c-0.06,0.208-0.153,1.987-0.031,3.112c0.038,0.354-0.089,0.523-0.203,0.602
			C52.611,94.664,52.526,94.689,52.435,94.689z"/>
	</g>
	<g>
		<path fill="#FF6647" d="M47.801,77.668c0.812,4.978,0.853,11.259,0.853,11.259c0.565,0.383,1.136,0.707,1.702,0.979
			c4.061,1.95,8.002,1.228,10.082,0.398l0.002-0.002c0.841-0.337,1.378-0.691,1.493-0.895c0.27-0.47,0.239-2.174,0.175-3.731
			c-0.043-1.013-0.1-1.963-0.1-2.472c0-0.345,0.234-1.257,0.522-2.452c0.789-3.279,1.973-8.185,0.371-10.366
			c-1.242-1.692-3.892-3.288-6.127-4.134c-2.901-1.097-5.053-0.38-6.263,0.016C48.372,66.969,46.989,72.688,47.801,77.668z"/>
		<g>
			<path fill="#FF9061" d="M59.854,120.467l-0.101-0.504l0.051,0.252l-0.062-0.25c0.017-0.005,1.641-0.578,0.191-7.444
				c-0.451-2.135-0.784-3.486-1.026-4.473c-0.5-2.029-0.577-2.342-0.331-4.243c0.128-0.999,0.47-2.179,0.866-3.545
				c0.705-2.432,1.581-5.459,1.745-9.121c0.129-2.898-0.083-4.721-0.252-6.185c-0.169-1.458-0.303-2.609-0.044-4.163l0.506,0.085
				c-0.247,1.482-0.117,2.602,0.048,4.019c0.172,1.482,0.387,3.327,0.255,6.268c-0.166,3.723-1.052,6.782-1.764,9.241
				c-0.39,1.346-0.726,2.508-0.85,3.468c-0.234,1.806-0.182,2.019,0.319,4.054c0.244,0.99,0.577,2.346,1.03,4.489
				c1.006,4.762,0.582,6.726,0.049,7.535C60.204,120.378,59.911,120.456,59.854,120.467z"/>
		</g>
		<g>
			<path fill="#FF9061" d="M51.771,90.716c-0.016-0.101-1.567-10.225,1.442-22.313l0.73,0.182
				c-2.972,11.942-1.444,21.915-1.428,22.014L51.771,90.716z"/>
		</g>
	</g>
	<path fill="#E3C3C3" d="M48.002,94.244c0,0,9.321-2.118,12.436-3.94l0.002-0.002c0.509-0.298,0.854-0.588,0.961-0.858
		c0.291-0.728,0.524-2.205,0.707-3.768c-0.043-1.013-0.1-1.963-0.1-2.472c0-0.345,0.234-1.257,0.522-2.452
		c0.018-0.313,0.028-0.493,0.028-0.493l-4.364-4.752c0,0-1.29,2.246-1.421,4.752c-0.131,2.505-3.642,5.474-3.642,5.474l-2.621,3.888
		l-0.154,0.286L48.002,94.244z"/>
	<path fill="#FF785C" d="M48.266,91.811l0.566,0.907c0.136,0.218,0.331,0.352,0.552,0.419c0.275,0.085,0.596,0.062,0.907-0.026
		c2.822-0.799,5.533-2.438,7.211-3.41c0.586-0.336,1.945-1.611,1.945-1.611l0.298-0.671c0,0,3.68-6.646,4.462-12.299
		c0,0,0.036-0.977,0.018-1.707v-0.008c-0.005-0.17-0.013-0.326-0.023-0.452c-0.162-1.771-1.65-3.082-3.323-2.93
		c-1.521,0.139-2.667,1.444-2.742,3.012c-0.016,0.057-0.031,0.121-0.049,0.195l-0.771,5.582c-0.268,1.175-0.563,2.341-0.846,3.511
		l-0.948,2.667c-1.049,0.509-4.937,2.428-6.058,3.595c-0.247,0.257-0.666,0.758-0.997,1.115
		C47.935,90.276,47.847,91.14,48.266,91.811z"/>
	<g>
		<path fill="#FFA575" d="M49.94,92.677c-0.078,0-0.154-0.002-0.229-0.007l0.033-0.513c2.384,0.165,6.331-2.58,8.401-4.455
			c1.264-1.144,2.533-4.551,3.761-7.846c0.357-0.958,0.709-1.903,1.056-2.776c1.475-3.719,0.146-5.779,0.133-5.8
			c-0.016-0.027-0.491-0.852-2.44-2.07c-1.979-1.236-3.802-1.479-3.82-1.482c-1.692-0.401-6.193-1.413-7.083-1.327l-0.049-0.512
			c1.149-0.108,6.976,1.275,7.224,1.334c0.051,0.005,1.921,0.252,4.001,1.552c2.09,1.306,2.587,2.205,2.607,2.242
			c0.049,0.071,1.478,2.286-0.095,6.253c-0.345,0.87-0.696,1.812-1.052,2.766c-1.25,3.353-2.542,6.819-3.898,8.047
			C56.703,89.701,52.682,92.677,49.94,92.677z"/>
	</g>
	<path fill="#F5B6A4" d="M49.045,91.978l0.339,1.159c0.275,0.085,0.596,0.062,0.907-0.026c2.822-0.799,5.533-2.438,7.211-3.41
		c0.586-0.336,1.945-1.611,1.945-1.611l0.298-0.671c0,0,3.68-6.646,4.462-12.299c0,0,0.036-0.977,0.018-1.707
		c-0.216,1.948-0.599,3.721-1.624,6.268c-0.882,2.188-1.932,4.313-2.973,6.428c-0.235,0.477-0.362,0.934-0.66,1.384
		c-0.064,0.097-0.13,0.196-0.218,0.272c-0.768,0.669-1.565,1.332-2.445,1.856c-2.377,1.416-4.991,2.845-5.975,2.524
		c-0.984-0.321-1.244-0.992-1.244-0.992L49.045,91.978z"/>
	<g>
		<path id="XMLID_103_" fill="#FEBFBF" d="M45.121,89.709c-0.04,0.05-0.285,0.428-0.396,0.578c-0.112,0.152-0.52,0.516-0.592,0.849
			c-0.005,0.019-0.008,0.038-0.014,0.057c-0.084,0.323-0.297,0.72-0.458,0.974c-0.172,0.269-0.427,0.155-0.549,0.143
			c-0.124-0.011-0.389-0.207-0.508-0.174c-0.12,0.032-0.239-0.23-0.447-0.249c-0.208-0.018-0.248-0.28-0.47-0.275
			c-0.222,0.004-0.394-0.349-0.616-0.559c-0.222-0.211-0.164-0.249-0.336-0.659c-0.089-0.212-0.161-0.333-0.198-0.459
			c-0.037-0.118-0.042-0.24-0.006-0.446c0.074-0.423,1.19-1.7,1.203-1.714c0.118-0.136,0.531-0.044,0.693-0.068
			c0.271-0.042,0.549-0.132,0.823-0.064c0.241,0.059,0.513,0.137,0.708,0.284c0.149,0.112,0.302,0.22,0.455,0.327
			C44.982,88.667,45.161,89.66,45.121,89.709z"/>
		<path id="XMLID_102_" fill="#FEBFBF" d="M44.08,91.055c0.012,0.019,0.025,0.067,0.038,0.138c-0.084,0.323-0.297,0.72-0.458,0.974
			c-0.007,0.011-0.015,0.021-0.023,0.032c-0.169,0.228-0.41,0.123-0.526,0.111c-0.124-0.011-0.389-0.207-0.508-0.174
			c-0.12,0.032-0.239-0.23-0.447-0.249c-0.208-0.018-0.248-0.28-0.47-0.275c-0.222,0.004-0.394-0.349-0.616-0.559
			c-0.222-0.211-0.164-0.249-0.336-0.659c-0.089-0.212-0.161-0.333-0.2-0.458c0.002,0,0.002,0,0.001-0.001
			c0.038-0.096,0.08-0.198,0.126-0.299c0.177-0.388,0.407-0.751,0.606-0.561c0.024,0.021,0.048,0.052,0.07,0.091
			c0.04,0.067,0.077,0.161,0.112,0.285c0,0,0.462-0.342,0.767-0.03c0.306,0.309,0.592,0.285,0.644,0.354
			c0.053,0.07,0.311,0.352,0.311,0.352s0.106,0.126,0.312,0.249c0.205,0.123,0.159,0.332,0.159,0.332S44.027,90.974,44.08,91.055z"
			/>
		<path id="XMLID_101_" fill="#FEBFBF" d="M42.357,91.667c0.003,0.025,0.02,0.045,0.036,0.064c0.083,0.095,0.184,0.174,0.296,0.232
			c0.026,0.015,0.054,0.027,0.084,0.025c0.029-0.002,0.055-0.019,0.079-0.036c0.379-0.267,0.563-0.73,0.724-1.167
			c-0.046,0.325-0.208,0.624-0.394,0.896c-0.045,0.067-0.095,0.136-0.109,0.216c-0.016,0.093,0.021,0.193,0.092,0.254
			c0.073,0.061,0.178,0.08,0.267,0.047c0.037-0.014,0.072-0.035,0.112-0.035c0.033,0.001,0.063,0.02,0.092,0.035
			c-0.169,0.228-0.41,0.123-0.526,0.111c-0.124-0.011-0.389-0.207-0.508-0.174c-0.12,0.032-0.239-0.23-0.447-0.249
			c-0.208-0.018-0.248-0.28-0.47-0.275c-0.222,0.004-0.394-0.349-0.616-0.559c-0.222-0.211-0.164-0.249-0.336-0.659
			c-0.089-0.212-0.161-0.333-0.2-0.458c0.002,0,0.002,0,0.001-0.001c0.038-0.096,0.08-0.198,0.126-0.299
			c0.17-0.221,0.371-0.414,0.606-0.561c0.024-0.014,0.049-0.03,0.074-0.044c0.001,0.045,0.001,0.09-0.003,0.135
			c-0.01,0.217-0.063,0.433-0.153,0.632c-0.054,0.118-0.122,0.231-0.166,0.354c-0.036,0.1-0.072,0.247-0.027,0.351
			c0.045,0.104,0.164,0.215,0.239,0.303c0.04,0.045,0.084,0.091,0.141,0.106c0.09,0.025,0.182-0.03,0.254-0.088
			c0.356-0.282,0.624-0.675,0.755-1.108c-0.133,0.46-0.392,0.882-0.74,1.208c-0.017,0.017-0.038,0.036-0.039,0.06
			c-0.001,0.02,0.008,0.038,0.018,0.054c0.137,0.219,0.366,0.361,0.587,0.495c0.016,0.01,0.034,0.021,0.054,0.023
			c0.032,0.004,0.063-0.015,0.09-0.034c0.137-0.103,0.229-0.252,0.31-0.402c0.181-0.336,0.321-0.694,0.412-1.065
			c0.023,0.103-0.013,0.209-0.05,0.308c-0.109,0.285-0.241,0.563-0.372,0.839c-0.06,0.128-0.124,0.26-0.227,0.355
			C42.393,91.588,42.353,91.623,42.357,91.667z"/>
		<path id="XMLID_100_" fill="#FEBFBF" d="M41.764,88.894c0,0-0.52,0.401-0.552,0.542s-0.086,0.82-0.341,1.057
			s-0.696,0.346-0.724,0.029c-0.028-0.317-0.147-1.135-0.147-1.135s-0.029-0.304,0.611-0.853c0.64-0.548,0.981-0.719,1.12-0.76
			s0.481-0.14,0.481-0.14s0.859-0.006,1.056,0.134c0.197,0.141,0.764,0.357,0.696,0.924s-0.66,0.934-1.094,0.918
			C42.435,89.595,41.866,88.921,41.764,88.894z"/>
	</g>
	<g>
		<path id="XMLID_99_" fill="#FEBFBF" d="M49.454,92.354c0.022,0.182,0.022,0.372-0.063,0.483c-0.088,0.115-0.331,0.17-0.466,0.232
			c0,0-0.532,0.335-0.578,0.381c-0.042,0.041-0.915,1.035-1.237,1.354c-0.039,0.039-0.069,0.066-0.09,0.083
			c-0.19,0.15-1.5-0.221-1.615-0.313c-0.115-0.093-0.566-0.545-0.544-0.719c0.004-0.034,0.004-0.065-0.001-0.09
			c-0.018-0.104-0.097-0.153-0.125-0.246c-0.035-0.115-0.232-0.613-0.232-0.613s0.058-0.614,0.104-0.833
			c0.046-0.221,0.336-0.395,0.336-0.395s0-0.22,0-0.324c0-0.014,0.007-0.036,0.019-0.064c0.083-0.193,0.412-0.686,0.502-0.903
			c0.049-0.115,0.265-0.272,0.501-0.407c0.279-0.158,0.585-0.286,0.68-0.279c0.107,0.008,0.642,0.212,1.035,0.368
			c0.638,0.25,1.368,0.8,1.604,1.472c0.052,0.147,0.079,0.302,0.107,0.456C49.408,92.088,49.437,92.218,49.454,92.354z"/>
		<path id="XMLID_98_" fill="#FEBFBF" d="M46.595,94.812c0.113,0,0.325-0.005,0.516-0.008c-0.039,0.039-0.069,0.066-0.09,0.083
			c-0.19,0.15-1.5-0.221-1.615-0.313c-0.115-0.093-0.566-0.545-0.544-0.719c0.004-0.034,0.004-0.065-0.001-0.09
			c-0.018-0.104-0.097-0.153-0.125-0.246c-0.035-0.115-0.232-0.613-0.232-0.613s0.058-0.614,0.104-0.833
			c0.046-0.221,0.336-0.395,0.336-0.395s0-0.22,0-0.324c0-0.014,0.007-0.036,0.019-0.064c0.083-0.193,0.412-0.686,0.502-0.903
			c0.049-0.115,0.265-0.272,0.501-0.407l1.324,0.506l-0.2,0.48l-0.46,0.18l-0.772,0.62l-0.495,0.058c0,0-0.018-0.295-0.139-0.069
			c-0.123,0.225-0.139,0.503-0.139,0.503l1.51,0.156h-0.85l-0.895-0.156l-0.096,0.382l0.206,0.469l1.635,0.348h-0.495l-1.277-0.295
			c0,0-0.086,0.348,0.061,0.451c0.147,0.104,0.339,0.209,0.339,0.209l1.096,0.339h-0.297l-1.162-0.394
			c0.026,0.035,0.46,0.594,0.518,0.653C45.441,94.481,46.362,94.812,46.595,94.812z"/>
		<path id="XMLID_97_" fill="#FEBFBF" d="M47.681,90.069c-0.09,0.168-0.215,0.329-0.391,0.417l-1.12,0.911
			c0,0-0.208,0.296-0.668,0.357c-0.458,0.06-0.564-0.132-0.54-0.464c0.083-0.193,0.412-0.686,0.502-0.903
			c0.104-0.25,1.007-0.7,1.181-0.687C46.752,89.709,47.288,89.914,47.681,90.069z"/>
	</g>
	<path fill="#EEEFF0" d="M47.428,89.503c0,0,0.28-0.234,1.184,0.227c1.46,0.745,1.886,2.682,1.663,3.328
		c-0.223,0.646-0.743,1.301-1.913,0.424l0.407-0.508c0,0,0.822,0.449,0.931-0.294c0.108-0.744-0.049-1.356-0.66-2
		C48.622,90.24,47.911,89.728,47.428,89.503z"/>
	<path fill="#EEEFF0" d="M47.428,89.503l-0.346,0.381l1.352,0.514c0,0,1.586,1.588,1.231,2.688
		c-0.355,1.099-0.536,0.943-0.536,0.943s0.404,0.439,0.855-0.515c0.451-0.953-0.159-1.98-0.159-1.98S48.671,89.679,47.428,89.503z"
		/>
	<path fill="#C2C5C7" d="M47.083,89.84c0,0,0.28-0.234,1.184,0.227c1.459,0.745,1.885,2.682,1.663,3.329
		c-0.222,0.646-0.742,1.301-1.913,0.423l0.407-0.507c0,0,0.822,0.45,0.931-0.294c0.108-0.744-0.049-1.356-0.66-2
		C48.277,90.577,47.566,90.064,47.083,89.84z"/>
	<path fill="#EEEFF0" d="M41.887,87.551c0,0-0.253-0.602,0.501-0.901c0.753-0.299,2.625,0.679,3.055,1.281
		c0.466,0.652,0.949,1.864-0.045,2.264c-0.377,0.152-0.668,0.168-0.877,0.15l0.417-0.809c0,0,0.5,0.094,0.162-0.867
		s-1.527-1.451-2.292-1.388C42.043,87.344,41.887,87.551,41.887,87.551z"/>
	<path fill="#EEEFF0" d="M41.639,87.572c0,0,0.031-0.335,0.303-0.586c0.272-0.251,3.428,0.621,3.729,1.55
		c0.301,0.93,0.308,1.028,0.308,1.028s-0.179,0.686-0.362,0.787s-0.6-0.144-0.6-0.144l0.108-1.175l-1.214-1.234l-2.066-0.375
		L41.639,87.572z"/>
	<path fill="#C2C5C7" d="M41.679,87.942c0,0-0.252-0.602,0.501-0.901c0.754-0.299,2.625,0.679,3.056,1.281
		c0.466,0.652,0.948,1.864-0.045,2.264c-0.377,0.152-0.667,0.168-0.876,0.15l0.417-0.809c0,0,0.5,0.094,0.162-0.867
		c-0.338-0.961-1.527-1.451-2.292-1.388S41.679,87.942,41.679,87.942z"/>
	<path fill="#FBFBFB" d="M48.247,73.705c0,0,1.478,0.916,2.265,0.899c-0.064,0.819,0,0.899,0,0.899s-0.787,0.048-1.542-0.385
		s-0.755-0.434-0.755-0.434L48.247,73.705z"/>
	<path fill="#E3C3C3" d="M59.399,120.758c0.511-0.162,0.961-0.372,1.21-0.611c0.421-0.409,1.048-1.115,0.943-2.395l-0.666-7.885
		l-1.002-4.813l1.986-10.131c0.491-1.743,0.439-3.983,0.35-5.302c0.157,2.681-0.437,4.431-1.095,6.862
		c-0.748,2.755-2.07,8.983-2.07,8.983c1.37,4.819,2.217,11.35,2.003,12.849C60.908,119.362,59.959,120.293,59.399,120.758z"/>
	<g>
		<path fill="#FFA575" d="M55.582,85.089c0.543-0.241,1.321,0.217,1.755,0.594c0.111,0.097,0.273-0.065,0.162-0.162
			c-0.511-0.444-1.329-0.943-2.033-0.63C55.332,84.95,55.448,85.147,55.582,85.089L55.582,85.089z"/>
	</g>
	<g>
		<path fill="#B8BDC2" d="M44.958,88.465c-0.079,0-0.154-0.023-0.22-0.069c-0.084-0.059-0.142-0.147-0.16-0.248l-0.011-0.062
			c-0.019-0.101,0.004-0.204,0.063-0.289s0.147-0.142,0.249-0.16l0.742-0.135c0.104-0.018,0.205,0.004,0.29,0.063
			c0.084,0.06,0.142,0.147,0.159,0.249l0.011,0.061c0.019,0.102-0.004,0.205-0.063,0.289c-0.059,0.085-0.147,0.142-0.249,0.16
			l-0.742,0.135C45.004,88.463,44.981,88.465,44.958,88.465z M45.691,87.752c-0.007,0-0.016,0.001-0.023,0.002l-0.743,0.135
			c-0.035,0.006-0.064,0.025-0.084,0.054c-0.02,0.028-0.027,0.063-0.021,0.097l0.011,0.062c0.006,0.034,0.025,0.063,0.054,0.083
			c0.028,0.02,0.063,0.028,0.097,0.021v-0.001l0.743-0.135c0.035-0.006,0.064-0.025,0.083-0.053c0.02-0.029,0.027-0.063,0.021-0.097
			l-0.011-0.062c-0.006-0.033-0.025-0.063-0.054-0.083C45.743,87.761,45.718,87.752,45.691,87.752z"/>
	</g>
	<g>
		<path fill="#B8BDC2" d="M48.188,90.333c-0.131,0-0.26-0.067-0.332-0.188l-0.389-0.648c-0.109-0.183-0.049-0.421,0.134-0.53
			l0.053-0.031c0.089-0.054,0.193-0.069,0.293-0.043c0.1,0.025,0.184,0.088,0.237,0.176l0.388,0.648
			c0.052,0.088,0.068,0.191,0.043,0.292s-0.087,0.185-0.176,0.238l-0.054,0.031C48.324,90.315,48.255,90.333,48.188,90.333z
			 M47.688,89.365l0.388,0.647c0.037,0.062,0.118,0.081,0.177,0.044l0.054-0.032c0.03-0.018,0.051-0.046,0.059-0.08
			c0.008-0.033,0.003-0.068-0.014-0.098l-0.389-0.648c-0.018-0.029-0.045-0.05-0.079-0.059c-0.033-0.008-0.068-0.004-0.098,0.015
			l-0.053,0.031C47.672,89.224,47.652,89.304,47.688,89.365L47.688,89.365z"/>
	</g>
	<g>
		<path fill="#EEEFF0" d="M47.815,89.519c-0.131,0-0.26-0.067-0.333-0.188l-0.388-0.648c-0.109-0.184-0.049-0.421,0.134-0.53
			l0.054-0.032c0.087-0.053,0.192-0.068,0.292-0.043c0.1,0.025,0.184,0.088,0.237,0.177l0.388,0.647
			c0.053,0.088,0.068,0.192,0.043,0.293c-0.025,0.1-0.087,0.185-0.176,0.237l-0.054,0.032C47.951,89.5,47.883,89.519,47.815,89.519z
			 M47.316,88.551l0.388,0.647c0.036,0.062,0.117,0.081,0.177,0.045l0.054-0.032c0.029-0.018,0.05-0.046,0.059-0.08
			c0.008-0.033,0.003-0.068-0.015-0.098l-0.388-0.647c-0.018-0.03-0.046-0.051-0.079-0.06c-0.035-0.008-0.069-0.003-0.098,0.015
			l-0.054,0.032C47.299,88.41,47.279,88.489,47.316,88.551L47.316,88.551z"/>
	</g>
	<g>
		<path fill="#EEEFF0" d="M46.533,88.433c-0.011,0-0.021,0-0.031-0.001l-0.753-0.06c-0.103-0.008-0.197-0.056-0.264-0.135
			c-0.067-0.079-0.099-0.179-0.091-0.281l0.005-0.061c0.008-0.103,0.056-0.197,0.134-0.264c0.079-0.067,0.181-0.102,0.282-0.091
			l0.752,0.06c0.103,0.008,0.196,0.056,0.264,0.135c0.067,0.078,0.099,0.178,0.091,0.281l-0.005,0.061
			C46.902,88.279,46.732,88.433,46.533,88.433z M45.77,88.116l0.752,0.06c0.077,0.002,0.134-0.048,0.14-0.12l0.005-0.061
			c0.002-0.035-0.008-0.068-0.03-0.095c-0.022-0.026-0.054-0.042-0.089-0.045l-0.752-0.06c-0.033,0-0.068,0.008-0.095,0.031
			c-0.026,0.022-0.042,0.053-0.044,0.088l-0.005,0.062c-0.003,0.035,0.007,0.068,0.03,0.095
			C45.703,88.098,45.735,88.114,45.77,88.116L45.77,88.116z"/>
	</g>
	<g>
		<path fill="#B8BDC2" d="M47.101,88.723c-0.063,0-0.126-0.016-0.183-0.046l-0.665-0.357c-0.091-0.049-0.158-0.13-0.187-0.229
			c-0.03-0.099-0.02-0.203,0.029-0.294l0.029-0.055c0.1-0.187,0.335-0.259,0.523-0.158l0.666,0.357
			c0.091,0.049,0.157,0.131,0.187,0.229c0.03,0.099,0.02,0.204-0.03,0.295l-0.029,0.054c-0.049,0.091-0.13,0.158-0.229,0.187
			C47.176,88.717,47.138,88.723,47.101,88.723z M46.375,88.093l0.665,0.357c0.063,0.033,0.141,0.011,0.175-0.053l0.029-0.055
			c0.017-0.03,0.02-0.065,0.01-0.099c-0.01-0.033-0.032-0.061-0.063-0.077l-0.666-0.357c-0.063-0.035-0.142-0.01-0.175,0.053
			l-0.029,0.054c-0.016,0.031-0.02,0.066-0.01,0.099C46.322,88.049,46.344,88.077,46.375,88.093L46.375,88.093z"/>
	</g>
	<g>
		<path fill="#FBFBFB" d="M55.919,65.811c0,0,2.15,0.548,2.527,1.491c0.377,0.942-0.271,2.484-5.841,5.29
			c-0.835-0.857-1.791-4.918-0.588-6.161C53.217,65.188,55.919,65.811,55.919,65.811z"/>
		<path fill="#FFADB7" d="M52.936,66.951c-0.1,0.48-0.54,1.362,0.588,1.84c0.432,0.183,1.056,0.252,1.668,0.162
			c0.224-0.034,0.442-0.087,0.65-0.169c0.707-0.267,1.264-0.817,1.264-1.745c-0.005-1.943,0.008-2.395,0.483-3.976
			c0.35-1.174-1.038-1.568-1.781-1.694c0-0.003-0.002,0-0.002,0c-0.257-0.043-0.434-0.054-0.434-0.054l-2.768,3.12
			c0,0,0.136,0.635,0.236,1.277C52.92,66.222,52.979,66.738,52.936,66.951z"/>
		
			<linearGradient id="SVGID_1_" gradientUnits="userSpaceOnUse" x1="1827.8149" y1="65.0332" x2="1824.7401" y2="65.2437" gradientTransform="matrix(-1 0 0 1 1883.0107 0)">
			<stop  offset="0.1224" style="stop-color:#F59FB0"/>
			<stop  offset="0.9896" style="stop-color:#F8A8B2"/>
		</linearGradient>
		<path fill="url(#SVGID_1_)" d="M54.46,68.29c0.396,0.283,0.905,0.427,1.383,0.494c0.707-0.267,1.264-0.817,1.264-1.745
			c-0.005-1.943,0.008-2.395,0.483-3.976c0.35-1.174-1.038-1.568-1.781-1.694c0-0.003-0.002,0-0.002,0
			c-1.051,0.781-1.47,3.066-1.681,3.693C53.82,65.978,53.404,67.537,54.46,68.29z"/>
		<g>
			<path fill="#FEBFBF" d="M50.399,64.24c0.38,1.354,0.938,2.359,1.57,2.542c0.499,0.144,2.875,0.251,4.41-1.182
				c0.412-0.386,0.687-1.452,0.938-1.977c0.118-0.247,0.236-0.491,0.35-0.732c1.046-2.194,1.86-4.232,0.886-6.225
				c-0.758-1.55-3.053-2.238-4.422-1.835c0,0-2.725,0.691-3.352,2.822c-0.046,0.154-0.087,0.298-0.123,0.432l-0.005,0.018
				c-0.48,1.699-0.375,1.833-0.298,2.608C50.433,61.552,50.019,62.883,50.399,64.24z"/>
			<path fill="#E6BCCB" d="M50.243,63.266c0.018,0.319,0.064,0.646,0.157,0.975c0.38,1.354,0.938,2.359,1.57,2.542
				c0.499,0.144,2.875,0.251,4.41-1.182c0.412-0.386,0.687-1.452,0.938-1.977c0.054-0.113,0.108-0.224,0.162-0.334
				c-0.007-1.018-0.707-1.845-0.707-1.845s-0.394,0.365-0.555,1.043c-0.162,0.678-0.738,1.441-1.326,1.719
				c-0.589,0.278-1.488,0.47-2.429,0.257c-0.94-0.214-1.567-0.504-1.876-0.943C50.479,63.366,50.356,63.294,50.243,63.266z"/>
			<path fill="#F2AEAE" d="M50.657,58.085c0.033-0.072,0.18-0.354,0.519-0.234c0.473,0.165,0.681,0.519,1.064,0.637
				c2.708,0.83,3.212,0.093,3.484,1.318c0.275,1.233,0.494,2.681,0.494,2.681l0.807-1.316c0,0,0.617,0.067,0.974,0.522
				c-0.095,0.388-0.206,0.799-0.332,1.197c1.046-2.194,1.86-4.232,0.886-6.225c-0.758-1.55-3.053-2.238-4.422-1.835
				c0,0-2.725,0.691-3.352,2.822C50.733,57.808,50.692,57.951,50.657,58.085z"/>
			
				<linearGradient id="SVGID_2_" gradientUnits="userSpaceOnUse" x1="-5736.0972" y1="-865.1831" x2="-5733.292" y2="-866.4503" gradientTransform="matrix(0.9834 -0.1815 0.1815 0.9834 5854.4678 -127.4744)">
				<stop  offset="0.1224" style="stop-color:#FEB9B8"/>
				<stop  offset="1" style="stop-color:#FFDEDE"/>
			</linearGradient>
			<path fill="url(#SVGID_2_)" d="M56.773,61.623c0,0,0.231-0.875,1.145-0.799c0.913,0.076,0.931,1.097,0.163,2.155
				c-0.768,1.058-1.188,0.055-1.246-0.005S57.113,62.194,56.773,61.623z"/>
			
				<linearGradient id="SVGID_3_" gradientUnits="userSpaceOnUse" x1="-5734.6934" y1="-866.186" x2="-5735.4785" y2="-865.1937" gradientTransform="matrix(0.9834 -0.1815 0.1815 0.9834 5854.4678 -127.4744)">
				<stop  offset="0.1224" style="stop-color:#FCA4B5"/>
				<stop  offset="0.9896" style="stop-color:#FFADB7"/>
			</linearGradient>
			<path fill="url(#SVGID_3_)" d="M57.11,61.685c0,0,0.3-0.523,0.709-0.396c0.629,0.197-0.026,1.289-0.084,1.423
				c-0.058,0.134-0.49,0.165-0.591-0.114C57.042,62.32,57.47,61.993,57.11,61.685z"/>
		</g>
		<g>
			
				<ellipse transform="matrix(-0.9991 0.0423 -0.0423 -0.9991 104.2835 120.6805)" fill="#FFFFFF" cx="50.865" cy="61.443" rx="0.202" ry="0.473"/>
			<path fill="#FEBFBF" d="M51.19,62.701c-0.129,0.091-0.364-0.039-0.524-0.292c-0.161-0.252-0.187-0.531-0.057-0.623
				c0.129-0.091,0.364,0.039,0.524,0.291C51.293,62.331,51.319,62.609,51.19,62.701z"/>
			<path fill="#FFADB7" d="M51.01,62.665c-0.134,0.096-0.342,0.011-0.464-0.188c-0.123-0.2-0.113-0.438,0.021-0.534
				c0.134-0.095,0.342-0.011,0.464,0.189C51.154,62.331,51.145,62.57,51.01,62.665z"/>
			<path fill="#FFFFFF" d="M53.451,62.27c-0.005,0.173-0.021,0.552-0.021,0.552s-0.176-0.096-0.292-0.091
				c-0.182,0.007-0.34,0.063-0.292-0.491c0.021-0.241,0.129-0.445,0.311-0.452C53.339,61.779,53.458,62.027,53.451,62.27z"/>
			<path fill="#FEBFBF" d="M53.619,62.92c0,0-0.341,0.351-0.638,0.314s-0.529-0.193-0.518-0.351
				c0.011-0.158,0.261-0.256,0.558-0.221C53.318,62.699,53.619,62.92,53.619,62.92z"/>
			<g>
				<path fill="#754554" d="M52.756,60.996c0.323,0.171,0.607,0.424,0.878,0.666c0.15,0.132,0.371-0.088,0.221-0.221
					c-0.29-0.256-0.597-0.531-0.942-0.714C52.736,60.633,52.579,60.902,52.756,60.996L52.756,60.996z"/>
			</g>
			<g>
				<path fill="#754554" d="M51.178,59.969c-0.27,0.007-0.613-0.015-0.859,0.112c-0.179,0.092-0.021,0.361,0.157,0.269
					c0.187-0.096,0.494-0.064,0.702-0.07C51.378,60.275,51.379,59.964,51.178,59.969L51.178,59.969z"/>
			</g>
			<g>
				<path fill="#C28698" d="M50.957,64.836c0.41-0.215,0.739,0.074,0.96,0.419c0.079,0.124,0.277,0.009,0.198-0.115
					c-0.292-0.455-0.742-0.78-1.273-0.501C50.711,64.707,50.826,64.904,50.957,64.836L50.957,64.836z"/>
			</g>
			<path fill="#FC9AB2" d="M51.454,63.57L51.454,63.57c-0.212-0.033-0.356-0.232-0.323-0.444l0.295-1.725
				c0.034-0.212,0.232-0.357,0.444-0.323l0,0c0.212,0.033,0.356,0.232,0.323,0.444l-0.295,1.725
				C51.864,63.459,51.666,63.604,51.454,63.57z"/>
			<path fill="#FC9AB2" d="M51.491,63.788l-0.449-0.163c-0.195-0.07-0.295-0.286-0.225-0.48l0,0
				c0.094-0.257,0.381-0.392,0.638-0.298l0.221,0.08c0.257,0.093,0.391,0.38,0.297,0.637v0.001
				C51.901,63.758,51.686,63.858,51.491,63.788z"/>
			
				<linearGradient id="SVGID_4_" gradientUnits="userSpaceOnUse" x1="-4570.1948" y1="63.7661" x2="-4570.4429" y2="60.7625" gradientTransform="matrix(1 0 0 1 4622.0239 0)">
				<stop  offset="0.1224" style="stop-color:#FB7F9E"/>
				<stop  offset="1" style="stop-color:#FCA4B5"/>
			</linearGradient>
			<path fill="url(#SVGID_4_)" d="M52.193,61.521l-0.273,1.597c0.084,0.128,0.108,0.291,0.054,0.444
				c-0.057,0.152-0.2,0.247-0.352,0.247c-0.043,0-0.087-0.007-0.128-0.023l-0.224-0.08c0.082,0.023,0.329,0.077,0.468-0.06
				c0.059-0.056,0.085-0.146,0.092-0.236c0.018-0.172-0.025-0.357-0.025-0.357l0.013-0.049l0.379-1.518
				C52.196,61.498,52.196,61.511,52.193,61.521z"/>
			
				<ellipse transform="matrix(0.9612 0.2757 -0.2757 0.9612 19.4932 -12.1877)" fill="#FFADB7" cx="53.094" cy="63.237" rx="0.683" ry="0.364"/>
		</g>
		<g>
			<g>
				<path fill="#D99AAD" d="M53.77,65.938c1.006-0.177,2.015-0.735,2.581-1.596c0.055-0.083-0.079-0.161-0.133-0.078
					c-0.544,0.827-1.523,1.355-2.489,1.525C53.631,65.806,53.672,65.954,53.77,65.938L53.77,65.938z"/>
			</g>
			<g>
				<path fill="#D99AAD" d="M53.818,65.484c-0.032,0.229-0.025,0.489,0.15,0.663c0.07,0.07,0.18-0.039,0.109-0.109
					c-0.132-0.131-0.135-0.344-0.111-0.513C53.98,65.428,53.831,65.386,53.818,65.484L53.818,65.484z"/>
			</g>
			<g>
				<path fill="#D99AAD" d="M54.403,65.273c-0.031,0.229-0.025,0.488,0.151,0.663c0.07,0.07,0.179-0.039,0.109-0.109
					c-0.131-0.131-0.134-0.344-0.111-0.513C54.565,65.217,54.417,65.175,54.403,65.273L54.403,65.273z"/>
			</g>
			<g>
				<path fill="#D99AAD" d="M54.893,65.083c0.066,0.223,0.188,0.45,0.418,0.533c0.093,0.034,0.134-0.115,0.041-0.148
					c-0.175-0.063-0.263-0.263-0.311-0.425C55.013,64.947,54.865,64.988,54.893,65.083L54.893,65.083z"/>
			</g>
			<g>
				<path fill="#D99AAD" d="M55.566,64.652c0.066,0.222,0.188,0.45,0.419,0.533c0.093,0.034,0.134-0.115,0.041-0.148
					c-0.175-0.063-0.263-0.264-0.311-0.425C55.686,64.517,55.538,64.557,55.566,64.652L55.566,64.652z"/>
			</g>
		</g>
		<g>
			<path fill="#FDEBEE" d="M54.95,63.145l0.794-0.648c0.083-0.068,0.104-0.202,0.044-0.298l-0.049-0.081
				c-0.059-0.096-0.174-0.12-0.258-0.051l-0.794,0.647c-0.084,0.068-0.104,0.202-0.045,0.299l0.049,0.08
				C54.751,63.189,54.867,63.213,54.95,63.145z"/>
			<path fill="#FEF9FA" d="M54.75,62.298l0.56,0.919c0.059,0.097,0.174,0.12,0.258,0.051l0.069-0.056
				c0.083-0.068,0.104-0.202,0.045-0.299l-0.56-0.919c-0.059-0.097-0.174-0.12-0.258-0.052l-0.07,0.057
				C54.711,62.067,54.691,62.201,54.75,62.298z"/>
		</g>
	</g>
	<g>
		<path fill="#FF9061" d="M59.387,96.743c-2.392-1.409-2.804-4.14-2.821-4.256l0.509-0.072c0.003,0.026,0.398,2.604,2.572,3.885
			L59.387,96.743z"/>
	</g>
</g>
</svg>
