<?xml version="1.0" encoding="utf-8"?>
<!-- Generator: Adobe Illustrator 16.0.0, SVG Export Plug-In . SVG Version: 6.00 Build 0)  -->
<!DOCTYPE svg PUBLIC "-//W3C//DTD SVG 1.1//EN" "http://www.w3.org/Graphics/SVG/1.1/DTD/svg11.dtd">
<svg version="1.1" id="Layer_1" xmlns="http://www.w3.org/2000/svg" xmlns:xlink="http://www.w3.org/1999/xlink" x="0px" y="0px"
	 width="463.683px" height="425.749px" viewBox="0 0 463.683 425.749" enable-background="new 0 0 463.683 425.749"
	 xml:space="preserve">
<g>
	<path fill="#B24E6D" d="M224.784,87.059c0,0,1.532-0.476,2.785,0.512c1.434,1.128,0.663,3.559,0.229,4.568
		c-0.468,1.086-0.788,3.363,0.658,4.223c-0.358,0.903-2.612,0.147-3.295-0.282S221.857,89.54,224.784,87.059z"/>
	<g>
		<path fill="#D7E4F2" d="M214.115,153.701c4.183,2.661,11.16,2.95,15.584,0.644c4.424-2.306,4.62-6.333,0.438-8.995
			c-4.184-2.662-11.16-2.95-15.584-0.645C210.128,147.012,209.932,151.039,214.115,153.701z"/>
		<g>
			<path fill="#FFA1A3" d="M219.927,144.472c0,0,1.118,0.945,0.963,1.523c-0.154,0.578-2.333,4.154-3.487,4.574
				c-2.402,0.874-1.856-1.335-1.462-1.793c0.349-0.404,1.741-1.519,1.715-2.56C217.621,144.811,219.927,144.472,219.927,144.472z"/>
			<path fill="#8E8E8E" d="M219.705,147.789c0,0,0.407,0.133,0.415,0.442c0.009,0.309,0.059,1.47,0.059,1.47s0.273,0.143,0.425,0.07
				c0.151-0.073,0.363-0.44,0.363-0.44s0.19-2.287,0.302-2.752C221.379,146.113,219.705,147.789,219.705,147.789z"/>
			<path fill="#C2D2EA" d="M220.994,145.12c0,0-1.597,1.949-2.224,3.23s-1.315,1.801-1.829,1.785
				c-0.818-0.026-1.352-0.525-1.176-0.942s0.176-0.417,0.176-0.417s-2.075,2.209-1.794,3.586s3.924-0.55,4.476-1.269
				c0.211-0.274,0.62-2.271,1.095-2.842c0.474-0.57,1.22-0.333,1.518-1.495S220.994,145.12,220.994,145.12z"/>
			<path fill="#8E8E8E" d="M219.818,147.976c-0.475,0.57-1.079,2.668-1.29,2.942c-0.513,0.668-3.716,2.343-4.383,1.418
				c0.001,0.008,0,0.017,0.002,0.024c0.281,1.376,3.924-0.55,4.476-1.269c0.21-0.274,0.62-2.271,1.095-2.842
				c0.413-0.497,1.258-0.344,1.461-1.307C220.839,147.181,220.162,147.562,219.818,147.976z"/>
			<path fill="#8E8E8E" d="M227.973,144.06c0,0,0.6-0.147,0.579,0.161c-0.021,0.308-0.201,2.225-0.201,2.225s0.13,0.139,0.287,0.081
				c0.157-0.059,0.402-0.404,0.402-0.404s0.334-1.865,0.349-2.343C229.407,143.212,227.973,144.06,227.973,144.06z"/>
			
				<linearGradient id="SVGID_1_" gradientUnits="userSpaceOnUse" x1="1211.5718" y1="187.2305" x2="1215.9136" y2="187.2305" gradientTransform="matrix(-0.9957 -0.0923 -0.0923 0.9957 1452.5281 70.251)">
				<stop  offset="0.1224" style="stop-color:#FEC7C7"/>
				<stop  offset="0.9694" style="stop-color:#FFADB7"/>
			</linearGradient>
			<path fill="url(#SVGID_1_)" d="M228.27,141.362c0,0,0.845,0.756,0.782,1.673c-0.062,0.9-1.377,4.503-2.551,4.865
				c-1.174,0.363-2.29-0.443-2.168-0.961c0.123-0.519,1.227-2.087,1.572-3.357C226.275,142.227,228.27,141.362,228.27,141.362z"/>
			<path fill="#C2D2EA" d="M225.928,143.049c0,0-0.951,1.588-1.386,2.681c-0.945,2.382-0.958,3.444-0.81,4.03
				c0.155,0.612,1.924,0.16,3.211-0.79c1.475-1.089,0.928-2.509,1.865-3.871c0.304-0.442,0.581-0.761,0.63-1.848
				c0.058-0.922-0.739-1.347-0.739-1.347s0.571,0.967,0.203,1.732c-0.185,0.385-0.132,0.558-0.405,1.038
				c-0.545,0.954-0.675,1.907-1.423,2.579c-0.701,0.631-2.661,0.124-2.588-0.266c0.135-0.721,0.831-1.913,1.118-2.58
				C225.946,143.611,225.928,143.049,225.928,143.049z"/>
			<path fill="#8E8E8E" d="M228.755,144.992c-0.938,1.362-0.347,2.693-1.821,3.782c-1.19,0.879-2.896,1.352-3.225,0.894
				c0.008,0.031,0.017,0.062,0.023,0.092c0.155,0.612,1.924,0.16,3.211-0.79c1.475-1.089,0.928-2.509,1.865-3.871
				c0.198-0.289,0.494-0.57,0.552-1.154C229.187,144.251,228.903,144.778,228.755,144.992z"/>
			<g>
				<path fill="#738E9E" d="M221.021,131.938c-0.001,0.002-0.001,0.002-0.001,0.004c-0.022,0.098-0.049,0.191-0.079,0.278
					c-0.094,0.278-0.266,0.5-0.491,0.671c0,0,0,0,0,0.002c-1.101,0.851-3.424,0.489-3.665-0.347
					c-0.661-2.285-1.462-8.451-1.977-11.471c-0.517-3.019,0.646-8.207,0.646-8.207s5.461,1.887,6.444,2.568
					c0.585,0.403,0.343,3.314-0.012,5.899c-0.243,1.775-0.541,3.397-0.663,3.951C220.939,126.577,221.443,130.16,221.021,131.938z"
					/>
				<path fill="#738E9E" d="M220.501,145.396c-0.023,0.219-0.179,0.417-0.422,0.56c-0.526,0.31-1.46,0.354-2.351-0.255
					c0,0-1.057-14.286-1.992-18.645c1.637-0.368,4.099,4.396,4.808,4.351c0.345-0.022,0.52,0.115,0.477,0.531
					c-0.001,0.002-0.001,0.002-0.001,0.004c-0.139,1.275,0.678,5.057,0.467,6.539C221.275,139.965,220.574,144.702,220.501,145.396z
					"/>
				<path fill="#A8B0C2" d="M220.501,145.396c-0.023,0.219-0.179,0.417-0.422,0.56c0.143-1.772,0.383-4.004,0.71-5.62
					c0.476-2.35-0.27-5.709-0.34-7.442c0-0.002,0-0.002,0-0.002c-0.013-0.309-0.003-0.604,0.043-0.88
					c0.03-0.182,0.047-0.385,0.052-0.604c0.063-1.976-0.696-5.245-0.524-6.453c0.064-0.451,0.179-1.661,0.02-2.349
					c-0.313-1.357-1.076-2.252-1.076-2.252c1.176,0.105,2.139,0.45,2.924,0.983c-0.243,1.775-0.541,3.397-0.663,3.951
					c-0.285,1.289,0.219,4.872-0.203,6.65c-0.001,0.002-0.001,0.002-0.001,0.004c-0.139,1.275,0.678,5.057,0.467,6.539
					C221.275,139.965,220.574,144.702,220.501,145.396z"/>
				<path fill="#738E9E" d="M218.191,116.99c0,0-0.098,1.824,0.547,2.997c0.644,1.173,1.798,1.986,1.798,1.986
					s1.86,7.472,3.538,10.45c0.752,1.335,3.217,0.945,3.42-1.432s0.22-4.483,1.126-9.705c0.221-1.272,0.277-3.555-1.453-6.018
					S218.191,116.99,218.191,116.99z"/>
				<g>
					<g>
						<path fill="#92BACF" d="M224.564,120.309c-2.734-0.118-2.966-1.957-2.968-1.977l0.244-0.027
							c0.009,0.075,0.248,1.821,3.146,1.763l0.005,0.245C224.842,120.316,224.7,120.315,224.564,120.309z"/>
					</g>
					<path fill="#AF727B" d="M228.103,116.947c0,0-2.215,0.65-5.457,0.757c-3.242,0.107-4.462-0.241-5.531-0.861
						c-1.068-0.619-1.713-1.484-1.713-1.484l0.23-1.438c0,0,0.59,1.108,2.116,1.751c1.526,0.644,4.843,0.593,6.194,0.507
						s3.919-0.929,3.919-0.929L228.103,116.947z"/>
					<path fill="#738E9E" d="M221.076,116.293c0,0-0.098,0.413-0.121,0.895c-0.024,0.482-0.027,1.363-0.027,1.363l-0.489-0.042
						c0,0-0.069-0.843-0.042-1.271c0.028-0.429,0.154-1.03,0.154-1.03L221.076,116.293z"/>
					<path fill="#738E9E" d="M216.601,114.953c0,0-0.131,0.514-0.157,0.924c-0.027,0.411,0.024,1.102,0.024,1.102l-0.319-0.424
						c0,0-0.035-0.701-0.021-0.924c0.015-0.224,0.21-0.891,0.21-0.891L216.601,114.953z"/>
					<g>
						<path fill="#92BACF" d="M214.97,117.415c-0.023-0.001-0.047-0.004-0.071-0.011l0.061-0.237
							c0.007,0.002,0.014,0.003,0.021,0.003c0.223,0.01,0.551-0.64,0.708-1.133l0.233,0.074
							C215.85,116.341,215.473,117.437,214.97,117.415z"/>
					</g>
					<g>
						<path fill="#CCDEFB" d="M218.658,117.774c-0.057-0.001-0.115-0.011-0.173-0.028l-0.908-0.27
							c-0.388-0.115-0.681-0.542-0.668-0.973l0.013-0.411c0.006-0.209,0.083-0.392,0.217-0.514c0.152-0.137,0.359-0.18,0.57-0.117
							l0.908,0.27c0.388,0.115,0.681,0.542,0.668,0.973l-0.012,0.41c-0.006,0.21-0.084,0.392-0.218,0.514
							C218.946,117.729,218.806,117.778,218.658,117.774z M217.534,115.904c-0.063-0.001-0.117,0.017-0.157,0.054
							c-0.042,0.037-0.064,0.091-0.066,0.161l-0.012,0.411c-0.006,0.201,0.165,0.431,0.365,0.49l0.908,0.27
							c0.097,0.029,0.188,0.015,0.246-0.038c0.041-0.038,0.063-0.092,0.065-0.161l0.012-0.411c0.006-0.202-0.164-0.431-0.364-0.491
							l-0.908-0.27C217.591,115.91,217.562,115.905,217.534,115.904z"/>
					</g>
				</g>
				<path fill="#738E9E" d="M224.123,131.322c0,0-0.541,0.193-0.049,1.102c0.492,0.908,2.525,7.094,2.146,10.283
					c1.046,0.96,2.223,0.668,2.556-0.339c0.332-1.006,0.681-7.88,0.229-9.269c-0.451-1.389-1.503-2.142-1.427-3.183
					C227.653,128.875,224.123,131.322,224.123,131.322z"/>
				<g>
					<path fill="#92BACF" d="M228.626,142.871l-0.243-0.031c0.97-7.645-0.546-10.256-1.043-11.114l-0.05-0.085
						c-0.491-0.859-0.139-6.069,0.189-8.622c0.462-3.616-1.117-5.593-1.134-5.612l0.189-0.156c0.068,0.083,1.664,2.072,1.187,5.8
						c-0.373,2.912-0.629,7.751-0.219,8.469l0.049,0.084C228.061,132.479,229.607,135.144,228.626,142.871z"/>
				</g>
			</g>
		</g>
		<g>
			<path fill="#FEBFBF" d="M215.658,101.119c0,0-1.871,3.437-2.299,5.958s1.292,1.062,1.997,0.344
				C216.059,106.701,220.663,98.736,215.658,101.119z"/>
			<path fill="#B9D3E1" d="M220.515,95.169l-1.986-0.034c0,0-1.935,0.556-2.445,1.621c-0.51,1.065-1.14,3.723-1.14,3.723
				s0.564,1.05,1.236,1.379C216.851,102.188,220.515,95.169,220.515,95.169z"/>
			<path fill="#B9D3E1" d="M214.944,100.479c0,0-1.457,4.644-1.653,5.163c-0.196,0.519,0.875,0.783,1.031,1.341
				c0.156,0.558-0.18,1.398-0.108,1.358c0.073-0.041,0.533-0.24,1.024-0.804c0.49-0.563,2.505-5.398,2.214-5.99
				C217.16,100.956,214.944,100.479,214.944,100.479z"/>
			<path fill="#FFFFFF" d="M227.692,116.894c0,0-1.016-0.052-2.998,0.206s-6.135,0.567-8.497-1.571
				c-1.572-1.378-1.232-1.367-1.193-1.649c0.041-0.283,0.557-4.281,0.452-5.954c-0.104-1.673-0.556-2.422-0.198-3.668
				c0.358-1.246,0.779-1.799,1.069-3.325c0.289-1.526,0.974-4.336,1.127-4.541c1.02-1.361,3.238-1.244,3.611-1.208
				c0.228,0.022,4.218,0.557,4.218,0.557s0.728-0.004,1.566,0.81c0.886,0.859,2.707,2.196,2.707,2.196l-1.78,13.008L227.692,116.894
				z"/>
			<path fill="#92BACF" d="M221.065,95.183c0,0-1.499-0.318-2.605,0.174c-1.106,0.493-1.479,2.076-1.912,3.822
				s-1.46,3.986-1.715,6.279c-0.254,2.293-0.219,7.864-0.219,7.864l0.55-0.751c0,0,0.355-1.938,0.454-3.831
				c0.09-1.73-0.082-3.425-0.015-3.53c0.143-0.221,3.271-7.435,3.529-7.747C219.392,97.15,220.521,95.38,221.065,95.183z"/>
			
				<linearGradient id="SVGID_2_" gradientUnits="userSpaceOnUse" x1="1300.3501" y1="156.0732" x2="1301.2054" y2="155.6534" gradientTransform="matrix(0.9991 0.0431 -0.0431 0.9991 -1078.2738 -105.6812)">
				<stop  offset="0.1224" style="stop-color:#FEB9B8"/>
				<stop  offset="1" style="stop-color:#FFDEDE"/>
			</linearGradient>
			<path fill="url(#SVGID_2_)" d="M215.287,106.243c0,0-0.031,0.229-0.233,0.309c-0.203,0.079-0.745-0.221-0.745-0.221
				s-0.009-0.822,0.106-0.77c0.115,0.052,0.512,0.381,0.512,0.381S215.357,106.124,215.287,106.243z"/>
			<path fill="#FEBFBF" d="M224.812,95.083c0.138,0.013,0.473,0.554,1.075,0.883c0.602,0.329,0.616,0.412-0.151,1.06
				s-3.525,3.565-5.186,3.14c-1.661-0.426-1.51-2.053-1.418-2.702c0.093-0.648,1.15-2.093,1.479-2.222
				S224.812,95.083,224.812,95.083z"/>
			<path fill="#92BACF" d="M226.109,96.001c0,0-3.534,3.146-4.401,5.342c-0.866,2.196,0.148,5.807-1.584,14.66
				c0.296,1.328,9.788,0.822,9.444-1.643c-0.152-1.097-0.012-15.615-0.012-15.615S226.599,96.165,226.109,96.001z"/>
			<g>
				<path fill="#DBE8EF" d="M226.503,112.805c-1.42-0.331-3.706-1.953-3.803-2.021l0.142-0.2c0.024,0.017,2.345,1.663,3.717,1.983
					L226.503,112.805z"/>
			</g>
			<path fill="#A8B0C2" d="M226.394,102.749c0,0,0.021,6.029,0.093,7.263s-0.753,8.049-0.753,8.049s1.423-0.228,1.658-0.548
				c0.234-0.321,0.678-7.416,0.398-9.248C227.511,106.435,226.394,102.749,226.394,102.749z"/>
			
				<linearGradient id="SVGID_3_" gradientUnits="userSpaceOnUse" x1="1620.604" y1="130.5327" x2="1617.7523" y2="127.75" gradientTransform="matrix(0.99 0.1411 -0.1411 0.99 -1360.9968 -261.7202)">
				<stop  offset="0.1224" style="stop-color:#FEC7C7"/>
				<stop  offset="0.9694" style="stop-color:#FFADB7"/>
			</linearGradient>
			<path fill="url(#SVGID_3_)" d="M220.208,94.657c0,0,0.265,0.7,0.177,1.322c-0.089,0.622-0.479,1.648-0.479,1.648
				s0.353,0.753,1.888,0.647c1.535-0.105,1.61-0.635,2.106-0.889c0.495-0.254,1.793-1.458,1.719-1.549
				c-0.075-0.092-1.315-0.775-0.754-2.57s1.318-2.705,1.318-2.705s0.455-0.745-0.072-0.82
				C225.583,89.666,220.208,94.657,220.208,94.657z"/>
			
				<linearGradient id="SVGID_4_" gradientUnits="userSpaceOnUse" x1="1615.6626" y1="130.2759" x2="1619.1313" y2="130.2759" gradientTransform="matrix(0.99 0.1411 -0.1411 0.99 -1360.9968 -261.7202)">
				<stop  offset="0.1224" style="stop-color:#FCA4B5"/>
				<stop  offset="0.9896" style="stop-color:#FFADB7"/>
			</linearGradient>
			<path fill="url(#SVGID_4_)" d="M223.815,93.937c0,0-1.354,1.163-1.654,1.769c-0.301,0.606-1.603,1.394-1.603,1.394l-0.155-1.377
				l-0.194-1.064L223.815,93.937z"/>
			<path fill="#FEC7C7" d="M220.198,86.196c0,0-0.573,0.418-0.974,1.334c-0.401,0.916-0.688,1.7-0.672,1.864
				c0.018,0.165,0.143,0.521-0.1,1.175c-0.242,0.655,0.295,4.002,1.001,4.359s4.075-0.622,4.465-1.08s1.414-2.339,1.584-3.626
				c0.17-1.286,0.612-2.777-1.226-3.634C222.44,85.731,220.198,86.196,220.198,86.196z"/>
			<g>
				
					<linearGradient id="SVGID_5_" gradientUnits="userSpaceOnUse" x1="1614.5562" y1="126.2183" x2="1613.7936" y2="126.2701" gradientTransform="matrix(0.99 0.1411 -0.1411 0.99 -1360.9968 -261.7202)">
					<stop  offset="0.1224" style="stop-color:#FEC7C7"/>
					<stop  offset="0.9896" style="stop-color:#FFDBDB"/>
				</linearGradient>
				<path fill="url(#SVGID_5_)" d="M219.618,89.793c0.056,0.368-0.954,1.824-1.01,2.156c-0.057,0.332,0.883,0.349,0.883,0.349
					L219.618,89.793z"/>
				
					<linearGradient id="SVGID_6_" gradientUnits="userSpaceOnUse" x1="1613.645" y1="126.248" x2="1614.6245" y2="126.248" gradientTransform="matrix(0.99 0.1411 -0.1411 0.99 -1360.9968 -261.7202)">
					<stop  offset="0.188" style="stop-color:#FFDCDC"/>
					<stop  offset="0.8991" style="stop-color:#FEC7C7"/>
				</linearGradient>
				<path fill="url(#SVGID_6_)" d="M219.434,92.346c-0.175-0.008-0.672-0.046-0.829-0.234c-0.041-0.05-0.057-0.107-0.047-0.17
					c0.025-0.146,0.209-0.472,0.422-0.849c0.275-0.487,0.619-1.093,0.589-1.292l0.098-0.015c0.035,0.233-0.288,0.804-0.6,1.356
					c-0.2,0.354-0.389,0.688-0.411,0.816c-0.005,0.033,0.003,0.063,0.026,0.09c0.128,0.154,0.63,0.202,0.81,0.2l-0.002,0.1
					C219.48,92.347,219.461,92.347,219.434,92.346z"/>
			</g>
			<g>
				<path fill="#754554" d="M222.235,89.954c-1.138-0.288-1.958-0.131-1.966-0.129l-0.032-0.162
					c0.035-0.007,0.865-0.165,2.038,0.131L222.235,89.954z"/>
			</g>
			<g>
				<path fill="#754554" d="M219.356,89.607c-0.224-0.169-0.609-0.397-0.725-0.375l-0.027-0.163
					c0.254-0.042,0.753,0.332,0.852,0.406L219.356,89.607z"/>
			</g>
			
				<ellipse transform="matrix(0.9471 0.3208 -0.3208 0.9471 40.7805 -66.1989)" fill="#FFFFFF" cx="221.261" cy="90.643" rx="0.349" ry="0.298"/>
			
				<ellipse transform="matrix(0.7287 -0.6848 0.6848 0.7287 -2.284 174.4902)" fill="#FFFFFF" cx="219.101" cy="90.128" rx="0.245" ry="0.282"/>
			<path fill="#B24E6D" d="M220.505,93.523c0,0-0.941-0.371-1.323-0.438c-0.382-0.068-0.414,0.063-0.393,0.194
				C218.812,93.411,219.369,94.382,220.505,93.523z"/>
			<path fill="#BD627E" d="M225.957,90.737c0,0-0.287-0.405-0.521-0.282c-0.233,0.123-0.668,0.283-0.693,0.462
				s-0.23,1.143-0.23,1.143s-0.382-0.737-0.28-1.452c0.103-0.715-0.078-1.728-0.351-2.186c-0.272-0.458-0.538-1.157-1.221-1.295
				c-0.684-0.138-1.643-0.045-2.2-0.111c-0.559-0.066-0.778-0.275-0.778-0.275l-0.548,0.997c0,0,0.052-0.507,0.388-1.063
				c0.336-0.556,2.719-3.054,5.836-1.123c2.298,1.232,2.035,3.83,1.633,4.76c-0.402,0.929-1.542,1.721-1.667,2.006
				c-0.124,0.285-0.445,0.679-0.457,0.948c-0.011,0.269,0.175-1.002,0.424-1.534C225.539,91.2,225.957,90.737,225.957,90.737z"/>
		</g>
		<g>
			<path fill="#749982" d="M213.625,109.46c-0.651,0.254-1.69,0.207-2.321-0.103c-0.631-0.311-0.614-0.768,0.037-1.021
				s1.69-0.207,2.321,0.104C214.292,108.749,214.276,109.207,213.625,109.46z"/>
			<polygon fill="#749982" points="214.569,104.481 214.125,108.969 210.842,108.827 210.786,104.317 			"/>
			<path fill="#A89373" d="M213.785,107.552c-0.677-0.317-1.792-0.367-2.491-0.11c-0.698,0.256-0.715,0.722-0.037,1.04
				s1.793,0.368,2.491,0.111C214.446,108.335,214.463,107.87,213.785,107.552z"/>
			<polygon fill="#A89373" points="214.282,108.102 214.553,105.687 210.698,105.507 210.76,107.941 			"/>
			<path fill="#DEC7A7" d="M214.01,105.088c-0.743-0.334-1.964-0.389-2.729-0.121c-0.764,0.267-0.781,0.755-0.038,1.089
				s1.964,0.388,2.728,0.121C214.736,105.91,214.753,105.422,214.01,105.088z"/>
			<path fill="#FEBFBF" d="M210.827,105.962c0,0,0.134-0.286,0.072-0.44c-0.063-0.154-0.081-0.316-0.081-0.316l0.014-0.246
				l0.101-0.166c0,0-0.41-0.012-0.479,0.186c-0.068,0.196-0.161,0.706-0.161,0.706l0.26,0.295c0,0-0.28,0.044-0.333,0.153
				c-0.054,0.108-0.154,0.44-0.118,0.498c0.036,0.058,0.342,0.343,0.342,0.343s-0.183,0.124-0.197,0.212
				c-0.015,0.088-0.002,0.298,0.02,0.383c0.021,0.085,0.444,0.371,0.444,0.371s-0.105,0.146-0.127,0.277s0.005,0.245,0.099,0.333
				c0.094,0.087,0.715,0.325,0.819,0.351c0.104,0.026,0.114-0.252,0.063-0.387s-0.579-0.276-0.579-0.276l0.016-0.259
				c0,0,0.405,0.062,0.479-0.114c0.074-0.175-0.073-0.38-0.132-0.408c-0.059-0.027-0.536-0.205-0.536-0.205l-0.102-0.098
				c0,0,0.385,0.081,0.484,0.079c0.1-0.001,0.2-0.175,0.192-0.293c-0.007-0.119-0.124-0.29-0.266-0.36s-0.331-0.299-0.331-0.299
				L210.827,105.962z"/>
			<path fill="#749982" d="M213.95,104.852c-0.703-0.347-1.862-0.398-2.587-0.115c-0.726,0.282-0.744,0.792-0.041,1.139
				c0.703,0.346,1.861,0.397,2.587,0.115C214.635,105.707,214.653,105.198,213.95,104.852z"/>
			<polygon fill="#749982" points="214.451,105.608 214.509,105.219 214.17,105.271 210.817,105.08 210.803,105.404 			"/>
			<path fill="#A19797" d="M214.073,105.521c-0.75,0.292-1.948,0.239-2.674-0.119c-0.727-0.358-0.708-0.885,0.042-1.177
				c0.75-0.292,1.948-0.239,2.675,0.119C214.842,104.702,214.824,105.229,214.073,105.521z"/>
			<path fill="#C5C9D8" d="M214.742,104.417l-0.311-0.013c-0.081-0.063-0.176-0.123-0.29-0.179c-0.792-0.391-2.098-0.449-2.916-0.13
				c-0.121,0.047-0.222,0.1-0.308,0.157l-0.297-0.013l-0.02,0.459c0,0.007-0.001,0.014-0.001,0.021l0,0.01h0.001
				c0.003,0.226,0.194,0.459,0.579,0.648c0.792,0.39,2.098,0.448,2.916,0.13c0.402-0.157,0.61-0.375,0.625-0.604l0.001,0
				L214.742,104.417z"/>
			<path fill="#EFF0F5" d="M214.16,103.784c-0.792-0.39-2.098-0.448-2.916-0.13s-0.838,0.894-0.046,1.283
				c0.792,0.391,2.098,0.449,2.916,0.13C214.932,104.749,214.953,104.175,214.16,103.784z"/>
			<path fill="#C5C9D8" d="M214.448,104.391c0-0.004,0-0.009,0-0.013l0.014-0.317l-0.162-0.007
				c-0.083-0.086-0.197-0.169-0.349-0.244c-0.679-0.334-1.798-0.384-2.5-0.111c-0.16,0.062-0.282,0.136-0.37,0.216l-0.154-0.007
				l-0.014,0.317v0.001l0,0.002h0c-0.006,0.198,0.16,0.404,0.498,0.571c0.68,0.334,1.799,0.384,2.5,0.111
				c0.345-0.134,0.523-0.322,0.536-0.517l0,0L214.448,104.391z"/>
			<path fill="#EFF0F5" d="M213.968,103.43c-0.68-0.335-1.799-0.385-2.5-0.111c-0.701,0.273-0.719,0.766-0.04,1.1
				s1.799,0.384,2.5,0.111S214.647,103.764,213.968,103.43z"/>
			<path fill="#A0A6C0" d="M214.168,104.161L214.168,104.161c-0.132,0.026-0.27-0.035-0.308-0.137l-0.015-0.041
				c-0.037-0.102,0.04-0.205,0.173-0.231l0,0c0.132-0.026,0.27,0.036,0.307,0.137l0.015,0.041
				C214.377,104.032,214.3,104.135,214.168,104.161z"/>
		</g>
		<g>
			<path fill="#FEBFBF" d="M228.007,99.194c0,0-1.048,0.054-1.311,1.895c-0.262,1.841,0.505,9.941,1.167,10.757
				c0.662,0.815,1.736,0.355,2.109-1.375c0.373-1.731,0.497-6.776,0.494-7.39C230.464,102.468,230.417,98.308,228.007,99.194z"/>
			<path fill="#FEBFBF" d="M228.104,110.817c0,0-0.366,0.29-0.697,1.54c-0.331,1.25-1.161,7.331-1.663,7.944s-1.066,1.1-1.066,1.1
				s-0.579,0.9-0.619,1.183c-0.04,0.282-0.287,0.878-0.407,1.023s-0.53,0.69-0.504,0.82c0.026,0.129,0.399,0.228,0.564,0.081
				c0.165-0.148,0.671-1.229,0.833-1.422c0.163-0.193,0.336-0.249,0.336-0.249s0.13,0.775,0.067,0.964
				c-0.063,0.189-0.646,1.431-0.646,1.431s-0.55,0.76-0.568,0.829c-0.02,0.069,0.269,0.137,0.421,0.015
				c0.153-0.123,0.107,0.132,0.405,0.066c0.298-0.065,1.12-0.714,1.12-0.714l0.132-0.17l0.589-0.087c0,0,0.896-1.35,0.967-1.727
				c0.072-0.377,0.472-3.311,0.472-3.311s2.851-7.053,1.964-9.072C229.385,110.423,228.104,110.817,228.104,110.817z"/>
			<path fill="#FEBFBF" d="M225.791,124.143c0,0-0.551,1.07-0.667,1.175c-0.116,0.104-0.969,0.756-0.969,0.756l0.188,0.026
				c0,0,0.392-0.372,0.488-0.439c0.098-0.067,0.437-0.357,0.437-0.357l0.49-0.93L225.791,124.143z"/>
			<path fill="#FEBFBF" d="M226.466,124.239l-0.515,0.906l-0.14,0.111l0.133-0.02c0,0,0.204-0.191,0.266-0.345
				C226.273,124.738,226.466,124.239,226.466,124.239z"/>
			<path fill="#B9D3E1" d="M228.15,98.6c0,0-0.954,0.148-1.476,1.438s-0.165,4.666-0.165,4.666s1.378-0.088,2.802-0.412
				c1.425-0.324,1.581-0.948,1.581-0.948s-0.613-3.09-0.843-3.569C229.821,99.297,229.835,98.15,228.15,98.6z"/>
		</g>
	</g>
	<path fill="#E6EAF2" d="M218.915,97.707c0,0-1.622,5.736-1.604,7.977c0.018,2.241-0.28,8.36-0.28,8.36s-1.68,0.358-1.763-1.04
		c-0.083-1.397,1.278-9.951,1.278-9.951S218.571,96.308,218.915,97.707z"/>
	<path fill="#B8CFEC" d="M214.613,113.322c0,0,0.868-0.293,1.164-1.411c0.297-1.117,0.569-2.953,0.596-4.841
		c0.025-1.888,1.003-5.004,1.433-6.368s1.507-3.754,1.507-3.754s-3.49,6.541-3.709,8.262
		C215.385,106.932,215.528,112.59,214.613,113.322z"/>
	<path fill="#DBE8EF" d="M220.521,95.032c0,0-0.662-0.044-0.949,0.026c-0.286,0.07-1.159,0.837-1.254,1.094
		c-0.094,0.258,0.064,0.996,0.064,0.996s-0.751,1.305-0.77,1.524c-0.02,0.22-0.651,2.976-0.651,2.976l2.274-4.528L220.521,95.032z"
		/>
	<path fill="#B9D3E1" d="M226.73,114.391l0.698-2.831l-0.919-6.855l4.383-1.36c0,0-0.031,5.732-0.476,7.333
		c-0.202,2.133-0.78,4.654-0.78,4.654L226.73,114.391z"/>
	<polygon fill="#DBE8EF" points="229.472,116.586 226.503,115.873 226.749,113.944 230.001,114.734 	"/>
	<path fill="#DBE8EF" d="M221.273,105.944c0,0,0.899-2.962,1.505-3.792c0.604-0.831,1.373-2.163,1.373-2.163l-0.412-0.7
		c0,0,0.981-0.057,1.831-0.59c0.851-0.533,1.493-2.039,1.493-2.039s-2.203-2.068-2.228-1.823c-0.023,0.245,0.377,0.811,0.377,0.811
		s0.122,0.463-0.01,0.767c-0.133,0.305-3.108,3.609-3.361,4.198S221.042,102.957,221.273,105.944z"/>
	<g>
		<polygon fill="#EFF0F5" points="217.699,89.507 217.745,89.393 217.726,89.393 218.62,89.102 218.67,88.925 217.461,89.414 		"/>
	</g>
	<g>
		<path fill="#A28C87" d="M218.914,90.047c0.179,0.527,0.061,1.007-0.264,1.069s-0.732-0.314-0.911-0.842
			c-0.178-0.528-0.06-1.006,0.265-1.069S218.736,89.519,218.914,90.047z"/>
	</g>
	<g>
		<path fill="#A28C87" d="M221.538,91.023c0.195,0.58-0.005,1.119-0.448,1.204c-0.443,0.086-0.962-0.314-1.158-0.894
			c-0.195-0.579,0.006-1.118,0.449-1.204C220.824,90.044,221.341,90.444,221.538,91.023z"/>
	</g>
	<g>
		<polygon fill="#EFF0F5" points="222.054,91.373 225.63,90.568 225.568,90.449 222.044,91.235 221.579,91.025 221.532,91.14 		"/>
	</g>
	
		<linearGradient id="SVGID_7_" gradientUnits="userSpaceOnUse" x1="1256.9976" y1="148.5918" x2="1258.5913" y2="148.5918" gradientTransform="matrix(0.9997 0.0264 -0.0264 0.9997 -1028.1338 -90.3086)">
		<stop  offset="0.1224" style="stop-color:#FEB9B8"/>
		<stop  offset="1" style="stop-color:#FFDEDE"/>
	</linearGradient>
	<path fill="url(#SVGID_7_)" d="M224.966,90.715c0,0,0.76-0.883,1.104-0.258s-0.258,1.405-0.656,1.789
		c-0.398,0.385-0.702,0.504-0.838,0.319s0.131-0.913,0.131-0.913L224.966,90.715z"/>
	
		<linearGradient id="SVGID_8_" gradientUnits="userSpaceOnUse" x1="1257.2524" y1="148.4844" x2="1258.3599" y2="148.4844" gradientTransform="matrix(0.9997 0.0264 -0.0264 0.9997 -1028.1338 -90.3086)">
		<stop  offset="0.1224" style="stop-color:#FCA4B5"/>
		<stop  offset="0.9896" style="stop-color:#FFADB7"/>
	</linearGradient>
	<path fill="url(#SVGID_8_)" d="M225.087,90.719c0,0,0.488-0.509,0.733-0.161c0.245,0.348,0.107,1-0.406,1.575
		c-0.519,0.233-0.613,0.01-0.611-0.057s0.185-0.377,0.191-0.641C225.001,91.171,225.087,90.719,225.087,90.719z"/>
	<g>
		<path fill="#EFF0F5" d="M219.857,90.578l0.117-0.055c-0.146-0.229-0.327-0.376-0.533-0.44c-0.286-0.087-0.518,0.022-0.528,0.028
			l0.074,0.114C219.005,90.215,219.482,89.996,219.857,90.578z"/>
	</g>
	<path fill="#EFF0F5" d="M218.117,90.937c-0.176-0.163-0.322-0.396-0.41-0.657c-0.182-0.544-0.054-1.04,0.287-1.105
		c0.164-0.035,0.361,0.041,0.542,0.209c0.177,0.163,0.322,0.396,0.41,0.657l-0.032,0.006l0.032-0.006
		c0.117,0.346,0.111,0.692-0.015,0.904c-0.064,0.11-0.158,0.179-0.271,0.201c-0.032,0.006-0.065,0.009-0.1,0.007
		C218.418,91.147,218.264,91.072,218.117,90.937z M218.013,89.235c-0.306,0.06-0.414,0.523-0.242,1.033
		c0.084,0.25,0.224,0.473,0.392,0.627c0.162,0.151,0.331,0.217,0.477,0.19c0.096-0.019,0.176-0.079,0.232-0.175
		c0.118-0.198,0.122-0.527,0.011-0.858l0,0c-0.085-0.25-0.225-0.473-0.391-0.628c-0.134-0.123-0.271-0.19-0.396-0.195
		C218.068,89.228,218.041,89.23,218.013,89.235z"/>
	<path fill="#EFF0F5" d="M220.397,92.054c-0.224-0.174-0.4-0.426-0.497-0.713c-0.201-0.595,0.01-1.152,0.471-1.241
		c0.181-0.036,0.374,0.005,0.564,0.114c0.282,0.161,0.519,0.462,0.634,0.804l0,0c0.201,0.594-0.009,1.151-0.47,1.24
		c-0.052,0.011-0.106,0.015-0.16,0.012C220.76,92.262,220.573,92.188,220.397,92.054z M220.39,90.161
		c-0.425,0.083-0.616,0.606-0.426,1.168c0.092,0.273,0.26,0.515,0.473,0.679c0.209,0.162,0.433,0.228,0.643,0.19
		c0.425-0.083,0.615-0.606,0.426-1.167l0,0c-0.11-0.326-0.334-0.612-0.601-0.765c-0.124-0.071-0.249-0.11-0.37-0.115
		C220.485,90.148,220.437,90.151,220.39,90.161z"/>
	<g>
		<path fill="#A8B0C2" d="M224.359,104.505c-0.205,0.499-0.736,0.709-1.186,0.469c-0.45-0.24-0.648-0.84-0.443-1.34
			c0.205-0.499,0.736-0.709,1.186-0.468C224.366,103.406,224.564,104.006,224.359,104.505z"/>
		<path fill="#DBA259" d="M224.271,104.459c-0.205,0.5-0.736,0.709-1.186,0.469c-0.45-0.24-0.648-0.84-0.443-1.339
			c0.205-0.5,0.736-0.709,1.187-0.469C224.278,103.36,224.476,103.96,224.271,104.459z"/>
		<path fill="#EDB83A" d="M224.158,104.434c-0.197,0.479-0.703,0.683-1.13,0.455s-0.612-0.802-0.415-1.281s0.703-0.683,1.13-0.455
			C224.169,103.381,224.355,103.955,224.158,104.434z"/>
		<path fill="#F7D165" d="M224.114,104.435c-0.192,0.469-0.688,0.667-1.104,0.444s-0.6-0.784-0.406-1.253
			c0.193-0.468,0.688-0.667,1.105-0.444C224.125,103.405,224.307,103.967,224.114,104.435z"/>
		<path fill="#738E9E" d="M223.542,103.325c-0.362-0.127-0.732,0.087-0.826,0.477c-0.093,0.39,0.126,0.81,0.488,0.937
			c0.362,0.126,0.732-0.088,0.825-0.477C224.124,103.872,223.905,103.452,223.542,103.325z M223.172,104.536
			c-0.08-0.042-0.146-0.102-0.198-0.176l0.278-0.162L223.172,104.536z M223.426,103.476l-0.085,0.352v0l-0.034,0.146l-0.411,0.237
			c-0.041-0.112-0.06-0.234-0.031-0.356C222.93,103.581,223.172,103.431,223.426,103.476z M223.321,104.588l0.079-0.333l0.17,0.311
			C223.492,104.596,223.408,104.604,223.321,104.588z M223.701,104.488l-0.247-0.455l0.121-0.506
			c0.233,0.125,0.372,0.409,0.307,0.682C223.853,104.33,223.784,104.419,223.701,104.488z"/>
	</g>
	
		<ellipse transform="matrix(0.5388 0.8424 -0.8424 0.5388 190.496 -140.7789)" fill="#A08471" cx="223.83" cy="103.602" rx="0.329" ry="0.185"/>
	<path fill="#EFF0F5" d="M224.62,94.361c0.479,0.021,0.885-0.401,0.908-0.942c0.021-0.484-0.272-0.897-0.677-0.994
		c-0.018,0.035-0.041,0.069-0.073,0.096c0.013,0.002,0.024,0.001,0.036,0.004c0.237,0.056,0.438,0.24,0.535,0.492
		c0.17,0.435,0,0.948-0.379,1.145c-0.188,0.095-0.387,0.102-0.572,0.021c-0.19-0.081-0.34-0.242-0.423-0.454
		c-0.17-0.435,0.001-0.949,0.38-1.146c0.042-0.021,0.085-0.038,0.129-0.051c0.026-0.007,0.053-0.008,0.079-0.012
		c-0.011-0.02-0.027-0.034-0.026-0.062c0.001-0.016,0.014-0.03,0.02-0.046c-0.411,0.062-0.738,0.448-0.76,0.932
		C223.773,93.885,224.142,94.34,224.62,94.361z"/>
</g>
</svg>
