<?xml version="1.0" encoding="utf-8"?>
<!-- Generator: Adobe Illustrator 16.0.0, SVG Export Plug-In . SVG Version: 6.00 Build 0)  -->
<!DOCTYPE svg PUBLIC "-//W3C//DTD SVG 1.1//EN" "http://www.w3.org/Graphics/SVG/1.1/DTD/svg11.dtd">
<svg version="1.1" id="Layer_1" xmlns="http://www.w3.org/2000/svg" xmlns:xlink="http://www.w3.org/1999/xlink" x="0px" y="0px"
	 width="463.683px" height="425.749px" viewBox="0 0 463.683 425.749" enable-background="new 0 0 463.683 425.749"
	 xml:space="preserve">
<g>
	<path fill="#754554" d="M397.735,121.413c0,0,0.505,2.474,0.235,3.711s-1.291,2.942-1.954,3.107
		c-0.282,0.298-0.421,0.775-0.337,0.806c2.31,0.851,5.636-1.67,5.345-3.16C400.722,124.335,397.735,121.413,397.735,121.413z"/>
	<path fill="#D7E4F2" d="M411.348,179.774c-3.945,2.51-10.526,2.782-14.7,0.607c-4.173-2.175-4.357-5.974-0.412-8.484
		s10.526-2.782,14.699-0.607C415.109,173.465,415.293,177.264,411.348,179.774z"/>
	<g>
		<path fill="#6C6B79" d="M410.371,175.478c0,0,0.197,0.1,0.208,0.247c0.011,0.146,0.016,0.55,0.015,0.645s-0.25,0.464-0.863,0.607
			c-0.612,0.143-2.101-0.252-2.603-0.544c-0.501-0.292-1.186-1.038-1.394-1.095c-0.209-0.057-0.829,0.058-0.829,0.058l-0.561-0.047
			l-0.923-0.327c0,0-0.121-0.619,0.132-0.814C403.806,174.012,410.371,175.478,410.371,175.478z"/>
		<path fill="#C2D2EA" d="M406.901,172.965c0,0,0.729,0.462,0.858,0.592c0.13,0.13,1.447,0.665,1.903,0.943
			c0.457,0.278,0.801,0.755,0.831,0.911c0.029,0.156,0.099,0.513,0.046,0.662s-0.291,0.546-1.079,0.595
			c-0.789,0.049-2.394-0.7-2.394-0.7s-1.111-0.758-1.274-0.835c-0.164-0.077-1.615-0.444-1.836-0.518s-0.348-0.104-0.38-0.282
			s-0.219-1.146-0.102-1.452C403.591,172.577,406.256,172.181,406.901,172.965z"/>
	</g>
	<g>
		<path fill="#6C6B79" d="M405.127,177.938c0,0,0.216,0.004,0.267,0.291c0.052,0.287,0.045,0.629,0.045,0.629
			s-0.27,0.411-1.172,0.525s-2.007-0.22-2.572-0.541c-0.566-0.32-0.77-0.581-1.111-1.055c-0.341-0.474-0.693-0.7-0.693-0.7
			l-0.145,0.039c0,0-0.81-0.588-0.942-0.792c-0.069-0.17-0.119-1.041,0.005-1.12S405.127,177.938,405.127,177.938z"/>
		<path fill="#C2D2EA" d="M402.652,174.688l0.25,0.599c0,0,1.476,1.433,1.876,1.86c0.399,0.427,0.606,0.802,0.624,1.189
			s-0.989,0.638-1.14,0.649c-0.151,0.011-0.82,0.077-1.677-0.243c-0.857-0.319-1.211-0.626-1.898-1.375
			c-0.688-0.749-1.153-1.16-1.364-1.331s-0.518-0.443-0.515-0.665c0.004-0.221-0.03-0.842,0.15-0.92
			C399.14,174.375,402.074,174.137,402.652,174.688z"/>
	</g>
	<path fill="#A8678D" d="M403.695,172.409c0,0,0.197,0.367,0.658,0.569c0.469,0.208,1.21,0.243,2.293-0.461
		c0,0,0.256-13.493,1.006-17.448l-3.227,5.69l-1.354,0.048l-0.002,0c0,0-0.559,4.339-0.223,6.618
		C403.185,169.705,403.695,172.409,403.695,172.409z"/>
	<path fill="#A8678D" d="M403.011,160.658c0.016,0.052,0.035,0.102,0.059,0.15l0.002,0c0.2,0.423,0.634,0.674,1.133,0.784
		c0.986,0.22,2.225-0.114,2.439-0.773c0.014-0.04,0.027-0.089,0.044-0.143c0.39-1.293,1.218-6.735,1.74-10.779
		c0.544-4.215-0.507-6.227-0.507-6.227l-5.146,0.935c0,0-0.045,2.484-0.062,5.463C402.693,154.15,402.75,159.835,403.011,160.658z"
		/>
	<path fill="#A8B0C2" d="M403.695,172.409c0,0,0.197,0.367,0.658,0.569c-0.348-2.257-0.911-6.114-0.816-6.908
		c0.062-0.534,0.196-3.146,0.342-4.403c0.986-8.536,0.869-11.185,0.869-11.185l1.098-1.674l-3.132,1.26
		c-0.021,4.082,0.036,9.767,0.298,10.59c0.016,0.052,0.035,0.102,0.059,0.15c0,0-0.559,4.339-0.223,6.618
		C403.185,169.705,403.695,172.409,403.695,172.409z"/>
	<path fill="#A8678D" d="M405.956,146.345l0.719,0.844c0,0,0.063,1.04-2.237,2.771c-0.014,2.44-0.918,10.24-1.675,12.099
		c-0.759,1.859-3.103,0.416-3.499-1.745c-0.396-2.159-2.16-8.931-2.312-10.597c-0.152-1.666-0.283-3.361,0.871-4.343
		C398.976,144.393,405.956,146.345,405.956,146.345z"/>
	<path fill="#A8678D" d="M402.242,174.383c-0.432-1.512-0.098-9.928,0.521-12.325c-3.186-1.853-3.593-2.213-3.593-2.213
		s-1.162,6.166-1.117,7.39c0.045,1.223,1.031,7.192,1.031,7.192S400.682,175.953,402.242,174.383z"/>
	<g>
		<path fill="#BB88A6" d="M399.781,175.249l0.227-0.05c-0.012-0.048-1.072-4.865-1.082-7.286c-0.008-1.855,0.447-4.149,0.779-5.823
			c0.155-0.78,0.277-1.396,0.306-1.744c0.029-0.344-0.21-1.374-0.541-2.8c-0.734-3.161-1.844-7.938-1.056-9.651l-0.21-0.097
			c-0.821,1.786,0.299,6.609,1.04,9.801c0.314,1.352,0.563,2.42,0.537,2.728c-0.028,0.335-0.149,0.945-0.303,1.718
			c-0.334,1.684-0.792,3.991-0.784,5.87C398.704,170.36,399.77,175.2,399.781,175.249z"/>
	</g>
	<g>
		<g>
			<path fill="#FEBFBF" d="M403.242,126.073c0,0,0.813-0.001,2.003-0.254c1.188-0.252,6.603-0.602,8.345-1.51
				c2.014,0.635,4.474,0.275,2.645,1.704c-1.828,1.428-9.474,3.328-10.75,3.49C404.207,129.665,403.242,126.073,403.242,126.073z"/>
			<path fill="#FEBFBF" d="M414.743,125.621c0,0-0.989-0.338-1.153-1.313c-0.164-0.97-0.117-2.512-0.416-3.831
				c-0.422-1.859-0.656-2.028-0.695-2.065c-0.038-0.038-0.713-0.809-0.84-1.072s-0.296-1.124-0.231-1.353
				c0.064-0.229,0.422-0.351,0.506-0.293c0.083,0.057,0.15,0.117,0.15,0.117l0.118-0.473l0.686-0.206c0,0,0.656-0.109,0.823,0.005
				c0.167,0.115,0.283,0.422,0.313,0.521c0.029,0.098,0.029,0.098,0.029,0.098s0.475,0.067,0.498,0.318
				c0.024,0.252-0.065,0.348,0.072,0.567c0.139,0.22-0.044,0.591-0.021,0.767c0.022,0.175,0.121,0.349-0.034,0.657
				c-0.156,0.308-0.334,0.518-0.232,0.775c0.101,0.259,1.867,4.021,2.437,5.364C417.55,126.087,415.658,126.13,414.743,125.621z"/>
			<polygon fill="#DBAB81" points="412.602,134.161 413.993,133.592 413.2,97.255 411.809,97.824 			"/>
			<path fill="#FF785C" d="M403.32,125.886c0,0,3.215-0.828,3.894-0.89c0.679-0.061,1.122,0.125,1.122,0.125
				s0.584,0.689,0.268,2.103c-0.316,1.415-0.701,1.985-1.046,2.182c-0.344,0.196-1.952,0.248-1.952,0.248L403.32,125.886z"/>
			
				<linearGradient id="SVGID_1_" gradientUnits="userSpaceOnUse" x1="3198.2622" y1="-44.4067" x2="3200.6958" y2="-44.4067" gradientTransform="matrix(-0.992 0.1261 0.1261 0.992 3592.3032 -242.3508)">
				<stop  offset="0.1224" style="stop-color:#FCA4B5"/>
				<stop  offset="0.9896" style="stop-color:#FFADB7"/>
			</linearGradient>
			<path fill="url(#SVGID_1_)" d="M411.913,115.694c0,0-0.009,0.114,0.068,0.224c0.078,0.111,0.228,0.289,0.259,0.387
				c0.032,0.098,0.18,0.46-0.055,0.567c-0.234,0.106-0.524-0.073-0.573-0.207s-0.09-0.408-0.09-0.408s-0.043,0.368,0.11,0.571
				c0.153,0.203,0.424,0.328,0.424,0.328s0.104,0.019,0.168,0.227s0.16,0.457,0.16,0.457s-0.102,0.248-0.035,0.329
				c0.068,0.081,0.129,0.245,0.129,0.245l0.244,0.032l0.551,0.127l0.554-0.14l0.356-0.3l-0.654,0.204c0,0-0.536,0.087-0.643,0.05
				c-0.106-0.038-0.176-0.08-0.266-0.284c-0.089-0.205-0.036-0.339-0.036-0.339l0.395,0l1.108-0.389c0,0-1.017,0.263-1.141,0.285
				c-0.125,0.022-0.4,0.057-0.427-0.054c-0.027-0.111-0.062-0.381-0.062-0.381l0.274-0.244l1.124-0.365l-1.261,0.338
				c0,0-0.1-0.229-0.152-0.445c-0.053-0.216,0.049-0.317,0.049-0.317l1.211-0.479l-1.266,0.346c0,0-0.306-0.187-0.318-0.303
				c-0.014-0.117,0.004-0.189,0.004-0.189l-0.061,0.245L411.913,115.694z"/>
		</g>
		<g>
			<g>
				<path fill="#BB88A6" d="M399.695,149.958c2.319-0.1,2.572-1.655,2.574-1.671l-0.229-0.033c-0.01,0.064-0.261,1.582-2.836,1.473
					l-0.01,0.231C399.371,149.966,399.538,149.965,399.695,149.958z"/>
			</g>
			<path fill="#1B292C" d="M396.953,146.753c0,0,1.07,0.946,3.939,1.103s4.421-0.265,5.387-0.785s1.841-1.561,1.841-1.561
				l-0.16-1.26c0,0-0.834,1.254-2.206,1.787s-4.309,0.425-5.504,0.323s-3.033-0.645-3.033-0.645L396.953,146.753z"/>
			<path fill="#A8678D" d="M402.787,146.513c0,0,0.073,0.363,0.08,0.784c0.006,0.421-0.018,1.191-0.018,1.191l0.435-0.026
				c0,0,0.087-0.735,0.075-1.11c-0.012-0.375-0.104-0.902-0.104-0.902L402.787,146.513z"/>
			<path fill="#A8678D" d="M406.792,145.429c0,0,0.101,0.451,0.111,0.81c0.012,0.359-0.056,0.963-0.056,0.963l0.296-0.365
				c0,0,0.054-0.612,0.047-0.807c-0.006-0.195-0.159-0.781-0.159-0.781L406.792,145.429z"/>
			<g>
				<path fill="#BB88A6" d="M408.17,147.619c0.019-0.001,0.038-0.003,0.058-0.008l-0.052-0.226c-0.183,0.042-0.476-0.55-0.603-0.994
					l-0.223,0.063C407.41,146.659,407.714,147.639,408.17,147.619z"/>
			</g>
			<g>
				<path fill="#CCDEFB" d="M404.536,147.719c-0.115-0.108-0.179-0.27-0.177-0.453l0.002-0.359c0.002-0.376,0.274-0.743,0.621-0.837
					l0.813-0.218c0.189-0.051,0.372-0.01,0.502,0.113c0.115,0.108,0.178,0.27,0.178,0.453l-0.002,0.359
					c-0.002,0.376-0.275,0.744-0.622,0.837l-0.813,0.218c-0.052,0.015-0.104,0.021-0.154,0.021
					C404.751,147.854,404.629,147.808,404.536,147.719z M405.858,146.253l-0.813,0.219c-0.179,0.048-0.337,0.245-0.338,0.421
					l-0.002,0.359c0,0.06,0.018,0.108,0.053,0.142c0.051,0.047,0.131,0.061,0.217,0.038l0.813-0.218
					c0.179-0.048,0.337-0.245,0.339-0.422l0.001-0.359c0.001-0.06-0.018-0.107-0.053-0.142c-0.035-0.032-0.083-0.05-0.139-0.049
					C405.912,146.242,405.885,146.246,405.858,146.253z"/>
			</g>
		</g>
		<g>
			<path fill="#FF8269" d="M399.85,126.445c0,0,1.613-0.218,2.602-0.152c0.987,0.065,0.694-0.628,1.407-0.527
				c0.712,0.1,1.655,1.044,1.655,1.044s0.938,2.028,1.394,4.323c0.458,2.295,1.55,4.383,1.607,5.24
				c0.059,0.858-0.339,1.837-0.383,3.191s-0.01,4.924-0.01,4.924s-0.688,2.394-5.324,2.881c-3.396,0.11-5.571-0.748-5.641-1.425
				c0.475-1.945,0.66-2.754,0.576-4.609c-0.083-1.855-1.266-5.068-1.754-6.108c-0.488-1.04-1.305-5.991-0.771-6.466
				c0.534-0.475,2.517-1.558,2.983-1.753C398.659,126.813,399.85,126.445,399.85,126.445z"/>
			<path fill="#FF8269" d="M402.798,147.37c-3.396,0.11-5.846-0.978-5.641-1.425c0.514-1.877,0.66-2.754,0.576-4.609
				C397.651,139.48,407.434,146.882,402.798,147.37z"/>
		</g>
		<g>
			<path fill="#FEBFBF" d="M399.721,125.944c-0.13,0.01-0.454,0.516-1.026,0.817c-0.572,0.302-0.588,0.38,0.127,1.001
				c0.715,0.622,3.274,3.413,4.847,3.035c1.571-0.378,1.453-1.915,1.375-2.528s-1.055-1.99-1.363-2.116
				C403.372,126.027,399.721,125.944,399.721,125.944z"/>
			
				<linearGradient id="SVGID_2_" gradientUnits="userSpaceOnUse" x1="3213.9966" y1="-35.7437" x2="3211.1516" y2="-39.0563" gradientTransform="matrix(-0.992 0.1261 0.1261 0.992 3592.3032 -242.3508)">
				<stop  offset="0.1224" style="stop-color:#FEC7C7"/>
				<stop  offset="0.9694" style="stop-color:#FFADB7"/>
			</linearGradient>
			<path fill="url(#SVGID_2_)" d="M404.069,125.607c0,0-0.26,0.657-0.186,1.245c0.075,0.588,0.428,1.561,0.428,1.561
				s-0.344,0.705-1.79,0.583c-1.445-0.121-1.51-0.622-1.974-0.869c-0.464-0.246-1.67-1.4-1.599-1.485
				c0.072-0.085,1.251-0.712,0.747-2.414c-0.504-1.7-1.204-2.569-1.204-2.569s-0.419-0.71,0.08-0.772
				C399.071,120.824,404.069,125.607,404.069,125.607z"/>
			
				<linearGradient id="SVGID_3_" gradientUnits="userSpaceOnUse" x1="3209.2388" y1="-36.4834" x2="3212.5112" y2="-36.4834" gradientTransform="matrix(-0.992 0.1261 0.1261 0.992 3592.3032 -242.3508)">
				<stop  offset="0.1224" style="stop-color:#FCA4B5"/>
				<stop  offset="0.9896" style="stop-color:#FFADB7"/>
			</linearGradient>
			<path fill="url(#SVGID_3_)" d="M400.677,124.876c0,0,1.261,1.117,1.535,1.692c0.275,0.576,1.491,1.337,1.491,1.337l0.167-1.297
				l0.198-1.001L400.677,124.876z"/>
			<path fill="#FEC7C7" d="M404.2,117.627c0,0,0.534,0.403,0.899,1.273c0.365,0.869,0.625,1.612,0.606,1.767
				c-0.019,0.155-0.142,0.489,0.077,1.11c0.219,0.622-0.335,3.77-1.006,4.097c-0.671,0.326-3.834-0.645-4.195-1.083
				c-0.361-0.437-1.301-2.226-1.442-3.442c-0.142-1.216-0.538-2.629,1.208-3.41C402.092,117.158,404.2,117.627,404.2,117.627z"/>
			<g>
				
					<linearGradient id="SVGID_4_" gradientUnits="userSpaceOnUse" x1="3208.1538" y1="-40.3076" x2="3207.3567" y2="-40.2392" gradientTransform="matrix(-0.992 0.1261 0.1261 0.992 3592.3032 -242.3508)">
					<stop  offset="0.1224" style="stop-color:#FEC7C7"/>
					<stop  offset="0.9896" style="stop-color:#FFDBDB"/>
				</linearGradient>
				<path fill="url(#SVGID_4_)" d="M404.696,121.029c-0.058,0.347,0.873,1.734,0.922,2.048c0.048,0.313-0.838,0.316-0.838,0.316
					L404.696,121.029z"/>
				
					<linearGradient id="SVGID_5_" gradientUnits="userSpaceOnUse" x1="3207.3374" y1="-40.2822" x2="3208.2603" y2="-40.2822" gradientTransform="matrix(-0.992 0.1261 0.1261 0.992 3592.3032 -242.3508)">
					<stop  offset="0.188" style="stop-color:#FFDCDC"/>
					<stop  offset="0.8991" style="stop-color:#FEC7C7"/>
				</linearGradient>
				<path fill="url(#SVGID_5_)" d="M404.875,123.438c0.191-0.009,0.604-0.045,0.742-0.208c0.04-0.046,0.056-0.102,0.046-0.16
					c-0.021-0.138-0.189-0.448-0.386-0.807c-0.252-0.463-0.566-1.039-0.535-1.226l-0.093-0.016c-0.036,0.219,0.26,0.762,0.546,1.286
					c0.184,0.337,0.357,0.654,0.376,0.776c0.005,0.032-0.003,0.059-0.025,0.085c-0.123,0.145-0.595,0.177-0.766,0.177v0.093
					C404.793,123.439,404.827,123.439,404.875,123.438z"/>
			</g>
			<g>
				<path fill="#754554" d="M402.225,121.144c1.076-0.254,1.849-0.096,1.855-0.094l0.032-0.152
					c-0.031-0.007-0.813-0.168-1.924,0.094L402.225,121.144z"/>
			</g>
			<g>
				<path fill="#754554" d="M404.982,120.93c0.214-0.157,0.571-0.37,0.689-0.343l0.027-0.154c-0.017-0.003-0.035-0.004-0.055-0.003
					c-0.245,0.011-0.667,0.311-0.754,0.375L404.982,120.93z"/>
			</g>
			
				<ellipse transform="matrix(-0.9525 0.3046 -0.3046 -0.9525 824.2131 115.0253)" fill="#FFFFFF" cx="403.134" cy="121.807" rx="0.329" ry="0.28"/>
			
				<ellipse transform="matrix(-0.7176 -0.6964 0.6964 -0.7176 611.4232 490.6191)" fill="#FFFFFF" cx="405.178" cy="121.352" rx="0.231" ry="0.265"/>
			<path fill="#FB7F9E" d="M403.805,124.535c0,0,0.893-0.336,1.254-0.395s0.39,0.065,0.367,0.189
				C405.404,124.452,404.865,125.36,403.805,124.535z"/>
			<path fill="#754554" d="M398.704,121.829c0,0,0.276-0.378,0.495-0.259s0.627,0.277,0.648,0.446
				c0.021,0.169,0.201,1.082,0.201,1.082s0.37-0.689,0.284-1.366c-0.086-0.676,0.099-1.628,0.362-2.056
				c0.264-0.428,0.523-1.084,1.17-1.205c0.646-0.12,1.549-0.019,2.076-0.073s0.738-0.249,0.738-0.249l0.502,0.949
				c0,0-0.041-0.48-0.351-1.009c-0.309-0.528-2.521-2.919-5.487-1.143c-2.185,1.13-1.975,3.584-1.608,4.466
				c0.367,0.882,1.43,1.645,1.543,1.916c0.114,0.271,0.411,0.647,0.418,0.9c0.007,0.254-0.149-0.947-0.378-1.453
				C399.091,122.271,398.704,121.829,398.704,121.829z"/>
			
				<linearGradient id="SVGID_6_" gradientUnits="userSpaceOnUse" x1="3212.939" y1="-40.4912" x2="3214.4429" y2="-40.4912" gradientTransform="matrix(-0.992 0.1261 0.1261 0.992 3592.3032 -242.3508)">
				<stop  offset="0.1224" style="stop-color:#FEB9B8"/>
				<stop  offset="1" style="stop-color:#FFDEDE"/>
			</linearGradient>
			<path fill="url(#SVGID_6_)" d="M399.515,122.008c0,0-0.796-0.758-1.061-0.139c-0.265,0.618,0.374,1.294,0.784,1.617
				s0.707,0.407,0.817,0.221c0.109-0.186-0.21-0.845-0.21-0.845L399.515,122.008z"/>
			
				<linearGradient id="SVGID_7_" gradientUnits="userSpaceOnUse" x1="3213.1821" y1="-40.5928" x2="3214.2251" y2="-40.5928" gradientTransform="matrix(-0.992 0.1261 0.1261 0.992 3592.3032 -242.3508)">
				<stop  offset="0.1224" style="stop-color:#FCA4B5"/>
				<stop  offset="0.9896" style="stop-color:#FFADB7"/>
			</linearGradient>
			<path fill="url(#SVGID_7_)" d="M399.403,122.022c0,0-0.507-0.432-0.704-0.083s-0.007,0.949,0.529,1.44
				c0.509,0.171,0.576-0.048,0.568-0.11s-0.208-0.337-0.239-0.584C399.526,122.439,399.403,122.022,399.403,122.022z"/>
		</g>
		<g>
			<path fill="#FEBFBF" d="M395.53,128.987c0,0,0.644-0.676,1.835,0.021c1.19,0.696,5.14,6.147,6.738,7.115
				c1.34,1.067,1.018,3.466,0.465,3.655c-0.553,0.189-6.623-3.263-8.274-5.987C394.641,131.067,394.432,129.958,395.53,128.987z"/>
			<path fill="#FF785C" d="M395.326,128.712c0,0,0.974-1.01,2.514,0.168c1.541,1.179,2.813,3.442,2.813,3.442l0.033,0.266
				l-0.337-0.397c0,0-1.087-0.269-2.448,0.498c-1.361,0.767-1.506,1.261-1.506,1.261l0.512,0.669c0,0-0.605-0.235-0.781-0.416
				s-1.095-1.676-1.381-2.861C394.458,130.158,394.705,129.168,395.326,128.712z"/>
			<path fill="#FEBFBF" d="M403.94,136.704c0,0-0.08-0.363,0.163-0.58c0.244-0.218,2.37-1.234,4.309-2.804
				c1.938-1.569,2.624-2.301,2.703-2.616s0.422-1.216,0.487-1.368s0.547-0.638,0.547-0.638s0.524-0.211,0.754-0.138
				s0.406,0.195,0.406,0.195s0.288-0.139,0.396-0.093s0.586,0.74,0.586,0.74s-0.002,0.255,0.062,0.416
				c0.063,0.162,0.134,0.585,0.129,0.679s-0.011,0.256,0,0.466c0.01,0.211-0.255,0.465-0.267,0.577
				c-0.011,0.112,0.004,0.364-0.406,0.476c-0.409,0.111-1.605,0.373-1.92,0.702s-3.539,5.123-7.355,7.122
				C403.375,138.829,403.94,136.704,403.94,136.704z"/>
			
				<linearGradient id="SVGID_8_" gradientUnits="userSpaceOnUse" x1="3200.4263" y1="-32.6089" x2="3201.2134" y2="-32.6089" gradientTransform="matrix(-0.992 0.1261 0.1261 0.992 3592.3032 -242.3508)">
				<stop  offset="0.1224" style="stop-color:#FCA4B5"/>
				<stop  offset="0.9896" style="stop-color:#FFADB7"/>
			</linearGradient>
			<path fill="url(#SVGID_8_)" d="M413.085,128.631l0.029,0.233c0,0-0.494-0.007-0.512,0.205c-0.018,0.212,0.287,0.148,0.287,0.148
				s0.396-0.082,0.458-0.09s0.001-0.391,0.001-0.391l-0.04,0.019L413.085,128.631z"/>
		</g>
	</g>
	<polygon fill="#EEECF1" points="404.899,114.495 420.834,108.566 420.69,96.161 404.754,102.089 	"/>
	<g>
		<g>
			<path fill="#9FC7A8" d="M408.542,106.971c-0.049-2.502,1.883-5.196,4.307-6.008c2.424-0.811,4.436,0.564,4.485,3.065
				c0.049,2.502-1.883,5.196-4.307,6.008C410.603,110.847,408.591,109.472,408.542,106.971z M409.537,106.638
				c0.038,1.935,1.595,2.999,3.47,2.371c1.876-0.627,3.37-2.712,3.332-4.647c-0.038-1.935-1.595-2.999-3.47-2.371
				C410.993,102.617,409.499,104.702,409.537,106.638z"/>
		</g>
		<g>
			<polygon fill="#9FC7A8" points="415.382,107.887 416.072,106.925 413.431,105.12 413.356,101.31 412.361,101.643 
				412.444,105.878 			"/>
		</g>
		<g>
			<polygon fill="#9FC7A8" points="412.511,109.314 413.507,108.981 413.413,104.19 409.759,109.134 410.464,109.644 
				412.464,106.936 			"/>
		</g>
	</g>
	<path fill="#754554" d="M400.316,122.282c0,0-0.298,1.656,0.116,2.681c-0.444-0.997-0.388-2.179-0.388-2.179L400.316,122.282z"/>
</g>
</svg>
