<?xml version="1.0" encoding="utf-8"?>
<!-- Generator: Adobe Illustrator 16.0.0, SVG Export Plug-In . SVG Version: 6.00 Build 0)  -->
<!DOCTYPE svg PUBLIC "-//W3C//DTD SVG 1.1//EN" "http://www.w3.org/Graphics/SVG/1.1/DTD/svg11.dtd">
<svg version="1.1" id="Layer_1" xmlns="http://www.w3.org/2000/svg" xmlns:xlink="http://www.w3.org/1999/xlink" x="0px" y="0px"
	 width="463.683px" height="425.749px" viewBox="0 0 463.683 425.749" enable-background="new 0 0 463.683 425.749"
	 xml:space="preserve">
<g>
	<g>
		<path fill="#B9D3E1" d="M229.325,253.909c0,0-1.479-0.13-2.368,1.514c-0.89,1.644-1.011,2.577-1.847,4.103
			s-2.979,4.905-2.896,5.711c0.082,0.805,1.517,1.939,2.855,1.52s3.054-2.91,3.379-3.34
			C236.76,252.436,229.325,253.909,229.325,253.909z"/>
		<path fill="#E3E5EF" d="M240.719,305.108c-4.049-2.577-10.803-2.856-15.086-0.624c-1.904,0.993-2.994,2.315-3.267,3.704
			c-1.89,0.141-3.714,0.622-5.161,1.458c-3.493,2.018-3.475,5.297,0.04,7.327c3.516,2.028,9.196,2.039,12.689,0.022
			c0.888-0.513,1.546-1.107,1.981-1.741c2.969,0.243,6.042-0.222,8.38-1.44C244.579,311.582,244.768,307.685,240.719,305.108z"/>
		<path fill="#626170" d="M225.486,308.275c0,0-0.244,0.124-0.257,0.306s-0.02,0.683-0.019,0.8c0.001,0.118,0.311,0.576,1.07,0.753
			c0.759,0.177,2.604-0.313,3.228-0.675c0.622-0.363,1.47-1.287,1.729-1.357c0.202-0.056,0.72,0.02,0.934,0.056
			c0.065,0.011,0.13,0.013,0.197,0.007l0.487-0.04c0.069-0.006,0.138-0.021,0.204-0.044l1.045-0.371c0,0,0.149-0.767-0.164-1.009
			C233.625,306.458,225.486,308.275,225.486,308.275z"/>
		<path fill="#504F60" d="M229.79,305.16c0,0-0.904,0.572-1.065,0.734c-0.16,0.162-1.794,0.824-2.359,1.17
			c-0.566,0.345-0.993,0.936-1.03,1.129c-0.037,0.194-0.123,0.636-0.058,0.821s0.361,0.677,1.339,0.737
			c0.875,0.055,2.561-0.684,2.905-0.839c0.042-0.019,0.08-0.04,0.118-0.066c0.26-0.177,1.346-0.914,1.524-0.998
			c0.203-0.096,2.003-0.551,2.276-0.642s0.58-0.125,0.62-0.344c0.04-0.221,0.122-1.427-0.022-1.806
			C233.892,304.678,230.588,304.188,229.79,305.16z"/>
		<path fill="#626170" d="M232.173,311.498c0,0-0.269,0.004-0.332,0.361c-0.021,0.117-0.034,0.242-0.043,0.357
			c-0.021,0.307,0.125,0.605,0.394,0.757c0.227,0.128,0.564,0.258,1.049,0.319c1.121,0.142,2.494-0.272,3.197-0.671
			s0.956-0.723,1.381-1.312c0.424-0.589,0.861-0.87,0.861-0.87l0.18,0.048c0,0,0.628-0.456,0.973-0.773
			c0.14-0.127,0.229-0.297,0.253-0.484c0.049-0.396,0.057-1.043-0.061-1.118C239.87,308.014,232.173,311.498,232.173,311.498z"/>
		<path fill="#504F60" d="M235.148,307.701l-0.146,0.35c-0.042,0.102-0.104,0.191-0.182,0.268c-0.413,0.402-1.792,1.747-2.213,2.196
			c-0.496,0.531-0.753,0.996-0.774,1.478c-0.022,0.481,1.229,0.793,1.416,0.807c0.188,0.013,1.019,0.095,2.083-0.302
			s1.504-0.778,2.358-1.708s1.433-1.441,1.695-1.653c0.262-0.212,0.643-0.552,0.639-0.826c-0.004-0.275,0.039-1.047-0.187-1.144
			c-0.203-0.086-3.184-0.334-4.296,0.118C235.358,307.359,235.224,307.52,235.148,307.701z"/>
		<path fill="#6D899A" d="M227.416,273.697c0,0-0.405,0.69-0.369,2.381c0.035,1.689,0.25,11.033,1.226,16.008
			c0.976,3.046,1.549,11.93,1.573,12.715c0.904,1.285,4.39,0.762,4.294-0.071c-0.095-0.833-0.137-7.085-0.02-8.632
			s-0.061-16.301-1.348-18.434C231.485,275.53,227.416,273.697,227.416,273.697z"/>
		<path fill="#738E9E" d="M230.219,276.809c0,0-0.258,4.528,0.409,5.48c0.666,0.952,0.978,0.997,1.168,2.973s0.998,7.621,1.45,9.168
			s1.545,9.606,1.901,13.271c1.737,0.833,4.595,0.894,4.689-0.535c0.095-1.428,0.28-7.192-0.481-10.549
			c-0.762-3.355-0.942-4.775-0.942-5.799s0.163-8.006,0.259-8.291c0.095-0.286,1.118-4.25-0.048-5.834
			S230.219,276.809,230.219,276.809z"/>
		<g>
			<g>
				<path fill="#8C92B0" d="M230.41,281.605c-0.064,0.003-0.136-0.012-0.209-0.045c-0.353-0.156-0.76-0.703-0.822-1.536
					c-0.034-0.453-0.085-2.253-0.069-2.469l0.205,0.014c-0.013,0.186,0.034,1.967,0.07,2.44c0.06,0.801,0.452,1.256,0.7,1.366
					c0.072,0.031,0.133,0.036,0.169,0.01c0.052-0.038,0.069-0.15,0.047-0.299c-0.159-1.037-0.219-3.466-0.052-3.589l0.049-0.036
					l0.062,0.024l-0.044,0.094l0.001-0.002l0.001,0.003l0.081,0.048c-0.061,0.166-0.087,2.174,0.105,3.428
					c0.045,0.295-0.043,0.43-0.126,0.491C230.53,281.584,230.472,281.604,230.41,281.605z M230.514,277.583l-0.041,0.088
					L230.514,277.583z"/>
			</g>
			<g>
				<path fill="#8C92B0" d="M235.674,281.313c-1.183,0.049-2.107-0.185-2.761-0.698c-0.849-0.668-0.904-1.558-0.906-1.595
					l0.205-0.011c0.001,0.009,0.057,0.841,0.833,1.45c0.812,0.635,2.085,0.812,3.786,0.522l0.034,0.2
					C236.444,281.254,236.046,281.297,235.674,281.313z"/>
			</g>
			<path fill="#A76478" d="M239.286,277.312c0,0-1.892,0.989-4.993,1.012c-3.103,0.022-4.3-0.29-5.372-0.825
				c-1.072-0.534-1.756-1.263-1.756-1.263l0.111-1.186c0,0,0.65,0.929,2.164,1.493c1.513,0.563,4.69,0.589,5.98,0.545
				s3.689-0.689,3.689-0.689L239.286,277.312z"/>
			<path fill="#738E9E" d="M232.678,277.123c0,0-0.062,0.34-0.048,0.738s0.077,1.128,0.077,1.128l-0.473-0.044
				c0,0-0.131-0.699-0.137-1.054c-0.005-0.354,0.069-0.849,0.069-0.849L232.678,277.123z"/>
			<path fill="#738E9E" d="M237.152,276.848c0,0,0.105,0.33,0.144,0.727c0.038,0.397,0.07,1.129,0.07,1.129l0.463-0.104
				c0,0,0.039-0.71-0.002-1.063c-0.041-0.352-0.18-0.833-0.18-0.833L237.152,276.848z"/>
			<path fill="#738E9E" d="M228.284,275.924c0,0-0.086,0.422-0.081,0.762c0.006,0.339,0.107,0.912,0.107,0.912l-0.338-0.357
				c0,0-0.088-0.581-0.091-0.766c-0.002-0.185,0.135-0.733,0.135-0.733L228.284,275.924z"/>
			<g>
				<path fill="#8C92B0" d="M226.932,277.929c-0.031,0.001-0.064-0.001-0.099-0.009l0.048-0.198c0.25,0.063,0.534-0.589,0.625-0.913
					l0.199,0.054C227.673,276.976,227.398,277.909,226.932,277.929z"/>
			</g>
			<g>
				<path fill="#CCDEFB" d="M230.471,278.301c-0.055-0.002-0.111-0.012-0.168-0.027l-0.892-0.241
					c-0.38-0.104-0.694-0.463-0.715-0.819l-0.02-0.339c-0.01-0.174,0.05-0.323,0.17-0.421c0.135-0.111,0.331-0.143,0.538-0.086
					l0.892,0.242c0.38,0.104,0.694,0.463,0.715,0.818l0.02,0.34c0.01,0.174-0.05,0.323-0.17,0.421
					C230.744,278.269,230.614,278.307,230.471,278.301z M229.25,276.73c-0.06-0.003-0.11,0.011-0.146,0.04
					c-0.037,0.03-0.055,0.075-0.051,0.132l0.02,0.34c0.01,0.167,0.19,0.359,0.387,0.414l0.893,0.241
					c0.095,0.025,0.181,0.016,0.232-0.026c0.037-0.031,0.055-0.075,0.052-0.132l-0.021-0.34c-0.01-0.167-0.19-0.36-0.387-0.413
					l-0.893-0.242C229.307,276.735,229.278,276.731,229.25,276.73z"/>
			</g>
		</g>
		<path fill="#92BACF" d="M240.402,263.154c0,0,0.824-3.665-0.254-4.871c-1.079-1.205-3.189-2.775-4.269-3.331
			c-1.078-0.556-4.259-1.351-5.846-0.953c-1.587,0.396-3.197,2.999-3.309,5.284s0.071,4.419,0.476,6.466
			c0.405,2.047-0.952,8.274-0.174,8.671c0.229,0.61,0.008,1.141,0.02,1.658c0.009,0.413,1.368,1.624,5.067,2.155
			c4.706,0.677,6.867-0.395,6.892-0.883c0.023-0.487-0.19-1.463-0.19-1.463s0.583-0.179,0.583-0.667
			S238.251,270.461,240.402,263.154z"/>
		<path fill="#92BACF" d="M240.396,264.18c-0.077,0.479-0.147,0.939-0.198,1.355c-0.276,2.245-1.232,9.759-1.232,9.759
			c0,0.004-0.021,0.138-1.092,0.231c-0.355,0.032-0.95,0.032-1.669,0.007c-1.488-0.053-3.509-0.218-5.016-0.457
			c-2.234-0.354-4.497-2.136-4.392-2.712c0.107-0.574,0.305-2.473,0.043-6.057c-0.261-3.586-0.236-8.303,0.577-10.098
			c0.813-1.794,1.637-2.6,3.142-2.803c1.504-0.201,4.534-0.059,5.103,0.179c0.571,0.237,1.539,1.422,2.545,2.023
			c1.161,0.694,2.605,2.026,2.975,2.741C242.191,260.307,240.736,262.068,240.396,264.18z"/>
		<path fill="#ADFF91" d="M241.591,259.416c-0.144,0.618-0.384,2.063-0.657,3.801c-0.026,0.17-0.059,0.339-0.078,0.514
			c-0.183,1.146-0.371,2.389-0.56,3.586c-0.085,0.547-0.169,1.086-0.247,1.607c-0.059,0.357-0.117,0.709-0.17,1.041
			c-0.13,0.781-0.247,1.483-0.351,2.05c-0.137,0.768-0.254,1.288-0.326,1.425c-0.377,0.723-2.863,1.731-5.882,1.25
			c-3.026-0.481-2.883-0.678-3.313-1.25c-0.449,0.554-1.691,0.229-2.688-0.787c-0.885-0.892-0.501-1.432-0.436-2.753
			c0.006-0.175,0.013-0.37,0.006-0.579c-0.013-0.391-0.025-0.949-0.045-1.581c-0.007-0.247-0.02-0.508-0.026-0.774
			c-0.02-0.729-0.039-1.503-0.059-2.244c-0.026-1.016-0.052-1.959-0.059-2.564c-0.007-0.208-0.007-0.384-0.007-0.501
			c0-0.417,0-0.982,0.065-1.673c0.098-1.054,0.357-2.395,1.002-3.924c1.093-2.59,3.514-2.83,6.046-2.401
			c1.295,0.216,2.954,0.482,2.954,0.482S242.08,257.348,241.591,259.416z"/>
		<g>
			<path fill="#F4F4F4" d="M239.879,269.965c-0.13,0.781-0.247,1.483-0.351,2.05c-0.872,0.286-1.959,0.423-3.149,0.423
				c-2.265,0-4.939-0.508-7.387-1.51c-0.839-0.345-1.542-0.684-2.107-1.028c0.006-0.175,0.013-0.37,0.006-0.579
				c-0.013-0.391-0.025-0.949-0.045-1.581c0.228,0.261,0.891,0.82,2.798,1.601C234.16,271.194,238.696,270.941,239.879,269.965z"/>
		</g>
		<g>
			<path fill="#F4F4F4" d="M240.296,267.316c-0.085,0.547-0.169,1.086-0.247,1.607c-0.95,0.41-2.226,0.618-3.664,0.618
				c-2.271,0-4.945-0.508-7.393-1.517c-0.871-0.357-1.601-0.709-2.173-1.061c-0.02-0.729-0.039-1.503-0.059-2.244
				c0.104,0.175,0.618,0.793,2.883,1.724c4.626,1.9,9.279,1.581,10.32,0.54L240.296,267.316z"/>
		</g>
		<g>
			<path fill="#F4F4F4" d="M240.934,263.217c-0.026,0.17-0.059,0.339-0.078,0.514c-0.963,0.717-2.577,1.074-4.477,1.074
				c-2.265,0-4.939-0.508-7.387-1.517c-0.937-0.384-1.698-0.761-2.29-1.132c-0.007-0.208-0.007-0.384-0.007-0.501
				c0-0.417,0-0.982,0.065-1.673c0.104,0.176,0.618,0.788,2.883,1.718c4.626,1.907,9.279,1.588,10.32,0.547L240.934,263.217z"/>
		</g>
		<path fill="#92BACF" d="M233.129,253.752c0,0-1.893-0.25-2.678,1.678s0.273,3.011,0.262,3.771c0.952-0.63,1.479-1.522,3.399-1.951
			c1.92-0.428,3.003-1.582,2.967-2.142S235.675,253.145,233.129,253.752z"/>
		<path fill="#A8B0C2" d="M237.545,261.124c0,0-0.825,2.149-0.801,4.292c0.023,2.142,0.433,4.474,0.406,4.949
			c-0.025,0.477,0,6.069,0,6.069s1.212-7.044,1.212-8.163S237.545,261.124,237.545,261.124z"/>
		<path fill="#B9D3E1" d="M240.226,257.988c0,0-2.491-0.103-3.051,2.649c-0.592,2.904-0.439,4.899-0.218,6.536
			c0.223,1.637,0.246,3.735,1.17,3.846c0.922,0.111,2.758,0.195,2.957-1.322s0.393-7.857,0.485-9.234
			C241.697,258.575,241.203,258.007,240.226,257.988z"/>
		<path fill="#A8B0C2" d="M230.334,275.578c0,0-1.349-0.979-1.587-1.513c-0.237-0.534-1.022-1.091-1.022-1.091
			s-0.144,0.461-0.429-0.193c0.023,0.727,0.404,1.035,0.571,1.131c0.166,0.095,0.162-0.382,0.616,0.393
			C228.938,275.078,230.334,275.578,230.334,275.578z"/>
		<path fill="#A8B0C2" d="M232.485,276.88c0,0-2.476-0.397-3.285-0.826c-0.809-0.429-2.173-1.634-2.173-1.634v0.796
			C227.027,275.216,229.676,277.445,232.485,276.88z"/>
		<path fill="#EDEFF3" d="M235.84,270.318c0,0-0.429-1.714-0.929-2.57c-0.499-0.857-2.022-1.643-2.237-3.927
			c0.215,2.213,0.643,3.015,1.5,4.03C235.031,268.866,235.84,270.318,235.84,270.318z"/>
		<path fill="#EDEFF3" d="M237.339,256.618c0,0,0.254,0.364-0.571,1.761s-1.301,2.063-1.396,2.745
			c-0.095,0.683-0.095,0.683-0.095,0.683s0.734-1.508,1.185-2.063c0.449-0.556,1.068-0.826,1.497-1.539
			c-0.81,1.38-1.762,2.76-2.047,4.22c-0.286,1.46-0.396,2.697-0.396,2.697s0.016-1.603-0.302-2.301s-0.479-1.46-0.048-2.411
			C236.07,258.411,237.022,258.205,237.339,256.618z"/>
		<path fill="#EDEFF3" d="M240.226,269.318c0,0-0.603-0.301-1.148-0.169c-0.545,0.132-1.065,0.507-1.16,0.566
			s-0.629,0.123-0.629,0.123s0.333-0.392,0.611-0.46c0.278-0.067,0.943-0.551,1.328-0.567
			C239.612,268.795,240.015,268.912,240.226,269.318z"/>
		<g>
			
				<linearGradient id="SVGID_1_" gradientUnits="userSpaceOnUse" x1="-708.0972" y1="545.5703" x2="-711.6913" y2="543.3013" gradientTransform="matrix(0.9937 0.1119 -0.1119 0.9937 1000.5759 -209.2993)">
				<stop  offset="0.1224" style="stop-color:#FEC7C7"/>
				<stop  offset="0.9694" style="stop-color:#FFADB7"/>
			</linearGradient>
			<path fill="url(#SVGID_1_)" d="M231.047,252.282c0,0-0.1,2.843-0.303,3.388s0.601,1.104,1.93,1.064
				c1.33-0.039,2.895-1.184,3.419-1.36c0.524-0.178,0.518-0.447,0.119-1.013c-0.399-0.564-0.89-1.251-0.597-2.874
				c0.294-1.622,0.851-3.909,0.491-4.36c-0.359-0.45-3.075,0-3.716,1.206C231.751,249.538,231.047,252.282,231.047,252.282z"/>
			<path fill="#FEC7C7" d="M235.319,248.521c0,0-1.118,2.872-1.354,3.428c-0.235,0.557-0.879,1.146-1.756,1.506
				c-0.875,0.359-2.275,0.61-2.815,0.36c-0.539-0.25-0.572-0.379-0.57-0.68c0.002-0.25-0.237-1.002-0.227-2.035
				c0.002-0.202,0.014-0.415,0.039-0.635c0.099-0.875-0.122-2.144-0.032-2.385c0.091-0.241,0.026-2.188,0.686-2.998
				s2.612-2.34,4.548-1.886c1.596,0.374,1.567,3.745,1.511,4.923C235.334,248.369,235.319,248.521,235.319,248.521z"/>
			<path fill="#754554" d="M235.585,251.674l0.47-0.578l0.314-0.139l0.552-0.979c0,0,1.137-2.111,1.051-3.304
				c-0.087-1.192-0.733-2.552-2.126-2.826c-0.979-1.119-2.756-1.304-3.794-1.185c-1.039,0.12-2.336,0.999-2.904,2.118
				c-0.567,1.118-0.247,1.13-0.247,1.13s0.621,0.457,1.438,0.061s1.202-0.731,1.498-0.698s0.575,0.774,0.534,1.133
				c-0.04,0.357-0.208,1.285,0.155,1.563s1.073,1.114,1.194,1.302s0.007,0.916,0.007,0.916l0.456-0.186c0,0,0.094-0.924,0.599-1.268
				c0.504-0.344,0.818,0.086,0.819,0.354c0.002,0.269-0.218,1.095-0.16,1.291C235.499,250.575,235.632,251.254,235.585,251.674z"/>
			
				<linearGradient id="SVGID_2_" gradientUnits="userSpaceOnUse" x1="-1105.8647" y1="300.2656" x2="-1104.3828" y2="300.2656" gradientTransform="matrix(1 0.001 -0.001 1 1340.6082 -49.2231)">
				<stop  offset="0.1224" style="stop-color:#FEB9B8"/>
				<stop  offset="1" style="stop-color:#FFDEDE"/>
			</linearGradient>
			<path fill="url(#SVGID_2_)" d="M234.708,248.999c0,0,0.33-0.548,0.972-0.336c0.643,0.212-0.174,1.808-0.221,1.902
				c-0.047,0.096-0.188,0.753-0.714,0.69c-0.524-0.063-0.211-0.799-0.211-0.799S234.826,249.478,234.708,248.999z"/>
			
				<linearGradient id="SVGID_3_" gradientUnits="userSpaceOnUse" x1="-1105.5815" y1="299.9863" x2="-1104.5894" y2="299.9863" gradientTransform="matrix(1 0.001 -0.001 1 1340.6082 -49.2231)">
				<stop  offset="0.1224" style="stop-color:#FCA4B5"/>
				<stop  offset="0.9896" style="stop-color:#FFADB7"/>
			</linearGradient>
			<path fill="url(#SVGID_3_)" d="M234.92,248.983c0,0,0.373-0.319,0.689-0.096c0.316,0.223-0.121,1.386-0.474,1.616
				c-0.204,0.016-0.411-0.029-0.411-0.029S235.022,249.266,234.92,248.983z"/>
		</g>
		<path fill="#B9D3E1" d="M224.652,264.805c0,0-1.095-0.879-1.87-0.949c-0.529,0.13-5.965,5.438-6.13,5.623
			c-0.166,0.184-0.559,0.503,0.217,1.421c0.776,0.918,1.003,0.783,1.183,0.663c0.179-0.121,0.653-0.395,0.732-0.391
			c0.08,0.003,1.584-0.828,2.025-1.165c1.402-1.071,1.904-1.556,2.701-1.831c1.058-0.365,1.991-1.397,1.966-1.592
			C225.451,266.391,225.23,265.477,224.652,264.805z"/>
		<g>
			<path fill="#FFCC54" d="M217.864,271.879c-0.097,0.33-0.262,0.275-0.369,0.445c-0.107,0.168-0.064,0.283-0.097,0.383
				c-0.034,0.1-0.29,0.27-0.407,0.35c-0.115,0.077-0.374-0.022-0.374-0.022s-0.281,0.074-0.454,0.067
				c-0.173-0.006-0.256-0.194-0.256-0.194s-0.146-0.041-0.322-0.106c-0.176-0.066-0.282-0.283-0.33-0.273
				c-0.049,0.01-0.432-0.089-0.481-0.186c-0.003-0.008-0.009-0.018-0.014-0.027c-0.045-0.095-0.09-0.215-0.09-0.215
				s-0.104,0.092-0.248,0.116c-0.088,0.015-0.183-0.008-0.247-0.057h-0.002c-0.041-0.03-0.068-0.067-0.078-0.109
				c-0.026-0.115,0.127-0.233,0.222-0.386c0.096-0.151,0.172-0.465,0.215-0.646c0.043-0.183,0.754-0.924,0.912-1.027
				c0.16-0.101,0.529-0.129,0.751-0.164c0.223-0.037,0.405-0.18,0.405-0.18s0.274,0.004,0.472,0.113
				c0.2,0.107,0.354,0.413,0.354,0.413c0.09,0.14,0.17,0.102,0.401,0.592S217.958,271.549,217.864,271.879z"/>
			<g>
				<path fill="#E1E3EE" d="M214.856,274.773c-0.009-0.033-0.216-0.811-0.5-2.242c-0.305-1.535,0.781-2.308,1.738-2.988l0.224-0.16
					c0.949-0.687,1.965-0.209,2.367,0.139l-0.423,0.494c-0.032-0.027-0.796-0.656-1.563-0.105l-0.227,0.162
					c-0.913,0.649-1.7,1.21-1.478,2.332c0.279,1.408,0.488,2.192,0.49,2.2L214.856,274.773z"/>
			</g>
			
				<linearGradient id="SVGID_4_" gradientUnits="userSpaceOnUse" x1="315.8335" y1="347.3281" x2="318.6001" y2="347.3281" gradientTransform="matrix(0.9993 0.0369 -0.0369 0.9993 -88.599 -87.1758)">
				<stop  offset="0.1224" style="stop-color:#FCA4B5"/>
				<stop  offset="0.9896" style="stop-color:#FFADB7"/>
			</linearGradient>
			<path fill="url(#SVGID_4_)" d="M216.958,271.722c0,0-0.076-0.197-0.137-0.227c-0.058-0.028-0.192-0.085-0.288-0.089
				c-0.026-0.045-0.132-0.1-0.255-0.106c-0.122-0.008-0.264,0.061-0.264,0.061s-0.072-0.058-0.148-0.103
				c-0.074-0.045-0.284-0.029-0.356,0.004c-0.071,0.034-0.172,0.273-0.258,0.372c-0.087,0.098-0.316,0.327-0.402,0.431
				c-0.088,0.105-0.071,0.117-0.091,0.25c-0.045-0.095-0.09-0.215-0.09-0.215s-0.104,0.092-0.248,0.116
				c-0.088,0.015-0.183-0.008-0.247-0.057c0.351,0.091,0.458-0.03,0.699-0.266c0.241-0.234,0.229-0.414,0.229-0.414l0.425-0.36
				l-0.075-0.24l0.199,0.145l0.206-0.13c0,0,0.054,0.008,0.021,0.043c-0.029,0.035-0.174,0.22-0.174,0.22s0.143,0.018,0.343,0.061
				c0.2,0.042,0.312-0.019,0.312-0.019s0.06-0.034,0.219,0.002c0.159,0.037,0.315,0.012,0.315,0.012l-0.267,0.106
				c0,0,0.228,0.073,0.288,0.139C216.977,271.522,216.958,271.722,216.958,271.722z"/>
			
				<linearGradient id="SVGID_5_" gradientUnits="userSpaceOnUse" x1="316.9263" y1="347.6973" x2="317.7378" y2="347.6973" gradientTransform="matrix(0.9993 0.0369 -0.0369 0.9993 -88.599 -87.1758)">
				<stop  offset="0.1224" style="stop-color:#FCA4B5"/>
				<stop  offset="0.9896" style="stop-color:#FFADB7"/>
			</linearGradient>
			<path fill="url(#SVGID_5_)" d="M216.015,271.36c0,0,0.026,0.342-0.045,0.435c-0.07,0.093-0.546,0.68-0.716,0.732
				c0.064,0.049,0.13,0.122,0.13,0.122s0.005-0.149,0.073-0.198c0.069-0.049,0.595-0.613,0.624-0.656s0.018-0.467,0.018-0.467
				L216.015,271.36z"/>
			
				<linearGradient id="SVGID_6_" gradientUnits="userSpaceOnUse" x1="317.5249" y1="347.8477" x2="318.2515" y2="347.8477" gradientTransform="matrix(0.9993 0.0369 -0.0369 0.9993 -88.599 -87.1758)">
				<stop  offset="0.1224" style="stop-color:#FCA4B5"/>
				<stop  offset="0.9896" style="stop-color:#FFADB7"/>
			</linearGradient>
			<path fill="url(#SVGID_6_)" d="M216.534,271.406c0,0,0.039,0.693-0.03,0.827s-0.664,0.654-0.664,0.654l0.067,0.02
				c0,0,0.647-0.577,0.668-0.647S216.645,271.482,216.534,271.406z"/>
			
				<linearGradient id="SVGID_7_" gradientUnits="userSpaceOnUse" x1="318.2505" y1="348.0029" x2="319.147" y2="348.0029" gradientTransform="matrix(0.9993 0.0369 -0.0369 0.9993 -88.599 -87.1758)">
				<stop  offset="0.1224" style="stop-color:#FCA4B5"/>
				<stop  offset="0.9896" style="stop-color:#FFADB7"/>
			</linearGradient>
			<path fill="url(#SVGID_7_)" d="M217.468,272.369c0,0,0.005-0.271-0.082-0.319c-0.088-0.049-0.263-0.139-0.313-0.081
				s-0.067,0.379-0.09,0.491s-0.367,0.574-0.367,0.574l-0.057,0.014c0,0,0.37-0.501,0.373-0.614
				c0.002-0.112,0.078-0.557,0.079-0.592c0.002-0.036-0.054-0.12-0.054-0.12l0.002-0.105c0,0,0.032,0.129,0.148,0.199
				C217.225,271.885,217.575,271.879,217.468,272.369z"/>
		</g>
		<g>
			<g>
				<g>
					<linearGradient id="SVGID_8_" gradientUnits="userSpaceOnUse" x1="215.5239" y1="288.6738" x2="232.3003" y2="288.6738">
						<stop  offset="0" style="stop-color:#C4C8D8"/>
						<stop  offset="0.0704" style="stop-color:#B1B6CC"/>
						<stop  offset="0.1511" style="stop-color:#A0A6C0"/>
						<stop  offset="0.3773" style="stop-color:#A0A6C0"/>
						<stop  offset="0.4933" style="stop-color:#ACB1C8"/>
						<stop  offset="0.7749" style="stop-color:#C4C8D8"/>
						<stop  offset="0.9821" style="stop-color:#C4C8D8"/>
						<stop  offset="1" style="stop-color:#C4C8D8"/>
					</linearGradient>
					<path fill="url(#SVGID_8_)" d="M232.3,275.072h-16.776l1.035,22.957l0,0c0.012,1.082,0.734,2.165,2.169,2.993
						c2.881,1.663,7.537,1.672,10.399,0.019c1.438-0.83,2.148-1.92,2.137-3.012h0.001L232.3,275.072z"/>
					<path fill="#9198B5" d="M217.546,298.615l-0.197-0.158c-0.132-0.104-0.21-0.262-0.215-0.43l-0.516-17.639
						c-0.015-0.486,0.547-0.766,0.927-0.463l0.197,0.158c0.131,0.104,0.21,0.262,0.215,0.43l0.516,17.639
						C218.488,298.639,217.926,298.918,217.546,298.615z"/>
					<path fill="#9198B5" d="M220.13,300.448L220.13,300.448c-0.345-0.096-0.587-0.404-0.596-0.762l-0.458-17.438
						c-0.014-0.546,0.503-0.95,1.028-0.805l0,0c0.345,0.096,0.586,0.404,0.596,0.762l0.458,17.438
						C221.172,300.189,220.656,300.594,220.13,300.448z"/>
					<path fill="#9198B5" d="M228.433,300.34L228.433,300.34c-0.386,0.187-0.833-0.102-0.82-0.53l0.521-18.021
						c0.007-0.213,0.13-0.404,0.321-0.497l0,0c0.387-0.188,0.833,0.102,0.82,0.53l-0.521,18.021
						C228.749,300.055,228.625,300.246,228.433,300.34z"/>
					<path fill="#9198B5" d="M230.385,299.164L230.385,299.164c-0.324,0.186-0.696-0.106-0.682-0.535l0.619-18.017
						c0.007-0.213,0.112-0.403,0.273-0.496l0,0c0.325-0.185,0.696,0.106,0.682,0.535l-0.618,18.017
						C230.653,298.881,230.546,299.072,230.385,299.164z"/>
					<path fill="#9198B5" d="M226.324,300.897L226.324,300.897c-0.518,0.279-1.022-0.005-1.019-0.573l0.135-17.824
						c0.002-0.26,0.168-0.528,0.404-0.656l0,0c0.518-0.279,1.022,0.005,1.019,0.573l-0.135,17.823
						C226.726,300.5,226.56,300.77,226.324,300.897z"/>
					<path fill="#9198B5" d="M223.328,301.021L223.328,301.021c-0.407,0.004-0.741-0.324-0.745-0.732l-0.153-17.664
						c-0.003-0.408,0.325-0.742,0.733-0.746l0,0c0.408-0.003,0.741,0.325,0.745,0.733l0.153,17.664
						C224.064,300.685,223.736,301.019,223.328,301.021z"/>
					<path fill="#948F96" d="M229.862,276.056c-3.266,1.886-8.577,1.876-11.863-0.021s-3.303-4.964-0.037-6.849
						c3.266-1.886,8.577-1.877,11.863,0.021C233.111,271.104,233.127,274.17,229.862,276.056z"/>
					<linearGradient id="SVGID_9_" gradientUnits="userSpaceOnUse" x1="214.6753" y1="274.6885" x2="233.1479" y2="274.6885">
						<stop  offset="0" style="stop-color:#CFD3E4"/>
						<stop  offset="0.0722" style="stop-color:#BBC0D7"/>
						<stop  offset="0.1511" style="stop-color:#AAB0CC"/>
						<stop  offset="0.3773" style="stop-color:#AAB0CC"/>
						<stop  offset="0.5001" style="stop-color:#B7BCD4"/>
						<stop  offset="0.7749" style="stop-color:#CFD3E4"/>
						<stop  offset="0.9821" style="stop-color:#CFD3E4"/>
						<stop  offset="1" style="stop-color:#CFD3E4"/>
					</linearGradient>
					<path fill="url(#SVGID_9_)" d="M233.148,272.62h-0.749c-0.453-0.613-1.108-1.189-1.977-1.69
						c-3.619-2.09-9.467-2.1-13.063-0.023c-0.877,0.506-1.535,1.09-1.982,1.714h-0.702v2.068h0.001
						c0.015,1.359,0.923,2.719,2.725,3.759c3.618,2.09,9.467,2.1,13.063,0.023c1.805-1.042,2.698-2.412,2.684-3.782h0.001V272.62z"
						/>
					<path fill="#C9CDE0" d="M230.463,276.402c-3.596,2.076-9.444,2.066-13.063-0.023c-3.619-2.089-3.637-5.465-0.041-7.541
						s9.444-2.065,13.063,0.023S234.059,274.327,230.463,276.402z"/>
					<path fill="#EFF0F5" d="M230.133,268.816c-3.515-2.029-9.196-2.04-12.689-0.023c-3.493,2.018-3.476,5.298,0.04,7.327
						c3.515,2.029,9.196,2.04,12.689,0.022C233.667,274.126,233.649,270.846,230.133,268.816z"/>
					<path fill="#CFD3E4" d="M229.212,269.208c-2.946-1.701-7.708-1.71-10.636-0.019c-2.928,1.689-2.912,4.439,0.033,6.14
						c2.946,1.701,7.708,1.71,10.636,0.02S232.159,270.909,229.212,269.208z"/>
					<path fill="#E1E3EE" d="M228.815,269.763c-2.725-1.573-7.13-1.581-9.838-0.018c-2.709,1.563-2.695,4.106,0.03,5.681
						c2.726,1.572,7.131,1.581,9.839,0.018S231.541,271.336,228.815,269.763z"/>
				</g>
			</g>
			<g>
				<path fill="#CFCECE" d="M223.936,274.586c-0.997,0-1.931-0.222-2.63-0.627c-0.656-0.379-1.015-0.863-1.015-1.367
					c0-0.498,0.353-0.977,0.997-1.351c0.527-0.303,1.192-0.504,1.918-0.577c0.111-0.012,0.222-0.023,0.339-0.029
					c0.113-0.006,0.227-0.008,0.344-0.008c0.122,0,0.248,0.002,0.367,0.012c0.108,0.006,0.216,0.014,0.321,0.025
					c0.731,0.076,1.405,0.28,1.941,0.59c0.653,0.376,1.015,0.862,1.015,1.367c0,0.498-0.353,0.977-0.997,1.347
					C225.848,274.367,224.924,274.586,223.936,274.586z"/>
				<path fill="#CFD3E4" d="M228.464,269.994c-0.812-0.47-1.779-0.787-2.809-0.957c-0.288-0.049-0.583-0.084-0.883-0.11
					c-0.502-0.041-1.012-0.047-1.52-0.018c-0.286,0.015-0.574,0.044-0.857,0.081c-1.125,0.152-2.189,0.481-3.067,0.986
					c-2.514,1.451-2.502,3.813,0.029,5.274c2.531,1.46,6.622,1.47,9.135,0.018C231.009,273.816,230.995,271.455,228.464,269.994z
					 M221.875,275.545c-0.79-0.168-1.514-0.434-2.123-0.787c-1.064-0.615-1.65-1.408-1.65-2.238c0-0.823,0.577-1.607,1.621-2.211
					c1.103-0.636,2.575-0.985,4.152-0.985c1.589,0,3.079,0.355,4.198,1c1.064,0.615,1.648,1.411,1.648,2.239
					c0,0.822-0.575,1.606-1.622,2.21c-0.688,0.397-1.521,0.683-2.435,0.843c-0.09,0.015-0.184,0.029-0.276,0.044
					c-0.146,0.021-0.295,0.038-0.446,0.052c-0.032,0.004-0.067,0.006-0.103,0.01c-0.075,0.008-0.151,0.012-0.228,0.014
					c-0.219,0.018-0.439,0.023-0.661,0.023c-0.595,0-1.179-0.049-1.732-0.146C222.102,275.592,221.988,275.572,221.875,275.545z
					 M228.102,271.096c-0.009-0.006-0.018-0.015-0.023-0.021c-0.203-0.201-0.454-0.388-0.752-0.56
					c-1.898-1.096-4.966-1.102-6.852-0.012c-0.283,0.163-0.522,0.342-0.718,0.53c-1.306,1.12-1.093,2.657,0.633,3.651
					c1.956,1.131,5.12,1.137,7.065,0.014C229.149,273.723,229.362,272.216,228.102,271.096z M223.096,274.912
					c-0.026,0-0.05-0.003-0.07-0.005c-0.107-0.012-0.213-0.026-0.32-0.044c-0.741-0.119-1.417-0.348-1.972-0.668
					c-0.799-0.461-1.239-1.053-1.239-1.668c0-0.609,0.432-1.192,1.22-1.645c0.839-0.486,1.965-0.752,3.169-0.752
					c1.213,0,2.354,0.271,3.207,0.764c0.796,0.461,1.236,1.053,1.236,1.668c0,0.606-0.432,1.192-1.216,1.645
					c-0.571,0.33-1.274,0.557-2.044,0.674c-0.093,0.012-0.189,0.023-0.285,0.031c-0.059,0.01-0.114,0.016-0.173,0.018
					c-0.218,0.021-0.442,0.029-0.667,0.029c-0.228,0-0.452-0.009-0.674-0.029C223.209,274.928,223.152,274.922,223.096,274.912z"/>
				<path fill="#D7D6D6" d="M223.936,274.586c-0.997,0-1.931-0.222-2.63-0.627c-0.656-0.379-1.015-0.863-1.015-1.367
					c0-0.498,0.353-0.977,0.997-1.351c0.527-0.303,1.192-0.504,1.918-0.577c0.111-0.012,0.222-0.023,0.339-0.029
					c0.113-0.006,0.227-0.008,0.344-0.008c0.122,0,0.248,0.002,0.367,0.012c0.108,0.006,0.216,0.014,0.321,0.025
					c0.731,0.076,1.405,0.28,1.941,0.59c0.653,0.376,1.015,0.862,1.015,1.367c0,0.498-0.353,0.977-0.997,1.347
					C225.848,274.367,224.924,274.586,223.936,274.586z"/>
				<path fill="#EFF0F5" d="M228.306,269.95c-0.767-0.44-1.683-0.746-2.65-0.913c-0.288-0.049-0.583-0.084-0.883-0.11
					c-0.502-0.041-1.012-0.047-1.52-0.018c-0.286,0.015-0.574,0.044-0.857,0.081c-1.064,0.152-2.073,0.467-2.903,0.945
					c-2.43,1.399-2.415,3.68,0.025,5.088c2.441,1.411,6.389,1.417,8.814,0.018C230.758,273.639,230.747,271.361,228.306,269.95z
					 M225.388,275.659c-0.146,0.021-0.295,0.038-0.446,0.052c-0.032,0.004-0.067,0.006-0.103,0.01
					c-0.075,0.008-0.151,0.012-0.228,0.014c-0.219,0.018-0.439,0.023-0.661,0.023c-0.595,0-1.179-0.049-1.732-0.146
					c-0.116-0.021-0.23-0.04-0.344-0.067c-0.79-0.168-1.514-0.434-2.123-0.787c-1.064-0.615-1.65-1.408-1.65-2.238
					c0-0.823,0.577-1.607,1.621-2.211c1.103-0.636,2.575-0.985,4.152-0.985c1.589,0,3.079,0.355,4.198,1
					c1.064,0.615,1.648,1.411,1.648,2.239c0,0.822-0.575,1.606-1.622,2.21c-0.688,0.397-1.521,0.683-2.435,0.843
					C225.575,275.63,225.481,275.645,225.388,275.659z M228.102,271.096c-0.009-0.006-0.018-0.015-0.023-0.021
					c-0.203-0.201-0.454-0.388-0.752-0.56c-1.898-1.096-4.966-1.102-6.852-0.012c-0.283,0.163-0.522,0.342-0.718,0.53
					c-1.306,1.12-1.093,2.657,0.633,3.651c1.956,1.131,5.12,1.137,7.065,0.014C229.149,273.723,229.362,272.216,228.102,271.096z
					 M223.096,274.912c-0.026,0-0.05-0.003-0.07-0.005c-0.107-0.012-0.213-0.026-0.32-0.044c-0.741-0.119-1.417-0.348-1.972-0.668
					c-0.799-0.461-1.239-1.053-1.239-1.668c0-0.609,0.432-1.192,1.22-1.645c0.839-0.486,1.965-0.752,3.169-0.752
					c1.213,0,2.354,0.271,3.207,0.764c0.796,0.461,1.236,1.053,1.236,1.668c0,0.606-0.432,1.192-1.216,1.645
					c-0.571,0.33-1.274,0.557-2.044,0.674c-0.093,0.012-0.189,0.023-0.285,0.031c-0.059,0.01-0.114,0.016-0.173,0.018
					c-0.218,0.021-0.442,0.029-0.667,0.029c-0.228,0-0.452-0.009-0.674-0.029C223.209,274.928,223.152,274.922,223.096,274.912z"/>
				<path fill="#CFCECE" d="M223.936,274.586c-0.997,0-1.931-0.222-2.63-0.627c-0.656-0.379-1.015-0.863-1.015-1.367
					c0-0.498,0.353-0.977,0.997-1.351c0.527-0.303,1.192-0.504,1.918-0.577c0.111-0.012,0.222-0.023,0.339-0.029
					c0.113-0.006,0.227-0.008,0.344-0.008c0.122,0,0.248,0.002,0.367,0.012c0.108,0.006,0.216,0.014,0.321,0.025
					c0.731,0.076,1.405,0.28,1.941,0.59c0.653,0.376,1.015,0.862,1.015,1.367c0,0.498-0.353,0.977-0.997,1.347
					C225.848,274.367,224.924,274.586,223.936,274.586z"/>
				<path fill="#CFD3E4" d="M228.143,270.235c-1.14-0.658-2.656-1.021-4.271-1.021c-1.601,0-3.097,0.359-4.216,1.004
					c-1.064,0.615-1.65,1.411-1.65,2.248c0,0.842,0.598,1.649,1.677,2.273c0.629,0.365,1.376,0.639,2.192,0.805
					c-0.79-0.168-1.514-0.434-2.123-0.787c-1.064-0.615-1.65-1.408-1.65-2.238c0-0.823,0.577-1.607,1.621-2.211
					c1.103-0.636,2.575-0.985,4.152-0.985c1.589,0,3.079,0.355,4.198,1c1.064,0.615,1.648,1.411,1.648,2.239
					c0,0.822-0.575,1.606-1.622,2.21c-0.688,0.397-1.521,0.683-2.435,0.843c0.939-0.157,1.8-0.449,2.505-0.857
					c1.062-0.615,1.647-1.411,1.647-2.248C229.817,271.667,229.222,270.859,228.143,270.235z M228.102,271.096
					c-0.009-0.006-0.018-0.015-0.023-0.021c-0.203-0.201-0.454-0.388-0.752-0.56c-1.898-1.096-4.966-1.102-6.852-0.012
					c-0.283,0.163-0.522,0.342-0.718,0.53c-1.306,1.12-1.093,2.657,0.633,3.651c1.956,1.131,5.12,1.137,7.065,0.014
					C229.149,273.723,229.362,272.216,228.102,271.096z M223.096,274.912c-0.026,0-0.05-0.003-0.07-0.005
					c-0.107-0.012-0.213-0.026-0.32-0.044c-0.741-0.119-1.417-0.348-1.972-0.668c-0.799-0.461-1.239-1.053-1.239-1.668
					c0-0.609,0.432-1.192,1.22-1.645c0.839-0.486,1.965-0.752,3.169-0.752c1.213,0,2.354,0.271,3.207,0.764
					c0.796,0.461,1.236,1.053,1.236,1.668c0,0.606-0.432,1.192-1.216,1.645c-0.571,0.33-1.274,0.557-2.044,0.674
					c-0.093,0.012-0.189,0.023-0.285,0.031c-0.059,0.01-0.114,0.016-0.173,0.018c-0.218,0.021-0.442,0.029-0.667,0.029
					c-0.228,0-0.452-0.009-0.674-0.029C223.209,274.928,223.152,274.922,223.096,274.912z"/>
				<path fill="#C9C8C8" d="M223.936,274.586c-0.997,0-1.931-0.222-2.63-0.627c-0.656-0.379-1.015-0.863-1.015-1.367
					c0-0.498,0.353-0.977,0.997-1.351c0.527-0.303,1.192-0.504,1.918-0.577c0.111-0.012,0.222-0.023,0.339-0.029
					c0.113-0.006,0.227-0.008,0.344-0.008c0.122,0,0.248,0.002,0.367,0.012c0.108,0.006,0.216,0.014,0.321,0.025
					c0.731,0.076,1.405,0.28,1.941,0.59c0.653,0.376,1.015,0.862,1.015,1.367c0,0.498-0.353,0.977-0.997,1.347
					C225.848,274.367,224.924,274.586,223.936,274.586z"/>
				<path fill="#C9C8C8" d="M228.102,271.096c-0.009-0.006-0.018-0.015-0.023-0.021c-0.203-0.201-0.454-0.388-0.752-0.56
					c-1.898-1.096-4.966-1.102-6.852-0.012c-0.283,0.163-0.522,0.342-0.718,0.53c-1.306,1.12-1.093,2.657,0.633,3.651
					c1.956,1.131,5.12,1.137,7.065,0.014C229.149,273.723,229.362,272.216,228.102,271.096z M223.096,274.912
					c-0.026,0-0.05-0.003-0.07-0.005c-0.107-0.012-0.213-0.026-0.32-0.044c-0.741-0.119-1.417-0.348-1.972-0.668
					c-0.799-0.461-1.239-1.053-1.239-1.668c0-0.609,0.432-1.192,1.22-1.645c0.839-0.486,1.965-0.752,3.169-0.752
					c1.213,0,2.354,0.271,3.207,0.764c0.796,0.461,1.236,1.053,1.236,1.668c0,0.606-0.432,1.192-1.216,1.645
					c-0.571,0.33-1.274,0.557-2.044,0.674c-0.093,0.012-0.189,0.023-0.285,0.031c-0.059,0.01-0.114,0.016-0.173,0.018
					c-0.218,0.021-0.442,0.029-0.667,0.029c-0.228,0-0.452-0.009-0.674-0.029C223.209,274.928,223.152,274.922,223.096,274.912z"/>
				<path fill="#CFCECE" d="M226.537,273.968c-0.688,0.399-1.612,0.618-2.601,0.618c-0.997,0-1.931-0.222-2.63-0.627
					c-0.656-0.379-1.015-0.863-1.015-1.367c0-0.498,0.353-0.977,0.997-1.351c0.527-0.303,1.192-0.504,1.918-0.577
					c0.111-0.012,0.222-0.023,0.339-0.029c0.113-0.006,0.227-0.008,0.344-0.008c0.122,0,0.248,0.002,0.367,0.012
					c0.108,0.006,0.216,0.014,0.321,0.025c0.731,0.076,1.405,0.28,1.941,0.59c0.653,0.376,1.015,0.862,1.015,1.367
					C227.534,273.119,227.181,273.598,226.537,273.968z"/>
				<path fill="#CFD3E4" d="M228.102,271.096c-0.009-0.006-0.018-0.015-0.023-0.021c-0.184-0.163-0.399-0.314-0.644-0.458
					c-1.96-1.128-5.123-1.134-7.068-0.011c-0.23,0.134-0.435,0.276-0.609,0.428c-1.306,1.12-1.093,2.657,0.633,3.651
					c1.956,1.131,5.12,1.137,7.065,0.014C229.149,273.723,229.362,272.216,228.102,271.096z M223.096,274.912
					c-0.026,0-0.05-0.003-0.07-0.005c-0.107-0.012-0.213-0.026-0.32-0.044c-0.741-0.119-1.417-0.348-1.972-0.668
					c-0.799-0.461-1.239-1.053-1.239-1.668c0-0.609,0.432-1.192,1.22-1.645c0.839-0.486,1.965-0.752,3.169-0.752
					c1.213,0,2.354,0.271,3.207,0.764c0.796,0.461,1.236,1.053,1.236,1.668c0,0.606-0.432,1.192-1.216,1.645
					c-0.571,0.33-1.274,0.557-2.044,0.674c-0.093,0.012-0.189,0.023-0.285,0.031c-0.059,0.01-0.114,0.016-0.173,0.018
					c-0.218,0.021-0.442,0.029-0.667,0.029c-0.228,0-0.452-0.009-0.674-0.029C223.209,274.928,223.152,274.922,223.096,274.912z"/>
				<path fill="#D7D6D6" d="M226.537,273.968c-0.688,0.399-1.612,0.618-2.601,0.618c-0.997,0-1.931-0.222-2.63-0.627
					c-0.656-0.379-1.015-0.863-1.015-1.367c0-0.498,0.353-0.977,0.997-1.351c0.527-0.303,1.192-0.504,1.918-0.577
					c0.111-0.012,0.222-0.023,0.339-0.029c0.113-0.006,0.227-0.008,0.344-0.008c0.122,0,0.248,0.002,0.367,0.012
					c0.108,0.006,0.216,0.014,0.321,0.025c0.731,0.076,1.405,0.28,1.941,0.59c0.653,0.376,1.015,0.862,1.015,1.367
					C227.534,273.119,227.181,273.598,226.537,273.968z"/>
				<path fill="#EFF0F5" d="M228.102,271.096c-0.009-0.006-0.018-0.015-0.023-0.021c-0.203-0.201-0.454-0.388-0.752-0.56
					c-1.898-1.096-4.966-1.102-6.852-0.012c-0.283,0.163-0.522,0.342-0.718,0.53c-1.125,1.07-0.877,2.493,0.737,3.427
					c1.898,1.096,4.969,1.102,6.855,0.012C228.93,273.56,229.178,272.169,228.102,271.096z M224.782,274.912
					c-0.059,0.01-0.114,0.016-0.173,0.018c-0.218,0.021-0.442,0.029-0.667,0.029c-0.228,0-0.452-0.009-0.674-0.029
					c-0.059-0.002-0.116-0.008-0.172-0.018c-0.026,0-0.05-0.003-0.07-0.005c-0.107-0.012-0.213-0.026-0.32-0.044
					c-0.741-0.119-1.417-0.348-1.972-0.668c-0.799-0.461-1.239-1.053-1.239-1.668c0-0.609,0.432-1.192,1.22-1.645
					c0.839-0.486,1.965-0.752,3.169-0.752c1.213,0,2.354,0.271,3.207,0.764c0.796,0.461,1.236,1.053,1.236,1.668
					c0,0.606-0.432,1.192-1.216,1.645c-0.571,0.33-1.274,0.557-2.044,0.674C224.974,274.893,224.877,274.904,224.782,274.912z"/>
				<path fill="#CFCECE" d="M226.537,273.968c-0.688,0.399-1.612,0.618-2.601,0.618c-0.997,0-1.931-0.222-2.63-0.627
					c-0.656-0.379-1.015-0.863-1.015-1.367c0-0.498,0.353-0.977,0.997-1.351c0.527-0.303,1.192-0.504,1.918-0.577
					c0.111-0.012,0.222-0.023,0.339-0.029c0.113-0.006,0.227-0.008,0.344-0.008c0.122,0,0.248,0.002,0.367,0.012
					c0.108,0.006,0.216,0.014,0.321,0.025c0.731,0.076,1.405,0.28,1.941,0.59c0.653,0.376,1.015,0.862,1.015,1.367
					C227.534,273.119,227.181,273.598,226.537,273.968z"/>
				<path fill="#CFD3E4" d="M228.429,272.504c0,0.624-0.44,1.222-1.242,1.686c-0.592,0.341-1.321,0.577-2.12,0.691
					c0.77-0.117,1.473-0.344,2.044-0.674c0.784-0.452,1.216-1.038,1.216-1.645c0-0.615-0.44-1.207-1.236-1.668
					c-0.854-0.492-1.994-0.764-3.207-0.764c-1.204,0-2.33,0.266-3.169,0.752c-0.788,0.452-1.22,1.035-1.22,1.645
					c0,0.615,0.44,1.207,1.239,1.668c0.633,0.367,1.426,0.609,2.292,0.712c-0.892-0.1-1.711-0.351-2.367-0.729
					c-0.816-0.473-1.266-1.079-1.266-1.709c0-0.621,0.443-1.219,1.245-1.682c0.86-0.496,2.012-0.77,3.242-0.77
					c1.245,0,2.411,0.276,3.283,0.781C227.98,271.271,228.429,271.877,228.429,272.504z"/>
				<path fill="#C9C8C8" d="M227.534,272.621c0,0.498-0.353,0.977-0.997,1.347c-0.688,0.399-1.612,0.618-2.601,0.618
					c-0.997,0-1.931-0.222-2.63-0.627c-0.656-0.379-1.015-0.863-1.015-1.367c0-0.498,0.353-0.977,0.997-1.351
					c0.527-0.303,1.192-0.504,1.918-0.577c0.111-0.012,0.222-0.023,0.339-0.029c0.113-0.006,0.227-0.008,0.344-0.008
					c0.122,0,0.248,0.002,0.367,0.012c0.108,0.006,0.216,0.014,0.321,0.025c0.731,0.076,1.405,0.28,1.941,0.59
					C227.172,271.63,227.534,272.116,227.534,272.621z"/>
				<path fill="#CFD3E4" d="M227.534,272.621c0,0.498-0.353,0.977-0.997,1.347c-0.688,0.399-1.612,0.618-2.601,0.618
					c-0.997,0-1.931-0.222-2.63-0.627c-0.656-0.379-1.015-0.863-1.015-1.367c0-0.498,0.353-0.977,0.997-1.351
					c0.527-0.303,1.192-0.504,1.918-0.577c0.111-0.012,0.222-0.023,0.339-0.029c0.113-0.006,0.227-0.008,0.344-0.008
					c0.122,0,0.248,0.002,0.367,0.012c0.108,0.006,0.216,0.014,0.321,0.025c0.731,0.076,1.405,0.28,1.941,0.59
					C227.172,271.63,227.534,272.116,227.534,272.621z"/>
				<path fill="#EFF0F5" d="M227.318,272.502c0,0.469-0.332,0.918-0.938,1.268c-0.647,0.376-1.517,0.58-2.443,0.58
					c-0.939,0-1.816-0.209-2.476-0.589c-0.615-0.355-0.956-0.813-0.956-1.286c0-0.469,0.335-0.921,0.938-1.268
					c0.487-0.283,1.097-0.467,1.764-0.543c0.111-0.012,0.222-0.023,0.339-0.029c0.113-0.006,0.227-0.008,0.344-0.008
					c0.122,0,0.248,0.002,0.367,0.012c0.108,0.006,0.216,0.014,0.321,0.025c0.673,0.076,1.294,0.266,1.787,0.552
					C226.98,271.571,227.318,272.026,227.318,272.502z"/>
			</g>
			<g>
				<path fill="#CCC9CD" d="M225.292,273.324c0,0,0.171-0.054,0.018-0.341c-0.109-0.205-0.291-0.172-0.291-0.172l-0.393,0.047
					c-0.526,0.05-0.926,0.09-1.452-0.237l-1.065-0.664c-0.18-0.111,0.564-0.122,0.564-0.122c0.086,0,0.184-0.024,0.014-0.344
					c-0.12-0.224-0.204-0.17-0.287-0.17c-0.254,0-1.838,0.269-1.396,0.544l1.265,0.787c0.577,0.36,1.321,0.784,2.064,0.788
					C224.6,273.441,225.292,273.324,225.292,273.324z"/>
			</g>
			<g>
				<path fill="#C4C8D8" d="M225.488,273.148c0,0,0.032,0.176-0.292,0.176c-0.232,0-0.289-0.176-0.289-0.176v-0.468
					c0-0.413-0.293-0.918-0.652-1.126l-0.834-0.481c-0.359-0.208-0.506-0.186-0.506,0.228v0.361c0,0,0.065,0.174-0.297,0.174
					c-0.254,0-0.285-0.174-0.285-0.174v-0.344c0-0.861,0.635-1.09,1.234-0.744l0.834,0.481c0.6,0.346,1.087,0.794,1.087,1.876
					V273.148z"/>
			</g>
		</g>
		<g>
			<path fill="#B9D3E1" d="M238.443,270.011c0,0-0.472-0.477-0.89-0.1c-0.418,0.378-1.586,2.876-1.903,3.288
				c-0.317,0.413-1.761,1.698-2.07,2.174c-0.31,0.477-0.294,0.793-0.294,0.793s-1.793,0.92-1.92,1.063
				c-0.127,0.143-0.206,0.476,0.477,1.618c0.682,1.143,1.095,1.158,1.364,0.984c0.27-0.175,1.158-1.032,1.476-1.096
				c0.317-0.063,0.937,0.159,1.316-0.079c0.382-0.237,0.873-0.838,1.444-1.188c0.571-0.35,2.332-2.873,2.649-3.587
				s0.848-2.792,0.956-3.475C241.156,269.725,241.203,268.487,238.443,270.011z"/>
			<g>
				<path fill="#E1E3EE" d="M231.886,281.5h-0.65c0-0.648,0.212-1.214,0.398-1.713c0.115-0.307,0.224-0.597,0.277-0.882
					c-0.031,0.019-0.063,0.038-0.089,0.059l-0.39-0.521c0.164-0.122,0.578-0.384,0.904-0.183c0.21,0.129,0.283,0.38,0.218,0.744
					c-0.063,0.347-0.189,0.685-0.312,1.012C232.068,280.484,231.886,280.969,231.886,281.5z"/>
			</g>
			<path fill="#FFCC54" d="M233.16,279.744c-0.01,0.168-0.413,0.92-0.501,1.079c-0.087,0.158-0.293,0.587-0.794,0.517
				c-0.43-0.063-0.501-0.166-0.624-0.202c-0.02-0.008-0.04-0.012-0.064-0.014c-0.037-0.003-0.107-0.013-0.194-0.026h-0.002
				c-0.331-0.053-0.926-0.172-1.05-0.259c-0.068-0.048-0.108-0.095-0.129-0.132c0,0,0,0-0.002-0.002
				c-0.028-0.047-0.028-0.08-0.028-0.08s-0.044-0.009-0.106-0.03c-0.126-0.04-0.33-0.118-0.408-0.225
				c-0.008-0.009-0.015-0.021-0.022-0.032v-0.002c-0.09-0.15-0.034-0.329-0.034-0.329s-0.181,0.103-0.411,0.11
				c-0.183,0.006-0.296-0.014-0.368-0.11c-0.019-0.024-0.034-0.058-0.047-0.094c-0.065-0.181,0.305-0.47,0.305-0.47
				s0.117-0.254,0.213-0.389c0.095-0.135,0.784-0.904,0.967-1.072c0.184-0.165,1.508-0.754,1.714-0.696
				c0.208,0.056,0.476,0.301,0.476,0.301C233.095,278.459,233.167,279.578,233.16,279.744z"/>
			<path fill="#DEA954" d="M230.593,279c-0.062,0.195,0.07,0.339-0.072,0.361c-0.143,0.025-0.339,0.03-0.535,0.064
				c-0.196,0.036-0.369,0.215-0.56,0.423c-0.19,0.21-0.213,0.251-0.192,0.487c-0.09-0.15-0.034-0.329-0.034-0.329
				s-0.181,0.103-0.411,0.11c-0.183,0.006-0.296-0.014-0.368-0.11c0.16,0.089,0.4,0.064,0.589-0.032
				c0.209-0.107,0.263-0.297,0.436-0.435c0.172-0.137,0.529-0.405,0.673-0.571c0.143-0.167,0.177-0.219,0.266-0.327
				c0.09-0.108,0.379-0.221,0.379-0.221C230.79,278.516,230.652,278.802,230.593,279z"/>
			<path fill="#DEA954" d="M229.801,280.707c0,0,0,0-0.002-0.002c-0.028-0.047-0.028-0.08-0.028-0.08s-0.044-0.009-0.106-0.03
				c0,0,0.002,0,0.004,0c0.121,0.008,1.094-0.229,1.094-0.229C230.842,280.557,229.801,280.707,229.801,280.707z"/>
			<path fill="#DEA954" d="M231.431,281.058l-0.19,0.08c-0.02-0.008-0.04-0.012-0.064-0.014c-0.037-0.003-0.107-0.013-0.194-0.026
				L231.431,281.058z"/>
		</g>
	</g>
	<g>
		<path fill="#E1E3EE" d="M227.252,282.443c-0.148-0.167-0.076-0.615-0.066-0.808c0.013-0.265,0.046-0.53,0.108-0.788
			c0.077-0.324,0.2-0.7,0.459-0.928c0.382-0.336,0.83-0.592,1.297-0.791c0.272-0.115,0.553-0.213,0.838-0.293
			c0.151-0.043,0.304-0.082,0.457-0.116c0.041-0.009,0.142-0.061,0.177-0.025c0.031,0.031-0.021,0.211-0.027,0.252
			c-0.039,0.281-0.279,0.471-0.541,0.548c-0.234,0.069-0.464,0.152-0.688,0.25c-0.389,0.169-0.764,0.383-1.083,0.664
			c-0.205,0.181-0.265,0.57-0.305,0.82c-0.044,0.274-0.055,0.554-0.046,0.832c0.006,0.153,0.022,0.248-0.106,0.357
			c-0.086,0.072-0.201,0.113-0.313,0.1c-0.05-0.006-0.1-0.021-0.138-0.053C227.267,282.459,227.259,282.451,227.252,282.443z"/>
	</g>
</g>
</svg>
