<?xml version="1.0" encoding="utf-8"?>
<!-- Generator: Adobe Illustrator 16.0.0, SVG Export Plug-In . SVG Version: 6.00 Build 0)  -->
<!DOCTYPE svg PUBLIC "-//W3C//DTD SVG 1.1//EN" "http://www.w3.org/Graphics/SVG/1.1/DTD/svg11.dtd">
<svg version="1.1" id="Layer_1" xmlns="http://www.w3.org/2000/svg" xmlns:xlink="http://www.w3.org/1999/xlink" x="0px" y="0px"
	 width="463.683px" height="425.749px" viewBox="0 0 463.683 425.749" enable-background="new 0 0 463.683 425.749"
	 xml:space="preserve">
<g>
	<polygon fill="#485455" points="190.14,111.474 193.068,104.308 193.146,104.469 196.051,91.059 200.385,91.998 197.481,105.407 
		197.387,105.841 195.87,105.435 192.352,112.201 	"/>
	<path id="XMLID_82_" fill="#FEA5A4" d="M192.409,112.083c0,0-0.725,1.504-0.956,1.793c-0.232,0.29-1.613,1.39-1.671,1.438
		c-0.059,0.048-1.286,0.872-1.286,0.872s-0.421,0-0.463-0.086c-0.042-0.085,0.029-0.094-0.042-0.085
		c-0.072,0.009-0.439,0.354-0.499,0.349c-0.06-0.007-0.312-0.141-0.29-0.203s-0.167-0.104-0.205-0.097
		c-0.039,0.007-0.229-0.213-0.104-0.405c0.125-0.192,0.15-0.298,0.15-0.298s-0.294-0.279-0.169-0.466
		c0.124-0.188,0.284-0.598,0.863-1.467c0.58-0.87,1.09-1.416,1.781-1.755s1.396-0.93,1.396-0.93S192.499,111.253,192.409,112.083z"
		/>
	<path id="XMLID_81_" fill="#FEBFBF" d="M190.68,112.54c0.052-0.029,0.104-0.063,0.13-0.115c0.144-0.299,0.016-0.888-0.269-1.083
		c-0.317-0.217-0.826-0.086-1.17-0.041c-0.397,0.049-0.81,0.334-1.073,0.614c-0.081,0.086-0.154,0.179-0.214,0.28
		c-0.188,0.316-0.235,0.698-0.371,1.04c-0.02,0.05-0.042,0.104-0.024,0.154c0.022,0.064,0.103,0.095,0.17,0.084
		c0.067-0.011,0.124-0.054,0.177-0.095c0.269-0.21,0.521-0.441,0.755-0.689c0.157-0.167,0.356-0.415,0.61-0.349
		c0.232,0.061,0.348,0.365,0.638,0.397c0.223,0.025,0.433-0.084,0.626-0.189C190.669,112.545,190.675,112.543,190.68,112.54z"/>
	<g>
		<path fill="#D7E4F2" d="M208.771,148.387c-3.677,2.123-9.656,2.112-13.356-0.023c-3.7-2.136-3.719-5.589-0.042-7.711
			s9.656-2.112,13.356,0.024C212.428,142.812,212.447,146.264,208.771,148.387z"/>
		<path fill="#8E8E8E" d="M201.39,140.897c0,0,0.369,0.146,0.359,0.432c-0.01,0.286-0.028,1.362-0.028,1.362
			s0.245,0.147,0.389,0.088c0.144-0.059,0.36-0.386,0.36-0.386s0.304-2.104,0.433-2.527
			C203.032,139.442,201.39,140.897,201.39,140.897z"/>
		<path fill="#C2D2EA" d="M202.686,142.702c0,0,0.56-1.972,1.046-2.321c0.485-0.349,2.599-1.013,2.667,0.539
			C206.466,142.472,202.686,142.702,202.686,142.702z"/>
		<path fill="#8E8E8E" d="M205.176,142.367c0,0,0.54-0.187,0.547,0.099c0.007,0.286,0.005,2.069,0.005,2.069s0.131,0.117,0.271,0.05
			c0.141-0.067,0.337-0.407,0.337-0.407s0.159-1.773,0.263-2.203C206.703,141.545,205.176,142.367,205.176,142.367z"/>
		<path fill="#485455" d="M202.637,139.695c-0.273,0.482-0.963,0.751-1.265,1.09c-0.428,0.479-1.361,2.788-1.673,3.123
			c-0.314,0.334-1.034,0.111-2.182,0.122c-1.151,0.01-0.75,0.063-0.702-0.266c0.046-0.327,0.687-1.224,0.981-1.733
			c0.294-0.512,1.584-1.767,1.903-2.766c0.03-0.091,0.033-0.266,0.013-0.504c-0.185-2.373-2.504-11.195-2.504-11.195
			s-2.547-9.545-2.535-13.823c0.01-3.148,0.834-5.733,0.834-5.733s3.87,1.212,5.153,2.93c0.215,0.292,0.36,0.596,0.397,0.91
			c0.165,1.354,0.028,6.113-0.099,9.558c-0.079,2.134-0.155,3.762-0.155,3.762s0.452,0.917,0.867,2.327
			c0.332,1.135,0.639,2.593,0.664,4.149c0.005,0.256,0.002,0.517-0.01,0.778c-0.038,0.775,0.124,5.586,0.39,6.566
			C202.792,139.272,202.749,139.5,202.637,139.695z"/>
		<path fill="#F2D8D8" d="M200.474,126.129c0,0,0.866,3.596,0.915,5.576c0.048,1.982,0.482,6.11,0.437,6.822
			c-0.048,0.712-0.718,1.304-1.195,2.128c-0.474,0.823-1.282,2.709-2.327,2.25c-0.36-0.159-0.54-0.418-0.621-0.687
			c-0.319,0.52-0.826,1.254-0.869,1.546c-0.046,0.327-0.446,0.276,0.702,0.267c1.15-0.011,1.87,0.212,2.182-0.122
			c0.314-0.335,1.247-2.644,1.673-3.123c0.428-0.482,1.612-0.816,1.346-1.797s-0.428-5.792-0.39-6.57
			c0.182-3.799-1.523-7.251-1.523-7.251s0.454-9.738,0.294-12.787l-1.024-2.058L200.474,126.129z"/>
		<path fill="#485455" d="M206.079,125.454c-0.131,1.83,0.449,2.603,0.72,6.124c0.078,1.054-0.685,8.623-0.685,8.623
			s0.228,0.88,0.271,1.468c0.043,0.585-0.441,1.168-1.136,2.701c-0.411,0.91-0.198,0.725-0.481,1.131
			c-0.281,0.403-1.019,1.48-1.959,1.404c-0.714-0.061-0.869-1.252-0.334-3.044c0.167-0.558,0.915-2.849,0.948-3.092
			c0.002-0.013,0.002-0.025,0.005-0.038c0.119-1.1-0.428-5.895-0.775-7.481c-0.125-0.565-0.23-1.121-0.317-1.604
			c-0.16-0.895-0.249-1.544-0.249-1.544s-0.327-1.589-0.411-2.539c-0.002-0.021-0.005-0.041-0.005-0.066
			c-0.069-0.697-0.403-3.569-0.712-6.088c-0.228-1.857-0.443-3.52-0.527-3.977c-0.197-1.09-1.361-5.178-0.537-5.981
			c0.132-0.129,0.403-0.307,0.766-0.509c1.906-1.078,6.382-2.875,6.803-1.918c1.227,2.788,1.188,4.65,0.466,8.681
			C207.169,121.934,206.213,123.622,206.079,125.454z"/>
		
			<linearGradient id="SVGID_1_" gradientUnits="userSpaceOnUse" x1="2108.0288" y1="91.0518" x2="2106.9563" y2="79.3445" gradientTransform="matrix(1 0 0 1 -1902.1113 0)">
			<stop  offset="0.1224" style="stop-color:#F7413E"/>
			<stop  offset="0.9896" style="stop-color:#FF6D67"/>
		</linearGradient>
		<path fill="url(#SVGID_1_)" d="M203.119,81.521c0,0,0.412-2.439,2.709-1.301c1.306,0.647,2.725,2.901,1.061,6.507
			c-1.692,3.669,0.3,6.6,0.3,6.6s-2.222-0.951-3.072-1.747c-0.85-0.796-0.735-0.921-0.625-3.392
			C203.603,85.719,203.119,81.521,203.119,81.521z"/>
		
			<ellipse transform="matrix(0.4996 0.8663 -0.8663 0.4996 173.72 -135.9748)" fill="#FFFFFF" cx="204.556" cy="82.38" rx="2.249" ry="1.742"/>
		<path fill="#485455" d="M198.393,90.469c0,0-2.664-0.659-3.55,3.684s-2.007,10.741-2.007,10.741s2.661,1.411,2.939,0.11
			C196.055,103.703,198.393,90.469,198.393,90.469z"/>
		<path fill="#DDE8F6" d="M194.229,103.577l0.451,0.296C194.464,103.767,194.264,103.605,194.229,103.577z"/>
		<path fill="#A8B0C2" d="M197.559,110.521c0,0,1.488,4.976,2.54,5.402s7.874-2.365,7.874-2.365l0.464-0.314l-0.679-3.51
			l-9.944,0.762L197.559,110.521z"/>
		<path fill="#3F4A4B" d="M208.599,97.696c-0.233,1.209-0.585,2.664-0.844,4.306c-0.316,2.005-0.494,4.291-0.149,6.76
			c0.028,0.2-0.056,0.472-0.243,0.771c-0.195,0.309-0.502,0.648-0.915,0.963c-1.146,0.875-3.097,1.574-5.705,1.004
			c-4.327-0.943-5.495-2.205-5.521-3.153c-0.002-0.185,0.036-0.36,0.104-0.515c0.005-0.012,0.01-0.022,0.015-0.035
			c0.155-0.322,0.821-2.21,0.218-4.281c-0.013-0.048-0.025-0.094-0.041-0.14c-0.033-0.104-0.069-0.208-0.106-0.306
			c-0.003-0.013-0.008-0.023-0.013-0.033c-0.031-0.086-0.063-0.17-0.097-0.254c-0.018-0.045-0.035-0.091-0.056-0.134l-0.099-0.236
			c-0.031-0.076-0.063-0.152-0.099-0.23c-0.033-0.076-0.066-0.155-0.099-0.231l-0.038-0.091c-0.036-0.084-0.071-0.167-0.104-0.251
			c-0.018-0.043-0.033-0.084-0.051-0.127c-0.068-0.175-0.132-0.353-0.19-0.54v-0.002c-0.266-0.867-0.377-1.878-0.025-3.326
			c0.657-2.711,1.496-6.878,3.551-7.122c2.058-0.243,5.52,0.761,5.52,0.761s2.986,1.412,4.737,2.983
			C209.017,94.837,208.92,96.038,208.599,97.696z"/>
		<path fill="#3F4A4B" d="M208.089,113.876c-0.074,0.066-0.152,0.129-0.236,0.192c-1.146,0.875-3.191,2.296-7.388,1.564
			c-5.936-1.031-6.524-3.125-6.078-4.078c0.076-0.157,0.495-1.559,0.834-3.208c0.038-0.17,0.071-0.342,0.104-0.515
			c0.299-1.584,0.492-3.294,0.233-4.316c-0.013-0.048-0.025-0.094-0.041-0.14c-0.033-0.104-0.069-0.205-0.106-0.306
			c-0.003-0.013-0.008-0.023-0.013-0.033c-0.031-0.086-0.063-0.17-0.097-0.254c-0.018-0.045-0.035-0.091-0.056-0.134
			c-0.03-0.079-0.063-0.157-0.099-0.236c-0.031-0.076-0.063-0.152-0.099-0.23c-0.03-0.076-0.066-0.155-0.099-0.231l-0.038-0.091
			c-0.036-0.084-0.071-0.167-0.104-0.251c-0.018-0.043-0.033-0.084-0.051-0.127c-0.068-0.175-0.132-0.354-0.19-0.54
			c0.56,1.584,3.133,1.199,4.332,1.665c0.008,0.006,0.018,0.008,0.03,0.013c0.008,0.002,0.018,0.005,0.025,0.007
			c0.003,0.003,0.005,0.003,0.008,0.005c0.122,0.048,0.314,0.122,0.56,0.21c0.041,0.015,0.081,0.031,0.124,0.045
			c2.466,0.877,4.233,1.096,4.233,1.096l1.787-0.561l2.088-1.422l0.003-0.002c-0.31,1.952,0.844,7.545,1.224,10.123
			c0.01,0.071,0.02,0.142,0.03,0.213C209.063,112.703,208.743,113.309,208.089,113.876z"/>
		<path fill="#DDE8F6" d="M200.464,91.012c-0.022,0.143-1.057,0.855-1.923,2.315s-1.605,5.874-1.605,5.874l0.464,5.696l1.313,1.654
			l2.067-3.512l1.874-5.719l2.272-3.994l-1.231-1.265L200.464,91.012z"/>
		<path fill="#CED8E6" d="M208.089,113.876c-0.246-1.262-0.474-2.836-0.728-4.344c-0.474-2.806-1.037-5.386-1.984-5.308
			c-1.485,0.127-4.327-0.821-5.731-1.336c-0.043-0.015-0.083-0.03-0.124-0.045c-0.246-0.088-0.438-0.162-0.56-0.21
			c-0.01-0.005-0.023-0.01-0.033-0.013c0.008,0.002,0.018,0.005,0.025,0.007c0.649,0.229,3.404,1.174,4.521,1.15
			c1.272-0.027,2.236-1.538,2.19-2.699c-0.045-1.158,0.253-3.14,0.253-3.14s1.323-0.2,2.679-0.243
			c-0.233,1.209-0.585,2.664-0.844,4.306l0.003-0.002c-0.31,1.952,0.844,7.545,1.224,10.123c0.01,0.071,0.02,0.142,0.03,0.213
			C209.063,112.703,208.743,113.309,208.089,113.876z"/>
		<path fill="#FFADB7" d="M204.592,88.301c-0.527,1.521-0.558,1.961-0.631,3.855c-0.048,1.168-0.981,1.686-1.944,1.787
			c-0.598,0.063-1.204-0.031-1.617-0.226c-1.08-0.512-0.616-1.352-0.5-1.817c0.051-0.205,0.015-0.71-0.043-1.209
			c-0.071-0.631-0.178-1.255-0.178-1.255l2.824-2.927C202.504,86.509,205.117,86.778,204.592,88.301z"/>
		
			<linearGradient id="SVGID_2_" gradientUnits="userSpaceOnUse" x1="2103.4712" y1="91.1191" x2="2107.1035" y2="91.5204" gradientTransform="matrix(1 0 0 1 -1902.1113 0)">
			<stop  offset="0.1224" style="stop-color:#FCA4B5"/>
			<stop  offset="0.9896" style="stop-color:#FFADB7"/>
		</linearGradient>
		<path fill="url(#SVGID_2_)" d="M204.352,88.752c0,0-0.455,1.779-1.692,2.519c-1.237,0.737-2.491,1.014-2.491,1.014
			s-0.338,0.432-0.211,0.938c0.101,0.403,1.102,0.755,2.06,0.72c-0.598,0.063-1.204-0.031-1.617-0.226
			c-1.08-0.512-0.616-1.352-0.5-1.817c0.051-0.205,0.015-0.71-0.043-1.209l0.923-0.699l2.268-1.521L204.352,88.752z"/>
		<g>
			<path fill="#F7FBFF" d="M198.288,110.788c-0.021-0.407-0.506-9.975-0.305-11.235c0.2-1.26,2.048-6.056,2.126-6.26l0.71,0.274
				c-0.02,0.049-1.898,4.923-2.085,6.105c-0.156,0.981,0.174,8.328,0.314,11.077L198.288,110.788z"/>
		</g>
		<path fill="#FFFFFF" d="M204.033,90.549l-0.1,0.81c0,0-0.859,2.12-3.469,2.071c-0.054,0.405,0.001,1.553,0.406,1.893
			c1.663-0.632,3.597-1.889,3.986-2.997c0.046-0.131-0.194-1.574-0.194-1.574l-0.576-0.515L204.033,90.549z"/>
		<path fill="#FFFFFF" d="M199.967,91.354c0,0-0.148,0.469-0.119,0.729c0.029,0.259,0.121,0.974,0.617,1.348
			c-0.494,0.628-1.33,0.916-1.648,0.881c0.262-0.965,0.366-1.879,0.479-2.634C199.407,90.92,200.167,90.804,199.967,91.354z"/>
		<path fill="#6A7273" d="M199.256,91.939c0,0-1.306,0.747-1.94,2.023c-0.633,1.276-0.633,1.276-0.633,1.276l0.57,0.697
			l-1.057,0.942c0,0-0.854,2.504,1.988,11.511c0,0-1.143-8.423-0.834-10.003c0.309-1.58,1.714-5.202,1.714-5.202L199.256,91.939z"/>
		<path fill="#FEBFBF" d="M201.558,80.142c0,0-2.681,0.563-3.379,2.613s-0.585,2.14-0.541,2.962s-0.22,1.973,0.096,3.309
			s0.625,2.469,1.233,2.672c0.608,0.203,4.077-0.495,5.339-2.86c1.261-2.365,2.452-4.53,1.486-6.729
			C205.117,80.57,202.909,79.804,201.558,80.142z"/>
		<ellipse fill="#FFFFFF" cx="198.004" cy="86.606" rx="0.197" ry="0.462"/>
		<path fill="#FEBFBF" d="M198.269,87.845c-0.13,0.084-0.353-0.052-0.499-0.305c-0.146-0.252-0.16-0.524-0.03-0.608
			c0.129-0.084,0.353,0.052,0.499,0.305C198.384,87.488,198.398,87.761,198.269,87.845z"/>
		<path fill="#FFADB7" d="M198.086,87.934c-0.125,0.088-0.317,0.01-0.43-0.174c-0.113-0.185-0.104-0.405,0.02-0.494
			c0.125-0.088,0.317-0.01,0.43,0.175C198.219,87.625,198.21,87.846,198.086,87.934z"/>
		<path fill="#FC9AB2" d="M198.531,88.657L198.531,88.657c-0.209-0.033-0.352-0.229-0.319-0.438l0.292-1.701
			c0.033-0.209,0.229-0.352,0.438-0.318l0,0c0.209,0.032,0.352,0.229,0.319,0.438l-0.291,1.702
			C198.936,88.547,198.74,88.69,198.531,88.657z"/>
		<path fill="#FC9AB2" d="M198.568,88.871l-0.443-0.161c-0.192-0.07-0.292-0.282-0.222-0.474l0,0
			c0.092-0.254,0.375-0.386,0.628-0.294l0.217,0.078c0.253,0.093,0.386,0.375,0.294,0.629l0,0
			C198.973,88.842,198.76,88.941,198.568,88.871z"/>
		
			<linearGradient id="SVGID_3_" gradientUnits="userSpaceOnUse" x1="3045.853" y1="88.8501" x2="3045.6082" y2="85.8879" gradientTransform="matrix(1 0 0 1 -2846.9512 0)">
			<stop  offset="0.1224" style="stop-color:#FB7F9E"/>
			<stop  offset="1" style="stop-color:#FCA4B5"/>
		</linearGradient>
		<path fill="url(#SVGID_3_)" d="M199.26,86.636l-0.27,1.575c0.083,0.127,0.106,0.287,0.053,0.438
			c-0.056,0.149-0.198,0.244-0.348,0.244c-0.043,0-0.086-0.008-0.126-0.023l-0.22-0.079c0.081,0.023,0.324,0.076,0.461-0.058
			c0.059-0.056,0.084-0.145,0.091-0.233c0.018-0.17-0.025-0.353-0.025-0.353l0.013-0.048l0.374-1.497
			C199.263,86.613,199.263,86.626,199.26,86.636z"/>
		<path fill="#FFFFFF" d="M200.489,87.517c-0.012,0.169-0.042,0.537-0.042,0.537s-0.168-0.101-0.281-0.101
			c-0.178,0-0.334,0.047-0.264-0.49c0.031-0.235,0.144-0.428,0.321-0.428C200.4,87.035,200.506,87.281,200.489,87.517z"/>
		<path fill="#FEBFBF" d="M200.627,88.157c0,0-0.347,0.328-0.635,0.28c-0.288-0.047-0.507-0.209-0.49-0.362
			c0.017-0.153,0.264-0.239,0.552-0.192C200.342,87.93,200.627,88.157,200.627,88.157z"/>
		<g>
			<path fill="#754554" d="M199.568,86.298c0.505-0.031,1.016,0.136,1.336,0.538c0.122,0.153,0.336-0.064,0.215-0.215
				c-0.365-0.458-0.974-0.662-1.551-0.626C199.374,86.006,199.372,86.31,199.568,86.298L199.568,86.298z"/>
		</g>
		<g>
			<path fill="#754554" d="M198.546,85.619c-0.217-0.192-0.525-0.539-0.822-0.591c-0.192-0.033-0.274,0.26-0.081,0.293
				c0.242,0.042,0.507,0.352,0.688,0.512C198.477,85.964,198.693,85.75,198.546,85.619L198.546,85.619z"/>
		</g>
		<path fill="#FC9AB2" d="M199.484,90.133c-0.491-0.135-1.33-0.792-1.479-0.582c-0.249,0.577,0.953,0.991,1.382,0.707
			C199.42,90.235,199.484,90.133,199.484,90.133z"/>
		<path fill="#FB7F9E" d="M199.221,89.927c-0.152-0.097-0.304-0.168-0.452-0.231c-0.125-0.053-0.266-0.07-0.383-0.124
			c-0.148-0.068-0.27-0.177-0.397-0.286c-0.415,0.599,1.324,1.009,1.495,0.846C199.583,90.129,199.221,89.927,199.221,89.927z"/>
		<path fill="#FF6D67" d="M205.997,82.25c-0.507-1.341-1.16-1.6-1.16-1.6s-0.628-0.685-2.399-0.687
			c-1.673-0.002-3.166,0.881-3.844,1.621c-0.954,1.04-0.561,1.602-0.561,1.602l0.007-0.016c0.034-0.07,0.19-0.339,0.516-0.208
			c0.452,0.181,0.641,0.535,1.011,0.665c2.603,0.919,3.126,0.222,3.341,1.426c0.216,1.213,0.332,1.646,0.876,1.455
			c0.876-0.306,0.837-0.115,1.263,0.476c-0.161,0.56-0.359,1.17-0.588,1.707c0,0,0.022,0.55,1.024-1.657
			C205.867,86.125,206.842,84.901,205.997,82.25z"/>
		
			<linearGradient id="SVGID_4_" gradientUnits="userSpaceOnUse" x1="2105.813" y1="87.9063" x2="2108.5481" y2="86.6707" gradientTransform="matrix(1 0 0 1 -1902.1113 0)">
			<stop  offset="0.1224" style="stop-color:#FEB9B8"/>
			<stop  offset="1" style="stop-color:#FFDEDE"/>
		</linearGradient>
		<path fill="url(#SVGID_4_)" d="M204.116,86.81c0,0,0.377-0.798,1.239-0.563c0.862,0.235,0.699,1.217-0.225,2.095
			c-0.923,0.879-1.149-0.157-1.194-0.225S204.341,87.417,204.116,86.81z"/>
		
			<linearGradient id="SVGID_5_" gradientUnits="userSpaceOnUse" x1="2107.1821" y1="86.9282" x2="2106.4163" y2="87.8961" gradientTransform="matrix(1 0 0 1 -1902.1113 0)">
			<stop  offset="0.1224" style="stop-color:#FCA4B5"/>
			<stop  offset="0.9896" style="stop-color:#FFADB7"/>
		</linearGradient>
		<path fill="url(#SVGID_5_)" d="M204.429,86.929c0,0,0.38-0.449,0.75-0.254c0.569,0.3-0.253,1.23-0.333,1.35
			c-0.079,0.119-0.499,0.071-0.546-0.214S204.719,87.288,204.429,86.929z"/>
		<path fill="#FF6D67" d="M203.049,85.771c0,0,0.229,0.95,0.125,1.784c-0.103,0.834,0.198,1.732,0.198,1.732s-0.166-1.081,0-1.698
			c0.167-0.618,0.491-0.951,0.444-1.292C203.769,85.957,203.049,85.771,203.049,85.771z"/>
		<path fill="#FEBFBF" d="M201.373,140.786c-0.428,0.479-1.361,2.788-1.673,3.123c-0.314,0.334-1.034,0.111-2.182,0.122
			c-1.151,0.01-0.75,0.063-0.702-0.266c0.046-0.327,0.687-1.224,0.981-1.733c0.294-0.512,1.584-1.767,1.903-2.766
			c0.03-0.091,0.033-0.266,0.013-0.504c1.049,0.996,2.768-0.297,2.768-0.297c-0.096,0.36-0.027,0.809,0.157,1.231
			C202.364,140.177,201.674,140.446,201.373,140.786z"/>
		<path fill="#C2D2EA" d="M202.663,138.237c0,0-1.718,2.109-2.26,3.314c-0.542,1.205-1.164,1.706-1.64,1.706
			c-0.759,0-1.267-0.445-1.116-0.837c0.15-0.392,0.15-0.392,0.15-0.392s-1.855,2.107-1.554,3.372
			c0.301,1.266,3.615-0.626,4.104-1.307c0.187-0.26,0.507-2.121,0.929-2.664c0.422-0.542,1.416-0.603,1.657-1.687
			C203.174,138.659,202.663,138.237,202.663,138.237z"/>
		<path fill="#FEBFBF" d="M205.25,144.369c-0.411,0.91-0.198,0.725-0.481,1.131c-0.281,0.403-1.019,1.48-1.959,1.404
			c-0.714-0.061-0.869-1.252-0.334-3.044c0.167-0.558,0.915-2.849,0.948-3.092c0.002-0.013,0.002-0.025,0.005-0.038
			c0.327,0.249,0.709,0.396,1.115,0.355c1.28-0.126,1.571-0.884,1.571-0.884s0.228,0.88,0.271,1.468
			C206.429,142.253,205.945,142.836,205.25,144.369z"/>
		<path fill="#C2D2EA" d="M203.161,141.645c0,0-0.742,1.546-1.048,2.59c-0.669,2.278-0.59,3.258-0.402,3.786
			c0.196,0.551,1.788-0.018,2.893-1.003c1.267-1.13,0.641-2.393,1.389-3.729c0.243-0.434,0.73-0.493,0.623-1.779
			c-0.025-0.855-0.501-1.31-0.501-1.31s0.36,0.913,0.086,1.65c-0.138,0.371-0.244,0.575-0.456,1.04
			c-0.42,0.926-0.535,1.848-1.167,2.532c-0.594,0.642-2.444,0.342-2.41-0.024c0.063-0.676,0.286-1.49,0.492-2.13
			C202.907,142.506,203.161,141.645,203.161,141.645z"/>
		<path fill="#8E8E8E" d="M201.361,141.173c-0.422,0.542-0.919,2.502-1.106,2.762c-0.456,0.634-3.371,2.28-4.016,1.444
			c0.001,0.007,0.001,0.015,0.003,0.022c0.301,1.265,3.615-0.626,4.104-1.308c0.187-0.26,0.507-2.121,0.929-2.664
			c0.367-0.472,1.168-0.579,1.528-1.315C202.498,140.346,201.667,140.78,201.361,141.173z"/>
		<path fill="#8E8E8E" d="M205.934,143.195c-0.749,1.336-0.089,2.513-1.356,3.644c-1.023,0.912-2.556,1.494-2.897,1.1
			c0.01,0.028,0.021,0.056,0.03,0.083c0.196,0.551,1.788-0.018,2.893-1.003c1.267-1.13,0.641-2.393,1.389-3.729
			c0.159-0.283,0.477-0.349,0.545-0.79C206.403,142.797,206.051,142.984,205.934,143.195z"/>
		<path fill="#485455" d="M213.044,106.989c0,0-2.056-6.639-2.987-9.162c-0.932-2.523-1.319-3.739-2.571-3.859
			s-2.668,1.755-1.179,4.974c1.49,3.218,3.319,7.895,3.624,8.096S212.599,107.92,213.044,106.989z"/>
		<path fill="#485455" d="M202.755,110.324c0,0,4.827-1.809,6.754-4.054c0.527-0.614,2.009-0.518,3.337,0.085
			c0.056,0.19,0.162,0.423,0.183,0.639c0.077,0.806-0.223,1.769-2.631,2.726c-3.051,1.213-7.162,2.607-7.162,2.607
			S203.424,111.121,202.755,110.324z"/>
		<circle fill="#F8FBFF" cx="204.444" cy="88.444" r="0.188"/>
		<g>
			
				<ellipse transform="matrix(0.9697 -0.2445 0.2445 0.9697 -15.2072 50.9679)" fill="#4F5887" cx="197.726" cy="86.748" rx="0.567" ry="0.969"/>
			<path fill="#4F5887" d="M197.881,87.729c-0.296,0-0.612-0.349-0.735-0.834c-0.134-0.535,0.015-1.036,0.335-1.116
				c0.152-0.042,0.331,0.025,0.488,0.186c0.152,0.155,0.272,0.382,0.336,0.638c0.086,0.341,0.06,0.688-0.071,0.904
				c-0.067,0.111-0.158,0.185-0.264,0.211C197.941,87.725,197.911,87.729,197.881,87.729z M197.572,85.828
				c-0.026,0-0.051,0.003-0.076,0.009c-0.286,0.072-0.416,0.54-0.29,1.042c0.115,0.457,0.405,0.788,0.673,0.788
				c0.026,0,0.052-0.003,0.077-0.01c0.089-0.022,0.167-0.085,0.226-0.183c0.122-0.204,0.146-0.532,0.064-0.858l0,0
				c-0.063-0.246-0.177-0.462-0.321-0.609C197.81,85.89,197.687,85.828,197.572,85.828z"/>
		</g>
		
			<ellipse transform="matrix(0.9611 0.276 -0.276 0.9611 32.1919 -51.7758)" fill="#FFADB7" cx="200.013" cy="88.463" rx="0.631" ry="0.336"/>
		<g>
			
				<ellipse transform="matrix(0.9697 -0.2445 0.2445 0.9697 -15.3651 51.5241)" fill="#4F5887" cx="199.885" cy="87.661" rx="0.775" ry="1.064"/>
			<path fill="#4F5887" d="M200.005,88.741c-0.386,0-0.771-0.364-0.902-0.883c-0.146-0.586,0.084-1.15,0.514-1.259
				c0.429-0.112,0.902,0.278,1.049,0.864l0,0c0.085,0.336,0.047,0.686-0.103,0.936c-0.101,0.169-0.243,0.28-0.412,0.323
				C200.104,88.735,200.055,88.741,200.005,88.741z M199.765,86.643c-0.045,0-0.088,0.006-0.133,0.017
				c-0.397,0.101-0.607,0.631-0.469,1.184c0.141,0.552,0.575,0.917,0.975,0.819c0.152-0.039,0.282-0.14,0.374-0.295
				c0.141-0.235,0.176-0.567,0.096-0.888l0,0C200.482,86.987,200.123,86.643,199.765,86.643z"/>
		</g>
		<g>
			<polygon fill="#4F5887" points="197.188,86.123 196.802,85.957 197.578,85.346 197.656,85.444 197.048,85.925 197.238,86.007 			
				"/>
		</g>
		<g>
			<polygon fill="#4F5887" points="201.192,87.831 200.625,87.587 200.675,87.471 201.192,87.694 204.674,86.21 204.724,86.326 			
				"/>
		</g>
		<g>
			<path fill="#4F5887" d="M199.113,87.099c-0.309-0.565-0.763-0.326-0.782-0.315l-0.061-0.111c0.01-0.006,0.23-0.125,0.489-0.05
				c0.187,0.055,0.344,0.194,0.465,0.416L199.113,87.099z"/>
		</g>
		<path fill="#6A7273" d="M204.699,92.655c0,0-0.445,0.315-1.58,1.92s-3.141,6.923-3.353,8.193s-1.051,5.018-1.051,5.018
			s3.722-6.896,4.404-8.48c-0.585-0.612-0.585-0.612-0.585-0.612l1.31-0.803c0,0,1.056-2.281,1.373-3.484
			c0.317-1.204,0.232-2.182,0.232-2.182l-0.75-1.248V92.655z"/>
		<polygon fill="#A76478" points="193.489,105.979 194.303,110.294 194.471,110.771 195.294,116.287 201.844,117.596 
			200.443,107.721 		"/>
		<polygon fill="#DFE5EE" points="199.173,107.842 198.787,106.677 195.049,105.815 194.6,106.835 		"/>
		<path fill="#FEC7C6" d="M200.379,110.109c0,0-0.884-0.217-1.304-0.375c-0.421-0.157-1.407-0.175-1.552-0.113
			s-0.115,0.459-0.115,0.459s-0.314-0.05-0.372,0.014c-0.058,0.063-0.001,0.513-0.001,0.513l0.308,0.256c0,0-0.52,0.296-0.254,0.508
			c0.266,0.212,0.655,0.341,0.655,0.341s-0.109,0.072,0.086,0.279c0.195,0.208,1.017,0.66,1.367,0.813s1.031,0.329,1.623,0.279
			c0.592-0.051,2.09-0.731,2.528-0.85c0.438-0.118,0.483-1.075,0.264-1.465c-0.162-0.288-0.332-0.462-0.654-0.533
			c-0.105-0.023-0.222-0.051-0.343-0.083c-0.439-0.119-1.43-0.669-1.926-0.677c0.112,0.272,0.022,0.605,0.022,0.605L200.379,110.109
			z"/>
	</g>
</g>
</svg>
