<?xml version="1.0" encoding="utf-8"?>
<!-- Generator: Adobe Illustrator 16.0.0, SVG Export Plug-In . SVG Version: 6.00 Build 0)  -->
<!DOCTYPE svg PUBLIC "-//W3C//DTD SVG 1.1//EN" "http://www.w3.org/Graphics/SVG/1.1/DTD/svg11.dtd">
<svg version="1.1" id="Layer_1" xmlns="http://www.w3.org/2000/svg" xmlns:xlink="http://www.w3.org/1999/xlink" x="0px" y="0px"
	 width="463.683px" height="425.749px" viewBox="0 0 463.683 425.749" enable-background="new 0 0 463.683 425.749"
	 xml:space="preserve">
<g>
	<path fill="#6A3646" d="M100.439,52.199c0,0-0.758-0.559-1.97,0.951c-1.057,1.316,0.405,4.126,0.834,5.515
		c0.428,1.389,0.086,3.735-2.173,3.978c0.44,1.112,4.055,1.336,4.85,0.791C102.776,62.889,103.939,55.214,100.439,52.199z"/>
	<g>
		<path fill="#D7E4F2" d="M111.146,117.771c-4.041,2.571-10.781,2.85-15.056,0.623c-4.274-2.228-4.463-6.118-0.422-8.689
			c4.041-2.572,10.781-2.851,15.056-0.623C114.998,111.309,115.187,115.199,111.146,117.771z"/>
		<g>
			<path fill="#FFA1A3" d="M102.998,107.132c0,0-1.189,1.028-1.017,1.647c0.173,0.619,2.556,4.435,3.802,4.872
				c2.591,0.911,1.979-1.456,1.548-1.944c-0.378-0.429-1.888-1.611-1.873-2.73C105.479,107.469,102.998,107.132,102.998,107.132z"/>
			<path fill="#8E8E8E" d="M103.276,110.692c0,0-0.435,0.148-0.44,0.479c-0.005,0.332-0.045,1.58-0.045,1.58
				s-0.292,0.156-0.455,0.08s-0.396-0.468-0.396-0.468s-0.232-2.455-0.357-2.953C101.457,108.913,103.276,110.692,103.276,110.692z"
				/>
			<path fill="#C2D2EA" d="M101.859,107.84c0,0,1.739,2.074,2.428,3.444c0.689,1.37,1.435,1.919,1.986,1.896
				c0.879-0.038,1.447-0.58,1.252-1.026c-0.194-0.447-0.194-0.447-0.194-0.447s2.256,2.35,1.97,3.832
				c-0.286,1.482-4.222-0.545-4.823-1.31c-0.229-0.292-0.694-2.433-1.21-3.041c-0.516-0.607-1.314-0.343-1.647-1.588
				C101.287,108.355,101.859,107.84,101.859,107.84z"/>
			<path fill="#8E8E8E" d="M103.157,110.895c0.517,0.607,1.191,2.854,1.42,3.146c0.56,0.712,4.021,2.474,4.727,1.473
				c-0.001,0.008,0,0.018-0.002,0.025c-0.286,1.482-4.222-0.545-4.823-1.31c-0.229-0.292-0.694-2.433-1.21-3.041
				c-0.449-0.529-1.355-0.355-1.585-1.387C102.05,110.053,102.783,110.454,103.157,110.895z"/>
		</g>
		<g>
			<path fill="#8E8E8E" d="M98.699,109.639c0,0-0.635-0.189-0.629,0.142c0.005,0.332,0.098,2.399,0.098,2.399
				s-0.146,0.142-0.313,0.072c-0.166-0.071-0.411-0.455-0.411-0.455s-0.26-2.019-0.25-2.532
				C97.206,108.654,98.699,109.639,98.699,109.639z"/>
			
				<linearGradient id="SVGID_1_" gradientUnits="userSpaceOnUse" x1="-1074.3662" y1="54.0273" x2="-1069.7012" y2="54.0273" gradientTransform="matrix(0.9991 -0.0431 0.0431 0.9991 1168.75 10.1523)">
				<stop  offset="0.1224" style="stop-color:#FEC7C7"/>
				<stop  offset="0.9694" style="stop-color:#FFADB7"/>
			</linearGradient>
			<path fill="url(#SVGID_1_)" d="M98.524,106.729c0,0-0.947,0.767-0.928,1.754c0.019,0.97,1.24,4.905,2.48,5.356
				c1.24,0.452,2.481-0.354,2.377-0.917c-0.104-0.563-1.205-2.306-1.509-3.686C100.619,107.762,98.524,106.729,98.524,106.729z"/>
			<path fill="#C2D2EA" d="M100.947,108.663c0,0,0.938,1.755,1.345,2.95c0.889,2.606,0.846,3.747,0.655,4.368
				c-0.199,0.648-2.073,0.069-3.403-1.018c-1.525-1.247-0.862-2.742-1.797-4.252c-0.303-0.491-0.584-0.848-0.578-2.017
				c-0.014-0.993,0.865-1.406,0.865-1.406s-0.665,1.007-0.311,1.847c0.178,0.423,0.112,0.606,0.38,1.135
				c0.534,1.052,0.623,2.082,1.39,2.843c0.72,0.715,2.849,0.274,2.792-0.147c-0.107-0.781-0.791-2.097-1.063-2.828
				C100.899,109.266,100.947,108.663,100.947,108.663z"/>
			<path fill="#8E8E8E" d="M97.811,110.599c0.934,1.511,0.229,2.909,1.754,4.155c1.231,1.006,3.037,1.604,3.413,1.131
				c-0.01,0.032-0.021,0.065-0.03,0.097c-0.199,0.648-2.073,0.069-3.403-1.018c-1.525-1.247-0.862-2.742-1.797-4.252
				c-0.198-0.32-0.5-0.639-0.531-1.269C97.387,109.78,97.664,110.36,97.811,110.599z"/>
		</g>
		<g>
			<g>
				<path fill="#4F5997" d="M103.079,85.644c0.227,1.486,1.175,8.586,1.261,9.98c0.03,0.465,0.146,0.939,0.313,1.376
					c0.098,0.256,0.212,0.5,0.336,0.718c0.298,0.527,0.647,0.914,0.938,1.02c0.574,0.206,2.29,0.341,3.16-1.294
					c0.071-0.136,0.14-0.285,0.198-0.446c0.39-8.015-0.718-17.556-0.718-17.556s-3.898,0.301-4.521,0.571
					c-0.468,0.203-0.908,2.46-1,4.192C103.016,84.771,103.023,85.279,103.079,85.644z"/>
				<path fill="#4F5997" d="M102.446,108.259c0.074,0.117,0.158,0.228,0.255,0.326c0.781,0.819,2.205,0.99,2.902,0.257
					c0.18-1.837,3.483-11.398,3.483-11.398l-4.065-1.036l-0.058-0.015c0,0-0.125,0.229-0.311,0.607
					c-0.511,1.036-1.482,3.206-1.576,4.917C102.947,104.25,102.471,107.477,102.446,108.259z"/>
				<path fill="#A8B0C2" d="M102.446,108.259c0.074,0.117,0.158,0.228,0.255,0.326c0.22-0.774,0.454-3.071,0.628-5.186
					c0.327-3.982,1.444-4.925,1.659-5.681c0.076-0.261,0.079-0.688,0.033-1.311c-0.09-1.18-0.36-3.069-0.665-5.894
					c-0.469-4.317-0.065-4.685-0.065-4.685s-0.643-1.222-1.246-1.623c-0.028,0.564-0.021,1.073,0.034,1.438
					c0.227,1.486,1.175,8.586,1.261,9.98c0.03,0.465,0.146,0.939,0.313,1.376c-0.511,1.036-1.482,3.206-1.576,4.917
					C102.947,104.25,102.471,107.477,102.446,108.259z"/>
				<path fill="#FEBFBF" d="M107.768,62.25c0,0,1.149-0.115,1.626,1.188c0.478,1.303,0.805,8.874,0.972,9.671
					c0.167,0.797-1.338,2.542-2.386,0.733S107.768,62.25,107.768,62.25z"/>
				<path fill="#4F5997" d="M105.386,82.763c0,0,0.181,0.761-0.572,2.058c-0.753,1.297-1.058,2.405-1.058,2.405
					s-1.967,9.382-2.568,10.118c-0.602,0.735-2.335,0.806-3.131-1.167c-0.796-1.973-1.381-8.667-1.647-11.784
					c-0.266-3.118,0.297-4.24,1.41-5.313S105.386,82.763,105.386,82.763z"/>
				<path fill="#4F5997" d="M101.188,97.344c0,0-1.604,7.348-0.666,10.476c0,0-1.856,1.434-2.737-0.089
					c-0.395-2.117-1.744-6.242-1.174-8.066s1.155-4.444,1.155-4.444L101.188,97.344z"/>
				<g>
					<path fill="#8C92B0" d="M98.057,108.207l0.233-0.044c-0.01-0.05-0.952-5.031-1.074-6.247c-0.121-1.195,0.573-5.086,0.941-5.676
						l0.013-0.029c0.273-0.93-0.414-6.377-0.767-8.497c-0.384-2.297,0.343-4.66,0.351-4.684l-0.227-0.071
						c-0.007,0.024-0.751,2.441-0.359,4.793c0.409,2.457,1.001,7.537,0.777,8.377c-0.393,0.674-1.093,4.559-0.967,5.81
						C97.104,103.165,98.018,108.002,98.057,108.207z"/>
				</g>
				<path fill="#DDE8F6" d="M96.805,75.111c0.775,3.285,0.854,3.94,0.605,4.532c-0.231,0.56-0.876,0.888-0.644,1.665
					c0.208,0.228,0.447,0.434,0.704,0.615c2.099,1.533,5.678,1.788,7.938,1.128c2.544-0.743,3.317-2.093,3.317-2.093
					c0.021-4.245-0.121-4.866,0.496-7.181c0.528-1.979,1.03-2.193,0.662-3.769c-0.362-1.57-0.604-2.007-0.702-3.518
					c-0.098-1.517-0.381-3.947-0.812-4.146c-0.437-0.198-5.228-2.038-6.5-1.599s-1.966,0.96-2.578,1.281
					c-0.606,0.32-3.092,2.269-3.092,2.269s-0.899,1.387-1.032,3.343c-0.036,0.507,0.006,1.035,0.107,1.594
					C95.54,70.825,96.234,72.682,96.805,75.111z"/>
				<path fill="#ECF1F8" d="M97.41,79.644c-0.231,0.56-0.876,0.888-0.644,1.665c0.208,0.228,0.447,0.434,0.704,0.615
					c0.377-1.487,1.156-3.285,1.14-4.102c-0.016-1.253-1.033-3.951-1.195-5.344c-0.169-1.399,0.807-3.66,0.807-3.66
					s-1.065-0.977-2.715,0.181c-0.087,0.061-0.161,0.135-0.233,0.234c0.267,1.593,0.96,3.449,1.532,5.879
					C97.58,78.396,97.66,79.051,97.41,79.644z"/>
				<path fill="#AF727B" d="M110.583,87.552l-1.337,1.718c-0.269,0.346-0.805,0.301-1.01-0.086
					c-0.501-0.946-1.295-2.504-1.654-3.531c-0.546-1.56-0.42-2.396-0.42-2.396l3.378-3.887c0,0,1.427,3.338,1.481,4.268
					C111.076,84.568,111.106,86.812,110.583,87.552z"/>
				<path fill="#CFD4DD" d="M106.166,83.354c0,0,0.921,0.669,1.101,1.42c0.179,0.751,0.823,1.802,1.017,1.954
					c0.193,0.152,1.154-0.778,1.154-0.778s0.028,0.402,0.17,0.604c0.142,0.203,0.289,1.927,0.417,1.716
					c0.127-0.211,0.427-0.811,0.427-0.811l-0.324-3.065L106.166,83.354z"/>
				<path fill="#B9848C" d="M106.162,83.257c0,0,0.99,0.721,1.589,2.112c0.599,1.39,0.91,1.177,1.279,0.941
					c0.37-0.236,1.855-1.868,2.001-2.449c0.146-0.58-0.949-4.289-0.949-4.289l-0.607-0.094
					C109.475,79.479,108.289,80.708,106.162,83.257z"/>
				<path fill="#E9EBEF" d="M109.489,85.899c0,0,0.153-1.842,0.15-2.142s-1.7-2.593-1.7-2.593l1.332-1.479l0.754,3.311
					c0,0,0.158,1.336,0.143,1.677C110.153,85.014,109.785,85.634,109.489,85.899z"/>
				<path fill="#FEBFBF" d="M96.804,64.663c0,0,1.498,0.772,1.075,2.599c-0.422,1.826-1.849,3.147-2.596,3.985
					c-0.748,0.837-3.521,4.095-5.257,4.39c-1.737,0.296-2.315-0.806-1.956-1.535c0.359-0.729,4.367-5.15,6.06-7.26
					C95.824,64.731,96.19,64.413,96.804,64.663z"/>
				<path fill="#FEBFBF" d="M91.125,74.245c0,0,0.046-0.057,0.756,1.067c0.71,1.123,3.547,6.086,4.119,6.341
					c0.292-0.116,0.913-0.135,0.987-0.177s0.36-0.72,0.388-0.879c0.027-0.158-0.138-0.688-0.093-0.926
					c0.045-0.238,0.341,0.208,0.401,0.462c0.06,0.254,0.002,1.316,0.057,1.345c0.055,0.029,2.359,0.244,2.721,0.233
					c0.363-0.01,1.707,0.439,1.707,0.439s0.287,0.4-0.234,0.387c-0.521-0.013-1.674-0.118-1.713-0.114s-1.309,0.027-1.309,0.027
					s1.757,0.682,1.91,0.783c0.153,0.101,1.266,0.704,1.324,0.893c0.058,0.189-0.128,0.402-0.453,0.279
					c-0.324-0.123-1.376-0.641-1.415-0.637s-1.207-0.243-1.207-0.243l0.148,0.31c0,0,1.977,1.191,2.133,1.319
					c0.156,0.127-0.185,0.486-0.35,0.399s-2.477-1.246-2.477-1.246l0.286,0.388c0,0,1.281,0.729,1.321,0.737
					c0.04,0.009,0.115,0.366-0.35,0.263c-0.465-0.103-1.435-0.577-2.05-0.879c-0.615-0.302-1.47-0.346-2.22-0.823
					c-0.749-0.477-1.089-0.949-1.317-1.537c-0.491-0.62-6.445-6.068-6.203-7.612C88.237,73.301,91.125,74.245,91.125,74.245z"/>
				<path fill="#FEBFBF" d="M109.714,85.284c0.03-0.049,0.533-0.837,0.576-1.157c0.046-0.329-0.137-1.688-0.173-2.112
					c-0.035-0.427-0.708-2.659-0.759-3.66c-0.046-1.001,0.014-2.969,0.014-2.969l0.486-0.478c0,0-0.752-0.248-0.833-1.294
					c-0.016-0.2-0.087-0.207-0.195-0.088c-0.284,0.463-0.399,1.175-0.393,2.114c0.014,1.853,1.462,7.475,1.583,7.999
					C110.125,84.091,109.855,84.759,109.714,85.284z"/>
				<path fill="#E6F1FF" d="M93.168,68.463c0,0,1.12,0.8,1.698,1.215c0.579,0.414,1.135,0.788,1.135,0.788l-0.318,0.347
					c0,0,0.547,0.2,0.858,0.187c0.31-0.014,1.777-2.309,1.833-2.436c0.056-0.127,0.388-2.342-0.952-3.958
					c-0.609-0.545-1.014-0.435-1.227-0.31c-0.212,0.125-3.378,3.959-3.378,3.959L93.168,68.463z"/>
				<path fill="#FEBFBF" d="M109.656,85.529c-0.101,0.546,0.238,0.979,0.238,0.979l0.195,1.938c0,0,0.148,0.437,0.381,0.342
					c0.232-0.092,0.194-0.468,0.194-0.468s0.506-0.485,0.591-0.511c0.083-0.025,0.654-0.378,0.635-0.567
					c-0.019-0.187-0.187-1.696-0.404-2.817c-0.216-1.122-0.103-3.264-0.177-6.581c-0.074-3.318-0.636-4.093-0.775-4.424
					c-0.14-0.333-0.362-0.519-0.362-0.519c-0.635-0.038-1.069,0.176-1.342,0.624c-0.284,0.463-0.399,1.175-0.393,2.114
					c0.014,1.853,1.462,7.475,1.583,7.999c0.104,0.453-0.166,1.12-0.307,1.646c-0.002,0.002-0.002,0.002-0.002,0.002
					C109.69,85.372,109.669,85.453,109.656,85.529z"/>
				<path fill="#FEBFBF" d="M111.042,86.494c0,0-0.095,0.542-0.026,0.652c0.07,0.109,0.301,0.274,0.301,0.274
					s-0.155,0.016-0.28,0.061s-0.169,0.648-0.169,0.648s-0.03-0.635-0.013-0.851S110.916,86.663,111.042,86.494z"/>
			</g>
			<g>
				<path fill="#FEBFBF" d="M100.97,60.922c-0.134,0.006-0.479,0.516-1.073,0.81c-0.594,0.293-0.612,0.373,0.104,1.028
					c0.715,0.656,3.26,3.583,4.88,3.238s1.54-1.921,1.476-2.552c-0.063-0.63-1.026-2.066-1.338-2.204
					C104.706,61.105,100.97,60.922,100.97,60.922z"/>
				
					<linearGradient id="SVGID_2_" gradientUnits="userSpaceOnUse" x1="3920.4146" y1="-134.9575" x2="3917.3613" y2="-137.6516" gradientTransform="matrix(-0.995 0.1 0.1 0.995 4014.9136 -195.8364)">
					<stop  offset="0.1224" style="stop-color:#FEC7C7"/>
					<stop  offset="0.9694" style="stop-color:#FFADB7"/>
				</linearGradient>
				<path fill="url(#SVGID_2_)" d="M105.43,60.694c0,0-0.284,0.665-0.223,1.27c0.061,0.604,0.396,1.61,0.396,1.61
					s-0.371,0.712-1.849,0.549c-1.477-0.163-1.529-0.678-1.997-0.942s-1.673-1.479-1.597-1.564c0.076-0.085,1.3-0.695,0.83-2.45
					c-0.47-1.755-1.164-2.664-1.164-2.664s-0.41-0.738,0.103-0.789C100.441,55.662,105.43,60.694,105.43,60.694z"/>
				
					<linearGradient id="SVGID_3_" gradientUnits="userSpaceOnUse" x1="3915.4917" y1="-135.1431" x2="3918.8423" y2="-135.1431" gradientTransform="matrix(-0.995 0.1 0.1 0.995 4014.9136 -195.8364)">
					<stop  offset="0.1224" style="stop-color:#FCA4B5"/>
					<stop  offset="0.9896" style="stop-color:#FFADB7"/>
				</linearGradient>
				<path fill="url(#SVGID_3_)" d="M101.978,59.855c0,0,1.26,1.176,1.526,1.774c0.266,0.597,1.491,1.409,1.491,1.409l0.206-1.324
					l0.229-1.02L101.978,59.855z"/>
				<path fill="#FEC7C7" d="M105.779,52.527c0,0,0.537,0.427,0.887,1.327c0.35,0.9,0.596,1.668,0.573,1.826
					c-0.023,0.158-0.158,0.496,0.05,1.138c0.207,0.642-0.445,3.851-1.14,4.168c-0.696,0.316-3.909-0.764-4.267-1.222
					c-0.358-0.457-1.272-2.314-1.384-3.563c-0.112-1.249-0.479-2.706,1.328-3.459C103.633,51.99,105.779,52.527,105.779,52.527z"/>
				<g>
					
						<linearGradient id="SVGID_4_" gradientUnits="userSpaceOnUse" x1="3914.478" y1="-139.0703" x2="3913.6572" y2="-138.9952" gradientTransform="matrix(-0.995 0.1 0.1 0.995 4014.9136 -195.8364)">
						<stop  offset="0.1224" style="stop-color:#FEC7C7"/>
						<stop  offset="0.9896" style="stop-color:#FFDBDB"/>
					</linearGradient>
					<path fill="url(#SVGID_4_)" d="M106.195,56.023c-0.068,0.354,0.847,1.799,0.889,2.122c0.041,0.323-0.866,0.301-0.866,0.301
						L106.195,56.023z"/>
					
						<linearGradient id="SVGID_5_" gradientUnits="userSpaceOnUse" x1="3913.5425" y1="-139.0347" x2="3914.4878" y2="-139.0347" gradientTransform="matrix(-0.995 0.1 0.1 0.995 4014.9136 -195.8364)">
						<stop  offset="0.188" style="stop-color:#FFDCDC"/>
						<stop  offset="0.8991" style="stop-color:#FEC7C7"/>
					</linearGradient>
					<path fill="url(#SVGID_5_)" d="M106.393,58.492c0.214-0.009,0.557-0.046,0.687-0.19c0.042-0.047,0.06-0.103,0.052-0.163
						c-0.018-0.142-0.183-0.464-0.374-0.836c-0.246-0.481-0.553-1.079-0.516-1.27l-0.094-0.018
						c-0.043,0.223,0.245,0.786,0.524,1.331c0.179,0.35,0.348,0.68,0.363,0.806c0.005,0.032-0.004,0.06-0.028,0.086
						c-0.13,0.145-0.615,0.164-0.789,0.161l-0.002,0.096C106.237,58.495,106.303,58.496,106.393,58.492z"/>
				</g>
				<g>
					<path fill="#754554" d="M103.675,56.142c1.09-0.311,1.887-0.184,1.895-0.182l0.025-0.158c-0.033-0.006-0.84-0.134-1.964,0.186
						L103.675,56.142z"/>
				</g>
				<g>
					<path fill="#754554" d="M106.467,55.816c0.223-0.154,0.595-0.358,0.715-0.333l0.033-0.156c-0.233-0.048-0.74,0.289-0.838,0.358
						L106.467,55.816z"/>
				</g>
				
					<ellipse transform="matrix(-0.96 0.2801 -0.2801 -0.96 220.8669 81.9935)" fill="#FFFFFF" cx="104.575" cy="56.778" rx="0.336" ry="0.288"/>
				
					<ellipse transform="matrix(-0.6998 -0.7143 0.7143 -0.6998 141.0757 172.0169)" fill="#FFFFFF" cx="106.68" cy="56.367" rx="0.236" ry="0.272"/>
				<path fill="#FB7F9E" d="M105.189,59.589c0,0,0.923-0.32,1.294-0.371s0.397,0.077,0.371,0.203S106.251,60.463,105.189,59.589z"/>
				<path fill="#754554" d="M100.039,56.682c0,0,0.293-0.38,0.514-0.252s0.634,0.301,0.652,0.474s0.177,1.112,0.177,1.112
					s0.397-0.696,0.328-1.39s0.145-1.664,0.426-2.096c0.281-0.431,0.565-1.096,1.23-1.201c0.665-0.106,1.587,0.022,2.128-0.02
					c0.542-0.041,0.762-0.234,0.762-0.234l0.489,0.984c0,0-0.03-0.492-0.332-1.042c-0.302-0.55-2.502-3.056-5.588-1.318
					c-2.267,1.099-2.118,3.616-1.767,4.529c0.352,0.913,1.42,1.723,1.529,2.003s0.403,0.674,0.403,0.934s-0.128-0.975-0.348-1.498
					S100.039,56.682,100.039,56.682z"/>
				
					<linearGradient id="SVGID_6_" gradientUnits="userSpaceOnUse" x1="3919.2808" y1="-139.248" x2="3920.8228" y2="-139.248" gradientTransform="matrix(-0.995 0.1 0.1 0.995 4014.9136 -195.8364)">
					<stop  offset="0.1224" style="stop-color:#FEB9B8"/>
					<stop  offset="1" style="stop-color:#FFDEDE"/>
				</linearGradient>
				<path fill="url(#SVGID_6_)" d="M100.865,56.886c0,0-0.795-0.797-1.083-0.17c-0.288,0.626,0.349,1.335,0.76,1.678
					c0.411,0.341,0.712,0.435,0.83,0.248c0.118-0.188-0.191-0.87-0.191-0.87L100.865,56.886z"/>
				<circle fill="#EFF0F5" cx="101.2" cy="58.615" r="0.161"/>
				
					<linearGradient id="SVGID_7_" gradientUnits="userSpaceOnUse" x1="3919.5288" y1="-139.3516" x2="3920.5981" y2="-139.3516" gradientTransform="matrix(-0.995 0.1 0.1 0.995 4014.9136 -195.8364)">
					<stop  offset="0.1224" style="stop-color:#FCA4B5"/>
					<stop  offset="0.9896" style="stop-color:#FFADB7"/>
				</linearGradient>
				<path fill="url(#SVGID_7_)" d="M100.75,56.897c0,0-0.507-0.456-0.719-0.103c-0.211,0.353-0.032,0.971,0.504,1.489
					c0.516,0.188,0.591-0.034,0.584-0.098c-0.006-0.064-0.204-0.35-0.23-0.604C100.864,57.328,100.75,56.897,100.75,56.897z"/>
			</g>
		</g>
	</g>
	<path fill="#DDE8F6" d="M97.444,83.989c-0.009-0.057-0.068-0.24-0.163-0.511c0.006,0.141,0.037,0.261,0.086,0.367
		C97.403,83.927,97.431,83.971,97.444,83.989z"/>
</g>
</svg>
