<?xml version="1.0" encoding="utf-8"?>
<!-- Generator: Adobe Illustrator 16.0.0, SVG Export Plug-In . SVG Version: 6.00 Build 0)  -->
<!DOCTYPE svg PUBLIC "-//W3C//DTD SVG 1.1//EN" "http://www.w3.org/Graphics/SVG/1.1/DTD/svg11.dtd">
<svg version="1.1" id="Layer_1" xmlns="http://www.w3.org/2000/svg" xmlns:xlink="http://www.w3.org/1999/xlink" x="0px" y="0px"
	 width="463.683px" height="425.749px" viewBox="0 0 463.683 425.749" enable-background="new 0 0 463.683 425.749"
	 xml:space="preserve">
<g>
	<g>
		<path fill="#D7E4F2" d="M250.596,132.984c4.663-2.968,12.442-3.289,17.374-0.718c4.933,2.571,5.15,7.06,0.487,10.028
			s-12.442,3.289-17.375,0.719C246.151,140.441,245.932,135.952,250.596,132.984z"/>
		<g>
			<path fill="#6C6B79" d="M267.787,138.062l0.249,0.631c0,0,0.117,0.751-0.024,0.872c-0.143,0.12-0.712,0.893-1.871,0.899
				c-1.158,0.006-3.229-1.776-3.229-1.776s-3.186-1.703-3.288-1.841c-0.102-0.139-0.103-1.225-0.103-1.225l6.269,2.177
				L267.787,138.062z"/>
			<path fill="#6C6B79" d="M257.959,139.248c0,0,0.491,0.067,0.581,0.259c0.091,0.191,0.076,0.899,0.076,0.899
				s-0.987,0.95-2.692,0.922c-1.705-0.027-2.537-0.882-2.744-1.19s-2.154-2.57-2.154-2.57s-0.29-0.283-0.243-0.96
				c0.046-0.676,0.01-0.743,0.01-0.743s2.709,2.272,2.768,2.322C253.618,138.235,257.959,139.248,257.959,139.248z"/>
			<path fill="#504F60" d="M263.172,134.228c0,0,0.386,0.71,0.765,0.914c0.379,0.204,3.671,2.301,3.671,2.301
				s0.717,0.99,0.259,1.572c-0.459,0.582-1.855,0.771-2.813,0.381c-0.956-0.391-2.255-1.405-2.708-1.621
				c-0.452-0.215-2.6-1.195-2.777-1.795c-0.177-0.602-0.168-0.71-0.092-1.098c0.076-0.387,0.268-1.345,0.32-1.367
				S263.172,134.228,263.172,134.228z"/>
			<path fill="#4F5997" d="M259.402,119.184c0.053,0.606,0.113,1.145,0.178,1.58c0.051,0.339,0.128,0.637,0.228,0.894
				c0.876,2.302,3.445,1.556,3.92,0.606c0.054-0.106,0.112-0.272,0.172-0.486v-0.002c0.533-1.882,1.196-9.897,1.565-13.636
				c0.412-4.165-1.057-7.41-1.256-9.35l-4.768,2.321l-0.674,4.513c0,0,0.016,0.645,0.044,1.655
				C258.882,109.628,259.141,116.34,259.402,119.184z"/>
			<path fill="#4F5997" d="M259.328,133.876c0,0,0.508,0.481,1.277,0.869c0.034,0.019,0.068,0.036,0.102,0.053
				c0.855,0.397,2.475-0.462,2.466-0.57c-0.01-0.108,0.554-10.651,0.727-12.451v-0.002c0.172-1.791-0.672-2.441-0.672-2.441
				l-3.406-0.134l-0.419-0.017h-0.005c0,0-0.682,1.941-0.583,4.953C258.919,127.394,259.328,133.876,259.328,133.876z"/>
			<path fill="#A8B0C2" d="M259.328,133.876c0,0,0.508,0.481,1.277,0.869c-0.896-11.847,0.204-14.288,0.104-15.51l-0.136-8.288
				l0.57-3.035l-2.333-0.635c0.071,2.35,0.33,9.062,0.591,11.906h-0.005c0,0-0.61,1.939-0.583,4.953
				C258.845,127.648,259.328,133.876,259.328,133.876z"/>
			<path fill="#504F60" d="M251.492,133.668c-0.118,0.046-0.785,1.171-0.744,1.656c0.041,0.486,0.271,1.716,0.329,1.766
				c0.059,0.05,1.724,2.844,3.081,3.256c1.356,0.412,3.41-0.159,3.96-0.514c0.55-0.354,0.401-0.396,0.401-0.396
				s-0.041-0.486-0.648-0.815s-2.394-2.842-2.394-2.842l-0.739-2.004L251.492,133.668z"/>
			<path fill="#4F5997" d="M261.755,103.524c0,0,0.525,2.673,0.311,3.705s-1.668,1.843-1.722,2.064s-2.938,14.079-3.894,14.774
				c-0.955,0.696-3.021,1.123-3.272-3.167s-1.415-12.669-1.599-13.994c-0.184-1.325-0.119-4.186,0.681-5.449
				C253.06,100.196,261.755,103.524,261.755,103.524z"/>
			<g>
				<path fill="#8C92B0" d="M260.714,108.357c0.056-0.003,0.115-0.02,0.177-0.052c0.297-0.153,0.621-0.64,0.635-1.344
					c0.008-0.386-0.038-1.922-0.062-2.108l-0.176,0.023c0.021,0.159,0.068,1.679,0.061,2.082c-0.013,0.675-0.329,1.082-0.539,1.19
					c-0.067,0.035-0.124,0.041-0.158,0.019c-0.046-0.031-0.066-0.124-0.055-0.249c0.088-0.886,0.02-2.958-0.131-3.062l-0.043-0.029
					l-0.053,0.022l0.04,0.079l-0.001,0.003l-0.065,0.046c0.061,0.14,0.184,1.85,0.077,2.923c-0.024,0.251,0.058,0.363,0.131,0.413
					C260.599,108.346,260.655,108.359,260.714,108.357z"/>
			</g>
			<g>
				<path fill="#8C92B0" d="M254.859,108.377c1.594-0.069,2.427-0.486,2.858-0.872c0.518-0.463,0.539-0.934,0.54-0.954l-0.178-0.007
					c0,0.004-0.023,0.423-0.488,0.834c-0.53,0.469-1.701,0.986-4.276,0.786l-0.013,0.177
					C253.888,108.388,254.405,108.397,254.859,108.377z"/>
			</g>
			<path fill="#A76478" d="M251.385,105.399c0,0,1.751,1.083,5.474,0.95c3.724-0.132,5.149-0.469,6.418-0.998
				c1.269-0.528,2.063-1.209,2.063-1.209l-0.175-1.049c0,0-0.748,0.858-2.545,1.434c-1.796,0.576-5.608,0.755-7.158,0.779
				s-3.898-0.728-3.898-0.728L251.385,105.399z"/>
			<path fill="#4F5997" d="M258.754,105.202c0,0,0.086,0.3,0.083,0.654c-0.002,0.355-0.053,1.007-0.053,1.007l0.565-0.063
				c0,0,0.132-0.628,0.127-0.943c-0.006-0.315-0.112-0.752-0.112-0.752L258.754,105.202z"/>
			<path fill="#4F5997" d="M253.376,105.178c0,0-0.115,0.298-0.146,0.653c-0.032,0.354-0.046,1.007-0.046,1.007l-0.559-0.069
				c0,0-0.071-0.63-0.034-0.944c0.036-0.315,0.186-0.75,0.186-0.75L253.376,105.178z"/>
			<path fill="#4F5997" d="M263.986,103.919c0,0,0.118,0.371,0.124,0.673c0.005,0.302-0.097,0.817-0.097,0.817l0.393-0.335
				c0,0,0.085-0.521,0.082-0.685c-0.003-0.165-0.187-0.646-0.187-0.646L263.986,103.919z"/>
			<g>
				<path fill="#8C92B0" d="M265.273,106.265c0.036-0.001,0.071-0.007,0.107-0.016l-0.053-0.205
					c-0.365,0.094-0.751-0.508-0.87-0.747l-0.189,0.095C264.289,105.431,264.725,106.289,265.273,106.265z"/>
			</g>
			<g>
				<path fill="#CCDEFB" d="M259.78,106.121c-0.155-0.096-0.242-0.233-0.244-0.386l-0.005-0.299
					c-0.004-0.313,0.351-0.607,0.809-0.668l1.074-0.144c0.25-0.033,0.493,0.01,0.668,0.119c0.155,0.096,0.242,0.233,0.244,0.386
					l0.005,0.299c0.005,0.313-0.351,0.606-0.809,0.668l-1.074,0.143c-0.069,0.009-0.138,0.013-0.204,0.011
					C260.069,106.244,259.906,106.2,259.78,106.121z M261.505,104.962l-1.075,0.143c-0.236,0.032-0.442,0.188-0.44,0.335
					l0.004,0.299c0.001,0.05,0.026,0.091,0.074,0.121c0.067,0.042,0.174,0.058,0.288,0.042l1.075-0.143
					c0.237-0.032,0.442-0.188,0.44-0.335l-0.004-0.299c-0.001-0.05-0.026-0.091-0.074-0.12c-0.047-0.029-0.11-0.046-0.184-0.048
					C261.577,104.956,261.542,104.958,261.505,104.962z"/>
			</g>
			<path fill="#4F5997" d="M256.66,122.24c0,0,0.494,0.058,0.321,0.91c-0.173,0.853-1.913,11.091-1.913,11.091
				s-1.768,0.635-2.814,0.251c-1.047-0.383-1.267-0.715-1.275-0.823c-0.01-0.108-0.191-5.866,0.609-8.848
				c0.8-2.982,1.545-7.135,1.545-7.135L256.66,122.24z"/>
			<path fill="#FEBFBF" d="M263.191,81.93c0,0,1.83,0.009,2.454,2.257c0.623,2.248,1.76,8.457,1.619,9.374
				c-0.141,0.917-2.248,1.493-3.292-0.376C262.928,91.316,263.191,81.93,263.191,81.93z"/>
			<path fill="#E6F1FF" d="M262.563,80.555c0,0,2.549-0.109,3.27,2.766c0.258,1.025,1.578,7.149,1.578,7.149
				s-2.456,2.108-3.893,1.359S262.563,80.555,262.563,80.555z"/>
			<path fill="#FEBFBF" d="M267.275,93.415c0.307,0.264,2.608,4.165,2.745,4.28c0.137,0.115,0.987-0.319,0.987-0.319l1.019,0.259
				l1.059,0.527c0,0,0.759,0.19,0.821,0.293c0.063,0.103-0.081,0.333-0.429,0.289c-0.348-0.043-0.967-0.082-1.304-0.217
				c-0.338-0.134,0.042,1.156,0.042,1.156s-0.195,0.904-0.556,0.934c-0.359,0.03-0.975,0.136-1.276,0.162
				c-0.302,0.025-0.73-0.12-0.73-0.12l-0.679-0.106l-0.746-1.114c0,0-4.577-3.614-3.956-5.815
				C265.937,93.292,266.968,93.151,267.275,93.415z"/>
			<g>
				<path fill="#C4C8D8" d="M270.422,98.946c0.153-0.084,0.421-0.169,0.577-0.177c1.416-0.091,5.172-0.662,5.189-0.652
					c0.008,0.004,0.046,0.343,0.049,0.349c0.01,0.025-0.03,0.067-0.114,0.115c-0.665,0.367-1.33,0.735-1.999,1.106
					c-0.002,0.001-0.005,0.002-0.007,0.003c-0.153,0.085-0.417,0.162-0.57,0.174c-1.42,0.091-3.704,0.237-5.12,0.328
					c-0.074,0.004-0.115-0.008-0.119-0.032c-0.004-0.024-0.047-0.354-0.047-0.354L270.422,98.946z"/>
				<path fill="#D7E4F2" d="M275.989,98.241c-0.657,0.364-1.31,0.726-1.967,1.089c-0.13,0.071-0.349,0.139-0.483,0.147
					c-1.4,0.09-3.672,0.235-5.075,0.326c-0.132,0.008-0.133-0.044-0.004-0.116c0.657-0.364,1.31-0.726,1.967-1.089
					c0.129-0.071,0.349-0.139,0.479-0.147c1.404-0.09,3.676-0.236,5.075-0.326C276.116,98.117,276.118,98.17,275.989,98.241
					L275.989,98.241z M268.367,99.704c-0.154,0.085-0.138,0.144,0.012,0.136c1.416-0.091,3.699-0.237,5.12-0.329
					c0.153-0.011,0.416-0.088,0.57-0.173c0.002-0.001,0.004-0.002,0.006-0.003c0.669-0.371,1.335-0.738,2-1.106
					c0.148-0.084,0.159-0.152-0.005-0.139c-1.42,0.091-3.704,0.237-5.12,0.328c-0.155,0.008-0.424,0.092-0.577,0.177
					c-0.665,0.368-1.33,0.736-1.999,1.106C268.372,99.701,268.369,99.703,268.367,99.704L268.367,99.704z"/>
				<path fill="#7C78F0" d="M275.075,98.661c-0.165,0.091-0.326,0.181-0.487,0.27l-0.036,0.012l-0.001-0.009
					c0.161-0.089,0.322-0.179,0.488-0.271l0.036-0.01V98.661L275.075,98.661z M274.495,98.992l-0.077,0.024v-0.02l0.077-0.022
					V98.992L274.495,98.992z M274.362,99.073l-0.105,0.032l-0.005-0.025l0.114-0.035L274.362,99.073L274.362,99.073z
					 M268.459,99.688c-0.129,0.071-0.128,0.124,0.004,0.116c1.403-0.09,3.675-0.236,5.075-0.326
					c0.135-0.009,0.354-0.076,0.483-0.147c0.657-0.363,1.31-0.725,1.967-1.089c0.129-0.071,0.127-0.124-0.008-0.116
					c-1.399,0.09-3.671,0.236-5.075,0.326c-0.131,0.008-0.351,0.076-0.479,0.147C269.769,98.962,269.117,99.323,268.459,99.688
					L268.459,99.688z"/>
				<path fill="#2A2A2C" d="M274.55,98.934c0.161-0.089,0.322-0.179,0.488-0.271l0.036-0.01v0.008
					c-0.165,0.091-0.326,0.181-0.487,0.27l-0.036,0.012L274.55,98.934L274.55,98.934z"/>
				<path fill="#838383" d="M274.341,99.075l-0.064,0.02l-0.005-0.016l0.073-0.022L274.341,99.075L274.341,99.075z M274.251,99.081
					l0.005,0.025l0.105-0.032l0.004-0.027L274.251,99.081L274.251,99.081z"/>
				<polygon fill="#516F83" points="274.272,99.079 274.345,99.057 274.341,99.075 274.277,99.095 274.272,99.079 				"/>
				<polygon fill="#2A2A2C" points="274.417,98.997 274.495,98.975 274.495,98.992 274.417,99.017 274.417,98.997 				"/>
			</g>
			
				<linearGradient id="SVGID_1_" gradientUnits="userSpaceOnUse" x1="3713.646" y1="-39.4531" x2="3714.7432" y2="-41.7415" gradientTransform="matrix(-0.9965 0.0836 0.0836 0.9965 3975.0552 -170.1389)">
				<stop  offset="0.1224" style="stop-color:#FEB9B8"/>
				<stop  offset="1" style="stop-color:#FFDEDE"/>
			</linearGradient>
			<path fill="url(#SVGID_1_)" d="M270.876,99.38c0.036-0.003,0.301,0.021,0.559,0.071c0.258,0.05,0.48,0.213,0.48,0.213
				l0.287-0.024l0.106,1.268l-2.701,0.398l-0.829-1.045l0.142-1.315c0,0,0.439-0.164,0.485-0.041
				c0.047,0.123,0.047,0.123,0.047,0.123s0.14-0.274,0.375-0.276s0.231,0.162,0.231,0.162s0.202-0.29,0.371-0.213
				C270.6,98.778,270.876,99.38,270.876,99.38z"/>
			
				<linearGradient id="SVGID_2_" gradientUnits="userSpaceOnUse" x1="3713.8882" y1="-40.7603" x2="3714.6616" y2="-40.7603" gradientTransform="matrix(-0.9965 0.0836 0.0836 0.9965 3975.0552 -170.1389)">
				<stop  offset="0.1224" style="stop-color:#FCA4B5"/>
				<stop  offset="0.9896" style="stop-color:#FFADB7"/>
			</linearGradient>
			<path fill="url(#SVGID_2_)" d="M270.107,98.854c0,0,0.042,0.378,0.114,0.481s0.368,1.156,0.368,1.156l0.252,0.232l-0.248,0.021
				l-0.21-0.336l-0.375-1.345l-0.104-0.272L270.107,98.854z"/>
			
				<linearGradient id="SVGID_3_" gradientUnits="userSpaceOnUse" x1="3714.8423" y1="-40.7637" x2="3715.439" y2="-40.7637" gradientTransform="matrix(-0.9965 0.0836 0.0836 0.9965 3975.0552 -170.1389)">
				<stop  offset="0.1224" style="stop-color:#FCA4B5"/>
				<stop  offset="0.9896" style="stop-color:#FFADB7"/>
			</linearGradient>
			<polygon fill="url(#SVGID_3_)" points="269.453,99.028 269.637,100.254 269.884,100.725 269.276,100.601 269.546,100.271 
				269.395,99.314 269.406,98.906 			"/>
			<path fill="#A8B0C2" d="M251.457,105.084c0,0,1.665,1.064,5.389,0.932c3.723-0.132,5.148-0.47,6.417-0.998
				s2.026-1.196,2.026-1.196l-0.138-1.062c0,0-0.748,0.858-2.545,1.434c-1.796,0.576-5.608,0.755-7.157,0.779
				c-1.55,0.024-3.935-0.765-3.935-0.765L251.457,105.084z"/>
			<path fill="#DDE8F6" d="M251.084,90.99c0.089,1.128,1.345,6.323,0.847,9.07c-0.49,2.753-0.439,3.608-0.501,4.207
				c-0.018,0.208,0.296,0.489,0.942,0.743c1.24,0.489,3.7,0.878,7.366,0.472c4.259-0.465,5.585-1.995,5.585-1.995
				s-0.521-2.127-0.784-5.45c-0.257-3.316,0.881-5.509,1.107-8.946c0.226-3.445,0.118-6.252-1.265-7.586
				c-1.398-1.352-5.799-1.852-7.658-1.343c-1.859,0.509-1.367,0.903-3.529,2.007c-2.162,1.105-2.661,1.481-2.661,1.481
				c-0.615,0.951-0.448,2.651-0.14,4.205C250.667,89.214,251.042,90.457,251.084,90.99z"/>
			<polygon fill="#E6F1FF" points="258.021,89.461 258.219,92.622 257.004,93.538 255.382,93.238 255.225,90.137 			"/>
			<path fill="#DDE8F6" d="M251.931,100.06c-0.49,2.753-0.439,3.608-0.501,4.207c-0.018,0.208,0.296,0.489,0.942,0.743
				c1.01-1.443,0.936-4.246,0.922-5.939c1.363-0.996,7.283-1.292,7.754-1.868c0.478-0.583,0.238-0.693-0.173-1.05
				c-0.403-0.358-7.254,0.085-7.359-0.031s-0.438-1.448-0.145-3.348c0.293-1.901,0.333-5.458,0.333-5.458s-2.043,0.135-3.311,0.538
				c0.272,1.361,0.647,2.604,0.69,3.137C251.173,92.118,252.429,97.313,251.931,100.06z"/>
			
				<linearGradient id="SVGID_4_" gradientUnits="userSpaceOnUse" x1="3727.0532" y1="-61.6289" x2="3721.5059" y2="-62.6603" gradientTransform="matrix(-0.9965 0.0836 0.0836 0.9965 3975.0552 -170.1389)">
				<stop  offset="0.1224" style="stop-color:#FEC7C7"/>
				<stop  offset="0.9694" style="stop-color:#FFADB7"/>
			</linearGradient>
			<path fill="url(#SVGID_4_)" d="M262.135,80.37c0,0-0.543,1.712-0.494,2.088c0.05,0.376-1.069,1.068-2.896,0.66
				c-1.828-0.408-3.041-1.918-3.002-2.103c0.038-0.185,0.822-0.341,1.527-1.867s1.22-3.345,1.203-3.995
				c-0.017-0.651,1.802-0.351,1.802-0.351L262.135,80.37z"/>
			<path fill="#E6F1FF" d="M260.111,83.08c0,0,0.549,0.654,0.962,0.73c0.536-0.172,0.854-0.998,0.892-1.236
				c0.037-0.237-0.075-0.769-0.166-0.985s-0.379-0.307-0.364,0.016c0.014,0.322-0.585,1.052-1.305,1.18
				C260.026,82.941,260.111,83.08,260.111,83.08z"/>
			<path fill="#FEC7C7" d="M259.127,79.698c0.077,0.707,2.682,2.662,3.695,2.588c0.476-0.036,1.009-0.978,1.507-2.059
				c0.561-1.221,1.076-2.616,1.414-3.077c0.634-0.868,0.598-3.238,0.355-3.742c-0.242-0.506-1.68-2.087-3.094-2.114
				c-1.416-0.026-3.23,0.778-3.376,1.425c-0.146,0.646,0.119,2.924,0.119,2.924s-0.061,0.29-0.145,0.716
				C259.406,77.385,259.073,79.201,259.127,79.698z"/>
			<g>
				
					<linearGradient id="SVGID_5_" gradientUnits="userSpaceOnUse" x1="3718.603" y1="-62.3545" x2="3717.7527" y2="-61.6721" gradientTransform="matrix(-0.9965 0.0836 0.0836 0.9965 3975.0552 -170.1389)">
					<stop  offset="0.1224" style="stop-color:#FEC7C7"/>
					<stop  offset="0.9896" style="stop-color:#FFDBDB"/>
				</linearGradient>
				<path fill="url(#SVGID_5_)" d="M264.796,77.427c-0.118,0.425,0.289,1.939,0.189,2.26s-1.273,0.093-1.389,0.008L264.796,77.427z"
					/>
				
					<linearGradient id="SVGID_6_" gradientUnits="userSpaceOnUse" x1="3717.8813" y1="-62.2627" x2="3719.3813" y2="-62.2627" gradientTransform="matrix(-0.9965 0.0836 0.0836 0.9965 3975.0552 -170.1389)">
					<stop  offset="0.188" style="stop-color:#FFDCDC"/>
					<stop  offset="0.8991" style="stop-color:#FEC7C7"/>
				</linearGradient>
				<path fill="url(#SVGID_6_)" d="M264.587,79.901c0.098-0.004,0.188-0.016,0.26-0.04c0.101-0.033,0.164-0.087,0.187-0.16
					c0.051-0.163-0.014-0.569-0.088-1.04c-0.075-0.473-0.16-1.008-0.101-1.221l-0.097-0.027c-0.065,0.234,0.018,0.757,0.098,1.264
					c0.067,0.42,0.136,0.854,0.092,0.995c-0.013,0.04-0.054,0.071-0.123,0.094c-0.32,0.106-1.104-0.05-1.188-0.112l-0.059,0.08
					C263.652,79.797,264.189,79.919,264.587,79.901z"/>
			</g>
			
				<ellipse transform="matrix(-0.9965 0.0834 -0.0834 -0.9965 531.64 133.8626)" fill="#FFFFFF" cx="263.023" cy="78.038" rx="0.325" ry="0.25"/>
			
				<ellipse transform="matrix(-0.9972 -0.0754 0.0754 -0.9972 523.4081 175.5119)" fill="#FFFFFF" cx="265.019" cy="77.87" rx="0.149" ry="0.216"/>
			<g>
				<path fill="#754554" d="M264.336,77.458l0.033-0.164c-0.052-0.011-1.287-0.262-2.347-0.023l0.037,0.163
					C263.084,77.203,264.324,77.455,264.336,77.458z"/>
			</g>
			<g>
				<path fill="#754554" d="M265.005,77.295c0.005-0.002,0.423-0.185,0.934-0.289l-0.033-0.164c-0.528,0.108-0.949,0.292-0.967,0.3
					L265.005,77.295z"/>
			</g>
			<path fill="#AF727B" d="M259.127,79.698c0.077,0.707,2.682,2.662,3.695,2.588c0.476-0.036,1.009-0.978,1.507-2.059
				c0,0-0.109-0.069-0.234-0.1c-0.124-0.029-0.603-0.058-0.894,0.049c-0.288,0.104-0.819,0.258-1.429,0.119
				c-0.609-0.14-1.472-0.877-1.521-1.405c-0.053-0.547,0.166-1.795,0.166-1.795l-0.813-0.736
				C259.406,77.385,259.073,79.201,259.127,79.698z"/>
			<path fill="#FEC7C7" d="M259.31,77.98c0,0,0.411-1.391,0.484-1.756c0.072-0.366-0.443-0.892-0.652-0.988
				c-0.209-0.097-0.56-0.016-0.56-0.016L259.31,77.98z"/>
			<path fill="#754554" d="M260.35,77.364c0,0,0.45-1.053,0.823-1.137s1.872-1.812,1.872-1.812l0.307-0.887
				c0,0,0.849,0.875,1.879,1.056c1.029,0.181,1.268,0.132,1.268,0.132s0.141-0.703,0.124-1.335
				c-0.018-0.633-1.748-4.418-6.003-3.318c-3.215,0.106-3.055,2.883-3.078,3.464c-0.023,0.582-0.131,2.343-0.131,2.343
				s0.387,0.567,0.526,1.598c0.358-0.798,0.544-2.076,0.896-2.075c0.354,0.002,0.852,0.135,0.946,0.616s-0.183,0.975-0.183,0.975
				L260.35,77.364z"/>
			
				<linearGradient id="SVGID_7_" gradientUnits="userSpaceOnUse" x1="3723.6001" y1="-64.541" x2="3724.5679" y2="-65.4773" gradientTransform="matrix(-0.9965 0.0836 0.0836 0.9965 3975.0552 -170.1389)">
				<stop  offset="0.1224" style="stop-color:#FEB9B8"/>
				<stop  offset="1" style="stop-color:#FFDEDE"/>
			</linearGradient>
			<path fill="url(#SVGID_7_)" d="M259.492,75.827c0,0-0.397-0.7-0.994-0.378c-0.596,0.321-0.043,2.159,0.113,2.408
				c0.157,0.25,0.554-0.191,0.554-0.191l0.446-1.604L259.492,75.827z"/>
			<path fill="#FEBFBF" d="M251.728,84.557c0.714,0.303,2.055,1.82,1.036,4.786c-1.02,2.966-2.371,7.372-4.253,7.819
				c-1.045,0.249-1.813,1.071-1.869-0.214c-0.046-1.031,0.476-4.029,0.854-5.189c0.85-2.607,2.1-6.063,2.601-6.992
				C250.599,83.836,251.728,84.557,251.728,84.557z"/>
			<g>
				<path fill="#627847" d="M258.814,96.616c0.693,0.271,1.802,0.222,2.475-0.109c0.672-0.332,0.654-0.819-0.04-1.089
					s-1.802-0.221-2.475,0.11C258.102,95.859,258.12,96.347,258.814,96.616z"/>
				<polygon fill="#627847" points="257.807,91.308 258.281,96.093 261.781,95.941 261.841,91.133 				"/>
				<path fill="#B09064" d="M258.643,94.582c0.723-0.339,1.911-0.392,2.655-0.118c0.745,0.273,0.763,0.77,0.04,1.108
					s-1.911,0.392-2.656,0.118C257.938,95.417,257.92,94.92,258.643,94.582z"/>
				<polygon fill="#B09064" points="258.113,95.168 257.824,92.593 261.935,92.402 261.869,94.997 				"/>
				<path fill="#DEC7A7" d="M258.403,91.955c0.792-0.356,2.095-0.415,2.909-0.129s0.833,0.805,0.041,1.161s-2.094,0.414-2.909,0.129
					C257.629,92.831,257.611,92.311,258.403,91.955z"/>
				<path fill="#627847" d="M258.467,91.702c0.75-0.369,1.985-0.424,2.759-0.123c0.774,0.301,0.794,0.845,0.044,1.214
					s-1.985,0.424-2.759,0.123C257.737,92.615,257.717,92.071,258.467,91.702z"/>
				<polygon fill="#627847" points="257.933,92.51 257.872,92.095 258.232,92.15 261.808,91.946 261.824,92.292 				"/>
				<path fill="#A19797" d="M258.335,92.417c0.801,0.312,2.078,0.254,2.853-0.127c0.775-0.381,0.755-0.943-0.045-1.255
					s-2.077-0.254-2.853,0.127C257.516,91.543,257.536,92.105,258.335,92.417z"/>
				<path fill="#C7BEBE" d="M257.623,91.24l0.332-0.015c0.086-0.066,0.188-0.131,0.309-0.19c0.846-0.417,2.237-0.479,3.109-0.139
					c0.129,0.05,0.237,0.107,0.329,0.167l0.316-0.014l0.021,0.49c0,0.007,0.001,0.015,0.001,0.022v0.011h-0.001
					c-0.003,0.241-0.207,0.489-0.618,0.691c-0.845,0.416-2.236,0.478-3.108,0.138c-0.429-0.167-0.651-0.399-0.667-0.643h-0.001
					L257.623,91.24z"/>
				<path fill="#E2D9D9" d="M258.244,90.564c0.845-0.416,2.236-0.478,3.108-0.138s0.895,0.952,0.05,1.368
					c-0.846,0.416-2.237,0.478-3.109,0.138C257.42,91.593,257.398,90.98,258.244,90.564z"/>
				<path fill="#C7BEBE" d="M257.936,91.211c0-0.005-0.001-0.009-0.001-0.014l-0.014-0.338l0.173-0.007
					c0.088-0.092,0.21-0.18,0.372-0.259c0.724-0.357,1.918-0.41,2.665-0.119c0.17,0.066,0.3,0.145,0.395,0.23l0.164-0.007
					l0.015,0.338v0.001v0.002l0,0c0.006,0.212-0.17,0.431-0.531,0.609c-0.724,0.357-1.918,0.41-2.665,0.119
					c-0.368-0.143-0.559-0.343-0.571-0.552h-0.001V91.211z"/>
				<path fill="#E1D8D8" d="M258.449,90.186c0.725-0.356,1.918-0.41,2.665-0.119c0.748,0.291,0.767,0.816,0.042,1.173
					c-0.724,0.357-1.917,0.41-2.665,0.119S257.724,90.543,258.449,90.186z"/>
				<path fill="#C7BEBE" d="M258.276,90.963L258.276,90.963c0.142,0.027,0.288-0.038,0.327-0.146l0.017-0.043
					c0.04-0.108-0.042-0.219-0.184-0.247l0,0c-0.142-0.027-0.288,0.038-0.328,0.146l-0.016,0.043
					C258.052,90.825,258.134,90.936,258.276,90.963z"/>
			</g>
			<path fill="#FEBFBF" d="M247.039,95.422c0,0,0.741-0.548,2.041-0.589c1.299-0.041,2.807,0.501,4.365,0.21
				c1.558-0.291,2.321-0.581,2.871-1.167c0.551-0.587,1.336-1.546,1.336-1.546l0.674-0.267l-0.363,0.722l0.402,0.107l1.624-0.439
				l1.604-0.077c0,0,0.14,0.229,0.019,0.383c-0.122,0.155-1.304,0.367-1.537,0.446s-1.569,0.773-1.569,0.773l2.465-0.47l1.151-0.285
				c0,0,0.272,0.163,0.188,0.377s-1.396,0.704-1.396,0.704l-1.673,0.439l0.406,0.123l1.497-0.274l1.011-0.415
				c0,0,0.266,0.164,0.042,0.452s-0.607,0.483-0.607,0.483l0.416,0.048c0,0-0.042,0.267-0.085,0.356
				c-0.043,0.09-1.04,0.633-1.04,0.633l-1.658,0.336c0,0-0.935,0.445-1.977,0.467s-1.563,0.196-1.827,0.345
				c-0.264,0.148-3.102,1.463-5.308,1.515c-2.207,0.051-3.321-0.587-3.474-1.217S247.039,95.422,247.039,95.422z"/>
			<path fill="#B09064" d="M259.382,95.868c0,0,1.107-0.139,1.657-0.293s0.888-0.423,0.888-0.423l-0.339-0.039l-0.63,0.259
				L259.382,95.868z"/>
			<path fill="#E6F1FF" d="M247.19,91.913c0,0,2.689,1.296,4.443,1.149c0.948-1.329,1.652-3.942,2.072-5.744
				c0.419-1.801-1.536-3.729-2.149-3.922c-0.614-0.193-1.239,0.45-1.239,0.45S247.169,90.778,247.19,91.913z"/>
			
				<linearGradient id="SVGID_8_" gradientUnits="userSpaceOnUse" x1="3723.1714" y1="-64.8779" x2="3724.3091" y2="-64.8779" gradientTransform="matrix(-0.9965 0.0836 0.0836 0.9965 3975.0552 -170.1389)">
				<stop  offset="0.1224" style="stop-color:#FCA4B5"/>
				<stop  offset="0.9896" style="stop-color:#FFADB7"/>
			</linearGradient>
			<path fill="url(#SVGID_8_)" d="M259.452,76.003c0,0-0.322-0.508-0.725-0.438c-0.403,0.071-0.509,0.632-0.26,1.335
				c0.249,0.704,0.627,0.563,0.627,0.563l0.283-0.947L259.452,76.003z"/>
			<path fill="#FEC7C7" d="M262.57,80.718c0,0,1.35-0.131,1.388,0.033c0.037,0.165-0.714,0.44-0.914,0.457
				C262.842,81.225,262.57,80.718,262.57,80.718z"/>
		</g>
	</g>
	<path fill="#E6F1FF" d="M256.653,80.22c0,0-0.344,0.585,0.609,1.339s2.666,1.162,2.867,1.226c0.081,0.026,0.155,0.191,0.109,0.436
		c-0.069,0.364-0.317,0.861-0.499,0.988c-1.01-0.14-1.7-0.559-2.809-1.26c-1.109-0.701-1.319-1.581-1.33-1.811
		c-0.01-0.229,0.823-1.061,0.945-1.14s0.328-0.135,0.328-0.135L256.653,80.22z"/>
</g>
</svg>
