<?xml version="1.0" encoding="utf-8"?>
<!-- Generator: Adobe Illustrator 16.0.0, SVG Export Plug-In . SVG Version: 6.00 Build 0)  -->
<!DOCTYPE svg PUBLIC "-//W3C//DTD SVG 1.1//EN" "http://www.w3.org/Graphics/SVG/1.1/DTD/svg11.dtd">
<svg version="1.1" id="Layer_1" xmlns="http://www.w3.org/2000/svg" xmlns:xlink="http://www.w3.org/1999/xlink" x="0px" y="0px"
	 width="463.683px" height="425.749px" viewBox="0 0 463.683 425.749" enable-background="new 0 0 463.683 425.749"
	 xml:space="preserve">
<g>
	<path fill="#D7E4F2" d="M340.553,173.013c3.46,1.998,9.087,1.988,12.569-0.022c3.481-2.01,3.499-5.259,0.039-7.256
		s-9.087-1.988-12.569,0.023C337.111,167.767,337.093,171.016,340.553,173.013z"/>
	<path fill="#8E8E8E" d="M345.553,168.83l-0.164,0.179c0,0,0.036,0.583,0.21,0.859c0.175,0.277,0.746,0.359,2.038,0.335
		c1.293-0.023,1.934-0.943,2.225-1.316s0.291-0.373,0.291-0.373l0.431-0.571l1.048-0.803c0,0,0.268-0.605,0.198-0.908
		c-0.07-0.303-1.281-0.326-1.281-0.326l-1.712,1.937L345.553,168.83z"/>
	<path fill="#848484" d="M351.841,169.447c0,0-0.385,0.128-0.605-0.046c-0.222-0.175-0.429-1.296-0.529-1.55
		c-0.1-0.254-0.402-0.488-0.402-0.488s0.301-0.873,0.769-1.013c0.468-0.141,0.768,0,0.768,0s-0.302,0.932-0.232,1.292
		C351.678,168.003,351.853,169.354,351.841,169.447z"/>
	<path fill="#C2D2EA" d="M347.824,167.27c0,0-1.258,0.641-1.735,0.757s-0.757,0.501-0.71,0.926s0.629,0.635,1.362,0.82
		c0.733,0.187,1.747,0.233,2.445-1.141c0.698-1.374,1.315-2.34,1.794-2.398c0.477-0.058,0.85,0,0.85,0s0.221-0.874-0.594-1.432
		c-0.815-0.559-1.816,0.407-1.816,0.407L347.824,167.27z"/>
	<path fill="#FFA1A3" d="M345.954,131.579c0,0-2.05,5.729-1.304,10.76c0.745,5.03,3.197,18.704,3.427,20.001
		c0.189,1.07,1.006,4.442-0.819,5.231c-0.749,0.585-0.539,1.103,0.186,0.879c0.726-0.224,0.996-1.797,1.804-2.311
		c1.414-0.899,2.157-0.59,2.032-1.137c-0.124-0.545-0.718-3.14-0.78-7.425c-0.062-4.286-1.408-8.341-1.284-9.277
		c0.123-0.937,2.179-6.437,2.357-9.716C351.71,136.045,352.444,132.65,345.954,131.579z"/>
	<path fill="#8E8E8E" d="M341.147,170.668c0,0-0.894-0.605-0.86-0.269s0.275,0.807,0.403,0.979c0.128,0.172,1.296,0.757,2.367,0.664
		c1.071-0.093,1.292-0.454,1.677-0.908c0.384-0.454,0.733-0.873,0.967-0.873c0.232,0,1.327,0.209,1.956-0.233
		c0.629-0.443,0.602-0.995,0.602-0.995l-1.382,0.215l-2.679,1.106L341.147,170.668z"/>
	<path fill="#848484" d="M345.921,169.958c0,0,0.617,0.456,0.664,0.589s0.093,0.948,0.093,1.064s0.501,0.084,0.501,0.084
		s-0.023-1.108,0.163-1.388c0.187-0.28,0.513-0.699,0.513-0.699S346.621,170.063,345.921,169.958z"/>
	<path fill="#CBDCF5" d="M343.535,169.236c0,0-0.815,0.233-1.305,0.361c-0.489,0.128-1.755,0.282-1.918,0.609
		c-0.162,0.326,0.486,0.789,0.917,1.08s1.537,0.559,2.306,0.314c0.769-0.244,1.246-1.653,2.096-1.712
		c0.851-0.058,1.525,0.14,2.225-0.279c0.698-0.419,0.698-2.375,0-2.177C347.156,167.629,343.535,169.236,343.535,169.236z"/>
	<path fill="#FFB1B2" d="M342.615,133.315c0,0-2.05,5.729-1.305,10.76c0.745,5.03,3.727,20.751,3.54,22.056
		c-0.187,1.305,0.124,2.081-2.019,3.479c-0.59,0.745-0.201,1.584,0.45,1.195c0.652-0.388,1.058-1.345,2.626-1.935
		c1.568-0.59,2.156-0.591,2.032-1.137s-0.718-4.134-0.78-8.419s-1.408-8.341-1.285-9.277c0.124-0.937,2.18-6.437,2.358-9.716
		C348.372,137.782,349.105,134.386,342.615,133.315z"/>
	<path fill="#565388" d="M350.304,131.017c0,0,2.657,2.248,1.991,8.303c-0.666,6.055-0.666,6.055-0.666,6.055
		s-1.553,1.941-5.139,2.64c-3.587,0.699-4.559,0.738-6.288-0.22c-1.577-0.875-1.352-2.244-1.352-2.383s0.759-10.184,2.615-12.64
		S350.304,131.017,350.304,131.017z"/>
	<path fill="#E6F1FF" d="M351.569,116.662c0.547,0.078,1.315,0.411,1.203,2.642c-0.144,2.855-1.056,7.359-1.056,7.639
		c0,0.279-1.387,2.64-3.255,3.54s-1.589-3.695-1.589-3.695l3.073-9.907C349.946,116.88,351.046,116.587,351.569,116.662z"/>
	<path fill="#DDE8F6" d="M340.911,133.793c0,0,0.203-3.852-0.271-4.922s-1.273-3.481-1.235-4.622
		c0.037-1.141,0.793-2.146,1.768-3.159c0.974-1.014,4.253-2.759,5.71-3.24c1.458-0.481,3.832-1.563,4.81-0.863
		c0.978,0.701,1.303,2.066-0.245,6.379c-0.801,2.229-1.162,4.711-1.251,6.37c-0.04,0.746,0.579,2.273,0.632,2.551
		c0.109,0.577-1.084,2.036-4.867,2.783C342.175,135.819,340.911,133.793,340.911,133.793z"/>
	<path fill="#A8B0C2" d="M338.852,145.411c0,0.098-0.109,0.784,0.349,1.485c-0.041-2.12,0.693-5.652,1.042-7.169
		c0.437-1.908,1.953-4.922,1.953-4.922c-0.055-0.699,0.36-1.699,0.456-2.961c0.222-2.991,0.701-6.652,0.701-6.652
		s-2.234,0.938-3.823,0.188c0.236,1.198,0.761,2.705,1.109,3.492c0.475,1.071,0.271,4.921,0.271,4.921
		C339.458,137.253,338.852,145.287,338.852,145.411z"/>
	<path fill="#E6F1FF" d="M339.547,132.7c0,0-0.013-8.177,0.431-10.048s3.348-0.677,3.303,1.371
		c-0.045,2.047-0.932,8.573-1.166,8.857C341.881,133.166,339.607,134.75,339.547,132.7z"/>
	<path fill="#FFADB7" d="M342.201,116.517c0.024,0.155,0.096,0.258,0.193,0.324c0.256,0.174,0.696,0.103,1,0.086
		c0.543-0.031,0.35,0.675,0.455,2.433c0.203,0.05,0.422,0.084,0.651,0.101c1.555,0.133,3.534-0.408,3.714-1.064
		c0.098-0.367-0.83-0.832-1.186-1.647c-0.358-0.818-0.094-2.507-0.094-2.507s-1.429-3.54-3.215-3.074
		c-1.77,0.462-1.023,3.268-1.417,4.617c-0.005,0.015-0.007,0.026-0.012,0.041C342.197,116.128,342.172,116.352,342.201,116.517z"/>
	
		<linearGradient id="SVGID_1_" gradientUnits="userSpaceOnUse" x1="2511.3989" y1="117.5186" x2="2514.1079" y2="117.8178" gradientTransform="matrix(-1 0 0 1 2855.7451 0)">
		<stop  offset="0.1224" style="stop-color:#FCA4B5"/>
		<stop  offset="0.9896" style="stop-color:#FFADB7"/>
	</linearGradient>
	<path fill="url(#SVGID_1_)" d="M342.201,116.517l0.193,0.324c0.256,0.174,0.696,0.103,1,0.086c0.543-0.031,0.35,0.675,0.455,2.433
		c0.203,0.05,0.422,0.084,0.651,0.101c0.594-0.611-0.208-2.247,0.086-2.743c0.321-0.546,0.725-0.923,0.725-0.923l-3.008-0.01
		c-0.005,0.015-0.007,0.026-0.012,0.041C342.197,116.128,342.172,116.352,342.201,116.517z"/>
	<path fill="#FFFFFF" d="M343.829,118.943c0,0,1.468,0.157,2.66-0.193c1.192-0.35,1.349-0.782,1.349-0.782l-0.345-0.536
		c0,0,0.204-0.056,0.345,0.046c0.143,0.102,0.656,0.9,0.656,0.9s-0.554,1.234-2.84,1.356c-1.956,0.104-2.204-0.066-2.204-0.066
		l-0.886,0.363L343.829,118.943z"/>
	<path fill="#FEBFBF" d="M341.535,109.616c0,0-0.755,1.407-0.755,2.48c0,1.074,0.067,1.133-0.165,1.749
		c-0.232,0.617,0.265,1.153,0.265,1.153s0.416,2.187,1.312,2.444c0.895,0.259,2.287-1.019,2.663-1.298
		c0.376-0.278,0.968-1.067,1.279-2.021C346.444,113.17,344.337,108.506,341.535,109.616z"/>
	<path fill="#FF5288" d="M341.764,110.687c0,0,0.34,0.403,0.427,1.552c0.086,1.149,0.262,1.863,0.262,1.863l0.228,0.202
		c0,0,0.311-0.989,1.382-0.96c1.071,0.028,1.148,1.022,0.729,1.534c-0.243,0.298,0.063,1.267,0.063,1.267s0.124,0.053,0.729,0.38
		c0.605,0.326,1.457-0.215,1.457-0.215s0.466-0.619,1.49-1.147c1.025-0.528,2.115-1.642,2.209-3.38
		c0.093-1.739-0.829-3.745-3.018-4.258c-2.189-0.512-3.094-0.339-4.199-0.1c-0.973,0.211-1.715,0.367-2.227,1.081
		c-0.513,0.714,0.143,1.753,0.126,1.886c-0.017,0.132-0.543,0.559-0.543,0.559S341.206,111.494,341.764,110.687z"/>
	
		<linearGradient id="SVGID_2_" gradientUnits="userSpaceOnUse" x1="-6233.6675" y1="114.8467" x2="-6231.0942" y2="113.6841" gradientTransform="matrix(1 0 0 1 6576.5723 0)">
		<stop  offset="0.1224" style="stop-color:#FEB9B8"/>
		<stop  offset="1" style="stop-color:#FFDEDE"/>
	</linearGradient>
	<path fill="url(#SVGID_2_)" d="M343.293,113.814c0,0,0.355-0.751,1.166-0.53c0.812,0.221,0.657,1.145-0.212,1.971
		s-1.081-0.148-1.123-0.212C343.082,114.98,343.505,114.387,343.293,113.814z"/>
	
		<linearGradient id="SVGID_3_" gradientUnits="userSpaceOnUse" x1="-6232.3799" y1="113.9258" x2="-6233.1006" y2="114.8367" gradientTransform="matrix(1 0 0 1 6576.5723 0)">
		<stop  offset="0.1224" style="stop-color:#FCA4B5"/>
		<stop  offset="0.9896" style="stop-color:#FFADB7"/>
	</linearGradient>
	<path fill="url(#SVGID_3_)" d="M343.587,113.926c0,0,0.358-0.422,0.706-0.239c0.535,0.282-0.238,1.158-0.313,1.27
		c-0.074,0.111-0.469,0.067-0.514-0.201S343.861,114.264,343.587,113.926z"/>
	<circle fill="#F8FBFF" cx="343.602" cy="115.353" r="0.177"/>
	<path fill="#FEBFBF" d="M336.258,142.588c0,0-0.082,0.656-0.083,1.105c0,0.074,0.002,0.134,0.01,0.174
		c0.052,0.281,0.063,0.855,0.063,0.855s0.013,0.057,0.033,0.139c0.043,0.16,0.518,0.121,0.692,0.277
		c0.072,0.065,0.281-0.089,0.281-0.089l0.245-0.217c0,0,0.153,0.088,0.283,0.032v-0.001c0.027-0.011,0.052-0.027,0.074-0.052
		c0.14-0.148,0.349-1.082,0.356-1.121c0.009-0.039,0.472-1.55,0.472-1.55l-0.144-2.077c0,0-0.636-0.222-1.023-0.229
		c-0.064,0-0.11,0.009-0.128,0.03c-0.125,0.151-0.981,1.854-0.981,1.854s-0.35,0.6-0.737,1.146
		c-0.045,0.063-0.219,0.586,0.169,0.368C336.013,143.134,336.258,142.588,336.258,142.588z"/>
	<path fill="#E6F1FF" d="M337.031,140.315c0,0,0.322-1.465,0.787-2.596c0.466-1.13,1.686-4.82,1.851-5.016s1.868-1.167,2.574-0.054
		c-0.568,1.867-3.424,6.95-3.539,7.522C338.588,140.745,337.251,140.776,337.031,140.315z"/>
	
		<linearGradient id="SVGID_4_" gradientUnits="userSpaceOnUse" x1="2514.73" y1="114.2441" x2="2515.4041" y2="114.4263" gradientTransform="matrix(-1 0 0 1 2855.7451 0)">
		<stop  offset="0" style="stop-color:#FEB9B8"/>
		<stop  offset="0.4054" style="stop-color:#FCA4B5"/>
	</linearGradient>
	<path fill="url(#SVGID_4_)" d="M340.879,114.999c0,0,0.277,0.265,0.179-0.825c-0.064-0.713-0.301-0.678-0.354-0.582
		C340.621,113.736,340.288,114.328,340.879,114.999z"/>
	<path fill="#FF77A1" d="M349.475,109.452c0,0,2.117-1.37,3.308,1.114c1.511,3.15-2.037,4.957-1.747,7.931
		c0.286,2.938,2.037,2.213,2.037,2.213s-7.451,2.398-5.814-3.056c0.475-1.579,5.163-5.743,2.15-6.514
		C347.98,110.328,349.475,109.452,349.475,109.452z"/>
	<path fill="#F8FBFF" d="M349.475,109.452c0,0-0.948,0.519,0.005,1.708c0.047-0.05,0.529,0.241,0.529,0.241s0.381,0.305,0.383,0.58
		c-0.152,0.155-0.877,0.017-1.056-0.07c-0.825-0.4-1.192-1.575-0.693-2.202c0.417-0.524,0.924-0.454,1.093-0.384
		C349.664,109.413,349.475,109.452,349.475,109.452z"/>
</g>
</svg>
