<?xml version="1.0" encoding="utf-8"?>
<!-- Generator: Adobe Illustrator 16.0.0, SVG Export Plug-In . SVG Version: 6.00 Build 0)  -->
<!DOCTYPE svg PUBLIC "-//W3C//DTD SVG 1.1//EN" "http://www.w3.org/Graphics/SVG/1.1/DTD/svg11.dtd">
<svg version="1.1" id="Layer_1" xmlns="http://www.w3.org/2000/svg" xmlns:xlink="http://www.w3.org/1999/xlink" x="0px" y="0px"
	 width="463.683px" height="425.749px" viewBox="0 0 463.683 425.749" enable-background="new 0 0 463.683 425.749"
	 xml:space="preserve">
<g>
	<path fill="#D7E4F2" d="M145.83,128.611c4.23,2.692,11.288,2.984,15.763,0.651c4.475-2.332,4.673-6.405,0.442-9.098
		c-4.231-2.692-11.288-2.984-15.763-0.651C141.796,121.846,141.599,125.919,145.83,128.611z"/>
	<g>
		<path fill="#6C6B79" d="M146.709,123.48c0,0-0.209,0.112-0.217,0.269s-0.004,0.59-0.001,0.692s0.279,0.492,0.939,0.631
			c0.659,0.139,2.247-0.318,2.777-0.643c0.531-0.325,1.248-1.14,1.47-1.206c0.222-0.065,0.89,0.043,0.89,0.043l0.6-0.063
			l0.981-0.372c0,0,0.116-0.666-0.16-0.869C153.714,121.759,146.709,123.48,146.709,123.48z"/>
		<path fill="#504F60" d="M150.373,120.707c0,0-0.771,0.512-0.907,0.654c-0.136,0.144-1.536,0.746-2.019,1.055
			c-0.483,0.309-0.841,0.828-0.87,0.996c-0.029,0.168-0.095,0.551-0.035,0.71s0.325,0.579,1.171,0.613
			c0.847,0.035,2.55-0.805,2.55-0.805s1.174-0.838,1.348-0.925c0.174-0.087,1.721-0.514,1.956-0.597s0.37-0.12,0.401-0.311
			c0.031-0.191,0.208-1.234,0.076-1.559S151.045,119.851,150.373,120.707z"/>
	</g>
	<g>
		<path fill="#6C6B79" d="M152.631,126.184c0,0-0.231,0.009-0.28,0.318s-0.033,0.675-0.033,0.675s0.297,0.435,1.267,0.536
			c0.97,0.102,2.146-0.281,2.746-0.638c0.6-0.357,0.812-0.642,1.167-1.157s0.728-0.767,0.728-0.767l0.155,0.038
			c0,0,0.854-0.649,0.992-0.871c0.07-0.185,0.104-1.119-0.031-1.201C159.208,123.036,152.631,126.184,152.631,126.184z"/>
		<path fill="#504F60" d="M155.211,122.643l-0.255,0.647c0,0-1.549,1.57-1.968,2.037c-0.418,0.467-0.631,0.873-0.642,1.289
			c-0.01,0.416,1.075,0.662,1.237,0.67s0.88,0.063,1.792-0.299c0.912-0.362,1.283-0.699,2.003-1.517
			c0.721-0.818,1.21-1.271,1.432-1.458c0.223-0.188,0.545-0.487,0.537-0.725s0.014-0.904-0.182-0.982
			C158.969,122.227,155.818,122.039,155.211,122.643z"/>
	</g>
	<g>
		<path fill="#FEBFBF" d="M148.815,95.031l-0.026,0.531c0,0-0.032,0.068-0.092,0.117c-0.036,0.03-0.084,0.053-0.14,0.045
			c-0.025-0.003-0.051-0.007-0.078-0.01c-0.134-0.021-0.281-0.058-0.281-0.058s-0.007,0.003-0.018,0.009
			c-0.051,0.022-0.196,0.086-0.259,0.058c-0.075-0.032-1.063-1.064-1.063-1.064s-0.377-1.536-0.36-1.792s0.462-2.572,0.551-3.452
			c0.088-0.878,0.458-5.596,0.511-6.385c0.053-0.788,0.46-2.066,0.572-2.911c0.11-0.843,0.372-4.373,0.372-4.373l1.619,0.11
			l-0.939,11.673L148.815,95.031z"/>
		
			<linearGradient id="SVGID_1_" gradientUnits="userSpaceOnUse" x1="1946.8433" y1="62.8828" x2="1948.5708" y2="62.8828" gradientTransform="matrix(0.9977 0.0675 -0.0675 0.9977 -1790.9294 -100.5544)">
			<stop  offset="0.1224" style="stop-color:#FCA4B5"/>
			<stop  offset="0.9896" style="stop-color:#FFADB7"/>
		</linearGradient>
		<path fill="url(#SVGID_1_)" d="M148.79,95.563c0,0-0.032,0.068-0.092,0.117c-0.001-0.108-0.001-0.204,0-0.231
			c0.004-0.07-0.245-0.287-0.365-0.409c-0.121-0.123-0.325-0.159-0.325-0.159s0.211,0.25,0.255,0.353
			c0.042,0.103,0.216,0.481,0.216,0.481c-0.134-0.021-0.281-0.058-0.281-0.058s-0.007,0.003-0.018,0.009
			c0.02-0.165-0.04-0.349-0.04-0.349s-0.646-0.756-0.771-0.93c0.022-0.199-0.163-0.954-0.159-1.068
			c0.003-0.115,0.202-0.936,0.202-0.936l0.708,0.091l0.313-0.829l0.011,1.636c0,0,0.197,1.29,0.297,1.512
			c0.024,0.055,0.049,0.139,0.073,0.237L148.79,95.563z"/>
		<path fill="#6F7ABD" d="M152.066,71.252c0,0-2.737-0.136-3.285,1.473s-0.678,3.095-0.678,3.095s0.796,0.689,1.014,0.714
			S152.066,71.252,152.066,71.252z"/>
		
			<linearGradient id="SVGID_2_" gradientUnits="userSpaceOnUse" x1="1947.2026" y1="60.2725" x2="1947.6097" y2="63.4303" gradientTransform="matrix(0.9977 0.0675 -0.0675 0.9977 -1790.9294 -100.5544)">
			<stop  offset="0.1224" style="stop-color:#FEB9B8"/>
			<stop  offset="1" style="stop-color:#FFDEDE"/>
		</linearGradient>
		<path fill="url(#SVGID_2_)" d="M148.127,93.263c0,0,0.019-0.673,0.101-0.813c0.082-0.14,0.024-1.273-0.097-1.488
			s-0.821-0.006-0.816,0.88s0.1,1.792,0.1,1.792s0.222,0.629,0.219,0.74c-0.002,0.11,0.11,0.35,0.358,0.281
			c0.247-0.069,0.232-0.531,0.222-0.646C148.204,93.895,148.127,93.263,148.127,93.263z"/>
	</g>
	<g>
		<path fill="#4F5997" d="M154.036,120.293c0,0-0.204,0.398-0.692,0.625c-0.499,0.234-1.292,0.288-2.469-0.442
			c0,0-0.6-13.735-1.493-17.959l3.604,5.302l1.452,0.021l0.002,0c0,0,0.698,4.64,0.391,7.089
			C154.521,117.383,154.036,120.293,154.036,120.293z"/>
		<path fill="#4F5997" d="M154.501,107.679c-0.016,0.057-0.036,0.11-0.06,0.163l-0.002,0c-0.204,0.458-0.664,0.737-1.196,0.867
			c-1.052,0.257-2.388-0.072-2.633-0.774c-0.016-0.043-0.032-0.095-0.051-0.151c-0.447-1.378-1.459-7.193-2.112-11.517
			c-0.679-4.507,0.402-6.688,0.402-6.688l5.539,0.885c0,0,0.104,2.662,0.19,5.856C154.694,100.694,154.762,106.791,154.501,107.679z
			"/>
		<path fill="#A8B0C2" d="M154.036,120.293c0,0-0.204,0.398-0.692,0.625c0.32-2.427,0.837-6.576,0.717-7.425
			c-0.078-0.57-0.282-3.368-0.466-4.712c-1.252-9.13-1.188-11.973-1.188-11.973l-1.215-1.77l3.387,1.28
			c0.116,4.375,0.184,10.472-0.077,11.36c-0.016,0.057-0.036,0.11-0.06,0.163c0,0,0.698,4.64,0.391,7.089
			C154.521,117.383,154.036,120.293,154.036,120.293z"/>
		<path fill="#4F5997" d="M151.018,92.401l-0.751,0.92c0,0-0.044,1.117,2.461,2.92c0.071,2.616,1.057,8.01,2.073,12.933
			c0.435,2.108,3.335,0.375,3.711-1.95s2.112-9.625,2.236-11.414c0.125-1.789,0.227-3.61-1.033-4.635
			C158.455,90.148,151.018,92.401,151.018,92.401z"/>
		<g>
			<g>
				<path fill="#8C92B0" d="M157.924,95.696c-2.653-0.114-2.917-1.915-2.919-1.935l0.246-0.032c0.01,0.075,0.28,1.838,3.218,1.718
					l0.01,0.249C158.284,95.704,158.099,95.704,157.924,95.696z"/>
			</g>
			<path fill="#1B292C" d="M160.56,91.427c0,0-1.23,1.504-4.506,1.678c-3.276,0.174-4.517-0.153-5.611-0.757
				s-1.763-1.466-1.763-1.466l0.203-1.458c0,0,0.62,1.108,2.177,1.728c1.556,0.62,4.909,0.501,6.274,0.386
				c1.365-0.115,3.106-1.221,3.106-1.221L160.56,91.427z"/>
			<path fill="#4F5997" d="M154.437,91.71c0,0-0.09,0.42-0.104,0.907c-0.014,0.488,0,1.379,0,1.379l-0.495-0.031
				c0,0-0.088-0.852-0.068-1.285c0.02-0.434,0.134-1.045,0.134-1.045L154.437,91.71z"/>
			<path fill="#4F5997" d="M149.885,90.446c0,0-0.122,0.522-0.141,0.938c-0.019,0.416,0.047,1.114,0.047,1.114l-0.331-0.423
				c0,0-0.05-0.708-0.04-0.934c0.01-0.227,0.194-0.905,0.194-0.905L149.885,90.446z"/>
			<g>
				<path fill="#8C92B0" d="M148.278,92.969c-0.021-0.001-0.043-0.003-0.065-0.009l0.056-0.242c0.239,0.059,0.56-0.639,0.715-1.157
					l0.237,0.07C149.152,91.866,148.792,92.991,148.278,92.969z"/>
			</g>
			<g>
				<path fill="#CCDEFB" d="M152.021,93.258c-0.057,0-0.116-0.009-0.175-0.025l-0.924-0.254c-0.394-0.109-0.699-0.535-0.695-0.971
					l0.003-0.415c0.002-0.212,0.077-0.397,0.21-0.523c0.15-0.142,0.359-0.189,0.574-0.13l0.924,0.255
					c0.394,0.108,0.699,0.534,0.695,0.969l-0.004,0.416c-0.002,0.211-0.076,0.397-0.209,0.523
					C152.312,93.205,152.172,93.259,152.021,93.258z M150.847,91.39c-0.063,0-0.118,0.019-0.158,0.057
					c-0.042,0.039-0.063,0.094-0.063,0.164l-0.004,0.415c-0.001,0.205,0.176,0.433,0.379,0.489l0.924,0.254
					c0.099,0.027,0.19,0.011,0.248-0.044c0.042-0.039,0.063-0.094,0.063-0.164l0.003-0.415c0.002-0.205-0.175-0.433-0.379-0.489
					l-0.924-0.255C150.906,91.394,150.875,91.39,150.847,91.39z"/>
			</g>
		</g>
		<path fill="#4F5997" d="M155.693,122.232c0.428-1.631-0.176-10.503-0.893-13.058c3.372-2.06,3.801-2.455,3.801-2.455
			s1.313,5.601,1.366,7.896c0.03,1.313-1.265,7.828-1.265,7.828S157.401,123.879,155.693,122.232z"/>
		<g>
			<path fill="#8C92B0" d="M158.296,123.252l-0.242-0.055c0.013-0.057,1.289-5.698,1.244-8.292
				c-0.035-2.018-0.557-4.621-0.902-6.344c-0.162-0.806-0.29-1.443-0.327-1.804c-0.038-0.362,0.156-1.398,0.425-2.833
				c0.612-3.266,1.536-8.201,0.644-10.034l0.223-0.109c0.927,1.907-0.006,6.891-0.624,10.188c-0.255,1.362-0.456,2.437-0.422,2.762
				c0.037,0.35,0.163,0.981,0.324,1.781c0.347,1.731,0.872,4.348,0.907,6.389C159.592,117.525,158.31,123.195,158.296,123.252z"/>
		</g>
	</g>
	<g>
		<path fill="#5F6BB5" d="M160.672,78.298c-0.195,0.674-0.382,1.247-0.502,1.538c-0.425,1.024-0.927,3.926-0.924,5.715
			c0.009,1.519,0.349,1.893,0.555,3.201c0.031,0.229,0.238,1.389,0.262,1.684c-0.119,1.03-1.068,0.322-2.331,0.643
			c-0.211,0.056-0.435,0.104-0.676,0.142c-0.82,0.139-2.123,0.201-3.21,0.219c-4.48-0.254-4.927-2.138-4.927-2.138
			s-0.01-3.664-0.114-4.962c-0.104-1.3-0.653-1.996-0.641-2.825c0.018-0.828,0.392-3.354,1.003-5.526
			c0.605-2.167,1.05-4.037,1.675-4.348c0.57-0.276,1.206-0.262,2.158-0.373c0.945-0.105,3.044,0.3,3.044,0.3
			s1.165,0.302,1.624,0.468c0.458,0.166,3.065,1.52,3.597,1.952C161.648,74.296,161.141,76.621,160.672,78.298z"/>
	</g>
	<g>
		<path fill="#1B292C" d="M149.572,91.327c0,0-0.5,0.1-0.603,0.06c-0.1-0.044-0.29-0.356-0.309-0.523
			c-0.021-0.164,0.06-1.698,0.089-1.781c0.027-0.086,0.425-0.025,0.496-0.055c0.065-0.029,0.307,0.371,0.36,0.456l0.006,0.011
			C149.651,89.614,149.572,91.327,149.572,91.327z"/>
		<path fill="#263336" d="M149.612,89.496c0,0-0.465,0.037-0.504,0.043c-0.042,0.007-0.403,0.697-0.403,0.697l0.045-1.153
			c0.027-0.086,0.425-0.025,0.496-0.055c0.065-0.029,0.307,0.371,0.36,0.456L149.612,89.496z"/>
		<path fill="#CCDEFB" d="M148.798,89.826c0.002,0.067-0.01,0.124-0.027,0.126c-0.017,0.003-0.032-0.048-0.034-0.115
			c-0.002-0.066,0.01-0.123,0.027-0.126C148.781,89.707,148.796,89.759,148.798,89.826z"/>
	</g>
	<path fill="#A8B0C2" d="M160.17,79.836c-0.425,1.024-0.927,3.926-0.924,5.715c0.009,1.519,0.349,1.893,0.555,3.201l-2.077,2.717
		l-0.346,0.449l-0.33-0.308l0.805-1.934c0,0,0.447-0.651,0.634-1.248c0.187-0.597-0.979-4.652-0.919-5.203
		c0.06-0.545,0.467-0.765,0.942-2.178c0.481-1.418,0.283-3.621,0.283-3.621c0.475-0.56,1.282,0.166,1.879,0.87
		C160.478,78.972,160.291,79.544,160.17,79.836z"/>
	
		<linearGradient id="SVGID_3_" gradientUnits="userSpaceOnUse" x1="1980.0171" y1="73.4199" x2="1977.2479" y2="70.7681" gradientTransform="matrix(0.9969 0.0788 -0.0788 0.9969 -1811.2739 -157.5149)">
		<stop  offset="0.1224" style="stop-color:#FEC7C7"/>
		<stop  offset="0.9694" style="stop-color:#FFADB7"/>
	</linearGradient>
	<path fill="url(#SVGID_3_)" d="M152.389,69.208c0,0,0.546,1.811,0.355,2.335c-0.191,0.524-1.075,1.694-0.727,2.364
		s1.733,1.308,2.952,0.555c1.219-0.753,1.551-1.281,1.871-1.557c0.32-0.275,0.722-0.714,0.522-0.948
		c-0.199-0.233-0.383-1.147-0.39-1.939c-0.006-0.793,0.026-1.64,0.25-2.724c0.223-1.084,0.307-2.432,0.307-2.432l-2.919,1.641
		L152.389,69.208z"/>
	
		<linearGradient id="SVGID_4_" gradientUnits="userSpaceOnUse" x1="1975.8843" y1="71.5801" x2="1977.7218" y2="73.4647" gradientTransform="matrix(0.9969 0.0788 -0.0788 0.9969 -1811.2739 -157.5149)">
		<stop  offset="0.1224" style="stop-color:#FCA4B5"/>
		<stop  offset="0.9896" style="stop-color:#FFADB7"/>
	</linearGradient>
	<path fill="url(#SVGID_4_)" d="M152.684,70.403c0,0,0.1,0.867,0.081,1.064c-0.02,0.197-0.571,0.94-0.533,1.092
		c0.037,0.152,0.8,1.154,1.239,0.994c0.439-0.161,0.801-2.318,1.708-2.971c0.318-0.229,0.752-1.152,0.752-1.152L152.684,70.403z"/>
	<g>
		<path fill="#FEBFBF" d="M164.852,80.288c0,0-1.86-3.59-2.849-4.389c-1.928-0.248-2.258,1.877-2.189,2.623
			c0.068,0.746,0.652,1.625,1.99,3.012c1.337,1.387,2.117,2.98,2.796,3.625c0.68,0.646,2.688,1.448,3.051,0.418
			C167.625,84.213,166.008,81.673,164.852,80.288z"/>
		<g>
			<path fill="#1B292C" d="M160.817,91.623c0.009,0.378-0.162,0.681-0.354,0.898c-0.058,0.064-0.127,0.13-0.201,0.203
				c-0.17,0.15-0.319,0.225-0.319,0.225l-0.003,0.047l-0.136,3.367c0,0-0.894,0.675-2.115,0.407
				c-0.467-0.724-1.147-5.202-1.036-5.382s2.466-0.925,2.466-0.925l0.86-0.335c0,0,0.376,0.097,0.583,0.168
				C160.776,90.373,160.809,90.759,160.817,91.623z"/>
			<path fill="#263336" d="M160.817,91.623c0.009,0.378-0.162,0.681-0.354,0.898c-0.058,0.064-0.127,0.13-0.201,0.203
				c-0.1,0.089-0.204,0.186-0.322,0.272c-0.305,0.241-0.667,0.456-1.04,0.551c-1.033,0.257-1.661-1.213-1.715-1.495
				c-0.054-0.282-0.531-0.664-0.531-0.664c0.112-0.18,2.466-0.925,2.466-0.925l0.86-0.335c0,0,0.376,0.097,0.583,0.168
				C160.776,90.373,160.809,90.759,160.817,91.623z"/>
			
				<ellipse transform="matrix(0.982 0.1886 -0.1886 0.982 20.3963 -28.2738)" fill="#CCDEFB" cx="158.73" cy="93.011" rx="0.27" ry="0.329"/>
		</g>
		<path fill="#FEBFBF" d="M167.476,86.051c-0.119,0.108-0.285,0.226-0.504,0.357c-0.526,0.321-1.189,0.887-2.354,1.36
			c-1.632,0.664-4.703,1.682-4.74,1.738c-0.043,0.061-0.208,0.933-0.288,1.555c-0.038,0.306-0.158,0.774-0.273,1.178
			c-0.118,0.418-0.231,0.768-0.24,0.805c-0.016,0.071-0.788,0.753-0.788,0.753l-0.185,0.023c0,0-0.534,0.24-0.625,0.245
			c-0.087,0.011-0.221-0.174-0.221-0.174s-0.217-0.144-0.201-0.215c0.016-0.071,0.575-0.851,0.575-0.851l0.116-1.053l-0.19-1.336
			c0,0-0.671,0.834-0.894,1.004s-0.576,0.45-0.73,0.116c-0.011-0.242,0.922-1.397,0.922-1.397s0.484-0.916,0.635-1.231
			c0.156-0.315,1.265-0.876,1.74-1.079c0.475-0.204,3.149-1.594,4.256-2.475c1.106-0.882,1.483-0.848,1.483-0.848l2.566,0.353
			C167.535,84.879,167.887,85.688,167.476,86.051z"/>
		
			<linearGradient id="SVGID_5_" gradientUnits="userSpaceOnUse" x1="2398.8062" y1="130.5347" x2="2398.2983" y2="132.4135" gradientTransform="matrix(0.9759 0.2184 -0.2184 0.9759 -2153.6746 -559.8042)">
			<stop  offset="0.1224" style="stop-color:#FCA4B5"/>
			<stop  offset="0.9896" style="stop-color:#FFADB7"/>
		</linearGradient>
		<path fill="url(#SVGID_5_)" d="M158.463,91.787l-0.212,1.098c0,0-0.577,0.68-0.716,0.79s-0.277,0.214-0.277,0.214
			s0.261-0.05,0.39-0.176c0.13-0.126,0.591-0.623,0.662-0.728c0.071-0.105,0.204-0.912,0.204-0.912L158.463,91.787z"/>
		
			<linearGradient id="SVGID_6_" gradientUnits="userSpaceOnUse" x1="2399.3364" y1="130.6777" x2="2398.8284" y2="132.5573" gradientTransform="matrix(0.9759 0.2184 -0.2184 0.9759 -2153.6746 -559.8042)">
			<stop  offset="0.1224" style="stop-color:#FCA4B5"/>
			<stop  offset="0.9896" style="stop-color:#FFADB7"/>
		</linearGradient>
		<path fill="url(#SVGID_6_)" d="M158.974,91.82c0,0-0.274,1.287-0.297,1.329c-0.023,0.042-0.419,0.546-0.419,0.546
			s0.488-0.403,0.546-0.484C158.863,93.13,158.974,91.82,158.974,91.82z"/>
		
			<linearGradient id="SVGID_7_" gradientUnits="userSpaceOnUse" x1="2398.8335" y1="127.207" x2="2405.9194" y2="127.207" gradientTransform="matrix(0.9759 0.2184 -0.2184 0.9759 -2153.6746 -559.8042)">
			<stop  offset="0.1224" style="stop-color:#FCA4B5"/>
			<stop  offset="0.9896" style="stop-color:#FFADB7"/>
		</linearGradient>
		<path fill="url(#SVGID_7_)" d="M167.343,85.932l-0.372,0.477c-0.526,0.321-1.189,0.887-2.354,1.36
			c-1.632,0.664-4.703,1.682-4.74,1.738c-0.043,0.061-0.208,0.933-0.288,1.555c-0.038,0.306-0.158,0.774-0.273,1.178
			c0,0,0.184-1.402,0.182-1.748c-0.003-0.346-0.131-0.954-0.131-0.954l-0.03-0.266c0,0,1.488-0.556,2.322-0.754
			c0.833-0.193,4.303-1.9,4.303-1.9L167.343,85.932z"/>
		<path fill="#6F7ABD" d="M164.175,78.129c0,0-0.335,0.797-1.273,1.206c-0.938,0.41-2.502,0.954-2.502,0.954l-1.452-2.093
			c0,0-0.575-1.604,0.4-3.082c0.976-1.479,1.918-1.126,1.918-1.126s1.23,1.254,1.784,2.106
			C163.602,76.946,164.175,78.129,164.175,78.129z"/>
	</g>
	<path fill="#FEC7C7" d="M152.528,62.366c0,0-1.11,0.246-1.482,1.33s-0.524,1.404-0.503,1.716c0.021,0.312-0.181,2.178-0.181,2.178
		s0.267,2.982,0.915,3.354c0.647,0.373,3.951-0.617,4.525-1.341s0.868-1.688,0.868-1.688s1.323-1.341,0.941-3.047
		c-0.382-1.706-1.817-2.577-2.395-2.669S152.528,62.366,152.528,62.366z"/>
	<g>
		
			<linearGradient id="SVGID_8_" gradientUnits="userSpaceOnUse" x1="1974.0415" y1="69.6426" x2="1973.0785" y2="69.8281" gradientTransform="matrix(0.9969 0.0788 -0.0788 0.9969 -1811.2739 -157.5149)">
			<stop  offset="0.1224" style="stop-color:#FEC7C7"/>
			<stop  offset="0.9896" style="stop-color:#FFDBDB"/>
		</linearGradient>
		<path fill="url(#SVGID_8_)" d="M151.147,66.338c-0.09,0.412-0.758,1.361-0.892,1.703s0.779,0.506,1.106,0.531L151.147,66.338z"/>
		
			<linearGradient id="SVGID_9_" gradientUnits="userSpaceOnUse" x1="1973.1333" y1="69.6426" x2="1974.3306" y2="69.6426" gradientTransform="matrix(0.9969 0.0788 -0.0788 0.9969 -1811.2739 -157.5149)">
			<stop  offset="0.188" style="stop-color:#FFDCDC"/>
			<stop  offset="0.8991" style="stop-color:#FEC7C7"/>
		</linearGradient>
		<path fill="url(#SVGID_9_)" d="M151.357,68.614c-0.24-0.019-0.961-0.131-1.124-0.391c-0.04-0.063-0.045-0.129-0.019-0.198
			c0.055-0.14,0.191-0.368,0.349-0.633c0.229-0.385,0.489-0.822,0.542-1.063l0.083,0.019c-0.056,0.254-0.319,0.697-0.551,1.088
			c-0.149,0.251-0.291,0.488-0.343,0.621c-0.017,0.043-0.013,0.083,0.012,0.122c0.132,0.211,0.782,0.33,1.059,0.352L151.357,68.614z
			"/>
	</g>
	<circle fill="#FFFFFF" cx="152.516" cy="66.858" r="0.265"/>
	<path fill="#FFFFFF" d="M151.011,66.437c-0.051,0.124-0.167,0.162-0.26,0.085c-0.093-0.078-0.126-0.241-0.076-0.365
		s0.167-0.162,0.26-0.084C151.027,66.149,151.062,66.313,151.011,66.437z"/>
	<polygon fill="#754554" points="151.738,65.966 151.75,66.247 152.809,66.256 153.969,66.399 152.896,65.935 	"/>
	<polygon fill="#754554" points="150.998,65.795 150.984,65.966 150.399,65.388 150.5,65.167 151.008,65.666 	"/>
	<path fill="#FB7F9E" d="M150.793,69.561c0,0-0.019,0.193,0.21,0.334c0.23,0.14,0.813-0.028,0.813-0.028s-0.531-0.252-0.631-0.295
		C151.086,69.53,150.793,69.561,150.793,69.561z"/>
	<path fill="#FB7F9E" d="M151.905,69.767c0,0-0.504-0.016-0.571-0.087c-0.066-0.07-0.52-0.205-0.52-0.205l-0.145-0.149
		c0,0,0.305-0.037,0.335-0.035c0.031,0.002,0.39,0.157,0.39,0.157L151.905,69.767z"/>
	<path fill="#754554" d="M155.096,64.291c0,0-0.129,0.771,0.008,1.355c0.138,0.585,0.455,1.505,0.579,1.688
		c0.124,0.182,0.249,1.328,0.249,1.328s0.202-1.51,0.287-1.71c0.085-0.2,0.849-0.289,0.849-0.289l-0.073,2.393
		c0,0,1.005-1.252,1.557-1.852c0.553-0.599,0.946-2.516,0.651-3.87c-0.295-1.355-1.09-1.617-1.864-1.987
		c-0.774-0.371-1.76-0.392-2.765-0.311c-1.005,0.081-2.122,0.705-2.63,1.181c-0.508,0.477-0.611,0.939-0.611,0.939
		s0.037,0.232,1.478,0.289C154.252,63.502,154.961,63.684,155.096,64.291z"/>
	
		<linearGradient id="SVGID_10_" gradientUnits="userSpaceOnUse" x1="1979.1001" y1="69.4209" x2="1980.7222" y2="69.4209" gradientTransform="matrix(0.9969 0.0788 -0.0788 0.9969 -1811.2739 -157.5149)">
		<stop  offset="0.1224" style="stop-color:#FEB9B8"/>
		<stop  offset="1" style="stop-color:#FFDEDE"/>
	</linearGradient>
	<path fill="url(#SVGID_10_)" d="M156.402,67.042c0,0,0.527-0.662,1.159-0.337c0.633,0.325,0.15,1.206-0.038,1.451
		c-0.188,0.245-0.712,0.487-0.841,0.576c-0.129,0.089-0.484,0.031-0.524-0.148c-0.039-0.179,0.132-0.602,0.132-0.602
		S156.468,67.241,156.402,67.042z"/>
	
		<linearGradient id="SVGID_11_" gradientUnits="userSpaceOnUse" x1="1979.4233" y1="69.2764" x2="1980.4624" y2="69.2764" gradientTransform="matrix(0.9969 0.0788 -0.0788 0.9969 -1811.2739 -157.5149)">
		<stop  offset="0.1224" style="stop-color:#FCA4B5"/>
		<stop  offset="0.9896" style="stop-color:#FFADB7"/>
	</linearGradient>
	<path fill="url(#SVGID_11_)" d="M156.666,67.385c0,0-0.01-0.261,0.219-0.358s0.684-0.329,0.729,0.172
		c0.045,0.501-0.615,0.877-0.615,0.877s-0.476,0.138-0.499,0.144c-0.023,0.006,0.169-0.3,0.14-0.417
		C156.611,67.687,156.666,67.385,156.666,67.385z"/>
	<path fill="#1B292C" d="M158.232,72.663c0,0-0.389,0.767-0.402,0.925c0,0,0.971,0.362,1.516,0.935
		c0.894-0.803,1.919-0.535,1.919-0.535s-1.104-0.781-2.057-1.393C158.532,72.63,158.232,72.663,158.232,72.663z"/>
	<path fill="#CCDEFB" d="M162.196,75.201c-0.111-0.104-0.884,0.082-0.884,0.082s-0.444,0.702-0.367,0.847
		c0.076,0.143,1.125,1.511,1.947,1.184C163.289,76.55,162.306,75.304,162.196,75.201z"/>
	<g>
		<path fill="#6B6A78" d="M150.863,63.264c0,0-0.99,0.597-0.676,1.28c0.313,0.682,2.789,1.679,4.306,1.246
			c0.674-0.192,1.717-0.833,1.717-0.833S152.265,64.813,150.863,63.264z"/>
		<path fill="#1B292C" d="M150.827,63.39l0.156-2.023c0,0-0.259,0.688,1.082,1.389c1.781,0.93,5.45,1.31,7.523,0.426
			c0.085,0.208-0.213,1.025-0.213,1.025s-2.025,0.963-4.196,0.822S151.048,64.051,150.827,63.39z"/>
		<path fill="#4F5997" d="M150.91,62.478c0,0-1.302-1.932-1.283-2.171c0.019-0.239,1.29-0.481,3.206-0.246
			c1.917,0.236,5.607,2.99,7.948,2.788c-0.175,0.278-0.936,0.735-1.2,0.835C158.767,63.992,152.571,64.603,150.91,62.478z"/>
		<path fill="#7A84C2" d="M149.627,60.307c0,0,0.278-0.228,1.377,0.086c3.427,0.98,5.375,3.612,9.777,2.456
			c0.243-0.177-0.19-1.285-2.038-2.38c-0.837-0.497-6.24-1.459-7.162-1.283C150.661,59.363,149.43,59.871,149.627,60.307z"/>
		<path fill="#CCDEFB" d="M151.996,61.901c0.206,0.453,0.175,0.85-0.068,0.887c-0.243,0.036-0.606-0.302-0.812-0.755
			c-0.205-0.453-0.175-0.85,0.068-0.887C151.428,61.11,151.791,61.447,151.996,61.901z"/>
		<path fill="#8C8B96" d="M152.087,64.421c0,0-0.449,0.27-0.754,0.866c0.813,0.412,1.727,0.5,1.727,0.5s-0.003-0.605,0.522-0.912
			C152.961,64.783,152.087,64.421,152.087,64.421z"/>
		<g>
			<path fill="#B4B3BA" d="M154.925,65.079c-0.977-0.042-2.028-0.232-2.877-0.553c-0.673-0.253-1.1-0.574-1.271-0.953
				c-0.135-0.298-0.052-0.523-0.048-0.533l0.21,0.08l-0.105-0.04l0.105,0.039c-0.009,0.027-0.216,0.667,1.188,1.196
				c1.525,0.575,3.713,0.723,4.878,0.329l0.071,0.213C156.525,65.044,155.752,65.114,154.925,65.079z"/>
		</g>
		<circle fill="#B4B3BA" cx="156.867" cy="64.788" r="0.263"/>
	</g>
	<g>
		<path fill="#CCDEFB" d="M151.207,76.89c0.075-0.079-0.363-0.038-0.654-0.405c-0.12-0.152-0.132-0.142-0.333-0.077
			c-0.357,0.115-0.575-0.131-0.572-0.029c0.008,0.323-0.049,0.444-0.086,0.569c-0.363,1.223-0.075,1.128,0.503,1.808
			c0.838-0.247,0.994-0.03,1-1.226C151.065,77.39,151.084,77.018,151.207,76.89z"/>
		<path fill="#B5CFE2" d="M150.616,77.631c-0.002,0.308-0.171,0.528-0.378,0.494c-0.206-0.034-0.372-0.311-0.37-0.618
			s0.172-0.529,0.378-0.494C150.453,77.047,150.619,77.324,150.616,77.631z"/>
	</g>
	<g>
		<path fill="#6F7ABD" d="M153.845,78.269l-0.201,0.794l1.33,0.964l2.123-0.25l0.144-0.731
			C155.464,78.943,153.845,78.269,153.845,78.269z"/>
		<path fill="#CCDEFB" d="M154.014,77.635l-0.109,0.371c0,0,1.126,0.534,3.43,0.788l0.075-0.381
			C155.656,78.214,154.014,77.635,154.014,77.635z"/>
	</g>
	<polygon fill="#5F6BB5" points="153.857,74.064 153.606,73.936 152.617,73.837 152.227,72.69 151.673,73.533 151.853,75.059 
		154.035,75.642 	"/>
	<path fill="#7A84C2" d="M157.018,71.259l-0.082,0.734c0,0-0.796,1.936-3.33,1.942c-0.045,0.368,0.029,1.406,0.429,1.706
		c1.602-0.604,3.607-1.702,3.964-2.713c0.042-0.12-0.367-1.499-0.367-1.499l-0.568-0.456L157.018,71.259z"/>
	<path fill="#7A84C2" d="M152.69,71.803c0,0-0.019,0.796,0.047,1.023c0.065,0.228,0.261,0.854,0.869,1.109
		c-0.479,0.643-1.387,1.035-1.751,1.055c0.173-0.906,0.175-1.743,0.205-2.438C152.09,71.856,152.847,71.278,152.69,71.803z"/>
	<path fill="#1B292C" d="M152.811,71.235l0.11,0.287l-0.9,0.477l-1.721,0.102c0,0,0.412-0.568,0.733-0.713
		C151.354,71.242,152.811,71.235,152.811,71.235z"/>
	<ellipse fill="#CCDEFB" cx="158.537" cy="72.884" rx="0.178" ry="0.108"/>
	
		<ellipse transform="matrix(0.9748 -0.2231 0.2231 0.9748 -12.117 35.8185)" fill="#CCDEFB" cx="152.436" cy="71.526" rx="0.125" ry="0.054"/>
</g>
</svg>
