<?xml version="1.0" encoding="utf-8"?>
<!-- Generator: Adobe Illustrator 16.0.0, SVG Export Plug-In . SVG Version: 6.00 Build 0)  -->
<!DOCTYPE svg PUBLIC "-//W3C//DTD SVG 1.1//EN" "http://www.w3.org/Graphics/SVG/1.1/DTD/svg11.dtd">
<svg version="1.1" id="Layer_1" xmlns="http://www.w3.org/2000/svg" xmlns:xlink="http://www.w3.org/1999/xlink" x="0px" y="0px"
	 width="463.683px" height="425.749px" viewBox="0 0 463.683 425.749" enable-background="new 0 0 463.683 425.749"
	 xml:space="preserve">
<g>
	<path fill="#754554" d="M294.775,112.5c0,0,0.505,2.473,0.235,3.711c-0.271,1.238-1.291,2.942-1.954,3.107
		c-0.282,0.297-0.421,0.775-0.337,0.806c2.31,0.851,5.636-1.67,5.345-3.159C297.761,115.421,294.775,112.5,294.775,112.5z"/>
	<path fill="#D7E4F2" d="M308.387,170.86c-3.945,2.511-10.526,2.783-14.699,0.608c-4.173-2.175-4.357-5.974-0.412-8.484
		c3.945-2.511,10.526-2.783,14.699-0.608C312.148,164.551,312.333,168.35,308.387,170.86z"/>
	<g>
		<path fill="#6C6B79" d="M307.411,166.564c0,0,0.197,0.1,0.208,0.247c0.01,0.146,0.016,0.55,0.015,0.645
			c-0.001,0.095-0.251,0.464-0.863,0.607c-0.612,0.143-2.101-0.251-2.603-0.544s-1.186-1.038-1.395-1.095
			c-0.208-0.057-0.828,0.058-0.828,0.058l-0.562-0.047l-0.923-0.328c0,0-0.12-0.618,0.133-0.813S307.411,166.564,307.411,166.564z"
			/>
		<path fill="#C2D2EA" d="M303.941,164.052c0,0,0.729,0.462,0.858,0.592s1.446,0.665,1.903,0.944
			c0.457,0.278,0.801,0.754,0.83,0.911c0.03,0.157,0.1,0.512,0.047,0.662c-0.053,0.149-0.291,0.546-1.08,0.595
			c-0.788,0.049-2.393-0.7-2.393-0.7s-1.111-0.758-1.275-0.835c-0.163-0.077-1.614-0.445-1.835-0.518
			c-0.221-0.073-0.348-0.104-0.38-0.282s-0.219-1.146-0.102-1.452C300.631,163.663,303.296,163.267,303.941,164.052z"/>
	</g>
	<g>
		<path fill="#6C6B79" d="M302.167,169.024c0,0,0.216,0.003,0.268,0.291c0.052,0.287,0.044,0.629,0.044,0.629
			s-0.269,0.411-1.171,0.524s-2.007-0.22-2.573-0.54c-0.565-0.321-0.769-0.582-1.11-1.056c-0.342-0.474-0.694-0.7-0.694-0.7
			l-0.144,0.039c0,0-0.81-0.588-0.942-0.792c-0.069-0.171-0.12-1.041,0.005-1.121C295.972,166.22,302.167,169.024,302.167,169.024z"
			/>
		<path fill="#C2D2EA" d="M299.691,165.774l0.251,0.599c0,0,1.476,1.433,1.876,1.86c0.399,0.427,0.605,0.801,0.623,1.189
			c0.019,0.388-0.988,0.639-1.14,0.649c-0.15,0.01-0.819,0.076-1.677-0.243c-0.856-0.319-1.21-0.626-1.897-1.375
			c-0.688-0.748-1.153-1.159-1.364-1.331c-0.211-0.171-0.518-0.443-0.515-0.665c0.004-0.222-0.031-0.843,0.15-0.92
			S299.114,165.224,299.691,165.774z"/>
	</g>
	<path fill="#A8678D" d="M300.735,163.496c0,0,0.197,0.368,0.657,0.569c0.47,0.208,1.211,0.243,2.293-0.46
		c0,0,0.257-13.493,1.006-17.449l-3.226,5.69l-1.354,0.048l-0.002,0c0,0-0.559,4.34-0.224,6.618
		C300.224,160.792,300.735,163.496,300.735,163.496z"/>
	<path fill="#A8678D" d="M300.051,151.745c0.016,0.052,0.035,0.102,0.059,0.15l0.002,0c0.2,0.423,0.634,0.674,1.133,0.785
		c0.985,0.219,2.225-0.114,2.439-0.773c0.014-0.041,0.027-0.09,0.044-0.143c0.39-1.294,1.218-6.735,1.74-10.78
		c0.544-4.215-0.508-6.227-0.508-6.227l-5.146,0.935c0,0-0.045,2.484-0.062,5.464C299.732,145.236,299.79,150.922,300.051,151.745z"
		/>
	<path fill="#A8B0C2" d="M300.735,163.496c0,0,0.197,0.368,0.657,0.569c-0.347-2.257-0.91-6.115-0.815-6.909
		c0.062-0.533,0.196-3.146,0.341-4.402c0.986-8.537,0.87-11.186,0.87-11.186l1.098-1.674l-3.132,1.261
		c-0.021,4.081,0.036,9.767,0.298,10.589c0.016,0.052,0.035,0.102,0.059,0.15c0,0-0.559,4.34-0.224,6.618
		C300.224,160.792,300.735,163.496,300.735,163.496z"/>
	<path fill="#A8678D" d="M302.995,137.432l0.72,0.843c0,0,0.063,1.041-2.237,2.771c-0.014,2.44-0.918,10.24-1.676,12.099
		s-3.102,0.415-3.498-1.744c-0.396-2.16-2.16-8.932-2.312-10.597c-0.152-1.666-0.283-3.361,0.87-4.343
		C296.016,135.479,302.995,137.432,302.995,137.432z"/>
	<path fill="#A8678D" d="M299.282,165.47c-0.432-1.512-0.098-9.929,0.52-12.325c-3.185-1.854-3.592-2.213-3.592-2.213
		s-1.162,6.166-1.117,7.389c0.045,1.224,1.03,7.192,1.03,7.192S297.722,167.039,299.282,165.47z"/>
	<g>
		<path fill="#BB88A6" d="M296.821,166.336l0.226-0.05c-0.011-0.049-1.072-4.865-1.081-7.287c-0.008-1.856,0.447-4.149,0.779-5.824
			c0.155-0.78,0.277-1.396,0.306-1.744c0.029-0.344-0.21-1.374-0.541-2.799c-0.734-3.161-1.844-7.938-1.056-9.651l-0.21-0.097
			c-0.822,1.786,0.299,6.609,1.04,9.801c0.313,1.353,0.562,2.42,0.537,2.728c-0.028,0.335-0.149,0.946-0.303,1.718
			c-0.335,1.684-0.792,3.99-0.784,5.87C295.744,161.446,296.81,166.287,296.821,166.336z"/>
	</g>
	<g>
		<g>
			<path fill="#FEBFBF" d="M300.281,117.16c0,0,0.814-0.002,2.004-0.255c1.188-0.253,6.603-0.602,8.344-1.51
				c2.015,0.634,4.475,0.275,2.646,1.703c-1.828,1.428-9.474,3.329-10.751,3.491C301.247,120.752,300.281,117.16,300.281,117.16z"/>
			<path fill="#FEBFBF" d="M311.783,116.707c0,0-0.989-0.337-1.154-1.312c-0.163-0.97-0.116-2.513-0.415-3.831
				c-0.422-1.859-0.656-2.028-0.695-2.066s-0.713-0.808-0.84-1.072c-0.127-0.264-0.296-1.125-0.231-1.354
				c0.064-0.229,0.422-0.351,0.506-0.293c0.083,0.058,0.15,0.117,0.15,0.117l0.117-0.473l0.687-0.206c0,0,0.656-0.109,0.823,0.006
				c0.167,0.114,0.283,0.422,0.313,0.52s0.029,0.098,0.029,0.098s0.475,0.066,0.498,0.318c0.023,0.251-0.065,0.347,0.072,0.567
				c0.139,0.22-0.044,0.591-0.021,0.766c0.022,0.175,0.121,0.35-0.035,0.658s-0.333,0.517-0.232,0.776
				c0.102,0.259,1.868,4.021,2.438,5.364C314.589,117.173,312.698,117.217,311.783,116.707z"/>
			<polygon fill="#DBAB81" points="309.642,125.248 311.033,124.678 310.239,88.342 308.849,88.911 			"/>
			<path fill="#FF785C" d="M300.359,116.972c0,0,3.215-0.829,3.895-0.89c0.679-0.061,1.122,0.125,1.122,0.125
				s0.584,0.689,0.268,2.104s-0.702,1.984-1.046,2.181s-1.953,0.248-1.953,0.248L300.359,116.972z"/>
			
				<linearGradient id="SVGID_1_" gradientUnits="userSpaceOnUse" x1="3299.2788" y1="-66.2329" x2="3301.7124" y2="-66.2329" gradientTransform="matrix(-0.992 0.1261 0.1261 0.992 3592.3032 -242.3508)">
				<stop  offset="0.1224" style="stop-color:#FCA4B5"/>
				<stop  offset="0.9896" style="stop-color:#FFADB7"/>
			</linearGradient>
			<path fill="url(#SVGID_1_)" d="M308.953,106.78c0,0-0.01,0.113,0.068,0.225c0.078,0.11,0.228,0.289,0.259,0.387
				s0.18,0.46-0.055,0.566c-0.235,0.106-0.524-0.073-0.573-0.207c-0.049-0.134-0.091-0.409-0.091-0.409s-0.042,0.368,0.111,0.571
				s0.423,0.328,0.423,0.328s0.104,0.019,0.169,0.227s0.16,0.457,0.16,0.457s-0.103,0.249-0.035,0.329
				c0.067,0.081,0.129,0.245,0.129,0.245l0.244,0.033l0.55,0.127l0.555-0.141l0.356-0.299l-0.654,0.204c0,0-0.536,0.087-0.643,0.05
				c-0.106-0.038-0.176-0.08-0.266-0.285c-0.089-0.205-0.036-0.339-0.036-0.339l0.395,0.001l1.107-0.389
				c0,0-1.016,0.263-1.141,0.286c-0.124,0.021-0.399,0.057-0.426-0.055c-0.027-0.111-0.062-0.38-0.062-0.38l0.274-0.245l1.124-0.365
				l-1.261,0.339c0,0-0.1-0.229-0.152-0.445c-0.053-0.216,0.049-0.318,0.049-0.318l1.211-0.478l-1.267,0.345
				c0,0-0.305-0.187-0.318-0.303c-0.013-0.116,0.005-0.189,0.005-0.189l-0.061,0.246L308.953,106.78z"/>
		</g>
		<g>
			<g>
				<path fill="#BB88A6" d="M296.735,141.045c2.319-0.1,2.571-1.654,2.574-1.671l-0.229-0.034c-0.01,0.065-0.261,1.582-2.836,1.474
					l-0.01,0.231C296.411,141.052,296.578,141.052,296.735,141.045z"/>
			</g>
			<path fill="#1B292C" d="M293.992,137.839c0,0,1.07,0.947,3.94,1.103c2.869,0.156,4.42-0.266,5.387-0.786
				c0.966-0.52,1.841-1.561,1.841-1.561l-0.16-1.26c0,0-0.835,1.254-2.207,1.787c-1.371,0.533-4.309,0.425-5.503,0.323
				c-1.195-0.102-3.034-0.645-3.034-0.645L293.992,137.839z"/>
			<path fill="#A8678D" d="M299.827,137.599c0,0,0.073,0.363,0.079,0.784c0.007,0.421-0.018,1.191-0.018,1.191l0.436-0.026
				c0,0,0.087-0.735,0.075-1.11s-0.104-0.903-0.104-0.903L299.827,137.599z"/>
			<path fill="#A8678D" d="M303.832,136.515c0,0,0.101,0.451,0.111,0.81c0.012,0.359-0.056,0.962-0.056,0.962l0.296-0.364
				c0,0,0.053-0.611,0.047-0.807s-0.159-0.782-0.159-0.782L303.832,136.515z"/>
			<g>
				<path fill="#BB88A6" d="M305.209,138.706c0.02-0.001,0.038-0.004,0.058-0.008l-0.051-0.226
					c-0.183,0.042-0.476-0.549-0.603-0.995l-0.223,0.064C304.45,137.746,304.754,138.726,305.209,138.706z"/>
			</g>
			<g>
				<path fill="#CCDEFB" d="M301.576,138.806c-0.115-0.109-0.179-0.27-0.178-0.453l0.002-0.358c0.002-0.377,0.275-0.744,0.622-0.837
					l0.813-0.219c0.188-0.051,0.372-0.009,0.502,0.114c0.115,0.109,0.178,0.269,0.177,0.453l-0.002,0.359
					c-0.002,0.376-0.274,0.744-0.621,0.836l-0.813,0.218c-0.053,0.014-0.104,0.021-0.154,0.022
					C301.792,138.94,301.669,138.895,301.576,138.806z M302.897,137.34l-0.813,0.218c-0.18,0.049-0.337,0.246-0.339,0.422
					l-0.002,0.359c0,0.06,0.019,0.108,0.054,0.142c0.051,0.047,0.13,0.061,0.217,0.038l0.813-0.218
					c0.179-0.048,0.337-0.245,0.338-0.422l0.002-0.358c0-0.061-0.018-0.108-0.053-0.142s-0.083-0.05-0.139-0.049
					C302.952,137.329,302.925,137.332,302.897,137.34z"/>
			</g>
		</g>
		<g>
			<path fill="#FF8269" d="M296.89,117.532c0,0,1.613-0.218,2.602-0.152c0.987,0.064,0.694-0.628,1.406-0.528
				c0.713,0.1,1.656,1.044,1.656,1.044s0.937,2.028,1.394,4.323s1.55,4.383,1.607,5.241c0.059,0.857-0.339,1.836-0.383,3.19
				c-0.044,1.354-0.011,4.924-0.011,4.924s-0.688,2.395-5.324,2.882c-3.395,0.109-5.57-0.748-5.641-1.425
				c0.475-1.945,0.66-2.754,0.577-4.609c-0.083-1.855-1.266-5.067-1.754-6.108c-0.489-1.04-1.305-5.991-0.771-6.466
				s2.516-1.558,2.983-1.753C295.699,117.899,296.89,117.532,296.89,117.532z"/>
			<path fill="#FF8269" d="M299.837,138.456c-3.395,0.109-5.846-0.979-5.641-1.425c0.514-1.877,0.66-2.754,0.577-4.609
				C294.691,130.567,304.474,137.969,299.837,138.456z"/>
		</g>
		<g>
			<path fill="#FEBFBF" d="M296.76,117.03c-0.13,0.01-0.453,0.516-1.025,0.817s-0.588,0.38,0.127,1.002
				c0.715,0.621,3.273,3.413,4.846,3.035s1.453-1.915,1.376-2.528c-0.078-0.614-1.055-1.991-1.363-2.117
				C300.412,117.113,296.76,117.03,296.76,117.03z"/>
			
				<linearGradient id="SVGID_2_" gradientUnits="userSpaceOnUse" x1="3315.0122" y1="-57.5698" x2="3312.1667" y2="-60.8831" gradientTransform="matrix(-0.992 0.1261 0.1261 0.992 3592.3032 -242.3508)">
				<stop  offset="0.1224" style="stop-color:#FEC7C7"/>
				<stop  offset="0.9694" style="stop-color:#FFADB7"/>
			</linearGradient>
			<path fill="url(#SVGID_2_)" d="M301.109,116.694c0,0-0.26,0.656-0.186,1.245c0.075,0.588,0.428,1.561,0.428,1.561
				s-0.344,0.705-1.79,0.584c-1.446-0.122-1.51-0.622-1.974-0.869c-0.464-0.246-1.671-1.4-1.599-1.485
				c0.071-0.086,1.251-0.712,0.747-2.413s-1.204-2.57-1.204-2.57s-0.419-0.709,0.079-0.773
				C296.11,111.91,301.109,116.694,301.109,116.694z"/>
			
				<linearGradient id="SVGID_3_" gradientUnits="userSpaceOnUse" x1="3310.2544" y1="-58.3096" x2="3313.5269" y2="-58.3096" gradientTransform="matrix(-0.992 0.1261 0.1261 0.992 3592.3032 -242.3508)">
				<stop  offset="0.1224" style="stop-color:#FCA4B5"/>
				<stop  offset="0.9896" style="stop-color:#FFADB7"/>
			</linearGradient>
			<path fill="url(#SVGID_3_)" d="M297.717,115.963c0,0,1.26,1.116,1.535,1.692c0.274,0.575,1.491,1.337,1.491,1.337l0.167-1.297
				l0.198-1.001L297.717,115.963z"/>
			<path fill="#FEC7C7" d="M301.24,108.714c0,0,0.534,0.403,0.899,1.272c0.364,0.87,0.624,1.612,0.606,1.768
				c-0.019,0.155-0.142,0.488,0.077,1.109s-0.335,3.77-1.006,4.097c-0.671,0.327-3.835-0.645-4.195-1.082
				c-0.361-0.438-1.301-2.227-1.442-3.442c-0.143-1.216-0.538-2.628,1.207-3.41C299.131,108.244,301.24,108.714,301.24,108.714z"/>
			<g>
				
					<linearGradient id="SVGID_4_" gradientUnits="userSpaceOnUse" x1="3309.1675" y1="-62.1357" x2="3308.3723" y2="-62.0674" gradientTransform="matrix(-0.992 0.1261 0.1261 0.992 3592.3032 -242.3508)">
					<stop  offset="0.1224" style="stop-color:#FEC7C7"/>
					<stop  offset="0.9896" style="stop-color:#FFDBDB"/>
				</linearGradient>
				<path fill="url(#SVGID_4_)" d="M301.736,112.115c-0.059,0.347,0.873,1.734,0.921,2.048c0.049,0.314-0.837,0.316-0.837,0.316
					L301.736,112.115z"/>
				
					<linearGradient id="SVGID_5_" gradientUnits="userSpaceOnUse" x1="3308.353" y1="-62.1094" x2="3309.2759" y2="-62.1094" gradientTransform="matrix(-0.992 0.1261 0.1261 0.992 3592.3032 -242.3508)">
					<stop  offset="0.188" style="stop-color:#FFDCDC"/>
					<stop  offset="0.8991" style="stop-color:#FEC7C7"/>
				</linearGradient>
				<path fill="url(#SVGID_5_)" d="M301.914,114.523c0.192-0.008,0.604-0.044,0.742-0.207c0.04-0.046,0.057-0.102,0.047-0.16
					c-0.021-0.138-0.189-0.448-0.386-0.807c-0.252-0.463-0.566-1.039-0.536-1.227l-0.092-0.016c-0.036,0.22,0.26,0.762,0.546,1.287
					c0.184,0.336,0.357,0.654,0.376,0.776c0.005,0.031-0.004,0.059-0.025,0.085c-0.123,0.144-0.595,0.176-0.767,0.177l0.001,0.093
					C301.833,114.526,301.867,114.525,301.914,114.523z"/>
			</g>
			<g>
				<path fill="#754554" d="M299.265,112.229c1.075-0.254,1.848-0.095,1.855-0.093l0.032-0.152
					c-0.032-0.007-0.813-0.169-1.924,0.094L299.265,112.229z"/>
			</g>
			<g>
				<path fill="#754554" d="M302.022,112.017c0.214-0.156,0.571-0.37,0.688-0.344l0.028-0.153c-0.017-0.003-0.035-0.004-0.056-0.003
					c-0.244,0.011-0.666,0.311-0.754,0.375L302.022,112.017z"/>
			</g>
			
				<ellipse transform="matrix(-0.9523 0.305 -0.305 -0.9523 620.4774 128.8397)" fill="#FFFFFF" cx="300.173" cy="112.894" rx="0.328" ry="0.281"/>
			
				<ellipse transform="matrix(-0.7187 -0.6954 0.6954 -0.7187 441.2286 403.3921)" fill="#FFFFFF" cx="302.218" cy="112.438" rx="0.23" ry="0.266"/>
			<path fill="#FB7F9E" d="M300.845,115.621c0,0,0.893-0.336,1.254-0.395c0.361-0.059,0.39,0.065,0.367,0.189
				C302.444,115.539,301.904,116.446,300.845,115.621z"/>
			<path fill="#754554" d="M295.744,112.915c0,0,0.276-0.378,0.495-0.259s0.627,0.277,0.648,0.446s0.201,1.081,0.201,1.081
				s0.37-0.689,0.284-1.365c-0.086-0.676,0.099-1.628,0.361-2.056c0.264-0.428,0.524-1.084,1.17-1.205
				c0.646-0.121,1.55-0.019,2.077-0.073s0.738-0.249,0.738-0.249l0.502,0.948c0,0-0.042-0.479-0.351-1.008
				c-0.309-0.529-2.521-2.919-5.488-1.143c-2.184,1.13-1.974,3.583-1.607,4.466c0.366,0.882,1.43,1.645,1.543,1.915
				c0.113,0.271,0.411,0.647,0.418,0.901s-0.15-0.948-0.378-1.453C296.13,113.357,295.744,112.915,295.744,112.915z"/>
			
				<linearGradient id="SVGID_6_" gradientUnits="userSpaceOnUse" x1="3313.9565" y1="-62.3174" x2="3315.4595" y2="-62.3174" gradientTransform="matrix(-0.992 0.1261 0.1261 0.992 3592.3032 -242.3508)">
				<stop  offset="0.1224" style="stop-color:#FEB9B8"/>
				<stop  offset="1" style="stop-color:#FFDEDE"/>
			</linearGradient>
			<path fill="url(#SVGID_6_)" d="M296.555,113.094c0,0-0.796-0.757-1.061-0.139c-0.265,0.619,0.374,1.295,0.784,1.618
				s0.707,0.406,0.816,0.221c0.11-0.187-0.209-0.846-0.209-0.846L296.555,113.094z"/>
			
				<linearGradient id="SVGID_7_" gradientUnits="userSpaceOnUse" x1="3314.1987" y1="-62.4189" x2="3315.2417" y2="-62.4189" gradientTransform="matrix(-0.992 0.1261 0.1261 0.992 3592.3032 -242.3508)">
				<stop  offset="0.1224" style="stop-color:#FCA4B5"/>
				<stop  offset="0.9896" style="stop-color:#FFADB7"/>
			</linearGradient>
			<path fill="url(#SVGID_7_)" d="M296.443,113.108c0,0-0.507-0.432-0.704-0.082c-0.197,0.349-0.007,0.948,0.529,1.439
				c0.509,0.171,0.576-0.047,0.568-0.11c-0.008-0.062-0.208-0.336-0.239-0.583C296.565,113.525,296.443,113.108,296.443,113.108z"/>
		</g>
		<g>
			<path fill="#FEBFBF" d="M292.57,120.074c0,0,0.644-0.675,1.834,0.021c1.191,0.697,5.141,6.148,6.739,7.115
				c1.34,1.068,1.018,3.467,0.465,3.656s-6.623-3.263-8.275-5.987C291.681,122.154,291.472,121.044,292.57,120.074z"/>
			<path fill="#FF785C" d="M292.365,119.799c0,0,0.975-1.01,2.515,0.168c1.541,1.178,2.813,3.441,2.813,3.441l0.033,0.266
				l-0.337-0.396c0,0-1.087-0.269-2.448,0.498s-1.506,1.262-1.506,1.262l0.512,0.669c0,0-0.605-0.235-0.781-0.416
				c-0.176-0.182-1.095-1.676-1.381-2.86C291.498,121.245,291.745,120.255,292.365,119.799z"/>
			<path fill="#FEBFBF" d="M300.979,127.791c0,0-0.08-0.363,0.164-0.581s2.37-1.234,4.308-2.803
				c1.938-1.569,2.625-2.302,2.704-2.617c0.078-0.315,0.422-1.215,0.487-1.368s0.547-0.638,0.547-0.638s0.524-0.211,0.754-0.139
				c0.229,0.073,0.406,0.194,0.406,0.194s0.288-0.138,0.396-0.093c0.107,0.046,0.586,0.74,0.586,0.74s-0.002,0.254,0.062,0.417
				c0.063,0.161,0.134,0.585,0.129,0.679c-0.006,0.094-0.011,0.256-0.001,0.467c0.01,0.21-0.255,0.465-0.266,0.576
				c-0.011,0.112,0.004,0.364-0.406,0.476c-0.409,0.112-1.605,0.374-1.92,0.702s-3.539,5.123-7.355,7.122
				C300.414,129.915,300.979,127.791,300.979,127.791z"/>
			
				<linearGradient id="SVGID_8_" gradientUnits="userSpaceOnUse" x1="3301.4429" y1="-54.4351" x2="3302.229" y2="-54.4351" gradientTransform="matrix(-0.992 0.1261 0.1261 0.992 3592.3032 -242.3508)">
				<stop  offset="0.1224" style="stop-color:#FCA4B5"/>
				<stop  offset="0.9896" style="stop-color:#FFADB7"/>
			</linearGradient>
			<path fill="url(#SVGID_8_)" d="M310.125,119.717l0.029,0.233c0,0-0.493-0.007-0.511,0.205s0.287,0.148,0.287,0.148
				s0.396-0.082,0.458-0.09s0-0.39,0-0.39l-0.039,0.018L310.125,119.717z"/>
		</g>
	</g>
	<polygon fill="#EEECF1" points="301.939,105.581 317.875,99.653 317.73,87.248 301.794,93.176 	"/>
	<g>
		<g>
			<path fill="#9FC7A8" d="M305.582,98.057c-0.05-2.501,1.883-5.196,4.307-6.007s4.436,0.564,4.485,3.066
				c0.049,2.501-1.883,5.196-4.307,6.007S305.63,100.559,305.582,98.057z M306.577,97.724c0.038,1.936,1.595,2.999,3.47,2.372
				c1.875-0.628,3.369-2.713,3.331-4.647c-0.038-1.936-1.594-2.999-3.47-2.372C308.033,93.704,306.539,95.789,306.577,97.724z"/>
		</g>
		<g>
			<polygon fill="#9FC7A8" points="312.422,98.974 313.112,98.012 310.47,96.207 310.396,92.396 309.4,92.729 309.484,96.965 			"/>
		</g>
		<g>
			<polygon fill="#9FC7A8" points="309.551,100.4 310.546,100.067 310.453,95.276 306.799,100.221 307.503,100.73 309.504,98.022 
							"/>
		</g>
	</g>
	<path fill="#754554" d="M297.356,113.369c0,0-0.298,1.656,0.115,2.68c-0.444-0.996-0.388-2.179-0.388-2.179L297.356,113.369z"/>
</g>
</svg>
