<?xml version="1.0" encoding="utf-8"?>
<!-- Generator: Adobe Illustrator 16.0.0, SVG Export Plug-In . SVG Version: 6.00 Build 0)  -->
<!DOCTYPE svg PUBLIC "-//W3C//DTD SVG 1.1//EN" "http://www.w3.org/Graphics/SVG/1.1/DTD/svg11.dtd">
<svg version="1.1" id="Layer_1" xmlns="http://www.w3.org/2000/svg" xmlns:xlink="http://www.w3.org/1999/xlink" x="0px" y="0px"
	 width="463.683px" height="425.749px" viewBox="0 0 463.683 425.749" enable-background="new 0 0 463.683 425.749"
	 xml:space="preserve">
<g>
	<path fill="#6A3646" d="M115.564,43.868c0,0-1.571-0.488-2.857,0.524c-1.47,1.157-0.68,3.651-0.234,4.686
		c0.479,1.114,0.809,3.45-0.674,4.331c0.367,0.928,2.679,0.152,3.379-0.289C115.877,52.68,118.565,46.413,115.564,43.868z"/>
	<g>
		<path fill="#BDD6F2" d="M126.879,112.905c-4.29,2.729-11.446,3.025-15.984,0.66c-4.538-2.365-4.738-6.495-0.448-9.226
			c4.291-2.73,11.447-3.025,15.984-0.661C130.969,106.044,131.17,110.175,126.879,112.905z"/>
		<g>
			<g>
				<g>
					<path fill="#FFA1A3" d="M119.196,101.438c0,0-1.086,1.036-0.892,1.618s2.646,4.108,3.854,4.467
						c2.514,0.746,1.818-1.482,1.385-1.926c-0.381-0.392-1.875-1.448-1.914-2.516C121.578,101.643,119.196,101.438,119.196,101.438z
						"/>
					<path fill="#8E8E8E" d="M119.628,104.82c0,0-0.408,0.161-0.397,0.478c0.011,0.316,0.031,1.509,0.031,1.509
						s-0.271,0.163-0.43,0.098s-0.399-0.428-0.399-0.428s-0.337-2.33-0.479-2.799C117.811,103.209,119.628,104.82,119.628,104.82z"
						/>
					<path fill="#C2D2EA" d="M118.144,102.167c0,0,1.756,1.896,2.477,3.17c0.721,1.274,1.458,1.763,1.982,1.714
						c0.837-0.078,1.352-0.621,1.146-1.038c-0.207-0.416-0.207-0.416-0.207-0.416s2.262,2.134,2.059,3.56s-4.051-0.321-4.66-1.022
						c-0.233-0.268-0.776-2.287-1.297-2.842c-0.521-0.555-1.269-0.265-1.646-1.437C117.622,102.685,118.144,102.167,118.144,102.167
						z"/>
					<path fill="#8E8E8E" d="M119.525,105.018c0.521,0.555,1.269,2.666,1.502,2.933c0.567,0.652,3.95,2.169,4.576,1.182
						c-0.001,0.008,0,0.017-0.001,0.025c-0.203,1.426-4.051-0.321-4.66-1.022c-0.233-0.268-0.776-2.287-1.297-2.842
						c-0.453-0.483-1.309-0.275-1.577-1.248C118.43,104.268,119.147,104.616,119.525,105.018z"/>
				</g>
				<g>
					<path fill="#8E8E8E" d="M114.731,106.194c0,0-0.606-0.181-0.601,0.135c0.006,0.317,0.094,2.289,0.094,2.289
						s-0.14,0.137-0.299,0.069c-0.158-0.068-0.392-0.434-0.392-0.434s-0.248-1.927-0.239-2.417
						C113.305,105.254,114.731,106.194,114.731,106.194z"/>
					
						<linearGradient id="SVGID_1_" gradientUnits="userSpaceOnUse" x1="-1058.1528" y1="51.2427" x2="-1053.6997" y2="51.2427" gradientTransform="matrix(0.9991 -0.0431 0.0431 0.9991 1168.75 10.1523)">
						<stop  offset="0.1224" style="stop-color:#FEC7C7"/>
						<stop  offset="0.9694" style="stop-color:#FFADB7"/>
					</linearGradient>
					<path fill="url(#SVGID_1_)" d="M114.564,103.416c0,0-0.904,0.731-0.886,1.674c0.018,0.926,1.183,4.683,2.367,5.113
						c1.184,0.431,2.369-0.338,2.269-0.875c-0.099-0.538-1.15-2.2-1.44-3.518C116.563,104.402,114.564,103.416,114.564,103.416z"/>
					<path fill="#C2D2EA" d="M116.877,105.263c0,0,0.895,1.675,1.284,2.816c0.849,2.488,0.808,3.577,0.626,4.17
						c-0.19,0.619-1.979,0.066-3.25-0.972c-1.456-1.189-0.823-2.617-1.715-4.059c-0.29-0.468-0.558-0.809-0.552-1.925
						c-0.013-0.948,0.826-1.343,0.826-1.343s-0.634,0.962-0.296,1.764c0.17,0.404,0.107,0.578,0.363,1.083
						c0.51,1.004,0.595,1.987,1.327,2.714c0.687,0.683,2.72,0.262,2.665-0.141c-0.102-0.745-0.755-2.001-1.014-2.699
						C116.831,105.838,116.877,105.263,116.877,105.263z"/>
					<path fill="#8E8E8E" d="M113.883,107.11c0.892,1.442,0.219,2.776,1.675,3.967c1.175,0.96,2.899,1.531,3.258,1.079
						c-0.01,0.031-0.02,0.063-0.029,0.092c-0.19,0.619-1.979,0.066-3.25-0.972c-1.456-1.189-0.823-2.617-1.715-4.059
						c-0.189-0.306-0.478-0.61-0.507-1.21C113.478,106.329,113.743,106.883,113.883,107.11z"/>
				</g>
				<path fill="#4F5997" d="M118.499,102.707c0,0,0.214,0.399,0.714,0.619c0.511,0.226,1.316,0.264,2.494-0.501
					c0,0,0.279-14.673,1.094-18.974l-3.508,6.187l-1.472,0.053h-0.002c0,0-0.607,4.719-0.243,7.196
					C117.943,99.767,118.499,102.707,118.499,102.707z"/>
				<path fill="#4F5997" d="M117.755,89.929c0.018,0.057,0.039,0.11,0.064,0.163h0.002c0.217,0.459,0.689,0.732,1.231,0.853
					c1.072,0.238,2.419-0.124,2.653-0.841c0.015-0.043,0.03-0.097,0.048-0.155c0.424-1.407,1.324-7.324,1.892-11.722
					c0.591-4.583-0.629-7.824-0.629-7.824l-5.519,2.07c0,0-0.048,2.701-0.066,5.94C117.408,82.852,117.471,89.034,117.755,89.929z"
					/>
				<path fill="#A8B0C2" d="M118.499,102.707c0,0,0.214,0.399,0.714,0.619c-0.377-2.454-0.99-6.649-0.887-7.513
					c0.066-0.58,0.213-3.42,0.371-4.787c1.072-9.283,0.945-12.163,0.945-12.163l1.194-1.82l-3.406,1.37
					c-0.023,4.439,0.04,10.621,0.324,11.516c0.018,0.057,0.039,0.11,0.064,0.163c0,0-0.607,4.719-0.243,7.196
					C117.943,99.767,118.499,102.707,118.499,102.707z"/>
				<path fill="#4F5997" d="M120.957,74.364l0.782,0.917c0,0,0.068,1.132-2.432,3.014c-0.016,2.653-0.899,8.144-1.823,13.156
					c-0.396,2.146-3.373,0.452-3.804-1.897c-0.431-2.348-2.349-9.712-2.514-11.523c-0.165-1.812-0.308-3.655,0.947-4.723
					C113.368,72.241,120.957,74.364,120.957,74.364z"/>
				<path fill="#4F5997" d="M116.86,104.709c-0.469-1.644-0.048-10.652,0.623-13.258c-3.463-2.015-3.906-2.407-3.906-2.407
					s-1.21,5.707-1.215,8.036c-0.002,1.331,1.452,7.909,1.452,7.909S115.165,106.415,116.86,104.709z"/>
				<g>
					<path fill="#8C92B0" d="M114.243,105.799l0.244-0.061c-0.015-0.058-1.429-5.749-1.44-8.38
						c-0.009-2.047,0.465-4.697,0.777-6.451c0.147-0.82,0.263-1.47,0.292-1.836c0.031-0.367-0.188-1.415-0.491-2.864
						c-0.69-3.297-1.734-8.28-0.87-10.157l-0.229-0.105c-0.898,1.953,0.155,6.985,0.853,10.314c0.287,1.375,0.515,2.46,0.487,2.792
						c-0.03,0.354-0.145,0.998-0.29,1.812c-0.315,1.764-0.791,4.428-0.782,6.497C112.807,100.021,114.229,105.741,114.243,105.799z"
						/>
				</g>
			</g>
			<g>
				<path fill="#FEBFBF" d="M121.583,53.25c0,0,1.454-0.291,1.924,0.593c0.47,0.884,2.194,10.557,2.171,11.063
					c-0.023,0.505-1.916,2.522-2.957-1.847C121.679,58.689,121.583,53.25,121.583,53.25z"/>
				<path fill="#FEBFBF" d="M123.192,66.602c0,0,2.489-0.43,2.583-0.392c0.093,0.038,3.014-0.824,1.736-1.159
					c-1.277-0.336-2.067-0.358-2.067-0.358S121.481,65.174,123.192,66.602z"/>
				<g>
					<path fill="#E6F1FF" d="M120.098,52.481l1.516,0.034c0,0,1.69,0.315,2.173,1.426s0.861,3.605,0.861,3.605
						s-0.644,0.48-1.345,0.792C122.603,58.649,120.098,52.481,120.098,52.481z"/>
				</g>
				<path fill="#DDE8F6" d="M112.17,73.84c0.146,0.152,0.533,0.355,1.075,0.551c1.293,0.466,3.479,0.895,5.46,0.515
					c2.813-0.54,4.563-1.907,4.85-3.003c-0.051-0.474-0.033-5.296,0.049-6.409c0.084-1.113,0.877-3.147,0.885-3.941
					c0.008-0.791-0.641-2.491-0.791-3.378c-0.15-0.885-1.013-4.46-1.399-4.881c-0.282-0.309-0.777-0.582-1.707-0.729
					c-0.676-0.106-4.418-0.609-5.176-0.308c-0.76,0.303-1.503,0.916-2.326,1.483c-0.822,0.565-2.854,2.024-2.854,2.024
					s0.894,3.357,1.19,5.191c0.073,0.458,0.131,0.85,0.164,1.115c0.162,1.325,0.16,8.52,0.16,8.52S111.673,73.323,112.17,73.84z"/>
				<path fill="#FEBFBF" d="M115.35,52.136c-0.142,0.007-0.505,0.551-1.133,0.866c-0.628,0.316-0.647,0.4,0.117,1.092
					c0.765,0.691,3.486,3.78,5.204,3.403c1.717-0.377,1.621-2.051,1.549-2.719c-0.071-0.668-1.104-2.187-1.437-2.33
					C119.317,52.304,115.35,52.136,115.35,52.136z"/>
				<path fill="#DDE8F6" d="M112.17,73.84c0.146,0.152,0.533,0.355,1.075,0.551c-0.024-0.139-0.053-0.291-0.088-0.454
					c-0.893-4.21,0.337-3.717,0.448-5.425c0.113-1.71-0.362-3.051,0.216-2.971c0.578,0.08,1.32,0.124,2.229-0.32
					c-0.742,0.287-1.672,0.194-2.289-0.24c-0.616-0.436-0.407-3.799-0.407-3.799c-0.78-0.354-1.414-0.4-1.928-0.227
					c0.073,0.458,0.131,0.85,0.164,1.115c0.162,1.325,0.16,8.52,0.16,8.52S111.673,73.323,112.17,73.84z"/>
				<g>
					<path fill="#FEBFBF" d="M111.785,55.999c0,0,1.073,0.092,1.276,1.989c0.203,1.896-0.872,10.172-1.58,10.984
						c-0.708,0.812-1.793,0.302-2.113-1.485c-0.32-1.787-0.268-6.964-0.243-7.592C109.15,59.267,109.346,55.005,111.785,55.999z"/>
					<path fill="#FEBFBF" d="M111.271,67.909c0,0,0.365,0.311,0.66,1.604c0.294,1.294,0.929,7.556,1.421,8.202
						c0.493,0.646,1.054,1.166,1.054,1.166s0.562,0.943,0.592,1.233c0.031,0.291,0.263,0.911,0.381,1.063
						c0.118,0.153,0.52,0.727,0.488,0.859c-0.032,0.132-0.418,0.219-0.582,0.062c-0.165-0.157-0.644-1.283-0.804-1.487
						c-0.16-0.203-0.335-0.268-0.335-0.268s-0.161,0.79-0.104,0.986c0.058,0.196,0.611,1.49,0.611,1.49s0.536,0.798,0.553,0.87
						c0.017,0.072-0.28,0.132-0.433,0.001c-0.152-0.131-0.115,0.132-0.417,0.054s-1.123-0.772-1.123-0.772l-0.129-0.179l-0.601-0.11
						c0,0-0.87-1.416-0.93-1.805c-0.06-0.389-0.365-3.411-0.365-3.411s-2.67-7.331-1.688-9.369
						C109.972,67.46,111.271,67.909,111.271,67.909z"/>
					
						<linearGradient id="SVGID_2_" gradientUnits="userSpaceOnUse" x1="3921.1577" y1="-144.2847" x2="3922.5386" y2="-144.2847" gradientTransform="matrix(-0.9943 0.1065 0.1065 0.9943 4028.8311 -191.5432)">
						<stop  offset="0.1224" style="stop-color:#FCA4B5"/>
						<stop  offset="0.9896" style="stop-color:#FFADB7"/>
					</linearGradient>
					<path fill="url(#SVGID_2_)" d="M113.167,81.652c0,0,0.526,1.117,0.642,1.229c0.116,0.111,0.965,0.81,0.965,0.81l-0.193,0.021
						c0,0-0.387-0.396-0.485-0.468c-0.097-0.072-0.434-0.381-0.434-0.381l-0.47-0.971L113.167,81.652z"/>
					
						<linearGradient id="SVGID_3_" gradientUnits="userSpaceOnUse" x1="3922.7222" y1="-144.8198" x2="3923.2397" y2="-144.8198" gradientTransform="matrix(-0.9943 0.1065 0.1065 0.9943 4028.8311 -191.5432)">
						<stop  offset="0.1224" style="stop-color:#FCA4B5"/>
						<stop  offset="0.9896" style="stop-color:#FFADB7"/>
					</linearGradient>
					<path fill="url(#SVGID_3_)" d="M112.471,81.727l0.495,0.947l0.139,0.119l-0.135-0.025c0,0-0.202-0.203-0.26-0.362
						C112.651,82.246,112.471,81.727,112.471,81.727z"/>
					<path fill="#E6F1FF" d="M111.642,55.774c0,0,0.972,0.186,1.461,1.527c0.489,1.342,0.002,4.789,0.002,4.789
						s-1.409-0.139-2.858-0.522c-1.448-0.383-1.586-1.029-1.586-1.029s0.739-3.145,0.991-3.627
						C109.904,56.43,109.93,55.253,111.642,55.774z"/>
				</g>
			</g>
			<g>
				
					<linearGradient id="SVGID_4_" gradientUnits="userSpaceOnUse" x1="3917.0972" y1="-173.3672" x2="3914.4692" y2="-176.6734" gradientTransform="matrix(-0.9943 0.1065 0.1065 0.9943 4028.8311 -191.5432)">
					<stop  offset="0.1224" style="stop-color:#FEC7C7"/>
					<stop  offset="0.9694" style="stop-color:#FFADB7"/>
				</linearGradient>
				<path fill="url(#SVGID_4_)" d="M120.084,51.863c0,0-0.297,0.708-0.229,1.349c0.069,0.642,0.432,1.707,0.432,1.707
					s-0.389,0.759-1.958,0.596s-1.628-0.708-2.127-0.986c-0.499-0.278-1.786-1.558-1.706-1.65c0.08-0.091,1.375-0.747,0.864-2.607
					c-0.511-1.86-1.254-2.82-1.254-2.82s-0.44-0.78,0.104-0.838C114.752,46.555,120.084,51.863,120.084,51.863z"/>
				
					<linearGradient id="SVGID_5_" gradientUnits="userSpaceOnUse" x1="3912.4878" y1="-173.6792" x2="3916.0474" y2="-173.6792" gradientTransform="matrix(-0.9943 0.1065 0.1065 0.9943 4028.8311 -191.5432)">
					<stop  offset="0.1224" style="stop-color:#FCA4B5"/>
					<stop  offset="0.9896" style="stop-color:#FFADB7"/>
				</linearGradient>
				<path fill="url(#SVGID_5_)" d="M116.413,50.996c0,0,1.346,1.241,1.633,1.873s1.593,1.485,1.593,1.485l0.209-1.406l0.237-1.084
					L116.413,50.996z"/>
				<path fill="#FEC7C7" d="M120.397,43.19c0,0,0.573,0.45,0.951,1.403c0.378,0.953,0.645,1.766,0.621,1.934
					c-0.023,0.168-0.164,0.529,0.061,1.208c0.225,0.68-0.445,4.091-1.182,4.432c-0.736,0.342-4.155-0.783-4.538-1.266
					c-0.383-0.483-1.366-2.448-1.494-3.773c-0.128-1.325-0.528-2.869,1.386-3.681S120.397,43.19,120.397,43.19z"/>
				<g>
					
						<linearGradient id="SVGID_6_" gradientUnits="userSpaceOnUse" x1="3911.4341" y1="-177.8394" x2="3910.416" y2="-177.8075" gradientTransform="matrix(-0.9943 0.1065 0.1065 0.9943 4028.8311 -191.5432)">
						<stop  offset="0.1224" style="stop-color:#FEC7C7"/>
						<stop  offset="0.9896" style="stop-color:#FFDBDB"/>
					</linearGradient>
					<path fill="url(#SVGID_6_)" d="M120.863,46.898c-0.07,0.376,0.913,1.904,0.958,2.246s-0.917,0.326-0.917,0.326L120.863,46.898z
						"/>
					
						<linearGradient id="SVGID_7_" gradientUnits="userSpaceOnUse" x1="3910.4214" y1="-177.8115" x2="3911.4253" y2="-177.8115" gradientTransform="matrix(-0.9943 0.1065 0.1065 0.9943 4028.8311 -191.5432)">
						<stop  offset="0.188" style="stop-color:#FFDCDC"/>
						<stop  offset="0.8991" style="stop-color:#FEC7C7"/>
					</linearGradient>
					<path fill="url(#SVGID_7_)" d="M121.069,49.519c0.226-0.01,0.608-0.05,0.749-0.208c0.045-0.05,0.063-0.108,0.054-0.173
						c-0.02-0.15-0.197-0.49-0.402-0.884c-0.265-0.509-0.594-1.143-0.557-1.345l-0.101-0.02c-0.044,0.238,0.267,0.835,0.567,1.412
						c0.192,0.369,0.374,0.718,0.392,0.851c0.004,0.035-0.005,0.064-0.03,0.092c-0.137,0.154-0.654,0.18-0.837,0.176l-0.002,0.102
						C120.923,49.521,120.985,49.522,121.069,49.519z"/>
				</g>
				<g>
					<path fill="#754554" d="M118.261,47.038c1.175-0.253,1.819-0.181,1.826-0.18l0.021-0.169c-0.027-0.002-0.675-0.078-1.883,0.184
						L118.261,47.038z"/>
				</g>
				<g>
					<path fill="#754554" d="M121.108,46.668c0.236-0.166,0.63-0.384,0.757-0.359l0.034-0.166c-0.258-0.053-0.784,0.313-0.888,0.385
						L121.108,46.668z"/>
				</g>
				
					<ellipse transform="matrix(-0.9579 0.287 -0.287 -0.9579 246.9771 59.2229)" fill="#FFFFFF" cx="119.148" cy="47.711" rx="0.357" ry="0.305"/>
				
					<ellipse transform="matrix(-0.7052 -0.7091 0.7091 -0.7052 173.4645 166.651)" fill="#FFFFFF" cx="121.381" cy="47.26" rx="0.251" ry="0.289"/>
				<path fill="#FB7F9E" d="M119.821,50.69c0,0,0.977-0.346,1.371-0.402c0.395-0.056,0.423,0.079,0.396,0.213
					C121.561,50.635,120.955,51.611,119.821,50.69z"/>
				<path fill="#754554" d="M114.333,47.64c0,0,0.309-0.405,0.543-0.271c0.235,0.134,0.675,0.314,0.695,0.499
					c0.02,0.184,0.195,1.18,0.195,1.18s0.417-0.742,0.338-1.479s0.142-1.768,0.438-2.228s0.593-1.168,1.298-1.284
					c0.705-0.117,1.685,0.013,2.26-0.035c0.574-0.048,0.807-0.255,0.807-0.255l0.526,1.042c0,0-0.035-0.522-0.359-1.104
					c-0.325-0.582-2.678-3.228-5.942-1.359c-2.399,1.182-2.223,3.854-1.843,4.82c0.379,0.967,1.519,1.819,1.637,2.116
					c0.118,0.296,0.433,0.712,0.435,0.988c0.002,0.275-0.143-1.034-0.379-1.588C114.744,48.129,114.333,47.64,114.333,47.64z"/>
				
					<linearGradient id="SVGID_8_" gradientUnits="userSpaceOnUse" x1="3916.5132" y1="-178.0381" x2="3918.1489" y2="-178.0381" gradientTransform="matrix(-0.9943 0.1065 0.1065 0.9943 4028.8311 -191.5432)">
					<stop  offset="0.1224" style="stop-color:#FEB9B8"/>
					<stop  offset="1" style="stop-color:#FFDEDE"/>
				</linearGradient>
				<path fill="url(#SVGID_8_)" d="M115.21,47.852c0,0-0.849-0.841-1.15-0.174c-0.301,0.667,0.38,1.416,0.818,1.775
					c0.439,0.36,0.76,0.457,0.883,0.257c0.124-0.199-0.209-0.923-0.209-0.923L115.21,47.852z"/>
				
					<linearGradient id="SVGID_9_" gradientUnits="userSpaceOnUse" x1="3916.7769" y1="-178.1484" x2="3917.9116" y2="-178.1484" gradientTransform="matrix(-0.9943 0.1065 0.1065 0.9943 4028.8311 -191.5432)">
					<stop  offset="0.1224" style="stop-color:#FCA4B5"/>
					<stop  offset="0.9896" style="stop-color:#FFADB7"/>
				</linearGradient>
				<path fill="url(#SVGID_9_)" d="M115.088,47.864c0,0-0.542-0.48-0.763-0.104c-0.222,0.375-0.028,1.031,0.545,1.577
					c0.549,0.196,0.627-0.04,0.62-0.107c-0.007-0.068-0.219-0.371-0.248-0.64C115.212,48.32,115.088,47.864,115.088,47.864z"/>
			</g>
			<g>
				<path fill="#FEBFBF" d="M125.156,64.968l0.412-0.964c0,0,1.133-0.333,1.396-0.278c0.264,0.055,2.146,0.874,2.146,0.874
					s0.844,0.747,0.276,1.028s-1.106,0.237-1.106,0.237l-0.047,0.586l-0.917,0.715l-0.913-0.013l-0.732-0.585l-0.791-0.144
					c0,0-0.556-0.807-0.389-0.971c0.166-0.165,0.673-0.072,0.673-0.072l0.466,0.052L125.156,64.968z"/>
				<g>
					<path fill="#C4C8D8" d="M123.957,65.85c-0.055,0.023,0.02,0.412,0.024,0.422c0.006,0.016,0.083,0.014,0.21-0.006
						c1.936-0.319,3.142-0.519,5.073-0.837c0.211-0.036,0.514-0.115,0.658-0.175c0.002-0.001,0.004-0.002,0.006-0.002
						c0.629-0.264,1.255-0.527,1.884-0.791c0.053-0.022,0.08-0.041,0.08-0.051c0-0.004-0.03-0.408-0.037-0.41
						c-0.024-0.008-0.355,0.135-0.465,0.153c-1.931,0.319-2.846,0.779-4.781,1.099c-0.209,0.033-0.516,0.117-0.664,0.178
						c-0.629,0.264-1.353,0.154-1.982,0.418C123.96,65.849,123.958,65.85,123.957,65.85L123.957,65.85z"/>
					<path fill="#F5F5F5" d="M131.665,64.075c-0.616,0.259-1.235,0.519-1.851,0.777c-0.12,0.05-0.375,0.118-0.557,0.148
						c-1.912,0.315-3.097,0.511-5.014,0.827c-0.181,0.029-0.225,0.011-0.105-0.04c0.616-0.258,1.235-0.518,1.851-0.777
						c0.12-0.05,0.37-0.118,0.552-0.147c1.917-0.316,3.102-0.512,5.014-0.827C131.736,64.007,131.785,64.025,131.665,64.075
						L131.665,64.075z M124.018,65.814c-0.144,0.06-0.068,0.076,0.137,0.044c1.936-0.32,3.142-0.519,5.073-0.837
						c0.211-0.036,0.514-0.115,0.658-0.175c0.002-0.001,0.004-0.002,0.006-0.002c0.629-0.264,1.254-0.527,1.884-0.791
						c0.138-0.06,0.097-0.086-0.131-0.047c-1.931,0.319-3.137,0.518-5.073,0.837c-0.209,0.033-0.515,0.116-0.663,0.178
						c-0.629,0.264-1.255,0.526-1.884,0.79C124.022,65.813,124.02,65.813,124.018,65.814L124.018,65.814z"/>
					<path fill="#7C78F0" d="M130.734,64.406c-0.153,0.064-0.306,0.129-0.459,0.193l-0.046,0.011l-0.008-0.002
						c0.153-0.064,0.307-0.129,0.459-0.193l0.041-0.011L130.734,64.406L130.734,64.406z M130.193,64.64l-0.087,0.023l-0.016-0.005
						l0.085-0.024L130.193,64.64L130.193,64.64z M130.081,64.693l-0.128,0.034l-0.024-0.009l0.124-0.033L130.081,64.693
						L130.081,64.693z M124.139,65.789c-0.12,0.05-0.076,0.069,0.105,0.04c1.917-0.316,3.103-0.512,5.014-0.827
						c0.182-0.03,0.437-0.099,0.557-0.148c0.616-0.259,1.235-0.519,1.851-0.777c0.12-0.05,0.071-0.068-0.11-0.038
						c-1.912,0.315-3.097,0.511-5.014,0.827c-0.182,0.03-0.432,0.098-0.552,0.147C125.374,65.271,124.754,65.53,124.139,65.789
						L124.139,65.789z"/>
					<path fill="#2A2A2C" d="M130.221,64.608c0.153-0.064,0.307-0.129,0.459-0.193l0.041-0.011l0.013,0.002
						c-0.153,0.064-0.306,0.129-0.459,0.193l-0.046,0.011L130.221,64.608L130.221,64.608z"/>
					<path fill="#838383" d="M130.051,64.698l-0.082,0.022l-0.011-0.007l0.074-0.02L130.051,64.698L130.051,64.698z M129.929,64.718
						l0.024,0.009l0.128-0.034l-0.028-0.008L129.929,64.718L129.929,64.718z"/>
					<polygon fill="#516F83" points="129.958,64.713 130.032,64.693 130.051,64.698 129.969,64.72 129.958,64.713 					"/>
					<polygon fill="#2A2A2C" points="130.09,64.657 130.175,64.633 130.193,64.64 130.105,64.663 130.09,64.657 					"/>
				</g>
				
					<linearGradient id="SVGID_10_" gradientUnits="userSpaceOnUse" x1="3905.6753" y1="-159.251" x2="3908.5669" y2="-159.251" gradientTransform="matrix(-0.9943 0.1065 0.1065 0.9943 4028.8311 -191.5432)">
					<stop  offset="0.1224" style="stop-color:#FCA4B5"/>
					<stop  offset="0.9896" style="stop-color:#FFADB7"/>
				</linearGradient>
				<polygon fill="url(#SVGID_10_)" points="128.369,65.581 128.297,65.772 128.434,65.849 128.36,66.364 126.873,66.734 
					125.588,66.421 126.911,66.491 128.018,65.995 128.038,65.754 126.725,65.867 				"/>
				
					<linearGradient id="SVGID_11_" gradientUnits="userSpaceOnUse" x1="3906.5073" y1="-160.8662" x2="3908.2786" y2="-161.321" gradientTransform="matrix(-0.9943 0.1065 0.1065 0.9943 4028.8311 -191.5432)">
					<stop  offset="0.1224" style="stop-color:#FEB9B8"/>
					<stop  offset="1" style="stop-color:#FFDEDE"/>
				</linearGradient>
				<path fill="url(#SVGID_11_)" d="M125.94,64.387c0,0,0.117,0.742,0.236,0.83s0.455,0.034,0.558-0.29
					c0.103-0.324,0.129-0.511,0.129-0.511l0.396,0.179c0,0,0.685-0.562,0.123-0.823c-0.562-0.262-1.242-0.263-1.242-0.263
					s-0.399,0.23-0.366,0.282C125.808,63.843,125.94,64.387,125.94,64.387z"/>
				
					<linearGradient id="SVGID_12_" gradientUnits="userSpaceOnUse" x1="3905.896" y1="-160.8979" x2="3907.3774" y2="-160.8979" gradientTransform="matrix(-0.9943 0.1065 0.1065 0.9943 4028.8311 -191.5432)">
					<stop  offset="0.1224" style="stop-color:#FCA4B5"/>
					<stop  offset="0.9896" style="stop-color:#FFADB7"/>
				</linearGradient>
				<polygon fill="url(#SVGID_12_)" points="126.879,63.965 126.851,64.908 126.656,65.221 126.921,65.094 127.365,64.888 
					128.091,64.724 127.613,64.714 127.663,64.23 127.089,64.713 				"/>
			</g>
		</g>
	</g>
</g>
</svg>
