<?xml version="1.0" encoding="utf-8"?>
<!-- Generator: Adobe Illustrator 16.0.0, SVG Export Plug-In . SVG Version: 6.00 Build 0)  -->
<!DOCTYPE svg PUBLIC "-//W3C//DTD SVG 1.1//EN" "http://www.w3.org/Graphics/SVG/1.1/DTD/svg11.dtd">
<svg version="1.1" id="Layer_1" xmlns="http://www.w3.org/2000/svg" xmlns:xlink="http://www.w3.org/1999/xlink" x="0px" y="0px"
	 width="463.683px" height="425.749px" viewBox="0 0 463.683 425.749" enable-background="new 0 0 463.683 425.749"
	 xml:space="preserve">
<g>
	<path fill="#BDD6F2" d="M352.158,167.143c4.146,2.638,11.063,2.924,15.449,0.638c4.386-2.285,4.579-6.277,0.434-8.916
		c-4.146-2.639-11.063-2.925-15.449-0.639C348.206,160.512,348.011,164.504,352.158,167.143z"/>
	<g>
		<g>
			<path fill="#6C6B79" d="M354.029,161.464c0,0-0.207,0.105-0.217,0.26c-0.012,0.154-0.017,0.578-0.016,0.678
				c0,0.1,0.263,0.488,0.906,0.638c0.644,0.15,2.208-0.265,2.735-0.572s1.247-1.091,1.466-1.15s0.871,0.061,0.871,0.061l0.589-0.049
				l0.97-0.344c0,0,0.127-0.65-0.139-0.855S354.029,161.464,354.029,161.464z"/>
			<path fill="#C2D2EA" d="M357.677,158.823c0,0-0.767,0.485-0.903,0.623c-0.136,0.137-1.521,0.699-2,0.992
				c-0.479,0.293-0.841,0.793-0.873,0.958c-0.031,0.164-0.104,0.539-0.049,0.696s0.306,0.574,1.135,0.625
				c0.829,0.052,2.516-0.735,2.516-0.735s1.167-0.797,1.34-0.878c0.172-0.081,1.697-0.467,1.929-0.544
				c0.231-0.077,0.365-0.11,0.399-0.296c0.034-0.187,0.229-1.205,0.106-1.526C361.154,158.415,358.354,157.999,357.677,158.823z"/>
		</g>
		<g>
			<path fill="#6C6B79" d="M359.541,164.049c0,0-0.227,0.004-0.28,0.306c-0.055,0.302-0.047,0.661-0.047,0.661
				s0.282,0.432,1.23,0.551c0.949,0.12,2.109-0.231,2.704-0.567c0.596-0.337,0.809-0.611,1.168-1.109s0.729-0.736,0.729-0.736
				l0.151,0.041c0,0,0.851-0.618,0.99-0.833c0.072-0.179,0.126-1.094-0.005-1.177C366.051,161.102,359.541,164.049,359.541,164.049z
				"/>
			<path fill="#C2D2EA" d="M362.142,160.634l-0.264,0.629c0,0-1.55,1.506-1.971,1.955c-0.42,0.449-0.637,0.842-0.655,1.25
				s1.039,0.671,1.198,0.682c0.158,0.011,0.861,0.08,1.762-0.255s1.271-0.658,1.995-1.445c0.723-0.786,1.212-1.219,1.434-1.398
				s0.544-0.466,0.54-0.699c-0.003-0.233,0.033-0.885-0.157-0.966S362.75,160.055,362.142,160.634z"/>
		</g>
		<path fill="#4F5997" d="M361.045,158.239c0,0-0.207,0.386-0.69,0.598c-0.494,0.218-1.272,0.254-2.41-0.484
			c0,0-0.27-14.181-1.057-18.338l3.39,5.98l1.423,0.051l0.002,0.001c0,0,0.587,4.561,0.234,6.955
			C361.583,155.397,361.045,158.239,361.045,158.239z"/>
		<path fill="#4F5997" d="M361.764,145.889c-0.017,0.055-0.037,0.107-0.062,0.158l-0.002-0.001c-0.21,0.444-0.666,0.709-1.19,0.824
			c-1.036,0.23-2.338-0.12-2.563-0.813c-0.015-0.043-0.029-0.094-0.047-0.15c-0.409-1.359-1.279-7.078-1.829-11.329
			c-0.571-4.43,0.534-6.544,0.534-6.544l5.408,0.982c0,0,0.047,2.611,0.064,5.743C362.1,139.049,362.04,145.024,361.764,145.889z"/>
		<path fill="#A8B0C2" d="M361.045,158.239c0,0-0.207,0.386-0.69,0.598c0.364-2.372,0.957-6.426,0.857-7.261
			c-0.064-0.561-0.206-3.306-0.359-4.627c-1.036-8.972-0.913-11.755-0.913-11.755l-1.154-1.76l3.292,1.325
			c0.022,4.29-0.038,10.265-0.313,11.129c-0.017,0.055-0.037,0.107-0.062,0.158c0,0,0.587,4.561,0.234,6.955
			C361.583,155.397,361.045,158.239,361.045,158.239z"/>
		<path fill="#4F5997" d="M358.67,130.846l-0.756,0.886c0,0-0.065,1.093,2.351,2.912c0.016,2.564,0.966,10.762,1.762,12.716
			c0.796,1.953,3.26,0.437,3.677-1.834c0.417-2.27,2.271-9.386,2.43-11.137c0.159-1.751,0.298-3.532-0.915-4.564
			C366.005,128.794,358.67,130.846,358.67,130.846z"/>
		<path fill="#4F5997" d="M362.573,160.313c0.454-1.589,0.104-10.435-0.546-12.953c3.348-1.948,3.775-2.326,3.775-2.326
			s1.221,6.48,1.174,7.766c-0.047,1.286-1.083,7.559-1.083,7.559S364.212,161.963,362.573,160.313z"/>
		<g>
			<path fill="#8C92B0" d="M365.16,161.224l-0.237-0.052c0.012-0.051,1.126-5.114,1.137-7.658c0.008-1.95-0.47-4.36-0.819-6.12
				c-0.162-0.82-0.291-1.468-0.321-1.833c-0.03-0.362,0.222-1.444,0.569-2.942c0.771-3.322,1.938-8.342,1.108-10.143l0.222-0.102
				c0.863,1.877-0.314,6.945-1.094,10.3c-0.33,1.421-0.59,2.543-0.564,2.867c0.03,0.352,0.157,0.994,0.318,1.807
				c0.352,1.77,0.832,4.193,0.824,6.168C366.292,156.085,365.171,161.173,365.16,161.224z"/>
		</g>
	</g>
	<g>
		<path fill="#6A3646" d="M364.723,100.683c0,0,1.21-0.63,1.966,0.027s0.444,3.498-0.324,5.168c-0.691,1.5-0.341,4.157,1.357,4.711
			c-1.191,0.893-3.873-0.099-4.246-1.739C363.104,107.211,364.723,100.683,364.723,100.683z"/>
		
			<linearGradient id="SVGID_1_" gradientUnits="userSpaceOnUse" x1="1449.5552" y1="159.1035" x2="1447.3639" y2="163.609" gradientTransform="matrix(0.9991 0.0431 -0.0431 0.9991 -1083.9056 -105.6812)">
			<stop  offset="0.1224" style="stop-color:#FEC7C7"/>
			<stop  offset="0.9694" style="stop-color:#FFADB7"/>
		</linearGradient>
		<path fill="url(#SVGID_1_)" d="M355.655,115.597c0,0-1.438,3.603-1.563,6.135c-0.125,2.531,1.397,0.893,2.006,0.103
			C356.707,121.045,360.3,112.663,355.655,115.597z"/>
		<path fill="#FFDADA" d="M356.149,120.898c0,0-0.036,0.227-0.239,0.301c-0.202,0.073-0.732-0.236-0.732-0.236
			s0.01-0.815,0.123-0.761c0.112,0.054,0.498,0.39,0.498,0.39S356.221,120.782,356.149,120.898z"/>
		<path fill="#E6F1FF" d="M358.953,109.058l-0.453,0.048c0,0-1.466,0.18-2.088,2.045c-0.37,1.111-0.996,4.027-0.996,4.027
			s0.732,0.927,1.445,1.131C357.574,116.515,358.953,109.058,358.953,109.058z"/>
		<path fill="#DDE8F6" d="M367.438,129.902c-0.14,0.147-0.512,0.347-1.035,0.54c-1.247,0.459-3.356,0.887-5.274,0.532
			c-2.722-0.504-4.422-1.813-4.706-2.872c0.046-0.458-0.002-5.119-0.088-6.194c-0.088-1.075-0.867-3.036-0.88-3.803
			c-0.013-0.765,0.839-2.349,0.979-3.208c0.14-0.856,1.002-4.044,1.204-4.394c0.321-0.557,0.787-1.284,1.425-1.45
			c0.64-0.168,4.367-0.278,5.103,0.009c0.736,0.288,1.403,0.965,2.257,1.419c2.576,1.37,2.824,2.887,2.824,2.887
			s-0.896,2.302-1.17,4.076c-0.068,0.443-0.121,0.821-0.15,1.079c-0.148,1.281-0.101,8.234-0.101,8.234
			S367.916,129.4,367.438,129.902z"/>
		<path fill="#FEBFBF" d="M364.227,108.946c0.137,0.006,0.491,0.529,1.101,0.83c0.609,0.301,0.628,0.383-0.105,1.056
			c-0.734,0.673-3.346,3.676-5.008,3.322s-1.58-1.972-1.515-2.618c0.064-0.647,1.053-2.121,1.373-2.261
			C360.394,109.134,364.227,108.946,364.227,108.946z"/>
		
			<linearGradient id="SVGID_2_" gradientUnits="userSpaceOnUse" x1="1637.6899" y1="143.4258" x2="1634.7129" y2="139.3836" gradientTransform="matrix(0.995 0.1 -0.1 0.995 -1250.9182 -195.8364)">
			<stop  offset="0.1224" style="stop-color:#FEC7C7"/>
			<stop  offset="0.9694" style="stop-color:#FFADB7"/>
		</linearGradient>
		<path fill="url(#SVGID_2_)" d="M359.65,108.713c0,0,0.291,0.683,0.229,1.303s-0.405,1.651-0.405,1.651s0.38,0.732,1.896,0.564
			c1.516-0.168,1.568-0.696,2.049-0.967c0.481-0.272,1.717-1.518,1.64-1.605c-0.078-0.088-1.334-0.714-0.853-2.515
			c0.482-1.801,1.194-2.733,1.194-2.733s0.421-0.757-0.104-0.81C364.769,103.549,359.65,108.713,359.65,108.713z"/>
		
			<linearGradient id="SVGID_3_" gradientUnits="userSpaceOnUse" x1="1632.9292" y1="142.5342" x2="1636.3677" y2="142.5342" gradientTransform="matrix(0.995 0.1 -0.1 0.995 -1250.9182 -195.8364)">
			<stop  offset="0.1224" style="stop-color:#FCA4B5"/>
			<stop  offset="0.9896" style="stop-color:#FFADB7"/>
		</linearGradient>
		<path fill="url(#SVGID_3_)" d="M363.193,107.852c0,0-1.293,1.207-1.566,1.82c-0.273,0.612-1.529,1.446-1.529,1.446l-0.211-1.358
			l-0.236-1.046L363.193,107.852z"/>
		<path fill="#DDE8F6" d="M367.438,129.902c-0.14,0.147-0.512,0.347-1.035,0.54c0.022-0.134,0.05-0.281,0.083-0.44
			c0.836-4.075,0.586-3.367,0.469-5.017c-0.12-1.651-0.605-3.173-1.164-3.093s-1.275,0.128-2.156-0.296
			c0.719,0.273,1.618,0.178,2.211-0.247c0.593-0.424,0.369-3.673,0.369-3.673c0.751-0.347,1.364-0.396,1.861-0.231
			c-0.068,0.443-0.121,0.821-0.15,1.079c-0.148,1.281-0.101,8.234-0.101,8.234S367.916,129.4,367.438,129.902z"/>
		<g>
			<g>
				<path fill="#627847" d="M354.573,123.946c-0.646,0.251-1.676,0.206-2.301-0.103c-0.626-0.308-0.609-0.761,0.036-1.012
					s1.676-0.206,2.301,0.103C355.234,123.241,355.218,123.694,354.573,123.946z"/>
				<polygon fill="#627847" points="355.507,119.01 355.067,123.458 351.814,123.318 351.757,118.848 				"/>
				<path fill="#B09064" d="M354.731,122.054c-0.672-0.315-1.777-0.364-2.469-0.11c-0.692,0.254-0.709,0.716-0.037,1.031
					c0.672,0.314,1.777,0.364,2.469,0.109C355.386,122.831,355.403,122.369,354.731,122.054z"/>
				<polygon fill="#B09064" points="355.224,122.6 355.493,120.205 351.67,120.027 351.732,122.439 				"/>
				<path fill="#DEC7A7" d="M354.954,119.611c-0.736-0.331-1.946-0.385-2.704-0.12s-0.774,0.748-0.038,1.08
					c0.736,0.331,1.947,0.385,2.704,0.12C355.673,120.426,355.69,119.942,354.954,119.611z"/>
				<path fill="#627847" d="M354.894,119.377c-0.697-0.343-1.846-0.395-2.564-0.114c-0.72,0.28-0.738,0.786-0.041,1.129
					s1.846,0.395,2.565,0.114S355.591,119.721,354.894,119.377z"/>
				<path fill="#FEBFBF" d="M351.8,120.7c0,0,0.118-0.29,0.049-0.439c-0.068-0.149-0.095-0.309-0.095-0.309l0.002-0.245l0.092-0.169
					c0,0-0.407,0.009-0.465,0.207s-0.125,0.706-0.125,0.706l0.272,0.28c0,0-0.275,0.058-0.323,0.168
					c-0.048,0.11-0.131,0.444-0.093,0.5c0.039,0.055,0.355,0.323,0.355,0.323s-0.176,0.131-0.186,0.219
					c-0.01,0.087,0.014,0.295,0.038,0.378c0.025,0.083,0.458,0.346,0.458,0.346s-0.097,0.149-0.111,0.281
					c-0.016,0.132,0.017,0.242,0.114,0.325c0.098,0.082,0.724,0.287,0.828,0.308s0.101-0.255,0.044-0.386
					c-0.057-0.131-0.586-0.245-0.586-0.245l0.002-0.258c0,0,0.405,0.042,0.47-0.136c0.064-0.177-0.091-0.373-0.15-0.397
					c-0.06-0.024-0.541-0.177-0.541-0.177l-0.105-0.092c0,0,0.385,0.061,0.483,0.055c0.099-0.007,0.19-0.184,0.177-0.301
					s-0.137-0.28-0.281-0.343s-0.342-0.279-0.342-0.279L351.8,120.7z"/>
				<polygon fill="#627847" points="355.39,120.127 355.448,119.741 355.113,119.793 351.789,119.604 351.774,119.925 				"/>
				<path fill="#A19797" d="M355.016,120.041c-0.743,0.29-1.931,0.236-2.651-0.118c-0.721-0.355-0.702-0.877,0.042-1.167
					s1.931-0.237,2.651,0.118S355.76,119.751,355.016,120.041z"/>
				<path fill="#C7BEBE" d="M355.68,118.947l-0.31-0.014c-0.079-0.062-0.174-0.121-0.287-0.177
					c-0.785-0.387-2.079-0.445-2.891-0.129c-0.119,0.047-0.22,0.1-0.306,0.156l-0.294-0.013l-0.021,0.456c0,0.007,0,0.014,0,0.021
					l-0.001,0.01h0.001c0.003,0.224,0.193,0.455,0.574,0.643c0.786,0.387,2.08,0.445,2.891,0.129
					c0.398-0.155,0.605-0.372,0.62-0.598h0.001L355.68,118.947z"/>
				<path fill="#E2D9D9" d="M355.103,118.319c-0.786-0.387-2.08-0.444-2.891-0.129c-0.812,0.315-0.832,0.885-0.046,1.272
					c0.785,0.387,2.079,0.444,2.891,0.128C355.868,119.275,355.888,118.706,355.103,118.319z"/>
				<path fill="#C7BEBE" d="M355.388,118.92c0-0.004,0-0.008,0-0.013l0.014-0.313l-0.16-0.007c-0.082-0.085-0.195-0.167-0.346-0.241
					c-0.674-0.332-1.783-0.382-2.479-0.111c-0.158,0.062-0.279,0.134-0.367,0.214l-0.152-0.007l-0.014,0.314v0.001v0.002l0,0
					c-0.006,0.196,0.158,0.4,0.494,0.565c0.673,0.332,1.782,0.381,2.478,0.11c0.342-0.133,0.519-0.318,0.532-0.513l0,0V118.92z"/>
				<path fill="#E1D8D8" d="M354.912,117.968c-0.674-0.332-1.783-0.381-2.478-0.11c-0.695,0.271-0.713,0.759-0.04,1.09
					c0.674,0.332,1.783,0.381,2.479,0.111C355.568,118.787,355.585,118.299,354.912,117.968z"/>
				<path fill="#C7BEBE" d="M355.081,118.599L355.081,118.599c-0.102,0.02-0.207-0.027-0.235-0.104l-0.012-0.031
					c-0.028-0.078,0.031-0.157,0.132-0.177l0,0c0.102-0.02,0.206,0.027,0.235,0.104l0.012,0.031
					C355.24,118.5,355.181,118.579,355.081,118.599z"/>
			</g>
		</g>
		<g>
			<path fill="#FEBFBF" d="M367.637,113.727c0,0-1.036,0.096-1.22,1.93c-0.185,1.834,0.907,9.826,1.597,10.606
				c0.688,0.78,1.734,0.281,2.032-1.449c0.299-1.729,0.215-6.732,0.187-7.339C370.206,116.869,369.988,112.75,367.637,113.727z"/>
			<path fill="#FEBFBF" d="M368.209,125.234c0,0-0.351,0.303-0.627,1.554c-0.277,1.252-0.85,7.308-1.321,7.936
				c-0.473,0.628-1.012,1.134-1.012,1.134s-0.536,0.915-0.564,1.196c-0.028,0.281-0.249,0.881-0.361,1.03
				c-0.113,0.149-0.497,0.706-0.466,0.833s0.405,0.209,0.563,0.057c0.157-0.153,0.613-1.245,0.767-1.442s0.321-0.261,0.321-0.261
				s0.161,0.763,0.106,0.953c-0.055,0.189-0.58,1.443-0.58,1.443s-0.514,0.774-0.529,0.844c-0.016,0.069,0.271,0.125,0.418-0.002
				c0.146-0.127,0.111,0.126,0.403,0.049c0.293-0.077,1.08-0.753,1.08-0.753l0.124-0.174l0.58-0.111c0,0,0.831-1.374,0.887-1.75
				c0.056-0.376,0.332-3.299,0.332-3.299s2.533-7.104,1.571-9.065C369.462,124.792,368.209,125.234,368.209,125.234z"/>
			<path fill="#FEBFBF" d="M366.465,138.528c0,0-0.502,1.083-0.613,1.192c-0.11,0.109-0.928,0.789-0.928,0.789l0.187,0.019
				c0,0,0.372-0.385,0.466-0.455s0.417-0.371,0.417-0.371l0.448-0.941L366.465,138.528z"/>
			<path fill="#FEBFBF" d="M367.138,138.596l-0.473,0.919l-0.134,0.116l0.131-0.025c0,0,0.194-0.198,0.249-0.352
				C366.967,139.099,367.138,138.596,367.138,138.596z"/>
			<path fill="#E6F1FF" d="M367.775,112.774c0,0-0.938,0.186-1.402,1.485s0.028,4.628,0.028,4.628s1.36-0.143,2.758-0.522
				c1.398-0.379,1.527-1.004,1.527-1.004s-0.734-3.035-0.981-3.5C369.458,113.396,369.426,112.26,367.775,112.774z"/>
		</g>
	</g>
	<g>
		<path fill="#FEC7C7" d="M359.292,100.333c0,0-0.551,0.438-0.91,1.362c-0.359,0.923-0.612,1.711-0.588,1.873
			c0.023,0.163,0.162,0.51-0.051,1.168c-0.213,0.658,0.456,3.951,1.17,4.276c0.713,0.325,4.011-0.784,4.378-1.253
			c0.366-0.47,1.305-2.375,1.42-3.656c0.115-1.282,0.492-2.776-1.362-3.549C361.494,99.78,359.292,100.333,359.292,100.333z"/>
		<g>
			
				<linearGradient id="SVGID_4_" gradientUnits="userSpaceOnUse" x1="1631.645" y1="138.5273" x2="1631.0354" y2="138.5968" gradientTransform="matrix(0.995 0.1 -0.1 0.995 -1250.9182 -195.8364)">
				<stop  offset="0.1224" style="stop-color:#FEC7C7"/>
				<stop  offset="0.9896" style="stop-color:#FFDBDB"/>
			</linearGradient>
			<path fill="url(#SVGID_4_)" d="M358.865,103.919c0.07,0.363-0.869,1.846-0.912,2.177c-0.042,0.331,0.889,0.309,0.889,0.309
				L358.865,103.919z"/>
			
				<linearGradient id="SVGID_5_" gradientUnits="userSpaceOnUse" x1="1630.9292" y1="138.54" x2="1631.9009" y2="138.54" gradientTransform="matrix(0.995 0.1 -0.1 0.995 -1250.9182 -195.8364)">
				<stop  offset="0.188" style="stop-color:#FFDCDC"/>
				<stop  offset="0.8991" style="stop-color:#FEC7C7"/>
			</linearGradient>
			<path fill="url(#SVGID_5_)" d="M358.663,106.452c-0.22-0.01-0.572-0.048-0.705-0.195c-0.043-0.048-0.062-0.105-0.054-0.167
				c0.019-0.146,0.188-0.476,0.384-0.859c0.253-0.493,0.567-1.106,0.529-1.302l0.097-0.019c0.044,0.229-0.252,0.807-0.538,1.366
				c-0.184,0.359-0.357,0.698-0.373,0.827c-0.005,0.033,0.004,0.062,0.028,0.088c0.134,0.147,0.631,0.169,0.811,0.165l0.002,0.098
				C358.823,106.455,358.753,106.456,358.663,106.452z"/>
		</g>
		<g>
			<path fill="#754554" d="M361.572,104.268l-0.408-0.137c-0.987-0.229-1.497-0.115-1.502-0.114l-0.038-0.159
				c0.021-0.005,0.546-0.125,1.585,0.115l0.416,0.14L361.572,104.268z"/>
		</g>
		<g>
			<path fill="#754554" d="M358.586,103.707c-0.229-0.158-0.614-0.367-0.733-0.342l-0.034-0.16c0.236-0.048,0.759,0.297,0.86,0.367
				L358.586,103.707z"/>
		</g>
		
			<ellipse transform="matrix(0.9602 0.2793 -0.2793 0.9602 43.5874 -96.5269)" fill="#FFFFFF" cx="360.527" cy="104.694" rx="0.345" ry="0.295"/>
		
			<ellipse transform="matrix(0.7 -0.7141 0.7141 0.7 33.0419 287.2021)" fill="#FFFFFF" cx="358.367" cy="104.272" rx="0.242" ry="0.278"/>
		<path fill="#FB7F9E" d="M359.897,107.578c0,0-0.946-0.329-1.328-0.38c-0.382-0.052-0.408,0.079-0.381,0.208
			S358.807,108.475,359.897,107.578z"/>
		<path fill="#754554" d="M365.182,104.595c0,0-0.301-0.39-0.527-0.258c-0.227,0.131-0.651,0.308-0.669,0.486
			s-0.181,1.142-0.181,1.142s-0.408-0.715-0.337-1.427c0.071-0.713-0.148-1.708-0.438-2.15c-0.288-0.442-0.58-1.125-1.262-1.233
			c-0.683-0.108-1.629,0.023-2.185-0.019s-0.782-0.241-0.782-0.241l-0.501,1.01c0,0,0.03-0.505,0.341-1.068
			c0.31-0.564,2.567-3.137,5.733-1.353c2.326,1.127,2.174,3.711,1.813,4.648c-0.36,0.937-1.456,1.768-1.568,2.055
			c-0.111,0.287-0.413,0.691-0.414,0.958c0,0.267,0.132-1,0.356-1.537C364.788,105.07,365.182,104.595,365.182,104.595z"/>
		
			<linearGradient id="SVGID_6_" gradientUnits="userSpaceOnUse" x1="1636.8179" y1="138.3218" x2="1638.3999" y2="138.3218" gradientTransform="matrix(0.995 0.1 -0.1 0.995 -1250.9182 -195.8364)">
			<stop  offset="0.1224" style="stop-color:#FEB9B8"/>
			<stop  offset="1" style="stop-color:#FFDEDE"/>
		</linearGradient>
		<path fill="url(#SVGID_6_)" d="M364.334,104.805c0,0,0.815-0.817,1.11-0.175c0.296,0.643-0.357,1.37-0.779,1.721
			s-0.731,0.447-0.852,0.255c-0.121-0.192,0.196-0.894,0.196-0.894L364.334,104.805z"/>
		<circle fill="#EFF0F5" cx="363.947" cy="106.569" r="0.165"/>
		
			<linearGradient id="SVGID_7_" gradientUnits="userSpaceOnUse" x1="1637.0728" y1="138.2148" x2="1638.1694" y2="138.2148" gradientTransform="matrix(0.995 0.1 -0.1 0.995 -1250.9182 -195.8364)">
			<stop  offset="0.1224" style="stop-color:#FCA4B5"/>
			<stop  offset="0.9896" style="stop-color:#FFADB7"/>
		</linearGradient>
		<path fill="url(#SVGID_7_)" d="M364.453,104.816c0,0,0.521-0.467,0.737-0.105c0.218,0.361,0.033,0.996-0.517,1.527
			c-0.529,0.193-0.606-0.034-0.6-0.1s0.209-0.359,0.235-0.62S364.453,104.816,364.453,104.816z"/>
	</g>
</g>
</svg>
