<?xml version="1.0" encoding="utf-8"?>
<!-- Generator: Adobe Illustrator 16.0.0, SVG Export Plug-In . SVG Version: 6.00 Build 0)  -->
<!DOCTYPE svg PUBLIC "-//W3C//DTD SVG 1.1//EN" "http://www.w3.org/Graphics/SVG/1.1/DTD/svg11.dtd">
<svg version="1.1" id="Layer_1" xmlns="http://www.w3.org/2000/svg" xmlns:xlink="http://www.w3.org/1999/xlink" x="0px" y="0px"
	 width="463.683px" height="425.749px" viewBox="0 0 463.683 425.749" enable-background="new 0 0 463.683 425.749"
	 xml:space="preserve">
<g>
	<path fill="#656565" d="M132.701,31.323c0,0,0.271-0.521,0.742-0.61c0.47-0.09,7.904-0.275,8.217,0.006
		c0.313,0.281,0.506,0.629,0.507,1.113c0.001,0.484-3.922,0.511-3.922,0.511L132.701,31.323z"/>
	<g>
		<path fill="#D7E4F2" d="M130.251,97.314c4.489-2.856,11.977-3.166,16.725-0.691c4.748,2.475,4.958,6.797,0.469,9.653
			s-11.977,3.166-16.724,0.691C125.972,104.493,125.762,100.171,130.251,97.314z"/>
		<g>
			<path fill="#FEBFBF" d="M141.239,56.997c0.353,1.988,3.669,11.486,4.073,12.778c0.027,0.084,0.041,0.126,0.041,0.126
				s0.315,0.083,0.476-0.033c0.161-0.116,0.32-1.212,0.32-1.212l0.015,0.509c0,0.002,0,0.002,0,0.004l0.003,0.14
				c0,0.008,0.001,0.019,0.004,0.027c0,0.006,0.003,0.012,0.003,0.019c0.021,0.084,0.093,0.249,0.326,0.232
				c0.04-0.003,0.078-0.022,0.113-0.056c0.006-0.005,0.012-0.012,0.018-0.018c0.25-0.258,0.436-1.114,0.483-1.25
				c0.054-0.16,0.046-1.192,0.046-1.192l0.018,0.018c0.047,0.049,0.178,0.18,0.31,0.277v0.002c0.11,0.082,0.223,0.143,0.291,0.117
				c0.165-0.063-0.046-0.663-0.046-0.663s-0.32-1.01-0.407-1.33c-0.089-0.32-0.562-1.488-0.951-2.192
				c-0.227-1.029-1.524-10.057-1.524-10.057s0.209-9.656-0.957-11.77c-1.166-2.112-3.322-1.175-3.322-1.175
				S140.862,54.881,141.239,56.997z"/>
			<path fill="#E6F1FF" d="M140.167,39.167c0,0,2.478-0.372,3.565,0.832c1.088,1.205,1.262,2.999,1.229,5.131
				s0.123,7.037,0.186,8.042c0.064,1.004,1.253,8.969,1.253,8.969s-1.186,0.994-2.435,0.526
				C142.717,62.199,140.167,39.167,140.167,39.167z"/>
			<path fill="#FEBFBF" d="M147.488,67.365l-0.31-0.277C147.226,67.137,147.356,67.268,147.488,67.365z"/>
			<path fill="#FEBFBF" d="M147.008,68.358c0.033,0.169-0.285,1.031-0.377,1.155c0.25-0.258,0.436-1.114,0.483-1.25
				c0.054-0.16,0.046-1.192,0.046-1.192s-0.336-0.825-0.468-0.973s-0.71-0.942-0.71-0.942s0.263,0.761,0.325,0.907
				c0.063,0.146,0.427,0.52,0.521,0.73c0.092,0.213,0.232,0.481,0.232,0.481S146.973,68.187,147.008,68.358z"/>
			<path fill="#FEBFBF" d="M145.312,69.775c0.027,0.084,0.041,0.126,0.041,0.126s0.315,0.083,0.476-0.033
				c0.161-0.116,0.32-1.212,0.32-1.212l0.015,0.509c0.03-0.255,0.275-1.465,0.275-1.465l-0.094-0.951l-0.17,0.282
				c0,0-0.019,0.864-0.015,0.916s-0.315,1.467-0.315,1.467S145.761,69.802,145.312,69.775z"/>
		</g>
		<g>
			<path fill="#626170" d="M147.232,100.401c0,0,0.271,0.138,0.285,0.339s0.021,0.756,0.02,0.887
				c-0.001,0.131-0.344,0.639-1.186,0.834s-2.888-0.346-3.578-0.749c-0.69-0.402-1.63-1.427-1.917-1.505
				c-0.225-0.061-0.798,0.023-1.035,0.062c-0.073,0.012-0.145,0.014-0.219,0.008l-0.541-0.045c-0.077-0.006-0.153-0.023-0.226-0.049
				l-1.158-0.411c0,0-0.166-0.85,0.182-1.118C138.208,98.387,147.232,100.401,147.232,100.401z"/>
			<path fill="#504F60" d="M142.461,96.947c0,0,1.003,0.635,1.181,0.814c0.178,0.179,1.989,0.914,2.617,1.297
				c0.627,0.383,1.1,1.038,1.142,1.252c0.041,0.214,0.136,0.705,0.064,0.91c-0.073,0.206-0.4,0.751-1.484,0.818
				c-0.97,0.061-2.839-0.758-3.221-0.931c-0.047-0.021-0.089-0.045-0.131-0.074c-0.289-0.196-1.493-1.013-1.69-1.106
				c-0.226-0.106-2.22-0.611-2.523-0.711s-0.643-0.138-0.688-0.382c-0.044-0.243-0.136-1.581,0.025-2.001
				C137.913,96.413,141.576,95.869,142.461,96.947z"/>
			<path fill="#CCDEFB" d="M137.733,97.127c0.104,0.331,0.488,0.565,1.774,0.633c0.148,0.006,0.297,0.013,0.445,0.013
				c0.922,0.03,1.773-0.04,2.703-0.446c0.326-0.143,0.545-0.466,0.549-0.821c0.037-3.583,1.543-18.37,1.993-27.563
				c0.284-5.813-0.977-8.767-0.977-8.767l-6.209-0.357l-0.228,15.337l0.002,8.872C137.787,84.027,137.635,96.796,137.733,97.127z"/>
			<g>
				<path fill="#ACBBD4" d="M139.495,97.783c0.005-0.103,0.459-10.298,0.618-12.442c0.16-2.15,0.29-14.343,0.292-14.466
					l-0.239-0.002c-0.001,0.123-0.132,12.309-0.291,14.451c-0.159,2.147-0.614,12.347-0.618,12.45L139.495,97.783z"/>
			</g>
			<path fill="#DBDEE5" d="M137.733,97.127c0.068,0.216,0.255,0.391,0.734,0.505c0.579,0.093,0.909,0.146,1.485,0.141l1.161-26.57
				c0,0,1.625-1.765,1.346-2.862c-0.124-0.472-4.54,6.209-4.54,6.209l-0.135,0.605l0.002,8.872
				C137.787,84.027,137.635,96.796,137.733,97.127z"/>
			<path fill="#626170" d="M139.819,103.68c0,0,0.297,0.005,0.368,0.401c0.023,0.13,0.038,0.269,0.047,0.396
				c0.024,0.341-0.138,0.672-0.436,0.839c-0.252,0.142-0.626,0.287-1.164,0.354c-1.243,0.156-2.765-0.303-3.544-0.744
				c-0.78-0.441-1.06-0.801-1.53-1.454c-0.47-0.653-0.956-0.965-0.956-0.965l-0.199,0.053c0,0-0.696-0.505-1.079-0.856
				c-0.154-0.141-0.254-0.33-0.279-0.538c-0.054-0.439-0.064-1.157,0.067-1.24C131.286,99.817,139.819,103.68,139.819,103.68z"/>
			<path fill="#504F60" d="M136.521,99.471l0.162,0.388c0.047,0.112,0.115,0.212,0.202,0.297c0.458,0.445,1.986,1.937,2.453,2.435
				c0.551,0.589,0.835,1.104,0.859,1.638s-1.362,0.879-1.57,0.894c-0.208,0.014-1.129,0.105-2.31-0.335
				c-1.18-0.439-1.667-0.862-2.614-1.894c-0.948-1.03-1.588-1.598-1.879-1.833c-0.291-0.235-0.713-0.61-0.708-0.916
				s-0.043-1.161,0.207-1.267c0.225-0.096,3.53-0.371,4.763,0.131C136.288,99.091,136.437,99.269,136.521,99.471z"/>
			<path fill="#CCDEFB" d="M141.833,62.648c0,0,0.588,2.549,0.824,4.979c0.21,2.168-2.088,2.938-2.088,2.938
				s-1.479,10.358-2.004,12.909c-0.466,2.262-1.765,12.866-2.057,15.189c-0.038,0.306-0.227,0.566-0.506,0.696
				c-0.835,0.391-2.687,1.057-4.221,0.193c-0.271-0.152-0.441-0.442-0.451-0.753c-0.24-7.176,0.954-15.744,1.031-16.859
				c0.003-0.043,0.004-0.078,0.002-0.121c-0.104-2.1-1.225-9.415-1.599-14.345c-0.328-1.938,0.24-5.011,0.24-5.011L141.833,62.648z"
				/>
			<g>
				<path fill="#8C92B0" d="M141.191,68.988c-0.102-0.063-0.217-0.213-0.195-0.563c0.096-1.491-0.136-3.843-0.223-4.033l0.089-0.063
					l0.001-0.004l0.001,0.002l-0.061-0.106l0.069-0.035l0.06,0.038c0.205,0.128,0.381,2.983,0.302,4.216
					c-0.011,0.176,0.02,0.306,0.083,0.346c0.044,0.027,0.114,0.015,0.194-0.029c0.276-0.154,0.683-0.727,0.672-1.672
					c-0.005-0.551-0.13-2.647-0.165-2.87l0.236-0.036c0.04,0.26,0.162,2.376,0.167,2.903c0.011,0.982-0.405,1.665-0.795,1.884
					c-0.082,0.046-0.162,0.07-0.237,0.073C141.319,69.043,141.25,69.026,141.191,68.988z M140.922,64.43l-0.056-0.099L140.922,64.43
					z"/>
			</g>
			<g>
				<path fill="#ACBBD4" d="M132.212,100.036l0.239-0.012c-0.287-5.803,0.344-11.956,0.721-15.631
					c0.146-1.423,0.251-2.45,0.24-2.882c-0.024-0.946-0.353-4.162-0.67-7.271c-0.184-1.805-0.358-3.51-0.455-4.599
					c-0.256-2.883-0.031-4.608-0.029-4.625l-0.237-0.032c-0.002,0.017-0.23,1.767,0.027,4.678c0.097,1.091,0.271,2.797,0.455,4.603
					c0.303,2.96,0.645,6.316,0.669,7.253c0.011,0.417-0.094,1.438-0.239,2.852C132.557,88.051,131.925,94.215,132.212,100.036z"/>
			</g>
			<g>
				<path fill="#8C92B0" d="M135.28,69.217c1.37-0.059,2.417-0.425,3.119-1.093c0.913-0.867,0.889-1.917,0.887-1.96l-0.239,0.008
					c0,0.01,0.02,0.992-0.817,1.783c-0.873,0.826-2.327,1.159-4.32,0.989l-0.02,0.238C134.385,69.224,134.848,69.236,135.28,69.217z
					"/>
			</g>
			<path fill="#A76478" d="M130.706,64.88c0,0,2.285,0.973,5.87,0.693c3.586-0.28,4.937-0.767,6.123-1.5
				c1.185-0.733,1.902-1.656,1.902-1.656l-0.249-1.38c0,0-0.658,1.155-2.35,1.966c-1.691,0.811-5.359,1.155-6.854,1.231
				s-4.332-0.443-4.332-0.443L130.706,64.88z"/>
			<path fill="#4F5997" d="M138.32,64.005c0,0,0.105,0.394,0.129,0.862c0.024,0.468,0.024,1.331,0.024,1.331l0.541-0.098
				c0,0,0.081-0.834,0.052-1.25s-0.165-0.99-0.165-0.99L138.32,64.005z"/>
			<path fill="#4F5997" d="M133.125,64.125c0,0-0.089,0.397-0.093,0.867c-0.004,0.469,0.032,1.331,0.032,1.331l-0.545-0.075
				c0,0-0.116-0.829-0.104-1.246s0.123-0.996,0.123-0.996L133.125,64.125z"/>
			<path fill="#4F5997" d="M143.276,62.162c0,0,0.142,0.487,0.17,0.886c0.028,0.398-0.032,1.082-0.032,1.082l0.355-0.453
				c0,0,0.042-0.691,0.027-0.907c-0.015-0.216-0.229-0.846-0.229-0.846L143.276,62.162z"/>
			<g>
				<path fill="#8C92B0" d="M145.039,64.382c0.037-0.002,0.075-0.009,0.114-0.021l-0.076-0.227c-0.306,0.107-0.677-0.639-0.814-1.01
					l-0.224,0.083C144.087,63.336,144.499,64.405,145.039,64.382z"/>
			</g>
			<g>
				<path fill="#CCDEFB" d="M140.549,65.073c-0.148-0.103-0.233-0.272-0.239-0.477l-0.011-0.4c-0.012-0.42,0.314-0.873,0.743-1.032
					l1.006-0.372c0.234-0.087,0.463-0.07,0.63,0.047c0.148,0.103,0.233,0.272,0.239,0.477l0.011,0.4
					c0.012,0.419-0.314,0.873-0.743,1.031l-1.006,0.372c-0.064,0.024-0.128,0.04-0.191,0.048
					C140.824,65.19,140.67,65.158,140.549,65.073z M142.142,63.229l-1.006,0.372c-0.222,0.082-0.412,0.327-0.406,0.523l0.012,0.4
					c0.002,0.067,0.026,0.118,0.072,0.149c0.065,0.045,0.165,0.048,0.272,0.009l1.006-0.372c0.222-0.083,0.412-0.327,0.406-0.524
					l-0.012-0.4c-0.002-0.068-0.026-0.118-0.072-0.15c-0.044-0.031-0.105-0.042-0.174-0.033
					C142.208,63.208,142.175,63.217,142.142,63.229z"/>
			</g>
		</g>
		<path fill="#DDE8F6" d="M129.592,51.334c0.077,0.531,0.148,1.043,0.198,1.506c0.269,2.493,1.185,10.839,1.185,10.839
			c0,0.004,0.021,0.153,1.207,0.274c0.394,0.042,1.053,0.052,1.85,0.035c1.651-0.034,3.894-0.183,5.567-0.424
			c2.483-0.356,5.021-2.293,4.913-2.934c-0.11-0.639-0.277-2.747,0.072-6.716c0.349-3.971,0.241-10.067-0.631-12.072
			c-0.872-2.001-1.414-2.277-3.078-2.526c-1.665-0.249-4.954-0.214-5.589,0.04c-0.636,0.253-3.583,2.178-4.541,3.056
			c-0.957,0.878-1.624,2.044-1.624,2.044C128.703,45.192,129.25,48.988,129.592,51.334z"/>
		<path fill="#DDE8F6" d="M140.278,40.147c2.694,1.25,0.932,0.527-0.043,1.294c-0.975,0.768-1.721,0.943-2.635,0.879
			c-1.953-0.136-1.365,0.583-1.854,0.591c-1.213,0.018-2.307-0.563-2.845-0.591c-0.539-0.028-1.849-0.13-2.629,0.573
			c0.473-0.48,0.473-0.48,0.473-0.48l1.277-1.159C132.022,41.254,138.316,39.237,140.278,40.147z"/>
		<path fill="#E6F1FF" d="M141.686,31.329c0,0,0.698,4.739,0.344,6.697c-0.43,2.082-0.224,2.489-0.359,2.777
			c-0.135,0.288-2.149-1.156-3.371-0.586c-1.222,0.57,2.397-8.288,2.397-8.288L141.686,31.329z"/>
		<path fill="#DDE8F6" d="M126.932,91.889c0.283,0.433,0.832,1.06,1.663,1.636c1.197,0.851,2.957,1.6,5.285,1.5
			c3.931-0.17,4.23-0.105,7.556-1.454s3.485-3.334,3.485-3.334s0.347-5.854,0.772-14.362c0.419-8.5-0.134-12.814-0.792-16.562
			c-0.658-3.756-0.319-14.714-0.319-14.714l-14.587,7.751c0,0-0.089,4.2-0.129,9.261c-0.026,3.43-0.022,7.251,0.044,10.42
			C130.093,79.88,128.18,88.555,126.932,91.889z"/>
		<path fill="#DDE8F6" d="M129.91,72.031c-0.066-3.169-0.07-6.99-0.044-10.42c0.271-0.617,0.515-1.093,0.729-1.406
			c-0.285-2.599-0.65-5.939-0.804-7.365c-0.049-0.463-0.121-0.975-0.197-1.506l3.998-2.187c0,0-0.306,8.188-0.509,9.248
			c-0.169,0.867,0.568,4.829,0.568,4.83c0.102,0.925,1.655,9.842,1.655,9.842s-0.833,1.312-1.454,1.552
			c-0.622,0.24-1.734,1.951-1.613,2.802c0.121,0.858-0.806,8.201-1.737,11.413c-0.472,1.625-1.149,3.401-1.905,4.69
			c-0.831-0.577-1.38-1.204-1.663-1.636C128.18,88.555,130.093,79.88,129.91,72.031z"/>
		<path fill="#E6F1FF" d="M131.25,43.589c0,0,2.739,0.443,2.225,5.026c-0.515,4.582-1.479,11.198-1.656,11.655
			c-0.177,0.457-3.01,1.788-3.317,0.015c-0.307-1.772-0.382-7.024-0.406-8.852c-0.023-1.827,0.586-6.097,1.143-6.972
			C129.743,43.667,130.576,43.327,131.25,43.589z"/>
		<path fill="#FEBFBF" d="M131.552,58.329c0,0,0.527-0.323,0.64,0.178c0.113,0.501,0.333,9.969,0.413,10.355
			c0.079,0.387,0.824,1.196,1.007,1.323c0.183,0.126,0.994,1.01,1.119,1.297s0.577,1.645,0.73,1.96s0.749,0.81,0.591,1.173
			c-0.157,0.364-0.806-0.126-1.102-0.432c-0.295-0.306-0.796-1.485-1.081-1.818c-0.027,0.354-0.082,1.521-0.066,2.029
			c0.011,0.36,0.844,2.162,0.673,2.33c-0.084,0.083-0.319,0.101-0.529-0.093c-0.209-0.194-0.86-1.272-0.86-1.272
			s0.417,1.277,0.419,1.499s-0.238,0.33-0.52,0.037c-0.282-0.294-0.361-0.498-0.361-0.498s-0.333,0.285-0.491,0.074
			c-0.159-0.211-0.688-0.971-0.738-1.268c-0.051-0.297-0.182-0.679-0.182-0.679s-0.273-0.234-0.449-0.744
			c-0.175-0.51-0.507-1.515-0.537-2.191c-0.03-0.677-0.169-2.413-0.402-3.745c-0.233-1.331-1.926-8.079-1.502-9.369
			C129.241,58.526,131.552,58.329,131.552,58.329z"/>
		<g>
			
				<linearGradient id="SVGID_1_" gradientUnits="userSpaceOnUse" x1="3801.2808" y1="-77.75" x2="3799.1877" y2="-81.9963" gradientTransform="matrix(-0.9975 0.07 0.07 0.9975 3933.3735 -147.2732)">
				<stop  offset="0.1224" style="stop-color:#FEC7C7"/>
				<stop  offset="0.9694" style="stop-color:#FFADB7"/>
			</linearGradient>
			<path fill="url(#SVGID_1_)" d="M139.656,39.113c0,0-0.163,1.469,0.167,2.396c-1.248,0.927-2.571,0.609-3.823,0.03
				s-1.734-1.12-1.792-1.321c-0.059-0.201,0.681-0.315,0.864-1.682c0.184-1.367,0.104-2.29,0.016-3.248
				c-0.087-0.957,0.562-1.798,0.562-1.798L139.656,39.113z"/>
			
				<linearGradient id="SVGID_2_" gradientUnits="userSpaceOnUse" x1="3797.439" y1="-79.8447" x2="3800.5796" y2="-79.8447" gradientTransform="matrix(-0.9975 0.07 0.07 0.9975 3933.3735 -147.2732)">
				<stop  offset="0.1224" style="stop-color:#FCA4B5"/>
				<stop  offset="0.9896" style="stop-color:#FFADB7"/>
			</linearGradient>
			<path fill="url(#SVGID_2_)" d="M136.611,37.767c0,0,0.86,1.896,1.188,2.202c0.328,0.306,1.408,0.497,1.691,0.207
				c0.283-0.29,0.311-1.81,0.311-1.81L136.611,37.767z"/>
			<path fill="#FEC7C7" d="M136.726,38.129c0.293,0.828,3.486,2.414,4.438,1.601c0.486-0.416,0.68-1.683,0.758-2.928
				c0.077-1.196,0.048-2.375,0.072-2.772c0.049-0.808-0.507-2.503-0.507-2.503l-4.752,0.255c0,0-1.115,1.06-0.974,2.112
				c0.027,0.197,0.068,0.439,0.116,0.708C136.093,35.772,136.49,37.458,136.726,38.129z"/>
			<g>
				
					<linearGradient id="SVGID_3_" gradientUnits="userSpaceOnUse" x1="3796.23" y1="-83.3511" x2="3795.1387" y2="-83.0328" gradientTransform="matrix(-0.9975 0.07 0.07 0.9975 3933.3735 -147.2732)">
					<stop  offset="0.1224" style="stop-color:#FEC7C7"/>
					<stop  offset="0.9896" style="stop-color:#FFDBDB"/>
				</linearGradient>
				<path fill="url(#SVGID_3_)" d="M141.016,33.839c-0.074,0.511,0.836,1.938,0.935,2.424c0.099,0.487-1.455,0.518-1.455,0.518
					L141.016,33.839z"/>
				
					<linearGradient id="SVGID_4_" gradientUnits="userSpaceOnUse" x1="3795.0972" y1="-83.3418" x2="3796.6382" y2="-83.3418" gradientTransform="matrix(-0.9975 0.07 0.07 0.9975 3933.3735 -147.2732)">
					<stop  offset="0.188" style="stop-color:#FFDCDC"/>
					<stop  offset="0.8991" style="stop-color:#FEC7C7"/>
				</linearGradient>
				<path fill="url(#SVGID_4_)" d="M140.574,36.827c0.268-0.012,1.14-0.071,1.37-0.357c0.052-0.065,0.07-0.137,0.055-0.216
					c-0.04-0.199-0.203-0.532-0.392-0.918c-0.274-0.561-0.585-1.196-0.542-1.49l-0.095-0.014c-0.047,0.323,0.271,0.973,0.551,1.546
					c0.178,0.364,0.346,0.708,0.384,0.895c0.01,0.05-0.002,0.094-0.035,0.137c-0.198,0.246-1.065,0.315-1.374,0.323l0.002,0.097
					C140.503,36.829,140.531,36.828,140.574,36.827z"/>
			</g>
			<g>
				<path fill="#754554" d="M138.573,34.519c1.058-0.58,2.027-0.314,2.037-0.312l0.044-0.155c-0.043-0.012-1.038-0.288-2.159,0.325
					L138.573,34.519z"/>
			</g>
			<g>
				<path fill="#754554" d="M141.275,33.969c0.004-0.002,0.348-0.263,0.801-0.348l-0.029-0.158
					c-0.493,0.092-0.854,0.367-0.869,0.378L141.275,33.969z"/>
			</g>
			<path fill="#AF727B" d="M136.726,38.129c0.293,0.828,3.486,2.414,4.438,1.601c0.486-0.416,0.68-1.683,0.758-2.928
				c-0.064,0.038-0.136,0.055-0.209,0.038c-0.296-0.067-0.724-0.079-1.159,0.234c-0.432,0.313-1.039,0.73-1.402,0.776
				c-0.363,0.046-1.632-0.321-1.94-0.79c-0.308-0.47-0.546-1.738-0.546-1.738l-0.789-0.721
				C136.093,35.772,136.49,37.458,136.726,38.129z"/>
			
				<linearGradient id="SVGID_5_" gradientUnits="userSpaceOnUse" x1="3535.564" y1="105.3223" x2="3536.9985" y2="105.3223" gradientTransform="matrix(-0.9999 -0.0108 -0.0108 0.9999 3672.4219 -31.4324)">
				<stop  offset="0.1224" style="stop-color:#FEB9B8"/>
				<stop  offset="1" style="stop-color:#FFDEDE"/>
			</linearGradient>
			<path fill="url(#SVGID_5_)" d="M135.858,34.781c0,0-0.492-0.7-1.051-0.257c-0.56,0.444,0.507,2.418,0.805,2.47
				c0.299,0.051,0.465-0.301,0.452-0.492S135.664,35.141,135.858,34.781z"/>
			
				<linearGradient id="SVGID_6_" gradientUnits="userSpaceOnUse" x1="3535.6646" y1="105.2119" x2="3536.8101" y2="105.2119" gradientTransform="matrix(-0.9999 -0.0108 -0.0108 0.9999 3672.4219 -31.4324)">
				<stop  offset="0.1224" style="stop-color:#FCA4B5"/>
				<stop  offset="0.9896" style="stop-color:#FFADB7"/>
			</linearGradient>
			<path fill="url(#SVGID_6_)" d="M135.709,34.777c0,0-0.584-0.375-0.823-0.076c-0.238,0.299,0.435,1.584,0.623,1.807
				s0.457-0.239,0.457-0.239S135.63,35.067,135.709,34.777z"/>
			<path fill="#FEC7C7" d="M141.626,37.811c0,0-0.913,0.309-1.43,0.29C139.678,38.081,142.013,37.359,141.626,37.811z"/>
			
				<ellipse transform="matrix(-0.9798 0.1998 -0.1998 -0.9798 283.5786 41.5792)" fill="#FFFFFF" cx="139.691" cy="35.098" rx="0.332" ry="0.215"/>
			
				<ellipse transform="matrix(-0.902 0.4317 -0.4317 -0.902 284.3647 4.6401)" fill="#FFFFFF" cx="141.656" cy="34.591" rx="0.215" ry="0.193"/>
			<path fill="#E6F1FF" d="M133.803,35.514c0,0,0.751-0.934,1.007-0.985s1.136,0.272,1.136,0.272l0.073-0.103l0.856-1.114
				c0,0,0.006,0.001,0.017,0.001c0.16,0.003,1.497-0.042,2.298-0.104c0.854-0.067,2.246-0.436,2.66-0.626
				c0.37-0.168-0.055-1.246-0.188-1.587c-0.015-0.042-0.033-0.072-0.033-0.089c0.003-1.083-1.8-2.371-2.609-2.537
				c-0.743-0.152-3.324-0.762-5.281,1.655c-0.378,0.466-0.606,0.944-0.73,1.416c-0.063,0.236-0.1,0.471-0.113,0.702
				C132.782,34.099,133.803,35.514,133.803,35.514z"/>
			<path fill="#E6F1FF" d="M135.945,34.801c0,0,0.122,2.567,0.033,4.244c-0.089,1.675,0.084,3.362-0.026,3.656
				c-0.231,0.62-4.198-1.17-4.823-0.611c-0.625,0.559-0.625,0.559-0.625,0.559s1.267-1.791,1.623-3.359s0.865-4.197,0.762-6.595
				C134.868,32.361,135.945,34.801,135.945,34.801z"/>
			<path fill="#DDE8F6" d="M141.615,31.011c0,0-0.128,0.243-0.406,0.338c-0.278,0.096-1.085,0.282-1.473,0.177
				c-0.805,0.257-1.48,0.376-2.325,0.383s-1.51-0.163-1.663-0.284c-0.407,0.051-1.093-0.012-1.596-0.188
				c-0.35-0.147-0.476-0.374-0.476-0.374s-0.33,0.104-0.42-0.016c-0.051,0.109-0.051,0.109-0.051,0.109l0.076,0.449l-0.369,0.625
				l-0.021,0.274c0,0,0.412,0.392,1.516,0.655c1.104,0.264,3.184,0.322,4.904,0.141c1.182-0.125,2.273-0.428,2.664-0.755
				c0.025-0.184-0.054-0.445-0.054-0.445L141.615,31.011z"/>
			<path fill="#656565" d="M132.744,32.254c0.128,0.159,0.877,0.469,1.002,0.516c0.916,0.341,2.439,0.648,5.301,0.425
				c0.888-0.069,2.578-0.575,3.008-0.773c0.385-0.175,0.103-0.887-0.035-1.241c-0.003,0.003-0.157-0.115-0.16-0.11
				c-0.042,0.051-0.167,0.048-0.23,0.109c-0.499,0.486-2.585,0.729-4.105,0.77c-1.684,0.047-3.738-0.549-3.738-0.549
				s-0.556-0.244-0.764-0.308c-0.142,0.062-0.332,0.155-0.347,0.3C132.662,31.533,132.579,32.051,132.744,32.254z"/>
		</g>
		<path fill="#E6F1FF" d="M132.291,57.547l0.483,11.187c0,0-0.902,0.574-1.977,0.557s-1.075-0.018-1.075-0.018
			s-1.834-8.23-1.462-11.759C129.829,57.425,132.291,57.547,132.291,57.547z"/>
	</g>
	<path fill="#F0F5FB" d="M133.313,34.171c0,0,0.213,4.894-1.909,7.369c1.142-0.64,1.79-0.386,1.79-0.386
		S133.805,37.108,133.313,34.171z"/>
</g>
</svg>
