<?xml version="1.0" encoding="utf-8"?>
<!-- Generator: Adobe Illustrator 16.0.0, SVG Export Plug-In . SVG Version: 6.00 Build 0)  -->
<!DOCTYPE svg PUBLIC "-//W3C//DTD SVG 1.1//EN" "http://www.w3.org/Graphics/SVG/1.1/DTD/svg11.dtd">
<svg version="1.1" id="Layer_1" xmlns="http://www.w3.org/2000/svg" xmlns:xlink="http://www.w3.org/1999/xlink" x="0px" y="0px"
	 width="463.683px" height="425.749px" viewBox="0 0 463.683 425.749" enable-background="new 0 0 463.683 425.749"
	 xml:space="preserve">
<g>
	<g>
		<path fill="#D7E4F2" d="M375.155,151.21c3.873-2.465,10.334-2.731,14.431-0.597c4.097,2.136,4.278,5.864,0.404,8.329
			c-3.873,2.465-10.334,2.732-14.431,0.597C371.462,157.404,371.282,153.675,375.155,151.21z"/>
		<g>
			<path fill="#626170" d="M390.492,153.755c0,0,0.257,0.13,0.271,0.322c0.014,0.191,0.021,0.717,0.02,0.841
				c-0.002,0.124-0.327,0.605-1.126,0.792c-0.798,0.186-2.739-0.329-3.394-0.71c-0.653-0.381-1.546-1.353-1.817-1.427
				c-0.213-0.058-0.757,0.021-0.981,0.059c-0.069,0.012-0.138,0.014-0.208,0.008l-0.513-0.042c-0.073-0.006-0.146-0.022-0.214-0.046
				l-1.099-0.39c0,0-0.158-0.807,0.172-1.062C381.932,151.845,390.492,153.755,390.492,153.755z"/>
			<path fill="#C5757D" d="M385.966,150.479c0,0,0.951,0.603,1.12,0.772c0.169,0.17,1.886,0.868,2.481,1.23
				c0.596,0.363,1.044,0.984,1.083,1.188c0.039,0.204,0.13,0.668,0.061,0.864c-0.069,0.194-0.38,0.712-1.407,0.775
				c-0.921,0.058-2.693-0.719-3.055-0.883c-0.045-0.02-0.085-0.042-0.125-0.069c-0.273-0.187-1.416-0.961-1.604-1.05
				c-0.214-0.101-2.105-0.579-2.394-0.675c-0.287-0.095-0.609-0.131-0.651-0.361c-0.043-0.231-0.129-1.5,0.023-1.899
				S385.126,149.456,385.966,150.479z"/>
			<path fill="#EAACB6" d="M381.482,150.649c0.099,0.314,0.463,0.537,1.683,0.601c0.141,0.006,0.281,0.012,0.422,0.012
				c0.875,0.028,1.682-0.038,2.564-0.423c0.309-0.136,0.517-0.441,0.521-0.779c0.035-3.399,1.464-17.424,1.891-26.143
				c0.27-5.514-0.927-8.315-0.927-8.315l-5.89-0.339l-0.216,14.547l0.003,8.415C381.533,138.225,381.388,150.336,381.482,150.649z"
				/>
			<g>
				<path fill="#CE8C9E" d="M383.153,151.272c0.005-0.098,0.436-9.768,0.586-11.802c0.151-2.04,0.274-13.604,0.276-13.721
					l-0.228-0.002c-0.001,0.117-0.124,11.674-0.275,13.707c-0.15,2.037-0.581,11.711-0.586,11.809L383.153,151.272z"/>
			</g>
			<path fill="#D4B7B7" d="M381.482,150.649c0.064,0.205,0.242,0.371,0.696,0.479c0.622-0.479,0.853-0.658,1.476-1.137l1.034-23.931
				c0,0,1.541-1.674,1.276-2.714c-0.117-0.447-4.307,5.89-4.307,5.89l-0.128,0.574l0.003,8.415
				C381.533,138.225,381.388,150.336,381.482,150.649z"/>
			<path fill="#626170" d="M383.459,156.865c0,0,0.282,0.005,0.35,0.38c0.022,0.124,0.036,0.255,0.044,0.375
				c0.023,0.323-0.131,0.637-0.413,0.796c-0.238,0.135-0.594,0.271-1.104,0.336c-1.179,0.149-2.622-0.287-3.361-0.706
				c-0.74-0.419-1.006-0.76-1.452-1.379c-0.445-0.619-0.906-0.915-0.906-0.915l-0.188,0.051c0,0-0.66-0.48-1.023-0.813
				c-0.146-0.134-0.241-0.312-0.265-0.509c-0.052-0.418-0.061-1.098,0.063-1.177C375.366,153.201,383.459,156.865,383.459,156.865z"
				/>
			<path fill="#C5757D" d="M380.332,152.873l0.154,0.368c0.044,0.106,0.108,0.201,0.191,0.282c0.434,0.422,1.884,1.837,2.326,2.309
				c0.522,0.559,0.792,1.047,0.815,1.554c0.022,0.507-1.292,0.834-1.489,0.848s-1.071,0.1-2.191-0.317
				c-1.119-0.417-1.581-0.818-2.479-1.796c-0.899-0.978-1.507-1.515-1.782-1.739c-0.276-0.223-0.677-0.579-0.673-0.869
				c0.005-0.29-0.04-1.101,0.196-1.202c0.214-0.091,3.349-0.352,4.519,0.124C380.111,152.513,380.251,152.682,380.332,152.873z"/>
			<path fill="#EAACB6" d="M385.37,117.947c0,0,0.558,2.417,0.781,4.722c0.199,2.057-1.98,2.788-1.98,2.788
				s-1.403,9.825-1.901,12.245c-0.441,2.145-1.673,12.204-1.95,14.407c-0.036,0.29-0.216,0.537-0.479,0.66
				c-0.793,0.37-2.549,1.002-4.004,0.183c-0.257-0.145-0.418-0.419-0.428-0.714c-0.228-6.806,0.904-14.933,0.979-15.992
				c0.002-0.041,0.004-0.074,0.002-0.114c-0.1-1.992-1.162-8.931-1.518-13.606c-0.311-1.838,0.229-4.753,0.229-4.753L385.37,117.947
				z"/>
			<g>
				<path fill="#CE8C9E" d="M384.761,123.96c-0.096-0.061-0.206-0.202-0.185-0.534c0.091-1.415-0.129-3.646-0.212-3.825l0.085-0.06
					l0.001-0.003l0.001,0.002l-0.058-0.1l0.066-0.034l0.057,0.036c0.194,0.122,0.361,2.83,0.286,3.999
					c-0.011,0.167,0.019,0.29,0.079,0.329c0.041,0.025,0.106,0.015,0.184-0.028c0.262-0.146,0.648-0.689,0.639-1.586
					c-0.006-0.522-0.124-2.511-0.156-2.722l0.224-0.035c0.037,0.247,0.153,2.254,0.159,2.754c0.01,0.933-0.384,1.58-0.754,1.787
					c-0.078,0.043-0.154,0.066-0.226,0.069C384.882,124.012,384.818,123.996,384.761,123.96z M384.507,119.636l-0.054-0.094
					L384.507,119.636z"/>
			</g>
			<g>
				<path fill="#CE8C9E" d="M376.246,153.409l0.227-0.012c-0.272-5.504,0.326-11.339,0.684-14.826
					c0.138-1.349,0.238-2.324,0.228-2.733c-0.02-0.767-0.324-3.148-0.647-5.67c-0.277-2.169-0.563-4.413-0.678-5.705
					c-0.243-2.734,0.152-4.843,0.156-4.864l-0.223-0.043c-0.004,0.021-0.405,2.162-0.16,4.927c0.115,1.296,0.402,3.542,0.68,5.713
					c0.322,2.517,0.626,4.893,0.646,5.647c0.01,0.395-0.089,1.364-0.227,2.705C376.572,142.041,375.972,147.888,376.246,153.409z"/>
			</g>
			<g>
				<path fill="#CE8C9E" d="M379.155,124.177c1.3-0.056,2.292-0.403,2.959-1.037c0.865-0.822,0.842-1.817,0.841-1.859l-0.227,0.007
					c0,0.009,0.019,0.941-0.774,1.691c-0.829,0.784-2.207,1.1-4.098,0.938l-0.019,0.226
					C378.306,124.184,378.746,124.195,379.155,124.177z"/>
			</g>
			<path fill="#A76478" d="M374.816,120.063c0,0,2.167,0.924,5.568,0.657c3.401-0.266,4.683-0.727,5.807-1.422
				c1.125-0.696,1.805-1.571,1.805-1.571l-0.235-1.309c0,0-0.624,1.095-2.229,1.864c-1.604,0.77-5.084,1.097-6.501,1.168
				c-1.418,0.072-4.078-0.723-4.078-0.723L374.816,120.063z"/>
			<path fill="#EAACB6" d="M382.039,119.233c0,0,0.1,0.373,0.123,0.817c0.022,0.444,0.022,1.263,0.022,1.263l0.514-0.094
				c0,0,0.077-0.79,0.049-1.186c-0.027-0.394-0.156-0.938-0.156-0.938L382.039,119.233z"/>
			<path fill="#4F5997" d="M377.102,119.157c0,0-0.084,0.376-0.088,0.821c-0.004,0.445,0.03,1.263,0.03,1.263l-0.517-0.072
				c0,0-0.11-0.787-0.1-1.182c0.012-0.396,0.117-0.945,0.117-0.945L377.102,119.157z"/>
			<path fill="#4F5997" d="M386.739,117.485c0,0,0.135,0.462,0.161,0.84c0.026,0.379-0.03,1.026-0.03,1.026l0.337-0.43
				c0,0,0.04-0.655,0.025-0.86s-0.217-0.803-0.217-0.803L386.739,117.485z"/>
			<g>
				<path fill="#8C92B0" d="M388.411,119.591c0.035-0.002,0.071-0.008,0.107-0.021l-0.071-0.215
					c-0.285,0.097-0.642-0.605-0.771-0.958l-0.213,0.079C387.508,118.599,387.899,119.612,388.411,119.591z"/>
			</g>
			<g>
				<path fill="#CCDEFB" d="M384.152,120.247c-0.14-0.098-0.22-0.258-0.226-0.452l-0.011-0.38c-0.012-0.398,0.298-0.828,0.704-0.978
					l0.954-0.354c0.223-0.082,0.439-0.065,0.599,0.044c0.14,0.098,0.221,0.259,0.226,0.453l0.012,0.38
					c0.011,0.398-0.299,0.828-0.705,0.979l-0.954,0.353c-0.062,0.022-0.122,0.038-0.182,0.046
					C384.413,120.357,384.267,120.326,384.152,120.247z M385.664,118.498l-0.954,0.353c-0.211,0.078-0.391,0.311-0.386,0.497
					l0.012,0.38c0.002,0.063,0.024,0.111,0.067,0.142c0.062,0.042,0.156,0.045,0.259,0.007l0.954-0.353
					c0.21-0.078,0.39-0.31,0.385-0.497l-0.011-0.379c-0.002-0.064-0.025-0.112-0.068-0.142s-0.1-0.04-0.165-0.032
					C385.726,118.478,385.695,118.486,385.664,118.498z"/>
			</g>
		</g>
		<path fill="#D692A6" d="M383.069,94.16l3.167,9.603c0,0,0,0.006,0.007,0.012c0.197,0.142,4.103,3.032,5.21,3.35
			c0.195,0.056,0.389,0.088,0.586,0.107c0.947,0.1,1.821-0.211,1.785-0.618c-0.045-0.493-4.73-7.054-6.326-8.991
			C385.903,95.686,383.069,94.16,383.069,94.16z"/>
		<path fill="#EBDDDD" d="M386.236,103.763c0,0,0,0.006,0.007,0.012c0.197,0.142,4.103,3.032,5.21,3.35
			c0.195,0.056,0.389,0.088,0.586,0.107l-1.663-1.054c0,0-1.742-1.316-2.091-1.653c-0.354-0.33-1.456-2.917-1.456-2.917
			L386.236,103.763z"/>
		<path fill="#DDE8F6" d="M374.54,110.167c0.598,3.074,0.481,7.971,0.481,7.971c0.521,0.668,1.523,1.026,2.693,1.176
			c2.242,0.289,6.051-0.528,7.313-1.014c1.919-0.741,2.725-1.903,2.752-2.154s0.181-0.844,0.036-1.935
			c-0.148-1.091-0.433-8.563-0.76-11.114c-0.326-2.552-1.012-5.436-2.229-7.579c-1.217-2.141-3.554-1.312-5.014-1.257
			c-1.459,0.054-3.125,1.134-3.467,1.623c-0.34,0.491-2.622,0.946-3.626,3.614c-0.001,0.002,0.632-0.3,0.632-0.3
			C372.348,101.869,373.944,107.093,374.54,110.167z"/>
		<path fill="#C98398" d="M386.754,117.615c-0.019-0.964-0.079-2.443-0.172-4.147c-0.028-1.217-0.074-2.479-0.172-3.7
			c-0.063-0.79-0.15-1.624-0.252-2.472c-0.211-2.524-0.463-4.87-0.732-6.307c-0.27-1.437-0.569-2.564-0.851-3.434
			c-0.066-0.338-0.105-0.527-0.105-0.527l-0.42-0.881c-0.084-0.193-0.162-0.36-0.231-0.498l1.81-0.13c0,0,1.755,2.41,1.759,8.104
			c-0.437,4.369,1.408,14.584,1.408,14.584s-0.058,1.696-1.302,2.205c-0.602,0.246-0.752-0.69-0.825-2.725
			C386.697,117.662,386.726,117.64,386.754,117.615z"/>
		<path fill="#D692A6" d="M380.361,95.176c0,0,1.674-1.419,3.069-0.248c1.396,1.172,1.994,4.929,1.994,4.929
			s1.069,1.044,1.113,1.195c0.043,0.151,0.694,15.886,0.327,16.846c-0.738,1.935-0.502-8.528-1.884-16.212
			C383.753,94.862,380.361,95.176,380.361,95.176z"/>
		<path fill="#C98398" d="M379.56,101.554c1.192,2.214,3.685,19.108,2.164,20.295c-1.275,0.996-5.936,2.585-6.32,0.125
			c-0.285-1.824,0.92-19.137,0.92-19.137S379.147,100.788,379.56,101.554z"/>
		<path fill="#C98398" d="M377.558,123.007c0,0-2.078,0.731-3.162-1.357c-0.081-1.885,0.458-4.469,0.232-8.306
			c-0.225-3.836-2.157-10.509-2.033-12.177s-0.864-2.335,4.446-5.887c-0.839,1.834-0.573,2.479-0.573,2.479l1.845,4.215
			L377.558,123.007z"/>
		<path fill="#EBDDDD" d="M390.873,106.132c0,0-1.745-2.674-2.275-4.05c-0.529-1.375-3.018-3.867-3.018-3.867l-1.366-2.329
			l3.5,2.255l2.388,4.593C390.101,102.733,391.319,104.388,390.873,106.132z"/>
		<path fill="#FEBFBF" d="M385.554,94.13c0,0,0.054-0.418,0.249-0.552c0.194-0.133,0.951-0.556,1.296-0.587
			c0.345-0.03,0.451,0.143,0.465,0.298s0.223,0.452,0.223,0.452l0.52,0.822l0.267,0.575c0,0,0.214,0.177,0.432,0.762
			c0.218,0.585,0.304,0.991,0.414,1.585c0.11,0.594,1.824,2.625,2.108,3.03c0.285,0.405,2.713,3.911,2.709,5.169
			c-0.006,1.846-1.835,1.577-2.014,1.564c-0.178-0.013-0.853-0.366-1.35-1.116s-0.847-2.638-1.453-4.057
			c-0.605-1.419-1.247-2.61-1.623-2.925c-0.375-0.313-0.739-0.596-0.871-0.592c-0.133,0.003-0.673-0.304-1.258-0.93
			c-0.586-0.626-1.879-1.682-1.97-2.056c-0.092-0.375-0.11-1.234-0.11-1.234s0.713-0.261,0.789,0.079
			C384.452,94.758,385.554,94.13,385.554,94.13z"/>
		<path fill="#D692A6" d="M388.18,99.464c0,0,0.351,0.109,0.933-0.124c0.582-0.234,0.708-0.49,0.792-0.667
			c0.084-0.175-0.126-0.485-0.126-0.485l-0.137-0.219c0,0,0.22,0.03,0.386,0.23c0.167,0.2,2.843,4.23,3.286,4.936
			s0.87,1.883,0.929,2.046c0.058,0.162,0.141,1.371-0.425,1.781c-0.454,0.338-1.128,0.384-1.688,0.326s-1.223-0.948-1.372-1.239
			c-0.15-0.291-1.849-4.809-2.229-5.64c-0.38-0.831-0.732-1.259-0.732-1.259L388.18,99.464z"/>
		
			<linearGradient id="SVGID_1_" gradientUnits="userSpaceOnUse" x1="3609.4517" y1="-48.6445" x2="3612.3657" y2="-48.6445" gradientTransform="matrix(-0.9961 0.0887 0.0887 0.9961 3987.894 -175.9509)">
			<stop  offset="0.1224" style="stop-color:#FCA4B5"/>
			<stop  offset="0.9896" style="stop-color:#FFADB7"/>
		</linearGradient>
		<path fill="url(#SVGID_1_)" d="M387.477,98.162c0,0,0.086-1.122,0.117-1.29c0.03-0.167-0.101-0.516-0.101-0.516l-0.347,0.279
			l0.02-0.883l-0.527,0.308l-0.712,0.398l-0.431,0.601l-0.095-1.07l-0.187-0.978l0.771-1.077c0,0,0.017-0.535,0.78-0.317
			c0.764,0.217,0.948,1.172,0.948,1.172s0.291,0.763,0.445,0.955c0.153,0.192,0.046,1.256,0.012,1.557
			C388.138,97.602,387.67,98.149,387.477,98.162z"/>
		<polygon points="385.234,91.595 386.733,95.335 384.85,96.443 383.321,92.416 		"/>
		
			<linearGradient id="SVGID_2_" gradientUnits="userSpaceOnUse" x1="3621.0942" y1="-48.854" x2="3616.2844" y2="-52.3913" gradientTransform="matrix(-0.9961 0.0887 0.0887 0.9961 3987.894 -175.9509)">
			<stop  offset="0.1224" style="stop-color:#FEC7C7"/>
			<stop  offset="0.9694" style="stop-color:#FFADB7"/>
		</linearGradient>
		<path fill="url(#SVGID_2_)" d="M377.552,89.499c0,0,0.472,3.145,0.258,4.295s-1.323,2.414-1.391,2.779
			c-0.066,0.366,2.173,1.544,3.694,1.632c1.522,0.088,1.935-0.296,2.183-0.442c0.247-0.146-0.36-1.531-0.168-2.852
			C382.322,93.591,379.617,89.551,377.552,89.499z"/>
		<path fill="#F64A6E" d="M382.436,99.105c0,0,1.696,6.799,3.088,17.522l-0.494,1.687l-1.034-0.99
			c-1.135-13.256-2.281-17.828-2.281-17.828L382.436,99.105z"/>
		<polygon fill="#F64A6E" points="381.452,97.754 382.623,98.71 382.228,99.804 381.181,99.376 381.152,99.042 		"/>
		<path fill="#E6F1FF" d="M377.659,94.816l0.121,0.845c0,0,0.943,2.199,3.672,2.093c0.064,0.423,0.031,1.625-0.386,1.988
			c-1.752-0.626-3.959-1.803-4.389-2.955c-0.051-0.136,0.327-1.746,0.327-1.746l0.592-0.551L377.659,94.816z"/>
		<path fill="#D692A6" d="M376.933,95.354c0,0-1.693,1.287-0.794,3.133c0.9,1.847,3.124,5.386,3.124,5.386l-0.617,0.87
			c0,0,2.432,7.99,2.793,9.239c0.361,1.249,0.84,5.282,0.84,5.282s-0.011-6.769-0.637-10.465c-0.627-3.695-1.392-6.874-2.058-8.45
			c-0.454-1.077-1.575-2.179-2.24-2.769c-0.329-0.292-0.502-0.717-0.476-1.155L376.933,95.354z"/>
		
			<linearGradient id="SVGID_3_" gradientUnits="userSpaceOnUse" x1="3615.4526" y1="-49.584" x2="3618.1616" y2="-49.584" gradientTransform="matrix(-0.9961 0.0887 0.0887 0.9961 3987.894 -175.9509)">
			<stop  offset="0.1224" style="stop-color:#FCA4B5"/>
			<stop  offset="0.9896" style="stop-color:#FFADB7"/>
		</linearGradient>
		<path fill="url(#SVGID_3_)" d="M382.313,97.223c0,0-0.646,0.917-1.901,0.11c-0.675-0.434-0.736-1.403-0.736-1.403l-0.428-2.579
			l2.956,3.262L382.313,97.223z"/>
		<path fill="#E6F1FF" d="M381.928,95.572c0,0,0.164,0.487,0.14,0.759c-0.024,0.272-0.105,1.021-0.616,1.423
			c0.53,0.646,1.41,0.93,1.742,0.887c-0.294-1.003-0.423-1.957-0.556-2.745C382.504,95.107,381.707,95.001,381.928,95.572z"/>
		<path fill="#EBDDDD" d="M374.54,110.167c0.598,3.074-0.144,11.482-0.144,11.482c0.397,0.79,1.159,1.425,2.33,1.575
			c-0.282-0.223-0.229-2.438-0.356-4.464c-0.25-1.584,0.146-1.01-0.252-5.029c-0.397-4.021-1.649-7.104-1.649-7.104l0.46,0.768
			c0,0,2.456,4.885,2.902,5.056s0.793,0.148,0.793,0.148s3.287,1.462,4.238,1.377c0.954-0.085,4.583-3.657,4.583-3.657
			s-3.677,0.068-4.156-0.188s-2.212-1.627-2.717-2.841c-0.506-1.212-2.65-5.455-2.65-5.455s-2.75,1.937-3.735,1.661
			c-0.983-0.275-0.835-4.3-0.835-4.3C372.348,101.869,373.944,107.093,374.54,110.167z"/>
		<path fill="#FEC7C7" d="M377.82,91.892c0.021,0.008,0.041,0.016,0.062,0.022c0,0-0.002,0,0,0.001c0.4,0.149,0.728,0.12,0.728,0.12
			s0.69,1.9,1.084,2.97c0.393,1.068,1.084,1.53,2.428,2.017c1.343,0.486,1.695,0.109,1.921-0.147
			c0.157-0.177,0.602-1.269,0.906-2.28c0.134-0.439,0.239-0.861,0.286-1.189c0.151-1.08,0.486-1.779,0.651-2.018
			c0.164-0.239,0.25-1.66,0.039-3.181c-0.209-1.52-1.746-3.17-2.914-3.6c-1.168-0.431-2.861-0.188-4.279,0.617
			c-1.417,0.805-2.009,1.783-2,2.825C376.743,89.091,377.212,91.382,377.82,91.892z"/>
		<path fill="#754554" d="M384.459,91.978c0,0-0.945-0.034-1.118-0.019c-0.172,0.016-1.012,0.324-1.012,0.324l0.943-0.145
			l1.128,0.001L384.459,91.978z"/>
		<polygon fill="#754554" points="385.252,91.625 385.992,91.138 386.019,91.284 385.885,91.388 385.117,91.861 		"/>
		<g>
			
				<linearGradient id="SVGID_4_" gradientUnits="userSpaceOnUse" x1="3612.9233" y1="-51.4063" x2="3612.0935" y2="-50.9293" gradientTransform="matrix(-0.9961 0.0887 0.0887 0.9961 3987.894 -175.9509)">
				<stop  offset="0.1224" style="stop-color:#FEC7C7"/>
				<stop  offset="0.9896" style="stop-color:#FFDBDB"/>
			</linearGradient>
			<path fill="url(#SVGID_4_)" d="M384.844,92.101c0,0,0.236,1.07,0.44,1.648c0.204,0.578-0.117,0.78-0.603,0.811
				c-0.485,0.031-0.711-0.135-0.711-0.135L384.844,92.101z"/>
			
				<linearGradient id="SVGID_5_" gradientUnits="userSpaceOnUse" x1="3612.1011" y1="-51.3408" x2="3613.5815" y2="-51.3408" gradientTransform="matrix(-0.9961 0.0887 0.0887 0.9961 3987.894 -175.9509)">
				<stop  offset="0.188" style="stop-color:#FFDCDC"/>
				<stop  offset="0.8991" style="stop-color:#FEC7C7"/>
			</linearGradient>
			<path fill="url(#SVGID_5_)" d="M384.645,94.607c0.014,0,0.027-0.001,0.041-0.002c0.314-0.021,0.527-0.111,0.632-0.269
				c0.097-0.146,0.1-0.349,0.01-0.603c-0.201-0.569-0.437-1.632-0.438-1.643l-0.09,0.02c0.003,0.011,0.239,1.08,0.442,1.653
				c0.08,0.226,0.08,0.401,0,0.522c-0.088,0.133-0.277,0.209-0.563,0.228c-0.012,0.001-0.024,0.002-0.037,0.002
				c-0.434,0.019-0.642-0.127-0.644-0.128l-0.054,0.074C383.954,94.468,384.177,94.628,384.645,94.607z"/>
		</g>
		
			<ellipse transform="matrix(-0.8229 -0.5682 0.5682 -0.8229 645.9722 387.0216)" fill="#FFFFFF" cx="383.303" cy="92.837" rx="0.237" ry="0.259"/>
		
			<ellipse transform="matrix(-0.8228 -0.5684 0.5684 -0.8228 649.6683 387.09)" fill="#FFFFFF" cx="385.188" cy="92.25" rx="0.188" ry="0.26"/>
		<path fill="#C4868F" d="M377.881,91.914c0,0-0.002,0,0,0.001c0.4,0.149,0.728,0.12,0.728,0.12s0.69,1.9,1.084,2.97
			c0.393,1.068,1.084,1.53,2.428,2.017c1.343,0.486,1.695,0.109,1.921-0.147c0.157-0.177,0.602-1.269,0.906-2.28
			c-0.204,0.026-0.469,0.063-0.783,0.097c-0.641,0.232-2.483,0.814-3.5,0.065c-0.607-0.446-0.652-2.015-0.652-2.015
			c-0.151-2.258-1.528-3.227-2.027-2.049C377.885,90.929,377.84,91.365,377.881,91.914z"/>
		<path fill="#FEC7C7" d="M379.584,92.507c0,0-0.249,1.373-0.204,1.646c-0.559-1.432-0.805-2.271-0.805-2.271
			s-0.584-1.571,0.101-1.419C379.362,90.615,379.778,91.827,379.584,92.507z"/>
		<path fill="#D692A6" d="M372.413,102.156c0,0-0.577-2.58,1.069-3.322c1.646-0.742,3.266,0.173,4.529,3.213
			c1.263,3.039,2.919,6.3,4.095,7.237c1.009,1.3,1.246,4.803-0.884,4.843c-2.045-0.388-4.83-4.905-6.294-7.133
			C373.464,104.768,372.669,103.128,372.413,102.156z"/>
		<path fill="#FEBFBF" d="M380.56,113.878c0,0,0.608,0.593,2.222,0.116c3.666-1.084,6.444-2.393,7.87-3.125
			c0.605-0.312,0.967-0.521,1.05-0.562c0.277-0.14,0.732-0.23,1.184-0.469c0.449-0.238,0.741-0.686,0.741-0.686
			s-0.029,0.324,0.107,0.561c0.136,0.235,0.497,0.097,0.542-0.048c0.012-0.039,0.034-0.104,0.062-0.18
			c0.004-0.015,0.009-0.028,0.016-0.043c0.003-0.006,0.005-0.013,0.006-0.019c0.002-0.006,0.003-0.012,0.007-0.019
			c0.001-0.004,0.001-0.006,0.001-0.006c0.063-0.181,0.134-0.375,0.134-0.375s0.064-0.014,0.209-0.058
			c0.145-0.047,0.59-0.442,0.61-0.485c0.021-0.044,0.164-0.942-0.109-1.226c-0.273-0.283-1.267-0.671-1.408-0.766
			s-0.56-0.148-0.891-0.25c-0.332-0.104-0.665,0.059-0.665,0.059s-0.555,0.082-0.691,0.219c-0.137,0.135-0.278,0.777-0.323,0.922
			c-0.045,0.143-0.02,0.453-0.446,0.651c-0.431,0.199-1.532,0.633-3.247,1.034c-1.714,0.4-4.732,0.372-5.32,0.318
			c-0.591-0.053-0.534-0.02-0.534-0.02c-1.193,0.313-2.178,1.227-2.2,2.289C379.462,112.771,380.56,113.878,380.56,113.878z"/>
		
			<linearGradient id="SVGID_6_" gradientUnits="userSpaceOnUse" x1="3604.0542" y1="-34.749" x2="3608.3823" y2="-34.749" gradientTransform="matrix(-0.9961 0.0887 0.0887 0.9961 3987.894 -175.9509)">
			<stop  offset="0.1224" style="stop-color:#FCA4B5"/>
			<stop  offset="0.9896" style="stop-color:#FFADB7"/>
		</linearGradient>
		<path fill="url(#SVGID_6_)" d="M390.652,110.869c0.605-0.312,0.967-0.521,1.05-0.562c0.277-0.14,0.732-0.23,1.184-0.469
			c0.449-0.238,0.741-0.686,0.741-0.686s-0.029,0.324,0.107,0.561c0.136,0.235,0.497,0.097,0.542-0.048
			c0.012-0.039,0.034-0.104,0.062-0.18c-0.039,0.081-0.11,0.194-0.235,0.222c-0.2,0.041-0.388-0.125-0.358-0.35
			c0.029-0.227,0.449-0.703,0.449-0.703s0.297-0.397,0.37-0.396c0.075,0.001,0.174-0.016,0.174-0.016l-0.045-0.5l-0.392,0.15
			l-0.062,0.337c0,0-0.716,0.973-0.877,1.12c-0.159,0.147-0.634,0.487-0.9,0.568c-0.265,0.082-1.547,0.468-1.797,0.714
			C390.603,110.692,390.602,110.778,390.652,110.869z"/>
		<path fill="#504F60" d="M391.101,108.16c0,0,0.402,0.2,0.621,0.845c0.219,0.644,0.095,1.406,0.095,1.406s-0.117,0.221-0.295,0.312
			c-0.178,0.09-0.474,0.253-0.474,0.253s-0.33,0.035-0.382-0.115c0.243-0.127,0.401-0.21,0.401-0.21s0.373-0.56,0.191-1.276
			s-1.246-0.826-1.364-0.828s-0.454,0.051-0.454,0.051s0.008-0.185,0.128-0.363c0.121-0.178,0.57-0.286,0.633-0.286
			C390.263,107.949,390.967,108.123,391.101,108.16z"/>
		<path fill="#D692A6" d="M382.106,109.284c0,0,4.28-0.142,5.704-0.508c1.423-0.367,1.607-0.45,1.607-0.45s1.246-0.113,1.7,0.758
			s0.215,1.529-0.116,1.807c-0.27,0.132-4.074,1.91-6.248,2.583c-2.173,0.674-2.772,0.727-2.772,0.727s-0.902,0.127-1.42-0.321
			c-0.519-0.448-1.006-1.183-1.16-1.715c-0.155-0.532,0.076-1.091,0.568-1.879C380.462,109.497,381.723,109.26,382.106,109.284z"/>
		<path fill="#754554" d="M379.584,92.507c0,0-0.079-1.278-0.409-1.448c-0.329-0.169-0.644,0.479-0.644,0.479
			s-0.62,1.175-0.668,1.26c-0.251-0.715-0.804-1.253-1.106-2.326c-0.303-1.073-0.982-2.813,0.059-4.22
			c1.041-1.408,2.354-1.438,2.354-1.438s1.437-1.426,4.081-0.572c2.646,0.854,3.145,3.813,3.167,4.071
			c0.023,0.259-0.398,0.817-0.398,0.817s-0.711,0.522-1.711-0.121s-2.176-0.601-2.47-0.425c-0.295,0.175,0.059,1.917,0.006,2.158
			c-0.053,0.24-1.059,0.604-1.311,0.793s-0.521,1.206-0.521,1.206L379.584,92.507z"/>
		<path fill="#754554" d="M384.475,94.755c0,0-0.517-0.211-1.019,0.258c-0.503,0.47-1.201,0.587-1.38,0.515
			c-0.178-0.072-0.178-0.072-0.178-0.072s0.13,0.513,0.954,0.293c0.825-0.22,1.21-0.542,1.516-0.552
			C384.596,95.097,384.475,94.755,384.475,94.755z"/>
		<path fill="#754554" d="M384.333,94.8c0,0,0.036-0.082,0.134-0.097c0.098-0.016,0.305-0.131,0.586-0.092
			c0.281,0.04,0.487-0.083,0.564-0.285c0.077-0.202-0.084,0.588-0.418,0.742c-0.335,0.154-0.562,0.198-0.832,0.12
			C384.097,95.111,384.333,94.8,384.333,94.8z"/>
		<path fill="#FEC7C7" d="M383.448,95.718c0,0,0.351-0.106,0.479-0.124s0.46-0.06,0.529-0.047c0.069,0.012-0.013,0.273-0.243,0.338
			C383.984,95.949,383.549,95.814,383.448,95.718z"/>
		
			<linearGradient id="SVGID_7_" gradientUnits="userSpaceOnUse" x1="3609.396" y1="-48.6631" x2="3611.4285" y2="-48.6249" gradientTransform="matrix(-0.9961 0.0887 0.0887 0.9961 3987.894 -175.9509)">
			<stop  offset="0.1224" style="stop-color:#FEC7C7"/>
			<stop  offset="0.9896" style="stop-color:#FFDBDB"/>
		</linearGradient>
		<path fill="url(#SVGID_7_)" d="M386.985,96.356c0,0-0.125-0.923-0.132-1.065c-0.006-0.143,0.76-0.667,0.76-0.667
			s-0.377,0.092-0.595,0.149c-0.219,0.057-0.57,0.913-0.763,0.986c-0.191,0.073-0.35-0.093-0.334-0.411
			c0.016-0.317,0.281-0.951,0.281-0.951l0.501-0.434l-0.438,0.095c0,0-0.39,0.373-0.58,0.385c-0.191,0.012-0.049-0.695,0.069-0.824
			s1.006-0.585,1.283-0.62c0.277-0.035,0.451,0.159,0.539,0.353s1.269,2.173,1.318,2.285c0.049,0.111,0.508,1.548,0.552,2.034
			c0.043,0.486-0.143,0.764-0.619,0.855c-0.476,0.092-0.778-2.338-0.781-2.369c-0.003-0.031-0.199-0.558-0.263-0.584
			c-0.064-0.025-0.199-0.032-0.296,0.051c-0.096,0.083-0.042,0.752-0.275,0.873C387.013,96.601,386.985,96.356,386.985,96.356z"/>
		
			<linearGradient id="SVGID_8_" gradientUnits="userSpaceOnUse" x1="3618.1616" y1="-53.2886" x2="3619.6274" y2="-53.2886" gradientTransform="matrix(-0.9961 0.0887 0.0887 0.9961 3987.894 -175.9509)">
			<stop  offset="0.1224" style="stop-color:#FEB9B8"/>
			<stop  offset="1" style="stop-color:#FFDEDE"/>
		</linearGradient>
		<path fill="url(#SVGID_8_)" d="M379.083,91.505c0,0-0.305-0.779-1.099-0.812s-0.19,1.39-0.018,1.846s0.548,0.762,0.848,0.694
			c0.3-0.068,0.384-0.423,0.384-0.423S379.042,92.063,379.083,91.505z"/>
		
			<linearGradient id="SVGID_9_" gradientUnits="userSpaceOnUse" x1="3618.3345" y1="-53.4399" x2="3619.4175" y2="-53.4399" gradientTransform="matrix(-0.9961 0.0887 0.0887 0.9961 3987.894 -175.9509)">
			<stop  offset="0.1224" style="stop-color:#FCA4B5"/>
			<stop  offset="0.9896" style="stop-color:#FFADB7"/>
		</linearGradient>
		<path fill="url(#SVGID_9_)" d="M378.927,91.703c0,0-0.592-0.752-0.934-0.672s-0.121,0.847,0.054,1.253
			c0.174,0.406,0.771,0.353,0.82,0.241c0.048-0.112,0.11-0.144,0.11-0.144L378.927,91.703z"/>
	</g>
	
		<ellipse transform="matrix(-0.9991 0.0429 -0.0429 -0.9991 785.3511 199.6613)" fill="#504F60" cx="390.531" cy="108.267" rx="0.802" ry="0.265"/>
	
		<ellipse transform="matrix(-0.9991 0.043 -0.043 -0.9991 785.3315 199.3164)" fill="#504F60" cx="390.523" cy="108.099" rx="0.801" ry="0.265"/>
	
		<ellipse transform="matrix(-0.9991 0.0434 -0.0434 -0.9991 785.3723 199.1399)" fill="#EFF0F5" cx="390.523" cy="108.099" rx="0.647" ry="0.213"/>
	<g>
		<path fill="#EAACB6" d="M377.538,115.872c1.214-0.052,2.452-0.406,2.521-0.427l-0.063-0.217c-0.021,0.006-2.207,0.631-3.572,0.351
			l-0.045,0.222C376.733,115.874,377.134,115.89,377.538,115.872z"/>
	</g>
</g>
</svg>
