<?xml version="1.0" encoding="utf-8"?>
<!-- Generator: Adobe Illustrator 16.0.0, SVG Export Plug-In . SVG Version: 6.00 Build 0)  -->
<!DOCTYPE svg PUBLIC "-//W3C//DTD SVG 1.1//EN" "http://www.w3.org/Graphics/SVG/1.1/DTD/svg11.dtd">
<svg version="1.1" id="Layer_1" xmlns="http://www.w3.org/2000/svg" xmlns:xlink="http://www.w3.org/1999/xlink" x="0px" y="0px"
	 width="463.683px" height="425.749px" viewBox="0 0 463.683 425.749" enable-background="new 0 0 463.683 425.749"
	 xml:space="preserve">
<g>
	<path fill="#6A3646" d="M252.137,251.016c0,0-1.571-0.488-2.856,0.524c-1.471,1.157-0.68,3.65-0.234,4.686
		c0.479,1.114,0.809,3.45-0.675,4.331c0.368,0.928,2.68,0.151,3.38-0.289C252.451,259.826,255.139,253.561,252.137,251.016z"/>
	<g>
		<path fill="#BDD6F2" d="M263.454,320.053c-4.29,2.729-11.446,3.025-15.984,0.66s-4.738-6.496-0.448-9.226
			c4.29-2.73,11.446-3.026,15.984-0.661C267.542,313.191,267.744,317.322,263.454,320.053z"/>
		<g>
			<g>
				<g>
					<path fill="#FFA1A3" d="M255.769,308.586c0,0-1.086,1.036-0.892,1.618c0.194,0.581,2.646,4.108,3.854,4.467
						c2.514,0.746,1.818-1.481,1.386-1.927c-0.382-0.392-1.876-1.447-1.914-2.515C258.152,308.789,255.769,308.586,255.769,308.586z
						"/>
					<path fill="#8E8E8E" d="M256.203,311.967c0,0-0.408,0.162-0.397,0.479c0.01,0.316,0.03,1.509,0.03,1.509
						s-0.271,0.163-0.43,0.098s-0.398-0.428-0.398-0.428s-0.338-2.33-0.48-2.799S256.203,311.967,256.203,311.967z"/>
					<path fill="#C2D2EA" d="M254.717,309.314c0,0,1.756,1.896,2.478,3.17c0.721,1.273,1.458,1.763,1.982,1.714
						c0.836-0.077,1.352-0.62,1.146-1.037s-0.206-0.417-0.206-0.417s2.262,2.135,2.059,3.561c-0.203,1.427-4.051-0.321-4.66-1.022
						c-0.232-0.268-0.776-2.286-1.297-2.842c-0.521-0.555-1.27-0.265-1.646-1.437C254.196,309.832,254.717,309.314,254.717,309.314z
						"/>
					<path fill="#8E8E8E" d="M256.098,312.165c0.521,0.556,1.27,2.665,1.502,2.934c0.567,0.652,3.95,2.169,4.576,1.182
						c-0.001,0.008,0,0.017-0.001,0.024c-0.203,1.427-4.051-0.321-4.66-1.022c-0.232-0.268-0.776-2.286-1.297-2.842
						c-0.453-0.483-1.309-0.274-1.576-1.248C255.003,311.415,255.72,311.763,256.098,312.165z"/>
				</g>
				<g>
					<path fill="#8E8E8E" d="M251.305,313.341c0,0-0.606-0.181-0.601,0.136c0.005,0.316,0.093,2.289,0.093,2.289
						s-0.14,0.137-0.298,0.068c-0.158-0.067-0.393-0.434-0.393-0.434s-0.248-1.927-0.238-2.417
						C249.879,312.4,251.305,313.341,251.305,313.341z"/>
					
						<linearGradient id="SVGID_1_" gradientUnits="userSpaceOnUse" x1="-930.6377" y1="264.0771" x2="-926.1846" y2="264.0771" gradientTransform="matrix(0.9991 -0.0431 0.0431 0.9991 1168.75 10.1523)">
						<stop  offset="0.1224" style="stop-color:#FEC7C7"/>
						<stop  offset="0.9694" style="stop-color:#FFADB7"/>
					</linearGradient>
					<path fill="url(#SVGID_1_)" d="M251.137,310.563c0,0-0.903,0.732-0.886,1.675c0.018,0.926,1.184,4.683,2.367,5.113
						s2.369-0.338,2.27-0.876c-0.1-0.537-1.151-2.2-1.441-3.518C253.137,311.55,251.137,310.563,251.137,310.563z"/>
					<path fill="#C2D2EA" d="M253.451,312.409c0,0,0.895,1.675,1.284,2.816c0.849,2.488,0.808,3.577,0.626,4.17
						c-0.19,0.619-1.979,0.066-3.249-0.972c-1.456-1.189-0.823-2.617-1.715-4.06c-0.29-0.468-0.558-0.809-0.553-1.925
						c-0.013-0.948,0.826-1.343,0.826-1.343s-0.635,0.962-0.297,1.764c0.171,0.404,0.107,0.579,0.363,1.083
						c0.51,1.005,0.595,1.988,1.327,2.715c0.688,0.683,2.72,0.262,2.665-0.142c-0.102-0.745-0.755-2.001-1.015-2.699
						C253.405,312.984,253.451,312.409,253.451,312.409z"/>
					<path fill="#8E8E8E" d="M250.457,314.258c0.892,1.441,0.219,2.776,1.675,3.967c1.176,0.96,2.898,1.531,3.258,1.078
						c-0.01,0.031-0.02,0.063-0.028,0.093c-0.19,0.619-1.979,0.066-3.249-0.972c-1.456-1.189-0.823-2.617-1.715-4.06
						c-0.189-0.306-0.478-0.609-0.508-1.21C250.052,313.477,250.316,314.03,250.457,314.258z"/>
				</g>
				<path fill="#4F5997" d="M255.073,309.854c0,0,0.214,0.399,0.714,0.619c0.512,0.226,1.316,0.264,2.494-0.501
					c0,0,0.279-14.673,1.094-18.975l-3.508,6.188l-1.472,0.054h-0.002c0,0-0.607,4.719-0.243,7.196
					C254.517,306.914,255.073,309.854,255.073,309.854z"/>
				<path fill="#4F5997" d="M254.329,297.076c0.018,0.057,0.039,0.11,0.064,0.163h0.002c0.217,0.459,0.688,0.732,1.231,0.853
					c1.072,0.238,2.42-0.124,2.652-0.842c0.016-0.043,0.03-0.097,0.049-0.154c0.423-1.406,1.324-7.324,1.892-11.722
					c0.592-4.583-0.63-7.825-0.63-7.825l-5.518,2.07c0,0-0.049,2.702-0.066,5.941C253.982,289.999,254.044,296.182,254.329,297.076z
					"/>
				<path fill="#A8B0C2" d="M255.073,309.854c0,0,0.214,0.399,0.714,0.619c-0.377-2.454-0.989-6.649-0.887-7.513
					c0.066-0.58,0.214-3.42,0.371-4.787c1.073-9.283,0.946-12.163,0.946-12.163l1.193-1.82l-3.405,1.37
					c-0.023,4.438,0.039,10.621,0.323,11.516c0.018,0.057,0.039,0.11,0.064,0.163c0,0-0.607,4.719-0.243,7.196
					C254.517,306.914,255.073,309.854,255.073,309.854z"/>
				<path fill="#4F5997" d="M257.53,281.512l0.782,0.917c0,0,0.068,1.132-2.433,3.014c-0.015,2.653-0.898,8.144-1.822,13.156
					c-0.396,2.146-3.373,0.451-3.804-1.897c-0.432-2.348-2.35-9.712-2.515-11.523c-0.165-1.811-0.308-3.654,0.947-4.722
					S257.53,281.512,257.53,281.512z"/>
				<path fill="#4F5997" d="M253.434,311.856c-0.469-1.644-0.049-10.652,0.623-13.258c-3.463-2.016-3.905-2.407-3.905-2.407
					s-1.211,5.707-1.215,8.035c-0.003,1.332,1.451,7.91,1.451,7.91S251.738,313.563,253.434,311.856z"/>
				<g>
					<path fill="#8C92B0" d="M250.817,312.946l0.243-0.062c-0.014-0.057-1.428-5.748-1.439-8.379
						c-0.009-2.047,0.465-4.697,0.777-6.451c0.146-0.821,0.263-1.47,0.293-1.836c0.03-0.367-0.188-1.414-0.492-2.864
						c-0.689-3.297-1.733-8.28-0.869-10.157l-0.229-0.105c-0.898,1.952,0.154,6.984,0.852,10.314
						c0.287,1.375,0.516,2.46,0.488,2.791c-0.03,0.355-0.145,0.998-0.29,1.813c-0.315,1.764-0.79,4.428-0.782,6.497
						C249.38,307.168,250.802,312.889,250.817,312.946z"/>
				</g>
			</g>
			<g>
				<path fill="#FEBFBF" d="M258.156,260.396c0,0,1.454-0.29,1.924,0.594c0.471,0.884,2.195,10.557,2.172,11.063
					c-0.023,0.505-1.917,2.521-2.958-1.847C258.253,265.837,258.156,260.396,258.156,260.396z"/>
				<path fill="#FEBFBF" d="M259.765,273.749c0,0,2.49-0.43,2.583-0.392s3.014-0.824,1.736-1.16
					c-1.277-0.335-2.066-0.357-2.066-0.357S258.055,272.321,259.765,273.749z"/>
				<g>
					<path fill="#E6F1FF" d="M256.671,259.628l1.517,0.034c0,0,1.69,0.314,2.173,1.426s0.861,3.605,0.861,3.605
						s-0.645,0.48-1.345,0.791C259.176,265.797,256.671,259.628,256.671,259.628z"/>
				</g>
				<path fill="#DDE8F6" d="M248.744,280.986c0.146,0.152,0.533,0.356,1.075,0.553c1.293,0.466,3.479,0.895,5.461,0.514
					c2.813-0.539,4.563-1.906,4.85-3.004c-0.051-0.474-0.033-5.295,0.049-6.408c0.084-1.113,0.877-3.148,0.885-3.941
					c0.008-0.792-0.642-2.492-0.792-3.379c-0.149-0.885-1.013-4.46-1.398-4.881c-0.282-0.309-0.777-0.582-1.707-0.729
					c-0.676-0.106-4.418-0.609-5.176-0.308c-0.761,0.303-1.503,0.916-2.325,1.483c-0.823,0.565-2.854,2.024-2.854,2.024
					s0.894,3.357,1.189,5.191c0.073,0.458,0.131,0.85,0.164,1.115c0.161,1.325,0.159,8.52,0.159,8.52
					S248.248,280.471,248.744,280.986z"/>
				<path fill="#FEBFBF" d="M251.923,259.282c-0.142,0.008-0.504,0.552-1.133,0.867s-0.647,0.4,0.117,1.092
					c0.764,0.69,3.486,3.78,5.203,3.403c1.718-0.378,1.621-2.051,1.55-2.72c-0.071-0.668-1.104-2.187-1.437-2.33
					C255.891,259.451,251.923,259.282,251.923,259.282z"/>
				<path fill="#DDE8F6" d="M248.744,280.986c0.146,0.152,0.533,0.356,1.075,0.553c-0.023-0.14-0.053-0.291-0.089-0.455
					c-0.893-4.21,0.338-3.717,0.448-5.425c0.112-1.71-0.362-3.05,0.216-2.971s1.32,0.124,2.229-0.321
					c-0.742,0.288-1.673,0.195-2.289-0.24c-0.616-0.435-0.407-3.798-0.407-3.798c-0.779-0.354-1.414-0.401-1.928-0.227
					c0.073,0.458,0.131,0.85,0.164,1.115c0.161,1.325,0.159,8.52,0.159,8.52S248.248,280.471,248.744,280.986z"/>
				<g>
					<path fill="#FEBFBF" d="M248.359,263.146c0,0,1.072,0.092,1.275,1.988s-0.872,10.173-1.579,10.984
						c-0.708,0.813-1.793,0.303-2.113-1.484s-0.268-6.964-0.243-7.592C245.723,266.414,245.919,262.152,248.359,263.146z"/>
					<path fill="#FEBFBF" d="M247.845,275.057c0,0,0.365,0.311,0.66,1.604c0.295,1.294,0.929,7.556,1.421,8.202
						c0.493,0.646,1.055,1.166,1.055,1.166s0.561,0.942,0.592,1.233s0.263,0.91,0.381,1.063c0.117,0.153,0.52,0.727,0.487,0.858
						c-0.031,0.133-0.418,0.22-0.582,0.063s-0.644-1.283-0.803-1.487c-0.16-0.203-0.335-0.268-0.335-0.268s-0.161,0.79-0.104,0.986
						s0.61,1.489,0.61,1.489s0.536,0.799,0.553,0.87c0.018,0.072-0.28,0.132-0.432,0.001c-0.152-0.131-0.115,0.131-0.418,0.054
						c-0.303-0.078-1.122-0.772-1.122-0.772l-0.13-0.18l-0.601-0.11c0,0-0.869-1.415-0.93-1.805c-0.06-0.39-0.365-3.411-0.365-3.411
						s-2.67-7.332-1.688-9.369C246.546,274.607,247.845,275.057,247.845,275.057z"/>
					
						<linearGradient id="SVGID_2_" gradientUnits="userSpaceOnUse" x1="3807.4204" y1="76.2319" x2="3808.8022" y2="76.2319" gradientTransform="matrix(-0.9943 0.1065 0.1065 0.9943 4028.8311 -191.5432)">
						<stop  offset="0.1224" style="stop-color:#FCA4B5"/>
						<stop  offset="0.9896" style="stop-color:#FFADB7"/>
					</linearGradient>
					<path fill="url(#SVGID_2_)" d="M249.741,288.799c0,0,0.527,1.117,0.643,1.229c0.115,0.112,0.966,0.811,0.966,0.811
						l-0.193,0.021c0,0-0.388-0.396-0.485-0.468c-0.098-0.073-0.435-0.382-0.435-0.382l-0.469-0.971L249.741,288.799z"/>
					
						<linearGradient id="SVGID_3_" gradientUnits="userSpaceOnUse" x1="3808.9849" y1="75.6973" x2="3809.5015" y2="75.6973" gradientTransform="matrix(-0.9943 0.1065 0.1065 0.9943 4028.8311 -191.5432)">
						<stop  offset="0.1224" style="stop-color:#FCA4B5"/>
						<stop  offset="0.9896" style="stop-color:#FFADB7"/>
					</linearGradient>
					<path fill="url(#SVGID_3_)" d="M249.045,288.874l0.494,0.947l0.14,0.118l-0.136-0.024c0,0-0.201-0.204-0.26-0.362
						C249.225,289.393,249.045,288.874,249.045,288.874z"/>
					<path fill="#E6F1FF" d="M248.216,262.921c0,0,0.972,0.187,1.46,1.527c0.489,1.342,0.003,4.789,0.003,4.789
						s-1.409-0.14-2.857-0.522c-1.449-0.383-1.587-1.028-1.587-1.028s0.739-3.146,0.991-3.628S246.503,262.4,248.216,262.921z"/>
				</g>
			</g>
			<g>
				
					<linearGradient id="SVGID_4_" gradientUnits="userSpaceOnUse" x1="3803.3589" y1="47.1504" x2="3800.7317" y2="43.8453" gradientTransform="matrix(-0.9943 0.1065 0.1065 0.9943 4028.8311 -191.5432)">
					<stop  offset="0.1224" style="stop-color:#FEC7C7"/>
					<stop  offset="0.9694" style="stop-color:#FFADB7"/>
				</linearGradient>
				<path fill="url(#SVGID_4_)" d="M256.658,259.01c0,0-0.297,0.709-0.228,1.35c0.068,0.641,0.431,1.707,0.431,1.707
					s-0.389,0.759-1.958,0.596s-1.628-0.709-2.127-0.986c-0.499-0.278-1.786-1.559-1.707-1.65c0.08-0.091,1.376-0.747,0.864-2.607
					c-0.512-1.859-1.254-2.819-1.254-2.819s-0.44-0.78,0.104-0.838C251.326,253.702,256.658,259.01,256.658,259.01z"/>
				
					<linearGradient id="SVGID_5_" gradientUnits="userSpaceOnUse" x1="3798.7515" y1="46.8374" x2="3802.3101" y2="46.8374" gradientTransform="matrix(-0.9943 0.1065 0.1065 0.9943 4028.8311 -191.5432)">
					<stop  offset="0.1224" style="stop-color:#FCA4B5"/>
					<stop  offset="0.9896" style="stop-color:#FFADB7"/>
				</linearGradient>
				<path fill="url(#SVGID_5_)" d="M252.986,258.143c0,0,1.347,1.24,1.634,1.873c0.286,0.631,1.593,1.484,1.593,1.484l0.209-1.406
					l0.236-1.084L252.986,258.143z"/>
				<path fill="#FEC7C7" d="M256.971,250.338c0,0,0.572,0.449,0.95,1.401c0.379,0.954,0.645,1.767,0.621,1.935
					s-0.164,0.529,0.061,1.208c0.225,0.681-0.444,4.092-1.181,4.433c-0.736,0.342-4.155-0.783-4.538-1.267s-1.367-2.448-1.495-3.772
					c-0.128-1.325-0.528-2.869,1.386-3.682S256.971,250.338,256.971,250.338z"/>
				<g>
					
						<linearGradient id="SVGID_6_" gradientUnits="userSpaceOnUse" x1="3797.6958" y1="42.6782" x2="3796.679" y2="42.71" gradientTransform="matrix(-0.9943 0.1065 0.1065 0.9943 4028.8311 -191.5432)">
						<stop  offset="0.1224" style="stop-color:#FEC7C7"/>
						<stop  offset="0.9896" style="stop-color:#FFDBDB"/>
					</linearGradient>
					<path fill="url(#SVGID_6_)" d="M257.437,254.046c-0.07,0.376,0.912,1.903,0.959,2.245c0.045,0.343-0.918,0.326-0.918,0.326
						L257.437,254.046z"/>
					
						<linearGradient id="SVGID_7_" gradientUnits="userSpaceOnUse" x1="3796.6831" y1="42.7061" x2="3797.688" y2="42.7061" gradientTransform="matrix(-0.9943 0.1065 0.1065 0.9943 4028.8311 -191.5432)">
						<stop  offset="0.188" style="stop-color:#FFDCDC"/>
						<stop  offset="0.8991" style="stop-color:#FEC7C7"/>
					</linearGradient>
					<path fill="url(#SVGID_7_)" d="M257.643,256.666c0.226-0.01,0.608-0.051,0.749-0.208c0.045-0.051,0.063-0.108,0.054-0.173
						c-0.02-0.15-0.197-0.49-0.402-0.885c-0.265-0.509-0.594-1.143-0.556-1.346l-0.101-0.019c-0.044,0.237,0.267,0.835,0.566,1.411
						c0.192,0.369,0.374,0.719,0.392,0.852c0.005,0.034-0.005,0.063-0.029,0.092c-0.138,0.153-0.654,0.18-0.837,0.176l-0.002,0.102
						C257.497,256.668,257.559,256.67,257.643,256.666z"/>
				</g>
				<g>
					<path fill="#754554" d="M254.834,254.186c1.176-0.254,1.818-0.182,1.825-0.18l0.021-0.169
						c-0.027-0.003-0.675-0.078-1.882,0.184L254.834,254.186z"/>
				</g>
				<g>
					<path fill="#754554" d="M257.682,253.815c0.235-0.165,0.629-0.384,0.756-0.358l0.034-0.166
						c-0.258-0.053-0.783,0.313-0.888,0.386L257.682,253.815z"/>
				</g>
				
					<ellipse transform="matrix(-0.9579 0.287 -0.287 -0.9579 573.8265 425.612)" fill="#FFFFFF" cx="255.723" cy="254.858" rx="0.357" ry="0.305"/>
				
					<ellipse transform="matrix(-0.7052 -0.7091 0.7091 -0.7052 259.4648 616.7073)" fill="#FFFFFF" cx="257.955" cy="254.407" rx="0.251" ry="0.289"/>
				<path fill="#FB7F9E" d="M256.394,257.838c0,0,0.978-0.347,1.372-0.402c0.394-0.057,0.422,0.079,0.396,0.213
					C258.134,257.782,257.528,258.758,256.394,257.838z"/>
				<path fill="#754554" d="M250.906,254.787c0,0,0.309-0.405,0.544-0.271c0.235,0.134,0.676,0.314,0.695,0.499
					c0.02,0.184,0.195,1.18,0.195,1.18s0.417-0.742,0.339-1.479c-0.079-0.737,0.142-1.769,0.438-2.228
					c0.295-0.46,0.592-1.168,1.297-1.284c0.705-0.117,1.686,0.012,2.26-0.035c0.575-0.049,0.808-0.255,0.808-0.255l0.526,1.042
					c0,0-0.035-0.522-0.36-1.104c-0.324-0.582-2.678-3.228-5.941-1.359c-2.399,1.182-2.224,3.854-1.844,4.82
					s1.519,1.818,1.637,2.115c0.117,0.297,0.433,0.713,0.435,0.988c0.002,0.276-0.143-1.033-0.379-1.588
					C251.317,255.276,250.906,254.787,250.906,254.787z"/>
				
					<linearGradient id="SVGID_8_" gradientUnits="userSpaceOnUse" x1="3802.7759" y1="42.4795" x2="3804.4126" y2="42.4795" gradientTransform="matrix(-0.9943 0.1065 0.1065 0.9943 4028.8311 -191.5432)">
					<stop  offset="0.1224" style="stop-color:#FEB9B8"/>
					<stop  offset="1" style="stop-color:#FFDEDE"/>
				</linearGradient>
				<path fill="url(#SVGID_8_)" d="M251.785,254.998c0,0-0.85-0.84-1.15-0.173s0.379,1.415,0.818,1.775
					c0.438,0.36,0.76,0.457,0.883,0.257c0.123-0.199-0.209-0.922-0.209-0.922L251.785,254.998z"/>
				
					<linearGradient id="SVGID_9_" gradientUnits="userSpaceOnUse" x1="3803.0405" y1="42.3691" x2="3804.1743" y2="42.3691" gradientTransform="matrix(-0.9943 0.1065 0.1065 0.9943 4028.8311 -191.5432)">
					<stop  offset="0.1224" style="stop-color:#FCA4B5"/>
					<stop  offset="0.9896" style="stop-color:#FFADB7"/>
				</linearGradient>
				<path fill="url(#SVGID_9_)" d="M251.662,255.012c0,0-0.541-0.48-0.764-0.104c-0.222,0.376-0.027,1.031,0.545,1.577
					c0.549,0.196,0.627-0.04,0.62-0.107c-0.007-0.068-0.219-0.371-0.248-0.64C251.787,255.468,251.662,255.012,251.662,255.012z"/>
			</g>
			<g>
				<path fill="#FEBFBF" d="M261.73,272.115l0.412-0.965c0,0,1.133-0.332,1.396-0.277s2.146,0.874,2.146,0.874
					s0.843,0.747,0.275,1.028s-1.106,0.237-1.106,0.237l-0.048,0.585l-0.917,0.715l-0.912-0.013l-0.732-0.585l-0.79-0.144
					c0,0-0.556-0.807-0.39-0.971c0.167-0.165,0.674-0.072,0.674-0.072l0.465,0.052L261.73,272.115z"/>
				<g>
					<path fill="#C4C8D8" d="M260.53,272.998c-0.055,0.022,0.021,0.411,0.024,0.422c0.007,0.016,0.084,0.014,0.21-0.006
						c1.937-0.32,3.143-0.519,5.073-0.837c0.211-0.036,0.514-0.114,0.658-0.175c0.002-0.001,0.003-0.002,0.005-0.003
						c0.63-0.264,1.255-0.526,1.885-0.79c0.053-0.023,0.079-0.041,0.079-0.052c0-0.005-0.029-0.408-0.036-0.41
						c-0.024-0.008-0.355,0.134-0.465,0.153c-1.932,0.318-2.846,0.779-4.782,1.099c-0.209,0.032-0.516,0.116-0.663,0.177
						c-0.629,0.265-1.354,0.155-1.982,0.419C260.534,272.996,260.532,272.997,260.53,272.998L260.53,272.998z"/>
					<path fill="#F5F5F5" d="M268.239,271.223c-0.616,0.259-1.235,0.519-1.851,0.777c-0.12,0.05-0.375,0.118-0.557,0.148
						c-1.911,0.315-3.098,0.511-5.014,0.827c-0.182,0.029-0.226,0.011-0.105-0.04c0.615-0.258,1.234-0.518,1.851-0.776
						c0.12-0.05,0.37-0.118,0.552-0.147c1.916-0.316,3.103-0.512,5.014-0.827C268.31,271.154,268.359,271.173,268.239,271.223
						L268.239,271.223z M260.592,272.961c-0.145,0.061-0.069,0.077,0.136,0.045c1.937-0.32,3.143-0.519,5.073-0.838
						c0.212-0.035,0.514-0.114,0.658-0.174c0.001-0.001,0.003-0.002,0.005-0.003c0.629-0.264,1.255-0.526,1.884-0.791
						c0.139-0.059,0.097-0.085-0.13-0.046c-1.932,0.318-3.137,0.518-5.073,0.837c-0.209,0.032-0.515,0.116-0.663,0.177
						c-0.629,0.265-1.255,0.527-1.885,0.791C260.596,272.959,260.594,272.961,260.592,272.961L260.592,272.961z"/>
					<path fill="#7C78F0" d="M267.308,271.554c-0.153,0.064-0.307,0.128-0.46,0.192l-0.046,0.012l-0.008-0.002
						c0.153-0.064,0.307-0.129,0.459-0.193l0.042-0.011L267.308,271.554L267.308,271.554z M266.766,271.787l-0.087,0.023
						l-0.016-0.006l0.086-0.024L266.766,271.787L266.766,271.787z M266.655,271.84l-0.129,0.034l-0.023-0.009l0.124-0.033
						L266.655,271.84L266.655,271.84z M260.712,272.936c-0.12,0.051-0.076,0.069,0.105,0.04c1.916-0.316,3.103-0.512,5.014-0.827
						c0.182-0.03,0.437-0.099,0.557-0.148c0.615-0.259,1.234-0.519,1.851-0.777c0.12-0.05,0.071-0.068-0.11-0.038
						c-1.911,0.315-3.098,0.511-5.014,0.827c-0.182,0.029-0.432,0.098-0.552,0.147C261.947,272.418,261.328,272.678,260.712,272.936
						L260.712,272.936z"/>
					<path fill="#2A2A2C" d="M266.794,271.756c0.153-0.064,0.307-0.129,0.459-0.193l0.042-0.011l0.013,0.002
						c-0.153,0.064-0.307,0.128-0.46,0.192l-0.046,0.012L266.794,271.756L266.794,271.756z"/>
					<path fill="#838383" d="M266.625,271.846l-0.083,0.021l-0.011-0.007l0.074-0.02L266.625,271.846L266.625,271.846z
						 M266.502,271.865l0.023,0.009l0.129-0.034l-0.028-0.008L266.502,271.865L266.502,271.865z"/>
					<polygon fill="#516F83" points="266.532,271.86 266.606,271.841 266.625,271.846 266.542,271.867 266.532,271.86 					"/>
					<polygon fill="#2A2A2C" points="266.664,271.805 266.75,271.78 266.766,271.787 266.679,271.811 266.664,271.805 					"/>
				</g>
				
					<linearGradient id="SVGID_10_" gradientUnits="userSpaceOnUse" x1="3791.939" y1="61.2671" x2="3794.8296" y2="61.2671" gradientTransform="matrix(-0.9943 0.1065 0.1065 0.9943 4028.8311 -191.5432)">
					<stop  offset="0.1224" style="stop-color:#FCA4B5"/>
					<stop  offset="0.9896" style="stop-color:#FFADB7"/>
				</linearGradient>
				<polygon fill="url(#SVGID_10_)" points="264.942,272.729 264.871,272.92 265.007,272.996 264.934,273.511 263.447,273.882 
					262.162,273.568 263.485,273.639 264.591,273.143 264.611,272.901 263.298,273.015 				"/>
				
					<linearGradient id="SVGID_11_" gradientUnits="userSpaceOnUse" x1="3792.771" y1="59.6499" x2="3794.5415" y2="59.1953" gradientTransform="matrix(-0.9943 0.1065 0.1065 0.9943 4028.8311 -191.5432)">
					<stop  offset="0.1224" style="stop-color:#FEB9B8"/>
					<stop  offset="1" style="stop-color:#FFDEDE"/>
				</linearGradient>
				<path fill="url(#SVGID_11_)" d="M262.514,271.534c0,0,0.116,0.742,0.236,0.83c0.12,0.089,0.454,0.034,0.558-0.289
					c0.104-0.324,0.129-0.511,0.129-0.511l0.396,0.178c0,0,0.686-0.561,0.124-0.822s-1.243-0.263-1.243-0.263
					s-0.398,0.23-0.365,0.282C262.382,270.99,262.514,271.534,262.514,271.534z"/>
				
					<linearGradient id="SVGID_12_" gradientUnits="userSpaceOnUse" x1="3792.1597" y1="59.6191" x2="3793.6401" y2="59.6191" gradientTransform="matrix(-0.9943 0.1065 0.1065 0.9943 4028.8311 -191.5432)">
					<stop  offset="0.1224" style="stop-color:#FCA4B5"/>
					<stop  offset="0.9896" style="stop-color:#FFADB7"/>
				</linearGradient>
				<polygon fill="url(#SVGID_12_)" points="263.453,271.111 263.424,272.055 263.229,272.368 263.495,272.241 263.939,272.035 
					264.666,271.871 264.187,271.861 264.236,271.377 263.663,271.86 				"/>
			</g>
		</g>
	</g>
</g>
</svg>
