<?xml version="1.0" encoding="utf-8"?>
<!-- Generator: Adobe Illustrator 16.0.0, SVG Export Plug-In . SVG Version: 6.00 Build 0)  -->
<!DOCTYPE svg PUBLIC "-//W3C//DTD SVG 1.1//EN" "http://www.w3.org/Graphics/SVG/1.1/DTD/svg11.dtd">
<svg version="1.1" id="Layer_1" xmlns="http://www.w3.org/2000/svg" xmlns:xlink="http://www.w3.org/1999/xlink" x="0px" y="0px"
	 width="463.683px" height="425.749px" viewBox="0 0 463.683 425.749" enable-background="new 0 0 463.683 425.749"
	 xml:space="preserve">
<g>
	<g>
		<path fill="#FEBFBF" d="M96.319,49.944c0,0,1.286,0.244,1.615,2.126c0.329,1.883,0.857,8.588,0.425,9.517
			c-0.432,0.928-1.761-0.673-2.227-4.862C95.667,52.536,93.863,50.502,96.319,49.944z"/>
		<path fill="#FEBFBF" d="M99.494,70.423c0,0-0.071,0.439,0.017,0.75s0.48,1.516,0.48,1.516s-0.022,0.437-0.002,0.652
			c0.026,0.216-0.291,1.105-0.141,1.307c0.014,0.024,0.027,0.036,0.047,0.053l0.006,0c0.11,0.074,0.239-0.052,0.292-0.105
			l-0.116,0.231c0,0-0.005,0.013,0.009,0.049c0.008,0.03,0.03,0.085,0.079,0.169c0.049,0.09,0.137,0.104,0.211,0.093
			c0.08-0.012,0.146-0.047,0.146-0.047s-0.014,0.082,0.004,0.167l0,0.006c0.018,0.08,0.065,0.157,0.167,0.182
			c0.063,0.015,0.154-0.016,0.257-0.065c0.229-0.114,0.507-0.336,0.548-0.37c0,0.013-0.009,0.063-0.005,0.118
			c-0.004,0.118,0.024,0.272,0.198,0.279c0.274,0.008,1.037-1.289,1.037-1.289s-0.084-1.523-0.112-1.775
			c-0.021-0.248-0.996-1.31-1.324-2.084c-0.334-0.774-1.922-7.922-2.395-9.408c-0.473-1.492-0.875-1.069-0.875-1.069
			c-0.317-0.011-1.473,1.162-1.318,2.636C96.858,63.887,99.494,70.423,99.494,70.423z"/>
		<path fill="#485455" d="M94.704,49.689c0,0,2.142-0.589,3.124,1.267c0.981,1.856,0.815,8.219,0.928,9.015
			c0.428,0.981,2.467,9.012,2.445,9.486s-1.571,0.885-1.928,0.885s-3.148-8.601-3.359-9.771
			C95.704,59.399,94.704,49.689,94.704,49.689z"/>
		
			<linearGradient id="SVGID_1_" gradientUnits="userSpaceOnUse" x1="4092.4077" y1="-47.0308" x2="4094.4858" y2="-47.0308" gradientTransform="matrix(-0.998 0.0629 0.0629 0.998 4189.5249 -137.1323)">
			<stop  offset="0.1224" style="stop-color:#FCA4B5"/>
			<stop  offset="0.9896" style="stop-color:#FFADB7"/>
		</linearGradient>
		<path fill="url(#SVGID_1_)" d="M100.521,75.091c0,0-0.014,0.082,0.004,0.167c0.037-0.201,0.433-0.524,0.433-0.524
			s0.382-0.546,0.382-0.646c-0.006-0.099,0.008-0.565,0.008-0.565l0.091-0.13l0.07,0.623l0.131,0.401l-0.254,0.495l-0.437,0.469
			c0.229-0.114,0.507-0.336,0.548-0.37c0,0.013-0.009,0.063-0.005,0.118c0,0,0.271-0.427,0.353-0.414
			c0.082,0.02,0.358-0.029,0.358-0.029l0.112-0.485c0,0,0.025-1.38-0.019-1.471c-0.036-0.079-0.228-0.557-0.278-0.678
			c0.019,0.204,0.188,1.498,0.178,1.734c-0.016,0.25,0.043,0.68-0.043,0.804c-0.091,0.124-0.289,0.043-0.339-0.059
			c-0.056-0.102-0.245-0.823-0.245-0.823l-0.03-0.284l-0.257-0.735c0,0-0.35-0.22-0.624-0.737c-0.092-0.18-0.139-0.327-0.165-0.443
			c0.003,0.447,0.109,0.745,0.265,0.952c0.184,0.256,0.424,0.327,0.424,0.327l0.176,0.417l-0.273-0.001l0.194,0.13
			c0,0-0.038,0.48-0.037,0.698c0.001,0.224-0.443,0.661-0.499,0.752c-0.063,0.084-0.359,0.32-0.359,0.32l-0.01,0.032
			C100.455,75.126,100.521,75.091,100.521,75.091z"/>
		
			<linearGradient id="SVGID_2_" gradientUnits="userSpaceOnUse" x1="4094.0396" y1="-46.585" x2="4094.9312" y2="-46.585" gradientTransform="matrix(-0.998 0.0629 0.0629 0.998 4189.5249 -137.1323)">
			<stop  offset="0.1224" style="stop-color:#FCA4B5"/>
			<stop  offset="0.9896" style="stop-color:#FFADB7"/>
		</linearGradient>
		<path fill="url(#SVGID_2_)" d="M100.192,74.596l-0.116,0.231c0,0-0.005,0.013,0.009,0.049c0.091-0.13,0.171-0.247,0.201-0.261
			c0.073-0.029,0.357-0.737,0.357-0.737l0.046-0.854l-0.258-0.059l0.153,0.158l-0.117,0.703l-0.312,0.666L99.9,74.702
			C100.01,74.775,100.139,74.649,100.192,74.596z"/>
	</g>
	<g>
		<path fill="#BDD6F2" d="M99.509,106.407c-4.021,2.559-10.728,2.836-14.981,0.619s-4.441-6.088-0.42-8.646
			c4.021-2.559,10.729-2.836,14.981-0.62C103.342,99.977,103.531,103.849,99.509,106.407z"/>
		<g>
			<path fill="#FEBFBF" d="M92.95,96.69c0,0-1.057,0.929-0.897,1.481c0.16,0.553,2.321,3.948,3.439,4.33
				c2.325,0.794,1.759-1.318,1.37-1.751c-0.342-0.381-1.701-1.427-1.696-2.428C95.172,96.973,92.95,96.69,92.95,96.69z"/>
			<path fill="#8E8E8E" d="M93.226,99.874c0,0-0.388,0.136-0.391,0.433c-0.002,0.297-0.028,1.414-0.028,1.414
				s-0.26,0.142-0.407,0.076c-0.147-0.067-0.357-0.416-0.357-0.416s-0.227-2.195-0.343-2.64
				C91.585,98.296,93.226,99.874,93.226,99.874z"/>
			<path fill="#3F4A4B" d="M91.937,97.333c0,0,1.572,1.843,2.199,3.063c0.627,1.221,1.299,1.707,1.792,1.681
				c0.787-0.041,1.29-0.53,1.112-0.928c-0.177-0.398-0.177-0.398-0.177-0.398s2.037,2.085,1.793,3.413
				c-0.245,1.328-3.782-0.455-4.326-1.135c-0.208-0.259-0.64-2.171-1.106-2.71s-1.179-0.297-1.487-1.408
				C91.428,97.798,91.937,97.333,91.937,97.333z"/>
			<path fill="#8E8E8E" d="M93.121,100.056c0.467,0.539,1.087,2.544,1.295,2.804c0.506,0.633,3.617,2.182,4.24,1.28
				c-0.001,0.008-0.001,0.016-0.002,0.023c-0.245,1.328-3.782-0.455-4.326-1.135c-0.208-0.259-0.64-2.171-1.106-2.711
				c-0.406-0.469-1.215-0.307-1.429-1.229C92.125,99.312,92.783,99.664,93.121,100.056z"/>
			<path fill="#4F5997" d="M91.833,85.771c0,0.002,0,0.002,0,0.004c0.023,0.094,0.05,0.184,0.081,0.266
				c0.096,0.267,0.265,0.477,0.485,0.636c0,0,0,0,0,0.002c1.074,0.797,3.3,0.405,3.517-0.403c0.591-2.208,0.292-7.783,0.73-10.695
				c0.44-2.911-0.776-7.875-0.776-7.875s-4.261,1.55-5.194,2.223c-0.555,0.399-0.267,3.191,0.124,5.67
				c0.267,1.701,0.584,3.255,0.711,3.785C91.81,80.617,91.394,84.07,91.833,85.771z"/>
			<path fill="#2A3637" d="M92.291,97.589c0.026,0.21,0.18,0.398,0.416,0.531c0.512,0.288,1.41,0.313,2.254-0.29
				c0,0,0.745-13.75,1.562-17.958c-1.581-0.323-3.856,4.304-4.539,4.273c-0.332-0.015-0.498,0.12-0.447,0.519
				c0,0.002,0,0.002,0,0.004c0.158,1.223-0.555,4.874-0.325,6.293C91.444,92.384,92.208,96.923,92.291,97.589z"/>
			<path fill="#A8B0C2" d="M92.291,97.589c0.026,0.21,0.18,0.398,0.416,0.531c-0.17-1.701-0.443-3.841-0.789-5.388
				c-0.501-2.25,0.151-5.492,0.186-7.159c0-0.003,0-0.003,0-0.003c0.006-0.297-0.009-0.58-0.058-0.845
				c-0.033-0.174-0.052-0.369-0.061-0.58c-0.098-1.898,0.57-5.055,0.382-6.213c-0.07-0.432-0.204-1.593-0.064-2.256
				c0.276-1.311,0.993-2.185,0.993-2.185c-1.129,0.123-2.047,0.473-2.792,1c0.266,1.702,0.583,3.255,0.711,3.785
				c0.299,1.234-0.118,4.688,0.322,6.388c0,0.002,0,0.002,0,0.004c0.158,1.223-0.555,4.874-0.325,6.293
				C91.444,92.384,92.208,96.923,92.291,97.589z"/>
			<g>
				<path fill="#8E8E8E" d="M88.471,101.046c0,0-0.572-0.158-0.561,0.139c0.011,0.297,0.131,2.144,0.131,2.144
					s-0.128,0.13-0.278,0.07c-0.149-0.06-0.375-0.399-0.375-0.399s-0.269-1.801-0.27-2.261
					C87.117,100.192,88.471,101.046,88.471,101.046z"/>
				<path fill="#FEBFBF" d="M88.26,98.446c0,0-0.833,0.703-0.798,1.585c0.034,0.868,1.198,4.365,2.316,4.747
					c1.118,0.381,2.213-0.362,2.11-0.864c-0.104-0.502-1.121-2.04-1.418-3.269C90.153,99.332,88.26,98.446,88.26,98.446z"/>
				<path fill="#3F4A4B" d="M90.463,100.132c0,0,0.871,1.552,1.257,2.614c0.843,2.316,0.826,3.336,0.666,3.896
					c-0.166,0.583-1.853,0.1-3.063-0.849c-1.387-1.087-0.821-2.437-1.685-3.771c-0.28-0.434-0.538-0.748-0.555-1.793
					c-0.03-0.888,0.749-1.274,0.749-1.274s-0.576,0.913-0.244,1.659c0.167,0.375,0.111,0.54,0.361,1.008
					c0.497,0.932,0.595,1.851,1.295,2.518c0.657,0.626,2.554,0.193,2.495-0.184c-0.11-0.696-0.746-1.86-1.002-2.51
					C90.431,100.672,90.463,100.132,90.463,100.132z"/>
				<path fill="#8E8E8E" d="M87.693,101.921c0.863,1.335,0.258,2.598,1.645,3.685c1.12,0.878,2.746,1.38,3.074,0.949
					c-0.009,0.029-0.017,0.059-0.025,0.087c-0.166,0.583-1.853,0.1-3.063-0.849c-1.387-1.087-0.821-2.437-1.685-3.771
					c-0.184-0.283-0.459-0.562-0.499-1.125C87.299,101.197,87.557,101.71,87.693,101.921z"/>
			</g>
			<path fill="#4F5997" d="M94.878,73.223c0,0,0.167,1.748-0.403,2.9c-0.571,1.152-1.647,1.98-1.647,1.98s-1.486,7.252-2.978,10.18
				c-0.668,1.313-3.051,1.037-3.343-1.237c-0.291-2.274-0.392-4.296-1.473-9.276c-0.263-1.213-0.409-3.403,1.153-5.838
				C87.751,69.496,94.878,73.223,94.878,73.223z"/>
			<path fill="#2A3637" d="M91.673,88.686c0,0,0.527,0.164,0.091,1.056c-0.437,0.892-2.14,6.916-1.647,9.963
				c-0.966,0.964-2.107,0.731-2.468-0.222c-0.36-0.953-0.971-7.542-0.594-8.894c0.376-1.352,1.356-2.117,1.242-3.114
				S91.673,88.686,91.673,88.686z"/>
			<g>
				<g>
					<path fill="#3F4A4B" d="M84.64,75.503c0.015,0.248,0.02,0.719,0.008,1.343c0.291-0.133,0.593-0.292,0.899-0.483
						c4.73-2.852,11.458-11.604,11.814-12.633c0.01-0.039,0.015-0.058,0.015-0.058c0.168-1.386,0.308-1.28,0.94-3.587
						c0.625-2.313,0.236-4.454-0.438-6.958c-0.674-2.511-1.381-3.135-2.686-3.417c-1.31-0.274-9.728,1.052-10.843,2.255
						c-1.109,1.204-1.138,2.364-1.138,2.364s0.278,1.485,0.6,3.063c0.149,0.742,0.311,1.496,0.453,2.13
						c0.078,0.333,0.147,0.627,0.214,0.872c0.45,1.691,0.596,5.114,0.771,7.3c-0.051,0.201-0.107,0.421-0.149,0.666
						C84.674,70.483,84.513,74.002,84.64,75.503z"/>
					<path fill="#DDE0E7" d="M95.373,53.874c0,0-0.31,0.747-2.703,0.116c-2.393-0.63-3.296-2.221-3.296-2.221
						s-3.423-0.364-3.612-0.321c-0.189,0.042,1.986-1.111,1.986-1.111L95.373,53.874z"/>
					<path fill="#3F4A4B" d="M83.818,96.578c0,0,0.115,0.311,0.367,0.671c0.231,0.329,0.579,0.708,1.063,0.914
						c1.074,0.677,4.653-1.238,7.083-1.108c2.672,0.143,3.942-0.313,4.672-1.353c-0.143-6.124,1.003-17.133,0.387-23.165
						c-0.625-6.184-0.144-8.404-0.029-8.807c0.01-0.039,0.015-0.058,0.015-0.058s-7.143,1.251-10.464,2.702
						c-0.979,0.438-1.626,0.879-1.662,1.32c-0.023,0.237-0.074,0.451-0.149,0.666c-0.537,1.582-2.106,3.361,0.186,14.59
						C85.839,85.654,84.029,91.833,83.818,96.578z"/>
					<path fill="#DDE0E7" d="M84.185,97.249c0.788-4.271,2.46-11.308,2.507-12.775c0.069-2.348-0.678-6.16-0.761-8.53
						c-0.012-0.371-0.237-6.346-0.237-6.346s0.588-1.585,1.217-3.223c0.406-1.038,0.823-2.103,1.117-2.79
						c0.767-1.774-0.419-1.406-1.146-3.443c-0.721-2.043-0.576-4.103-0.576-4.103s-0.803,1.515-2.042,3.484
						c0.078,0.333,0.147,0.627,0.214,0.872c0.45,1.691,0.596,5.114,0.771,7.3c-0.051,0.201-0.107,0.421-0.149,0.666
						c-0.537,1.582-2.106,3.361,0.186,14.59c0.552,2.703-1.258,8.882-1.469,13.626C83.818,96.578,83.933,96.889,84.185,97.249z"/>
					<path fill="#DDE8F6" d="M83.958,52.448c0,0,0.953-0.999,2.153-1.04s3.396,0.175,4.016,0.199s-2.653-5.027-2.653-5.027
						s-2.004,2.016-2.482,2.613C84.515,49.79,83.822,51.954,83.958,52.448z"/>
					<path fill="#DDE8F6" d="M87.901,42.705c0,0,0.557-3.163,3.304-3.748c2.803-0.503,4.39,1.493,4.678,1.991
						c0.289,0.497,0.738,1.895,0.62,2.744c-0.119,0.85-1.131,6.326-2.366,6.369c-1.234,0.043-2.237-0.049-3.307-0.668
						c-1.07-0.62-3.036-2.094-3.355-2.813C87.142,45.656,87.901,42.705,87.901,42.705z"/>
					<path fill="#DDE8F6" d="M95.117,48.363c0,0,0.953,2.44,1.038,2.77c0.085,0.33,0.27,1.014,0.083,1.322
						c-0.187,0.308-0.378,1.492-1.428,1.636c-1.05,0.144-2.678-0.527-3.691-1.275c-1.013-0.748-2.104-1.702-2.652-2.625
						c-0.548-0.924-2.184-2.393-2.184-2.393l1.138-1.27C87.421,46.527,92.563,50.16,95.117,48.363z"/>
					<path fill="#FEC7C7" d="M96.321,42.501c0,0-0.271-0.833-0.89-0.627c-0.619,0.207-2.119,1.551-2.618,3.039
						s-0.592,2.267-0.569,3.451c0.023,1.185,1.065,1.621,1.252,1.706c0.188,0.085,1.058,0.147,1.439-0.091
						c0.381-0.238,1.301-2.884,1.456-3.487S96.484,42.825,96.321,42.501z"/>
					<g>
						
							<linearGradient id="SVGID_3_" gradientUnits="userSpaceOnUse" x1="4427.4194" y1="-99.7485" x2="4426.3423" y2="-99.25" gradientTransform="matrix(-0.998 0.0628 0.0628 0.998 4520.2163 -131.999)">
							<stop  offset="0.1224" style="stop-color:#FEC7C7"/>
							<stop  offset="0.9896" style="stop-color:#FFDBDB"/>
						</linearGradient>
						<path fill="url(#SVGID_3_)" d="M95.522,45.374c0.081,0.458,0.56,1.425,0.661,1.792c0.1,0.368-1.243,0.326-1.243,0.326
							L95.522,45.374z"/>
						
							<linearGradient id="SVGID_4_" gradientUnits="userSpaceOnUse" x1="4426.4829" y1="-99.1816" x2="4427.7896" y2="-99.936" gradientTransform="matrix(-0.998 0.0628 0.0628 0.998 4520.2163 -131.999)">
							<stop  offset="0.188" style="stop-color:#FFDCDC"/>
							<stop  offset="0.8991" style="stop-color:#FEC7C7"/>
						</linearGradient>
						<path fill="url(#SVGID_4_)" d="M95.319,47.536c0.324-0.014,0.751-0.063,0.876-0.222c0.037-0.048,0.048-0.103,0.033-0.161
							c-0.042-0.153-0.149-0.41-0.262-0.681c-0.165-0.394-0.351-0.84-0.397-1.106l-0.094,0.016c0.048,0.276,0.237,0.729,0.403,1.127
							c0.112,0.269,0.218,0.522,0.258,0.67c0.008,0.028,0.003,0.053-0.015,0.076c-0.143,0.181-0.9,0.196-1.18,0.189l-0.003,0.095
							C94.978,47.541,95.131,47.544,95.319,47.536z"/>
					</g>
					<circle fill="#FFFFFF" cx="93.75" cy="45.527" r="0.267"/>
					
						<ellipse transform="matrix(-0.9559 -0.2937 0.2937 -0.9559 174.3853 116.3276)" fill="#FFFFFF" cx="95.925" cy="45.073" rx="0.241" ry="0.317"/>
					<g>
						<path fill="#754554" d="M93.105,44.937c0.72-0.311,1.674-0.106,1.684-0.105l0.034-0.155c-0.04-0.009-1.014-0.217-1.782,0.114
							L93.105,44.937z"/>
					</g>
					<g>
						<path fill="#754554" d="M95.639,44.604c0.443-0.342,0.838-0.386,0.842-0.386l-0.016-0.158
							c-0.018,0.002-0.441,0.046-0.924,0.418L95.639,44.604z"/>
					</g>
					<g>
						<path fill="#FB7F9E" d="M94.372,48.747c0.329-0.014,1.008-0.07,1.269-0.289l-0.102-0.122c-0.249,0.208-1.056,0.255-1.35,0.256
							l0,0.159C94.2,48.752,94.269,48.751,94.372,48.747z"/>
					</g>
					<polygon fill="#C6D6ED" points="86.528,48.461 86.838,48.167 88.274,49.45 88.9,50.391 87.157,49.676 86.882,48.868 
						85.181,49.448 85.802,48.661 					"/>
					<path fill="#CDDDF5" d="M84.935,50.729c0,0,0.833-0.506,1.498-0.554c0.664-0.049,2.583,0.763,2.583,0.763l0.016,0.253
						l-2.185-0.67L84.935,50.729z"/>
					<path fill="#C6D6ED" d="M93.764,53.143c0,0,1.292,0.045,1.612-1.413c0.32-1.458,0.159-1.539,0.159-1.539
						s0.915,1.408-0.099,3.053C94.931,53.671,94.056,53.417,93.764,53.143z"/>
					<path fill="#CDDDF5" d="M89.015,50.1c0,0,2,2.838,4.792,3.719c0.434,0.076-0.042-0.319-0.628-0.631
						C92.592,52.877,91.103,52.353,89.015,50.1z"/>
					<path fill="#CDDDF5" d="M91.148,50.61c0,0,0.914,1.015,1.832,1.258c0.917,0.244,2.199,0.283,1.836-1.152
						C94.176,51.631,92.356,51.591,91.148,50.61z"/>
					<path fill="#CDDDF5" d="M88.609,48.154c0,0-0.169,0.578,2.571,2.97C90.491,50.2,89.207,48.883,88.609,48.154z"/>
				</g>
				<g>
					<path fill="#485455" d="M80.967,64.745c0,0,0.928-8.186,1.478-9.835s0.736-2.229,2.266-2.496
						c1.53-0.269,2.584,1.47,2.302,3.824c-0.281,2.354-4.127,12.072-4.412,12.451C82.314,69.067,81.401,67.827,80.967,64.745z"/>
					<path fill="#485455" d="M80.896,65.797c0,0-0.183-0.727,0.451-1.3c0.634-0.572,2.761-1.425,2.895-0.835
						c0.133,0.59,0.27,10.722,0.292,11.064c0.021,0.342-0.948,0.764-1.896,0.721c-0.948-0.043-1.271-0.264-1.361-0.602
						C81.186,74.507,80.896,65.797,80.896,65.797z"/>
					<path fill="#FEBFBF" d="M84.329,74.628c0,0,0.218,0.458,0.288,0.893c0.07,0.434,0.141,1.563,0.204,1.731
						c0.062,0.168,0.208,0.434,0.089,0.596s-0.454,0.158-0.662-0.285c-0.208-0.442-0.348-1.559-0.348-1.559s-0.279,0.61-0.287,0.766
						c-0.007,0.155,0.056,1.027,0.151,1.176c0.095,0.148,0.387,0.009,0.483,0.029c0.096,0.021,0.17,0.11,0.17,0.11
						s0.279,0.068,0.241,0.415c-0.135,0.18-0.654,0.213-0.931,0.205c-0.277-0.008-0.687-0.24-0.687-0.24l-0.409-0.077l-0.294-0.438
						l-0.229-0.226c0,0-0.244-0.183-0.31-0.272c-0.065-0.091-0.533-1.513-0.547-1.727c-0.013-0.214,0.067-1.113,0.067-1.113
						L84.329,74.628z"/>
					<polygon fill="#FEBFBF" points="82.563,77.086 83.006,78.456 82.883,78.433 					"/>
					<polygon fill="#FEBFBF" points="81.992,76.909 82.338,77.948 82.221,77.832 					"/>
				</g>
			</g>
		</g>
	</g>
</g>
</svg>
