<?xml version="1.0" encoding="utf-8"?>
<!-- Generator: Adobe Illustrator 16.0.0, SVG Export Plug-In . SVG Version: 6.00 Build 0)  -->
<!DOCTYPE svg PUBLIC "-//W3C//DTD SVG 1.1//EN" "http://www.w3.org/Graphics/SVG/1.1/DTD/svg11.dtd">
<svg version="1.1" id="Layer_1" xmlns="http://www.w3.org/2000/svg" xmlns:xlink="http://www.w3.org/1999/xlink" x="0px" y="0px"
	 width="463.683px" height="425.749px" viewBox="0 0 463.683 425.749" enable-background="new 0 0 463.683 425.749"
	 xml:space="preserve">
<g>
	<path fill="#BDD6F2" d="M272.262,132.424c4.146,2.639,11.063,2.925,15.449,0.639c4.386-2.286,4.579-6.278,0.433-8.916
		c-4.146-2.639-11.063-2.925-15.448-0.639C268.31,125.793,268.116,129.785,272.262,132.424z"/>
	<g>
		<g>
			<path fill="#6C6B79" d="M274.134,126.745c0,0-0.207,0.105-0.219,0.26c-0.01,0.153-0.016,0.578-0.015,0.678
				c0.001,0.1,0.263,0.488,0.906,0.638c0.644,0.15,2.208-0.265,2.735-0.572s1.247-1.091,1.466-1.15s0.871,0.061,0.871,0.061
				l0.589-0.049l0.97-0.344c0,0,0.127-0.65-0.139-0.855C281.033,125.205,274.134,126.745,274.134,126.745z"/>
			<path fill="#C2D2EA" d="M277.782,124.104c0,0-0.767,0.485-0.903,0.623c-0.136,0.137-1.52,0.699-2,0.992s-0.842,0.793-0.873,0.958
				c-0.031,0.164-0.104,0.539-0.049,0.695c0.056,0.158,0.307,0.574,1.135,0.625c0.829,0.052,2.516-0.735,2.516-0.735
				s1.168-0.797,1.34-0.878c0.172-0.082,1.697-0.467,1.929-0.544c0.231-0.077,0.365-0.11,0.399-0.296s0.23-1.205,0.107-1.526
				S278.458,123.28,277.782,124.104z"/>
		</g>
		<g>
			<path fill="#6C6B79" d="M279.645,129.33c0,0-0.227,0.004-0.28,0.306c-0.055,0.302-0.047,0.661-0.047,0.661
				s0.282,0.432,1.23,0.551c0.949,0.12,2.109-0.23,2.705-0.567c0.595-0.337,0.809-0.611,1.167-1.109s0.729-0.736,0.729-0.736
				l0.151,0.041c0,0,0.851-0.618,0.99-0.833c0.072-0.179,0.126-1.094-0.005-1.177C286.156,126.383,279.645,129.33,279.645,129.33z"
				/>
			<path fill="#C2D2EA" d="M282.247,125.915l-0.263,0.629c0,0-1.551,1.506-1.971,1.955c-0.421,0.449-0.638,0.842-0.656,1.25
				c-0.019,0.408,1.039,0.671,1.198,0.682c0.158,0.011,0.861,0.08,1.762-0.255s1.272-0.658,1.995-1.445
				c0.723-0.786,1.211-1.219,1.434-1.398c0.222-0.18,0.544-0.466,0.54-0.699c-0.003-0.233,0.033-0.885-0.157-0.966
				C285.938,125.585,282.854,125.336,282.247,125.915z"/>
		</g>
		<path fill="#4F5997" d="M281.15,123.521c0,0-0.207,0.386-0.69,0.598c-0.493,0.218-1.272,0.255-2.41-0.485
			c0,0-0.27-14.181-1.057-18.338l3.39,5.98l1.423,0.051l0.002,0c0,0,0.587,4.561,0.234,6.955
			C281.687,120.679,281.15,123.521,281.15,123.521z"/>
		<path fill="#4F5997" d="M281.869,111.17c-0.017,0.055-0.037,0.107-0.062,0.158l-0.002,0c-0.21,0.444-0.666,0.708-1.19,0.824
			c-1.036,0.23-2.338-0.12-2.563-0.813c-0.015-0.043-0.029-0.094-0.047-0.15c-0.409-1.359-1.279-7.078-1.829-11.329
			c-0.571-4.43,0.534-6.544,0.534-6.544l5.408,0.983c0,0,0.047,2.611,0.064,5.742C282.205,104.33,282.144,110.306,281.869,111.17z"
			/>
		<path fill="#A8B0C2" d="M281.15,123.521c0,0-0.207,0.386-0.69,0.598c0.364-2.372,0.957-6.426,0.857-7.261
			c-0.064-0.561-0.206-3.305-0.358-4.627c-1.037-8.972-0.914-11.755-0.914-11.755l-1.154-1.76l3.292,1.325
			c0.022,4.29-0.038,10.265-0.313,11.129c-0.017,0.055-0.037,0.107-0.062,0.158c0,0,0.587,4.561,0.234,6.955
			C281.687,120.679,281.15,123.521,281.15,123.521z"/>
		<path fill="#4F5997" d="M278.775,96.127l-0.756,0.886c0,0-0.065,1.093,2.352,2.912c0.015,2.564,0.965,10.762,1.761,12.716
			c0.796,1.953,3.261,0.436,3.677-1.833c0.416-2.27,2.271-9.387,2.43-11.138c0.159-1.75,0.298-3.532-0.915-4.563
			S278.775,96.127,278.775,96.127z"/>
		<path fill="#4F5997" d="M282.677,125.595c0.454-1.589,0.104-10.435-0.546-12.953c3.347-1.948,3.775-2.326,3.775-2.326
			s1.221,6.48,1.174,7.766c-0.048,1.286-1.083,7.559-1.083,7.559S284.317,127.244,282.677,125.595z"/>
		<g>
			<path fill="#8C92B0" d="M285.264,126.505l-0.237-0.052c0.012-0.051,1.126-5.114,1.137-7.658c0.008-1.95-0.47-4.36-0.819-6.12
				c-0.163-0.82-0.291-1.468-0.321-1.833c-0.03-0.362,0.221-1.444,0.569-2.942c0.771-3.322,1.938-8.342,1.108-10.143l0.222-0.102
				c0.863,1.877-0.314,6.945-1.093,10.3c-0.331,1.421-0.591,2.543-0.564,2.867c0.029,0.352,0.156,0.994,0.317,1.806
				c0.352,1.77,0.832,4.194,0.824,6.168C286.396,121.366,285.276,126.454,285.264,126.505z"/>
		</g>
	</g>
	<g>
		<path fill="#6A3646" d="M284.828,65.964c0,0,1.21-0.631,1.966,0.027c0.756,0.658,0.444,3.498-0.324,5.169
			c-0.69,1.5-0.341,4.156,1.357,4.71c-1.191,0.893-3.873-0.099-4.246-1.739C283.208,72.492,284.828,65.964,284.828,65.964z"/>
		
			<linearGradient id="SVGID_1_" gradientUnits="userSpaceOnUse" x1="1368.2407" y1="127.8613" x2="1366.0494" y2="132.3669" gradientTransform="matrix(0.9991 0.0431 -0.0431 0.9991 -1083.9056 -105.6812)">
			<stop  offset="0.1224" style="stop-color:#FEC7C7"/>
			<stop  offset="0.9694" style="stop-color:#FFADB7"/>
		</linearGradient>
		<path fill="url(#SVGID_1_)" d="M275.759,80.877c0,0-1.438,3.604-1.563,6.135c-0.125,2.531,1.397,0.893,2.006,0.103
			C276.811,86.326,280.405,77.944,275.759,80.877z"/>
		<path fill="#FFDADA" d="M276.253,86.18c0,0-0.036,0.228-0.239,0.301c-0.202,0.073-0.732-0.236-0.732-0.236s0.01-0.815,0.122-0.761
			c0.113,0.055,0.499,0.39,0.499,0.39S276.326,86.063,276.253,86.18z"/>
		<path fill="#E6F1FF" d="M279.058,74.339l-0.454,0.048c0,0-1.466,0.18-2.088,2.046c-0.37,1.11-0.996,4.026-0.996,4.026
			s0.733,0.927,1.445,1.132C277.678,81.796,279.058,74.339,279.058,74.339z"/>
		<path fill="#DDE8F6" d="M287.542,95.184c-0.141,0.147-0.512,0.348-1.035,0.54c-1.246,0.459-3.356,0.887-5.274,0.532
			c-2.722-0.504-4.422-1.813-4.706-2.872c0.046-0.458-0.002-5.119-0.088-6.194c-0.088-1.075-0.867-3.036-0.88-3.803
			c-0.013-0.765,0.839-2.349,0.979-3.208c0.14-0.856,1.002-4.044,1.204-4.394c0.322-0.557,0.787-1.284,1.425-1.45
			c0.64-0.168,4.367-0.278,5.103,0.009c0.736,0.288,1.404,0.965,2.257,1.419c2.575,1.37,2.824,2.887,2.824,2.887
			s-0.896,2.301-1.17,4.076c-0.067,0.443-0.121,0.821-0.151,1.079c-0.147,1.281-0.1,8.234-0.1,8.234S288.02,94.681,287.542,95.184z"
			/>
		<path fill="#FEBFBF" d="M284.332,74.228c0.137,0.006,0.491,0.529,1.101,0.83c0.609,0.301,0.628,0.383-0.105,1.056
			c-0.734,0.673-3.346,3.676-5.008,3.322s-1.58-1.972-1.515-2.618c0.064-0.646,1.053-2.12,1.373-2.261
			C280.499,74.415,284.332,74.228,284.332,74.228z"/>
		
			<linearGradient id="SVGID_2_" gradientUnits="userSpaceOnUse" x1="1554.7241" y1="116.8701" x2="1551.7477" y2="112.8286" gradientTransform="matrix(0.995 0.1 -0.1 0.995 -1250.9182 -195.8364)">
			<stop  offset="0.1224" style="stop-color:#FEC7C7"/>
			<stop  offset="0.9694" style="stop-color:#FFADB7"/>
		</linearGradient>
		<path fill="url(#SVGID_2_)" d="M279.754,73.994c0,0,0.291,0.683,0.229,1.303c-0.062,0.62-0.405,1.651-0.405,1.651
			s0.38,0.732,1.896,0.564c1.516-0.168,1.568-0.696,2.049-0.967c0.48-0.272,1.717-1.518,1.639-1.605
			c-0.077-0.088-1.334-0.714-0.852-2.515c0.482-1.801,1.195-2.733,1.195-2.733s0.42-0.757-0.105-0.81
			C284.874,68.83,279.754,73.994,279.754,73.994z"/>
		
			<linearGradient id="SVGID_3_" gradientUnits="userSpaceOnUse" x1="1549.9634" y1="115.979" x2="1553.4019" y2="115.979" gradientTransform="matrix(0.995 0.1 -0.1 0.995 -1250.9182 -195.8364)">
			<stop  offset="0.1224" style="stop-color:#FCA4B5"/>
			<stop  offset="0.9896" style="stop-color:#FFADB7"/>
		</linearGradient>
		<path fill="url(#SVGID_3_)" d="M283.297,73.133c0,0-1.293,1.207-1.566,1.82c-0.272,0.612-1.529,1.446-1.529,1.446l-0.212-1.358
			l-0.235-1.046L283.297,73.133z"/>
		<path fill="#DDE8F6" d="M287.542,95.184c-0.141,0.147-0.512,0.348-1.035,0.54c0.022-0.134,0.05-0.281,0.083-0.439
			c0.836-4.075,0.587-3.368,0.469-5.018c-0.12-1.651-0.605-3.173-1.164-3.093c-0.558,0.08-1.275,0.128-2.156-0.296
			c0.719,0.273,1.618,0.178,2.211-0.247c0.593-0.424,0.369-3.674,0.369-3.674c0.751-0.347,1.364-0.396,1.861-0.23
			c-0.067,0.443-0.121,0.821-0.151,1.079c-0.147,1.281-0.1,8.234-0.1,8.234S288.02,94.681,287.542,95.184z"/>
		<g>
			<g>
				<path fill="#627847" d="M274.677,89.227c-0.646,0.251-1.676,0.206-2.301-0.103s-0.609-0.761,0.036-1.012
					c0.646-0.251,1.676-0.205,2.301,0.103S275.322,88.976,274.677,89.227z"/>
				<polygon fill="#627847" points="275.613,84.291 275.171,88.74 271.918,88.6 271.863,84.129 				"/>
				<path fill="#B09064" d="M274.835,87.335c-0.672-0.315-1.777-0.364-2.469-0.11c-0.692,0.254-0.709,0.716-0.037,1.031
					c0.672,0.314,1.777,0.364,2.469,0.109C275.491,88.112,275.507,87.65,274.835,87.335z"/>
				<polygon fill="#B09064" points="275.328,87.881 275.597,85.486 271.775,85.309 271.836,87.721 				"/>
				<path fill="#DEC7A7" d="M275.058,84.893c-0.736-0.331-1.947-0.385-2.704-0.12c-0.758,0.265-0.774,0.749-0.038,1.08
					c0.736,0.332,1.947,0.385,2.704,0.12C275.778,85.707,275.794,85.224,275.058,84.893z"/>
				<path fill="#627847" d="M274.999,84.658c-0.696-0.343-1.845-0.395-2.564-0.114s-0.738,0.786-0.041,1.129
					c0.697,0.343,1.846,0.395,2.565,0.114S275.696,85.001,274.999,84.658z"/>
				<path fill="#FEBFBF" d="M271.904,85.981c0,0,0.119-0.29,0.051-0.439c-0.069-0.149-0.096-0.309-0.096-0.309l0.002-0.245
					l0.092-0.169c0,0-0.406,0.009-0.465,0.207s-0.125,0.707-0.125,0.707l0.272,0.28c0,0-0.275,0.058-0.323,0.168
					s-0.131,0.444-0.092,0.5c0.038,0.055,0.354,0.323,0.354,0.323s-0.175,0.131-0.186,0.219c-0.01,0.087,0.013,0.295,0.038,0.378
					c0.025,0.083,0.459,0.346,0.459,0.346s-0.098,0.149-0.112,0.281s0.017,0.242,0.114,0.325c0.098,0.082,0.724,0.287,0.828,0.308
					s0.101-0.255,0.044-0.386c-0.057-0.131-0.586-0.245-0.586-0.245l0.002-0.257c0,0,0.405,0.042,0.47-0.136
					c0.064-0.177-0.091-0.373-0.15-0.397c-0.06-0.024-0.541-0.177-0.541-0.177l-0.105-0.092c0,0,0.385,0.062,0.483,0.055
					c0.099-0.007,0.19-0.184,0.177-0.301s-0.137-0.28-0.281-0.343s-0.342-0.279-0.342-0.279L271.904,85.981z"/>
				<polygon fill="#627847" points="275.496,85.409 275.552,85.022 275.217,85.074 271.893,84.885 271.878,85.206 				"/>
				<path fill="#A19797" d="M275.121,85.322c-0.744,0.289-1.931,0.236-2.651-0.118s-0.702-0.878,0.042-1.167
					c0.744-0.29,1.931-0.237,2.651,0.118S275.865,85.032,275.121,85.322z"/>
				<path fill="#C7BEBE" d="M275.785,84.229l-0.31-0.014c-0.079-0.062-0.174-0.122-0.287-0.177
					c-0.785-0.387-2.079-0.445-2.891-0.129c-0.119,0.046-0.22,0.099-0.306,0.155l-0.294-0.012l-0.02,0.455
					c-0.001,0.007-0.001,0.014-0.001,0.021l-0.001,0.01h0.001c0.004,0.224,0.193,0.455,0.574,0.643
					c0.786,0.387,2.08,0.444,2.891,0.129c0.398-0.155,0.605-0.372,0.62-0.598h0.001L275.785,84.229z"/>
				<path fill="#E2D9D9" d="M275.207,83.601c-0.785-0.387-2.079-0.444-2.89-0.129c-0.812,0.315-0.832,0.885-0.046,1.272
					c0.785,0.387,2.079,0.445,2.891,0.129C275.972,84.557,275.993,83.987,275.207,83.601z"/>
				<path fill="#C7BEBE" d="M275.493,84.201c0-0.004,0-0.008,0.001-0.013l0.014-0.313l-0.161-0.007
					c-0.082-0.085-0.196-0.167-0.347-0.241c-0.673-0.332-1.782-0.381-2.478-0.11c-0.158,0.062-0.279,0.134-0.367,0.214l-0.152-0.007
					l-0.014,0.314v0.001v0.002l0,0c-0.005,0.197,0.158,0.4,0.494,0.565c0.673,0.332,1.782,0.381,2.478,0.11
					c0.342-0.133,0.52-0.318,0.531-0.513h0.001V84.201z"/>
				<path fill="#E1D8D8" d="M275.016,83.249c-0.673-0.332-1.782-0.381-2.478-0.11c-0.695,0.271-0.713,0.759-0.04,1.09
					c0.674,0.332,1.783,0.381,2.479,0.11C275.672,84.068,275.69,83.58,275.016,83.249z"/>
				<path fill="#C7BEBE" d="M275.185,83.88L275.185,83.88c-0.102,0.02-0.207-0.027-0.235-0.104l-0.011-0.031
					c-0.029-0.078,0.03-0.157,0.131-0.177l0,0c0.102-0.02,0.206,0.027,0.235,0.104l0.011,0.031
					C275.345,83.781,275.286,83.86,275.185,83.88z"/>
			</g>
		</g>
		<g>
			<path fill="#FEBFBF" d="M287.742,79.008c0,0-1.036,0.097-1.22,1.931c-0.185,1.834,0.907,9.826,1.597,10.606
				s1.734,0.281,2.032-1.448c0.299-1.73,0.215-6.732,0.187-7.339C290.31,82.149,290.093,78.031,287.742,79.008z"/>
			<path fill="#FEBFBF" d="M288.314,90.516c0,0-0.351,0.303-0.627,1.555c-0.277,1.251-0.85,7.308-1.322,7.936
				c-0.472,0.628-1.011,1.134-1.011,1.134s-0.536,0.915-0.564,1.196c-0.028,0.282-0.249,0.882-0.361,1.03
				c-0.112,0.149-0.497,0.706-0.466,0.833c0.031,0.127,0.405,0.209,0.563,0.056c0.158-0.153,0.614-1.245,0.768-1.442
				s0.321-0.261,0.321-0.261s0.161,0.763,0.106,0.953c-0.055,0.189-0.58,1.443-0.58,1.443s-0.514,0.774-0.529,0.844
				c-0.016,0.069,0.271,0.125,0.418-0.002c0.146-0.127,0.111,0.126,0.404,0.049c0.291-0.077,1.079-0.753,1.079-0.753l0.124-0.174
				l0.58-0.111c0,0,0.831-1.374,0.887-1.75s0.332-3.299,0.332-3.299s2.533-7.103,1.572-9.065
				C289.567,90.073,288.314,90.516,288.314,90.516z"/>
			<path fill="#FEBFBF" d="M286.57,103.81c0,0-0.502,1.083-0.613,1.192c-0.11,0.109-0.928,0.789-0.928,0.789l0.188,0.019
				c0,0,0.371-0.385,0.465-0.455s0.417-0.371,0.417-0.371l0.448-0.942L286.57,103.81z"/>
			<path fill="#FEBFBF" d="M287.243,103.877l-0.473,0.919l-0.134,0.116l0.131-0.025c0,0,0.194-0.198,0.25-0.352
				C287.072,104.38,287.243,103.877,287.243,103.877z"/>
			<path fill="#E6F1FF" d="M287.879,78.056c0,0-0.938,0.186-1.402,1.485c-0.464,1.3,0.028,4.628,0.028,4.628s1.36-0.144,2.758-0.522
				c1.398-0.38,1.527-1.004,1.527-1.004s-0.734-3.035-0.981-3.5C289.563,78.678,289.531,77.542,287.879,78.056z"/>
		</g>
	</g>
	<g>
		<path fill="#FEC7C7" d="M279.397,65.614c0,0-0.551,0.438-0.91,1.362c-0.359,0.923-0.612,1.711-0.588,1.873
			c0.023,0.163,0.162,0.51-0.051,1.168c-0.213,0.659,0.456,3.952,1.17,4.277c0.714,0.325,4.011-0.784,4.378-1.253
			s1.305-2.375,1.42-3.656s0.492-2.776-1.362-3.549C281.598,65.062,279.397,65.614,279.397,65.614z"/>
		<g>
			
				<linearGradient id="SVGID_4_" gradientUnits="userSpaceOnUse" x1="1548.6802" y1="111.9746" x2="1548.0713" y2="112.044" gradientTransform="matrix(0.995 0.1 -0.1 0.995 -1250.9182 -195.8364)">
				<stop  offset="0.1224" style="stop-color:#FEC7C7"/>
				<stop  offset="0.9896" style="stop-color:#FFDBDB"/>
			</linearGradient>
			<path fill="url(#SVGID_4_)" d="M278.969,69.201c0.07,0.362-0.869,1.846-0.911,2.177c-0.043,0.331,0.889,0.309,0.889,0.309
				L278.969,69.201z"/>
			
				<linearGradient id="SVGID_5_" gradientUnits="userSpaceOnUse" x1="1547.9634" y1="111.9854" x2="1548.9351" y2="111.9854" gradientTransform="matrix(0.995 0.1 -0.1 0.995 -1250.9182 -195.8364)">
				<stop  offset="0.188" style="stop-color:#FFDCDC"/>
				<stop  offset="0.8991" style="stop-color:#FEC7C7"/>
			</linearGradient>
			<path fill="url(#SVGID_5_)" d="M278.767,71.733c-0.22-0.009-0.572-0.048-0.705-0.195c-0.043-0.048-0.062-0.105-0.054-0.167
				c0.019-0.146,0.188-0.476,0.384-0.859c0.253-0.493,0.567-1.106,0.529-1.302l0.097-0.019c0.044,0.229-0.252,0.807-0.538,1.366
				c-0.184,0.359-0.357,0.698-0.373,0.826c-0.005,0.033,0.004,0.062,0.028,0.089c0.134,0.147,0.631,0.169,0.81,0.165l0.003,0.098
				C278.927,71.736,278.859,71.737,278.767,71.733z"/>
		</g>
		<g>
			<path fill="#754554" d="M281.676,69.549l-0.408-0.137c-0.987-0.229-1.497-0.115-1.503-0.114l-0.037-0.159
				c0.021-0.005,0.546-0.125,1.585,0.115l0.416,0.14L281.676,69.549z"/>
		</g>
		<g>
			<path fill="#754554" d="M278.691,68.988c-0.229-0.158-0.614-0.367-0.733-0.342l-0.034-0.16c0.236-0.048,0.759,0.297,0.86,0.367
				L278.691,68.988z"/>
		</g>
		
			<ellipse transform="matrix(0.96 0.2799 -0.2799 0.96 30.8102 -75.7638)" fill="#FFFFFF" cx="280.632" cy="69.976" rx="0.345" ry="0.295"/>
		
			<ellipse transform="matrix(0.7 -0.7141 0.7141 0.7 33.8679 219.7309)" fill="#FFFFFF" cx="278.472" cy="69.554" rx="0.242" ry="0.279"/>
		<path fill="#FB7F9E" d="M280.001,72.859c0,0-0.946-0.328-1.328-0.38c-0.381-0.052-0.408,0.079-0.381,0.208
			S278.912,73.756,280.001,72.859z"/>
		<path fill="#754554" d="M285.287,69.876c0,0-0.301-0.39-0.527-0.258s-0.65,0.309-0.669,0.487
			c-0.018,0.178-0.181,1.141-0.181,1.141s-0.408-0.714-0.337-1.427s-0.148-1.708-0.438-2.15c-0.288-0.442-0.58-1.125-1.262-1.233
			c-0.683-0.108-1.629,0.023-2.185-0.02c-0.556-0.042-0.782-0.24-0.782-0.24l-0.501,1.01c0,0,0.03-0.505,0.341-1.068
			c0.31-0.564,2.567-3.137,5.733-1.353c2.326,1.127,2.174,3.711,1.813,4.648c-0.36,0.937-1.456,1.768-1.568,2.055
			c-0.111,0.287-0.413,0.691-0.414,0.958c0,0.267,0.132-1,0.357-1.537C284.892,70.352,285.287,69.876,285.287,69.876z"/>
		
			<linearGradient id="SVGID_6_" gradientUnits="userSpaceOnUse" x1="1553.8521" y1="111.7666" x2="1555.4331" y2="111.7666" gradientTransform="matrix(0.995 0.1 -0.1 0.995 -1250.9182 -195.8364)">
			<stop  offset="0.1224" style="stop-color:#FEB9B8"/>
			<stop  offset="1" style="stop-color:#FFDEDE"/>
		</linearGradient>
		<path fill="url(#SVGID_6_)" d="M284.439,70.086c0,0,0.815-0.818,1.11-0.175c0.296,0.643-0.357,1.37-0.779,1.721
			c-0.422,0.351-0.731,0.447-0.852,0.255c-0.121-0.192,0.196-0.894,0.196-0.894L284.439,70.086z"/>
		<circle fill="#EFF0F5" cx="284.051" cy="71.85" r="0.165"/>
		
			<linearGradient id="SVGID_7_" gradientUnits="userSpaceOnUse" x1="1554.1069" y1="111.6602" x2="1555.2036" y2="111.6602" gradientTransform="matrix(0.995 0.1 -0.1 0.995 -1250.9182 -195.8364)">
			<stop  offset="0.1224" style="stop-color:#FCA4B5"/>
			<stop  offset="0.9896" style="stop-color:#FFADB7"/>
		</linearGradient>
		<path fill="url(#SVGID_7_)" d="M284.558,70.098c0,0,0.52-0.467,0.736-0.105c0.218,0.361,0.033,0.996-0.517,1.527
			c-0.529,0.193-0.606-0.034-0.6-0.1s0.21-0.359,0.235-0.62C284.44,70.539,284.558,70.098,284.558,70.098z"/>
	</g>
</g>
</svg>
