<?xml version="1.0" encoding="utf-8"?>
<!-- Generator: Adobe Illustrator 16.0.0, SVG Export Plug-In . SVG Version: 6.00 Build 0)  -->
<!DOCTYPE svg PUBLIC "-//W3C//DTD SVG 1.1//EN" "http://www.w3.org/Graphics/SVG/1.1/DTD/svg11.dtd">
<svg version="1.1" id="Layer_1" xmlns="http://www.w3.org/2000/svg" xmlns:xlink="http://www.w3.org/1999/xlink" x="0px" y="0px"
	 width="463.683px" height="425.749px" viewBox="0 0 463.683 425.749" enable-background="new 0 0 463.683 425.749"
	 xml:space="preserve">
<g>
	<path fill="#D7E4F2" d="M71.186,106.647c3.46,1.998,9.087,1.987,12.569-0.023c3.481-2.01,3.499-5.259,0.039-7.257
		c-3.46-1.997-9.087-1.987-12.568,0.023C67.743,101.4,67.726,104.649,71.186,106.647z"/>
	<path fill="#8E8E8E" d="M76.185,102.463l-0.164,0.18c0,0,0.036,0.582,0.21,0.859c0.174,0.277,0.745,0.358,2.038,0.335
		s1.933-0.943,2.224-1.316s0.291-0.373,0.291-0.373l0.431-0.571l1.048-0.803c0,0,0.268-0.605,0.198-0.909
		c-0.07-0.302-1.281-0.326-1.281-0.326l-1.712,1.937L76.185,102.463z"/>
	<path fill="#848484" d="M82.473,103.081c0,0-0.384,0.128-0.605-0.046c-0.221-0.175-0.429-1.296-0.528-1.551
		c-0.101-0.254-0.403-0.487-0.403-0.487s0.301-0.873,0.769-1.013s0.769,0,0.769,0s-0.303,0.932-0.233,1.292
		C82.31,101.637,82.485,102.987,82.473,103.081z"/>
	<path fill="#C2D2EA" d="M78.456,100.903c0,0-1.258,0.641-1.735,0.757c-0.477,0.116-0.757,0.501-0.71,0.926
		c0.046,0.425,0.628,0.635,1.362,0.82c0.733,0.187,1.747,0.233,2.445-1.141s1.316-2.341,1.793-2.399c0.477-0.058,0.85,0,0.85,0
		s0.221-0.873-0.594-1.432c-0.815-0.559-1.816,0.407-1.816,0.407L78.456,100.903z"/>
	<path fill="#FFA1A3" d="M76.586,65.213c0,0-2.049,5.729-1.304,10.759c0.745,5.031,3.198,18.704,3.427,20.002
		c0.189,1.07,1.006,4.442-0.82,5.231c-0.749,0.585-0.539,1.103,0.186,0.879c0.725-0.224,0.996-1.797,1.804-2.311
		c1.414-0.899,2.157-0.59,2.032-1.136c-0.124-0.546-0.718-3.141-0.78-7.426s-1.408-8.341-1.285-9.278
		c0.124-0.936,2.179-6.436,2.358-9.716C82.343,69.679,83.076,66.284,76.586,65.213z"/>
	<path fill="#8E8E8E" d="M71.779,104.302c0,0-0.894-0.606-0.86-0.269c0.033,0.336,0.275,0.807,0.403,0.979
		c0.128,0.172,1.296,0.757,2.367,0.664s1.293-0.455,1.677-0.909c0.384-0.454,0.734-0.873,0.967-0.873s1.327,0.21,1.956-0.233
		s0.602-0.995,0.602-0.995l-1.381,0.215l-2.678,1.106L71.779,104.302z"/>
	<path fill="#848484" d="M76.554,103.592c0,0,0.617,0.456,0.664,0.589c0.047,0.133,0.093,0.948,0.093,1.064s0.501,0.084,0.501,0.084
		s-0.023-1.108,0.163-1.388c0.187-0.279,0.513-0.699,0.513-0.699S77.252,103.696,76.554,103.592z"/>
	<path fill="#CBDCF5" d="M74.167,102.87c0,0-0.815,0.233-1.304,0.361c-0.489,0.128-1.755,0.283-1.917,0.609
		c-0.163,0.326,0.485,0.789,0.916,1.08c0.431,0.291,1.537,0.559,2.306,0.314c0.769-0.244,1.246-1.653,2.096-1.712
		c0.85-0.058,1.525,0.14,2.224-0.279c0.698-0.419,0.698-2.375,0-2.177C77.788,101.263,74.167,102.87,74.167,102.87z"/>
	<path fill="#FFB1B2" d="M73.247,66.948c0,0-2.049,5.729-1.304,10.759c0.745,5.031,3.727,20.751,3.54,22.056
		s0.124,2.081-2.018,3.479c-0.59,0.746-0.202,1.584,0.45,1.195c0.652-0.388,1.057-1.345,2.625-1.935
		c1.568-0.59,2.157-0.59,2.033-1.136c-0.125-0.546-0.718-4.134-0.78-8.419c-0.063-4.285-1.409-8.342-1.285-9.278
		c0.124-0.936,2.179-6.436,2.358-9.715C79.003,71.415,79.737,68.02,73.247,66.948z"/>
	<path fill="#565388" d="M80.937,64.65c0,0,2.657,2.248,1.991,8.303c-0.666,6.055-0.666,6.055-0.666,6.055s-1.553,1.941-5.139,2.64
		c-3.586,0.699-4.559,0.738-6.287-0.22c-1.578-0.875-1.352-2.244-1.352-2.383s0.759-10.184,2.616-12.64
		C73.956,63.948,80.937,64.65,80.937,64.65z"/>
	<path fill="#E6F1FF" d="M82.201,50.295c0.548,0.078,1.316,0.411,1.204,2.642c-0.144,2.855-1.056,7.359-1.056,7.638
		c0,0.28-1.386,2.64-3.255,3.54c-1.868,0.901-1.589-3.694-1.589-3.694l3.073-9.907C80.578,50.514,81.679,50.221,82.201,50.295z"/>
	<path fill="#DDE8F6" d="M71.542,67.427c0,0,0.203-3.852-0.271-4.922c-0.475-1.07-1.273-3.481-1.235-4.622
		c0.038-1.141,0.794-2.146,1.768-3.159c0.974-1.014,4.253-2.759,5.71-3.24c1.458-0.48,3.832-1.563,4.81-0.862
		c0.978,0.701,1.303,2.066-0.246,6.379c-0.8,2.229-1.162,4.71-1.25,6.37c-0.04,0.746,0.579,2.273,0.632,2.552
		c0.109,0.577-1.084,2.036-4.868,2.783C72.807,69.452,71.542,67.427,71.542,67.427z"/>
	<path fill="#A8B0C2" d="M69.484,79.043c0,0.098-0.11,0.785,0.348,1.486c-0.041-2.12,0.694-5.653,1.042-7.169
		c0.437-1.909,1.953-4.921,1.953-4.921c-0.055-0.699,0.361-1.7,0.456-2.961c0.222-2.991,0.701-6.652,0.701-6.652
		s-2.234,0.938-3.823,0.188c0.236,1.197,0.761,2.705,1.109,3.491c0.475,1.071,0.271,4.921,0.271,4.921
		C70.09,70.887,69.484,78.919,69.484,79.043z"/>
	<path fill="#E6F1FF" d="M70.179,66.333c0,0-0.012-8.177,0.431-10.048c0.443-1.871,3.349-0.677,3.303,1.371
		c-0.045,2.047-0.932,8.573-1.166,8.858C72.514,66.799,70.239,68.383,70.179,66.333z"/>
	<path fill="#FFADB7" d="M72.833,50.15c0.024,0.155,0.096,0.257,0.193,0.324c0.255,0.174,0.696,0.103,1,0.086
		c0.543-0.031,0.351,0.675,0.456,2.433c0.203,0.05,0.422,0.084,0.651,0.101c1.555,0.133,3.535-0.408,3.714-1.064
		c0.098-0.367-0.83-0.832-1.186-1.647c-0.358-0.818-0.093-2.507-0.093-2.507s-1.428-3.54-3.215-3.074
		c-1.77,0.462-1.023,3.268-1.417,4.617c-0.005,0.015-0.007,0.026-0.012,0.041C72.829,49.762,72.805,49.985,72.833,50.15z"/>
	
		<linearGradient id="SVGID_1_" gradientUnits="userSpaceOnUse" x1="2780.7661" y1="51.1514" x2="2783.4741" y2="51.4505" gradientTransform="matrix(-1 0 0 1 2855.7451 0)">
		<stop  offset="0.1224" style="stop-color:#FCA4B5"/>
		<stop  offset="0.9896" style="stop-color:#FFADB7"/>
	</linearGradient>
	<path fill="url(#SVGID_1_)" d="M72.833,50.15l0.193,0.324c0.255,0.174,0.696,0.103,1,0.086c0.543-0.031,0.351,0.675,0.456,2.433
		c0.203,0.05,0.422,0.084,0.651,0.101c0.594-0.611-0.208-2.247,0.086-2.743c0.322-0.546,0.725-0.923,0.725-0.923l-3.007-0.01
		c-0.005,0.015-0.007,0.026-0.012,0.041C72.829,49.762,72.805,49.985,72.833,50.15z"/>
	<path fill="#FFFFFF" d="M74.46,52.577c0,0,1.468,0.157,2.661-0.193c1.192-0.35,1.349-0.783,1.349-0.783l-0.345-0.536
		c0,0,0.204-0.056,0.345,0.045c0.142,0.103,0.656,0.9,0.656,0.9s-0.554,1.234-2.84,1.356c-1.957,0.104-2.204-0.066-2.204-0.066
		l-0.885,0.363L74.46,52.577z"/>
	<path fill="#FEBFBF" d="M72.167,43.249c0,0-0.755,1.408-0.755,2.481c0,1.074,0.068,1.133-0.165,1.749
		c-0.233,0.617,0.264,1.153,0.264,1.153s0.417,2.187,1.312,2.445c0.895,0.258,2.287-1.019,2.664-1.298
		c0.376-0.278,0.968-1.067,1.279-2.021C77.077,46.803,74.969,42.139,72.167,43.249z"/>
	<path fill="#FF5288" d="M72.396,44.32c0,0,0.34,0.403,0.426,1.552c0.086,1.149,0.262,1.863,0.262,1.863l0.228,0.202
		c0,0,0.311-0.988,1.382-0.96c1.071,0.028,1.149,1.022,0.729,1.535c-0.244,0.297,0.063,1.266,0.063,1.266s0.124,0.053,0.729,0.379
		c0.605,0.326,1.457-0.214,1.457-0.214s0.466-0.619,1.491-1.146c1.025-0.528,2.115-1.642,2.208-3.381s-0.829-3.746-3.018-4.258
		c-2.189-0.512-3.093-0.34-4.199-0.1c-0.973,0.212-1.714,0.367-2.227,1.081c-0.512,0.714,0.143,1.753,0.126,1.885
		s-0.543,0.559-0.543,0.559S71.837,45.127,72.396,44.32z"/>
	
		<linearGradient id="SVGID_2_" gradientUnits="userSpaceOnUse" x1="-6503.0356" y1="48.4805" x2="-6500.4619" y2="47.3177" gradientTransform="matrix(1 0 0 1 6576.5723 0)">
		<stop  offset="0.1224" style="stop-color:#FEB9B8"/>
		<stop  offset="1" style="stop-color:#FFDEDE"/>
	</linearGradient>
	<path fill="url(#SVGID_2_)" d="M73.926,47.448c0,0,0.355-0.75,1.166-0.53s0.657,1.145-0.212,1.971s-1.081-0.149-1.124-0.212
		C73.714,48.613,74.138,48.02,73.926,47.448z"/>
	
		<linearGradient id="SVGID_3_" gradientUnits="userSpaceOnUse" x1="-6501.7471" y1="47.5596" x2="-6502.4678" y2="48.4702" gradientTransform="matrix(1 0 0 1 6576.5723 0)">
		<stop  offset="0.1224" style="stop-color:#FCA4B5"/>
		<stop  offset="0.9896" style="stop-color:#FFADB7"/>
	</linearGradient>
	<path fill="url(#SVGID_3_)" d="M74.22,47.56c0,0,0.357-0.422,0.705-0.239c0.536,0.283-0.238,1.159-0.313,1.271
		c-0.074,0.112-0.469,0.067-0.514-0.201S74.493,47.897,74.22,47.56z"/>
	<circle fill="#F8FBFF" cx="74.234" cy="48.986" r="0.177"/>
	<path fill="#FEBFBF" d="M66.89,76.222c0,0-0.082,0.656-0.083,1.105c0,0.075,0.002,0.133,0.01,0.174
		c0.052,0.281,0.063,0.855,0.063,0.855s0.013,0.056,0.034,0.139c0.042,0.159,0.517,0.12,0.691,0.277
		c0.073,0.064,0.281-0.09,0.281-0.09l0.246-0.217c0,0,0.152,0.088,0.283,0.031l0-0.001c0.026-0.011,0.051-0.027,0.074-0.052
		c0.14-0.148,0.349-1.082,0.357-1.121c0.008-0.039,0.471-1.55,0.471-1.55l-0.143-2.077c0,0-0.636-0.222-1.023-0.228
		c-0.065,0-0.111,0.008-0.128,0.029c-0.125,0.152-0.981,1.854-0.981,1.854s-0.35,0.6-0.737,1.147
		c-0.045,0.063-0.219,0.586,0.168,0.367C66.646,76.768,66.89,76.222,66.89,76.222z"/>
	<path fill="#E6F1FF" d="M67.663,73.948c0,0,0.322-1.465,0.787-2.595c0.466-1.13,1.686-4.821,1.851-5.017
		c0.166-0.196,1.868-1.167,2.574-0.054c-0.568,1.867-3.423,6.95-3.539,7.522C69.22,74.378,67.884,74.409,67.663,73.948z"/>
	
		<linearGradient id="SVGID_4_" gradientUnits="userSpaceOnUse" x1="2784.0981" y1="47.877" x2="2784.771" y2="48.0588" gradientTransform="matrix(-1 0 0 1 2855.7451 0)">
		<stop  offset="0" style="stop-color:#FEB9B8"/>
		<stop  offset="0.4054" style="stop-color:#FCA4B5"/>
	</linearGradient>
	<path fill="url(#SVGID_4_)" d="M71.511,48.632c0,0,0.277,0.266,0.179-0.825c-0.064-0.713-0.3-0.678-0.354-0.582
		C71.252,47.37,70.919,47.961,71.511,48.632z"/>
	<path fill="#FF77A1" d="M80.107,43.085c0,0,2.117-1.37,3.308,1.114c1.51,3.15-2.038,4.957-1.748,7.931
		c0.286,2.938,2.037,2.213,2.037,2.213s-7.451,2.398-5.814-3.056c0.474-1.58,5.164-5.743,2.15-6.514
		C78.612,43.961,80.107,43.085,80.107,43.085z"/>
	<path fill="#F8FBFF" d="M80.107,43.085c0,0-0.948,0.519,0.004,1.708c0.048-0.05,0.53,0.242,0.53,0.242s0.381,0.304,0.382,0.579
		c-0.152,0.155-0.877,0.018-1.056-0.069c-0.825-0.4-1.192-1.575-0.693-2.202c0.417-0.524,0.924-0.454,1.093-0.384
		C80.296,43.047,80.107,43.085,80.107,43.085z"/>
</g>
</svg>
