<?xml version="1.0" encoding="utf-8"?>
<!-- Generator: Adobe Illustrator 16.0.0, SVG Export Plug-In . SVG Version: 6.00 Build 0)  -->
<!DOCTYPE svg PUBLIC "-//W3C//DTD SVG 1.1//EN" "http://www.w3.org/Graphics/SVG/1.1/DTD/svg11.dtd">
<svg version="1.1" id="Layer_1" xmlns="http://www.w3.org/2000/svg" xmlns:xlink="http://www.w3.org/1999/xlink" x="0px" y="0px"
	 width="463.683px" height="425.749px" viewBox="0 0 463.683 425.749" enable-background="new 0 0 463.683 425.749"
	 xml:space="preserve">
<g>
	<path fill="#BDD6F2" d="M374.925,141.556c-4.324-2.752-11.539-3.051-16.113-0.666c-4.574,2.384-4.776,6.548-0.451,9.3
		c4.324,2.752,11.539,3.051,16.113,0.666C379.048,148.472,379.25,144.308,374.925,141.556z"/>
	<g>
		<path fill="#626170" d="M357.955,143.956c0,0-0.263,0.129-0.278,0.324c-0.017,0.193-0.03,0.728-0.03,0.854
			c0,0.126,0.324,0.619,1.133,0.817c0.809,0.199,2.787-0.299,3.456-0.679s1.587-1.355,1.863-1.428
			c0.218-0.056,0.769,0.031,0.996,0.072c0.07,0.012,0.14,0.016,0.211,0.01l0.521-0.037c0.074-0.005,0.147-0.02,0.218-0.044
			l1.121-0.382c0,0,0.17-0.817-0.162-1.08S357.955,143.956,357.955,143.956z"/>
		<path fill="#504F60" d="M362.59,140.684c0,0-0.973,0.601-1.146,0.771s-1.927,0.858-2.536,1.219
			c-0.609,0.362-1.072,0.987-1.114,1.193c-0.042,0.207-0.14,0.678-0.072,0.876c0.068,0.199,0.377,0.729,1.421,0.806
			c0.934,0.069,2.743-0.697,3.113-0.859c0.045-0.02,0.086-0.042,0.127-0.07c0.28-0.186,1.45-0.958,1.642-1.046
			c0.219-0.1,2.146-0.563,2.439-0.656c0.293-0.093,0.621-0.125,0.667-0.359c0.045-0.234,0.148-1.521-0.002-1.929
			C366.979,140.222,363.457,139.655,362.59,140.684z"/>
		<path fill="#5C617D" d="M367.144,140.912c-0.104,0.317-0.478,0.539-1.717,0.589c-0.143,0.004-0.286,0.009-0.429,0.007
			c-0.89,0.019-1.708-0.059-2.599-0.461c-0.313-0.141-0.52-0.455-0.52-0.797c0.006-3.453-1.272-17.716-1.599-26.577
			c-0.206-5.604,1.043-8.434,1.043-8.434l5.986-0.272l0.04,14.778l-0.105,8.547C367.246,128.291,367.243,140.595,367.144,140.912z"
			/>
		<g>
			<path fill="#8C92B0" d="M365.439,141.524c-0.004-0.1-0.321-9.927-0.45-11.995c-0.128-2.073-0.112-13.821-0.112-13.939h0.23
				c0,0.119-0.017,11.859,0.112,13.926c0.128,2.071,0.446,11.901,0.449,12.001L365.439,141.524z"/>
		</g>
		<path fill="#A8B0C2" d="M367.144,140.912c-0.068,0.207-0.251,0.374-0.713,0.478c-0.551,0.082-1.004,0.111-1.433,0.118
			l-0.809-25.61c0,0-1.546-1.72-1.264-2.773c0.125-0.453,4.302,6.035,4.302,6.035l0.123,0.584l-0.105,8.547
			C367.246,128.291,367.243,140.595,367.144,140.912z"/>
		<g>
			<path fill="#6C6B79" d="M364.994,148.079l-0.363,0.339l-0.076,0.554c0,0,0.403,0.733,1.521,1.013
				c1.116,0.279,2.86,0.017,3.424-0.157s1.831-1.267,2.015-1.417c0.185-0.15,1.071-1.033,1.071-1.033l0.443,0.061l1.448-0.893
				c0,0,0.245-0.37,0.283-0.652c0.039-0.283,0.113-0.825,0.113-0.825s-0.049-0.612-0.446-0.753
				C374.029,144.174,364.994,148.079,364.994,148.079z"/>
			<path fill="#504F60" d="M369.918,142.965c0,0-1.101,1.037-1.252,1.284c-0.15,0.248-0.438,0.635-0.776,0.902
				s-2.67,2.374-3.003,2.729c-0.334,0.356-0.255,0.751-0.261,0.801c-0.008,0.049,0.829,0.8,1.62,0.942
				c0.791,0.142,3.697-0.295,4.481-1.008c0.784-0.712,2.196-1.975,2.435-2.126c0.238-0.151,1.305-0.724,1.443-1.124
				c0.139-0.399,0.23-1.675,0.097-2.045C374.57,142.951,369.918,142.965,369.918,142.965z"/>
			<path fill="#5C617D" d="M363.433,107.227c0,0-0.895,5.137-0.081,6.772c0.813,1.635,1.839,2.08,2.02,3.326
				c0.18,1.247,0.968,6.859,1.746,11.546c0.257,1.553,0.875,6.089,1.581,15.037c0.372,0.806,1.365,1.393,3.355,1.164
				c1.989-0.229,2.139-0.459,2.354-0.814c0.217-0.355,0.192-9.917-0.515-13.177c-0.707-3.26-0.86-4.336-0.86-4.336
				s-0.549-4.901,0.533-11.073c0.436-2.48,0.382-5.927,0.008-7.41C373.201,106.779,363.433,107.227,363.433,107.227z"/>
			<g>
				<path fill="#8C92B0" d="M373.458,144.753l-0.228-0.011c0.002-0.038,0.178-3.892-0.008-6.676c-0.234-3.523-0.752-5.583-1.209-7.4
					c-0.311-1.234-0.604-2.399-0.769-3.859c-0.351-3.101,0.029-7.106,0.334-10.325c0.052-0.54,0.102-1.061,0.145-1.553
					c0.3-3.376-0.101-5.099-0.104-5.116l0.222-0.054c0.017,0.071,0.414,1.771,0.11,5.19c-0.044,0.492-0.094,1.013-0.145,1.554
					c-0.304,3.208-0.684,7.201-0.335,10.278c0.164,1.444,0.455,2.603,0.763,3.829c0.459,1.827,0.979,3.897,1.215,7.44
					C373.635,140.849,373.459,144.714,373.458,144.753z"/>
			</g>
		</g>
		<g>
			<path fill="#8C92B0" d="M363.952,113.811c-0.073-0.003-0.152-0.028-0.231-0.074c-0.374-0.215-0.767-0.877-0.744-1.824
				c0.011-0.508,0.153-2.546,0.195-2.795l0.227,0.038c-0.035,0.214-0.181,2.232-0.192,2.763c-0.021,0.911,0.364,1.467,0.629,1.62
				c0.077,0.044,0.146,0.054,0.187,0.029c0.062-0.038,0.094-0.162,0.084-0.333c-0.062-1.188,0.141-3.936,0.339-4.058l0.059-0.036
				l0.066,0.035l-0.06,0.102l0.002-0.002l0.001,0.003l0.085,0.063c-0.087,0.181-0.338,2.443-0.262,3.882
				c0.018,0.338-0.097,0.48-0.195,0.541C364.084,113.798,364.02,113.814,363.952,113.811z M364.508,109.28l-0.055,0.094
				L364.508,109.28z"/>
		</g>
		<g>
			<path fill="#8C92B0" d="M369.938,114.058c-1.372-0.06-2.411-0.426-3.098-1.094c-0.869-0.847-0.833-1.857-0.831-1.899l0.23,0.01
				c-0.001,0.01-0.031,0.956,0.766,1.728c0.83,0.806,2.228,1.142,4.15,1.002l0.017,0.23
				C370.735,114.066,370.323,114.074,369.938,114.058z"/>
		</g>
		<path fill="#A76478" d="M373.801,109.53c0,0-1.724,1.309-5.175,0.997s-4.748-0.795-5.881-1.516
			c-1.133-0.72-1.813-1.617-1.813-1.617l0.256-1.327c0,0,0.62,1.12,2.24,1.921c1.62,0.801,5.149,1.176,6.589,1.267
			c1.439,0.09,3.689-0.775,3.689-0.775L373.801,109.53z"/>
		<path fill="#5C617D" d="M366.964,108.996c0,0-0.105,0.377-0.135,0.828c-0.028,0.451-0.039,1.282-0.039,1.282l-0.52-0.101
			c0,0-0.068-0.804-0.035-1.205c0.032-0.4,0.17-0.952,0.17-0.952L366.964,108.996z"/>
		<path fill="#4F5997" d="M371.968,109.172c0,0,0.081,0.384,0.08,0.835c-0.002,0.452-0.047,1.282-0.047,1.282l0.525-0.066
			c0,0,0.122-0.798,0.115-1.2c-0.006-0.402-0.106-0.961-0.106-0.961L371.968,109.172z"/>
		<path fill="#5C617D" d="M362.212,107.163c0,0-0.143,0.467-0.175,0.851c-0.031,0.384,0.019,1.042,0.019,1.042l-0.337-0.441
			c0,0-0.032-0.666-0.015-0.874c0.017-0.209,0.229-0.813,0.229-0.813L362.212,107.163z"/>
		<g>
			<path fill="#8C92B0" d="M360.493,109.28c-0.038-0.002-0.075-0.009-0.114-0.021l0.075-0.218c0.281,0.092,0.659-0.606,0.797-0.964
				l0.215,0.083C361.417,108.284,361.01,109.303,360.493,109.28z"/>
		</g>
		<g>
			<path fill="#CCDEFB" d="M364.38,110.085c-0.06-0.009-0.121-0.025-0.184-0.049l-0.965-0.37c-0.41-0.158-0.72-0.598-0.703-1.002
				l0.016-0.386c0.008-0.197,0.092-0.359,0.235-0.456c0.162-0.111,0.384-0.125,0.607-0.038l0.965,0.37
				c0.411,0.158,0.721,0.598,0.704,1.002l-0.016,0.386c-0.008,0.197-0.092,0.359-0.235,0.457
				C364.688,110.079,364.539,110.108,364.38,110.085z M363.198,108.179c-0.065-0.009-0.125,0.001-0.168,0.03
				c-0.044,0.03-0.068,0.078-0.071,0.143l-0.016,0.385c-0.008,0.19,0.172,0.428,0.385,0.51l0.965,0.37
				c0.104,0.039,0.199,0.037,0.263-0.005c0.044-0.03,0.068-0.079,0.071-0.144l0.016-0.385c0.007-0.19-0.173-0.428-0.386-0.51
				l-0.964-0.37C363.259,108.191,363.228,108.183,363.198,108.179z"/>
		</g>
	</g>
	<g>
		<path fill="#E6F1FF" d="M363.608,87.758c0,0-1.697-0.535-2.301,1.264s-2.535,9.747-2.639,10.34
			c-0.104,0.594,1.534,2.874,2.559,1.35c1.023-1.524,3.028-11.118,3.146-11.82C364.491,88.189,363.608,87.758,363.608,87.758z"/>
		<path fill="#E6F1FF" d="M364.293,85.877c0,0-2.256-0.182-3.141,2.678c-0.885,2.86-1.334,6.013-1.334,6.013s0.731,1.37,4.643,1.039
			S364.293,85.877,364.293,85.877z"/>
		<path fill="#FEBFBF" d="M352.339,99.86c0,0-0.274,0.127-0.852,0.182c-0.578,0.052-0.875-0.263-1.248-0.381l-0.092-0.031
			c-0.313-0.107-0.464-0.206-0.464-0.206l-0.008-0.37c0,0-0.36-0.104-0.391-0.183c-0.031-0.078-0.137-0.249-0.121-0.35
			c0.005-0.033,0.021-0.069,0.045-0.103v-0.002c0.039-0.058,0.091-0.115,0.11-0.131l0.005-0.007l-0.491-0.256l-0.002-0.5
			l0.264-0.403l0.294,0.031l0.684,0.072l-1.123-0.354c0,0-0.329-0.055-0.473-0.116c-0.144-0.059-0.239-0.341-0.239-0.341
			l0.169-0.377c0,0,1.708,0.277,1.959,0.335c0.249,0.055,1.82,0.536,1.82,0.536s0.547,0.324,0.94,0.776
			c1.264,0.646,5.74,0.25,5.968,0.328c0.23,0.077,0.713,0.555,0.713,0.555s0.741,0.369,1.177,1.961
			C360.969,102.695,352.339,99.86,352.339,99.86z"/>
		<g>
			<path fill="#C4C8D8" d="M352.21,100.105c0.039-0.5-0.057-0.759-0.017-1.262c0.005-0.119-0.129-0.375-0.304-0.557
				c-1.561-1.667-2.532-2.705-4.094-4.372c-0.111-0.121,0.042-0.372-0.021-0.373c-0.011,0-0.274,0.189-0.282,0.193
				c-0.02,0.008-0.031,0.026-0.034,0.053c-0.039,0.503-0.079,1.004-0.118,1.504c0,0.001,0,0.003,0,0.005
				c-0.01,0.117,0.136,0.371,0.303,0.553c1.562,1.667,2.533,2.705,4.095,4.372c0.136,0.143,0.266,0.216,0.315,0.178l0.285-0.195
				C352.339,100.202,352.21,100.106,352.21,100.105z"/>
			<path fill="#F5F5F5" d="M347.822,93.691c0.008-0.099,0.137-0.051,0.279,0.102c1.545,1.649,2.502,2.671,4.047,4.321
				c0.142,0.152,0.258,0.365,0.25,0.463c-0.038,0.493-0.077,0.985-0.116,1.478c-0.008,0.099-0.137,0.05-0.278-0.102
				c-1.546-1.649-2.502-2.671-4.047-4.321c-0.143-0.151-0.259-0.365-0.251-0.463C347.745,94.676,347.783,94.184,347.822,93.691
				L347.822,93.691z M352.36,100.157c0-0.002,0-0.003,0-0.005c0.04-0.5,0.079-1,0.118-1.504c0.006-0.118-0.129-0.374-0.303-0.558
				c-1.562-1.667-2.533-2.704-4.094-4.371c-0.174-0.188-0.324-0.236-0.338-0.126c-0.039,0.503-0.078,1.003-0.118,1.504
				c0,0.001,0,0.002,0,0.004c-0.01,0.118,0.136,0.371,0.304,0.553c1.561,1.667,2.533,2.705,4.094,4.372
				C352.191,100.203,352.35,100.274,352.36,100.157L352.36,100.157z"/>
			<path fill="#7C78F0" d="M347.968,94.45l0.021,0.007l0.022,0.039c-0.01,0.123-0.02,0.245-0.029,0.367l-0.024-0.012l-0.019-0.034
				C347.949,94.695,347.958,94.572,347.968,94.45L347.968,94.45z M347.913,94.878l0.042,0.016l0.041,0.073l-0.046-0.017
				L347.913,94.878L347.913,94.878z M347.884,94.969l0.063,0.024l0.061,0.107l-0.067-0.028L347.884,94.969L347.884,94.969z
				 M352.282,100.055c0.039-0.492,0.078-0.984,0.116-1.478c0.008-0.098-0.108-0.312-0.25-0.463c-1.545-1.65-2.502-2.671-4.047-4.321
				c-0.143-0.152-0.271-0.2-0.279-0.102c-0.039,0.492-0.077,0.984-0.116,1.477c-0.008,0.098,0.108,0.312,0.251,0.463
				c1.545,1.65,2.501,2.672,4.047,4.321C352.145,100.105,352.274,100.153,352.282,100.055L352.282,100.055z"/>
			<path fill="#2A2A2C" d="M347.982,94.864c0.01-0.123,0.02-0.245,0.029-0.367l-0.022-0.039l-0.021-0.007
				c-0.01,0.122-0.02,0.245-0.029,0.367l0.019,0.034L347.982,94.864L347.982,94.864z"/>
			<path fill="#838383" d="M347.908,94.995l0.038,0.011l0.037,0.069l-0.042-0.016L347.908,94.995L347.908,94.995z M348.007,95.101
				l-0.061-0.107l-0.063-0.024l0.056,0.103L348.007,95.101L348.007,95.101z"/>
			<polygon fill="#516F83" points="347.983,95.075 347.946,95.006 347.908,94.995 347.941,95.06 347.983,95.075 			"/>
			<polygon fill="#2A2A2C" points="347.996,94.967 347.955,94.895 347.913,94.878 347.95,94.95 347.996,94.967 			"/>
		</g>
		
			<linearGradient id="SVGID_1_" gradientUnits="userSpaceOnUse" x1="2057.7935" y1="117.5645" x2="2058.8923" y2="116.3388" gradientTransform="matrix(0.946 0.3242 -0.3242 0.946 -1559.4902 -679.5366)">
			<stop  offset="0.1224" style="stop-color:#FEB9B8"/>
			<stop  offset="1" style="stop-color:#FFDEDE"/>
		</linearGradient>
		<path fill="url(#SVGID_1_)" d="M351.39,99.199c0,0-0.811,0.354-1.242,0.43c-0.313-0.107-0.464-0.206-0.464-0.206l-0.008-0.37
			c0,0-0.36-0.104-0.391-0.183c-0.031-0.078-0.137-0.249-0.121-0.35c0.005-0.033,0.021-0.069,0.045-0.103v-0.002l0.11-0.131
			l0.005-0.007l-0.491-0.256l-0.002-0.5l0.264-0.403l0.294,0.031l0.086,0.236c0,0,0.216,0.074,0.449,0.297
			c0.231,0.223-0.049,0.534-0.049,0.534l0.636-0.025c0,0,0.383,0.006,0.485,0.157c0.104,0.151-0.161,0.445-0.161,0.445
			s0.354-0.05,0.45-0.017C351.38,98.809,351.39,99.199,351.39,99.199z"/>
		<path fill="#FEBFBF" d="M351.752,97.354c0,0-0.68-0.127-0.796-0.07c-0.115,0.057-0.444,0.118-0.74-0.09
			c-0.295-0.207-0.109-0.327-0.109-0.327l0.624-0.316l1.185-0.009c0,0,0.96,0.728,1.017,0.86c0.058,0.133,0.096,1.016-0.194,1.187
			S351.365,98.147,351.752,97.354z"/>
		<polygon fill="#FEBFBF" points="352.127,98.766 351.322,98.094 350.913,97.723 350.433,97.421 350.775,97.085 352.05,97.273 
			351.536,97.347 351.157,97.546 		"/>
		<polygon fill="#FEBFBF" points="350.835,98.793 349.676,99.054 349.68,99.228 350.32,99.031 351.233,98.815 		"/>
		<path fill="#FEBFBF" d="M349.987,98.032c0,0-0.168,0.154-0.284,0.153c-0.115-0.001-0.869-0.164-0.869-0.164l0.486,0.264
			l-0.11,0.133l0.438-0.071l0.703-0.149l-0.475,0.019L349.987,98.032z"/>
	</g>
	<path fill="#DDE8F6" d="M360.99,106.244l-0.131,0.506c0,0,0.996,1.57,4.814,2.407c3.819,0.838,6.056,0.495,6.056,0.495l0.073-0.57
		L360.99,106.244z"/>
	<g>
		<path fill="#DDE8F6" d="M375.688,88.837c0,0,0.522-0.866-2.241-1.814c-1.562-0.536-1.757-1.101-2.736-1.354
			c-0.98-0.253-4.008-0.135-4.43-0.012c-0.42,0.123-2.389-0.033-3.317,0.791c-0.096,0.085-1.729,1.577-1.613,5.795
			c0.116,4.217,0.655,6.286,0.617,7.29c-0.153,4.064-1.091,6.847-1.091,6.847s1.436,2.033,6.214,2.672
			c4.778,0.639,6.171-0.347,6.171-0.347s0.266-6.797,0.444-7.989C373.884,99.524,375.688,88.837,375.688,88.837z"/>
	</g>
	<polygon fill="#E6F1FF" points="367.835,92.723 367.634,95.92 368.864,96.847 370.503,96.544 370.664,93.406 	"/>
	<g>
		<path fill="#DDE8F6" d="M372.265,92.811c0,0-0.241,2.472-0.406,3.113c-0.165,0.642,0.475,5.212,0.268,5.774
			c-0.208,0.562-0.03,5.032-0.03,5.032l-0.604,4.706l1.125-0.543c0,0,1.634-9.989,1.407-12.042S372.265,92.811,372.265,92.811z"/>
		<path fill="#E6F1FF" d="M376.505,101.253c0,0-0.015-8.609-0.161-10.647c-0.147-2.039-0.708-2.891-1.707-2.707
			c-0.998,0.184-2.406,0.966-2.257,3.856c0.148,2.888,1.232,11.018,1.921,11.856C374.99,104.449,376.505,101.253,376.505,101.253z"
			/>
		<path fill="#FEBFBF" d="M374.497,100.604c0,0-0.54,0.347-0.815,0.828c-0.275,0.481-1.278,8.861-1.613,9.526
			s-0.574,0.93-0.842,1.199s-1.483,1.988-1.483,1.988s-0.689,2.104-0.774,2.274c-0.084,0.171,0.33,0.241,0.591,0.008
			c0.262-0.233,0.712-1.249,0.712-1.249l-0.111,1.202c0,0-0.758,1.635-0.838,1.857c-0.079,0.222,0.016,0.488,0.268,0.392
			c0.252-0.096,0.667-0.706,0.667-0.706l0.306,0.205c0,0,0.24,0.221,0.561-0.03s0.609-0.729,0.609-0.729l0.405-0.015l0.498-0.401
			l0.524-0.23c0,0,0.479-0.946,0.389-1.475c-0.091-0.529-0.175-2-0.113-2.198c0.061-0.198,3.723-10.566,3.085-11.664
			C375.882,100.289,374.497,100.604,374.497,100.604z"/>
		<polygon fill="#FEBFBF" points="370.256,117.925 370.819,117.243 371.26,116.439 370.938,117.411 370.387,118.013 		"/>
		<polygon fill="#FEBFBF" points="371.732,117.37 372.136,116.402 372.083,116.995 371.876,117.365 		"/>
		<polygon fill="#FEBFBF" points="372.583,116.996 372.911,116.366 372.958,116.088 372.95,116.572 372.769,116.895 		"/>
		<polygon fill="#FEBFBF" points="370.271,115.18 370.421,114.289 370.138,114.977 369.834,116.045 		"/>
	</g>
	<g>
		
			<linearGradient id="SVGID_2_" gradientUnits="userSpaceOnUse" x1="1408.8198" y1="157.2437" x2="1404.2811" y2="153.9056" gradientTransform="matrix(0.9912 0.1326 -0.1326 0.9912 -1004.22 -256.3987)">
			<stop  offset="0.1224" style="stop-color:#FEC7C7"/>
			<stop  offset="0.9694" style="stop-color:#FFADB7"/>
		</linearGradient>
		<path fill="url(#SVGID_2_)" d="M370.738,79.559c0,0-0.577,2.945-0.423,4.039c0.153,1.094,1.147,2.331,1.195,2.679
			c0.047,0.348-2.113,1.365-3.552,1.385c-1.438,0.019-1.812-0.36-2.039-0.509c-0.227-0.147,0.403-1.429,0.276-2.682
			C366.07,83.218,368.789,79.521,370.738,79.559z"/>
		<path fill="#F64A6E" d="M365.814,88.841c0,0-1.404,6.497-2.316,16.694l0.58,1.577l1.003-0.975
			c0.533-12.584,1.484-16.953,1.484-16.953L365.814,88.841z"/>
		<polygon fill="#F64A6E" points="366.75,87.525 365.606,88.475 366.058,89.494 367.1,89.051 367.115,88.733 		"/>
		<path fill="#E6F1FF" d="M370.434,84.335l-0.076,0.863c0,0-0.835,2.283-3.608,2.327c-0.042,0.433,0.059,1.65,0.502,1.996
			c1.742-0.732,3.916-2.049,4.287-3.242c0.044-0.141-0.438-1.559-0.438-1.559l-0.631-0.526L370.434,84.335z"/>
		<path fill="#E6F1FF" d="M366.145,85.339c0,0-0.14,0.504-0.099,0.778c0.039,0.274,0.164,1.03,0.703,1.408
			c-0.501,0.686-1.378,1.022-1.718,0.997c0.243-1.034,0.32-2.008,0.412-2.815C365.535,84.9,366.338,84.749,366.145,85.339z"/>
		
			<linearGradient id="SVGID_3_" gradientUnits="userSpaceOnUse" x1="1403.4927" y1="156.5566" x2="1406.0503" y2="156.5566" gradientTransform="matrix(0.9912 0.1326 -0.1326 0.9912 -1004.22 -256.3987)">
			<stop  offset="0.1224" style="stop-color:#FCA4B5"/>
			<stop  offset="0.9896" style="stop-color:#FFADB7"/>
		</linearGradient>
		<path fill="url(#SVGID_3_)" d="M365.926,86.643c0,0,0.57,0.892,1.788,0.183c0.654-0.381,0.752-1.292,0.752-1.292l0.512-2.413
			l-2.924,2.951L365.926,86.643z"/>
		<path fill="#FEC7C7" d="M370.385,81.804c-0.021,0.006-0.04,0.013-0.06,0.018c0,0,0.002,0.001,0,0.002
			c-0.384,0.124-0.69,0.083-0.69,0.083s-0.73,1.763-1.146,2.754c-0.416,0.992-1.087,1.397-2.373,1.8
			c-1.287,0.403-1.604,0.033-1.806-0.219c-0.141-0.173-0.515-1.221-0.76-2.188c-0.108-0.42-0.189-0.822-0.22-1.133
			c-0.098-1.024-0.385-1.697-0.53-1.93c-0.145-0.231-0.166-1.575,0.096-3c0.261-1.425,1.778-2.917,2.897-3.273
			c1.119-0.357,2.706-0.058,4.01,0.761c1.303,0.818,1.819,1.765,1.768,2.746C371.517,79.207,370.979,81.348,370.385,81.804z"/>
		<path fill="#754554" d="M364.187,81.583c0,0,0.817,0.021,0.979,0.042c0.161,0.022,0.99,0.337,0.99,0.337l-1.081-0.184
			l-0.866-0.037L364.187,81.583z"/>
		<polygon fill="#754554" points="363.407,81.214 362.73,80.724 362.679,80.889 362.801,80.992 363.506,81.471 		"/>
		<g>
			
				<linearGradient id="SVGID_4_" gradientUnits="userSpaceOnUse" x1="1401.1079" y1="154.835" x2="1400.3245" y2="155.2852" gradientTransform="matrix(0.9912 0.1326 -0.1326 0.9912 -1004.22 -256.3987)">
				<stop  offset="0.1224" style="stop-color:#FEC7C7"/>
				<stop  offset="0.9896" style="stop-color:#FFDBDB"/>
			</linearGradient>
			<path fill="url(#SVGID_4_)" d="M363.753,81.708c0,0-0.268,0.999-0.484,1.535s0.077,0.74,0.533,0.79
				c0.457,0.049,0.677-0.098,0.677-0.098L363.753,81.708z"/>
			
				<linearGradient id="SVGID_5_" gradientUnits="userSpaceOnUse" x1="1400.3306" y1="154.8975" x2="1401.7271" y2="154.8975" gradientTransform="matrix(0.9912 0.1326 -0.1326 0.9912 -1004.22 -256.3987)">
				<stop  offset="0.188" style="stop-color:#FFDCDC"/>
				<stop  offset="0.8991" style="stop-color:#FEC7C7"/>
			</linearGradient>
			<path fill="url(#SVGID_5_)" d="M363.915,84.084c-0.037-0.001-0.075-0.004-0.116-0.009c-0.297-0.032-0.493-0.125-0.585-0.279
				c-0.085-0.143-0.08-0.334,0.016-0.57c0.214-0.528,0.48-1.521,0.482-1.531l0.084,0.022c-0.003,0.01-0.271,1.008-0.486,1.541
				c-0.085,0.209-0.092,0.375-0.021,0.492c0.077,0.129,0.252,0.209,0.52,0.238c0.435,0.046,0.646-0.09,0.647-0.091l0.048,0.072
				C364.494,83.977,364.303,84.102,363.915,84.084z"/>
		</g>
		
			<ellipse transform="matrix(0.8469 -0.5318 0.5318 0.8469 12.0591 206.8153)" fill="#FFFFFF" cx="365.176" cy="82.466" rx="0.223" ry="0.245"/>
		
			<ellipse transform="matrix(0.8468 -0.532 0.532 0.8468 12.157 205.8717)" fill="#FFFFFF" cx="363.422" cy="81.834" rx="0.178" ry="0.245"/>
		<path fill="#AF727B" d="M370.326,81.821c0,0,0.002,0.001,0,0.002c-0.384,0.124-0.69,0.083-0.69,0.083s-0.73,1.763-1.146,2.754
			c-0.416,0.992-1.087,1.397-2.373,1.8c-1.287,0.403-1.604,0.033-1.806-0.219c-0.141-0.173-0.515-1.221-0.76-2.188
			c0.191,0.033,0.439,0.079,0.734,0.124c0.595,0.245,2.308,0.871,3.298,0.208c0.592-0.396,0.52-1.861,0.52-1.861
			c0.237-2.122,1.755-2.99,2.176-1.859C370.364,80.893,370.387,81.307,370.326,81.821z"/>
		<path fill="#FEC7C7" d="M368.809,83.896c0.13-0.312-0.124-0.811-0.08-1.559c0.043-0.748-0.014-1.603,0.246-1.727
			c0.261-0.125,0.81,0.035,0.81,0.035l-0.317,1.665L368.809,83.896z"/>
		<path fill="#754554" d="M368.729,82.337c0,0,0.229-1.254,0.548-1.399c0.317-0.146,0.538,0.023,0.538,0.023s0.449,1.614,0.49,1.696
			c0.268-0.664,0.811-1.148,1.141-2.147c0.33-1,1.044-2.61,0.121-3.981s-2.159-1.454-2.159-1.454s-1.295-1.404-3.824-0.709
			s-3.124,3.463-3.156,3.707c-0.032,0.242,0.342,0.787,0.342,0.787s0.648,0.522,1.618-0.043c0.97-0.564,2.076-0.475,2.347-0.298
			c0.271,0.178-0.136,1.807-0.096,2.035c0.04,0.229,0.973,0.613,1.203,0.803c0.229,0.189,0.262,1.171,0.262,1.171L368.729,82.337z"
			/>
		<path fill="#754554" d="M364.012,84.229c0,0,0.482-0.21,0.966,0.224c0.484,0.434,1.146,0.53,1.313,0.458
			c0.166-0.072,0.166-0.072,0.166-0.072s-0.112,0.487-0.895,0.296c-0.783-0.191-1.152-0.488-1.44-0.491
			C363.904,84.555,364.012,84.229,364.012,84.229z"/>
		<path fill="#754554" d="M364.146,84.269c0,0-0.035-0.076-0.128-0.089c-0.092-0.012-0.29-0.117-0.555-0.074
			c-0.265,0.043-0.462-0.069-0.538-0.258c-0.077-0.189,0.091,0.554,0.409,0.692c0.319,0.138,0.534,0.175,0.788,0.097
			C364.376,84.558,364.146,84.269,364.146,84.269z"/>
		<path fill="#FEC7C7" d="M364.918,85.177c0,0-0.325-0.114-0.446-0.136s-0.432-0.076-0.497-0.067
			c-0.066,0.009,0.001,0.259,0.215,0.329S364.819,85.264,364.918,85.177z"/>
		
			<linearGradient id="SVGID_6_" gradientUnits="userSpaceOnUse" x1="1406.0503" y1="153.0596" x2="1407.4341" y2="153.0596" gradientTransform="matrix(0.9912 0.1326 -0.1326 0.9912 -1004.22 -256.3987)">
			<stop  offset="0.1224" style="stop-color:#FEB9B8"/>
			<stop  offset="1" style="stop-color:#FFDEDE"/>
		</linearGradient>
		<path fill="url(#SVGID_6_)" d="M369.21,81.387c0,0,0.318-0.723,1.068-0.72c0.751,0.002,0.122,1.319-0.06,1.742
			c-0.183,0.423-0.549,0.695-0.829,0.619c-0.279-0.077-0.344-0.415-0.344-0.415S369.226,81.914,369.21,81.387z"/>
		
			<linearGradient id="SVGID_7_" gradientUnits="userSpaceOnUse" x1="1406.2144" y1="152.917" x2="1407.2358" y2="152.917" gradientTransform="matrix(0.9912 0.1326 -0.1326 0.9912 -1004.22 -256.3987)">
			<stop  offset="0.1224" style="stop-color:#FCA4B5"/>
			<stop  offset="0.9896" style="stop-color:#FFADB7"/>
		</linearGradient>
		<path fill="url(#SVGID_7_)" d="M369.349,81.579c0,0,0.589-0.684,0.908-0.594c0.318,0.09,0.078,0.803-0.104,1.179
			c-0.181,0.376-0.742,0.301-0.783,0.193s-0.098-0.14-0.098-0.14L369.349,81.579z"/>
	</g>
	<path fill="#E6F1FF" d="M372.902,96.778l0.723,4.516l-1.693,9.402c0,0,0.769,0.977,2.17,0.853c0.131-0.433,2.436-7.781,2.499-9.273
		c0.064-1.492-0.079-2.731-0.079-2.731L372.902,96.778z"/>
	<path fill="#E6F1FF" d="M353.478,97.813c0,0,0.034-0.08,0.308-0.037c0.272,0.044,0.5,0.17,1.884,0.198
		c1.385,0.028,3.312,0.019,3.312,0.019s0.946-0.157,1.6,1.137c0.652,1.294,0.587,1.61,0.254,1.976
		c-0.334,0.365-1.494,0.294-1.706,0.285c-0.211-0.009-1.27-0.123-2.123-0.287c-0.853-0.164-3.729-0.849-4.072-1.059
		c0.157,0.008,0.346,0.069,0.346,0.069s0.531-0.138,0.623-1.024c0.091-0.881-0.213-1.224-0.213-1.224L353.478,97.813z"/>
</g>
</svg>
