<?xml version="1.0" encoding="utf-8"?>
<!-- Generator: Adobe Illustrator 16.0.0, SVG Export Plug-In . SVG Version: 6.00 Build 0)  -->
<!DOCTYPE svg PUBLIC "-//W3C//DTD SVG 1.1//EN" "http://www.w3.org/Graphics/SVG/1.1/DTD/svg11.dtd">
<svg version="1.1" id="Layer_1" xmlns="http://www.w3.org/2000/svg" xmlns:xlink="http://www.w3.org/1999/xlink" x="0px" y="0px"
	 width="463.683px" height="425.749px" viewBox="0 0 463.683 425.749" enable-background="new 0 0 463.683 425.749"
	 xml:space="preserve">
<g>
	<path fill="#6A3646" d="M187.039,42.446c0,0-1.571-0.487-2.856,0.524c-1.47,1.157-0.68,3.651-0.234,4.687
		c0.479,1.114,0.809,3.45-0.674,4.331c0.367,0.927,2.679,0.152,3.379-0.29C187.352,51.258,190.041,44.991,187.039,42.446z"/>
	<g>
		<path fill="#BDD6F2" d="M198.354,111.483c-4.29,2.73-11.446,3.026-15.984,0.661c-4.538-2.365-4.739-6.496-0.448-9.226
			c4.29-2.73,11.446-3.026,15.984-0.661C202.444,104.623,202.645,108.753,198.354,111.483z"/>
		<g>
			<g>
				<g>
					<path fill="#FFA1A3" d="M190.671,100.017c0,0-1.086,1.036-0.892,1.618c0.194,0.582,2.646,4.108,3.854,4.467
						c2.513,0.747,1.818-1.481,1.385-1.926c-0.381-0.392-1.876-1.448-1.914-2.515C193.053,100.221,190.671,100.017,190.671,100.017z
						"/>
					<path fill="#8E8E8E" d="M191.104,103.398c0,0-0.408,0.162-0.397,0.478c0.01,0.316,0.031,1.508,0.031,1.508
						s-0.271,0.163-0.43,0.098c-0.16-0.065-0.399-0.428-0.399-0.428s-0.337-2.33-0.48-2.799
						C189.286,101.787,191.104,103.398,191.104,103.398z"/>
					<path fill="#C2D2EA" d="M189.619,100.746c0,0,1.756,1.896,2.477,3.169c0.721,1.274,1.458,1.763,1.983,1.715
						c0.836-0.078,1.352-0.621,1.146-1.038c-0.206-0.416-0.206-0.416-0.206-0.416s2.262,2.134,2.059,3.561
						c-0.203,1.426-4.051-0.321-4.66-1.022c-0.233-0.268-0.776-2.287-1.297-2.842c-0.521-0.555-1.269-0.266-1.646-1.437
						C189.097,101.264,189.619,100.746,189.619,100.746z"/>
					<path fill="#8E8E8E" d="M191,103.597c0.521,0.555,1.269,2.665,1.502,2.933c0.567,0.653,3.95,2.17,4.576,1.182
						c-0.001,0.008,0,0.017-0.001,0.025c-0.203,1.426-4.051-0.321-4.66-1.022c-0.233-0.268-0.776-2.287-1.297-2.842
						c-0.453-0.483-1.309-0.275-1.577-1.248C189.905,102.847,190.622,103.194,191,103.597z"/>
				</g>
				<g>
					<path fill="#8E8E8E" d="M186.207,104.772c0,0-0.606-0.182-0.601,0.135c0.005,0.317,0.093,2.29,0.093,2.29
						s-0.14,0.136-0.298,0.068c-0.159-0.067-0.393-0.434-0.393-0.434s-0.248-1.928-0.239-2.418
						C184.781,103.832,186.207,104.772,186.207,104.772z"/>
					
						<linearGradient id="SVGID_1_" gradientUnits="userSpaceOnUse" x1="-986.6855" y1="52.9023" x2="-982.2319" y2="52.9023" gradientTransform="matrix(0.9991 -0.0431 0.0431 0.9991 1168.75 10.1523)">
						<stop  offset="0.1224" style="stop-color:#FEC7C7"/>
						<stop  offset="0.9694" style="stop-color:#FFADB7"/>
					</linearGradient>
					<path fill="url(#SVGID_1_)" d="M186.039,101.994c0,0-0.903,0.732-0.886,1.674c0.018,0.926,1.183,4.682,2.367,5.113
						c1.184,0.432,2.369-0.337,2.27-0.875c-0.1-0.538-1.151-2.201-1.441-3.519C188.039,102.98,186.039,101.994,186.039,101.994z"/>
					<path fill="#C2D2EA" d="M188.352,103.841c0,0,0.895,1.675,1.284,2.816c0.849,2.488,0.808,3.576,0.626,4.17
						c-0.19,0.619-1.979,0.066-3.249-0.972c-1.456-1.19-0.823-2.617-1.715-4.059c-0.29-0.469-0.557-0.81-0.552-1.926
						c-0.013-0.947,0.826-1.342,0.826-1.342s-0.635,0.961-0.297,1.763c0.17,0.404,0.107,0.579,0.364,1.083
						c0.51,1.004,0.595,1.987,1.327,2.714c0.687,0.682,2.72,0.262,2.665-0.141c-0.102-0.745-0.755-2.002-1.015-2.699
						C188.306,104.416,188.352,103.841,188.352,103.841z"/>
					<path fill="#8E8E8E" d="M185.358,105.688c0.892,1.442,0.219,2.777,1.675,3.967c1.176,0.96,2.898,1.531,3.258,1.079
						c-0.01,0.031-0.02,0.063-0.029,0.093c-0.19,0.619-1.979,0.066-3.249-0.972c-1.456-1.19-0.823-2.617-1.715-4.059
						c-0.189-0.306-0.477-0.61-0.507-1.211C184.954,104.907,185.218,105.461,185.358,105.688z"/>
				</g>
				<path fill="#4F5997" d="M189.974,101.286c0,0,0.214,0.399,0.714,0.619c0.511,0.227,1.316,0.264,2.494-0.501
					c0,0,0.279-14.672,1.094-18.974l-3.508,6.188l-1.472,0.053l-0.002,0.001c0,0-0.607,4.719-0.243,7.195
					C189.418,98.345,189.974,101.286,189.974,101.286z"/>
				<path fill="#4F5997" d="M189.23,88.507c0.018,0.057,0.039,0.11,0.064,0.164l0.002-0.001c0.217,0.46,0.688,0.733,1.231,0.853
					c1.072,0.238,2.419-0.124,2.653-0.841c0.015-0.044,0.03-0.097,0.048-0.155c0.423-1.406,1.324-7.323,1.892-11.722
					c0.591-4.583-0.63-7.824-0.63-7.824l-5.518,2.07c0,0-0.048,2.701-0.067,5.941C188.883,81.431,188.946,87.612,189.23,88.507z"/>
				<path fill="#A8B0C2" d="M189.974,101.286c0,0,0.214,0.399,0.714,0.619c-0.377-2.454-0.99-6.648-0.887-7.512
					c0.066-0.58,0.213-3.421,0.371-4.788c1.073-9.283,0.946-12.163,0.946-12.163l1.194-1.82l-3.406,1.371
					c-0.023,4.438,0.04,10.62,0.324,11.515c0.018,0.057,0.039,0.11,0.064,0.164c0,0-0.607,4.719-0.243,7.195
					C189.418,98.345,189.974,101.286,189.974,101.286z"/>
				<path fill="#4F5997" d="M192.431,72.943l0.782,0.917c0,0,0.068,1.131-2.433,3.013c-0.015,2.654-0.898,8.145-1.822,13.156
					c-0.396,2.147-3.374,0.452-3.805-1.896c-0.431-2.349-2.349-9.712-2.514-11.523c-0.165-1.812-0.308-3.654,0.947-4.722
					C184.843,70.82,192.431,72.943,192.431,72.943z"/>
				<path fill="#4F5997" d="M188.335,103.287c-0.469-1.644-0.048-10.652,0.624-13.258c-3.463-2.015-3.906-2.406-3.906-2.406
					s-1.21,5.707-1.214,8.035c-0.003,1.331,1.451,7.909,1.451,7.909S186.64,104.994,188.335,103.287z"/>
				<g>
					<path fill="#8C92B0" d="M185.718,104.377l0.244-0.061c-0.014-0.058-1.429-5.749-1.44-8.379
						c-0.009-2.047,0.465-4.698,0.777-6.452c0.147-0.82,0.263-1.469,0.293-1.836s-0.188-1.414-0.492-2.864
						c-0.69-3.297-1.734-8.281-0.87-10.158l-0.229-0.105c-0.899,1.953,0.155,6.985,0.852,10.315c0.288,1.374,0.516,2.46,0.488,2.791
						c-0.03,0.355-0.144,0.998-0.29,1.813c-0.315,1.763-0.791,4.427-0.782,6.497C184.282,98.6,185.704,104.32,185.718,104.377z"/>
				</g>
			</g>
			<g>
				<path fill="#FEBFBF" d="M193.058,51.828c0,0,1.454-0.291,1.923,0.593c0.47,0.883,2.195,10.556,2.172,11.062
					c-0.023,0.506-1.917,2.522-2.958-1.847C193.155,57.269,193.058,51.828,193.058,51.828z"/>
				<path fill="#FEBFBF" d="M194.667,65.18c0,0,2.489-0.43,2.583-0.392c0.093,0.038,3.014-0.824,1.736-1.16
					s-2.066-0.358-2.066-0.358S192.957,63.752,194.667,65.18z"/>
				<g>
					<path fill="#E6F1FF" d="M191.573,51.06l1.517,0.033c0,0,1.69,0.315,2.173,1.427s0.861,3.604,0.861,3.604
						s-0.644,0.48-1.345,0.792C194.078,57.228,191.573,51.06,191.573,51.06z"/>
				</g>
				<path fill="#DDE8F6" d="M183.646,72.418c0.146,0.152,0.533,0.355,1.075,0.552c1.293,0.466,3.479,0.895,5.461,0.515
					c2.813-0.54,4.563-1.907,4.85-3.004c-0.051-0.474-0.033-5.296,0.048-6.409c0.084-1.113,0.877-3.148,0.885-3.942
					c0.008-0.791-0.642-2.491-0.792-3.378c-0.15-0.885-1.013-4.46-1.399-4.882c-0.282-0.308-0.777-0.582-1.707-0.728
					c-0.676-0.106-4.418-0.61-5.176-0.308c-0.761,0.302-1.503,0.916-2.325,1.483c-0.823,0.565-2.855,2.024-2.855,2.024
					s0.894,3.357,1.19,5.192c0.073,0.458,0.131,0.849,0.164,1.115c0.162,1.325,0.16,8.52,0.16,8.52S183.148,71.901,183.646,72.418z"
					/>
				<path fill="#FEBFBF" d="M186.825,50.714c-0.142,0.008-0.504,0.551-1.133,0.867c-0.629,0.316-0.647,0.401,0.117,1.091
					c0.764,0.691,3.486,3.781,5.203,3.403c1.718-0.377,1.621-2.05,1.55-2.719c-0.072-0.669-1.104-2.187-1.437-2.33
					C190.792,50.882,186.825,50.714,186.825,50.714z"/>
				<path fill="#DDE8F6" d="M183.646,72.418c0.146,0.152,0.533,0.355,1.075,0.552c-0.023-0.139-0.053-0.29-0.088-0.454
					c-0.893-4.21,0.337-3.717,0.448-5.425c0.113-1.71-0.362-3.051,0.216-2.971c0.579,0.08,1.321,0.124,2.229-0.321
					c-0.742,0.287-1.673,0.195-2.289-0.24c-0.617-0.436-0.407-3.799-0.407-3.799c-0.78-0.354-1.414-0.4-1.928-0.226
					c0.073,0.458,0.131,0.849,0.164,1.115c0.162,1.325,0.16,8.52,0.16,8.52S183.148,71.901,183.646,72.418z"/>
				<g>
					<path fill="#FEBFBF" d="M183.26,54.578c0,0,1.073,0.092,1.276,1.989c0.203,1.896-0.873,10.173-1.58,10.984
						s-1.792,0.303-2.113-1.485s-0.268-6.964-0.243-7.592C180.625,57.846,180.821,53.583,183.26,54.578z"/>
					<path fill="#FEBFBF" d="M182.747,66.488c0,0,0.365,0.31,0.66,1.603c0.294,1.293,0.929,7.556,1.421,8.202
						c0.493,0.646,1.055,1.166,1.055,1.166s0.561,0.943,0.592,1.234s0.263,0.91,0.381,1.063c0.118,0.152,0.52,0.726,0.487,0.858
						c-0.031,0.132-0.418,0.219-0.582,0.062c-0.164-0.157-0.644-1.284-0.803-1.487c-0.16-0.204-0.334-0.268-0.334-0.268
						s-0.162,0.79-0.104,0.985c0.058,0.197,0.61,1.49,0.61,1.49s0.536,0.798,0.553,0.87c0.017,0.072-0.281,0.131-0.433,0
						s-0.115,0.132-0.417,0.054c-0.303-0.078-1.122-0.772-1.122-0.772l-0.13-0.179l-0.601-0.11c0,0-0.869-1.416-0.93-1.805
						c-0.06-0.39-0.365-3.412-0.365-3.412s-2.67-7.332-1.688-9.369C181.447,66.038,182.747,66.488,182.747,66.488z"/>
					
						<linearGradient id="SVGID_2_" gradientUnits="userSpaceOnUse" x1="3849.937" y1="-138.0864" x2="3851.3179" y2="-138.0864" gradientTransform="matrix(-0.9943 0.1065 0.1065 0.9943 4028.8311 -191.5432)">
						<stop  offset="0.1224" style="stop-color:#FCA4B5"/>
						<stop  offset="0.9896" style="stop-color:#FFADB7"/>
					</linearGradient>
					<path fill="url(#SVGID_2_)" d="M184.643,80.23c0,0,0.527,1.116,0.642,1.229c0.115,0.111,0.965,0.81,0.965,0.81l-0.193,0.021
						c0,0-0.388-0.396-0.485-0.468c-0.097-0.072-0.434-0.381-0.434-0.381l-0.47-0.971L184.643,80.23z"/>
					
						<linearGradient id="SVGID_3_" gradientUnits="userSpaceOnUse" x1="3851.5015" y1="-138.6216" x2="3852.0181" y2="-138.6216" gradientTransform="matrix(-0.9943 0.1065 0.1065 0.9943 4028.8311 -191.5432)">
						<stop  offset="0.1224" style="stop-color:#FCA4B5"/>
						<stop  offset="0.9896" style="stop-color:#FFADB7"/>
					</linearGradient>
					<path fill="url(#SVGID_3_)" d="M183.947,80.305l0.495,0.948l0.139,0.119l-0.135-0.025c0,0-0.202-0.204-0.26-0.363
						C184.126,80.824,183.947,80.305,183.947,80.305z"/>
					<path fill="#E6F1FF" d="M183.117,54.353c0,0,0.972,0.186,1.461,1.527c0.489,1.341,0.002,4.788,0.002,4.788
						s-1.409-0.139-2.857-0.521s-1.587-1.029-1.587-1.029s0.739-3.145,0.991-3.627S181.405,53.832,183.117,54.353z"/>
				</g>
			</g>
			<g>
				
					<linearGradient id="SVGID_4_" gradientUnits="userSpaceOnUse" x1="3845.8765" y1="-167.168" x2="3843.2485" y2="-170.4742" gradientTransform="matrix(-0.9943 0.1065 0.1065 0.9943 4028.8311 -191.5432)">
					<stop  offset="0.1224" style="stop-color:#FEC7C7"/>
					<stop  offset="0.9694" style="stop-color:#FFADB7"/>
				</linearGradient>
				<path fill="url(#SVGID_4_)" d="M191.56,50.441c0,0-0.297,0.708-0.228,1.349c0.068,0.641,0.431,1.707,0.431,1.707
					s-0.389,0.76-1.958,0.596c-1.569-0.163-1.628-0.708-2.127-0.986s-1.786-1.558-1.707-1.65c0.08-0.091,1.375-0.747,0.864-2.607
					c-0.511-1.86-1.254-2.819-1.254-2.819s-0.44-0.78,0.104-0.839C186.228,45.133,191.56,50.441,191.56,50.441z"/>
				
					<linearGradient id="SVGID_5_" gradientUnits="userSpaceOnUse" x1="3841.2671" y1="-167.4805" x2="3844.8257" y2="-167.4805" gradientTransform="matrix(-0.9943 0.1065 0.1065 0.9943 4028.8311 -191.5432)">
					<stop  offset="0.1224" style="stop-color:#FCA4B5"/>
					<stop  offset="0.9896" style="stop-color:#FFADB7"/>
				</linearGradient>
				<path fill="url(#SVGID_5_)" d="M187.888,49.574c0,0,1.346,1.24,1.633,1.872s1.593,1.485,1.593,1.485l0.209-1.406l0.237-1.084
					L187.888,49.574z"/>
				<path fill="#FEC7C7" d="M191.873,41.769c0,0,0.572,0.449,0.95,1.402c0.378,0.953,0.645,1.767,0.622,1.935
					s-0.165,0.528,0.061,1.208c0.225,0.68-0.445,4.091-1.181,4.433c-0.736,0.341-4.155-0.783-4.539-1.267
					c-0.383-0.483-1.366-2.448-1.494-3.773c-0.128-1.325-0.528-2.869,1.386-3.682C189.591,41.213,191.873,41.769,191.873,41.769z"/>
				<g>
					
						<linearGradient id="SVGID_6_" gradientUnits="userSpaceOnUse" x1="3840.2124" y1="-171.6406" x2="3839.1956" y2="-171.6088" gradientTransform="matrix(-0.9943 0.1065 0.1065 0.9943 4028.8311 -191.5432)">
						<stop  offset="0.1224" style="stop-color:#FEC7C7"/>
						<stop  offset="0.9896" style="stop-color:#FFDBDB"/>
					</linearGradient>
					<path fill="url(#SVGID_6_)" d="M192.338,45.477c-0.07,0.375,0.913,1.904,0.958,2.246c0.046,0.343-0.917,0.326-0.917,0.326
						L192.338,45.477z"/>
					
						<linearGradient id="SVGID_7_" gradientUnits="userSpaceOnUse" x1="3839.1997" y1="-171.6128" x2="3840.2046" y2="-171.6128" gradientTransform="matrix(-0.9943 0.1065 0.1065 0.9943 4028.8311 -191.5432)">
						<stop  offset="0.188" style="stop-color:#FFDCDC"/>
						<stop  offset="0.8991" style="stop-color:#FEC7C7"/>
					</linearGradient>
					<path fill="url(#SVGID_7_)" d="M192.544,48.097c0.226-0.01,0.608-0.05,0.749-0.207c0.045-0.051,0.063-0.109,0.054-0.174
						c-0.02-0.15-0.197-0.49-0.402-0.884c-0.265-0.509-0.594-1.142-0.557-1.345l-0.1-0.019c-0.044,0.237,0.267,0.834,0.566,1.411
						c0.192,0.37,0.374,0.718,0.392,0.851c0.004,0.035-0.005,0.064-0.03,0.092c-0.137,0.154-0.654,0.181-0.837,0.177l-0.002,0.102
						C192.398,48.1,192.46,48.101,192.544,48.097z"/>
				</g>
				<g>
					<path fill="#754554" d="M189.736,45.616c1.175-0.253,1.819-0.181,1.825-0.18l0.021-0.168c-0.027-0.002-0.675-0.078-1.883,0.183
						L189.736,45.616z"/>
				</g>
				<g>
					<path fill="#754554" d="M192.583,45.247c0.236-0.166,0.63-0.385,0.757-0.359l0.034-0.166c-0.258-0.053-0.784,0.313-0.888,0.386
						L192.583,45.247z"/>
				</g>
				
					<ellipse transform="matrix(-0.9581 0.2865 -0.2865 -0.9581 386.5182 36.0179)" fill="#FFFFFF" cx="190.624" cy="46.289" rx="0.357" ry="0.306"/>
				
					<ellipse transform="matrix(-0.7037 -0.7105 0.7105 -0.7037 295.9992 215.1198)" fill="#FFFFFF" cx="192.856" cy="45.838" rx="0.251" ry="0.288"/>
				<path fill="#FB7F9E" d="M191.296,49.269c0,0,0.977-0.346,1.372-0.403c0.394-0.056,0.422,0.079,0.396,0.213
					C193.036,49.214,192.429,50.189,191.296,49.269z"/>
				<path fill="#754554" d="M185.807,46.218c0,0,0.309-0.405,0.544-0.271c0.235,0.134,0.676,0.315,0.695,0.499
					c0.02,0.185,0.195,1.18,0.195,1.18s0.417-0.741,0.338-1.479c-0.079-0.736,0.142-1.768,0.438-2.227
					c0.295-0.46,0.592-1.168,1.297-1.285s1.685,0.013,2.26-0.035c0.574-0.048,0.807-0.254,0.807-0.254l0.526,1.042
					c0,0-0.035-0.522-0.359-1.104c-0.325-0.582-2.678-3.228-5.942-1.36c-2.399,1.182-2.223,3.854-1.843,4.821
					s1.519,1.818,1.637,2.115s0.433,0.713,0.435,0.988c0.002,0.276-0.143-1.033-0.379-1.588
					C186.219,46.708,185.807,46.218,185.807,46.218z"/>
				
					<linearGradient id="SVGID_8_" gradientUnits="userSpaceOnUse" x1="3845.2925" y1="-171.8389" x2="3846.9282" y2="-171.8389" gradientTransform="matrix(-0.9943 0.1065 0.1065 0.9943 4028.8311 -191.5432)">
					<stop  offset="0.1224" style="stop-color:#FEB9B8"/>
					<stop  offset="1" style="stop-color:#FFDEDE"/>
				</linearGradient>
				<path fill="url(#SVGID_8_)" d="M186.686,46.43c0,0-0.85-0.84-1.15-0.173c-0.301,0.667,0.379,1.416,0.818,1.775
					c0.439,0.36,0.76,0.457,0.883,0.257s-0.209-0.923-0.209-0.923L186.686,46.43z"/>
				
					<linearGradient id="SVGID_9_" gradientUnits="userSpaceOnUse" x1="3845.5562" y1="-171.9492" x2="3846.6899" y2="-171.9492" gradientTransform="matrix(-0.9943 0.1065 0.1065 0.9943 4028.8311 -191.5432)">
					<stop  offset="0.1224" style="stop-color:#FCA4B5"/>
					<stop  offset="0.9896" style="stop-color:#FFADB7"/>
				</linearGradient>
				<path fill="url(#SVGID_9_)" d="M186.563,46.443c0,0-0.542-0.48-0.764-0.104c-0.222,0.375-0.027,1.031,0.545,1.576
					c0.549,0.197,0.627-0.039,0.62-0.107s-0.219-0.37-0.248-0.64C186.688,46.899,186.563,46.443,186.563,46.443z"/>
			</g>
			<g>
				<path fill="#FEBFBF" d="M196.631,63.547l0.412-0.965c0,0,1.133-0.333,1.396-0.278c0.263,0.055,2.145,0.875,2.145,0.875
					s0.844,0.747,0.276,1.028s-1.106,0.237-1.106,0.237l-0.047,0.585l-0.917,0.715l-0.913-0.013l-0.732-0.586l-0.791-0.144
					c0,0-0.556-0.806-0.389-0.971s0.673-0.072,0.673-0.072l0.465,0.052L196.631,63.547z"/>
				<g>
					<path fill="#C4C8D8" d="M195.432,64.429c-0.055,0.023,0.02,0.412,0.024,0.422c0.007,0.016,0.084,0.015,0.21-0.006
						c1.936-0.319,3.142-0.518,5.073-0.837c0.211-0.035,0.514-0.114,0.658-0.175c0.002-0.001,0.004-0.001,0.005-0.002
						c0.629-0.264,1.255-0.526,1.884-0.791c0.053-0.022,0.08-0.04,0.08-0.052c0-0.004-0.03-0.407-0.036-0.41
						c-0.024-0.007-0.355,0.134-0.465,0.153c-1.931,0.319-2.845,0.78-4.782,1.099c-0.208,0.033-0.515,0.117-0.663,0.177
						c-0.629,0.264-1.353,0.155-1.982,0.418C195.435,64.427,195.434,64.428,195.432,64.429L195.432,64.429z"/>
					<path fill="#F5F5F5" d="M203.14,62.654c-0.616,0.258-1.235,0.518-1.851,0.776c-0.12,0.051-0.375,0.119-0.557,0.148
						c-1.911,0.315-3.098,0.511-5.014,0.827c-0.182,0.03-0.226,0.011-0.105-0.039c0.616-0.259,1.235-0.519,1.851-0.777
						c0.12-0.05,0.37-0.118,0.552-0.148c1.916-0.316,3.103-0.512,5.014-0.827C203.211,62.586,203.26,62.604,203.14,62.654
						L203.14,62.654z M195.494,64.393c-0.144,0.061-0.069,0.077,0.136,0.044c1.936-0.319,3.142-0.519,5.073-0.837
						c0.211-0.036,0.514-0.114,0.658-0.175c0.002-0.001,0.004-0.001,0.005-0.002c0.629-0.265,1.255-0.527,1.884-0.791
						c0.138-0.06,0.097-0.085-0.131-0.046c-1.931,0.319-3.137,0.518-5.073,0.837c-0.209,0.033-0.515,0.116-0.663,0.177
						c-0.629,0.264-1.255,0.526-1.884,0.791C195.497,64.391,195.496,64.392,195.494,64.393L195.494,64.393z"/>
					<path fill="#7C78F0" d="M202.209,62.985c-0.153,0.064-0.307,0.128-0.459,0.193l-0.046,0.012l-0.008-0.003
						c0.153-0.064,0.307-0.128,0.459-0.193l0.041-0.011L202.209,62.985L202.209,62.985z M201.668,63.218l-0.087,0.023l-0.016-0.006
						l0.085-0.023L201.668,63.218L201.668,63.218z M201.556,63.271l-0.128,0.034l-0.024-0.009l0.124-0.033L201.556,63.271
						L201.556,63.271z M195.614,64.367c-0.12,0.05-0.076,0.069,0.105,0.039c1.916-0.316,3.103-0.512,5.014-0.827
						c0.182-0.029,0.437-0.098,0.557-0.148c0.616-0.258,1.235-0.518,1.851-0.776c0.12-0.05,0.071-0.068-0.11-0.039
						c-1.911,0.315-3.098,0.511-5.014,0.827c-0.182,0.03-0.432,0.098-0.552,0.148C196.849,63.849,196.229,64.108,195.614,64.367
						L195.614,64.367z"/>
					<path fill="#2A2A2C" d="M201.696,63.187c0.153-0.064,0.307-0.128,0.459-0.193l0.041-0.011l0.013,0.002
						c-0.153,0.064-0.307,0.128-0.459,0.193l-0.046,0.012L201.696,63.187L201.696,63.187z"/>
					<path fill="#838383" d="M201.526,63.276l-0.083,0.022l-0.01-0.007l0.074-0.02L201.526,63.276L201.526,63.276z M201.404,63.297
						l0.024,0.009l0.128-0.034l-0.029-0.008L201.404,63.297L201.404,63.297z"/>
					<polygon fill="#516F83" points="201.434,63.292 201.507,63.272 201.526,63.276 201.444,63.299 201.434,63.292 					"/>
					<polygon fill="#2A2A2C" points="201.565,63.235 201.65,63.212 201.668,63.218 201.581,63.241 201.565,63.235 					"/>
				</g>
				
					<linearGradient id="SVGID_10_" gradientUnits="userSpaceOnUse" x1="3834.4546" y1="-153.0518" x2="3837.3462" y2="-153.0518" gradientTransform="matrix(-0.9943 0.1065 0.1065 0.9943 4028.8311 -191.5432)">
					<stop  offset="0.1224" style="stop-color:#FCA4B5"/>
					<stop  offset="0.9896" style="stop-color:#FFADB7"/>
				</linearGradient>
				<polygon fill="url(#SVGID_10_)" points="199.844,64.159 199.772,64.351 199.909,64.427 199.835,64.942 198.348,65.313 
					197.063,65 198.386,65.07 199.493,64.574 199.513,64.333 198.2,64.446 				"/>
				
					<linearGradient id="SVGID_11_" gradientUnits="userSpaceOnUse" x1="3835.2866" y1="-154.6685" x2="3837.0579" y2="-155.1233" gradientTransform="matrix(-0.9943 0.1065 0.1065 0.9943 4028.8311 -191.5432)">
					<stop  offset="0.1224" style="stop-color:#FEB9B8"/>
					<stop  offset="1" style="stop-color:#FFDEDE"/>
				</linearGradient>
				<path fill="url(#SVGID_11_)" d="M197.416,62.966c0,0,0.116,0.742,0.236,0.83c0.12,0.088,0.455,0.034,0.558-0.29
					c0.104-0.324,0.129-0.511,0.129-0.511l0.396,0.179c0,0,0.685-0.562,0.124-0.823s-1.243-0.262-1.243-0.262
					s-0.399,0.229-0.366,0.281S197.416,62.966,197.416,62.966z"/>
				
					<linearGradient id="SVGID_12_" gradientUnits="userSpaceOnUse" x1="3834.6753" y1="-154.6987" x2="3836.1567" y2="-154.6987" gradientTransform="matrix(-0.9943 0.1065 0.1065 0.9943 4028.8311 -191.5432)">
					<stop  offset="0.1224" style="stop-color:#FCA4B5"/>
					<stop  offset="0.9896" style="stop-color:#FFADB7"/>
				</linearGradient>
				<polygon fill="url(#SVGID_12_)" points="198.354,62.543 198.326,63.486 198.13,63.8 198.396,63.672 198.84,63.466 
					199.567,63.302 199.088,63.292 199.138,62.809 198.564,63.292 				"/>
			</g>
		</g>
	</g>
</g>
</svg>
