<?xml version="1.0" encoding="utf-8"?>
<!-- Generator: Adobe Illustrator 16.0.0, SVG Export Plug-In . SVG Version: 6.00 Build 0)  -->
<!DOCTYPE svg PUBLIC "-//W3C//DTD SVG 1.1//EN" "http://www.w3.org/Graphics/SVG/1.1/DTD/svg11.dtd">
<svg version="1.1" id="Layer_1" xmlns="http://www.w3.org/2000/svg" xmlns:xlink="http://www.w3.org/1999/xlink" x="0px" y="0px"
	 width="463.683px" height="425.749px" viewBox="0 0 463.683 425.749" enable-background="new 0 0 463.683 425.749"
	 xml:space="preserve">
<g>
	<path fill="#BDD6F2" d="M312.878,136.886c-4.324-2.752-11.539-3.05-16.113-0.666s-4.776,6.548-0.451,9.3
		c4.324,2.753,11.539,3.051,16.113,0.667S317.204,139.638,312.878,136.886z"/>
	<g>
		<path fill="#626170" d="M296.65,139.996c0,0-0.261,0.133-0.274,0.326c-0.014,0.194-0.021,0.729-0.02,0.855
			s0.332,0.615,1.144,0.804c0.811,0.189,2.782-0.333,3.447-0.721c0.664-0.388,1.57-1.375,1.846-1.45
			c0.217-0.059,0.769,0.022,0.997,0.06c0.07,0.012,0.14,0.014,0.211,0.008l0.521-0.044c0.074-0.006,0.146-0.021,0.217-0.047
			l1.116-0.396c0,0,0.16-0.819-0.175-1.078S296.65,139.996,296.65,139.996z"/>
		<path fill="#504F60" d="M301.247,136.668c0,0-0.966,0.612-1.137,0.785c-0.172,0.172-1.917,0.881-2.521,1.25s-1.06,1-1.1,1.207
			s-0.132,0.679-0.062,0.876s0.386,0.724,1.43,0.789c0.935,0.058,2.735-0.73,3.104-0.897c0.045-0.02,0.085-0.043,0.126-0.071
			c0.278-0.189,1.438-0.977,1.629-1.066c0.217-0.102,2.139-0.588,2.431-0.685s0.619-0.133,0.662-0.368
			c0.043-0.235,0.131-1.523-0.023-1.929C305.629,136.153,302.1,135.629,301.247,136.668z"/>
		<path fill="#4F5997" d="M305.802,136.842c-0.101,0.318-0.471,0.545-1.709,0.609c-0.143,0.006-0.286,0.013-0.429,0.012
			c-0.889,0.029-1.708-0.039-2.604-0.43c-0.314-0.138-0.525-0.448-0.529-0.791c-0.035-3.453-1.486-17.699-1.92-26.556
			c-0.273-5.601,0.94-8.446,0.94-8.446l5.983-0.344l0.219,14.776l-0.002,8.548C305.751,124.221,305.897,136.522,305.802,136.842z"/>
		<g>
			<path fill="#8C92B0" d="M304.105,137.474c-0.005-0.099-0.441-9.921-0.595-11.988c-0.154-2.071-0.279-13.819-0.281-13.938
				l0.23-0.002c0.001,0.119,0.127,11.858,0.28,13.923c0.153,2.069,0.591,11.896,0.595,11.995L304.105,137.474z"/>
		</g>
		<path fill="#A8B0C2" d="M305.802,136.842c-0.065,0.208-0.246,0.376-0.707,0.486c-0.632-0.487-0.867-0.669-1.499-1.156
			l-1.05-24.308c0,0-1.566-1.701-1.298-2.757c0.119-0.455,4.375,5.983,4.375,5.983l0.13,0.583l-0.002,8.548
			C305.751,124.221,305.897,136.522,305.802,136.842z"/>
		<path fill="#626170" d="M303.793,143.154c0,0-0.287,0.005-0.355,0.387c-0.022,0.125-0.036,0.259-0.045,0.381
			c-0.023,0.328,0.134,0.647,0.42,0.809c0.242,0.137,0.603,0.276,1.121,0.341c1.197,0.151,2.663-0.291,3.415-0.717
			c0.751-0.426,1.021-0.771,1.474-1.401s0.921-0.93,0.921-0.93l0.192,0.051c0,0,0.67-0.487,1.039-0.825
			c0.148-0.137,0.245-0.317,0.27-0.518c0.052-0.424,0.061-1.115-0.064-1.195C312.015,139.434,303.793,143.154,303.793,143.154z"/>
		<path fill="#504F60" d="M306.97,139.1l-0.156,0.374c-0.045,0.107-0.11,0.205-0.194,0.286c-0.44,0.43-1.913,1.866-2.362,2.346
			c-0.531,0.567-0.805,1.063-0.828,1.578c-0.023,0.515,1.313,0.848,1.513,0.861c0.2,0.014,1.088,0.102,2.225-0.322
			c1.138-0.424,1.606-0.832,2.52-1.825s1.53-1.539,1.811-1.766s0.688-0.588,0.683-0.882s0.041-1.118-0.199-1.221
			c-0.217-0.092-3.401-0.357-4.589,0.126C307.196,138.734,307.052,138.905,306.97,139.1z"/>
		<path fill="#4F5997" d="M301.853,103.623c0,0-0.566,2.456-0.794,4.797c-0.202,2.089,2.013,2.832,2.013,2.832
			s1.425,9.98,1.931,12.438c0.448,2.178,1.7,12.396,1.981,14.634c0.037,0.294,0.219,0.545,0.487,0.67
			c0.805,0.376,2.588,1.018,4.066,0.186c0.261-0.147,0.425-0.426,0.435-0.726c0.231-6.914-0.919-15.168-0.993-16.243
			c-0.003-0.042-0.005-0.075-0.002-0.117c0.101-2.024,1.18-9.071,1.54-13.821c0.316-1.867-0.231-4.828-0.231-4.828L301.853,103.623z
			"/>
		<g>
			<path fill="#8C92B0" d="M302.278,109.781c-0.072-0.003-0.149-0.027-0.229-0.071c-0.377-0.21-0.776-0.868-0.767-1.814
				c0.006-0.516,0.124-2.555,0.162-2.798l0.228,0.035c-0.032,0.208-0.153,2.227-0.159,2.765c-0.01,0.911,0.382,1.463,0.648,1.611
				c0.078,0.044,0.146,0.054,0.187,0.027c0.062-0.039,0.091-0.163,0.08-0.333c-0.076-1.187,0.094-3.938,0.291-4.062l0.059-0.037
				l0.065,0.033l-0.058,0.102l0.001-0.002l0.002,0.003l0.085,0.062c-0.084,0.182-0.308,2.447-0.215,3.885
				c0.021,0.337-0.09,0.481-0.188,0.543C302.414,109.768,302.348,109.784,302.278,109.781z M302.785,105.243l-0.055,0.096
				L302.785,105.243z"/>
		</g>
		<g>
			<path fill="#8C92B0" d="M311.121,139.644l-0.229-0.011c0.276-5.589-0.331-11.515-0.693-15.056
				c-0.142-1.373-0.242-2.365-0.231-2.782c0.022-0.915,0.341-4.027,0.648-7.038c0.176-1.725,0.342-3.355,0.435-4.398
				c0.247-2.777,0.029-4.44,0.027-4.457l0.229-0.031c0.002,0.017,0.222,1.702-0.026,4.507c-0.093,1.044-0.259,2.675-0.436,4.402
				c-0.293,2.866-0.624,6.114-0.647,7.02c-0.011,0.402,0.091,1.388,0.23,2.752C310.79,128.101,311.398,134.038,311.121,139.644z"/>
		</g>
		<g>
			<path fill="#8C92B0" d="M308.166,109.951c-1.32-0.057-2.328-0.409-3.005-1.052c-0.88-0.836-0.855-1.847-0.854-1.89l0.23,0.008
				c0,0.009-0.02,0.956,0.786,1.718c0.841,0.796,2.242,1.117,4.162,0.953l0.02,0.229
				C309.028,109.958,308.582,109.969,308.166,109.951z"/>
		</g>
		<path fill="#A76478" d="M312.573,105.773c0,0-2.201,0.938-5.655,0.667c-3.455-0.27-4.757-0.738-5.899-1.444
			c-1.142-0.707-1.832-1.596-1.832-1.596l0.239-1.329c0,0,0.634,1.112,2.264,1.894c1.629,0.782,5.163,1.113,6.604,1.187
			s4.173-0.427,4.173-0.427L312.573,105.773z"/>
		<path fill="#4F5997" d="M305.237,104.93c0,0-0.102,0.379-0.125,0.831c-0.022,0.452-0.022,1.282-0.022,1.282l-0.522-0.095
			c0,0-0.077-0.803-0.05-1.204c0.028-0.401,0.159-0.954,0.159-0.954L305.237,104.93z"/>
		<path fill="#4F5997" d="M310.243,105.046c0,0,0.085,0.383,0.09,0.835c0.004,0.452-0.031,1.282-0.031,1.282l0.524-0.073
			c0,0,0.112-0.799,0.102-1.201c-0.012-0.402-0.119-0.959-0.119-0.959L310.243,105.046z"/>
		<path fill="#4F5997" d="M300.462,103.154c0,0-0.137,0.469-0.164,0.853c-0.026,0.384,0.031,1.042,0.031,1.042l-0.342-0.437
			c0,0-0.041-0.666-0.026-0.874c0.015-0.209,0.221-0.816,0.221-0.816L300.462,103.154z"/>
		<g>
			<path fill="#8C92B0" d="M298.764,105.292c-0.036-0.001-0.072-0.008-0.109-0.02l0.072-0.219c0.271,0.095,0.652-0.615,0.785-0.973
				l0.216,0.08C299.681,104.286,299.284,105.315,298.764,105.292z"/>
		</g>
		<g>
			<path fill="#CCDEFB" d="M302.667,106.051c-0.061-0.008-0.122-0.023-0.185-0.047l-0.969-0.358
				c-0.413-0.152-0.728-0.589-0.716-0.994l0.011-0.385c0.006-0.197,0.088-0.36,0.23-0.459c0.16-0.112,0.382-0.129,0.607-0.045
				l0.969,0.359c0.413,0.152,0.727,0.589,0.716,0.993l-0.011,0.387c-0.006,0.196-0.088,0.359-0.23,0.459
				C302.973,106.04,302.825,106.071,302.667,106.051z M301.46,104.158c-0.066-0.009-0.125,0.002-0.168,0.032
				c-0.044,0.03-0.067,0.079-0.069,0.144l-0.011,0.386c-0.006,0.189,0.178,0.425,0.392,0.504l0.969,0.358
				c0.104,0.038,0.2,0.036,0.262-0.008c0.045-0.031,0.067-0.079,0.069-0.144l0.012-0.386c0.005-0.19-0.178-0.426-0.392-0.505
				l-0.969-0.358C301.523,104.17,301.491,104.162,301.46,104.158z"/>
		</g>
	</g>
	<path fill="#FEBFBF" d="M301.02,89.731c-0.267,2.151-0.604,4.169-1.029,5.008c-0.103,0.203-0.21,0.385-0.323,0.547
		c-0.241,0.35-0.504,0.616-0.77,0.821c-0.989,0.751-2.043,0.596-2.143-0.198c-0.032-0.232,0.033-0.873,0.154-1.732
		c0.441-3.191,1.685-9.506,2.08-10.211c0.504-0.901,2.642-1.3,2.642-1.3S301.426,86.361,301.02,89.731z"/>
	<path fill="#FEBFBF" d="M299.725,95.819c0.039,1.183-2.171,1.842-4.621,2.165c-1.404,0.186-2.895,0.265-4.081,0.263
		c-0.189-0.006-0.373-0.005-0.542-0.011c-0.847-0.019-1.474-0.083-1.704-0.174c-1.104-0.423-0.281-2.475,1.294-2.493
		c2.004,0.344,5.449-1.3,6.298-1.403c0.212-0.026,0.534-0.074,0.682-0.043c0.456,0.073,0.515,0.385,0.515,0.385
		s0.706-0.398,1.313-0.24c0.353,0.093,0.666,0.372,0.79,1.019C299.697,95.444,299.719,95.615,299.725,95.819z"/>
	<path fill="#FEBFBF" d="M290.093,95.633c0,0-0.197-0.698-0.625-0.725c-0.428-0.027-3.266-0.032-3.342,0.117
		c-0.075,0.15-0.258,0.637-0.318,0.958c-0.06,0.322,0.114,1.417,0.114,1.417s0.088,0.821,0.097,0.853
		c0.008,0.032,2.368-0.039,2.368-0.039l2.226-1.333L290.093,95.633z"/>
	
		<linearGradient id="SVGID_1_" gradientUnits="userSpaceOnUse" x1="1646.1372" y1="125.3477" x2="1651.4624" y2="125.3477" gradientTransform="matrix(0.9975 0.07 -0.07 0.9975 -1337.7943 -147.2732)">
		<stop  offset="0.1224" style="stop-color:#FCA4B5"/>
		<stop  offset="0.9896" style="stop-color:#FFADB7"/>
	</linearGradient>
	<path fill="url(#SVGID_1_)" d="M299.991,94.739c-0.103,0.203-0.21,0.385-0.323,0.547c0.029,0.158,0.052,0.329,0.058,0.533
		c0.039,1.183-2.171,1.842-4.621,2.165c1.628-0.306,2.883-0.781,3.267-1.026c0.361-0.232,0.494-0.576,0.527-0.851
		c0.038-0.262-0.008-0.469-0.008-0.469s-0.029-0.457-0.013-1.371c0.016-0.507,0.04-1.157,0.097-1.953
		c0.142-2.222,0.076-4.091,0.076-4.091l1.97,1.508C300.753,91.883,300.416,93.901,299.991,94.739z"/>
	<path fill="#FF7895" d="M304.417,81.852c0,0-4.693-0.626-5.644,1.805c-0.562,1.435-1.567,6.845-1.567,6.845
		s0.428,1.055,2.899,1.265C302.579,91.977,304.417,81.852,304.417,81.852z"/>
	<path fill="#FF94AB" d="M314.518,87.373c-0.006,0.354-0.11,0.792-0.244,1.475c-0.061,0.36-0.146,0.786-0.213,1.299
		c-0.079,0.512-1.347,1.603-1.591,6.38c-0.128,2.414-0.006,8.289-0.006,8.289c0,0.006-0.019,0.146-1.158,0.269
		c-0.012,0-0.019,0-0.024,0.006h-0.019c-0.378,0.03-0.999,0.043-1.742,0.024c-1.591-0.03-3.749-0.177-5.363-0.409
		c-2.396-0.341-5.01-2.286-4.9-2.901c0.104-0.621,0.433-2.572,0.098-6.393c-0.335-3.828-0.177-9.258,0.664-11.19
		c0.841-1.926,1.365-2.194,2.968-2.438c1.609-0.238,4.979-0.348,5.589-0.104c0.609,0.244,2.877,1.822,3.979,2.414
		c1.548,0.841,1.78,2.536,1.78,2.536C314.469,86.867,314.524,87.093,314.518,87.373z"/>
	<path fill="#FF7895" d="M313.062,92.537c0,0-4.756,1.327-11.514-0.754c-2.273-0.7-2.308-1.97-2.308-1.97s-0.096,3.198,0.116,5.601
		c0.627,0.948,2.883,2.086,7.467,2.583c1.809,0.079,4.178,0.063,5.619-0.64C312.482,96.112,312.654,93.693,313.062,92.537z"/>
	<path fill="#DDE8F6" d="M314.518,87.373c-0.006,0.354-0.11,0.792-0.244,1.475c-0.061,0.36-0.146,0.786-0.213,1.299
		c-0.079,0.512-1.347,1.603-1.591,6.38c-0.128,2.414-0.006,8.289-0.006,8.289c0,0.006-0.019,0.146-1.158,0.269
		c-0.012,0-0.019,0-0.024,0.006c-0.152-0.683-0.237-1.371-0.25-2.115c-0.042-2.114,0.263-7.283,0.28-7.532c0-0.006,0-0.006,0-0.006
		c0.128-0.738,0.737-3.376,0.609-3.809c-0.475-1.615-0.993-2.84-0.993-2.84l3.547-1.603
		C314.475,87.184,314.488,87.251,314.518,87.373z"/>
	
		<linearGradient id="SVGID_2_" gradientUnits="userSpaceOnUse" x1="1658.6616" y1="113.3579" x2="1654.299" y2="109.6351" gradientTransform="matrix(0.9975 0.07 -0.07 0.9975 -1337.7943 -147.2732)">
		<stop  offset="0.1224" style="stop-color:#FEC7C7"/>
		<stop  offset="0.9694" style="stop-color:#FFADB7"/>
	</linearGradient>
	<path fill="url(#SVGID_2_)" d="M303.384,79.96c0,0,0.021,3.039-0.17,3.629c-0.193,0.591,0.994,0.892,2.411,0.79
		c1.416-0.102,2.73-1.134,3.282-1.347c0.553-0.213,0.533-0.5,0.082-1.086c-0.451-0.584-1.006-1.295-0.766-3.04
		s0.731-4.211,0.328-4.675c-0.404-0.465-3.282,0.139-3.911,1.454C304.011,77,303.384,79.96,303.384,79.96z"/>
	<path fill="#FEC7C7" d="M307.773,75.753c0,0-1.063,3.115-1.291,3.72c-0.227,0.604-0.887,1.263-1.806,1.686
		c-0.918,0.423-2.401,0.754-2.988,0.511s-0.628-0.378-0.64-0.699c-0.01-0.267-0.299-1.058-0.334-2.162
		c-0.007-0.216-0.003-0.443,0.014-0.679c0.065-0.938-0.227-2.282-0.142-2.543c0.087-0.262-0.07-2.337,0.597-3.231
		c0.667-0.893,2.683-2.615,4.77-2.217c1.719,0.328,1.841,3.927,1.833,5.186C307.783,75.591,307.773,75.753,307.773,75.753z"/>
	<g>
		
			<linearGradient id="SVGID_3_" gradientUnits="userSpaceOnUse" x1="1651.0806" y1="109.5044" x2="1649.9746" y2="109.8342" gradientTransform="matrix(0.9975 0.07 -0.07 0.9975 -1337.7943 -147.2732)">
			<stop  offset="0.1224" style="stop-color:#FEC7C7"/>
			<stop  offset="0.9896" style="stop-color:#FFDBDB"/>
		</linearGradient>
		<path fill="url(#SVGID_3_)" d="M301.276,76.288c-0.089,0.782-0.787,1.623-0.901,2.068c-0.114,0.444,1.256,0.426,1.484,0.389
			L301.276,76.288z"/>
		
			<linearGradient id="SVGID_4_" gradientUnits="userSpaceOnUse" x1="1649.9712" y1="109.5313" x2="1651.5405" y2="109.5313" gradientTransform="matrix(0.9975 0.07 -0.07 0.9975 -1337.7943 -147.2732)">
			<stop  offset="0.188" style="stop-color:#FFDCDC"/>
			<stop  offset="0.8991" style="stop-color:#FEC7C7"/>
		</linearGradient>
		<path fill="url(#SVGID_4_)" d="M301.301,78.804c-0.354-0.015-0.764-0.074-0.916-0.24c-0.057-0.062-0.076-0.138-0.056-0.219
			c0.045-0.177,0.176-0.407,0.327-0.674c0.231-0.408,0.52-0.916,0.572-1.389l0.093,0.011c-0.056,0.491-0.349,1.008-0.584,1.423
			c-0.148,0.261-0.275,0.486-0.318,0.65c-0.013,0.051-0.002,0.093,0.034,0.133c0.217,0.237,1.171,0.236,1.397,0.199l0.016,0.092
			C301.798,78.802,301.566,78.815,301.301,78.804z"/>
	</g>
	<path fill="#E5A395" d="M307.773,75.753c0,0-1.063,3.115-1.291,3.72c-0.227,0.604-0.887,1.263-1.806,1.686
		c-0.918,0.423-2.401,0.754-2.988,0.511s-0.628-0.378-0.64-0.699c-0.01-0.267-0.299-1.058-0.334-2.162
		c0.204-0.01,0.514-0.006,0.882,0.088c0.495,0.127,2.66,0.839,3.355,0.485c0.697-0.354,1.2-1.779,1.2-1.779s0.006-1.073,0.088-1.514
		c0.075-0.414,1.376-0.726,1.546-0.766C307.783,75.591,307.773,75.753,307.773,75.753z"/>
	<path fill="#FEC7C7" d="M302.157,80.081c0,0-0.437-0.359-0.823-0.469c-0.388-0.109-0.435,0.189-0.365,0.341
		C301.039,80.105,301.376,80.803,302.157,80.081z"/>
	
		<ellipse transform="matrix(0.6505 -0.7595 0.7595 0.6505 47.5729 256.8334)" fill="#FFFFFF" cx="302.869" cy="76.723" rx="0.314" ry="0.355"/>
	
		<ellipse transform="matrix(0.9845 -0.1753 0.1753 0.9845 -8.7283 53.9255)" fill="#FFFFFF" cx="300.952" cy="76.381" rx="0.189" ry="0.344"/>
	<path fill="#A86A63" d="M301.831,75.941c0,0-0.003,0.207,0.14,0.208s0.813-0.082,0.813-0.082l1.073,0.268l-0.046-0.188
		l-0.997-0.332L301.831,75.941z"/>
	<path fill="#A86A63" d="M301.227,75.675c0.02,0.001-0.015,0.209-0.015,0.209l-0.535-0.296c0,0-0.144-0.054-0.153-0.092
		c-0.009-0.039,0.085-0.184,0.085-0.184L301.227,75.675z"/>
	<path fill="#A86A63" d="M308.2,79.106l0.475-0.638l0.33-0.162l0.545-1.069c0,0,1.118-2.305,0.973-3.573
		c-0.146-1.269-0.897-2.69-2.396-2.92c-1.094-1.151-2.999-1.268-4.102-1.093c-1.104,0.174-2.448,1.171-3.004,2.39
		c-0.556,1.22-0.214,1.217-0.214,1.217s0.684,0.461,1.538,0.001c0.854-0.461,1.25-0.835,1.567-0.813
		c0.317,0.022,0.648,0.801,0.621,1.185c-0.026,0.384-0.164,1.381,0.236,1.661c0.4,0.28,1.195,1.141,1.333,1.335
		c0.137,0.194,0.049,0.977,0.049,0.977l0.478-0.219c0,0,0.06-0.99,0.582-1.379c0.522-0.39,0.878,0.055,0.891,0.342
		c0.014,0.286-0.183,1.178-0.113,1.385C308.057,77.938,308.231,78.656,308.2,79.106z"/>
	
		<linearGradient id="SVGID_5_" gradientUnits="userSpaceOnUse" x1="1656.5444" y1="108.8525" x2="1658.1284" y2="108.8525" gradientTransform="matrix(0.9975 0.07 -0.07 0.9975 -1337.7943 -147.2732)">
		<stop  offset="0.1224" style="stop-color:#FEB9B8"/>
		<stop  offset="1" style="stop-color:#FFDEDE"/>
	</linearGradient>
	<path fill="url(#SVGID_5_)" d="M307.342,76.286c0,0,0.392-0.56,1.061-0.287s-0.318,1.913-0.376,2.011s-0.257,0.789-0.812,0.683
		c-0.555-0.106-0.166-0.868-0.166-0.868S307.432,76.804,307.342,76.286z"/>
	
		<linearGradient id="SVGID_6_" gradientUnits="userSpaceOnUse" x1="1656.8452" y1="108.5537" x2="1657.9067" y2="108.5537" gradientTransform="matrix(0.9975 0.07 -0.07 0.9975 -1337.7943 -147.2732)">
		<stop  offset="0.1224" style="stop-color:#FCA4B5"/>
		<stop  offset="0.9896" style="stop-color:#FFADB7"/>
	</linearGradient>
	<path fill="url(#SVGID_6_)" d="M307.569,76.284c0,0,0.422-0.312,0.742-0.051s-0.231,1.468-0.624,1.688
		c-0.218,0.001-0.437-0.063-0.437-0.063S307.657,76.593,307.569,76.284z"/>
	<g>
		<path fill="#627847" d="M288.988,98.952c-0.666,0.26-1.729,0.212-2.375-0.105c-0.646-0.318-0.629-0.786,0.038-1.045
			c0.666-0.26,1.729-0.212,2.375,0.106C289.671,98.225,289.654,98.692,288.988,98.952z"/>
		<polygon fill="#627847" points="289.954,93.856 289.499,98.449 286.14,98.304 286.083,93.689 		"/>
		<path fill="#B09064" d="M289.152,96.999c-0.693-0.325-1.835-0.376-2.549-0.113c-0.715,0.263-0.731,0.739-0.038,1.064
			s1.835,0.376,2.549,0.113S289.845,97.324,289.152,96.999z"/>
		<polygon fill="#B09064" points="289.661,97.563 289.938,95.09 285.992,94.907 286.056,97.397 		"/>
		<path fill="#DEC7A7" d="M289.382,94.478c-0.761-0.342-2.011-0.397-2.793-0.124c-0.781,0.273-0.799,0.772-0.039,1.114
			c0.761,0.342,2.011,0.397,2.792,0.124C290.125,95.318,290.142,94.819,289.382,94.478z"/>
		<path fill="#627847" d="M289.32,94.235c-0.719-0.354-1.904-0.407-2.647-0.118c-0.743,0.29-0.762,0.812-0.042,1.166
			s1.905,0.407,2.648,0.118C290.021,95.112,290.041,94.59,289.32,94.235z"/>
		<polygon fill="#627847" points="289.833,95.011 289.892,94.612 289.546,94.665 286.114,94.469 286.099,94.801 		"/>
		<path fill="#A19797" d="M289.446,94.921c-0.768,0.299-1.993,0.244-2.737-0.122s-0.725-0.905,0.044-1.205
			c0.768-0.299,1.993-0.245,2.737,0.122C290.234,94.083,290.214,94.622,289.446,94.921z"/>
		<path fill="#C7BEBE" d="M290.131,93.792l-0.319-0.013c-0.082-0.064-0.18-0.126-0.296-0.184c-0.812-0.399-2.147-0.458-2.984-0.133
			c-0.124,0.048-0.228,0.103-0.315,0.161l-0.305-0.013l-0.02,0.47c-0.001,0.007-0.001,0.014-0.001,0.021l-0.001,0.01h0.002
			c0.003,0.231,0.198,0.47,0.593,0.664c0.811,0.399,2.146,0.458,2.983,0.133c0.412-0.16,0.625-0.384,0.641-0.617h0.001
			L290.131,93.792z"/>
		<path fill="#E2D9D9" d="M289.536,93.144c-0.812-0.399-2.147-0.459-2.984-0.133s-0.858,0.914-0.048,1.313
			c0.812,0.4,2.147,0.458,2.984,0.133S290.346,93.543,289.536,93.144z"/>
		<path fill="#C7BEBE" d="M289.83,93.764c0.001-0.004,0.001-0.009,0.001-0.013l0.014-0.324l-0.166-0.007
			c-0.084-0.088-0.202-0.173-0.356-0.249c-0.695-0.342-1.841-0.394-2.559-0.114c-0.163,0.063-0.288,0.139-0.379,0.221l-0.157-0.007
			l-0.014,0.325l0,0v0.002l0,0c-0.006,0.203,0.163,0.414,0.509,0.584c0.695,0.342,1.841,0.393,2.559,0.113
			c0.354-0.138,0.536-0.329,0.549-0.529l0,0V93.764z"/>
		<path fill="#E1D8D8" d="M289.338,92.78c-0.695-0.342-1.841-0.394-2.559-0.114s-0.735,0.784-0.04,1.125
			c0.695,0.343,1.841,0.394,2.559,0.114C290.015,93.627,290.034,93.123,289.338,92.78z"/>
		<path fill="#C7BEBE" d="M289.503,93.525L289.503,93.525c-0.135,0.027-0.275-0.036-0.314-0.14l-0.015-0.042
			c-0.038-0.104,0.04-0.21,0.176-0.236l0,0c0.136-0.027,0.276,0.036,0.314,0.14l0.016,0.042
			C289.718,93.394,289.639,93.499,289.503,93.525z"/>
		<path fill="#FEBFBF" d="M286.195,95.112c0,0,0.033,0.39-0.124,0.495c-0.158,0.105-0.158,0.105-0.158,0.105s0.704,0.598,0.646,0.78
			c-0.059,0.183-0.477,0.223-0.477,0.223l-0.109-0.027l0.047,0.275c0,0,0.387,0.189,0.538,0.372s-0.146,0.319-0.146,0.319
			l-0.391,0.042l0.049,0.297c0,0,0.332,0.12,0.492,0.213c0.161,0.093,0.177,0.254,0.046,0.341c-0.13,0.086-0.305,0.092-0.305,0.092
			l-0.465-0.22L285.851,98l0.056-0.223c0,0-0.383-0.307-0.485-0.478c-0.102-0.17-0.002-0.356,0.044-0.437
			c0.047-0.08,0.205-0.134,0.205-0.134l0.111-0.182c0,0-0.488-0.254-0.491-0.452c-0.003-0.198,0.204-0.396,0.204-0.396l0.195-0.096
			c0,0-0.146-0.234-0.198-0.353s0.102-0.501,0.14-0.557s0.541-0.218,0.541-0.218l-0.081,0.28L286.195,95.112z"/>
		
			<linearGradient id="SVGID_7_" gradientUnits="userSpaceOnUse" x1="1641.4009" y1="130.9023" x2="1642.0845" y2="130.9023" gradientTransform="matrix(0.9975 0.07 -0.07 0.9975 -1337.7943 -147.2732)">
			<stop  offset="0.1224" style="stop-color:#FCA4B5"/>
			<stop  offset="0.9896" style="stop-color:#FFADB7"/>
		</linearGradient>
		<path fill="url(#SVGID_7_)" d="M290.342,98.173c0.229,0.036,0.45,0.059,0.681,0.074c-0.189-0.006-0.373-0.005-0.542-0.011
			C290.435,98.213,290.388,98.196,290.342,98.173z"/>
	</g>
	<g>
		<path fill="#FEBFBF" d="M322.035,94.373c0,0-5.788-8.021-8.375-9.831c-2.256-0.074-2.612,2.143-2.513,3.181
			c0.101,1.038,6.771,7.803,8.461,8.156C321.298,96.231,322.398,95.504,322.035,94.373z"/>
		<path fill="#FEBFBF" d="M319.616,93.799c0,0-1.032-0.539-2.101,1.801c-1.069,2.341-2.897,5.722-4.162,6.541
			c-0.673-0.182-1.492-0.624-1.492-0.624l-0.933-0.779l-0.021,0.3l-0.02,0.273c0,0-0.669,0.026-0.693,0.373
			s-0.052,0.737-0.052,0.737s-0.108,0.24-0.062,0.883c0.046,0.644,0.166,1.283,0.323,1.514c0.157,0.231,0.22,0.391,0.695,0.388
			s0.351-0.177,1.197-0.126s1.029,0.044,1.842-0.457s0.818-0.718,1.706-1.389c0.889-0.671,6.709-7.323,6.234-8.219
			C321.604,94.122,319.616,93.799,319.616,93.799z"/>
	</g>
	<path fill="#FF7895" d="M313.319,84.542c0,0-2.668-0.905-2.733,3.425c0.027,1.313,3.63,4.812,3.63,4.812s0.361-1.184,2.022-2.417
		c1.662-1.233,1.662-1.233,1.662-1.233S314.146,84.588,313.319,84.542z"/>
</g>
</svg>
