<?xml version="1.0" encoding="utf-8"?>
<!-- Generator: Adobe Illustrator 16.0.0, SVG Export Plug-In . SVG Version: 6.00 Build 0)  -->
<!DOCTYPE svg PUBLIC "-//W3C//DTD SVG 1.1//EN" "http://www.w3.org/Graphics/SVG/1.1/DTD/svg11.dtd">
<svg version="1.1" id="Layer_1" xmlns="http://www.w3.org/2000/svg" xmlns:xlink="http://www.w3.org/1999/xlink" x="0px" y="0px"
	 width="463.683px" height="425.749px" viewBox="0 0 463.683 425.749" enable-background="new 0 0 463.683 425.749"
	 xml:space="preserve">
<g>
	<path fill="#BDD6F2" d="M143.765,81.614c-4.325-2.752-11.539-3.05-16.113-0.666c-4.575,2.384-4.777,6.548-0.452,9.3
		c4.325,2.752,11.539,3.05,16.114,0.666C147.888,88.53,148.09,84.366,143.765,81.614z"/>
	<g>
		<path fill="#626170" d="M127.537,84.725c0,0-0.261,0.133-0.274,0.327c-0.014,0.194-0.021,0.729-0.02,0.855
			c0.001,0.125,0.332,0.614,1.143,0.803c0.812,0.189,2.783-0.333,3.447-0.721c0.665-0.387,1.571-1.375,1.847-1.45
			c0.216-0.059,0.769,0.022,0.997,0.06c0.07,0.012,0.14,0.014,0.21,0.008l0.521-0.043c0.074-0.006,0.147-0.022,0.218-0.047
			l1.116-0.396c0,0,0.16-0.819-0.175-1.078C136.231,82.784,127.537,84.725,127.537,84.725z"/>
		<path fill="#504F60" d="M132.133,81.397c0,0-0.966,0.612-1.138,0.785c-0.171,0.173-1.916,0.881-2.521,1.25
			c-0.605,0.369-1.061,1-1.1,1.207s-0.131,0.679-0.062,0.877c0.07,0.197,0.386,0.723,1.43,0.788c0.935,0.058,2.735-0.73,3.103-0.896
			c0.045-0.021,0.086-0.044,0.126-0.072c0.278-0.189,1.438-0.976,1.629-1.065c0.217-0.103,2.139-0.588,2.431-0.685
			c0.292-0.098,0.619-0.134,0.662-0.368s0.131-1.523-0.024-1.929C136.516,80.882,132.986,80.357,132.133,81.397z"/>
		<path fill="#4F5997" d="M136.689,81.57c-0.101,0.318-0.471,0.545-1.709,0.609c-0.144,0.006-0.286,0.013-0.429,0.013
			c-0.889,0.029-1.708-0.039-2.604-0.431c-0.314-0.137-0.525-0.448-0.529-0.791c-0.036-3.453-1.486-17.699-1.92-26.556
			c-0.274-5.601,0.94-8.446,0.94-8.446l5.982-0.344l0.22,14.777l-0.003,8.548C136.637,68.949,136.784,81.251,136.689,81.57z"/>
		<g>
			<path fill="#8C92B0" d="M134.991,82.203c-0.005-0.099-0.441-9.922-0.595-11.988c-0.154-2.071-0.28-13.819-0.281-13.938
				l0.23-0.002c0.001,0.118,0.127,11.858,0.28,13.922c0.153,2.069,0.59,11.896,0.594,11.995L134.991,82.203z"/>
		</g>
		<path fill="#A8B0C2" d="M136.689,81.57c-0.066,0.208-0.246,0.376-0.707,0.486c-0.633-0.487-0.867-0.668-1.5-1.156l-1.05-24.308
			c0,0-1.566-1.701-1.297-2.757c0.119-0.455,4.375,5.982,4.375,5.982l0.13,0.583l-0.003,8.548
			C136.637,68.949,136.784,81.251,136.689,81.57z"/>
		<path fill="#626170" d="M134.679,87.883c0,0-0.286,0.005-0.354,0.386c-0.022,0.126-0.037,0.259-0.045,0.381
			c-0.023,0.328,0.133,0.647,0.419,0.809c0.243,0.137,0.603,0.276,1.121,0.341c1.198,0.151,2.664-0.291,3.415-0.717
			s1.021-0.771,1.474-1.4s0.921-0.93,0.921-0.93l0.191,0.051c0,0,0.671-0.487,1.04-0.825c0.148-0.136,0.245-0.317,0.27-0.518
			c0.052-0.424,0.061-1.115-0.065-1.195C142.901,84.162,134.679,87.883,134.679,87.883z"/>
		<path fill="#504F60" d="M137.857,83.828l-0.156,0.374c-0.045,0.108-0.111,0.205-0.194,0.286c-0.441,0.429-1.914,1.866-2.363,2.346
			c-0.53,0.567-0.804,1.064-0.828,1.579c-0.023,0.514,1.312,0.847,1.513,0.861c0.2,0.014,1.088,0.101,2.225-0.323
			c1.137-0.423,1.606-0.831,2.52-1.824c0.913-0.993,1.53-1.54,1.81-1.766c0.28-0.227,0.688-0.589,0.683-0.883
			c-0.004-0.294,0.042-1.118-0.199-1.221c-0.217-0.092-3.401-0.357-4.589,0.126C138.082,83.463,137.938,83.634,137.857,83.828z"/>
		<path fill="#4F5997" d="M132.739,48.352c0,0-0.566,2.456-0.793,4.797c-0.202,2.089,2.012,2.832,2.012,2.832
			s1.425,9.979,1.932,12.438c0.448,2.178,1.699,12.396,1.981,14.634c0.037,0.294,0.218,0.545,0.487,0.671
			c0.805,0.376,2.588,1.018,4.066,0.186c0.261-0.147,0.425-0.426,0.435-0.726c0.231-6.913-0.919-15.168-0.994-16.243
			c-0.002-0.041-0.004-0.075-0.001-0.116c0.101-2.024,1.179-9.071,1.541-13.821c0.316-1.867-0.231-4.828-0.231-4.828L132.739,48.352
			z"/>
		<g>
			<path fill="#8C92B0" d="M133.165,54.509c-0.073-0.003-0.15-0.027-0.229-0.071c-0.377-0.21-0.777-0.868-0.767-1.814
				c0.006-0.516,0.124-2.555,0.162-2.797l0.228,0.035c-0.033,0.208-0.153,2.227-0.159,2.765c-0.011,0.911,0.382,1.462,0.648,1.611
				c0.078,0.043,0.146,0.053,0.186,0.027c0.062-0.039,0.091-0.163,0.081-0.333c-0.076-1.187,0.093-3.938,0.291-4.062l0.058-0.036
				l0.066,0.032l-0.058,0.103l0.001-0.002l0.001,0.004l0.086,0.061c-0.084,0.182-0.308,2.448-0.215,3.885
				c0.021,0.337-0.09,0.481-0.188,0.543C133.3,54.496,133.235,54.513,133.165,54.509z M133.67,49.972l-0.054,0.095L133.67,49.972z"
				/>
		</g>
		<g>
			<path fill="#8C92B0" d="M142.007,84.373l-0.23-0.011c0.276-5.588-0.331-11.515-0.693-15.056
				c-0.141-1.373-0.243-2.365-0.232-2.781c0.023-0.915,0.341-4.028,0.649-7.039c0.176-1.725,0.342-3.355,0.435-4.398
				c0.246-2.777,0.029-4.439,0.027-4.456l0.229-0.031c0.002,0.017,0.222,1.702-0.026,4.508c-0.093,1.044-0.259,2.675-0.436,4.401
				c-0.293,2.866-0.624,6.114-0.647,7.021c-0.011,0.401,0.09,1.387,0.23,2.752C141.676,72.83,142.285,78.767,142.007,84.373z"/>
		</g>
		<g>
			<path fill="#8C92B0" d="M139.052,54.68c-1.32-0.057-2.328-0.41-3.005-1.053c-0.88-0.836-0.855-1.847-0.854-1.889l0.23,0.007
				c0,0.009-0.02,0.956,0.786,1.718c0.841,0.796,2.242,1.117,4.162,0.953l0.02,0.23C139.915,54.687,139.468,54.698,139.052,54.68z"
				/>
		</g>
		<path fill="#A76478" d="M143.459,50.502c0,0-2.201,0.938-5.656,0.667s-4.757-0.739-5.899-1.445
			c-1.142-0.707-1.833-1.596-1.833-1.596l0.239-1.329c0,0,0.634,1.112,2.264,1.894c1.629,0.782,5.164,1.113,6.604,1.187
			c1.44,0.073,4.173-0.427,4.173-0.427L143.459,50.502z"/>
		<path fill="#4F5997" d="M136.124,49.658c0,0-0.102,0.379-0.125,0.83c-0.023,0.452-0.023,1.283-0.023,1.283l-0.521-0.095
			c0,0-0.078-0.803-0.05-1.204c0.028-0.401,0.159-0.954,0.159-0.954L136.124,49.658z"/>
		<path fill="#4F5997" d="M141.129,49.774c0,0,0.085,0.383,0.089,0.835c0.004,0.452-0.031,1.282-0.031,1.282l0.525-0.073
			c0,0,0.112-0.799,0.101-1.201c-0.011-0.401-0.118-0.959-0.118-0.959L141.129,49.774z"/>
		<path fill="#4F5997" d="M131.349,47.883c0,0-0.137,0.469-0.164,0.854c-0.027,0.384,0.031,1.042,0.031,1.042l-0.342-0.437
			c0,0-0.041-0.665-0.026-0.874c0.015-0.209,0.22-0.816,0.22-0.816L131.349,47.883z"/>
		<g>
			<path fill="#8C92B0" d="M129.65,50.021c-0.036-0.002-0.072-0.008-0.109-0.021l0.072-0.219c0.272,0.095,0.653-0.615,0.785-0.974
				l0.216,0.081C130.568,49.015,130.17,50.044,129.65,50.021z"/>
		</g>
		<g>
			<path fill="#CCDEFB" d="M133.553,50.779c-0.06-0.008-0.122-0.023-0.184-0.047l-0.969-0.358c-0.413-0.152-0.727-0.589-0.716-0.993
				l0.011-0.386c0.005-0.197,0.087-0.36,0.229-0.46c0.161-0.112,0.382-0.129,0.607-0.045l0.969,0.358
				c0.413,0.153,0.727,0.589,0.716,0.994l-0.011,0.386c-0.005,0.196-0.087,0.359-0.229,0.459
				C133.86,50.769,133.711,50.8,133.553,50.779z M132.347,48.887c-0.066-0.008-0.125,0.002-0.168,0.032
				c-0.044,0.03-0.067,0.079-0.069,0.145l-0.011,0.385c-0.006,0.19,0.177,0.426,0.391,0.505l0.969,0.358
				c0.104,0.039,0.2,0.035,0.262-0.008c0.044-0.03,0.067-0.079,0.069-0.144l0.011-0.386c0.005-0.19-0.178-0.426-0.391-0.505
				l-0.969-0.358C132.409,48.899,132.377,48.891,132.347,48.887z"/>
		</g>
	</g>
	<path fill="#FEBFBF" d="M131.907,34.46c-0.267,2.151-0.604,4.17-1.03,5.008c-0.102,0.203-0.21,0.386-0.323,0.547
		c-0.242,0.35-0.504,0.616-0.77,0.821c-0.989,0.751-2.042,0.596-2.143-0.198c-0.031-0.232,0.034-0.872,0.155-1.731
		c0.441-3.191,1.685-9.507,2.08-10.211c0.504-0.901,2.641-1.3,2.641-1.3S132.313,31.091,131.907,34.46z"/>
	<path fill="#FEBFBF" d="M130.611,40.548c0.039,1.183-2.17,1.842-4.622,2.165c-1.403,0.187-2.894,0.266-4.081,0.263
		c-0.189-0.006-0.373-0.006-0.542-0.011c-0.846-0.019-1.473-0.083-1.704-0.174c-1.103-0.423-0.281-2.475,1.294-2.493
		c2.004,0.344,5.45-1.3,6.298-1.403c0.212-0.026,0.534-0.074,0.681-0.043c0.456,0.073,0.516,0.384,0.516,0.384
		s0.706-0.397,1.313-0.24c0.353,0.092,0.666,0.372,0.79,1.018C130.583,40.173,130.605,40.344,130.611,40.548z"/>
	<path fill="#FEBFBF" d="M120.979,40.361c0,0-0.196-0.698-0.624-0.725s-3.267-0.032-3.342,0.118
		c-0.076,0.15-0.258,0.636-0.318,0.958c-0.06,0.321,0.114,1.417,0.114,1.417s0.088,0.82,0.096,0.853
		c0.008,0.032,2.369-0.038,2.369-0.038l2.225-1.333L120.979,40.361z"/>
	
		<linearGradient id="SVGID_1_" gradientUnits="userSpaceOnUse" x1="1473.561" y1="82.0479" x2="1478.8862" y2="82.0479" gradientTransform="matrix(0.9975 0.07 -0.07 0.9975 -1337.7943 -147.2732)">
		<stop  offset="0.1224" style="stop-color:#FCA4B5"/>
		<stop  offset="0.9896" style="stop-color:#FFADB7"/>
	</linearGradient>
	<path fill="url(#SVGID_1_)" d="M130.877,39.468c-0.102,0.203-0.21,0.386-0.323,0.547c0.03,0.158,0.052,0.33,0.058,0.533
		c0.039,1.183-2.17,1.842-4.622,2.165c1.629-0.307,2.883-0.781,3.267-1.025c0.362-0.232,0.495-0.576,0.528-0.852
		c0.039-0.262-0.008-0.469-0.008-0.469s-0.028-0.457-0.012-1.371c0.015-0.507,0.04-1.157,0.096-1.954
		c0.143-2.221,0.077-4.091,0.077-4.091l1.97,1.508C131.64,36.611,131.302,38.63,130.877,39.468z"/>
	<path fill="#FF7895" d="M135.303,26.581c0,0-4.692-0.625-5.643,1.806c-0.562,1.435-1.568,6.844-1.568,6.844s0.429,1.055,2.9,1.265
		C133.465,36.705,135.303,26.581,135.303,26.581z"/>
	<path fill="#FF94AB" d="M145.404,32.102c-0.006,0.354-0.11,0.792-0.244,1.475c-0.061,0.359-0.146,0.786-0.213,1.298
		c-0.08,0.512-1.347,1.603-1.591,6.381c-0.128,2.413-0.006,8.288-0.006,8.288c0,0.006-0.019,0.146-1.158,0.269
		c-0.012,0-0.018,0-0.024,0.006h-0.019c-0.378,0.03-1,0.043-1.743,0.024c-1.591-0.03-3.748-0.177-5.363-0.408
		c-2.395-0.341-5.009-2.286-4.899-2.901c0.104-0.621,0.433-2.571,0.097-6.393c-0.335-3.828-0.177-9.258,0.665-11.189
		c0.841-1.926,1.365-2.194,2.968-2.438c1.609-0.238,4.979-0.348,5.589-0.104c0.609,0.244,2.876,1.822,3.979,2.414
		c1.548,0.841,1.779,2.535,1.779,2.535C145.355,31.596,145.411,31.821,145.404,32.102z"/>
	<path fill="#FF7895" d="M143.949,37.266c0,0-4.756,1.326-11.514-0.755c-2.273-0.7-2.308-1.97-2.308-1.97s-0.096,3.198,0.116,5.602
		c0.627,0.948,2.883,2.085,7.467,2.583c1.808,0.079,4.178,0.063,5.619-0.64C143.369,40.841,143.541,38.422,143.949,37.266z"/>
	<path fill="#DDE8F6" d="M145.404,32.102c-0.006,0.354-0.11,0.792-0.244,1.475c-0.061,0.359-0.146,0.786-0.213,1.298
		c-0.08,0.512-1.347,1.603-1.591,6.381c-0.128,2.413-0.006,8.288-0.006,8.288c0,0.006-0.019,0.146-1.158,0.269
		c-0.012,0-0.018,0-0.024,0.006c-0.152-0.683-0.238-1.371-0.25-2.114c-0.043-2.115,0.262-7.283,0.28-7.534c0-0.006,0-0.006,0-0.006
		c0.128-0.737,0.737-3.376,0.609-3.809c-0.476-1.615-0.994-2.84-0.994-2.84l3.547-1.603
		C145.362,31.913,145.374,31.979,145.404,32.102z"/>
	
		<linearGradient id="SVGID_2_" gradientUnits="userSpaceOnUse" x1="1486.0864" y1="70.0586" x2="1481.7238" y2="66.3358" gradientTransform="matrix(0.9975 0.07 -0.07 0.9975 -1337.7943 -147.2732)">
		<stop  offset="0.1224" style="stop-color:#FEC7C7"/>
		<stop  offset="0.9694" style="stop-color:#FFADB7"/>
	</linearGradient>
	<path fill="url(#SVGID_2_)" d="M134.271,24.688c0,0,0.021,3.039-0.171,3.63c-0.192,0.59,0.995,0.892,2.411,0.79
		c1.417-0.103,2.731-1.134,3.283-1.348c0.552-0.213,0.532-0.5,0.082-1.085c-0.451-0.584-1.005-1.294-0.766-3.04
		c0.24-1.745,0.732-4.211,0.328-4.676s-3.282,0.139-3.911,1.455C134.898,21.729,134.271,24.688,134.271,24.688z"/>
	<path fill="#FEC7C7" d="M138.66,20.481c0,0-1.064,3.115-1.292,3.72c-0.226,0.604-0.886,1.263-1.806,1.686
		c-0.917,0.423-2.401,0.754-2.988,0.512c-0.587-0.243-0.628-0.379-0.64-0.7c-0.01-0.266-0.298-1.058-0.333-2.162
		c-0.007-0.215-0.003-0.443,0.013-0.679c0.066-0.938-0.227-2.282-0.142-2.544c0.087-0.261-0.069-2.336,0.598-3.23
		c0.667-0.894,2.682-2.614,4.769-2.217c1.719,0.328,1.841,3.927,1.833,5.186C138.669,20.319,138.66,20.481,138.66,20.481z"/>
	<g>
		
			<linearGradient id="SVGID_3_" gradientUnits="userSpaceOnUse" x1="1478.5044" y1="66.2061" x2="1477.3992" y2="66.5357" gradientTransform="matrix(0.9975 0.07 -0.07 0.9975 -1337.7943 -147.2732)">
			<stop  offset="0.1224" style="stop-color:#FEC7C7"/>
			<stop  offset="0.9896" style="stop-color:#FFDBDB"/>
		</linearGradient>
		<path fill="url(#SVGID_3_)" d="M132.162,21.017c-0.088,0.783-0.787,1.623-0.901,2.068s1.256,0.426,1.484,0.39L132.162,21.017z"/>
		
			<linearGradient id="SVGID_4_" gradientUnits="userSpaceOnUse" x1="1477.395" y1="66.2324" x2="1478.9644" y2="66.2324" gradientTransform="matrix(0.9975 0.07 -0.07 0.9975 -1337.7943 -147.2732)">
			<stop  offset="0.188" style="stop-color:#FFDCDC"/>
			<stop  offset="0.8991" style="stop-color:#FEC7C7"/>
		</linearGradient>
		<path fill="url(#SVGID_4_)" d="M132.188,23.532c-0.354-0.015-0.764-0.074-0.916-0.24c-0.057-0.062-0.076-0.138-0.056-0.219
			c0.045-0.177,0.176-0.407,0.328-0.674c0.231-0.408,0.519-0.916,0.572-1.388l0.093,0.011c-0.056,0.492-0.349,1.008-0.584,1.423
			c-0.148,0.261-0.276,0.486-0.318,0.651c-0.014,0.051-0.002,0.093,0.034,0.133c0.217,0.236,1.171,0.235,1.397,0.199l0.016,0.091
			C132.685,23.53,132.452,23.544,132.188,23.532z"/>
	</g>
	<path fill="#E5A395" d="M138.66,20.481c0,0-1.064,3.115-1.292,3.72c-0.226,0.604-0.886,1.263-1.806,1.686
		c-0.917,0.423-2.401,0.754-2.988,0.512c-0.587-0.243-0.628-0.379-0.64-0.7c-0.01-0.266-0.298-1.058-0.333-2.162
		c0.204-0.01,0.514-0.006,0.882,0.088c0.494,0.127,2.659,0.839,3.355,0.485c0.697-0.354,1.2-1.779,1.2-1.779
		s0.007-1.072,0.088-1.514c0.075-0.414,1.376-0.725,1.546-0.765C138.669,20.319,138.66,20.481,138.66,20.481z"/>
	<path fill="#FEC7C7" d="M133.043,24.81c0,0-0.437-0.359-0.824-0.469c-0.387-0.109-0.435,0.189-0.364,0.341
		C131.925,24.834,132.263,25.532,133.043,24.81z"/>
	
		<ellipse transform="matrix(0.651 -0.7591 0.7591 0.651 30.3993 109.0192)" fill="#FFFFFF" cx="133.755" cy="21.451" rx="0.314" ry="0.355"/>
	
		<ellipse transform="matrix(0.9845 -0.1753 0.1753 0.9845 -1.6592 23.432)" fill="#FFFFFF" cx="131.838" cy="21.11" rx="0.189" ry="0.344"/>
	<path fill="#A86A63" d="M132.716,20.67c0,0-0.002,0.206,0.141,0.208c0.143,0.002,0.813-0.082,0.813-0.082l1.074,0.268l-0.045-0.188
		l-0.998-0.332L132.716,20.67z"/>
	<path fill="#A86A63" d="M132.113,20.403c0.02,0.002-0.015,0.209-0.015,0.209l-0.535-0.296c0,0-0.143-0.053-0.152-0.092
		s0.085-0.184,0.085-0.184L132.113,20.403z"/>
	<path fill="#A86A63" d="M139.086,23.835l0.475-0.638l0.33-0.162l0.545-1.07c0,0,1.118-2.304,0.972-3.573
		c-0.146-1.269-0.897-2.691-2.396-2.92c-1.094-1.15-2.999-1.268-4.102-1.093c-1.103,0.174-2.448,1.17-3.003,2.39
		c-0.555,1.219-0.213,1.217-0.213,1.217s0.683,0.46,1.538,0c0.854-0.46,1.25-0.835,1.567-0.813c0.317,0.022,0.648,0.801,0.622,1.185
		s-0.164,1.381,0.236,1.661c0.399,0.28,1.195,1.141,1.333,1.335c0.137,0.194,0.049,0.977,0.049,0.977l0.478-0.219
		c0,0,0.059-0.99,0.582-1.379c0.523-0.389,0.878,0.055,0.891,0.342c0.014,0.286-0.183,1.179-0.114,1.384
		C138.943,22.667,139.117,23.385,139.086,23.835z"/>
	
		<linearGradient id="SVGID_5_" gradientUnits="userSpaceOnUse" x1="1483.9683" y1="65.5532" x2="1485.5522" y2="65.5532" gradientTransform="matrix(0.9975 0.07 -0.07 0.9975 -1337.7943 -147.2732)">
		<stop  offset="0.1224" style="stop-color:#FEB9B8"/>
		<stop  offset="1" style="stop-color:#FFDEDE"/>
	</linearGradient>
	<path fill="url(#SVGID_5_)" d="M138.229,21.015c0,0,0.392-0.56,1.061-0.287c0.668,0.274-0.319,1.913-0.376,2.012
		c-0.057,0.098-0.256,0.789-0.811,0.683c-0.555-0.106-0.166-0.867-0.166-0.867S138.318,21.532,138.229,21.015z"/>
	
		<linearGradient id="SVGID_6_" gradientUnits="userSpaceOnUse" x1="1484.27" y1="65.2549" x2="1485.3306" y2="65.2549" gradientTransform="matrix(0.9975 0.07 -0.07 0.9975 -1337.7943 -147.2732)">
		<stop  offset="0.1224" style="stop-color:#FCA4B5"/>
		<stop  offset="0.9896" style="stop-color:#FFADB7"/>
	</linearGradient>
	<path fill="url(#SVGID_6_)" d="M138.456,21.014c0,0,0.421-0.313,0.742-0.052c0.32,0.26-0.231,1.468-0.624,1.688
		c-0.218,0.001-0.436-0.062-0.436-0.062S138.542,21.321,138.456,21.014z"/>
	<g>
		<path fill="#627847" d="M119.875,43.681c-0.667,0.26-1.729,0.212-2.375-0.105s-0.629-0.786,0.038-1.045
			c0.666-0.259,1.729-0.212,2.375,0.106C120.558,42.953,120.541,43.421,119.875,43.681z"/>
		<polygon fill="#627847" points="120.84,38.585 120.385,43.178 117.026,43.033 116.969,38.418 		"/>
		<path fill="#B09064" d="M120.038,41.728c-0.693-0.325-1.834-0.375-2.549-0.113c-0.714,0.263-0.731,0.739-0.038,1.064
			s1.834,0.376,2.549,0.113S120.731,42.053,120.038,41.728z"/>
		<polygon fill="#B09064" points="120.546,42.291 120.824,39.819 116.878,39.636 116.942,42.126 		"/>
		<path fill="#DEC7A7" d="M120.268,39.206c-0.76-0.342-2.01-0.397-2.792-0.124c-0.782,0.273-0.799,0.772-0.039,1.114
			c0.76,0.342,2.01,0.398,2.792,0.124C121.011,40.047,121.028,39.548,120.268,39.206z"/>
		<path fill="#627847" d="M120.207,38.964c-0.72-0.354-1.906-0.407-2.648-0.118s-0.761,0.811-0.042,1.166
			c0.719,0.354,1.905,0.407,2.648,0.118C120.908,39.84,120.926,39.318,120.207,38.964z"/>
		<polygon fill="#627847" points="120.719,39.739 120.778,39.341 120.432,39.394 117,39.198 116.986,39.53 		"/>
		<path fill="#A19797" d="M120.333,39.649c-0.768,0.299-1.993,0.245-2.737-0.122c-0.744-0.367-0.725-0.906,0.043-1.205
			c0.768-0.299,1.994-0.245,2.737,0.122C121.12,38.812,121.101,39.351,120.333,39.649z"/>
		<path fill="#C7BEBE" d="M121.018,38.521l-0.319-0.014c-0.083-0.064-0.18-0.126-0.296-0.184c-0.811-0.399-2.147-0.459-2.984-0.133
			c-0.124,0.049-0.228,0.103-0.316,0.161l-0.304-0.013l-0.02,0.47c0,0.007-0.001,0.014-0.001,0.022l0,0.01h0.001
			c0.003,0.231,0.199,0.47,0.593,0.664c0.812,0.399,2.147,0.459,2.984,0.133c0.411-0.16,0.625-0.384,0.64-0.617h0.001
			L121.018,38.521z"/>
		<path fill="#E2D9D9" d="M120.421,37.872c-0.811-0.399-2.146-0.459-2.984-0.133c-0.837,0.326-0.858,0.914-0.047,1.313
			c0.811,0.399,2.147,0.458,2.984,0.133C121.211,38.859,121.232,38.271,120.421,37.872z"/>
		<path fill="#C7BEBE" d="M120.716,38.492c0-0.004,0-0.009,0-0.013l0.014-0.324l-0.166-0.007c-0.084-0.088-0.202-0.173-0.357-0.25
			c-0.695-0.342-1.841-0.393-2.559-0.114c-0.163,0.063-0.288,0.139-0.378,0.221l-0.157-0.007l-0.014,0.325l0,0v0.003l0,0
			c-0.006,0.203,0.163,0.413,0.509,0.584c0.695,0.342,1.841,0.394,2.559,0.114c0.353-0.137,0.536-0.33,0.548-0.529h0V38.492z"/>
		<path fill="#E1D8D8" d="M120.225,37.509c-0.696-0.342-1.841-0.394-2.559-0.113c-0.718,0.279-0.736,0.783-0.041,1.125
			s1.84,0.393,2.558,0.114S120.92,37.852,120.225,37.509z"/>
		<path fill="#C7BEBE" d="M120.39,38.255L120.39,38.255c-0.135,0.026-0.276-0.036-0.314-0.141l-0.015-0.042
			c-0.039-0.104,0.041-0.21,0.176-0.236l0,0c0.136-0.026,0.276,0.036,0.314,0.14l0.015,0.042
			C120.605,38.122,120.526,38.228,120.39,38.255z"/>
		<path fill="#FEBFBF" d="M117.082,39.84c0,0,0.033,0.39-0.125,0.495c-0.158,0.105-0.158,0.105-0.158,0.105s0.705,0.599,0.646,0.781
			c-0.059,0.183-0.477,0.223-0.477,0.223l-0.109-0.028l0.047,0.275c0,0,0.386,0.189,0.538,0.372
			c0.151,0.183-0.146,0.319-0.146,0.319l-0.39,0.041l0.05,0.297c0,0,0.331,0.12,0.492,0.213c0.161,0.093,0.176,0.254,0.046,0.341
			c-0.13,0.086-0.305,0.092-0.305,0.092l-0.465-0.22l0.013-0.418l0.056-0.223c0,0-0.384-0.307-0.485-0.478
			c-0.102-0.17-0.003-0.355,0.044-0.437c0.046-0.08,0.205-0.134,0.205-0.134l0.111-0.182c0,0-0.489-0.254-0.491-0.452
			c-0.003-0.198,0.205-0.396,0.205-0.396l0.195-0.096c0,0-0.147-0.234-0.199-0.353c-0.051-0.118,0.102-0.501,0.14-0.557
			c0.038-0.057,0.541-0.219,0.541-0.219l-0.081,0.28L117.082,39.84z"/>
		
			<linearGradient id="SVGID_7_" gradientUnits="userSpaceOnUse" x1="1468.8257" y1="87.6035" x2="1469.5083" y2="87.6035" gradientTransform="matrix(0.9975 0.07 -0.07 0.9975 -1337.7943 -147.2732)">
			<stop  offset="0.1224" style="stop-color:#FCA4B5"/>
			<stop  offset="0.9896" style="stop-color:#FFADB7"/>
		</linearGradient>
		<path fill="url(#SVGID_7_)" d="M121.229,42.901c0.228,0.036,0.45,0.059,0.68,0.075c-0.189-0.006-0.373-0.006-0.542-0.011
			C121.321,42.941,121.275,42.925,121.229,42.901z"/>
	</g>
	<g>
		<path fill="#FEBFBF" d="M152.921,39.102c0,0-5.788-8.021-8.376-9.831c-2.255-0.075-2.612,2.143-2.512,3.181
			c0.1,1.038,6.771,7.803,8.461,8.156C152.185,40.96,153.285,40.232,152.921,39.102z"/>
		<path fill="#FEBFBF" d="M150.502,38.528c0,0-1.032-0.539-2.101,1.801c-1.069,2.34-2.897,5.722-4.161,6.541
			c-0.673-0.182-1.492-0.624-1.492-0.624l-0.933-0.779l-0.021,0.3l-0.019,0.273c0,0-0.669,0.026-0.693,0.372
			c-0.024,0.347-0.052,0.738-0.052,0.738s-0.108,0.24-0.063,0.883c0.047,0.644,0.166,1.283,0.324,1.515
			c0.158,0.23,0.219,0.39,0.695,0.387c0.476-0.003,0.351-0.177,1.198-0.126c0.847,0.05,1.03,0.045,1.842-0.457
			c0.813-0.501,0.818-0.718,1.707-1.389c0.888-0.671,6.709-7.323,6.234-8.218S150.502,38.528,150.502,38.528z"/>
	</g>
	<path fill="#FF7895" d="M144.206,29.271c0,0-2.668-0.905-2.734,3.425c0.028,1.313,3.63,4.813,3.63,4.813s0.362-1.185,2.023-2.417
		s1.662-1.233,1.662-1.233S145.033,29.316,144.206,29.271z"/>
</g>
</svg>
