<?xml version="1.0" encoding="utf-8"?>
<!-- Generator: Adobe Illustrator 16.0.0, SVG Export Plug-In . SVG Version: 6.00 Build 0)  -->
<!DOCTYPE svg PUBLIC "-//W3C//DTD SVG 1.1//EN" "http://www.w3.org/Graphics/SVG/1.1/DTD/svg11.dtd">
<svg version="1.1" id="Layer_1" xmlns="http://www.w3.org/2000/svg" xmlns:xlink="http://www.w3.org/1999/xlink" x="0px" y="0px"
	 width="463.683px" height="425.749px" viewBox="0 0 463.683 425.749" enable-background="new 0 0 463.683 425.749"
	 xml:space="preserve">
<g>
	<path fill="#D7E4F2" d="M304.115,116.74c-4.459-2.837-11.896-3.145-16.612-0.687c-4.717,2.458-4.925,6.751-0.466,9.588
		s11.896,3.145,16.612,0.687C308.365,123.87,308.574,119.577,304.115,116.74z"/>
	<g>
		<path fill="#FEBFBF" d="M285.828,71.396c0,0,0.088-1.407,0.206-2.037c0.222-1.174,1.81-4.821,2.499-5.442s3.121,2.185,3.121,2.185
			l-1.039,2.676c0,0-1.301,1.729-1.633,2.127S285.828,71.396,285.828,71.396z"/>
		<path fill="#FEBFBF" d="M295.179,57.889c0,0-2.675-1.28-4.282,0.47c-1.616,1.76-2.93,7.616-2.93,7.616s2.966,2.029,3.192,1.938
			s1.942-3.838,2.264-5.342C293.746,61.066,295.179,57.889,295.179,57.889z"/>
	</g>
	<g>
		<path fill="#626170" d="M286.56,119.534c0,0-0.27,0.137-0.283,0.337c-0.014,0.2-0.021,0.751-0.02,0.881
			c0,0.13,0.342,0.634,1.178,0.829s2.869-0.343,3.554-0.744c0.686-0.399,1.619-1.417,1.903-1.495
			c0.224-0.061,0.793,0.023,1.028,0.062c0.073,0.012,0.144,0.015,0.218,0.008l0.537-0.045c0.076-0.006,0.151-0.022,0.225-0.048
			l1.15-0.408c0,0,0.164-0.845-0.181-1.111C295.524,117.533,286.56,119.534,286.56,119.534z"/>
		<path fill="#C2D2EA" d="M291.298,116.104c0,0-0.995,0.631-1.172,0.809s-1.976,0.908-2.6,1.288
			c-0.623,0.38-1.093,1.031-1.134,1.244c-0.041,0.213-0.136,0.7-0.063,0.904s0.397,0.746,1.475,0.813
			c0.963,0.06,2.819-0.754,3.199-0.925c0.046-0.021,0.088-0.045,0.13-0.073c0.287-0.195,1.482-1.006,1.679-1.099
			c0.225-0.106,2.206-0.606,2.507-0.707c0.302-0.1,0.639-0.137,0.683-0.379c0.045-0.242,0.135-1.57-0.024-1.988
			C295.817,115.572,292.178,115.032,291.298,116.104z"/>
		<path fill="#5C617D" d="M295.996,116.282c-0.104,0.329-0.485,0.562-1.762,0.628c-0.147,0.006-0.295,0.013-0.442,0.013
			c-0.917,0.03-1.762-0.04-2.686-0.443c-0.323-0.142-0.541-0.462-0.545-0.815c-0.037-3.56-1.532-18.248-1.979-27.378
			c-0.283-5.774,0.97-8.708,0.97-8.708l6.168-0.355l0.226,15.234l-0.002,8.813C295.943,103.27,296.093,115.953,295.996,116.282z"/>
		<g>
			<path fill="#8C92B0" d="M294.246,116.934c-0.005-0.102-0.456-10.229-0.613-12.359c-0.159-2.136-0.288-14.247-0.289-14.369
				l0.237-0.002c0.001,0.122,0.13,12.226,0.288,14.354c0.158,2.134,0.609,12.265,0.613,12.367L294.246,116.934z"/>
		</g>
		<path fill="#A8B0C2" d="M295.996,116.282c-0.067,0.214-0.254,0.388-0.729,0.501c-0.567,0.091-1.033,0.127-1.476,0.14
			l-1.153-26.393c0,0-1.678-1.499-1.215-3.311c0.12-0.469,4.388,6.637,4.388,6.637l0.134,0.601l-0.002,8.813
			C295.943,103.27,296.093,115.953,295.996,116.282z"/>
		<g>
			<path fill="#6C6B79" d="M293.868,123.697l-0.369,0.354l-0.071,0.573c0,0,0.425,0.751,1.579,1.024
				c1.154,0.274,2.948-0.019,3.527-0.204c0.579-0.187,1.872-1.329,2.061-1.487c0.188-0.157,1.091-1.078,1.091-1.078l0.458,0.057
				l1.481-0.938c0,0,0.248-0.384,0.284-0.676s0.106-0.852,0.106-0.852s-0.058-0.631-0.469-0.771
				C303.134,119.559,293.868,123.697,293.868,123.697z"/>
			<path fill="#C2D2EA" d="M298.881,118.363c0,0-1.121,1.083-1.274,1.339c-0.152,0.256-0.444,0.661-0.789,0.94
				c-0.346,0.279-2.723,2.48-3.063,2.851c-0.339,0.371-0.252,0.778-0.259,0.829c-0.006,0.051,0.865,0.815,1.683,0.952
				s3.808-0.351,4.607-1.095c0.799-0.744,2.239-2.063,2.483-2.222s1.336-0.763,1.474-1.176c0.139-0.414,0.217-1.73,0.075-2.11
				C303.676,118.291,298.881,118.363,298.881,118.363z"/>
			<path fill="#5C617D" d="M303.527,119.638c-0.09,0.149-0.166,0.281-0.363,0.394c-0.282,0.174-0.833,0.323-2.057,0.481
				c-2.047,0.257-3.077-0.338-3.471-1.162c-0.838-9.217-1.533-13.882-1.816-15.482c-0.86-4.82-1.744-10.601-1.945-11.883
				s-1.264-1.726-2.126-3.402c-0.855-1.676,0.001-6.984,0.001-6.984s10.063-0.584,10.465,0.944c0.005,0.025,0.011,0.045,0.016,0.071
				c0.395,1.56,0.48,5.04,0.071,7.563c-1.037,6.377-0.41,11.423-0.41,11.423s0.17,1.108,0.941,4.458
				C303.603,109.416,303.748,119.269,303.527,119.638z"/>
			<g>
				<path fill="#8C92B0" d="M302.318,120.154c0.001-0.039,0.134-4.014-0.092-6.882c-0.286-3.629-0.846-5.746-1.339-7.614
					c-0.335-1.268-0.651-2.467-0.841-3.969c-0.399-3.191-0.059-7.325,0.217-10.646c0.046-0.559,0.091-1.096,0.13-1.605
					c0.267-3.484-0.168-5.255-0.173-5.272l0.229-0.058c0.019,0.072,0.448,1.819,0.178,5.348c-0.038,0.509-0.083,1.047-0.129,1.606
					c-0.274,3.31-0.615,7.43-0.217,10.597c0.187,1.487,0.501,2.678,0.834,3.938c0.496,1.877,1.058,4.005,1.346,7.655
					c0.227,2.882,0.094,6.869,0.092,6.909L302.318,120.154z"/>
			</g>
		</g>
		<g>
			<path fill="#8C92B0" d="M292.362,88.383c-0.074-0.003-0.154-0.027-0.235-0.073c-0.388-0.217-0.801-0.895-0.79-1.871
				c0.006-0.523,0.127-2.625,0.166-2.884l0.235,0.036c-0.034,0.222-0.158,2.303-0.164,2.851c-0.011,0.939,0.395,1.508,0.668,1.661
				c0.08,0.044,0.147,0.055,0.192,0.028c0.063-0.04,0.095-0.168,0.083-0.344c-0.078-1.224,0.096-4.061,0.3-4.188l0.06-0.038
				l0.068,0.035l-0.06,0.104l0.001-0.001l0.001,0.003l0.089,0.063c-0.086,0.188-0.317,2.524-0.222,4.006
				c0.022,0.348-0.093,0.496-0.193,0.56C292.501,88.369,292.434,88.386,292.362,88.383z M292.883,83.705l-0.056,0.098
				L292.883,83.705z"/>
		</g>
		<g>
			<path fill="#8C92B0" d="M298.432,88.559c-1.361-0.059-2.399-0.422-3.099-1.085c-0.906-0.861-0.882-1.904-0.881-1.947l0.237,0.007
				c0,0.01-0.019,0.985,0.812,1.771c0.867,0.821,2.311,1.152,4.291,0.982l0.02,0.236C299.322,88.565,298.861,88.577,298.432,88.559z
				"/>
		</g>
		<path fill="#A76478" d="M302.467,83.847c0,0-1.761,1.371-5.322,1.093c-3.562-0.279-4.904-0.761-6.081-1.49
			c-1.178-0.728-1.89-1.645-1.89-1.645l0.247-1.371c0,0,0.653,1.147,2.333,1.953s5.323,1.147,6.809,1.224
			c1.484,0.075,3.794-0.845,3.794-0.845L302.467,83.847z"/>
		<path fill="#5C617D" d="M295.413,83.382c0,0-0.104,0.391-0.129,0.856c-0.023,0.465-0.023,1.322-0.023,1.322l-0.538-0.098
			c0,0-0.08-0.828-0.051-1.241c0.028-0.413,0.164-0.983,0.164-0.983L295.413,83.382z"/>
		<path fill="#5C617D" d="M300.573,83.501c0,0,0.089,0.395,0.093,0.86c0.004,0.466-0.032,1.322-0.032,1.322l0.542-0.075
			c0,0,0.115-0.824,0.104-1.238c-0.012-0.414-0.122-0.989-0.122-0.989L300.573,83.501z"/>
		<path fill="#5C617D" d="M290.491,81.551c0,0-0.142,0.483-0.169,0.88c-0.028,0.396,0.031,1.074,0.031,1.074L290,83.055
			c0,0-0.042-0.686-0.026-0.901c0.015-0.215,0.227-0.841,0.227-0.841L290.491,81.551z"/>
		<g>
			<path fill="#8C92B0" d="M288.739,83.755c-0.037-0.001-0.074-0.008-0.113-0.021l0.075-0.226c0.304,0.107,0.673-0.634,0.81-1.003
				l0.223,0.082C289.685,82.717,289.276,83.778,288.739,83.755z"/>
		</g>
		<g>
			<path fill="#CCDEFB" d="M292.762,84.537c-0.062-0.008-0.126-0.024-0.189-0.048l-0.999-0.37c-0.426-0.158-0.75-0.608-0.738-1.025
				l0.012-0.397c0.006-0.203,0.09-0.371,0.236-0.474c0.166-0.116,0.395-0.133,0.626-0.047l0.999,0.37
				c0.426,0.157,0.75,0.607,0.738,1.024l-0.012,0.397c-0.005,0.203-0.089,0.371-0.236,0.474
				C293.079,84.526,292.926,84.559,292.762,84.537z M291.519,82.586c-0.068-0.009-0.129,0.002-0.173,0.033
				c-0.045,0.032-0.069,0.082-0.071,0.148l-0.012,0.397c-0.006,0.196,0.184,0.439,0.403,0.521l0.999,0.37
				c0.107,0.039,0.206,0.036,0.271-0.009c0.046-0.031,0.069-0.082,0.071-0.148l0.012-0.397c0.006-0.195-0.183-0.438-0.403-0.521
				l-0.999-0.37C291.583,82.599,291.55,82.591,291.519,82.586z"/>
		</g>
	</g>
	<path fill="#DDE8F6" d="M303.281,74.6c-0.632,3.219-0.922,8.168-0.922,8.168c-0.154,0.147-0.333,0.28-0.529,0.394
		c-2.438,1.432-7.877,0.479-9.092,0.005c-2.008-0.785-3.316-2.083-3.343-2.347c-0.027-0.257-0.187-0.885-0.034-2.024
		c0.164-1.139,0.113-8.721,0.459-11.389c0.353-2.674,0.933-5.593,2.12-7.885c0.923-1.798,4.336-1.657,5.863-1.597
		c1.527,0.065,2.213,0.793,3.626,1.712c0.448,0.295,2.768,0.568,3.857,2.011c0.194,0.251,0.349,0.533,0.449,0.864
		C306.611,65.371,303.913,71.381,303.281,74.6z"/>
	<path fill="#FEBFBF" d="M304.918,61.176c0,0-0.783-0.575-1.436-0.821c-1.171,0.21-2.282,1.175-3.053,3.303
		c-0.771,2.127-1.896,6.071-1.661,7.531c0.236,1.46,4.127-0.046,4.127-0.046L304.918,61.176z"/>
	<path fill="#FEBFBF" d="M295.734,58.736c0,0-0.926-0.136-1.605,1.075c-0.679,1.211-0.948,4.681,0.893,5.601s5.219-3.803,5.43-4.047
		c0.211-0.245,1.529-0.993,0.96-1.6c-0.57-0.606-0.467-0.554-0.779-0.74C300.32,58.839,295.734,58.736,295.734,58.736z"/>
	<path fill="#FEBFBF" d="M295.173,58.023c0,0-1.813,0.589-2.561,2.017c-0.792,1.513-1.591,6.086-1.85,6.516
		c-0.258,0.429-0.917,0.656-0.917,0.656S289.734,57.276,295.173,58.023z"/>
	<path fill="#DDE8F6" d="M303.281,74.6c-0.632,3.219-0.922,8.168-0.922,8.168c-0.154,0.147-0.333,0.28-0.529,0.394
		c-0.296-0.57-0.447-1.18-0.557-2.216c-0.229-2.097-0.057-4.288,0.026-4.578c-0.107,0.251-0.445,0.621-1.559,0.52
		c-3.226-0.294-5.235-0.971-6.698-1.95c-1.462-0.985-2.004-1.307-2.004-1.307l-1.494,0.172l0.116-2.709l4.229,2.302l5.23-0.14
		l5.44-9.746c0,0,0.326-1.042,0.727-1.863c0.194,0.251,0.349,0.533,0.449,0.864C306.611,65.371,303.913,71.381,303.281,74.6z"/>
	<g>
		
			<linearGradient id="SVGID_1_" gradientUnits="userSpaceOnUse" x1="1160.3921" y1="134.4253" x2="1157.4707" y2="129.8841" gradientTransform="matrix(0.9958 0.0914 -0.0914 0.9958 -843.1835 -180.3286)">
			<stop  offset="0.1224" style="stop-color:#FEC7C7"/>
			<stop  offset="0.9694" style="stop-color:#FFADB7"/>
		</linearGradient>
		<path fill="url(#SVGID_1_)" d="M295.154,57.763c0,0,0.221,0.956,0.033,1.791c-0.188,0.834-0.639,0.959-0.208,1.277
			c0.432,0.317,1.722,0.923,3.366,0.352s2.671-1.753,2.495-2.022c-0.374-0.571-0.482-1.011-0.482-1.011s-0.368-1.237-0.103-2.712
			c0.265-1.475,1.878-3.123,1.408-3.851c-0.47-0.729-4.318-1.563-5.557,0.027S295.154,57.763,295.154,57.763z"/>
		<path fill="#E0B54B" d="M304.549,50.602c0,0,0.946-1.035,0.849-1.377c-0.099-0.342-0.641-1.299-1.467-1.375
			c-0.825-0.075-2.55-0.049-2.55-0.049l1.012,1.886L304.549,50.602z"/>
		<path fill="#F2D363" d="M302.229,50.874c0,0,0.506,0.286,0.634,0.726c0.129,0.44,0.047,0.932,0.047,0.932s1.469,0.338,1.704-0.418
			c0.236-0.755-0.021-1.39-0.021-1.39l-0.136-0.938l-1.473-0.676l-0.231,0.729l-0.308,0.569l-0.574,0.19L302.229,50.874z"/>
		<path fill="#F2D363" d="M304.161,48.981c0,0-0.5-0.601-0.761-1.181c-0.262-0.579-0.637-1.188-1.194-0.832
			c-0.559,0.356,0.102,1.231,0.102,1.231l1.416,1.111L304.161,48.981z"/>
		<path fill="#FEC7C7" d="M299.834,54.783c-0.282,0.916-0.65,1.762-0.966,2.246c-0.797,1.225-4.029,2.334-5.01,1.522
			c-0.45-0.375-0.59-1.701-0.61-3.058c-0.021-1.599,0.124-3.241,0.132-3.411c0.01-0.312,0.396-1.499,0.396-1.499
			s5.953-0.432,6.759,0.68C301.023,51.935,300.262,53.385,299.834,54.783z"/>
		<g>
			<path fill="#754554" d="M296.597,53.549c-0.718-0.404-1.794-0.382-1.805-0.381l-0.004-0.17c0.047-0.001,1.134-0.024,1.893,0.402
				L296.597,53.549z"/>
		</g>
		<g>
			<path fill="#754554" d="M293.984,52.803c-0.005-0.005-0.512-0.467-0.797-0.57l0.059-0.161c0.316,0.116,0.832,0.585,0.854,0.605
				L293.984,52.803z"/>
		</g>
		<g>
			
				<linearGradient id="SVGID_2_" gradientUnits="userSpaceOnUse" x1="1154.144" y1="129.6748" x2="1153.0989" y2="129.9321" gradientTransform="matrix(0.9958 0.0914 -0.0914 0.9958 -843.1835 -180.3286)">
				<stop  offset="0.1224" style="stop-color:#FEC7C7"/>
				<stop  offset="0.9896" style="stop-color:#FFDBDB"/>
			</linearGradient>
			<path fill="url(#SVGID_2_)" d="M294.212,52.791c0.066,0.393-0.984,2.254-1.003,2.454c-0.019,0.199,1,0.505,1.427,0.494
				L294.212,52.791z"/>
			
				<linearGradient id="SVGID_3_" gradientUnits="userSpaceOnUse" x1="1153.1333" y1="129.6572" x2="1154.6567" y2="129.6572" gradientTransform="matrix(0.9958 0.0914 -0.0914 0.9958 -843.1835 -180.3286)">
				<stop  offset="0.188" style="stop-color:#FFDCDC"/>
				<stop  offset="0.8991" style="stop-color:#FEC7C7"/>
			</linearGradient>
			<path fill="url(#SVGID_3_)" d="M294.562,55.789c-0.411-0.018-1.17-0.237-1.354-0.434c-0.036-0.038-0.053-0.077-0.049-0.115
				c0.007-0.077,0.114-0.301,0.32-0.723c0.288-0.59,0.723-1.481,0.684-1.718l0.101-0.017c0.042,0.249-0.289,0.954-0.691,1.78
				c-0.15,0.307-0.306,0.625-0.312,0.687c0,0.006,0.005,0.019,0.021,0.036c0.162,0.172,0.971,0.41,1.354,0.402l0.003,0.103
				C294.614,55.791,294.588,55.791,294.562,55.789z"/>
		</g>
		<circle fill="#FFFFFF" cx="295.739" cy="53.936" r="0.306"/>
		
			<ellipse transform="matrix(0.9977 -0.0673 0.0673 0.9977 -2.9144 19.9056)" fill="#FFFFFF" cx="293.777" cy="53.177" rx="0.196" ry="0.27"/>
		<path fill="#CDA8AD" d="M299.357,54.144c-0.281,0.916-0.173,2.401-0.488,2.886c-0.797,1.225-4.029,2.334-5.01,1.522
			c-0.45-0.375-0.59-1.701-0.61-3.058l0.632,0.449l0.93,0.325c0,0,2.295,0.331,2.715,0.155c1.088-0.455,1.025-1.946,1.025-1.946
			L299.357,54.144z"/>
		<path fill="#754554" d="M299.275,54.476l-0.727,0.192c0,0,0.054-1.242-0.313-1.676c-0.365-0.434-1.204-1.369-1.204-1.369
			l2.456-0.948l2.91-0.431l0.422,1.447c0,0-0.326,1.543-0.819,2.276s-1.199,1.196-1.486,1.715c-0.213,0.383-0.351,0.614-0.351,0.614
			s-0.04-0.475,0.115-0.974c0.178-0.57,0.543-1.188,0.361-1.462c-0.342-0.513-0.798-0.563-0.986-0.321
			C299.464,53.781,299.275,54.476,299.275,54.476z"/>
		
			<linearGradient id="SVGID_4_" gradientUnits="userSpaceOnUse" x1="843.1899" y1="103.9619" x2="844.8042" y2="103.9619" gradientTransform="matrix(1 -0.0017 0.0017 1 -543.9082 -47.9065)">
			<stop  offset="0.1224" style="stop-color:#FEB9B8"/>
			<stop  offset="1" style="stop-color:#FFDEDE"/>
		</linearGradient>
		<path fill="url(#SVGID_4_)" d="M299.849,53.849c0,0,0.459-0.895,1.068-0.283c0.61,0.612-0.764,2.196-1.064,2.311
			s-0.48-0.668-0.352-0.85S299.849,53.849,299.849,53.849z"/>
		
			<linearGradient id="SVGID_5_" gradientUnits="userSpaceOnUse" x1="843.269" y1="104.001" x2="844.5806" y2="104.001" gradientTransform="matrix(1 -0.0017 0.0017 1 -543.9082 -47.9065)">
			<stop  offset="0.1224" style="stop-color:#FCA4B5"/>
			<stop  offset="0.9896" style="stop-color:#FFADB7"/>
		</linearGradient>
		<path fill="url(#SVGID_5_)" d="M300.018,53.812c0,0,0.78-0.296,0.827,0.146s-0.866,1.593-1.029,1.642
			c-0.164,0.05-0.277-0.404-0.277-0.404L300.018,53.812z"/>
		<path fill="#754554" d="M299.037,53.475c0.02,0,0.188,0.645,0.921,1.063c-0.604-0.628-0.736-1.457-0.736-1.457
			s0.517,0.632,0.701,0.732c0.186,0.1,0.334,0.104,0.334,0.104l-0.331-0.238c0,0-0.42-0.461-0.404-0.838
			c0.017-0.377-0.217-0.455-0.217-0.455L299.037,53.475z"/>
		<path fill="#754554" d="M300.173,56.977c0,0,0.403-0.208,0.617-0.477c0.215-0.269,1.21-2.533,1.21-2.533s-1.272,1.099-1.458,1.411
			c-0.187,0.313-0.379,0.918-0.379,0.918S300.155,56.754,300.173,56.977z"/>
		<path fill="#F2D363" d="M303.142,50.406l0.219-0.165c0,0-0.58-1.553-1.979-2.44s-3.923-1.026-4.629-0.999
			s-1.762,0.634-1.896,1.084c-0.134,0.451-0.852,1.218-0.895,1.677c-0.042,0.459,2.464,2.003,2.464,2.003
			S302.172,52.094,303.142,50.406z"/>
		<path fill="#F2D363" d="M302.539,52.736c0,0-0.798,0.218-1.979,0.097c-1.375-0.14-3.359-0.238-4.937-0.605
			c-1.576-0.367-2.254-1.034-2.254-1.034s0.051-1.162,0.302-1.472c0.251-0.31,0.251-0.31,0.251-0.31s1.536,1.214,2.299,1.377
			c0.762,0.163,4.863,0.261,5.818-0.262c0.583-0.32,1.012-0.377,1.256-0.374c0.156,0.002,0.238,0.029,0.238,0.029l-0.185,0.39
			L302.539,52.736z"/>
		<path fill="#E0B54B" d="M300.037,50.75c0,0-1.86-0.504-2.266-0.726c-0.405-0.223-1.234-0.875-1.234-0.875
			S297.324,50.465,300.037,50.75z"/>
		<path fill="#E0B54B" d="M297.776,50.376c0,0-2.841-0.915-3.35-1.421C294.976,49.009,297.776,50.376,297.776,50.376z"/>
		<path fill="#E0B54B" d="M299.774,50.893c0,0-2.713,0.008-3.134-0.048c-0.42-0.056-1.162-0.374-1.162-0.374l-1.234-0.814
			c0,0,1.237,0.713,2.164,0.9C297.334,50.743,299.774,50.893,299.774,50.893z"/>
		<path fill="#E0B54B" d="M300.254,52.011c0,0-1.859,0.292-2.373,0.245c-0.515-0.047-3.677-0.893-3.677-0.893l3.965,0.771
			L300.254,52.011z"/>
		<path fill="#FEC7C7" d="M294.939,57.076c0,0-1.246,0.173-1.411-0.555C293.875,56.359,294.939,57.076,294.939,57.076z"/>
	</g>
	<g>
		<path fill="#FEBFBF" d="M306.264,64.177c0.015,0.417,0.11,2.998-1.027,4.65c-0.928,2.815-2.841,5.658-3.938,6.763
			c-0.529,0.527-1.026,0.641-1.45,0.52c-0.924-0.264-1.522-1.653-1.375-2.409c0.041-0.216,0.136-0.635,0.269-1.18
			c0.538-2.243,0.151-4.715,2.443-9.152c0.911-3.008,2.725-2.45,2.725-2.45C305.904,61,306.228,62.958,306.264,64.177z"/>
		
			<linearGradient id="SVGID_6_" gradientUnits="userSpaceOnUse" x1="1000.4419" y1="136.2505" x2="993.1002" y2="138.7419" gradientTransform="matrix(0.9991 0.0431 -0.0431 0.9991 -694.2938 -105.6812)">
			<stop  offset="0.1224" style="stop-color:#FEBFBF"/>
			<stop  offset="0.9694" style="stop-color:#FFADB7"/>
		</linearGradient>
		<path fill="url(#SVGID_6_)" d="M299.792,76.646c-5.05-0.026-8.349-2.947-8.836-3.544c-0.486-0.598,2.202-0.43,2.274-0.325
			c0.072,0.112,0.882,0.051,1.993,0.105c1.111,0.061,3.16-0.535,3.16-0.535l0.357,0.175l0.959,0.464l1.358,2.21l0.239,0.395
			C301.298,75.59,301.687,75.632,299.792,76.646z"/>
		
			<linearGradient id="SVGID_7_" gradientUnits="userSpaceOnUse" x1="993.7876" y1="132.8574" x2="991.869" y2="137.4942" gradientTransform="matrix(0.9991 0.0431 -0.0431 0.9991 -694.2938 -105.6812)">
			<stop  offset="0.1224" style="stop-color:#FEC7C7"/>
			<stop  offset="0.9694" style="stop-color:#FFADB7"/>
		</linearGradient>
		<path fill="url(#SVGID_7_)" d="M299.27,69.779l-0.479,1.759l-0.406,0.809l-2.396,0.504c0,0-2.108-0.117-2.241,0
			c-0.133,0.109-2.964,0.576-4.256,0.559c-0.985-0.011-2.848-0.642-3.496-1.035c-0.206-0.124-0.206-0.553-0.163-0.974
			c0.031-0.274,0.074-0.541,0.096-0.719c0.203-1.906,2.873-1.464,2.873-1.464s1.27,0.567,1.959,0.763
			c0.689,0.189,3.948,0.337,4.42,0.229c0.472-0.107,2.184-0.61,2.742-0.502C298.481,69.815,299.27,69.779,299.27,69.779z"/>
		
			<linearGradient id="SVGID_8_" gradientUnits="userSpaceOnUse" x1="986.8091" y1="134.4971" x2="1000.1733" y2="134.4971" gradientTransform="matrix(0.9991 0.0431 -0.0431 0.9991 -694.2938 -105.6812)">
			<stop  offset="0.1224" style="stop-color:#FCA4B5"/>
			<stop  offset="0.9896" style="stop-color:#FFADB7"/>
		</linearGradient>
		<path fill="url(#SVGID_8_)" d="M299.27,69.779l-0.479,1.759l-0.406,0.809l-2.396,0.504c0,0-2.108-0.117-2.241,0
			c-0.133,0.109-2.964,0.576-4.256,0.559c-0.985-0.011-2.848-0.642-3.496-1.035c-0.206-0.124-0.206-0.553-0.163-0.974
			c0.019,0.02,0.086,0.1,0.366,0.419c0.366,0.426,1.895,1.062,3.349,1.188c1.454,0.12,3.793-0.361,4.396-0.412
			c0.604-0.058,1.736,0.132,2.146-0.01c0.403-0.143,2.042-0.45,2.042-0.45l0.242-0.553L299.27,69.779z"/>
		<path fill="#FEBFBF" d="M305.237,68.827c-0.928,2.815-1.442,5.62-3.938,6.763L305.237,68.827z"/>
	</g>
	<path fill="#DDE8F6" d="M303.527,119.638c-0.09,0.149-0.166,0.281-0.363,0.394c-0.067-3.038-0.271-11.356-0.379-12.564
		c-0.135-1.484-0.976-3.365-1.354-6.307c-0.385-2.949,0.224-9.184,0.521-12.084c0.298-2.906-0.122-5.914-0.122-5.914
		c0.136-0.187,0.271-0.372,0.4-0.546c0.395,1.56,0.48,5.04,0.071,7.563c-1.037,6.377-0.41,11.423-0.41,11.423
		s0.17,1.108,0.941,4.458C303.603,109.416,303.748,119.269,303.527,119.638z"/>
	<path fill="#F2D363" d="M302.029,86.352c0,0,0.273,0.225-0.061,1.408c-0.335,1.183-0.642,6.107-0.606,7.256
		c0.483,0.234,1.204,1.809,1.204,1.809s0.899-2.651,0.742-4.552c-0.158-1.901,0.215-5.598,0.149-6.559
		c-0.065-0.96-1.266-0.9-1.266-0.9S302.546,85.764,302.029,86.352z"/>
</g>
</svg>
