<?xml version="1.0" encoding="utf-8"?>
<!-- Generator: Adobe Illustrator 16.0.0, SVG Export Plug-In . SVG Version: 6.00 Build 0)  -->
<!DOCTYPE svg PUBLIC "-//W3C//DTD SVG 1.1//EN" "http://www.w3.org/Graphics/SVG/1.1/DTD/svg11.dtd">
<svg version="1.1" id="Layer_1" xmlns="http://www.w3.org/2000/svg" xmlns:xlink="http://www.w3.org/1999/xlink" x="0px" y="0px"
	 width="463.683px" height="425.749px" viewBox="0 0 463.683 425.749" enable-background="new 0 0 463.683 425.749"
	 xml:space="preserve">
<g>
	<g>
		<path fill="#D7E4F2" d="M171.476,85.628l11.193,6.462c0.695,0.401,1.41,0.462,1.877,0.159l6.139-3.96
			c0.277-0.18,0.107-0.702-0.305-0.94l-12.316-7.11l-6.893,4.45C170.894,84.868,171.063,85.39,171.476,85.628z"/>
		<g>
			<g>
				<path fill="#25242F" d="M182.961,89.77c0-0.533,0.377-1.184,0.842-1.452c0.234-0.135,0.445-0.146,0.598-0.058v0l0.764,0.489
					l-1.239,2.021l-0.717-0.458l0,0C183.055,90.224,182.961,90.036,182.961,89.77z"/>
				<path fill="#393842" d="M183.703,90.244c0,0.533,0.376,0.748,0.841,0.48c0.465-0.269,0.842-0.918,0.842-1.452
					c0-0.533-0.377-0.748-0.842-0.479S183.703,89.71,183.703,90.244z"/>
			</g>
			<path fill="#CDC6BC" d="M183.941,90.106c0,0.382,0.271,0.536,0.604,0.344c0.333-0.192,0.604-0.659,0.604-1.041
				s-0.27-0.536-0.604-0.344C184.211,89.258,183.941,89.724,183.941,90.106z"/>
		</g>
		<g>
			<g>
				<path fill="#25242F" d="M173.876,84.492c0-0.534,0.377-1.184,0.842-1.452c0.234-0.135,0.445-0.147,0.598-0.059l0,0l0.764,0.489
					l-1.239,2.021l-0.718-0.459l0,0C173.971,84.946,173.876,84.759,173.876,84.492z"/>
				<path fill="#393842" d="M174.619,84.966c0,0.534,0.376,0.749,0.841,0.48s0.841-0.919,0.841-1.452
					c0-0.534-0.376-0.749-0.841-0.48S174.619,84.433,174.619,84.966z"/>
			</g>
			<path fill="#CDC6BC" d="M174.856,84.829c0,0.383,0.27,0.537,0.604,0.344s0.604-0.658,0.604-1.041s-0.27-0.536-0.604-0.344
				S174.856,84.446,174.856,84.829z"/>
		</g>
		<g>
			<g>
				<path fill="#25242F" d="M188.278,86.553c0-0.534,0.377-1.184,0.842-1.452c0.234-0.135,0.445-0.146,0.598-0.059h0l0.764,0.488
					l-1.239,2.021l-0.718-0.458v0C188.372,87.006,188.278,86.819,188.278,86.553z"/>
				<path fill="#393842" d="M189.02,87.026c0,0.534,0.376,0.749,0.841,0.48c0.465-0.269,0.842-0.919,0.842-1.452
					s-0.377-0.748-0.842-0.479C189.396,85.843,189.02,86.493,189.02,87.026z"/>
			</g>
			<path fill="#CDC6BC" d="M189.258,86.89c0,0.382,0.27,0.536,0.604,0.344s0.604-0.658,0.604-1.041s-0.27-0.537-0.604-0.344
				S189.258,86.507,189.258,86.89z"/>
		</g>
		<g>
			<g>
				<path fill="#423746" d="M190.054,83.68c0,0-0.146,0.225-0.282,0.149c-0.712-0.399-3.689,0.856-4.402,0.487
					c-0.113,0.077-0.226,0.154-0.339,0.231c0.024,0.074,0.036,0.11,0.06,0.185c0.447,0.258,0.894,0.517,1.341,0.774
					c0.248,0.322,0.497,0.644,0.745,0.966c0.226,0.13,2.065-0.966,2.291-0.835c0.077-0.228,0.799-0.836,0.876-1.064
					C190.247,84.275,190.151,83.978,190.054,83.68z"/>
				
					<linearGradient id="SVGID_1_" gradientUnits="userSpaceOnUse" x1="4906.5347" y1="639.8965" x2="4919.5986" y2="617.2687" gradientTransform="matrix(-0.944 -0.073 0.3212 0.9053 4619.4136 -138.2153)">
					<stop  offset="0" style="stop-color:#D73E41"/>
					<stop  offset="0.0102" style="stop-color:#D53C40"/>
					<stop  offset="0.0155" style="stop-color:#CD353B"/>
					<stop  offset="0.0191" style="stop-color:#C22C34"/>
					<stop  offset="0.5361" style="stop-color:#C22C34"/>
					<stop  offset="0.5477" style="stop-color:#D43D40"/>
					<stop  offset="0.5635" style="stop-color:#E74E4C"/>
					<stop  offset="0.5801" style="stop-color:#F15854"/>
					<stop  offset="0.5987" style="stop-color:#F55B56"/>
					<stop  offset="0.6171" style="stop-color:#F75E58"/>
					<stop  offset="0.6324" style="stop-color:#FC695F"/>
					<stop  offset="0.6377" style="stop-color:#FF6E63"/>
					<stop  offset="0.9832" style="stop-color:#FF6E63"/>
					<stop  offset="0.9837" style="stop-color:#FF6D62"/>
					<stop  offset="0.988" style="stop-color:#FF665E"/>
					<stop  offset="1" style="stop-color:#FF645D"/>
				</linearGradient>
				<path fill="url(#SVGID_1_)" d="M183.441,65.893c-2.731-1.577-5.462-3.153-8.192-4.73c-0.783-0.452-1.265-0.181-0.988,0.63
					c1.487,4.588,4.069,8.503,5.556,13.091c0.018,0.055,0.077,0.125,0.13,0.156c3.643,2.103,6.708,7.467,10.351,9.57
					c0.054,0.031,0.026-0.835,0.009-0.89c-1.487-4.588-3.433-10.917-4.92-15.505C185.131,67.428,184.231,66.334,183.441,65.893z"/>
				
					<linearGradient id="SVGID_2_" gradientUnits="userSpaceOnUse" x1="4909.2495" y1="642.4512" x2="4923.0674" y2="618.5179" gradientTransform="matrix(-0.944 -0.073 0.3212 0.9053 4619.4136 -138.2153)">
					<stop  offset="0" style="stop-color:#EA5257"/>
					<stop  offset="0.0097" style="stop-color:#EC5459"/>
					<stop  offset="0.0148" style="stop-color:#F35C60"/>
					<stop  offset="0.0188" style="stop-color:#FE6A6D"/>
					<stop  offset="0.0191" style="stop-color:#FF6B6E"/>
					<stop  offset="0.5361" style="stop-color:#FF6B69"/>
					<stop  offset="0.5597" style="stop-color:#FF706F"/>
					<stop  offset="0.5987" style="stop-color:#FF7273"/>
					<stop  offset="0.6164" style="stop-color:#FF7575"/>
					<stop  offset="0.631" style="stop-color:#FF8079"/>
					<stop  offset="0.6377" style="stop-color:#FF877D"/>
					<stop  offset="0.9832" style="stop-color:#FF877D"/>
					<stop  offset="0.9837" style="stop-color:#FF867C"/>
					<stop  offset="0.988" style="stop-color:#FF7F77"/>
					<stop  offset="1" style="stop-color:#FF7D76"/>
				</linearGradient>
				<path fill="url(#SVGID_2_)" d="M168.319,64.188l5.127-3.469c0.004-0.002,0.008-0.005,0.012-0.007l0.005-0.003l0,0.001
					c0.224-0.134,0.604-0.079,1.089,0.201c2.771,1.6,5.542,3.199,8.313,4.799c0.984,0.568,2.083,1.879,2.404,2.872
					c1.528,4.715,3.515,11.171,5.043,15.887c0.021,0.065,0.014,0.109-0.011,0.133l0.003,0.004l-0.008,0.005
					c-0.001,0.001-0.002,0.002-0.004,0.003l-4.94,4.012l-6.882-9.584c-0.2-0.116-0.399-0.231-0.599-0.346
					c-0.146-0.084-0.305-0.274-0.353-0.421c-0.1-0.309-0.659-2.358-0.759-2.667L168.319,64.188z"/>
				<g>
					<path fill="#423746" d="M180.57,81.75c0.157,0.482,0.08,1.193-0.4,0.917s-1.206-1.452-1.362-1.934
						c-0.157-0.483,0.114-0.655,0.594-0.379C179.881,80.631,180.414,81.267,180.57,81.75z"/>
					<path fill="#423746" d="M180.304,81.596c0.107,0.329,0.094,0.973-0.221,0.802c-0.335-0.182-0.91-1.205-1.01-1.513
						c-0.1-0.308,0.07-0.475,0.415-0.264C179.812,80.819,180.198,81.267,180.304,81.596z"/>
				</g>
				<path fill="#750000" d="M176.806,75.747c0,0,0.852,2.276,0.989,2.358c0.721,0.428,1.491,0.938,2.237,1.41
					c0.227,0.273,0.453,0.547,0.68,0.82c0.024,0.074,0.036,0.111,0.061,0.186c-0.447-0.259-0.895-0.517-1.342-0.774
					c-0.106,0.117-0.212,0.234-0.318,0.351c-0.226-0.13-0.451-0.26-0.676-0.39c-0.294-0.442-0.588-0.884-0.882-1.326
					C177.458,78.082,176.902,76.044,176.806,75.747z"/>
			</g>
			<g>
				
					<linearGradient id="SVGID_3_" gradientUnits="userSpaceOnUse" x1="4915.1802" y1="645.875" x2="4928.8281" y2="622.2358" gradientTransform="matrix(-0.944 -0.073 0.3212 0.9053 4619.4136 -138.2153)">
					<stop  offset="0" style="stop-color:#F75F65"/>
					<stop  offset="0.0104" style="stop-color:#F86167"/>
					<stop  offset="0.016" style="stop-color:#FB696C"/>
					<stop  offset="0.0191" style="stop-color:#FF7273"/>
					<stop  offset="0.5361" style="stop-color:#FF7273"/>
					<stop  offset="0.5614" style="stop-color:#FF7978"/>
					<stop  offset="0.5987" style="stop-color:#FF7D7A"/>
					<stop  offset="0.6167" style="stop-color:#FF807C"/>
					<stop  offset="0.6317" style="stop-color:#FF8B83"/>
					<stop  offset="0.6377" style="stop-color:#FF9187"/>
					<stop  offset="0.9832" style="stop-color:#FF9187"/>
					<stop  offset="0.9837" style="stop-color:#FF9086"/>
					<stop  offset="0.988" style="stop-color:#FF8982"/>
					<stop  offset="1" style="stop-color:#FF8781"/>
				</linearGradient>
				<path fill="url(#SVGID_3_)" d="M177.732,69.184c-2.771-1.6-5.542-3.199-8.313-4.799c-0.985-0.569-1.542-0.213-1.221,0.778
					c1.528,4.716,3.709,11.709,5.237,16.425c0.048,0.147,0.207,0.337,0.353,0.421c3.802,2.195,7.604,4.39,11.406,6.585
					c0.146,0.084,0.227,0.033,0.179-0.114c-1.528-4.716-3.709-11.71-5.237-16.426C179.814,71.063,178.716,69.752,177.732,69.184z"/>
				<path fill="#D33D48" d="M177.538,69.608c-2.73-1.577-5.461-3.154-8.192-4.73c-0.782-0.451-1.265-0.181-0.988,0.63
					c1.487,4.589,3.626,11.455,5.113,16.043c0.018,0.054,0.077,0.125,0.131,0.156c3.643,2.104,7.286,4.206,10.928,6.31
					c0.054,0.031,0.084,0.013,0.066-0.042c-1.487-4.588-3.626-11.455-5.113-16.042C179.228,71.144,178.328,70.05,177.538,69.608z"/>
				<polygon fill="#423746" points="181.984,86.364 176.697,83.313 176.838,83.747 182.125,86.8 				"/>
				<path fill="#342838" d="M173.18,80.802c0,0,0.393,0.536,0.53,0.618c0.722,0.428,1.491,0.937,2.237,1.41
					c0.227,0.273,0.453,0.547,0.68,0.82c0.024,0.074,0.036,0.111,0.06,0.185l-0.121,0.114c0,0-0.943-0.729-1.221-0.889
					c-0.106,0.117-0.212,0.234-0.319,0.352c-0.225-0.13-0.451-0.26-0.676-0.391c-0.294-0.442-1.292-2.104-1.292-2.104
					S173.092,80.827,173.18,80.802z"/>
				<path fill="#423746" d="M173.06,80.916c0,0,0.393,0.536,0.53,0.618c0.722,0.428,1.491,0.937,2.237,1.41
					c0.227,0.273,0.454,0.547,0.68,0.82c0.024,0.074,0.036,0.11,0.06,0.185c-0.447-0.258-0.894-0.516-1.341-0.774
					c-0.106,0.117-0.212,0.234-0.318,0.352c-0.226-0.13-0.451-0.261-0.677-0.391c-0.294-0.442-0.588-0.884-0.882-1.326
					C173.252,81.511,173.156,81.214,173.06,80.916z"/>
				<path fill="#342838" d="M185.114,87.691c0,0-0.146,0.225-0.282,0.149c-0.712-0.399-1.431-0.75-2.144-1.12
					c-0.113,0.077-0.226,0.154-0.339,0.231c0.024,0.074,0.036,0.111,0.06,0.186c0.447,0.258,0.895,0.516,1.342,0.774
					c0.248,0.322,1.284,1.471,1.284,1.471l0.138-0.115c0,0,0.154-0.455,0.231-0.683C185.307,88.287,185.21,87.989,185.114,87.691z"
					/>
				<path fill="#423746" d="M184.976,87.807c0,0-0.146,0.225-0.282,0.148c-0.712-0.399-1.431-0.75-2.143-1.119
					c-0.113,0.077-0.227,0.154-0.34,0.231c0.024,0.074,0.036,0.111,0.06,0.185c0.447,0.258,0.894,0.517,1.341,0.774
					c0.249,0.322,0.497,0.644,0.745,0.966c0.226,0.13,0.451,0.26,0.676,0.391c0.077-0.228,0.154-0.456,0.231-0.684
					C185.169,88.402,185.073,88.104,184.976,87.807z"/>
				<path fill="#E44E5A" d="M175.527,82.339c-0.159-0.092-0.238-0.138-0.396-0.229c-0.177-0.103-0.368-0.331-0.426-0.509
					c-1.483-4.576-3.619-11.431-5.102-16.007c-0.058-0.179,0.039-0.241,0.217-0.138c0.158,0.092,0.237,0.138,0.396,0.229
					c0.177,0.103,0.369,0.331,0.426,0.509c1.483,4.576,3.619,11.431,5.102,16.007C175.802,82.379,175.705,82.441,175.527,82.339z"/>
				<path fill="#E44E5A" d="M183.312,86.833c-0.159-0.091-0.238-0.137-0.396-0.229c-0.177-0.102-0.368-0.33-0.426-0.509
					c-1.483-4.577-3.619-11.431-5.102-16.007c-0.058-0.179,0.039-0.241,0.216-0.138c0.159,0.092,0.238,0.138,0.396,0.229
					c0.177,0.102,0.369,0.331,0.426,0.509c1.483,4.576,3.619,11.431,5.102,16.007C183.586,86.873,183.489,86.935,183.312,86.833z"/>
				<path fill="#CE3844" d="M175.302,82.515c-0.159-0.092-0.238-0.137-0.396-0.229c-0.178-0.102-0.369-0.331-0.426-0.509
					c-1.483-4.576-3.619-11.431-5.102-16.007c-0.058-0.179,0.039-0.24,0.217-0.138c0.158,0.091,0.238,0.137,0.396,0.229
					c0.177,0.103,0.368,0.33,0.426,0.509c1.483,4.576,3.619,11.431,5.102,16.007C175.577,82.556,175.479,82.617,175.302,82.515z"/>
				<path fill="#CE3844" d="M183.086,87.009c-0.159-0.092-0.238-0.138-0.396-0.229c-0.178-0.103-0.369-0.331-0.427-0.51
					c-1.482-4.576-3.619-11.431-5.102-16.007c-0.058-0.179,0.039-0.241,0.217-0.139c0.158,0.092,0.238,0.138,0.396,0.229
					c0.177,0.103,0.368,0.331,0.426,0.509c1.483,4.576,3.619,11.431,5.102,16.007C183.361,87.049,183.264,87.111,183.086,87.009z"/>
				<polygon fill="#E44E5A" points="182.011,86.447 181.848,86.493 175.585,68.462 176.539,68.439 176.433,68.97 				"/>
				<polygon fill="#CE3844" points="181.848,86.493 176.56,83.44 170.937,65.822 176.224,68.875 				"/>
				<polygon fill="#FF7B77" points="176.539,68.439 171.251,65.387 170.937,65.822 176.224,68.875 				"/>
				<path fill="#E44E5A" d="M177.784,83.849L177.784,83.849c-0.192-0.111-0.406-0.383-0.479-0.607L172.256,67.4
					c-0.073-0.225,0.024-0.317,0.216-0.206l0,0c0.192,0.11,0.406,0.382,0.479,0.607L178,83.643
					C178.072,83.867,177.976,83.959,177.784,83.849z"/>
				<path fill="#E44E5A" d="M179.111,84.615c-0.021-0.012-0.031-0.019-0.052-0.03c-0.178-0.103-0.369-0.331-0.427-0.509
					c-1.482-4.577-3.618-11.431-5.102-16.007c-0.058-0.179,0.039-0.24,0.217-0.138c0.021,0.012,0.031,0.018,0.052,0.03
					c0.178,0.103,0.369,0.331,0.427,0.509c1.483,4.576,3.619,11.431,5.102,16.007C179.386,84.655,179.289,84.717,179.111,84.615z"/>
				<path fill="#E44E5A" d="M180.413,85.366c-0.021-0.012-0.031-0.018-0.052-0.03c-0.177-0.103-0.369-0.33-0.426-0.509
					c-1.483-4.577-3.619-11.431-5.102-16.007c-0.058-0.179,0.039-0.241,0.216-0.138c0.021,0.012,0.031,0.018,0.052,0.03
					c0.177,0.103,0.368,0.33,0.426,0.509c1.483,4.576,3.619,11.431,5.102,16.007C180.687,85.407,180.59,85.469,180.413,85.366z"/>
				<path fill="#CE3844" d="M177.558,84.024L177.558,84.024c-0.192-0.11-0.406-0.382-0.479-0.607l-5.048-15.841
					c-0.073-0.225,0.024-0.317,0.216-0.206l0,0c0.192,0.111,0.407,0.383,0.479,0.607l5.048,15.841
					C177.847,84.043,177.75,84.135,177.558,84.024z"/>
				<path fill="#CE3844" d="M178.886,84.791c-0.021-0.012-0.031-0.018-0.052-0.03c-0.178-0.103-0.368-0.33-0.426-0.509
					c-1.483-4.576-3.619-11.43-5.102-16.007c-0.058-0.179,0.039-0.241,0.216-0.138c0.021,0.012,0.031,0.018,0.052,0.03
					c0.177,0.103,0.368,0.33,0.426,0.509c1.483,4.576,3.619,11.43,5.102,16.007C179.16,84.832,179.063,84.894,178.886,84.791z"/>
				<path fill="#CE3844" d="M180.187,85.542c-0.021-0.012-0.031-0.018-0.052-0.03c-0.178-0.103-0.369-0.331-0.427-0.51
					c-1.483-4.576-3.619-11.431-5.102-16.007c-0.058-0.179,0.039-0.241,0.217-0.138c0.021,0.012,0.031,0.018,0.052,0.03
					c0.178,0.102,0.369,0.331,0.426,0.509c1.483,4.576,3.619,11.431,5.102,16.007C180.461,85.583,180.365,85.645,180.187,85.542z"/>
			</g>
		</g>
		<g>
			<path fill="#C22C34" d="M185.889,85.396l-4.49-14.18c-0.005-0.016-0.645-1.835-2.343-2.797c-1.746-0.988-8.249-4.763-8.314-4.8
				c-0.298-0.16-0.81-0.342-0.944-0.214l-0.179-0.19c0.317-0.3,1.097,0.094,1.25,0.176c0.069,0.04,6.571,3.813,8.316,4.801
				c1.787,1.012,2.436,2.864,2.462,2.942l4.491,14.183L185.889,85.396z"/>
		</g>
		<polygon fill="#A6AABB" points="177.149,67.743 176.39,68.236 171.036,65.145 171.795,64.651 		"/>
		<g>
			<polygon fill="#251A29" points="169.606,59.092 170.134,58.801 169.366,58.349 			"/>
			<g>
				<path fill="#423746" d="M169.894,58.057c-0.224-0.129-0.335-0.193-0.56-0.323c0.081,0.248,0.161,0.496,0.241,0.744
					c0.224,0.129,0.336,0.193,0.56,0.323C170.054,58.553,169.974,58.305,169.894,58.057z"/>
				<path fill="#423746" d="M173.543,60.164c0.224,0.129,0.335,0.193,0.56,0.323c0.08,0.248,0.161,0.495,0.241,0.743
					c-0.224-0.129-0.336-0.194-0.56-0.323C173.704,60.66,173.623,60.412,173.543,60.164z"/>
			</g>
		</g>
		
			<linearGradient id="SVGID_4_" gradientUnits="userSpaceOnUse" x1="4918.7671" y1="620.0293" x2="4919.6392" y2="620.0293" gradientTransform="matrix(-0.944 -0.073 0.3212 0.9053 4619.4136 -138.2153)">
			<stop  offset="0.02" style="stop-color:#251A29"/>
			<stop  offset="0.3088" style="stop-color:#251A29"/>
			<stop  offset="0.3578" style="stop-color:#312536"/>
			<stop  offset="0.4022" style="stop-color:#35293B"/>
			<stop  offset="0.4607" style="stop-color:#392D3E"/>
			<stop  offset="0.5111" style="stop-color:#423746"/>
			<stop  offset="0.9269" style="stop-color:#423746"/>
		</linearGradient>
		<path fill="url(#SVGID_4_)" d="M173.189,60.125c0.327,0.131,0.714,0.889,1.04,1.021c0.459,1.417,1.768,5.131,2.228,6.549v0.001
			c0.001,0.003,0.001,0.005,0.002,0.007h-0.001c0.002,0.012,0,0.023-0.012,0.031l-0.159,0.103c-0.028,0.019-0.09,0.011-0.139-0.018
			l-0.405-0.233c-0.024-0.015-0.041-0.031-0.047-0.047h0C175.236,66.119,173.649,61.545,173.189,60.125z"/>
		
			<linearGradient id="SVGID_5_" gradientUnits="userSpaceOnUse" x1="4922.1431" y1="617.8301" x2="4923.0327" y2="617.8301" gradientTransform="matrix(-0.944 -0.073 0.3212 0.9053 4619.4136 -138.2153)">
			<stop  offset="0.02" style="stop-color:#251A29"/>
			<stop  offset="0.3088" style="stop-color:#251A29"/>
			<stop  offset="0.3578" style="stop-color:#312536"/>
			<stop  offset="0.4022" style="stop-color:#35293B"/>
			<stop  offset="0.4607" style="stop-color:#392D3E"/>
			<stop  offset="0.5111" style="stop-color:#423746"/>
			<stop  offset="0.9269" style="stop-color:#423746"/>
		</linearGradient>
		<path fill="url(#SVGID_5_)" d="M169.286,57.91c0.326,0.131,0.534,0.334,0.861,0.465c0.459,1.417,1.934,5.646,2.393,7.062l-0.001,0
			c0.005,0.014,0.003,0.027-0.011,0.036l-0.158,0.103c-0.028,0.018-0.091,0.01-0.139-0.018l-0.405-0.234
			c-0.026-0.015-0.042-0.033-0.047-0.049c0,0-0.001,0-0.001,0C171.318,63.858,169.745,59.326,169.286,57.91z"/>
		<polygon fill="#342838" points="184.976,87.807 185.114,87.691 185.29,87.586 185.65,88.699 185.172,89.268 185.403,88.584 		"/>
		<polygon fill="#342838" points="189.468,85.637 189.088,85.433 189.213,85.25 189.192,84.992 188.957,84.265 190.054,83.68 
			190.344,84.573 189.804,85.493 		"/>
	</g>
	<g>
		<g>
			<path fill="#FEBFBF" d="M154.823,33.584c-0.259,1.058-0.171,6.956-0.388,7.859s2.373-1.654,2.428-5.84
				c0.035-2.611,2.536-4.525,2.05-4.666C156.834,30.334,155.337,31.48,154.823,33.584z"/>
			<path fill="#FEBFBF" d="M154.003,57.431c0,0,0.206,0.184,0.207,0.367c0,0.004,0,0.008,0,0.012
				c-0.004,0.101-0.123,0.166-0.219,0.217c-0.064,0.034-0.117,0.061-0.124,0.088c-0.003,0.009,0,0.016,0.006,0.024
				c0.001,0.001,0.003,0.003,0.002,0.006l0.005,0.015c0.012,0.109-0.292,0.447-0.292,0.447l-0.152-0.054h-0.001l-0.328-0.114
				c0,0-0.13,0.284-0.342,0.253c-0.212-0.032-1.313-1.043-1.403-1.221s-0.083-1.679-0.04-2.05c0.043-0.371,0.697-1.436,1.146-2.427
				s0.876-5.742,1.057-7.777c0.181-2.035,0.911-3.625,0.912-3.774c0.001-0.151,0.407-0.264,0.407-0.264s1.163,0.001,1.33,0.836
				c0.166,0.835-1.597,9.234-1.597,9.234s-0.092,2.119-0.116,2.436c-0.024,0.317-0.609,1.704-0.609,1.704s-0.057,0.85-0.071,0.91
				c-0.014,0.062,0.415,0.563,0.503,0.893c0.052,0.2-0.061,0.246-0.159,0.25C154.061,57.445,154.003,57.431,154.003,57.431z"/>
			
				<linearGradient id="SVGID_6_" gradientUnits="userSpaceOnUse" x1="-428.3442" y1="56.6826" x2="-426.0991" y2="56.6826" gradientTransform="matrix(1 0 0 1 580.3091 0)">
				<stop  offset="0.1224" style="stop-color:#FCA4B5"/>
				<stop  offset="0.9896" style="stop-color:#FFADB7"/>
			</linearGradient>
			<path fill="url(#SVGID_6_)" d="M153.922,57.997l0.069,0.03c-0.064,0.034-0.117,0.061-0.124,0.088l-0.011-0.033l-0.691-0.442
				l-0.439-0.691l-0.136,0.681l0.404,0.455l0.441,0.47l-0.328-0.114c0.025-0.046-0.445-0.376-0.524-0.414s-0.292-0.21-0.309-0.305
				c-0.017-0.095-0.243-0.445-0.243-0.445s0.044-0.478,0.02-0.74c-0.025-0.263-0.085-0.78-0.085-0.78s0,0,0.069-0.038
				c0.07-0.039,0.269-0.636,0.26-0.712l0.959-0.194l-0.124,0.829c0,0,0.093,0.317,0.152,0.491c0.059,0.174,0.3,0.731,0.3,0.731
				l0.203,0.32l0.34,0.259c-0.063,0.004-0.12-0.011-0.12-0.011s0.206,0.184,0.207,0.367l-0.359-0.31l-0.478-0.52l-0.246-0.761
				l-0.245,0.176l0.068,0.545l0.275,0.589l0.264,0.124L153.922,57.997z"/>
			
				<linearGradient id="SVGID_7_" gradientUnits="userSpaceOnUse" x1="-426.7231" y1="51.6172" x2="-425.4863" y2="51.6172" gradientTransform="matrix(1 0 0 1 580.3091 0)">
				<stop  offset="0.1224" style="stop-color:#FCA4B5"/>
				<stop  offset="0.9896" style="stop-color:#FFADB7"/>
			</linearGradient>
			<path fill="url(#SVGID_7_)" d="M153.795,56.154c0,0-0.338-0.665-0.154-1.047s0.354-1.252,0.354-1.252l0.107-1.991
				c0,0,0.6-3.729,0.664-4.641c0.064-0.91,0.057,2.828,0.057,2.828l-0.363,3.634l-0.609,1.704L153.795,56.154z"/>
			
				<linearGradient id="SVGID_8_" gradientUnits="userSpaceOnUse" x1="-427.1245" y1="53.5166" x2="-427.7757" y2="56.3073" gradientTransform="matrix(1 0 0 1 580.3091 0)">
				<stop  offset="0.1224" style="stop-color:#FEC7C7"/>
				<stop  offset="1" style="stop-color:#FFDEDE"/>
			</linearGradient>
			<path fill="url(#SVGID_8_)" d="M153.843,54.045c0,0-0.026,0.702-0.304,1.022s-0.476,0.501-0.505,0.674
				c-0.029,0.173-0.052,0.689-0.001,1.132c0.051,0.441-0.211,0.94-0.432,0.924c-0.221-0.017-0.266-0.105-0.302-0.592
				c-0.036-0.487-0.157-1.28-0.113-1.498s-0.18-0.93-0.061-1.158c0.119-0.227,0.597-1.146,0.975-1.203
				C153.476,53.288,153.848,53.202,153.843,54.045z"/>
		</g>
		<g>
			<g>
				<path fill="#D7E4F2" d="M150.748,89.758c4.191,2.667,11.182,2.956,15.615,0.646c4.433-2.31,4.628-6.345,0.438-9.012
					c-4.191-2.667-11.182-2.956-15.615-0.646C146.753,83.056,146.557,87.091,150.748,89.758z"/>
			</g>
			<g>
				<g>
					<path fill="#6C6B79" d="M152.639,84.018c0,0-0.209,0.106-0.22,0.262c-0.011,0.156-0.017,0.584-0.016,0.686
						c0.001,0.101,0.266,0.493,0.917,0.645c0.65,0.151,2.232-0.268,2.765-0.578c0.533-0.312,1.26-1.103,1.481-1.163
						c0.221-0.061,0.881,0.062,0.881,0.062l0.596-0.05l0.98-0.348c0,0,0.128-0.657-0.141-0.865
						C159.612,82.461,152.639,84.018,152.639,84.018z"/>
					<path fill="#C2D2EA" d="M156.326,81.35c0,0-0.775,0.49-0.912,0.629c-0.138,0.139-1.537,0.707-2.022,1.002
						c-0.485,0.296-0.85,0.802-0.882,0.968c-0.032,0.166-0.105,0.545-0.049,0.703c0.056,0.159,0.309,0.58,1.146,0.632
						s2.542-0.744,2.542-0.744s1.181-0.806,1.354-0.888s1.715-0.472,1.95-0.549s0.369-0.111,0.403-0.299
						c0.035-0.188,0.232-1.217,0.108-1.542C159.84,80.937,157.01,80.516,156.326,81.35z"/>
				</g>
				<g>
					<path fill="#6C6B79" d="M158.209,86.631c0,0-0.229,0.004-0.284,0.31c-0.055,0.305-0.047,0.668-0.047,0.668
						s0.286,0.437,1.244,0.557c0.959,0.121,2.132-0.233,2.733-0.574c0.602-0.34,0.817-0.617,1.18-1.121
						c0.362-0.503,0.737-0.744,0.737-0.744l0.153,0.041c0,0,0.86-0.625,1.001-0.841c0.073-0.182,0.127-1.106-0.005-1.19
						C164.79,83.652,158.209,86.631,158.209,86.631z"/>
					<path fill="#C2D2EA" d="M160.839,83.179l-0.267,0.637c0,0-1.567,1.521-1.992,1.976c-0.424,0.454-0.644,0.851-0.662,1.263
						c-0.019,0.412,1.05,0.678,1.21,0.689c0.161,0.011,0.871,0.081,1.781-0.258s1.286-0.665,2.017-1.46
						c0.73-0.794,1.225-1.232,1.449-1.414s0.55-0.471,0.546-0.706c-0.003-0.235,0.033-0.895-0.159-0.977
						C164.569,82.847,161.453,82.594,160.839,83.179z"/>
				</g>
				<path fill="#4F5997" d="M159.731,80.759c0,0-0.21,0.39-0.698,0.604c-0.499,0.221-1.286,0.258-2.436-0.489
					c0,0-0.273-14.333-1.069-18.535l3.427,6.044l1.438,0.052l0.002,0c0,0,0.593,4.609,0.237,7.029
					C160.273,77.886,159.731,80.759,159.731,80.759z"/>
				<path fill="#4F5997" d="M160.458,68.276c-0.018,0.055-0.038,0.108-0.063,0.16l-0.002,0c-0.212,0.449-0.673,0.716-1.203,0.833
					c-1.047,0.233-2.363-0.121-2.591-0.822c-0.015-0.043-0.029-0.095-0.047-0.152c-0.414-1.374-1.293-7.154-1.849-11.45
					c-0.578-4.478,0.539-6.614,0.539-6.614l5.467,0.993c0,0,0.047,2.639,0.065,5.803C160.796,61.362,160.735,67.402,160.458,68.276z
					"/>
				<path fill="#A8B0C2" d="M159.731,80.759c0,0-0.21,0.39-0.698,0.604c0.368-2.397,0.967-6.495,0.866-7.338
					c-0.065-0.567-0.208-3.341-0.362-4.677c-1.048-9.068-0.924-11.881-0.924-11.881l-1.167-1.778l3.327,1.338
					c0.022,4.335-0.039,10.375-0.316,11.249c-0.018,0.055-0.038,0.108-0.063,0.16c0,0,0.593,4.609,0.237,7.029
					C160.273,77.886,159.731,80.759,159.731,80.759z"/>
				<path fill="#4F5997" d="M157.33,53.072l-0.764,0.896c0,0-0.066,1.106,2.376,2.944c0.015,2.592,0.975,10.877,1.78,12.852
					c0.805,1.975,3.295,0.441,3.716-1.853c0.421-2.294,2.294-9.487,2.456-11.257c0.161-1.77,0.301-3.57-0.925-4.613
					S157.33,53.072,157.33,53.072z"/>
				<path fill="#4F5997" d="M161.274,82.855c0.458-1.605,0.104-10.547-0.552-13.093c3.383-1.968,3.815-2.351,3.815-2.351
					s1.234,6.549,1.187,7.849c-0.048,1.3-1.095,7.64-1.095,7.64S162.931,84.522,161.274,82.855z"/>
				<g>
					<path fill="#8C92B0" d="M163.889,83.776l-0.24-0.053c0.012-0.051,1.138-5.168,1.148-7.74c0.008-1.971-0.475-4.407-0.828-6.186
						c-0.165-0.829-0.294-1.483-0.325-1.853c-0.031-0.366,0.224-1.459,0.575-2.974c0.78-3.357,1.958-8.432,1.121-10.251l0.223-0.103
						c0.873,1.896-0.317,7.02-1.104,10.41c-0.334,1.437-0.597,2.571-0.571,2.897c0.03,0.356,0.159,1.005,0.321,1.826
						c0.355,1.789,0.841,4.238,0.833,6.234C165.033,78.582,163.9,83.724,163.889,83.776z"/>
				</g>
			</g>
			<g>
				<path fill="#6A3646" d="M163.448,22.585c0,0,1.223-0.638,1.987,0.027s0.449,3.536-0.329,5.224
					c-0.697,1.516-0.344,4.201,1.373,4.761c-1.204,0.903-3.915-0.1-4.291-1.757S163.448,22.585,163.448,22.585z"/>
				<path fill="#DDE8F6" d="M166.192,52.118c-0.142,0.149-0.518,0.351-1.046,0.546c-1.26,0.463-3.392,0.896-5.331,0.538
					c-2.751-0.509-4.47-1.833-4.756-2.903c0.046-0.463-0.002-5.174-0.089-6.26c-0.089-1.087-0.877-3.069-0.89-3.844
					c-0.013-0.773,0.51-2.387,0.744-3.234c0.447-1.62,1.258-4.095,1.462-4.449c0.326-0.563,0.796-1.298,1.44-1.466
					c0.646-0.17,4.415-0.281,5.157,0.01c0.745,0.291,1.419,0.976,2.281,1.434c2.604,1.385,2.855,2.918,2.855,2.918
					s-0.906,2.326-1.183,4.12c-0.069,0.448-0.123,0.83-0.153,1.09c-0.15,1.295-0.101,8.323-0.101,8.323
					S166.674,51.61,166.192,52.118z"/>
				<path fill="#FEBFBF" d="M162.946,30.937c0.138,0.006,0.496,0.535,1.113,0.839c0.616,0.304,0.634,0.387-0.107,1.067
					c-0.742,0.68-3.381,3.715-5.062,3.358c-1.68-0.357-1.597-1.993-1.531-2.646c0.065-0.653,1.064-2.143,1.388-2.285
					S162.946,30.937,162.946,30.937z"/>
				
					<linearGradient id="SVGID_9_" gradientUnits="userSpaceOnUse" x1="852.228" y1="143.9834" x2="849.2195" y2="139.8984" gradientTransform="matrix(0.995 0.1 -0.1 0.995 -670.6086 -195.8364)">
					<stop  offset="0.1224" style="stop-color:#FEC7C7"/>
					<stop  offset="0.9694" style="stop-color:#FFADB7"/>
				</linearGradient>
				<path fill="url(#SVGID_9_)" d="M158.32,30.701c0,0,0.294,0.689,0.231,1.316s-0.41,1.67-0.41,1.67s0.384,0.739,1.917,0.57
					c1.532-0.169,1.585-0.703,2.071-0.977c0.485-0.275,1.735-1.534,1.656-1.623s-1.349-0.721-0.861-2.541
					c0.488-1.821,1.208-2.763,1.208-2.763s0.425-0.765-0.106-0.818C163.494,25.481,158.32,30.701,158.32,30.701z"/>
				
					<linearGradient id="SVGID_10_" gradientUnits="userSpaceOnUse" x1="847.4165" y1="143.0815" x2="850.8931" y2="143.0815" gradientTransform="matrix(0.995 0.1 -0.1 0.995 -670.6086 -195.8364)">
					<stop  offset="0.1224" style="stop-color:#FCA4B5"/>
					<stop  offset="0.9896" style="stop-color:#FFADB7"/>
				</linearGradient>
				<path fill="url(#SVGID_10_)" d="M161.901,29.83c0,0-1.307,1.221-1.583,1.839c-0.276,0.619-1.546,1.461-1.546,1.461l-0.213-1.372
					l-0.238-1.058L161.901,29.83z"/>
				<path fill="#DDE8F6" d="M166.192,52.118c-0.142,0.149-0.518,0.351-1.046,0.546c0.022-0.136,0.05-0.284,0.083-0.444
					c0.845-4.119,0.593-3.403,0.474-5.071c-0.121-1.669-0.612-3.208-1.176-3.126c-0.564,0.081-1.289,0.129-2.179-0.299
					c0.727,0.275,1.635,0.179,2.234-0.25c0.6-0.429,0.373-3.713,0.373-3.713c0.76-0.351,1.379-0.4,1.882-0.233
					c-0.069,0.448-0.123,0.83-0.153,1.09c-0.15,1.295-0.101,8.323-0.101,8.323S166.674,51.61,166.192,52.118z"/>
			</g>
			<g>
				<path fill="#FEC7C7" d="M157.958,22.231c0,0-0.556,0.443-0.919,1.376c-0.363,0.933-0.618,1.729-0.595,1.894
					c0.024,0.164,0.164,0.515-0.051,1.181c-0.215,0.665,0.461,3.993,1.182,4.322c0.721,0.328,4.054-0.792,4.425-1.267
					c0.371-0.475,1.319-2.4,1.436-3.696c0.116-1.295,0.497-2.806-1.378-3.587S157.958,22.231,157.958,22.231z"/>
				<g>
					
						<linearGradient id="SVGID_11_" gradientUnits="userSpaceOnUse" x1="846.1216" y1="139.0337" x2="845.5054" y2="139.1039" gradientTransform="matrix(0.995 0.1 -0.1 0.995 -670.6086 -195.8364)">
						<stop  offset="0.1224" style="stop-color:#FEC7C7"/>
						<stop  offset="0.9896" style="stop-color:#FFDBDB"/>
					</linearGradient>
					<path fill="url(#SVGID_11_)" d="M157.527,25.856c0.071,0.366-0.879,1.866-0.922,2.2c-0.042,0.335,0.898,0.313,0.898,0.313
						L157.527,25.856z"/>
					
						<linearGradient id="SVGID_12_" gradientUnits="userSpaceOnUse" x1="845.396" y1="139.0459" x2="846.3774" y2="139.0459" gradientTransform="matrix(0.995 0.1 -0.1 0.995 -670.6086 -195.8364)">
						<stop  offset="0.188" style="stop-color:#FFDCDC"/>
						<stop  offset="0.8991" style="stop-color:#FEC7C7"/>
					</linearGradient>
					<path fill="url(#SVGID_12_)" d="M157.322,28.416c-0.222-0.009-0.578-0.048-0.712-0.197c-0.044-0.049-0.063-0.106-0.055-0.168
						c0.019-0.147,0.19-0.481,0.388-0.868c0.255-0.499,0.574-1.118,0.535-1.316l0.098-0.019c0.044,0.231-0.255,0.816-0.544,1.381
						c-0.186,0.362-0.361,0.704-0.377,0.835c-0.005,0.033,0.004,0.062,0.029,0.089c0.134,0.15,0.637,0.171,0.818,0.167l0.002,0.099
						C157.483,28.419,157.415,28.42,157.322,28.416z"/>
				</g>
				<g>
					<path fill="#754554" d="M160.262,26.208l-0.412-0.139c-0.999-0.231-1.514-0.116-1.519-0.115l-0.039-0.161
						c0.021-0.005,0.552-0.127,1.603,0.117l0.42,0.141L160.262,26.208z"/>
				</g>
				<g>
					<path fill="#754554" d="M157.245,25.642c-0.231-0.16-0.62-0.372-0.741-0.345l-0.035-0.163c0.239-0.049,0.768,0.301,0.87,0.372
						L157.245,25.642z"/>
				</g>
				
					<ellipse transform="matrix(0.9598 0.2805 -0.2805 0.9598 13.8666 -43.5938)" fill="#FFFFFF" cx="159.207" cy="26.639" rx="0.349" ry="0.298"/>
				
					<ellipse transform="matrix(0.6996 -0.7145 0.7145 0.6996 28.4406 120.0744)" fill="#FFFFFF" cx="157.023" cy="26.213" rx="0.245" ry="0.282"/>
				<path fill="#FB7F9E" d="M158.57,29.554c0,0-0.957-0.332-1.342-0.384c-0.386-0.052-0.413,0.08-0.385,0.211
					C156.87,29.511,157.468,30.46,158.57,29.554z"/>
				<path fill="#754554" d="M163.912,26.539c0,0-0.304-0.394-0.533-0.261c-0.229,0.133-0.658,0.312-0.676,0.492
					s-0.184,1.154-0.184,1.154s-0.412-0.722-0.34-1.442s-0.15-1.726-0.442-2.173c-0.292-0.447-0.586-1.137-1.276-1.247
					c-0.689-0.109-1.646,0.023-2.208-0.02s-0.791-0.243-0.791-0.243l-0.506,1.021c0,0,0.031-0.511,0.344-1.081
					c0.313-0.57,2.595-3.169,5.796-1.366c2.351,1.139,2.196,3.751,1.832,4.697c-0.364,0.947-1.472,1.787-1.585,2.077
					c-0.113,0.291-0.418,0.699-0.418,0.969c0,0.269,0.133-1.011,0.361-1.554C163.513,27.02,163.912,26.539,163.912,26.539z"/>
				
					<linearGradient id="SVGID_13_" gradientUnits="userSpaceOnUse" x1="851.3481" y1="138.8242" x2="852.9458" y2="138.8242" gradientTransform="matrix(0.995 0.1 -0.1 0.995 -670.6086 -195.8364)">
					<stop  offset="0.1224" style="stop-color:#FEB9B8"/>
					<stop  offset="1" style="stop-color:#FFDEDE"/>
				</linearGradient>
				<path fill="url(#SVGID_13_)" d="M163.055,26.751c0,0,0.824-0.826,1.123-0.177c0.298,0.65-0.361,1.385-0.788,1.74
					c-0.426,0.354-0.739,0.451-0.861,0.257c-0.122-0.194,0.199-0.903,0.199-0.903L163.055,26.751z"/>
				<circle fill="#EFF0F5" cx="162.663" cy="28.534" r="0.167"/>
				
					<linearGradient id="SVGID_14_" gradientUnits="userSpaceOnUse" x1="851.606" y1="138.7168" x2="852.7134" y2="138.7168" gradientTransform="matrix(0.995 0.1 -0.1 0.995 -670.6086 -195.8364)">
					<stop  offset="0.1224" style="stop-color:#FCA4B5"/>
					<stop  offset="0.9896" style="stop-color:#FFADB7"/>
				</linearGradient>
				<path fill="url(#SVGID_14_)" d="M163.175,26.764c0,0,0.526-0.473,0.745-0.107c0.219,0.365,0.033,1.007-0.522,1.544
					c-0.535,0.195-0.613-0.034-0.606-0.102c0.006-0.066,0.211-0.363,0.238-0.626C163.056,27.209,163.175,26.764,163.175,26.764z"/>
			</g>
		</g>
		<g>
			<path fill="#FEBFBF" d="M173.162,59.852c-0.044,0.292-0.499,0.61-0.499,0.61l-0.491-0.019l-0.202-0.007l-0.707-0.379
				l-0.607,0.115c0,0-0.25-0.076-0.271-0.218c-0.002-0.019,0.001-0.046,0.011-0.079c0.062-0.213,0.345-0.668,0.345-0.668
				s-0.05-0.055-0.104-0.154c-0.052-0.091-0.104-0.222-0.122-0.382c-0.036-0.33-0.843-1.412-1.026-1.753
				c-0.183-0.34-0.138-0.725-0.168-1.425c-0.03-0.698-2.685-7.073-2.74-8.987c-0.056-1.913,2.814-1.453,3.188-0.616
				c0.377,0.836,0.688,2.82,0.876,4.679c0.187,1.858,0.824,4.994,0.974,5.382c0.149,0.39,1.617,1.813,1.589,2.05
				C173.182,58.24,173.205,59.56,173.162,59.852z"/>
			<g>
				<path fill="#3B3040" d="M169.366,58.349c-0.224-0.129-0.336-0.194-0.56-0.323c0.08,0.248,0.16,0.496,0.241,0.743
					c0.224,0.129,0.335,0.194,0.56,0.323C169.526,58.844,169.446,58.596,169.366,58.349z"/>
			</g>
			
				<linearGradient id="SVGID_15_" gradientUnits="userSpaceOnUse" x1="4919.4517" y1="617.3848" x2="4922.269" y2="612.5053" gradientTransform="matrix(-0.944 -0.073 0.3212 0.9053 4619.4136 -138.2153)">
				<stop  offset="0.02" style="stop-color:#251A29"/>
				<stop  offset="0.0769" style="stop-color:#251A29"/>
				<stop  offset="0.0892" style="stop-color:#312536"/>
				<stop  offset="0.1004" style="stop-color:#35293B"/>
				<stop  offset="0.126" style="stop-color:#35293B"/>
				<stop  offset="0.1302" style="stop-color:#35293B"/>
				<stop  offset="0.1653" style="stop-color:#392D3E"/>
				<stop  offset="0.1955" style="stop-color:#423746"/>
				<stop  offset="0.8758" style="stop-color:#423746"/>
				<stop  offset="0.988" style="stop-color:#423746"/>
			</linearGradient>
			<path fill="url(#SVGID_15_)" d="M168.461,57.591l0.528-0.291c0.001-0.001,0.003-0.002,0.004-0.002l0.002-0.001v0
				c0.017-0.013,0.044-0.019,0.087-0.01c0.604,0.114,1.659,0.774,2.441,1.224c0.786,0.455,1.799,0.99,2.589,1.68
				c0.249,0.217,0.262,0.367,0.251,0.447c-0.022,0.18,0.043,0.589-0.021,0.592l-0.528,0.291l-0.538-1.177l-3.228-1.864
				c-0.086,0.101-0.402,0.069-0.476-0.003c-0.05-0.05-0.137-0.211-0.232-0.395L168.461,57.591z"/>
			<path fill="#3B3040" d="M173.015,60.455c0.224,0.129,0.335,0.194,0.56,0.323c0.08,0.248,0.16,0.496,0.241,0.743
				c-0.224-0.129-0.336-0.194-0.56-0.323C173.175,60.951,173.095,60.703,173.015,60.455z"/>
			<path fill="#3B3040" d="M168.555,57.578c0.604,0.114,1.659,0.773,2.441,1.224c0.786,0.455,1.798,0.99,2.589,1.68
				c0.249,0.217,0.261,0.366,0.251,0.447c-0.022,0.18,0.043,0.589-0.021,0.592c-0.053,0.002-0.542-0.451-0.733-0.726
				c-0.363-0.52-1.435-1.072-1.869-1.322c-0.434-0.251-1.568-0.97-1.674-0.723c-0.055,0.128-0.415,0.096-0.493,0.018
				c-0.097-0.096-0.328-0.601-0.503-0.895C168.465,57.742,168.365,57.542,168.555,57.578z"/>
			<path fill="#FEC7C7" d="M172.172,60.443l-0.202-0.007l-0.707-0.379l-0.607,0.115c0,0-0.25-0.076-0.271-0.218l0.011-0.079
				l0.045-0.322l-0.253-0.216l0.179-0.267l0.271-0.018l0.142-0.25c0,0,0.315,0,0.413,0.122c0.098,0.123,0.304,0.647,0.304,0.647
				l0.241,0.084l0.19,0.193l0.192,0.313L172.172,60.443z"/>
			
				<linearGradient id="SVGID_16_" gradientUnits="userSpaceOnUse" x1="-409.8848" y1="59.6045" x2="-408.5718" y2="59.6045" gradientTransform="matrix(1 0 0 1 580.3091 0)">
				<stop  offset="0.1224" style="stop-color:#FCA4B5"/>
				<stop  offset="0.9896" style="stop-color:#FFADB7"/>
			</linearGradient>
			<path fill="url(#SVGID_16_)" d="M171.604,59.697c0,0-0.313-0.026-0.371,0.074c-0.058,0.1-0.063,0.22-0.063,0.22l-0.011,0.086
				l-0.401,0.077c0,0,0.158-0.127,0.167-0.209c0.01-0.083-0.117-0.223-0.117-0.223l-0.383-0.044l0.224-0.144l-0.117-0.471
				l0.107-0.008l0.21,0.508l0.19,0.283l0.172-0.212l0.36-0.033l0.167,0.058L171.604,59.697z"/>
			
				<linearGradient id="SVGID_17_" gradientUnits="userSpaceOnUse" x1="-409.9722" y1="58.0596" x2="-407.4424" y2="58.0596" gradientTransform="matrix(1 0 0 1 580.3091 0)">
				<stop  offset="0.1224" style="stop-color:#FCA4B5"/>
				<stop  offset="0.9896" style="stop-color:#FFADB7"/>
			</linearGradient>
			<path fill="url(#SVGID_17_)" d="M170.337,56.996c0,0-0.002,0.412,0.056,0.585c0.058,0.174,0.438,0.497,0.438,0.497l0.274,0.396
				l-0.096,0.228l0.333-0.201l0.559,0.305l0.742,0.317l0.012-0.579l0.212-0.383l-0.284-0.534l-0.412-0.187L170.337,56.996z"/>
			<path fill="#FEC7C7" d="M169.214,46.249c0,0,0.358-0.098,0.253-0.69c-0.104-0.592-0.804-3.196-0.787-4.938
				c0.017-1.742-0.105-4.205-0.911-5.895c-0.805-1.689-1.672-0.937-2.065-0.426c-0.393,0.511-1.142,1.203-0.902,4.57
				c0.239,3.367,1.266,8.057,1.808,7.968C167.152,46.751,168.659,46.605,169.214,46.249z"/>
			
				<linearGradient id="SVGID_18_" gradientUnits="userSpaceOnUse" x1="-409.9795" y1="58.5615" x2="-407.2983" y2="58.5615" gradientTransform="matrix(1 0 0 1 580.3091 0)">
				<stop  offset="0.1224" style="stop-color:#FEB9B8"/>
				<stop  offset="1" style="stop-color:#FFDEDE"/>
			</linearGradient>
			<path fill="url(#SVGID_18_)" d="M172.607,58.321c0,0,0.29,1.333,0.287,1.443c-0.003,0.111-0.092,0.314-0.036,0.386
				c0.057,0.071,0.271,0.542,0.066,0.629c-0.205,0.088-0.389-0.008-0.528-0.163c-0.14-0.156-0.379-0.564-0.353-0.793
				c0.026-0.229-0.094-0.948-0.333-1.207c-0.239-0.26-0.895-0.679-1.137-1.069c-0.243-0.39-0.346-0.699-0.111-1.042
				c0.235-0.344,0.909-0.164,1.147,0.021s0.816,0.559,0.912,0.774C172.617,57.516,172.607,58.321,172.607,58.321z"/>
		</g>
	</g>
</g>
</svg>
