<?xml version="1.0" encoding="utf-8"?>
<!-- Generator: Adobe Illustrator 16.0.0, SVG Export Plug-In . SVG Version: 6.00 Build 0)  -->
<!DOCTYPE svg PUBLIC "-//W3C//DTD SVG 1.1//EN" "http://www.w3.org/Graphics/SVG/1.1/DTD/svg11.dtd">
<svg version="1.1" id="Layer_1" xmlns="http://www.w3.org/2000/svg" xmlns:xlink="http://www.w3.org/1999/xlink" x="0px" y="0px"
	 width="463.683px" height="425.749px" viewBox="0 0 463.683 425.749" enable-background="new 0 0 463.683 425.749"
	 xml:space="preserve">
<g>
	<path fill="#D7E4F2" d="M335.886,130.959c4.161,2.402,10.928,2.391,15.114-0.027c4.188-2.417,4.208-6.324,0.048-8.726
		c-4.16-2.402-10.928-2.39-15.114,0.027C331.748,124.65,331.726,128.558,335.886,130.959z"/>
	<path fill="#773952" d="M340.467,120.75l-0.337,2.4c0,0,3.742-0.907,3.807-1.582c0.064-0.675-0.078-2.185-0.078-2.185
		L340.467,120.75z"/>
	<path fill="#EBE1D5" d="M335.365,125.502c0.067,0.09,0.563,0.442,1.345,0.486c0.359,0.021,0.778-0.026,1.246-0.193
		c1.476-0.527,2.007-1.025,2.991-1.262c0.987-0.236,2.92-0.622,3.177-1.157c0.254-0.535-0.016-2.02-0.016-2.02
		s-0.309-0.121-0.435,0.098c-0.123,0.218-0.699,0.837-1.359,1.048c-0.468,0.149-1.01,0.11-1.287,0.075
		c-0.118-0.013-0.19-0.028-0.19-0.028s0.093-0.62,0.025-0.83c-0.063-0.21-0.731-0.604-0.731-0.604l-1.597,1.406
		c0,0-2.947,1.707-3.037,1.935C335.406,124.683,335.27,125.374,335.365,125.502z"/>
	<path fill="#FF6647" d="M336.794,97.479l0.629,12.952l0.013,0.268l0.019,0.095l1.449,8.628c0.031,0.755,0.139,1.462,0.35,2.079
		c0.231,0.679,0.622,1.254,1.843,1.249c0.55-0.002,1.27-0.123,2.22-0.406c1.684-0.501,1.507-1.617,1.507-1.617l-1.159-10.524
		l0.051-9.537c0.229-0.55,0.565-2.23,0.705-4.04c0.189-2.485,0.01-5.212-1.337-5.607c-2.49-0.73-4.847,0.75-4.847,0.75
		s-0.987,0.995-0.936,5.698L336.794,97.479z"/>
	<path fill="#E3C3C3" d="M341.096,122.75c0.55-0.002,1.27-0.123,2.22-0.406c1.684-0.501,1.507-1.617,1.507-1.617l-1.159-10.524
		l0.051-9.537c0.229-0.55-1.844-4.725-3.289-4.25c0.225,2.471,1.159,2.135,1.553,3.16c0.676,1.771-0.781,2.38-0.836,6.808
		c-0.054,4.428,1.725,10.992,1.933,13.001C343.224,120.814,341.88,122.12,341.096,122.75z"/>
	<g>
		<path fill="#DE4504" d="M343.063,122.388c-0.013-0.074-1.28-7.416-1.692-10.743c-0.413-3.346,0.278-13.043,0.309-13.454
			l0.513,0.037c-0.008,0.1-0.719,10.058-0.311,13.354c0.41,3.314,1.675,10.644,1.688,10.718L343.063,122.388z"/>
	</g>
	<path fill="#8E8E8E" d="M335.366,125.502c0.096,0.129,1.113,0.821,2.589,0.293s2.008-1.026,2.993-1.263s2.92-0.622,3.175-1.156
		c0.071-0.15,0.101-0.374,0.107-0.62c0.01,0.339-0.012,0.987-0.107,1.187c-0.255,0.534-2.189,0.604-3.175,0.84
		s-1.518,1.051-2.993,1.579c-1.476,0.527-2.493-0.164-2.589-0.294c-0.035-0.048-0.039-0.489-0.024-0.638
		C335.346,125.462,335.354,125.486,335.366,125.502z"/>
	<path fill="#773952" d="M346.646,123.2l-0.294,2.4c0,0,3.259-0.906,3.315-1.581c0.056-0.675-0.068-2.185-0.068-2.185L346.646,123.2
		z"/>
	<path fill="#EBE1D5" d="M346.005,124.429c0,0,0.209-0.478,0.7-0.5c0.492-0.022,1.017,0.199,1.105,0.408
		c0.088,0.208,0.079,0.511,0.079,0.511s1.313-0.372,1.411-0.668c0.098-0.296-0.004-1.029-0.004-1.029s1.028-0.012,1.106,0.466
		c0.078,0.478,0.049,2.317,0.053,2.642c0.004,0.325-1.939,1.776-2.081,2.343s-1.232,2.004-2.948,2.174
		c-1.717,0.17-1.953-1.597-1.954-1.877c-0.002-0.279,2.185-2.784,2.204-3.099C345.696,125.484,345.991,124.496,346.005,124.429z"/>
	<path fill="#8E8E8E" d="M345.427,130.443c1.716-0.169,2.92-1.717,3.062-2.284s1.972-2.112,1.968-2.437
		c-0.001-0.118,0.002-0.397,0.002-0.727c0.001,0.421-0.004,1.118-0.002,1.262c0.004,0.325-1.939,1.776-2.081,2.343
		s-1.232,2.004-2.948,2.174c-1.418,0.14-1.982-1.079-1.965-1.623C343.482,129.724,344.181,130.565,345.427,130.443z"/>
	<g>
		<path fill="#FF785C" d="M331.533,92.687l1.74,0.565l1.483,0.48c0,0,1.385-1.727,1.724-2.377c0.63-1.205,1.781-5.143,1.781-5.143
			l1.388-10.267l0.2-1.48l0.394-1.293l-3.24-0.987l-0.45,1.496l-2.305,10.647c0,0-2.033,4.22-2.427,5.726
			C331.654,90.695,331.533,92.687,331.533,92.687z"/>
	</g>
	<path fill="#F5B6A4" d="M333.134,91.483c-0.008,0.71,0.041,1.296,0.139,1.769l1.483,0.48c0,0,1.385-1.727,1.724-2.377
		c0.63-1.205,1.781-5.143,1.781-5.143l1.388-10.267c-1.226-0.234-2.361-0.011-2.457,1.562c-0.213,3.523-1.071,7.101-0.712,7.582
		c0.36,0.483,0.797,1.737,0.697,2.956c-0.101,1.223-1.784,3.813-1.784,3.813s-0.236-0.182-0.938-0.375
		C333.753,91.291,333.134,91.483,333.134,91.483z"/>
	<path fill="#FF785C" d="M338.043,70.843c-1.161,0.981-1.493,2.497-0.741,3.386c0.751,0.889,1.825,0.522,2.985-0.459
		c1.161-0.98,2.238-2.647,1.487-3.536C341.023,69.345,339.205,69.862,338.043,70.843z"/>
	<path fill="#FF6647" d="M342.46,99.322c0.252,0.306,1.249,11.508,1.249,11.508l1.794,12.303l-0.002,0.018
		c0,0,0.005,0.023,0.013,0.054l0.002,0.008c0.088,0.332,0.599,1.994,2.167,1.781c0.4-0.054,0.824-0.146,1.213-0.27
		c0.512-0.162,0.961-0.373,1.21-0.612c0.422-0.409,1.049-1.115,0.943-2.395l-0.665-7.885l-1.003-4.813l1.987-10.131
		c0.49-1.742,0.438-3.983,0.349-5.302c-0.002-0.036-0.002-0.072-0.008-0.105c-0.007-0.103-0.015-0.2-0.021-0.29
		c-0.002-0.028-0.005-0.057-0.008-0.087c-0.01-0.111-0.021-0.208-0.027-0.293c-0.011-0.092-0.021-0.188-0.031-0.282
		c-0.003-0.013-0.005-0.026-0.005-0.041c0-0.005-0.003-0.011-0.003-0.016c0,0-10.729-5.941-11.372-2.18
		C338.863,98.382,341.257,97.873,342.46,99.322z"/>
	<g>
		<path fill="#FF9061" d="M345.462,95.497c-0.113,0-0.227-0.002-0.344-0.004c-5.372-0.114-7.407-1.944-7.465-3.146l0.753-0.035
			c0.034,0.716,1.775,2.322,6.729,2.428c4.828,0.103,6.179-2.097,6.192-2.12l0.651,0.378
			C351.919,93.103,350.471,95.497,345.462,95.497z"/>
	</g>
	<g>
		<path fill="#FF9061" d="M341.932,98.654c-0.085,0-0.175-0.022-0.263-0.066c-0.356-0.18-0.752-0.756-0.779-1.596
			c-0.014-0.422,0.012-2.109,0.034-2.314l0.511,0.057c-0.018,0.162-0.045,1.817-0.031,2.241c0.021,0.667,0.32,1.047,0.473,1.142
			c0.001-0.021,0-0.049-0.003-0.085c-0.052-0.474-0.151-3.263,0.162-3.479l0.126-0.087l0.143,0.069l-0.117,0.229l0.001,0.002
			l0.227,0.1c-0.06,0.207-0.152,1.986-0.031,3.112c0.038,0.354-0.089,0.523-0.203,0.602
			C342.107,98.629,342.023,98.654,341.932,98.654z"/>
	</g>
	<g>
		<path fill="#FF6647" d="M337.297,81.633c0.813,4.979,0.854,11.259,0.854,11.259c0.565,0.383,1.136,0.707,1.701,0.979
			c4.061,1.951,8.003,1.229,10.082,0.398l0.003-0.003c0.84-0.336,1.377-0.691,1.493-0.894c0.27-0.47,0.238-2.174,0.175-3.731
			c-0.044-1.012-0.101-1.963-0.101-2.472c0-0.345,0.233-1.257,0.521-2.452c0.789-3.279,1.973-8.185,0.371-10.366
			c-1.242-1.691-3.892-3.288-6.128-4.133c-2.901-1.098-5.053-0.381-6.263,0.015C337.869,70.935,336.486,76.652,337.297,81.633z"/>
		<g>
			<path fill="#FF9061" d="M349.351,124.432l-0.102-0.504l0.051,0.252l-0.062-0.249c0.017-0.005,1.642-0.578,0.191-7.443
				c-0.451-2.136-0.783-3.487-1.026-4.473c-0.5-2.03-0.576-2.341-0.33-4.243c0.128-0.999,0.47-2.179,0.866-3.545
				c0.704-2.432,1.58-5.459,1.744-9.121c0.13-2.899-0.083-4.722-0.253-6.185c-0.169-1.458-0.303-2.609-0.043-4.163l0.506,0.084
				c-0.247,1.482-0.117,2.602,0.048,4.019c0.173,1.482,0.387,3.327,0.255,6.268c-0.166,3.722-1.052,6.782-1.764,9.241
				c-0.39,1.346-0.727,2.508-0.85,3.468c-0.234,1.806-0.182,2.019,0.319,4.054c0.243,0.99,0.577,2.346,1.029,4.489
				c1.007,4.761,0.582,6.726,0.05,7.534C349.7,124.343,349.407,124.421,349.351,124.432z"/>
		</g>
		<g>
			<path fill="#FF9061" d="M341.267,94.682c-0.016-0.101-1.566-10.225,1.442-22.314l0.729,0.182
				c-2.972,11.943-1.443,21.915-1.428,22.015L341.267,94.682z"/>
		</g>
	</g>
	<path fill="#E3C3C3" d="M337.499,98.209c0,0,9.321-2.117,12.436-3.939l0.003-0.003c0.509-0.298,0.853-0.588,0.961-0.858
		c0.29-0.727,0.524-2.204,0.707-3.767c-0.044-1.012-0.101-1.963-0.101-2.472c0-0.345,0.233-1.257,0.521-2.452
		c0.019-0.313,0.028-0.493,0.028-0.493l-4.363-4.752c0,0-1.291,2.247-1.422,4.752c-0.131,2.506-3.642,5.474-3.642,5.474
		l-2.621,3.888l-0.154,0.285L337.499,98.209z"/>
	<path fill="#FF785C" d="M337.763,95.775l0.564,0.907c0.137,0.219,0.332,0.353,0.553,0.419c0.275,0.085,0.597,0.062,0.907-0.025
		c2.822-0.8,5.533-2.439,7.212-3.41c0.586-0.337,1.945-1.611,1.945-1.611l0.298-0.671c0,0,3.681-6.646,4.462-12.3
		c0,0,0.035-0.977,0.018-1.707V77.37c-0.005-0.169-0.013-0.326-0.023-0.453c-0.162-1.771-1.649-3.081-3.322-2.929
		c-1.521,0.139-2.668,1.444-2.742,3.012c-0.016,0.057-0.031,0.121-0.049,0.196l-0.771,5.582c-0.268,1.174-0.563,2.341-0.846,3.51
		l-0.948,2.668c-1.048,0.509-4.937,2.429-6.057,3.595c-0.247,0.258-0.666,0.759-0.997,1.116
		C337.431,94.241,337.344,95.105,337.763,95.775z"/>
	<g>
		<path fill="#FFA575" d="M339.436,96.643c-0.077,0-0.154-0.002-0.229-0.007l0.033-0.513c2.384,0.165,6.331-2.58,8.401-4.455
			c1.264-1.144,2.533-4.551,3.762-7.846c0.356-0.958,0.709-1.903,1.056-2.776c1.475-3.718,0.146-5.778,0.133-5.799
			c-0.017-0.028-0.49-0.853-2.44-2.07c-1.979-1.237-3.803-1.48-3.82-1.483c-1.692-0.402-6.193-1.413-7.083-1.328l-0.049-0.512
			c1.149-0.108,6.976,1.276,7.224,1.335c0.051,0.005,1.921,0.251,4.001,1.551c2.09,1.307,2.588,2.205,2.608,2.243
			c0.049,0.072,1.478,2.286-0.096,6.252c-0.346,0.871-0.696,1.813-1.052,2.766c-1.25,3.353-2.541,6.82-3.898,8.047
			C346.199,93.666,342.178,96.643,339.436,96.643z"/>
	</g>
	<path fill="#F5B6A4" d="M338.542,95.942l0.339,1.159c0.275,0.085,0.597,0.062,0.907-0.025c2.822-0.8,5.533-2.439,7.212-3.41
		c0.586-0.337,1.945-1.611,1.945-1.611l0.298-0.671c0,0,3.681-6.646,4.462-12.3c0,0,0.035-0.977,0.018-1.707
		c-0.216,1.948-0.599,3.721-1.624,6.268c-0.882,2.188-1.932,4.313-2.974,6.428c-0.234,0.477-0.362,0.934-0.66,1.383
		c-0.064,0.098-0.13,0.196-0.218,0.272c-0.769,0.669-1.565,1.332-2.445,1.856c-2.377,1.416-4.99,2.845-5.975,2.523
		c-0.984-0.321-1.244-0.992-1.244-0.992L338.542,95.942z"/>
	<g>
		<path id="XMLID_110_" fill="#FEBFBF" d="M334.618,93.675c-0.04,0.05-0.285,0.428-0.397,0.578c-0.111,0.152-0.52,0.516-0.592,0.849
			c-0.005,0.018-0.009,0.037-0.015,0.057c-0.084,0.323-0.297,0.72-0.458,0.974c-0.172,0.269-0.427,0.155-0.549,0.143
			c-0.123-0.011-0.39-0.207-0.509-0.173c-0.12,0.031-0.239-0.231-0.446-0.25c-0.209-0.017-0.248-0.28-0.471-0.274
			c-0.222,0.005-0.395-0.35-0.615-0.56c-0.222-0.211-0.164-0.249-0.337-0.659c-0.089-0.212-0.161-0.333-0.198-0.459
			c-0.037-0.117-0.042-0.24-0.006-0.446c0.074-0.423,1.19-1.7,1.202-1.714c0.119-0.135,0.532-0.044,0.693-0.068
			c0.271-0.041,0.549-0.132,0.823-0.064c0.241,0.06,0.513,0.137,0.708,0.284c0.148,0.112,0.301,0.22,0.454,0.326
			C334.479,92.632,334.657,93.625,334.618,93.675z"/>
		<path id="XMLID_109_" fill="#FEBFBF" d="M333.576,95.02c0.013,0.019,0.025,0.067,0.038,0.139c-0.084,0.323-0.297,0.72-0.458,0.974
			c-0.007,0.011-0.015,0.021-0.022,0.031c-0.17,0.229-0.41,0.123-0.526,0.112c-0.123-0.011-0.39-0.207-0.509-0.173
			c-0.12,0.031-0.239-0.231-0.446-0.25c-0.209-0.017-0.248-0.28-0.471-0.274c-0.222,0.005-0.395-0.35-0.615-0.56
			c-0.222-0.211-0.164-0.249-0.337-0.659c-0.089-0.212-0.161-0.333-0.199-0.458c0.002,0,0.002,0,0.001-0.001
			c0.038-0.095,0.08-0.198,0.127-0.298c0.177-0.388,0.407-0.751,0.605-0.561c0.024,0.021,0.049,0.052,0.071,0.091
			c0.039,0.066,0.076,0.161,0.111,0.285c0,0,0.462-0.342,0.768-0.03c0.306,0.309,0.593,0.285,0.644,0.354
			c0.053,0.069,0.312,0.352,0.312,0.352s0.106,0.127,0.312,0.248c0.205,0.124,0.159,0.333,0.159,0.333S333.523,94.939,333.576,95.02
			z"/>
		<path id="XMLID_108_" fill="#FEBFBF" d="M331.853,95.632c0.003,0.025,0.021,0.045,0.036,0.064
			c0.083,0.095,0.185,0.174,0.296,0.232c0.027,0.014,0.055,0.027,0.085,0.025c0.028-0.002,0.055-0.019,0.079-0.036
			c0.379-0.268,0.563-0.73,0.724-1.167c-0.046,0.326-0.208,0.624-0.393,0.896c-0.046,0.067-0.095,0.136-0.11,0.215
			c-0.016,0.094,0.021,0.193,0.092,0.255c0.073,0.061,0.178,0.08,0.267,0.047c0.038-0.014,0.072-0.035,0.112-0.034
			c0.033,0.001,0.063,0.02,0.093,0.034c-0.17,0.229-0.41,0.123-0.526,0.112c-0.123-0.011-0.39-0.207-0.509-0.173
			c-0.12,0.031-0.239-0.231-0.446-0.25c-0.209-0.017-0.248-0.28-0.471-0.274c-0.222,0.005-0.395-0.35-0.615-0.56
			c-0.222-0.211-0.164-0.249-0.337-0.659c-0.089-0.212-0.161-0.333-0.199-0.458c0.002,0,0.002,0,0.001-0.001
			c0.038-0.095,0.08-0.198,0.127-0.298c0.17-0.221,0.371-0.414,0.605-0.561c0.023-0.014,0.049-0.03,0.074-0.043
			c0.001,0.044,0.001,0.089-0.003,0.135c-0.011,0.217-0.063,0.434-0.153,0.633c-0.054,0.117-0.122,0.23-0.166,0.354
			c-0.036,0.099-0.071,0.247-0.026,0.351s0.164,0.214,0.239,0.302c0.039,0.045,0.083,0.091,0.14,0.107
			c0.09,0.024,0.182-0.031,0.255-0.088c0.356-0.283,0.623-0.675,0.755-1.108c-0.133,0.459-0.392,0.882-0.74,1.208
			c-0.017,0.016-0.037,0.035-0.039,0.06c-0.001,0.02,0.008,0.037,0.019,0.054c0.137,0.219,0.365,0.36,0.587,0.495
			c0.016,0.01,0.033,0.021,0.054,0.023c0.032,0.003,0.063-0.014,0.09-0.034c0.138-0.102,0.229-0.252,0.311-0.401
			c0.181-0.337,0.32-0.695,0.412-1.066c0.022,0.103-0.014,0.209-0.051,0.307c-0.108,0.285-0.24,0.563-0.371,0.839
			c-0.06,0.128-0.124,0.259-0.227,0.355C331.889,95.553,331.849,95.588,331.853,95.632z"/>
		<path id="XMLID_107_" fill="#FEBFBF" d="M331.26,92.859c0,0-0.519,0.401-0.552,0.542c-0.032,0.14-0.086,0.82-0.341,1.056
			c-0.255,0.237-0.695,0.347-0.724,0.029c-0.027-0.317-0.146-1.135-0.146-1.135s-0.029-0.305,0.611-0.853
			c0.64-0.548,0.98-0.72,1.119-0.76c0.138-0.04,0.48-0.14,0.48-0.14s0.859-0.006,1.057,0.134s0.764,0.357,0.695,0.924
			c-0.068,0.567-0.66,0.934-1.095,0.918S331.363,92.887,331.26,92.859z"/>
	</g>
	<g>
		<path id="XMLID_106_" fill="#FEBFBF" d="M338.95,96.319c0.022,0.182,0.022,0.373-0.063,0.483
			c-0.088,0.115-0.331,0.169-0.465,0.232c0,0-0.532,0.335-0.578,0.38c-0.042,0.042-0.915,1.035-1.237,1.354
			c-0.039,0.039-0.069,0.067-0.09,0.083c-0.19,0.15-1.499-0.221-1.615-0.313c-0.115-0.093-0.566-0.544-0.544-0.718
			c0.004-0.035,0.004-0.065-0.002-0.091c-0.018-0.104-0.097-0.152-0.125-0.246C334.197,97.37,334,96.872,334,96.872
			s0.058-0.614,0.104-0.834c0.046-0.221,0.337-0.395,0.337-0.395s0-0.22,0-0.323c0-0.014,0.007-0.037,0.02-0.064
			c0.083-0.193,0.411-0.686,0.501-0.903c0.049-0.116,0.266-0.272,0.502-0.408c0.279-0.158,0.585-0.286,0.68-0.279
			c0.106,0.008,0.642,0.212,1.035,0.368c0.638,0.25,1.367,0.8,1.604,1.472c0.052,0.147,0.079,0.301,0.107,0.455
			C338.904,96.053,338.933,96.184,338.95,96.319z"/>
		<path id="XMLID_105_" fill="#FEBFBF" d="M336.092,98.777c0.112,0,0.325-0.006,0.515-0.009c-0.039,0.039-0.069,0.067-0.09,0.083
			c-0.19,0.15-1.499-0.221-1.615-0.313c-0.115-0.093-0.566-0.544-0.544-0.718c0.004-0.035,0.004-0.065-0.002-0.091
			c-0.018-0.104-0.097-0.152-0.125-0.246C334.197,97.37,334,96.872,334,96.872s0.058-0.614,0.104-0.834
			c0.046-0.221,0.337-0.395,0.337-0.395s0-0.22,0-0.323c0-0.014,0.007-0.037,0.02-0.064c0.083-0.193,0.411-0.686,0.501-0.903
			c0.049-0.116,0.266-0.272,0.502-0.408l1.324,0.506l-0.2,0.48l-0.46,0.179l-0.772,0.62l-0.495,0.059c0,0-0.018-0.295-0.139-0.07
			c-0.122,0.225-0.139,0.503-0.139,0.503l1.511,0.155h-0.851l-0.895-0.155l-0.097,0.382l0.206,0.468l1.636,0.348h-0.495
			l-1.277-0.294c0,0-0.086,0.347,0.062,0.452c0.147,0.104,0.339,0.208,0.339,0.208l1.097,0.339h-0.298l-1.161-0.393
			c0.026,0.034,0.46,0.593,0.519,0.653C334.937,98.446,335.859,98.777,336.092,98.777z"/>
		<path id="XMLID_104_" fill="#FEBFBF" d="M337.177,94.035c-0.09,0.168-0.216,0.33-0.391,0.417l-1.12,0.912
			c0,0-0.208,0.296-0.668,0.357c-0.459,0.06-0.564-0.132-0.539-0.464c0.083-0.193,0.411-0.686,0.501-0.903
			c0.104-0.25,1.008-0.701,1.182-0.687C336.249,93.675,336.784,93.879,337.177,94.035z"/>
	</g>
	<path fill="#EEEFF0" d="M336.924,93.469c0,0,0.28-0.234,1.184,0.227c1.46,0.745,1.886,2.682,1.663,3.329s-0.742,1.301-1.913,0.423
		l0.407-0.508c0,0,0.822,0.45,0.931-0.294c0.108-0.744-0.049-1.356-0.659-2C338.119,94.205,337.408,93.693,336.924,93.469z"/>
	<path fill="#EEEFF0" d="M336.924,93.469l-0.345,0.382l1.351,0.514c0,0,1.587,1.589,1.231,2.688
		c-0.354,1.099-0.535,0.942-0.535,0.942s0.403,0.439,0.854-0.514c0.452-0.953-0.158-1.981-0.158-1.981
		S338.167,93.644,336.924,93.469z"/>
	<path fill="#C2C5C7" d="M336.58,93.806c0,0,0.28-0.234,1.184,0.227c1.46,0.745,1.886,2.683,1.663,3.329s-0.743,1.301-1.913,0.423
		l0.406-0.507c0,0,0.822,0.449,0.931-0.294c0.108-0.744-0.049-1.356-0.659-2C337.773,94.542,337.062,94.03,336.58,93.806z"/>
	<path fill="#EEEFF0" d="M331.383,91.516c0,0-0.253-0.601,0.501-0.9c0.754-0.3,2.625,0.679,3.055,1.281
		c0.466,0.651,0.949,1.863-0.045,2.263c-0.377,0.152-0.668,0.168-0.876,0.15l0.416-0.809c0,0,0.5,0.094,0.162-0.867
		c-0.337-0.961-1.526-1.451-2.291-1.388C331.541,91.309,331.383,91.516,331.383,91.516z"/>
	<path fill="#EEEFF0" d="M331.135,91.537c0,0,0.03-0.335,0.303-0.586c0.272-0.252,3.429,0.62,3.729,1.55
		c0.302,0.93,0.309,1.028,0.309,1.028s-0.18,0.686-0.362,0.786c-0.183,0.101-0.6-0.144-0.6-0.144l0.108-1.174l-1.214-1.235
		l-2.066-0.375L331.135,91.537z"/>
	<path fill="#C2C5C7" d="M331.176,91.907c0,0-0.253-0.601,0.5-0.9c0.754-0.3,2.625,0.679,3.056,1.281
		c0.466,0.651,0.948,1.863-0.045,2.263c-0.377,0.152-0.668,0.168-0.877,0.15l0.417-0.809c0,0,0.5,0.094,0.162-0.867
		s-1.527-1.451-2.292-1.388C331.333,91.7,331.176,91.907,331.176,91.907z"/>
	<path fill="#FBFBFB" d="M337.743,77.67c0,0,1.478,0.916,2.265,0.899c-0.063,0.819,0,0.899,0,0.899s-0.787,0.048-1.542-0.385
		s-0.755-0.434-0.755-0.434L337.743,77.67z"/>
	<path fill="#E3C3C3" d="M348.896,124.724c0.512-0.162,0.961-0.373,1.21-0.612c0.422-0.409,1.049-1.115,0.943-2.395l-0.665-7.885
		l-1.003-4.813l1.987-10.131c0.49-1.742,0.438-3.983,0.349-5.302c0.157,2.681-0.437,4.431-1.095,6.861
		c-0.748,2.755-2.07,8.983-2.07,8.983c1.37,4.818,2.217,11.351,2.004,12.849C350.404,123.328,349.457,124.258,348.896,124.724z"/>
	<g>
		<path fill="#FFA575" d="M345.078,89.054c0.543-0.241,1.322,0.217,1.756,0.594c0.11,0.096,0.273-0.065,0.162-0.162
			c-0.512-0.444-1.329-0.943-2.033-0.63C344.829,88.916,344.945,89.113,345.078,89.054L345.078,89.054z"/>
	</g>
	<g>
		<path fill="#B8BDC2" d="M334.455,92.43c-0.078,0-0.154-0.024-0.22-0.069c-0.085-0.059-0.142-0.147-0.16-0.249l-0.011-0.062
			c-0.018-0.102,0.004-0.204,0.063-0.289c0.06-0.085,0.148-0.142,0.25-0.16l0.741-0.135c0.104-0.018,0.206,0.004,0.29,0.063
			c0.085,0.059,0.143,0.147,0.16,0.248l0.011,0.062c0.019,0.102-0.004,0.204-0.063,0.289c-0.059,0.085-0.146,0.142-0.248,0.161
			l-0.742,0.135C334.501,92.428,334.478,92.43,334.455,92.43z M335.187,91.718c-0.007,0-0.016,0.001-0.022,0.002l-0.743,0.135
			c-0.034,0.006-0.063,0.025-0.084,0.053c-0.02,0.029-0.027,0.063-0.021,0.098l0.011,0.061c0.006,0.034,0.025,0.063,0.054,0.083
			s0.063,0.028,0.097,0.021v0l0.743-0.134c0.034-0.007,0.063-0.025,0.084-0.054c0.02-0.028,0.026-0.063,0.021-0.097l-0.011-0.061
			c-0.006-0.034-0.025-0.063-0.054-0.083C335.24,91.726,335.214,91.718,335.187,91.718z"/>
	</g>
	<g>
		<path fill="#B8BDC2" d="M337.684,94.298c-0.131,0-0.26-0.067-0.332-0.188l-0.388-0.648c-0.109-0.184-0.05-0.421,0.133-0.53
			l0.053-0.031c0.09-0.054,0.193-0.069,0.294-0.044c0.1,0.025,0.184,0.088,0.237,0.177l0.388,0.647
			c0.053,0.088,0.068,0.192,0.043,0.293c-0.024,0.1-0.088,0.185-0.177,0.237l-0.054,0.032
			C337.82,94.28,337.751,94.298,337.684,94.298z M337.185,93.33l0.388,0.647c0.036,0.062,0.118,0.081,0.177,0.045l0.055-0.032
			c0.029-0.018,0.05-0.046,0.059-0.079c0.008-0.034,0.003-0.068-0.015-0.098l-0.389-0.648c-0.018-0.03-0.045-0.051-0.079-0.06
			c-0.032-0.008-0.068-0.003-0.098,0.015l-0.053,0.032C337.168,93.189,337.148,93.269,337.185,93.33L337.185,93.33z"/>
	</g>
	<g>
		<path fill="#EEEFF0" d="M337.312,93.483c-0.131,0-0.26-0.067-0.332-0.188l-0.389-0.648c-0.109-0.183-0.049-0.421,0.134-0.53
			l0.054-0.032c0.088-0.053,0.191-0.068,0.292-0.043c0.101,0.025,0.185,0.089,0.237,0.177l0.388,0.647
			c0.054,0.089,0.068,0.193,0.043,0.293c-0.024,0.1-0.087,0.184-0.176,0.237l-0.054,0.032
			C337.448,93.466,337.379,93.483,337.312,93.483z M336.812,92.516l0.388,0.648c0.036,0.062,0.117,0.081,0.178,0.044l0.054-0.031
			c0.029-0.018,0.051-0.046,0.059-0.08c0.008-0.033,0.004-0.068-0.014-0.098l-0.389-0.648c-0.018-0.029-0.046-0.051-0.079-0.059
			c-0.035-0.008-0.069-0.003-0.098,0.015l-0.054,0.032C336.796,92.375,336.776,92.455,336.812,92.516L336.812,92.516z"/>
	</g>
	<g>
		<path fill="#EEEFF0" d="M336.029,92.398c-0.01,0-0.021,0-0.03-0.001l-0.753-0.059c-0.104-0.009-0.197-0.056-0.265-0.135
			c-0.066-0.079-0.099-0.179-0.091-0.282l0.005-0.061c0.009-0.103,0.057-0.196,0.135-0.264s0.181-0.102,0.282-0.092l0.752,0.06
			c0.104,0.009,0.197,0.056,0.265,0.135c0.066,0.079,0.099,0.179,0.091,0.282l-0.005,0.061
			C336.398,92.245,336.228,92.398,336.029,92.398z M335.266,92.082l0.753,0.059c0.076,0.002,0.133-0.048,0.139-0.119l0.005-0.061
			c0.003-0.035-0.008-0.068-0.03-0.094c-0.022-0.026-0.054-0.043-0.089-0.046l-0.752-0.06c-0.033,0-0.068,0.009-0.095,0.031
			s-0.042,0.054-0.045,0.088l-0.005,0.062c-0.003,0.035,0.008,0.068,0.03,0.095S335.231,92.079,335.266,92.082L335.266,92.082z"/>
	</g>
	<g>
		<path fill="#B8BDC2" d="M336.597,92.688c-0.063,0-0.125-0.016-0.182-0.047l-0.666-0.357c-0.091-0.049-0.157-0.13-0.187-0.229
			c-0.03-0.099-0.021-0.204,0.029-0.294l0.029-0.055c0.101-0.187,0.335-0.259,0.523-0.158l0.665,0.357
			c0.091,0.049,0.158,0.13,0.188,0.229s0.02,0.204-0.029,0.294l-0.029,0.055c-0.05,0.091-0.131,0.157-0.229,0.188
			C336.672,92.683,336.635,92.688,336.597,92.688z M335.872,92.058l0.665,0.357c0.063,0.034,0.142,0.011,0.176-0.052l0.029-0.055
			c0.016-0.031,0.02-0.066,0.01-0.099c-0.01-0.033-0.032-0.06-0.063-0.076l-0.666-0.357c-0.063-0.035-0.142-0.01-0.175,0.053
			l-0.029,0.055c-0.017,0.03-0.02,0.065-0.011,0.099C335.819,92.015,335.84,92.042,335.872,92.058L335.872,92.058z"/>
	</g>
	<g>
		<path fill="#FBFBFB" d="M345.416,69.776c0,0,2.149,0.548,2.527,1.49c0.377,0.942-0.271,2.485-5.842,5.29
			c-0.836-0.856-1.791-4.918-0.589-6.16C342.714,69.154,345.416,69.776,345.416,69.776z"/>
		<path fill="#FFADB7" d="M342.432,70.917c-0.1,0.48-0.539,1.362,0.589,1.84c0.432,0.182,1.057,0.252,1.668,0.162
			c0.224-0.034,0.441-0.087,0.65-0.169c0.707-0.268,1.264-0.817,1.264-1.745c-0.005-1.943,0.008-2.396,0.483-3.976
			c0.35-1.175-1.038-1.568-1.781-1.694c0-0.002-0.002,0-0.002,0c-0.257-0.043-0.435-0.054-0.435-0.054l-2.768,3.12
			c0,0,0.136,0.635,0.236,1.277C342.417,70.187,342.476,70.703,342.432,70.917z"/>
		
			<linearGradient id="SVGID_1_" gradientUnits="userSpaceOnUse" x1="1538.3179" y1="68.9995" x2="1535.2439" y2="69.2099" gradientTransform="matrix(-1 0 0 1 1883.0107 0)">
			<stop  offset="0.1224" style="stop-color:#F59FB0"/>
			<stop  offset="0.9896" style="stop-color:#F8A8B2"/>
		</linearGradient>
		<path fill="url(#SVGID_1_)" d="M343.957,72.255c0.396,0.283,0.904,0.427,1.383,0.494c0.707-0.268,1.264-0.817,1.264-1.745
			c-0.005-1.943,0.008-2.396,0.483-3.976c0.35-1.175-1.038-1.568-1.781-1.694c0-0.002-0.002,0-0.002,0
			c-1.052,0.781-1.47,3.066-1.681,3.693C343.316,69.942,342.9,71.502,343.957,72.255z"/>
		<g>
			<path fill="#FEBFBF" d="M339.896,68.205c0.38,1.354,0.938,2.359,1.57,2.542c0.498,0.144,2.875,0.252,4.41-1.183
				c0.411-0.385,0.686-1.452,0.938-1.976c0.118-0.247,0.236-0.491,0.35-0.732c1.046-2.195,1.861-4.233,0.887-6.225
				c-0.758-1.55-3.053-2.238-4.423-1.835c0,0-2.725,0.691-3.352,2.822c-0.046,0.154-0.087,0.298-0.123,0.431l-0.005,0.019
				c-0.48,1.698-0.375,1.832-0.299,2.608C339.929,65.517,339.515,66.848,339.896,68.205z"/>
			<path fill="#E6BCCB" d="M339.739,67.231c0.019,0.318,0.064,0.645,0.157,0.974c0.38,1.354,0.938,2.359,1.57,2.542
				c0.498,0.144,2.875,0.252,4.41-1.183c0.411-0.385,0.686-1.452,0.938-1.976c0.055-0.113,0.108-0.224,0.162-0.334
				c-0.008-1.019-0.707-1.846-0.707-1.846s-0.393,0.365-0.555,1.043s-0.737,1.442-1.326,1.719s-1.488,0.47-2.429,0.257
				c-0.94-0.213-1.567-0.504-1.876-0.943C339.976,67.332,339.852,67.26,339.739,67.231z"/>
			<path fill="#F2AEAE" d="M340.153,62.05c0.033-0.071,0.18-0.354,0.52-0.233c0.473,0.165,0.681,0.519,1.063,0.638
				c2.709,0.83,3.213,0.092,3.485,1.318c0.274,1.233,0.493,2.68,0.493,2.68l0.807-1.316c0,0,0.617,0.067,0.975,0.521
				c-0.096,0.389-0.206,0.8-0.332,1.198c1.046-2.195,1.861-4.233,0.887-6.225c-0.758-1.55-3.053-2.238-4.423-1.835
				c0,0-2.725,0.691-3.352,2.822C340.23,61.772,340.189,61.917,340.153,62.05z"/>
			
				<linearGradient id="SVGID_2_" gradientUnits="userSpaceOnUse" x1="-5452.1309" y1="-808.7407" x2="-5449.3257" y2="-810.008" gradientTransform="matrix(0.9834 -0.1815 0.1815 0.9834 5854.4678 -127.4744)">
				<stop  offset="0.1224" style="stop-color:#FEB9B8"/>
				<stop  offset="1" style="stop-color:#FFDEDE"/>
			</linearGradient>
			<path fill="url(#SVGID_2_)" d="M346.269,65.588c0,0,0.232-0.874,1.145-0.798c0.913,0.076,0.931,1.097,0.163,2.154
				s-1.188,0.055-1.246-0.005S346.61,66.16,346.269,65.588z"/>
			
				<linearGradient id="SVGID_3_" gradientUnits="userSpaceOnUse" x1="-5450.728" y1="-809.7441" x2="-5451.5132" y2="-808.7519" gradientTransform="matrix(0.9834 -0.1815 0.1815 0.9834 5854.4678 -127.4744)">
				<stop  offset="0.1224" style="stop-color:#FCA4B5"/>
				<stop  offset="0.9896" style="stop-color:#FFADB7"/>
			</linearGradient>
			<path fill="url(#SVGID_3_)" d="M346.606,65.65c0,0,0.3-0.523,0.709-0.396c0.63,0.196-0.026,1.288-0.084,1.423
				s-0.49,0.165-0.591-0.114C346.539,66.285,346.966,65.958,346.606,65.65z"/>
		</g>
		<g>
			
				<ellipse transform="matrix(-0.9992 0.041 -0.041 -0.9992 683.1207 116.7978)" fill="#FFFFFF" cx="340.362" cy="65.409" rx="0.202" ry="0.474"/>
			<path fill="#FEBFBF" d="M340.686,66.666c-0.129,0.092-0.363-0.039-0.524-0.291c-0.16-0.252-0.186-0.531-0.057-0.623
				c0.129-0.091,0.363,0.039,0.523,0.291C340.79,66.296,340.815,66.574,340.686,66.666z"/>
			<path fill="#FFADB7" d="M340.507,66.631c-0.135,0.095-0.343,0.01-0.465-0.189c-0.123-0.199-0.113-0.438,0.021-0.533
				c0.134-0.096,0.342-0.011,0.465,0.188C340.651,66.296,340.641,66.535,340.507,66.631z"/>
			<path fill="#FFFFFF" d="M342.947,66.235c-0.005,0.173-0.02,0.551-0.02,0.551s-0.177-0.096-0.293-0.091
				c-0.182,0.008-0.34,0.063-0.291-0.491c0.021-0.242,0.129-0.445,0.311-0.453C342.835,65.745,342.955,65.993,342.947,66.235z"/>
			<path fill="#FEBFBF" d="M343.116,66.885c0,0-0.342,0.35-0.639,0.314s-0.528-0.193-0.518-0.35
				c0.012-0.158,0.261-0.257,0.558-0.221C342.814,66.664,343.116,66.885,343.116,66.885z"/>
			<g>
				<path fill="#754554" d="M342.252,64.961c0.323,0.172,0.607,0.425,0.879,0.666c0.149,0.133,0.371-0.087,0.221-0.221
					c-0.29-0.257-0.598-0.531-0.942-0.715C342.233,64.598,342.075,64.867,342.252,64.961L342.252,64.961z"/>
			</g>
			<g>
				<path fill="#754554" d="M340.674,63.934c-0.271,0.007-0.613-0.015-0.859,0.112c-0.179,0.092-0.021,0.361,0.157,0.27
					c0.188-0.097,0.494-0.064,0.702-0.07C340.875,64.24,340.875,63.929,340.674,63.934L340.674,63.934z"/>
			</g>
			<g>
				<path fill="#C28698" d="M340.453,68.802c0.41-0.215,0.739,0.074,0.961,0.419c0.079,0.124,0.277,0.009,0.197-0.116
					c-0.292-0.456-0.741-0.78-1.273-0.501C340.208,68.673,340.323,68.87,340.453,68.802L340.453,68.802z"/>
			</g>
			<path fill="#FC9AB2" d="M340.95,67.536L340.95,67.536c-0.212-0.033-0.356-0.232-0.323-0.444l0.296-1.726
				c0.033-0.212,0.231-0.356,0.443-0.323l0,0c0.212,0.033,0.356,0.232,0.323,0.444l-0.295,1.726
				C341.361,67.425,341.162,67.569,340.95,67.536z"/>
			<path fill="#FC9AB2" d="M340.988,67.753l-0.449-0.163c-0.195-0.07-0.296-0.286-0.225-0.48l0,0
				c0.093-0.258,0.38-0.392,0.638-0.298l0.22,0.08c0.258,0.094,0.392,0.381,0.297,0.638v0.001
				C341.397,67.724,341.182,67.824,340.988,67.753z"/>
			
				<linearGradient id="SVGID_4_" gradientUnits="userSpaceOnUse" x1="-4280.6982" y1="67.7305" x2="-4280.9463" y2="64.7295" gradientTransform="matrix(1 0 0 1 4622.0239 0)">
				<stop  offset="0.1224" style="stop-color:#FB7F9E"/>
				<stop  offset="1" style="stop-color:#FCA4B5"/>
			</linearGradient>
			<path fill="url(#SVGID_4_)" d="M341.69,65.486l-0.274,1.598c0.085,0.128,0.108,0.29,0.054,0.444
				c-0.056,0.151-0.2,0.247-0.352,0.247c-0.044,0-0.088-0.007-0.129-0.023l-0.224-0.08c0.083,0.023,0.329,0.077,0.468-0.059
				c0.06-0.057,0.085-0.146,0.093-0.237c0.019-0.172-0.025-0.357-0.025-0.357l0.013-0.049l0.379-1.518
				C341.692,65.463,341.692,65.476,341.69,65.486z"/>
			
				<ellipse transform="matrix(0.9612 0.2759 -0.2759 0.9612 31.8388 -91.9132)" fill="#FFADB7" cx="342.591" cy="67.202" rx="0.682" ry="0.363"/>
		</g>
		<g>
			<g>
				<path fill="#D99AAD" d="M343.266,69.902c1.006-0.176,2.015-0.735,2.581-1.596c0.055-0.083-0.078-0.16-0.133-0.078
					c-0.545,0.828-1.523,1.356-2.489,1.525C343.127,69.771,343.169,69.92,343.266,69.902L343.266,69.902z"/>
			</g>
			<g>
				<path fill="#D99AAD" d="M343.314,69.449c-0.031,0.229-0.025,0.488,0.15,0.663c0.07,0.07,0.18-0.039,0.109-0.109
					c-0.132-0.131-0.134-0.344-0.111-0.513C343.476,69.394,343.328,69.352,343.314,69.449L343.314,69.449z"/>
			</g>
			<g>
				<path fill="#D99AAD" d="M343.9,69.238c-0.032,0.229-0.025,0.489,0.15,0.663c0.07,0.07,0.18-0.039,0.108-0.109
					c-0.131-0.13-0.134-0.344-0.11-0.513C344.061,69.183,343.913,69.141,343.9,69.238L343.9,69.238z"/>
			</g>
			<g>
				<path fill="#D99AAD" d="M344.389,69.049c0.066,0.222,0.188,0.45,0.419,0.533c0.094,0.034,0.134-0.115,0.041-0.149
					c-0.175-0.063-0.263-0.264-0.312-0.425C344.51,68.913,344.361,68.953,344.389,69.049L344.389,69.049z"/>
			</g>
			<g>
				<path fill="#D99AAD" d="M345.062,68.618c0.066,0.222,0.188,0.449,0.419,0.533c0.094,0.034,0.134-0.115,0.041-0.149
					c-0.175-0.063-0.263-0.263-0.312-0.425C345.183,68.482,345.034,68.522,345.062,68.618L345.062,68.618z"/>
			</g>
		</g>
		<g>
			<path fill="#FDEBEE" d="M344.447,67.11l0.794-0.648c0.083-0.068,0.104-0.202,0.045-0.298l-0.05-0.081
				c-0.059-0.097-0.174-0.12-0.258-0.052l-0.794,0.648c-0.083,0.068-0.104,0.202-0.044,0.298l0.049,0.081
				C344.248,67.155,344.363,67.178,344.447,67.11z"/>
			<path fill="#FEF9FA" d="M344.247,66.263l0.56,0.919c0.059,0.097,0.175,0.12,0.258,0.052l0.07-0.057
				c0.083-0.068,0.104-0.202,0.044-0.298l-0.56-0.919c-0.059-0.096-0.175-0.119-0.258-0.051l-0.07,0.057
				C344.208,66.033,344.187,66.166,344.247,66.263z"/>
		</g>
	</g>
	<g>
		<path fill="#FF9061" d="M348.883,100.708c-2.393-1.409-2.805-4.14-2.821-4.255l0.51-0.072c0.003,0.025,0.397,2.604,2.572,3.885
			L348.883,100.708z"/>
	</g>
</g>
</svg>
